%TF.GenerationSoftware,KiCad,Pcbnew,7.0.9-7.0.9~ubuntu20.04.1*%
%TF.CreationDate,2023-12-28T06:23:10+01:00*%
%TF.ProjectId,M50747_FP,4d353037-3437-45f4-9650-2e6b69636164,rev?*%
%TF.SameCoordinates,Original*%
%TF.FileFunction,Soldermask,Bot*%
%TF.FilePolarity,Negative*%
%FSLAX46Y46*%
G04 Gerber Fmt 4.6, Leading zero omitted, Abs format (unit mm)*
G04 Created by KiCad (PCBNEW 7.0.9-7.0.9~ubuntu20.04.1) date 2023-12-28 06:23:10*
%MOMM*%
%LPD*%
G01*
G04 APERTURE LIST*
G04 Aperture macros list*
%AMRoundRect*
0 Rectangle with rounded corners*
0 $1 Rounding radius*
0 $2 $3 $4 $5 $6 $7 $8 $9 X,Y pos of 4 corners*
0 Add a 4 corners polygon primitive as box body*
4,1,4,$2,$3,$4,$5,$6,$7,$8,$9,$2,$3,0*
0 Add four circle primitives for the rounded corners*
1,1,$1+$1,$2,$3*
1,1,$1+$1,$4,$5*
1,1,$1+$1,$6,$7*
1,1,$1+$1,$8,$9*
0 Add four rect primitives between the rounded corners*
20,1,$1+$1,$2,$3,$4,$5,0*
20,1,$1+$1,$4,$5,$6,$7,0*
20,1,$1+$1,$6,$7,$8,$9,0*
20,1,$1+$1,$8,$9,$2,$3,0*%
G04 Aperture macros list end*
%ADD10RoundRect,0.250000X0.650000X-0.412500X0.650000X0.412500X-0.650000X0.412500X-0.650000X-0.412500X0*%
%ADD11R,1.350000X1.350000*%
%ADD12R,1.600000X1.600000*%
%ADD13O,1.600000X1.600000*%
%ADD14R,1.700000X1.700000*%
%ADD15O,1.700000X1.700000*%
%ADD16R,1.500000X1.000000*%
%ADD17RoundRect,0.250000X-0.625000X0.312500X-0.625000X-0.312500X0.625000X-0.312500X0.625000X0.312500X0*%
G04 APERTURE END LIST*
D10*
%TO.C,C1*%
X204470000Y-69165000D03*
X204470000Y-66040000D03*
%TD*%
D11*
%TO.C,J4*%
X183896000Y-40640000D03*
%TD*%
D12*
%TO.C,U3*%
X173736000Y-52730400D03*
D13*
X176276000Y-52730400D03*
X178816000Y-52730400D03*
X181356000Y-52730400D03*
X183896000Y-52730400D03*
X186436000Y-52730400D03*
X188976000Y-52730400D03*
X191516000Y-52730400D03*
X194056000Y-52730400D03*
X196596000Y-52730400D03*
X199136000Y-52730400D03*
X201676000Y-52730400D03*
X204216000Y-52730400D03*
X206756000Y-52730400D03*
X209296000Y-52730400D03*
X211836000Y-52730400D03*
X214376000Y-52730400D03*
X216916000Y-52730400D03*
X219456000Y-52730400D03*
X221996000Y-52730400D03*
X221996000Y-37490400D03*
X219456000Y-37490400D03*
X216916000Y-37490400D03*
X214376000Y-37490400D03*
X211836000Y-37490400D03*
X209296000Y-37490400D03*
X206756000Y-37490400D03*
X204216000Y-37490400D03*
X201676000Y-37490400D03*
X199136000Y-37490400D03*
X196596000Y-37490400D03*
X194056000Y-37490400D03*
X191516000Y-37490400D03*
X188976000Y-37490400D03*
X186436000Y-37490400D03*
X183896000Y-37490400D03*
X181356000Y-37490400D03*
X178816000Y-37490400D03*
X176276000Y-37490400D03*
X173736000Y-37490400D03*
%TD*%
D14*
%TO.C,J1*%
X166878000Y-81026000D03*
D15*
X164338000Y-81026000D03*
X166878000Y-78486000D03*
X164338000Y-78486000D03*
X166878000Y-75946000D03*
X164338000Y-75946000D03*
X166878000Y-73406000D03*
X164338000Y-73406000D03*
X166878000Y-70866000D03*
X164338000Y-70866000D03*
X166878000Y-68326000D03*
X164338000Y-68326000D03*
X166878000Y-65786000D03*
X164338000Y-65786000D03*
X166878000Y-63246000D03*
X164338000Y-63246000D03*
X166878000Y-60706000D03*
X164338000Y-60706000D03*
X166878000Y-58166000D03*
X164338000Y-58166000D03*
X166878000Y-55626000D03*
X164338000Y-55626000D03*
X166878000Y-53086000D03*
X164338000Y-53086000D03*
X166878000Y-50546000D03*
X164338000Y-50546000D03*
X166878000Y-48006000D03*
X164338000Y-48006000D03*
X166878000Y-45466000D03*
X164338000Y-45466000D03*
X166878000Y-42926000D03*
X164338000Y-42926000D03*
%TD*%
D11*
%TO.C,J7*%
X188976000Y-49784000D03*
%TD*%
%TO.C,J6*%
X183896000Y-49784000D03*
%TD*%
D16*
%TO.C,JP1*%
X210058000Y-66264000D03*
X210058000Y-67564000D03*
X210058000Y-68864000D03*
%TD*%
D11*
%TO.C,J2*%
X225044000Y-72136000D03*
%TD*%
%TO.C,J8*%
X176276000Y-49784000D03*
%TD*%
%TO.C,J3*%
X178816000Y-49784000D03*
%TD*%
D17*
%TO.C,R1*%
X215900000Y-69403500D03*
X215900000Y-72328500D03*
%TD*%
M02*
