%TF.GenerationSoftware,KiCad,Pcbnew,7.0.9-7.0.9~ubuntu20.04.1*%
%TF.CreationDate,2023-12-28T06:23:10+01:00*%
%TF.ProjectId,M50747_FP,4d353037-3437-45f4-9650-2e6b69636164,rev?*%
%TF.SameCoordinates,Original*%
%TF.FileFunction,Copper,L1,Top*%
%TF.FilePolarity,Positive*%
%FSLAX46Y46*%
G04 Gerber Fmt 4.6, Leading zero omitted, Abs format (unit mm)*
G04 Created by KiCad (PCBNEW 7.0.9-7.0.9~ubuntu20.04.1) date 2023-12-28 06:23:10*
%MOMM*%
%LPD*%
G01*
G04 APERTURE LIST*
%TA.AperFunction,SMDPad,CuDef*%
%ADD10O,0.500000X2.000000*%
%TD*%
%TA.AperFunction,SMDPad,CuDef*%
%ADD11O,2.000000X0.500000*%
%TD*%
%TA.AperFunction,ComponentPad*%
%ADD12R,1.350000X1.350000*%
%TD*%
%TA.AperFunction,ComponentPad*%
%ADD13R,1.600000X1.600000*%
%TD*%
%TA.AperFunction,ComponentPad*%
%ADD14O,1.600000X1.600000*%
%TD*%
%TA.AperFunction,ComponentPad*%
%ADD15R,1.700000X1.700000*%
%TD*%
%TA.AperFunction,ComponentPad*%
%ADD16O,1.700000X1.700000*%
%TD*%
%TA.AperFunction,ViaPad*%
%ADD17C,0.800000*%
%TD*%
%TA.AperFunction,Conductor*%
%ADD18C,0.250000*%
%TD*%
%TA.AperFunction,Conductor*%
%ADD19C,0.400000*%
%TD*%
G04 APERTURE END LIST*
D10*
%TO.P,U1,1,P62*%
%TO.N,/P62*%
X202338000Y-75692000D03*
%TO.P,U1,2,P61*%
%TO.N,/P61*%
X203138000Y-75692000D03*
%TO.P,U1,3,P60*%
%TO.N,/P60*%
X203938000Y-75692000D03*
%TO.P,U1,4,P47*%
%TO.N,/P47*%
X204738000Y-75692000D03*
%TO.P,U1,5,P46*%
%TO.N,/P46*%
X205538000Y-75692000D03*
%TO.P,U1,6,P45*%
%TO.N,/P45*%
X206338000Y-75692000D03*
%TO.P,U1,7,P44*%
%TO.N,/P44*%
X207138000Y-75692000D03*
%TO.P,U1,8,P43*%
%TO.N,/P43*%
X207938000Y-75692000D03*
%TO.P,U1,9,P42*%
%TO.N,/P42*%
X208738000Y-75692000D03*
%TO.P,U1,10,P41*%
%TO.N,/P41*%
X209538000Y-75692000D03*
%TO.P,U1,11,P40*%
%TO.N,/P40*%
X210338000Y-75692000D03*
%TO.P,U1,12,P37/SRDY*%
%TO.N,/P37*%
X211138000Y-75692000D03*
%TO.P,U1,13,P36/CLK*%
%TO.N,/P36*%
X211938000Y-75692000D03*
%TO.P,U1,14,P35/TxD*%
%TO.N,/P35*%
X212738000Y-75692000D03*
%TO.P,U1,15,P34/RxD*%
%TO.N,/P34*%
X213538000Y-75692000D03*
%TO.P,U1,16,P33/CNTR*%
%TO.N,/P33*%
X214338000Y-75692000D03*
%TO.P,U1,17,P32/~{INT2}*%
%TO.N,/~{NMI}*%
X215138000Y-75692000D03*
%TO.P,U1,18,P31/SYNC*%
%TO.N,/SYNC*%
X215938000Y-75692000D03*
%TO.P,U1,19,P30/R/~{W}*%
%TO.N,/R{slash}~{W}*%
X216738000Y-75692000D03*
%TO.P,U1,20,~{INT1}*%
%TO.N,/~{IRQ1}*%
X217538000Y-75692000D03*
%TO.P,U1,21*%
%TO.N,unconnected-(U1-Pad21)*%
X218338000Y-75692000D03*
D11*
%TO.P,U1,22*%
%TO.N,unconnected-(U1-Pad22)*%
X221388000Y-72642000D03*
%TO.P,U1,23*%
%TO.N,unconnected-(U1-Pad23)*%
X221388000Y-71842000D03*
%TO.P,U1,24,CNVSS*%
%TO.N,Net-(JP1-C)*%
X221388000Y-71042000D03*
%TO.P,U1,25,~{RST}*%
%TO.N,/~{RST}*%
X221388000Y-70242000D03*
%TO.P,U1,26,EXTAL/CLK*%
%TO.N,/CPUCLK*%
X221388000Y-69442000D03*
%TO.P,U1,27,XTAL*%
%TO.N,unconnected-(U1-XTAL-Pad27)*%
X221388000Y-68642000D03*
%TO.P,U1,28,PHI*%
%TO.N,/PHI2*%
X221388000Y-67842000D03*
%TO.P,U1,29,GND*%
%TO.N,GND*%
X221388000Y-67042000D03*
%TO.P,U1,30,P57*%
%TO.N,/P57*%
X221388000Y-66242000D03*
%TO.P,U1,31,P56*%
%TO.N,/P56*%
X221388000Y-65442000D03*
%TO.P,U1,32,P55*%
%TO.N,/P55*%
X221388000Y-64642000D03*
%TO.P,U1,33,P54*%
%TO.N,/P54*%
X221388000Y-63842000D03*
%TO.P,U1,34,P53*%
%TO.N,/P53*%
X221388000Y-63042000D03*
%TO.P,U1,35,P52*%
%TO.N,/P52*%
X221388000Y-62242000D03*
%TO.P,U1,36,P51*%
%TO.N,/P51*%
X221388000Y-61442000D03*
D10*
%TO.P,U1,37,P50*%
%TO.N,/P50*%
X218338000Y-58392000D03*
%TO.P,U1,38*%
%TO.N,unconnected-(U1-Pad38)*%
X217538000Y-58392000D03*
%TO.P,U1,39,A15*%
%TO.N,/A15*%
X216738000Y-58392000D03*
%TO.P,U1,40,A14*%
%TO.N,/A14*%
X215938000Y-58392000D03*
%TO.P,U1,41,A13*%
%TO.N,/A13*%
X215138000Y-58392000D03*
%TO.P,U1,42,A12*%
%TO.N,/A12*%
X214338000Y-58392000D03*
%TO.P,U1,43,A11*%
%TO.N,/A11*%
X213538000Y-58392000D03*
%TO.P,U1,44,A10*%
%TO.N,/A10*%
X212738000Y-58392000D03*
%TO.P,U1,45,A9*%
%TO.N,/A9*%
X211938000Y-58392000D03*
%TO.P,U1,46,A8*%
%TO.N,/A8*%
X211138000Y-58392000D03*
%TO.P,U1,47,A7*%
%TO.N,/A7*%
X210338000Y-58392000D03*
%TO.P,U1,48,A6*%
%TO.N,/A6*%
X209538000Y-58392000D03*
%TO.P,U1,49,A5*%
%TO.N,/A5*%
X208738000Y-58392000D03*
%TO.P,U1,50,A4*%
%TO.N,/A4*%
X207938000Y-58392000D03*
%TO.P,U1,51,A3*%
%TO.N,/A3*%
X207138000Y-58392000D03*
%TO.P,U1,52,A2*%
%TO.N,/A2*%
X206338000Y-58392000D03*
%TO.P,U1,53,A1*%
%TO.N,/A1*%
X205538000Y-58392000D03*
%TO.P,U1,54,A0*%
%TO.N,/A0*%
X204738000Y-58392000D03*
%TO.P,U1,55*%
%TO.N,unconnected-(U1-Pad55)*%
X203938000Y-58392000D03*
%TO.P,U1,56,D7*%
%TO.N,/D7*%
X203138000Y-58392000D03*
%TO.P,U1,57,D6*%
%TO.N,/D6*%
X202338000Y-58392000D03*
D11*
%TO.P,U1,58,D5*%
%TO.N,/D5*%
X199288000Y-61442000D03*
%TO.P,U1,59,D4*%
%TO.N,/D4*%
X199288000Y-62242000D03*
%TO.P,U1,60,D3*%
%TO.N,/D3*%
X199288000Y-63042000D03*
%TO.P,U1,61,D2*%
%TO.N,/D2*%
X199288000Y-63842000D03*
%TO.P,U1,62,D1*%
%TO.N,/D1*%
X199288000Y-64642000D03*
%TO.P,U1,63,D0*%
%TO.N,/D0*%
X199288000Y-65442000D03*
%TO.P,U1,64*%
%TO.N,unconnected-(U1-Pad64)*%
X199288000Y-66242000D03*
%TO.P,U1,65,GND*%
%TO.N,GND*%
X199288000Y-67042000D03*
%TO.P,U1,66*%
%TO.N,unconnected-(U1-Pad66)*%
X199288000Y-67842000D03*
%TO.P,U1,67,Vcc*%
%TO.N,+5V*%
X199288000Y-68642000D03*
%TO.P,U1,68,P67*%
%TO.N,/P67*%
X199288000Y-69442000D03*
%TO.P,U1,69,P66*%
%TO.N,/P66*%
X199288000Y-70242000D03*
%TO.P,U1,70,P65*%
%TO.N,/P65*%
X199288000Y-71042000D03*
%TO.P,U1,71,P64*%
%TO.N,/P64*%
X199288000Y-71842000D03*
%TO.P,U1,72,P63*%
%TO.N,/P63*%
X199288000Y-72642000D03*
%TD*%
D12*
%TO.P,J4,1,Pin_1*%
%TO.N,Net-(J4-Pin_1)*%
X183896000Y-40640000D03*
%TD*%
D13*
%TO.P,U3,1,VSS*%
%TO.N,GND*%
X173736000Y-52730400D03*
D14*
%TO.P,U3,2,~{HALT}*%
%TO.N,/~{HALT}*%
X176276000Y-52730400D03*
%TO.P,U3,3,MR*%
%TO.N,Net-(J3-Pin_1)*%
X178816000Y-52730400D03*
%TO.P,U3,4,~{IRQ}*%
%TO.N,/~{IRQ1}*%
X181356000Y-52730400D03*
%TO.P,U3,5,VMA*%
%TO.N,Net-(J6-Pin_1)*%
X183896000Y-52730400D03*
%TO.P,U3,6,~{NMI}*%
%TO.N,/~{NMI}*%
X186436000Y-52730400D03*
%TO.P,U3,7,BA*%
%TO.N,/BA*%
X188976000Y-52730400D03*
%TO.P,U3,8,VCC*%
%TO.N,+5V*%
X191516000Y-52730400D03*
%TO.P,U3,9,A0*%
%TO.N,/A0*%
X194056000Y-52730400D03*
%TO.P,U3,10,A1*%
%TO.N,/A1*%
X196596000Y-52730400D03*
%TO.P,U3,11,A2*%
%TO.N,/A2*%
X199136000Y-52730400D03*
%TO.P,U3,12,A3*%
%TO.N,/A3*%
X201676000Y-52730400D03*
%TO.P,U3,13,A4*%
%TO.N,/A4*%
X204216000Y-52730400D03*
%TO.P,U3,14,A5*%
%TO.N,/A5*%
X206756000Y-52730400D03*
%TO.P,U3,15,A6*%
%TO.N,/A6*%
X209296000Y-52730400D03*
%TO.P,U3,16,A7*%
%TO.N,/A7*%
X211836000Y-52730400D03*
%TO.P,U3,17,A8*%
%TO.N,/A8*%
X214376000Y-52730400D03*
%TO.P,U3,18,A9*%
%TO.N,/A9*%
X216916000Y-52730400D03*
%TO.P,U3,19,A10*%
%TO.N,/A10*%
X219456000Y-52730400D03*
%TO.P,U3,20,A11*%
%TO.N,/A11*%
X221996000Y-52730400D03*
%TO.P,U3,21,VSS*%
%TO.N,GND*%
X221996000Y-37490400D03*
%TO.P,U3,22,A12*%
%TO.N,/A12*%
X219456000Y-37490400D03*
%TO.P,U3,23,A13*%
%TO.N,/A13*%
X216916000Y-37490400D03*
%TO.P,U3,24,A14*%
%TO.N,/A14*%
X214376000Y-37490400D03*
%TO.P,U3,25,A15*%
%TO.N,/A15*%
X211836000Y-37490400D03*
%TO.P,U3,26,D7*%
%TO.N,/D7*%
X209296000Y-37490400D03*
%TO.P,U3,27,D6*%
%TO.N,/D6*%
X206756000Y-37490400D03*
%TO.P,U3,28,D5*%
%TO.N,/D5*%
X204216000Y-37490400D03*
%TO.P,U3,29,D4*%
%TO.N,/D4*%
X201676000Y-37490400D03*
%TO.P,U3,30,D3*%
%TO.N,/D3*%
X199136000Y-37490400D03*
%TO.P,U3,31,D2*%
%TO.N,/D2*%
X196596000Y-37490400D03*
%TO.P,U3,32,D1*%
%TO.N,/D1*%
X194056000Y-37490400D03*
%TO.P,U3,33,D0*%
%TO.N,/D0*%
X191516000Y-37490400D03*
%TO.P,U3,34,R/~{W}*%
%TO.N,/R{slash}~{W}*%
X188976000Y-37490400D03*
%TO.P,U3,35,VCC_STANDBY*%
%TO.N,+5C*%
X186436000Y-37490400D03*
%TO.P,U3,36,RE*%
%TO.N,Net-(J4-Pin_1)*%
X183896000Y-37490400D03*
%TO.P,U3,37,E*%
%TO.N,/PHI2*%
X181356000Y-37490400D03*
%TO.P,U3,38,XTAL*%
%TO.N,GND*%
X178816000Y-37490400D03*
%TO.P,U3,39,EXTAL*%
%TO.N,/CPUCLK*%
X176276000Y-37490400D03*
%TO.P,U3,40,~{RESET}*%
%TO.N,/~{RST}*%
X173736000Y-37490400D03*
%TD*%
D15*
%TO.P,J1,1,Pin_1*%
%TO.N,GND*%
X166878000Y-81026000D03*
D16*
%TO.P,J1,2,Pin_2*%
%TO.N,/P50*%
X164338000Y-81026000D03*
%TO.P,J1,3,Pin_3*%
%TO.N,/P51*%
X166878000Y-78486000D03*
%TO.P,J1,4,Pin_4*%
%TO.N,/P52*%
X164338000Y-78486000D03*
%TO.P,J1,5,Pin_5*%
%TO.N,/P53*%
X166878000Y-75946000D03*
%TO.P,J1,6,Pin_6*%
%TO.N,/P54*%
X164338000Y-75946000D03*
%TO.P,J1,7,Pin_7*%
%TO.N,/P55*%
X166878000Y-73406000D03*
%TO.P,J1,8,Pin_8*%
%TO.N,/P56*%
X164338000Y-73406000D03*
%TO.P,J1,9,Pin_9*%
%TO.N,/P57*%
X166878000Y-70866000D03*
%TO.P,J1,10,Pin_10*%
%TO.N,/SYNC*%
X164338000Y-70866000D03*
%TO.P,J1,11,Pin_11*%
%TO.N,/P33*%
X166878000Y-68326000D03*
%TO.P,J1,12,Pin_12*%
%TO.N,/P34*%
X164338000Y-68326000D03*
%TO.P,J1,13,Pin_13*%
%TO.N,/P35*%
X166878000Y-65786000D03*
%TO.P,J1,14,Pin_14*%
%TO.N,/P36*%
X164338000Y-65786000D03*
%TO.P,J1,15,Pin_15*%
%TO.N,/P37*%
X166878000Y-63246000D03*
%TO.P,J1,16,Pin_16*%
%TO.N,/P40*%
X164338000Y-63246000D03*
%TO.P,J1,17,Pin_17*%
%TO.N,/P41*%
X166878000Y-60706000D03*
%TO.P,J1,18,Pin_18*%
%TO.N,/P42*%
X164338000Y-60706000D03*
%TO.P,J1,19,Pin_19*%
%TO.N,/P43*%
X166878000Y-58166000D03*
%TO.P,J1,20,Pin_20*%
%TO.N,/P44*%
X164338000Y-58166000D03*
%TO.P,J1,21,Pin_21*%
%TO.N,/P45*%
X166878000Y-55626000D03*
%TO.P,J1,22,Pin_22*%
%TO.N,/P46*%
X164338000Y-55626000D03*
%TO.P,J1,23,Pin_23*%
%TO.N,/P47*%
X166878000Y-53086000D03*
%TO.P,J1,24,Pin_24*%
%TO.N,/P60*%
X164338000Y-53086000D03*
%TO.P,J1,25,Pin_25*%
%TO.N,/P61*%
X166878000Y-50546000D03*
%TO.P,J1,26,Pin_26*%
%TO.N,/P62*%
X164338000Y-50546000D03*
%TO.P,J1,27,Pin_27*%
%TO.N,/P63*%
X166878000Y-48006000D03*
%TO.P,J1,28,Pin_28*%
%TO.N,/P64*%
X164338000Y-48006000D03*
%TO.P,J1,29,Pin_29*%
%TO.N,/P65*%
X166878000Y-45466000D03*
%TO.P,J1,30,Pin_30*%
%TO.N,/P66*%
X164338000Y-45466000D03*
%TO.P,J1,31,Pin_31*%
%TO.N,/P67*%
X166878000Y-42926000D03*
%TO.P,J1,32,Pin_32*%
%TO.N,+5V*%
X164338000Y-42926000D03*
%TD*%
D12*
%TO.P,J7,1,Pin_1*%
%TO.N,/BA*%
X188976000Y-49784000D03*
%TD*%
%TO.P,J6,1,Pin_1*%
%TO.N,Net-(J6-Pin_1)*%
X183896000Y-49784000D03*
%TD*%
%TO.P,J2,1,Pin_1*%
%TO.N,Net-(J2-Pin_1)*%
X225044000Y-72136000D03*
%TD*%
%TO.P,J8,1,Pin_1*%
%TO.N,/~{HALT}*%
X176276000Y-49784000D03*
%TD*%
%TO.P,J3,1,Pin_1*%
%TO.N,Net-(J3-Pin_1)*%
X178816000Y-49784000D03*
%TD*%
D17*
%TO.N,/PHI2*%
X181356000Y-43180000D03*
X209042000Y-63754000D03*
%TO.N,/CPUCLK*%
X212090000Y-64516000D03*
X176276000Y-42926000D03*
%TO.N,/~{RST}*%
X202438000Y-71628000D03*
X173482000Y-42926000D03*
%TO.N,/~{IRQ1}*%
X221234000Y-76962000D03*
%TO.N,/R{slash}~{W}*%
X224028000Y-52070000D03*
X222758000Y-74167980D03*
%TO.N,/P50*%
X230886000Y-60452000D03*
%TO.N,/P51*%
X230886000Y-61976000D03*
%TO.N,/P52*%
X230124000Y-62738000D03*
%TO.N,/P53*%
X229362000Y-63500000D03*
%TO.N,/P54*%
X228600000Y-64262000D03*
%TO.N,/P55*%
X227838000Y-65024000D03*
%TO.N,/P56*%
X226964342Y-65860431D03*
%TO.N,/P57*%
X226314000Y-66802000D03*
%TO.N,/SYNC*%
X215138000Y-77631000D03*
%TO.N,/~{NMI}*%
X191262000Y-66802000D03*
X194564000Y-74422000D03*
%TO.N,/D0*%
X194056000Y-59436000D03*
%TO.N,/D1*%
X195326000Y-58166000D03*
%TO.N,/D2*%
X196596000Y-59182000D03*
%TO.N,/D3*%
X201676000Y-63246000D03*
%TO.N,/D4*%
X203708000Y-62992000D03*
%TO.N,/D5*%
X205740000Y-62230000D03*
%TO.N,/D6*%
X208534000Y-61468000D03*
%TO.N,/D7*%
X210820000Y-60960000D03*
%TO.N,Net-(JP1-C)*%
X215899998Y-69403500D03*
%TO.N,+5V*%
X204470000Y-69165000D03*
%TO.N,GND*%
X204470000Y-66040000D03*
%TD*%
D18*
%TO.N,/PHI2*%
X218948000Y-67818000D02*
X214630000Y-63500000D01*
X214630000Y-63500000D02*
X209296000Y-63500000D01*
X209296000Y-63500000D02*
X209042000Y-63754000D01*
%TO.N,GND*%
X214745396Y-62979000D02*
X207531000Y-62979000D01*
X221388000Y-67042000D02*
X218808396Y-67042000D01*
X207531000Y-62979000D02*
X204470000Y-66040000D01*
%TO.N,/PHI2*%
X221364000Y-67818000D02*
X218948000Y-67818000D01*
X221388000Y-67842000D02*
X221364000Y-67818000D01*
%TO.N,GND*%
X218808396Y-67042000D02*
X214745396Y-62979000D01*
%TO.N,/PHI2*%
X181356000Y-43180000D02*
X181356000Y-37490400D01*
%TO.N,/CPUCLK*%
X212090000Y-64516000D02*
X213614000Y-64516000D01*
X213614000Y-64516000D02*
X218540000Y-69442000D01*
X218540000Y-69442000D02*
X221388000Y-69442000D01*
%TO.N,/~{RST}*%
X209804000Y-71628000D02*
X202438000Y-71628000D01*
X216475604Y-68268000D02*
X213164000Y-68268000D01*
X218449604Y-70242000D02*
X216475604Y-68268000D01*
X213164000Y-68268000D02*
X209804000Y-71628000D01*
X221388000Y-70242000D02*
X218449604Y-70242000D01*
%TO.N,Net-(JP1-C)*%
X221388000Y-71042000D02*
X217600000Y-71042000D01*
X217600000Y-71042000D02*
X215900000Y-69342000D01*
%TO.N,/CPUCLK*%
X176276000Y-37490400D02*
X176276000Y-42926000D01*
%TO.N,/P60*%
X164338000Y-53086000D02*
X165513000Y-51911000D01*
X165513000Y-51911000D02*
X167735000Y-51911000D01*
X167735000Y-51911000D02*
X168656000Y-52832000D01*
X168656000Y-52832000D02*
X168656000Y-54355172D01*
X168656000Y-54355172D02*
X168808000Y-54507172D01*
X168808000Y-54644772D02*
X186755228Y-72592000D01*
X168808000Y-54507172D02*
X168808000Y-54644772D01*
X203938000Y-77240000D02*
X203938000Y-75692000D01*
X186755228Y-72592000D02*
X187402792Y-72592000D01*
X187402792Y-72592000D02*
X192606792Y-77796000D01*
X192606792Y-77796000D02*
X203382000Y-77796000D01*
X203382000Y-77796000D02*
X203938000Y-77240000D01*
%TO.N,/P61*%
X187589188Y-72142000D02*
X186941624Y-72142000D01*
%TO.N,/P63*%
X187314416Y-71242000D02*
X170158000Y-54085584D01*
%TO.N,/P62*%
X164338000Y-50546000D02*
X165513000Y-49371000D01*
%TO.N,/P66*%
X188871168Y-70242000D02*
X199288000Y-70242000D01*
X187873604Y-69892000D02*
X188521168Y-69892000D01*
%TO.N,/P62*%
X169005000Y-49371000D02*
X169672000Y-50038000D01*
%TO.N,/P66*%
X188521168Y-69892000D02*
X188871168Y-70242000D01*
%TO.N,/P65*%
X171058000Y-53712792D02*
X171058000Y-47614000D01*
%TO.N,/P61*%
X186941624Y-72142000D02*
X169258000Y-54458376D01*
%TO.N,/P65*%
X188334772Y-70342000D02*
X187687208Y-70342000D01*
%TO.N,/P47*%
X204738000Y-77108198D02*
X203600198Y-78246000D01*
%TO.N,/P64*%
X165513000Y-46831000D02*
X169513000Y-46831000D01*
%TO.N,/P47*%
X186706432Y-73042000D02*
X186568832Y-73042000D01*
%TO.N,/P64*%
X170608000Y-47926000D02*
X170608000Y-53899188D01*
%TO.N,/P47*%
X203600198Y-78246000D02*
X191910432Y-78246000D01*
%TO.N,/P65*%
X187687208Y-70342000D02*
X171058000Y-53712792D01*
%TO.N,/P64*%
X188148376Y-70792000D02*
X189198376Y-71842000D01*
X170608000Y-53899188D02*
X187500812Y-70792000D01*
%TO.N,/P66*%
X164338000Y-45466000D02*
X165608000Y-44196000D01*
%TO.N,/P63*%
X170158000Y-54085584D02*
X170158000Y-49000000D01*
%TO.N,/P66*%
X165608000Y-44196000D02*
X170942000Y-44196000D01*
%TO.N,/P67*%
X199288000Y-69442000D02*
X188060000Y-69442000D01*
%TO.N,/P63*%
X170158000Y-49000000D02*
X169164000Y-48006000D01*
%TO.N,/P65*%
X168910000Y-45466000D02*
X166878000Y-45466000D01*
%TO.N,/P67*%
X170942000Y-42926000D02*
X166878000Y-42926000D01*
%TO.N,/P47*%
X191910432Y-78246000D02*
X186706432Y-73042000D01*
%TO.N,/P64*%
X169513000Y-46831000D02*
X170608000Y-47926000D01*
%TO.N,/P61*%
X203138000Y-75692000D02*
X203138000Y-77149604D01*
%TO.N,/P47*%
X166878000Y-53213568D02*
X166878000Y-53086000D01*
%TO.N,/P46*%
X164338000Y-55626000D02*
X165513000Y-54451000D01*
X165513000Y-54451000D02*
X167479036Y-54451000D01*
%TO.N,/P47*%
X204738000Y-75692000D02*
X204738000Y-77108198D01*
X168358000Y-54831168D02*
X168358000Y-54693568D01*
%TO.N,/P61*%
X202941604Y-77346000D02*
X192793188Y-77346000D01*
%TO.N,/P46*%
X167908000Y-54879964D02*
X167908000Y-55017564D01*
X167908000Y-55017564D02*
X186382436Y-73492000D01*
X191724036Y-78696000D02*
X204514000Y-78696000D01*
%TO.N,/P61*%
X169106000Y-53658812D02*
X169106000Y-51571919D01*
X192793188Y-77346000D02*
X187589188Y-72142000D01*
X168080081Y-50546000D02*
X166878000Y-50546000D01*
%TO.N,/P46*%
X186382436Y-73492000D02*
X186520036Y-73492000D01*
X167479036Y-54451000D02*
X167908000Y-54879964D01*
X204514000Y-78696000D02*
X205538000Y-77672000D01*
X205538000Y-77672000D02*
X205538000Y-75692000D01*
%TO.N,/P62*%
X165513000Y-49371000D02*
X169005000Y-49371000D01*
%TO.N,/P63*%
X189361980Y-72642000D02*
X187961980Y-71242000D01*
%TO.N,/P61*%
X203138000Y-77149604D02*
X202941604Y-77346000D01*
%TO.N,/P47*%
X168358000Y-54693568D02*
X166878000Y-53213568D01*
%TO.N,/P62*%
X187775584Y-71692000D02*
X191775584Y-75692000D01*
%TO.N,/P67*%
X171958000Y-53340000D02*
X171958000Y-43942000D01*
%TO.N,/P61*%
X169106000Y-51571919D02*
X168080081Y-50546000D01*
X169258000Y-54458376D02*
X169258000Y-53810812D01*
%TO.N,/P63*%
X199288000Y-72642000D02*
X189361980Y-72642000D01*
%TO.N,/P61*%
X169258000Y-53810812D02*
X169106000Y-53658812D01*
%TO.N,/P64*%
X189198376Y-71842000D02*
X199288000Y-71842000D01*
%TO.N,/P62*%
X191775584Y-75692000D02*
X202338000Y-75692000D01*
X169672000Y-50038000D02*
X169672000Y-53588416D01*
%TO.N,/P65*%
X199288000Y-71042000D02*
X189034772Y-71042000D01*
%TO.N,/P66*%
X171508000Y-53526396D02*
X187873604Y-69892000D01*
%TO.N,/P64*%
X187500812Y-70792000D02*
X188148376Y-70792000D01*
%TO.N,/P66*%
X171508000Y-44762000D02*
X171508000Y-53526396D01*
%TO.N,/P62*%
X187128020Y-71692000D02*
X187775584Y-71692000D01*
%TO.N,/P64*%
X164338000Y-48006000D02*
X165513000Y-46831000D01*
%TO.N,/P46*%
X186520036Y-73492000D02*
X191724036Y-78696000D01*
%TO.N,/P63*%
X187961980Y-71242000D02*
X187314416Y-71242000D01*
%TO.N,/P47*%
X186568832Y-73042000D02*
X168358000Y-54831168D01*
%TO.N,/P65*%
X171058000Y-47614000D02*
X168910000Y-45466000D01*
%TO.N,/P62*%
X169708000Y-53624416D02*
X169708000Y-54271980D01*
%TO.N,/P65*%
X189034772Y-71042000D02*
X188334772Y-70342000D01*
%TO.N,/P63*%
X169164000Y-48006000D02*
X166878000Y-48006000D01*
%TO.N,/P66*%
X170942000Y-44196000D02*
X171508000Y-44762000D01*
%TO.N,/P62*%
X169672000Y-53588416D02*
X169708000Y-53624416D01*
X169708000Y-54271980D02*
X187128020Y-71692000D01*
%TO.N,/P67*%
X188060000Y-69442000D02*
X171958000Y-53340000D01*
X171958000Y-43942000D02*
X170942000Y-42926000D01*
%TO.N,/P41*%
X166878000Y-60706000D02*
X170414456Y-60706000D01*
%TO.N,/P40*%
X210338000Y-77318396D02*
X210338000Y-75692000D01*
%TO.N,/P41*%
X190682376Y-80946000D02*
X205948396Y-80946000D01*
%TO.N,/P34*%
X207264000Y-83312000D02*
X189866396Y-83312000D01*
%TO.N,/P44*%
X165513000Y-56991000D02*
X168608644Y-56991000D01*
%TO.N,/P36*%
X184919188Y-77092000D02*
X190123188Y-82296000D01*
%TO.N,/P45*%
X206338000Y-77508396D02*
X206338000Y-75692000D01*
%TO.N,/P40*%
X190495980Y-81396000D02*
X206260396Y-81396000D01*
%TO.N,/P44*%
X164338000Y-58166000D02*
X165513000Y-56991000D01*
%TO.N,/P35*%
X184732792Y-77542000D02*
X189994792Y-82804000D01*
%TO.N,/P42*%
X205762000Y-80496000D02*
X208738000Y-77520000D01*
%TO.N,/P40*%
X206260396Y-81396000D02*
X210338000Y-77318396D01*
%TO.N,/P33*%
X214338000Y-77254000D02*
X214338000Y-75692000D01*
%TO.N,/P42*%
X165513000Y-59531000D02*
X169875852Y-59531000D01*
%TO.N,/P43*%
X207938000Y-77432396D02*
X207938000Y-75692000D01*
%TO.N,/P42*%
X185664772Y-75292000D02*
X190868772Y-80496000D01*
%TO.N,/P34*%
X173677476Y-67151000D02*
X165513000Y-67151000D01*
%TO.N,/P42*%
X190868772Y-80496000D02*
X205762000Y-80496000D01*
%TO.N,/P41*%
X205948396Y-80946000D02*
X209538000Y-77356396D01*
X209538000Y-77356396D02*
X209538000Y-75692000D01*
%TO.N,/P37*%
X211138000Y-75692000D02*
X211138000Y-77154792D01*
%TO.N,/P33*%
X166878000Y-68326000D02*
X182372000Y-83820000D01*
%TO.N,/P43*%
X169147248Y-58166000D02*
X185823248Y-74842000D01*
%TO.N,/P34*%
X184546396Y-77992000D02*
X184518476Y-77992000D01*
%TO.N,/P35*%
X172948872Y-65786000D02*
X184704872Y-77542000D01*
%TO.N,/P44*%
X186009644Y-74392000D02*
X186037564Y-74392000D01*
%TO.N,/P42*%
X164338000Y-60706000D02*
X165513000Y-59531000D01*
%TO.N,/P40*%
X185264060Y-76192000D02*
X185291980Y-76192000D01*
%TO.N,/P41*%
X170414456Y-60706000D02*
X185450456Y-75742000D01*
%TO.N,/P44*%
X191241564Y-79596000D02*
X205138000Y-79596000D01*
%TO.N,/P37*%
X171681664Y-63246000D02*
X166878000Y-63246000D01*
%TO.N,/P34*%
X213538000Y-75692000D02*
X213538000Y-77038000D01*
%TO.N,/P36*%
X206756000Y-82296000D02*
X211938000Y-77114000D01*
%TO.N,/P44*%
X186037564Y-74392000D02*
X191241564Y-79596000D01*
%TO.N,/P35*%
X207010000Y-82804000D02*
X212738000Y-77076000D01*
%TO.N,/P40*%
X170953060Y-61881000D02*
X185264060Y-76192000D01*
%TO.N,/P36*%
X172410268Y-64611000D02*
X184891268Y-77092000D01*
%TO.N,/P34*%
X184518476Y-77992000D02*
X173677476Y-67151000D01*
%TO.N,/P36*%
X165513000Y-64611000D02*
X172410268Y-64611000D01*
%TO.N,/P35*%
X189994792Y-82804000D02*
X207010000Y-82804000D01*
%TO.N,/P42*%
X185636852Y-75292000D02*
X185664772Y-75292000D01*
%TO.N,/P40*%
X165703000Y-61881000D02*
X170953060Y-61881000D01*
%TO.N,/P33*%
X207772000Y-83820000D02*
X214338000Y-77254000D01*
%TO.N,/P44*%
X205138000Y-79596000D02*
X207138000Y-77596000D01*
%TO.N,/P41*%
X185450456Y-75742000D02*
X185478376Y-75742000D01*
%TO.N,/P45*%
X186223960Y-73942000D02*
X191427960Y-79146000D01*
%TO.N,/P37*%
X185105584Y-76642000D02*
X185077664Y-76642000D01*
%TO.N,/P36*%
X164338000Y-65786000D02*
X165513000Y-64611000D01*
%TO.N,/P44*%
X207138000Y-77596000D02*
X207138000Y-75692000D01*
%TO.N,/P45*%
X167880040Y-55626000D02*
X186196040Y-73942000D01*
%TO.N,/P35*%
X212738000Y-77076000D02*
X212738000Y-75692000D01*
%TO.N,/P37*%
X185077664Y-76642000D02*
X171681664Y-63246000D01*
%TO.N,/P43*%
X205324396Y-80046000D02*
X207938000Y-77432396D01*
X191055168Y-80046000D02*
X205324396Y-80046000D01*
%TO.N,/P45*%
X204700396Y-79146000D02*
X206338000Y-77508396D01*
%TO.N,/P42*%
X169875852Y-59531000D02*
X185636852Y-75292000D01*
%TO.N,/P43*%
X185851168Y-74842000D02*
X191055168Y-80046000D01*
%TO.N,/P40*%
X164338000Y-63246000D02*
X165703000Y-61881000D01*
%TO.N,/P45*%
X166878000Y-55626000D02*
X167880040Y-55626000D01*
%TO.N,/P37*%
X190309584Y-81846000D02*
X185105584Y-76642000D01*
%TO.N,/P44*%
X168608644Y-56991000D02*
X186009644Y-74392000D01*
%TO.N,/P45*%
X191427960Y-79146000D02*
X204700396Y-79146000D01*
%TO.N,/P34*%
X213538000Y-77038000D02*
X207264000Y-83312000D01*
X165513000Y-67151000D02*
X164338000Y-68326000D01*
%TO.N,/P36*%
X184891268Y-77092000D02*
X184919188Y-77092000D01*
X211938000Y-77114000D02*
X211938000Y-75692000D01*
%TO.N,/P33*%
X182372000Y-83820000D02*
X207772000Y-83820000D01*
%TO.N,/P35*%
X166878000Y-65786000D02*
X172948872Y-65786000D01*
%TO.N,/P37*%
X211138000Y-77154792D02*
X206446792Y-81846000D01*
%TO.N,/P36*%
X190123188Y-82296000D02*
X206756000Y-82296000D01*
%TO.N,/P37*%
X206446792Y-81846000D02*
X190309584Y-81846000D01*
%TO.N,/P42*%
X208738000Y-77520000D02*
X208738000Y-75692000D01*
%TO.N,/P41*%
X185478376Y-75742000D02*
X190682376Y-80946000D01*
%TO.N,/P34*%
X189866396Y-83312000D02*
X184546396Y-77992000D01*
%TO.N,/P40*%
X185291980Y-76192000D02*
X190495980Y-81396000D01*
%TO.N,/P35*%
X184704872Y-77542000D02*
X184732792Y-77542000D01*
%TO.N,/P43*%
X185823248Y-74842000D02*
X185851168Y-74842000D01*
X166878000Y-58166000D02*
X169147248Y-58166000D01*
%TO.N,/P45*%
X186196040Y-73942000D02*
X186223960Y-73942000D01*
D19*
%TO.N,GND*%
X178816000Y-37490400D02*
X178816000Y-42672000D01*
X178816000Y-42672000D02*
X173136000Y-48352000D01*
X173136000Y-48352000D02*
X173136000Y-52130400D01*
D18*
%TO.N,/~{RST}*%
X173482000Y-42926000D02*
X173736000Y-42672000D01*
X173736000Y-42672000D02*
X173736000Y-37490400D01*
%TO.N,/~{IRQ1}*%
X217932000Y-77978000D02*
X220218000Y-77978000D01*
X220218000Y-77978000D02*
X221234000Y-76962000D01*
X217538000Y-75692000D02*
X217538000Y-77584000D01*
X217538000Y-77584000D02*
X217932000Y-77978000D01*
%TO.N,/R{slash}~{W}*%
X216738000Y-75692000D02*
X216738000Y-74346000D01*
X216916020Y-74167980D02*
X222758000Y-74167980D01*
X216738000Y-74346000D02*
X216916020Y-74167980D01*
X221996000Y-39370000D02*
X224028000Y-41402000D01*
X188976000Y-38608000D02*
X189738000Y-39370000D01*
X188976000Y-37490400D02*
X188976000Y-38608000D01*
X224028000Y-41402000D02*
X224028000Y-52070000D01*
X189738000Y-39370000D02*
X221996000Y-39370000D01*
%TO.N,/P50*%
X218338000Y-58392000D02*
X228826000Y-58392000D01*
X228826000Y-58392000D02*
X230886000Y-60452000D01*
%TO.N,/P51*%
X230886000Y-61976000D02*
X230352000Y-61442000D01*
X230352000Y-61442000D02*
X221388000Y-61442000D01*
%TO.N,/P52*%
X229628000Y-62242000D02*
X230124000Y-62738000D01*
X221388000Y-62242000D02*
X229628000Y-62242000D01*
%TO.N,/P53*%
X228904000Y-63042000D02*
X229362000Y-63500000D01*
X221388000Y-63042000D02*
X228904000Y-63042000D01*
%TO.N,/P54*%
X221388000Y-63842000D02*
X228180000Y-63842000D01*
X228180000Y-63842000D02*
X228600000Y-64262000D01*
%TO.N,/P55*%
X221388000Y-64642000D02*
X227456000Y-64642000D01*
X227456000Y-64642000D02*
X227838000Y-65024000D01*
%TO.N,/P56*%
X226545911Y-65442000D02*
X226964342Y-65860431D01*
X221388000Y-65442000D02*
X226545911Y-65442000D01*
%TO.N,/P57*%
X221388000Y-66242000D02*
X225754000Y-66242000D01*
X225754000Y-66242000D02*
X226314000Y-66802000D01*
%TO.N,/SYNC*%
X215938000Y-75692000D02*
X215938000Y-76831000D01*
X215938000Y-76831000D02*
X215138000Y-77631000D01*
%TO.N,/~{NMI}*%
X200660000Y-74422000D02*
X194564000Y-74422000D01*
X213107173Y-72898000D02*
X202184000Y-72898000D01*
X202184000Y-72898000D02*
X200660000Y-74422000D01*
D19*
%TO.N,+5V*%
X191516000Y-62805918D02*
X197352082Y-68642000D01*
D18*
%TO.N,/~{NMI}*%
X215138000Y-75692000D02*
X215138000Y-74928827D01*
X215138000Y-74928827D02*
X213107173Y-72898000D01*
D19*
%TO.N,+5V*%
X197352082Y-68642000D02*
X199288000Y-68642000D01*
X191516000Y-52730400D02*
X191516000Y-62805918D01*
D18*
%TO.N,/~{NMI}*%
X191262000Y-66802000D02*
X186436000Y-61976000D01*
X186436000Y-61976000D02*
X186436000Y-52730400D01*
D19*
%TO.N,GND*%
X178816000Y-37490400D02*
X180492400Y-35814000D01*
X180492400Y-35814000D02*
X209456657Y-35814000D01*
X209456657Y-35814000D02*
X210636000Y-36993343D01*
X210636000Y-36993343D02*
X210636000Y-37987457D01*
X210636000Y-37987457D02*
X211338943Y-38690400D01*
X211338943Y-38690400D02*
X220796000Y-38690400D01*
X220796000Y-38690400D02*
X221996000Y-37490400D01*
%TO.N,/BA*%
X188976000Y-52730400D02*
X188976000Y-49784000D01*
%TO.N,/~{HALT}*%
X176276000Y-52730400D02*
X176276000Y-49784000D01*
%TO.N,Net-(J3-Pin_1)*%
X178816000Y-52730400D02*
X178816000Y-49784000D01*
%TO.N,Net-(J6-Pin_1)*%
X183896000Y-52730400D02*
X183896000Y-49784000D01*
D18*
%TO.N,/A13*%
X223198396Y-35618000D02*
X218788400Y-35618000D01*
X217333808Y-55205400D02*
X222625012Y-55205400D01*
X225253000Y-37672604D02*
X223198396Y-35618000D01*
%TO.N,/A12*%
X214338000Y-57442000D02*
X214338000Y-58392000D01*
%TO.N,/A13*%
X218788400Y-35618000D02*
X216916000Y-37490400D01*
%TO.N,/A12*%
X224803000Y-37859000D02*
X224803000Y-52391016D01*
%TO.N,/A14*%
X216698400Y-35168000D02*
X223384792Y-35168000D01*
%TO.N,/A12*%
X224803000Y-52391016D02*
X222438616Y-54755400D01*
%TO.N,/A14*%
X225703000Y-37486208D02*
X225703000Y-52763808D01*
%TO.N,/A13*%
X222625012Y-55205400D02*
X225253000Y-52577412D01*
%TO.N,/A14*%
X223384792Y-35168000D02*
X225703000Y-37486208D01*
%TO.N,/A12*%
X217024600Y-54755400D02*
X214338000Y-57442000D01*
%TO.N,/A13*%
X225253000Y-52577412D02*
X225253000Y-37672604D01*
%TO.N,/A14*%
X222811408Y-55655400D02*
X217520204Y-55655400D01*
%TO.N,/A12*%
X219456000Y-37490400D02*
X220878400Y-36068000D01*
%TO.N,/A14*%
X215938000Y-57237604D02*
X215938000Y-58392000D01*
X225703000Y-52763808D02*
X222811408Y-55655400D01*
X217520204Y-55655400D02*
X215938000Y-57237604D01*
%TO.N,/A12*%
X223012000Y-36068000D02*
X224803000Y-37859000D01*
X222438616Y-54755400D02*
X217024600Y-54755400D01*
X220878400Y-36068000D02*
X223012000Y-36068000D01*
%TO.N,/A13*%
X215138000Y-58392000D02*
X215138000Y-57401208D01*
X215138000Y-57401208D02*
X217333808Y-55205400D01*
%TO.N,/A14*%
X214376000Y-37490400D02*
X216698400Y-35168000D01*
%TO.N,/D0*%
X199288000Y-65442000D02*
X197522000Y-65442000D01*
X197522000Y-65442000D02*
X194056000Y-61976000D01*
X194056000Y-61976000D02*
X194056000Y-59436000D01*
%TO.N,/D2*%
X197828396Y-63842000D02*
X196596000Y-62609604D01*
%TO.N,/D1*%
X197992000Y-64642000D02*
X195326000Y-61976000D01*
%TO.N,/D2*%
X199288000Y-63842000D02*
X197828396Y-63842000D01*
X196596000Y-62609604D02*
X196596000Y-59182000D01*
%TO.N,/D1*%
X199288000Y-64642000D02*
X197992000Y-64642000D01*
X195326000Y-61976000D02*
X195326000Y-58166000D01*
%TO.N,/D3*%
X199288000Y-63042000D02*
X201472000Y-63042000D01*
X201472000Y-63042000D02*
X201676000Y-63246000D01*
%TO.N,/D4*%
X199288000Y-62242000D02*
X202450000Y-62242000D01*
X202450000Y-62242000D02*
X203200000Y-62992000D01*
X203200000Y-62992000D02*
X203708000Y-62992000D01*
%TO.N,/D5*%
X199288000Y-61442000D02*
X202920000Y-61442000D01*
X202920000Y-61442000D02*
X203708000Y-62230000D01*
X203708000Y-62230000D02*
X205740000Y-62230000D01*
%TO.N,/D7*%
X210566000Y-60706000D02*
X210820000Y-60960000D01*
X204202000Y-60706000D02*
X210566000Y-60706000D01*
X203138000Y-59642000D02*
X204202000Y-60706000D01*
X203138000Y-58392000D02*
X203138000Y-59642000D01*
%TO.N,/D6*%
X202338000Y-58392000D02*
X202338000Y-59642000D01*
X202338000Y-59642000D02*
X204164000Y-61468000D01*
X204164000Y-61468000D02*
X208534000Y-61468000D01*
%TO.N,/A15*%
X216738000Y-58392000D02*
X216738000Y-57074000D01*
X223571188Y-34718000D02*
X214608400Y-34718000D01*
X217706600Y-56105400D02*
X224438996Y-56105400D01*
X214608400Y-34718000D02*
X211836000Y-37490400D01*
X216738000Y-57074000D02*
X217706600Y-56105400D01*
X224438996Y-56105400D02*
X227214000Y-53330396D01*
X227214000Y-53330396D02*
X227214000Y-38360812D01*
X227214000Y-38360812D02*
X223571188Y-34718000D01*
%TO.N,/A11*%
X216838204Y-54305400D02*
X220421000Y-54305400D01*
X213538000Y-57605604D02*
X216838204Y-54305400D01*
X213538000Y-58392000D02*
X213538000Y-57605604D01*
X220421000Y-54305400D02*
X221996000Y-52730400D01*
%TO.N,/A0*%
X204738000Y-58392000D02*
X204738000Y-57628827D01*
X201973173Y-54864000D02*
X196189600Y-54864000D01*
X204738000Y-57628827D02*
X201973173Y-54864000D01*
X196189600Y-54864000D02*
X194056000Y-52730400D01*
%TO.N,/A1*%
X205538000Y-58392000D02*
X205538000Y-57628827D01*
X205538000Y-57628827D02*
X202265173Y-54356000D01*
X202265173Y-54356000D02*
X198221600Y-54356000D01*
X198221600Y-54356000D02*
X196596000Y-52730400D01*
%TO.N,/A2*%
X206338000Y-58392000D02*
X206338000Y-57628827D01*
X206338000Y-57628827D02*
X202564573Y-53855400D01*
X202564573Y-53855400D02*
X200261000Y-53855400D01*
X200261000Y-53855400D02*
X199136000Y-52730400D01*
%TO.N,/A3*%
X207138000Y-58392000D02*
X207138000Y-57628827D01*
X207138000Y-57628827D02*
X202239573Y-52730400D01*
X202239573Y-52730400D02*
X201676000Y-52730400D01*
%TO.N,/A4*%
X207938000Y-58392000D02*
X207938000Y-56452400D01*
X207938000Y-56452400D02*
X204216000Y-52730400D01*
%TO.N,/A5*%
X208738000Y-58392000D02*
X208738000Y-54712400D01*
X208738000Y-54712400D02*
X206756000Y-52730400D01*
%TO.N,/A6*%
X209538000Y-58392000D02*
X209538000Y-52972400D01*
X209538000Y-52972400D02*
X209296000Y-52730400D01*
%TO.N,/A7*%
X210338000Y-58392000D02*
X210338000Y-54228400D01*
X210338000Y-54228400D02*
X211836000Y-52730400D01*
%TO.N,/A8*%
X211138000Y-58392000D02*
X211138000Y-55968400D01*
X211138000Y-55968400D02*
X214376000Y-52730400D01*
%TO.N,/A9*%
X211938000Y-58392000D02*
X211938000Y-57628827D01*
X211938000Y-57628827D02*
X216836427Y-52730400D01*
X216836427Y-52730400D02*
X216916000Y-52730400D01*
%TO.N,/A10*%
X216511427Y-53855400D02*
X218331000Y-53855400D01*
X212738000Y-57628827D02*
X216511427Y-53855400D01*
X212738000Y-58392000D02*
X212738000Y-57628827D01*
X218331000Y-53855400D02*
X219456000Y-52730400D01*
%TO.N,+5V*%
X199288000Y-68642000D02*
X203947000Y-68642000D01*
X203947000Y-68642000D02*
X204470000Y-69165000D01*
%TO.N,GND*%
X199288000Y-67042000D02*
X203468000Y-67042000D01*
X203468000Y-67042000D02*
X204470000Y-66040000D01*
D19*
X165628000Y-79776000D02*
X166878000Y-81026000D01*
X160528000Y-42799000D02*
X167513000Y-35814000D01*
X161183000Y-79776000D02*
X165628000Y-79776000D01*
X160528000Y-79121000D02*
X161183000Y-79776000D01*
X167513000Y-35814000D02*
X177139600Y-35814000D01*
X160528000Y-79121000D02*
X160528000Y-42799000D01*
X177139600Y-35814000D02*
X178816000Y-37490400D01*
%TO.N,Net-(J4-Pin_1)*%
X183896000Y-37490400D02*
X183896000Y-40640000D01*
%TD*%
%TA.AperFunction,Conductor*%
%TO.N,GND*%
G36*
X231942539Y-33520185D02*
G01*
X231988294Y-33572989D01*
X231999500Y-33624500D01*
X231999500Y-60182015D01*
X231979815Y-60249054D01*
X231927011Y-60294809D01*
X231857853Y-60304753D01*
X231794297Y-60275728D01*
X231757569Y-60220333D01*
X231713181Y-60083722D01*
X231713180Y-60083721D01*
X231713179Y-60083716D01*
X231618533Y-59919784D01*
X231491871Y-59779112D01*
X231491604Y-59778918D01*
X231338734Y-59667851D01*
X231338729Y-59667848D01*
X231165807Y-59590857D01*
X231165802Y-59590855D01*
X231007528Y-59557214D01*
X230980646Y-59551500D01*
X230980645Y-59551500D01*
X230921452Y-59551500D01*
X230854413Y-59531815D01*
X230833771Y-59515181D01*
X230081702Y-58763112D01*
X229326803Y-58008212D01*
X229316980Y-57995950D01*
X229316759Y-57996134D01*
X229311786Y-57990123D01*
X229298604Y-57977744D01*
X229261364Y-57942773D01*
X229249177Y-57930586D01*
X229240475Y-57921883D01*
X229234986Y-57917625D01*
X229230561Y-57913847D01*
X229196582Y-57881938D01*
X229196580Y-57881936D01*
X229196577Y-57881935D01*
X229179029Y-57872288D01*
X229162763Y-57861604D01*
X229146933Y-57849325D01*
X229104168Y-57830818D01*
X229098922Y-57828248D01*
X229058093Y-57805803D01*
X229058092Y-57805802D01*
X229038693Y-57800822D01*
X229020281Y-57794518D01*
X229001898Y-57786562D01*
X229001892Y-57786560D01*
X228955874Y-57779272D01*
X228950152Y-57778087D01*
X228905021Y-57766500D01*
X228905019Y-57766500D01*
X228884984Y-57766500D01*
X228865586Y-57764973D01*
X228858162Y-57763797D01*
X228845805Y-57761840D01*
X228845804Y-57761840D01*
X228799416Y-57766225D01*
X228793578Y-57766500D01*
X219212500Y-57766500D01*
X219145461Y-57746815D01*
X219099706Y-57694011D01*
X219088500Y-57642500D01*
X219088500Y-57598298D01*
X219088500Y-57598291D01*
X219073241Y-57467745D01*
X219013237Y-57302883D01*
X218963187Y-57226786D01*
X218916832Y-57156306D01*
X218916831Y-57156305D01*
X218789221Y-57035910D01*
X218722822Y-56997575D01*
X218661700Y-56962286D01*
X218613486Y-56911721D01*
X218600262Y-56843114D01*
X218626230Y-56778249D01*
X218683144Y-56737720D01*
X218723701Y-56730900D01*
X224356253Y-56730900D01*
X224371873Y-56732624D01*
X224371900Y-56732339D01*
X224379656Y-56733071D01*
X224379663Y-56733073D01*
X224448810Y-56730900D01*
X224478346Y-56730900D01*
X224485224Y-56730030D01*
X224491037Y-56729572D01*
X224537623Y-56728109D01*
X224556865Y-56722517D01*
X224575908Y-56718574D01*
X224595788Y-56716064D01*
X224639118Y-56698907D01*
X224644642Y-56697017D01*
X224648392Y-56695927D01*
X224689386Y-56684018D01*
X224706625Y-56673822D01*
X224724099Y-56665262D01*
X224742723Y-56657888D01*
X224742723Y-56657887D01*
X224742728Y-56657886D01*
X224780445Y-56630482D01*
X224785301Y-56627292D01*
X224825416Y-56603570D01*
X224839585Y-56589399D01*
X224854375Y-56576768D01*
X224870583Y-56564994D01*
X224900295Y-56529076D01*
X224904208Y-56524776D01*
X227597788Y-53831197D01*
X227610042Y-53821382D01*
X227609859Y-53821160D01*
X227615866Y-53816188D01*
X227615877Y-53816182D01*
X227646775Y-53783278D01*
X227663227Y-53765760D01*
X227673671Y-53755314D01*
X227684120Y-53744867D01*
X227688379Y-53739374D01*
X227692152Y-53734957D01*
X227724062Y-53700978D01*
X227733713Y-53683420D01*
X227744396Y-53667157D01*
X227756673Y-53651332D01*
X227775185Y-53608549D01*
X227777738Y-53603337D01*
X227800197Y-53562488D01*
X227805180Y-53543076D01*
X227811481Y-53524676D01*
X227819437Y-53506292D01*
X227826729Y-53460248D01*
X227827906Y-53454567D01*
X227839500Y-53409415D01*
X227839500Y-53389379D01*
X227841027Y-53369978D01*
X227844160Y-53350200D01*
X227839775Y-53303811D01*
X227839500Y-53297973D01*
X227839500Y-38443550D01*
X227841224Y-38427936D01*
X227840938Y-38427909D01*
X227841672Y-38420146D01*
X227839500Y-38351015D01*
X227839500Y-38321463D01*
X227839500Y-38321462D01*
X227838629Y-38314571D01*
X227838172Y-38308757D01*
X227836709Y-38262184D01*
X227831122Y-38242956D01*
X227827174Y-38223896D01*
X227824664Y-38204020D01*
X227807507Y-38160687D01*
X227805619Y-38155171D01*
X227792619Y-38110424D01*
X227782418Y-38093175D01*
X227773860Y-38075706D01*
X227766486Y-38057080D01*
X227766483Y-38057076D01*
X227766483Y-38057075D01*
X227739098Y-38019383D01*
X227735890Y-38014499D01*
X227712172Y-37974394D01*
X227712163Y-37974383D01*
X227698005Y-37960225D01*
X227685370Y-37945432D01*
X227673593Y-37929224D01*
X227637693Y-37899525D01*
X227633381Y-37895602D01*
X224071991Y-34334212D01*
X224062168Y-34321950D01*
X224061947Y-34322134D01*
X224056974Y-34316123D01*
X224038347Y-34298631D01*
X224006552Y-34268773D01*
X223996107Y-34258328D01*
X223985663Y-34247883D01*
X223980174Y-34243625D01*
X223975749Y-34239847D01*
X223941770Y-34207938D01*
X223941768Y-34207936D01*
X223941765Y-34207935D01*
X223924217Y-34198288D01*
X223907951Y-34187604D01*
X223892121Y-34175325D01*
X223849356Y-34156818D01*
X223844110Y-34154248D01*
X223803281Y-34131803D01*
X223803280Y-34131802D01*
X223783881Y-34126822D01*
X223765469Y-34120518D01*
X223747086Y-34112562D01*
X223747080Y-34112560D01*
X223701062Y-34105272D01*
X223695340Y-34104087D01*
X223650209Y-34092500D01*
X223650207Y-34092500D01*
X223630172Y-34092500D01*
X223610774Y-34090973D01*
X223603350Y-34089797D01*
X223590993Y-34087840D01*
X223590992Y-34087840D01*
X223544604Y-34092225D01*
X223538766Y-34092500D01*
X214691143Y-34092500D01*
X214675522Y-34090775D01*
X214675495Y-34091061D01*
X214667733Y-34090326D01*
X214598572Y-34092500D01*
X214569049Y-34092500D01*
X214562178Y-34093367D01*
X214556359Y-34093825D01*
X214509774Y-34095289D01*
X214509768Y-34095290D01*
X214490526Y-34100880D01*
X214471487Y-34104823D01*
X214451617Y-34107334D01*
X214451603Y-34107337D01*
X214408283Y-34124488D01*
X214402758Y-34126380D01*
X214358013Y-34139380D01*
X214358010Y-34139381D01*
X214340766Y-34149579D01*
X214323305Y-34158133D01*
X214304674Y-34165510D01*
X214304662Y-34165517D01*
X214266970Y-34192902D01*
X214262087Y-34196109D01*
X214221980Y-34219829D01*
X214207814Y-34233995D01*
X214193024Y-34246627D01*
X214176814Y-34258404D01*
X214176811Y-34258407D01*
X214147110Y-34294309D01*
X214143177Y-34298631D01*
X212250821Y-36190986D01*
X212189498Y-36224471D01*
X212131048Y-36223080D01*
X212062697Y-36204766D01*
X212062693Y-36204765D01*
X212062692Y-36204765D01*
X211905209Y-36190987D01*
X211836001Y-36184932D01*
X211835998Y-36184932D01*
X211609313Y-36204764D01*
X211609302Y-36204766D01*
X211389511Y-36263658D01*
X211389502Y-36263661D01*
X211183267Y-36359831D01*
X211183265Y-36359832D01*
X210996858Y-36490354D01*
X210835954Y-36651258D01*
X210705432Y-36837665D01*
X210705431Y-36837667D01*
X210678382Y-36895675D01*
X210632209Y-36948114D01*
X210565016Y-36967266D01*
X210498135Y-36947050D01*
X210453618Y-36895675D01*
X210426686Y-36837920D01*
X210426568Y-36837666D01*
X210296047Y-36651261D01*
X210296045Y-36651258D01*
X210135141Y-36490354D01*
X209948734Y-36359832D01*
X209948732Y-36359831D01*
X209742497Y-36263661D01*
X209742488Y-36263658D01*
X209522697Y-36204766D01*
X209522693Y-36204765D01*
X209522692Y-36204765D01*
X209522691Y-36204764D01*
X209522686Y-36204764D01*
X209296002Y-36184932D01*
X209295998Y-36184932D01*
X209069313Y-36204764D01*
X209069302Y-36204766D01*
X208849511Y-36263658D01*
X208849502Y-36263661D01*
X208643267Y-36359831D01*
X208643265Y-36359832D01*
X208456858Y-36490354D01*
X208295954Y-36651258D01*
X208165432Y-36837665D01*
X208165431Y-36837667D01*
X208138382Y-36895675D01*
X208092209Y-36948114D01*
X208025016Y-36967266D01*
X207958135Y-36947050D01*
X207913618Y-36895675D01*
X207886686Y-36837920D01*
X207886568Y-36837666D01*
X207756047Y-36651261D01*
X207756045Y-36651258D01*
X207595141Y-36490354D01*
X207408734Y-36359832D01*
X207408732Y-36359831D01*
X207202497Y-36263661D01*
X207202488Y-36263658D01*
X206982697Y-36204766D01*
X206982693Y-36204765D01*
X206982692Y-36204765D01*
X206982691Y-36204764D01*
X206982686Y-36204764D01*
X206756002Y-36184932D01*
X206755998Y-36184932D01*
X206529313Y-36204764D01*
X206529302Y-36204766D01*
X206309511Y-36263658D01*
X206309502Y-36263661D01*
X206103267Y-36359831D01*
X206103265Y-36359832D01*
X205916858Y-36490354D01*
X205755954Y-36651258D01*
X205625432Y-36837665D01*
X205625431Y-36837667D01*
X205598382Y-36895675D01*
X205552209Y-36948114D01*
X205485016Y-36967266D01*
X205418135Y-36947050D01*
X205373618Y-36895675D01*
X205346686Y-36837920D01*
X205346568Y-36837666D01*
X205216047Y-36651261D01*
X205216045Y-36651258D01*
X205055141Y-36490354D01*
X204868734Y-36359832D01*
X204868732Y-36359831D01*
X204662497Y-36263661D01*
X204662488Y-36263658D01*
X204442697Y-36204766D01*
X204442693Y-36204765D01*
X204442692Y-36204765D01*
X204442691Y-36204764D01*
X204442686Y-36204764D01*
X204216002Y-36184932D01*
X204215998Y-36184932D01*
X203989313Y-36204764D01*
X203989302Y-36204766D01*
X203769511Y-36263658D01*
X203769502Y-36263661D01*
X203563267Y-36359831D01*
X203563265Y-36359832D01*
X203376858Y-36490354D01*
X203215954Y-36651258D01*
X203085432Y-36837665D01*
X203085431Y-36837667D01*
X203058382Y-36895675D01*
X203012209Y-36948114D01*
X202945016Y-36967266D01*
X202878135Y-36947050D01*
X202833618Y-36895675D01*
X202806686Y-36837920D01*
X202806568Y-36837666D01*
X202676047Y-36651261D01*
X202676045Y-36651258D01*
X202515141Y-36490354D01*
X202328734Y-36359832D01*
X202328732Y-36359831D01*
X202122497Y-36263661D01*
X202122488Y-36263658D01*
X201902697Y-36204766D01*
X201902693Y-36204765D01*
X201902692Y-36204765D01*
X201902691Y-36204764D01*
X201902686Y-36204764D01*
X201676002Y-36184932D01*
X201675998Y-36184932D01*
X201449313Y-36204764D01*
X201449302Y-36204766D01*
X201229511Y-36263658D01*
X201229502Y-36263661D01*
X201023267Y-36359831D01*
X201023265Y-36359832D01*
X200836858Y-36490354D01*
X200675954Y-36651258D01*
X200545432Y-36837665D01*
X200545431Y-36837667D01*
X200518382Y-36895675D01*
X200472209Y-36948114D01*
X200405016Y-36967266D01*
X200338135Y-36947050D01*
X200293618Y-36895675D01*
X200266686Y-36837920D01*
X200266568Y-36837666D01*
X200136047Y-36651261D01*
X200136045Y-36651258D01*
X199975141Y-36490354D01*
X199788734Y-36359832D01*
X199788732Y-36359831D01*
X199582497Y-36263661D01*
X199582488Y-36263658D01*
X199362697Y-36204766D01*
X199362693Y-36204765D01*
X199362692Y-36204765D01*
X199362691Y-36204764D01*
X199362686Y-36204764D01*
X199136002Y-36184932D01*
X199135998Y-36184932D01*
X198909313Y-36204764D01*
X198909302Y-36204766D01*
X198689511Y-36263658D01*
X198689502Y-36263661D01*
X198483267Y-36359831D01*
X198483265Y-36359832D01*
X198296858Y-36490354D01*
X198135954Y-36651258D01*
X198005432Y-36837665D01*
X198005431Y-36837667D01*
X197978382Y-36895675D01*
X197932209Y-36948114D01*
X197865016Y-36967266D01*
X197798135Y-36947050D01*
X197753618Y-36895675D01*
X197726686Y-36837920D01*
X197726568Y-36837666D01*
X197596047Y-36651261D01*
X197596045Y-36651258D01*
X197435141Y-36490354D01*
X197248734Y-36359832D01*
X197248732Y-36359831D01*
X197042497Y-36263661D01*
X197042488Y-36263658D01*
X196822697Y-36204766D01*
X196822693Y-36204765D01*
X196822692Y-36204765D01*
X196822691Y-36204764D01*
X196822686Y-36204764D01*
X196596002Y-36184932D01*
X196595998Y-36184932D01*
X196369313Y-36204764D01*
X196369302Y-36204766D01*
X196149511Y-36263658D01*
X196149502Y-36263661D01*
X195943267Y-36359831D01*
X195943265Y-36359832D01*
X195756858Y-36490354D01*
X195595954Y-36651258D01*
X195465432Y-36837665D01*
X195465431Y-36837667D01*
X195438382Y-36895675D01*
X195392209Y-36948114D01*
X195325016Y-36967266D01*
X195258135Y-36947050D01*
X195213618Y-36895675D01*
X195186686Y-36837920D01*
X195186568Y-36837666D01*
X195056047Y-36651261D01*
X195056045Y-36651258D01*
X194895141Y-36490354D01*
X194708734Y-36359832D01*
X194708732Y-36359831D01*
X194502497Y-36263661D01*
X194502488Y-36263658D01*
X194282697Y-36204766D01*
X194282693Y-36204765D01*
X194282692Y-36204765D01*
X194282691Y-36204764D01*
X194282686Y-36204764D01*
X194056002Y-36184932D01*
X194055998Y-36184932D01*
X193829313Y-36204764D01*
X193829302Y-36204766D01*
X193609511Y-36263658D01*
X193609502Y-36263661D01*
X193403267Y-36359831D01*
X193403265Y-36359832D01*
X193216858Y-36490354D01*
X193055954Y-36651258D01*
X192925432Y-36837665D01*
X192925431Y-36837667D01*
X192898382Y-36895675D01*
X192852209Y-36948114D01*
X192785016Y-36967266D01*
X192718135Y-36947050D01*
X192673618Y-36895675D01*
X192646686Y-36837920D01*
X192646568Y-36837666D01*
X192516047Y-36651261D01*
X192516045Y-36651258D01*
X192355141Y-36490354D01*
X192168734Y-36359832D01*
X192168732Y-36359831D01*
X191962497Y-36263661D01*
X191962488Y-36263658D01*
X191742697Y-36204766D01*
X191742693Y-36204765D01*
X191742692Y-36204765D01*
X191742691Y-36204764D01*
X191742686Y-36204764D01*
X191516002Y-36184932D01*
X191515998Y-36184932D01*
X191289313Y-36204764D01*
X191289302Y-36204766D01*
X191069511Y-36263658D01*
X191069502Y-36263661D01*
X190863267Y-36359831D01*
X190863265Y-36359832D01*
X190676858Y-36490354D01*
X190515954Y-36651258D01*
X190385432Y-36837665D01*
X190385431Y-36837667D01*
X190358382Y-36895675D01*
X190312209Y-36948114D01*
X190245016Y-36967266D01*
X190178135Y-36947050D01*
X190133618Y-36895675D01*
X190106686Y-36837920D01*
X190106568Y-36837666D01*
X189976047Y-36651261D01*
X189976045Y-36651258D01*
X189815141Y-36490354D01*
X189628734Y-36359832D01*
X189628732Y-36359831D01*
X189422497Y-36263661D01*
X189422488Y-36263658D01*
X189202697Y-36204766D01*
X189202693Y-36204765D01*
X189202692Y-36204765D01*
X189202691Y-36204764D01*
X189202686Y-36204764D01*
X188976002Y-36184932D01*
X188975998Y-36184932D01*
X188749313Y-36204764D01*
X188749302Y-36204766D01*
X188529511Y-36263658D01*
X188529502Y-36263661D01*
X188323267Y-36359831D01*
X188323265Y-36359832D01*
X188136858Y-36490354D01*
X187975954Y-36651258D01*
X187845432Y-36837665D01*
X187845431Y-36837667D01*
X187818382Y-36895675D01*
X187772209Y-36948114D01*
X187705016Y-36967266D01*
X187638135Y-36947050D01*
X187593618Y-36895675D01*
X187566686Y-36837920D01*
X187566568Y-36837666D01*
X187436047Y-36651261D01*
X187436045Y-36651258D01*
X187275141Y-36490354D01*
X187088734Y-36359832D01*
X187088732Y-36359831D01*
X186882497Y-36263661D01*
X186882488Y-36263658D01*
X186662697Y-36204766D01*
X186662693Y-36204765D01*
X186662692Y-36204765D01*
X186662691Y-36204764D01*
X186662686Y-36204764D01*
X186436002Y-36184932D01*
X186435998Y-36184932D01*
X186209313Y-36204764D01*
X186209302Y-36204766D01*
X185989511Y-36263658D01*
X185989502Y-36263661D01*
X185783267Y-36359831D01*
X185783265Y-36359832D01*
X185596858Y-36490354D01*
X185435954Y-36651258D01*
X185305432Y-36837665D01*
X185305431Y-36837667D01*
X185278382Y-36895675D01*
X185232209Y-36948114D01*
X185165016Y-36967266D01*
X185098135Y-36947050D01*
X185053618Y-36895675D01*
X185026686Y-36837920D01*
X185026568Y-36837666D01*
X184896047Y-36651261D01*
X184896045Y-36651258D01*
X184735141Y-36490354D01*
X184548734Y-36359832D01*
X184548732Y-36359831D01*
X184342497Y-36263661D01*
X184342488Y-36263658D01*
X184122697Y-36204766D01*
X184122693Y-36204765D01*
X184122692Y-36204765D01*
X184122691Y-36204764D01*
X184122686Y-36204764D01*
X183896002Y-36184932D01*
X183895998Y-36184932D01*
X183669313Y-36204764D01*
X183669302Y-36204766D01*
X183449511Y-36263658D01*
X183449502Y-36263661D01*
X183243267Y-36359831D01*
X183243265Y-36359832D01*
X183056858Y-36490354D01*
X182895954Y-36651258D01*
X182765432Y-36837665D01*
X182765431Y-36837667D01*
X182738382Y-36895675D01*
X182692209Y-36948114D01*
X182625016Y-36967266D01*
X182558135Y-36947050D01*
X182513618Y-36895675D01*
X182486686Y-36837920D01*
X182486568Y-36837666D01*
X182356047Y-36651261D01*
X182356045Y-36651258D01*
X182195141Y-36490354D01*
X182008734Y-36359832D01*
X182008732Y-36359831D01*
X181802497Y-36263661D01*
X181802488Y-36263658D01*
X181582697Y-36204766D01*
X181582693Y-36204765D01*
X181582692Y-36204765D01*
X181582691Y-36204764D01*
X181582686Y-36204764D01*
X181356002Y-36184932D01*
X181355998Y-36184932D01*
X181129313Y-36204764D01*
X181129302Y-36204766D01*
X180909511Y-36263658D01*
X180909502Y-36263661D01*
X180703267Y-36359831D01*
X180703265Y-36359832D01*
X180516858Y-36490354D01*
X180355954Y-36651258D01*
X180225433Y-36837664D01*
X180225432Y-36837666D01*
X180225315Y-36837918D01*
X180198106Y-36896267D01*
X180151933Y-36948706D01*
X180084739Y-36967857D01*
X180017858Y-36947641D01*
X179973342Y-36896265D01*
X179946135Y-36837920D01*
X179946134Y-36837918D01*
X179815657Y-36651579D01*
X179654820Y-36490742D01*
X179468482Y-36360265D01*
X179262328Y-36264134D01*
X179066000Y-36211527D01*
X179066000Y-37174714D01*
X179054045Y-37162759D01*
X178941148Y-37105235D01*
X178847481Y-37090400D01*
X178784519Y-37090400D01*
X178690852Y-37105235D01*
X178577955Y-37162759D01*
X178566000Y-37174714D01*
X178566000Y-36211527D01*
X178369671Y-36264134D01*
X178163517Y-36360265D01*
X177977179Y-36490742D01*
X177816342Y-36651579D01*
X177685867Y-36837915D01*
X177658657Y-36896267D01*
X177612484Y-36948706D01*
X177545290Y-36967857D01*
X177478409Y-36947641D01*
X177433893Y-36896265D01*
X177406685Y-36837918D01*
X177406568Y-36837666D01*
X177276047Y-36651261D01*
X177276045Y-36651258D01*
X177115141Y-36490354D01*
X176928734Y-36359832D01*
X176928732Y-36359831D01*
X176722497Y-36263661D01*
X176722488Y-36263658D01*
X176502697Y-36204766D01*
X176502693Y-36204765D01*
X176502692Y-36204765D01*
X176502691Y-36204764D01*
X176502686Y-36204764D01*
X176276002Y-36184932D01*
X176275998Y-36184932D01*
X176049313Y-36204764D01*
X176049302Y-36204766D01*
X175829511Y-36263658D01*
X175829502Y-36263661D01*
X175623267Y-36359831D01*
X175623265Y-36359832D01*
X175436858Y-36490354D01*
X175275954Y-36651258D01*
X175145432Y-36837665D01*
X175145431Y-36837667D01*
X175118382Y-36895675D01*
X175072209Y-36948114D01*
X175005016Y-36967266D01*
X174938135Y-36947050D01*
X174893618Y-36895675D01*
X174866686Y-36837920D01*
X174866568Y-36837666D01*
X174736047Y-36651261D01*
X174736045Y-36651258D01*
X174575141Y-36490354D01*
X174388734Y-36359832D01*
X174388732Y-36359831D01*
X174182497Y-36263661D01*
X174182488Y-36263658D01*
X173962697Y-36204766D01*
X173962693Y-36204765D01*
X173962692Y-36204765D01*
X173962691Y-36204764D01*
X173962686Y-36204764D01*
X173736002Y-36184932D01*
X173735998Y-36184932D01*
X173509313Y-36204764D01*
X173509302Y-36204766D01*
X173289511Y-36263658D01*
X173289502Y-36263661D01*
X173083267Y-36359831D01*
X173083265Y-36359832D01*
X172896858Y-36490354D01*
X172735954Y-36651258D01*
X172605432Y-36837665D01*
X172605431Y-36837667D01*
X172509261Y-37043902D01*
X172509258Y-37043911D01*
X172450366Y-37263702D01*
X172450364Y-37263713D01*
X172430532Y-37490398D01*
X172430532Y-37490401D01*
X172450364Y-37717086D01*
X172450366Y-37717097D01*
X172509258Y-37936888D01*
X172509261Y-37936897D01*
X172605431Y-38143132D01*
X172605432Y-38143134D01*
X172735954Y-38329541D01*
X172896858Y-38490445D01*
X173057623Y-38603013D01*
X173101248Y-38657589D01*
X173110500Y-38704588D01*
X173110500Y-42025156D01*
X173090815Y-42092195D01*
X173038011Y-42137950D01*
X173036939Y-42138434D01*
X173029268Y-42141849D01*
X172876129Y-42253111D01*
X172749466Y-42393785D01*
X172654821Y-42557715D01*
X172654818Y-42557722D01*
X172598436Y-42731250D01*
X172596326Y-42737744D01*
X172576540Y-42926000D01*
X172596326Y-43114256D01*
X172596327Y-43114259D01*
X172654818Y-43294277D01*
X172654821Y-43294284D01*
X172749467Y-43458216D01*
X172796464Y-43510411D01*
X172876129Y-43598888D01*
X173029265Y-43710148D01*
X173029270Y-43710151D01*
X173202192Y-43787142D01*
X173202197Y-43787144D01*
X173387354Y-43826500D01*
X173387355Y-43826500D01*
X173576644Y-43826500D01*
X173576646Y-43826500D01*
X173761803Y-43787144D01*
X173934730Y-43710151D01*
X174087871Y-43598888D01*
X174214533Y-43458216D01*
X174309179Y-43294284D01*
X174367674Y-43114256D01*
X174387460Y-42926000D01*
X174367674Y-42737744D01*
X174367672Y-42737740D01*
X174367416Y-42736532D01*
X174367372Y-42734885D01*
X174366994Y-42731280D01*
X174367277Y-42731250D01*
X174366450Y-42699620D01*
X174365915Y-42699604D01*
X174366160Y-42691805D01*
X174361775Y-42645415D01*
X174361500Y-42639577D01*
X174361500Y-38704588D01*
X174381185Y-38637549D01*
X174414377Y-38603013D01*
X174505373Y-38539297D01*
X174575139Y-38490447D01*
X174736047Y-38329539D01*
X174866568Y-38143134D01*
X174893618Y-38085124D01*
X174939790Y-38032685D01*
X175006983Y-38013533D01*
X175073865Y-38033748D01*
X175118382Y-38085125D01*
X175145429Y-38143128D01*
X175145432Y-38143134D01*
X175275954Y-38329541D01*
X175436858Y-38490445D01*
X175597623Y-38603013D01*
X175641248Y-38657589D01*
X175650500Y-38704588D01*
X175650500Y-42227312D01*
X175630815Y-42294351D01*
X175618650Y-42310284D01*
X175543466Y-42393784D01*
X175448821Y-42557715D01*
X175448818Y-42557722D01*
X175392436Y-42731250D01*
X175390326Y-42737744D01*
X175370540Y-42926000D01*
X175390326Y-43114256D01*
X175390327Y-43114259D01*
X175448818Y-43294277D01*
X175448821Y-43294284D01*
X175543467Y-43458216D01*
X175590464Y-43510411D01*
X175670129Y-43598888D01*
X175823265Y-43710148D01*
X175823270Y-43710151D01*
X175996192Y-43787142D01*
X175996197Y-43787144D01*
X176181354Y-43826500D01*
X176181355Y-43826500D01*
X176370644Y-43826500D01*
X176370646Y-43826500D01*
X176555803Y-43787144D01*
X176728730Y-43710151D01*
X176881871Y-43598888D01*
X177008533Y-43458216D01*
X177103179Y-43294284D01*
X177161674Y-43114256D01*
X177181460Y-42926000D01*
X177161674Y-42737744D01*
X177103179Y-42557716D01*
X177008533Y-42393784D01*
X176933350Y-42310284D01*
X176903120Y-42247292D01*
X176901500Y-42227312D01*
X176901500Y-38704588D01*
X176921185Y-38637549D01*
X176954377Y-38603013D01*
X177045373Y-38539297D01*
X177115139Y-38490447D01*
X177276047Y-38329539D01*
X177406568Y-38143134D01*
X177433895Y-38084529D01*
X177480064Y-38032095D01*
X177547257Y-38012942D01*
X177614139Y-38033157D01*
X177658657Y-38084533D01*
X177685865Y-38142882D01*
X177816342Y-38329220D01*
X177977179Y-38490057D01*
X178163517Y-38620534D01*
X178369673Y-38716665D01*
X178369682Y-38716669D01*
X178565999Y-38769272D01*
X178566000Y-38769271D01*
X178566000Y-37806086D01*
X178577955Y-37818041D01*
X178690852Y-37875565D01*
X178784519Y-37890400D01*
X178847481Y-37890400D01*
X178941148Y-37875565D01*
X179054045Y-37818041D01*
X179066000Y-37806086D01*
X179066000Y-38769272D01*
X179262317Y-38716669D01*
X179262326Y-38716665D01*
X179468482Y-38620534D01*
X179654820Y-38490057D01*
X179815657Y-38329220D01*
X179946132Y-38142884D01*
X179973341Y-38084534D01*
X180019513Y-38032095D01*
X180086707Y-38012942D01*
X180153588Y-38033157D01*
X180198105Y-38084532D01*
X180198382Y-38085125D01*
X180225431Y-38143132D01*
X180225432Y-38143134D01*
X180355954Y-38329541D01*
X180516858Y-38490445D01*
X180677623Y-38603013D01*
X180721248Y-38657589D01*
X180730500Y-38704588D01*
X180730500Y-42481312D01*
X180710815Y-42548351D01*
X180698650Y-42564284D01*
X180623466Y-42647784D01*
X180528821Y-42811715D01*
X180528818Y-42811722D01*
X180470327Y-42991740D01*
X180470326Y-42991744D01*
X180450540Y-43180000D01*
X180470326Y-43368256D01*
X180470327Y-43368259D01*
X180528818Y-43548277D01*
X180528821Y-43548284D01*
X180623467Y-43712216D01*
X180690931Y-43787142D01*
X180750129Y-43852888D01*
X180903265Y-43964148D01*
X180903270Y-43964151D01*
X181076192Y-44041142D01*
X181076197Y-44041144D01*
X181261354Y-44080500D01*
X181261355Y-44080500D01*
X181450644Y-44080500D01*
X181450646Y-44080500D01*
X181635803Y-44041144D01*
X181808730Y-43964151D01*
X181961871Y-43852888D01*
X182088533Y-43712216D01*
X182183179Y-43548284D01*
X182241674Y-43368256D01*
X182261460Y-43180000D01*
X182241674Y-42991744D01*
X182183179Y-42811716D01*
X182088533Y-42647784D01*
X182081143Y-42639577D01*
X182013350Y-42564284D01*
X181983120Y-42501292D01*
X181981500Y-42481312D01*
X181981500Y-38704588D01*
X182001185Y-38637549D01*
X182034377Y-38603013D01*
X182125373Y-38539297D01*
X182195139Y-38490447D01*
X182356047Y-38329539D01*
X182486568Y-38143134D01*
X182513618Y-38085124D01*
X182559790Y-38032685D01*
X182626983Y-38013533D01*
X182693865Y-38033748D01*
X182738382Y-38085125D01*
X182765429Y-38143128D01*
X182765432Y-38143134D01*
X182895954Y-38329541D01*
X183056857Y-38490444D01*
X183056860Y-38490446D01*
X183056861Y-38490447D01*
X183142623Y-38550497D01*
X183186248Y-38605073D01*
X183195500Y-38652072D01*
X183195500Y-39354235D01*
X183175815Y-39421274D01*
X183123011Y-39467029D01*
X183114834Y-39470417D01*
X182978669Y-39521203D01*
X182978664Y-39521206D01*
X182863455Y-39607452D01*
X182863452Y-39607455D01*
X182777206Y-39722664D01*
X182777202Y-39722671D01*
X182726908Y-39857517D01*
X182720979Y-39912673D01*
X182720501Y-39917123D01*
X182720500Y-39917135D01*
X182720500Y-41362870D01*
X182720501Y-41362876D01*
X182726908Y-41422483D01*
X182777202Y-41557328D01*
X182777206Y-41557335D01*
X182863452Y-41672544D01*
X182863455Y-41672547D01*
X182978664Y-41758793D01*
X182978671Y-41758797D01*
X183113517Y-41809091D01*
X183113516Y-41809091D01*
X183120444Y-41809835D01*
X183173127Y-41815500D01*
X184618872Y-41815499D01*
X184678483Y-41809091D01*
X184813331Y-41758796D01*
X184928546Y-41672546D01*
X185014796Y-41557331D01*
X185065091Y-41422483D01*
X185071500Y-41362873D01*
X185071499Y-39917128D01*
X185065091Y-39857517D01*
X185058602Y-39840120D01*
X185014797Y-39722671D01*
X185014793Y-39722664D01*
X184928547Y-39607455D01*
X184928544Y-39607452D01*
X184813335Y-39521206D01*
X184813330Y-39521203D01*
X184677166Y-39470417D01*
X184621233Y-39428545D01*
X184596816Y-39363081D01*
X184596500Y-39354235D01*
X184596500Y-38652072D01*
X184616185Y-38585033D01*
X184649375Y-38550498D01*
X184735139Y-38490447D01*
X184896047Y-38329539D01*
X185026568Y-38143134D01*
X185053618Y-38085124D01*
X185099790Y-38032685D01*
X185166983Y-38013533D01*
X185233865Y-38033748D01*
X185278382Y-38085125D01*
X185305429Y-38143128D01*
X185305432Y-38143134D01*
X185435954Y-38329541D01*
X185596858Y-38490445D01*
X185596861Y-38490447D01*
X185783266Y-38620968D01*
X185989504Y-38717139D01*
X186209308Y-38776035D01*
X186371230Y-38790201D01*
X186435998Y-38795868D01*
X186436000Y-38795868D01*
X186436002Y-38795868D01*
X186492673Y-38790909D01*
X186662692Y-38776035D01*
X186882496Y-38717139D01*
X187088734Y-38620968D01*
X187275139Y-38490447D01*
X187436047Y-38329539D01*
X187566568Y-38143134D01*
X187593618Y-38085124D01*
X187639790Y-38032685D01*
X187706983Y-38013533D01*
X187773865Y-38033748D01*
X187818382Y-38085125D01*
X187845429Y-38143128D01*
X187845432Y-38143134D01*
X187975954Y-38329541D01*
X188136858Y-38490445D01*
X188300348Y-38604921D01*
X188343973Y-38659497D01*
X188353164Y-38702597D01*
X188353290Y-38706624D01*
X188353291Y-38706627D01*
X188358880Y-38725867D01*
X188362824Y-38744911D01*
X188365336Y-38764792D01*
X188369930Y-38776395D01*
X188382490Y-38808119D01*
X188384382Y-38813647D01*
X188394639Y-38848952D01*
X188397382Y-38858390D01*
X188398297Y-38859938D01*
X188407580Y-38875634D01*
X188416138Y-38893103D01*
X188423514Y-38911732D01*
X188450898Y-38949423D01*
X188454106Y-38954307D01*
X188477827Y-38994416D01*
X188477833Y-38994424D01*
X188491990Y-39008580D01*
X188504628Y-39023376D01*
X188516405Y-39039586D01*
X188516406Y-39039587D01*
X188552309Y-39069288D01*
X188556620Y-39073210D01*
X188904684Y-39421274D01*
X189237194Y-39753784D01*
X189247019Y-39766048D01*
X189247240Y-39765866D01*
X189252210Y-39771873D01*
X189252213Y-39771876D01*
X189252214Y-39771877D01*
X189302651Y-39819241D01*
X189323530Y-39840120D01*
X189329004Y-39844366D01*
X189333442Y-39848156D01*
X189367418Y-39880062D01*
X189367422Y-39880064D01*
X189384973Y-39889713D01*
X189401231Y-39900392D01*
X189417064Y-39912674D01*
X189439015Y-39922172D01*
X189459837Y-39931183D01*
X189465081Y-39933752D01*
X189505908Y-39956197D01*
X189525312Y-39961179D01*
X189543710Y-39967478D01*
X189562105Y-39975438D01*
X189608129Y-39982726D01*
X189613832Y-39983907D01*
X189658981Y-39995500D01*
X189679016Y-39995500D01*
X189698413Y-39997026D01*
X189718196Y-40000160D01*
X189764584Y-39995775D01*
X189770422Y-39995500D01*
X221685548Y-39995500D01*
X221752587Y-40015185D01*
X221773229Y-40031819D01*
X223366181Y-41624771D01*
X223399666Y-41686094D01*
X223402500Y-41712452D01*
X223402500Y-51371312D01*
X223382815Y-51438351D01*
X223370650Y-51454284D01*
X223295466Y-51537784D01*
X223200821Y-51701715D01*
X223200819Y-51701719D01*
X223166648Y-51806887D01*
X223127210Y-51864562D01*
X223062851Y-51891760D01*
X222994005Y-51879845D01*
X222961036Y-51856249D01*
X222835141Y-51730354D01*
X222648734Y-51599832D01*
X222648732Y-51599831D01*
X222442497Y-51503661D01*
X222442488Y-51503658D01*
X222222697Y-51444766D01*
X222222693Y-51444765D01*
X222222692Y-51444765D01*
X222222691Y-51444764D01*
X222222686Y-51444764D01*
X221996002Y-51424932D01*
X221995998Y-51424932D01*
X221769313Y-51444764D01*
X221769302Y-51444766D01*
X221549511Y-51503658D01*
X221549502Y-51503661D01*
X221343267Y-51599831D01*
X221343265Y-51599832D01*
X221156858Y-51730354D01*
X220995954Y-51891258D01*
X220865432Y-52077665D01*
X220865431Y-52077667D01*
X220838382Y-52135675D01*
X220792209Y-52188114D01*
X220725016Y-52207266D01*
X220658135Y-52187050D01*
X220613618Y-52135675D01*
X220586568Y-52077667D01*
X220586567Y-52077665D01*
X220456045Y-51891258D01*
X220295141Y-51730354D01*
X220108734Y-51599832D01*
X220108732Y-51599831D01*
X219902497Y-51503661D01*
X219902488Y-51503658D01*
X219682697Y-51444766D01*
X219682693Y-51444765D01*
X219682692Y-51444765D01*
X219682691Y-51444764D01*
X219682686Y-51444764D01*
X219456002Y-51424932D01*
X219455998Y-51424932D01*
X219229313Y-51444764D01*
X219229302Y-51444766D01*
X219009511Y-51503658D01*
X219009502Y-51503661D01*
X218803267Y-51599831D01*
X218803265Y-51599832D01*
X218616858Y-51730354D01*
X218455954Y-51891258D01*
X218325432Y-52077665D01*
X218325431Y-52077667D01*
X218298382Y-52135675D01*
X218252209Y-52188114D01*
X218185016Y-52207266D01*
X218118135Y-52187050D01*
X218073618Y-52135675D01*
X218046568Y-52077667D01*
X218046567Y-52077665D01*
X217916045Y-51891258D01*
X217755141Y-51730354D01*
X217568734Y-51599832D01*
X217568732Y-51599831D01*
X217362497Y-51503661D01*
X217362488Y-51503658D01*
X217142697Y-51444766D01*
X217142693Y-51444765D01*
X217142692Y-51444765D01*
X217142691Y-51444764D01*
X217142686Y-51444764D01*
X216916002Y-51424932D01*
X216915998Y-51424932D01*
X216689313Y-51444764D01*
X216689302Y-51444766D01*
X216469511Y-51503658D01*
X216469502Y-51503661D01*
X216263267Y-51599831D01*
X216263265Y-51599832D01*
X216076858Y-51730354D01*
X215915954Y-51891258D01*
X215785432Y-52077665D01*
X215785431Y-52077667D01*
X215758382Y-52135675D01*
X215712209Y-52188114D01*
X215645016Y-52207266D01*
X215578135Y-52187050D01*
X215533618Y-52135675D01*
X215506568Y-52077667D01*
X215506567Y-52077665D01*
X215376045Y-51891258D01*
X215215141Y-51730354D01*
X215028734Y-51599832D01*
X215028732Y-51599831D01*
X214822497Y-51503661D01*
X214822488Y-51503658D01*
X214602697Y-51444766D01*
X214602693Y-51444765D01*
X214602692Y-51444765D01*
X214602691Y-51444764D01*
X214602686Y-51444764D01*
X214376002Y-51424932D01*
X214375998Y-51424932D01*
X214149313Y-51444764D01*
X214149302Y-51444766D01*
X213929511Y-51503658D01*
X213929502Y-51503661D01*
X213723267Y-51599831D01*
X213723265Y-51599832D01*
X213536858Y-51730354D01*
X213375954Y-51891258D01*
X213245432Y-52077665D01*
X213245431Y-52077667D01*
X213218382Y-52135675D01*
X213172209Y-52188114D01*
X213105016Y-52207266D01*
X213038135Y-52187050D01*
X212993618Y-52135675D01*
X212966568Y-52077667D01*
X212966567Y-52077665D01*
X212836045Y-51891258D01*
X212675141Y-51730354D01*
X212488734Y-51599832D01*
X212488732Y-51599831D01*
X212282497Y-51503661D01*
X212282488Y-51503658D01*
X212062697Y-51444766D01*
X212062693Y-51444765D01*
X212062692Y-51444765D01*
X212062691Y-51444764D01*
X212062686Y-51444764D01*
X211836002Y-51424932D01*
X211835998Y-51424932D01*
X211609313Y-51444764D01*
X211609302Y-51444766D01*
X211389511Y-51503658D01*
X211389502Y-51503661D01*
X211183267Y-51599831D01*
X211183265Y-51599832D01*
X210996858Y-51730354D01*
X210835954Y-51891258D01*
X210705432Y-52077665D01*
X210705431Y-52077667D01*
X210678382Y-52135675D01*
X210632209Y-52188114D01*
X210565016Y-52207266D01*
X210498135Y-52187050D01*
X210453618Y-52135675D01*
X210426568Y-52077667D01*
X210426567Y-52077665D01*
X210296045Y-51891258D01*
X210135141Y-51730354D01*
X209948734Y-51599832D01*
X209948732Y-51599831D01*
X209742497Y-51503661D01*
X209742488Y-51503658D01*
X209522697Y-51444766D01*
X209522693Y-51444765D01*
X209522692Y-51444765D01*
X209522691Y-51444764D01*
X209522686Y-51444764D01*
X209296002Y-51424932D01*
X209295998Y-51424932D01*
X209069313Y-51444764D01*
X209069302Y-51444766D01*
X208849511Y-51503658D01*
X208849502Y-51503661D01*
X208643267Y-51599831D01*
X208643265Y-51599832D01*
X208456858Y-51730354D01*
X208295954Y-51891258D01*
X208165432Y-52077665D01*
X208165431Y-52077667D01*
X208138382Y-52135675D01*
X208092209Y-52188114D01*
X208025016Y-52207266D01*
X207958135Y-52187050D01*
X207913618Y-52135675D01*
X207886568Y-52077667D01*
X207886567Y-52077665D01*
X207756045Y-51891258D01*
X207595141Y-51730354D01*
X207408734Y-51599832D01*
X207408732Y-51599831D01*
X207202497Y-51503661D01*
X207202488Y-51503658D01*
X206982697Y-51444766D01*
X206982693Y-51444765D01*
X206982692Y-51444765D01*
X206982691Y-51444764D01*
X206982686Y-51444764D01*
X206756002Y-51424932D01*
X206755998Y-51424932D01*
X206529313Y-51444764D01*
X206529302Y-51444766D01*
X206309511Y-51503658D01*
X206309502Y-51503661D01*
X206103267Y-51599831D01*
X206103265Y-51599832D01*
X205916858Y-51730354D01*
X205755954Y-51891258D01*
X205625432Y-52077665D01*
X205625431Y-52077667D01*
X205598382Y-52135675D01*
X205552209Y-52188114D01*
X205485016Y-52207266D01*
X205418135Y-52187050D01*
X205373618Y-52135675D01*
X205346568Y-52077667D01*
X205346567Y-52077665D01*
X205216045Y-51891258D01*
X205055141Y-51730354D01*
X204868734Y-51599832D01*
X204868732Y-51599831D01*
X204662497Y-51503661D01*
X204662488Y-51503658D01*
X204442697Y-51444766D01*
X204442693Y-51444765D01*
X204442692Y-51444765D01*
X204442691Y-51444764D01*
X204442686Y-51444764D01*
X204216002Y-51424932D01*
X204215998Y-51424932D01*
X203989313Y-51444764D01*
X203989302Y-51444766D01*
X203769511Y-51503658D01*
X203769502Y-51503661D01*
X203563267Y-51599831D01*
X203563265Y-51599832D01*
X203376858Y-51730354D01*
X203215954Y-51891258D01*
X203085432Y-52077665D01*
X203085431Y-52077667D01*
X203058382Y-52135675D01*
X203012209Y-52188114D01*
X202945016Y-52207266D01*
X202878135Y-52187050D01*
X202833618Y-52135675D01*
X202806568Y-52077667D01*
X202806567Y-52077665D01*
X202676045Y-51891258D01*
X202515141Y-51730354D01*
X202328734Y-51599832D01*
X202328732Y-51599831D01*
X202122497Y-51503661D01*
X202122488Y-51503658D01*
X201902697Y-51444766D01*
X201902693Y-51444765D01*
X201902692Y-51444765D01*
X201902691Y-51444764D01*
X201902686Y-51444764D01*
X201676002Y-51424932D01*
X201675998Y-51424932D01*
X201449313Y-51444764D01*
X201449302Y-51444766D01*
X201229511Y-51503658D01*
X201229502Y-51503661D01*
X201023267Y-51599831D01*
X201023265Y-51599832D01*
X200836858Y-51730354D01*
X200675954Y-51891258D01*
X200545432Y-52077665D01*
X200545431Y-52077667D01*
X200518382Y-52135675D01*
X200472209Y-52188114D01*
X200405016Y-52207266D01*
X200338135Y-52187050D01*
X200293618Y-52135675D01*
X200266568Y-52077667D01*
X200266567Y-52077665D01*
X200136045Y-51891258D01*
X199975141Y-51730354D01*
X199788734Y-51599832D01*
X199788732Y-51599831D01*
X199582497Y-51503661D01*
X199582488Y-51503658D01*
X199362697Y-51444766D01*
X199362693Y-51444765D01*
X199362692Y-51444765D01*
X199362691Y-51444764D01*
X199362686Y-51444764D01*
X199136002Y-51424932D01*
X199135998Y-51424932D01*
X198909313Y-51444764D01*
X198909302Y-51444766D01*
X198689511Y-51503658D01*
X198689502Y-51503661D01*
X198483267Y-51599831D01*
X198483265Y-51599832D01*
X198296858Y-51730354D01*
X198135954Y-51891258D01*
X198005432Y-52077665D01*
X198005431Y-52077667D01*
X197978382Y-52135675D01*
X197932209Y-52188114D01*
X197865016Y-52207266D01*
X197798135Y-52187050D01*
X197753618Y-52135675D01*
X197726568Y-52077667D01*
X197726567Y-52077665D01*
X197596045Y-51891258D01*
X197435141Y-51730354D01*
X197248734Y-51599832D01*
X197248732Y-51599831D01*
X197042497Y-51503661D01*
X197042488Y-51503658D01*
X196822697Y-51444766D01*
X196822693Y-51444765D01*
X196822692Y-51444765D01*
X196822691Y-51444764D01*
X196822686Y-51444764D01*
X196596002Y-51424932D01*
X196595998Y-51424932D01*
X196369313Y-51444764D01*
X196369302Y-51444766D01*
X196149511Y-51503658D01*
X196149502Y-51503661D01*
X195943267Y-51599831D01*
X195943265Y-51599832D01*
X195756858Y-51730354D01*
X195595954Y-51891258D01*
X195465432Y-52077665D01*
X195465431Y-52077667D01*
X195438382Y-52135675D01*
X195392209Y-52188114D01*
X195325016Y-52207266D01*
X195258135Y-52187050D01*
X195213618Y-52135675D01*
X195186568Y-52077667D01*
X195186567Y-52077665D01*
X195056045Y-51891258D01*
X194895141Y-51730354D01*
X194708734Y-51599832D01*
X194708732Y-51599831D01*
X194502497Y-51503661D01*
X194502488Y-51503658D01*
X194282697Y-51444766D01*
X194282693Y-51444765D01*
X194282692Y-51444765D01*
X194282691Y-51444764D01*
X194282686Y-51444764D01*
X194056002Y-51424932D01*
X194055998Y-51424932D01*
X193829313Y-51444764D01*
X193829302Y-51444766D01*
X193609511Y-51503658D01*
X193609502Y-51503661D01*
X193403267Y-51599831D01*
X193403265Y-51599832D01*
X193216858Y-51730354D01*
X193055954Y-51891258D01*
X192925432Y-52077665D01*
X192925431Y-52077667D01*
X192898382Y-52135675D01*
X192852209Y-52188114D01*
X192785016Y-52207266D01*
X192718135Y-52187050D01*
X192673618Y-52135675D01*
X192646568Y-52077667D01*
X192646567Y-52077665D01*
X192516045Y-51891258D01*
X192355141Y-51730354D01*
X192168734Y-51599832D01*
X192168732Y-51599831D01*
X191962497Y-51503661D01*
X191962488Y-51503658D01*
X191742697Y-51444766D01*
X191742693Y-51444765D01*
X191742692Y-51444765D01*
X191742691Y-51444764D01*
X191742686Y-51444764D01*
X191516002Y-51424932D01*
X191515998Y-51424932D01*
X191289313Y-51444764D01*
X191289302Y-51444766D01*
X191069511Y-51503658D01*
X191069502Y-51503661D01*
X190863267Y-51599831D01*
X190863265Y-51599832D01*
X190676858Y-51730354D01*
X190515954Y-51891258D01*
X190385432Y-52077665D01*
X190385431Y-52077667D01*
X190358382Y-52135675D01*
X190312209Y-52188114D01*
X190245016Y-52207266D01*
X190178135Y-52187050D01*
X190133618Y-52135675D01*
X190106568Y-52077667D01*
X190106567Y-52077665D01*
X189976048Y-51891262D01*
X189900786Y-51816000D01*
X189815139Y-51730353D01*
X189729376Y-51670301D01*
X189685751Y-51615724D01*
X189676500Y-51568726D01*
X189676500Y-51069764D01*
X189696185Y-51002725D01*
X189748989Y-50956970D01*
X189757167Y-50953582D01*
X189893328Y-50902797D01*
X189893327Y-50902797D01*
X189893331Y-50902796D01*
X190008546Y-50816546D01*
X190094796Y-50701331D01*
X190145091Y-50566483D01*
X190151500Y-50506873D01*
X190151499Y-49061128D01*
X190145091Y-49001517D01*
X190135820Y-48976661D01*
X190094797Y-48866671D01*
X190094793Y-48866664D01*
X190008547Y-48751455D01*
X190008544Y-48751452D01*
X189893335Y-48665206D01*
X189893328Y-48665202D01*
X189758482Y-48614908D01*
X189758483Y-48614908D01*
X189698883Y-48608501D01*
X189698881Y-48608500D01*
X189698873Y-48608500D01*
X189698864Y-48608500D01*
X188253129Y-48608500D01*
X188253123Y-48608501D01*
X188193516Y-48614908D01*
X188058671Y-48665202D01*
X188058664Y-48665206D01*
X187943455Y-48751452D01*
X187943452Y-48751455D01*
X187857206Y-48866664D01*
X187857202Y-48866671D01*
X187806908Y-49001517D01*
X187800501Y-49061116D01*
X187800501Y-49061123D01*
X187800500Y-49061135D01*
X187800500Y-50506870D01*
X187800501Y-50506876D01*
X187806908Y-50566483D01*
X187857202Y-50701328D01*
X187857206Y-50701335D01*
X187943452Y-50816544D01*
X187943455Y-50816547D01*
X188058664Y-50902793D01*
X188058671Y-50902797D01*
X188194833Y-50953582D01*
X188250767Y-50995453D01*
X188275184Y-51060917D01*
X188275500Y-51069764D01*
X188275500Y-51568726D01*
X188255815Y-51635765D01*
X188222624Y-51670301D01*
X188136863Y-51730351D01*
X187975951Y-51891262D01*
X187845432Y-52077665D01*
X187845431Y-52077667D01*
X187818382Y-52135675D01*
X187772209Y-52188114D01*
X187705016Y-52207266D01*
X187638135Y-52187050D01*
X187593618Y-52135675D01*
X187566568Y-52077667D01*
X187566567Y-52077665D01*
X187436045Y-51891258D01*
X187275141Y-51730354D01*
X187088734Y-51599832D01*
X187088732Y-51599831D01*
X186882497Y-51503661D01*
X186882488Y-51503658D01*
X186662697Y-51444766D01*
X186662693Y-51444765D01*
X186662692Y-51444765D01*
X186662691Y-51444764D01*
X186662686Y-51444764D01*
X186436002Y-51424932D01*
X186435998Y-51424932D01*
X186209313Y-51444764D01*
X186209302Y-51444766D01*
X185989511Y-51503658D01*
X185989502Y-51503661D01*
X185783267Y-51599831D01*
X185783265Y-51599832D01*
X185596858Y-51730354D01*
X185435954Y-51891258D01*
X185305432Y-52077665D01*
X185305431Y-52077667D01*
X185278382Y-52135675D01*
X185232209Y-52188114D01*
X185165016Y-52207266D01*
X185098135Y-52187050D01*
X185053618Y-52135675D01*
X185026568Y-52077667D01*
X185026567Y-52077665D01*
X184896048Y-51891262D01*
X184820786Y-51816000D01*
X184735139Y-51730353D01*
X184649376Y-51670301D01*
X184605751Y-51615724D01*
X184596500Y-51568726D01*
X184596500Y-51069764D01*
X184616185Y-51002725D01*
X184668989Y-50956970D01*
X184677167Y-50953582D01*
X184813328Y-50902797D01*
X184813327Y-50902797D01*
X184813331Y-50902796D01*
X184928546Y-50816546D01*
X185014796Y-50701331D01*
X185065091Y-50566483D01*
X185071500Y-50506873D01*
X185071499Y-49061128D01*
X185065091Y-49001517D01*
X185055820Y-48976661D01*
X185014797Y-48866671D01*
X185014793Y-48866664D01*
X184928547Y-48751455D01*
X184928544Y-48751452D01*
X184813335Y-48665206D01*
X184813328Y-48665202D01*
X184678482Y-48614908D01*
X184678483Y-48614908D01*
X184618883Y-48608501D01*
X184618881Y-48608500D01*
X184618873Y-48608500D01*
X184618864Y-48608500D01*
X183173129Y-48608500D01*
X183173123Y-48608501D01*
X183113516Y-48614908D01*
X182978671Y-48665202D01*
X182978664Y-48665206D01*
X182863455Y-48751452D01*
X182863452Y-48751455D01*
X182777206Y-48866664D01*
X182777202Y-48866671D01*
X182726908Y-49001517D01*
X182720501Y-49061116D01*
X182720501Y-49061123D01*
X182720500Y-49061135D01*
X182720500Y-50506870D01*
X182720501Y-50506876D01*
X182726908Y-50566483D01*
X182777202Y-50701328D01*
X182777206Y-50701335D01*
X182863452Y-50816544D01*
X182863455Y-50816547D01*
X182978664Y-50902793D01*
X182978671Y-50902797D01*
X183114833Y-50953582D01*
X183170767Y-50995453D01*
X183195184Y-51060917D01*
X183195500Y-51069764D01*
X183195500Y-51568726D01*
X183175815Y-51635765D01*
X183142624Y-51670301D01*
X183056863Y-51730351D01*
X182895951Y-51891262D01*
X182765432Y-52077665D01*
X182765431Y-52077667D01*
X182738382Y-52135675D01*
X182692209Y-52188114D01*
X182625016Y-52207266D01*
X182558135Y-52187050D01*
X182513618Y-52135675D01*
X182486568Y-52077667D01*
X182486567Y-52077665D01*
X182356045Y-51891258D01*
X182195141Y-51730354D01*
X182008734Y-51599832D01*
X182008732Y-51599831D01*
X181802497Y-51503661D01*
X181802488Y-51503658D01*
X181582697Y-51444766D01*
X181582693Y-51444765D01*
X181582692Y-51444765D01*
X181582691Y-51444764D01*
X181582686Y-51444764D01*
X181356002Y-51424932D01*
X181355998Y-51424932D01*
X181129313Y-51444764D01*
X181129302Y-51444766D01*
X180909511Y-51503658D01*
X180909502Y-51503661D01*
X180703267Y-51599831D01*
X180703265Y-51599832D01*
X180516858Y-51730354D01*
X180355954Y-51891258D01*
X180225432Y-52077665D01*
X180225431Y-52077667D01*
X180198382Y-52135675D01*
X180152209Y-52188114D01*
X180085016Y-52207266D01*
X180018135Y-52187050D01*
X179973618Y-52135675D01*
X179946568Y-52077667D01*
X179946567Y-52077665D01*
X179816048Y-51891262D01*
X179740786Y-51816000D01*
X179655139Y-51730353D01*
X179569376Y-51670301D01*
X179525751Y-51615724D01*
X179516500Y-51568726D01*
X179516500Y-51069764D01*
X179536185Y-51002725D01*
X179588989Y-50956970D01*
X179597167Y-50953582D01*
X179733328Y-50902797D01*
X179733327Y-50902797D01*
X179733331Y-50902796D01*
X179848546Y-50816546D01*
X179934796Y-50701331D01*
X179985091Y-50566483D01*
X179991500Y-50506873D01*
X179991499Y-49061128D01*
X179985091Y-49001517D01*
X179975820Y-48976661D01*
X179934797Y-48866671D01*
X179934793Y-48866664D01*
X179848547Y-48751455D01*
X179848544Y-48751452D01*
X179733335Y-48665206D01*
X179733328Y-48665202D01*
X179598482Y-48614908D01*
X179598483Y-48614908D01*
X179538883Y-48608501D01*
X179538881Y-48608500D01*
X179538873Y-48608500D01*
X179538864Y-48608500D01*
X178093129Y-48608500D01*
X178093123Y-48608501D01*
X178033516Y-48614908D01*
X177898671Y-48665202D01*
X177898664Y-48665206D01*
X177783455Y-48751452D01*
X177783452Y-48751455D01*
X177697206Y-48866664D01*
X177697202Y-48866671D01*
X177662182Y-48960567D01*
X177620311Y-49016501D01*
X177554847Y-49040918D01*
X177486574Y-49026067D01*
X177437168Y-48976661D01*
X177429818Y-48960567D01*
X177394797Y-48866671D01*
X177394793Y-48866664D01*
X177308547Y-48751455D01*
X177308544Y-48751452D01*
X177193335Y-48665206D01*
X177193328Y-48665202D01*
X177058482Y-48614908D01*
X177058483Y-48614908D01*
X176998883Y-48608501D01*
X176998881Y-48608500D01*
X176998873Y-48608500D01*
X176998864Y-48608500D01*
X175553129Y-48608500D01*
X175553123Y-48608501D01*
X175493516Y-48614908D01*
X175358671Y-48665202D01*
X175358664Y-48665206D01*
X175243455Y-48751452D01*
X175243452Y-48751455D01*
X175157206Y-48866664D01*
X175157202Y-48866671D01*
X175106908Y-49001517D01*
X175100501Y-49061116D01*
X175100501Y-49061123D01*
X175100500Y-49061135D01*
X175100500Y-50506870D01*
X175100501Y-50506876D01*
X175106908Y-50566483D01*
X175157202Y-50701328D01*
X175157206Y-50701335D01*
X175243452Y-50816544D01*
X175243455Y-50816547D01*
X175358664Y-50902793D01*
X175358671Y-50902797D01*
X175494833Y-50953582D01*
X175550767Y-50995453D01*
X175575184Y-51060917D01*
X175575500Y-51069764D01*
X175575500Y-51568726D01*
X175555815Y-51635765D01*
X175522624Y-51670301D01*
X175436863Y-51730351D01*
X175275949Y-51891264D01*
X175258287Y-51916488D01*
X175203710Y-51960112D01*
X175134211Y-51967304D01*
X175071857Y-51935780D01*
X175036445Y-51875550D01*
X175033425Y-51858618D01*
X175029598Y-51823027D01*
X175029596Y-51823020D01*
X174979354Y-51688313D01*
X174979350Y-51688306D01*
X174893190Y-51573212D01*
X174893187Y-51573209D01*
X174778093Y-51487049D01*
X174778086Y-51487045D01*
X174643379Y-51436803D01*
X174643372Y-51436801D01*
X174583844Y-51430400D01*
X173986000Y-51430400D01*
X173986000Y-52414714D01*
X173974045Y-52402759D01*
X173861148Y-52345235D01*
X173767481Y-52330400D01*
X173704519Y-52330400D01*
X173610852Y-52345235D01*
X173497955Y-52402759D01*
X173486000Y-52414714D01*
X173486000Y-51430400D01*
X172888155Y-51430400D01*
X172828627Y-51436801D01*
X172828620Y-51436803D01*
X172750833Y-51465816D01*
X172681141Y-51470800D01*
X172619818Y-51437315D01*
X172586334Y-51375992D01*
X172583500Y-51349634D01*
X172583500Y-44024742D01*
X172585224Y-44009122D01*
X172584939Y-44009096D01*
X172585671Y-44001340D01*
X172585673Y-44001333D01*
X172583500Y-43932185D01*
X172583500Y-43902650D01*
X172582631Y-43895772D01*
X172582172Y-43889943D01*
X172580709Y-43843372D01*
X172575122Y-43824144D01*
X172571174Y-43805084D01*
X172570203Y-43797395D01*
X172568664Y-43785208D01*
X172568663Y-43785206D01*
X172568663Y-43785204D01*
X172551512Y-43741887D01*
X172549619Y-43736358D01*
X172536618Y-43691609D01*
X172536616Y-43691606D01*
X172526423Y-43674371D01*
X172517861Y-43656894D01*
X172510487Y-43638270D01*
X172510486Y-43638268D01*
X172483079Y-43600545D01*
X172479888Y-43595686D01*
X172456172Y-43555583D01*
X172456165Y-43555574D01*
X172442006Y-43541415D01*
X172429368Y-43526619D01*
X172417594Y-43510413D01*
X172381688Y-43480709D01*
X172377376Y-43476786D01*
X171442803Y-42542212D01*
X171432980Y-42529950D01*
X171432759Y-42530134D01*
X171427786Y-42524123D01*
X171377364Y-42476773D01*
X171362926Y-42462335D01*
X171356475Y-42455883D01*
X171350986Y-42451625D01*
X171346561Y-42447847D01*
X171312582Y-42415938D01*
X171312580Y-42415936D01*
X171312577Y-42415935D01*
X171295029Y-42406288D01*
X171278763Y-42395604D01*
X171262933Y-42383325D01*
X171220168Y-42364818D01*
X171214922Y-42362248D01*
X171174093Y-42339803D01*
X171174092Y-42339802D01*
X171154693Y-42334822D01*
X171136281Y-42328518D01*
X171117898Y-42320562D01*
X171117892Y-42320560D01*
X171071874Y-42313272D01*
X171066152Y-42312087D01*
X171021021Y-42300500D01*
X171021019Y-42300500D01*
X171000984Y-42300500D01*
X170981586Y-42298973D01*
X170974162Y-42297797D01*
X170961805Y-42295840D01*
X170961804Y-42295840D01*
X170915416Y-42300225D01*
X170909578Y-42300500D01*
X168153227Y-42300500D01*
X168086188Y-42280815D01*
X168051652Y-42247623D01*
X167916494Y-42054597D01*
X167749402Y-41887506D01*
X167749395Y-41887501D01*
X167555834Y-41751967D01*
X167555830Y-41751965D01*
X167471094Y-41712452D01*
X167341663Y-41652097D01*
X167341659Y-41652096D01*
X167341655Y-41652094D01*
X167113413Y-41590938D01*
X167113403Y-41590936D01*
X166878001Y-41570341D01*
X166877999Y-41570341D01*
X166642596Y-41590936D01*
X166642586Y-41590938D01*
X166414344Y-41652094D01*
X166414335Y-41652098D01*
X166200171Y-41751964D01*
X166200169Y-41751965D01*
X166006597Y-41887505D01*
X165839505Y-42054597D01*
X165709575Y-42240158D01*
X165654998Y-42283783D01*
X165585500Y-42290977D01*
X165523145Y-42259454D01*
X165506425Y-42240158D01*
X165376494Y-42054597D01*
X165209402Y-41887506D01*
X165209395Y-41887501D01*
X165015834Y-41751967D01*
X165015830Y-41751965D01*
X164931094Y-41712452D01*
X164801663Y-41652097D01*
X164801659Y-41652096D01*
X164801655Y-41652094D01*
X164573413Y-41590938D01*
X164573403Y-41590936D01*
X164338001Y-41570341D01*
X164337999Y-41570341D01*
X164102596Y-41590936D01*
X164102586Y-41590938D01*
X163874344Y-41652094D01*
X163874335Y-41652098D01*
X163660171Y-41751964D01*
X163660169Y-41751965D01*
X163466597Y-41887505D01*
X163299505Y-42054597D01*
X163163965Y-42248169D01*
X163163964Y-42248171D01*
X163064098Y-42462335D01*
X163064094Y-42462344D01*
X163002938Y-42690586D01*
X163002936Y-42690596D01*
X162982341Y-42925999D01*
X162982341Y-42926000D01*
X163002936Y-43161403D01*
X163002938Y-43161413D01*
X163064094Y-43389655D01*
X163064096Y-43389659D01*
X163064097Y-43389663D01*
X163139563Y-43551500D01*
X163163965Y-43603830D01*
X163163967Y-43603834D01*
X163299501Y-43797395D01*
X163299506Y-43797402D01*
X163466597Y-43964493D01*
X163466603Y-43964498D01*
X163652158Y-44094425D01*
X163695783Y-44149002D01*
X163702977Y-44218500D01*
X163671454Y-44280855D01*
X163652158Y-44297575D01*
X163466597Y-44427505D01*
X163299505Y-44594597D01*
X163163965Y-44788169D01*
X163163964Y-44788171D01*
X163064098Y-45002335D01*
X163064094Y-45002344D01*
X163002938Y-45230586D01*
X163002936Y-45230596D01*
X162982341Y-45465999D01*
X162982341Y-45466000D01*
X163002936Y-45701403D01*
X163002938Y-45701413D01*
X163064094Y-45929655D01*
X163064096Y-45929659D01*
X163064097Y-45929663D01*
X163068000Y-45938032D01*
X163163965Y-46143830D01*
X163163967Y-46143834D01*
X163299501Y-46337395D01*
X163299506Y-46337402D01*
X163466597Y-46504493D01*
X163466603Y-46504498D01*
X163652158Y-46634425D01*
X163695783Y-46689002D01*
X163702977Y-46758500D01*
X163671454Y-46820855D01*
X163652158Y-46837575D01*
X163466597Y-46967505D01*
X163299505Y-47134597D01*
X163163965Y-47328169D01*
X163163964Y-47328171D01*
X163064098Y-47542335D01*
X163064094Y-47542344D01*
X163002938Y-47770586D01*
X163002936Y-47770596D01*
X162982341Y-48005999D01*
X162982341Y-48006000D01*
X163002936Y-48241403D01*
X163002938Y-48241413D01*
X163064094Y-48469655D01*
X163064096Y-48469659D01*
X163064097Y-48469663D01*
X163163965Y-48683830D01*
X163163967Y-48683834D01*
X163272281Y-48838521D01*
X163291990Y-48866669D01*
X163299501Y-48877395D01*
X163299506Y-48877402D01*
X163466597Y-49044493D01*
X163466603Y-49044498D01*
X163652158Y-49174425D01*
X163695783Y-49229002D01*
X163702977Y-49298500D01*
X163671454Y-49360855D01*
X163652158Y-49377575D01*
X163466597Y-49507505D01*
X163299505Y-49674597D01*
X163163965Y-49868169D01*
X163163964Y-49868171D01*
X163064098Y-50082335D01*
X163064094Y-50082344D01*
X163002938Y-50310586D01*
X163002936Y-50310596D01*
X162982341Y-50545999D01*
X162982341Y-50546000D01*
X163002936Y-50781403D01*
X163002938Y-50781413D01*
X163064094Y-51009655D01*
X163064096Y-51009659D01*
X163064097Y-51009663D01*
X163092123Y-51069764D01*
X163163965Y-51223830D01*
X163163967Y-51223834D01*
X163299501Y-51417395D01*
X163299506Y-51417402D01*
X163466597Y-51584493D01*
X163466603Y-51584498D01*
X163652158Y-51714425D01*
X163695783Y-51769002D01*
X163702977Y-51838500D01*
X163671454Y-51900855D01*
X163652158Y-51917575D01*
X163466597Y-52047505D01*
X163299505Y-52214597D01*
X163163965Y-52408169D01*
X163163964Y-52408171D01*
X163064098Y-52622335D01*
X163064094Y-52622344D01*
X163002938Y-52850586D01*
X163002936Y-52850596D01*
X162982341Y-53085999D01*
X162982341Y-53086000D01*
X163002936Y-53321403D01*
X163002938Y-53321413D01*
X163064094Y-53549655D01*
X163064096Y-53549659D01*
X163064097Y-53549663D01*
X163091564Y-53608565D01*
X163163965Y-53763830D01*
X163163967Y-53763834D01*
X163299501Y-53957395D01*
X163299506Y-53957402D01*
X163466597Y-54124493D01*
X163466603Y-54124498D01*
X163652158Y-54254425D01*
X163695783Y-54309002D01*
X163702977Y-54378500D01*
X163671454Y-54440855D01*
X163652158Y-54457575D01*
X163466597Y-54587505D01*
X163299505Y-54754597D01*
X163163965Y-54948169D01*
X163163964Y-54948171D01*
X163064098Y-55162335D01*
X163064094Y-55162344D01*
X163002938Y-55390586D01*
X163002936Y-55390596D01*
X162982341Y-55625999D01*
X162982341Y-55626000D01*
X163002936Y-55861403D01*
X163002938Y-55861413D01*
X163064094Y-56089655D01*
X163064096Y-56089659D01*
X163064097Y-56089663D01*
X163068000Y-56098032D01*
X163163965Y-56303830D01*
X163163967Y-56303834D01*
X163299501Y-56497395D01*
X163299506Y-56497402D01*
X163466597Y-56664493D01*
X163466603Y-56664498D01*
X163652158Y-56794425D01*
X163695783Y-56849002D01*
X163702977Y-56918500D01*
X163671454Y-56980855D01*
X163652158Y-56997575D01*
X163466597Y-57127505D01*
X163299505Y-57294597D01*
X163163965Y-57488169D01*
X163163964Y-57488171D01*
X163064098Y-57702335D01*
X163064094Y-57702344D01*
X163002938Y-57930586D01*
X163002936Y-57930596D01*
X162982341Y-58165999D01*
X162982341Y-58166000D01*
X163002936Y-58401403D01*
X163002938Y-58401413D01*
X163064094Y-58629655D01*
X163064096Y-58629659D01*
X163064097Y-58629663D01*
X163139563Y-58791500D01*
X163163965Y-58843830D01*
X163163967Y-58843834D01*
X163299501Y-59037395D01*
X163299506Y-59037402D01*
X163466597Y-59204493D01*
X163466603Y-59204498D01*
X163652158Y-59334425D01*
X163695783Y-59389002D01*
X163702977Y-59458500D01*
X163671454Y-59520855D01*
X163652158Y-59537575D01*
X163466597Y-59667505D01*
X163299505Y-59834597D01*
X163163965Y-60028169D01*
X163163964Y-60028171D01*
X163064098Y-60242335D01*
X163064094Y-60242344D01*
X163002938Y-60470586D01*
X163002936Y-60470596D01*
X162982341Y-60705999D01*
X162982341Y-60706000D01*
X163002936Y-60941403D01*
X163002938Y-60941413D01*
X163064094Y-61169655D01*
X163064096Y-61169659D01*
X163064097Y-61169663D01*
X163139563Y-61331500D01*
X163163965Y-61383830D01*
X163163967Y-61383834D01*
X163299501Y-61577395D01*
X163299506Y-61577402D01*
X163466597Y-61744493D01*
X163466603Y-61744498D01*
X163652158Y-61874425D01*
X163695783Y-61929002D01*
X163702977Y-61998500D01*
X163671454Y-62060855D01*
X163652158Y-62077575D01*
X163466597Y-62207505D01*
X163299505Y-62374597D01*
X163163965Y-62568169D01*
X163163964Y-62568171D01*
X163064098Y-62782335D01*
X163064094Y-62782344D01*
X163002938Y-63010586D01*
X163002936Y-63010596D01*
X162982341Y-63245999D01*
X162982341Y-63246000D01*
X163002936Y-63481403D01*
X163002938Y-63481413D01*
X163064094Y-63709655D01*
X163064096Y-63709659D01*
X163064097Y-63709663D01*
X163139563Y-63871500D01*
X163163965Y-63923830D01*
X163163967Y-63923834D01*
X163299501Y-64117395D01*
X163299506Y-64117402D01*
X163466597Y-64284493D01*
X163466603Y-64284498D01*
X163652158Y-64414425D01*
X163695783Y-64469002D01*
X163702977Y-64538500D01*
X163671454Y-64600855D01*
X163652158Y-64617575D01*
X163466597Y-64747505D01*
X163299505Y-64914597D01*
X163163965Y-65108169D01*
X163163964Y-65108171D01*
X163074444Y-65300148D01*
X163069482Y-65310790D01*
X163064098Y-65322335D01*
X163064094Y-65322344D01*
X163002938Y-65550586D01*
X163002936Y-65550596D01*
X162982341Y-65785999D01*
X162982341Y-65786000D01*
X163002936Y-66021403D01*
X163002938Y-66021413D01*
X163064094Y-66249655D01*
X163064096Y-66249659D01*
X163064097Y-66249663D01*
X163081010Y-66285933D01*
X163163965Y-66463830D01*
X163163967Y-66463834D01*
X163299501Y-66657395D01*
X163299506Y-66657402D01*
X163466597Y-66824493D01*
X163466603Y-66824498D01*
X163652158Y-66954425D01*
X163695783Y-67009002D01*
X163702977Y-67078500D01*
X163671454Y-67140855D01*
X163652158Y-67157575D01*
X163466597Y-67287505D01*
X163299505Y-67454597D01*
X163163965Y-67648169D01*
X163163964Y-67648171D01*
X163089245Y-67808407D01*
X163064257Y-67861995D01*
X163064098Y-67862335D01*
X163064094Y-67862344D01*
X163002938Y-68090586D01*
X163002936Y-68090596D01*
X162982341Y-68325999D01*
X162982341Y-68326000D01*
X163002936Y-68561403D01*
X163002938Y-68561413D01*
X163064094Y-68789655D01*
X163064096Y-68789659D01*
X163064097Y-68789663D01*
X163129453Y-68929819D01*
X163163965Y-69003830D01*
X163163967Y-69003834D01*
X163224385Y-69090119D01*
X163299501Y-69197396D01*
X163299506Y-69197402D01*
X163466597Y-69364493D01*
X163466603Y-69364498D01*
X163652158Y-69494425D01*
X163695783Y-69549002D01*
X163702977Y-69618500D01*
X163671454Y-69680855D01*
X163652158Y-69697575D01*
X163466597Y-69827505D01*
X163299505Y-69994597D01*
X163163965Y-70188169D01*
X163163964Y-70188171D01*
X163064098Y-70402335D01*
X163064094Y-70402344D01*
X163002938Y-70630586D01*
X163002936Y-70630596D01*
X162982341Y-70865999D01*
X162982341Y-70866000D01*
X163002936Y-71101403D01*
X163002938Y-71101413D01*
X163064094Y-71329655D01*
X163064096Y-71329659D01*
X163064097Y-71329663D01*
X163126831Y-71464196D01*
X163163965Y-71543830D01*
X163163967Y-71543834D01*
X163242445Y-71655911D01*
X163299501Y-71737396D01*
X163299506Y-71737402D01*
X163466597Y-71904493D01*
X163466603Y-71904498D01*
X163652158Y-72034425D01*
X163695783Y-72089002D01*
X163702977Y-72158500D01*
X163671454Y-72220855D01*
X163652158Y-72237575D01*
X163466597Y-72367505D01*
X163299505Y-72534597D01*
X163163965Y-72728169D01*
X163163964Y-72728171D01*
X163064098Y-72942335D01*
X163064094Y-72942344D01*
X163002938Y-73170586D01*
X163002936Y-73170596D01*
X162982341Y-73405999D01*
X162982341Y-73406000D01*
X163002936Y-73641403D01*
X163002938Y-73641413D01*
X163064094Y-73869655D01*
X163064096Y-73869659D01*
X163064097Y-73869663D01*
X163136562Y-74025064D01*
X163163965Y-74083830D01*
X163163967Y-74083834D01*
X163258006Y-74218134D01*
X163299501Y-74277396D01*
X163299506Y-74277402D01*
X163466597Y-74444493D01*
X163466603Y-74444498D01*
X163652158Y-74574425D01*
X163695783Y-74629002D01*
X163702977Y-74698500D01*
X163671454Y-74760855D01*
X163652158Y-74777575D01*
X163466597Y-74907505D01*
X163299505Y-75074597D01*
X163163965Y-75268169D01*
X163163964Y-75268171D01*
X163064098Y-75482335D01*
X163064094Y-75482344D01*
X163002938Y-75710586D01*
X163002936Y-75710596D01*
X162982341Y-75945999D01*
X162982341Y-75946000D01*
X163002936Y-76181403D01*
X163002938Y-76181413D01*
X163064094Y-76409655D01*
X163064096Y-76409659D01*
X163064097Y-76409663D01*
X163120080Y-76529718D01*
X163163965Y-76623830D01*
X163163967Y-76623834D01*
X163219086Y-76702551D01*
X163299501Y-76817396D01*
X163299506Y-76817402D01*
X163466597Y-76984493D01*
X163466603Y-76984498D01*
X163652158Y-77114425D01*
X163695783Y-77169002D01*
X163702977Y-77238500D01*
X163671454Y-77300855D01*
X163652158Y-77317575D01*
X163466597Y-77447505D01*
X163299505Y-77614597D01*
X163163965Y-77808169D01*
X163163964Y-77808171D01*
X163064098Y-78022335D01*
X163064094Y-78022344D01*
X163002938Y-78250586D01*
X163002936Y-78250596D01*
X162982341Y-78485999D01*
X162982341Y-78486000D01*
X163002936Y-78721403D01*
X163002938Y-78721413D01*
X163064094Y-78949655D01*
X163064096Y-78949659D01*
X163064097Y-78949663D01*
X163068000Y-78958032D01*
X163163965Y-79163830D01*
X163163967Y-79163834D01*
X163272281Y-79318521D01*
X163299501Y-79357396D01*
X163299506Y-79357402D01*
X163466597Y-79524493D01*
X163466603Y-79524498D01*
X163652158Y-79654425D01*
X163695783Y-79709002D01*
X163702977Y-79778500D01*
X163671454Y-79840855D01*
X163652158Y-79857575D01*
X163466597Y-79987505D01*
X163299505Y-80154597D01*
X163163965Y-80348169D01*
X163163964Y-80348171D01*
X163064098Y-80562335D01*
X163064094Y-80562344D01*
X163002938Y-80790586D01*
X163002936Y-80790596D01*
X162982341Y-81025999D01*
X162982341Y-81026000D01*
X163002936Y-81261403D01*
X163002938Y-81261413D01*
X163064094Y-81489655D01*
X163064096Y-81489659D01*
X163064097Y-81489663D01*
X163163965Y-81703830D01*
X163163967Y-81703834D01*
X163272281Y-81858521D01*
X163299505Y-81897401D01*
X163466599Y-82064495D01*
X163543135Y-82118086D01*
X163660165Y-82200032D01*
X163660167Y-82200033D01*
X163660170Y-82200035D01*
X163874337Y-82299903D01*
X164102592Y-82361063D01*
X164273319Y-82376000D01*
X164337999Y-82381659D01*
X164338000Y-82381659D01*
X164338001Y-82381659D01*
X164402681Y-82376000D01*
X164573408Y-82361063D01*
X164801663Y-82299903D01*
X165015830Y-82200035D01*
X165209401Y-82064495D01*
X165331717Y-81942178D01*
X165393036Y-81908696D01*
X165462728Y-81913680D01*
X165518662Y-81955551D01*
X165535577Y-81986528D01*
X165584646Y-82118088D01*
X165584649Y-82118093D01*
X165670809Y-82233187D01*
X165670812Y-82233190D01*
X165785906Y-82319350D01*
X165785913Y-82319354D01*
X165920620Y-82369596D01*
X165920627Y-82369598D01*
X165980155Y-82375999D01*
X165980172Y-82376000D01*
X166628000Y-82376000D01*
X166628000Y-81461501D01*
X166735685Y-81510680D01*
X166842237Y-81526000D01*
X166913763Y-81526000D01*
X167020315Y-81510680D01*
X167128000Y-81461501D01*
X167128000Y-82376000D01*
X167775828Y-82376000D01*
X167775844Y-82375999D01*
X167835372Y-82369598D01*
X167835379Y-82369596D01*
X167970086Y-82319354D01*
X167970093Y-82319350D01*
X168085187Y-82233190D01*
X168085190Y-82233187D01*
X168171350Y-82118093D01*
X168171354Y-82118086D01*
X168221596Y-81983379D01*
X168221598Y-81983372D01*
X168227999Y-81923844D01*
X168228000Y-81923827D01*
X168228000Y-81276000D01*
X167311686Y-81276000D01*
X167337493Y-81235844D01*
X167378000Y-81097889D01*
X167378000Y-80954111D01*
X167337493Y-80816156D01*
X167311686Y-80776000D01*
X168228000Y-80776000D01*
X168228000Y-80128172D01*
X168227999Y-80128155D01*
X168221598Y-80068627D01*
X168221596Y-80068620D01*
X168171354Y-79933913D01*
X168171350Y-79933906D01*
X168085190Y-79818812D01*
X168085187Y-79818809D01*
X167970093Y-79732649D01*
X167970088Y-79732646D01*
X167838528Y-79683577D01*
X167782595Y-79641705D01*
X167758178Y-79576241D01*
X167773030Y-79507968D01*
X167794175Y-79479720D01*
X167916495Y-79357401D01*
X168052035Y-79163830D01*
X168151903Y-78949663D01*
X168213063Y-78721408D01*
X168233659Y-78486000D01*
X168213063Y-78250592D01*
X168166626Y-78077285D01*
X168151905Y-78022344D01*
X168151904Y-78022343D01*
X168151903Y-78022337D01*
X168052035Y-77808171D01*
X168046425Y-77800158D01*
X167916494Y-77614597D01*
X167749402Y-77447506D01*
X167749396Y-77447501D01*
X167563842Y-77317575D01*
X167520217Y-77262998D01*
X167513023Y-77193500D01*
X167544546Y-77131145D01*
X167563842Y-77114425D01*
X167703880Y-77016369D01*
X167749401Y-76984495D01*
X167916495Y-76817401D01*
X168052035Y-76623830D01*
X168151903Y-76409663D01*
X168213063Y-76181408D01*
X168233659Y-75946000D01*
X168213063Y-75710592D01*
X168151903Y-75482337D01*
X168052035Y-75268171D01*
X168046425Y-75260158D01*
X167916494Y-75074597D01*
X167749402Y-74907506D01*
X167749396Y-74907501D01*
X167563842Y-74777575D01*
X167520217Y-74722998D01*
X167513023Y-74653500D01*
X167544546Y-74591145D01*
X167563842Y-74574425D01*
X167669426Y-74500494D01*
X167749401Y-74444495D01*
X167916495Y-74277401D01*
X168052035Y-74083830D01*
X168151903Y-73869663D01*
X168213063Y-73641408D01*
X168233659Y-73406000D01*
X168213063Y-73170592D01*
X168151903Y-72942337D01*
X168052035Y-72728171D01*
X168046425Y-72720158D01*
X167916494Y-72534597D01*
X167749402Y-72367506D01*
X167749396Y-72367501D01*
X167563842Y-72237575D01*
X167520217Y-72182998D01*
X167513023Y-72113500D01*
X167544546Y-72051145D01*
X167563842Y-72034425D01*
X167651273Y-71973205D01*
X167749401Y-71904495D01*
X167916495Y-71737401D01*
X168052035Y-71543830D01*
X168151903Y-71329663D01*
X168213063Y-71101408D01*
X168233659Y-70866000D01*
X168233659Y-70865999D01*
X168233659Y-70865611D01*
X168233707Y-70865445D01*
X168234131Y-70860606D01*
X168235103Y-70860691D01*
X168253344Y-70798572D01*
X168306148Y-70752817D01*
X168375306Y-70742873D01*
X168438862Y-70771898D01*
X168445339Y-70777929D01*
X174968264Y-77300855D01*
X181455228Y-83787819D01*
X181488713Y-83849142D01*
X181483729Y-83918834D01*
X181441857Y-83974767D01*
X181376393Y-83999184D01*
X181367547Y-83999500D01*
X159624500Y-83999500D01*
X159557461Y-83979815D01*
X159511706Y-83927011D01*
X159500500Y-83875500D01*
X159500500Y-33624500D01*
X159520185Y-33557461D01*
X159572989Y-33511706D01*
X159624500Y-33500500D01*
X231875500Y-33500500D01*
X231942539Y-33520185D01*
G37*
%TD.AperFunction*%
%TA.AperFunction,Conductor*%
G36*
X165692855Y-79152546D02*
G01*
X165709575Y-79171842D01*
X165839501Y-79357396D01*
X165839506Y-79357402D01*
X165961818Y-79479714D01*
X165995303Y-79541037D01*
X165990319Y-79610729D01*
X165948447Y-79666662D01*
X165917471Y-79683577D01*
X165785912Y-79732646D01*
X165785906Y-79732649D01*
X165670812Y-79818809D01*
X165670809Y-79818812D01*
X165584649Y-79933906D01*
X165584645Y-79933913D01*
X165535578Y-80065470D01*
X165493707Y-80121404D01*
X165428242Y-80145821D01*
X165359969Y-80130969D01*
X165331715Y-80109819D01*
X165287366Y-80065470D01*
X165209401Y-79987505D01*
X165209397Y-79987502D01*
X165209396Y-79987501D01*
X165023842Y-79857575D01*
X164980217Y-79802998D01*
X164973023Y-79733500D01*
X165004546Y-79671145D01*
X165023842Y-79654425D01*
X165135500Y-79576241D01*
X165209401Y-79524495D01*
X165376495Y-79357401D01*
X165506425Y-79171842D01*
X165561002Y-79128217D01*
X165630500Y-79121023D01*
X165692855Y-79152546D01*
G37*
%TD.AperFunction*%
%TA.AperFunction,Conductor*%
G36*
X228582587Y-59037185D02*
G01*
X228603229Y-59053819D01*
X229947038Y-60397629D01*
X229980523Y-60458952D01*
X229982678Y-60472348D01*
X230000326Y-60640256D01*
X230000328Y-60640262D01*
X230004851Y-60654183D01*
X230006846Y-60724024D01*
X229970765Y-60783857D01*
X229908064Y-60814684D01*
X229886920Y-60816500D01*
X222594156Y-60816500D01*
X222538505Y-60803311D01*
X222396433Y-60731960D01*
X222225721Y-60691500D01*
X220594291Y-60691500D01*
X220489854Y-60703707D01*
X220463743Y-60706759D01*
X220463740Y-60706760D01*
X220298884Y-60766762D01*
X220298880Y-60766764D01*
X220152306Y-60863167D01*
X220152305Y-60863168D01*
X220031910Y-60990778D01*
X219944188Y-61142718D01*
X219893870Y-61310789D01*
X219893869Y-61310794D01*
X219883668Y-61485933D01*
X219914134Y-61658706D01*
X219914136Y-61658713D01*
X219972440Y-61793879D01*
X219980918Y-61863232D01*
X219965970Y-61904989D01*
X219944189Y-61942716D01*
X219944186Y-61942722D01*
X219893872Y-62110781D01*
X219893869Y-62110794D01*
X219883668Y-62285933D01*
X219914134Y-62458706D01*
X219914136Y-62458713D01*
X219972440Y-62593879D01*
X219980918Y-62663232D01*
X219965970Y-62704989D01*
X219944189Y-62742716D01*
X219944186Y-62742722D01*
X219893872Y-62910781D01*
X219893869Y-62910794D01*
X219883668Y-63085933D01*
X219914134Y-63258706D01*
X219914136Y-63258713D01*
X219972440Y-63393879D01*
X219980918Y-63463232D01*
X219965970Y-63504989D01*
X219944189Y-63542716D01*
X219944186Y-63542722D01*
X219893872Y-63710781D01*
X219893869Y-63710794D01*
X219883668Y-63885933D01*
X219914134Y-64058706D01*
X219914136Y-64058713D01*
X219972440Y-64193879D01*
X219980918Y-64263232D01*
X219965970Y-64304989D01*
X219944189Y-64342716D01*
X219944186Y-64342722D01*
X219893872Y-64510781D01*
X219893869Y-64510794D01*
X219883668Y-64685933D01*
X219914134Y-64858706D01*
X219914136Y-64858713D01*
X219972440Y-64993879D01*
X219980918Y-65063232D01*
X219965970Y-65104989D01*
X219944189Y-65142716D01*
X219944186Y-65142722D01*
X219893872Y-65310781D01*
X219893869Y-65310794D01*
X219883668Y-65485933D01*
X219914134Y-65658706D01*
X219914136Y-65658713D01*
X219972440Y-65793879D01*
X219980918Y-65863232D01*
X219965970Y-65904989D01*
X219944189Y-65942716D01*
X219944186Y-65942722D01*
X219893872Y-66110781D01*
X219893869Y-66110794D01*
X219883668Y-66285933D01*
X219914134Y-66458706D01*
X219914137Y-66458716D01*
X219972686Y-66594453D01*
X219981164Y-66663806D01*
X219966216Y-66705562D01*
X219944651Y-66742914D01*
X219894366Y-66910876D01*
X219894365Y-66910881D01*
X219884766Y-67075710D01*
X219861217Y-67141491D01*
X219805842Y-67184099D01*
X219760976Y-67192500D01*
X219258453Y-67192500D01*
X219191414Y-67172815D01*
X219170772Y-67156181D01*
X215130803Y-63116212D01*
X215120980Y-63103950D01*
X215120759Y-63104134D01*
X215115786Y-63098123D01*
X215092087Y-63075868D01*
X215065364Y-63050773D01*
X215054919Y-63040328D01*
X215044475Y-63029883D01*
X215038986Y-63025625D01*
X215034561Y-63021847D01*
X215000582Y-62989938D01*
X215000580Y-62989936D01*
X215000577Y-62989935D01*
X214983029Y-62980288D01*
X214966763Y-62969604D01*
X214950933Y-62957325D01*
X214908168Y-62938818D01*
X214902922Y-62936248D01*
X214862093Y-62913803D01*
X214862092Y-62913802D01*
X214842693Y-62908822D01*
X214824281Y-62902518D01*
X214805898Y-62894562D01*
X214805892Y-62894560D01*
X214759874Y-62887272D01*
X214754152Y-62886087D01*
X214709021Y-62874500D01*
X214709019Y-62874500D01*
X214688984Y-62874500D01*
X214669586Y-62872973D01*
X214662162Y-62871797D01*
X214649805Y-62869840D01*
X214649804Y-62869840D01*
X214603416Y-62874225D01*
X214597578Y-62874500D01*
X209378737Y-62874500D01*
X209363120Y-62872776D01*
X209363093Y-62873062D01*
X209355331Y-62872327D01*
X209286203Y-62874500D01*
X209252756Y-62874500D01*
X209252756Y-62874136D01*
X209223674Y-62871998D01*
X209136646Y-62853500D01*
X208947354Y-62853500D01*
X208937945Y-62855500D01*
X208762197Y-62892855D01*
X208762192Y-62892857D01*
X208589270Y-62969848D01*
X208589265Y-62969851D01*
X208436129Y-63081111D01*
X208309466Y-63221785D01*
X208214821Y-63385715D01*
X208214818Y-63385722D01*
X208156327Y-63565740D01*
X208156326Y-63565744D01*
X208136540Y-63754000D01*
X208156326Y-63942256D01*
X208156327Y-63942259D01*
X208214818Y-64122277D01*
X208214821Y-64122284D01*
X208309467Y-64286216D01*
X208405663Y-64393052D01*
X208436129Y-64426888D01*
X208589265Y-64538148D01*
X208589270Y-64538151D01*
X208762192Y-64615142D01*
X208762197Y-64615144D01*
X208947354Y-64654500D01*
X208947355Y-64654500D01*
X209136644Y-64654500D01*
X209136646Y-64654500D01*
X209321803Y-64615144D01*
X209494730Y-64538151D01*
X209647871Y-64426888D01*
X209774533Y-64286216D01*
X209801018Y-64240343D01*
X209831527Y-64187500D01*
X209882094Y-64139284D01*
X209938914Y-64125500D01*
X211099368Y-64125500D01*
X211166407Y-64145185D01*
X211212162Y-64197989D01*
X211222106Y-64267147D01*
X211217300Y-64287813D01*
X211211720Y-64304989D01*
X211204326Y-64327742D01*
X211199328Y-64375295D01*
X211184540Y-64516000D01*
X211204326Y-64704256D01*
X211204327Y-64704259D01*
X211262818Y-64884277D01*
X211262821Y-64884284D01*
X211357467Y-65048216D01*
X211453663Y-65155052D01*
X211484129Y-65188888D01*
X211637265Y-65300148D01*
X211637270Y-65300151D01*
X211810192Y-65377142D01*
X211810197Y-65377144D01*
X211995354Y-65416500D01*
X211995355Y-65416500D01*
X212184644Y-65416500D01*
X212184646Y-65416500D01*
X212369803Y-65377144D01*
X212542730Y-65300151D01*
X212695871Y-65188888D01*
X212698788Y-65185647D01*
X212701600Y-65182526D01*
X212761087Y-65145879D01*
X212793748Y-65141500D01*
X213303548Y-65141500D01*
X213370587Y-65161185D01*
X213391229Y-65177819D01*
X215644228Y-67430819D01*
X215677713Y-67492142D01*
X215672729Y-67561834D01*
X215630857Y-67617767D01*
X215565393Y-67642184D01*
X215556547Y-67642500D01*
X213246743Y-67642500D01*
X213231122Y-67640775D01*
X213231095Y-67641061D01*
X213223333Y-67640326D01*
X213154172Y-67642500D01*
X213124649Y-67642500D01*
X213117778Y-67643367D01*
X213111959Y-67643825D01*
X213065374Y-67645289D01*
X213065368Y-67645290D01*
X213046126Y-67650880D01*
X213027087Y-67654823D01*
X213007217Y-67657334D01*
X213007203Y-67657337D01*
X212963883Y-67674488D01*
X212958358Y-67676380D01*
X212913613Y-67689380D01*
X212913610Y-67689381D01*
X212896366Y-67699579D01*
X212878905Y-67708133D01*
X212860274Y-67715510D01*
X212860262Y-67715517D01*
X212822570Y-67742902D01*
X212817687Y-67746109D01*
X212777580Y-67769829D01*
X212763414Y-67783995D01*
X212748624Y-67796627D01*
X212732414Y-67808404D01*
X212732411Y-67808407D01*
X212702710Y-67844309D01*
X212698777Y-67848631D01*
X209581228Y-70966181D01*
X209519905Y-70999666D01*
X209493547Y-71002500D01*
X203141748Y-71002500D01*
X203074709Y-70982815D01*
X203049600Y-70961474D01*
X203043873Y-70955114D01*
X203043869Y-70955110D01*
X202890734Y-70843851D01*
X202890729Y-70843848D01*
X202717807Y-70766857D01*
X202717802Y-70766855D01*
X202572001Y-70735865D01*
X202532646Y-70727500D01*
X202343354Y-70727500D01*
X202310897Y-70734398D01*
X202158197Y-70766855D01*
X202158192Y-70766857D01*
X201985270Y-70843848D01*
X201985265Y-70843851D01*
X201832129Y-70955111D01*
X201705466Y-71095785D01*
X201610821Y-71259715D01*
X201610818Y-71259722D01*
X201553715Y-71435469D01*
X201552326Y-71439744D01*
X201532540Y-71628000D01*
X201552326Y-71816256D01*
X201552327Y-71816259D01*
X201610818Y-71996277D01*
X201610821Y-71996284D01*
X201705467Y-72160216D01*
X201759687Y-72220433D01*
X201783307Y-72246666D01*
X201813537Y-72309657D01*
X201804912Y-72378993D01*
X201764047Y-72429952D01*
X201752417Y-72438402D01*
X201752412Y-72438406D01*
X201722709Y-72474310D01*
X201718776Y-72478631D01*
X201071576Y-73125833D01*
X200437228Y-73760181D01*
X200375905Y-73793666D01*
X200349547Y-73796500D01*
X195267748Y-73796500D01*
X195200709Y-73776815D01*
X195175600Y-73755474D01*
X195169873Y-73749114D01*
X195169869Y-73749110D01*
X195016734Y-73637851D01*
X195016729Y-73637848D01*
X194843807Y-73560857D01*
X194843802Y-73560855D01*
X194668055Y-73523500D01*
X194658646Y-73521500D01*
X194469354Y-73521500D01*
X194459945Y-73523500D01*
X194284197Y-73560855D01*
X194284192Y-73560857D01*
X194111270Y-73637848D01*
X194111265Y-73637851D01*
X193958129Y-73749111D01*
X193831466Y-73889785D01*
X193736821Y-74053715D01*
X193736818Y-74053722D01*
X193678327Y-74233740D01*
X193678326Y-74233744D01*
X193658540Y-74422000D01*
X193678326Y-74610256D01*
X193678327Y-74610259D01*
X193736818Y-74790277D01*
X193736821Y-74790284D01*
X193788907Y-74880500D01*
X193805380Y-74948401D01*
X193782527Y-75014427D01*
X193727606Y-75057618D01*
X193681520Y-75066500D01*
X192086037Y-75066500D01*
X192018998Y-75046815D01*
X191998356Y-75030181D01*
X190447356Y-73479181D01*
X190413871Y-73417858D01*
X190418855Y-73348166D01*
X190460727Y-73292233D01*
X190526191Y-73267816D01*
X190535037Y-73267500D01*
X198081844Y-73267500D01*
X198137494Y-73280688D01*
X198279567Y-73352040D01*
X198450279Y-73392500D01*
X198450282Y-73392500D01*
X200081701Y-73392500D01*
X200081709Y-73392500D01*
X200212255Y-73377241D01*
X200377117Y-73317237D01*
X200523696Y-73220830D01*
X200644092Y-73093218D01*
X200731812Y-72941281D01*
X200782130Y-72773210D01*
X200792331Y-72598065D01*
X200761865Y-72425289D01*
X200703559Y-72290119D01*
X200695081Y-72220766D01*
X200710029Y-72179008D01*
X200731812Y-72141281D01*
X200782130Y-71973210D01*
X200792331Y-71798065D01*
X200761865Y-71625289D01*
X200703559Y-71490119D01*
X200695081Y-71420766D01*
X200710029Y-71379008D01*
X200731812Y-71341281D01*
X200782130Y-71173210D01*
X200792331Y-70998065D01*
X200761865Y-70825289D01*
X200703559Y-70690119D01*
X200695081Y-70620766D01*
X200710029Y-70579008D01*
X200731812Y-70541281D01*
X200782130Y-70373210D01*
X200792331Y-70198065D01*
X200761865Y-70025289D01*
X200703559Y-69890119D01*
X200695081Y-69820766D01*
X200710029Y-69779008D01*
X200731812Y-69741281D01*
X200782130Y-69573210D01*
X200792331Y-69398065D01*
X200792751Y-69390855D01*
X200794165Y-69390937D01*
X200808125Y-69330633D01*
X200858182Y-69281888D01*
X200916159Y-69267500D01*
X203466371Y-69267500D01*
X203533410Y-69287185D01*
X203579165Y-69339989D01*
X203584302Y-69353182D01*
X203642818Y-69533277D01*
X203642821Y-69533284D01*
X203737467Y-69697216D01*
X203854780Y-69827505D01*
X203864129Y-69837888D01*
X204017265Y-69949148D01*
X204017270Y-69949151D01*
X204190192Y-70026142D01*
X204190197Y-70026144D01*
X204375354Y-70065500D01*
X204375355Y-70065500D01*
X204564644Y-70065500D01*
X204564646Y-70065500D01*
X204749803Y-70026144D01*
X204922730Y-69949151D01*
X205075871Y-69837888D01*
X205202533Y-69697216D01*
X205297179Y-69533284D01*
X205355674Y-69353256D01*
X205375460Y-69165000D01*
X205355674Y-68976744D01*
X205297179Y-68796716D01*
X205202533Y-68632784D01*
X205075871Y-68492112D01*
X205059191Y-68479993D01*
X204922734Y-68380851D01*
X204922729Y-68380848D01*
X204749807Y-68303857D01*
X204749802Y-68303855D01*
X204604001Y-68272865D01*
X204564646Y-68264500D01*
X204564645Y-68264500D01*
X204507840Y-68264500D01*
X204440801Y-68244815D01*
X204422956Y-68230892D01*
X204411226Y-68219877D01*
X204382364Y-68192773D01*
X204368597Y-68179006D01*
X204361475Y-68171883D01*
X204355986Y-68167625D01*
X204351561Y-68163847D01*
X204317582Y-68131938D01*
X204317580Y-68131936D01*
X204317577Y-68131935D01*
X204300029Y-68122288D01*
X204283763Y-68111604D01*
X204267933Y-68099325D01*
X204225168Y-68080818D01*
X204219922Y-68078248D01*
X204179093Y-68055803D01*
X204179092Y-68055802D01*
X204159693Y-68050822D01*
X204141281Y-68044518D01*
X204122898Y-68036562D01*
X204122892Y-68036560D01*
X204076874Y-68029272D01*
X204071152Y-68028087D01*
X204026021Y-68016500D01*
X204026019Y-68016500D01*
X204005984Y-68016500D01*
X203986586Y-68014973D01*
X203979162Y-68013797D01*
X203966805Y-68011840D01*
X203966804Y-68011840D01*
X203920416Y-68016225D01*
X203914578Y-68016500D01*
X200911041Y-68016500D01*
X200844002Y-67996815D01*
X200798247Y-67944011D01*
X200787251Y-67885290D01*
X200792331Y-67798065D01*
X200791999Y-67796185D01*
X200761865Y-67625289D01*
X200703311Y-67489546D01*
X200694834Y-67420194D01*
X200709784Y-67378433D01*
X200731349Y-67341080D01*
X200781633Y-67173124D01*
X200781634Y-67173118D01*
X200791828Y-66998094D01*
X200791827Y-66998093D01*
X200761384Y-66825436D01*
X200703247Y-66690659D01*
X200694769Y-66621306D01*
X200709717Y-66579550D01*
X200731812Y-66541281D01*
X200782130Y-66373210D01*
X200792331Y-66198065D01*
X200761865Y-66025289D01*
X200703559Y-65890119D01*
X200695081Y-65820766D01*
X200710029Y-65779008D01*
X200731812Y-65741281D01*
X200782130Y-65573210D01*
X200792331Y-65398065D01*
X200761865Y-65225289D01*
X200703559Y-65090119D01*
X200695081Y-65020766D01*
X200710029Y-64979008D01*
X200731812Y-64941281D01*
X200782130Y-64773210D01*
X200792331Y-64598065D01*
X200761865Y-64425289D01*
X200703559Y-64290119D01*
X200695081Y-64220766D01*
X200710029Y-64179008D01*
X200731812Y-64141281D01*
X200782130Y-63973210D01*
X200785335Y-63918179D01*
X200808884Y-63852399D01*
X200864259Y-63809791D01*
X200933879Y-63803886D01*
X200995639Y-63836557D01*
X201001275Y-63842418D01*
X201070129Y-63918888D01*
X201223265Y-64030148D01*
X201223270Y-64030151D01*
X201396192Y-64107142D01*
X201396197Y-64107144D01*
X201581354Y-64146500D01*
X201581355Y-64146500D01*
X201770644Y-64146500D01*
X201770646Y-64146500D01*
X201955803Y-64107144D01*
X202128730Y-64030151D01*
X202281871Y-63918888D01*
X202408533Y-63778216D01*
X202503179Y-63614284D01*
X202547009Y-63479389D01*
X202586445Y-63421715D01*
X202650803Y-63394516D01*
X202719650Y-63406430D01*
X202749821Y-63427314D01*
X202764635Y-63441226D01*
X202785529Y-63462120D01*
X202791011Y-63466373D01*
X202795443Y-63470157D01*
X202829418Y-63502062D01*
X202846976Y-63511714D01*
X202863235Y-63522395D01*
X202879064Y-63534673D01*
X202921838Y-63553182D01*
X202927056Y-63555738D01*
X202967908Y-63578197D01*
X202987316Y-63583180D01*
X203005719Y-63589481D01*
X203027621Y-63598959D01*
X203070523Y-63629787D01*
X203102128Y-63664887D01*
X203102135Y-63664893D01*
X203255265Y-63776148D01*
X203255270Y-63776151D01*
X203428192Y-63853142D01*
X203428197Y-63853144D01*
X203613354Y-63892500D01*
X203613355Y-63892500D01*
X203802644Y-63892500D01*
X203802646Y-63892500D01*
X203987803Y-63853144D01*
X204160730Y-63776151D01*
X204313871Y-63664888D01*
X204440533Y-63524216D01*
X204535179Y-63360284D01*
X204593674Y-63180256D01*
X204613460Y-62992000D01*
X204613460Y-62991997D01*
X204613460Y-62985502D01*
X204614782Y-62985502D01*
X204626076Y-62923735D01*
X204673807Y-62872710D01*
X204736829Y-62855500D01*
X205036252Y-62855500D01*
X205103291Y-62875185D01*
X205128400Y-62896526D01*
X205134126Y-62902885D01*
X205134130Y-62902889D01*
X205287265Y-63014148D01*
X205287270Y-63014151D01*
X205460192Y-63091142D01*
X205460197Y-63091144D01*
X205645354Y-63130500D01*
X205645355Y-63130500D01*
X205834644Y-63130500D01*
X205834646Y-63130500D01*
X206019803Y-63091144D01*
X206192730Y-63014151D01*
X206345871Y-62902888D01*
X206472533Y-62762216D01*
X206567179Y-62598284D01*
X206625674Y-62418256D01*
X206645460Y-62230000D01*
X206645460Y-62229997D01*
X206645460Y-62223502D01*
X206646782Y-62223502D01*
X206658076Y-62161735D01*
X206705807Y-62110710D01*
X206768829Y-62093500D01*
X207830252Y-62093500D01*
X207897291Y-62113185D01*
X207922400Y-62134526D01*
X207928126Y-62140885D01*
X207928130Y-62140889D01*
X208081265Y-62252148D01*
X208081270Y-62252151D01*
X208254192Y-62329142D01*
X208254197Y-62329144D01*
X208439354Y-62368500D01*
X208439355Y-62368500D01*
X208628644Y-62368500D01*
X208628646Y-62368500D01*
X208813803Y-62329144D01*
X208986730Y-62252151D01*
X209139871Y-62140888D01*
X209266533Y-62000216D01*
X209361179Y-61836284D01*
X209419674Y-61656256D01*
X209439460Y-61468000D01*
X209439460Y-61467997D01*
X209439460Y-61461502D01*
X209440782Y-61461502D01*
X209452076Y-61399735D01*
X209499807Y-61348710D01*
X209562829Y-61331500D01*
X209923086Y-61331500D01*
X209990125Y-61351185D01*
X210030473Y-61393500D01*
X210087465Y-61492214D01*
X210214129Y-61632888D01*
X210367265Y-61744148D01*
X210367270Y-61744151D01*
X210540192Y-61821142D01*
X210540197Y-61821144D01*
X210725354Y-61860500D01*
X210725355Y-61860500D01*
X210914644Y-61860500D01*
X210914646Y-61860500D01*
X211099803Y-61821144D01*
X211272730Y-61744151D01*
X211425871Y-61632888D01*
X211552533Y-61492216D01*
X211647179Y-61328284D01*
X211705674Y-61148256D01*
X211725460Y-60960000D01*
X211705674Y-60771744D01*
X211647179Y-60591716D01*
X211552533Y-60427784D01*
X211425871Y-60287112D01*
X211425870Y-60287111D01*
X211272734Y-60175851D01*
X211272729Y-60175848D01*
X211167786Y-60129124D01*
X211114549Y-60083874D01*
X211094228Y-60017024D01*
X211113274Y-59949801D01*
X211165640Y-59903546D01*
X211196686Y-59893729D01*
X211354711Y-59865865D01*
X211489881Y-59807558D01*
X211559233Y-59799081D01*
X211600988Y-59814028D01*
X211638719Y-59835812D01*
X211806790Y-59886130D01*
X211981935Y-59896331D01*
X212154711Y-59865865D01*
X212289881Y-59807558D01*
X212359233Y-59799081D01*
X212400988Y-59814028D01*
X212438719Y-59835812D01*
X212606790Y-59886130D01*
X212781935Y-59896331D01*
X212954711Y-59865865D01*
X213089881Y-59807558D01*
X213159233Y-59799081D01*
X213200988Y-59814028D01*
X213238719Y-59835812D01*
X213406790Y-59886130D01*
X213581935Y-59896331D01*
X213754711Y-59865865D01*
X213889881Y-59807558D01*
X213959233Y-59799081D01*
X214000988Y-59814028D01*
X214038719Y-59835812D01*
X214206790Y-59886130D01*
X214381935Y-59896331D01*
X214554711Y-59865865D01*
X214689881Y-59807558D01*
X214759233Y-59799081D01*
X214800988Y-59814028D01*
X214838719Y-59835812D01*
X215006790Y-59886130D01*
X215181935Y-59896331D01*
X215354711Y-59865865D01*
X215489881Y-59807558D01*
X215559233Y-59799081D01*
X215600988Y-59814028D01*
X215638719Y-59835812D01*
X215806790Y-59886130D01*
X215981935Y-59896331D01*
X216154711Y-59865865D01*
X216289881Y-59807558D01*
X216359233Y-59799081D01*
X216400988Y-59814028D01*
X216438719Y-59835812D01*
X216606790Y-59886130D01*
X216781935Y-59896331D01*
X216954711Y-59865865D01*
X217089881Y-59807558D01*
X217159233Y-59799081D01*
X217200988Y-59814028D01*
X217238719Y-59835812D01*
X217406790Y-59886130D01*
X217581935Y-59896331D01*
X217754711Y-59865865D01*
X217889881Y-59807558D01*
X217959233Y-59799081D01*
X218000988Y-59814028D01*
X218038719Y-59835812D01*
X218206790Y-59886130D01*
X218381935Y-59896331D01*
X218554711Y-59865865D01*
X218715804Y-59796377D01*
X218856530Y-59691610D01*
X218969302Y-59557214D01*
X219048040Y-59400433D01*
X219088500Y-59229721D01*
X219088500Y-59141500D01*
X219108185Y-59074461D01*
X219160989Y-59028706D01*
X219212500Y-59017500D01*
X228515548Y-59017500D01*
X228582587Y-59037185D01*
G37*
%TD.AperFunction*%
%TA.AperFunction,Conductor*%
G36*
X173986000Y-54030400D02*
G01*
X174583828Y-54030400D01*
X174583844Y-54030399D01*
X174643372Y-54023998D01*
X174643379Y-54023996D01*
X174778086Y-53973754D01*
X174778093Y-53973750D01*
X174893187Y-53887590D01*
X174893190Y-53887587D01*
X174979350Y-53772493D01*
X174979354Y-53772486D01*
X175029596Y-53637780D01*
X175033424Y-53602181D01*
X175060162Y-53537630D01*
X175117555Y-53497782D01*
X175187380Y-53495288D01*
X175247469Y-53530940D01*
X175258289Y-53544312D01*
X175271014Y-53562486D01*
X175275956Y-53569543D01*
X175436858Y-53730445D01*
X175436861Y-53730447D01*
X175623266Y-53860968D01*
X175829504Y-53957139D01*
X175829509Y-53957140D01*
X175829511Y-53957141D01*
X175853852Y-53963663D01*
X176049308Y-54016035D01*
X176206780Y-54029812D01*
X176275998Y-54035868D01*
X176276000Y-54035868D01*
X176276002Y-54035868D01*
X176338511Y-54030399D01*
X176502692Y-54016035D01*
X176722496Y-53957139D01*
X176928734Y-53860968D01*
X177115139Y-53730447D01*
X177276047Y-53569539D01*
X177406568Y-53383134D01*
X177433618Y-53325124D01*
X177479790Y-53272685D01*
X177546983Y-53253533D01*
X177613865Y-53273748D01*
X177658382Y-53325125D01*
X177685429Y-53383128D01*
X177685432Y-53383134D01*
X177815954Y-53569541D01*
X177976858Y-53730445D01*
X177976861Y-53730447D01*
X178163266Y-53860968D01*
X178369504Y-53957139D01*
X178369509Y-53957140D01*
X178369511Y-53957141D01*
X178393852Y-53963663D01*
X178589308Y-54016035D01*
X178746780Y-54029812D01*
X178815998Y-54035868D01*
X178816000Y-54035868D01*
X178816002Y-54035868D01*
X178878511Y-54030399D01*
X179042692Y-54016035D01*
X179262496Y-53957139D01*
X179468734Y-53860968D01*
X179655139Y-53730447D01*
X179816047Y-53569539D01*
X179946568Y-53383134D01*
X179973618Y-53325124D01*
X180019790Y-53272685D01*
X180086983Y-53253533D01*
X180153865Y-53273748D01*
X180198382Y-53325125D01*
X180225429Y-53383128D01*
X180225432Y-53383134D01*
X180355954Y-53569541D01*
X180516858Y-53730445D01*
X180516861Y-53730447D01*
X180703266Y-53860968D01*
X180909504Y-53957139D01*
X180909509Y-53957140D01*
X180909511Y-53957141D01*
X180933852Y-53963663D01*
X181129308Y-54016035D01*
X181286780Y-54029812D01*
X181355998Y-54035868D01*
X181356000Y-54035868D01*
X181356002Y-54035868D01*
X181418511Y-54030399D01*
X181582692Y-54016035D01*
X181802496Y-53957139D01*
X182008734Y-53860968D01*
X182195139Y-53730447D01*
X182356047Y-53569539D01*
X182486568Y-53383134D01*
X182513618Y-53325124D01*
X182559790Y-53272685D01*
X182626983Y-53253533D01*
X182693865Y-53273748D01*
X182738382Y-53325125D01*
X182765429Y-53383128D01*
X182765432Y-53383134D01*
X182895954Y-53569541D01*
X183056858Y-53730445D01*
X183056861Y-53730447D01*
X183243266Y-53860968D01*
X183449504Y-53957139D01*
X183449509Y-53957140D01*
X183449511Y-53957141D01*
X183473852Y-53963663D01*
X183669308Y-54016035D01*
X183826780Y-54029812D01*
X183895998Y-54035868D01*
X183896000Y-54035868D01*
X183896002Y-54035868D01*
X183958511Y-54030399D01*
X184122692Y-54016035D01*
X184342496Y-53957139D01*
X184548734Y-53860968D01*
X184735139Y-53730447D01*
X184896047Y-53569539D01*
X185026568Y-53383134D01*
X185053618Y-53325124D01*
X185099790Y-53272685D01*
X185166983Y-53253533D01*
X185233865Y-53273748D01*
X185278382Y-53325125D01*
X185305429Y-53383128D01*
X185305432Y-53383134D01*
X185435954Y-53569541D01*
X185596858Y-53730445D01*
X185757623Y-53843013D01*
X185801248Y-53897589D01*
X185810500Y-53944588D01*
X185810500Y-61893255D01*
X185808775Y-61908872D01*
X185809061Y-61908899D01*
X185808326Y-61916665D01*
X185810500Y-61985814D01*
X185810500Y-62015343D01*
X185810501Y-62015360D01*
X185811368Y-62022231D01*
X185811826Y-62028050D01*
X185813290Y-62074624D01*
X185813291Y-62074627D01*
X185818880Y-62093867D01*
X185822824Y-62112911D01*
X185825336Y-62132792D01*
X185836795Y-62161735D01*
X185842490Y-62176119D01*
X185844382Y-62181647D01*
X185857381Y-62226388D01*
X185867580Y-62243634D01*
X185876138Y-62261103D01*
X185883514Y-62279732D01*
X185910898Y-62317423D01*
X185914106Y-62322307D01*
X185937827Y-62362416D01*
X185937833Y-62362424D01*
X185951990Y-62376580D01*
X185964628Y-62391376D01*
X185976405Y-62407586D01*
X185976406Y-62407587D01*
X186012309Y-62437288D01*
X186016620Y-62441210D01*
X188173475Y-64598065D01*
X190323038Y-66747628D01*
X190356523Y-66808951D01*
X190358678Y-66822347D01*
X190359003Y-66825436D01*
X190376326Y-66990256D01*
X190376327Y-66990259D01*
X190434818Y-67170277D01*
X190434821Y-67170284D01*
X190529467Y-67334216D01*
X190582702Y-67393339D01*
X190656129Y-67474888D01*
X190809265Y-67586148D01*
X190809270Y-67586151D01*
X190982192Y-67663142D01*
X190982197Y-67663144D01*
X191167354Y-67702500D01*
X191167355Y-67702500D01*
X191356644Y-67702500D01*
X191356646Y-67702500D01*
X191541803Y-67663144D01*
X191714730Y-67586151D01*
X191867871Y-67474888D01*
X191994533Y-67334216D01*
X192089179Y-67170284D01*
X192147674Y-66990256D01*
X192167460Y-66802000D01*
X192147674Y-66613744D01*
X192089179Y-66433716D01*
X191994533Y-66269784D01*
X191867871Y-66129112D01*
X191867870Y-66129111D01*
X191714734Y-66017851D01*
X191714729Y-66017848D01*
X191541807Y-65940857D01*
X191541802Y-65940855D01*
X191396001Y-65909865D01*
X191356646Y-65901500D01*
X191356645Y-65901500D01*
X191297452Y-65901500D01*
X191230413Y-65881815D01*
X191209771Y-65865181D01*
X187097819Y-61753228D01*
X187064334Y-61691905D01*
X187061500Y-61665547D01*
X187061500Y-53944588D01*
X187081185Y-53877549D01*
X187114377Y-53843013D01*
X187189379Y-53790496D01*
X187275139Y-53730447D01*
X187436047Y-53569539D01*
X187566568Y-53383134D01*
X187593618Y-53325124D01*
X187639790Y-53272685D01*
X187706983Y-53253533D01*
X187773865Y-53273748D01*
X187818382Y-53325125D01*
X187845429Y-53383128D01*
X187845432Y-53383134D01*
X187975954Y-53569541D01*
X188136858Y-53730445D01*
X188136861Y-53730447D01*
X188323266Y-53860968D01*
X188529504Y-53957139D01*
X188529509Y-53957140D01*
X188529511Y-53957141D01*
X188553852Y-53963663D01*
X188749308Y-54016035D01*
X188906780Y-54029812D01*
X188975998Y-54035868D01*
X188976000Y-54035868D01*
X188976002Y-54035868D01*
X189038511Y-54030399D01*
X189202692Y-54016035D01*
X189422496Y-53957139D01*
X189628734Y-53860968D01*
X189815139Y-53730447D01*
X189976047Y-53569539D01*
X190106568Y-53383134D01*
X190133618Y-53325124D01*
X190179790Y-53272685D01*
X190246983Y-53253533D01*
X190313865Y-53273748D01*
X190358382Y-53325125D01*
X190385429Y-53383128D01*
X190385432Y-53383134D01*
X190515954Y-53569541D01*
X190676857Y-53730444D01*
X190676860Y-53730446D01*
X190676861Y-53730447D01*
X190762623Y-53790497D01*
X190806248Y-53845073D01*
X190815500Y-53892072D01*
X190815500Y-62782869D01*
X190815387Y-62786614D01*
X190812331Y-62837142D01*
X190811642Y-62848524D01*
X190818525Y-62886087D01*
X190822821Y-62909530D01*
X190823384Y-62913231D01*
X190830859Y-62974788D01*
X190830860Y-62974792D01*
X190834451Y-62984261D01*
X190840474Y-63005864D01*
X190842304Y-63015848D01*
X190867759Y-63072408D01*
X190869189Y-63075859D01*
X190891182Y-63133848D01*
X190891183Y-63133849D01*
X190896936Y-63142184D01*
X190907961Y-63161731D01*
X190912120Y-63170973D01*
X190912124Y-63170978D01*
X190950371Y-63219796D01*
X190952591Y-63222814D01*
X190987812Y-63273842D01*
X190987816Y-63273846D01*
X190987817Y-63273847D01*
X191034250Y-63314982D01*
X191036941Y-63317516D01*
X193681136Y-65961711D01*
X196324244Y-68604819D01*
X196357729Y-68666142D01*
X196352745Y-68735834D01*
X196310873Y-68791767D01*
X196245409Y-68816184D01*
X196236563Y-68816500D01*
X188370452Y-68816500D01*
X188303413Y-68796815D01*
X188282771Y-68780181D01*
X173522319Y-54019728D01*
X173488834Y-53958405D01*
X173486000Y-53932047D01*
X173486000Y-53046086D01*
X173497955Y-53058041D01*
X173610852Y-53115565D01*
X173704519Y-53130400D01*
X173767481Y-53130400D01*
X173861148Y-53115565D01*
X173974045Y-53058041D01*
X173986000Y-53046086D01*
X173986000Y-54030400D01*
G37*
%TD.AperFunction*%
%TA.AperFunction,Conductor*%
G36*
X223315487Y-37260085D02*
G01*
X223336129Y-37276719D01*
X224141181Y-38081771D01*
X224174666Y-38143094D01*
X224177500Y-38169452D01*
X224177500Y-40367547D01*
X224157815Y-40434586D01*
X224105011Y-40480341D01*
X224035853Y-40490285D01*
X223972297Y-40461260D01*
X223965819Y-40455228D01*
X222496803Y-38986212D01*
X222486980Y-38973950D01*
X222486759Y-38974134D01*
X222481786Y-38968122D01*
X222431362Y-38920771D01*
X222420869Y-38910277D01*
X222387387Y-38848952D01*
X222392376Y-38779261D01*
X222434250Y-38723330D01*
X222456151Y-38710219D01*
X222648479Y-38620535D01*
X222648481Y-38620534D01*
X222834820Y-38490057D01*
X222995657Y-38329220D01*
X223126134Y-38142882D01*
X223222265Y-37936726D01*
X223222269Y-37936717D01*
X223274872Y-37740400D01*
X222311686Y-37740400D01*
X222323641Y-37728445D01*
X222381165Y-37615548D01*
X222400986Y-37490400D01*
X222381165Y-37365252D01*
X222323641Y-37252355D01*
X222311686Y-37240400D01*
X223248448Y-37240400D01*
X223315487Y-37260085D01*
G37*
%TD.AperFunction*%
%TA.AperFunction,Conductor*%
G36*
X210633865Y-38033748D02*
G01*
X210678382Y-38085125D01*
X210705429Y-38143128D01*
X210705432Y-38143134D01*
X210835954Y-38329541D01*
X210996858Y-38490445D01*
X211037532Y-38518925D01*
X211081157Y-38573501D01*
X211088351Y-38642999D01*
X211056829Y-38705354D01*
X210996599Y-38740769D01*
X210966409Y-38744500D01*
X210165591Y-38744500D01*
X210098552Y-38724815D01*
X210052797Y-38672011D01*
X210042853Y-38602853D01*
X210071878Y-38539297D01*
X210094468Y-38518925D01*
X210101156Y-38514241D01*
X210135139Y-38490447D01*
X210296047Y-38329539D01*
X210426568Y-38143134D01*
X210453618Y-38085124D01*
X210499790Y-38032685D01*
X210566983Y-38013533D01*
X210633865Y-38033748D01*
G37*
%TD.AperFunction*%
%TA.AperFunction,Conductor*%
G36*
X213173865Y-38033748D02*
G01*
X213218382Y-38085125D01*
X213245429Y-38143128D01*
X213245432Y-38143134D01*
X213375954Y-38329541D01*
X213536858Y-38490445D01*
X213577532Y-38518925D01*
X213621157Y-38573501D01*
X213628351Y-38642999D01*
X213596829Y-38705354D01*
X213536599Y-38740769D01*
X213506409Y-38744500D01*
X212705591Y-38744500D01*
X212638552Y-38724815D01*
X212592797Y-38672011D01*
X212582853Y-38602853D01*
X212611878Y-38539297D01*
X212634468Y-38518925D01*
X212641156Y-38514241D01*
X212675139Y-38490447D01*
X212836047Y-38329539D01*
X212966568Y-38143134D01*
X212993618Y-38085124D01*
X213039790Y-38032685D01*
X213106983Y-38013533D01*
X213173865Y-38033748D01*
G37*
%TD.AperFunction*%
%TA.AperFunction,Conductor*%
G36*
X215713865Y-38033748D02*
G01*
X215758382Y-38085125D01*
X215785429Y-38143128D01*
X215785432Y-38143134D01*
X215915954Y-38329541D01*
X216076858Y-38490445D01*
X216117532Y-38518925D01*
X216161157Y-38573501D01*
X216168351Y-38642999D01*
X216136829Y-38705354D01*
X216076599Y-38740769D01*
X216046409Y-38744500D01*
X215245591Y-38744500D01*
X215178552Y-38724815D01*
X215132797Y-38672011D01*
X215122853Y-38602853D01*
X215151878Y-38539297D01*
X215174468Y-38518925D01*
X215181156Y-38514241D01*
X215215139Y-38490447D01*
X215376047Y-38329539D01*
X215506568Y-38143134D01*
X215533618Y-38085124D01*
X215579790Y-38032685D01*
X215646983Y-38013533D01*
X215713865Y-38033748D01*
G37*
%TD.AperFunction*%
%TA.AperFunction,Conductor*%
G36*
X218253865Y-38033748D02*
G01*
X218298382Y-38085125D01*
X218325429Y-38143128D01*
X218325432Y-38143134D01*
X218455954Y-38329541D01*
X218616858Y-38490445D01*
X218657532Y-38518925D01*
X218701157Y-38573501D01*
X218708351Y-38642999D01*
X218676829Y-38705354D01*
X218616599Y-38740769D01*
X218586409Y-38744500D01*
X217785591Y-38744500D01*
X217718552Y-38724815D01*
X217672797Y-38672011D01*
X217662853Y-38602853D01*
X217691878Y-38539297D01*
X217714468Y-38518925D01*
X217721156Y-38514241D01*
X217755139Y-38490447D01*
X217916047Y-38329539D01*
X218046568Y-38143134D01*
X218073618Y-38085124D01*
X218119790Y-38032685D01*
X218186983Y-38013533D01*
X218253865Y-38033748D01*
G37*
%TD.AperFunction*%
%TA.AperFunction,Conductor*%
G36*
X220794139Y-38033157D02*
G01*
X220838657Y-38084533D01*
X220865865Y-38142882D01*
X220996342Y-38329220D01*
X221157179Y-38490057D01*
X221198406Y-38518925D01*
X221242031Y-38573503D01*
X221249223Y-38643001D01*
X221217701Y-38705356D01*
X221157471Y-38740769D01*
X221127282Y-38744500D01*
X220325591Y-38744500D01*
X220258552Y-38724815D01*
X220212797Y-38672011D01*
X220202853Y-38602853D01*
X220231878Y-38539297D01*
X220254468Y-38518925D01*
X220261156Y-38514241D01*
X220295139Y-38490447D01*
X220456047Y-38329539D01*
X220586568Y-38143134D01*
X220613895Y-38084529D01*
X220660064Y-38032095D01*
X220727257Y-38012942D01*
X220794139Y-38033157D01*
G37*
%TD.AperFunction*%
%TD*%
M02*
