%TF.GenerationSoftware,KiCad,Pcbnew,7.0.9-7.0.9~ubuntu20.04.1*%
%TF.CreationDate,2023-12-28T06:23:10+01:00*%
%TF.ProjectId,M50747_FP,4d353037-3437-45f4-9650-2e6b69636164,rev?*%
%TF.SameCoordinates,Original*%
%TF.FileFunction,Legend,Bot*%
%TF.FilePolarity,Positive*%
%FSLAX46Y46*%
G04 Gerber Fmt 4.6, Leading zero omitted, Abs format (unit mm)*
G04 Created by KiCad (PCBNEW 7.0.9-7.0.9~ubuntu20.04.1) date 2023-12-28 06:23:10*
%MOMM*%
%LPD*%
G01*
G04 APERTURE LIST*
%ADD10C,0.150000*%
%ADD11C,0.120000*%
G04 APERTURE END LIST*
D10*
X206679580Y-67435833D02*
X206727200Y-67388214D01*
X206727200Y-67388214D02*
X206774819Y-67245357D01*
X206774819Y-67245357D02*
X206774819Y-67150119D01*
X206774819Y-67150119D02*
X206727200Y-67007262D01*
X206727200Y-67007262D02*
X206631961Y-66912024D01*
X206631961Y-66912024D02*
X206536723Y-66864405D01*
X206536723Y-66864405D02*
X206346247Y-66816786D01*
X206346247Y-66816786D02*
X206203390Y-66816786D01*
X206203390Y-66816786D02*
X206012914Y-66864405D01*
X206012914Y-66864405D02*
X205917676Y-66912024D01*
X205917676Y-66912024D02*
X205822438Y-67007262D01*
X205822438Y-67007262D02*
X205774819Y-67150119D01*
X205774819Y-67150119D02*
X205774819Y-67245357D01*
X205774819Y-67245357D02*
X205822438Y-67388214D01*
X205822438Y-67388214D02*
X205870057Y-67435833D01*
X206774819Y-68388214D02*
X206774819Y-67816786D01*
X206774819Y-68102500D02*
X205774819Y-68102500D01*
X205774819Y-68102500D02*
X205917676Y-68007262D01*
X205917676Y-68007262D02*
X206012914Y-67912024D01*
X206012914Y-67912024D02*
X206060533Y-67816786D01*
X207712819Y-66730666D02*
X208427104Y-66730666D01*
X208427104Y-66730666D02*
X208569961Y-66683047D01*
X208569961Y-66683047D02*
X208665200Y-66587809D01*
X208665200Y-66587809D02*
X208712819Y-66444952D01*
X208712819Y-66444952D02*
X208712819Y-66349714D01*
X208712819Y-67206857D02*
X207712819Y-67206857D01*
X207712819Y-67206857D02*
X207712819Y-67587809D01*
X207712819Y-67587809D02*
X207760438Y-67683047D01*
X207760438Y-67683047D02*
X207808057Y-67730666D01*
X207808057Y-67730666D02*
X207903295Y-67778285D01*
X207903295Y-67778285D02*
X208046152Y-67778285D01*
X208046152Y-67778285D02*
X208141390Y-67730666D01*
X208141390Y-67730666D02*
X208189009Y-67683047D01*
X208189009Y-67683047D02*
X208236628Y-67587809D01*
X208236628Y-67587809D02*
X208236628Y-67206857D01*
X208712819Y-68730666D02*
X208712819Y-68159238D01*
X208712819Y-68444952D02*
X207712819Y-68444952D01*
X207712819Y-68444952D02*
X207855676Y-68349714D01*
X207855676Y-68349714D02*
X207950914Y-68254476D01*
X207950914Y-68254476D02*
X207998533Y-68159238D01*
X214534819Y-70699333D02*
X214058628Y-70366000D01*
X214534819Y-70127905D02*
X213534819Y-70127905D01*
X213534819Y-70127905D02*
X213534819Y-70508857D01*
X213534819Y-70508857D02*
X213582438Y-70604095D01*
X213582438Y-70604095D02*
X213630057Y-70651714D01*
X213630057Y-70651714D02*
X213725295Y-70699333D01*
X213725295Y-70699333D02*
X213868152Y-70699333D01*
X213868152Y-70699333D02*
X213963390Y-70651714D01*
X213963390Y-70651714D02*
X214011009Y-70604095D01*
X214011009Y-70604095D02*
X214058628Y-70508857D01*
X214058628Y-70508857D02*
X214058628Y-70127905D01*
X214534819Y-71651714D02*
X214534819Y-71080286D01*
X214534819Y-71366000D02*
X213534819Y-71366000D01*
X213534819Y-71366000D02*
X213677676Y-71270762D01*
X213677676Y-71270762D02*
X213772914Y-71175524D01*
X213772914Y-71175524D02*
X213820533Y-71080286D01*
D11*
%TO.C,C1*%
X205380000Y-68313752D02*
X205380000Y-66891248D01*
X203560000Y-68313752D02*
X203560000Y-66891248D01*
%TO.C,JP1*%
X209058000Y-65514000D02*
X209058000Y-69614000D01*
X211058000Y-65514000D02*
X209058000Y-65514000D01*
X211558000Y-65964000D02*
X211558000Y-66564000D01*
X211258000Y-66264000D02*
X211558000Y-65964000D01*
X211258000Y-66264000D02*
X211558000Y-66564000D01*
X209058000Y-69614000D02*
X211058000Y-69614000D01*
X211058000Y-69614000D02*
X211058000Y-65514000D01*
%TO.C,R1*%
X216810000Y-70138936D02*
X216810000Y-71593064D01*
X214990000Y-70138936D02*
X214990000Y-71593064D01*
%TD*%
M02*
