%TF.GenerationSoftware,KiCad,Pcbnew,7.0.9-7.0.9~ubuntu20.04.1*%
%TF.CreationDate,2023-12-28T06:23:10+01:00*%
%TF.ProjectId,M50747_FP,4d353037-3437-45f4-9650-2e6b69636164,rev?*%
%TF.SameCoordinates,Original*%
%TF.FileFunction,Soldermask,Top*%
%TF.FilePolarity,Negative*%
%FSLAX46Y46*%
G04 Gerber Fmt 4.6, Leading zero omitted, Abs format (unit mm)*
G04 Created by KiCad (PCBNEW 7.0.9-7.0.9~ubuntu20.04.1) date 2023-12-28 06:23:10*
%MOMM*%
%LPD*%
G01*
G04 APERTURE LIST*
%ADD10O,0.500000X2.000000*%
%ADD11O,2.000000X0.500000*%
%ADD12R,1.350000X1.350000*%
%ADD13R,1.600000X1.600000*%
%ADD14O,1.600000X1.600000*%
%ADD15R,1.700000X1.700000*%
%ADD16O,1.700000X1.700000*%
G04 APERTURE END LIST*
D10*
%TO.C,U1*%
X202338000Y-75692000D03*
X203138000Y-75692000D03*
X203938000Y-75692000D03*
X204738000Y-75692000D03*
X205538000Y-75692000D03*
X206338000Y-75692000D03*
X207138000Y-75692000D03*
X207938000Y-75692000D03*
X208738000Y-75692000D03*
X209538000Y-75692000D03*
X210338000Y-75692000D03*
X211138000Y-75692000D03*
X211938000Y-75692000D03*
X212738000Y-75692000D03*
X213538000Y-75692000D03*
X214338000Y-75692000D03*
X215138000Y-75692000D03*
X215938000Y-75692000D03*
X216738000Y-75692000D03*
X217538000Y-75692000D03*
X218338000Y-75692000D03*
D11*
X221388000Y-72642000D03*
X221388000Y-71842000D03*
X221388000Y-71042000D03*
X221388000Y-70242000D03*
X221388000Y-69442000D03*
X221388000Y-68642000D03*
X221388000Y-67842000D03*
X221388000Y-67042000D03*
X221388000Y-66242000D03*
X221388000Y-65442000D03*
X221388000Y-64642000D03*
X221388000Y-63842000D03*
X221388000Y-63042000D03*
X221388000Y-62242000D03*
X221388000Y-61442000D03*
D10*
X218338000Y-58392000D03*
X217538000Y-58392000D03*
X216738000Y-58392000D03*
X215938000Y-58392000D03*
X215138000Y-58392000D03*
X214338000Y-58392000D03*
X213538000Y-58392000D03*
X212738000Y-58392000D03*
X211938000Y-58392000D03*
X211138000Y-58392000D03*
X210338000Y-58392000D03*
X209538000Y-58392000D03*
X208738000Y-58392000D03*
X207938000Y-58392000D03*
X207138000Y-58392000D03*
X206338000Y-58392000D03*
X205538000Y-58392000D03*
X204738000Y-58392000D03*
X203938000Y-58392000D03*
X203138000Y-58392000D03*
X202338000Y-58392000D03*
D11*
X199288000Y-61442000D03*
X199288000Y-62242000D03*
X199288000Y-63042000D03*
X199288000Y-63842000D03*
X199288000Y-64642000D03*
X199288000Y-65442000D03*
X199288000Y-66242000D03*
X199288000Y-67042000D03*
X199288000Y-67842000D03*
X199288000Y-68642000D03*
X199288000Y-69442000D03*
X199288000Y-70242000D03*
X199288000Y-71042000D03*
X199288000Y-71842000D03*
X199288000Y-72642000D03*
%TD*%
D12*
%TO.C,J4*%
X183896000Y-40640000D03*
%TD*%
D13*
%TO.C,U3*%
X173736000Y-52730400D03*
D14*
X176276000Y-52730400D03*
X178816000Y-52730400D03*
X181356000Y-52730400D03*
X183896000Y-52730400D03*
X186436000Y-52730400D03*
X188976000Y-52730400D03*
X191516000Y-52730400D03*
X194056000Y-52730400D03*
X196596000Y-52730400D03*
X199136000Y-52730400D03*
X201676000Y-52730400D03*
X204216000Y-52730400D03*
X206756000Y-52730400D03*
X209296000Y-52730400D03*
X211836000Y-52730400D03*
X214376000Y-52730400D03*
X216916000Y-52730400D03*
X219456000Y-52730400D03*
X221996000Y-52730400D03*
X221996000Y-37490400D03*
X219456000Y-37490400D03*
X216916000Y-37490400D03*
X214376000Y-37490400D03*
X211836000Y-37490400D03*
X209296000Y-37490400D03*
X206756000Y-37490400D03*
X204216000Y-37490400D03*
X201676000Y-37490400D03*
X199136000Y-37490400D03*
X196596000Y-37490400D03*
X194056000Y-37490400D03*
X191516000Y-37490400D03*
X188976000Y-37490400D03*
X186436000Y-37490400D03*
X183896000Y-37490400D03*
X181356000Y-37490400D03*
X178816000Y-37490400D03*
X176276000Y-37490400D03*
X173736000Y-37490400D03*
%TD*%
D15*
%TO.C,J1*%
X166878000Y-81026000D03*
D16*
X164338000Y-81026000D03*
X166878000Y-78486000D03*
X164338000Y-78486000D03*
X166878000Y-75946000D03*
X164338000Y-75946000D03*
X166878000Y-73406000D03*
X164338000Y-73406000D03*
X166878000Y-70866000D03*
X164338000Y-70866000D03*
X166878000Y-68326000D03*
X164338000Y-68326000D03*
X166878000Y-65786000D03*
X164338000Y-65786000D03*
X166878000Y-63246000D03*
X164338000Y-63246000D03*
X166878000Y-60706000D03*
X164338000Y-60706000D03*
X166878000Y-58166000D03*
X164338000Y-58166000D03*
X166878000Y-55626000D03*
X164338000Y-55626000D03*
X166878000Y-53086000D03*
X164338000Y-53086000D03*
X166878000Y-50546000D03*
X164338000Y-50546000D03*
X166878000Y-48006000D03*
X164338000Y-48006000D03*
X166878000Y-45466000D03*
X164338000Y-45466000D03*
X166878000Y-42926000D03*
X164338000Y-42926000D03*
%TD*%
D12*
%TO.C,J7*%
X188976000Y-49784000D03*
%TD*%
%TO.C,J6*%
X183896000Y-49784000D03*
%TD*%
%TO.C,J2*%
X225044000Y-72136000D03*
%TD*%
%TO.C,J8*%
X176276000Y-49784000D03*
%TD*%
%TO.C,J3*%
X178816000Y-49784000D03*
%TD*%
M02*
