M48
; DRILL file {KiCad 7.0.9-7.0.9~ubuntu20.04.1} date Do 28 Dez 2023 06:23:12
; FORMAT={-:-/ absolute / metric / decimal}
; #@! TF.CreationDate,2023-12-28T06:23:12+01:00
; #@! TF.GenerationSoftware,Kicad,Pcbnew,7.0.9-7.0.9~ubuntu20.04.1
; #@! TF.FileFunction,MixedPlating,1,2
FMAT,2
METRIC
; #@! TA.AperFunction,Plated,PTH,ViaDrill
T1C0.400
; #@! TA.AperFunction,Plated,PTH,ComponentDrill
T2C0.800
; #@! TA.AperFunction,Plated,PTH,ComponentDrill
T3C1.000
%
G90
G05
T1
X173.482Y-42.926
X176.276Y-42.926
X181.356Y-43.18
X191.262Y-66.802
X194.056Y-59.436
X194.564Y-74.422
X195.326Y-58.166
X196.596Y-59.182
X201.676Y-63.246
X202.438Y-71.628
X203.708Y-62.992
X204.47Y-66.04
X204.47Y-69.165
X205.74Y-62.23
X208.534Y-61.468
X209.042Y-63.754
X210.82Y-60.96
X212.09Y-64.516
X215.138Y-77.631
X215.9Y-69.403
X221.234Y-76.962
X222.758Y-74.168
X224.028Y-52.07
X226.314Y-66.802
X226.964Y-65.86
X227.838Y-65.024
X228.6Y-64.262
X229.362Y-63.5
X230.124Y-62.738
X230.886Y-60.452
X230.886Y-61.976
T2
X173.736Y-37.49
X173.736Y-52.73
X176.276Y-37.49
X176.276Y-49.784
X176.276Y-52.73
X178.816Y-37.49
X178.816Y-49.784
X178.816Y-52.73
X181.356Y-37.49
X181.356Y-52.73
X183.896Y-37.49
X183.896Y-40.64
X183.896Y-49.784
X183.896Y-52.73
X186.436Y-37.49
X186.436Y-52.73
X188.976Y-37.49
X188.976Y-49.784
X188.976Y-52.73
X191.516Y-37.49
X191.516Y-52.73
X194.056Y-37.49
X194.056Y-52.73
X196.596Y-37.49
X196.596Y-52.73
X199.136Y-37.49
X199.136Y-52.73
X201.676Y-37.49
X201.676Y-52.73
X204.216Y-37.49
X204.216Y-52.73
X206.756Y-37.49
X206.756Y-52.73
X209.296Y-37.49
X209.296Y-52.73
X211.836Y-37.49
X211.836Y-52.73
X214.376Y-37.49
X214.376Y-52.73
X216.916Y-37.49
X216.916Y-52.73
X219.456Y-37.49
X219.456Y-52.73
X221.996Y-37.49
X221.996Y-52.73
X225.044Y-72.136
T3
X164.338Y-42.926
X164.338Y-45.466
X164.338Y-48.006
X164.338Y-50.546
X164.338Y-53.086
X164.338Y-55.626
X164.338Y-58.166
X164.338Y-60.706
X164.338Y-63.246
X164.338Y-65.786
X164.338Y-68.326
X164.338Y-70.866
X164.338Y-73.406
X164.338Y-75.946
X164.338Y-78.486
X164.338Y-81.026
X166.878Y-42.926
X166.878Y-45.466
X166.878Y-48.006
X166.878Y-50.546
X166.878Y-53.086
X166.878Y-55.626
X166.878Y-58.166
X166.878Y-60.706
X166.878Y-63.246
X166.878Y-65.786
X166.878Y-68.326
X166.878Y-70.866
X166.878Y-73.406
X166.878Y-75.946
X166.878Y-78.486
X166.878Y-81.026
T0
M30
