%TF.GenerationSoftware,KiCad,Pcbnew,7.0.5-7.0.5~ubuntu20.04.1*%
%TF.CreationDate,2023-07-18T12:45:14+02:00*%
%TF.ProjectId,EpromEMU_TOP_new_STM32F3,4570726f-6d45-44d5-955f-544f505f6e65,rev?*%
%TF.SameCoordinates,Original*%
%TF.FileFunction,Legend,Top*%
%TF.FilePolarity,Positive*%
%FSLAX46Y46*%
G04 Gerber Fmt 4.6, Leading zero omitted, Abs format (unit mm)*
G04 Created by KiCad (PCBNEW 7.0.5-7.0.5~ubuntu20.04.1) date 2023-07-18 12:45:14*
%MOMM*%
%LPD*%
G01*
G04 APERTURE LIST*
%ADD10C,0.150000*%
%ADD11C,0.120000*%
G04 APERTURE END LIST*
D10*
X106752809Y-89782420D02*
X106752809Y-89449087D01*
X107276619Y-89306230D02*
X107276619Y-89782420D01*
X107276619Y-89782420D02*
X106276619Y-89782420D01*
X106276619Y-89782420D02*
X106276619Y-89306230D01*
X106609952Y-88877658D02*
X107609952Y-88877658D01*
X106657571Y-88877658D02*
X106609952Y-88782420D01*
X106609952Y-88782420D02*
X106609952Y-88591944D01*
X106609952Y-88591944D02*
X106657571Y-88496706D01*
X106657571Y-88496706D02*
X106705190Y-88449087D01*
X106705190Y-88449087D02*
X106800428Y-88401468D01*
X106800428Y-88401468D02*
X107086142Y-88401468D01*
X107086142Y-88401468D02*
X107181380Y-88449087D01*
X107181380Y-88449087D02*
X107229000Y-88496706D01*
X107229000Y-88496706D02*
X107276619Y-88591944D01*
X107276619Y-88591944D02*
X107276619Y-88782420D01*
X107276619Y-88782420D02*
X107229000Y-88877658D01*
X107276619Y-87972896D02*
X106609952Y-87972896D01*
X106800428Y-87972896D02*
X106705190Y-87925277D01*
X106705190Y-87925277D02*
X106657571Y-87877658D01*
X106657571Y-87877658D02*
X106609952Y-87782420D01*
X106609952Y-87782420D02*
X106609952Y-87687182D01*
X107276619Y-87210991D02*
X107229000Y-87306229D01*
X107229000Y-87306229D02*
X107181380Y-87353848D01*
X107181380Y-87353848D02*
X107086142Y-87401467D01*
X107086142Y-87401467D02*
X106800428Y-87401467D01*
X106800428Y-87401467D02*
X106705190Y-87353848D01*
X106705190Y-87353848D02*
X106657571Y-87306229D01*
X106657571Y-87306229D02*
X106609952Y-87210991D01*
X106609952Y-87210991D02*
X106609952Y-87068134D01*
X106609952Y-87068134D02*
X106657571Y-86972896D01*
X106657571Y-86972896D02*
X106705190Y-86925277D01*
X106705190Y-86925277D02*
X106800428Y-86877658D01*
X106800428Y-86877658D02*
X107086142Y-86877658D01*
X107086142Y-86877658D02*
X107181380Y-86925277D01*
X107181380Y-86925277D02*
X107229000Y-86972896D01*
X107229000Y-86972896D02*
X107276619Y-87068134D01*
X107276619Y-87068134D02*
X107276619Y-87210991D01*
X107276619Y-86449086D02*
X106609952Y-86449086D01*
X106705190Y-86449086D02*
X106657571Y-86401467D01*
X106657571Y-86401467D02*
X106609952Y-86306229D01*
X106609952Y-86306229D02*
X106609952Y-86163372D01*
X106609952Y-86163372D02*
X106657571Y-86068134D01*
X106657571Y-86068134D02*
X106752809Y-86020515D01*
X106752809Y-86020515D02*
X107276619Y-86020515D01*
X106752809Y-86020515D02*
X106657571Y-85972896D01*
X106657571Y-85972896D02*
X106609952Y-85877658D01*
X106609952Y-85877658D02*
X106609952Y-85734801D01*
X106609952Y-85734801D02*
X106657571Y-85639562D01*
X106657571Y-85639562D02*
X106752809Y-85591943D01*
X106752809Y-85591943D02*
X107276619Y-85591943D01*
X106752809Y-85115753D02*
X106752809Y-84782420D01*
X107276619Y-84639563D02*
X107276619Y-85115753D01*
X107276619Y-85115753D02*
X106276619Y-85115753D01*
X106276619Y-85115753D02*
X106276619Y-84639563D01*
X107276619Y-84210991D02*
X106276619Y-84210991D01*
X106276619Y-84210991D02*
X106990904Y-83877658D01*
X106990904Y-83877658D02*
X106276619Y-83544325D01*
X106276619Y-83544325D02*
X107276619Y-83544325D01*
X106276619Y-83068134D02*
X107086142Y-83068134D01*
X107086142Y-83068134D02*
X107181380Y-83020515D01*
X107181380Y-83020515D02*
X107229000Y-82972896D01*
X107229000Y-82972896D02*
X107276619Y-82877658D01*
X107276619Y-82877658D02*
X107276619Y-82687182D01*
X107276619Y-82687182D02*
X107229000Y-82591944D01*
X107229000Y-82591944D02*
X107181380Y-82544325D01*
X107181380Y-82544325D02*
X107086142Y-82496706D01*
X107086142Y-82496706D02*
X106276619Y-82496706D01*
X108219952Y-89877658D02*
X108886619Y-89639563D01*
X108886619Y-89639563D02*
X108219952Y-89401468D01*
X108886619Y-88496706D02*
X108886619Y-89068134D01*
X108886619Y-88782420D02*
X107886619Y-88782420D01*
X107886619Y-88782420D02*
X108029476Y-88877658D01*
X108029476Y-88877658D02*
X108124714Y-88972896D01*
X108124714Y-88972896D02*
X108172333Y-89068134D01*
%TO.C,J4*%
X105773219Y-90427133D02*
X106487504Y-90427133D01*
X106487504Y-90427133D02*
X106630361Y-90474752D01*
X106630361Y-90474752D02*
X106725600Y-90569990D01*
X106725600Y-90569990D02*
X106773219Y-90712847D01*
X106773219Y-90712847D02*
X106773219Y-90808085D01*
X106106552Y-89522371D02*
X106773219Y-89522371D01*
X105725600Y-89760466D02*
X106439885Y-89998561D01*
X106439885Y-89998561D02*
X106439885Y-89379514D01*
%TO.C,U2*%
X119761095Y-83428619D02*
X119761095Y-84238142D01*
X119761095Y-84238142D02*
X119808714Y-84333380D01*
X119808714Y-84333380D02*
X119856333Y-84381000D01*
X119856333Y-84381000D02*
X119951571Y-84428619D01*
X119951571Y-84428619D02*
X120142047Y-84428619D01*
X120142047Y-84428619D02*
X120237285Y-84381000D01*
X120237285Y-84381000D02*
X120284904Y-84333380D01*
X120284904Y-84333380D02*
X120332523Y-84238142D01*
X120332523Y-84238142D02*
X120332523Y-83428619D01*
X120761095Y-83523857D02*
X120808714Y-83476238D01*
X120808714Y-83476238D02*
X120903952Y-83428619D01*
X120903952Y-83428619D02*
X121142047Y-83428619D01*
X121142047Y-83428619D02*
X121237285Y-83476238D01*
X121237285Y-83476238D02*
X121284904Y-83523857D01*
X121284904Y-83523857D02*
X121332523Y-83619095D01*
X121332523Y-83619095D02*
X121332523Y-83714333D01*
X121332523Y-83714333D02*
X121284904Y-83857190D01*
X121284904Y-83857190D02*
X120713476Y-84428619D01*
X120713476Y-84428619D02*
X121332523Y-84428619D01*
%TO.C,J35*%
X103588019Y-99031323D02*
X104302304Y-99031323D01*
X104302304Y-99031323D02*
X104445161Y-99078942D01*
X104445161Y-99078942D02*
X104540400Y-99174180D01*
X104540400Y-99174180D02*
X104588019Y-99317037D01*
X104588019Y-99317037D02*
X104588019Y-99412275D01*
X103588019Y-98650370D02*
X103588019Y-98031323D01*
X103588019Y-98031323D02*
X103968971Y-98364656D01*
X103968971Y-98364656D02*
X103968971Y-98221799D01*
X103968971Y-98221799D02*
X104016590Y-98126561D01*
X104016590Y-98126561D02*
X104064209Y-98078942D01*
X104064209Y-98078942D02*
X104159447Y-98031323D01*
X104159447Y-98031323D02*
X104397542Y-98031323D01*
X104397542Y-98031323D02*
X104492780Y-98078942D01*
X104492780Y-98078942D02*
X104540400Y-98126561D01*
X104540400Y-98126561D02*
X104588019Y-98221799D01*
X104588019Y-98221799D02*
X104588019Y-98507513D01*
X104588019Y-98507513D02*
X104540400Y-98602751D01*
X104540400Y-98602751D02*
X104492780Y-98650370D01*
X103588019Y-97126561D02*
X103588019Y-97602751D01*
X103588019Y-97602751D02*
X104064209Y-97650370D01*
X104064209Y-97650370D02*
X104016590Y-97602751D01*
X104016590Y-97602751D02*
X103968971Y-97507513D01*
X103968971Y-97507513D02*
X103968971Y-97269418D01*
X103968971Y-97269418D02*
X104016590Y-97174180D01*
X104016590Y-97174180D02*
X104064209Y-97126561D01*
X104064209Y-97126561D02*
X104159447Y-97078942D01*
X104159447Y-97078942D02*
X104397542Y-97078942D01*
X104397542Y-97078942D02*
X104492780Y-97126561D01*
X104492780Y-97126561D02*
X104540400Y-97174180D01*
X104540400Y-97174180D02*
X104588019Y-97269418D01*
X104588019Y-97269418D02*
X104588019Y-97507513D01*
X104588019Y-97507513D02*
X104540400Y-97602751D01*
X104540400Y-97602751D02*
X104492780Y-97650370D01*
%TO.C,R5*%
X105139833Y-99005819D02*
X104806500Y-98529628D01*
X104568405Y-99005819D02*
X104568405Y-98005819D01*
X104568405Y-98005819D02*
X104949357Y-98005819D01*
X104949357Y-98005819D02*
X105044595Y-98053438D01*
X105044595Y-98053438D02*
X105092214Y-98101057D01*
X105092214Y-98101057D02*
X105139833Y-98196295D01*
X105139833Y-98196295D02*
X105139833Y-98339152D01*
X105139833Y-98339152D02*
X105092214Y-98434390D01*
X105092214Y-98434390D02*
X105044595Y-98482009D01*
X105044595Y-98482009D02*
X104949357Y-98529628D01*
X104949357Y-98529628D02*
X104568405Y-98529628D01*
X106044595Y-98005819D02*
X105568405Y-98005819D01*
X105568405Y-98005819D02*
X105520786Y-98482009D01*
X105520786Y-98482009D02*
X105568405Y-98434390D01*
X105568405Y-98434390D02*
X105663643Y-98386771D01*
X105663643Y-98386771D02*
X105901738Y-98386771D01*
X105901738Y-98386771D02*
X105996976Y-98434390D01*
X105996976Y-98434390D02*
X106044595Y-98482009D01*
X106044595Y-98482009D02*
X106092214Y-98577247D01*
X106092214Y-98577247D02*
X106092214Y-98815342D01*
X106092214Y-98815342D02*
X106044595Y-98910580D01*
X106044595Y-98910580D02*
X105996976Y-98958200D01*
X105996976Y-98958200D02*
X105901738Y-99005819D01*
X105901738Y-99005819D02*
X105663643Y-99005819D01*
X105663643Y-99005819D02*
X105568405Y-98958200D01*
X105568405Y-98958200D02*
X105520786Y-98910580D01*
%TO.C,R4*%
X110094733Y-82421619D02*
X109761400Y-81945428D01*
X109523305Y-82421619D02*
X109523305Y-81421619D01*
X109523305Y-81421619D02*
X109904257Y-81421619D01*
X109904257Y-81421619D02*
X109999495Y-81469238D01*
X109999495Y-81469238D02*
X110047114Y-81516857D01*
X110047114Y-81516857D02*
X110094733Y-81612095D01*
X110094733Y-81612095D02*
X110094733Y-81754952D01*
X110094733Y-81754952D02*
X110047114Y-81850190D01*
X110047114Y-81850190D02*
X109999495Y-81897809D01*
X109999495Y-81897809D02*
X109904257Y-81945428D01*
X109904257Y-81945428D02*
X109523305Y-81945428D01*
X110951876Y-81754952D02*
X110951876Y-82421619D01*
X110713781Y-81374000D02*
X110475686Y-82088285D01*
X110475686Y-82088285D02*
X111094733Y-82088285D01*
%TO.C,R3*%
X110120133Y-84631419D02*
X109786800Y-84155228D01*
X109548705Y-84631419D02*
X109548705Y-83631419D01*
X109548705Y-83631419D02*
X109929657Y-83631419D01*
X109929657Y-83631419D02*
X110024895Y-83679038D01*
X110024895Y-83679038D02*
X110072514Y-83726657D01*
X110072514Y-83726657D02*
X110120133Y-83821895D01*
X110120133Y-83821895D02*
X110120133Y-83964752D01*
X110120133Y-83964752D02*
X110072514Y-84059990D01*
X110072514Y-84059990D02*
X110024895Y-84107609D01*
X110024895Y-84107609D02*
X109929657Y-84155228D01*
X109929657Y-84155228D02*
X109548705Y-84155228D01*
X110453467Y-83631419D02*
X111072514Y-83631419D01*
X111072514Y-83631419D02*
X110739181Y-84012371D01*
X110739181Y-84012371D02*
X110882038Y-84012371D01*
X110882038Y-84012371D02*
X110977276Y-84059990D01*
X110977276Y-84059990D02*
X111024895Y-84107609D01*
X111024895Y-84107609D02*
X111072514Y-84202847D01*
X111072514Y-84202847D02*
X111072514Y-84440942D01*
X111072514Y-84440942D02*
X111024895Y-84536180D01*
X111024895Y-84536180D02*
X110977276Y-84583800D01*
X110977276Y-84583800D02*
X110882038Y-84631419D01*
X110882038Y-84631419D02*
X110596324Y-84631419D01*
X110596324Y-84631419D02*
X110501086Y-84583800D01*
X110501086Y-84583800D02*
X110453467Y-84536180D01*
%TO.C,R2*%
X128090819Y-87468366D02*
X127614628Y-87801699D01*
X128090819Y-88039794D02*
X127090819Y-88039794D01*
X127090819Y-88039794D02*
X127090819Y-87658842D01*
X127090819Y-87658842D02*
X127138438Y-87563604D01*
X127138438Y-87563604D02*
X127186057Y-87515985D01*
X127186057Y-87515985D02*
X127281295Y-87468366D01*
X127281295Y-87468366D02*
X127424152Y-87468366D01*
X127424152Y-87468366D02*
X127519390Y-87515985D01*
X127519390Y-87515985D02*
X127567009Y-87563604D01*
X127567009Y-87563604D02*
X127614628Y-87658842D01*
X127614628Y-87658842D02*
X127614628Y-88039794D01*
X127186057Y-87087413D02*
X127138438Y-87039794D01*
X127138438Y-87039794D02*
X127090819Y-86944556D01*
X127090819Y-86944556D02*
X127090819Y-86706461D01*
X127090819Y-86706461D02*
X127138438Y-86611223D01*
X127138438Y-86611223D02*
X127186057Y-86563604D01*
X127186057Y-86563604D02*
X127281295Y-86515985D01*
X127281295Y-86515985D02*
X127376533Y-86515985D01*
X127376533Y-86515985D02*
X127519390Y-86563604D01*
X127519390Y-86563604D02*
X128090819Y-87135032D01*
X128090819Y-87135032D02*
X128090819Y-86515985D01*
%TO.C,R1*%
X128079833Y-94383019D02*
X127746500Y-93906828D01*
X127508405Y-94383019D02*
X127508405Y-93383019D01*
X127508405Y-93383019D02*
X127889357Y-93383019D01*
X127889357Y-93383019D02*
X127984595Y-93430638D01*
X127984595Y-93430638D02*
X128032214Y-93478257D01*
X128032214Y-93478257D02*
X128079833Y-93573495D01*
X128079833Y-93573495D02*
X128079833Y-93716352D01*
X128079833Y-93716352D02*
X128032214Y-93811590D01*
X128032214Y-93811590D02*
X127984595Y-93859209D01*
X127984595Y-93859209D02*
X127889357Y-93906828D01*
X127889357Y-93906828D02*
X127508405Y-93906828D01*
X129032214Y-94383019D02*
X128460786Y-94383019D01*
X128746500Y-94383019D02*
X128746500Y-93383019D01*
X128746500Y-93383019D02*
X128651262Y-93525876D01*
X128651262Y-93525876D02*
X128556024Y-93621114D01*
X128556024Y-93621114D02*
X128460786Y-93668733D01*
%TO.C,C4*%
X105131533Y-97561780D02*
X105083914Y-97609400D01*
X105083914Y-97609400D02*
X104941057Y-97657019D01*
X104941057Y-97657019D02*
X104845819Y-97657019D01*
X104845819Y-97657019D02*
X104702962Y-97609400D01*
X104702962Y-97609400D02*
X104607724Y-97514161D01*
X104607724Y-97514161D02*
X104560105Y-97418923D01*
X104560105Y-97418923D02*
X104512486Y-97228447D01*
X104512486Y-97228447D02*
X104512486Y-97085590D01*
X104512486Y-97085590D02*
X104560105Y-96895114D01*
X104560105Y-96895114D02*
X104607724Y-96799876D01*
X104607724Y-96799876D02*
X104702962Y-96704638D01*
X104702962Y-96704638D02*
X104845819Y-96657019D01*
X104845819Y-96657019D02*
X104941057Y-96657019D01*
X104941057Y-96657019D02*
X105083914Y-96704638D01*
X105083914Y-96704638D02*
X105131533Y-96752257D01*
X105988676Y-96990352D02*
X105988676Y-97657019D01*
X105750581Y-96609400D02*
X105512486Y-97323685D01*
X105512486Y-97323685D02*
X106131533Y-97323685D01*
D11*
%TO.C,J4*%
X104428400Y-93953800D02*
X104428400Y-91893800D01*
X98608400Y-93953800D02*
X100218400Y-93953800D01*
X98608400Y-86233800D02*
X100218400Y-86233800D01*
X98608400Y-86233800D02*
X98608400Y-93953800D01*
X104428400Y-86233800D02*
X104428400Y-88293800D01*
X104428400Y-88293800D02*
X105018400Y-88293800D01*
X102718400Y-86233800D02*
X104428400Y-86233800D01*
X102718400Y-93953800D02*
X104428400Y-93953800D01*
%TO.C,U7*%
X100320800Y-92211400D02*
G75*
G03*
X100320800Y-90211400I0J1000000D01*
G01*
X136000800Y-84751400D02*
X100320800Y-84751400D01*
X100320800Y-84751400D02*
X100320800Y-90211400D01*
X100320800Y-92211400D02*
X100320800Y-97671400D01*
X136000800Y-97671400D02*
X136000800Y-84751400D01*
X100320800Y-97671400D02*
X136000800Y-97671400D01*
%TO.C,C5*%
X117061348Y-84250200D02*
X117583852Y-84250200D01*
X117061348Y-82780200D02*
X117583852Y-82780200D01*
%TO.C,C2*%
X120657948Y-84250200D02*
X121180452Y-84250200D01*
X120657948Y-82780200D02*
X121180452Y-82780200D01*
%TO.C,U2*%
X120523000Y-92858800D02*
X122723000Y-92858800D01*
X120523000Y-84788800D02*
X116923000Y-84788800D01*
X120523000Y-84788800D02*
X122723000Y-84788800D01*
X120523000Y-92858800D02*
X118323000Y-92858800D01*
%TO.C,J35*%
X103133200Y-96891800D02*
X103133200Y-98221800D01*
X100533200Y-96891800D02*
X100533200Y-99551800D01*
X100473200Y-96891800D02*
X100473200Y-99551800D01*
X100533200Y-99551800D02*
X100473200Y-99551800D01*
X100533200Y-96891800D02*
X100473200Y-96891800D01*
X101803200Y-96891800D02*
X103133200Y-96891800D01*
%TO.C,Y1*%
X116010200Y-99589200D02*
X116010200Y-95889200D01*
X116010200Y-95889200D02*
X110710200Y-95889200D01*
%TO.C,R5*%
X105533564Y-97636000D02*
X105079436Y-97636000D01*
X105533564Y-96166000D02*
X105079436Y-96166000D01*
%TO.C,R4*%
X110034336Y-82881800D02*
X110488464Y-82881800D01*
X110034336Y-84351800D02*
X110488464Y-84351800D01*
%TO.C,R3*%
X110059736Y-85091600D02*
X110513864Y-85091600D01*
X110059736Y-86561600D02*
X110513864Y-86561600D01*
%TO.C,R2*%
X130021000Y-87528764D02*
X130021000Y-87074636D01*
X128551000Y-87528764D02*
X128551000Y-87074636D01*
%TO.C,R1*%
X128473564Y-93013200D02*
X128019436Y-93013200D01*
X128473564Y-91543200D02*
X128019436Y-91543200D01*
%TO.C,C4*%
X105036948Y-99617200D02*
X105559452Y-99617200D01*
X105036948Y-98147200D02*
X105559452Y-98147200D01*
%TD*%
M02*
