%TF.GenerationSoftware,KiCad,Pcbnew,7.0.5-7.0.5~ubuntu20.04.1*%
%TF.CreationDate,2023-07-18T12:45:14+02:00*%
%TF.ProjectId,EpromEMU_TOP_new_STM32F3,4570726f-6d45-44d5-955f-544f505f6e65,rev?*%
%TF.SameCoordinates,Original*%
%TF.FileFunction,Paste,Top*%
%TF.FilePolarity,Positive*%
%FSLAX46Y46*%
G04 Gerber Fmt 4.6, Leading zero omitted, Abs format (unit mm)*
G04 Created by KiCad (PCBNEW 7.0.5-7.0.5~ubuntu20.04.1) date 2023-07-18 12:45:14*
%MOMM*%
%LPD*%
G01*
G04 APERTURE LIST*
G04 Aperture macros list*
%AMRoundRect*
0 Rectangle with rounded corners*
0 $1 Rounding radius*
0 $2 $3 $4 $5 $6 $7 $8 $9 X,Y pos of 4 corners*
0 Add a 4 corners polygon primitive as box body*
4,1,4,$2,$3,$4,$5,$6,$7,$8,$9,$2,$3,0*
0 Add four circle primitives for the rounded corners*
1,1,$1+$1,$2,$3*
1,1,$1+$1,$4,$5*
1,1,$1+$1,$6,$7*
1,1,$1+$1,$8,$9*
0 Add four rect primitives between the rounded corners*
20,1,$1+$1,$2,$3,$4,$5,0*
20,1,$1+$1,$4,$5,$6,$7,0*
20,1,$1+$1,$6,$7,$8,$9,0*
20,1,$1+$1,$8,$9,$2,$3,0*%
G04 Aperture macros list end*
%ADD10R,1.400000X0.400000*%
%ADD11R,1.900000X2.300000*%
%ADD12R,1.900000X1.800000*%
%ADD13RoundRect,0.250000X-0.250000X-0.475000X0.250000X-0.475000X0.250000X0.475000X-0.250000X0.475000X0*%
%ADD14RoundRect,0.100000X-0.637500X-0.100000X0.637500X-0.100000X0.637500X0.100000X-0.637500X0.100000X0*%
%ADD15R,1.600000X1.300000*%
%ADD16RoundRect,0.250000X0.262500X0.450000X-0.262500X0.450000X-0.262500X-0.450000X0.262500X-0.450000X0*%
%ADD17RoundRect,0.250000X-0.262500X-0.450000X0.262500X-0.450000X0.262500X0.450000X-0.262500X0.450000X0*%
%ADD18RoundRect,0.250000X0.450000X-0.262500X0.450000X0.262500X-0.450000X0.262500X-0.450000X-0.262500X0*%
G04 APERTURE END LIST*
D10*
%TO.C,J4*%
X104318400Y-88793800D03*
X104318400Y-89443800D03*
X104318400Y-90093800D03*
X104318400Y-90743800D03*
X104318400Y-91393800D03*
D11*
X101468400Y-93843800D03*
D12*
X101468400Y-91243800D03*
D11*
X101468400Y-86343800D03*
D12*
X101468400Y-88943800D03*
%TD*%
D13*
%TO.C,C5*%
X116372600Y-83515200D03*
X118272600Y-83515200D03*
%TD*%
%TO.C,C2*%
X119969200Y-83515200D03*
X121869200Y-83515200D03*
%TD*%
D14*
%TO.C,U2*%
X117660500Y-85248800D03*
X117660500Y-85898800D03*
X117660500Y-86548800D03*
X117660500Y-87198800D03*
X117660500Y-87848800D03*
X117660500Y-88498800D03*
X117660500Y-89148800D03*
X117660500Y-89798800D03*
X117660500Y-90448800D03*
X117660500Y-91098800D03*
X117660500Y-91748800D03*
X117660500Y-92398800D03*
X123385500Y-92398800D03*
X123385500Y-91748800D03*
X123385500Y-91098800D03*
X123385500Y-90448800D03*
X123385500Y-89798800D03*
X123385500Y-89148800D03*
X123385500Y-88498800D03*
X123385500Y-87848800D03*
X123385500Y-87198800D03*
X123385500Y-86548800D03*
X123385500Y-85898800D03*
X123385500Y-85248800D03*
%TD*%
D15*
%TO.C,Y1*%
X115010200Y-98739200D03*
X111710200Y-98739200D03*
X111710200Y-96739200D03*
X115010200Y-96739200D03*
%TD*%
D16*
%TO.C,R5*%
X106219000Y-96901000D03*
X104394000Y-96901000D03*
%TD*%
D17*
%TO.C,R4*%
X109348900Y-83616800D03*
X111173900Y-83616800D03*
%TD*%
%TO.C,R3*%
X109374300Y-85826600D03*
X111199300Y-85826600D03*
%TD*%
D18*
%TO.C,R2*%
X129286000Y-86389200D03*
X129286000Y-88214200D03*
%TD*%
D16*
%TO.C,R1*%
X129159000Y-92278200D03*
X127334000Y-92278200D03*
%TD*%
D13*
%TO.C,C4*%
X104348200Y-98882200D03*
X106248200Y-98882200D03*
%TD*%
M02*
