%TF.GenerationSoftware,KiCad,Pcbnew,7.0.5-7.0.5~ubuntu20.04.1*%
%TF.CreationDate,2023-07-18T12:45:13+02:00*%
%TF.ProjectId,EpromEMU_TOP_new_STM32F3,4570726f-6d45-44d5-955f-544f505f6e65,rev?*%
%TF.SameCoordinates,Original*%
%TF.FileFunction,Copper,L2,Bot*%
%TF.FilePolarity,Positive*%
%FSLAX46Y46*%
G04 Gerber Fmt 4.6, Leading zero omitted, Abs format (unit mm)*
G04 Created by KiCad (PCBNEW 7.0.5-7.0.5~ubuntu20.04.1) date 2023-07-18 12:45:13*
%MOMM*%
%LPD*%
G01*
G04 APERTURE LIST*
G04 Aperture macros list*
%AMRoundRect*
0 Rectangle with rounded corners*
0 $1 Rounding radius*
0 $2 $3 $4 $5 $6 $7 $8 $9 X,Y pos of 4 corners*
0 Add a 4 corners polygon primitive as box body*
4,1,4,$2,$3,$4,$5,$6,$7,$8,$9,$2,$3,0*
0 Add four circle primitives for the rounded corners*
1,1,$1+$1,$2,$3*
1,1,$1+$1,$4,$5*
1,1,$1+$1,$6,$7*
1,1,$1+$1,$8,$9*
0 Add four rect primitives between the rounded corners*
20,1,$1+$1,$2,$3,$4,$5,0*
20,1,$1+$1,$4,$5,$6,$7,0*
20,1,$1+$1,$6,$7,$8,$9,0*
20,1,$1+$1,$8,$9,$2,$3,0*%
G04 Aperture macros list end*
%TA.AperFunction,ComponentPad*%
%ADD10C,0.800000*%
%TD*%
%TA.AperFunction,ComponentPad*%
%ADD11O,1.600000X1.600000*%
%TD*%
%TA.AperFunction,ComponentPad*%
%ADD12R,1.700000X1.700000*%
%TD*%
%TA.AperFunction,SMDPad,CuDef*%
%ADD13RoundRect,0.075000X0.415425X-0.521491X0.521491X-0.415425X-0.415425X0.521491X-0.521491X0.415425X0*%
%TD*%
%TA.AperFunction,SMDPad,CuDef*%
%ADD14RoundRect,0.075000X-0.415425X-0.521491X0.521491X0.415425X0.415425X0.521491X-0.521491X-0.415425X0*%
%TD*%
%TA.AperFunction,SMDPad,CuDef*%
%ADD15RoundRect,0.250000X-0.262500X-0.450000X0.262500X-0.450000X0.262500X0.450000X-0.262500X0.450000X0*%
%TD*%
%TA.AperFunction,SMDPad,CuDef*%
%ADD16R,1.900000X0.800000*%
%TD*%
%TA.AperFunction,SMDPad,CuDef*%
%ADD17RoundRect,0.150000X-0.512500X-0.150000X0.512500X-0.150000X0.512500X0.150000X-0.512500X0.150000X0*%
%TD*%
%TA.AperFunction,SMDPad,CuDef*%
%ADD18RoundRect,0.250000X-0.250000X-0.475000X0.250000X-0.475000X0.250000X0.475000X-0.250000X0.475000X0*%
%TD*%
%TA.AperFunction,SMDPad,CuDef*%
%ADD19RoundRect,0.250000X0.250000X0.475000X-0.250000X0.475000X-0.250000X-0.475000X0.250000X-0.475000X0*%
%TD*%
%TA.AperFunction,ViaPad*%
%ADD20C,0.600000*%
%TD*%
%TA.AperFunction,Conductor*%
%ADD21C,0.200000*%
%TD*%
%TA.AperFunction,Conductor*%
%ADD22C,0.300000*%
%TD*%
G04 APERTURE END LIST*
D10*
%TO.P,J40,1,Pin_1*%
%TO.N,/uA16*%
X111658400Y-95123000D03*
%TD*%
%TO.P,J39,1,Pin_1*%
%TO.N,/SWCLK*%
X127685800Y-93853000D03*
%TD*%
%TO.P,J38,1,Pin_1*%
%TO.N,/RX*%
X127863600Y-89281000D03*
%TD*%
%TO.P,J36,1,Pin_1*%
%TO.N,/TX*%
X126669800Y-88925400D03*
%TD*%
%TO.P,J37,1,Pin_1*%
%TO.N,/SWDIO*%
X128981200Y-89560400D03*
%TD*%
%TO.P,J34,1,Pin_1*%
%TO.N,/~{DOE}*%
X113893600Y-86563200D03*
%TD*%
%TO.P,J29,1,Pin_1*%
%TO.N,GND*%
X106375200Y-93649800D03*
%TD*%
%TO.P,J28,1,Pin_1*%
%TO.N,/BATT*%
X107111800Y-91948000D03*
%TD*%
D11*
%TO.P,U7,28,VCC*%
%TO.N,+5V*%
X101650800Y-83591400D03*
%TO.P,U7,19,D7*%
%TO.N,/ED7*%
X124510800Y-83591400D03*
%TO.P,U7,18,D6*%
%TO.N,/ED6*%
X127050800Y-83591400D03*
%TO.P,U7,17,D5*%
%TO.N,/ED5*%
X129590800Y-83591400D03*
%TO.P,U7,16,D4*%
%TO.N,/ED4*%
X132130800Y-83591400D03*
%TO.P,U7,15,D3*%
%TO.N,/ED3*%
X134670800Y-83591400D03*
%TO.P,U7,14,GND*%
%TO.N,GND*%
X134670800Y-98831400D03*
%TO.P,U7,13,D2*%
%TO.N,/ED2*%
X132130800Y-98831400D03*
%TO.P,U7,12,D1*%
%TO.N,/ED1*%
X129590800Y-98831400D03*
%TO.P,U7,11,D0*%
%TO.N,/ED0*%
X127050800Y-98831400D03*
%TD*%
D10*
%TO.P,J31,1,Pin_1*%
%TO.N,/~{OERAM}*%
X113868200Y-94843600D03*
%TD*%
%TO.P,J2,1,Pin_1*%
%TO.N,Net-(J2-Pin_1)*%
X120853200Y-98933000D03*
%TD*%
%TO.P,J32,1,Pin_1*%
%TO.N,/~{WERAM}*%
X113436400Y-90652600D03*
%TD*%
%TO.P,J26,1,Pin_1*%
%TO.N,/D6*%
X109267600Y-90779600D03*
%TD*%
%TO.P,J13,1,Pin_1*%
%TO.N,/A9*%
X133451600Y-88112600D03*
%TD*%
%TO.P,J9,1,Pin_1*%
%TO.N,/A5*%
X132232400Y-93726000D03*
%TD*%
%TO.P,J14,1,Pin_1*%
%TO.N,/A10*%
X132283200Y-86715600D03*
%TD*%
%TO.P,J15,1,Pin_1*%
%TO.N,/A11*%
X133451600Y-86944200D03*
%TD*%
%TO.P,J12,1,Pin_1*%
%TO.N,/A8*%
X131267200Y-88392000D03*
%TD*%
%TO.P,J24,1,Pin_1*%
%TO.N,/D4*%
X109143800Y-92989400D03*
%TD*%
%TO.P,J17,1,Pin_1*%
%TO.N,/A13*%
X132384800Y-89103200D03*
%TD*%
%TO.P,J8,1,Pin_1*%
%TO.N,/A4*%
X131038600Y-93751400D03*
%TD*%
%TO.P,J25,1,Pin_1*%
%TO.N,/D5*%
X107899200Y-92964000D03*
%TD*%
%TO.P,J22,1,Pin_1*%
%TO.N,/D2*%
X109778800Y-94513400D03*
%TD*%
%TO.P,J30,1,Pin_1*%
%TO.N,+3V3*%
X112776000Y-86868000D03*
%TD*%
%TO.P,J11,1,Pin_1*%
%TO.N,/A7*%
X132308600Y-91795600D03*
%TD*%
%TO.P,J23,1,Pin_1*%
%TO.N,/D3*%
X108508800Y-94640400D03*
%TD*%
%TO.P,J20,1,Pin_1*%
%TO.N,/D0*%
X109982000Y-96023800D03*
%TD*%
%TO.P,J10,1,Pin_1*%
%TO.N,/A6*%
X133477000Y-93700600D03*
%TD*%
%TO.P,J1,1,Pin_1*%
%TO.N,/A0*%
X133426200Y-95758000D03*
%TD*%
%TO.P,J21,1,Pin_1*%
%TO.N,/D1*%
X108762800Y-96012000D03*
%TD*%
%TO.P,J7,1,Pin_1*%
%TO.N,/A3*%
X132867400Y-94716600D03*
%TD*%
%TO.P,J16,1,Pin_1*%
%TO.N,/A12*%
X134645400Y-88087200D03*
%TD*%
%TO.P,J19,1,Pin_1*%
%TO.N,/A15*%
X133883400Y-90449400D03*
%TD*%
%TO.P,J27,1,Pin_1*%
%TO.N,/D7*%
X108199200Y-91567000D03*
%TD*%
%TO.P,J5,1,Pin_1*%
%TO.N,/A1*%
X131089400Y-95732600D03*
%TD*%
%TO.P,J33,1,Pin_1*%
%TO.N,/~{AOE}*%
X112318800Y-91033600D03*
%TD*%
%TO.P,J18,1,Pin_1*%
%TO.N,/A14*%
X133883400Y-89230200D03*
%TD*%
%TO.P,J6,1,Pin_1*%
%TO.N,/A2*%
X132257800Y-95732600D03*
%TD*%
D12*
%TO.P,J35,1,Pin_1*%
%TO.N,/~{extRST}*%
X101803200Y-98221800D03*
%TD*%
D13*
%TO.P,U1,48,VDD*%
%TO.N,+3V3*%
X121783973Y-97295125D03*
%TO.P,U1,47,VSS*%
%TO.N,GND*%
X122137527Y-96941571D03*
%TO.P,U1,46,PB9*%
%TO.N,/A9*%
X122491080Y-96588018D03*
%TO.P,U1,45,PB8*%
%TO.N,/A8*%
X122844634Y-96234464D03*
%TO.P,U1,44,BOOT0*%
%TO.N,Net-(J2-Pin_1)*%
X123198187Y-95880911D03*
%TO.P,U1,43,PB7*%
%TO.N,/A7*%
X123551740Y-95527358D03*
%TO.P,U1,42,PB6*%
%TO.N,/A6*%
X123905294Y-95173804D03*
%TO.P,U1,41,PB5*%
%TO.N,/A5*%
X124258847Y-94820251D03*
%TO.P,U1,40,PB4*%
%TO.N,/A4*%
X124612400Y-94466698D03*
%TO.P,U1,39,PB3*%
%TO.N,/A3*%
X124965954Y-94113144D03*
%TO.P,U1,38,PA15*%
%TO.N,Net-(Q2-G)*%
X125319507Y-93759591D03*
%TO.P,U1,37,PA14*%
%TO.N,/SWCLK*%
X125673061Y-93406037D03*
D14*
%TO.P,U1,36,VDD*%
%TO.N,+3V3*%
X125673061Y-91408461D03*
%TO.P,U1,35,VSS*%
%TO.N,GND*%
X125319507Y-91054907D03*
%TO.P,U1,34,PA13*%
%TO.N,/SWDIO*%
X124965954Y-90701354D03*
%TO.P,U1,33,PA12*%
%TO.N,/DP*%
X124612400Y-90347800D03*
%TO.P,U1,32,PA11*%
%TO.N,/DM*%
X124258847Y-89994247D03*
%TO.P,U1,31,PA10*%
%TO.N,/RX*%
X123905294Y-89640694D03*
%TO.P,U1,30,PA9*%
%TO.N,/TX*%
X123551740Y-89287140D03*
%TO.P,U1,29,PA8*%
%TO.N,/~{DISC}*%
X123198187Y-88933587D03*
%TO.P,U1,28,PB15*%
%TO.N,/A15*%
X122844634Y-88580034D03*
%TO.P,U1,27,PB14*%
%TO.N,/A14*%
X122491080Y-88226480D03*
%TO.P,U1,26,PB13*%
%TO.N,/A13*%
X122137527Y-87872927D03*
%TO.P,U1,25,PB12*%
%TO.N,/A12*%
X121783973Y-87519373D03*
D13*
%TO.P,U1,24,VDD*%
%TO.N,+3V3*%
X119786397Y-87519373D03*
%TO.P,U1,23,VSS*%
%TO.N,GND*%
X119432843Y-87872927D03*
%TO.P,U1,22,PB11*%
%TO.N,/A11*%
X119079290Y-88226480D03*
%TO.P,U1,21,PB10*%
%TO.N,/A10*%
X118725736Y-88580034D03*
%TO.P,U1,20,PB2*%
%TO.N,/A2*%
X118372183Y-88933587D03*
%TO.P,U1,19,PB1*%
%TO.N,/A1*%
X118018630Y-89287140D03*
%TO.P,U1,18,PB0*%
%TO.N,/A0*%
X117665076Y-89640694D03*
%TO.P,U1,17,PA7*%
%TO.N,/D7*%
X117311523Y-89994247D03*
%TO.P,U1,16,PA6*%
%TO.N,/D6*%
X116957970Y-90347800D03*
%TO.P,U1,15,PA5*%
%TO.N,/D5*%
X116604416Y-90701354D03*
%TO.P,U1,14,PA4*%
%TO.N,/D4*%
X116250863Y-91054907D03*
%TO.P,U1,13,PA3*%
%TO.N,/D3*%
X115897309Y-91408461D03*
D14*
%TO.P,U1,12,PA2*%
%TO.N,/D2*%
X115897309Y-93406037D03*
%TO.P,U1,11,PA1*%
%TO.N,/D1*%
X116250863Y-93759591D03*
%TO.P,U1,10,PA0*%
%TO.N,/D0*%
X116604416Y-94113144D03*
%TO.P,U1,9,VDDA*%
%TO.N,+3V3*%
X116957970Y-94466698D03*
%TO.P,U1,8,VSSA*%
%TO.N,GND*%
X117311523Y-94820251D03*
%TO.P,U1,7,NRST*%
%TO.N,/~{sRST}*%
X117665076Y-95173804D03*
%TO.P,U1,6,PF1*%
%TO.N,/OSC1*%
X118018630Y-95527358D03*
%TO.P,U1,5,PF0*%
%TO.N,/OSC0*%
X118372183Y-95880911D03*
%TO.P,U1,4,PC15*%
%TO.N,/~{AOE}*%
X118725736Y-96234464D03*
%TO.P,U1,3,PC14*%
%TO.N,/~{OERAM}*%
X119079290Y-96588018D03*
%TO.P,U1,2,PC13*%
%TO.N,/~{WERAM}*%
X119432843Y-96941571D03*
%TO.P,U1,1,VBAT*%
%TO.N,+3V3*%
X119786397Y-97295125D03*
%TD*%
D15*
%TO.P,R6,1*%
%TO.N,Net-(J2-Pin_1)*%
X123318900Y-98907600D03*
%TO.P,R6,2*%
%TO.N,GND*%
X125143900Y-98907600D03*
%TD*%
D16*
%TO.P,Q2,1,G*%
%TO.N,Net-(Q2-G)*%
X107494200Y-97246400D03*
%TO.P,Q2,2,S*%
%TO.N,GND*%
X107494200Y-99146400D03*
%TO.P,Q2,3,D*%
%TO.N,/~{extRST}*%
X104494200Y-98196400D03*
%TD*%
D17*
%TO.P,Q1,1,G*%
%TO.N,/~{DISC}*%
X128458800Y-92491600D03*
%TO.P,Q1,2,S*%
%TO.N,+3V3*%
X128458800Y-90591600D03*
%TO.P,Q1,3,D*%
%TO.N,Net-(Q1-D)*%
X130733800Y-91541600D03*
%TD*%
D10*
%TO.P,J3,1,Pin_1*%
%TO.N,+3V3*%
X119684800Y-98958400D03*
%TD*%
D18*
%TO.P,C3,1*%
%TO.N,/OSC0*%
X113451600Y-98983800D03*
%TO.P,C3,2*%
%TO.N,GND*%
X115351600Y-98983800D03*
%TD*%
D19*
%TO.P,C1,1*%
%TO.N,/OSC1*%
X115341400Y-96926400D03*
%TO.P,C1,2*%
%TO.N,GND*%
X113441400Y-96926400D03*
%TD*%
D20*
%TO.N,Net-(J4-D+)*%
X109374300Y-85826600D03*
%TO.N,/~{sRST}*%
X104348200Y-99065902D03*
%TO.N,+3V3*%
X120675400Y-94665800D03*
%TO.N,GND*%
X107494200Y-99146400D03*
X121996200Y-99187000D03*
X115351600Y-98729800D03*
X111710200Y-96777100D03*
%TO.N,/OSC0*%
X111710200Y-98739200D03*
%TO.N,/OSC1*%
X115010200Y-96739192D03*
%TO.N,Net-(Q2-G)*%
X107494200Y-97246400D03*
%TO.N,/DP*%
X115544600Y-86182200D03*
%TO.N,/DM*%
X115773200Y-85394800D03*
%TO.N,+5V*%
X120045387Y-83464387D03*
%TO.N,GND*%
X121869200Y-83515200D03*
%TO.N,Net-(J4-D+)*%
X128417483Y-85663450D03*
%TO.N,/~{DISC}*%
X129159000Y-92278200D03*
%TO.N,Net-(Q1-D)*%
X134416800Y-91770200D03*
%TO.N,/DM*%
X120548400Y-85509000D03*
%TO.N,/DP*%
X119634000Y-85496400D03*
X121081801Y-91119400D03*
%TO.N,/DM*%
X121816834Y-90792400D03*
%TO.N,/~{AOE}*%
X117747501Y-97640800D03*
%TO.N,/~{OERAM}*%
X118337076Y-98197923D03*
%TO.N,/~{WERAM}*%
X119292235Y-95020165D03*
%TO.N,/~{DOE}*%
X122043329Y-85182000D03*
%TO.N,+3V3*%
X119880211Y-87434589D03*
%TO.N,Net-(J2-Pin_1)*%
X120929400Y-96189800D03*
%TO.N,GND*%
X125143900Y-98907600D03*
X121596294Y-95208501D03*
%TO.N,Net-(Q2-G)*%
X128778000Y-94615000D03*
%TO.N,+3V3*%
X122708917Y-94642337D03*
X121809098Y-97516369D03*
%TO.N,/A0*%
X119103877Y-93341942D03*
%TO.N,GND*%
X123621800Y-92418300D03*
%TO.N,/A15*%
X130343200Y-89805239D03*
%TO.N,/A14*%
X131274959Y-89831848D03*
%TO.N,/A12*%
X130986559Y-87092000D03*
%TO.N,GND*%
X122115428Y-92379082D03*
%TO.N,/A2*%
X121019269Y-93103802D03*
%TO.N,/A1*%
X120040400Y-93243400D03*
%TO.N,/A3*%
X129921000Y-93878400D03*
%TO.N,GND*%
X118109801Y-83245400D03*
%TO.N,+3V3*%
X116309044Y-83527974D03*
%TD*%
D21*
%TO.N,+3V3*%
X119786397Y-87519373D02*
X120450000Y-88182976D01*
X122690882Y-91779082D02*
X122859800Y-91948000D01*
X120450000Y-88182976D02*
X120450000Y-91336352D01*
X120450000Y-91336352D02*
X120892730Y-91779082D01*
X120892730Y-91779082D02*
X122690882Y-91779082D01*
X122859800Y-91948000D02*
X122859800Y-92773078D01*
X122859800Y-92773078D02*
X123152322Y-93065600D01*
X123152322Y-93065600D02*
X124015922Y-93065600D01*
%TO.N,GND*%
X125319507Y-91054907D02*
X123956114Y-92418300D01*
X123956114Y-92418300D02*
X123621800Y-92418300D01*
X119945781Y-88385865D02*
X119945781Y-91421581D01*
%TO.N,/A2*%
X119535600Y-90097004D02*
X119535600Y-91620133D01*
X119535600Y-91620133D02*
X121019269Y-93103802D01*
%TO.N,GND*%
X121596294Y-95208501D02*
X121596294Y-93499122D01*
X119432843Y-87872927D02*
X119945781Y-88385865D01*
X119945781Y-91421581D02*
X120903282Y-92379082D01*
%TO.N,/A2*%
X118372183Y-88933587D02*
X119535600Y-90097004D01*
%TO.N,GND*%
X122115428Y-92979988D02*
X122115428Y-92379082D01*
X121596294Y-93499122D02*
X122115428Y-92979988D01*
X120903282Y-92379082D02*
X122115428Y-92379082D01*
%TO.N,/A0*%
X117665076Y-89640694D02*
X118881600Y-90857218D01*
%TO.N,+3V3*%
X117470908Y-93953760D02*
X119963360Y-93953760D01*
%TO.N,/A1*%
X118018630Y-89287140D02*
X119208600Y-90477110D01*
X119208600Y-90477110D02*
X119208600Y-92411600D01*
X119208600Y-92411600D02*
X120040400Y-93243400D01*
%TO.N,+3V3*%
X116957970Y-94466698D02*
X117470908Y-93953760D01*
X119963360Y-93953760D02*
X120675400Y-94665800D01*
%TO.N,/A0*%
X118881600Y-93119665D02*
X119103877Y-93341942D01*
X118881600Y-90857218D02*
X118881600Y-93119665D01*
%TO.N,Net-(Q2-G)*%
X128320800Y-95072200D02*
X128778000Y-94615000D01*
X126632116Y-95072200D02*
X128320800Y-95072200D01*
X125319507Y-93759591D02*
X126632116Y-95072200D01*
%TO.N,/A3*%
X126252010Y-95399200D02*
X128967691Y-95399200D01*
X128967691Y-95399200D02*
X129921000Y-94445891D01*
X124965954Y-94113144D02*
X126252010Y-95399200D01*
%TO.N,/A4*%
X131038600Y-93837929D02*
X131038600Y-93751400D01*
X125903702Y-95758000D02*
X129118529Y-95758000D01*
X129118529Y-95758000D02*
X131038600Y-93837929D01*
X124612400Y-94466698D02*
X125903702Y-95758000D01*
%TO.N,/A3*%
X129921000Y-94445891D02*
X129921000Y-93878400D01*
%TO.N,/A8*%
X132591850Y-90300200D02*
X131267200Y-88975550D01*
%TO.N,/A15*%
X126559696Y-87890400D02*
X126567696Y-87898400D01*
X122844634Y-88580034D02*
X123524868Y-87899800D01*
X126567696Y-87898400D02*
X128771598Y-87898400D01*
X130343200Y-89470002D02*
X130343200Y-89805239D01*
%TO.N,/~{DISC}*%
X123904974Y-88226800D02*
X124149632Y-88226800D01*
%TO.N,/A15*%
X123524868Y-87899800D02*
X124014184Y-87899800D01*
%TO.N,/~{DISC}*%
X124149632Y-88226800D02*
X124159032Y-88217400D01*
%TO.N,/A8*%
X134438350Y-90884400D02*
X134173350Y-91149400D01*
X132744250Y-90300200D02*
X132591850Y-90300200D01*
%TO.N,/A14*%
X123878736Y-87572800D02*
X123888136Y-87563400D01*
%TO.N,/~{DISC}*%
X124159032Y-88217400D02*
X126424248Y-88217400D01*
%TO.N,/A8*%
X135074000Y-91075952D02*
X134882448Y-90884400D01*
%TO.N,/A14*%
X126703144Y-87571400D02*
X129014511Y-87571400D01*
%TO.N,/A8*%
X123775834Y-97171800D02*
X134207296Y-97171800D01*
%TO.N,/A14*%
X123888136Y-87563400D02*
X126695144Y-87563400D01*
%TO.N,/A8*%
X134207296Y-97171800D02*
X135074000Y-96305096D01*
X135074000Y-96305096D02*
X135074000Y-91075952D01*
%TO.N,/A14*%
X126695144Y-87563400D02*
X126703144Y-87571400D01*
%TO.N,/~{DISC}*%
X126424248Y-88217400D02*
X126432248Y-88225400D01*
%TO.N,/A8*%
X134882448Y-90884400D02*
X134438350Y-90884400D01*
%TO.N,/A14*%
X129014511Y-87571400D02*
X131274959Y-89831848D01*
%TO.N,/A15*%
X124014184Y-87899800D02*
X124023584Y-87890400D01*
%TO.N,/A14*%
X123144760Y-87572800D02*
X123878736Y-87572800D01*
%TO.N,/A8*%
X133593450Y-91149400D02*
X132744250Y-90300200D01*
%TO.N,/A14*%
X122491080Y-88226480D02*
X123144760Y-87572800D01*
%TO.N,/~{DISC}*%
X129743200Y-89332450D02*
X129743200Y-91207200D01*
X123198187Y-88933587D02*
X123904974Y-88226800D01*
%TO.N,/A8*%
X123775834Y-97165664D02*
X123775834Y-97171800D01*
%TO.N,/A15*%
X128771598Y-87898400D02*
X130343200Y-89470002D01*
%TO.N,/~{DISC}*%
X126432248Y-88225400D02*
X128636150Y-88225400D01*
%TO.N,/A8*%
X122844634Y-96234464D02*
X123775834Y-97165664D01*
X134173350Y-91149400D02*
X133593450Y-91149400D01*
%TO.N,/~{DISC}*%
X128636150Y-88225400D02*
X129743200Y-89332450D01*
X129743200Y-91207200D02*
X128458800Y-92491600D01*
%TO.N,/A15*%
X124023584Y-87890400D02*
X126559696Y-87890400D01*
%TO.N,/A8*%
X131267200Y-88975550D02*
X131267200Y-88392000D01*
%TO.N,/~{sRST}*%
X117665076Y-95173804D02*
X116928480Y-95910400D01*
X116928480Y-95910400D02*
X112776000Y-95910400D01*
X112776000Y-95910400D02*
X112623600Y-96062800D01*
X112623600Y-96062800D02*
X111125000Y-96062800D01*
X111125000Y-96062800D02*
X109245400Y-97942400D01*
X109245400Y-97942400D02*
X106638200Y-97942400D01*
X106638200Y-97942400D02*
X105514698Y-99065902D01*
X105514698Y-99065902D02*
X104348200Y-99065902D01*
%TO.N,GND*%
X113441400Y-96926400D02*
X113292100Y-96777100D01*
X113292100Y-96777100D02*
X111710200Y-96777100D01*
X107494200Y-99146400D02*
X109340900Y-99146400D01*
X109340900Y-99146400D02*
X111710200Y-96777100D01*
%TO.N,/D0*%
X109982000Y-96023800D02*
X110820200Y-95185600D01*
X110820200Y-95185600D02*
X110820200Y-94843600D01*
X110820200Y-94843600D02*
X111328200Y-94335600D01*
X111328200Y-94335600D02*
X112355400Y-94335600D01*
X112355400Y-94335600D02*
X113563400Y-95543600D01*
X113563400Y-95543600D02*
X115173960Y-95543600D01*
X115173960Y-95543600D02*
X116604416Y-94113144D01*
%TO.N,/D1*%
X114514400Y-94143600D02*
X114833400Y-94462600D01*
X108762800Y-96012000D02*
X109451000Y-95323800D01*
X110493200Y-94840400D02*
X110493200Y-94180000D01*
X109451000Y-95323800D02*
X110009800Y-95323800D01*
X110493200Y-94180000D02*
X111379000Y-93294200D01*
X114833400Y-94462600D02*
X115547854Y-94462600D01*
X111379000Y-93294200D02*
X114274600Y-93294200D01*
X114274600Y-93294200D02*
X114514400Y-93534000D01*
X110009800Y-95323800D02*
X110493200Y-94840400D01*
X114514400Y-93534000D02*
X114514400Y-94143600D01*
X115547854Y-94462600D02*
X116250863Y-93759591D01*
%TO.N,/D2*%
X115458472Y-92967200D02*
X110759315Y-92967200D01*
X115897309Y-93406037D02*
X115458472Y-92967200D01*
X109778800Y-93947715D02*
X109778800Y-94513400D01*
X110759315Y-92967200D02*
X109778800Y-93947715D01*
%TO.N,/D7*%
X117311523Y-89994247D02*
X115866276Y-88549000D01*
X115866276Y-88549000D02*
X110308250Y-88549000D01*
X110308250Y-88549000D02*
X108199200Y-90658050D01*
X108199200Y-90658050D02*
X108199200Y-91567000D01*
%TO.N,/D6*%
X116957970Y-90347800D02*
X115486170Y-88876000D01*
X115486170Y-88876000D02*
X112846392Y-88876000D01*
X112846392Y-88876000D02*
X112631992Y-89090400D01*
X112631992Y-89090400D02*
X110956800Y-89090400D01*
X110956800Y-89090400D02*
X109267600Y-90779600D01*
%TO.N,/D3*%
X111970696Y-90071400D02*
X110096300Y-91945796D01*
%TO.N,/D5*%
X116604416Y-90701354D02*
X115106062Y-89203000D01*
X112981840Y-89203000D02*
X112767440Y-89417400D01*
%TO.N,/D4*%
X112902888Y-89744400D02*
X111835248Y-89744400D01*
%TO.N,/D3*%
X114407848Y-89919000D02*
X113190736Y-89919000D01*
%TO.N,/D4*%
X116250863Y-91054907D02*
X114787956Y-89592000D01*
X114787956Y-89592000D02*
X113055288Y-89592000D01*
X109143800Y-92435848D02*
X109143800Y-92989400D01*
X113055288Y-89592000D02*
X112902888Y-89744400D01*
X111835248Y-89744400D02*
X109143800Y-92435848D01*
%TO.N,/D3*%
X115897309Y-91408461D02*
X114407848Y-89919000D01*
X113190736Y-89919000D02*
X113038336Y-90071400D01*
X113038336Y-90071400D02*
X111970696Y-90071400D01*
X110096300Y-93052900D02*
X108508800Y-94640400D01*
X110096300Y-91945796D02*
X110096300Y-93052900D01*
%TO.N,/D5*%
X115106062Y-89203000D02*
X112981840Y-89203000D01*
X112767440Y-89417400D02*
X111699800Y-89417400D01*
X111699800Y-89417400D02*
X108153200Y-92964000D01*
X108153200Y-92964000D02*
X107899200Y-92964000D01*
%TO.N,Net-(J4-D+)*%
X113878750Y-87568000D02*
X112598200Y-87568000D01*
X111115700Y-87568000D02*
X109374300Y-85826600D01*
X112598200Y-87568000D02*
X111115700Y-87568000D01*
%TO.N,/OSC1*%
X116128800Y-96822030D02*
X115445770Y-96822030D01*
X115445770Y-96822030D02*
X115341400Y-96926400D01*
%TO.N,/OSC0*%
X118372183Y-95880911D02*
X116310694Y-97942400D01*
X116310694Y-97942400D02*
X114493000Y-97942400D01*
X114493000Y-97942400D02*
X113451600Y-98983800D01*
X113207000Y-98739200D02*
X111710200Y-98739200D01*
%TO.N,GND*%
X121524800Y-99658400D02*
X121996200Y-99187000D01*
X115351600Y-98983800D02*
X116026200Y-99658400D01*
%TO.N,/OSC0*%
X113451600Y-98983800D02*
X113207000Y-98739200D01*
%TO.N,GND*%
X116026200Y-99658400D02*
X121524800Y-99658400D01*
%TO.N,Net-(J2-Pin_1)*%
X121463524Y-96189800D02*
X120929400Y-96189800D01*
X122685249Y-95367973D02*
X122285351Y-95367973D01*
X123198187Y-95880911D02*
X122685249Y-95367973D01*
X122285351Y-95367973D02*
X121463524Y-96189800D01*
%TO.N,GND*%
X117824774Y-94307000D02*
X119427600Y-94307000D01*
X119427600Y-94307000D02*
X120392800Y-95272200D01*
X121532595Y-95272200D02*
X121596294Y-95208501D01*
X117311523Y-94820251D02*
X117824774Y-94307000D01*
X120392800Y-95272200D02*
X121532595Y-95272200D01*
%TO.N,+3V3*%
X122708917Y-94372605D02*
X122708917Y-94642337D01*
X124015922Y-93065600D02*
X122708917Y-94372605D01*
%TO.N,/~{WERAM}*%
X119945781Y-95673711D02*
X119292235Y-95020165D01*
X119945781Y-96428633D02*
X119945781Y-95673711D01*
X119432843Y-96941571D02*
X119945781Y-96428633D01*
D22*
%TO.N,/~{extRST}*%
X104494200Y-98196400D02*
X101828600Y-98196400D01*
X101828600Y-98196400D02*
X101803200Y-98221800D01*
D21*
%TO.N,/OSC1*%
X115093038Y-96822030D02*
X115010200Y-96739192D01*
X116128800Y-96822030D02*
X115093038Y-96822030D01*
%TO.N,+3V3*%
X120007641Y-97516369D02*
X121809098Y-97516369D01*
X121783973Y-97295125D02*
X121783973Y-97491244D01*
X119786397Y-97295125D02*
X120007641Y-97516369D01*
X121783973Y-97491244D02*
X121809098Y-97516369D01*
%TO.N,Net-(J2-Pin_1)*%
X122636300Y-98225000D02*
X121561200Y-98225000D01*
X123318900Y-98907600D02*
X122636300Y-98225000D01*
X121561200Y-98225000D02*
X120853200Y-98933000D01*
%TO.N,/OSC1*%
X116723958Y-96822030D02*
X116128800Y-96822030D01*
X118018630Y-95527358D02*
X116723958Y-96822030D01*
%TO.N,+5V*%
X120045387Y-83464387D02*
X119227613Y-83464387D01*
X119227613Y-83464387D02*
X118719600Y-83972400D01*
X101650800Y-83108800D02*
X101650800Y-83591400D01*
X118719600Y-83972400D02*
X117932200Y-83972400D01*
X117932200Y-83972400D02*
X116259800Y-82300000D01*
X116259800Y-82300000D02*
X102459600Y-82300000D01*
X102459600Y-82300000D02*
X101650800Y-83108800D01*
%TO.N,/DP*%
X118198900Y-85864700D02*
X117881400Y-86182200D01*
X118198900Y-85864700D02*
X118567200Y-85496400D01*
X117881400Y-86182200D02*
X115544600Y-86182200D01*
%TO.N,/DM*%
X118084656Y-85105800D02*
X117795656Y-85394800D01*
X117795656Y-85394800D02*
X115773200Y-85394800D01*
%TO.N,+3V3*%
X115613915Y-83464400D02*
X116372600Y-83464400D01*
%TO.N,Net-(J4-D+)*%
X115393352Y-84778800D02*
X114684200Y-85487952D01*
X119057096Y-84559800D02*
X118838096Y-84778800D01*
X122291858Y-85782000D02*
X121794800Y-85782000D01*
X122410408Y-85663450D02*
X122291858Y-85782000D01*
X128417483Y-85663450D02*
X122410408Y-85663450D01*
%TO.N,/~{DOE}*%
X115384904Y-84299400D02*
X118855048Y-84299400D01*
%TO.N,Net-(J4-D+)*%
X114684200Y-85487952D02*
X114684200Y-86762550D01*
%TO.N,/~{DOE}*%
X118855048Y-84299400D02*
X119007448Y-84147000D01*
X113893600Y-86563200D02*
X113893600Y-85790704D01*
%TO.N,+3V3*%
X112776000Y-86868000D02*
X112776000Y-86302315D01*
%TO.N,/~{DOE}*%
X121008329Y-84147000D02*
X122043329Y-85182000D01*
%TO.N,Net-(J4-D+)*%
X120572600Y-84559800D02*
X119057096Y-84559800D01*
%TO.N,+3V3*%
X112776000Y-86302315D02*
X115613915Y-83464400D01*
%TO.N,Net-(J4-D+)*%
X114684200Y-86762550D02*
X113878750Y-87568000D01*
X118838096Y-84778800D02*
X115393352Y-84778800D01*
%TO.N,/~{DOE}*%
X119007448Y-84147000D02*
X121008329Y-84147000D01*
X113893600Y-85790704D02*
X115384904Y-84299400D01*
%TO.N,Net-(J4-D+)*%
X121794800Y-85782000D02*
X120572600Y-84559800D01*
%TO.N,/A11*%
X131586559Y-86843471D02*
X131586559Y-87008909D01*
X131235088Y-86492000D02*
X131586559Y-86843471D01*
X128899910Y-86492000D02*
X131235088Y-86492000D01*
X128033506Y-86590450D02*
X128801460Y-86590450D01*
%TO.N,/A10*%
X131732600Y-86165000D02*
X132283200Y-86715600D01*
%TO.N,/A11*%
X127879056Y-86436000D02*
X128033506Y-86590450D01*
%TO.N,/A10*%
X128764462Y-86165000D02*
X131732600Y-86165000D01*
%TO.N,/A11*%
X118541800Y-87020400D02*
X119126200Y-86436000D01*
%TO.N,/DM*%
X118973544Y-85105800D02*
X119192544Y-84886800D01*
%TO.N,/A11*%
X119079290Y-88226480D02*
X118541800Y-87688990D01*
X128801460Y-86590450D02*
X128899910Y-86492000D01*
%TO.N,/A10*%
X118725736Y-88580034D02*
X118033800Y-87888098D01*
%TO.N,/DM*%
X119192544Y-84886800D02*
X119926200Y-84886800D01*
%TO.N,/A10*%
X118990752Y-86109000D02*
X128014504Y-86109000D01*
X128014504Y-86109000D02*
X128168954Y-86263450D01*
X128168954Y-86263450D02*
X128666012Y-86263450D01*
X128666012Y-86263450D02*
X128764462Y-86165000D01*
X118033800Y-87065952D02*
X118990752Y-86109000D01*
%TO.N,/DM*%
X119926200Y-84886800D02*
X120548400Y-85509000D01*
%TO.N,/A11*%
X118541800Y-87688990D02*
X118541800Y-87020400D01*
%TO.N,/DM*%
X118084656Y-85105800D02*
X118973544Y-85105800D01*
%TO.N,/A11*%
X119126200Y-86436000D02*
X127879056Y-86436000D01*
%TO.N,/A10*%
X118033800Y-87888098D02*
X118033800Y-87065952D01*
%TO.N,/A11*%
X131586559Y-87008909D02*
X131993250Y-87415600D01*
X131993250Y-87415600D02*
X132980200Y-87415600D01*
X132980200Y-87415600D02*
X133451600Y-86944200D01*
D22*
%TO.N,GND*%
X134670800Y-98831400D02*
X135820800Y-97681400D01*
X135820800Y-83115054D02*
X135147146Y-82441400D01*
X122917600Y-82441400D02*
X121869200Y-83489800D01*
X135820800Y-97681400D02*
X135820800Y-83115054D01*
X121869200Y-83489800D02*
X121869200Y-83515200D01*
X135147146Y-82441400D02*
X122917600Y-82441400D01*
D21*
%TO.N,/DP*%
X118567200Y-85496400D02*
X119634000Y-85496400D01*
D22*
%TO.N,GND*%
X118272600Y-83464400D02*
X119110800Y-82626200D01*
X119110800Y-82626200D02*
X120980200Y-82626200D01*
X120980200Y-82626200D02*
X121869200Y-83515200D01*
D21*
%TO.N,/A13*%
X129881400Y-87692000D02*
X131557150Y-87692000D01*
%TO.N,/A12*%
X121783973Y-87519373D02*
X122393946Y-86909400D01*
X127890008Y-86909400D02*
X127898058Y-86917450D01*
X130803959Y-86909400D02*
X130986559Y-87092000D01*
X127898058Y-86917450D02*
X128936908Y-86917450D01*
%TO.N,/A13*%
X127762610Y-87244450D02*
X129433850Y-87244450D01*
%TO.N,/A12*%
X128936908Y-86917450D02*
X128944958Y-86909400D01*
%TO.N,/A13*%
X122137527Y-87872927D02*
X122774054Y-87236400D01*
%TO.N,/A12*%
X128944958Y-86909400D02*
X130803959Y-86909400D01*
%TO.N,/A13*%
X127754560Y-87236400D02*
X127762610Y-87244450D01*
X129433850Y-87244450D02*
X129881400Y-87692000D01*
X132384800Y-88519650D02*
X132384800Y-89103200D01*
X131557150Y-87692000D02*
X132384800Y-88519650D01*
X122774054Y-87236400D02*
X127754560Y-87236400D01*
%TO.N,/A12*%
X122393946Y-86909400D02*
X127890008Y-86909400D01*
%TO.N,/RX*%
X123905294Y-89640694D02*
X124569788Y-88976200D01*
X124569788Y-88976200D02*
X125247400Y-88976200D01*
X125247400Y-88976200D02*
X125907800Y-89636600D01*
X125907800Y-89636600D02*
X127508000Y-89636600D01*
X127508000Y-89636600D02*
X127863600Y-89281000D01*
%TO.N,/TX*%
X123551740Y-89287140D02*
X124294480Y-88544400D01*
X124294480Y-88544400D02*
X126288800Y-88544400D01*
X126288800Y-88544400D02*
X126669800Y-88925400D01*
%TO.N,/SWDIO*%
X124965954Y-90701354D02*
X125675108Y-89992200D01*
X125675108Y-89992200D02*
X128549400Y-89992200D01*
X128549400Y-89992200D02*
X128981200Y-89560400D01*
%TO.N,/~{DISC}*%
X128458800Y-92491600D02*
X128945600Y-92491600D01*
X128945600Y-92491600D02*
X129159000Y-92278200D01*
%TO.N,+3V3*%
X128458800Y-90591600D02*
X126489922Y-90591600D01*
X126489922Y-90591600D02*
X125673061Y-91408461D01*
%TO.N,Net-(Q1-D)*%
X132156200Y-90881200D02*
X132862802Y-90881200D01*
X130733800Y-91541600D02*
X131495800Y-91541600D01*
X131495800Y-91541600D02*
X132156200Y-90881200D01*
%TO.N,/SWCLK*%
X125673061Y-93406037D02*
X127238837Y-93406037D01*
X127238837Y-93406037D02*
X127685800Y-93853000D01*
%TO.N,Net-(Q1-D)*%
X133858000Y-91592400D02*
X134239000Y-91592400D01*
X134239000Y-91592400D02*
X134416800Y-91770200D01*
X132862802Y-90881200D02*
X133574002Y-91592400D01*
X133574002Y-91592400D02*
X133858000Y-91592400D01*
%TO.N,/A9*%
X122491080Y-96588018D02*
X123395726Y-97492664D01*
X135401000Y-96440544D02*
X135401000Y-87826800D01*
X123395726Y-97498800D02*
X134342744Y-97498800D01*
X134342744Y-97498800D02*
X135401000Y-96440544D01*
X135401000Y-87826800D02*
X134961400Y-87387200D01*
X134177000Y-87387200D02*
X133451600Y-88112600D01*
X123395726Y-97492664D02*
X123395726Y-97498800D01*
X134961400Y-87387200D02*
X134177000Y-87387200D01*
%TO.N,+3V3*%
X119871181Y-87434589D02*
X119880211Y-87434589D01*
X119786397Y-87519373D02*
X119871181Y-87434589D01*
%TO.N,/DP*%
X124612400Y-90347800D02*
X123567800Y-91392400D01*
X123567800Y-91392400D02*
X121354801Y-91392400D01*
X121354801Y-91392400D02*
X121081801Y-91119400D01*
%TO.N,/DM*%
X123460694Y-90792400D02*
X121816834Y-90792400D01*
X124258847Y-89994247D02*
X123460694Y-90792400D01*
%TO.N,/~{AOE}*%
X118725736Y-96234464D02*
X117747501Y-97212699D01*
X117747501Y-97212699D02*
X117747501Y-97640800D01*
%TO.N,/~{OERAM}*%
X118456000Y-97211308D02*
X118456000Y-98078999D01*
X119079290Y-96588018D02*
X118456000Y-97211308D01*
X118456000Y-98078999D02*
X118337076Y-98197923D01*
%TO.N,+3V3*%
X119786397Y-97295125D02*
X119786397Y-98856803D01*
X119786397Y-98856803D02*
X119684800Y-98958400D01*
%TO.N,GND*%
X122051842Y-96941571D02*
X122137527Y-96941571D01*
X122137527Y-96941571D02*
X123021756Y-97825800D01*
X123021756Y-97825800D02*
X124062100Y-97825800D01*
X124062100Y-97825800D02*
X125143900Y-98907600D01*
%TO.N,+3V3*%
X124015922Y-93065600D02*
X125673061Y-91408461D01*
%TO.N,/A5*%
X131089400Y-94869000D02*
X132232400Y-93726000D01*
X129624648Y-96085000D02*
X130840648Y-94869000D01*
X130840648Y-94869000D02*
X131089400Y-94869000D01*
X125523596Y-96085000D02*
X129624648Y-96085000D01*
X124258847Y-94820251D02*
X125523596Y-96085000D01*
%TO.N,/A6*%
X125243154Y-96517800D02*
X125243154Y-96511664D01*
X125243154Y-96511664D02*
X123905294Y-95173804D01*
%TO.N,/A7*%
X124863046Y-96844800D02*
X124863046Y-96838664D01*
X124863046Y-96838664D02*
X123551740Y-95527358D01*
X124863046Y-96844800D02*
X133791798Y-96844800D01*
X134464400Y-96172198D02*
X134464400Y-93385715D01*
X132874285Y-91795600D02*
X132308600Y-91795600D01*
X134464400Y-93385715D02*
X132874285Y-91795600D01*
X133791798Y-96844800D02*
X134464400Y-96172198D01*
%TO.N,/A6*%
X134137400Y-96036750D02*
X134137400Y-94361000D01*
X125243154Y-96517800D02*
X133656350Y-96517800D01*
X133656350Y-96517800D02*
X134137400Y-96036750D01*
X134137400Y-94361000D02*
X133477000Y-93700600D01*
%TD*%
M02*
