%TF.GenerationSoftware,KiCad,Pcbnew,7.0.5-7.0.5~ubuntu20.04.1*%
%TF.CreationDate,2023-07-18T12:45:13+02:00*%
%TF.ProjectId,EpromEMU_TOP_new_STM32F3,4570726f-6d45-44d5-955f-544f505f6e65,rev?*%
%TF.SameCoordinates,Original*%
%TF.FileFunction,Copper,L1,Top*%
%TF.FilePolarity,Positive*%
%FSLAX46Y46*%
G04 Gerber Fmt 4.6, Leading zero omitted, Abs format (unit mm)*
G04 Created by KiCad (PCBNEW 7.0.5-7.0.5~ubuntu20.04.1) date 2023-07-18 12:45:13*
%MOMM*%
%LPD*%
G01*
G04 APERTURE LIST*
G04 Aperture macros list*
%AMRoundRect*
0 Rectangle with rounded corners*
0 $1 Rounding radius*
0 $2 $3 $4 $5 $6 $7 $8 $9 X,Y pos of 4 corners*
0 Add a 4 corners polygon primitive as box body*
4,1,4,$2,$3,$4,$5,$6,$7,$8,$9,$2,$3,0*
0 Add four circle primitives for the rounded corners*
1,1,$1+$1,$2,$3*
1,1,$1+$1,$4,$5*
1,1,$1+$1,$6,$7*
1,1,$1+$1,$8,$9*
0 Add four rect primitives between the rounded corners*
20,1,$1+$1,$2,$3,$4,$5,0*
20,1,$1+$1,$4,$5,$6,$7,0*
20,1,$1+$1,$6,$7,$8,$9,0*
20,1,$1+$1,$8,$9,$2,$3,0*%
G04 Aperture macros list end*
%TA.AperFunction,SMDPad,CuDef*%
%ADD10R,1.400000X0.400000*%
%TD*%
%TA.AperFunction,SMDPad,CuDef*%
%ADD11R,1.900000X2.300000*%
%TD*%
%TA.AperFunction,SMDPad,CuDef*%
%ADD12R,1.900000X1.800000*%
%TD*%
%TA.AperFunction,ComponentPad*%
%ADD13C,0.800000*%
%TD*%
%TA.AperFunction,ComponentPad*%
%ADD14O,1.600000X1.600000*%
%TD*%
%TA.AperFunction,SMDPad,CuDef*%
%ADD15RoundRect,0.250000X-0.250000X-0.475000X0.250000X-0.475000X0.250000X0.475000X-0.250000X0.475000X0*%
%TD*%
%TA.AperFunction,SMDPad,CuDef*%
%ADD16RoundRect,0.100000X-0.637500X-0.100000X0.637500X-0.100000X0.637500X0.100000X-0.637500X0.100000X0*%
%TD*%
%TA.AperFunction,ComponentPad*%
%ADD17R,1.700000X1.700000*%
%TD*%
%TA.AperFunction,SMDPad,CuDef*%
%ADD18R,1.600000X1.300000*%
%TD*%
%TA.AperFunction,SMDPad,CuDef*%
%ADD19RoundRect,0.250000X0.262500X0.450000X-0.262500X0.450000X-0.262500X-0.450000X0.262500X-0.450000X0*%
%TD*%
%TA.AperFunction,SMDPad,CuDef*%
%ADD20RoundRect,0.250000X-0.262500X-0.450000X0.262500X-0.450000X0.262500X0.450000X-0.262500X0.450000X0*%
%TD*%
%TA.AperFunction,SMDPad,CuDef*%
%ADD21RoundRect,0.250000X0.450000X-0.262500X0.450000X0.262500X-0.450000X0.262500X-0.450000X-0.262500X0*%
%TD*%
%TA.AperFunction,ViaPad*%
%ADD22C,0.600000*%
%TD*%
%TA.AperFunction,Conductor*%
%ADD23C,0.200000*%
%TD*%
%TA.AperFunction,Conductor*%
%ADD24C,0.300000*%
%TD*%
G04 APERTURE END LIST*
D10*
%TO.P,J4,1,VBUS*%
%TO.N,unconnected-(J4-VBUS-Pad1)*%
X104318400Y-88793800D03*
%TO.P,J4,2,D-*%
%TO.N,Net-(J4-D-)*%
X104318400Y-89443800D03*
%TO.P,J4,3,D+*%
%TO.N,Net-(J4-D+)*%
X104318400Y-90093800D03*
%TO.P,J4,4,ID*%
%TO.N,unconnected-(J4-ID-Pad4)*%
X104318400Y-90743800D03*
%TO.P,J4,5,GND*%
%TO.N,GND*%
X104318400Y-91393800D03*
D11*
%TO.P,J4,6,Shield*%
X101468400Y-93843800D03*
D12*
X101468400Y-91243800D03*
D11*
X101468400Y-86343800D03*
D12*
X101468400Y-88943800D03*
%TD*%
D13*
%TO.P,J40,1,Pin_1*%
%TO.N,/uA16*%
X111658400Y-95123000D03*
%TD*%
%TO.P,J39,1,Pin_1*%
%TO.N,/SWCLK*%
X127685800Y-93853000D03*
%TD*%
%TO.P,J38,1,Pin_1*%
%TO.N,/RX*%
X127863600Y-89281000D03*
%TD*%
%TO.P,J36,1,Pin_1*%
%TO.N,/TX*%
X126669800Y-88925400D03*
%TD*%
%TO.P,J37,1,Pin_1*%
%TO.N,/SWDIO*%
X128981200Y-89560400D03*
%TD*%
%TO.P,J34,1,Pin_1*%
%TO.N,/~{DOE}*%
X113893600Y-86563200D03*
%TD*%
%TO.P,J29,1,Pin_1*%
%TO.N,GND*%
X106375200Y-93649800D03*
%TD*%
%TO.P,J28,1,Pin_1*%
%TO.N,/BATT*%
X107111800Y-91948000D03*
%TD*%
D14*
%TO.P,U7,28,VCC*%
%TO.N,+5V*%
X101650800Y-83591400D03*
%TO.P,U7,19,D7*%
%TO.N,/ED7*%
X124510800Y-83591400D03*
%TO.P,U7,18,D6*%
%TO.N,/ED6*%
X127050800Y-83591400D03*
%TO.P,U7,17,D5*%
%TO.N,/ED5*%
X129590800Y-83591400D03*
%TO.P,U7,16,D4*%
%TO.N,/ED4*%
X132130800Y-83591400D03*
%TO.P,U7,15,D3*%
%TO.N,/ED3*%
X134670800Y-83591400D03*
%TO.P,U7,14,GND*%
%TO.N,GND*%
X134670800Y-98831400D03*
%TO.P,U7,13,D2*%
%TO.N,/ED2*%
X132130800Y-98831400D03*
%TO.P,U7,12,D1*%
%TO.N,/ED1*%
X129590800Y-98831400D03*
%TO.P,U7,11,D0*%
%TO.N,/ED0*%
X127050800Y-98831400D03*
%TD*%
D15*
%TO.P,C5,1*%
%TO.N,+3V3*%
X116372600Y-83515200D03*
%TO.P,C5,2*%
%TO.N,GND*%
X118272600Y-83515200D03*
%TD*%
%TO.P,C2,1*%
%TO.N,+5V*%
X119969200Y-83515200D03*
%TO.P,C2,2*%
%TO.N,GND*%
X121869200Y-83515200D03*
%TD*%
D13*
%TO.P,J31,1,Pin_1*%
%TO.N,/~{OERAM}*%
X113868200Y-94843600D03*
%TD*%
%TO.P,J2,1,Pin_1*%
%TO.N,Net-(J2-Pin_1)*%
X120853200Y-98933000D03*
%TD*%
%TO.P,J32,1,Pin_1*%
%TO.N,/~{WERAM}*%
X113436400Y-90652600D03*
%TD*%
%TO.P,J26,1,Pin_1*%
%TO.N,/D6*%
X109267600Y-90779600D03*
%TD*%
%TO.P,J13,1,Pin_1*%
%TO.N,/A9*%
X133451600Y-88112600D03*
%TD*%
%TO.P,J9,1,Pin_1*%
%TO.N,/A5*%
X132232400Y-93726000D03*
%TD*%
%TO.P,J14,1,Pin_1*%
%TO.N,/A10*%
X132283200Y-86715600D03*
%TD*%
%TO.P,J15,1,Pin_1*%
%TO.N,/A11*%
X133451600Y-86944200D03*
%TD*%
%TO.P,J12,1,Pin_1*%
%TO.N,/A8*%
X131267200Y-88392000D03*
%TD*%
%TO.P,J24,1,Pin_1*%
%TO.N,/D4*%
X109143800Y-92989400D03*
%TD*%
%TO.P,J17,1,Pin_1*%
%TO.N,/A13*%
X132384800Y-89103200D03*
%TD*%
%TO.P,J8,1,Pin_1*%
%TO.N,/A4*%
X131038600Y-93751400D03*
%TD*%
%TO.P,J25,1,Pin_1*%
%TO.N,/D5*%
X107899200Y-92964000D03*
%TD*%
%TO.P,J22,1,Pin_1*%
%TO.N,/D2*%
X109778800Y-94513400D03*
%TD*%
%TO.P,J30,1,Pin_1*%
%TO.N,+3V3*%
X112776000Y-86868000D03*
%TD*%
%TO.P,J11,1,Pin_1*%
%TO.N,/A7*%
X132308600Y-91795600D03*
%TD*%
%TO.P,J23,1,Pin_1*%
%TO.N,/D3*%
X108508800Y-94640400D03*
%TD*%
%TO.P,J20,1,Pin_1*%
%TO.N,/D0*%
X109982000Y-96023800D03*
%TD*%
%TO.P,J10,1,Pin_1*%
%TO.N,/A6*%
X133477000Y-93700600D03*
%TD*%
%TO.P,J1,1,Pin_1*%
%TO.N,/A0*%
X133426200Y-95758000D03*
%TD*%
%TO.P,J21,1,Pin_1*%
%TO.N,/D1*%
X108762800Y-96012000D03*
%TD*%
%TO.P,J7,1,Pin_1*%
%TO.N,/A3*%
X132867400Y-94716600D03*
%TD*%
%TO.P,J16,1,Pin_1*%
%TO.N,/A12*%
X134645400Y-88087200D03*
%TD*%
%TO.P,J19,1,Pin_1*%
%TO.N,/A15*%
X133883400Y-90449400D03*
%TD*%
%TO.P,J27,1,Pin_1*%
%TO.N,/D7*%
X108199200Y-91567000D03*
%TD*%
%TO.P,J5,1,Pin_1*%
%TO.N,/A1*%
X131089400Y-95732600D03*
%TD*%
%TO.P,J33,1,Pin_1*%
%TO.N,/~{AOE}*%
X112318800Y-91033600D03*
%TD*%
%TO.P,J18,1,Pin_1*%
%TO.N,/A14*%
X133883400Y-89230200D03*
%TD*%
%TO.P,J6,1,Pin_1*%
%TO.N,/A2*%
X132257800Y-95732600D03*
%TD*%
D16*
%TO.P,U2,1,VCCA*%
%TO.N,+3V3*%
X117660500Y-85248800D03*
%TO.P,U2,2,A->B*%
X117660500Y-85898800D03*
%TO.P,U2,3,A0*%
%TO.N,/D7*%
X117660500Y-86548800D03*
%TO.P,U2,4,A1*%
%TO.N,/D6*%
X117660500Y-87198800D03*
%TO.P,U2,5,A2*%
%TO.N,/D5*%
X117660500Y-87848800D03*
%TO.P,U2,6,A3*%
%TO.N,/D4*%
X117660500Y-88498800D03*
%TO.P,U2,7,A4*%
%TO.N,/D3*%
X117660500Y-89148800D03*
%TO.P,U2,8,A5*%
%TO.N,/D2*%
X117660500Y-89798800D03*
%TO.P,U2,9,A6*%
%TO.N,/D1*%
X117660500Y-90448800D03*
%TO.P,U2,10,A7*%
%TO.N,/D0*%
X117660500Y-91098800D03*
%TO.P,U2,11,GND*%
%TO.N,GND*%
X117660500Y-91748800D03*
%TO.P,U2,12,GND*%
X117660500Y-92398800D03*
%TO.P,U2,13,GND*%
X123385500Y-92398800D03*
%TO.P,U2,14,B7*%
%TO.N,/ED0*%
X123385500Y-91748800D03*
%TO.P,U2,15,B6*%
%TO.N,/ED1*%
X123385500Y-91098800D03*
%TO.P,U2,16,B5*%
%TO.N,/ED2*%
X123385500Y-90448800D03*
%TO.P,U2,17,B4*%
%TO.N,/ED3*%
X123385500Y-89798800D03*
%TO.P,U2,18,B3*%
%TO.N,/ED4*%
X123385500Y-89148800D03*
%TO.P,U2,19,B2*%
%TO.N,/ED5*%
X123385500Y-88498800D03*
%TO.P,U2,20,B1*%
%TO.N,/ED6*%
X123385500Y-87848800D03*
%TO.P,U2,21,B0*%
%TO.N,/ED7*%
X123385500Y-87198800D03*
%TO.P,U2,22,CE*%
%TO.N,/~{DOE}*%
X123385500Y-86548800D03*
%TO.P,U2,23,VCCB*%
%TO.N,+5V*%
X123385500Y-85898800D03*
%TO.P,U2,24,VCCB*%
X123385500Y-85248800D03*
%TD*%
D17*
%TO.P,J35,1,Pin_1*%
%TO.N,/~{extRST}*%
X101803200Y-98221800D03*
%TD*%
D18*
%TO.P,Y1,4,4*%
%TO.N,GND*%
X115010200Y-98739200D03*
%TO.P,Y1,3,3*%
%TO.N,/OSC0*%
X111710200Y-98739200D03*
%TO.P,Y1,2,2*%
%TO.N,GND*%
X111710200Y-96739200D03*
%TO.P,Y1,1,1*%
%TO.N,/OSC1*%
X115010200Y-96739200D03*
%TD*%
D19*
%TO.P,R5,1*%
%TO.N,+3V3*%
X106219000Y-96901000D03*
%TO.P,R5,2*%
%TO.N,/~{sRST}*%
X104394000Y-96901000D03*
%TD*%
D20*
%TO.P,R4,1*%
%TO.N,Net-(J4-D-)*%
X109348900Y-83616800D03*
%TO.P,R4,2*%
%TO.N,/DM*%
X111173900Y-83616800D03*
%TD*%
%TO.P,R3,1*%
%TO.N,Net-(J4-D+)*%
X109374300Y-85826600D03*
%TO.P,R3,2*%
%TO.N,/DP*%
X111199300Y-85826600D03*
%TD*%
D21*
%TO.P,R2,2*%
%TO.N,Net-(J4-D+)*%
X129286000Y-86389200D03*
%TO.P,R2,1*%
%TO.N,Net-(Q1-D)*%
X129286000Y-88214200D03*
%TD*%
D19*
%TO.P,R1,1*%
%TO.N,/~{DISC}*%
X129159000Y-92278200D03*
%TO.P,R1,2*%
%TO.N,GND*%
X127334000Y-92278200D03*
%TD*%
D13*
%TO.P,J3,1,Pin_1*%
%TO.N,+3V3*%
X119684800Y-98958400D03*
%TD*%
D15*
%TO.P,C4,1*%
%TO.N,/~{sRST}*%
X104348200Y-98882200D03*
%TO.P,C4,2*%
%TO.N,GND*%
X106248200Y-98882200D03*
%TD*%
D22*
%TO.N,Net-(J4-D+)*%
X109374300Y-85826600D03*
%TO.N,/~{sRST}*%
X104348200Y-99065902D03*
%TO.N,+3V3*%
X120675400Y-94665800D03*
%TO.N,GND*%
X107494200Y-99146400D03*
X121996200Y-99187000D03*
X115351600Y-98729800D03*
X111710200Y-96777100D03*
%TO.N,/OSC0*%
X111710200Y-98739200D03*
%TO.N,/OSC1*%
X115010200Y-96739192D03*
%TO.N,Net-(Q2-G)*%
X107494200Y-97246400D03*
%TO.N,/DP*%
X115544600Y-86182200D03*
%TO.N,/DM*%
X115773200Y-85394800D03*
%TO.N,+5V*%
X120045387Y-83464387D03*
%TO.N,GND*%
X121869200Y-83515200D03*
%TO.N,Net-(J4-D+)*%
X128417483Y-85663450D03*
%TO.N,/~{DISC}*%
X129159000Y-92278200D03*
%TO.N,Net-(Q1-D)*%
X134416800Y-91770200D03*
%TO.N,/DM*%
X120548400Y-85509000D03*
%TO.N,/DP*%
X119634000Y-85496400D03*
X121081801Y-91119400D03*
%TO.N,/DM*%
X121816834Y-90792400D03*
%TO.N,/~{AOE}*%
X117747501Y-97640800D03*
%TO.N,/~{OERAM}*%
X118337076Y-98197923D03*
%TO.N,/~{WERAM}*%
X119292235Y-95020165D03*
%TO.N,/~{DOE}*%
X122043329Y-85182000D03*
%TO.N,+3V3*%
X119880211Y-87434589D03*
%TO.N,Net-(J2-Pin_1)*%
X120929400Y-96189800D03*
%TO.N,GND*%
X125143900Y-98907600D03*
X121596294Y-95208501D03*
%TO.N,Net-(Q2-G)*%
X128778000Y-94615000D03*
%TO.N,+3V3*%
X122708917Y-94642337D03*
X121809098Y-97516369D03*
%TO.N,/A0*%
X119103877Y-93341942D03*
%TO.N,GND*%
X123621800Y-92418300D03*
%TO.N,/A15*%
X130343200Y-89805239D03*
%TO.N,/A14*%
X131274959Y-89831848D03*
%TO.N,/A12*%
X130986559Y-87092000D03*
%TO.N,GND*%
X122115428Y-92379082D03*
%TO.N,/A2*%
X121019269Y-93103802D03*
%TO.N,/A1*%
X120040400Y-93243400D03*
%TO.N,/A3*%
X129921000Y-93878400D03*
%TO.N,GND*%
X118109801Y-83245400D03*
%TO.N,+3V3*%
X116309044Y-83527974D03*
%TD*%
D23*
%TO.N,Net-(Q2-G)*%
X107494200Y-97246400D02*
X109947800Y-99700000D01*
%TO.N,GND*%
X122135146Y-92398800D02*
X122115428Y-92379082D01*
%TO.N,Net-(Q2-G)*%
X118816258Y-92503800D02*
X121391616Y-92503800D01*
X121391616Y-92503800D02*
X121937616Y-93049800D01*
X118503877Y-92816181D02*
X118816258Y-92503800D01*
X117774800Y-99700000D02*
X120319800Y-97155000D01*
X119087942Y-93941942D02*
X118855348Y-93941942D01*
%TO.N,/A2*%
X121292267Y-93376800D02*
X121019269Y-93103802D01*
X129925210Y-95011800D02*
X129662662Y-95274348D01*
%TO.N,Net-(Q2-G)*%
X120319800Y-97155000D02*
X120319800Y-95173800D01*
%TO.N,/A2*%
X131537000Y-95011800D02*
X129925210Y-95011800D01*
%TO.N,Net-(Q2-G)*%
X120319800Y-95173800D02*
X119087942Y-93941942D01*
X118503877Y-93590471D02*
X118503877Y-92816181D01*
%TO.N,/A2*%
X127629350Y-95274348D02*
X125731802Y-93376800D01*
%TO.N,Net-(Q2-G)*%
X121937616Y-93049800D02*
X125867250Y-93049800D01*
X127432450Y-94615000D02*
X128778000Y-94615000D01*
X118855348Y-93941942D02*
X118503877Y-93590471D01*
%TO.N,/A2*%
X125731802Y-93376800D02*
X121292267Y-93376800D01*
X129662662Y-95274348D02*
X127629350Y-95274348D01*
%TO.N,GND*%
X123385500Y-92398800D02*
X122135146Y-92398800D01*
%TO.N,/A1*%
X120500800Y-93703800D02*
X120040400Y-93243400D01*
%TO.N,Net-(Q2-G)*%
X109947800Y-99700000D02*
X117774800Y-99700000D01*
%TO.N,GND*%
X118034900Y-92024400D02*
X121760746Y-92024400D01*
X117660500Y-92398800D02*
X118034900Y-92024400D01*
X121760746Y-92024400D02*
X122115428Y-92379082D01*
%TO.N,/A1*%
X127625154Y-95732600D02*
X125596354Y-93703800D01*
X131089400Y-95732600D02*
X127625154Y-95732600D01*
X125596354Y-93703800D02*
X120500800Y-93703800D01*
%TO.N,Net-(Q2-G)*%
X125867250Y-93049800D02*
X127432450Y-94615000D01*
%TO.N,/A2*%
X132257800Y-95732600D02*
X131537000Y-95011800D01*
%TO.N,/A0*%
X132751600Y-96432600D02*
X127862706Y-96432600D01*
X133426200Y-95758000D02*
X132751600Y-96432600D01*
X125460906Y-94030800D02*
X119792735Y-94030800D01*
X127862706Y-96432600D02*
X125460906Y-94030800D01*
X119792735Y-94030800D02*
X119103877Y-93341942D01*
%TO.N,/A3*%
X132867400Y-94716600D02*
X132602200Y-94451400D01*
X132602200Y-94451400D02*
X130494000Y-94451400D01*
X130494000Y-94451400D02*
X129921000Y-93878400D01*
%TO.N,/A15*%
X133883400Y-90449400D02*
X133875600Y-90441600D01*
%TO.N,/ED1*%
X132032457Y-91095600D02*
X132598550Y-91095600D01*
X132598550Y-91095600D02*
X133008600Y-91505650D01*
%TO.N,/ED2*%
X132547696Y-98831400D02*
X132130800Y-98831400D01*
%TO.N,/A15*%
X131644867Y-90558294D02*
X131096255Y-90558294D01*
%TO.N,/ED2*%
X130463623Y-90448800D02*
X130908623Y-90893800D01*
X131771809Y-90893800D02*
X131897009Y-90768600D01*
%TO.N,/A15*%
X131761561Y-90441600D02*
X131644867Y-90558294D01*
%TO.N,/ED1*%
X123549100Y-90935200D02*
X130132648Y-90935200D01*
X123385500Y-91098800D02*
X123549100Y-90935200D01*
X131907257Y-91220800D02*
X132032457Y-91095600D01*
%TO.N,/ED2*%
X135158000Y-93375000D02*
X135158000Y-96221096D01*
X132733998Y-90768600D02*
X133335600Y-91370202D01*
X133335600Y-91552600D02*
X135158000Y-93375000D01*
X131897009Y-90768600D02*
X132733998Y-90768600D01*
%TO.N,/ED1*%
X134831000Y-96085648D02*
X133202848Y-97713800D01*
%TO.N,/A15*%
X133875600Y-90441600D02*
X131761561Y-90441600D01*
%TO.N,/A14*%
X133883400Y-89230200D02*
X133281752Y-89831848D01*
%TO.N,/ED1*%
X130132648Y-90935200D02*
X130418248Y-91220800D01*
X133202848Y-97713800D02*
X130708400Y-97713800D01*
X134831000Y-93510448D02*
X134831000Y-96085648D01*
%TO.N,/A14*%
X133281752Y-89831848D02*
X131274959Y-89831848D01*
%TO.N,/ED1*%
X130708400Y-97713800D02*
X129590800Y-98831400D01*
%TO.N,/ED2*%
X133335600Y-91370202D02*
X133335600Y-91552600D01*
%TO.N,/ED1*%
X130418248Y-91220800D02*
X131907257Y-91220800D01*
X133008600Y-91505650D02*
X133008600Y-91688048D01*
%TO.N,/A15*%
X131096255Y-90558294D02*
X130343200Y-89805239D01*
%TO.N,/ED1*%
X133008600Y-91688048D02*
X134831000Y-93510448D01*
%TO.N,/ED2*%
X130908623Y-90893800D02*
X131771809Y-90893800D01*
X123385500Y-90448800D02*
X130463623Y-90448800D01*
X135158000Y-96221096D02*
X132547696Y-98831400D01*
D24*
%TO.N,GND*%
X105019800Y-93843800D02*
X105213800Y-93649800D01*
X105213800Y-93649800D02*
X106375200Y-93649800D01*
D23*
%TO.N,+3V3*%
X111322952Y-86868000D02*
X107540976Y-90649976D01*
X107199200Y-93395800D02*
X107199200Y-95920800D01*
X106411800Y-92608400D02*
X107199200Y-93395800D01*
X107540976Y-90649976D02*
X107419874Y-90649976D01*
X107419874Y-90649976D02*
X106411800Y-91658050D01*
X106411800Y-91658050D02*
X106411800Y-92608400D01*
D24*
%TO.N,GND*%
X101468400Y-93843800D02*
X101468400Y-86343800D01*
D23*
X101618400Y-91393800D02*
X101468400Y-91243800D01*
%TO.N,Net-(J4-D-)*%
X104318400Y-89443800D02*
X106968600Y-89443800D01*
%TO.N,GND*%
X104318400Y-91393800D02*
X101618400Y-91393800D01*
D24*
X106248200Y-98882200D02*
X105308400Y-97942400D01*
D23*
%TO.N,Net-(J4-D-)*%
X108051600Y-88360800D02*
X108051600Y-84914100D01*
X106968600Y-89443800D02*
X108051600Y-88360800D01*
%TO.N,Net-(J4-D+)*%
X104318400Y-90093800D02*
X106968600Y-90093800D01*
D24*
%TO.N,GND*%
X101468400Y-86343800D02*
X101468400Y-85907400D01*
D23*
%TO.N,Net-(J4-D-)*%
X108051600Y-84914100D02*
X109348900Y-83616800D01*
%TO.N,Net-(J4-D+)*%
X106968600Y-90093800D02*
X109374300Y-87688100D01*
X109374300Y-87688100D02*
X109374300Y-85826600D01*
D24*
%TO.N,GND*%
X105308400Y-97942400D02*
X105308400Y-94132400D01*
X105308400Y-94132400D02*
X105019800Y-93843800D01*
X105019800Y-93843800D02*
X101468400Y-93843800D01*
D23*
X113672300Y-98739200D02*
X111710200Y-96777100D01*
X115010200Y-98739200D02*
X113672300Y-98739200D01*
%TO.N,/D1*%
X115635200Y-89600200D02*
X112279840Y-89600200D01*
X110068750Y-95213400D02*
X109561400Y-95213400D01*
X111290000Y-92895352D02*
X110478800Y-93706552D01*
X110478800Y-93706552D02*
X110478800Y-94803350D01*
X116483800Y-90448800D02*
X115635200Y-89600200D01*
%TO.N,/D2*%
X117660500Y-89798800D02*
X116296248Y-89798800D01*
X112144392Y-89273200D02*
X110963000Y-90454592D01*
%TO.N,/D1*%
X112279840Y-89600200D02*
X111290000Y-90590040D01*
%TO.N,/D2*%
X110963000Y-92759904D02*
X109778800Y-93944104D01*
%TO.N,/D1*%
X110478800Y-94803350D02*
X110068750Y-95213400D01*
%TO.N,/D2*%
X116296248Y-89798800D02*
X115770648Y-89273200D01*
%TO.N,/D0*%
X110805800Y-95200000D02*
X109982000Y-96023800D01*
%TO.N,/D2*%
X115770648Y-89273200D02*
X112144392Y-89273200D01*
X110963000Y-90454592D02*
X110963000Y-92759904D01*
%TO.N,/D1*%
X109561400Y-95213400D02*
X108762800Y-96012000D01*
X111290000Y-90590040D02*
X111290000Y-92895352D01*
X117660500Y-90448800D02*
X116483800Y-90448800D01*
%TO.N,/D2*%
X109778800Y-93944104D02*
X109778800Y-94513400D01*
%TO.N,/D0*%
X117660500Y-91098800D02*
X116306600Y-91098800D01*
X116306600Y-91098800D02*
X115135000Y-89927200D01*
X115135000Y-89927200D02*
X112415288Y-89927200D01*
X112415288Y-89927200D02*
X111617000Y-90725488D01*
X111617000Y-90725488D02*
X111617000Y-93030800D01*
X111617000Y-93030800D02*
X110805800Y-93842000D01*
X110805800Y-93842000D02*
X110805800Y-95200000D01*
%TO.N,+3V3*%
X112776000Y-86868000D02*
X111322952Y-86868000D01*
X107199200Y-95920800D02*
X106219000Y-96901000D01*
%TO.N,/D7*%
X117660500Y-86548800D02*
X116498800Y-86548800D01*
X116498800Y-86548800D02*
X115479600Y-87568000D01*
X115479600Y-87568000D02*
X111237800Y-87568000D01*
X111237800Y-87568000D02*
X108199200Y-90606600D01*
X108199200Y-90606600D02*
X108199200Y-91567000D01*
%TO.N,/D6*%
X117660500Y-87198800D02*
X116311248Y-87198800D01*
X116311248Y-87198800D02*
X115610048Y-87900000D01*
X115610048Y-87900000D02*
X111667800Y-87900000D01*
X111667800Y-87900000D02*
X109267600Y-90300200D01*
X109267600Y-90300200D02*
X109267600Y-90779600D01*
%TO.N,/D5*%
X116123696Y-87848800D02*
X115745496Y-88227000D01*
%TO.N,/D3*%
X117660500Y-89148800D02*
X116108696Y-89148800D01*
%TO.N,/D4*%
X110309000Y-91824200D02*
X109143800Y-92989400D01*
%TO.N,/D3*%
X116108696Y-89148800D02*
X115906096Y-88946200D01*
X115906096Y-88946200D02*
X112008944Y-88946200D01*
%TO.N,/D5*%
X108178600Y-92964000D02*
X107899200Y-92964000D01*
%TO.N,/D3*%
X110636000Y-90319144D02*
X110636000Y-92513200D01*
%TO.N,/D5*%
X115745496Y-88227000D02*
X111803248Y-88227000D01*
%TO.N,/D4*%
X110309000Y-90183696D02*
X110309000Y-91824200D01*
%TO.N,/D5*%
X109982000Y-90048248D02*
X109982000Y-91160600D01*
%TO.N,/D3*%
X112008944Y-88946200D02*
X110636000Y-90319144D01*
%TO.N,/D5*%
X111803248Y-88227000D02*
X109982000Y-90048248D01*
X117660500Y-87848800D02*
X116123696Y-87848800D01*
%TO.N,/D4*%
X117660500Y-88498800D02*
X117605300Y-88554000D01*
%TO.N,/D5*%
X109982000Y-91160600D02*
X108178600Y-92964000D01*
%TO.N,/D4*%
X117605300Y-88554000D02*
X111938696Y-88554000D01*
%TO.N,/D3*%
X110636000Y-92513200D02*
X108508800Y-94640400D01*
%TO.N,/D4*%
X111938696Y-88554000D02*
X110309000Y-90183696D01*
%TO.N,GND*%
X115107000Y-98739200D02*
X115351600Y-98983800D01*
X115010200Y-98739200D02*
X115107000Y-98739200D01*
%TO.N,+3V3*%
X122708917Y-94642337D02*
X122605380Y-94538800D01*
X122605380Y-94538800D02*
X120802400Y-94538800D01*
X120802400Y-94538800D02*
X120675400Y-94665800D01*
%TO.N,GND*%
X121631000Y-95243207D02*
X121596294Y-95208501D01*
X121631000Y-96438329D02*
X121631000Y-95243207D01*
X121180200Y-97736000D02*
X121180200Y-96889129D01*
X121180200Y-96889129D02*
X121631000Y-96438329D01*
X121564400Y-98120200D02*
X121180200Y-97736000D01*
%TO.N,Net-(J2-Pin_1)*%
X120853200Y-98933000D02*
X120853200Y-96266000D01*
X120853200Y-96266000D02*
X120929400Y-96189800D01*
%TO.N,+3V3*%
X121809098Y-97516369D02*
X122708917Y-96616550D01*
X122708917Y-96616550D02*
X122708917Y-94642337D01*
%TO.N,/~{WERAM}*%
X117803965Y-95020165D02*
X119292235Y-95020165D01*
X113436400Y-90652600D02*
X117803965Y-95020165D01*
%TO.N,/~{sRST}*%
X104394000Y-96901000D02*
X104394000Y-98836400D01*
X104394000Y-98836400D02*
X104348200Y-98882200D01*
D24*
%TO.N,GND*%
X106248200Y-98882200D02*
X107230000Y-98882200D01*
X107230000Y-98882200D02*
X107494200Y-99146400D01*
D23*
%TO.N,/~{AOE}*%
X117747501Y-96670749D02*
X117747501Y-97640800D01*
X115205952Y-94129200D02*
X117747501Y-96670749D01*
X112318800Y-92639048D02*
X113808952Y-94129200D01*
X112318800Y-91033600D02*
X112318800Y-92639048D01*
X113808952Y-94129200D02*
X115205952Y-94129200D01*
%TO.N,/~{OERAM}*%
X118337076Y-98197923D02*
X118294199Y-98240800D01*
X118294199Y-98240800D02*
X117265400Y-98240800D01*
X117265400Y-98240800D02*
X117017800Y-97993200D01*
X117017800Y-97993200D02*
X117017800Y-96443800D01*
X117017800Y-96443800D02*
X115417600Y-94843600D01*
X115417600Y-94843600D02*
X113868200Y-94843600D01*
%TO.N,GND*%
X121996200Y-98552000D02*
X121564400Y-98120200D01*
X121996200Y-99187000D02*
X121996200Y-98552000D01*
X121564400Y-98120200D02*
X124356500Y-98120200D01*
X124356500Y-98120200D02*
X125143900Y-98907600D01*
%TO.N,/DP*%
X115189000Y-85826600D02*
X111199300Y-85826600D01*
X115544600Y-86182200D02*
X115189000Y-85826600D01*
%TO.N,/DM*%
X113995200Y-83616800D02*
X111173900Y-83616800D01*
X115773200Y-85394800D02*
X113995200Y-83616800D01*
%TO.N,GND*%
X117660500Y-92398800D02*
X120726200Y-89333100D01*
X120726200Y-89333100D02*
X120726200Y-87432048D01*
X120726200Y-87432048D02*
X119771552Y-86477400D01*
X119771552Y-86477400D02*
X119385471Y-86477400D01*
X119385471Y-86477400D02*
X118948200Y-86040129D01*
X118948200Y-86040129D02*
X118948200Y-84083799D01*
X118948200Y-84083799D02*
X118109801Y-83245400D01*
%TO.N,+3V3*%
X117660500Y-85248800D02*
X117354400Y-85248800D01*
X117354400Y-85248800D02*
X116309044Y-84203444D01*
X116309044Y-84203444D02*
X116309044Y-83527974D01*
%TO.N,/DM*%
X121816834Y-86777434D02*
X120548400Y-85509000D01*
X121816834Y-90792400D02*
X121816834Y-86777434D01*
%TO.N,+5V*%
X119969200Y-83515200D02*
X119994574Y-83515200D01*
X119994574Y-83515200D02*
X120045387Y-83464387D01*
X122718700Y-84582000D02*
X123385500Y-85248800D01*
X120045387Y-83464387D02*
X121163000Y-84582000D01*
%TO.N,/~{DOE}*%
X123385500Y-86548800D02*
X122774741Y-86548800D01*
X122043329Y-85817388D02*
X122043329Y-85182000D01*
X122774741Y-86548800D02*
X122043329Y-85817388D01*
%TO.N,+5V*%
X121163000Y-84582000D02*
X122718700Y-84582000D01*
%TO.N,/DP*%
X121081801Y-86944201D02*
X119634000Y-85496400D01*
X121081801Y-91119400D02*
X121081801Y-86944201D01*
%TO.N,/ED4*%
X131010000Y-84712200D02*
X127956752Y-84712200D01*
X127704800Y-85065155D02*
X125530000Y-87239955D01*
X125530000Y-87239955D02*
X125530000Y-87615059D01*
%TO.N,/ED3*%
X124145400Y-89798800D02*
X123385500Y-89798800D01*
%TO.N,/ED4*%
X132130800Y-83591400D02*
X131010000Y-84712200D01*
%TO.N,/ED3*%
X133223000Y-85039200D02*
X128117600Y-85039200D01*
X125933200Y-87299203D02*
X125933200Y-88011000D01*
%TO.N,Net-(J4-D+)*%
X129286000Y-86389200D02*
X128560250Y-85663450D01*
%TO.N,/ED4*%
X127956752Y-84712200D02*
X127704800Y-84964152D01*
%TO.N,/ED3*%
X128031800Y-85200603D02*
X125933200Y-87299203D01*
%TO.N,/ED4*%
X123996259Y-89148800D02*
X123385500Y-89148800D01*
%TO.N,Net-(J4-D+)*%
X128560250Y-85663450D02*
X128417483Y-85663450D01*
%TO.N,/ED6*%
X123996259Y-87848800D02*
X127050800Y-84794259D01*
X127050800Y-84794259D02*
X127050800Y-83591400D01*
%TO.N,/ED5*%
X128609856Y-83591400D02*
X129590800Y-83591400D01*
X125203000Y-87292059D02*
X125203000Y-87104507D01*
X123385500Y-88498800D02*
X123996259Y-88498800D01*
%TO.N,/ED3*%
X128031800Y-85125000D02*
X128031800Y-85200603D01*
X134670800Y-83591400D02*
X133223000Y-85039200D01*
%TO.N,/ED5*%
X127377800Y-84823456D02*
X128609856Y-83591400D01*
X125203000Y-87104507D02*
X127377800Y-84929707D01*
X123996259Y-88498800D02*
X125203000Y-87292059D01*
%TO.N,/ED4*%
X127704800Y-84964152D02*
X127704800Y-85065155D01*
X125530000Y-87615059D02*
X123996259Y-89148800D01*
%TO.N,/ED5*%
X127377800Y-84929707D02*
X127377800Y-84823456D01*
%TO.N,/ED3*%
X128117600Y-85039200D02*
X128031800Y-85125000D01*
X125933200Y-88011000D02*
X124145400Y-89798800D01*
%TO.N,/ED6*%
X123385500Y-87848800D02*
X123996259Y-87848800D01*
%TO.N,Net-(Q1-D)*%
X130770200Y-85688600D02*
X130386559Y-86072241D01*
X130386559Y-86072241D02*
X130386559Y-87113641D01*
X130386559Y-87113641D02*
X129286000Y-88214200D01*
%TO.N,/A12*%
X130986559Y-87022291D02*
X130986559Y-87092000D01*
X131993250Y-86015600D02*
X130986559Y-87022291D01*
X133512950Y-86015600D02*
X131993250Y-86015600D01*
X134645400Y-88087200D02*
X134645400Y-87148050D01*
X134645400Y-87148050D02*
X133512950Y-86015600D01*
%TO.N,Net-(Q1-D)*%
X134416800Y-91770200D02*
X135345400Y-90841600D01*
X135345400Y-90841600D02*
X135345400Y-87136200D01*
X135345400Y-87136200D02*
X133897800Y-85688600D01*
X133897800Y-85688600D02*
X130770200Y-85688600D01*
%TO.N,/ED0*%
X134504000Y-95670150D02*
X132787350Y-97386800D01*
X129997200Y-91262200D02*
X131408600Y-92673600D01*
X133531704Y-92673600D02*
X134504000Y-93645896D01*
X124482859Y-91262200D02*
X129997200Y-91262200D01*
X123996259Y-91748800D02*
X124482859Y-91262200D01*
X123385500Y-91748800D02*
X123996259Y-91748800D01*
X134504000Y-93645896D02*
X134504000Y-95670150D01*
X131408600Y-92673600D02*
X133531704Y-92673600D01*
X132787350Y-97386800D02*
X128495400Y-97386800D01*
X128495400Y-97386800D02*
X127050800Y-98831400D01*
%TO.N,GND*%
X127334000Y-92278200D02*
X123506100Y-92278200D01*
X123506100Y-92278200D02*
X123385500Y-92398800D01*
%TO.N,+3V3*%
X117660500Y-85248800D02*
X119846289Y-87434589D01*
X119846289Y-87434589D02*
X119880211Y-87434589D01*
%TO.N,+5V*%
X123385500Y-85248800D02*
X123385500Y-85898800D01*
%TO.N,+3V3*%
X117660500Y-85898800D02*
X117660500Y-85248800D01*
%TO.N,GND*%
X117660500Y-91748800D02*
X117660500Y-92398800D01*
%TO.N,/ED7*%
X123385500Y-87198800D02*
X123996259Y-87198800D01*
X123996259Y-87198800D02*
X124510800Y-86684259D01*
X124510800Y-86684259D02*
X124510800Y-83591400D01*
%TD*%
M02*
