%TF.GenerationSoftware,KiCad,Pcbnew,7.0.5-7.0.5~ubuntu20.04.1*%
%TF.CreationDate,2023-07-18T12:45:14+02:00*%
%TF.ProjectId,EpromEMU_TOP_new_STM32F3,4570726f-6d45-44d5-955f-544f505f6e65,rev?*%
%TF.SameCoordinates,Original*%
%TF.FileFunction,Legend,Bot*%
%TF.FilePolarity,Positive*%
%FSLAX46Y46*%
G04 Gerber Fmt 4.6, Leading zero omitted, Abs format (unit mm)*
G04 Created by KiCad (PCBNEW 7.0.5-7.0.5~ubuntu20.04.1) date 2023-07-18 12:45:14*
%MOMM*%
%LPD*%
G01*
G04 APERTURE LIST*
%ADD10C,0.150000*%
%ADD11C,0.120000*%
G04 APERTURE END LIST*
D10*
%TO.C,U1*%
X125075006Y-95619574D02*
X125647426Y-96191994D01*
X125647426Y-96191994D02*
X125681098Y-96293009D01*
X125681098Y-96293009D02*
X125681098Y-96360353D01*
X125681098Y-96360353D02*
X125647426Y-96461368D01*
X125647426Y-96461368D02*
X125512739Y-96596055D01*
X125512739Y-96596055D02*
X125411724Y-96629727D01*
X125411724Y-96629727D02*
X125344380Y-96629727D01*
X125344380Y-96629727D02*
X125243365Y-96596055D01*
X125243365Y-96596055D02*
X124670945Y-96023635D01*
X124670945Y-97437849D02*
X125075006Y-97033788D01*
X124872976Y-97235818D02*
X124165869Y-96528712D01*
X124165869Y-96528712D02*
X124334228Y-96562383D01*
X124334228Y-96562383D02*
X124468915Y-96562383D01*
X124468915Y-96562383D02*
X124569930Y-96528712D01*
%TO.C,Q2*%
X106089438Y-96246457D02*
X106184676Y-96198838D01*
X106184676Y-96198838D02*
X106279914Y-96103600D01*
X106279914Y-96103600D02*
X106422771Y-95960742D01*
X106422771Y-95960742D02*
X106518009Y-95913123D01*
X106518009Y-95913123D02*
X106613247Y-95913123D01*
X106565628Y-96151219D02*
X106660866Y-96103600D01*
X106660866Y-96103600D02*
X106756104Y-96008361D01*
X106756104Y-96008361D02*
X106803723Y-95817885D01*
X106803723Y-95817885D02*
X106803723Y-95484552D01*
X106803723Y-95484552D02*
X106756104Y-95294076D01*
X106756104Y-95294076D02*
X106660866Y-95198838D01*
X106660866Y-95198838D02*
X106565628Y-95151219D01*
X106565628Y-95151219D02*
X106375152Y-95151219D01*
X106375152Y-95151219D02*
X106279914Y-95198838D01*
X106279914Y-95198838D02*
X106184676Y-95294076D01*
X106184676Y-95294076D02*
X106137057Y-95484552D01*
X106137057Y-95484552D02*
X106137057Y-95817885D01*
X106137057Y-95817885D02*
X106184676Y-96008361D01*
X106184676Y-96008361D02*
X106279914Y-96103600D01*
X106279914Y-96103600D02*
X106375152Y-96151219D01*
X106375152Y-96151219D02*
X106565628Y-96151219D01*
X105756104Y-95246457D02*
X105708485Y-95198838D01*
X105708485Y-95198838D02*
X105613247Y-95151219D01*
X105613247Y-95151219D02*
X105375152Y-95151219D01*
X105375152Y-95151219D02*
X105279914Y-95198838D01*
X105279914Y-95198838D02*
X105232295Y-95246457D01*
X105232295Y-95246457D02*
X105184676Y-95341695D01*
X105184676Y-95341695D02*
X105184676Y-95436933D01*
X105184676Y-95436933D02*
X105232295Y-95579790D01*
X105232295Y-95579790D02*
X105803723Y-96151219D01*
X105803723Y-96151219D02*
X105184676Y-96151219D01*
%TO.C,Q1*%
X129691538Y-94491657D02*
X129786776Y-94444038D01*
X129786776Y-94444038D02*
X129882014Y-94348800D01*
X129882014Y-94348800D02*
X130024871Y-94205942D01*
X130024871Y-94205942D02*
X130120109Y-94158323D01*
X130120109Y-94158323D02*
X130215347Y-94158323D01*
X130167728Y-94396419D02*
X130262966Y-94348800D01*
X130262966Y-94348800D02*
X130358204Y-94253561D01*
X130358204Y-94253561D02*
X130405823Y-94063085D01*
X130405823Y-94063085D02*
X130405823Y-93729752D01*
X130405823Y-93729752D02*
X130358204Y-93539276D01*
X130358204Y-93539276D02*
X130262966Y-93444038D01*
X130262966Y-93444038D02*
X130167728Y-93396419D01*
X130167728Y-93396419D02*
X129977252Y-93396419D01*
X129977252Y-93396419D02*
X129882014Y-93444038D01*
X129882014Y-93444038D02*
X129786776Y-93539276D01*
X129786776Y-93539276D02*
X129739157Y-93729752D01*
X129739157Y-93729752D02*
X129739157Y-94063085D01*
X129739157Y-94063085D02*
X129786776Y-94253561D01*
X129786776Y-94253561D02*
X129882014Y-94348800D01*
X129882014Y-94348800D02*
X129977252Y-94396419D01*
X129977252Y-94396419D02*
X130167728Y-94396419D01*
X128786776Y-94396419D02*
X129358204Y-94396419D01*
X129072490Y-94396419D02*
X129072490Y-93396419D01*
X129072490Y-93396419D02*
X129167728Y-93539276D01*
X129167728Y-93539276D02*
X129262966Y-93634514D01*
X129262966Y-93634514D02*
X129358204Y-93682133D01*
%TO.C,C1*%
X114558066Y-95605980D02*
X114605685Y-95653600D01*
X114605685Y-95653600D02*
X114748542Y-95701219D01*
X114748542Y-95701219D02*
X114843780Y-95701219D01*
X114843780Y-95701219D02*
X114986637Y-95653600D01*
X114986637Y-95653600D02*
X115081875Y-95558361D01*
X115081875Y-95558361D02*
X115129494Y-95463123D01*
X115129494Y-95463123D02*
X115177113Y-95272647D01*
X115177113Y-95272647D02*
X115177113Y-95129790D01*
X115177113Y-95129790D02*
X115129494Y-94939314D01*
X115129494Y-94939314D02*
X115081875Y-94844076D01*
X115081875Y-94844076D02*
X114986637Y-94748838D01*
X114986637Y-94748838D02*
X114843780Y-94701219D01*
X114843780Y-94701219D02*
X114748542Y-94701219D01*
X114748542Y-94701219D02*
X114605685Y-94748838D01*
X114605685Y-94748838D02*
X114558066Y-94796457D01*
X113605685Y-95701219D02*
X114177113Y-95701219D01*
X113891399Y-95701219D02*
X113891399Y-94701219D01*
X113891399Y-94701219D02*
X113986637Y-94844076D01*
X113986637Y-94844076D02*
X114081875Y-94939314D01*
X114081875Y-94939314D02*
X114177113Y-94986933D01*
D11*
%TO.C,U1*%
X125890496Y-92407249D02*
X125572298Y-92089051D01*
X120466987Y-97194362D02*
X119554819Y-98106530D01*
X115998072Y-92089051D02*
X115679874Y-92407249D01*
X121103383Y-97194362D02*
X120785185Y-97512560D01*
X120785185Y-87301938D02*
X121103383Y-87620136D01*
X120466987Y-87620136D02*
X120785185Y-87301938D01*
X120785185Y-97512560D02*
X120466987Y-97194362D01*
X115679874Y-92407249D02*
X115998072Y-92725447D01*
X125572298Y-92725447D02*
X125890496Y-92407249D01*
%TO.C,R6*%
X124004336Y-99642600D02*
X124458464Y-99642600D01*
X124004336Y-98172600D02*
X124458464Y-98172600D01*
%TO.C,Q2*%
X105234200Y-96616400D02*
X108394200Y-96616400D01*
X105234200Y-99776400D02*
X106694200Y-99776400D01*
X105234200Y-99776400D02*
X105234200Y-98846400D01*
X105234200Y-96616400D02*
X105234200Y-97546400D01*
%TO.C,Q1*%
X129596300Y-89981600D02*
X130396300Y-89981600D01*
X129596300Y-89981600D02*
X128796300Y-89981600D01*
X129596300Y-93101600D02*
X130396300Y-93101600D01*
X129596300Y-93101600D02*
X127796300Y-93101600D01*
%TO.C,C3*%
X114140348Y-98248800D02*
X114662852Y-98248800D01*
X114140348Y-99718800D02*
X114662852Y-99718800D01*
%TO.C,C1*%
X114652652Y-97661400D02*
X114130148Y-97661400D01*
X114652652Y-96191400D02*
X114130148Y-96191400D01*
%TD*%
M02*
