%TF.GenerationSoftware,KiCad,Pcbnew,7.0.5-7.0.5~ubuntu20.04.1*%
%TF.CreationDate,2023-07-18T12:45:14+02:00*%
%TF.ProjectId,EpromEMU_TOP_new_STM32F3,4570726f-6d45-44d5-955f-544f505f6e65,rev?*%
%TF.SameCoordinates,Original*%
%TF.FileFunction,Soldermask,Top*%
%TF.FilePolarity,Negative*%
%FSLAX46Y46*%
G04 Gerber Fmt 4.6, Leading zero omitted, Abs format (unit mm)*
G04 Created by KiCad (PCBNEW 7.0.5-7.0.5~ubuntu20.04.1) date 2023-07-18 12:45:14*
%MOMM*%
%LPD*%
G01*
G04 APERTURE LIST*
G04 Aperture macros list*
%AMRoundRect*
0 Rectangle with rounded corners*
0 $1 Rounding radius*
0 $2 $3 $4 $5 $6 $7 $8 $9 X,Y pos of 4 corners*
0 Add a 4 corners polygon primitive as box body*
4,1,4,$2,$3,$4,$5,$6,$7,$8,$9,$2,$3,0*
0 Add four circle primitives for the rounded corners*
1,1,$1+$1,$2,$3*
1,1,$1+$1,$4,$5*
1,1,$1+$1,$6,$7*
1,1,$1+$1,$8,$9*
0 Add four rect primitives between the rounded corners*
20,1,$1+$1,$2,$3,$4,$5,0*
20,1,$1+$1,$4,$5,$6,$7,0*
20,1,$1+$1,$6,$7,$8,$9,0*
20,1,$1+$1,$8,$9,$2,$3,0*%
G04 Aperture macros list end*
%ADD10R,1.400000X0.400000*%
%ADD11R,1.900000X2.300000*%
%ADD12R,1.900000X1.800000*%
%ADD13C,0.800000*%
%ADD14O,1.600000X1.600000*%
%ADD15RoundRect,0.250000X-0.250000X-0.475000X0.250000X-0.475000X0.250000X0.475000X-0.250000X0.475000X0*%
%ADD16RoundRect,0.100000X-0.637500X-0.100000X0.637500X-0.100000X0.637500X0.100000X-0.637500X0.100000X0*%
%ADD17R,1.700000X1.700000*%
%ADD18R,1.600000X1.300000*%
%ADD19RoundRect,0.250000X0.262500X0.450000X-0.262500X0.450000X-0.262500X-0.450000X0.262500X-0.450000X0*%
%ADD20RoundRect,0.250000X-0.262500X-0.450000X0.262500X-0.450000X0.262500X0.450000X-0.262500X0.450000X0*%
%ADD21RoundRect,0.250000X0.450000X-0.262500X0.450000X0.262500X-0.450000X0.262500X-0.450000X-0.262500X0*%
G04 APERTURE END LIST*
D10*
%TO.C,J4*%
X104318400Y-88793800D03*
X104318400Y-89443800D03*
X104318400Y-90093800D03*
X104318400Y-90743800D03*
X104318400Y-91393800D03*
D11*
X101468400Y-93843800D03*
D12*
X101468400Y-91243800D03*
D11*
X101468400Y-86343800D03*
D12*
X101468400Y-88943800D03*
%TD*%
D13*
%TO.C,J40*%
X111658400Y-95123000D03*
%TD*%
%TO.C,J39*%
X127685800Y-93853000D03*
%TD*%
%TO.C,J38*%
X127863600Y-89281000D03*
%TD*%
%TO.C,J36*%
X126669800Y-88925400D03*
%TD*%
%TO.C,J37*%
X128981200Y-89560400D03*
%TD*%
%TO.C,J34*%
X113893600Y-86563200D03*
%TD*%
%TO.C,J29*%
X106375200Y-93649800D03*
%TD*%
%TO.C,J28*%
X107111800Y-91948000D03*
%TD*%
D14*
%TO.C,U7*%
X101650800Y-83591400D03*
X124510800Y-83591400D03*
X127050800Y-83591400D03*
X129590800Y-83591400D03*
X132130800Y-83591400D03*
X134670800Y-83591400D03*
X134670800Y-98831400D03*
X132130800Y-98831400D03*
X129590800Y-98831400D03*
X127050800Y-98831400D03*
%TD*%
D15*
%TO.C,C5*%
X116372600Y-83515200D03*
X118272600Y-83515200D03*
%TD*%
%TO.C,C2*%
X119969200Y-83515200D03*
X121869200Y-83515200D03*
%TD*%
D13*
%TO.C,J31*%
X113868200Y-94843600D03*
%TD*%
%TO.C,J2*%
X120853200Y-98933000D03*
%TD*%
%TO.C,J32*%
X113436400Y-90652600D03*
%TD*%
%TO.C,J26*%
X109267600Y-90779600D03*
%TD*%
%TO.C,J13*%
X133451600Y-88112600D03*
%TD*%
%TO.C,J9*%
X132232400Y-93726000D03*
%TD*%
%TO.C,J14*%
X132283200Y-86715600D03*
%TD*%
%TO.C,J15*%
X133451600Y-86944200D03*
%TD*%
%TO.C,J12*%
X131267200Y-88392000D03*
%TD*%
%TO.C,J24*%
X109143800Y-92989400D03*
%TD*%
%TO.C,J17*%
X132384800Y-89103200D03*
%TD*%
%TO.C,J8*%
X131038600Y-93751400D03*
%TD*%
%TO.C,J25*%
X107899200Y-92964000D03*
%TD*%
%TO.C,J22*%
X109778800Y-94513400D03*
%TD*%
%TO.C,J30*%
X112776000Y-86868000D03*
%TD*%
%TO.C,J11*%
X132308600Y-91795600D03*
%TD*%
%TO.C,J23*%
X108508800Y-94640400D03*
%TD*%
%TO.C,J20*%
X109982000Y-96023800D03*
%TD*%
%TO.C,J10*%
X133477000Y-93700600D03*
%TD*%
%TO.C,J1*%
X133426200Y-95758000D03*
%TD*%
%TO.C,J21*%
X108762800Y-96012000D03*
%TD*%
%TO.C,J7*%
X132867400Y-94716600D03*
%TD*%
%TO.C,J16*%
X134645400Y-88087200D03*
%TD*%
%TO.C,J19*%
X133883400Y-90449400D03*
%TD*%
%TO.C,J27*%
X108199200Y-91567000D03*
%TD*%
%TO.C,J5*%
X131089400Y-95732600D03*
%TD*%
%TO.C,J33*%
X112318800Y-91033600D03*
%TD*%
%TO.C,J18*%
X133883400Y-89230200D03*
%TD*%
%TO.C,J6*%
X132257800Y-95732600D03*
%TD*%
D16*
%TO.C,U2*%
X117660500Y-85248800D03*
X117660500Y-85898800D03*
X117660500Y-86548800D03*
X117660500Y-87198800D03*
X117660500Y-87848800D03*
X117660500Y-88498800D03*
X117660500Y-89148800D03*
X117660500Y-89798800D03*
X117660500Y-90448800D03*
X117660500Y-91098800D03*
X117660500Y-91748800D03*
X117660500Y-92398800D03*
X123385500Y-92398800D03*
X123385500Y-91748800D03*
X123385500Y-91098800D03*
X123385500Y-90448800D03*
X123385500Y-89798800D03*
X123385500Y-89148800D03*
X123385500Y-88498800D03*
X123385500Y-87848800D03*
X123385500Y-87198800D03*
X123385500Y-86548800D03*
X123385500Y-85898800D03*
X123385500Y-85248800D03*
%TD*%
D17*
%TO.C,J35*%
X101803200Y-98221800D03*
%TD*%
D18*
%TO.C,Y1*%
X115010200Y-98739200D03*
X111710200Y-98739200D03*
X111710200Y-96739200D03*
X115010200Y-96739200D03*
%TD*%
D19*
%TO.C,R5*%
X106219000Y-96901000D03*
X104394000Y-96901000D03*
%TD*%
D20*
%TO.C,R4*%
X109348900Y-83616800D03*
X111173900Y-83616800D03*
%TD*%
%TO.C,R3*%
X109374300Y-85826600D03*
X111199300Y-85826600D03*
%TD*%
D21*
%TO.C,R2*%
X129286000Y-86389200D03*
X129286000Y-88214200D03*
%TD*%
D19*
%TO.C,R1*%
X129159000Y-92278200D03*
X127334000Y-92278200D03*
%TD*%
D13*
%TO.C,J3*%
X119684800Y-98958400D03*
%TD*%
D15*
%TO.C,C4*%
X104348200Y-98882200D03*
X106248200Y-98882200D03*
%TD*%
M02*
