M48
; DRILL file {KiCad 7.0.5-7.0.5~ubuntu20.04.1} date Di 18 Jul 2023 12:45:16
; FORMAT={-:-/ absolute / metric / decimal}
; #@! TF.CreationDate,2023-07-18T12:45:16+02:00
; #@! TF.GenerationSoftware,Kicad,Pcbnew,7.0.5-7.0.5~ubuntu20.04.1
; #@! TF.FileFunction,MixedPlating,1,2
FMAT,2
METRIC
; #@! TA.AperFunction,Plated,PTH,ViaDrill
T1C0.300
; #@! TA.AperFunction,Plated,PTH,ComponentDrill
T2C0.500
; #@! TA.AperFunction,Plated,PTH,ComponentDrill
T3C0.800
; #@! TA.AperFunction,Plated,PTH,ComponentDrill
T4C1.000
%
G90
G05
T1
X104.348Y-99.066
X107.494Y-97.246
X107.494Y-99.146
X109.374Y-85.827
X111.71Y-96.777
X111.71Y-98.739
X115.01Y-96.739
X115.352Y-98.73
X115.545Y-86.182
X115.773Y-85.395
X116.309Y-83.528
X117.748Y-97.641
X118.11Y-83.245
X118.337Y-98.198
X119.104Y-93.342
X119.292Y-95.02
X119.634Y-85.496
X119.88Y-87.435
X120.04Y-93.243
X120.045Y-83.464
X120.548Y-85.509
X120.675Y-94.666
X120.929Y-96.19
X121.019Y-93.104
X121.082Y-91.119
X121.596Y-95.209
X121.809Y-97.516
X121.817Y-90.792
X121.869Y-83.515
X121.996Y-99.187
X122.043Y-85.182
X122.115Y-92.379
X122.709Y-94.642
X123.622Y-92.418
X125.144Y-98.908
X128.417Y-85.663
X128.778Y-94.615
X129.159Y-92.278
X129.921Y-93.878
X130.343Y-89.805
X130.987Y-87.092
X131.275Y-89.832
X134.417Y-91.77
T2
X106.375Y-93.65
X107.112Y-91.948
X107.899Y-92.964
X108.199Y-91.567
X108.509Y-94.64
X108.763Y-96.012
X109.144Y-92.989
X109.268Y-90.78
X109.779Y-94.513
X109.982Y-96.024
X111.658Y-95.123
X112.319Y-91.034
X112.776Y-86.868
X113.436Y-90.653
X113.868Y-94.844
X113.894Y-86.563
X119.685Y-98.958
X120.853Y-98.933
X126.67Y-88.925
X127.686Y-93.853
X127.864Y-89.281
X128.981Y-89.56
X131.039Y-93.751
X131.089Y-95.733
X131.267Y-88.392
X132.232Y-93.726
X132.258Y-95.733
X132.283Y-86.716
X132.309Y-91.796
X132.385Y-89.103
X132.867Y-94.717
X133.426Y-95.758
X133.452Y-86.944
X133.452Y-88.113
X133.477Y-93.701
X133.883Y-89.23
X133.883Y-90.449
X134.645Y-88.087
T3
X101.651Y-83.591
X124.511Y-83.591
X127.051Y-83.591
X127.051Y-98.831
X129.591Y-83.591
X129.591Y-98.831
X132.131Y-83.591
X132.131Y-98.831
X134.671Y-83.591
X134.671Y-98.831
T4
X101.803Y-98.222
T0
M30
