%TF.GenerationSoftware,KiCad,Pcbnew,7.0.10-7.0.10~ubuntu20.04.1*%
%TF.CreationDate,2024-01-23T10:27:16+01:00*%
%TF.ProjectId,6303X_FP64,36333033-585f-4465-9036-342e6b696361,rev?*%
%TF.SameCoordinates,Original*%
%TF.FileFunction,Soldermask,Top*%
%TF.FilePolarity,Negative*%
%FSLAX46Y46*%
G04 Gerber Fmt 4.6, Leading zero omitted, Abs format (unit mm)*
G04 Created by KiCad (PCBNEW 7.0.10-7.0.10~ubuntu20.04.1) date 2024-01-23 10:27:16*
%MOMM*%
%LPD*%
G01*
G04 APERTURE LIST*
%ADD10R,1.700000X1.700000*%
%ADD11O,1.700000X1.700000*%
%ADD12R,1.350000X1.350000*%
%ADD13R,1.600000X1.600000*%
%ADD14O,1.600000X1.600000*%
%ADD15O,0.400000X2.000000*%
%ADD16O,2.000000X0.400000*%
G04 APERTURE END LIST*
D10*
%TO.C,JP1*%
X180746400Y-66492200D03*
D11*
X180746400Y-69032200D03*
%TD*%
D12*
%TO.C,J4*%
X183896000Y-40640000D03*
%TD*%
D13*
%TO.C,U3*%
X173736000Y-52730400D03*
D14*
X176276000Y-52730400D03*
X178816000Y-52730400D03*
X181356000Y-52730400D03*
X183896000Y-52730400D03*
X186436000Y-52730400D03*
X188976000Y-52730400D03*
X191516000Y-52730400D03*
X194056000Y-52730400D03*
X196596000Y-52730400D03*
X199136000Y-52730400D03*
X201676000Y-52730400D03*
X204216000Y-52730400D03*
X206756000Y-52730400D03*
X209296000Y-52730400D03*
X211836000Y-52730400D03*
X214376000Y-52730400D03*
X216916000Y-52730400D03*
X219456000Y-52730400D03*
X221996000Y-52730400D03*
X221996000Y-37490400D03*
X219456000Y-37490400D03*
X216916000Y-37490400D03*
X214376000Y-37490400D03*
X211836000Y-37490400D03*
X209296000Y-37490400D03*
X206756000Y-37490400D03*
X204216000Y-37490400D03*
X201676000Y-37490400D03*
X199136000Y-37490400D03*
X196596000Y-37490400D03*
X194056000Y-37490400D03*
X191516000Y-37490400D03*
X188976000Y-37490400D03*
X186436000Y-37490400D03*
X183896000Y-37490400D03*
X181356000Y-37490400D03*
X178816000Y-37490400D03*
X176276000Y-37490400D03*
X173736000Y-37490400D03*
%TD*%
D10*
%TO.C,J1*%
X166878000Y-83566000D03*
D11*
X164338000Y-83566000D03*
X166878000Y-81026000D03*
X164338000Y-81026000D03*
X166878000Y-78486000D03*
X164338000Y-78486000D03*
X166878000Y-75946000D03*
X164338000Y-75946000D03*
X166878000Y-73406000D03*
X164338000Y-73406000D03*
X166878000Y-70866000D03*
X164338000Y-70866000D03*
X166878000Y-68326000D03*
X164338000Y-68326000D03*
X166878000Y-65786000D03*
X164338000Y-65786000D03*
X166878000Y-63246000D03*
X164338000Y-63246000D03*
X166878000Y-60706000D03*
X164338000Y-60706000D03*
X166878000Y-58166000D03*
X164338000Y-58166000D03*
X166878000Y-55626000D03*
X164338000Y-55626000D03*
X166878000Y-53086000D03*
X164338000Y-53086000D03*
%TD*%
D10*
%TO.C,JP2*%
X184404000Y-66492200D03*
D11*
X184404000Y-69032200D03*
%TD*%
D12*
%TO.C,J7*%
X184708800Y-56997600D03*
%TD*%
%TO.C,J6*%
X183896000Y-49784000D03*
%TD*%
D15*
%TO.C,U1*%
X190674000Y-72900000D03*
X191674000Y-72900000D03*
X192674000Y-72900000D03*
X193674000Y-72900000D03*
X194674000Y-72900000D03*
X195674000Y-72900000D03*
X196674000Y-72900000D03*
X197674000Y-72900000D03*
X198674000Y-72900000D03*
X199674000Y-72900000D03*
X200674000Y-72900000D03*
X201674000Y-72900000D03*
X202674000Y-72900000D03*
X203674000Y-72900000D03*
X204674000Y-72900000D03*
X205674000Y-72900000D03*
X206674000Y-72900000D03*
X207674000Y-72900000D03*
X208674000Y-72900000D03*
D16*
X211074000Y-70500000D03*
X211074000Y-69500000D03*
X211074000Y-68500000D03*
X211074000Y-67500000D03*
X211074000Y-66500000D03*
X211074000Y-65500000D03*
X211074000Y-64500000D03*
X211074000Y-63500000D03*
X211074000Y-62500000D03*
X211074000Y-61500000D03*
X211074000Y-60500000D03*
X211074000Y-59500000D03*
X211074000Y-58500000D03*
D15*
X208674000Y-56100000D03*
X207674000Y-56100000D03*
X206674000Y-56100000D03*
X205674000Y-56100000D03*
X204674000Y-56100000D03*
X203674000Y-56100000D03*
X202674000Y-56100000D03*
X201674000Y-56100000D03*
X200674000Y-56100000D03*
X199674000Y-56100000D03*
X198674000Y-56100000D03*
X197674000Y-56100000D03*
X196674000Y-56100000D03*
X195674000Y-56100000D03*
X194674000Y-56100000D03*
X193674000Y-56100000D03*
X192674000Y-56100000D03*
X191674000Y-56100000D03*
X190674000Y-56100000D03*
D16*
X188274000Y-58500000D03*
X188274000Y-59500000D03*
X188274000Y-60500000D03*
X188274000Y-61500000D03*
X188274000Y-62500000D03*
X188274000Y-63500000D03*
X188274000Y-64500000D03*
X188274000Y-65500000D03*
X188274000Y-66500000D03*
X188274000Y-67500000D03*
X188274000Y-68500000D03*
X188274000Y-69500000D03*
X188274000Y-70500000D03*
%TD*%
D12*
%TO.C,J9*%
X184708800Y-60045600D03*
%TD*%
%TO.C,J8*%
X184708800Y-63093600D03*
%TD*%
%TO.C,J3*%
X178816000Y-49784000D03*
%TD*%
M02*
