%TF.GenerationSoftware,KiCad,Pcbnew,7.0.10-7.0.10~ubuntu20.04.1*%
%TF.CreationDate,2024-01-23T10:27:16+01:00*%
%TF.ProjectId,6303X_FP64,36333033-585f-4465-9036-342e6b696361,rev?*%
%TF.SameCoordinates,Original*%
%TF.FileFunction,Legend,Top*%
%TF.FilePolarity,Positive*%
%FSLAX46Y46*%
G04 Gerber Fmt 4.6, Leading zero omitted, Abs format (unit mm)*
G04 Created by KiCad (PCBNEW 7.0.10-7.0.10~ubuntu20.04.1) date 2024-01-23 10:27:16*
%MOMM*%
%LPD*%
G01*
G04 APERTURE LIST*
%ADD10C,0.150000*%
%ADD11C,0.120000*%
G04 APERTURE END LIST*
D10*
X179660779Y-72767819D02*
X179660779Y-71767819D01*
X179660779Y-71767819D02*
X179994112Y-72482104D01*
X179994112Y-72482104D02*
X180327445Y-71767819D01*
X180327445Y-71767819D02*
X180327445Y-72767819D01*
X180803636Y-72767819D02*
X180803636Y-71767819D01*
X180803636Y-71767819D02*
X181184588Y-71767819D01*
X181184588Y-71767819D02*
X181279826Y-71815438D01*
X181279826Y-71815438D02*
X181327445Y-71863057D01*
X181327445Y-71863057D02*
X181375064Y-71958295D01*
X181375064Y-71958295D02*
X181375064Y-72101152D01*
X181375064Y-72101152D02*
X181327445Y-72196390D01*
X181327445Y-72196390D02*
X181279826Y-72244009D01*
X181279826Y-72244009D02*
X181184588Y-72291628D01*
X181184588Y-72291628D02*
X180803636Y-72291628D01*
X181994112Y-71767819D02*
X182089350Y-71767819D01*
X182089350Y-71767819D02*
X182184588Y-71815438D01*
X182184588Y-71815438D02*
X182232207Y-71863057D01*
X182232207Y-71863057D02*
X182279826Y-71958295D01*
X182279826Y-71958295D02*
X182327445Y-72148771D01*
X182327445Y-72148771D02*
X182327445Y-72386866D01*
X182327445Y-72386866D02*
X182279826Y-72577342D01*
X182279826Y-72577342D02*
X182232207Y-72672580D01*
X182232207Y-72672580D02*
X182184588Y-72720200D01*
X182184588Y-72720200D02*
X182089350Y-72767819D01*
X182089350Y-72767819D02*
X181994112Y-72767819D01*
X181994112Y-72767819D02*
X181898874Y-72720200D01*
X181898874Y-72720200D02*
X181851255Y-72672580D01*
X181851255Y-72672580D02*
X181803636Y-72577342D01*
X181803636Y-72577342D02*
X181756017Y-72386866D01*
X181756017Y-72386866D02*
X181756017Y-72148771D01*
X181756017Y-72148771D02*
X181803636Y-71958295D01*
X181803636Y-71958295D02*
X181851255Y-71863057D01*
X181851255Y-71863057D02*
X181898874Y-71815438D01*
X181898874Y-71815438D02*
X181994112Y-71767819D01*
X183517922Y-72767819D02*
X183517922Y-71767819D01*
X183517922Y-71767819D02*
X183851255Y-72482104D01*
X183851255Y-72482104D02*
X184184588Y-71767819D01*
X184184588Y-71767819D02*
X184184588Y-72767819D01*
X184660779Y-72767819D02*
X184660779Y-71767819D01*
X184660779Y-71767819D02*
X185041731Y-71767819D01*
X185041731Y-71767819D02*
X185136969Y-71815438D01*
X185136969Y-71815438D02*
X185184588Y-71863057D01*
X185184588Y-71863057D02*
X185232207Y-71958295D01*
X185232207Y-71958295D02*
X185232207Y-72101152D01*
X185232207Y-72101152D02*
X185184588Y-72196390D01*
X185184588Y-72196390D02*
X185136969Y-72244009D01*
X185136969Y-72244009D02*
X185041731Y-72291628D01*
X185041731Y-72291628D02*
X184660779Y-72291628D01*
X186184588Y-72767819D02*
X185613160Y-72767819D01*
X185898874Y-72767819D02*
X185898874Y-71767819D01*
X185898874Y-71767819D02*
X185803636Y-71910676D01*
X185803636Y-71910676D02*
X185708398Y-72005914D01*
X185708398Y-72005914D02*
X185613160Y-72053533D01*
X159860588Y-53516033D02*
X160698684Y-53516033D01*
X160279636Y-54106509D02*
X160279636Y-52925557D01*
X161746303Y-52556509D02*
X161222493Y-52556509D01*
X161222493Y-52556509D02*
X161170112Y-53294604D01*
X161170112Y-53294604D02*
X161222493Y-53220795D01*
X161222493Y-53220795D02*
X161327255Y-53146985D01*
X161327255Y-53146985D02*
X161589160Y-53146985D01*
X161589160Y-53146985D02*
X161693922Y-53220795D01*
X161693922Y-53220795D02*
X161746303Y-53294604D01*
X161746303Y-53294604D02*
X161798684Y-53442223D01*
X161798684Y-53442223D02*
X161798684Y-53811271D01*
X161798684Y-53811271D02*
X161746303Y-53958890D01*
X161746303Y-53958890D02*
X161693922Y-54032700D01*
X161693922Y-54032700D02*
X161589160Y-54106509D01*
X161589160Y-54106509D02*
X161327255Y-54106509D01*
X161327255Y-54106509D02*
X161222493Y-54032700D01*
X161222493Y-54032700D02*
X161170112Y-53958890D01*
X162112969Y-52556509D02*
X162479636Y-54106509D01*
X162479636Y-54106509D02*
X162846303Y-52556509D01*
X159860588Y-56602009D02*
X159860588Y-55052009D01*
X159860588Y-55052009D02*
X160279636Y-55052009D01*
X160279636Y-55052009D02*
X160384398Y-55125819D01*
X160384398Y-55125819D02*
X160436779Y-55199628D01*
X160436779Y-55199628D02*
X160489160Y-55347247D01*
X160489160Y-55347247D02*
X160489160Y-55568676D01*
X160489160Y-55568676D02*
X160436779Y-55716295D01*
X160436779Y-55716295D02*
X160384398Y-55790104D01*
X160384398Y-55790104D02*
X160279636Y-55863914D01*
X160279636Y-55863914D02*
X159860588Y-55863914D01*
X160908207Y-55199628D02*
X160960588Y-55125819D01*
X160960588Y-55125819D02*
X161065350Y-55052009D01*
X161065350Y-55052009D02*
X161327255Y-55052009D01*
X161327255Y-55052009D02*
X161432017Y-55125819D01*
X161432017Y-55125819D02*
X161484398Y-55199628D01*
X161484398Y-55199628D02*
X161536779Y-55347247D01*
X161536779Y-55347247D02*
X161536779Y-55494866D01*
X161536779Y-55494866D02*
X161484398Y-55716295D01*
X161484398Y-55716295D02*
X160855826Y-56602009D01*
X160855826Y-56602009D02*
X161536779Y-56602009D01*
X162584398Y-56602009D02*
X161955826Y-56602009D01*
X162270112Y-56602009D02*
X162270112Y-55052009D01*
X162270112Y-55052009D02*
X162165350Y-55273438D01*
X162165350Y-55273438D02*
X162060588Y-55421057D01*
X162060588Y-55421057D02*
X161955826Y-55494866D01*
X159860588Y-59097509D02*
X159860588Y-57547509D01*
X159860588Y-57547509D02*
X160279636Y-57547509D01*
X160279636Y-57547509D02*
X160384398Y-57621319D01*
X160384398Y-57621319D02*
X160436779Y-57695128D01*
X160436779Y-57695128D02*
X160489160Y-57842747D01*
X160489160Y-57842747D02*
X160489160Y-58064176D01*
X160489160Y-58064176D02*
X160436779Y-58211795D01*
X160436779Y-58211795D02*
X160384398Y-58285604D01*
X160384398Y-58285604D02*
X160279636Y-58359414D01*
X160279636Y-58359414D02*
X159860588Y-58359414D01*
X160908207Y-57695128D02*
X160960588Y-57621319D01*
X160960588Y-57621319D02*
X161065350Y-57547509D01*
X161065350Y-57547509D02*
X161327255Y-57547509D01*
X161327255Y-57547509D02*
X161432017Y-57621319D01*
X161432017Y-57621319D02*
X161484398Y-57695128D01*
X161484398Y-57695128D02*
X161536779Y-57842747D01*
X161536779Y-57842747D02*
X161536779Y-57990366D01*
X161536779Y-57990366D02*
X161484398Y-58211795D01*
X161484398Y-58211795D02*
X160855826Y-59097509D01*
X160855826Y-59097509D02*
X161536779Y-59097509D01*
X161903445Y-57547509D02*
X162584398Y-57547509D01*
X162584398Y-57547509D02*
X162217731Y-58137985D01*
X162217731Y-58137985D02*
X162374874Y-58137985D01*
X162374874Y-58137985D02*
X162479636Y-58211795D01*
X162479636Y-58211795D02*
X162532017Y-58285604D01*
X162532017Y-58285604D02*
X162584398Y-58433223D01*
X162584398Y-58433223D02*
X162584398Y-58802271D01*
X162584398Y-58802271D02*
X162532017Y-58949890D01*
X162532017Y-58949890D02*
X162479636Y-59023700D01*
X162479636Y-59023700D02*
X162374874Y-59097509D01*
X162374874Y-59097509D02*
X162060588Y-59097509D01*
X162060588Y-59097509D02*
X161955826Y-59023700D01*
X161955826Y-59023700D02*
X161903445Y-58949890D01*
X159860588Y-61593009D02*
X159860588Y-60043009D01*
X159860588Y-60043009D02*
X160279636Y-60043009D01*
X160279636Y-60043009D02*
X160384398Y-60116819D01*
X160384398Y-60116819D02*
X160436779Y-60190628D01*
X160436779Y-60190628D02*
X160489160Y-60338247D01*
X160489160Y-60338247D02*
X160489160Y-60559676D01*
X160489160Y-60559676D02*
X160436779Y-60707295D01*
X160436779Y-60707295D02*
X160384398Y-60781104D01*
X160384398Y-60781104D02*
X160279636Y-60854914D01*
X160279636Y-60854914D02*
X159860588Y-60854914D01*
X160908207Y-60190628D02*
X160960588Y-60116819D01*
X160960588Y-60116819D02*
X161065350Y-60043009D01*
X161065350Y-60043009D02*
X161327255Y-60043009D01*
X161327255Y-60043009D02*
X161432017Y-60116819D01*
X161432017Y-60116819D02*
X161484398Y-60190628D01*
X161484398Y-60190628D02*
X161536779Y-60338247D01*
X161536779Y-60338247D02*
X161536779Y-60485866D01*
X161536779Y-60485866D02*
X161484398Y-60707295D01*
X161484398Y-60707295D02*
X160855826Y-61593009D01*
X160855826Y-61593009D02*
X161536779Y-61593009D01*
X162532017Y-60043009D02*
X162008207Y-60043009D01*
X162008207Y-60043009D02*
X161955826Y-60781104D01*
X161955826Y-60781104D02*
X162008207Y-60707295D01*
X162008207Y-60707295D02*
X162112969Y-60633485D01*
X162112969Y-60633485D02*
X162374874Y-60633485D01*
X162374874Y-60633485D02*
X162479636Y-60707295D01*
X162479636Y-60707295D02*
X162532017Y-60781104D01*
X162532017Y-60781104D02*
X162584398Y-60928723D01*
X162584398Y-60928723D02*
X162584398Y-61297771D01*
X162584398Y-61297771D02*
X162532017Y-61445390D01*
X162532017Y-61445390D02*
X162479636Y-61519200D01*
X162479636Y-61519200D02*
X162374874Y-61593009D01*
X162374874Y-61593009D02*
X162112969Y-61593009D01*
X162112969Y-61593009D02*
X162008207Y-61519200D01*
X162008207Y-61519200D02*
X161955826Y-61445390D01*
X159860588Y-64088509D02*
X159860588Y-62538509D01*
X159860588Y-62538509D02*
X160279636Y-62538509D01*
X160279636Y-62538509D02*
X160384398Y-62612319D01*
X160384398Y-62612319D02*
X160436779Y-62686128D01*
X160436779Y-62686128D02*
X160489160Y-62833747D01*
X160489160Y-62833747D02*
X160489160Y-63055176D01*
X160489160Y-63055176D02*
X160436779Y-63202795D01*
X160436779Y-63202795D02*
X160384398Y-63276604D01*
X160384398Y-63276604D02*
X160279636Y-63350414D01*
X160279636Y-63350414D02*
X159860588Y-63350414D01*
X160908207Y-62686128D02*
X160960588Y-62612319D01*
X160960588Y-62612319D02*
X161065350Y-62538509D01*
X161065350Y-62538509D02*
X161327255Y-62538509D01*
X161327255Y-62538509D02*
X161432017Y-62612319D01*
X161432017Y-62612319D02*
X161484398Y-62686128D01*
X161484398Y-62686128D02*
X161536779Y-62833747D01*
X161536779Y-62833747D02*
X161536779Y-62981366D01*
X161536779Y-62981366D02*
X161484398Y-63202795D01*
X161484398Y-63202795D02*
X160855826Y-64088509D01*
X160855826Y-64088509D02*
X161536779Y-64088509D01*
X161903445Y-62538509D02*
X162636779Y-62538509D01*
X162636779Y-62538509D02*
X162165350Y-64088509D01*
X159860588Y-66584009D02*
X159860588Y-65034009D01*
X159860588Y-65034009D02*
X160279636Y-65034009D01*
X160279636Y-65034009D02*
X160384398Y-65107819D01*
X160384398Y-65107819D02*
X160436779Y-65181628D01*
X160436779Y-65181628D02*
X160489160Y-65329247D01*
X160489160Y-65329247D02*
X160489160Y-65550676D01*
X160489160Y-65550676D02*
X160436779Y-65698295D01*
X160436779Y-65698295D02*
X160384398Y-65772104D01*
X160384398Y-65772104D02*
X160279636Y-65845914D01*
X160279636Y-65845914D02*
X159860588Y-65845914D01*
X161484398Y-65034009D02*
X160960588Y-65034009D01*
X160960588Y-65034009D02*
X160908207Y-65772104D01*
X160908207Y-65772104D02*
X160960588Y-65698295D01*
X160960588Y-65698295D02*
X161065350Y-65624485D01*
X161065350Y-65624485D02*
X161327255Y-65624485D01*
X161327255Y-65624485D02*
X161432017Y-65698295D01*
X161432017Y-65698295D02*
X161484398Y-65772104D01*
X161484398Y-65772104D02*
X161536779Y-65919723D01*
X161536779Y-65919723D02*
X161536779Y-66288771D01*
X161536779Y-66288771D02*
X161484398Y-66436390D01*
X161484398Y-66436390D02*
X161432017Y-66510200D01*
X161432017Y-66510200D02*
X161327255Y-66584009D01*
X161327255Y-66584009D02*
X161065350Y-66584009D01*
X161065350Y-66584009D02*
X160960588Y-66510200D01*
X160960588Y-66510200D02*
X160908207Y-66436390D01*
X162584398Y-66584009D02*
X161955826Y-66584009D01*
X162270112Y-66584009D02*
X162270112Y-65034009D01*
X162270112Y-65034009D02*
X162165350Y-65255438D01*
X162165350Y-65255438D02*
X162060588Y-65403057D01*
X162060588Y-65403057D02*
X161955826Y-65476866D01*
X159860588Y-69079509D02*
X159860588Y-67529509D01*
X159860588Y-67529509D02*
X160279636Y-67529509D01*
X160279636Y-67529509D02*
X160384398Y-67603319D01*
X160384398Y-67603319D02*
X160436779Y-67677128D01*
X160436779Y-67677128D02*
X160489160Y-67824747D01*
X160489160Y-67824747D02*
X160489160Y-68046176D01*
X160489160Y-68046176D02*
X160436779Y-68193795D01*
X160436779Y-68193795D02*
X160384398Y-68267604D01*
X160384398Y-68267604D02*
X160279636Y-68341414D01*
X160279636Y-68341414D02*
X159860588Y-68341414D01*
X161484398Y-67529509D02*
X160960588Y-67529509D01*
X160960588Y-67529509D02*
X160908207Y-68267604D01*
X160908207Y-68267604D02*
X160960588Y-68193795D01*
X160960588Y-68193795D02*
X161065350Y-68119985D01*
X161065350Y-68119985D02*
X161327255Y-68119985D01*
X161327255Y-68119985D02*
X161432017Y-68193795D01*
X161432017Y-68193795D02*
X161484398Y-68267604D01*
X161484398Y-68267604D02*
X161536779Y-68415223D01*
X161536779Y-68415223D02*
X161536779Y-68784271D01*
X161536779Y-68784271D02*
X161484398Y-68931890D01*
X161484398Y-68931890D02*
X161432017Y-69005700D01*
X161432017Y-69005700D02*
X161327255Y-69079509D01*
X161327255Y-69079509D02*
X161065350Y-69079509D01*
X161065350Y-69079509D02*
X160960588Y-69005700D01*
X160960588Y-69005700D02*
X160908207Y-68931890D01*
X161903445Y-67529509D02*
X162584398Y-67529509D01*
X162584398Y-67529509D02*
X162217731Y-68119985D01*
X162217731Y-68119985D02*
X162374874Y-68119985D01*
X162374874Y-68119985D02*
X162479636Y-68193795D01*
X162479636Y-68193795D02*
X162532017Y-68267604D01*
X162532017Y-68267604D02*
X162584398Y-68415223D01*
X162584398Y-68415223D02*
X162584398Y-68784271D01*
X162584398Y-68784271D02*
X162532017Y-68931890D01*
X162532017Y-68931890D02*
X162479636Y-69005700D01*
X162479636Y-69005700D02*
X162374874Y-69079509D01*
X162374874Y-69079509D02*
X162060588Y-69079509D01*
X162060588Y-69079509D02*
X161955826Y-69005700D01*
X161955826Y-69005700D02*
X161903445Y-68931890D01*
X159860588Y-71575009D02*
X159860588Y-70025009D01*
X159860588Y-70025009D02*
X160279636Y-70025009D01*
X160279636Y-70025009D02*
X160384398Y-70098819D01*
X160384398Y-70098819D02*
X160436779Y-70172628D01*
X160436779Y-70172628D02*
X160489160Y-70320247D01*
X160489160Y-70320247D02*
X160489160Y-70541676D01*
X160489160Y-70541676D02*
X160436779Y-70689295D01*
X160436779Y-70689295D02*
X160384398Y-70763104D01*
X160384398Y-70763104D02*
X160279636Y-70836914D01*
X160279636Y-70836914D02*
X159860588Y-70836914D01*
X161484398Y-70025009D02*
X160960588Y-70025009D01*
X160960588Y-70025009D02*
X160908207Y-70763104D01*
X160908207Y-70763104D02*
X160960588Y-70689295D01*
X160960588Y-70689295D02*
X161065350Y-70615485D01*
X161065350Y-70615485D02*
X161327255Y-70615485D01*
X161327255Y-70615485D02*
X161432017Y-70689295D01*
X161432017Y-70689295D02*
X161484398Y-70763104D01*
X161484398Y-70763104D02*
X161536779Y-70910723D01*
X161536779Y-70910723D02*
X161536779Y-71279771D01*
X161536779Y-71279771D02*
X161484398Y-71427390D01*
X161484398Y-71427390D02*
X161432017Y-71501200D01*
X161432017Y-71501200D02*
X161327255Y-71575009D01*
X161327255Y-71575009D02*
X161065350Y-71575009D01*
X161065350Y-71575009D02*
X160960588Y-71501200D01*
X160960588Y-71501200D02*
X160908207Y-71427390D01*
X162532017Y-70025009D02*
X162008207Y-70025009D01*
X162008207Y-70025009D02*
X161955826Y-70763104D01*
X161955826Y-70763104D02*
X162008207Y-70689295D01*
X162008207Y-70689295D02*
X162112969Y-70615485D01*
X162112969Y-70615485D02*
X162374874Y-70615485D01*
X162374874Y-70615485D02*
X162479636Y-70689295D01*
X162479636Y-70689295D02*
X162532017Y-70763104D01*
X162532017Y-70763104D02*
X162584398Y-70910723D01*
X162584398Y-70910723D02*
X162584398Y-71279771D01*
X162584398Y-71279771D02*
X162532017Y-71427390D01*
X162532017Y-71427390D02*
X162479636Y-71501200D01*
X162479636Y-71501200D02*
X162374874Y-71575009D01*
X162374874Y-71575009D02*
X162112969Y-71575009D01*
X162112969Y-71575009D02*
X162008207Y-71501200D01*
X162008207Y-71501200D02*
X161955826Y-71427390D01*
X159860588Y-74070509D02*
X159860588Y-72520509D01*
X159860588Y-72520509D02*
X160279636Y-72520509D01*
X160279636Y-72520509D02*
X160384398Y-72594319D01*
X160384398Y-72594319D02*
X160436779Y-72668128D01*
X160436779Y-72668128D02*
X160489160Y-72815747D01*
X160489160Y-72815747D02*
X160489160Y-73037176D01*
X160489160Y-73037176D02*
X160436779Y-73184795D01*
X160436779Y-73184795D02*
X160384398Y-73258604D01*
X160384398Y-73258604D02*
X160279636Y-73332414D01*
X160279636Y-73332414D02*
X159860588Y-73332414D01*
X161484398Y-72520509D02*
X160960588Y-72520509D01*
X160960588Y-72520509D02*
X160908207Y-73258604D01*
X160908207Y-73258604D02*
X160960588Y-73184795D01*
X160960588Y-73184795D02*
X161065350Y-73110985D01*
X161065350Y-73110985D02*
X161327255Y-73110985D01*
X161327255Y-73110985D02*
X161432017Y-73184795D01*
X161432017Y-73184795D02*
X161484398Y-73258604D01*
X161484398Y-73258604D02*
X161536779Y-73406223D01*
X161536779Y-73406223D02*
X161536779Y-73775271D01*
X161536779Y-73775271D02*
X161484398Y-73922890D01*
X161484398Y-73922890D02*
X161432017Y-73996700D01*
X161432017Y-73996700D02*
X161327255Y-74070509D01*
X161327255Y-74070509D02*
X161065350Y-74070509D01*
X161065350Y-74070509D02*
X160960588Y-73996700D01*
X160960588Y-73996700D02*
X160908207Y-73922890D01*
X161903445Y-72520509D02*
X162636779Y-72520509D01*
X162636779Y-72520509D02*
X162165350Y-74070509D01*
X159860588Y-76566009D02*
X159860588Y-75016009D01*
X159860588Y-75016009D02*
X160279636Y-75016009D01*
X160279636Y-75016009D02*
X160384398Y-75089819D01*
X160384398Y-75089819D02*
X160436779Y-75163628D01*
X160436779Y-75163628D02*
X160489160Y-75311247D01*
X160489160Y-75311247D02*
X160489160Y-75532676D01*
X160489160Y-75532676D02*
X160436779Y-75680295D01*
X160436779Y-75680295D02*
X160384398Y-75754104D01*
X160384398Y-75754104D02*
X160279636Y-75827914D01*
X160279636Y-75827914D02*
X159860588Y-75827914D01*
X161432017Y-75016009D02*
X161222493Y-75016009D01*
X161222493Y-75016009D02*
X161117731Y-75089819D01*
X161117731Y-75089819D02*
X161065350Y-75163628D01*
X161065350Y-75163628D02*
X160960588Y-75385057D01*
X160960588Y-75385057D02*
X160908207Y-75680295D01*
X160908207Y-75680295D02*
X160908207Y-76270771D01*
X160908207Y-76270771D02*
X160960588Y-76418390D01*
X160960588Y-76418390D02*
X161012969Y-76492200D01*
X161012969Y-76492200D02*
X161117731Y-76566009D01*
X161117731Y-76566009D02*
X161327255Y-76566009D01*
X161327255Y-76566009D02*
X161432017Y-76492200D01*
X161432017Y-76492200D02*
X161484398Y-76418390D01*
X161484398Y-76418390D02*
X161536779Y-76270771D01*
X161536779Y-76270771D02*
X161536779Y-75901723D01*
X161536779Y-75901723D02*
X161484398Y-75754104D01*
X161484398Y-75754104D02*
X161432017Y-75680295D01*
X161432017Y-75680295D02*
X161327255Y-75606485D01*
X161327255Y-75606485D02*
X161117731Y-75606485D01*
X161117731Y-75606485D02*
X161012969Y-75680295D01*
X161012969Y-75680295D02*
X160960588Y-75754104D01*
X160960588Y-75754104D02*
X160908207Y-75901723D01*
X162584398Y-76566009D02*
X161955826Y-76566009D01*
X162270112Y-76566009D02*
X162270112Y-75016009D01*
X162270112Y-75016009D02*
X162165350Y-75237438D01*
X162165350Y-75237438D02*
X162060588Y-75385057D01*
X162060588Y-75385057D02*
X161955826Y-75458866D01*
X159860588Y-79061509D02*
X159860588Y-77511509D01*
X159860588Y-77511509D02*
X160279636Y-77511509D01*
X160279636Y-77511509D02*
X160384398Y-77585319D01*
X160384398Y-77585319D02*
X160436779Y-77659128D01*
X160436779Y-77659128D02*
X160489160Y-77806747D01*
X160489160Y-77806747D02*
X160489160Y-78028176D01*
X160489160Y-78028176D02*
X160436779Y-78175795D01*
X160436779Y-78175795D02*
X160384398Y-78249604D01*
X160384398Y-78249604D02*
X160279636Y-78323414D01*
X160279636Y-78323414D02*
X159860588Y-78323414D01*
X161432017Y-77511509D02*
X161222493Y-77511509D01*
X161222493Y-77511509D02*
X161117731Y-77585319D01*
X161117731Y-77585319D02*
X161065350Y-77659128D01*
X161065350Y-77659128D02*
X160960588Y-77880557D01*
X160960588Y-77880557D02*
X160908207Y-78175795D01*
X160908207Y-78175795D02*
X160908207Y-78766271D01*
X160908207Y-78766271D02*
X160960588Y-78913890D01*
X160960588Y-78913890D02*
X161012969Y-78987700D01*
X161012969Y-78987700D02*
X161117731Y-79061509D01*
X161117731Y-79061509D02*
X161327255Y-79061509D01*
X161327255Y-79061509D02*
X161432017Y-78987700D01*
X161432017Y-78987700D02*
X161484398Y-78913890D01*
X161484398Y-78913890D02*
X161536779Y-78766271D01*
X161536779Y-78766271D02*
X161536779Y-78397223D01*
X161536779Y-78397223D02*
X161484398Y-78249604D01*
X161484398Y-78249604D02*
X161432017Y-78175795D01*
X161432017Y-78175795D02*
X161327255Y-78101985D01*
X161327255Y-78101985D02*
X161117731Y-78101985D01*
X161117731Y-78101985D02*
X161012969Y-78175795D01*
X161012969Y-78175795D02*
X160960588Y-78249604D01*
X160960588Y-78249604D02*
X160908207Y-78397223D01*
X161903445Y-77511509D02*
X162584398Y-77511509D01*
X162584398Y-77511509D02*
X162217731Y-78101985D01*
X162217731Y-78101985D02*
X162374874Y-78101985D01*
X162374874Y-78101985D02*
X162479636Y-78175795D01*
X162479636Y-78175795D02*
X162532017Y-78249604D01*
X162532017Y-78249604D02*
X162584398Y-78397223D01*
X162584398Y-78397223D02*
X162584398Y-78766271D01*
X162584398Y-78766271D02*
X162532017Y-78913890D01*
X162532017Y-78913890D02*
X162479636Y-78987700D01*
X162479636Y-78987700D02*
X162374874Y-79061509D01*
X162374874Y-79061509D02*
X162060588Y-79061509D01*
X162060588Y-79061509D02*
X161955826Y-78987700D01*
X161955826Y-78987700D02*
X161903445Y-78913890D01*
X159860588Y-81557009D02*
X159860588Y-80007009D01*
X159860588Y-80007009D02*
X160279636Y-80007009D01*
X160279636Y-80007009D02*
X160384398Y-80080819D01*
X160384398Y-80080819D02*
X160436779Y-80154628D01*
X160436779Y-80154628D02*
X160489160Y-80302247D01*
X160489160Y-80302247D02*
X160489160Y-80523676D01*
X160489160Y-80523676D02*
X160436779Y-80671295D01*
X160436779Y-80671295D02*
X160384398Y-80745104D01*
X160384398Y-80745104D02*
X160279636Y-80818914D01*
X160279636Y-80818914D02*
X159860588Y-80818914D01*
X161432017Y-80007009D02*
X161222493Y-80007009D01*
X161222493Y-80007009D02*
X161117731Y-80080819D01*
X161117731Y-80080819D02*
X161065350Y-80154628D01*
X161065350Y-80154628D02*
X160960588Y-80376057D01*
X160960588Y-80376057D02*
X160908207Y-80671295D01*
X160908207Y-80671295D02*
X160908207Y-81261771D01*
X160908207Y-81261771D02*
X160960588Y-81409390D01*
X160960588Y-81409390D02*
X161012969Y-81483200D01*
X161012969Y-81483200D02*
X161117731Y-81557009D01*
X161117731Y-81557009D02*
X161327255Y-81557009D01*
X161327255Y-81557009D02*
X161432017Y-81483200D01*
X161432017Y-81483200D02*
X161484398Y-81409390D01*
X161484398Y-81409390D02*
X161536779Y-81261771D01*
X161536779Y-81261771D02*
X161536779Y-80892723D01*
X161536779Y-80892723D02*
X161484398Y-80745104D01*
X161484398Y-80745104D02*
X161432017Y-80671295D01*
X161432017Y-80671295D02*
X161327255Y-80597485D01*
X161327255Y-80597485D02*
X161117731Y-80597485D01*
X161117731Y-80597485D02*
X161012969Y-80671295D01*
X161012969Y-80671295D02*
X160960588Y-80745104D01*
X160960588Y-80745104D02*
X160908207Y-80892723D01*
X162532017Y-80007009D02*
X162008207Y-80007009D01*
X162008207Y-80007009D02*
X161955826Y-80745104D01*
X161955826Y-80745104D02*
X162008207Y-80671295D01*
X162008207Y-80671295D02*
X162112969Y-80597485D01*
X162112969Y-80597485D02*
X162374874Y-80597485D01*
X162374874Y-80597485D02*
X162479636Y-80671295D01*
X162479636Y-80671295D02*
X162532017Y-80745104D01*
X162532017Y-80745104D02*
X162584398Y-80892723D01*
X162584398Y-80892723D02*
X162584398Y-81261771D01*
X162584398Y-81261771D02*
X162532017Y-81409390D01*
X162532017Y-81409390D02*
X162479636Y-81483200D01*
X162479636Y-81483200D02*
X162374874Y-81557009D01*
X162374874Y-81557009D02*
X162112969Y-81557009D01*
X162112969Y-81557009D02*
X162008207Y-81483200D01*
X162008207Y-81483200D02*
X161955826Y-81409390D01*
X159860588Y-84052509D02*
X159860588Y-82502509D01*
X159860588Y-82502509D02*
X160279636Y-82502509D01*
X160279636Y-82502509D02*
X160384398Y-82576319D01*
X160384398Y-82576319D02*
X160436779Y-82650128D01*
X160436779Y-82650128D02*
X160489160Y-82797747D01*
X160489160Y-82797747D02*
X160489160Y-83019176D01*
X160489160Y-83019176D02*
X160436779Y-83166795D01*
X160436779Y-83166795D02*
X160384398Y-83240604D01*
X160384398Y-83240604D02*
X160279636Y-83314414D01*
X160279636Y-83314414D02*
X159860588Y-83314414D01*
X161432017Y-82502509D02*
X161222493Y-82502509D01*
X161222493Y-82502509D02*
X161117731Y-82576319D01*
X161117731Y-82576319D02*
X161065350Y-82650128D01*
X161065350Y-82650128D02*
X160960588Y-82871557D01*
X160960588Y-82871557D02*
X160908207Y-83166795D01*
X160908207Y-83166795D02*
X160908207Y-83757271D01*
X160908207Y-83757271D02*
X160960588Y-83904890D01*
X160960588Y-83904890D02*
X161012969Y-83978700D01*
X161012969Y-83978700D02*
X161117731Y-84052509D01*
X161117731Y-84052509D02*
X161327255Y-84052509D01*
X161327255Y-84052509D02*
X161432017Y-83978700D01*
X161432017Y-83978700D02*
X161484398Y-83904890D01*
X161484398Y-83904890D02*
X161536779Y-83757271D01*
X161536779Y-83757271D02*
X161536779Y-83388223D01*
X161536779Y-83388223D02*
X161484398Y-83240604D01*
X161484398Y-83240604D02*
X161432017Y-83166795D01*
X161432017Y-83166795D02*
X161327255Y-83092985D01*
X161327255Y-83092985D02*
X161117731Y-83092985D01*
X161117731Y-83092985D02*
X161012969Y-83166795D01*
X161012969Y-83166795D02*
X160960588Y-83240604D01*
X160960588Y-83240604D02*
X160908207Y-83388223D01*
X161903445Y-82502509D02*
X162636779Y-82502509D01*
X162636779Y-82502509D02*
X162165350Y-84052509D01*
X221759819Y-71363220D02*
X222569342Y-71363220D01*
X222569342Y-71363220D02*
X222664580Y-71315601D01*
X222664580Y-71315601D02*
X222712200Y-71267982D01*
X222712200Y-71267982D02*
X222759819Y-71172744D01*
X222759819Y-71172744D02*
X222759819Y-70982268D01*
X222759819Y-70982268D02*
X222712200Y-70887030D01*
X222712200Y-70887030D02*
X222664580Y-70839411D01*
X222664580Y-70839411D02*
X222569342Y-70791792D01*
X222569342Y-70791792D02*
X221759819Y-70791792D01*
X222093152Y-70315601D02*
X222759819Y-70315601D01*
X222188390Y-70315601D02*
X222140771Y-70267982D01*
X222140771Y-70267982D02*
X222093152Y-70172744D01*
X222093152Y-70172744D02*
X222093152Y-70029887D01*
X222093152Y-70029887D02*
X222140771Y-69934649D01*
X222140771Y-69934649D02*
X222236009Y-69887030D01*
X222236009Y-69887030D02*
X222759819Y-69887030D01*
X222759819Y-69410839D02*
X222093152Y-69410839D01*
X221759819Y-69410839D02*
X221807438Y-69458458D01*
X221807438Y-69458458D02*
X221855057Y-69410839D01*
X221855057Y-69410839D02*
X221807438Y-69363220D01*
X221807438Y-69363220D02*
X221759819Y-69410839D01*
X221759819Y-69410839D02*
X221855057Y-69410839D01*
X222712200Y-68506078D02*
X222759819Y-68601316D01*
X222759819Y-68601316D02*
X222759819Y-68791792D01*
X222759819Y-68791792D02*
X222712200Y-68887030D01*
X222712200Y-68887030D02*
X222664580Y-68934649D01*
X222664580Y-68934649D02*
X222569342Y-68982268D01*
X222569342Y-68982268D02*
X222283628Y-68982268D01*
X222283628Y-68982268D02*
X222188390Y-68934649D01*
X222188390Y-68934649D02*
X222140771Y-68887030D01*
X222140771Y-68887030D02*
X222093152Y-68791792D01*
X222093152Y-68791792D02*
X222093152Y-68601316D01*
X222093152Y-68601316D02*
X222140771Y-68506078D01*
X222759819Y-67934649D02*
X222712200Y-68029887D01*
X222712200Y-68029887D02*
X222664580Y-68077506D01*
X222664580Y-68077506D02*
X222569342Y-68125125D01*
X222569342Y-68125125D02*
X222283628Y-68125125D01*
X222283628Y-68125125D02*
X222188390Y-68077506D01*
X222188390Y-68077506D02*
X222140771Y-68029887D01*
X222140771Y-68029887D02*
X222093152Y-67934649D01*
X222093152Y-67934649D02*
X222093152Y-67791792D01*
X222093152Y-67791792D02*
X222140771Y-67696554D01*
X222140771Y-67696554D02*
X222188390Y-67648935D01*
X222188390Y-67648935D02*
X222283628Y-67601316D01*
X222283628Y-67601316D02*
X222569342Y-67601316D01*
X222569342Y-67601316D02*
X222664580Y-67648935D01*
X222664580Y-67648935D02*
X222712200Y-67696554D01*
X222712200Y-67696554D02*
X222759819Y-67791792D01*
X222759819Y-67791792D02*
X222759819Y-67934649D01*
X222759819Y-67172744D02*
X222093152Y-67172744D01*
X222188390Y-67172744D02*
X222140771Y-67125125D01*
X222140771Y-67125125D02*
X222093152Y-67029887D01*
X222093152Y-67029887D02*
X222093152Y-66887030D01*
X222093152Y-66887030D02*
X222140771Y-66791792D01*
X222140771Y-66791792D02*
X222236009Y-66744173D01*
X222236009Y-66744173D02*
X222759819Y-66744173D01*
X222236009Y-66744173D02*
X222140771Y-66696554D01*
X222140771Y-66696554D02*
X222093152Y-66601316D01*
X222093152Y-66601316D02*
X222093152Y-66458459D01*
X222093152Y-66458459D02*
X222140771Y-66363220D01*
X222140771Y-66363220D02*
X222236009Y-66315601D01*
X222236009Y-66315601D02*
X222759819Y-66315601D01*
X222093152Y-65839411D02*
X223093152Y-65839411D01*
X222140771Y-65839411D02*
X222093152Y-65744173D01*
X222093152Y-65744173D02*
X222093152Y-65553697D01*
X222093152Y-65553697D02*
X222140771Y-65458459D01*
X222140771Y-65458459D02*
X222188390Y-65410840D01*
X222188390Y-65410840D02*
X222283628Y-65363221D01*
X222283628Y-65363221D02*
X222569342Y-65363221D01*
X222569342Y-65363221D02*
X222664580Y-65410840D01*
X222664580Y-65410840D02*
X222712200Y-65458459D01*
X222712200Y-65458459D02*
X222759819Y-65553697D01*
X222759819Y-65553697D02*
X222759819Y-65744173D01*
X222759819Y-65744173D02*
X222712200Y-65839411D01*
X222093152Y-64267982D02*
X222759819Y-64029887D01*
X222759819Y-64029887D02*
X222093152Y-63791792D01*
X221855057Y-63458458D02*
X221807438Y-63410839D01*
X221807438Y-63410839D02*
X221759819Y-63315601D01*
X221759819Y-63315601D02*
X221759819Y-63077506D01*
X221759819Y-63077506D02*
X221807438Y-62982268D01*
X221807438Y-62982268D02*
X221855057Y-62934649D01*
X221855057Y-62934649D02*
X221950295Y-62887030D01*
X221950295Y-62887030D02*
X222045533Y-62887030D01*
X222045533Y-62887030D02*
X222188390Y-62934649D01*
X222188390Y-62934649D02*
X222759819Y-63506077D01*
X222759819Y-63506077D02*
X222759819Y-62887030D01*
X223369819Y-70934649D02*
X223369819Y-71125125D01*
X223369819Y-71125125D02*
X223417438Y-71220363D01*
X223417438Y-71220363D02*
X223465057Y-71267982D01*
X223465057Y-71267982D02*
X223607914Y-71363220D01*
X223607914Y-71363220D02*
X223798390Y-71410839D01*
X223798390Y-71410839D02*
X224179342Y-71410839D01*
X224179342Y-71410839D02*
X224274580Y-71363220D01*
X224274580Y-71363220D02*
X224322200Y-71315601D01*
X224322200Y-71315601D02*
X224369819Y-71220363D01*
X224369819Y-71220363D02*
X224369819Y-71029887D01*
X224369819Y-71029887D02*
X224322200Y-70934649D01*
X224322200Y-70934649D02*
X224274580Y-70887030D01*
X224274580Y-70887030D02*
X224179342Y-70839411D01*
X224179342Y-70839411D02*
X223941247Y-70839411D01*
X223941247Y-70839411D02*
X223846009Y-70887030D01*
X223846009Y-70887030D02*
X223798390Y-70934649D01*
X223798390Y-70934649D02*
X223750771Y-71029887D01*
X223750771Y-71029887D02*
X223750771Y-71220363D01*
X223750771Y-71220363D02*
X223798390Y-71315601D01*
X223798390Y-71315601D02*
X223846009Y-71363220D01*
X223846009Y-71363220D02*
X223941247Y-71410839D01*
X223369819Y-70506077D02*
X223369819Y-69887030D01*
X223369819Y-69887030D02*
X223750771Y-70220363D01*
X223750771Y-70220363D02*
X223750771Y-70077506D01*
X223750771Y-70077506D02*
X223798390Y-69982268D01*
X223798390Y-69982268D02*
X223846009Y-69934649D01*
X223846009Y-69934649D02*
X223941247Y-69887030D01*
X223941247Y-69887030D02*
X224179342Y-69887030D01*
X224179342Y-69887030D02*
X224274580Y-69934649D01*
X224274580Y-69934649D02*
X224322200Y-69982268D01*
X224322200Y-69982268D02*
X224369819Y-70077506D01*
X224369819Y-70077506D02*
X224369819Y-70363220D01*
X224369819Y-70363220D02*
X224322200Y-70458458D01*
X224322200Y-70458458D02*
X224274580Y-70506077D01*
X223369819Y-69267982D02*
X223369819Y-69172744D01*
X223369819Y-69172744D02*
X223417438Y-69077506D01*
X223417438Y-69077506D02*
X223465057Y-69029887D01*
X223465057Y-69029887D02*
X223560295Y-68982268D01*
X223560295Y-68982268D02*
X223750771Y-68934649D01*
X223750771Y-68934649D02*
X223988866Y-68934649D01*
X223988866Y-68934649D02*
X224179342Y-68982268D01*
X224179342Y-68982268D02*
X224274580Y-69029887D01*
X224274580Y-69029887D02*
X224322200Y-69077506D01*
X224322200Y-69077506D02*
X224369819Y-69172744D01*
X224369819Y-69172744D02*
X224369819Y-69267982D01*
X224369819Y-69267982D02*
X224322200Y-69363220D01*
X224322200Y-69363220D02*
X224274580Y-69410839D01*
X224274580Y-69410839D02*
X224179342Y-69458458D01*
X224179342Y-69458458D02*
X223988866Y-69506077D01*
X223988866Y-69506077D02*
X223750771Y-69506077D01*
X223750771Y-69506077D02*
X223560295Y-69458458D01*
X223560295Y-69458458D02*
X223465057Y-69410839D01*
X223465057Y-69410839D02*
X223417438Y-69363220D01*
X223417438Y-69363220D02*
X223369819Y-69267982D01*
X223369819Y-68601315D02*
X223369819Y-67982268D01*
X223369819Y-67982268D02*
X223750771Y-68315601D01*
X223750771Y-68315601D02*
X223750771Y-68172744D01*
X223750771Y-68172744D02*
X223798390Y-68077506D01*
X223798390Y-68077506D02*
X223846009Y-68029887D01*
X223846009Y-68029887D02*
X223941247Y-67982268D01*
X223941247Y-67982268D02*
X224179342Y-67982268D01*
X224179342Y-67982268D02*
X224274580Y-68029887D01*
X224274580Y-68029887D02*
X224322200Y-68077506D01*
X224322200Y-68077506D02*
X224369819Y-68172744D01*
X224369819Y-68172744D02*
X224369819Y-68458458D01*
X224369819Y-68458458D02*
X224322200Y-68553696D01*
X224322200Y-68553696D02*
X224274580Y-68601315D01*
X223369819Y-67648934D02*
X224369819Y-66982268D01*
X223369819Y-66982268D02*
X224369819Y-67648934D01*
X224274580Y-65267982D02*
X224322200Y-65315601D01*
X224322200Y-65315601D02*
X224369819Y-65458458D01*
X224369819Y-65458458D02*
X224369819Y-65553696D01*
X224369819Y-65553696D02*
X224322200Y-65696553D01*
X224322200Y-65696553D02*
X224226961Y-65791791D01*
X224226961Y-65791791D02*
X224131723Y-65839410D01*
X224131723Y-65839410D02*
X223941247Y-65887029D01*
X223941247Y-65887029D02*
X223798390Y-65887029D01*
X223798390Y-65887029D02*
X223607914Y-65839410D01*
X223607914Y-65839410D02*
X223512676Y-65791791D01*
X223512676Y-65791791D02*
X223417438Y-65696553D01*
X223417438Y-65696553D02*
X223369819Y-65553696D01*
X223369819Y-65553696D02*
X223369819Y-65458458D01*
X223369819Y-65458458D02*
X223417438Y-65315601D01*
X223417438Y-65315601D02*
X223465057Y-65267982D01*
X224369819Y-64839410D02*
X223369819Y-64839410D01*
X223369819Y-64839410D02*
X223369819Y-64458458D01*
X223369819Y-64458458D02*
X223417438Y-64363220D01*
X223417438Y-64363220D02*
X223465057Y-64315601D01*
X223465057Y-64315601D02*
X223560295Y-64267982D01*
X223560295Y-64267982D02*
X223703152Y-64267982D01*
X223703152Y-64267982D02*
X223798390Y-64315601D01*
X223798390Y-64315601D02*
X223846009Y-64363220D01*
X223846009Y-64363220D02*
X223893628Y-64458458D01*
X223893628Y-64458458D02*
X223893628Y-64839410D01*
X223369819Y-63839410D02*
X224179342Y-63839410D01*
X224179342Y-63839410D02*
X224274580Y-63791791D01*
X224274580Y-63791791D02*
X224322200Y-63744172D01*
X224322200Y-63744172D02*
X224369819Y-63648934D01*
X224369819Y-63648934D02*
X224369819Y-63458458D01*
X224369819Y-63458458D02*
X224322200Y-63363220D01*
X224322200Y-63363220D02*
X224274580Y-63315601D01*
X224274580Y-63315601D02*
X224179342Y-63267982D01*
X224179342Y-63267982D02*
X223369819Y-63267982D01*
X224084104Y-62077505D02*
X224084104Y-61601315D01*
X224369819Y-62172743D02*
X223369819Y-61839410D01*
X223369819Y-61839410D02*
X224369819Y-61506077D01*
X224369819Y-60744172D02*
X223369819Y-60744172D01*
X224322200Y-60744172D02*
X224369819Y-60839410D01*
X224369819Y-60839410D02*
X224369819Y-61029886D01*
X224369819Y-61029886D02*
X224322200Y-61125124D01*
X224322200Y-61125124D02*
X224274580Y-61172743D01*
X224274580Y-61172743D02*
X224179342Y-61220362D01*
X224179342Y-61220362D02*
X223893628Y-61220362D01*
X223893628Y-61220362D02*
X223798390Y-61172743D01*
X223798390Y-61172743D02*
X223750771Y-61125124D01*
X223750771Y-61125124D02*
X223703152Y-61029886D01*
X223703152Y-61029886D02*
X223703152Y-60839410D01*
X223703152Y-60839410D02*
X223750771Y-60744172D01*
X224369819Y-59839410D02*
X223846009Y-59839410D01*
X223846009Y-59839410D02*
X223750771Y-59887029D01*
X223750771Y-59887029D02*
X223703152Y-59982267D01*
X223703152Y-59982267D02*
X223703152Y-60172743D01*
X223703152Y-60172743D02*
X223750771Y-60267981D01*
X224322200Y-59839410D02*
X224369819Y-59934648D01*
X224369819Y-59934648D02*
X224369819Y-60172743D01*
X224369819Y-60172743D02*
X224322200Y-60267981D01*
X224322200Y-60267981D02*
X224226961Y-60315600D01*
X224226961Y-60315600D02*
X224131723Y-60315600D01*
X224131723Y-60315600D02*
X224036485Y-60267981D01*
X224036485Y-60267981D02*
X223988866Y-60172743D01*
X223988866Y-60172743D02*
X223988866Y-59934648D01*
X223988866Y-59934648D02*
X223941247Y-59839410D01*
X223703152Y-59363219D02*
X224703152Y-59363219D01*
X223750771Y-59363219D02*
X223703152Y-59267981D01*
X223703152Y-59267981D02*
X223703152Y-59077505D01*
X223703152Y-59077505D02*
X223750771Y-58982267D01*
X223750771Y-58982267D02*
X223798390Y-58934648D01*
X223798390Y-58934648D02*
X223893628Y-58887029D01*
X223893628Y-58887029D02*
X224179342Y-58887029D01*
X224179342Y-58887029D02*
X224274580Y-58934648D01*
X224274580Y-58934648D02*
X224322200Y-58982267D01*
X224322200Y-58982267D02*
X224369819Y-59077505D01*
X224369819Y-59077505D02*
X224369819Y-59267981D01*
X224369819Y-59267981D02*
X224322200Y-59363219D01*
X223703152Y-58601314D02*
X223703152Y-58220362D01*
X223369819Y-58458457D02*
X224226961Y-58458457D01*
X224226961Y-58458457D02*
X224322200Y-58410838D01*
X224322200Y-58410838D02*
X224369819Y-58315600D01*
X224369819Y-58315600D02*
X224369819Y-58220362D01*
X224322200Y-57506076D02*
X224369819Y-57601314D01*
X224369819Y-57601314D02*
X224369819Y-57791790D01*
X224369819Y-57791790D02*
X224322200Y-57887028D01*
X224322200Y-57887028D02*
X224226961Y-57934647D01*
X224226961Y-57934647D02*
X223846009Y-57934647D01*
X223846009Y-57934647D02*
X223750771Y-57887028D01*
X223750771Y-57887028D02*
X223703152Y-57791790D01*
X223703152Y-57791790D02*
X223703152Y-57601314D01*
X223703152Y-57601314D02*
X223750771Y-57506076D01*
X223750771Y-57506076D02*
X223846009Y-57458457D01*
X223846009Y-57458457D02*
X223941247Y-57458457D01*
X223941247Y-57458457D02*
X224036485Y-57934647D01*
X224369819Y-57029885D02*
X223703152Y-57029885D01*
X223893628Y-57029885D02*
X223798390Y-56982266D01*
X223798390Y-56982266D02*
X223750771Y-56934647D01*
X223750771Y-56934647D02*
X223703152Y-56839409D01*
X223703152Y-56839409D02*
X223703152Y-56744171D01*
X169110588Y-53856509D02*
X169110588Y-52306509D01*
X169110588Y-52306509D02*
X169529636Y-52306509D01*
X169529636Y-52306509D02*
X169634398Y-52380319D01*
X169634398Y-52380319D02*
X169686779Y-52454128D01*
X169686779Y-52454128D02*
X169739160Y-52601747D01*
X169739160Y-52601747D02*
X169739160Y-52823176D01*
X169739160Y-52823176D02*
X169686779Y-52970795D01*
X169686779Y-52970795D02*
X169634398Y-53044604D01*
X169634398Y-53044604D02*
X169529636Y-53118414D01*
X169529636Y-53118414D02*
X169110588Y-53118414D01*
X170158207Y-52454128D02*
X170210588Y-52380319D01*
X170210588Y-52380319D02*
X170315350Y-52306509D01*
X170315350Y-52306509D02*
X170577255Y-52306509D01*
X170577255Y-52306509D02*
X170682017Y-52380319D01*
X170682017Y-52380319D02*
X170734398Y-52454128D01*
X170734398Y-52454128D02*
X170786779Y-52601747D01*
X170786779Y-52601747D02*
X170786779Y-52749366D01*
X170786779Y-52749366D02*
X170734398Y-52970795D01*
X170734398Y-52970795D02*
X170105826Y-53856509D01*
X170105826Y-53856509D02*
X170786779Y-53856509D01*
X171467731Y-52306509D02*
X171572493Y-52306509D01*
X171572493Y-52306509D02*
X171677255Y-52380319D01*
X171677255Y-52380319D02*
X171729636Y-52454128D01*
X171729636Y-52454128D02*
X171782017Y-52601747D01*
X171782017Y-52601747D02*
X171834398Y-52896985D01*
X171834398Y-52896985D02*
X171834398Y-53266033D01*
X171834398Y-53266033D02*
X171782017Y-53561271D01*
X171782017Y-53561271D02*
X171729636Y-53708890D01*
X171729636Y-53708890D02*
X171677255Y-53782700D01*
X171677255Y-53782700D02*
X171572493Y-53856509D01*
X171572493Y-53856509D02*
X171467731Y-53856509D01*
X171467731Y-53856509D02*
X171362969Y-53782700D01*
X171362969Y-53782700D02*
X171310588Y-53708890D01*
X171310588Y-53708890D02*
X171258207Y-53561271D01*
X171258207Y-53561271D02*
X171205826Y-53266033D01*
X171205826Y-53266033D02*
X171205826Y-52896985D01*
X171205826Y-52896985D02*
X171258207Y-52601747D01*
X171258207Y-52601747D02*
X171310588Y-52454128D01*
X171310588Y-52454128D02*
X171362969Y-52380319D01*
X171362969Y-52380319D02*
X171467731Y-52306509D01*
X169110588Y-56352009D02*
X169110588Y-54802009D01*
X169110588Y-54802009D02*
X169529636Y-54802009D01*
X169529636Y-54802009D02*
X169634398Y-54875819D01*
X169634398Y-54875819D02*
X169686779Y-54949628D01*
X169686779Y-54949628D02*
X169739160Y-55097247D01*
X169739160Y-55097247D02*
X169739160Y-55318676D01*
X169739160Y-55318676D02*
X169686779Y-55466295D01*
X169686779Y-55466295D02*
X169634398Y-55540104D01*
X169634398Y-55540104D02*
X169529636Y-55613914D01*
X169529636Y-55613914D02*
X169110588Y-55613914D01*
X170158207Y-54949628D02*
X170210588Y-54875819D01*
X170210588Y-54875819D02*
X170315350Y-54802009D01*
X170315350Y-54802009D02*
X170577255Y-54802009D01*
X170577255Y-54802009D02*
X170682017Y-54875819D01*
X170682017Y-54875819D02*
X170734398Y-54949628D01*
X170734398Y-54949628D02*
X170786779Y-55097247D01*
X170786779Y-55097247D02*
X170786779Y-55244866D01*
X170786779Y-55244866D02*
X170734398Y-55466295D01*
X170734398Y-55466295D02*
X170105826Y-56352009D01*
X170105826Y-56352009D02*
X170786779Y-56352009D01*
X171205826Y-54949628D02*
X171258207Y-54875819D01*
X171258207Y-54875819D02*
X171362969Y-54802009D01*
X171362969Y-54802009D02*
X171624874Y-54802009D01*
X171624874Y-54802009D02*
X171729636Y-54875819D01*
X171729636Y-54875819D02*
X171782017Y-54949628D01*
X171782017Y-54949628D02*
X171834398Y-55097247D01*
X171834398Y-55097247D02*
X171834398Y-55244866D01*
X171834398Y-55244866D02*
X171782017Y-55466295D01*
X171782017Y-55466295D02*
X171153445Y-56352009D01*
X171153445Y-56352009D02*
X171834398Y-56352009D01*
X169110588Y-58847509D02*
X169110588Y-57297509D01*
X169110588Y-57297509D02*
X169529636Y-57297509D01*
X169529636Y-57297509D02*
X169634398Y-57371319D01*
X169634398Y-57371319D02*
X169686779Y-57445128D01*
X169686779Y-57445128D02*
X169739160Y-57592747D01*
X169739160Y-57592747D02*
X169739160Y-57814176D01*
X169739160Y-57814176D02*
X169686779Y-57961795D01*
X169686779Y-57961795D02*
X169634398Y-58035604D01*
X169634398Y-58035604D02*
X169529636Y-58109414D01*
X169529636Y-58109414D02*
X169110588Y-58109414D01*
X170158207Y-57445128D02*
X170210588Y-57371319D01*
X170210588Y-57371319D02*
X170315350Y-57297509D01*
X170315350Y-57297509D02*
X170577255Y-57297509D01*
X170577255Y-57297509D02*
X170682017Y-57371319D01*
X170682017Y-57371319D02*
X170734398Y-57445128D01*
X170734398Y-57445128D02*
X170786779Y-57592747D01*
X170786779Y-57592747D02*
X170786779Y-57740366D01*
X170786779Y-57740366D02*
X170734398Y-57961795D01*
X170734398Y-57961795D02*
X170105826Y-58847509D01*
X170105826Y-58847509D02*
X170786779Y-58847509D01*
X171729636Y-57814176D02*
X171729636Y-58847509D01*
X171467731Y-57223700D02*
X171205826Y-58330842D01*
X171205826Y-58330842D02*
X171886779Y-58330842D01*
X169110588Y-61343009D02*
X169110588Y-59793009D01*
X169110588Y-59793009D02*
X169529636Y-59793009D01*
X169529636Y-59793009D02*
X169634398Y-59866819D01*
X169634398Y-59866819D02*
X169686779Y-59940628D01*
X169686779Y-59940628D02*
X169739160Y-60088247D01*
X169739160Y-60088247D02*
X169739160Y-60309676D01*
X169739160Y-60309676D02*
X169686779Y-60457295D01*
X169686779Y-60457295D02*
X169634398Y-60531104D01*
X169634398Y-60531104D02*
X169529636Y-60604914D01*
X169529636Y-60604914D02*
X169110588Y-60604914D01*
X170158207Y-59940628D02*
X170210588Y-59866819D01*
X170210588Y-59866819D02*
X170315350Y-59793009D01*
X170315350Y-59793009D02*
X170577255Y-59793009D01*
X170577255Y-59793009D02*
X170682017Y-59866819D01*
X170682017Y-59866819D02*
X170734398Y-59940628D01*
X170734398Y-59940628D02*
X170786779Y-60088247D01*
X170786779Y-60088247D02*
X170786779Y-60235866D01*
X170786779Y-60235866D02*
X170734398Y-60457295D01*
X170734398Y-60457295D02*
X170105826Y-61343009D01*
X170105826Y-61343009D02*
X170786779Y-61343009D01*
X171729636Y-59793009D02*
X171520112Y-59793009D01*
X171520112Y-59793009D02*
X171415350Y-59866819D01*
X171415350Y-59866819D02*
X171362969Y-59940628D01*
X171362969Y-59940628D02*
X171258207Y-60162057D01*
X171258207Y-60162057D02*
X171205826Y-60457295D01*
X171205826Y-60457295D02*
X171205826Y-61047771D01*
X171205826Y-61047771D02*
X171258207Y-61195390D01*
X171258207Y-61195390D02*
X171310588Y-61269200D01*
X171310588Y-61269200D02*
X171415350Y-61343009D01*
X171415350Y-61343009D02*
X171624874Y-61343009D01*
X171624874Y-61343009D02*
X171729636Y-61269200D01*
X171729636Y-61269200D02*
X171782017Y-61195390D01*
X171782017Y-61195390D02*
X171834398Y-61047771D01*
X171834398Y-61047771D02*
X171834398Y-60678723D01*
X171834398Y-60678723D02*
X171782017Y-60531104D01*
X171782017Y-60531104D02*
X171729636Y-60457295D01*
X171729636Y-60457295D02*
X171624874Y-60383485D01*
X171624874Y-60383485D02*
X171415350Y-60383485D01*
X171415350Y-60383485D02*
X171310588Y-60457295D01*
X171310588Y-60457295D02*
X171258207Y-60531104D01*
X171258207Y-60531104D02*
X171205826Y-60678723D01*
X169110588Y-63838509D02*
X169110588Y-62288509D01*
X169110588Y-62288509D02*
X169529636Y-62288509D01*
X169529636Y-62288509D02*
X169634398Y-62362319D01*
X169634398Y-62362319D02*
X169686779Y-62436128D01*
X169686779Y-62436128D02*
X169739160Y-62583747D01*
X169739160Y-62583747D02*
X169739160Y-62805176D01*
X169739160Y-62805176D02*
X169686779Y-62952795D01*
X169686779Y-62952795D02*
X169634398Y-63026604D01*
X169634398Y-63026604D02*
X169529636Y-63100414D01*
X169529636Y-63100414D02*
X169110588Y-63100414D01*
X170734398Y-62288509D02*
X170210588Y-62288509D01*
X170210588Y-62288509D02*
X170158207Y-63026604D01*
X170158207Y-63026604D02*
X170210588Y-62952795D01*
X170210588Y-62952795D02*
X170315350Y-62878985D01*
X170315350Y-62878985D02*
X170577255Y-62878985D01*
X170577255Y-62878985D02*
X170682017Y-62952795D01*
X170682017Y-62952795D02*
X170734398Y-63026604D01*
X170734398Y-63026604D02*
X170786779Y-63174223D01*
X170786779Y-63174223D02*
X170786779Y-63543271D01*
X170786779Y-63543271D02*
X170734398Y-63690890D01*
X170734398Y-63690890D02*
X170682017Y-63764700D01*
X170682017Y-63764700D02*
X170577255Y-63838509D01*
X170577255Y-63838509D02*
X170315350Y-63838509D01*
X170315350Y-63838509D02*
X170210588Y-63764700D01*
X170210588Y-63764700D02*
X170158207Y-63690890D01*
X171467731Y-62288509D02*
X171572493Y-62288509D01*
X171572493Y-62288509D02*
X171677255Y-62362319D01*
X171677255Y-62362319D02*
X171729636Y-62436128D01*
X171729636Y-62436128D02*
X171782017Y-62583747D01*
X171782017Y-62583747D02*
X171834398Y-62878985D01*
X171834398Y-62878985D02*
X171834398Y-63248033D01*
X171834398Y-63248033D02*
X171782017Y-63543271D01*
X171782017Y-63543271D02*
X171729636Y-63690890D01*
X171729636Y-63690890D02*
X171677255Y-63764700D01*
X171677255Y-63764700D02*
X171572493Y-63838509D01*
X171572493Y-63838509D02*
X171467731Y-63838509D01*
X171467731Y-63838509D02*
X171362969Y-63764700D01*
X171362969Y-63764700D02*
X171310588Y-63690890D01*
X171310588Y-63690890D02*
X171258207Y-63543271D01*
X171258207Y-63543271D02*
X171205826Y-63248033D01*
X171205826Y-63248033D02*
X171205826Y-62878985D01*
X171205826Y-62878985D02*
X171258207Y-62583747D01*
X171258207Y-62583747D02*
X171310588Y-62436128D01*
X171310588Y-62436128D02*
X171362969Y-62362319D01*
X171362969Y-62362319D02*
X171467731Y-62288509D01*
X169110588Y-66334009D02*
X169110588Y-64784009D01*
X169110588Y-64784009D02*
X169529636Y-64784009D01*
X169529636Y-64784009D02*
X169634398Y-64857819D01*
X169634398Y-64857819D02*
X169686779Y-64931628D01*
X169686779Y-64931628D02*
X169739160Y-65079247D01*
X169739160Y-65079247D02*
X169739160Y-65300676D01*
X169739160Y-65300676D02*
X169686779Y-65448295D01*
X169686779Y-65448295D02*
X169634398Y-65522104D01*
X169634398Y-65522104D02*
X169529636Y-65595914D01*
X169529636Y-65595914D02*
X169110588Y-65595914D01*
X170734398Y-64784009D02*
X170210588Y-64784009D01*
X170210588Y-64784009D02*
X170158207Y-65522104D01*
X170158207Y-65522104D02*
X170210588Y-65448295D01*
X170210588Y-65448295D02*
X170315350Y-65374485D01*
X170315350Y-65374485D02*
X170577255Y-65374485D01*
X170577255Y-65374485D02*
X170682017Y-65448295D01*
X170682017Y-65448295D02*
X170734398Y-65522104D01*
X170734398Y-65522104D02*
X170786779Y-65669723D01*
X170786779Y-65669723D02*
X170786779Y-66038771D01*
X170786779Y-66038771D02*
X170734398Y-66186390D01*
X170734398Y-66186390D02*
X170682017Y-66260200D01*
X170682017Y-66260200D02*
X170577255Y-66334009D01*
X170577255Y-66334009D02*
X170315350Y-66334009D01*
X170315350Y-66334009D02*
X170210588Y-66260200D01*
X170210588Y-66260200D02*
X170158207Y-66186390D01*
X171205826Y-64931628D02*
X171258207Y-64857819D01*
X171258207Y-64857819D02*
X171362969Y-64784009D01*
X171362969Y-64784009D02*
X171624874Y-64784009D01*
X171624874Y-64784009D02*
X171729636Y-64857819D01*
X171729636Y-64857819D02*
X171782017Y-64931628D01*
X171782017Y-64931628D02*
X171834398Y-65079247D01*
X171834398Y-65079247D02*
X171834398Y-65226866D01*
X171834398Y-65226866D02*
X171782017Y-65448295D01*
X171782017Y-65448295D02*
X171153445Y-66334009D01*
X171153445Y-66334009D02*
X171834398Y-66334009D01*
X169110588Y-68829509D02*
X169110588Y-67279509D01*
X169110588Y-67279509D02*
X169529636Y-67279509D01*
X169529636Y-67279509D02*
X169634398Y-67353319D01*
X169634398Y-67353319D02*
X169686779Y-67427128D01*
X169686779Y-67427128D02*
X169739160Y-67574747D01*
X169739160Y-67574747D02*
X169739160Y-67796176D01*
X169739160Y-67796176D02*
X169686779Y-67943795D01*
X169686779Y-67943795D02*
X169634398Y-68017604D01*
X169634398Y-68017604D02*
X169529636Y-68091414D01*
X169529636Y-68091414D02*
X169110588Y-68091414D01*
X170734398Y-67279509D02*
X170210588Y-67279509D01*
X170210588Y-67279509D02*
X170158207Y-68017604D01*
X170158207Y-68017604D02*
X170210588Y-67943795D01*
X170210588Y-67943795D02*
X170315350Y-67869985D01*
X170315350Y-67869985D02*
X170577255Y-67869985D01*
X170577255Y-67869985D02*
X170682017Y-67943795D01*
X170682017Y-67943795D02*
X170734398Y-68017604D01*
X170734398Y-68017604D02*
X170786779Y-68165223D01*
X170786779Y-68165223D02*
X170786779Y-68534271D01*
X170786779Y-68534271D02*
X170734398Y-68681890D01*
X170734398Y-68681890D02*
X170682017Y-68755700D01*
X170682017Y-68755700D02*
X170577255Y-68829509D01*
X170577255Y-68829509D02*
X170315350Y-68829509D01*
X170315350Y-68829509D02*
X170210588Y-68755700D01*
X170210588Y-68755700D02*
X170158207Y-68681890D01*
X171729636Y-67796176D02*
X171729636Y-68829509D01*
X171467731Y-67205700D02*
X171205826Y-68312842D01*
X171205826Y-68312842D02*
X171886779Y-68312842D01*
X169110588Y-71325009D02*
X169110588Y-69775009D01*
X169110588Y-69775009D02*
X169529636Y-69775009D01*
X169529636Y-69775009D02*
X169634398Y-69848819D01*
X169634398Y-69848819D02*
X169686779Y-69922628D01*
X169686779Y-69922628D02*
X169739160Y-70070247D01*
X169739160Y-70070247D02*
X169739160Y-70291676D01*
X169739160Y-70291676D02*
X169686779Y-70439295D01*
X169686779Y-70439295D02*
X169634398Y-70513104D01*
X169634398Y-70513104D02*
X169529636Y-70586914D01*
X169529636Y-70586914D02*
X169110588Y-70586914D01*
X170734398Y-69775009D02*
X170210588Y-69775009D01*
X170210588Y-69775009D02*
X170158207Y-70513104D01*
X170158207Y-70513104D02*
X170210588Y-70439295D01*
X170210588Y-70439295D02*
X170315350Y-70365485D01*
X170315350Y-70365485D02*
X170577255Y-70365485D01*
X170577255Y-70365485D02*
X170682017Y-70439295D01*
X170682017Y-70439295D02*
X170734398Y-70513104D01*
X170734398Y-70513104D02*
X170786779Y-70660723D01*
X170786779Y-70660723D02*
X170786779Y-71029771D01*
X170786779Y-71029771D02*
X170734398Y-71177390D01*
X170734398Y-71177390D02*
X170682017Y-71251200D01*
X170682017Y-71251200D02*
X170577255Y-71325009D01*
X170577255Y-71325009D02*
X170315350Y-71325009D01*
X170315350Y-71325009D02*
X170210588Y-71251200D01*
X170210588Y-71251200D02*
X170158207Y-71177390D01*
X171729636Y-69775009D02*
X171520112Y-69775009D01*
X171520112Y-69775009D02*
X171415350Y-69848819D01*
X171415350Y-69848819D02*
X171362969Y-69922628D01*
X171362969Y-69922628D02*
X171258207Y-70144057D01*
X171258207Y-70144057D02*
X171205826Y-70439295D01*
X171205826Y-70439295D02*
X171205826Y-71029771D01*
X171205826Y-71029771D02*
X171258207Y-71177390D01*
X171258207Y-71177390D02*
X171310588Y-71251200D01*
X171310588Y-71251200D02*
X171415350Y-71325009D01*
X171415350Y-71325009D02*
X171624874Y-71325009D01*
X171624874Y-71325009D02*
X171729636Y-71251200D01*
X171729636Y-71251200D02*
X171782017Y-71177390D01*
X171782017Y-71177390D02*
X171834398Y-71029771D01*
X171834398Y-71029771D02*
X171834398Y-70660723D01*
X171834398Y-70660723D02*
X171782017Y-70513104D01*
X171782017Y-70513104D02*
X171729636Y-70439295D01*
X171729636Y-70439295D02*
X171624874Y-70365485D01*
X171624874Y-70365485D02*
X171415350Y-70365485D01*
X171415350Y-70365485D02*
X171310588Y-70439295D01*
X171310588Y-70439295D02*
X171258207Y-70513104D01*
X171258207Y-70513104D02*
X171205826Y-70660723D01*
X169110588Y-73820509D02*
X169110588Y-72270509D01*
X169110588Y-72270509D02*
X169529636Y-72270509D01*
X169529636Y-72270509D02*
X169634398Y-72344319D01*
X169634398Y-72344319D02*
X169686779Y-72418128D01*
X169686779Y-72418128D02*
X169739160Y-72565747D01*
X169739160Y-72565747D02*
X169739160Y-72787176D01*
X169739160Y-72787176D02*
X169686779Y-72934795D01*
X169686779Y-72934795D02*
X169634398Y-73008604D01*
X169634398Y-73008604D02*
X169529636Y-73082414D01*
X169529636Y-73082414D02*
X169110588Y-73082414D01*
X170682017Y-72270509D02*
X170472493Y-72270509D01*
X170472493Y-72270509D02*
X170367731Y-72344319D01*
X170367731Y-72344319D02*
X170315350Y-72418128D01*
X170315350Y-72418128D02*
X170210588Y-72639557D01*
X170210588Y-72639557D02*
X170158207Y-72934795D01*
X170158207Y-72934795D02*
X170158207Y-73525271D01*
X170158207Y-73525271D02*
X170210588Y-73672890D01*
X170210588Y-73672890D02*
X170262969Y-73746700D01*
X170262969Y-73746700D02*
X170367731Y-73820509D01*
X170367731Y-73820509D02*
X170577255Y-73820509D01*
X170577255Y-73820509D02*
X170682017Y-73746700D01*
X170682017Y-73746700D02*
X170734398Y-73672890D01*
X170734398Y-73672890D02*
X170786779Y-73525271D01*
X170786779Y-73525271D02*
X170786779Y-73156223D01*
X170786779Y-73156223D02*
X170734398Y-73008604D01*
X170734398Y-73008604D02*
X170682017Y-72934795D01*
X170682017Y-72934795D02*
X170577255Y-72860985D01*
X170577255Y-72860985D02*
X170367731Y-72860985D01*
X170367731Y-72860985D02*
X170262969Y-72934795D01*
X170262969Y-72934795D02*
X170210588Y-73008604D01*
X170210588Y-73008604D02*
X170158207Y-73156223D01*
X171467731Y-72270509D02*
X171572493Y-72270509D01*
X171572493Y-72270509D02*
X171677255Y-72344319D01*
X171677255Y-72344319D02*
X171729636Y-72418128D01*
X171729636Y-72418128D02*
X171782017Y-72565747D01*
X171782017Y-72565747D02*
X171834398Y-72860985D01*
X171834398Y-72860985D02*
X171834398Y-73230033D01*
X171834398Y-73230033D02*
X171782017Y-73525271D01*
X171782017Y-73525271D02*
X171729636Y-73672890D01*
X171729636Y-73672890D02*
X171677255Y-73746700D01*
X171677255Y-73746700D02*
X171572493Y-73820509D01*
X171572493Y-73820509D02*
X171467731Y-73820509D01*
X171467731Y-73820509D02*
X171362969Y-73746700D01*
X171362969Y-73746700D02*
X171310588Y-73672890D01*
X171310588Y-73672890D02*
X171258207Y-73525271D01*
X171258207Y-73525271D02*
X171205826Y-73230033D01*
X171205826Y-73230033D02*
X171205826Y-72860985D01*
X171205826Y-72860985D02*
X171258207Y-72565747D01*
X171258207Y-72565747D02*
X171310588Y-72418128D01*
X171310588Y-72418128D02*
X171362969Y-72344319D01*
X171362969Y-72344319D02*
X171467731Y-72270509D01*
X169110588Y-76316009D02*
X169110588Y-74766009D01*
X169110588Y-74766009D02*
X169529636Y-74766009D01*
X169529636Y-74766009D02*
X169634398Y-74839819D01*
X169634398Y-74839819D02*
X169686779Y-74913628D01*
X169686779Y-74913628D02*
X169739160Y-75061247D01*
X169739160Y-75061247D02*
X169739160Y-75282676D01*
X169739160Y-75282676D02*
X169686779Y-75430295D01*
X169686779Y-75430295D02*
X169634398Y-75504104D01*
X169634398Y-75504104D02*
X169529636Y-75577914D01*
X169529636Y-75577914D02*
X169110588Y-75577914D01*
X170682017Y-74766009D02*
X170472493Y-74766009D01*
X170472493Y-74766009D02*
X170367731Y-74839819D01*
X170367731Y-74839819D02*
X170315350Y-74913628D01*
X170315350Y-74913628D02*
X170210588Y-75135057D01*
X170210588Y-75135057D02*
X170158207Y-75430295D01*
X170158207Y-75430295D02*
X170158207Y-76020771D01*
X170158207Y-76020771D02*
X170210588Y-76168390D01*
X170210588Y-76168390D02*
X170262969Y-76242200D01*
X170262969Y-76242200D02*
X170367731Y-76316009D01*
X170367731Y-76316009D02*
X170577255Y-76316009D01*
X170577255Y-76316009D02*
X170682017Y-76242200D01*
X170682017Y-76242200D02*
X170734398Y-76168390D01*
X170734398Y-76168390D02*
X170786779Y-76020771D01*
X170786779Y-76020771D02*
X170786779Y-75651723D01*
X170786779Y-75651723D02*
X170734398Y-75504104D01*
X170734398Y-75504104D02*
X170682017Y-75430295D01*
X170682017Y-75430295D02*
X170577255Y-75356485D01*
X170577255Y-75356485D02*
X170367731Y-75356485D01*
X170367731Y-75356485D02*
X170262969Y-75430295D01*
X170262969Y-75430295D02*
X170210588Y-75504104D01*
X170210588Y-75504104D02*
X170158207Y-75651723D01*
X171205826Y-74913628D02*
X171258207Y-74839819D01*
X171258207Y-74839819D02*
X171362969Y-74766009D01*
X171362969Y-74766009D02*
X171624874Y-74766009D01*
X171624874Y-74766009D02*
X171729636Y-74839819D01*
X171729636Y-74839819D02*
X171782017Y-74913628D01*
X171782017Y-74913628D02*
X171834398Y-75061247D01*
X171834398Y-75061247D02*
X171834398Y-75208866D01*
X171834398Y-75208866D02*
X171782017Y-75430295D01*
X171782017Y-75430295D02*
X171153445Y-76316009D01*
X171153445Y-76316009D02*
X171834398Y-76316009D01*
X169110588Y-78811509D02*
X169110588Y-77261509D01*
X169110588Y-77261509D02*
X169529636Y-77261509D01*
X169529636Y-77261509D02*
X169634398Y-77335319D01*
X169634398Y-77335319D02*
X169686779Y-77409128D01*
X169686779Y-77409128D02*
X169739160Y-77556747D01*
X169739160Y-77556747D02*
X169739160Y-77778176D01*
X169739160Y-77778176D02*
X169686779Y-77925795D01*
X169686779Y-77925795D02*
X169634398Y-77999604D01*
X169634398Y-77999604D02*
X169529636Y-78073414D01*
X169529636Y-78073414D02*
X169110588Y-78073414D01*
X170682017Y-77261509D02*
X170472493Y-77261509D01*
X170472493Y-77261509D02*
X170367731Y-77335319D01*
X170367731Y-77335319D02*
X170315350Y-77409128D01*
X170315350Y-77409128D02*
X170210588Y-77630557D01*
X170210588Y-77630557D02*
X170158207Y-77925795D01*
X170158207Y-77925795D02*
X170158207Y-78516271D01*
X170158207Y-78516271D02*
X170210588Y-78663890D01*
X170210588Y-78663890D02*
X170262969Y-78737700D01*
X170262969Y-78737700D02*
X170367731Y-78811509D01*
X170367731Y-78811509D02*
X170577255Y-78811509D01*
X170577255Y-78811509D02*
X170682017Y-78737700D01*
X170682017Y-78737700D02*
X170734398Y-78663890D01*
X170734398Y-78663890D02*
X170786779Y-78516271D01*
X170786779Y-78516271D02*
X170786779Y-78147223D01*
X170786779Y-78147223D02*
X170734398Y-77999604D01*
X170734398Y-77999604D02*
X170682017Y-77925795D01*
X170682017Y-77925795D02*
X170577255Y-77851985D01*
X170577255Y-77851985D02*
X170367731Y-77851985D01*
X170367731Y-77851985D02*
X170262969Y-77925795D01*
X170262969Y-77925795D02*
X170210588Y-77999604D01*
X170210588Y-77999604D02*
X170158207Y-78147223D01*
X171729636Y-77778176D02*
X171729636Y-78811509D01*
X171467731Y-77187700D02*
X171205826Y-78294842D01*
X171205826Y-78294842D02*
X171886779Y-78294842D01*
X169110588Y-81307009D02*
X169110588Y-79757009D01*
X169110588Y-79757009D02*
X169529636Y-79757009D01*
X169529636Y-79757009D02*
X169634398Y-79830819D01*
X169634398Y-79830819D02*
X169686779Y-79904628D01*
X169686779Y-79904628D02*
X169739160Y-80052247D01*
X169739160Y-80052247D02*
X169739160Y-80273676D01*
X169739160Y-80273676D02*
X169686779Y-80421295D01*
X169686779Y-80421295D02*
X169634398Y-80495104D01*
X169634398Y-80495104D02*
X169529636Y-80568914D01*
X169529636Y-80568914D02*
X169110588Y-80568914D01*
X170682017Y-79757009D02*
X170472493Y-79757009D01*
X170472493Y-79757009D02*
X170367731Y-79830819D01*
X170367731Y-79830819D02*
X170315350Y-79904628D01*
X170315350Y-79904628D02*
X170210588Y-80126057D01*
X170210588Y-80126057D02*
X170158207Y-80421295D01*
X170158207Y-80421295D02*
X170158207Y-81011771D01*
X170158207Y-81011771D02*
X170210588Y-81159390D01*
X170210588Y-81159390D02*
X170262969Y-81233200D01*
X170262969Y-81233200D02*
X170367731Y-81307009D01*
X170367731Y-81307009D02*
X170577255Y-81307009D01*
X170577255Y-81307009D02*
X170682017Y-81233200D01*
X170682017Y-81233200D02*
X170734398Y-81159390D01*
X170734398Y-81159390D02*
X170786779Y-81011771D01*
X170786779Y-81011771D02*
X170786779Y-80642723D01*
X170786779Y-80642723D02*
X170734398Y-80495104D01*
X170734398Y-80495104D02*
X170682017Y-80421295D01*
X170682017Y-80421295D02*
X170577255Y-80347485D01*
X170577255Y-80347485D02*
X170367731Y-80347485D01*
X170367731Y-80347485D02*
X170262969Y-80421295D01*
X170262969Y-80421295D02*
X170210588Y-80495104D01*
X170210588Y-80495104D02*
X170158207Y-80642723D01*
X171729636Y-79757009D02*
X171520112Y-79757009D01*
X171520112Y-79757009D02*
X171415350Y-79830819D01*
X171415350Y-79830819D02*
X171362969Y-79904628D01*
X171362969Y-79904628D02*
X171258207Y-80126057D01*
X171258207Y-80126057D02*
X171205826Y-80421295D01*
X171205826Y-80421295D02*
X171205826Y-81011771D01*
X171205826Y-81011771D02*
X171258207Y-81159390D01*
X171258207Y-81159390D02*
X171310588Y-81233200D01*
X171310588Y-81233200D02*
X171415350Y-81307009D01*
X171415350Y-81307009D02*
X171624874Y-81307009D01*
X171624874Y-81307009D02*
X171729636Y-81233200D01*
X171729636Y-81233200D02*
X171782017Y-81159390D01*
X171782017Y-81159390D02*
X171834398Y-81011771D01*
X171834398Y-81011771D02*
X171834398Y-80642723D01*
X171834398Y-80642723D02*
X171782017Y-80495104D01*
X171782017Y-80495104D02*
X171729636Y-80421295D01*
X171729636Y-80421295D02*
X171624874Y-80347485D01*
X171624874Y-80347485D02*
X171415350Y-80347485D01*
X171415350Y-80347485D02*
X171310588Y-80421295D01*
X171310588Y-80421295D02*
X171258207Y-80495104D01*
X171258207Y-80495104D02*
X171205826Y-80642723D01*
X169686779Y-82326319D02*
X169582017Y-82252509D01*
X169582017Y-82252509D02*
X169424874Y-82252509D01*
X169424874Y-82252509D02*
X169267731Y-82326319D01*
X169267731Y-82326319D02*
X169162969Y-82473938D01*
X169162969Y-82473938D02*
X169110588Y-82621557D01*
X169110588Y-82621557D02*
X169058207Y-82916795D01*
X169058207Y-82916795D02*
X169058207Y-83138223D01*
X169058207Y-83138223D02*
X169110588Y-83433461D01*
X169110588Y-83433461D02*
X169162969Y-83581080D01*
X169162969Y-83581080D02*
X169267731Y-83728700D01*
X169267731Y-83728700D02*
X169424874Y-83802509D01*
X169424874Y-83802509D02*
X169529636Y-83802509D01*
X169529636Y-83802509D02*
X169686779Y-83728700D01*
X169686779Y-83728700D02*
X169739160Y-83654890D01*
X169739160Y-83654890D02*
X169739160Y-83138223D01*
X169739160Y-83138223D02*
X169529636Y-83138223D01*
X170210588Y-83802509D02*
X170210588Y-82252509D01*
X170210588Y-82252509D02*
X170839160Y-83802509D01*
X170839160Y-83802509D02*
X170839160Y-82252509D01*
X171362969Y-83802509D02*
X171362969Y-82252509D01*
X171362969Y-82252509D02*
X171624874Y-82252509D01*
X171624874Y-82252509D02*
X171782017Y-82326319D01*
X171782017Y-82326319D02*
X171886779Y-82473938D01*
X171886779Y-82473938D02*
X171939160Y-82621557D01*
X171939160Y-82621557D02*
X171991541Y-82916795D01*
X171991541Y-82916795D02*
X171991541Y-83138223D01*
X171991541Y-83138223D02*
X171939160Y-83433461D01*
X171939160Y-83433461D02*
X171886779Y-83581080D01*
X171886779Y-83581080D02*
X171782017Y-83728700D01*
X171782017Y-83728700D02*
X171624874Y-83802509D01*
X171624874Y-83802509D02*
X171362969Y-83802509D01*
X185728819Y-65261904D02*
X186538342Y-65261904D01*
X186538342Y-65261904D02*
X186633580Y-65214285D01*
X186633580Y-65214285D02*
X186681200Y-65166666D01*
X186681200Y-65166666D02*
X186728819Y-65071428D01*
X186728819Y-65071428D02*
X186728819Y-64880952D01*
X186728819Y-64880952D02*
X186681200Y-64785714D01*
X186681200Y-64785714D02*
X186633580Y-64738095D01*
X186633580Y-64738095D02*
X186538342Y-64690476D01*
X186538342Y-64690476D02*
X185728819Y-64690476D01*
X186728819Y-63690476D02*
X186728819Y-64261904D01*
X186728819Y-63976190D02*
X185728819Y-63976190D01*
X185728819Y-63976190D02*
X185871676Y-64071428D01*
X185871676Y-64071428D02*
X185966914Y-64166666D01*
X185966914Y-64166666D02*
X186014533Y-64261904D01*
D11*
%TO.C,JP1*%
X179416400Y-65162200D02*
X180746400Y-65162200D01*
X179416400Y-66492200D02*
X179416400Y-65162200D01*
X179416400Y-67762200D02*
X179416400Y-70362200D01*
X179416400Y-67762200D02*
X182076400Y-67762200D01*
X179416400Y-70362200D02*
X182076400Y-70362200D01*
X182076400Y-67762200D02*
X182076400Y-70362200D01*
%TO.C,J4*%
X182836000Y-41700000D02*
X182836000Y-40640000D01*
X183896000Y-41700000D02*
X182836000Y-41700000D01*
X184896000Y-41700000D02*
X184956000Y-41700000D01*
X184896000Y-41700000D02*
X184896000Y-39580000D01*
X184956000Y-41700000D02*
X184956000Y-39580000D01*
X184896000Y-39580000D02*
X184956000Y-39580000D01*
%TO.C,U3*%
X172406000Y-51570400D02*
X223326000Y-51570400D01*
X223326000Y-51570400D02*
X223326000Y-38650400D01*
X172406000Y-46110400D02*
X172406000Y-51570400D01*
X172406000Y-38650400D02*
X172406000Y-44110400D01*
X223326000Y-38650400D02*
X172406000Y-38650400D01*
X172406000Y-46110400D02*
G75*
G03*
X172406000Y-44110400I0J1000000D01*
G01*
%TO.C,J1*%
X168148000Y-84836000D02*
X166878000Y-84836000D01*
X168148000Y-83566000D02*
X168148000Y-84836000D01*
X165835071Y-81406000D02*
X165380929Y-81406000D01*
X165835071Y-80646000D02*
X165380929Y-80646000D01*
X165835071Y-78866000D02*
X165380929Y-78866000D01*
X165835071Y-78106000D02*
X165380929Y-78106000D01*
X165835071Y-76326000D02*
X165380929Y-76326000D01*
X165835071Y-75566000D02*
X165380929Y-75566000D01*
X165835071Y-73786000D02*
X165380929Y-73786000D01*
X165835071Y-73026000D02*
X165380929Y-73026000D01*
X165835071Y-71246000D02*
X165380929Y-71246000D01*
X165835071Y-70486000D02*
X165380929Y-70486000D01*
X165835071Y-68706000D02*
X165380929Y-68706000D01*
X165835071Y-67946000D02*
X165380929Y-67946000D01*
X165835071Y-66166000D02*
X165380929Y-66166000D01*
X165835071Y-65406000D02*
X165380929Y-65406000D01*
X165835071Y-63626000D02*
X165380929Y-63626000D01*
X165835071Y-62866000D02*
X165380929Y-62866000D01*
X165835071Y-61086000D02*
X165380929Y-61086000D01*
X165835071Y-60326000D02*
X165380929Y-60326000D01*
X165835071Y-58546000D02*
X165380929Y-58546000D01*
X165835071Y-57786000D02*
X165380929Y-57786000D01*
X165835071Y-56006000D02*
X165380929Y-56006000D01*
X165835071Y-55246000D02*
X165380929Y-55246000D01*
X165835071Y-53466000D02*
X165380929Y-53466000D01*
X165835071Y-52706000D02*
X165380929Y-52706000D01*
X165768000Y-83946000D02*
X165380929Y-83946000D01*
X165768000Y-83186000D02*
X165380929Y-83186000D01*
X163295071Y-83946000D02*
X162898000Y-83946000D01*
X163295071Y-83186000D02*
X162898000Y-83186000D01*
X163295071Y-81406000D02*
X162898000Y-81406000D01*
X163295071Y-80646000D02*
X162898000Y-80646000D01*
X163295071Y-78866000D02*
X162898000Y-78866000D01*
X163295071Y-78106000D02*
X162898000Y-78106000D01*
X163295071Y-76326000D02*
X162898000Y-76326000D01*
X163295071Y-75566000D02*
X162898000Y-75566000D01*
X163295071Y-73786000D02*
X162898000Y-73786000D01*
X163295071Y-73026000D02*
X162898000Y-73026000D01*
X163295071Y-71246000D02*
X162898000Y-71246000D01*
X163295071Y-70486000D02*
X162898000Y-70486000D01*
X163295071Y-68706000D02*
X162898000Y-68706000D01*
X163295071Y-67946000D02*
X162898000Y-67946000D01*
X163295071Y-66166000D02*
X162898000Y-66166000D01*
X163295071Y-65406000D02*
X162898000Y-65406000D01*
X163295071Y-63626000D02*
X162898000Y-63626000D01*
X163295071Y-62866000D02*
X162898000Y-62866000D01*
X163295071Y-61086000D02*
X162898000Y-61086000D01*
X163295071Y-60326000D02*
X162898000Y-60326000D01*
X163295071Y-58546000D02*
X162898000Y-58546000D01*
X163295071Y-57786000D02*
X162898000Y-57786000D01*
X163295071Y-56006000D02*
X162898000Y-56006000D01*
X163295071Y-55246000D02*
X162898000Y-55246000D01*
X163295071Y-53466000D02*
X162898000Y-53466000D01*
X163295071Y-52706000D02*
X162898000Y-52706000D01*
X162898000Y-84896000D02*
X162898000Y-51756000D01*
X162898000Y-82296000D02*
X160238000Y-82296000D01*
X162898000Y-79756000D02*
X160238000Y-79756000D01*
X162898000Y-77216000D02*
X160238000Y-77216000D01*
X162898000Y-74676000D02*
X160238000Y-74676000D01*
X162898000Y-72136000D02*
X160238000Y-72136000D01*
X162898000Y-69596000D02*
X160238000Y-69596000D01*
X162898000Y-67056000D02*
X160238000Y-67056000D01*
X162898000Y-64516000D02*
X160238000Y-64516000D01*
X162898000Y-61976000D02*
X160238000Y-61976000D01*
X162898000Y-59436000D02*
X160238000Y-59436000D01*
X162898000Y-56896000D02*
X160238000Y-56896000D01*
X162898000Y-54356000D02*
X160238000Y-54356000D01*
X162898000Y-51756000D02*
X160238000Y-51756000D01*
X160238000Y-84896000D02*
X162898000Y-84896000D01*
X160238000Y-83946000D02*
X154238000Y-83946000D01*
X160238000Y-83886000D02*
X154238000Y-83886000D01*
X160238000Y-83766000D02*
X154238000Y-83766000D01*
X160238000Y-83646000D02*
X154238000Y-83646000D01*
X160238000Y-83526000D02*
X154238000Y-83526000D01*
X160238000Y-83406000D02*
X154238000Y-83406000D01*
X160238000Y-83286000D02*
X154238000Y-83286000D01*
X160238000Y-81406000D02*
X154238000Y-81406000D01*
X160238000Y-78866000D02*
X154238000Y-78866000D01*
X160238000Y-76326000D02*
X154238000Y-76326000D01*
X160238000Y-73786000D02*
X154238000Y-73786000D01*
X160238000Y-71246000D02*
X154238000Y-71246000D01*
X160238000Y-68706000D02*
X154238000Y-68706000D01*
X160238000Y-66166000D02*
X154238000Y-66166000D01*
X160238000Y-63626000D02*
X154238000Y-63626000D01*
X160238000Y-61086000D02*
X154238000Y-61086000D01*
X160238000Y-58546000D02*
X154238000Y-58546000D01*
X160238000Y-56006000D02*
X154238000Y-56006000D01*
X160238000Y-53466000D02*
X154238000Y-53466000D01*
X160238000Y-51756000D02*
X160238000Y-84896000D01*
X154238000Y-83946000D02*
X154238000Y-83186000D01*
X154238000Y-83186000D02*
X160238000Y-83186000D01*
X154238000Y-81406000D02*
X154238000Y-80646000D01*
X154238000Y-80646000D02*
X160238000Y-80646000D01*
X154238000Y-78866000D02*
X154238000Y-78106000D01*
X154238000Y-78106000D02*
X160238000Y-78106000D01*
X154238000Y-76326000D02*
X154238000Y-75566000D01*
X154238000Y-75566000D02*
X160238000Y-75566000D01*
X154238000Y-73786000D02*
X154238000Y-73026000D01*
X154238000Y-73026000D02*
X160238000Y-73026000D01*
X154238000Y-71246000D02*
X154238000Y-70486000D01*
X154238000Y-70486000D02*
X160238000Y-70486000D01*
X154238000Y-68706000D02*
X154238000Y-67946000D01*
X154238000Y-67946000D02*
X160238000Y-67946000D01*
X154238000Y-66166000D02*
X154238000Y-65406000D01*
X154238000Y-65406000D02*
X160238000Y-65406000D01*
X154238000Y-63626000D02*
X154238000Y-62866000D01*
X154238000Y-62866000D02*
X160238000Y-62866000D01*
X154238000Y-61086000D02*
X154238000Y-60326000D01*
X154238000Y-60326000D02*
X160238000Y-60326000D01*
X154238000Y-58546000D02*
X154238000Y-57786000D01*
X154238000Y-57786000D02*
X160238000Y-57786000D01*
X154238000Y-56006000D02*
X154238000Y-55246000D01*
X154238000Y-55246000D02*
X160238000Y-55246000D01*
X154238000Y-53466000D02*
X154238000Y-52706000D01*
X154238000Y-52706000D02*
X160238000Y-52706000D01*
%TO.C,JP2*%
X183074000Y-65162200D02*
X184404000Y-65162200D01*
X183074000Y-66492200D02*
X183074000Y-65162200D01*
X183074000Y-67762200D02*
X183074000Y-70362200D01*
X183074000Y-67762200D02*
X185734000Y-67762200D01*
X183074000Y-70362200D02*
X185734000Y-70362200D01*
X185734000Y-67762200D02*
X185734000Y-70362200D01*
%TO.C,J7*%
X183648800Y-55937600D02*
X184708800Y-55937600D01*
X183648800Y-56997600D02*
X183648800Y-55937600D01*
X183648800Y-57997600D02*
X183648800Y-58057600D01*
X183648800Y-57997600D02*
X185768800Y-57997600D01*
X183648800Y-58057600D02*
X185768800Y-58057600D01*
X185768800Y-57997600D02*
X185768800Y-58057600D01*
%TO.C,J6*%
X182836000Y-50844000D02*
X182836000Y-49784000D01*
X183896000Y-50844000D02*
X182836000Y-50844000D01*
X184896000Y-50844000D02*
X184956000Y-50844000D01*
X184896000Y-50844000D02*
X184896000Y-48724000D01*
X184956000Y-50844000D02*
X184956000Y-48724000D01*
X184896000Y-48724000D02*
X184956000Y-48724000D01*
%TO.C,U1*%
X189524000Y-56000000D02*
X189524000Y-57350000D01*
X189524000Y-57350000D02*
X191174000Y-57350000D01*
X189524000Y-71650000D02*
X191174000Y-71650000D01*
X189524000Y-73000000D02*
X189524000Y-71650000D01*
X191174000Y-71650000D02*
X191174000Y-73900000D01*
X209824000Y-56000000D02*
X209824000Y-57350000D01*
X209824000Y-57350000D02*
X208174000Y-57350000D01*
X209824000Y-71650000D02*
X208174000Y-71650000D01*
X209824000Y-73000000D02*
X209824000Y-71650000D01*
%TO.C,J9*%
X183648800Y-58985600D02*
X184708800Y-58985600D01*
X183648800Y-60045600D02*
X183648800Y-58985600D01*
X183648800Y-61045600D02*
X183648800Y-61105600D01*
X183648800Y-61045600D02*
X185768800Y-61045600D01*
X183648800Y-61105600D02*
X185768800Y-61105600D01*
X185768800Y-61045600D02*
X185768800Y-61105600D01*
%TO.C,J8*%
X183648800Y-62033600D02*
X184708800Y-62033600D01*
X183648800Y-63093600D02*
X183648800Y-62033600D01*
X183648800Y-64093600D02*
X183648800Y-64153600D01*
X183648800Y-64093600D02*
X185768800Y-64093600D01*
X183648800Y-64153600D02*
X185768800Y-64153600D01*
X185768800Y-64093600D02*
X185768800Y-64153600D01*
%TO.C,J3*%
X177756000Y-50844000D02*
X177756000Y-49784000D01*
X178816000Y-50844000D02*
X177756000Y-50844000D01*
X179816000Y-50844000D02*
X179876000Y-50844000D01*
X179816000Y-50844000D02*
X179816000Y-48724000D01*
X179876000Y-50844000D02*
X179876000Y-48724000D01*
X179816000Y-48724000D02*
X179876000Y-48724000D01*
%TD*%
M02*
