%TF.GenerationSoftware,KiCad,Pcbnew,7.0.5-7.0.5~ubuntu20.04.1*%
%TF.CreationDate,2023-07-18T14:00:40+02:00*%
%TF.ProjectId,RAMROM_512k_board,52414d52-4f4d-45f3-9531-326b5f626f61,rev?*%
%TF.SameCoordinates,Original*%
%TF.FileFunction,Soldermask,Bot*%
%TF.FilePolarity,Negative*%
%FSLAX46Y46*%
G04 Gerber Fmt 4.6, Leading zero omitted, Abs format (unit mm)*
G04 Created by KiCad (PCBNEW 7.0.5-7.0.5~ubuntu20.04.1) date 2023-07-18 14:00:40*
%MOMM*%
%LPD*%
G01*
G04 APERTURE LIST*
G04 Aperture macros list*
%AMRoundRect*
0 Rectangle with rounded corners*
0 $1 Rounding radius*
0 $2 $3 $4 $5 $6 $7 $8 $9 X,Y pos of 4 corners*
0 Add a 4 corners polygon primitive as box body*
4,1,4,$2,$3,$4,$5,$6,$7,$8,$9,$2,$3,0*
0 Add four circle primitives for the rounded corners*
1,1,$1+$1,$2,$3*
1,1,$1+$1,$4,$5*
1,1,$1+$1,$6,$7*
1,1,$1+$1,$8,$9*
0 Add four rect primitives between the rounded corners*
20,1,$1+$1,$2,$3,$4,$5,0*
20,1,$1+$1,$4,$5,$6,$7,0*
20,1,$1+$1,$6,$7,$8,$9,0*
20,1,$1+$1,$8,$9,$2,$3,0*%
G04 Aperture macros list end*
%ADD10R,1.700000X1.700000*%
%ADD11O,1.700000X1.700000*%
%ADD12R,2.400000X1.600000*%
%ADD13O,2.400000X1.600000*%
%ADD14R,3.000000X3.000000*%
%ADD15C,3.000000*%
%ADD16R,1.350000X1.350000*%
%ADD17C,3.200000*%
%ADD18RoundRect,0.250000X-0.650000X0.325000X-0.650000X-0.325000X0.650000X-0.325000X0.650000X0.325000X0*%
%ADD19R,0.600000X1.600000*%
%ADD20RoundRect,0.137500X0.625000X0.137500X-0.625000X0.137500X-0.625000X-0.137500X0.625000X-0.137500X0*%
%ADD21RoundRect,0.150000X-0.150000X0.725000X-0.150000X-0.725000X0.150000X-0.725000X0.150000X0.725000X0*%
%ADD22RoundRect,0.150000X-0.150000X0.825000X-0.150000X-0.825000X0.150000X-0.825000X0.150000X0.825000X0*%
%ADD23RoundRect,0.150000X-0.587500X-0.150000X0.587500X-0.150000X0.587500X0.150000X-0.587500X0.150000X0*%
%ADD24RoundRect,0.250000X0.625000X-0.400000X0.625000X0.400000X-0.625000X0.400000X-0.625000X-0.400000X0*%
G04 APERTURE END LIST*
D10*
%TO.C,J1*%
X139700000Y-48303005D03*
D11*
X139700000Y-50843005D03*
X142240000Y-48303005D03*
X142240000Y-50843005D03*
X144780000Y-48303005D03*
X144780000Y-50843005D03*
X147320000Y-48303005D03*
X147320000Y-50843005D03*
X149860000Y-48303005D03*
X149860000Y-50843005D03*
X152400000Y-48303005D03*
X152400000Y-50843005D03*
X154940000Y-48303005D03*
X154940000Y-50843005D03*
X157480000Y-48303005D03*
X157480000Y-50843005D03*
X160020000Y-48303005D03*
X160020000Y-50843005D03*
X162560000Y-48303005D03*
X162560000Y-50843005D03*
X165100000Y-48303005D03*
X165100000Y-50843005D03*
X167640000Y-48303005D03*
X167640000Y-50843005D03*
X170180000Y-48303005D03*
X170180000Y-50843005D03*
X172720000Y-48303005D03*
X172720000Y-50843005D03*
X175260000Y-48303005D03*
X175260000Y-50843005D03*
X177800000Y-48303005D03*
X177800000Y-50843005D03*
X180340000Y-48303005D03*
X180340000Y-50843005D03*
X182880000Y-48303005D03*
X182880000Y-50843005D03*
X185420000Y-48303005D03*
X185420000Y-50843005D03*
X187960000Y-48303005D03*
X187960000Y-50843005D03*
%TD*%
D12*
%TO.C,J6*%
X109220000Y-83947000D03*
D13*
X109220000Y-86487000D03*
X109220000Y-89027000D03*
X109220000Y-91567000D03*
X109220000Y-94107000D03*
X109220000Y-96647000D03*
X109220000Y-99187000D03*
X109220000Y-101727000D03*
X109220000Y-104267000D03*
X109220000Y-106807000D03*
X109220000Y-109347000D03*
X109220000Y-111887000D03*
X109220000Y-114427000D03*
X109220000Y-116967000D03*
X109220000Y-119507000D03*
X109220000Y-122047000D03*
X109220000Y-124587000D03*
X109220000Y-127127000D03*
X109220000Y-129667000D03*
X109220000Y-132207000D03*
X124460000Y-132207000D03*
X124460000Y-129667000D03*
X124460000Y-127127000D03*
X124460000Y-124587000D03*
X124460000Y-122047000D03*
X124460000Y-119507000D03*
X124460000Y-116967000D03*
X124460000Y-114427000D03*
X124460000Y-111887000D03*
X124460000Y-109347000D03*
X124460000Y-106807000D03*
X124460000Y-104267000D03*
X124460000Y-101727000D03*
X124460000Y-99187000D03*
X124460000Y-96647000D03*
X124460000Y-94107000D03*
X124460000Y-91567000D03*
X124460000Y-89027000D03*
X124460000Y-86487000D03*
X124460000Y-83947000D03*
%TD*%
D14*
%TO.C,BT1*%
X181813201Y-85438399D03*
D15*
X181813201Y-105928399D03*
%TD*%
D16*
%TO.C,J7*%
X114681000Y-80772000D03*
%TD*%
D10*
%TO.C,J4*%
X139700000Y-133849005D03*
D11*
X139700000Y-136389005D03*
X142240000Y-133849005D03*
X142240000Y-136389005D03*
X144780000Y-133849005D03*
X144780000Y-136389005D03*
X147320000Y-133849005D03*
X147320000Y-136389005D03*
X149860000Y-133849005D03*
X149860000Y-136389005D03*
X152400000Y-133849005D03*
X152400000Y-136389005D03*
X154940000Y-133849005D03*
X154940000Y-136389005D03*
X157480000Y-133849005D03*
X157480000Y-136389005D03*
X160020000Y-133849005D03*
X160020000Y-136389005D03*
X162560000Y-133849005D03*
X162560000Y-136389005D03*
X165100000Y-133849005D03*
X165100000Y-136389005D03*
X167640000Y-133849005D03*
X167640000Y-136389005D03*
X170180000Y-133849005D03*
X170180000Y-136389005D03*
X172720000Y-133849005D03*
X172720000Y-136389005D03*
X175260000Y-133849005D03*
X175260000Y-136389005D03*
X177800000Y-133849005D03*
X177800000Y-136389005D03*
X180340000Y-133849005D03*
X180340000Y-136389005D03*
X182880000Y-133849005D03*
X182880000Y-136389005D03*
X185420000Y-133849005D03*
X185420000Y-136389005D03*
X187960000Y-133849005D03*
X187960000Y-136389005D03*
%TD*%
D10*
%TO.C,J2*%
X139700000Y-139849005D03*
D11*
X139700000Y-142389005D03*
X142240000Y-139849005D03*
X142240000Y-142389005D03*
X144780000Y-139849005D03*
X144780000Y-142389005D03*
X147320000Y-139849005D03*
X147320000Y-142389005D03*
X149860000Y-139849005D03*
X149860000Y-142389005D03*
X152400000Y-139849005D03*
X152400000Y-142389005D03*
X154940000Y-139849005D03*
X154940000Y-142389005D03*
X157480000Y-139849005D03*
X157480000Y-142389005D03*
X160020000Y-139849005D03*
X160020000Y-142389005D03*
X162560000Y-139849005D03*
X162560000Y-142389005D03*
X165100000Y-139849005D03*
X165100000Y-142389005D03*
X167640000Y-139849005D03*
X167640000Y-142389005D03*
X170180000Y-139849005D03*
X170180000Y-142389005D03*
X172720000Y-139849005D03*
X172720000Y-142389005D03*
X175260000Y-139849005D03*
X175260000Y-142389005D03*
X177800000Y-139849005D03*
X177800000Y-142389005D03*
X180340000Y-139849005D03*
X180340000Y-142389005D03*
X182880000Y-139849005D03*
X182880000Y-142389005D03*
X185420000Y-139849005D03*
X185420000Y-142389005D03*
X187960000Y-139849005D03*
X187960000Y-142389005D03*
%TD*%
D16*
%TO.C,J9*%
X111633000Y-80772000D03*
%TD*%
D17*
%TO.C,H3*%
X193340000Y-49346005D03*
%TD*%
D10*
%TO.C,J3*%
X139700000Y-54303005D03*
D11*
X139700000Y-56843005D03*
X142240000Y-54303005D03*
X142240000Y-56843005D03*
X144780000Y-54303005D03*
X144780000Y-56843005D03*
X147320000Y-54303005D03*
X147320000Y-56843005D03*
X149860000Y-54303005D03*
X149860000Y-56843005D03*
X152400000Y-54303005D03*
X152400000Y-56843005D03*
X154940000Y-54303005D03*
X154940000Y-56843005D03*
X157480000Y-54303005D03*
X157480000Y-56843005D03*
X160020000Y-54303005D03*
X160020000Y-56843005D03*
X162560000Y-54303005D03*
X162560000Y-56843005D03*
X165100000Y-54303005D03*
X165100000Y-56843005D03*
X167640000Y-54303005D03*
X167640000Y-56843005D03*
X170180000Y-54303005D03*
X170180000Y-56843005D03*
X172720000Y-54303005D03*
X172720000Y-56843005D03*
X175260000Y-54303005D03*
X175260000Y-56843005D03*
X177800000Y-54303005D03*
X177800000Y-56843005D03*
X180340000Y-54303005D03*
X180340000Y-56843005D03*
X182880000Y-54303005D03*
X182880000Y-56843005D03*
X185420000Y-54303005D03*
X185420000Y-56843005D03*
X187960000Y-54303005D03*
X187960000Y-56843005D03*
%TD*%
D17*
%TO.C,H1*%
X101340000Y-49346005D03*
%TD*%
D16*
%TO.C,J8*%
X186436000Y-129286000D03*
%TD*%
D17*
%TO.C,H2*%
X101340000Y-141346005D03*
%TD*%
%TO.C,H4*%
X193340000Y-141346005D03*
%TD*%
D18*
%TO.C,C2*%
X135864600Y-136499600D03*
X135864600Y-139449600D03*
%TD*%
D19*
%TO.C,U5*%
X193163841Y-78093671D03*
X191893841Y-78093671D03*
X190623841Y-78093671D03*
X189353841Y-78093671D03*
X188083841Y-78093671D03*
X186813841Y-78093671D03*
X185543841Y-78093671D03*
X184263841Y-78093671D03*
X183013841Y-78093671D03*
X181733841Y-78093671D03*
X180463841Y-78093671D03*
X179193841Y-78093671D03*
X177923841Y-78093671D03*
X176653841Y-78093671D03*
X175383841Y-78093671D03*
X174113841Y-78093671D03*
X174113841Y-66893671D03*
X175383841Y-66893671D03*
X176653841Y-66893671D03*
X177923841Y-66893671D03*
X179193841Y-66893671D03*
X180463841Y-66893671D03*
X181733841Y-66893671D03*
X183013841Y-66893671D03*
X184263841Y-66893671D03*
X185543841Y-66893671D03*
X186813841Y-66893671D03*
X188083841Y-66893671D03*
X189353841Y-66893671D03*
X190623841Y-66893671D03*
X191893841Y-66893671D03*
X193163841Y-66893671D03*
%TD*%
D18*
%TO.C,C9*%
X181940200Y-91741200D03*
X181940200Y-94691200D03*
%TD*%
D20*
%TO.C,U4*%
X158901900Y-73438800D03*
X158901900Y-74238800D03*
X158901900Y-75038800D03*
X158901900Y-75838800D03*
X158901900Y-76638800D03*
X158901900Y-77438800D03*
X158901900Y-78238800D03*
X158901900Y-79038800D03*
X158901900Y-79838800D03*
X158901900Y-80638800D03*
X158901900Y-81438800D03*
X158901900Y-82238800D03*
X158901900Y-83038800D03*
X158901900Y-83838800D03*
X158901900Y-84638800D03*
X158901900Y-85438800D03*
X158901900Y-86238800D03*
X158901900Y-87038800D03*
X158901900Y-87838800D03*
X158901900Y-88638800D03*
X158901900Y-89438800D03*
X158901900Y-90238800D03*
X147726900Y-90238800D03*
X147726900Y-89438800D03*
X147726900Y-88638800D03*
X147726900Y-87838800D03*
X147726900Y-87038800D03*
X147726900Y-86238800D03*
X147726900Y-85438800D03*
X147726900Y-84638800D03*
X147726900Y-83838800D03*
X147726900Y-83038800D03*
X147726900Y-82238800D03*
X147726900Y-81438800D03*
X147726900Y-80638800D03*
X147726900Y-79838800D03*
X147726900Y-79038800D03*
X147726900Y-78238800D03*
X147726900Y-77438800D03*
X147726900Y-76638800D03*
X147726900Y-75838800D03*
X147726900Y-75038800D03*
X147726900Y-74238800D03*
X147726900Y-73438800D03*
%TD*%
D21*
%TO.C,U10*%
X131953000Y-101403000D03*
X133223000Y-101403000D03*
X134493000Y-101403000D03*
X135763000Y-101403000D03*
X137033000Y-101403000D03*
X138303000Y-101403000D03*
X139573000Y-101403000D03*
X140843000Y-101403000D03*
X140843000Y-106553000D03*
X139573000Y-106553000D03*
X138303000Y-106553000D03*
X137033000Y-106553000D03*
X135763000Y-106553000D03*
X134493000Y-106553000D03*
X133223000Y-106553000D03*
X131953000Y-106553000D03*
%TD*%
D22*
%TO.C,U18*%
X151751925Y-109901475D03*
X153021925Y-109901475D03*
X154291925Y-109901475D03*
X155561925Y-109901475D03*
X156831925Y-109901475D03*
X158101925Y-109901475D03*
X159371925Y-109901475D03*
X160641925Y-109901475D03*
X160641925Y-114851475D03*
X159371925Y-114851475D03*
X158101925Y-114851475D03*
X156831925Y-114851475D03*
X155561925Y-114851475D03*
X154291925Y-114851475D03*
X153021925Y-114851475D03*
X151751925Y-114851475D03*
%TD*%
D23*
%TO.C,Q1*%
X133126000Y-54290000D03*
X133126000Y-52390000D03*
X135001000Y-53340000D03*
%TD*%
D22*
%TO.C,U19*%
X162267525Y-109901475D03*
X163537525Y-109901475D03*
X164807525Y-109901475D03*
X166077525Y-109901475D03*
X167347525Y-109901475D03*
X168617525Y-109901475D03*
X169887525Y-109901475D03*
X171157525Y-109901475D03*
X171157525Y-114851475D03*
X169887525Y-114851475D03*
X168617525Y-114851475D03*
X167347525Y-114851475D03*
X166077525Y-114851475D03*
X164807525Y-114851475D03*
X163537525Y-114851475D03*
X162267525Y-114851475D03*
%TD*%
%TO.C,U20*%
X172808525Y-109890275D03*
X174078525Y-109890275D03*
X175348525Y-109890275D03*
X176618525Y-109890275D03*
X177888525Y-109890275D03*
X179158525Y-109890275D03*
X180428525Y-109890275D03*
X181698525Y-109890275D03*
X181698525Y-114840275D03*
X180428525Y-114840275D03*
X179158525Y-114840275D03*
X177888525Y-114840275D03*
X176618525Y-114840275D03*
X175348525Y-114840275D03*
X174078525Y-114840275D03*
X172808525Y-114840275D03*
%TD*%
D24*
%TO.C,R1*%
X182372000Y-128473800D03*
X182372000Y-125373800D03*
%TD*%
M02*
