%TF.GenerationSoftware,KiCad,Pcbnew,7.0.5-7.0.5~ubuntu20.04.1*%
%TF.CreationDate,2023-07-18T14:00:40+02:00*%
%TF.ProjectId,RAMROM_512k_board,52414d52-4f4d-45f3-9531-326b5f626f61,rev?*%
%TF.SameCoordinates,Original*%
%TF.FileFunction,Paste,Top*%
%TF.FilePolarity,Positive*%
%FSLAX46Y46*%
G04 Gerber Fmt 4.6, Leading zero omitted, Abs format (unit mm)*
G04 Created by KiCad (PCBNEW 7.0.5-7.0.5~ubuntu20.04.1) date 2023-07-18 14:00:40*
%MOMM*%
%LPD*%
G01*
G04 APERTURE LIST*
G04 Aperture macros list*
%AMRoundRect*
0 Rectangle with rounded corners*
0 $1 Rounding radius*
0 $2 $3 $4 $5 $6 $7 $8 $9 X,Y pos of 4 corners*
0 Add a 4 corners polygon primitive as box body*
4,1,4,$2,$3,$4,$5,$6,$7,$8,$9,$2,$3,0*
0 Add four circle primitives for the rounded corners*
1,1,$1+$1,$2,$3*
1,1,$1+$1,$4,$5*
1,1,$1+$1,$6,$7*
1,1,$1+$1,$8,$9*
0 Add four rect primitives between the rounded corners*
20,1,$1+$1,$2,$3,$4,$5,0*
20,1,$1+$1,$4,$5,$6,$7,0*
20,1,$1+$1,$6,$7,$8,$9,0*
20,1,$1+$1,$8,$9,$2,$3,0*%
G04 Aperture macros list end*
%ADD10RoundRect,0.150000X0.587500X0.150000X-0.587500X0.150000X-0.587500X-0.150000X0.587500X-0.150000X0*%
%ADD11RoundRect,0.250000X0.325000X0.650000X-0.325000X0.650000X-0.325000X-0.650000X0.325000X-0.650000X0*%
%ADD12RoundRect,0.250000X-0.650000X0.325000X-0.650000X-0.325000X0.650000X-0.325000X0.650000X0.325000X0*%
%ADD13RoundRect,0.250000X0.625000X-0.400000X0.625000X0.400000X-0.625000X0.400000X-0.625000X-0.400000X0*%
%ADD14RoundRect,0.150000X0.725000X0.150000X-0.725000X0.150000X-0.725000X-0.150000X0.725000X-0.150000X0*%
%ADD15RoundRect,0.150000X-0.150000X0.825000X-0.150000X-0.825000X0.150000X-0.825000X0.150000X0.825000X0*%
%ADD16RoundRect,0.150000X-0.512500X-0.150000X0.512500X-0.150000X0.512500X0.150000X-0.512500X0.150000X0*%
%ADD17RoundRect,0.150000X0.150000X-0.825000X0.150000X0.825000X-0.150000X0.825000X-0.150000X-0.825000X0*%
%ADD18RoundRect,0.150000X-0.150000X0.512500X-0.150000X-0.512500X0.150000X-0.512500X0.150000X0.512500X0*%
%ADD19RoundRect,0.250000X-0.229810X0.689429X-0.689429X0.229810X0.229810X-0.689429X0.689429X-0.229810X0*%
%ADD20RoundRect,0.250000X-0.625000X0.400000X-0.625000X-0.400000X0.625000X-0.400000X0.625000X0.400000X0*%
%ADD21RoundRect,0.150000X-0.825000X-0.150000X0.825000X-0.150000X0.825000X0.150000X-0.825000X0.150000X0*%
%ADD22RoundRect,0.150000X0.150000X-0.837500X0.150000X0.837500X-0.150000X0.837500X-0.150000X-0.837500X0*%
%ADD23RoundRect,0.150000X-0.725000X-0.150000X0.725000X-0.150000X0.725000X0.150000X-0.725000X0.150000X0*%
%ADD24RoundRect,0.250000X0.650000X-0.325000X0.650000X0.325000X-0.650000X0.325000X-0.650000X-0.325000X0*%
G04 APERTURE END LIST*
D10*
%TO.C,D2*%
X176705500Y-86675000D03*
X176705500Y-84775000D03*
X174830500Y-85725000D03*
%TD*%
D11*
%TO.C,C6*%
X117680000Y-95758000D03*
X114730000Y-95758000D03*
%TD*%
D12*
%TO.C,C10*%
X161213800Y-66544400D03*
X161213800Y-69494400D03*
%TD*%
D13*
%TO.C,R2*%
X179451000Y-128449000D03*
X179451000Y-125349000D03*
%TD*%
D14*
%TO.C,U6*%
X179482841Y-78005471D03*
X179482841Y-76735471D03*
X179482841Y-75465471D03*
X179482841Y-74195471D03*
X179482841Y-72925471D03*
X179482841Y-71655471D03*
X179482841Y-70385471D03*
X179482841Y-69115471D03*
X174332841Y-69115471D03*
X174332841Y-70385471D03*
X174332841Y-71655471D03*
X174332841Y-72925471D03*
X174332841Y-74195471D03*
X174332841Y-75465471D03*
X174332841Y-76735471D03*
X174332841Y-78005471D03*
%TD*%
D15*
%TO.C,U16*%
X177450000Y-124900400D03*
X176180000Y-124900400D03*
X174910000Y-124900400D03*
X173640000Y-124900400D03*
X172370000Y-124900400D03*
X171100000Y-124900400D03*
X169830000Y-124900400D03*
X168560000Y-124900400D03*
X168560000Y-129850400D03*
X169830000Y-129850400D03*
X171100000Y-129850400D03*
X172370000Y-129850400D03*
X173640000Y-129850400D03*
X174910000Y-129850400D03*
X176180000Y-129850400D03*
X177450000Y-129850400D03*
%TD*%
D16*
%TO.C,U8*%
X191125741Y-63261200D03*
X191125741Y-64211200D03*
X191125741Y-65161200D03*
X193400741Y-65161200D03*
X193400741Y-63261200D03*
%TD*%
D17*
%TO.C,U21*%
X138049000Y-67168800D03*
X139319000Y-67168800D03*
X140589000Y-67168800D03*
X141859000Y-67168800D03*
X143129000Y-67168800D03*
X144399000Y-67168800D03*
X145669000Y-67168800D03*
X145669000Y-62218800D03*
X144399000Y-62218800D03*
X143129000Y-62218800D03*
X141859000Y-62218800D03*
X140589000Y-62218800D03*
X139319000Y-62218800D03*
X138049000Y-62218800D03*
%TD*%
D12*
%TO.C,C4*%
X155168600Y-80492600D03*
X155168600Y-83442600D03*
%TD*%
D18*
%TO.C,U12*%
X139227600Y-102631800D03*
X138277600Y-102631800D03*
X137327600Y-102631800D03*
X137327600Y-104906800D03*
X139227600Y-104906800D03*
%TD*%
D15*
%TO.C,U17*%
X166299400Y-124900400D03*
X165029400Y-124900400D03*
X163759400Y-124900400D03*
X162489400Y-124900400D03*
X161219400Y-124900400D03*
X159949400Y-124900400D03*
X158679400Y-124900400D03*
X157409400Y-124900400D03*
X157409400Y-129850400D03*
X158679400Y-129850400D03*
X159949400Y-129850400D03*
X161219400Y-129850400D03*
X162489400Y-129850400D03*
X163759400Y-129850400D03*
X165029400Y-129850400D03*
X166299400Y-129850400D03*
%TD*%
D19*
%TO.C,C5*%
X184973441Y-73329800D03*
X182887475Y-75415766D03*
%TD*%
D20*
%TO.C,R8*%
X185115200Y-60628600D03*
X185115200Y-63728600D03*
%TD*%
%TO.C,R10*%
X190754000Y-58164800D03*
X190754000Y-61264800D03*
%TD*%
%TO.C,R7*%
X182829200Y-60629800D03*
X182829200Y-63729800D03*
%TD*%
D21*
%TO.C,U2*%
X113665000Y-97917000D03*
X113665000Y-99187000D03*
X113665000Y-100457000D03*
X113665000Y-101727000D03*
X113665000Y-102997000D03*
X113665000Y-104267000D03*
X113665000Y-105537000D03*
X118615000Y-105537000D03*
X118615000Y-104267000D03*
X118615000Y-102997000D03*
X118615000Y-101727000D03*
X118615000Y-100457000D03*
X118615000Y-99187000D03*
X118615000Y-97917000D03*
%TD*%
D20*
%TO.C,R9*%
X187426600Y-60603200D03*
X187426600Y-63703200D03*
%TD*%
D22*
%TO.C,U1*%
X147362000Y-69155000D03*
X148632000Y-69155000D03*
X149902000Y-69155000D03*
X151172000Y-69155000D03*
X152442000Y-69155000D03*
X153712000Y-69155000D03*
X154982000Y-69155000D03*
X156252000Y-69155000D03*
X157522000Y-69155000D03*
X158792000Y-69155000D03*
X158792000Y-62230000D03*
X157522000Y-62230000D03*
X156252000Y-62230000D03*
X154982000Y-62230000D03*
X153712000Y-62230000D03*
X152442000Y-62230000D03*
X151172000Y-62230000D03*
X149902000Y-62230000D03*
X148632000Y-62230000D03*
X147362000Y-62230000D03*
%TD*%
D23*
%TO.C,U7*%
X187947241Y-68531271D03*
X187947241Y-69801271D03*
X187947241Y-71071271D03*
X187947241Y-72341271D03*
X187947241Y-73611271D03*
X187947241Y-74881271D03*
X187947241Y-76151271D03*
X187947241Y-77421271D03*
X193097241Y-77421271D03*
X193097241Y-76151271D03*
X193097241Y-74881271D03*
X193097241Y-73611271D03*
X193097241Y-72341271D03*
X193097241Y-71071271D03*
X193097241Y-69801271D03*
X193097241Y-68531271D03*
%TD*%
D24*
%TO.C,C1*%
X135636000Y-50497000D03*
X135636000Y-47547000D03*
%TD*%
D17*
%TO.C,U9*%
X133159500Y-93867362D03*
X134429500Y-93867362D03*
X135699500Y-93867362D03*
X136969500Y-93867362D03*
X138239500Y-93867362D03*
X139509500Y-93867362D03*
X140779500Y-93867362D03*
X142049500Y-93867362D03*
X142049500Y-88917362D03*
X140779500Y-88917362D03*
X139509500Y-88917362D03*
X138239500Y-88917362D03*
X136969500Y-88917362D03*
X135699500Y-88917362D03*
X134429500Y-88917362D03*
X133159500Y-88917362D03*
%TD*%
D24*
%TO.C,C3*%
X155339481Y-127470811D03*
X155339481Y-124520811D03*
%TD*%
D12*
%TO.C,C8*%
X136042400Y-63015600D03*
X136042400Y-65965600D03*
%TD*%
M02*
