%TF.GenerationSoftware,KiCad,Pcbnew,7.0.5-7.0.5~ubuntu20.04.1*%
%TF.CreationDate,2023-07-18T14:00:40+02:00*%
%TF.ProjectId,RAMROM_512k_board,52414d52-4f4d-45f3-9531-326b5f626f61,rev?*%
%TF.SameCoordinates,Original*%
%TF.FileFunction,Legend,Top*%
%TF.FilePolarity,Positive*%
%FSLAX46Y46*%
G04 Gerber Fmt 4.6, Leading zero omitted, Abs format (unit mm)*
G04 Created by KiCad (PCBNEW 7.0.5-7.0.5~ubuntu20.04.1) date 2023-07-18 14:00:40*
%MOMM*%
%LPD*%
G01*
G04 APERTURE LIST*
%ADD10C,0.150000*%
%ADD11C,0.120000*%
G04 APERTURE END LIST*
D10*
X194128219Y-108537163D02*
X194366314Y-108537163D01*
X194271076Y-108775258D02*
X194366314Y-108537163D01*
X194366314Y-108537163D02*
X194271076Y-108299068D01*
X194556790Y-108680020D02*
X194366314Y-108537163D01*
X194366314Y-108537163D02*
X194556790Y-108394306D01*
X194128219Y-107918115D02*
X194937742Y-107918115D01*
X194937742Y-107918115D02*
X195032980Y-107870496D01*
X195032980Y-107870496D02*
X195080600Y-107822877D01*
X195080600Y-107822877D02*
X195128219Y-107727639D01*
X195128219Y-107727639D02*
X195128219Y-107537163D01*
X195128219Y-107537163D02*
X195080600Y-107441925D01*
X195080600Y-107441925D02*
X195032980Y-107394306D01*
X195032980Y-107394306D02*
X194937742Y-107346687D01*
X194937742Y-107346687D02*
X194128219Y-107346687D01*
X194461552Y-106870496D02*
X195128219Y-106870496D01*
X194556790Y-106870496D02*
X194509171Y-106822877D01*
X194509171Y-106822877D02*
X194461552Y-106727639D01*
X194461552Y-106727639D02*
X194461552Y-106584782D01*
X194461552Y-106584782D02*
X194509171Y-106489544D01*
X194509171Y-106489544D02*
X194604409Y-106441925D01*
X194604409Y-106441925D02*
X195128219Y-106441925D01*
X195128219Y-105965734D02*
X194461552Y-105965734D01*
X194128219Y-105965734D02*
X194175838Y-106013353D01*
X194175838Y-106013353D02*
X194223457Y-105965734D01*
X194223457Y-105965734D02*
X194175838Y-105918115D01*
X194175838Y-105918115D02*
X194128219Y-105965734D01*
X194128219Y-105965734D02*
X194223457Y-105965734D01*
X195080600Y-105060973D02*
X195128219Y-105156211D01*
X195128219Y-105156211D02*
X195128219Y-105346687D01*
X195128219Y-105346687D02*
X195080600Y-105441925D01*
X195080600Y-105441925D02*
X195032980Y-105489544D01*
X195032980Y-105489544D02*
X194937742Y-105537163D01*
X194937742Y-105537163D02*
X194652028Y-105537163D01*
X194652028Y-105537163D02*
X194556790Y-105489544D01*
X194556790Y-105489544D02*
X194509171Y-105441925D01*
X194509171Y-105441925D02*
X194461552Y-105346687D01*
X194461552Y-105346687D02*
X194461552Y-105156211D01*
X194461552Y-105156211D02*
X194509171Y-105060973D01*
X195128219Y-104489544D02*
X195080600Y-104584782D01*
X195080600Y-104584782D02*
X195032980Y-104632401D01*
X195032980Y-104632401D02*
X194937742Y-104680020D01*
X194937742Y-104680020D02*
X194652028Y-104680020D01*
X194652028Y-104680020D02*
X194556790Y-104632401D01*
X194556790Y-104632401D02*
X194509171Y-104584782D01*
X194509171Y-104584782D02*
X194461552Y-104489544D01*
X194461552Y-104489544D02*
X194461552Y-104346687D01*
X194461552Y-104346687D02*
X194509171Y-104251449D01*
X194509171Y-104251449D02*
X194556790Y-104203830D01*
X194556790Y-104203830D02*
X194652028Y-104156211D01*
X194652028Y-104156211D02*
X194937742Y-104156211D01*
X194937742Y-104156211D02*
X195032980Y-104203830D01*
X195032980Y-104203830D02*
X195080600Y-104251449D01*
X195080600Y-104251449D02*
X195128219Y-104346687D01*
X195128219Y-104346687D02*
X195128219Y-104489544D01*
X195128219Y-103727639D02*
X194461552Y-103727639D01*
X194556790Y-103727639D02*
X194509171Y-103680020D01*
X194509171Y-103680020D02*
X194461552Y-103584782D01*
X194461552Y-103584782D02*
X194461552Y-103441925D01*
X194461552Y-103441925D02*
X194509171Y-103346687D01*
X194509171Y-103346687D02*
X194604409Y-103299068D01*
X194604409Y-103299068D02*
X195128219Y-103299068D01*
X194604409Y-103299068D02*
X194509171Y-103251449D01*
X194509171Y-103251449D02*
X194461552Y-103156211D01*
X194461552Y-103156211D02*
X194461552Y-103013354D01*
X194461552Y-103013354D02*
X194509171Y-102918115D01*
X194509171Y-102918115D02*
X194604409Y-102870496D01*
X194604409Y-102870496D02*
X195128219Y-102870496D01*
X194461552Y-102394306D02*
X195461552Y-102394306D01*
X194509171Y-102394306D02*
X194461552Y-102299068D01*
X194461552Y-102299068D02*
X194461552Y-102108592D01*
X194461552Y-102108592D02*
X194509171Y-102013354D01*
X194509171Y-102013354D02*
X194556790Y-101965735D01*
X194556790Y-101965735D02*
X194652028Y-101918116D01*
X194652028Y-101918116D02*
X194937742Y-101918116D01*
X194937742Y-101918116D02*
X195032980Y-101965735D01*
X195032980Y-101965735D02*
X195080600Y-102013354D01*
X195080600Y-102013354D02*
X195128219Y-102108592D01*
X195128219Y-102108592D02*
X195128219Y-102299068D01*
X195128219Y-102299068D02*
X195080600Y-102394306D01*
X194461552Y-100822877D02*
X195128219Y-100584782D01*
X195128219Y-100584782D02*
X194461552Y-100346687D01*
X194223457Y-100013353D02*
X194175838Y-99965734D01*
X194175838Y-99965734D02*
X194128219Y-99870496D01*
X194128219Y-99870496D02*
X194128219Y-99632401D01*
X194128219Y-99632401D02*
X194175838Y-99537163D01*
X194175838Y-99537163D02*
X194223457Y-99489544D01*
X194223457Y-99489544D02*
X194318695Y-99441925D01*
X194318695Y-99441925D02*
X194413933Y-99441925D01*
X194413933Y-99441925D02*
X194556790Y-99489544D01*
X194556790Y-99489544D02*
X195128219Y-100060972D01*
X195128219Y-100060972D02*
X195128219Y-99441925D01*
X194128219Y-98870496D02*
X194366314Y-98870496D01*
X194271076Y-99108591D02*
X194366314Y-98870496D01*
X194366314Y-98870496D02*
X194271076Y-98632401D01*
X194556790Y-99013353D02*
X194366314Y-98870496D01*
X194366314Y-98870496D02*
X194556790Y-98727639D01*
X196738219Y-108680020D02*
X195738219Y-108680020D01*
X195738219Y-108680020D02*
X196452504Y-108346687D01*
X196452504Y-108346687D02*
X195738219Y-108013354D01*
X195738219Y-108013354D02*
X196738219Y-108013354D01*
X195738219Y-107346687D02*
X195738219Y-107156211D01*
X195738219Y-107156211D02*
X195785838Y-107060973D01*
X195785838Y-107060973D02*
X195881076Y-106965735D01*
X195881076Y-106965735D02*
X196071552Y-106918116D01*
X196071552Y-106918116D02*
X196404885Y-106918116D01*
X196404885Y-106918116D02*
X196595361Y-106965735D01*
X196595361Y-106965735D02*
X196690600Y-107060973D01*
X196690600Y-107060973D02*
X196738219Y-107156211D01*
X196738219Y-107156211D02*
X196738219Y-107346687D01*
X196738219Y-107346687D02*
X196690600Y-107441925D01*
X196690600Y-107441925D02*
X196595361Y-107537163D01*
X196595361Y-107537163D02*
X196404885Y-107584782D01*
X196404885Y-107584782D02*
X196071552Y-107584782D01*
X196071552Y-107584782D02*
X195881076Y-107537163D01*
X195881076Y-107537163D02*
X195785838Y-107441925D01*
X195785838Y-107441925D02*
X195738219Y-107346687D01*
X196690600Y-106537163D02*
X196738219Y-106394306D01*
X196738219Y-106394306D02*
X196738219Y-106156211D01*
X196738219Y-106156211D02*
X196690600Y-106060973D01*
X196690600Y-106060973D02*
X196642980Y-106013354D01*
X196642980Y-106013354D02*
X196547742Y-105965735D01*
X196547742Y-105965735D02*
X196452504Y-105965735D01*
X196452504Y-105965735D02*
X196357266Y-106013354D01*
X196357266Y-106013354D02*
X196309647Y-106060973D01*
X196309647Y-106060973D02*
X196262028Y-106156211D01*
X196262028Y-106156211D02*
X196214409Y-106346687D01*
X196214409Y-106346687D02*
X196166790Y-106441925D01*
X196166790Y-106441925D02*
X196119171Y-106489544D01*
X196119171Y-106489544D02*
X196023933Y-106537163D01*
X196023933Y-106537163D02*
X195928695Y-106537163D01*
X195928695Y-106537163D02*
X195833457Y-106489544D01*
X195833457Y-106489544D02*
X195785838Y-106441925D01*
X195785838Y-106441925D02*
X195738219Y-106346687D01*
X195738219Y-106346687D02*
X195738219Y-106108592D01*
X195738219Y-106108592D02*
X195785838Y-105965735D01*
X196738219Y-104251449D02*
X196738219Y-104822877D01*
X196738219Y-104537163D02*
X195738219Y-104537163D01*
X195738219Y-104537163D02*
X195881076Y-104632401D01*
X195881076Y-104632401D02*
X195976314Y-104727639D01*
X195976314Y-104727639D02*
X196023933Y-104822877D01*
X195833457Y-103870496D02*
X195785838Y-103822877D01*
X195785838Y-103822877D02*
X195738219Y-103727639D01*
X195738219Y-103727639D02*
X195738219Y-103489544D01*
X195738219Y-103489544D02*
X195785838Y-103394306D01*
X195785838Y-103394306D02*
X195833457Y-103346687D01*
X195833457Y-103346687D02*
X195928695Y-103299068D01*
X195928695Y-103299068D02*
X196023933Y-103299068D01*
X196023933Y-103299068D02*
X196166790Y-103346687D01*
X196166790Y-103346687D02*
X196738219Y-103918115D01*
X196738219Y-103918115D02*
X196738219Y-103299068D01*
X196166790Y-102727639D02*
X196119171Y-102822877D01*
X196119171Y-102822877D02*
X196071552Y-102870496D01*
X196071552Y-102870496D02*
X195976314Y-102918115D01*
X195976314Y-102918115D02*
X195928695Y-102918115D01*
X195928695Y-102918115D02*
X195833457Y-102870496D01*
X195833457Y-102870496D02*
X195785838Y-102822877D01*
X195785838Y-102822877D02*
X195738219Y-102727639D01*
X195738219Y-102727639D02*
X195738219Y-102537163D01*
X195738219Y-102537163D02*
X195785838Y-102441925D01*
X195785838Y-102441925D02*
X195833457Y-102394306D01*
X195833457Y-102394306D02*
X195928695Y-102346687D01*
X195928695Y-102346687D02*
X195976314Y-102346687D01*
X195976314Y-102346687D02*
X196071552Y-102394306D01*
X196071552Y-102394306D02*
X196119171Y-102441925D01*
X196119171Y-102441925D02*
X196166790Y-102537163D01*
X196166790Y-102537163D02*
X196166790Y-102727639D01*
X196166790Y-102727639D02*
X196214409Y-102822877D01*
X196214409Y-102822877D02*
X196262028Y-102870496D01*
X196262028Y-102870496D02*
X196357266Y-102918115D01*
X196357266Y-102918115D02*
X196547742Y-102918115D01*
X196547742Y-102918115D02*
X196642980Y-102870496D01*
X196642980Y-102870496D02*
X196690600Y-102822877D01*
X196690600Y-102822877D02*
X196738219Y-102727639D01*
X196738219Y-102727639D02*
X196738219Y-102537163D01*
X196738219Y-102537163D02*
X196690600Y-102441925D01*
X196690600Y-102441925D02*
X196642980Y-102394306D01*
X196642980Y-102394306D02*
X196547742Y-102346687D01*
X196547742Y-102346687D02*
X196357266Y-102346687D01*
X196357266Y-102346687D02*
X196262028Y-102394306D01*
X196262028Y-102394306D02*
X196214409Y-102441925D01*
X196214409Y-102441925D02*
X196166790Y-102537163D01*
X196738219Y-101918115D02*
X195738219Y-101918115D01*
X196357266Y-101822877D02*
X196738219Y-101537163D01*
X196071552Y-101537163D02*
X196452504Y-101918115D01*
X196738219Y-99775258D02*
X196262028Y-100108591D01*
X196738219Y-100346686D02*
X195738219Y-100346686D01*
X195738219Y-100346686D02*
X195738219Y-99965734D01*
X195738219Y-99965734D02*
X195785838Y-99870496D01*
X195785838Y-99870496D02*
X195833457Y-99822877D01*
X195833457Y-99822877D02*
X195928695Y-99775258D01*
X195928695Y-99775258D02*
X196071552Y-99775258D01*
X196071552Y-99775258D02*
X196166790Y-99822877D01*
X196166790Y-99822877D02*
X196214409Y-99870496D01*
X196214409Y-99870496D02*
X196262028Y-99965734D01*
X196262028Y-99965734D02*
X196262028Y-100346686D01*
X196452504Y-99394305D02*
X196452504Y-98918115D01*
X196738219Y-99489543D02*
X195738219Y-99156210D01*
X195738219Y-99156210D02*
X196738219Y-98822877D01*
X196738219Y-98489543D02*
X195738219Y-98489543D01*
X195738219Y-98489543D02*
X196452504Y-98156210D01*
X196452504Y-98156210D02*
X195738219Y-97822877D01*
X195738219Y-97822877D02*
X196738219Y-97822877D01*
X196738219Y-96775258D02*
X196262028Y-97108591D01*
X196738219Y-97346686D02*
X195738219Y-97346686D01*
X195738219Y-97346686D02*
X195738219Y-96965734D01*
X195738219Y-96965734D02*
X195785838Y-96870496D01*
X195785838Y-96870496D02*
X195833457Y-96822877D01*
X195833457Y-96822877D02*
X195928695Y-96775258D01*
X195928695Y-96775258D02*
X196071552Y-96775258D01*
X196071552Y-96775258D02*
X196166790Y-96822877D01*
X196166790Y-96822877D02*
X196214409Y-96870496D01*
X196214409Y-96870496D02*
X196262028Y-96965734D01*
X196262028Y-96965734D02*
X196262028Y-97346686D01*
X195738219Y-96156210D02*
X195738219Y-95965734D01*
X195738219Y-95965734D02*
X195785838Y-95870496D01*
X195785838Y-95870496D02*
X195881076Y-95775258D01*
X195881076Y-95775258D02*
X196071552Y-95727639D01*
X196071552Y-95727639D02*
X196404885Y-95727639D01*
X196404885Y-95727639D02*
X196595361Y-95775258D01*
X196595361Y-95775258D02*
X196690600Y-95870496D01*
X196690600Y-95870496D02*
X196738219Y-95965734D01*
X196738219Y-95965734D02*
X196738219Y-96156210D01*
X196738219Y-96156210D02*
X196690600Y-96251448D01*
X196690600Y-96251448D02*
X196595361Y-96346686D01*
X196595361Y-96346686D02*
X196404885Y-96394305D01*
X196404885Y-96394305D02*
X196071552Y-96394305D01*
X196071552Y-96394305D02*
X195881076Y-96346686D01*
X195881076Y-96346686D02*
X195785838Y-96251448D01*
X195785838Y-96251448D02*
X195738219Y-96156210D01*
X196738219Y-95299067D02*
X195738219Y-95299067D01*
X195738219Y-95299067D02*
X196452504Y-94965734D01*
X196452504Y-94965734D02*
X195738219Y-94632401D01*
X195738219Y-94632401D02*
X196738219Y-94632401D01*
X196214409Y-93060972D02*
X196262028Y-92918115D01*
X196262028Y-92918115D02*
X196309647Y-92870496D01*
X196309647Y-92870496D02*
X196404885Y-92822877D01*
X196404885Y-92822877D02*
X196547742Y-92822877D01*
X196547742Y-92822877D02*
X196642980Y-92870496D01*
X196642980Y-92870496D02*
X196690600Y-92918115D01*
X196690600Y-92918115D02*
X196738219Y-93013353D01*
X196738219Y-93013353D02*
X196738219Y-93394305D01*
X196738219Y-93394305D02*
X195738219Y-93394305D01*
X195738219Y-93394305D02*
X195738219Y-93060972D01*
X195738219Y-93060972D02*
X195785838Y-92965734D01*
X195785838Y-92965734D02*
X195833457Y-92918115D01*
X195833457Y-92918115D02*
X195928695Y-92870496D01*
X195928695Y-92870496D02*
X196023933Y-92870496D01*
X196023933Y-92870496D02*
X196119171Y-92918115D01*
X196119171Y-92918115D02*
X196166790Y-92965734D01*
X196166790Y-92965734D02*
X196214409Y-93060972D01*
X196214409Y-93060972D02*
X196214409Y-93394305D01*
X196738219Y-92251448D02*
X196690600Y-92346686D01*
X196690600Y-92346686D02*
X196642980Y-92394305D01*
X196642980Y-92394305D02*
X196547742Y-92441924D01*
X196547742Y-92441924D02*
X196262028Y-92441924D01*
X196262028Y-92441924D02*
X196166790Y-92394305D01*
X196166790Y-92394305D02*
X196119171Y-92346686D01*
X196119171Y-92346686D02*
X196071552Y-92251448D01*
X196071552Y-92251448D02*
X196071552Y-92108591D01*
X196071552Y-92108591D02*
X196119171Y-92013353D01*
X196119171Y-92013353D02*
X196166790Y-91965734D01*
X196166790Y-91965734D02*
X196262028Y-91918115D01*
X196262028Y-91918115D02*
X196547742Y-91918115D01*
X196547742Y-91918115D02*
X196642980Y-91965734D01*
X196642980Y-91965734D02*
X196690600Y-92013353D01*
X196690600Y-92013353D02*
X196738219Y-92108591D01*
X196738219Y-92108591D02*
X196738219Y-92251448D01*
X196738219Y-91060972D02*
X196214409Y-91060972D01*
X196214409Y-91060972D02*
X196119171Y-91108591D01*
X196119171Y-91108591D02*
X196071552Y-91203829D01*
X196071552Y-91203829D02*
X196071552Y-91394305D01*
X196071552Y-91394305D02*
X196119171Y-91489543D01*
X196690600Y-91060972D02*
X196738219Y-91156210D01*
X196738219Y-91156210D02*
X196738219Y-91394305D01*
X196738219Y-91394305D02*
X196690600Y-91489543D01*
X196690600Y-91489543D02*
X196595361Y-91537162D01*
X196595361Y-91537162D02*
X196500123Y-91537162D01*
X196500123Y-91537162D02*
X196404885Y-91489543D01*
X196404885Y-91489543D02*
X196357266Y-91394305D01*
X196357266Y-91394305D02*
X196357266Y-91156210D01*
X196357266Y-91156210D02*
X196309647Y-91060972D01*
X196738219Y-90584781D02*
X196071552Y-90584781D01*
X196262028Y-90584781D02*
X196166790Y-90537162D01*
X196166790Y-90537162D02*
X196119171Y-90489543D01*
X196119171Y-90489543D02*
X196071552Y-90394305D01*
X196071552Y-90394305D02*
X196071552Y-90299067D01*
X196738219Y-89537162D02*
X195738219Y-89537162D01*
X196690600Y-89537162D02*
X196738219Y-89632400D01*
X196738219Y-89632400D02*
X196738219Y-89822876D01*
X196738219Y-89822876D02*
X196690600Y-89918114D01*
X196690600Y-89918114D02*
X196642980Y-89965733D01*
X196642980Y-89965733D02*
X196547742Y-90013352D01*
X196547742Y-90013352D02*
X196262028Y-90013352D01*
X196262028Y-90013352D02*
X196166790Y-89965733D01*
X196166790Y-89965733D02*
X196119171Y-89918114D01*
X196119171Y-89918114D02*
X196071552Y-89822876D01*
X196071552Y-89822876D02*
X196071552Y-89632400D01*
X196071552Y-89632400D02*
X196119171Y-89537162D01*
X196071552Y-88394304D02*
X196738219Y-88156209D01*
X196738219Y-88156209D02*
X196071552Y-87918114D01*
X196738219Y-87013352D02*
X196738219Y-87584780D01*
X196738219Y-87299066D02*
X195738219Y-87299066D01*
X195738219Y-87299066D02*
X195881076Y-87394304D01*
X195881076Y-87394304D02*
X195976314Y-87489542D01*
X195976314Y-87489542D02*
X196023933Y-87584780D01*
X181764658Y-111974055D02*
X181717039Y-112021675D01*
X181717039Y-112021675D02*
X181574182Y-112069294D01*
X181574182Y-112069294D02*
X181478944Y-112069294D01*
X181478944Y-112069294D02*
X181336087Y-112021675D01*
X181336087Y-112021675D02*
X181240849Y-111926436D01*
X181240849Y-111926436D02*
X181193230Y-111831198D01*
X181193230Y-111831198D02*
X181145611Y-111640722D01*
X181145611Y-111640722D02*
X181145611Y-111497865D01*
X181145611Y-111497865D02*
X181193230Y-111307389D01*
X181193230Y-111307389D02*
X181240849Y-111212151D01*
X181240849Y-111212151D02*
X181336087Y-111116913D01*
X181336087Y-111116913D02*
X181478944Y-111069294D01*
X181478944Y-111069294D02*
X181574182Y-111069294D01*
X181574182Y-111069294D02*
X181717039Y-111116913D01*
X181717039Y-111116913D02*
X181764658Y-111164532D01*
X182240849Y-112069294D02*
X182431325Y-112069294D01*
X182431325Y-112069294D02*
X182526563Y-112021675D01*
X182526563Y-112021675D02*
X182574182Y-111974055D01*
X182574182Y-111974055D02*
X182669420Y-111831198D01*
X182669420Y-111831198D02*
X182717039Y-111640722D01*
X182717039Y-111640722D02*
X182717039Y-111259770D01*
X182717039Y-111259770D02*
X182669420Y-111164532D01*
X182669420Y-111164532D02*
X182621801Y-111116913D01*
X182621801Y-111116913D02*
X182526563Y-111069294D01*
X182526563Y-111069294D02*
X182336087Y-111069294D01*
X182336087Y-111069294D02*
X182240849Y-111116913D01*
X182240849Y-111116913D02*
X182193230Y-111164532D01*
X182193230Y-111164532D02*
X182145611Y-111259770D01*
X182145611Y-111259770D02*
X182145611Y-111497865D01*
X182145611Y-111497865D02*
X182193230Y-111593103D01*
X182193230Y-111593103D02*
X182240849Y-111640722D01*
X182240849Y-111640722D02*
X182336087Y-111688341D01*
X182336087Y-111688341D02*
X182526563Y-111688341D01*
X182526563Y-111688341D02*
X182621801Y-111640722D01*
X182621801Y-111640722D02*
X182669420Y-111593103D01*
X182669420Y-111593103D02*
X182717039Y-111497865D01*
%TO.C,D2*%
X175029905Y-88579819D02*
X175029905Y-87579819D01*
X175029905Y-87579819D02*
X175268000Y-87579819D01*
X175268000Y-87579819D02*
X175410857Y-87627438D01*
X175410857Y-87627438D02*
X175506095Y-87722676D01*
X175506095Y-87722676D02*
X175553714Y-87817914D01*
X175553714Y-87817914D02*
X175601333Y-88008390D01*
X175601333Y-88008390D02*
X175601333Y-88151247D01*
X175601333Y-88151247D02*
X175553714Y-88341723D01*
X175553714Y-88341723D02*
X175506095Y-88436961D01*
X175506095Y-88436961D02*
X175410857Y-88532200D01*
X175410857Y-88532200D02*
X175268000Y-88579819D01*
X175268000Y-88579819D02*
X175029905Y-88579819D01*
X175982286Y-87675057D02*
X176029905Y-87627438D01*
X176029905Y-87627438D02*
X176125143Y-87579819D01*
X176125143Y-87579819D02*
X176363238Y-87579819D01*
X176363238Y-87579819D02*
X176458476Y-87627438D01*
X176458476Y-87627438D02*
X176506095Y-87675057D01*
X176506095Y-87675057D02*
X176553714Y-87770295D01*
X176553714Y-87770295D02*
X176553714Y-87865533D01*
X176553714Y-87865533D02*
X176506095Y-88008390D01*
X176506095Y-88008390D02*
X175934667Y-88579819D01*
X175934667Y-88579819D02*
X176553714Y-88579819D01*
%TO.C,J1*%
X136384819Y-49906338D02*
X137099104Y-49906338D01*
X137099104Y-49906338D02*
X137241961Y-49953957D01*
X137241961Y-49953957D02*
X137337200Y-50049195D01*
X137337200Y-50049195D02*
X137384819Y-50192052D01*
X137384819Y-50192052D02*
X137384819Y-50287290D01*
X137384819Y-48906338D02*
X137384819Y-49477766D01*
X137384819Y-49192052D02*
X136384819Y-49192052D01*
X136384819Y-49192052D02*
X136527676Y-49287290D01*
X136527676Y-49287290D02*
X136622914Y-49382528D01*
X136622914Y-49382528D02*
X136670533Y-49477766D01*
%TO.C,C6*%
X116038333Y-97967580D02*
X115990714Y-98015200D01*
X115990714Y-98015200D02*
X115847857Y-98062819D01*
X115847857Y-98062819D02*
X115752619Y-98062819D01*
X115752619Y-98062819D02*
X115609762Y-98015200D01*
X115609762Y-98015200D02*
X115514524Y-97919961D01*
X115514524Y-97919961D02*
X115466905Y-97824723D01*
X115466905Y-97824723D02*
X115419286Y-97634247D01*
X115419286Y-97634247D02*
X115419286Y-97491390D01*
X115419286Y-97491390D02*
X115466905Y-97300914D01*
X115466905Y-97300914D02*
X115514524Y-97205676D01*
X115514524Y-97205676D02*
X115609762Y-97110438D01*
X115609762Y-97110438D02*
X115752619Y-97062819D01*
X115752619Y-97062819D02*
X115847857Y-97062819D01*
X115847857Y-97062819D02*
X115990714Y-97110438D01*
X115990714Y-97110438D02*
X116038333Y-97158057D01*
X116895476Y-97062819D02*
X116705000Y-97062819D01*
X116705000Y-97062819D02*
X116609762Y-97110438D01*
X116609762Y-97110438D02*
X116562143Y-97158057D01*
X116562143Y-97158057D02*
X116466905Y-97300914D01*
X116466905Y-97300914D02*
X116419286Y-97491390D01*
X116419286Y-97491390D02*
X116419286Y-97872342D01*
X116419286Y-97872342D02*
X116466905Y-97967580D01*
X116466905Y-97967580D02*
X116514524Y-98015200D01*
X116514524Y-98015200D02*
X116609762Y-98062819D01*
X116609762Y-98062819D02*
X116800238Y-98062819D01*
X116800238Y-98062819D02*
X116895476Y-98015200D01*
X116895476Y-98015200D02*
X116943095Y-97967580D01*
X116943095Y-97967580D02*
X116990714Y-97872342D01*
X116990714Y-97872342D02*
X116990714Y-97634247D01*
X116990714Y-97634247D02*
X116943095Y-97539009D01*
X116943095Y-97539009D02*
X116895476Y-97491390D01*
X116895476Y-97491390D02*
X116800238Y-97443771D01*
X116800238Y-97443771D02*
X116609762Y-97443771D01*
X116609762Y-97443771D02*
X116514524Y-97491390D01*
X116514524Y-97491390D02*
X116466905Y-97539009D01*
X116466905Y-97539009D02*
X116419286Y-97634247D01*
%TO.C,J6*%
X116506666Y-81071819D02*
X116506666Y-81786104D01*
X116506666Y-81786104D02*
X116459047Y-81928961D01*
X116459047Y-81928961D02*
X116363809Y-82024200D01*
X116363809Y-82024200D02*
X116220952Y-82071819D01*
X116220952Y-82071819D02*
X116125714Y-82071819D01*
X117411428Y-81071819D02*
X117220952Y-81071819D01*
X117220952Y-81071819D02*
X117125714Y-81119438D01*
X117125714Y-81119438D02*
X117078095Y-81167057D01*
X117078095Y-81167057D02*
X116982857Y-81309914D01*
X116982857Y-81309914D02*
X116935238Y-81500390D01*
X116935238Y-81500390D02*
X116935238Y-81881342D01*
X116935238Y-81881342D02*
X116982857Y-81976580D01*
X116982857Y-81976580D02*
X117030476Y-82024200D01*
X117030476Y-82024200D02*
X117125714Y-82071819D01*
X117125714Y-82071819D02*
X117316190Y-82071819D01*
X117316190Y-82071819D02*
X117411428Y-82024200D01*
X117411428Y-82024200D02*
X117459047Y-81976580D01*
X117459047Y-81976580D02*
X117506666Y-81881342D01*
X117506666Y-81881342D02*
X117506666Y-81643247D01*
X117506666Y-81643247D02*
X117459047Y-81548009D01*
X117459047Y-81548009D02*
X117411428Y-81500390D01*
X117411428Y-81500390D02*
X117316190Y-81452771D01*
X117316190Y-81452771D02*
X117125714Y-81452771D01*
X117125714Y-81452771D02*
X117030476Y-81500390D01*
X117030476Y-81500390D02*
X116982857Y-81548009D01*
X116982857Y-81548009D02*
X116935238Y-81643247D01*
%TO.C,BT1*%
X186044210Y-86224113D02*
X186091829Y-86081256D01*
X186091829Y-86081256D02*
X186139448Y-86033637D01*
X186139448Y-86033637D02*
X186234686Y-85986018D01*
X186234686Y-85986018D02*
X186377543Y-85986018D01*
X186377543Y-85986018D02*
X186472781Y-86033637D01*
X186472781Y-86033637D02*
X186520401Y-86081256D01*
X186520401Y-86081256D02*
X186568020Y-86176494D01*
X186568020Y-86176494D02*
X186568020Y-86557446D01*
X186568020Y-86557446D02*
X185568020Y-86557446D01*
X185568020Y-86557446D02*
X185568020Y-86224113D01*
X185568020Y-86224113D02*
X185615639Y-86128875D01*
X185615639Y-86128875D02*
X185663258Y-86081256D01*
X185663258Y-86081256D02*
X185758496Y-86033637D01*
X185758496Y-86033637D02*
X185853734Y-86033637D01*
X185853734Y-86033637D02*
X185948972Y-86081256D01*
X185948972Y-86081256D02*
X185996591Y-86128875D01*
X185996591Y-86128875D02*
X186044210Y-86224113D01*
X186044210Y-86224113D02*
X186044210Y-86557446D01*
X185568020Y-85700303D02*
X185568020Y-85128875D01*
X186568020Y-85414589D02*
X185568020Y-85414589D01*
X186568020Y-84271732D02*
X186568020Y-84843160D01*
X186568020Y-84557446D02*
X185568020Y-84557446D01*
X185568020Y-84557446D02*
X185710877Y-84652684D01*
X185710877Y-84652684D02*
X185806115Y-84747922D01*
X185806115Y-84747922D02*
X185853734Y-84843160D01*
X181927901Y-88759827D02*
X181927901Y-87616970D01*
X182499329Y-88188398D02*
X181356472Y-88188398D01*
%TO.C,J7*%
X114347666Y-78166819D02*
X114347666Y-78881104D01*
X114347666Y-78881104D02*
X114300047Y-79023961D01*
X114300047Y-79023961D02*
X114204809Y-79119200D01*
X114204809Y-79119200D02*
X114061952Y-79166819D01*
X114061952Y-79166819D02*
X113966714Y-79166819D01*
X114728619Y-78166819D02*
X115395285Y-78166819D01*
X115395285Y-78166819D02*
X114966714Y-79166819D01*
%TO.C,C10*%
X163423380Y-68662257D02*
X163471000Y-68709876D01*
X163471000Y-68709876D02*
X163518619Y-68852733D01*
X163518619Y-68852733D02*
X163518619Y-68947971D01*
X163518619Y-68947971D02*
X163471000Y-69090828D01*
X163471000Y-69090828D02*
X163375761Y-69186066D01*
X163375761Y-69186066D02*
X163280523Y-69233685D01*
X163280523Y-69233685D02*
X163090047Y-69281304D01*
X163090047Y-69281304D02*
X162947190Y-69281304D01*
X162947190Y-69281304D02*
X162756714Y-69233685D01*
X162756714Y-69233685D02*
X162661476Y-69186066D01*
X162661476Y-69186066D02*
X162566238Y-69090828D01*
X162566238Y-69090828D02*
X162518619Y-68947971D01*
X162518619Y-68947971D02*
X162518619Y-68852733D01*
X162518619Y-68852733D02*
X162566238Y-68709876D01*
X162566238Y-68709876D02*
X162613857Y-68662257D01*
X163518619Y-67709876D02*
X163518619Y-68281304D01*
X163518619Y-67995590D02*
X162518619Y-67995590D01*
X162518619Y-67995590D02*
X162661476Y-68090828D01*
X162661476Y-68090828D02*
X162756714Y-68186066D01*
X162756714Y-68186066D02*
X162804333Y-68281304D01*
X162518619Y-67090828D02*
X162518619Y-66995590D01*
X162518619Y-66995590D02*
X162566238Y-66900352D01*
X162566238Y-66900352D02*
X162613857Y-66852733D01*
X162613857Y-66852733D02*
X162709095Y-66805114D01*
X162709095Y-66805114D02*
X162899571Y-66757495D01*
X162899571Y-66757495D02*
X163137666Y-66757495D01*
X163137666Y-66757495D02*
X163328142Y-66805114D01*
X163328142Y-66805114D02*
X163423380Y-66852733D01*
X163423380Y-66852733D02*
X163471000Y-66900352D01*
X163471000Y-66900352D02*
X163518619Y-66995590D01*
X163518619Y-66995590D02*
X163518619Y-67090828D01*
X163518619Y-67090828D02*
X163471000Y-67186066D01*
X163471000Y-67186066D02*
X163423380Y-67233685D01*
X163423380Y-67233685D02*
X163328142Y-67281304D01*
X163328142Y-67281304D02*
X163137666Y-67328923D01*
X163137666Y-67328923D02*
X162899571Y-67328923D01*
X162899571Y-67328923D02*
X162709095Y-67281304D01*
X162709095Y-67281304D02*
X162613857Y-67233685D01*
X162613857Y-67233685D02*
X162566238Y-67186066D01*
X162566238Y-67186066D02*
X162518619Y-67090828D01*
%TO.C,J4*%
X136384819Y-135452338D02*
X137099104Y-135452338D01*
X137099104Y-135452338D02*
X137241961Y-135499957D01*
X137241961Y-135499957D02*
X137337200Y-135595195D01*
X137337200Y-135595195D02*
X137384819Y-135738052D01*
X137384819Y-135738052D02*
X137384819Y-135833290D01*
X136718152Y-134547576D02*
X137384819Y-134547576D01*
X136337200Y-134785671D02*
X137051485Y-135023766D01*
X137051485Y-135023766D02*
X137051485Y-134404719D01*
%TO.C,R2*%
X178085819Y-127065666D02*
X177609628Y-127398999D01*
X178085819Y-127637094D02*
X177085819Y-127637094D01*
X177085819Y-127637094D02*
X177085819Y-127256142D01*
X177085819Y-127256142D02*
X177133438Y-127160904D01*
X177133438Y-127160904D02*
X177181057Y-127113285D01*
X177181057Y-127113285D02*
X177276295Y-127065666D01*
X177276295Y-127065666D02*
X177419152Y-127065666D01*
X177419152Y-127065666D02*
X177514390Y-127113285D01*
X177514390Y-127113285D02*
X177562009Y-127160904D01*
X177562009Y-127160904D02*
X177609628Y-127256142D01*
X177609628Y-127256142D02*
X177609628Y-127637094D01*
X177181057Y-126684713D02*
X177133438Y-126637094D01*
X177133438Y-126637094D02*
X177085819Y-126541856D01*
X177085819Y-126541856D02*
X177085819Y-126303761D01*
X177085819Y-126303761D02*
X177133438Y-126208523D01*
X177133438Y-126208523D02*
X177181057Y-126160904D01*
X177181057Y-126160904D02*
X177276295Y-126113285D01*
X177276295Y-126113285D02*
X177371533Y-126113285D01*
X177371533Y-126113285D02*
X177514390Y-126160904D01*
X177514390Y-126160904D02*
X178085819Y-126732332D01*
X178085819Y-126732332D02*
X178085819Y-126113285D01*
%TO.C,U6*%
X176145936Y-78915290D02*
X176145936Y-79724813D01*
X176145936Y-79724813D02*
X176193555Y-79820051D01*
X176193555Y-79820051D02*
X176241174Y-79867671D01*
X176241174Y-79867671D02*
X176336412Y-79915290D01*
X176336412Y-79915290D02*
X176526888Y-79915290D01*
X176526888Y-79915290D02*
X176622126Y-79867671D01*
X176622126Y-79867671D02*
X176669745Y-79820051D01*
X176669745Y-79820051D02*
X176717364Y-79724813D01*
X176717364Y-79724813D02*
X176717364Y-78915290D01*
X177622126Y-78915290D02*
X177431650Y-78915290D01*
X177431650Y-78915290D02*
X177336412Y-78962909D01*
X177336412Y-78962909D02*
X177288793Y-79010528D01*
X177288793Y-79010528D02*
X177193555Y-79153385D01*
X177193555Y-79153385D02*
X177145936Y-79343861D01*
X177145936Y-79343861D02*
X177145936Y-79724813D01*
X177145936Y-79724813D02*
X177193555Y-79820051D01*
X177193555Y-79820051D02*
X177241174Y-79867671D01*
X177241174Y-79867671D02*
X177336412Y-79915290D01*
X177336412Y-79915290D02*
X177526888Y-79915290D01*
X177526888Y-79915290D02*
X177622126Y-79867671D01*
X177622126Y-79867671D02*
X177669745Y-79820051D01*
X177669745Y-79820051D02*
X177717364Y-79724813D01*
X177717364Y-79724813D02*
X177717364Y-79486718D01*
X177717364Y-79486718D02*
X177669745Y-79391480D01*
X177669745Y-79391480D02*
X177622126Y-79343861D01*
X177622126Y-79343861D02*
X177526888Y-79296242D01*
X177526888Y-79296242D02*
X177336412Y-79296242D01*
X177336412Y-79296242D02*
X177241174Y-79343861D01*
X177241174Y-79343861D02*
X177193555Y-79391480D01*
X177193555Y-79391480D02*
X177145936Y-79486718D01*
%TO.C,U16*%
X178359819Y-128613494D02*
X179169342Y-128613494D01*
X179169342Y-128613494D02*
X179264580Y-128565875D01*
X179264580Y-128565875D02*
X179312200Y-128518256D01*
X179312200Y-128518256D02*
X179359819Y-128423018D01*
X179359819Y-128423018D02*
X179359819Y-128232542D01*
X179359819Y-128232542D02*
X179312200Y-128137304D01*
X179312200Y-128137304D02*
X179264580Y-128089685D01*
X179264580Y-128089685D02*
X179169342Y-128042066D01*
X179169342Y-128042066D02*
X178359819Y-128042066D01*
X179359819Y-127042066D02*
X179359819Y-127613494D01*
X179359819Y-127327780D02*
X178359819Y-127327780D01*
X178359819Y-127327780D02*
X178502676Y-127423018D01*
X178502676Y-127423018D02*
X178597914Y-127518256D01*
X178597914Y-127518256D02*
X178645533Y-127613494D01*
X178359819Y-126184923D02*
X178359819Y-126375399D01*
X178359819Y-126375399D02*
X178407438Y-126470637D01*
X178407438Y-126470637D02*
X178455057Y-126518256D01*
X178455057Y-126518256D02*
X178597914Y-126613494D01*
X178597914Y-126613494D02*
X178788390Y-126661113D01*
X178788390Y-126661113D02*
X179169342Y-126661113D01*
X179169342Y-126661113D02*
X179264580Y-126613494D01*
X179264580Y-126613494D02*
X179312200Y-126565875D01*
X179312200Y-126565875D02*
X179359819Y-126470637D01*
X179359819Y-126470637D02*
X179359819Y-126280161D01*
X179359819Y-126280161D02*
X179312200Y-126184923D01*
X179312200Y-126184923D02*
X179264580Y-126137304D01*
X179264580Y-126137304D02*
X179169342Y-126089685D01*
X179169342Y-126089685D02*
X178931247Y-126089685D01*
X178931247Y-126089685D02*
X178836009Y-126137304D01*
X178836009Y-126137304D02*
X178788390Y-126184923D01*
X178788390Y-126184923D02*
X178740771Y-126280161D01*
X178740771Y-126280161D02*
X178740771Y-126470637D01*
X178740771Y-126470637D02*
X178788390Y-126565875D01*
X178788390Y-126565875D02*
X178836009Y-126613494D01*
X178836009Y-126613494D02*
X178931247Y-126661113D01*
%TO.C,U8*%
X191501336Y-61266019D02*
X191501336Y-62075542D01*
X191501336Y-62075542D02*
X191548955Y-62170780D01*
X191548955Y-62170780D02*
X191596574Y-62218400D01*
X191596574Y-62218400D02*
X191691812Y-62266019D01*
X191691812Y-62266019D02*
X191882288Y-62266019D01*
X191882288Y-62266019D02*
X191977526Y-62218400D01*
X191977526Y-62218400D02*
X192025145Y-62170780D01*
X192025145Y-62170780D02*
X192072764Y-62075542D01*
X192072764Y-62075542D02*
X192072764Y-61266019D01*
X192691812Y-61694590D02*
X192596574Y-61646971D01*
X192596574Y-61646971D02*
X192548955Y-61599352D01*
X192548955Y-61599352D02*
X192501336Y-61504114D01*
X192501336Y-61504114D02*
X192501336Y-61456495D01*
X192501336Y-61456495D02*
X192548955Y-61361257D01*
X192548955Y-61361257D02*
X192596574Y-61313638D01*
X192596574Y-61313638D02*
X192691812Y-61266019D01*
X192691812Y-61266019D02*
X192882288Y-61266019D01*
X192882288Y-61266019D02*
X192977526Y-61313638D01*
X192977526Y-61313638D02*
X193025145Y-61361257D01*
X193025145Y-61361257D02*
X193072764Y-61456495D01*
X193072764Y-61456495D02*
X193072764Y-61504114D01*
X193072764Y-61504114D02*
X193025145Y-61599352D01*
X193025145Y-61599352D02*
X192977526Y-61646971D01*
X192977526Y-61646971D02*
X192882288Y-61694590D01*
X192882288Y-61694590D02*
X192691812Y-61694590D01*
X192691812Y-61694590D02*
X192596574Y-61742209D01*
X192596574Y-61742209D02*
X192548955Y-61789828D01*
X192548955Y-61789828D02*
X192501336Y-61885066D01*
X192501336Y-61885066D02*
X192501336Y-62075542D01*
X192501336Y-62075542D02*
X192548955Y-62170780D01*
X192548955Y-62170780D02*
X192596574Y-62218400D01*
X192596574Y-62218400D02*
X192691812Y-62266019D01*
X192691812Y-62266019D02*
X192882288Y-62266019D01*
X192882288Y-62266019D02*
X192977526Y-62218400D01*
X192977526Y-62218400D02*
X193025145Y-62170780D01*
X193025145Y-62170780D02*
X193072764Y-62075542D01*
X193072764Y-62075542D02*
X193072764Y-61885066D01*
X193072764Y-61885066D02*
X193025145Y-61789828D01*
X193025145Y-61789828D02*
X192977526Y-61742209D01*
X192977526Y-61742209D02*
X192882288Y-61694590D01*
%TO.C,U21*%
X136033819Y-65931894D02*
X136843342Y-65931894D01*
X136843342Y-65931894D02*
X136938580Y-65884275D01*
X136938580Y-65884275D02*
X136986200Y-65836656D01*
X136986200Y-65836656D02*
X137033819Y-65741418D01*
X137033819Y-65741418D02*
X137033819Y-65550942D01*
X137033819Y-65550942D02*
X136986200Y-65455704D01*
X136986200Y-65455704D02*
X136938580Y-65408085D01*
X136938580Y-65408085D02*
X136843342Y-65360466D01*
X136843342Y-65360466D02*
X136033819Y-65360466D01*
X136129057Y-64931894D02*
X136081438Y-64884275D01*
X136081438Y-64884275D02*
X136033819Y-64789037D01*
X136033819Y-64789037D02*
X136033819Y-64550942D01*
X136033819Y-64550942D02*
X136081438Y-64455704D01*
X136081438Y-64455704D02*
X136129057Y-64408085D01*
X136129057Y-64408085D02*
X136224295Y-64360466D01*
X136224295Y-64360466D02*
X136319533Y-64360466D01*
X136319533Y-64360466D02*
X136462390Y-64408085D01*
X136462390Y-64408085D02*
X137033819Y-64979513D01*
X137033819Y-64979513D02*
X137033819Y-64360466D01*
X137033819Y-63408085D02*
X137033819Y-63979513D01*
X137033819Y-63693799D02*
X136033819Y-63693799D01*
X136033819Y-63693799D02*
X136176676Y-63789037D01*
X136176676Y-63789037D02*
X136271914Y-63884275D01*
X136271914Y-63884275D02*
X136319533Y-63979513D01*
%TO.C,C4*%
X157378180Y-82134266D02*
X157425800Y-82181885D01*
X157425800Y-82181885D02*
X157473419Y-82324742D01*
X157473419Y-82324742D02*
X157473419Y-82419980D01*
X157473419Y-82419980D02*
X157425800Y-82562837D01*
X157425800Y-82562837D02*
X157330561Y-82658075D01*
X157330561Y-82658075D02*
X157235323Y-82705694D01*
X157235323Y-82705694D02*
X157044847Y-82753313D01*
X157044847Y-82753313D02*
X156901990Y-82753313D01*
X156901990Y-82753313D02*
X156711514Y-82705694D01*
X156711514Y-82705694D02*
X156616276Y-82658075D01*
X156616276Y-82658075D02*
X156521038Y-82562837D01*
X156521038Y-82562837D02*
X156473419Y-82419980D01*
X156473419Y-82419980D02*
X156473419Y-82324742D01*
X156473419Y-82324742D02*
X156521038Y-82181885D01*
X156521038Y-82181885D02*
X156568657Y-82134266D01*
X156806752Y-81277123D02*
X157473419Y-81277123D01*
X156425800Y-81515218D02*
X157140085Y-81753313D01*
X157140085Y-81753313D02*
X157140085Y-81134266D01*
%TO.C,U12*%
X140132419Y-105007394D02*
X140941942Y-105007394D01*
X140941942Y-105007394D02*
X141037180Y-104959775D01*
X141037180Y-104959775D02*
X141084800Y-104912156D01*
X141084800Y-104912156D02*
X141132419Y-104816918D01*
X141132419Y-104816918D02*
X141132419Y-104626442D01*
X141132419Y-104626442D02*
X141084800Y-104531204D01*
X141084800Y-104531204D02*
X141037180Y-104483585D01*
X141037180Y-104483585D02*
X140941942Y-104435966D01*
X140941942Y-104435966D02*
X140132419Y-104435966D01*
X141132419Y-103435966D02*
X141132419Y-104007394D01*
X141132419Y-103721680D02*
X140132419Y-103721680D01*
X140132419Y-103721680D02*
X140275276Y-103816918D01*
X140275276Y-103816918D02*
X140370514Y-103912156D01*
X140370514Y-103912156D02*
X140418133Y-104007394D01*
X140227657Y-103055013D02*
X140180038Y-103007394D01*
X140180038Y-103007394D02*
X140132419Y-102912156D01*
X140132419Y-102912156D02*
X140132419Y-102674061D01*
X140132419Y-102674061D02*
X140180038Y-102578823D01*
X140180038Y-102578823D02*
X140227657Y-102531204D01*
X140227657Y-102531204D02*
X140322895Y-102483585D01*
X140322895Y-102483585D02*
X140418133Y-102483585D01*
X140418133Y-102483585D02*
X140560990Y-102531204D01*
X140560990Y-102531204D02*
X141132419Y-103102632D01*
X141132419Y-103102632D02*
X141132419Y-102483585D01*
%TO.C,U17*%
X167209219Y-128613494D02*
X168018742Y-128613494D01*
X168018742Y-128613494D02*
X168113980Y-128565875D01*
X168113980Y-128565875D02*
X168161600Y-128518256D01*
X168161600Y-128518256D02*
X168209219Y-128423018D01*
X168209219Y-128423018D02*
X168209219Y-128232542D01*
X168209219Y-128232542D02*
X168161600Y-128137304D01*
X168161600Y-128137304D02*
X168113980Y-128089685D01*
X168113980Y-128089685D02*
X168018742Y-128042066D01*
X168018742Y-128042066D02*
X167209219Y-128042066D01*
X168209219Y-127042066D02*
X168209219Y-127613494D01*
X168209219Y-127327780D02*
X167209219Y-127327780D01*
X167209219Y-127327780D02*
X167352076Y-127423018D01*
X167352076Y-127423018D02*
X167447314Y-127518256D01*
X167447314Y-127518256D02*
X167494933Y-127613494D01*
X167209219Y-126708732D02*
X167209219Y-126042066D01*
X167209219Y-126042066D02*
X168209219Y-126470637D01*
%TO.C,C5*%
X185375017Y-76053043D02*
X185375017Y-76120387D01*
X185375017Y-76120387D02*
X185307673Y-76255074D01*
X185307673Y-76255074D02*
X185240330Y-76322417D01*
X185240330Y-76322417D02*
X185105643Y-76389761D01*
X185105643Y-76389761D02*
X184970956Y-76389761D01*
X184970956Y-76389761D02*
X184869941Y-76356089D01*
X184869941Y-76356089D02*
X184701582Y-76255074D01*
X184701582Y-76255074D02*
X184600567Y-76154059D01*
X184600567Y-76154059D02*
X184499551Y-75985700D01*
X184499551Y-75985700D02*
X184465880Y-75884685D01*
X184465880Y-75884685D02*
X184465880Y-75749998D01*
X184465880Y-75749998D02*
X184533223Y-75615311D01*
X184533223Y-75615311D02*
X184600567Y-75547967D01*
X184600567Y-75547967D02*
X184735254Y-75480624D01*
X184735254Y-75480624D02*
X184802597Y-75480624D01*
X185375017Y-74773517D02*
X185038299Y-75110234D01*
X185038299Y-75110234D02*
X185341345Y-75480624D01*
X185341345Y-75480624D02*
X185341345Y-75413280D01*
X185341345Y-75413280D02*
X185375017Y-75312265D01*
X185375017Y-75312265D02*
X185543376Y-75143906D01*
X185543376Y-75143906D02*
X185644391Y-75110234D01*
X185644391Y-75110234D02*
X185711734Y-75110234D01*
X185711734Y-75110234D02*
X185812750Y-75143906D01*
X185812750Y-75143906D02*
X185981108Y-75312265D01*
X185981108Y-75312265D02*
X186014780Y-75413280D01*
X186014780Y-75413280D02*
X186014780Y-75480624D01*
X186014780Y-75480624D02*
X185981108Y-75581639D01*
X185981108Y-75581639D02*
X185812750Y-75749998D01*
X185812750Y-75749998D02*
X185711734Y-75783669D01*
X185711734Y-75783669D02*
X185644391Y-75783669D01*
%TO.C,R8*%
X187390019Y-62345266D02*
X186913828Y-62678599D01*
X187390019Y-62916694D02*
X186390019Y-62916694D01*
X186390019Y-62916694D02*
X186390019Y-62535742D01*
X186390019Y-62535742D02*
X186437638Y-62440504D01*
X186437638Y-62440504D02*
X186485257Y-62392885D01*
X186485257Y-62392885D02*
X186580495Y-62345266D01*
X186580495Y-62345266D02*
X186723352Y-62345266D01*
X186723352Y-62345266D02*
X186818590Y-62392885D01*
X186818590Y-62392885D02*
X186866209Y-62440504D01*
X186866209Y-62440504D02*
X186913828Y-62535742D01*
X186913828Y-62535742D02*
X186913828Y-62916694D01*
X186818590Y-61773837D02*
X186770971Y-61869075D01*
X186770971Y-61869075D02*
X186723352Y-61916694D01*
X186723352Y-61916694D02*
X186628114Y-61964313D01*
X186628114Y-61964313D02*
X186580495Y-61964313D01*
X186580495Y-61964313D02*
X186485257Y-61916694D01*
X186485257Y-61916694D02*
X186437638Y-61869075D01*
X186437638Y-61869075D02*
X186390019Y-61773837D01*
X186390019Y-61773837D02*
X186390019Y-61583361D01*
X186390019Y-61583361D02*
X186437638Y-61488123D01*
X186437638Y-61488123D02*
X186485257Y-61440504D01*
X186485257Y-61440504D02*
X186580495Y-61392885D01*
X186580495Y-61392885D02*
X186628114Y-61392885D01*
X186628114Y-61392885D02*
X186723352Y-61440504D01*
X186723352Y-61440504D02*
X186770971Y-61488123D01*
X186770971Y-61488123D02*
X186818590Y-61583361D01*
X186818590Y-61583361D02*
X186818590Y-61773837D01*
X186818590Y-61773837D02*
X186866209Y-61869075D01*
X186866209Y-61869075D02*
X186913828Y-61916694D01*
X186913828Y-61916694D02*
X187009066Y-61964313D01*
X187009066Y-61964313D02*
X187199542Y-61964313D01*
X187199542Y-61964313D02*
X187294780Y-61916694D01*
X187294780Y-61916694D02*
X187342400Y-61869075D01*
X187342400Y-61869075D02*
X187390019Y-61773837D01*
X187390019Y-61773837D02*
X187390019Y-61583361D01*
X187390019Y-61583361D02*
X187342400Y-61488123D01*
X187342400Y-61488123D02*
X187294780Y-61440504D01*
X187294780Y-61440504D02*
X187199542Y-61392885D01*
X187199542Y-61392885D02*
X187009066Y-61392885D01*
X187009066Y-61392885D02*
X186913828Y-61440504D01*
X186913828Y-61440504D02*
X186866209Y-61488123D01*
X186866209Y-61488123D02*
X186818590Y-61583361D01*
%TO.C,J2*%
X136384819Y-141452338D02*
X137099104Y-141452338D01*
X137099104Y-141452338D02*
X137241961Y-141499957D01*
X137241961Y-141499957D02*
X137337200Y-141595195D01*
X137337200Y-141595195D02*
X137384819Y-141738052D01*
X137384819Y-141738052D02*
X137384819Y-141833290D01*
X136480057Y-141023766D02*
X136432438Y-140976147D01*
X136432438Y-140976147D02*
X136384819Y-140880909D01*
X136384819Y-140880909D02*
X136384819Y-140642814D01*
X136384819Y-140642814D02*
X136432438Y-140547576D01*
X136432438Y-140547576D02*
X136480057Y-140499957D01*
X136480057Y-140499957D02*
X136575295Y-140452338D01*
X136575295Y-140452338D02*
X136670533Y-140452338D01*
X136670533Y-140452338D02*
X136813390Y-140499957D01*
X136813390Y-140499957D02*
X137384819Y-141071385D01*
X137384819Y-141071385D02*
X137384819Y-140452338D01*
%TO.C,J9*%
X111299666Y-78166819D02*
X111299666Y-78881104D01*
X111299666Y-78881104D02*
X111252047Y-79023961D01*
X111252047Y-79023961D02*
X111156809Y-79119200D01*
X111156809Y-79119200D02*
X111013952Y-79166819D01*
X111013952Y-79166819D02*
X110918714Y-79166819D01*
X111823476Y-79166819D02*
X112013952Y-79166819D01*
X112013952Y-79166819D02*
X112109190Y-79119200D01*
X112109190Y-79119200D02*
X112156809Y-79071580D01*
X112156809Y-79071580D02*
X112252047Y-78928723D01*
X112252047Y-78928723D02*
X112299666Y-78738247D01*
X112299666Y-78738247D02*
X112299666Y-78357295D01*
X112299666Y-78357295D02*
X112252047Y-78262057D01*
X112252047Y-78262057D02*
X112204428Y-78214438D01*
X112204428Y-78214438D02*
X112109190Y-78166819D01*
X112109190Y-78166819D02*
X111918714Y-78166819D01*
X111918714Y-78166819D02*
X111823476Y-78214438D01*
X111823476Y-78214438D02*
X111775857Y-78262057D01*
X111775857Y-78262057D02*
X111728238Y-78357295D01*
X111728238Y-78357295D02*
X111728238Y-78595390D01*
X111728238Y-78595390D02*
X111775857Y-78690628D01*
X111775857Y-78690628D02*
X111823476Y-78738247D01*
X111823476Y-78738247D02*
X111918714Y-78785866D01*
X111918714Y-78785866D02*
X112109190Y-78785866D01*
X112109190Y-78785866D02*
X112204428Y-78738247D01*
X112204428Y-78738247D02*
X112252047Y-78690628D01*
X112252047Y-78690628D02*
X112299666Y-78595390D01*
%TO.C,R10*%
X193028819Y-60357657D02*
X192552628Y-60690990D01*
X193028819Y-60929085D02*
X192028819Y-60929085D01*
X192028819Y-60929085D02*
X192028819Y-60548133D01*
X192028819Y-60548133D02*
X192076438Y-60452895D01*
X192076438Y-60452895D02*
X192124057Y-60405276D01*
X192124057Y-60405276D02*
X192219295Y-60357657D01*
X192219295Y-60357657D02*
X192362152Y-60357657D01*
X192362152Y-60357657D02*
X192457390Y-60405276D01*
X192457390Y-60405276D02*
X192505009Y-60452895D01*
X192505009Y-60452895D02*
X192552628Y-60548133D01*
X192552628Y-60548133D02*
X192552628Y-60929085D01*
X193028819Y-59405276D02*
X193028819Y-59976704D01*
X193028819Y-59690990D02*
X192028819Y-59690990D01*
X192028819Y-59690990D02*
X192171676Y-59786228D01*
X192171676Y-59786228D02*
X192266914Y-59881466D01*
X192266914Y-59881466D02*
X192314533Y-59976704D01*
X192028819Y-58786228D02*
X192028819Y-58690990D01*
X192028819Y-58690990D02*
X192076438Y-58595752D01*
X192076438Y-58595752D02*
X192124057Y-58548133D01*
X192124057Y-58548133D02*
X192219295Y-58500514D01*
X192219295Y-58500514D02*
X192409771Y-58452895D01*
X192409771Y-58452895D02*
X192647866Y-58452895D01*
X192647866Y-58452895D02*
X192838342Y-58500514D01*
X192838342Y-58500514D02*
X192933580Y-58548133D01*
X192933580Y-58548133D02*
X192981200Y-58595752D01*
X192981200Y-58595752D02*
X193028819Y-58690990D01*
X193028819Y-58690990D02*
X193028819Y-58786228D01*
X193028819Y-58786228D02*
X192981200Y-58881466D01*
X192981200Y-58881466D02*
X192933580Y-58929085D01*
X192933580Y-58929085D02*
X192838342Y-58976704D01*
X192838342Y-58976704D02*
X192647866Y-59024323D01*
X192647866Y-59024323D02*
X192409771Y-59024323D01*
X192409771Y-59024323D02*
X192219295Y-58976704D01*
X192219295Y-58976704D02*
X192124057Y-58929085D01*
X192124057Y-58929085D02*
X192076438Y-58881466D01*
X192076438Y-58881466D02*
X192028819Y-58786228D01*
%TO.C,R7*%
X185104019Y-62346466D02*
X184627828Y-62679799D01*
X185104019Y-62917894D02*
X184104019Y-62917894D01*
X184104019Y-62917894D02*
X184104019Y-62536942D01*
X184104019Y-62536942D02*
X184151638Y-62441704D01*
X184151638Y-62441704D02*
X184199257Y-62394085D01*
X184199257Y-62394085D02*
X184294495Y-62346466D01*
X184294495Y-62346466D02*
X184437352Y-62346466D01*
X184437352Y-62346466D02*
X184532590Y-62394085D01*
X184532590Y-62394085D02*
X184580209Y-62441704D01*
X184580209Y-62441704D02*
X184627828Y-62536942D01*
X184627828Y-62536942D02*
X184627828Y-62917894D01*
X184104019Y-62013132D02*
X184104019Y-61346466D01*
X184104019Y-61346466D02*
X185104019Y-61775037D01*
%TO.C,U2*%
X115378095Y-95901819D02*
X115378095Y-96711342D01*
X115378095Y-96711342D02*
X115425714Y-96806580D01*
X115425714Y-96806580D02*
X115473333Y-96854200D01*
X115473333Y-96854200D02*
X115568571Y-96901819D01*
X115568571Y-96901819D02*
X115759047Y-96901819D01*
X115759047Y-96901819D02*
X115854285Y-96854200D01*
X115854285Y-96854200D02*
X115901904Y-96806580D01*
X115901904Y-96806580D02*
X115949523Y-96711342D01*
X115949523Y-96711342D02*
X115949523Y-95901819D01*
X116378095Y-95997057D02*
X116425714Y-95949438D01*
X116425714Y-95949438D02*
X116520952Y-95901819D01*
X116520952Y-95901819D02*
X116759047Y-95901819D01*
X116759047Y-95901819D02*
X116854285Y-95949438D01*
X116854285Y-95949438D02*
X116901904Y-95997057D01*
X116901904Y-95997057D02*
X116949523Y-96092295D01*
X116949523Y-96092295D02*
X116949523Y-96187533D01*
X116949523Y-96187533D02*
X116901904Y-96330390D01*
X116901904Y-96330390D02*
X116330476Y-96901819D01*
X116330476Y-96901819D02*
X116949523Y-96901819D01*
%TO.C,J3*%
X136384819Y-55906338D02*
X137099104Y-55906338D01*
X137099104Y-55906338D02*
X137241961Y-55953957D01*
X137241961Y-55953957D02*
X137337200Y-56049195D01*
X137337200Y-56049195D02*
X137384819Y-56192052D01*
X137384819Y-56192052D02*
X137384819Y-56287290D01*
X136384819Y-55525385D02*
X136384819Y-54906338D01*
X136384819Y-54906338D02*
X136765771Y-55239671D01*
X136765771Y-55239671D02*
X136765771Y-55096814D01*
X136765771Y-55096814D02*
X136813390Y-55001576D01*
X136813390Y-55001576D02*
X136861009Y-54953957D01*
X136861009Y-54953957D02*
X136956247Y-54906338D01*
X136956247Y-54906338D02*
X137194342Y-54906338D01*
X137194342Y-54906338D02*
X137289580Y-54953957D01*
X137289580Y-54953957D02*
X137337200Y-55001576D01*
X137337200Y-55001576D02*
X137384819Y-55096814D01*
X137384819Y-55096814D02*
X137384819Y-55382528D01*
X137384819Y-55382528D02*
X137337200Y-55477766D01*
X137337200Y-55477766D02*
X137289580Y-55525385D01*
%TO.C,R9*%
X189701419Y-62319866D02*
X189225228Y-62653199D01*
X189701419Y-62891294D02*
X188701419Y-62891294D01*
X188701419Y-62891294D02*
X188701419Y-62510342D01*
X188701419Y-62510342D02*
X188749038Y-62415104D01*
X188749038Y-62415104D02*
X188796657Y-62367485D01*
X188796657Y-62367485D02*
X188891895Y-62319866D01*
X188891895Y-62319866D02*
X189034752Y-62319866D01*
X189034752Y-62319866D02*
X189129990Y-62367485D01*
X189129990Y-62367485D02*
X189177609Y-62415104D01*
X189177609Y-62415104D02*
X189225228Y-62510342D01*
X189225228Y-62510342D02*
X189225228Y-62891294D01*
X189701419Y-61843675D02*
X189701419Y-61653199D01*
X189701419Y-61653199D02*
X189653800Y-61557961D01*
X189653800Y-61557961D02*
X189606180Y-61510342D01*
X189606180Y-61510342D02*
X189463323Y-61415104D01*
X189463323Y-61415104D02*
X189272847Y-61367485D01*
X189272847Y-61367485D02*
X188891895Y-61367485D01*
X188891895Y-61367485D02*
X188796657Y-61415104D01*
X188796657Y-61415104D02*
X188749038Y-61462723D01*
X188749038Y-61462723D02*
X188701419Y-61557961D01*
X188701419Y-61557961D02*
X188701419Y-61748437D01*
X188701419Y-61748437D02*
X188749038Y-61843675D01*
X188749038Y-61843675D02*
X188796657Y-61891294D01*
X188796657Y-61891294D02*
X188891895Y-61938913D01*
X188891895Y-61938913D02*
X189129990Y-61938913D01*
X189129990Y-61938913D02*
X189225228Y-61891294D01*
X189225228Y-61891294D02*
X189272847Y-61843675D01*
X189272847Y-61843675D02*
X189320466Y-61748437D01*
X189320466Y-61748437D02*
X189320466Y-61557961D01*
X189320466Y-61557961D02*
X189272847Y-61462723D01*
X189272847Y-61462723D02*
X189225228Y-61415104D01*
X189225228Y-61415104D02*
X189129990Y-61367485D01*
%TO.C,U1*%
X145281819Y-66454404D02*
X146091342Y-66454404D01*
X146091342Y-66454404D02*
X146186580Y-66406785D01*
X146186580Y-66406785D02*
X146234200Y-66359166D01*
X146234200Y-66359166D02*
X146281819Y-66263928D01*
X146281819Y-66263928D02*
X146281819Y-66073452D01*
X146281819Y-66073452D02*
X146234200Y-65978214D01*
X146234200Y-65978214D02*
X146186580Y-65930595D01*
X146186580Y-65930595D02*
X146091342Y-65882976D01*
X146091342Y-65882976D02*
X145281819Y-65882976D01*
X146281819Y-64882976D02*
X146281819Y-65454404D01*
X146281819Y-65168690D02*
X145281819Y-65168690D01*
X145281819Y-65168690D02*
X145424676Y-65263928D01*
X145424676Y-65263928D02*
X145519914Y-65359166D01*
X145519914Y-65359166D02*
X145567533Y-65454404D01*
%TO.C,U7*%
X189748736Y-68263419D02*
X189748736Y-69072942D01*
X189748736Y-69072942D02*
X189796355Y-69168180D01*
X189796355Y-69168180D02*
X189843974Y-69215800D01*
X189843974Y-69215800D02*
X189939212Y-69263419D01*
X189939212Y-69263419D02*
X190129688Y-69263419D01*
X190129688Y-69263419D02*
X190224926Y-69215800D01*
X190224926Y-69215800D02*
X190272545Y-69168180D01*
X190272545Y-69168180D02*
X190320164Y-69072942D01*
X190320164Y-69072942D02*
X190320164Y-68263419D01*
X190701117Y-68263419D02*
X191367783Y-68263419D01*
X191367783Y-68263419D02*
X190939212Y-69263419D01*
%TO.C,C1*%
X134145580Y-49188666D02*
X134193200Y-49236285D01*
X134193200Y-49236285D02*
X134240819Y-49379142D01*
X134240819Y-49379142D02*
X134240819Y-49474380D01*
X134240819Y-49474380D02*
X134193200Y-49617237D01*
X134193200Y-49617237D02*
X134097961Y-49712475D01*
X134097961Y-49712475D02*
X134002723Y-49760094D01*
X134002723Y-49760094D02*
X133812247Y-49807713D01*
X133812247Y-49807713D02*
X133669390Y-49807713D01*
X133669390Y-49807713D02*
X133478914Y-49760094D01*
X133478914Y-49760094D02*
X133383676Y-49712475D01*
X133383676Y-49712475D02*
X133288438Y-49617237D01*
X133288438Y-49617237D02*
X133240819Y-49474380D01*
X133240819Y-49474380D02*
X133240819Y-49379142D01*
X133240819Y-49379142D02*
X133288438Y-49236285D01*
X133288438Y-49236285D02*
X133336057Y-49188666D01*
X134240819Y-48236285D02*
X134240819Y-48807713D01*
X134240819Y-48521999D02*
X133240819Y-48521999D01*
X133240819Y-48521999D02*
X133383676Y-48617237D01*
X133383676Y-48617237D02*
X133478914Y-48712475D01*
X133478914Y-48712475D02*
X133526533Y-48807713D01*
%TO.C,J8*%
X186102666Y-126680819D02*
X186102666Y-127395104D01*
X186102666Y-127395104D02*
X186055047Y-127537961D01*
X186055047Y-127537961D02*
X185959809Y-127633200D01*
X185959809Y-127633200D02*
X185816952Y-127680819D01*
X185816952Y-127680819D02*
X185721714Y-127680819D01*
X186721714Y-127109390D02*
X186626476Y-127061771D01*
X186626476Y-127061771D02*
X186578857Y-127014152D01*
X186578857Y-127014152D02*
X186531238Y-126918914D01*
X186531238Y-126918914D02*
X186531238Y-126871295D01*
X186531238Y-126871295D02*
X186578857Y-126776057D01*
X186578857Y-126776057D02*
X186626476Y-126728438D01*
X186626476Y-126728438D02*
X186721714Y-126680819D01*
X186721714Y-126680819D02*
X186912190Y-126680819D01*
X186912190Y-126680819D02*
X187007428Y-126728438D01*
X187007428Y-126728438D02*
X187055047Y-126776057D01*
X187055047Y-126776057D02*
X187102666Y-126871295D01*
X187102666Y-126871295D02*
X187102666Y-126918914D01*
X187102666Y-126918914D02*
X187055047Y-127014152D01*
X187055047Y-127014152D02*
X187007428Y-127061771D01*
X187007428Y-127061771D02*
X186912190Y-127109390D01*
X186912190Y-127109390D02*
X186721714Y-127109390D01*
X186721714Y-127109390D02*
X186626476Y-127157009D01*
X186626476Y-127157009D02*
X186578857Y-127204628D01*
X186578857Y-127204628D02*
X186531238Y-127299866D01*
X186531238Y-127299866D02*
X186531238Y-127490342D01*
X186531238Y-127490342D02*
X186578857Y-127585580D01*
X186578857Y-127585580D02*
X186626476Y-127633200D01*
X186626476Y-127633200D02*
X186721714Y-127680819D01*
X186721714Y-127680819D02*
X186912190Y-127680819D01*
X186912190Y-127680819D02*
X187007428Y-127633200D01*
X187007428Y-127633200D02*
X187055047Y-127585580D01*
X187055047Y-127585580D02*
X187102666Y-127490342D01*
X187102666Y-127490342D02*
X187102666Y-127299866D01*
X187102666Y-127299866D02*
X187055047Y-127204628D01*
X187055047Y-127204628D02*
X187007428Y-127157009D01*
X187007428Y-127157009D02*
X186912190Y-127109390D01*
%TO.C,U9*%
X131159319Y-92154266D02*
X131968842Y-92154266D01*
X131968842Y-92154266D02*
X132064080Y-92106647D01*
X132064080Y-92106647D02*
X132111700Y-92059028D01*
X132111700Y-92059028D02*
X132159319Y-91963790D01*
X132159319Y-91963790D02*
X132159319Y-91773314D01*
X132159319Y-91773314D02*
X132111700Y-91678076D01*
X132111700Y-91678076D02*
X132064080Y-91630457D01*
X132064080Y-91630457D02*
X131968842Y-91582838D01*
X131968842Y-91582838D02*
X131159319Y-91582838D01*
X132159319Y-91059028D02*
X132159319Y-90868552D01*
X132159319Y-90868552D02*
X132111700Y-90773314D01*
X132111700Y-90773314D02*
X132064080Y-90725695D01*
X132064080Y-90725695D02*
X131921223Y-90630457D01*
X131921223Y-90630457D02*
X131730747Y-90582838D01*
X131730747Y-90582838D02*
X131349795Y-90582838D01*
X131349795Y-90582838D02*
X131254557Y-90630457D01*
X131254557Y-90630457D02*
X131206938Y-90678076D01*
X131206938Y-90678076D02*
X131159319Y-90773314D01*
X131159319Y-90773314D02*
X131159319Y-90963790D01*
X131159319Y-90963790D02*
X131206938Y-91059028D01*
X131206938Y-91059028D02*
X131254557Y-91106647D01*
X131254557Y-91106647D02*
X131349795Y-91154266D01*
X131349795Y-91154266D02*
X131587890Y-91154266D01*
X131587890Y-91154266D02*
X131683128Y-91106647D01*
X131683128Y-91106647D02*
X131730747Y-91059028D01*
X131730747Y-91059028D02*
X131778366Y-90963790D01*
X131778366Y-90963790D02*
X131778366Y-90773314D01*
X131778366Y-90773314D02*
X131730747Y-90678076D01*
X131730747Y-90678076D02*
X131683128Y-90630457D01*
X131683128Y-90630457D02*
X131587890Y-90582838D01*
%TO.C,C3*%
X153849061Y-126162477D02*
X153896681Y-126210096D01*
X153896681Y-126210096D02*
X153944300Y-126352953D01*
X153944300Y-126352953D02*
X153944300Y-126448191D01*
X153944300Y-126448191D02*
X153896681Y-126591048D01*
X153896681Y-126591048D02*
X153801442Y-126686286D01*
X153801442Y-126686286D02*
X153706204Y-126733905D01*
X153706204Y-126733905D02*
X153515728Y-126781524D01*
X153515728Y-126781524D02*
X153372871Y-126781524D01*
X153372871Y-126781524D02*
X153182395Y-126733905D01*
X153182395Y-126733905D02*
X153087157Y-126686286D01*
X153087157Y-126686286D02*
X152991919Y-126591048D01*
X152991919Y-126591048D02*
X152944300Y-126448191D01*
X152944300Y-126448191D02*
X152944300Y-126352953D01*
X152944300Y-126352953D02*
X152991919Y-126210096D01*
X152991919Y-126210096D02*
X153039538Y-126162477D01*
X152944300Y-125829143D02*
X152944300Y-125210096D01*
X152944300Y-125210096D02*
X153325252Y-125543429D01*
X153325252Y-125543429D02*
X153325252Y-125400572D01*
X153325252Y-125400572D02*
X153372871Y-125305334D01*
X153372871Y-125305334D02*
X153420490Y-125257715D01*
X153420490Y-125257715D02*
X153515728Y-125210096D01*
X153515728Y-125210096D02*
X153753823Y-125210096D01*
X153753823Y-125210096D02*
X153849061Y-125257715D01*
X153849061Y-125257715D02*
X153896681Y-125305334D01*
X153896681Y-125305334D02*
X153944300Y-125400572D01*
X153944300Y-125400572D02*
X153944300Y-125686286D01*
X153944300Y-125686286D02*
X153896681Y-125781524D01*
X153896681Y-125781524D02*
X153849061Y-125829143D01*
%TO.C,C8*%
X138251980Y-64657266D02*
X138299600Y-64704885D01*
X138299600Y-64704885D02*
X138347219Y-64847742D01*
X138347219Y-64847742D02*
X138347219Y-64942980D01*
X138347219Y-64942980D02*
X138299600Y-65085837D01*
X138299600Y-65085837D02*
X138204361Y-65181075D01*
X138204361Y-65181075D02*
X138109123Y-65228694D01*
X138109123Y-65228694D02*
X137918647Y-65276313D01*
X137918647Y-65276313D02*
X137775790Y-65276313D01*
X137775790Y-65276313D02*
X137585314Y-65228694D01*
X137585314Y-65228694D02*
X137490076Y-65181075D01*
X137490076Y-65181075D02*
X137394838Y-65085837D01*
X137394838Y-65085837D02*
X137347219Y-64942980D01*
X137347219Y-64942980D02*
X137347219Y-64847742D01*
X137347219Y-64847742D02*
X137394838Y-64704885D01*
X137394838Y-64704885D02*
X137442457Y-64657266D01*
X137775790Y-64085837D02*
X137728171Y-64181075D01*
X137728171Y-64181075D02*
X137680552Y-64228694D01*
X137680552Y-64228694D02*
X137585314Y-64276313D01*
X137585314Y-64276313D02*
X137537695Y-64276313D01*
X137537695Y-64276313D02*
X137442457Y-64228694D01*
X137442457Y-64228694D02*
X137394838Y-64181075D01*
X137394838Y-64181075D02*
X137347219Y-64085837D01*
X137347219Y-64085837D02*
X137347219Y-63895361D01*
X137347219Y-63895361D02*
X137394838Y-63800123D01*
X137394838Y-63800123D02*
X137442457Y-63752504D01*
X137442457Y-63752504D02*
X137537695Y-63704885D01*
X137537695Y-63704885D02*
X137585314Y-63704885D01*
X137585314Y-63704885D02*
X137680552Y-63752504D01*
X137680552Y-63752504D02*
X137728171Y-63800123D01*
X137728171Y-63800123D02*
X137775790Y-63895361D01*
X137775790Y-63895361D02*
X137775790Y-64085837D01*
X137775790Y-64085837D02*
X137823409Y-64181075D01*
X137823409Y-64181075D02*
X137871028Y-64228694D01*
X137871028Y-64228694D02*
X137966266Y-64276313D01*
X137966266Y-64276313D02*
X138156742Y-64276313D01*
X138156742Y-64276313D02*
X138251980Y-64228694D01*
X138251980Y-64228694D02*
X138299600Y-64181075D01*
X138299600Y-64181075D02*
X138347219Y-64085837D01*
X138347219Y-64085837D02*
X138347219Y-63895361D01*
X138347219Y-63895361D02*
X138299600Y-63800123D01*
X138299600Y-63800123D02*
X138251980Y-63752504D01*
X138251980Y-63752504D02*
X138156742Y-63704885D01*
X138156742Y-63704885D02*
X137966266Y-63704885D01*
X137966266Y-63704885D02*
X137871028Y-63752504D01*
X137871028Y-63752504D02*
X137823409Y-63800123D01*
X137823409Y-63800123D02*
X137775790Y-63895361D01*
D11*
%TO.C,D2*%
X175768000Y-87285000D02*
X177443000Y-87285000D01*
X175768000Y-87285000D02*
X175118000Y-87285000D01*
X175768000Y-84165000D02*
X176418000Y-84165000D01*
X175768000Y-84165000D02*
X175118000Y-84165000D01*
%TO.C,J1*%
X138370000Y-52173005D02*
X189290000Y-52173005D01*
X138370000Y-52173005D02*
X138370000Y-49573005D01*
X189290000Y-52173005D02*
X189290000Y-46973005D01*
X138370000Y-49573005D02*
X140970000Y-49573005D01*
X140970000Y-49573005D02*
X140970000Y-46973005D01*
X138370000Y-48303005D02*
X138370000Y-46973005D01*
X138370000Y-46973005D02*
X139700000Y-46973005D01*
X140970000Y-46973005D02*
X189290000Y-46973005D01*
%TO.C,C6*%
X116916252Y-96668000D02*
X115493748Y-96668000D01*
X116916252Y-94848000D02*
X115493748Y-94848000D01*
%TO.C,J6*%
X107780000Y-82557000D02*
X107780000Y-133597000D01*
X107780000Y-133597000D02*
X125900000Y-133597000D01*
X110780000Y-82617000D02*
X110780000Y-133537000D01*
X110780000Y-133537000D02*
X122900000Y-133537000D01*
X115840000Y-82617000D02*
X110780000Y-82617000D01*
X122900000Y-82617000D02*
X117840000Y-82617000D01*
X122900000Y-133537000D02*
X122900000Y-82617000D01*
X125900000Y-82557000D02*
X107780000Y-82557000D01*
X125900000Y-133597000D02*
X125900000Y-82557000D01*
X115840000Y-82617000D02*
G75*
G03*
X117840000Y-82617000I1000000J0D01*
G01*
%TO.C,BT1*%
X184813201Y-83238399D02*
X184813201Y-88938399D01*
X178813201Y-83238399D02*
X184813201Y-83238399D01*
X178813201Y-83238399D02*
X178813201Y-88938399D01*
X178313201Y-89688399D02*
G75*
G03*
X178813201Y-88938399I-312500J750000D01*
G01*
X184813201Y-88938399D02*
G75*
G03*
X185313201Y-89688399I812500J0D01*
G01*
X181813201Y-112134069D02*
G75*
G03*
X185313201Y-89688400I11J11495714D01*
G01*
X178313201Y-89688399D02*
G75*
G03*
X181813201Y-112134070I3499989J-10949956D01*
G01*
%TO.C,J7*%
X113621000Y-79712000D02*
X114681000Y-79712000D01*
X113621000Y-80772000D02*
X113621000Y-79712000D01*
X113621000Y-81772000D02*
X113621000Y-81832000D01*
X113621000Y-81772000D02*
X115741000Y-81772000D01*
X113621000Y-81832000D02*
X115741000Y-81832000D01*
X115741000Y-81772000D02*
X115741000Y-81832000D01*
%TO.C,C10*%
X162123800Y-67308148D02*
X162123800Y-68730652D01*
X160303800Y-67308148D02*
X160303800Y-68730652D01*
%TO.C,J4*%
X138370000Y-137719005D02*
X189290000Y-137719005D01*
X138370000Y-137719005D02*
X138370000Y-135119005D01*
X189290000Y-137719005D02*
X189290000Y-132519005D01*
X138370000Y-135119005D02*
X140970000Y-135119005D01*
X140970000Y-135119005D02*
X140970000Y-132519005D01*
X138370000Y-133849005D02*
X138370000Y-132519005D01*
X138370000Y-132519005D02*
X139700000Y-132519005D01*
X140970000Y-132519005D02*
X189290000Y-132519005D01*
%TO.C,R2*%
X178541000Y-127626064D02*
X178541000Y-126171936D01*
X180361000Y-127626064D02*
X180361000Y-126171936D01*
%TO.C,U6*%
X176907841Y-78620471D02*
X180357841Y-78620471D01*
X176907841Y-78620471D02*
X174957841Y-78620471D01*
X176907841Y-68500471D02*
X178857841Y-68500471D01*
X176907841Y-68500471D02*
X174957841Y-68500471D01*
%TO.C,U16*%
X178065000Y-127375400D02*
X178065000Y-123925400D01*
X178065000Y-127375400D02*
X178065000Y-129325400D01*
X167945000Y-127375400D02*
X167945000Y-125425400D01*
X167945000Y-127375400D02*
X167945000Y-129325400D01*
%TO.C,U8*%
X192263241Y-62651200D02*
X190463241Y-62651200D01*
X192263241Y-62651200D02*
X193063241Y-62651200D01*
X192263241Y-65771200D02*
X191463241Y-65771200D01*
X192263241Y-65771200D02*
X193063241Y-65771200D01*
%TO.C,U21*%
X137424000Y-64693800D02*
X137424000Y-68143800D01*
X137424000Y-64693800D02*
X137424000Y-62743800D01*
X146294000Y-64693800D02*
X146294000Y-66643800D01*
X146294000Y-64693800D02*
X146294000Y-62743800D01*
%TO.C,C4*%
X156078600Y-81256348D02*
X156078600Y-82678852D01*
X154258600Y-81256348D02*
X154258600Y-82678852D01*
%TO.C,U12*%
X139837600Y-103769300D02*
X139837600Y-101969300D01*
X139837600Y-103769300D02*
X139837600Y-104569300D01*
X136717600Y-103769300D02*
X136717600Y-102969300D01*
X136717600Y-103769300D02*
X136717600Y-104569300D01*
%TO.C,U17*%
X166914400Y-127375400D02*
X166914400Y-123925400D01*
X166914400Y-127375400D02*
X166914400Y-129325400D01*
X156794400Y-127375400D02*
X156794400Y-125425400D01*
X156794400Y-127375400D02*
X156794400Y-129325400D01*
%TO.C,C5*%
X185076856Y-74513319D02*
X184070994Y-75519181D01*
X183789922Y-73226385D02*
X182784060Y-74232247D01*
%TO.C,R8*%
X186025200Y-61451536D02*
X186025200Y-62905664D01*
X184205200Y-61451536D02*
X184205200Y-62905664D01*
%TO.C,J2*%
X138370000Y-143719005D02*
X189290000Y-143719005D01*
X138370000Y-143719005D02*
X138370000Y-141119005D01*
X189290000Y-143719005D02*
X189290000Y-138519005D01*
X138370000Y-141119005D02*
X140970000Y-141119005D01*
X140970000Y-141119005D02*
X140970000Y-138519005D01*
X138370000Y-139849005D02*
X138370000Y-138519005D01*
X138370000Y-138519005D02*
X139700000Y-138519005D01*
X140970000Y-138519005D02*
X189290000Y-138519005D01*
%TO.C,J9*%
X110573000Y-79712000D02*
X111633000Y-79712000D01*
X110573000Y-80772000D02*
X110573000Y-79712000D01*
X110573000Y-81772000D02*
X110573000Y-81832000D01*
X110573000Y-81772000D02*
X112693000Y-81772000D01*
X110573000Y-81832000D02*
X112693000Y-81832000D01*
X112693000Y-81772000D02*
X112693000Y-81832000D01*
%TO.C,R10*%
X191664000Y-58987736D02*
X191664000Y-60441864D01*
X189844000Y-58987736D02*
X189844000Y-60441864D01*
%TO.C,R7*%
X183739200Y-61452736D02*
X183739200Y-62906864D01*
X181919200Y-61452736D02*
X181919200Y-62906864D01*
%TO.C,U2*%
X116140000Y-97292000D02*
X112690000Y-97292000D01*
X116140000Y-97292000D02*
X118090000Y-97292000D01*
X116140000Y-106162000D02*
X114190000Y-106162000D01*
X116140000Y-106162000D02*
X118090000Y-106162000D01*
%TO.C,J3*%
X138370000Y-58173005D02*
X189290000Y-58173005D01*
X138370000Y-58173005D02*
X138370000Y-55573005D01*
X189290000Y-58173005D02*
X189290000Y-52973005D01*
X138370000Y-55573005D02*
X140970000Y-55573005D01*
X140970000Y-55573005D02*
X140970000Y-52973005D01*
X138370000Y-54303005D02*
X138370000Y-52973005D01*
X138370000Y-52973005D02*
X139700000Y-52973005D01*
X140970000Y-52973005D02*
X189290000Y-52973005D01*
%TO.C,R9*%
X188336600Y-61426136D02*
X188336600Y-62880264D01*
X186516600Y-61426136D02*
X186516600Y-62880264D01*
%TO.C,U1*%
X146667000Y-65692500D02*
X146667000Y-70142500D01*
X146667000Y-65692500D02*
X146667000Y-63042500D01*
X159487000Y-65692500D02*
X159487000Y-68342500D01*
X159487000Y-65692500D02*
X159487000Y-63042500D01*
%TO.C,U7*%
X190522241Y-67916271D02*
X187072241Y-67916271D01*
X190522241Y-67916271D02*
X192472241Y-67916271D01*
X190522241Y-78036271D02*
X188572241Y-78036271D01*
X190522241Y-78036271D02*
X192472241Y-78036271D01*
%TO.C,C1*%
X134726000Y-49733252D02*
X134726000Y-48310748D01*
X136546000Y-49733252D02*
X136546000Y-48310748D01*
%TO.C,J8*%
X185376000Y-128226000D02*
X186436000Y-128226000D01*
X185376000Y-129286000D02*
X185376000Y-128226000D01*
X185376000Y-130286000D02*
X185376000Y-130346000D01*
X185376000Y-130286000D02*
X187496000Y-130286000D01*
X185376000Y-130346000D02*
X187496000Y-130346000D01*
X187496000Y-130286000D02*
X187496000Y-130346000D01*
%TO.C,U9*%
X132544500Y-91392362D02*
X132544500Y-94842362D01*
X132544500Y-91392362D02*
X132544500Y-89442362D01*
X142664500Y-91392362D02*
X142664500Y-93342362D01*
X142664500Y-91392362D02*
X142664500Y-89442362D01*
%TO.C,C3*%
X154429481Y-126707063D02*
X154429481Y-125284559D01*
X156249481Y-126707063D02*
X156249481Y-125284559D01*
%TO.C,C8*%
X136952400Y-63779348D02*
X136952400Y-65201852D01*
X135132400Y-63779348D02*
X135132400Y-65201852D01*
%TD*%
M02*
