M48
; DRILL file {KiCad 7.0.5-7.0.5~ubuntu20.04.1} date Di 18 Jul 2023 14:00:42
; FORMAT={-:-/ absolute / metric / decimal}
; #@! TF.CreationDate,2023-07-18T14:00:42+02:00
; #@! TF.GenerationSoftware,Kicad,Pcbnew,7.0.5-7.0.5~ubuntu20.04.1
; #@! TF.FileFunction,MixedPlating,1,2
FMAT,2
METRIC
; #@! TA.AperFunction,Plated,PTH,ViaDrill
T1C0.400
; #@! TA.AperFunction,Plated,PTH,ComponentDrill
T2C0.800
; #@! TA.AperFunction,Plated,PTH,ComponentDrill
T3C1.000
; #@! TA.AperFunction,Plated,PTH,ComponentDrill
T4C1.500
; #@! TA.AperFunction,NonPlated,NPTH,ComponentDrill
T5C3.200
%
G90
G05
T1
X107.769Y-95.504
X113.665Y-100.457
X113.665Y-104.267
X117.68Y-95.758
X118.491Y-91.821
X118.618Y-109.728
X119.888Y-109.474
X126.873Y-92.329
X127.127Y-114.3
X127.381Y-122.428
X127.508Y-94.742
X128.143Y-86.995
X128.211Y-114.359
X128.561Y-105.664
X128.651Y-96.139
X128.778Y-107.315
X129.142Y-89.261
X129.867Y-111.176
X130.556Y-119.507
X130.609Y-83.384
X130.683Y-90.551
X131.704Y-90.546
X131.768Y-70.935
X132.08Y-108.712
X132.212Y-83.444
X133.096Y-49.911
X133.185Y-90.588
X133.223Y-83.185
X134.493Y-83.185
X134.493Y-106.553
X135.187Y-76.259
X135.636Y-50.497
X135.682Y-110.952
X135.75Y-93.882
X135.763Y-83.185
X135.865Y-139.45
X136.042Y-63.016
X136.855Y-111.963
X136.995Y-93.882
X137.033Y-83.058
X137.033Y-106.553
X137.25Y-47.231
X138.049Y-52.121
X138.049Y-67.169
X138.265Y-93.958
X138.303Y-82.931
X138.303Y-106.553
X138.43Y-69.977
X138.506Y-126.467
X139.535Y-93.958
X139.573Y-82.931
X139.573Y-106.553
X140.386Y-59.258
X140.589Y-62.219
X140.589Y-67.169
X140.589Y-119.38
X140.843Y-101.403
X141.097Y-130.81
X141.664Y-119.321
X141.859Y-62.179
X142.049Y-93.867
X142.672Y-79.299
X143.129Y-62.219
X143.129Y-67.234
X143.51Y-80.01
X143.866Y-84.226
X144.348Y-80.772
X144.399Y-67.169
X144.653Y-119.253
X145.186Y-76.708
X145.186Y-78.283
X145.288Y-81.559
X145.339Y-75.489
X145.866Y-77.497
X145.923Y-118.745
X148.632Y-69.155
X149.631Y-80.747
X149.902Y-69.155
X150.241Y-87.833
X150.546Y-81.509
X150.8Y-86.97
X151.172Y-69.155
X151.512Y-86.222
X151.689Y-88.671
X151.752Y-114.789
X152.442Y-69.155
X152.654Y-78.384
X153.712Y-69.155
X153.838Y-81.352
X154.292Y-114.851
X154.982Y-69.155
X155.562Y-114.851
X156.032Y-85.42
X156.185Y-77.445
X156.252Y-69.155
X156.66Y-75.655
X156.881Y-76.63
X157.069Y-74.743
X157.409Y-124.9
X157.409Y-129.85
X157.522Y-69.155
X158.175Y-117.856
X159.302Y-117.328
X159.507Y-111.8
X160.146Y-58.903
X160.274Y-82.271
X160.35Y-81.204
X160.579Y-83.287
X160.604Y-78.816
X161.219Y-124.937
X162.052Y-88.036
X162.268Y-114.851
X163.322Y-88.062
X164.808Y-114.851
X164.897Y-87.986
X166.078Y-114.851
X166.243Y-76.962
X166.325Y-127.528
X166.649Y-75.133
X167.259Y-74.168
X168.367Y-74.708
X168.402Y-73.406
X168.411Y-72.276
X168.424Y-71.219
X168.56Y-124.9
X168.801Y-75.67
X168.874Y-68.78
X168.887Y-65.412
X168.895Y-66.416
X169.129Y-67.637
X169.189Y-76.835
X169.24Y-78.156
X169.813Y-65.035
X170.022Y-111.8
X170.565Y-64.375
X170.795Y-127.477
X171.562Y-64.215
X172.37Y-124.9
X172.466Y-121.328
X172.614Y-63.902
X172.809Y-114.84
X173.604Y-63.749
X173.691Y-121.257
X173.691Y-124.912
X174.364Y-70.385
X174.364Y-71.655
X174.364Y-72.851
X174.364Y-74.195
X174.752Y-63.83
X174.91Y-121.867
X174.961Y-124.912
X175.349Y-114.84
X176.022Y-63.779
X176.18Y-122.422
X176.18Y-124.9
X176.593Y-114.866
X177.434Y-63.702
X178.544Y-63.685
X179.057Y-123.093
X179.194Y-79.402
X179.431Y-128.493
X179.483Y-74.195
X179.483Y-71.687
X179.483Y-75.465
X179.483Y-72.925
X179.578Y-122.137
X179.68Y-63.652
X180.464Y-66.866
X180.746Y-63.652
X181.674Y-66.843
X181.699Y-109.89
X181.81Y-69.623
X181.94Y-91.741
X182.372Y-128.474
X182.829Y-60.63
X182.887Y-75.416
X183.014Y-68.404
X184.264Y-78.094
X185.115Y-60.629
X185.544Y-66.894
X186.814Y-78.881
X187.947Y-76.151
X187.947Y-77.421
X188.541Y-65.161
X193.0Y-84.0
X193.097Y-73.611
X193.151Y-74.625
X193.401Y-65.161
X194.646Y-64.368
X195.125Y-124.155
X195.74Y-81.376
T2
X109.22Y-83.947
X109.22Y-86.487
X109.22Y-89.027
X109.22Y-91.567
X109.22Y-94.107
X109.22Y-96.647
X109.22Y-99.187
X109.22Y-101.727
X109.22Y-104.267
X109.22Y-106.807
X109.22Y-109.347
X109.22Y-111.887
X109.22Y-114.427
X109.22Y-116.967
X109.22Y-119.507
X109.22Y-122.047
X109.22Y-124.587
X109.22Y-127.127
X109.22Y-129.667
X109.22Y-132.207
X111.633Y-80.772
X114.681Y-80.772
X124.46Y-83.947
X124.46Y-86.487
X124.46Y-89.027
X124.46Y-91.567
X124.46Y-94.107
X124.46Y-96.647
X124.46Y-99.187
X124.46Y-101.727
X124.46Y-104.267
X124.46Y-106.807
X124.46Y-109.347
X124.46Y-111.887
X124.46Y-114.427
X124.46Y-116.967
X124.46Y-119.507
X124.46Y-122.047
X124.46Y-124.587
X124.46Y-127.127
X124.46Y-129.667
X124.46Y-132.207
X186.436Y-129.286
T3
X139.7Y-48.303
X139.7Y-50.843
X139.7Y-54.303
X139.7Y-56.843
X139.7Y-133.849
X139.7Y-136.389
X139.7Y-139.849
X139.7Y-142.389
X142.24Y-48.303
X142.24Y-50.843
X142.24Y-54.303
X142.24Y-56.843
X142.24Y-133.849
X142.24Y-136.389
X142.24Y-139.849
X142.24Y-142.389
X144.78Y-48.303
X144.78Y-50.843
X144.78Y-54.303
X144.78Y-56.843
X144.78Y-133.849
X144.78Y-136.389
X144.78Y-139.849
X144.78Y-142.389
X147.32Y-48.303
X147.32Y-50.843
X147.32Y-54.303
X147.32Y-56.843
X147.32Y-133.849
X147.32Y-136.389
X147.32Y-139.849
X147.32Y-142.389
X149.86Y-48.303
X149.86Y-50.843
X149.86Y-54.303
X149.86Y-56.843
X149.86Y-133.849
X149.86Y-136.389
X149.86Y-139.849
X149.86Y-142.389
X152.4Y-48.303
X152.4Y-50.843
X152.4Y-54.303
X152.4Y-56.843
X152.4Y-133.849
X152.4Y-136.389
X152.4Y-139.849
X152.4Y-142.389
X154.94Y-48.303
X154.94Y-50.843
X154.94Y-54.303
X154.94Y-56.843
X154.94Y-133.849
X154.94Y-136.389
X154.94Y-139.849
X154.94Y-142.389
X157.48Y-48.303
X157.48Y-50.843
X157.48Y-54.303
X157.48Y-56.843
X157.48Y-133.849
X157.48Y-136.389
X157.48Y-139.849
X157.48Y-142.389
X160.02Y-48.303
X160.02Y-50.843
X160.02Y-54.303
X160.02Y-56.843
X160.02Y-133.849
X160.02Y-136.389
X160.02Y-139.849
X160.02Y-142.389
X162.56Y-48.303
X162.56Y-50.843
X162.56Y-54.303
X162.56Y-56.843
X162.56Y-133.849
X162.56Y-136.389
X162.56Y-139.849
X162.56Y-142.389
X165.1Y-48.303
X165.1Y-50.843
X165.1Y-54.303
X165.1Y-56.843
X165.1Y-133.849
X165.1Y-136.389
X165.1Y-139.849
X165.1Y-142.389
X167.64Y-48.303
X167.64Y-50.843
X167.64Y-54.303
X167.64Y-56.843
X167.64Y-133.849
X167.64Y-136.389
X167.64Y-139.849
X167.64Y-142.389
X170.18Y-48.303
X170.18Y-50.843
X170.18Y-54.303
X170.18Y-56.843
X170.18Y-133.849
X170.18Y-136.389
X170.18Y-139.849
X170.18Y-142.389
X172.72Y-48.303
X172.72Y-50.843
X172.72Y-54.303
X172.72Y-56.843
X172.72Y-133.849
X172.72Y-136.389
X172.72Y-139.849
X172.72Y-142.389
X175.26Y-48.303
X175.26Y-50.843
X175.26Y-54.303
X175.26Y-56.843
X175.26Y-133.849
X175.26Y-136.389
X175.26Y-139.849
X175.26Y-142.389
X177.8Y-48.303
X177.8Y-50.843
X177.8Y-54.303
X177.8Y-56.843
X177.8Y-133.849
X177.8Y-136.389
X177.8Y-139.849
X177.8Y-142.389
X180.34Y-48.303
X180.34Y-50.843
X180.34Y-54.303
X180.34Y-56.843
X180.34Y-133.849
X180.34Y-136.389
X180.34Y-139.849
X180.34Y-142.389
X182.88Y-48.303
X182.88Y-50.843
X182.88Y-54.303
X182.88Y-56.843
X182.88Y-133.849
X182.88Y-136.389
X182.88Y-139.849
X182.88Y-142.389
X185.42Y-48.303
X185.42Y-50.843
X185.42Y-54.303
X185.42Y-56.843
X185.42Y-133.849
X185.42Y-136.389
X185.42Y-139.849
X185.42Y-142.389
X187.96Y-48.303
X187.96Y-50.843
X187.96Y-54.303
X187.96Y-56.843
X187.96Y-133.849
X187.96Y-136.389
X187.96Y-139.849
X187.96Y-142.389
T4
X181.813Y-85.438
X181.813Y-105.928
T5
X101.34Y-49.346
X101.34Y-141.346
X193.34Y-49.346
X193.34Y-141.346
T0
M30
