%TF.GenerationSoftware,KiCad,Pcbnew,7.0.9-7.0.9~ubuntu20.04.1*%
%TF.CreationDate,2023-12-30T20:23:18+01:00*%
%TF.ProjectId,6303_PLCC,36333033-5f50-44c4-9343-2e6b69636164,rev?*%
%TF.SameCoordinates,Original*%
%TF.FileFunction,Legend,Top*%
%TF.FilePolarity,Positive*%
%FSLAX46Y46*%
G04 Gerber Fmt 4.6, Leading zero omitted, Abs format (unit mm)*
G04 Created by KiCad (PCBNEW 7.0.9-7.0.9~ubuntu20.04.1) date 2023-12-30 20:23:18*
%MOMM*%
%LPD*%
G01*
G04 APERTURE LIST*
%ADD10C,0.150000*%
%ADD11C,0.120000*%
%ADD12C,0.100000*%
G04 APERTURE END LIST*
D10*
X169179982Y-56965509D02*
X169179982Y-55415509D01*
X169179982Y-55415509D02*
X169599030Y-55415509D01*
X169599030Y-55415509D02*
X169703792Y-55489319D01*
X169703792Y-55489319D02*
X169756173Y-55563128D01*
X169756173Y-55563128D02*
X169808554Y-55710747D01*
X169808554Y-55710747D02*
X169808554Y-55932176D01*
X169808554Y-55932176D02*
X169756173Y-56079795D01*
X169756173Y-56079795D02*
X169703792Y-56153604D01*
X169703792Y-56153604D02*
X169599030Y-56227414D01*
X169599030Y-56227414D02*
X169179982Y-56227414D01*
X170856173Y-56965509D02*
X170227601Y-56965509D01*
X170541887Y-56965509D02*
X170541887Y-55415509D01*
X170541887Y-55415509D02*
X170437125Y-55636938D01*
X170437125Y-55636938D02*
X170332363Y-55784557D01*
X170332363Y-55784557D02*
X170227601Y-55858366D01*
X171799030Y-55415509D02*
X171589506Y-55415509D01*
X171589506Y-55415509D02*
X171484744Y-55489319D01*
X171484744Y-55489319D02*
X171432363Y-55563128D01*
X171432363Y-55563128D02*
X171327601Y-55784557D01*
X171327601Y-55784557D02*
X171275220Y-56079795D01*
X171275220Y-56079795D02*
X171275220Y-56670271D01*
X171275220Y-56670271D02*
X171327601Y-56817890D01*
X171327601Y-56817890D02*
X171379982Y-56891700D01*
X171379982Y-56891700D02*
X171484744Y-56965509D01*
X171484744Y-56965509D02*
X171694268Y-56965509D01*
X171694268Y-56965509D02*
X171799030Y-56891700D01*
X171799030Y-56891700D02*
X171851411Y-56817890D01*
X171851411Y-56817890D02*
X171903792Y-56670271D01*
X171903792Y-56670271D02*
X171903792Y-56301223D01*
X171903792Y-56301223D02*
X171851411Y-56153604D01*
X171851411Y-56153604D02*
X171799030Y-56079795D01*
X171799030Y-56079795D02*
X171694268Y-56005985D01*
X171694268Y-56005985D02*
X171484744Y-56005985D01*
X171484744Y-56005985D02*
X171379982Y-56079795D01*
X171379982Y-56079795D02*
X171327601Y-56153604D01*
X171327601Y-56153604D02*
X171275220Y-56301223D01*
X169179982Y-59461009D02*
X169179982Y-57911009D01*
X169179982Y-57911009D02*
X169599030Y-57911009D01*
X169599030Y-57911009D02*
X169703792Y-57984819D01*
X169703792Y-57984819D02*
X169756173Y-58058628D01*
X169756173Y-58058628D02*
X169808554Y-58206247D01*
X169808554Y-58206247D02*
X169808554Y-58427676D01*
X169808554Y-58427676D02*
X169756173Y-58575295D01*
X169756173Y-58575295D02*
X169703792Y-58649104D01*
X169703792Y-58649104D02*
X169599030Y-58722914D01*
X169599030Y-58722914D02*
X169179982Y-58722914D01*
X170856173Y-59461009D02*
X170227601Y-59461009D01*
X170541887Y-59461009D02*
X170541887Y-57911009D01*
X170541887Y-57911009D02*
X170437125Y-58132438D01*
X170437125Y-58132438D02*
X170332363Y-58280057D01*
X170332363Y-58280057D02*
X170227601Y-58353866D01*
X171799030Y-58427676D02*
X171799030Y-59461009D01*
X171537125Y-57837200D02*
X171275220Y-58944342D01*
X171275220Y-58944342D02*
X171956173Y-58944342D01*
X169179982Y-61956509D02*
X169179982Y-60406509D01*
X169179982Y-60406509D02*
X169599030Y-60406509D01*
X169599030Y-60406509D02*
X169703792Y-60480319D01*
X169703792Y-60480319D02*
X169756173Y-60554128D01*
X169756173Y-60554128D02*
X169808554Y-60701747D01*
X169808554Y-60701747D02*
X169808554Y-60923176D01*
X169808554Y-60923176D02*
X169756173Y-61070795D01*
X169756173Y-61070795D02*
X169703792Y-61144604D01*
X169703792Y-61144604D02*
X169599030Y-61218414D01*
X169599030Y-61218414D02*
X169179982Y-61218414D01*
X170856173Y-61956509D02*
X170227601Y-61956509D01*
X170541887Y-61956509D02*
X170541887Y-60406509D01*
X170541887Y-60406509D02*
X170437125Y-60627938D01*
X170437125Y-60627938D02*
X170332363Y-60775557D01*
X170332363Y-60775557D02*
X170227601Y-60849366D01*
X171275220Y-60554128D02*
X171327601Y-60480319D01*
X171327601Y-60480319D02*
X171432363Y-60406509D01*
X171432363Y-60406509D02*
X171694268Y-60406509D01*
X171694268Y-60406509D02*
X171799030Y-60480319D01*
X171799030Y-60480319D02*
X171851411Y-60554128D01*
X171851411Y-60554128D02*
X171903792Y-60701747D01*
X171903792Y-60701747D02*
X171903792Y-60849366D01*
X171903792Y-60849366D02*
X171851411Y-61070795D01*
X171851411Y-61070795D02*
X171222839Y-61956509D01*
X171222839Y-61956509D02*
X171903792Y-61956509D01*
X169179982Y-64452009D02*
X169179982Y-62902009D01*
X169179982Y-62902009D02*
X169599030Y-62902009D01*
X169599030Y-62902009D02*
X169703792Y-62975819D01*
X169703792Y-62975819D02*
X169756173Y-63049628D01*
X169756173Y-63049628D02*
X169808554Y-63197247D01*
X169808554Y-63197247D02*
X169808554Y-63418676D01*
X169808554Y-63418676D02*
X169756173Y-63566295D01*
X169756173Y-63566295D02*
X169703792Y-63640104D01*
X169703792Y-63640104D02*
X169599030Y-63713914D01*
X169599030Y-63713914D02*
X169179982Y-63713914D01*
X170856173Y-64452009D02*
X170227601Y-64452009D01*
X170541887Y-64452009D02*
X170541887Y-62902009D01*
X170541887Y-62902009D02*
X170437125Y-63123438D01*
X170437125Y-63123438D02*
X170332363Y-63271057D01*
X170332363Y-63271057D02*
X170227601Y-63344866D01*
X171537125Y-62902009D02*
X171641887Y-62902009D01*
X171641887Y-62902009D02*
X171746649Y-62975819D01*
X171746649Y-62975819D02*
X171799030Y-63049628D01*
X171799030Y-63049628D02*
X171851411Y-63197247D01*
X171851411Y-63197247D02*
X171903792Y-63492485D01*
X171903792Y-63492485D02*
X171903792Y-63861533D01*
X171903792Y-63861533D02*
X171851411Y-64156771D01*
X171851411Y-64156771D02*
X171799030Y-64304390D01*
X171799030Y-64304390D02*
X171746649Y-64378200D01*
X171746649Y-64378200D02*
X171641887Y-64452009D01*
X171641887Y-64452009D02*
X171537125Y-64452009D01*
X171537125Y-64452009D02*
X171432363Y-64378200D01*
X171432363Y-64378200D02*
X171379982Y-64304390D01*
X171379982Y-64304390D02*
X171327601Y-64156771D01*
X171327601Y-64156771D02*
X171275220Y-63861533D01*
X171275220Y-63861533D02*
X171275220Y-63492485D01*
X171275220Y-63492485D02*
X171327601Y-63197247D01*
X171327601Y-63197247D02*
X171379982Y-63049628D01*
X171379982Y-63049628D02*
X171432363Y-62975819D01*
X171432363Y-62975819D02*
X171537125Y-62902009D01*
X169179982Y-66947509D02*
X169179982Y-65397509D01*
X169179982Y-65397509D02*
X169599030Y-65397509D01*
X169599030Y-65397509D02*
X169703792Y-65471319D01*
X169703792Y-65471319D02*
X169756173Y-65545128D01*
X169756173Y-65545128D02*
X169808554Y-65692747D01*
X169808554Y-65692747D02*
X169808554Y-65914176D01*
X169808554Y-65914176D02*
X169756173Y-66061795D01*
X169756173Y-66061795D02*
X169703792Y-66135604D01*
X169703792Y-66135604D02*
X169599030Y-66209414D01*
X169599030Y-66209414D02*
X169179982Y-66209414D01*
X170227601Y-65545128D02*
X170279982Y-65471319D01*
X170279982Y-65471319D02*
X170384744Y-65397509D01*
X170384744Y-65397509D02*
X170646649Y-65397509D01*
X170646649Y-65397509D02*
X170751411Y-65471319D01*
X170751411Y-65471319D02*
X170803792Y-65545128D01*
X170803792Y-65545128D02*
X170856173Y-65692747D01*
X170856173Y-65692747D02*
X170856173Y-65840366D01*
X170856173Y-65840366D02*
X170803792Y-66061795D01*
X170803792Y-66061795D02*
X170175220Y-66947509D01*
X170175220Y-66947509D02*
X170856173Y-66947509D01*
X171222839Y-65397509D02*
X171903792Y-65397509D01*
X171903792Y-65397509D02*
X171537125Y-65987985D01*
X171537125Y-65987985D02*
X171694268Y-65987985D01*
X171694268Y-65987985D02*
X171799030Y-66061795D01*
X171799030Y-66061795D02*
X171851411Y-66135604D01*
X171851411Y-66135604D02*
X171903792Y-66283223D01*
X171903792Y-66283223D02*
X171903792Y-66652271D01*
X171903792Y-66652271D02*
X171851411Y-66799890D01*
X171851411Y-66799890D02*
X171799030Y-66873700D01*
X171799030Y-66873700D02*
X171694268Y-66947509D01*
X171694268Y-66947509D02*
X171379982Y-66947509D01*
X171379982Y-66947509D02*
X171275220Y-66873700D01*
X171275220Y-66873700D02*
X171222839Y-66799890D01*
X169179982Y-69443009D02*
X169179982Y-67893009D01*
X169179982Y-67893009D02*
X169599030Y-67893009D01*
X169599030Y-67893009D02*
X169703792Y-67966819D01*
X169703792Y-67966819D02*
X169756173Y-68040628D01*
X169756173Y-68040628D02*
X169808554Y-68188247D01*
X169808554Y-68188247D02*
X169808554Y-68409676D01*
X169808554Y-68409676D02*
X169756173Y-68557295D01*
X169756173Y-68557295D02*
X169703792Y-68631104D01*
X169703792Y-68631104D02*
X169599030Y-68704914D01*
X169599030Y-68704914D02*
X169179982Y-68704914D01*
X170227601Y-68040628D02*
X170279982Y-67966819D01*
X170279982Y-67966819D02*
X170384744Y-67893009D01*
X170384744Y-67893009D02*
X170646649Y-67893009D01*
X170646649Y-67893009D02*
X170751411Y-67966819D01*
X170751411Y-67966819D02*
X170803792Y-68040628D01*
X170803792Y-68040628D02*
X170856173Y-68188247D01*
X170856173Y-68188247D02*
X170856173Y-68335866D01*
X170856173Y-68335866D02*
X170803792Y-68557295D01*
X170803792Y-68557295D02*
X170175220Y-69443009D01*
X170175220Y-69443009D02*
X170856173Y-69443009D01*
X171903792Y-69443009D02*
X171275220Y-69443009D01*
X171589506Y-69443009D02*
X171589506Y-67893009D01*
X171589506Y-67893009D02*
X171484744Y-68114438D01*
X171484744Y-68114438D02*
X171379982Y-68262057D01*
X171379982Y-68262057D02*
X171275220Y-68335866D01*
X169599030Y-70462319D02*
X169494268Y-70388509D01*
X169494268Y-70388509D02*
X169337125Y-70388509D01*
X169337125Y-70388509D02*
X169179982Y-70462319D01*
X169179982Y-70462319D02*
X169075220Y-70609938D01*
X169075220Y-70609938D02*
X169022839Y-70757557D01*
X169022839Y-70757557D02*
X168970458Y-71052795D01*
X168970458Y-71052795D02*
X168970458Y-71274223D01*
X168970458Y-71274223D02*
X169022839Y-71569461D01*
X169022839Y-71569461D02*
X169075220Y-71717080D01*
X169075220Y-71717080D02*
X169179982Y-71864700D01*
X169179982Y-71864700D02*
X169337125Y-71938509D01*
X169337125Y-71938509D02*
X169441887Y-71938509D01*
X169441887Y-71938509D02*
X169599030Y-71864700D01*
X169599030Y-71864700D02*
X169651411Y-71790890D01*
X169651411Y-71790890D02*
X169651411Y-71274223D01*
X169651411Y-71274223D02*
X169441887Y-71274223D01*
X170122839Y-71938509D02*
X170122839Y-70388509D01*
X170122839Y-70388509D02*
X170751411Y-71938509D01*
X170751411Y-71938509D02*
X170751411Y-70388509D01*
X171275220Y-71938509D02*
X171275220Y-70388509D01*
X171275220Y-70388509D02*
X171537125Y-70388509D01*
X171537125Y-70388509D02*
X171694268Y-70462319D01*
X171694268Y-70462319D02*
X171799030Y-70609938D01*
X171799030Y-70609938D02*
X171851411Y-70757557D01*
X171851411Y-70757557D02*
X171903792Y-71052795D01*
X171903792Y-71052795D02*
X171903792Y-71274223D01*
X171903792Y-71274223D02*
X171851411Y-71569461D01*
X171851411Y-71569461D02*
X171799030Y-71717080D01*
X171799030Y-71717080D02*
X171694268Y-71864700D01*
X171694268Y-71864700D02*
X171537125Y-71938509D01*
X171537125Y-71938509D02*
X171275220Y-71938509D01*
X161880779Y-48891819D02*
X161880779Y-47891819D01*
X161880779Y-47891819D02*
X162261731Y-47891819D01*
X162261731Y-47891819D02*
X162356969Y-47939438D01*
X162356969Y-47939438D02*
X162404588Y-47987057D01*
X162404588Y-47987057D02*
X162452207Y-48082295D01*
X162452207Y-48082295D02*
X162452207Y-48225152D01*
X162452207Y-48225152D02*
X162404588Y-48320390D01*
X162404588Y-48320390D02*
X162356969Y-48368009D01*
X162356969Y-48368009D02*
X162261731Y-48415628D01*
X162261731Y-48415628D02*
X161880779Y-48415628D01*
X162833160Y-47987057D02*
X162880779Y-47939438D01*
X162880779Y-47939438D02*
X162976017Y-47891819D01*
X162976017Y-47891819D02*
X163214112Y-47891819D01*
X163214112Y-47891819D02*
X163309350Y-47939438D01*
X163309350Y-47939438D02*
X163356969Y-47987057D01*
X163356969Y-47987057D02*
X163404588Y-48082295D01*
X163404588Y-48082295D02*
X163404588Y-48177533D01*
X163404588Y-48177533D02*
X163356969Y-48320390D01*
X163356969Y-48320390D02*
X162785541Y-48891819D01*
X162785541Y-48891819D02*
X163404588Y-48891819D01*
X164023636Y-47891819D02*
X164118874Y-47891819D01*
X164118874Y-47891819D02*
X164214112Y-47939438D01*
X164214112Y-47939438D02*
X164261731Y-47987057D01*
X164261731Y-47987057D02*
X164309350Y-48082295D01*
X164309350Y-48082295D02*
X164356969Y-48272771D01*
X164356969Y-48272771D02*
X164356969Y-48510866D01*
X164356969Y-48510866D02*
X164309350Y-48701342D01*
X164309350Y-48701342D02*
X164261731Y-48796580D01*
X164261731Y-48796580D02*
X164214112Y-48844200D01*
X164214112Y-48844200D02*
X164118874Y-48891819D01*
X164118874Y-48891819D02*
X164023636Y-48891819D01*
X164023636Y-48891819D02*
X163928398Y-48844200D01*
X163928398Y-48844200D02*
X163880779Y-48796580D01*
X163880779Y-48796580D02*
X163833160Y-48701342D01*
X163833160Y-48701342D02*
X163785541Y-48510866D01*
X163785541Y-48510866D02*
X163785541Y-48272771D01*
X163785541Y-48272771D02*
X163833160Y-48082295D01*
X163833160Y-48082295D02*
X163880779Y-47987057D01*
X163880779Y-47987057D02*
X163928398Y-47939438D01*
X163928398Y-47939438D02*
X164023636Y-47891819D01*
X165547446Y-48891819D02*
X165547446Y-47891819D01*
X165547446Y-47891819D02*
X165928398Y-47891819D01*
X165928398Y-47891819D02*
X166023636Y-47939438D01*
X166023636Y-47939438D02*
X166071255Y-47987057D01*
X166071255Y-47987057D02*
X166118874Y-48082295D01*
X166118874Y-48082295D02*
X166118874Y-48225152D01*
X166118874Y-48225152D02*
X166071255Y-48320390D01*
X166071255Y-48320390D02*
X166023636Y-48368009D01*
X166023636Y-48368009D02*
X165928398Y-48415628D01*
X165928398Y-48415628D02*
X165547446Y-48415628D01*
X166499827Y-47987057D02*
X166547446Y-47939438D01*
X166547446Y-47939438D02*
X166642684Y-47891819D01*
X166642684Y-47891819D02*
X166880779Y-47891819D01*
X166880779Y-47891819D02*
X166976017Y-47939438D01*
X166976017Y-47939438D02*
X167023636Y-47987057D01*
X167023636Y-47987057D02*
X167071255Y-48082295D01*
X167071255Y-48082295D02*
X167071255Y-48177533D01*
X167071255Y-48177533D02*
X167023636Y-48320390D01*
X167023636Y-48320390D02*
X166452208Y-48891819D01*
X166452208Y-48891819D02*
X167071255Y-48891819D01*
X168023636Y-48891819D02*
X167452208Y-48891819D01*
X167737922Y-48891819D02*
X167737922Y-47891819D01*
X167737922Y-47891819D02*
X167642684Y-48034676D01*
X167642684Y-48034676D02*
X167547446Y-48129914D01*
X167547446Y-48129914D02*
X167452208Y-48177533D01*
X169214113Y-48891819D02*
X169214113Y-47891819D01*
X169214113Y-47891819D02*
X169595065Y-47891819D01*
X169595065Y-47891819D02*
X169690303Y-47939438D01*
X169690303Y-47939438D02*
X169737922Y-47987057D01*
X169737922Y-47987057D02*
X169785541Y-48082295D01*
X169785541Y-48082295D02*
X169785541Y-48225152D01*
X169785541Y-48225152D02*
X169737922Y-48320390D01*
X169737922Y-48320390D02*
X169690303Y-48368009D01*
X169690303Y-48368009D02*
X169595065Y-48415628D01*
X169595065Y-48415628D02*
X169214113Y-48415628D01*
X170166494Y-47987057D02*
X170214113Y-47939438D01*
X170214113Y-47939438D02*
X170309351Y-47891819D01*
X170309351Y-47891819D02*
X170547446Y-47891819D01*
X170547446Y-47891819D02*
X170642684Y-47939438D01*
X170642684Y-47939438D02*
X170690303Y-47987057D01*
X170690303Y-47987057D02*
X170737922Y-48082295D01*
X170737922Y-48082295D02*
X170737922Y-48177533D01*
X170737922Y-48177533D02*
X170690303Y-48320390D01*
X170690303Y-48320390D02*
X170118875Y-48891819D01*
X170118875Y-48891819D02*
X170737922Y-48891819D01*
X171118875Y-47987057D02*
X171166494Y-47939438D01*
X171166494Y-47939438D02*
X171261732Y-47891819D01*
X171261732Y-47891819D02*
X171499827Y-47891819D01*
X171499827Y-47891819D02*
X171595065Y-47939438D01*
X171595065Y-47939438D02*
X171642684Y-47987057D01*
X171642684Y-47987057D02*
X171690303Y-48082295D01*
X171690303Y-48082295D02*
X171690303Y-48177533D01*
X171690303Y-48177533D02*
X171642684Y-48320390D01*
X171642684Y-48320390D02*
X171071256Y-48891819D01*
X171071256Y-48891819D02*
X171690303Y-48891819D01*
X176612779Y-76507819D02*
X176612779Y-77317342D01*
X176612779Y-77317342D02*
X176660398Y-77412580D01*
X176660398Y-77412580D02*
X176708017Y-77460200D01*
X176708017Y-77460200D02*
X176803255Y-77507819D01*
X176803255Y-77507819D02*
X176993731Y-77507819D01*
X176993731Y-77507819D02*
X177088969Y-77460200D01*
X177088969Y-77460200D02*
X177136588Y-77412580D01*
X177136588Y-77412580D02*
X177184207Y-77317342D01*
X177184207Y-77317342D02*
X177184207Y-76507819D01*
X177660398Y-76841152D02*
X177660398Y-77507819D01*
X177660398Y-76936390D02*
X177708017Y-76888771D01*
X177708017Y-76888771D02*
X177803255Y-76841152D01*
X177803255Y-76841152D02*
X177946112Y-76841152D01*
X177946112Y-76841152D02*
X178041350Y-76888771D01*
X178041350Y-76888771D02*
X178088969Y-76984009D01*
X178088969Y-76984009D02*
X178088969Y-77507819D01*
X178565160Y-77507819D02*
X178565160Y-76841152D01*
X178565160Y-76507819D02*
X178517541Y-76555438D01*
X178517541Y-76555438D02*
X178565160Y-76603057D01*
X178565160Y-76603057D02*
X178612779Y-76555438D01*
X178612779Y-76555438D02*
X178565160Y-76507819D01*
X178565160Y-76507819D02*
X178565160Y-76603057D01*
X179469921Y-77460200D02*
X179374683Y-77507819D01*
X179374683Y-77507819D02*
X179184207Y-77507819D01*
X179184207Y-77507819D02*
X179088969Y-77460200D01*
X179088969Y-77460200D02*
X179041350Y-77412580D01*
X179041350Y-77412580D02*
X178993731Y-77317342D01*
X178993731Y-77317342D02*
X178993731Y-77031628D01*
X178993731Y-77031628D02*
X179041350Y-76936390D01*
X179041350Y-76936390D02*
X179088969Y-76888771D01*
X179088969Y-76888771D02*
X179184207Y-76841152D01*
X179184207Y-76841152D02*
X179374683Y-76841152D01*
X179374683Y-76841152D02*
X179469921Y-76888771D01*
X180041350Y-77507819D02*
X179946112Y-77460200D01*
X179946112Y-77460200D02*
X179898493Y-77412580D01*
X179898493Y-77412580D02*
X179850874Y-77317342D01*
X179850874Y-77317342D02*
X179850874Y-77031628D01*
X179850874Y-77031628D02*
X179898493Y-76936390D01*
X179898493Y-76936390D02*
X179946112Y-76888771D01*
X179946112Y-76888771D02*
X180041350Y-76841152D01*
X180041350Y-76841152D02*
X180184207Y-76841152D01*
X180184207Y-76841152D02*
X180279445Y-76888771D01*
X180279445Y-76888771D02*
X180327064Y-76936390D01*
X180327064Y-76936390D02*
X180374683Y-77031628D01*
X180374683Y-77031628D02*
X180374683Y-77317342D01*
X180374683Y-77317342D02*
X180327064Y-77412580D01*
X180327064Y-77412580D02*
X180279445Y-77460200D01*
X180279445Y-77460200D02*
X180184207Y-77507819D01*
X180184207Y-77507819D02*
X180041350Y-77507819D01*
X180803255Y-77507819D02*
X180803255Y-76841152D01*
X180803255Y-76936390D02*
X180850874Y-76888771D01*
X180850874Y-76888771D02*
X180946112Y-76841152D01*
X180946112Y-76841152D02*
X181088969Y-76841152D01*
X181088969Y-76841152D02*
X181184207Y-76888771D01*
X181184207Y-76888771D02*
X181231826Y-76984009D01*
X181231826Y-76984009D02*
X181231826Y-77507819D01*
X181231826Y-76984009D02*
X181279445Y-76888771D01*
X181279445Y-76888771D02*
X181374683Y-76841152D01*
X181374683Y-76841152D02*
X181517540Y-76841152D01*
X181517540Y-76841152D02*
X181612779Y-76888771D01*
X181612779Y-76888771D02*
X181660398Y-76984009D01*
X181660398Y-76984009D02*
X181660398Y-77507819D01*
X182136588Y-76841152D02*
X182136588Y-77841152D01*
X182136588Y-76888771D02*
X182231826Y-76841152D01*
X182231826Y-76841152D02*
X182422302Y-76841152D01*
X182422302Y-76841152D02*
X182517540Y-76888771D01*
X182517540Y-76888771D02*
X182565159Y-76936390D01*
X182565159Y-76936390D02*
X182612778Y-77031628D01*
X182612778Y-77031628D02*
X182612778Y-77317342D01*
X182612778Y-77317342D02*
X182565159Y-77412580D01*
X182565159Y-77412580D02*
X182517540Y-77460200D01*
X182517540Y-77460200D02*
X182422302Y-77507819D01*
X182422302Y-77507819D02*
X182231826Y-77507819D01*
X182231826Y-77507819D02*
X182136588Y-77460200D01*
X183708017Y-76841152D02*
X183946112Y-77507819D01*
X183946112Y-77507819D02*
X184184207Y-76841152D01*
X184517541Y-76603057D02*
X184565160Y-76555438D01*
X184565160Y-76555438D02*
X184660398Y-76507819D01*
X184660398Y-76507819D02*
X184898493Y-76507819D01*
X184898493Y-76507819D02*
X184993731Y-76555438D01*
X184993731Y-76555438D02*
X185041350Y-76603057D01*
X185041350Y-76603057D02*
X185088969Y-76698295D01*
X185088969Y-76698295D02*
X185088969Y-76793533D01*
X185088969Y-76793533D02*
X185041350Y-76936390D01*
X185041350Y-76936390D02*
X184469922Y-77507819D01*
X184469922Y-77507819D02*
X185088969Y-77507819D01*
X176612779Y-79117819D02*
X176612779Y-78117819D01*
X176612779Y-78594009D02*
X177184207Y-78594009D01*
X177184207Y-79117819D02*
X177184207Y-78117819D01*
X177660398Y-79117819D02*
X177660398Y-78117819D01*
X177660398Y-78117819D02*
X177898493Y-78117819D01*
X177898493Y-78117819D02*
X178041350Y-78165438D01*
X178041350Y-78165438D02*
X178136588Y-78260676D01*
X178136588Y-78260676D02*
X178184207Y-78355914D01*
X178184207Y-78355914D02*
X178231826Y-78546390D01*
X178231826Y-78546390D02*
X178231826Y-78689247D01*
X178231826Y-78689247D02*
X178184207Y-78879723D01*
X178184207Y-78879723D02*
X178136588Y-78974961D01*
X178136588Y-78974961D02*
X178041350Y-79070200D01*
X178041350Y-79070200D02*
X177898493Y-79117819D01*
X177898493Y-79117819D02*
X177660398Y-79117819D01*
X179088969Y-78117819D02*
X178898493Y-78117819D01*
X178898493Y-78117819D02*
X178803255Y-78165438D01*
X178803255Y-78165438D02*
X178755636Y-78213057D01*
X178755636Y-78213057D02*
X178660398Y-78355914D01*
X178660398Y-78355914D02*
X178612779Y-78546390D01*
X178612779Y-78546390D02*
X178612779Y-78927342D01*
X178612779Y-78927342D02*
X178660398Y-79022580D01*
X178660398Y-79022580D02*
X178708017Y-79070200D01*
X178708017Y-79070200D02*
X178803255Y-79117819D01*
X178803255Y-79117819D02*
X178993731Y-79117819D01*
X178993731Y-79117819D02*
X179088969Y-79070200D01*
X179088969Y-79070200D02*
X179136588Y-79022580D01*
X179136588Y-79022580D02*
X179184207Y-78927342D01*
X179184207Y-78927342D02*
X179184207Y-78689247D01*
X179184207Y-78689247D02*
X179136588Y-78594009D01*
X179136588Y-78594009D02*
X179088969Y-78546390D01*
X179088969Y-78546390D02*
X178993731Y-78498771D01*
X178993731Y-78498771D02*
X178803255Y-78498771D01*
X178803255Y-78498771D02*
X178708017Y-78546390D01*
X178708017Y-78546390D02*
X178660398Y-78594009D01*
X178660398Y-78594009D02*
X178612779Y-78689247D01*
X179517541Y-78117819D02*
X180136588Y-78117819D01*
X180136588Y-78117819D02*
X179803255Y-78498771D01*
X179803255Y-78498771D02*
X179946112Y-78498771D01*
X179946112Y-78498771D02*
X180041350Y-78546390D01*
X180041350Y-78546390D02*
X180088969Y-78594009D01*
X180088969Y-78594009D02*
X180136588Y-78689247D01*
X180136588Y-78689247D02*
X180136588Y-78927342D01*
X180136588Y-78927342D02*
X180088969Y-79022580D01*
X180088969Y-79022580D02*
X180041350Y-79070200D01*
X180041350Y-79070200D02*
X179946112Y-79117819D01*
X179946112Y-79117819D02*
X179660398Y-79117819D01*
X179660398Y-79117819D02*
X179565160Y-79070200D01*
X179565160Y-79070200D02*
X179517541Y-79022580D01*
X180755636Y-78117819D02*
X180850874Y-78117819D01*
X180850874Y-78117819D02*
X180946112Y-78165438D01*
X180946112Y-78165438D02*
X180993731Y-78213057D01*
X180993731Y-78213057D02*
X181041350Y-78308295D01*
X181041350Y-78308295D02*
X181088969Y-78498771D01*
X181088969Y-78498771D02*
X181088969Y-78736866D01*
X181088969Y-78736866D02*
X181041350Y-78927342D01*
X181041350Y-78927342D02*
X180993731Y-79022580D01*
X180993731Y-79022580D02*
X180946112Y-79070200D01*
X180946112Y-79070200D02*
X180850874Y-79117819D01*
X180850874Y-79117819D02*
X180755636Y-79117819D01*
X180755636Y-79117819D02*
X180660398Y-79070200D01*
X180660398Y-79070200D02*
X180612779Y-79022580D01*
X180612779Y-79022580D02*
X180565160Y-78927342D01*
X180565160Y-78927342D02*
X180517541Y-78736866D01*
X180517541Y-78736866D02*
X180517541Y-78498771D01*
X180517541Y-78498771D02*
X180565160Y-78308295D01*
X180565160Y-78308295D02*
X180612779Y-78213057D01*
X180612779Y-78213057D02*
X180660398Y-78165438D01*
X180660398Y-78165438D02*
X180755636Y-78117819D01*
X181422303Y-78117819D02*
X182041350Y-78117819D01*
X182041350Y-78117819D02*
X181708017Y-78498771D01*
X181708017Y-78498771D02*
X181850874Y-78498771D01*
X181850874Y-78498771D02*
X181946112Y-78546390D01*
X181946112Y-78546390D02*
X181993731Y-78594009D01*
X181993731Y-78594009D02*
X182041350Y-78689247D01*
X182041350Y-78689247D02*
X182041350Y-78927342D01*
X182041350Y-78927342D02*
X181993731Y-79022580D01*
X181993731Y-79022580D02*
X181946112Y-79070200D01*
X181946112Y-79070200D02*
X181850874Y-79117819D01*
X181850874Y-79117819D02*
X181565160Y-79117819D01*
X181565160Y-79117819D02*
X181469922Y-79070200D01*
X181469922Y-79070200D02*
X181422303Y-79022580D01*
X183041350Y-79117819D02*
X182708017Y-78641628D01*
X182469922Y-79117819D02*
X182469922Y-78117819D01*
X182469922Y-78117819D02*
X182850874Y-78117819D01*
X182850874Y-78117819D02*
X182946112Y-78165438D01*
X182946112Y-78165438D02*
X182993731Y-78213057D01*
X182993731Y-78213057D02*
X183041350Y-78308295D01*
X183041350Y-78308295D02*
X183041350Y-78451152D01*
X183041350Y-78451152D02*
X182993731Y-78546390D01*
X182993731Y-78546390D02*
X182946112Y-78594009D01*
X182946112Y-78594009D02*
X182850874Y-78641628D01*
X182850874Y-78641628D02*
X182469922Y-78641628D01*
X184041350Y-79022580D02*
X183993731Y-79070200D01*
X183993731Y-79070200D02*
X183850874Y-79117819D01*
X183850874Y-79117819D02*
X183755636Y-79117819D01*
X183755636Y-79117819D02*
X183612779Y-79070200D01*
X183612779Y-79070200D02*
X183517541Y-78974961D01*
X183517541Y-78974961D02*
X183469922Y-78879723D01*
X183469922Y-78879723D02*
X183422303Y-78689247D01*
X183422303Y-78689247D02*
X183422303Y-78546390D01*
X183422303Y-78546390D02*
X183469922Y-78355914D01*
X183469922Y-78355914D02*
X183517541Y-78260676D01*
X183517541Y-78260676D02*
X183612779Y-78165438D01*
X183612779Y-78165438D02*
X183755636Y-78117819D01*
X183755636Y-78117819D02*
X183850874Y-78117819D01*
X183850874Y-78117819D02*
X183993731Y-78165438D01*
X183993731Y-78165438D02*
X184041350Y-78213057D01*
X184469922Y-79117819D02*
X184469922Y-78117819D01*
X184469922Y-78117819D02*
X184850874Y-78117819D01*
X184850874Y-78117819D02*
X184946112Y-78165438D01*
X184946112Y-78165438D02*
X184993731Y-78213057D01*
X184993731Y-78213057D02*
X185041350Y-78308295D01*
X185041350Y-78308295D02*
X185041350Y-78451152D01*
X185041350Y-78451152D02*
X184993731Y-78546390D01*
X184993731Y-78546390D02*
X184946112Y-78594009D01*
X184946112Y-78594009D02*
X184850874Y-78641628D01*
X184850874Y-78641628D02*
X184469922Y-78641628D01*
X186803255Y-79022580D02*
X186755636Y-79070200D01*
X186755636Y-79070200D02*
X186612779Y-79117819D01*
X186612779Y-79117819D02*
X186517541Y-79117819D01*
X186517541Y-79117819D02*
X186374684Y-79070200D01*
X186374684Y-79070200D02*
X186279446Y-78974961D01*
X186279446Y-78974961D02*
X186231827Y-78879723D01*
X186231827Y-78879723D02*
X186184208Y-78689247D01*
X186184208Y-78689247D02*
X186184208Y-78546390D01*
X186184208Y-78546390D02*
X186231827Y-78355914D01*
X186231827Y-78355914D02*
X186279446Y-78260676D01*
X186279446Y-78260676D02*
X186374684Y-78165438D01*
X186374684Y-78165438D02*
X186517541Y-78117819D01*
X186517541Y-78117819D02*
X186612779Y-78117819D01*
X186612779Y-78117819D02*
X186755636Y-78165438D01*
X186755636Y-78165438D02*
X186803255Y-78213057D01*
X187231827Y-79117819D02*
X187231827Y-78117819D01*
X187231827Y-78117819D02*
X187612779Y-78117819D01*
X187612779Y-78117819D02*
X187708017Y-78165438D01*
X187708017Y-78165438D02*
X187755636Y-78213057D01*
X187755636Y-78213057D02*
X187803255Y-78308295D01*
X187803255Y-78308295D02*
X187803255Y-78451152D01*
X187803255Y-78451152D02*
X187755636Y-78546390D01*
X187755636Y-78546390D02*
X187708017Y-78594009D01*
X187708017Y-78594009D02*
X187612779Y-78641628D01*
X187612779Y-78641628D02*
X187231827Y-78641628D01*
X188231827Y-78117819D02*
X188231827Y-78927342D01*
X188231827Y-78927342D02*
X188279446Y-79022580D01*
X188279446Y-79022580D02*
X188327065Y-79070200D01*
X188327065Y-79070200D02*
X188422303Y-79117819D01*
X188422303Y-79117819D02*
X188612779Y-79117819D01*
X188612779Y-79117819D02*
X188708017Y-79070200D01*
X188708017Y-79070200D02*
X188755636Y-79022580D01*
X188755636Y-79022580D02*
X188803255Y-78927342D01*
X188803255Y-78927342D02*
X188803255Y-78117819D01*
X189993732Y-78832104D02*
X190469922Y-78832104D01*
X189898494Y-79117819D02*
X190231827Y-78117819D01*
X190231827Y-78117819D02*
X190565160Y-79117819D01*
X191327065Y-79117819D02*
X191327065Y-78117819D01*
X191327065Y-79070200D02*
X191231827Y-79117819D01*
X191231827Y-79117819D02*
X191041351Y-79117819D01*
X191041351Y-79117819D02*
X190946113Y-79070200D01*
X190946113Y-79070200D02*
X190898494Y-79022580D01*
X190898494Y-79022580D02*
X190850875Y-78927342D01*
X190850875Y-78927342D02*
X190850875Y-78641628D01*
X190850875Y-78641628D02*
X190898494Y-78546390D01*
X190898494Y-78546390D02*
X190946113Y-78498771D01*
X190946113Y-78498771D02*
X191041351Y-78451152D01*
X191041351Y-78451152D02*
X191231827Y-78451152D01*
X191231827Y-78451152D02*
X191327065Y-78498771D01*
X192231827Y-79117819D02*
X192231827Y-78594009D01*
X192231827Y-78594009D02*
X192184208Y-78498771D01*
X192184208Y-78498771D02*
X192088970Y-78451152D01*
X192088970Y-78451152D02*
X191898494Y-78451152D01*
X191898494Y-78451152D02*
X191803256Y-78498771D01*
X192231827Y-79070200D02*
X192136589Y-79117819D01*
X192136589Y-79117819D02*
X191898494Y-79117819D01*
X191898494Y-79117819D02*
X191803256Y-79070200D01*
X191803256Y-79070200D02*
X191755637Y-78974961D01*
X191755637Y-78974961D02*
X191755637Y-78879723D01*
X191755637Y-78879723D02*
X191803256Y-78784485D01*
X191803256Y-78784485D02*
X191898494Y-78736866D01*
X191898494Y-78736866D02*
X192136589Y-78736866D01*
X192136589Y-78736866D02*
X192231827Y-78689247D01*
X192708018Y-78451152D02*
X192708018Y-79451152D01*
X192708018Y-78498771D02*
X192803256Y-78451152D01*
X192803256Y-78451152D02*
X192993732Y-78451152D01*
X192993732Y-78451152D02*
X193088970Y-78498771D01*
X193088970Y-78498771D02*
X193136589Y-78546390D01*
X193136589Y-78546390D02*
X193184208Y-78641628D01*
X193184208Y-78641628D02*
X193184208Y-78927342D01*
X193184208Y-78927342D02*
X193136589Y-79022580D01*
X193136589Y-79022580D02*
X193088970Y-79070200D01*
X193088970Y-79070200D02*
X192993732Y-79117819D01*
X192993732Y-79117819D02*
X192803256Y-79117819D01*
X192803256Y-79117819D02*
X192708018Y-79070200D01*
X193469923Y-78451152D02*
X193850875Y-78451152D01*
X193612780Y-78117819D02*
X193612780Y-78974961D01*
X193612780Y-78974961D02*
X193660399Y-79070200D01*
X193660399Y-79070200D02*
X193755637Y-79117819D01*
X193755637Y-79117819D02*
X193850875Y-79117819D01*
X194565161Y-79070200D02*
X194469923Y-79117819D01*
X194469923Y-79117819D02*
X194279447Y-79117819D01*
X194279447Y-79117819D02*
X194184209Y-79070200D01*
X194184209Y-79070200D02*
X194136590Y-78974961D01*
X194136590Y-78974961D02*
X194136590Y-78594009D01*
X194136590Y-78594009D02*
X194184209Y-78498771D01*
X194184209Y-78498771D02*
X194279447Y-78451152D01*
X194279447Y-78451152D02*
X194469923Y-78451152D01*
X194469923Y-78451152D02*
X194565161Y-78498771D01*
X194565161Y-78498771D02*
X194612780Y-78594009D01*
X194612780Y-78594009D02*
X194612780Y-78689247D01*
X194612780Y-78689247D02*
X194136590Y-78784485D01*
X195041352Y-79117819D02*
X195041352Y-78451152D01*
X195041352Y-78641628D02*
X195088971Y-78546390D01*
X195088971Y-78546390D02*
X195136590Y-78498771D01*
X195136590Y-78498771D02*
X195231828Y-78451152D01*
X195231828Y-78451152D02*
X195327066Y-78451152D01*
X160126588Y-53879533D02*
X160964684Y-53879533D01*
X160545636Y-54470009D02*
X160545636Y-53289057D01*
X162012303Y-52920009D02*
X161488493Y-52920009D01*
X161488493Y-52920009D02*
X161436112Y-53658104D01*
X161436112Y-53658104D02*
X161488493Y-53584295D01*
X161488493Y-53584295D02*
X161593255Y-53510485D01*
X161593255Y-53510485D02*
X161855160Y-53510485D01*
X161855160Y-53510485D02*
X161959922Y-53584295D01*
X161959922Y-53584295D02*
X162012303Y-53658104D01*
X162012303Y-53658104D02*
X162064684Y-53805723D01*
X162064684Y-53805723D02*
X162064684Y-54174771D01*
X162064684Y-54174771D02*
X162012303Y-54322390D01*
X162012303Y-54322390D02*
X161959922Y-54396200D01*
X161959922Y-54396200D02*
X161855160Y-54470009D01*
X161855160Y-54470009D02*
X161593255Y-54470009D01*
X161593255Y-54470009D02*
X161488493Y-54396200D01*
X161488493Y-54396200D02*
X161436112Y-54322390D01*
X162378969Y-52920009D02*
X162745636Y-54470009D01*
X162745636Y-54470009D02*
X163112303Y-52920009D01*
X160126588Y-56965509D02*
X160126588Y-55415509D01*
X160126588Y-55415509D02*
X160545636Y-55415509D01*
X160545636Y-55415509D02*
X160650398Y-55489319D01*
X160650398Y-55489319D02*
X160702779Y-55563128D01*
X160702779Y-55563128D02*
X160755160Y-55710747D01*
X160755160Y-55710747D02*
X160755160Y-55932176D01*
X160755160Y-55932176D02*
X160702779Y-56079795D01*
X160702779Y-56079795D02*
X160650398Y-56153604D01*
X160650398Y-56153604D02*
X160545636Y-56227414D01*
X160545636Y-56227414D02*
X160126588Y-56227414D01*
X161802779Y-56965509D02*
X161174207Y-56965509D01*
X161488493Y-56965509D02*
X161488493Y-55415509D01*
X161488493Y-55415509D02*
X161383731Y-55636938D01*
X161383731Y-55636938D02*
X161278969Y-55784557D01*
X161278969Y-55784557D02*
X161174207Y-55858366D01*
X162169445Y-55415509D02*
X162902779Y-55415509D01*
X162902779Y-55415509D02*
X162431350Y-56965509D01*
X160126588Y-59461009D02*
X160126588Y-57911009D01*
X160126588Y-57911009D02*
X160545636Y-57911009D01*
X160545636Y-57911009D02*
X160650398Y-57984819D01*
X160650398Y-57984819D02*
X160702779Y-58058628D01*
X160702779Y-58058628D02*
X160755160Y-58206247D01*
X160755160Y-58206247D02*
X160755160Y-58427676D01*
X160755160Y-58427676D02*
X160702779Y-58575295D01*
X160702779Y-58575295D02*
X160650398Y-58649104D01*
X160650398Y-58649104D02*
X160545636Y-58722914D01*
X160545636Y-58722914D02*
X160126588Y-58722914D01*
X161802779Y-59461009D02*
X161174207Y-59461009D01*
X161488493Y-59461009D02*
X161488493Y-57911009D01*
X161488493Y-57911009D02*
X161383731Y-58132438D01*
X161383731Y-58132438D02*
X161278969Y-58280057D01*
X161278969Y-58280057D02*
X161174207Y-58353866D01*
X162798017Y-57911009D02*
X162274207Y-57911009D01*
X162274207Y-57911009D02*
X162221826Y-58649104D01*
X162221826Y-58649104D02*
X162274207Y-58575295D01*
X162274207Y-58575295D02*
X162378969Y-58501485D01*
X162378969Y-58501485D02*
X162640874Y-58501485D01*
X162640874Y-58501485D02*
X162745636Y-58575295D01*
X162745636Y-58575295D02*
X162798017Y-58649104D01*
X162798017Y-58649104D02*
X162850398Y-58796723D01*
X162850398Y-58796723D02*
X162850398Y-59165771D01*
X162850398Y-59165771D02*
X162798017Y-59313390D01*
X162798017Y-59313390D02*
X162745636Y-59387200D01*
X162745636Y-59387200D02*
X162640874Y-59461009D01*
X162640874Y-59461009D02*
X162378969Y-59461009D01*
X162378969Y-59461009D02*
X162274207Y-59387200D01*
X162274207Y-59387200D02*
X162221826Y-59313390D01*
X160126588Y-61956509D02*
X160126588Y-60406509D01*
X160126588Y-60406509D02*
X160545636Y-60406509D01*
X160545636Y-60406509D02*
X160650398Y-60480319D01*
X160650398Y-60480319D02*
X160702779Y-60554128D01*
X160702779Y-60554128D02*
X160755160Y-60701747D01*
X160755160Y-60701747D02*
X160755160Y-60923176D01*
X160755160Y-60923176D02*
X160702779Y-61070795D01*
X160702779Y-61070795D02*
X160650398Y-61144604D01*
X160650398Y-61144604D02*
X160545636Y-61218414D01*
X160545636Y-61218414D02*
X160126588Y-61218414D01*
X161802779Y-61956509D02*
X161174207Y-61956509D01*
X161488493Y-61956509D02*
X161488493Y-60406509D01*
X161488493Y-60406509D02*
X161383731Y-60627938D01*
X161383731Y-60627938D02*
X161278969Y-60775557D01*
X161278969Y-60775557D02*
X161174207Y-60849366D01*
X162169445Y-60406509D02*
X162850398Y-60406509D01*
X162850398Y-60406509D02*
X162483731Y-60996985D01*
X162483731Y-60996985D02*
X162640874Y-60996985D01*
X162640874Y-60996985D02*
X162745636Y-61070795D01*
X162745636Y-61070795D02*
X162798017Y-61144604D01*
X162798017Y-61144604D02*
X162850398Y-61292223D01*
X162850398Y-61292223D02*
X162850398Y-61661271D01*
X162850398Y-61661271D02*
X162798017Y-61808890D01*
X162798017Y-61808890D02*
X162745636Y-61882700D01*
X162745636Y-61882700D02*
X162640874Y-61956509D01*
X162640874Y-61956509D02*
X162326588Y-61956509D01*
X162326588Y-61956509D02*
X162221826Y-61882700D01*
X162221826Y-61882700D02*
X162169445Y-61808890D01*
X160126588Y-64452009D02*
X160126588Y-62902009D01*
X160126588Y-62902009D02*
X160545636Y-62902009D01*
X160545636Y-62902009D02*
X160650398Y-62975819D01*
X160650398Y-62975819D02*
X160702779Y-63049628D01*
X160702779Y-63049628D02*
X160755160Y-63197247D01*
X160755160Y-63197247D02*
X160755160Y-63418676D01*
X160755160Y-63418676D02*
X160702779Y-63566295D01*
X160702779Y-63566295D02*
X160650398Y-63640104D01*
X160650398Y-63640104D02*
X160545636Y-63713914D01*
X160545636Y-63713914D02*
X160126588Y-63713914D01*
X161802779Y-64452009D02*
X161174207Y-64452009D01*
X161488493Y-64452009D02*
X161488493Y-62902009D01*
X161488493Y-62902009D02*
X161383731Y-63123438D01*
X161383731Y-63123438D02*
X161278969Y-63271057D01*
X161278969Y-63271057D02*
X161174207Y-63344866D01*
X162850398Y-64452009D02*
X162221826Y-64452009D01*
X162536112Y-64452009D02*
X162536112Y-62902009D01*
X162536112Y-62902009D02*
X162431350Y-63123438D01*
X162431350Y-63123438D02*
X162326588Y-63271057D01*
X162326588Y-63271057D02*
X162221826Y-63344866D01*
X160126588Y-66947509D02*
X160126588Y-65397509D01*
X160126588Y-65397509D02*
X160545636Y-65397509D01*
X160545636Y-65397509D02*
X160650398Y-65471319D01*
X160650398Y-65471319D02*
X160702779Y-65545128D01*
X160702779Y-65545128D02*
X160755160Y-65692747D01*
X160755160Y-65692747D02*
X160755160Y-65914176D01*
X160755160Y-65914176D02*
X160702779Y-66061795D01*
X160702779Y-66061795D02*
X160650398Y-66135604D01*
X160650398Y-66135604D02*
X160545636Y-66209414D01*
X160545636Y-66209414D02*
X160126588Y-66209414D01*
X161174207Y-65545128D02*
X161226588Y-65471319D01*
X161226588Y-65471319D02*
X161331350Y-65397509D01*
X161331350Y-65397509D02*
X161593255Y-65397509D01*
X161593255Y-65397509D02*
X161698017Y-65471319D01*
X161698017Y-65471319D02*
X161750398Y-65545128D01*
X161750398Y-65545128D02*
X161802779Y-65692747D01*
X161802779Y-65692747D02*
X161802779Y-65840366D01*
X161802779Y-65840366D02*
X161750398Y-66061795D01*
X161750398Y-66061795D02*
X161121826Y-66947509D01*
X161121826Y-66947509D02*
X161802779Y-66947509D01*
X162745636Y-65914176D02*
X162745636Y-66947509D01*
X162483731Y-65323700D02*
X162221826Y-66430842D01*
X162221826Y-66430842D02*
X162902779Y-66430842D01*
X160126588Y-69443009D02*
X160126588Y-67893009D01*
X160126588Y-67893009D02*
X160545636Y-67893009D01*
X160545636Y-67893009D02*
X160650398Y-67966819D01*
X160650398Y-67966819D02*
X160702779Y-68040628D01*
X160702779Y-68040628D02*
X160755160Y-68188247D01*
X160755160Y-68188247D02*
X160755160Y-68409676D01*
X160755160Y-68409676D02*
X160702779Y-68557295D01*
X160702779Y-68557295D02*
X160650398Y-68631104D01*
X160650398Y-68631104D02*
X160545636Y-68704914D01*
X160545636Y-68704914D02*
X160126588Y-68704914D01*
X161174207Y-68040628D02*
X161226588Y-67966819D01*
X161226588Y-67966819D02*
X161331350Y-67893009D01*
X161331350Y-67893009D02*
X161593255Y-67893009D01*
X161593255Y-67893009D02*
X161698017Y-67966819D01*
X161698017Y-67966819D02*
X161750398Y-68040628D01*
X161750398Y-68040628D02*
X161802779Y-68188247D01*
X161802779Y-68188247D02*
X161802779Y-68335866D01*
X161802779Y-68335866D02*
X161750398Y-68557295D01*
X161750398Y-68557295D02*
X161121826Y-69443009D01*
X161121826Y-69443009D02*
X161802779Y-69443009D01*
X162221826Y-68040628D02*
X162274207Y-67966819D01*
X162274207Y-67966819D02*
X162378969Y-67893009D01*
X162378969Y-67893009D02*
X162640874Y-67893009D01*
X162640874Y-67893009D02*
X162745636Y-67966819D01*
X162745636Y-67966819D02*
X162798017Y-68040628D01*
X162798017Y-68040628D02*
X162850398Y-68188247D01*
X162850398Y-68188247D02*
X162850398Y-68335866D01*
X162850398Y-68335866D02*
X162798017Y-68557295D01*
X162798017Y-68557295D02*
X162169445Y-69443009D01*
X162169445Y-69443009D02*
X162850398Y-69443009D01*
X160126588Y-71938509D02*
X160126588Y-70388509D01*
X160126588Y-70388509D02*
X160545636Y-70388509D01*
X160545636Y-70388509D02*
X160650398Y-70462319D01*
X160650398Y-70462319D02*
X160702779Y-70536128D01*
X160702779Y-70536128D02*
X160755160Y-70683747D01*
X160755160Y-70683747D02*
X160755160Y-70905176D01*
X160755160Y-70905176D02*
X160702779Y-71052795D01*
X160702779Y-71052795D02*
X160650398Y-71126604D01*
X160650398Y-71126604D02*
X160545636Y-71200414D01*
X160545636Y-71200414D02*
X160126588Y-71200414D01*
X161174207Y-70536128D02*
X161226588Y-70462319D01*
X161226588Y-70462319D02*
X161331350Y-70388509D01*
X161331350Y-70388509D02*
X161593255Y-70388509D01*
X161593255Y-70388509D02*
X161698017Y-70462319D01*
X161698017Y-70462319D02*
X161750398Y-70536128D01*
X161750398Y-70536128D02*
X161802779Y-70683747D01*
X161802779Y-70683747D02*
X161802779Y-70831366D01*
X161802779Y-70831366D02*
X161750398Y-71052795D01*
X161750398Y-71052795D02*
X161121826Y-71938509D01*
X161121826Y-71938509D02*
X161802779Y-71938509D01*
X162483731Y-70388509D02*
X162588493Y-70388509D01*
X162588493Y-70388509D02*
X162693255Y-70462319D01*
X162693255Y-70462319D02*
X162745636Y-70536128D01*
X162745636Y-70536128D02*
X162798017Y-70683747D01*
X162798017Y-70683747D02*
X162850398Y-70978985D01*
X162850398Y-70978985D02*
X162850398Y-71348033D01*
X162850398Y-71348033D02*
X162798017Y-71643271D01*
X162798017Y-71643271D02*
X162745636Y-71790890D01*
X162745636Y-71790890D02*
X162693255Y-71864700D01*
X162693255Y-71864700D02*
X162588493Y-71938509D01*
X162588493Y-71938509D02*
X162483731Y-71938509D01*
X162483731Y-71938509D02*
X162378969Y-71864700D01*
X162378969Y-71864700D02*
X162326588Y-71790890D01*
X162326588Y-71790890D02*
X162274207Y-71643271D01*
X162274207Y-71643271D02*
X162221826Y-71348033D01*
X162221826Y-71348033D02*
X162221826Y-70978985D01*
X162221826Y-70978985D02*
X162274207Y-70683747D01*
X162274207Y-70683747D02*
X162326588Y-70536128D01*
X162326588Y-70536128D02*
X162378969Y-70462319D01*
X162378969Y-70462319D02*
X162483731Y-70388509D01*
X161143666Y-73098819D02*
X161143666Y-73813104D01*
X161143666Y-73813104D02*
X161096047Y-73955961D01*
X161096047Y-73955961D02*
X161000809Y-74051200D01*
X161000809Y-74051200D02*
X160857952Y-74098819D01*
X160857952Y-74098819D02*
X160762714Y-74098819D01*
X162143666Y-74098819D02*
X161572238Y-74098819D01*
X161857952Y-74098819D02*
X161857952Y-73098819D01*
X161857952Y-73098819D02*
X161762714Y-73241676D01*
X161762714Y-73241676D02*
X161667476Y-73336914D01*
X161667476Y-73336914D02*
X161572238Y-73384533D01*
X172588019Y-57018133D02*
X173302304Y-57018133D01*
X173302304Y-57018133D02*
X173445161Y-57065752D01*
X173445161Y-57065752D02*
X173540400Y-57160990D01*
X173540400Y-57160990D02*
X173588019Y-57303847D01*
X173588019Y-57303847D02*
X173588019Y-57399085D01*
X173588019Y-56541942D02*
X172588019Y-56541942D01*
X172588019Y-56541942D02*
X172588019Y-56160990D01*
X172588019Y-56160990D02*
X172635638Y-56065752D01*
X172635638Y-56065752D02*
X172683257Y-56018133D01*
X172683257Y-56018133D02*
X172778495Y-55970514D01*
X172778495Y-55970514D02*
X172921352Y-55970514D01*
X172921352Y-55970514D02*
X173016590Y-56018133D01*
X173016590Y-56018133D02*
X173064209Y-56065752D01*
X173064209Y-56065752D02*
X173111828Y-56160990D01*
X173111828Y-56160990D02*
X173111828Y-56541942D01*
X172588019Y-55065752D02*
X172588019Y-55541942D01*
X172588019Y-55541942D02*
X173064209Y-55589561D01*
X173064209Y-55589561D02*
X173016590Y-55541942D01*
X173016590Y-55541942D02*
X172968971Y-55446704D01*
X172968971Y-55446704D02*
X172968971Y-55208609D01*
X172968971Y-55208609D02*
X173016590Y-55113371D01*
X173016590Y-55113371D02*
X173064209Y-55065752D01*
X173064209Y-55065752D02*
X173159447Y-55018133D01*
X173159447Y-55018133D02*
X173397542Y-55018133D01*
X173397542Y-55018133D02*
X173492780Y-55065752D01*
X173492780Y-55065752D02*
X173540400Y-55113371D01*
X173540400Y-55113371D02*
X173588019Y-55208609D01*
X173588019Y-55208609D02*
X173588019Y-55446704D01*
X173588019Y-55446704D02*
X173540400Y-55541942D01*
X173540400Y-55541942D02*
X173492780Y-55589561D01*
X168674819Y-39250594D02*
X167674819Y-39250594D01*
X167674819Y-39250594D02*
X167674819Y-39012499D01*
X167674819Y-39012499D02*
X167722438Y-38869642D01*
X167722438Y-38869642D02*
X167817676Y-38774404D01*
X167817676Y-38774404D02*
X167912914Y-38726785D01*
X167912914Y-38726785D02*
X168103390Y-38679166D01*
X168103390Y-38679166D02*
X168246247Y-38679166D01*
X168246247Y-38679166D02*
X168436723Y-38726785D01*
X168436723Y-38726785D02*
X168531961Y-38774404D01*
X168531961Y-38774404D02*
X168627200Y-38869642D01*
X168627200Y-38869642D02*
X168674819Y-39012499D01*
X168674819Y-39012499D02*
X168674819Y-39250594D01*
X167770057Y-38298213D02*
X167722438Y-38250594D01*
X167722438Y-38250594D02*
X167674819Y-38155356D01*
X167674819Y-38155356D02*
X167674819Y-37917261D01*
X167674819Y-37917261D02*
X167722438Y-37822023D01*
X167722438Y-37822023D02*
X167770057Y-37774404D01*
X167770057Y-37774404D02*
X167865295Y-37726785D01*
X167865295Y-37726785D02*
X167960533Y-37726785D01*
X167960533Y-37726785D02*
X168103390Y-37774404D01*
X168103390Y-37774404D02*
X168674819Y-38345832D01*
X168674819Y-38345832D02*
X168674819Y-37726785D01*
X173444819Y-33853333D02*
X174159104Y-33853333D01*
X174159104Y-33853333D02*
X174301961Y-33900952D01*
X174301961Y-33900952D02*
X174397200Y-33996190D01*
X174397200Y-33996190D02*
X174444819Y-34139047D01*
X174444819Y-34139047D02*
X174444819Y-34234285D01*
X174444819Y-33377142D02*
X173444819Y-33377142D01*
X173444819Y-33377142D02*
X173444819Y-32996190D01*
X173444819Y-32996190D02*
X173492438Y-32900952D01*
X173492438Y-32900952D02*
X173540057Y-32853333D01*
X173540057Y-32853333D02*
X173635295Y-32805714D01*
X173635295Y-32805714D02*
X173778152Y-32805714D01*
X173778152Y-32805714D02*
X173873390Y-32853333D01*
X173873390Y-32853333D02*
X173921009Y-32900952D01*
X173921009Y-32900952D02*
X173968628Y-32996190D01*
X173968628Y-32996190D02*
X173968628Y-33377142D01*
X173444819Y-31948571D02*
X173444819Y-32139047D01*
X173444819Y-32139047D02*
X173492438Y-32234285D01*
X173492438Y-32234285D02*
X173540057Y-32281904D01*
X173540057Y-32281904D02*
X173682914Y-32377142D01*
X173682914Y-32377142D02*
X173873390Y-32424761D01*
X173873390Y-32424761D02*
X174254342Y-32424761D01*
X174254342Y-32424761D02*
X174349580Y-32377142D01*
X174349580Y-32377142D02*
X174397200Y-32329523D01*
X174397200Y-32329523D02*
X174444819Y-32234285D01*
X174444819Y-32234285D02*
X174444819Y-32043809D01*
X174444819Y-32043809D02*
X174397200Y-31948571D01*
X174397200Y-31948571D02*
X174349580Y-31900952D01*
X174349580Y-31900952D02*
X174254342Y-31853333D01*
X174254342Y-31853333D02*
X174016247Y-31853333D01*
X174016247Y-31853333D02*
X173921009Y-31900952D01*
X173921009Y-31900952D02*
X173873390Y-31948571D01*
X173873390Y-31948571D02*
X173825771Y-32043809D01*
X173825771Y-32043809D02*
X173825771Y-32234285D01*
X173825771Y-32234285D02*
X173873390Y-32329523D01*
X173873390Y-32329523D02*
X173921009Y-32377142D01*
X173921009Y-32377142D02*
X174016247Y-32424761D01*
X172474819Y-39338094D02*
X171474819Y-39338094D01*
X171474819Y-39338094D02*
X171474819Y-39099999D01*
X171474819Y-39099999D02*
X171522438Y-38957142D01*
X171522438Y-38957142D02*
X171617676Y-38861904D01*
X171617676Y-38861904D02*
X171712914Y-38814285D01*
X171712914Y-38814285D02*
X171903390Y-38766666D01*
X171903390Y-38766666D02*
X172046247Y-38766666D01*
X172046247Y-38766666D02*
X172236723Y-38814285D01*
X172236723Y-38814285D02*
X172331961Y-38861904D01*
X172331961Y-38861904D02*
X172427200Y-38957142D01*
X172427200Y-38957142D02*
X172474819Y-39099999D01*
X172474819Y-39099999D02*
X172474819Y-39338094D01*
X171474819Y-38433332D02*
X171474819Y-37814285D01*
X171474819Y-37814285D02*
X171855771Y-38147618D01*
X171855771Y-38147618D02*
X171855771Y-38004761D01*
X171855771Y-38004761D02*
X171903390Y-37909523D01*
X171903390Y-37909523D02*
X171951009Y-37861904D01*
X171951009Y-37861904D02*
X172046247Y-37814285D01*
X172046247Y-37814285D02*
X172284342Y-37814285D01*
X172284342Y-37814285D02*
X172379580Y-37861904D01*
X172379580Y-37861904D02*
X172427200Y-37909523D01*
X172427200Y-37909523D02*
X172474819Y-38004761D01*
X172474819Y-38004761D02*
X172474819Y-38290475D01*
X172474819Y-38290475D02*
X172427200Y-38385713D01*
X172427200Y-38385713D02*
X172379580Y-38433332D01*
X186100819Y-37951904D02*
X186910342Y-37951904D01*
X186910342Y-37951904D02*
X187005580Y-37904285D01*
X187005580Y-37904285D02*
X187053200Y-37856666D01*
X187053200Y-37856666D02*
X187100819Y-37761428D01*
X187100819Y-37761428D02*
X187100819Y-37570952D01*
X187100819Y-37570952D02*
X187053200Y-37475714D01*
X187053200Y-37475714D02*
X187005580Y-37428095D01*
X187005580Y-37428095D02*
X186910342Y-37380476D01*
X186910342Y-37380476D02*
X186100819Y-37380476D01*
X186196057Y-36951904D02*
X186148438Y-36904285D01*
X186148438Y-36904285D02*
X186100819Y-36809047D01*
X186100819Y-36809047D02*
X186100819Y-36570952D01*
X186100819Y-36570952D02*
X186148438Y-36475714D01*
X186148438Y-36475714D02*
X186196057Y-36428095D01*
X186196057Y-36428095D02*
X186291295Y-36380476D01*
X186291295Y-36380476D02*
X186386533Y-36380476D01*
X186386533Y-36380476D02*
X186529390Y-36428095D01*
X186529390Y-36428095D02*
X187100819Y-36999523D01*
X187100819Y-36999523D02*
X187100819Y-36380476D01*
X164874819Y-39338094D02*
X163874819Y-39338094D01*
X163874819Y-39338094D02*
X163874819Y-39099999D01*
X163874819Y-39099999D02*
X163922438Y-38957142D01*
X163922438Y-38957142D02*
X164017676Y-38861904D01*
X164017676Y-38861904D02*
X164112914Y-38814285D01*
X164112914Y-38814285D02*
X164303390Y-38766666D01*
X164303390Y-38766666D02*
X164446247Y-38766666D01*
X164446247Y-38766666D02*
X164636723Y-38814285D01*
X164636723Y-38814285D02*
X164731961Y-38861904D01*
X164731961Y-38861904D02*
X164827200Y-38957142D01*
X164827200Y-38957142D02*
X164874819Y-39099999D01*
X164874819Y-39099999D02*
X164874819Y-39338094D01*
X164874819Y-37814285D02*
X164874819Y-38385713D01*
X164874819Y-38099999D02*
X163874819Y-38099999D01*
X163874819Y-38099999D02*
X164017676Y-38195237D01*
X164017676Y-38195237D02*
X164112914Y-38290475D01*
X164112914Y-38290475D02*
X164160533Y-38385713D01*
D11*
%TO.C,J1*%
X168402000Y-72644000D02*
X167132000Y-72644000D01*
X168402000Y-71374000D02*
X168402000Y-72644000D01*
X166089071Y-69214000D02*
X165634929Y-69214000D01*
X166089071Y-68454000D02*
X165634929Y-68454000D01*
X166089071Y-66674000D02*
X165634929Y-66674000D01*
X166089071Y-65914000D02*
X165634929Y-65914000D01*
X166089071Y-64134000D02*
X165634929Y-64134000D01*
X166089071Y-63374000D02*
X165634929Y-63374000D01*
X166089071Y-61594000D02*
X165634929Y-61594000D01*
X166089071Y-60834000D02*
X165634929Y-60834000D01*
X166089071Y-59054000D02*
X165634929Y-59054000D01*
X166089071Y-58294000D02*
X165634929Y-58294000D01*
X166089071Y-56514000D02*
X165634929Y-56514000D01*
X166089071Y-55754000D02*
X165634929Y-55754000D01*
X166089071Y-53974000D02*
X165634929Y-53974000D01*
X166089071Y-53214000D02*
X165634929Y-53214000D01*
X166022000Y-71754000D02*
X165634929Y-71754000D01*
X166022000Y-70994000D02*
X165634929Y-70994000D01*
X163549071Y-71754000D02*
X163152000Y-71754000D01*
X163549071Y-70994000D02*
X163152000Y-70994000D01*
X163549071Y-69214000D02*
X163152000Y-69214000D01*
X163549071Y-68454000D02*
X163152000Y-68454000D01*
X163549071Y-66674000D02*
X163152000Y-66674000D01*
X163549071Y-65914000D02*
X163152000Y-65914000D01*
X163549071Y-64134000D02*
X163152000Y-64134000D01*
X163549071Y-63374000D02*
X163152000Y-63374000D01*
X163549071Y-61594000D02*
X163152000Y-61594000D01*
X163549071Y-60834000D02*
X163152000Y-60834000D01*
X163549071Y-59054000D02*
X163152000Y-59054000D01*
X163549071Y-58294000D02*
X163152000Y-58294000D01*
X163549071Y-56514000D02*
X163152000Y-56514000D01*
X163549071Y-55754000D02*
X163152000Y-55754000D01*
X163549071Y-53974000D02*
X163152000Y-53974000D01*
X163549071Y-53214000D02*
X163152000Y-53214000D01*
X163152000Y-72704000D02*
X163152000Y-52264000D01*
X163152000Y-70104000D02*
X160492000Y-70104000D01*
X163152000Y-67564000D02*
X160492000Y-67564000D01*
X163152000Y-65024000D02*
X160492000Y-65024000D01*
X163152000Y-62484000D02*
X160492000Y-62484000D01*
X163152000Y-59944000D02*
X160492000Y-59944000D01*
X163152000Y-57404000D02*
X160492000Y-57404000D01*
X163152000Y-54864000D02*
X160492000Y-54864000D01*
X163152000Y-52264000D02*
X160492000Y-52264000D01*
X160492000Y-72704000D02*
X163152000Y-72704000D01*
X160492000Y-71754000D02*
X154492000Y-71754000D01*
X160492000Y-71694000D02*
X154492000Y-71694000D01*
X160492000Y-71574000D02*
X154492000Y-71574000D01*
X160492000Y-71454000D02*
X154492000Y-71454000D01*
X160492000Y-71334000D02*
X154492000Y-71334000D01*
X160492000Y-71214000D02*
X154492000Y-71214000D01*
X160492000Y-71094000D02*
X154492000Y-71094000D01*
X160492000Y-69214000D02*
X154492000Y-69214000D01*
X160492000Y-66674000D02*
X154492000Y-66674000D01*
X160492000Y-64134000D02*
X154492000Y-64134000D01*
X160492000Y-61594000D02*
X154492000Y-61594000D01*
X160492000Y-59054000D02*
X154492000Y-59054000D01*
X160492000Y-56514000D02*
X154492000Y-56514000D01*
X160492000Y-53974000D02*
X154492000Y-53974000D01*
X160492000Y-52264000D02*
X160492000Y-72704000D01*
X154492000Y-71754000D02*
X154492000Y-70994000D01*
X154492000Y-70994000D02*
X160492000Y-70994000D01*
X154492000Y-69214000D02*
X154492000Y-68454000D01*
X154492000Y-68454000D02*
X160492000Y-68454000D01*
X154492000Y-66674000D02*
X154492000Y-65914000D01*
X154492000Y-65914000D02*
X160492000Y-65914000D01*
X154492000Y-64134000D02*
X154492000Y-63374000D01*
X154492000Y-63374000D02*
X160492000Y-63374000D01*
X154492000Y-61594000D02*
X154492000Y-60834000D01*
X154492000Y-60834000D02*
X160492000Y-60834000D01*
X154492000Y-59054000D02*
X154492000Y-58294000D01*
X154492000Y-58294000D02*
X160492000Y-58294000D01*
X154492000Y-56514000D02*
X154492000Y-55754000D01*
X154492000Y-55754000D02*
X160492000Y-55754000D01*
X154492000Y-53974000D02*
X154492000Y-53214000D01*
X154492000Y-53214000D02*
X160492000Y-53214000D01*
%TO.C,JP3*%
X168850000Y-41824000D02*
X170180000Y-41824000D01*
X168850000Y-43154000D02*
X168850000Y-41824000D01*
X168850000Y-44424000D02*
X168850000Y-47024000D01*
X168850000Y-44424000D02*
X171510000Y-44424000D01*
X168850000Y-47024000D02*
X171510000Y-47024000D01*
X171510000Y-44424000D02*
X171510000Y-47024000D01*
%TO.C,JP1*%
X161270000Y-41795000D02*
X162600000Y-41795000D01*
X161270000Y-43125000D02*
X161270000Y-41795000D01*
X161270000Y-44395000D02*
X161270000Y-46995000D01*
X161270000Y-44395000D02*
X163930000Y-44395000D01*
X161270000Y-46995000D02*
X163930000Y-46995000D01*
X163930000Y-44395000D02*
X163930000Y-46995000D01*
%TO.C,JP5*%
X174133200Y-57514800D02*
X174133200Y-56184800D01*
X175463200Y-57514800D02*
X174133200Y-57514800D01*
X176733200Y-57514800D02*
X181873200Y-57514800D01*
X176733200Y-57514800D02*
X176733200Y-54854800D01*
X181873200Y-57514800D02*
X181873200Y-54854800D01*
X176733200Y-54854800D02*
X181873200Y-54854800D01*
%TO.C,J4*%
X182836000Y-41700000D02*
X182836000Y-40640000D01*
X183896000Y-41700000D02*
X182836000Y-41700000D01*
X184896000Y-41700000D02*
X184956000Y-41700000D01*
X184896000Y-41700000D02*
X184896000Y-39580000D01*
X184956000Y-41700000D02*
X184956000Y-39580000D01*
X184896000Y-39580000D02*
X184956000Y-39580000D01*
%TO.C,U3*%
X172406000Y-51570400D02*
X223326000Y-51570400D01*
X223326000Y-51570400D02*
X223326000Y-38650400D01*
X172406000Y-46110400D02*
X172406000Y-51570400D01*
X172406000Y-38650400D02*
X172406000Y-44110400D01*
X223326000Y-38650400D02*
X172406000Y-38650400D01*
X172406000Y-46110400D02*
G75*
G03*
X172406000Y-44110400I0J1000000D01*
G01*
%TO.C,JP2*%
X165070000Y-41809000D02*
X166400000Y-41809000D01*
X165070000Y-43139000D02*
X165070000Y-41809000D01*
X165070000Y-44409000D02*
X165070000Y-47009000D01*
X165070000Y-44409000D02*
X167730000Y-44409000D01*
X165070000Y-47009000D02*
X167730000Y-47009000D01*
X167730000Y-44409000D02*
X167730000Y-47009000D01*
%TO.C,J2*%
X169374000Y-52534000D02*
X170434000Y-52534000D01*
X169374000Y-53594000D02*
X169374000Y-52534000D01*
X169374000Y-54594000D02*
X169374000Y-54654000D01*
X169374000Y-54594000D02*
X171494000Y-54594000D01*
X169374000Y-54654000D02*
X171494000Y-54654000D01*
X171494000Y-54594000D02*
X171494000Y-54654000D01*
%TO.C,J5*%
X175216000Y-50844000D02*
X175216000Y-49784000D01*
X176276000Y-50844000D02*
X175216000Y-50844000D01*
X177276000Y-50844000D02*
X177336000Y-50844000D01*
X177276000Y-50844000D02*
X177276000Y-48724000D01*
X177336000Y-50844000D02*
X177336000Y-48724000D01*
X177276000Y-48724000D02*
X177336000Y-48724000D01*
%TO.C,J6*%
X182836000Y-50844000D02*
X182836000Y-49784000D01*
X183896000Y-50844000D02*
X182836000Y-50844000D01*
X184896000Y-50844000D02*
X184956000Y-50844000D01*
X184896000Y-50844000D02*
X184896000Y-48724000D01*
X184956000Y-50844000D02*
X184956000Y-48724000D01*
X184896000Y-48724000D02*
X184956000Y-48724000D01*
%TO.C,D2*%
X167535000Y-36052500D02*
X165265000Y-36052500D01*
X165265000Y-36052500D02*
X165265000Y-40112500D01*
X167535000Y-40112500D02*
X167535000Y-36052500D01*
%TO.C,JP6*%
X174946000Y-34350000D02*
X174946000Y-33020000D01*
X176276000Y-34350000D02*
X174946000Y-34350000D01*
X177546000Y-34350000D02*
X182686000Y-34350000D01*
X177546000Y-34350000D02*
X177546000Y-31690000D01*
X182686000Y-34350000D02*
X182686000Y-31690000D01*
X177546000Y-31690000D02*
X182686000Y-31690000D01*
%TO.C,D3*%
X171335000Y-36140000D02*
X169065000Y-36140000D01*
X169065000Y-36140000D02*
X169065000Y-40200000D01*
X171335000Y-40200000D02*
X171335000Y-36140000D01*
%TO.C,U2*%
X187586000Y-42440000D02*
X213226000Y-42440000D01*
X213226000Y-42440000D02*
X213226000Y-31940000D01*
X187646000Y-39440000D02*
X213166000Y-39440000D01*
X213166000Y-39440000D02*
X213166000Y-34940000D01*
X187646000Y-38190000D02*
X187646000Y-39440000D01*
X187646000Y-34940000D02*
X187646000Y-36190000D01*
X213166000Y-34940000D02*
X187646000Y-34940000D01*
X187586000Y-31940000D02*
X187586000Y-42440000D01*
X213226000Y-31940000D02*
X187586000Y-31940000D01*
X187646000Y-38190000D02*
G75*
G03*
X187646000Y-36190000I0J1000000D01*
G01*
%TO.C,D1*%
X163735000Y-36140000D02*
X161465000Y-36140000D01*
X161465000Y-36140000D02*
X161465000Y-40200000D01*
X163735000Y-40200000D02*
X163735000Y-36140000D01*
%TO.C,J3*%
X177756000Y-50844000D02*
X177756000Y-49784000D01*
X178816000Y-50844000D02*
X177756000Y-50844000D01*
X179816000Y-50844000D02*
X179876000Y-50844000D01*
X179816000Y-50844000D02*
X179816000Y-48724000D01*
X179876000Y-50844000D02*
X179876000Y-48724000D01*
X179816000Y-48724000D02*
X179876000Y-48724000D01*
%TO.C,U1*%
X198089600Y-80266900D02*
X223229600Y-80266900D01*
X223229600Y-80266900D02*
X223229600Y-54126900D01*
X197089600Y-79266900D02*
X198089600Y-80266900D01*
D12*
X201064600Y-77441900D02*
X201564600Y-77441900D01*
X220404600Y-77441900D02*
X218754600Y-77441900D01*
X199914600Y-76291900D02*
X201064600Y-77441900D01*
X199914600Y-75791900D02*
X199914600Y-76291900D01*
X220404600Y-75791900D02*
X220404600Y-77441900D01*
D11*
X197089600Y-68196900D02*
X197089600Y-79266900D01*
D12*
X199914600Y-58601900D02*
X199914600Y-56951900D01*
X220404600Y-58601900D02*
X220404600Y-56951900D01*
X199914600Y-56951900D02*
X201564600Y-56951900D01*
X220404600Y-56951900D02*
X218754600Y-56951900D01*
D11*
X197089600Y-54126900D02*
X197089600Y-66196900D01*
X223229600Y-54126900D02*
X197089600Y-54126900D01*
%TD*%
M02*
