%TF.GenerationSoftware,KiCad,Pcbnew,7.0.9-7.0.9~ubuntu20.04.1*%
%TF.CreationDate,2023-12-30T20:23:18+01:00*%
%TF.ProjectId,6303_PLCC,36333033-5f50-44c4-9343-2e6b69636164,rev?*%
%TF.SameCoordinates,Original*%
%TF.FileFunction,Copper,L2,Bot*%
%TF.FilePolarity,Positive*%
%FSLAX46Y46*%
G04 Gerber Fmt 4.6, Leading zero omitted, Abs format (unit mm)*
G04 Created by KiCad (PCBNEW 7.0.9-7.0.9~ubuntu20.04.1) date 2023-12-30 20:23:18*
%MOMM*%
%LPD*%
G01*
G04 APERTURE LIST*
G04 Aperture macros list*
%AMRoundRect*
0 Rectangle with rounded corners*
0 $1 Rounding radius*
0 $2 $3 $4 $5 $6 $7 $8 $9 X,Y pos of 4 corners*
0 Add a 4 corners polygon primitive as box body*
4,1,4,$2,$3,$4,$5,$6,$7,$8,$9,$2,$3,0*
0 Add four circle primitives for the rounded corners*
1,1,$1+$1,$2,$3*
1,1,$1+$1,$4,$5*
1,1,$1+$1,$6,$7*
1,1,$1+$1,$8,$9*
0 Add four rect primitives between the rounded corners*
20,1,$1+$1,$2,$3,$4,$5,0*
20,1,$1+$1,$4,$5,$6,$7,0*
20,1,$1+$1,$6,$7,$8,$9,0*
20,1,$1+$1,$8,$9,$2,$3,0*%
G04 Aperture macros list end*
%TA.AperFunction,ComponentPad*%
%ADD10R,1.700000X1.700000*%
%TD*%
%TA.AperFunction,ComponentPad*%
%ADD11O,1.700000X1.700000*%
%TD*%
%TA.AperFunction,ComponentPad*%
%ADD12R,1.350000X1.350000*%
%TD*%
%TA.AperFunction,ComponentPad*%
%ADD13R,1.600000X1.600000*%
%TD*%
%TA.AperFunction,ComponentPad*%
%ADD14O,1.600000X1.600000*%
%TD*%
%TA.AperFunction,ComponentPad*%
%ADD15R,1.600000X2.400000*%
%TD*%
%TA.AperFunction,ComponentPad*%
%ADD16O,1.600000X2.400000*%
%TD*%
%TA.AperFunction,SMDPad,CuDef*%
%ADD17RoundRect,0.250000X-0.650000X0.412500X-0.650000X-0.412500X0.650000X-0.412500X0.650000X0.412500X0*%
%TD*%
%TA.AperFunction,SMDPad,CuDef*%
%ADD18RoundRect,0.250000X-0.625000X0.400000X-0.625000X-0.400000X0.625000X-0.400000X0.625000X0.400000X0*%
%TD*%
%TA.AperFunction,ViaPad*%
%ADD19C,0.800000*%
%TD*%
%TA.AperFunction,Conductor*%
%ADD20C,0.400000*%
%TD*%
G04 APERTURE END LIST*
D10*
%TO.P,J1,1,Pin_1*%
%TO.N,GND*%
X167132000Y-71374000D03*
D11*
%TO.P,J1,2,Pin_2*%
%TO.N,/P20*%
X164592000Y-71374000D03*
%TO.P,J1,3,Pin_3*%
%TO.N,/P21*%
X167132000Y-68834000D03*
%TO.P,J1,4,Pin_4*%
%TO.N,/P22*%
X164592000Y-68834000D03*
%TO.P,J1,5,Pin_5*%
%TO.N,/P23*%
X167132000Y-66294000D03*
%TO.P,J1,6,Pin_6*%
%TO.N,/P24*%
X164592000Y-66294000D03*
%TO.P,J1,7,Pin_7*%
%TO.N,/P10*%
X167132000Y-63754000D03*
%TO.P,J1,8,Pin_8*%
%TO.N,/P11*%
X164592000Y-63754000D03*
%TO.P,J1,9,Pin_9*%
%TO.N,/P12*%
X167132000Y-61214000D03*
%TO.P,J1,10,Pin_10*%
%TO.N,/P13*%
X164592000Y-61214000D03*
%TO.P,J1,11,Pin_11*%
%TO.N,/P14*%
X167132000Y-58674000D03*
%TO.P,J1,12,Pin_12*%
%TO.N,/P15*%
X164592000Y-58674000D03*
%TO.P,J1,13,Pin_13*%
%TO.N,/P16*%
X167132000Y-56134000D03*
%TO.P,J1,14,Pin_14*%
%TO.N,/P17*%
X164592000Y-56134000D03*
%TO.P,J1,15,Pin_15*%
%TO.N,Net-(J1-Pin_15)*%
X167132000Y-53594000D03*
%TO.P,J1,16,Pin_16*%
%TO.N,+5V*%
X164592000Y-53594000D03*
%TD*%
D10*
%TO.P,JP3,1,A*%
%TO.N,Net-(D3-A)*%
X170180000Y-43154000D03*
D11*
%TO.P,JP3,2,B*%
%TO.N,/P22*%
X170180000Y-45694000D03*
%TD*%
D10*
%TO.P,JP1,1,A*%
%TO.N,Net-(D1-A)*%
X162600000Y-43125000D03*
D11*
%TO.P,JP1,2,B*%
%TO.N,/P20*%
X162600000Y-45665000D03*
%TD*%
D10*
%TO.P,JP5,1,A*%
%TO.N,GND*%
X175463200Y-56184800D03*
D11*
%TO.P,JP5,2,C*%
%TO.N,Net-(JP5-C)*%
X178003200Y-56184800D03*
%TO.P,JP5,3,B*%
%TO.N,/~{HALT}*%
X180543200Y-56184800D03*
%TD*%
D12*
%TO.P,J4,1,Pin_1*%
%TO.N,Net-(J4-Pin_1)*%
X183896000Y-40640000D03*
%TD*%
D13*
%TO.P,U3,1,VSS*%
%TO.N,GND*%
X173736000Y-52730400D03*
D14*
%TO.P,U3,2,~{HALT}*%
%TO.N,/~{HALT}*%
X176276000Y-52730400D03*
%TO.P,U3,3,MR*%
%TO.N,Net-(J3-Pin_1)*%
X178816000Y-52730400D03*
%TO.P,U3,4,~{IRQ}*%
%TO.N,/~{IRQ1}*%
X181356000Y-52730400D03*
%TO.P,U3,5,VMA*%
%TO.N,/AS*%
X183896000Y-52730400D03*
%TO.P,U3,6,~{NMI}*%
%TO.N,/~{NMI}*%
X186436000Y-52730400D03*
%TO.P,U3,7,BA*%
%TO.N,/BA*%
X188976000Y-52730400D03*
%TO.P,U3,8,VCC*%
%TO.N,+5V*%
X191516000Y-52730400D03*
%TO.P,U3,9,A0*%
%TO.N,/A0*%
X194056000Y-52730400D03*
%TO.P,U3,10,A1*%
%TO.N,/A1*%
X196596000Y-52730400D03*
%TO.P,U3,11,A2*%
%TO.N,/A2*%
X199136000Y-52730400D03*
%TO.P,U3,12,A3*%
%TO.N,/A3*%
X201676000Y-52730400D03*
%TO.P,U3,13,A4*%
%TO.N,/A4*%
X204216000Y-52730400D03*
%TO.P,U3,14,A5*%
%TO.N,/A5*%
X206756000Y-52730400D03*
%TO.P,U3,15,A6*%
%TO.N,/A6*%
X209296000Y-52730400D03*
%TO.P,U3,16,A7*%
%TO.N,/A7*%
X211836000Y-52730400D03*
%TO.P,U3,17,A8*%
%TO.N,/A8*%
X214376000Y-52730400D03*
%TO.P,U3,18,A9*%
%TO.N,/A9*%
X216916000Y-52730400D03*
%TO.P,U3,19,A10*%
%TO.N,/A10*%
X219456000Y-52730400D03*
%TO.P,U3,20,A11*%
%TO.N,/A11*%
X221996000Y-52730400D03*
%TO.P,U3,21,VSS*%
%TO.N,GND*%
X221996000Y-37490400D03*
%TO.P,U3,22,A12*%
%TO.N,/A12*%
X219456000Y-37490400D03*
%TO.P,U3,23,A13*%
%TO.N,/A13*%
X216916000Y-37490400D03*
%TO.P,U3,24,A14*%
%TO.N,/A14*%
X214376000Y-37490400D03*
%TO.P,U3,25,A15*%
%TO.N,/A15*%
X211836000Y-37490400D03*
%TO.P,U3,26,D7*%
%TO.N,/D7*%
X209296000Y-37490400D03*
%TO.P,U3,27,D6*%
%TO.N,/D6*%
X206756000Y-37490400D03*
%TO.P,U3,28,D5*%
%TO.N,/D5*%
X204216000Y-37490400D03*
%TO.P,U3,29,D4*%
%TO.N,/D4*%
X201676000Y-37490400D03*
%TO.P,U3,30,D3*%
%TO.N,/D3*%
X199136000Y-37490400D03*
%TO.P,U3,31,D2*%
%TO.N,/D2*%
X196596000Y-37490400D03*
%TO.P,U3,32,D1*%
%TO.N,/D1*%
X194056000Y-37490400D03*
%TO.P,U3,33,D0*%
%TO.N,/D0*%
X191516000Y-37490400D03*
%TO.P,U3,34,R/~{W}*%
%TO.N,/R{slash}~{W}*%
X188976000Y-37490400D03*
%TO.P,U3,35,VCC_STANDBY*%
%TO.N,+5C*%
X186436000Y-37490400D03*
%TO.P,U3,36,RE*%
%TO.N,Net-(J4-Pin_1)*%
X183896000Y-37490400D03*
%TO.P,U3,37,E*%
%TO.N,/PHI2*%
X181356000Y-37490400D03*
%TO.P,U3,38,XTAL*%
%TO.N,GND*%
X178816000Y-37490400D03*
%TO.P,U3,39,EXTAL*%
%TO.N,/CPUCLK*%
X176276000Y-37490400D03*
%TO.P,U3,40,~{RESET}*%
%TO.N,/~{RST}*%
X173736000Y-37490400D03*
%TD*%
D10*
%TO.P,JP2,1,A*%
%TO.N,Net-(D2-A)*%
X166400000Y-43139000D03*
D11*
%TO.P,JP2,2,B*%
%TO.N,/P21*%
X166400000Y-45679000D03*
%TD*%
D12*
%TO.P,J2,1,Pin_1*%
%TO.N,Net-(J1-Pin_15)*%
X170434000Y-53594000D03*
%TD*%
%TO.P,J5,1,Pin_1*%
%TO.N,/~{HALT}*%
X176276000Y-49784000D03*
%TD*%
%TO.P,J6,1,Pin_1*%
%TO.N,/AS*%
X183896000Y-49784000D03*
%TD*%
D10*
%TO.P,JP6,1,A*%
%TO.N,/CPUCLK*%
X176276000Y-33020000D03*
D11*
%TO.P,JP6,2,C*%
%TO.N,Net-(JP6-C)*%
X178816000Y-33020000D03*
%TO.P,JP6,3,B*%
%TO.N,/BA*%
X181356000Y-33020000D03*
%TD*%
D15*
%TO.P,U2,1,OE*%
%TO.N,GND*%
X188976000Y-41000000D03*
D16*
%TO.P,U2,2,D0*%
%TO.N,/D0*%
X191516000Y-41000000D03*
%TO.P,U2,3,D1*%
%TO.N,/D1*%
X194056000Y-41000000D03*
%TO.P,U2,4,D2*%
%TO.N,/D2*%
X196596000Y-41000000D03*
%TO.P,U2,5,D3*%
%TO.N,/D3*%
X199136000Y-41000000D03*
%TO.P,U2,6,D4*%
%TO.N,/D4*%
X201676000Y-41000000D03*
%TO.P,U2,7,D5*%
%TO.N,/D5*%
X204216000Y-41000000D03*
%TO.P,U2,8,D6*%
%TO.N,/D6*%
X206756000Y-41000000D03*
%TO.P,U2,9,D7*%
%TO.N,/D7*%
X209296000Y-41000000D03*
%TO.P,U2,10,GND*%
%TO.N,GND*%
X211836000Y-41000000D03*
%TO.P,U2,11,Load*%
%TO.N,/AS*%
X211836000Y-33380000D03*
%TO.P,U2,12,Q7*%
%TO.N,/A7*%
X209296000Y-33380000D03*
%TO.P,U2,13,Q6*%
%TO.N,/A6*%
X206756000Y-33380000D03*
%TO.P,U2,14,Q5*%
%TO.N,/A5*%
X204216000Y-33380000D03*
%TO.P,U2,15,Q4*%
%TO.N,/A4*%
X201676000Y-33380000D03*
%TO.P,U2,16,Q3*%
%TO.N,/A3*%
X199136000Y-33380000D03*
%TO.P,U2,17,Q2*%
%TO.N,/A2*%
X196596000Y-33380000D03*
%TO.P,U2,18,Q1*%
%TO.N,/A1*%
X194056000Y-33380000D03*
%TO.P,U2,19,Q0*%
%TO.N,/A0*%
X191516000Y-33380000D03*
%TO.P,U2,20,VCC*%
%TO.N,+5V*%
X188976000Y-33380000D03*
%TD*%
D12*
%TO.P,J3,1,Pin_1*%
%TO.N,Net-(J3-Pin_1)*%
X178816000Y-49784000D03*
%TD*%
D17*
%TO.P,C1,1*%
%TO.N,+5V*%
X212242400Y-61124700D03*
%TO.P,C1,2*%
%TO.N,GND*%
X212242400Y-64249700D03*
%TD*%
D18*
%TO.P,R3,1*%
%TO.N,+5V*%
X209854800Y-61111200D03*
%TO.P,R3,2*%
%TO.N,/P22*%
X209854800Y-64211200D03*
%TD*%
%TO.P,R1,1*%
%TO.N,+5V*%
X205130400Y-61112000D03*
%TO.P,R1,2*%
%TO.N,/P20*%
X205130400Y-64212000D03*
%TD*%
%TO.P,R2,1*%
%TO.N,+5V*%
X207518000Y-61111200D03*
%TO.P,R2,2*%
%TO.N,/P21*%
X207518000Y-64211200D03*
%TD*%
D19*
%TO.N,+5V*%
X212242426Y-61124700D03*
%TO.N,GND*%
X212242400Y-64249700D03*
%TO.N,/P20*%
X205130400Y-64212000D03*
%TO.N,/P21*%
X207518000Y-64211200D03*
%TO.N,/P22*%
X209854800Y-64211200D03*
%TO.N,/~{NMI}*%
X193548000Y-65532000D03*
X204978000Y-72136000D03*
%TO.N,/~{IRQ1}*%
X191516000Y-67564000D03*
X204724000Y-73660000D03*
%TO.N,/P23*%
X210312000Y-66548000D03*
X169926000Y-71247000D03*
%TO.N,/P24*%
X211328000Y-74168000D03*
%TO.N,/P10*%
X213868000Y-74168000D03*
%TO.N,/P11*%
X215138000Y-74041000D03*
%TO.N,/P12*%
X216408000Y-73914000D03*
%TO.N,/P13*%
X216662000Y-72517000D03*
%TO.N,/P14*%
X217424000Y-71501000D03*
%TO.N,/P15*%
X170942000Y-72390000D03*
X221019000Y-70993000D03*
%TO.N,/P16*%
X172212000Y-73279000D03*
X221996000Y-72263000D03*
%TO.N,/P17*%
X223012000Y-68707000D03*
X173355000Y-74295000D03*
%TO.N,/AS*%
X188874400Y-54559200D03*
%TO.N,Net-(JP6-C)*%
X204978000Y-71018400D03*
X195072000Y-66346900D03*
%TD*%
D20*
%TO.N,+5V*%
X172161200Y-53797200D02*
X172770800Y-54406800D01*
X190176000Y-34580000D02*
X188976000Y-33380000D01*
X189968570Y-55409200D02*
X191516000Y-53861770D01*
X191516000Y-53861770D02*
X191516000Y-52730400D01*
X205130400Y-61112000D02*
X212229726Y-61112000D01*
X172770800Y-54406800D02*
X182829200Y-54406800D01*
X172161200Y-52578000D02*
X172161200Y-53797200D01*
X183831600Y-55409200D02*
X189968570Y-55409200D01*
X171583200Y-52000000D02*
X172161200Y-52578000D01*
X190176000Y-51390400D02*
X190176000Y-34580000D01*
X212229726Y-61112000D02*
X212242426Y-61124700D01*
X182829200Y-54406800D02*
X183831600Y-55409200D01*
X164592000Y-53594000D02*
X166186000Y-52000000D01*
X166186000Y-52000000D02*
X171583200Y-52000000D01*
X190176000Y-51390400D02*
X191516000Y-52730400D01*
%TO.N,GND*%
X217982800Y-31699200D02*
X221996000Y-35712400D01*
X180066000Y-32542233D02*
X180066000Y-36240400D01*
X180066000Y-36240400D02*
X178816000Y-37490400D01*
X180909033Y-31699200D02*
X180066000Y-32542233D01*
X188559744Y-31699200D02*
X217982800Y-31699200D01*
X188976000Y-41000000D02*
X187706000Y-39730000D01*
X188559744Y-31699200D02*
X180909033Y-31699200D01*
X187706000Y-39730000D02*
X187706000Y-32552944D01*
X221996000Y-35712400D02*
X221996000Y-37490400D01*
X187706000Y-32552944D02*
X188559744Y-31699200D01*
%TO.N,/P20*%
X204965300Y-64046900D02*
X205130400Y-64212000D01*
X187753628Y-64046900D02*
X204965300Y-64046900D01*
X182366528Y-69434000D02*
X187753628Y-64046900D01*
X176270528Y-69434000D02*
X182366528Y-69434000D01*
X164592000Y-71374000D02*
X165842000Y-70124000D01*
X165842000Y-70124000D02*
X175580528Y-70124000D01*
X175580528Y-70124000D02*
X176270528Y-69434000D01*
%TO.N,/P21*%
X206468800Y-63162000D02*
X207518000Y-64211200D01*
X182118000Y-68834000D02*
X187790000Y-63162000D01*
X167132000Y-68834000D02*
X182118000Y-68834000D01*
X187790000Y-63162000D02*
X206468800Y-63162000D01*
%TO.N,/P22*%
X164592000Y-68834000D02*
X165862000Y-67564000D01*
X208127600Y-62484000D02*
X209854800Y-64211200D01*
X182504584Y-67564000D02*
X187584584Y-62484000D01*
X165862000Y-67564000D02*
X182504584Y-67564000D01*
X187584584Y-62484000D02*
X208127600Y-62484000D01*
%TO.N,/~{NMI}*%
X199339200Y-72136000D02*
X193548000Y-66344800D01*
X193548000Y-66344800D02*
X193548000Y-65532000D01*
X204978000Y-72136000D02*
X199339200Y-72136000D01*
%TO.N,/~{IRQ1}*%
X204724000Y-73660000D02*
X197612000Y-73660000D01*
X197612000Y-73660000D02*
X191516000Y-67564000D01*
%TO.N,/P23*%
X188337100Y-64646900D02*
X186680695Y-66303305D01*
X200282900Y-64646900D02*
X188337100Y-64646900D01*
X210312000Y-66548000D02*
X202184000Y-66548000D01*
X202184000Y-66548000D02*
X200282900Y-64646900D01*
X181737000Y-71247000D02*
X186680695Y-66303305D01*
X169926000Y-71247000D02*
X181737000Y-71247000D01*
%TO.N,/P24*%
X213649000Y-59771056D02*
X213649000Y-71847000D01*
X213392944Y-59515000D02*
X213649000Y-59771056D01*
X213649000Y-71847000D02*
X211328000Y-74168000D01*
X189705056Y-59515000D02*
X213392944Y-59515000D01*
X165882000Y-65004000D02*
X184216056Y-65004000D01*
X164592000Y-66294000D02*
X165882000Y-65004000D01*
X184216056Y-65004000D02*
X189705056Y-59515000D01*
%TO.N,/P10*%
X213641472Y-58915000D02*
X214249000Y-59522528D01*
X214249000Y-73787000D02*
X213868000Y-74168000D01*
X167132000Y-63754000D02*
X184617528Y-63754000D01*
X189456528Y-58915000D02*
X213641472Y-58915000D01*
X184617528Y-63754000D02*
X189456528Y-58915000D01*
X214249000Y-59522528D02*
X214249000Y-73787000D01*
%TO.N,/P11*%
X164592000Y-63754000D02*
X165842000Y-62504000D01*
X213890000Y-58315000D02*
X215138000Y-59563000D01*
X185019000Y-62504000D02*
X189208000Y-58315000D01*
X215138000Y-59563000D02*
X215138000Y-74041000D01*
X189208000Y-58315000D02*
X213890000Y-58315000D01*
X165842000Y-62504000D02*
X185019000Y-62504000D01*
%TO.N,/P12*%
X215773000Y-73279000D02*
X216408000Y-73914000D01*
X185420000Y-61214000D02*
X188919000Y-57715000D01*
X214306000Y-57715000D02*
X215773000Y-59182000D01*
X215773000Y-59182000D02*
X215773000Y-73279000D01*
X167132000Y-61214000D02*
X185420000Y-61214000D01*
X188919000Y-57715000D02*
X214306000Y-57715000D01*
%TO.N,/P13*%
X216574000Y-59094000D02*
X216574000Y-72429000D01*
X216574000Y-72429000D02*
X216662000Y-72517000D01*
X165842000Y-59964000D02*
X185781000Y-59964000D01*
X214595000Y-57115000D02*
X216574000Y-59094000D01*
X188630000Y-57115000D02*
X214595000Y-57115000D01*
X164592000Y-61214000D02*
X165842000Y-59964000D01*
X185781000Y-59964000D02*
X188630000Y-57115000D01*
%TO.N,/P14*%
X186182000Y-58674000D02*
X188341000Y-56515000D01*
X188341000Y-56515000D02*
X214884000Y-56515000D01*
X214884000Y-56515000D02*
X217424000Y-59055000D01*
X217424000Y-59055000D02*
X217424000Y-71501000D01*
X167132000Y-58674000D02*
X186182000Y-58674000D01*
%TO.N,/P15*%
X170942000Y-72390000D02*
X194437000Y-72390000D01*
X194437000Y-72390000D02*
X197774000Y-75727000D01*
X216285000Y-75727000D02*
X221019000Y-70993000D01*
X197774000Y-75727000D02*
X216285000Y-75727000D01*
%TO.N,/P16*%
X194056000Y-73279000D02*
X172212000Y-73279000D01*
X217678000Y-76327000D02*
X197104000Y-76327000D01*
X221996000Y-72263000D02*
X221742000Y-72263000D01*
X197104000Y-76327000D02*
X194056000Y-73279000D01*
X221742000Y-72263000D02*
X217678000Y-76327000D01*
%TO.N,/P17*%
X223012000Y-73279000D02*
X223012000Y-68707000D01*
X194183000Y-74422000D02*
X197231000Y-77470000D01*
X173355000Y-74295000D02*
X194183000Y-74295000D01*
X194183000Y-74295000D02*
X194183000Y-74422000D01*
X197231000Y-77470000D02*
X218821000Y-77470000D01*
X218821000Y-77470000D02*
X223012000Y-73279000D01*
%TO.N,/AS*%
X183896000Y-52730400D02*
X185724800Y-54559200D01*
X185724800Y-54559200D02*
X188874400Y-54559200D01*
%TO.N,/A0*%
X192716000Y-51390400D02*
X194056000Y-52730400D01*
X192716000Y-51390400D02*
X192716000Y-34580000D01*
X192716000Y-34580000D02*
X191516000Y-33380000D01*
%TO.N,/A1*%
X195256000Y-34580000D02*
X194056000Y-33380000D01*
X195256000Y-51390400D02*
X196596000Y-52730400D01*
X195256000Y-51390400D02*
X195256000Y-34580000D01*
%TO.N,/A2*%
X197936000Y-51530400D02*
X199136000Y-52730400D01*
X197936000Y-51530400D02*
X197936000Y-34720000D01*
X197936000Y-34720000D02*
X196596000Y-33380000D01*
%TO.N,/A3*%
X200336000Y-34580000D02*
X200336000Y-51390400D01*
X199136000Y-33380000D02*
X200336000Y-34580000D01*
X200336000Y-51390400D02*
X201676000Y-52730400D01*
%TO.N,/A4*%
X202876000Y-51390400D02*
X204216000Y-52730400D01*
X202876000Y-51390400D02*
X202876000Y-34580000D01*
X202876000Y-34580000D02*
X201676000Y-33380000D01*
%TO.N,/A5*%
X205416000Y-51390400D02*
X206756000Y-52730400D01*
X205416000Y-34580000D02*
X205416000Y-51390400D01*
X204216000Y-33380000D02*
X205416000Y-34580000D01*
%TO.N,/A6*%
X208096000Y-34720000D02*
X206756000Y-33380000D01*
X208096000Y-51530400D02*
X209296000Y-52730400D01*
X208096000Y-51530400D02*
X208096000Y-34720000D01*
%TO.N,/A7*%
X210636000Y-34720000D02*
X210636000Y-51530400D01*
X210636000Y-51530400D02*
X211836000Y-52730400D01*
X209296000Y-33380000D02*
X210636000Y-34720000D01*
%TO.N,Net-(J1-Pin_15)*%
X167132000Y-53594000D02*
X170434000Y-53594000D01*
%TO.N,Net-(JP6-C)*%
X200306500Y-66346900D02*
X195072000Y-66346900D01*
X204978000Y-71018400D02*
X200306500Y-66346900D01*
%TO.N,/BA*%
X185096000Y-38283999D02*
X185096000Y-36760000D01*
X188976000Y-52730400D02*
X187776000Y-51530400D01*
X187776000Y-40963999D02*
X185096000Y-38283999D01*
X185096000Y-36760000D02*
X181356000Y-33020000D01*
X187776000Y-51530400D02*
X187776000Y-40963999D01*
%TD*%
%TA.AperFunction,Conductor*%
%TO.N,GND*%
G36*
X211078685Y-62093329D02*
G01*
X211109854Y-62116022D01*
X211123744Y-62129912D01*
X211273066Y-62222014D01*
X211439603Y-62277199D01*
X211542391Y-62287700D01*
X212824500Y-62287699D01*
X212891539Y-62307384D01*
X212937294Y-62360187D01*
X212948500Y-62411699D01*
X212948500Y-62963200D01*
X212928815Y-63030239D01*
X212876011Y-63075994D01*
X212824500Y-63087200D01*
X212492400Y-63087200D01*
X212492400Y-65412199D01*
X212824500Y-65412199D01*
X212891539Y-65431884D01*
X212937294Y-65484688D01*
X212948500Y-65536199D01*
X212948500Y-71505481D01*
X212928815Y-71572520D01*
X212912181Y-71593162D01*
X211265026Y-73240316D01*
X211203703Y-73273801D01*
X211203126Y-73273925D01*
X211048197Y-73306855D01*
X211048192Y-73306857D01*
X210875270Y-73383848D01*
X210875265Y-73383851D01*
X210722129Y-73495111D01*
X210595466Y-73635785D01*
X210500821Y-73799715D01*
X210500818Y-73799722D01*
X210451377Y-73951888D01*
X210442326Y-73979744D01*
X210422540Y-74168000D01*
X210442326Y-74356256D01*
X210442327Y-74356259D01*
X210500818Y-74536277D01*
X210500821Y-74536284D01*
X210595467Y-74700216D01*
X210629590Y-74738113D01*
X210702896Y-74819528D01*
X210733126Y-74882519D01*
X210724501Y-74951855D01*
X210679759Y-75005520D01*
X210613107Y-75026478D01*
X210610746Y-75026500D01*
X198115519Y-75026500D01*
X198048480Y-75006815D01*
X198027838Y-74990181D01*
X197609838Y-74572181D01*
X197576353Y-74510858D01*
X197581337Y-74441166D01*
X197623209Y-74385233D01*
X197688673Y-74360816D01*
X197697519Y-74360500D01*
X204115844Y-74360500D01*
X204182883Y-74380185D01*
X204188729Y-74384182D01*
X204271265Y-74444148D01*
X204271270Y-74444151D01*
X204444192Y-74521142D01*
X204444197Y-74521144D01*
X204629354Y-74560500D01*
X204629355Y-74560500D01*
X204818644Y-74560500D01*
X204818646Y-74560500D01*
X205003803Y-74521144D01*
X205176730Y-74444151D01*
X205329871Y-74332888D01*
X205456533Y-74192216D01*
X205551179Y-74028284D01*
X205609674Y-73848256D01*
X205629460Y-73660000D01*
X205609674Y-73471744D01*
X205551179Y-73291716D01*
X205456533Y-73127784D01*
X205425458Y-73093272D01*
X205395229Y-73030282D01*
X205403854Y-72960947D01*
X205444720Y-72909986D01*
X205583871Y-72808888D01*
X205710533Y-72668216D01*
X205805179Y-72504284D01*
X205863674Y-72324256D01*
X205883460Y-72136000D01*
X205863674Y-71947744D01*
X205805179Y-71767716D01*
X205730979Y-71639198D01*
X205714507Y-71571300D01*
X205730980Y-71515200D01*
X205805179Y-71386684D01*
X205863674Y-71206656D01*
X205883460Y-71018400D01*
X205863674Y-70830144D01*
X205805179Y-70650116D01*
X205710533Y-70486184D01*
X205583871Y-70345512D01*
X205575876Y-70339703D01*
X205430734Y-70234251D01*
X205430729Y-70234248D01*
X205257807Y-70157257D01*
X205257802Y-70157255D01*
X205113106Y-70126500D01*
X205102872Y-70124324D01*
X205041391Y-70091133D01*
X205040973Y-70090716D01*
X202410438Y-67460181D01*
X202376953Y-67398858D01*
X202381937Y-67329166D01*
X202423809Y-67273233D01*
X202489273Y-67248816D01*
X202498119Y-67248500D01*
X209703844Y-67248500D01*
X209770883Y-67268185D01*
X209776729Y-67272182D01*
X209859265Y-67332148D01*
X209859270Y-67332151D01*
X210032192Y-67409142D01*
X210032197Y-67409144D01*
X210217354Y-67448500D01*
X210217355Y-67448500D01*
X210406644Y-67448500D01*
X210406646Y-67448500D01*
X210591803Y-67409144D01*
X210764730Y-67332151D01*
X210917871Y-67220888D01*
X211044533Y-67080216D01*
X211139179Y-66916284D01*
X211197674Y-66736256D01*
X211217460Y-66548000D01*
X211197674Y-66359744D01*
X211139179Y-66179716D01*
X211044533Y-66015784D01*
X210917871Y-65875112D01*
X210917870Y-65875111D01*
X210764734Y-65763851D01*
X210764729Y-65763848D01*
X210591807Y-65686857D01*
X210591802Y-65686855D01*
X210446001Y-65655865D01*
X210406646Y-65647500D01*
X210217354Y-65647500D01*
X210184897Y-65654398D01*
X210032197Y-65686855D01*
X210032192Y-65686857D01*
X209859270Y-65763848D01*
X209859265Y-65763851D01*
X209776729Y-65823818D01*
X209710923Y-65847298D01*
X209703844Y-65847500D01*
X202525519Y-65847500D01*
X202458480Y-65827815D01*
X202437838Y-65811181D01*
X201585738Y-64959081D01*
X201552253Y-64897758D01*
X201557237Y-64828066D01*
X201599109Y-64772133D01*
X201664573Y-64747716D01*
X201673419Y-64747400D01*
X203670095Y-64747400D01*
X203737134Y-64767085D01*
X203782889Y-64819889D01*
X203787799Y-64832391D01*
X203820586Y-64931334D01*
X203912688Y-65080656D01*
X204036744Y-65204712D01*
X204186066Y-65296814D01*
X204352603Y-65351999D01*
X204455391Y-65362500D01*
X205805408Y-65362499D01*
X205908197Y-65351999D01*
X206074734Y-65296814D01*
X206224056Y-65204712D01*
X206236919Y-65191849D01*
X206298242Y-65158364D01*
X206367934Y-65163348D01*
X206412281Y-65191849D01*
X206424344Y-65203912D01*
X206573666Y-65296014D01*
X206740203Y-65351199D01*
X206842991Y-65361700D01*
X208193008Y-65361699D01*
X208295797Y-65351199D01*
X208462334Y-65296014D01*
X208611656Y-65203912D01*
X208611657Y-65203910D01*
X208617803Y-65200120D01*
X208618866Y-65201843D01*
X208674275Y-65179485D01*
X208742918Y-65192520D01*
X208754925Y-65200236D01*
X208754997Y-65200120D01*
X208761142Y-65203910D01*
X208761144Y-65203912D01*
X208910466Y-65296014D01*
X209077003Y-65351199D01*
X209179791Y-65361700D01*
X210529808Y-65361699D01*
X210632597Y-65351199D01*
X210799134Y-65296014D01*
X210942318Y-65207697D01*
X211009710Y-65189258D01*
X211076373Y-65210181D01*
X211095095Y-65225556D01*
X211124054Y-65254515D01*
X211273275Y-65346556D01*
X211273280Y-65346558D01*
X211439702Y-65401705D01*
X211439709Y-65401706D01*
X211542419Y-65412199D01*
X211992399Y-65412199D01*
X211992400Y-65412198D01*
X211992400Y-63087200D01*
X211542428Y-63087200D01*
X211542412Y-63087201D01*
X211439702Y-63097694D01*
X211273280Y-63152841D01*
X211273275Y-63152843D01*
X211117909Y-63248675D01*
X211116646Y-63246628D01*
X211062441Y-63268466D01*
X210993805Y-63255393D01*
X210962703Y-63232735D01*
X210948457Y-63218489D01*
X210948456Y-63218488D01*
X210799134Y-63126386D01*
X210632597Y-63071201D01*
X210632595Y-63071200D01*
X210529816Y-63060700D01*
X210529809Y-63060700D01*
X209746319Y-63060700D01*
X209679280Y-63041015D01*
X209658638Y-63024381D01*
X209107637Y-62473380D01*
X209074152Y-62412057D01*
X209079136Y-62342365D01*
X209121008Y-62286432D01*
X209186472Y-62262015D01*
X209195290Y-62261699D01*
X210529808Y-62261699D01*
X210632597Y-62251199D01*
X210799134Y-62196014D01*
X210948456Y-62103912D01*
X210948457Y-62103910D01*
X210954603Y-62100120D01*
X210955863Y-62102163D01*
X211010041Y-62080298D01*
X211078685Y-62093329D01*
G37*
%TD.AperFunction*%
%TA.AperFunction,Conductor*%
G36*
X169215275Y-54314185D02*
G01*
X169261030Y-54366989D01*
X169264418Y-54375167D01*
X169315202Y-54511328D01*
X169315206Y-54511335D01*
X169401452Y-54626544D01*
X169401455Y-54626547D01*
X169516664Y-54712793D01*
X169516671Y-54712797D01*
X169651517Y-54763091D01*
X169651516Y-54763091D01*
X169658444Y-54763835D01*
X169711127Y-54769500D01*
X171156872Y-54769499D01*
X171216483Y-54763091D01*
X171351331Y-54712796D01*
X171466546Y-54626546D01*
X171552796Y-54511331D01*
X171575525Y-54450391D01*
X171617394Y-54394459D01*
X171682858Y-54370041D01*
X171751131Y-54384892D01*
X171779387Y-54406044D01*
X172259192Y-54885848D01*
X172261728Y-54888542D01*
X172302871Y-54934983D01*
X172339064Y-54959965D01*
X172353915Y-54970216D01*
X172356920Y-54972426D01*
X172405744Y-55010678D01*
X172405746Y-55010679D01*
X172405749Y-55010681D01*
X172414977Y-55014834D01*
X172434531Y-55025862D01*
X172442866Y-55031616D01*
X172442868Y-55031616D01*
X172442870Y-55031618D01*
X172500879Y-55053617D01*
X172504276Y-55055024D01*
X172551570Y-55076309D01*
X172560864Y-55080493D01*
X172560865Y-55080493D01*
X172560869Y-55080495D01*
X172570834Y-55082321D01*
X172592456Y-55088348D01*
X172595577Y-55089531D01*
X172601928Y-55091940D01*
X172647051Y-55097418D01*
X172663474Y-55099413D01*
X172667171Y-55099975D01*
X172728194Y-55111158D01*
X172783552Y-55107809D01*
X172790103Y-55107413D01*
X172793848Y-55107300D01*
X173994471Y-55107300D01*
X174061510Y-55126985D01*
X174107265Y-55179789D01*
X174117760Y-55244557D01*
X174113200Y-55286958D01*
X174113200Y-55934800D01*
X175029514Y-55934800D01*
X175003707Y-55974956D01*
X174963200Y-56112911D01*
X174963200Y-56256689D01*
X175003707Y-56394644D01*
X175029514Y-56434800D01*
X174113200Y-56434800D01*
X174113200Y-57082644D01*
X174119601Y-57142172D01*
X174119603Y-57142179D01*
X174169845Y-57276886D01*
X174169849Y-57276893D01*
X174256009Y-57391987D01*
X174256012Y-57391990D01*
X174371106Y-57478150D01*
X174371113Y-57478154D01*
X174505820Y-57528396D01*
X174505827Y-57528398D01*
X174565355Y-57534799D01*
X174565372Y-57534800D01*
X175213200Y-57534800D01*
X175213200Y-56620301D01*
X175320885Y-56669480D01*
X175427437Y-56684800D01*
X175498963Y-56684800D01*
X175605515Y-56669480D01*
X175713200Y-56620301D01*
X175713200Y-57534800D01*
X176361028Y-57534800D01*
X176361044Y-57534799D01*
X176420572Y-57528398D01*
X176420579Y-57528396D01*
X176555286Y-57478154D01*
X176555293Y-57478150D01*
X176670387Y-57391990D01*
X176670390Y-57391987D01*
X176756550Y-57276893D01*
X176756554Y-57276886D01*
X176805622Y-57145329D01*
X176847493Y-57089395D01*
X176912957Y-57064978D01*
X176981230Y-57079830D01*
X177009485Y-57100981D01*
X177131799Y-57223295D01*
X177208335Y-57276886D01*
X177325365Y-57358832D01*
X177325367Y-57358833D01*
X177325370Y-57358835D01*
X177539537Y-57458703D01*
X177767792Y-57519863D01*
X177938519Y-57534800D01*
X178003199Y-57540459D01*
X178003200Y-57540459D01*
X178003201Y-57540459D01*
X178067881Y-57534800D01*
X178238608Y-57519863D01*
X178466863Y-57458703D01*
X178681030Y-57358835D01*
X178874601Y-57223295D01*
X179041695Y-57056201D01*
X179171625Y-56870642D01*
X179226202Y-56827017D01*
X179295700Y-56819823D01*
X179358055Y-56851346D01*
X179374775Y-56870642D01*
X179504700Y-57056195D01*
X179504705Y-57056201D01*
X179671799Y-57223295D01*
X179748335Y-57276886D01*
X179865365Y-57358832D01*
X179865367Y-57358833D01*
X179865370Y-57358835D01*
X180079537Y-57458703D01*
X180307792Y-57519863D01*
X180478519Y-57534800D01*
X180543199Y-57540459D01*
X180543200Y-57540459D01*
X180543201Y-57540459D01*
X180607881Y-57534800D01*
X180778608Y-57519863D01*
X181006863Y-57458703D01*
X181221030Y-57358835D01*
X181414601Y-57223295D01*
X181581695Y-57056201D01*
X181717235Y-56862630D01*
X181817103Y-56648463D01*
X181878263Y-56420208D01*
X181898859Y-56184800D01*
X181878263Y-55949392D01*
X181817103Y-55721137D01*
X181717235Y-55506971D01*
X181711624Y-55498958D01*
X181581692Y-55313395D01*
X181579684Y-55311001D01*
X181579130Y-55309735D01*
X181578590Y-55308964D01*
X181578745Y-55308855D01*
X181551674Y-55246991D01*
X181562717Y-55178000D01*
X181609306Y-55125931D01*
X181674677Y-55107300D01*
X182487681Y-55107300D01*
X182554720Y-55126985D01*
X182575362Y-55143619D01*
X183319999Y-55888256D01*
X183322535Y-55890950D01*
X183363671Y-55937383D01*
X183414730Y-55972627D01*
X183417712Y-55974821D01*
X183459155Y-56007289D01*
X183466547Y-56013080D01*
X183466546Y-56013080D01*
X183475777Y-56017234D01*
X183495331Y-56028262D01*
X183503666Y-56034016D01*
X183503668Y-56034016D01*
X183503670Y-56034018D01*
X183561679Y-56056017D01*
X183565076Y-56057424D01*
X183612370Y-56078709D01*
X183621664Y-56082893D01*
X183621665Y-56082893D01*
X183621669Y-56082895D01*
X183631634Y-56084721D01*
X183653256Y-56090748D01*
X183656377Y-56091931D01*
X183662728Y-56094340D01*
X183707851Y-56099818D01*
X183724274Y-56101813D01*
X183727971Y-56102375D01*
X183788994Y-56113558D01*
X183844352Y-56110209D01*
X183850903Y-56109813D01*
X183854648Y-56109700D01*
X187456281Y-56109700D01*
X187523320Y-56129385D01*
X187569075Y-56182189D01*
X187579019Y-56251347D01*
X187549994Y-56314903D01*
X187543962Y-56321381D01*
X185928162Y-57937181D01*
X185866839Y-57970666D01*
X185840481Y-57973500D01*
X168354711Y-57973500D01*
X168287672Y-57953815D01*
X168253136Y-57920623D01*
X168170494Y-57802597D01*
X168003402Y-57635506D01*
X168003396Y-57635501D01*
X167817842Y-57505575D01*
X167774217Y-57450998D01*
X167767023Y-57381500D01*
X167798546Y-57319145D01*
X167817842Y-57302425D01*
X167854315Y-57276886D01*
X168003401Y-57172495D01*
X168170495Y-57005401D01*
X168306035Y-56811830D01*
X168405903Y-56597663D01*
X168467063Y-56369408D01*
X168487659Y-56134000D01*
X168467063Y-55898592D01*
X168405903Y-55670337D01*
X168306035Y-55456171D01*
X168300425Y-55448158D01*
X168170494Y-55262597D01*
X168003402Y-55095506D01*
X168003396Y-55095501D01*
X167817842Y-54965575D01*
X167774217Y-54910998D01*
X167767023Y-54841500D01*
X167798546Y-54779145D01*
X167817842Y-54762425D01*
X167888719Y-54712796D01*
X168003401Y-54632495D01*
X168170495Y-54465401D01*
X168253136Y-54347376D01*
X168307713Y-54303752D01*
X168354711Y-54294500D01*
X169148236Y-54294500D01*
X169215275Y-54314185D01*
G37*
%TD.AperFunction*%
%TA.AperFunction,Conductor*%
G36*
X189226000Y-42700000D02*
G01*
X189351500Y-42700000D01*
X189418539Y-42719685D01*
X189464294Y-42772489D01*
X189475500Y-42824000D01*
X189475500Y-51356263D01*
X189455815Y-51423302D01*
X189403011Y-51469057D01*
X189333853Y-51479001D01*
X189319407Y-51476038D01*
X189202697Y-51444766D01*
X189202693Y-51444765D01*
X189202692Y-51444765D01*
X189202691Y-51444764D01*
X189202686Y-51444764D01*
X188976002Y-51424932D01*
X188975998Y-51424932D01*
X188744117Y-51445219D01*
X188675617Y-51431452D01*
X188645629Y-51409372D01*
X188512819Y-51276562D01*
X188479334Y-51215239D01*
X188476500Y-51188881D01*
X188476500Y-42824000D01*
X188496185Y-42756961D01*
X188548989Y-42711206D01*
X188600500Y-42700000D01*
X188726000Y-42700000D01*
X188726000Y-41315686D01*
X188737955Y-41327641D01*
X188850852Y-41385165D01*
X188944519Y-41400000D01*
X189007481Y-41400000D01*
X189101148Y-41385165D01*
X189214045Y-41327641D01*
X189226000Y-41315686D01*
X189226000Y-42700000D01*
G37*
%TD.AperFunction*%
%TA.AperFunction,Conductor*%
G36*
X187773865Y-38033748D02*
G01*
X187818382Y-38085125D01*
X187845429Y-38143128D01*
X187845432Y-38143134D01*
X187975954Y-38329541D01*
X188136858Y-38490445D01*
X188136861Y-38490447D01*
X188323266Y-38620968D01*
X188529504Y-38717139D01*
X188749308Y-38776035D01*
X188911230Y-38790201D01*
X188975998Y-38795868D01*
X188976000Y-38795868D01*
X188976002Y-38795868D01*
X189032673Y-38790909D01*
X189202692Y-38776035D01*
X189319408Y-38744761D01*
X189389256Y-38746424D01*
X189447119Y-38785586D01*
X189474623Y-38849815D01*
X189475500Y-38864536D01*
X189475500Y-39176000D01*
X189455815Y-39243039D01*
X189403011Y-39288794D01*
X189351500Y-39300000D01*
X189226000Y-39300000D01*
X189226000Y-40684314D01*
X189214045Y-40672359D01*
X189101148Y-40614835D01*
X189007481Y-40600000D01*
X188944519Y-40600000D01*
X188850852Y-40614835D01*
X188737955Y-40672359D01*
X188726000Y-40684314D01*
X188726000Y-39300000D01*
X188128155Y-39300000D01*
X188068627Y-39306401D01*
X188068620Y-39306403D01*
X187933913Y-39356645D01*
X187933906Y-39356649D01*
X187818812Y-39442809D01*
X187818809Y-39442812D01*
X187732649Y-39557906D01*
X187732646Y-39557911D01*
X187698997Y-39648129D01*
X187657125Y-39704062D01*
X187591661Y-39728479D01*
X187523388Y-39713627D01*
X187495134Y-39692476D01*
X186748312Y-38945654D01*
X186714827Y-38884331D01*
X186719811Y-38814639D01*
X186761683Y-38758706D01*
X186803899Y-38738198D01*
X186845362Y-38727088D01*
X186882486Y-38717142D01*
X186882489Y-38717140D01*
X186882496Y-38717139D01*
X187088734Y-38620968D01*
X187275139Y-38490447D01*
X187436047Y-38329539D01*
X187566568Y-38143134D01*
X187593618Y-38085124D01*
X187639790Y-38032685D01*
X187706983Y-38013533D01*
X187773865Y-38033748D01*
G37*
%TD.AperFunction*%
%TA.AperFunction,Conductor*%
G36*
X227942539Y-31020185D02*
G01*
X227988294Y-31072989D01*
X227999500Y-31124500D01*
X227999500Y-80637500D01*
X227979815Y-80704539D01*
X227927011Y-80750294D01*
X227875500Y-80761500D01*
X160124500Y-80761500D01*
X160057461Y-80741815D01*
X160011706Y-80689011D01*
X160000500Y-80637500D01*
X160000500Y-71374000D01*
X163236341Y-71374000D01*
X163256936Y-71609403D01*
X163256938Y-71609413D01*
X163318094Y-71837655D01*
X163318096Y-71837659D01*
X163318097Y-71837663D01*
X163369427Y-71947740D01*
X163417965Y-72051830D01*
X163417967Y-72051834D01*
X163503431Y-72173888D01*
X163553505Y-72245401D01*
X163720599Y-72412495D01*
X163754432Y-72436185D01*
X163914165Y-72548032D01*
X163914167Y-72548033D01*
X163914170Y-72548035D01*
X164128337Y-72647903D01*
X164356592Y-72709063D01*
X164527319Y-72724000D01*
X164591999Y-72729659D01*
X164592000Y-72729659D01*
X164592001Y-72729659D01*
X164656681Y-72724000D01*
X164827408Y-72709063D01*
X165055663Y-72647903D01*
X165269830Y-72548035D01*
X165463401Y-72412495D01*
X165585717Y-72290178D01*
X165647036Y-72256696D01*
X165716728Y-72261680D01*
X165772662Y-72303551D01*
X165789577Y-72334528D01*
X165838646Y-72466088D01*
X165838649Y-72466093D01*
X165924809Y-72581187D01*
X165924812Y-72581190D01*
X166039906Y-72667350D01*
X166039913Y-72667354D01*
X166174620Y-72717596D01*
X166174627Y-72717598D01*
X166234155Y-72723999D01*
X166234172Y-72724000D01*
X166882000Y-72724000D01*
X166882000Y-71809501D01*
X166989685Y-71858680D01*
X167096237Y-71874000D01*
X167167763Y-71874000D01*
X167274315Y-71858680D01*
X167382000Y-71809501D01*
X167382000Y-72724000D01*
X168029828Y-72724000D01*
X168029844Y-72723999D01*
X168089372Y-72717598D01*
X168089379Y-72717596D01*
X168224086Y-72667354D01*
X168224093Y-72667350D01*
X168339187Y-72581190D01*
X168339190Y-72581187D01*
X168425350Y-72466093D01*
X168425354Y-72466086D01*
X168475596Y-72331379D01*
X168475598Y-72331372D01*
X168481999Y-72271844D01*
X168482000Y-72271827D01*
X168482000Y-71624000D01*
X167565686Y-71624000D01*
X167591493Y-71583844D01*
X167632000Y-71445889D01*
X167632000Y-71302111D01*
X167591493Y-71164156D01*
X167565686Y-71124000D01*
X168482000Y-71124000D01*
X168482000Y-70948500D01*
X168501685Y-70881461D01*
X168554489Y-70835706D01*
X168606000Y-70824500D01*
X168945765Y-70824500D01*
X169012804Y-70844185D01*
X169058559Y-70896989D01*
X169068503Y-70966147D01*
X169063696Y-70986818D01*
X169040327Y-71058740D01*
X169040326Y-71058744D01*
X169020540Y-71247000D01*
X169040326Y-71435256D01*
X169040327Y-71435259D01*
X169098818Y-71615277D01*
X169098821Y-71615284D01*
X169193467Y-71779216D01*
X169246094Y-71837664D01*
X169320129Y-71919888D01*
X169473265Y-72031148D01*
X169473270Y-72031151D01*
X169646192Y-72108142D01*
X169646197Y-72108144D01*
X169831354Y-72147500D01*
X169831355Y-72147500D01*
X169924312Y-72147500D01*
X169991351Y-72167185D01*
X170037106Y-72219989D01*
X170047632Y-72284459D01*
X170036540Y-72390000D01*
X170056326Y-72578256D01*
X170056327Y-72578259D01*
X170114818Y-72758277D01*
X170114821Y-72758284D01*
X170209467Y-72922216D01*
X170323817Y-73049214D01*
X170336129Y-73062888D01*
X170489265Y-73174148D01*
X170489270Y-73174151D01*
X170662192Y-73251142D01*
X170662197Y-73251144D01*
X170847354Y-73290500D01*
X170847355Y-73290500D01*
X171036644Y-73290500D01*
X171036646Y-73290500D01*
X171167119Y-73262767D01*
X171236784Y-73268083D01*
X171292518Y-73310220D01*
X171316219Y-73371094D01*
X171326326Y-73467256D01*
X171326327Y-73467259D01*
X171384818Y-73647277D01*
X171384821Y-73647284D01*
X171479467Y-73811216D01*
X171512821Y-73848259D01*
X171606129Y-73951888D01*
X171759265Y-74063148D01*
X171759270Y-74063151D01*
X171932192Y-74140142D01*
X171932197Y-74140144D01*
X172117354Y-74179500D01*
X172117355Y-74179500D01*
X172306643Y-74179500D01*
X172306646Y-74179500D01*
X172306648Y-74179499D01*
X172312644Y-74178869D01*
X172381374Y-74191435D01*
X172432401Y-74239164D01*
X172448933Y-74289227D01*
X172449540Y-74295000D01*
X172469326Y-74483256D01*
X172469327Y-74483259D01*
X172527818Y-74663277D01*
X172527821Y-74663284D01*
X172622467Y-74827216D01*
X172674364Y-74884853D01*
X172749129Y-74967888D01*
X172902265Y-75079148D01*
X172902270Y-75079151D01*
X173075192Y-75156142D01*
X173075197Y-75156144D01*
X173260354Y-75195500D01*
X173260355Y-75195500D01*
X173449644Y-75195500D01*
X173449646Y-75195500D01*
X173634803Y-75156144D01*
X173807730Y-75079151D01*
X173872877Y-75031819D01*
X173890271Y-75019182D01*
X173956077Y-74995702D01*
X173963156Y-74995500D01*
X193714481Y-74995500D01*
X193781520Y-75015185D01*
X193802162Y-75031819D01*
X196719399Y-77949056D01*
X196721935Y-77951750D01*
X196758610Y-77993148D01*
X196763070Y-77998182D01*
X196814106Y-78033410D01*
X196817122Y-78035630D01*
X196843490Y-78056287D01*
X196865943Y-78073878D01*
X196872845Y-78076984D01*
X196875182Y-78078036D01*
X196894733Y-78089063D01*
X196903070Y-78094818D01*
X196961065Y-78116812D01*
X196964474Y-78118223D01*
X197011787Y-78139517D01*
X197021064Y-78143693D01*
X197021065Y-78143693D01*
X197021069Y-78143695D01*
X197031034Y-78145521D01*
X197052656Y-78151548D01*
X197052667Y-78151552D01*
X197062128Y-78155140D01*
X197107251Y-78160618D01*
X197123674Y-78162613D01*
X197127371Y-78163175D01*
X197188394Y-78174358D01*
X197243752Y-78171009D01*
X197250303Y-78170613D01*
X197254048Y-78170500D01*
X218797952Y-78170500D01*
X218801697Y-78170613D01*
X218809042Y-78171057D01*
X218863606Y-78174358D01*
X218901314Y-78167447D01*
X218924621Y-78163177D01*
X218928325Y-78162613D01*
X218946170Y-78160446D01*
X218989872Y-78155140D01*
X218999335Y-78151550D01*
X219020961Y-78145522D01*
X219021893Y-78145351D01*
X219030932Y-78143695D01*
X219087512Y-78118229D01*
X219090942Y-78116809D01*
X219148930Y-78094818D01*
X219157266Y-78089062D01*
X219176821Y-78078034D01*
X219186057Y-78073878D01*
X219234896Y-78035613D01*
X219237876Y-78033421D01*
X219288929Y-77998183D01*
X219330065Y-77951748D01*
X219332599Y-77949056D01*
X223491056Y-73790599D01*
X223493748Y-73788065D01*
X223540183Y-73746929D01*
X223575421Y-73695876D01*
X223577613Y-73692896D01*
X223615878Y-73644057D01*
X223620034Y-73634821D01*
X223631062Y-73615266D01*
X223636818Y-73606930D01*
X223658809Y-73548942D01*
X223660229Y-73545512D01*
X223685695Y-73488932D01*
X223687522Y-73478961D01*
X223693552Y-73457331D01*
X223697140Y-73447871D01*
X223697140Y-73447868D01*
X223704613Y-73386325D01*
X223705177Y-73382621D01*
X223709447Y-73359314D01*
X223716358Y-73321606D01*
X223712613Y-73259696D01*
X223712500Y-73255951D01*
X223712500Y-69322391D01*
X223732185Y-69255352D01*
X223744352Y-69239417D01*
X223744533Y-69239216D01*
X223839179Y-69075284D01*
X223897674Y-68895256D01*
X223917460Y-68707000D01*
X223897674Y-68518744D01*
X223839179Y-68338716D01*
X223744533Y-68174784D01*
X223617871Y-68034112D01*
X223617870Y-68034111D01*
X223464734Y-67922851D01*
X223464729Y-67922848D01*
X223291807Y-67845857D01*
X223291802Y-67845855D01*
X223146001Y-67814865D01*
X223106646Y-67806500D01*
X222917354Y-67806500D01*
X222884897Y-67813398D01*
X222732197Y-67845855D01*
X222732192Y-67845857D01*
X222559270Y-67922848D01*
X222559265Y-67922851D01*
X222406129Y-68034111D01*
X222279466Y-68174785D01*
X222184821Y-68338715D01*
X222184818Y-68338722D01*
X222126327Y-68518740D01*
X222126326Y-68518744D01*
X222106540Y-68707000D01*
X222126326Y-68895256D01*
X222126327Y-68895259D01*
X222184818Y-69075277D01*
X222184821Y-69075284D01*
X222279466Y-69239215D01*
X222279648Y-69239417D01*
X222279716Y-69239559D01*
X222283285Y-69244471D01*
X222282386Y-69245123D01*
X222309879Y-69302408D01*
X222311500Y-69322391D01*
X222311500Y-71256317D01*
X222291815Y-71323356D01*
X222239011Y-71369111D01*
X222169853Y-71379055D01*
X222161719Y-71377607D01*
X222090646Y-71362500D01*
X222016455Y-71362500D01*
X221949416Y-71342815D01*
X221903661Y-71290011D01*
X221893717Y-71220853D01*
X221898523Y-71200184D01*
X221904674Y-71181256D01*
X221924460Y-70993000D01*
X221904674Y-70804744D01*
X221846179Y-70624716D01*
X221751533Y-70460784D01*
X221624871Y-70320112D01*
X221624870Y-70320111D01*
X221471734Y-70208851D01*
X221471729Y-70208848D01*
X221298807Y-70131857D01*
X221298802Y-70131855D01*
X221153001Y-70100865D01*
X221113646Y-70092500D01*
X220924354Y-70092500D01*
X220891897Y-70099398D01*
X220739197Y-70131855D01*
X220739192Y-70131857D01*
X220566270Y-70208848D01*
X220566265Y-70208851D01*
X220413129Y-70320111D01*
X220286466Y-70460785D01*
X220191821Y-70624715D01*
X220191818Y-70624722D01*
X220133327Y-70804739D01*
X220133325Y-70804750D01*
X220128134Y-70854129D01*
X220101549Y-70918743D01*
X220092495Y-70928846D01*
X217436829Y-73584512D01*
X217375506Y-73617997D01*
X217305814Y-73613013D01*
X217249881Y-73571141D01*
X217235866Y-73547261D01*
X217235182Y-73545726D01*
X217235179Y-73545716D01*
X217155935Y-73408462D01*
X217139463Y-73340563D01*
X217162316Y-73274536D01*
X217190434Y-73246149D01*
X217267871Y-73189888D01*
X217394533Y-73049216D01*
X217489179Y-72885284D01*
X217547674Y-72705256D01*
X217567460Y-72517000D01*
X217566190Y-72504915D01*
X217578758Y-72436185D01*
X217626489Y-72385160D01*
X217663724Y-72370662D01*
X217703803Y-72362144D01*
X217703807Y-72362142D01*
X217703808Y-72362142D01*
X217835403Y-72303551D01*
X217876730Y-72285151D01*
X218029871Y-72173888D01*
X218156533Y-72033216D01*
X218251179Y-71869284D01*
X218309674Y-71689256D01*
X218329460Y-71501000D01*
X218309674Y-71312744D01*
X218251179Y-71132716D01*
X218156533Y-70968784D01*
X218156344Y-70968574D01*
X218156273Y-70968427D01*
X218152714Y-70963528D01*
X218153610Y-70962876D01*
X218126119Y-70905580D01*
X218124500Y-70885608D01*
X218124500Y-59078035D01*
X218124613Y-59074290D01*
X218128357Y-59012394D01*
X218117177Y-58951386D01*
X218116615Y-58947689D01*
X218109140Y-58886129D01*
X218109139Y-58886125D01*
X218105546Y-58876651D01*
X218099519Y-58855029D01*
X218097694Y-58845070D01*
X218097694Y-58845068D01*
X218072239Y-58788512D01*
X218070809Y-58785057D01*
X218048818Y-58727070D01*
X218043059Y-58718727D01*
X218032030Y-58699172D01*
X218027877Y-58689943D01*
X218027874Y-58689938D01*
X217989633Y-58641127D01*
X217987413Y-58638110D01*
X217973829Y-58618431D01*
X217952183Y-58587071D01*
X217905750Y-58545935D01*
X217903056Y-58543399D01*
X215395598Y-56035941D01*
X215393064Y-56033250D01*
X215351929Y-55986817D01*
X215351928Y-55986816D01*
X215351924Y-55986812D01*
X215300896Y-55951591D01*
X215297887Y-55949377D01*
X215249060Y-55911124D01*
X215249055Y-55911120D01*
X215239813Y-55906961D01*
X215220266Y-55895936D01*
X215211931Y-55890183D01*
X215211932Y-55890183D01*
X215211930Y-55890182D01*
X215153941Y-55868189D01*
X215150490Y-55866759D01*
X215093930Y-55841304D01*
X215083946Y-55839474D01*
X215062343Y-55833451D01*
X215052874Y-55829860D01*
X215052870Y-55829859D01*
X214991313Y-55822384D01*
X214987612Y-55821821D01*
X214926608Y-55810642D01*
X214926603Y-55810642D01*
X214864697Y-55814387D01*
X214860952Y-55814500D01*
X190853289Y-55814500D01*
X190786250Y-55794815D01*
X190740495Y-55742011D01*
X190730551Y-55672853D01*
X190759576Y-55609297D01*
X190765608Y-55602819D01*
X191357748Y-55010678D01*
X191995048Y-54373376D01*
X191997740Y-54370842D01*
X192044183Y-54329699D01*
X192079423Y-54278642D01*
X192081630Y-54275643D01*
X192119877Y-54226827D01*
X192124029Y-54217598D01*
X192135062Y-54198038D01*
X192139975Y-54190921D01*
X192140818Y-54189700D01*
X192162812Y-54131703D01*
X192164231Y-54128275D01*
X192189694Y-54071702D01*
X192191520Y-54061735D01*
X192197548Y-54040110D01*
X192201140Y-54030642D01*
X192208615Y-53969079D01*
X192209179Y-53965375D01*
X192213456Y-53942028D01*
X192220357Y-53904376D01*
X192219930Y-53897316D01*
X192235531Y-53829211D01*
X192272581Y-53788254D01*
X192287177Y-53778034D01*
X192355139Y-53730447D01*
X192516047Y-53569539D01*
X192646568Y-53383134D01*
X192673618Y-53325124D01*
X192719790Y-53272685D01*
X192786983Y-53253533D01*
X192853865Y-53273748D01*
X192898382Y-53325125D01*
X192925429Y-53383128D01*
X192925432Y-53383134D01*
X193055954Y-53569541D01*
X193216858Y-53730445D01*
X193216861Y-53730447D01*
X193403266Y-53860968D01*
X193609504Y-53957139D01*
X193829308Y-54016035D01*
X193991230Y-54030201D01*
X194055998Y-54035868D01*
X194056000Y-54035868D01*
X194056002Y-54035868D01*
X194115779Y-54030638D01*
X194282692Y-54016035D01*
X194502496Y-53957139D01*
X194708734Y-53860968D01*
X194895139Y-53730447D01*
X195056047Y-53569539D01*
X195186568Y-53383134D01*
X195213618Y-53325124D01*
X195259790Y-53272685D01*
X195326983Y-53253533D01*
X195393865Y-53273748D01*
X195438382Y-53325125D01*
X195465429Y-53383128D01*
X195465432Y-53383134D01*
X195595954Y-53569541D01*
X195756858Y-53730445D01*
X195756861Y-53730447D01*
X195943266Y-53860968D01*
X196149504Y-53957139D01*
X196369308Y-54016035D01*
X196531230Y-54030201D01*
X196595998Y-54035868D01*
X196596000Y-54035868D01*
X196596002Y-54035868D01*
X196655779Y-54030638D01*
X196822692Y-54016035D01*
X197042496Y-53957139D01*
X197248734Y-53860968D01*
X197435139Y-53730447D01*
X197596047Y-53569539D01*
X197726568Y-53383134D01*
X197753618Y-53325124D01*
X197799790Y-53272685D01*
X197866983Y-53253533D01*
X197933865Y-53273748D01*
X197978382Y-53325125D01*
X198005429Y-53383128D01*
X198005432Y-53383134D01*
X198135954Y-53569541D01*
X198296858Y-53730445D01*
X198296861Y-53730447D01*
X198483266Y-53860968D01*
X198689504Y-53957139D01*
X198909308Y-54016035D01*
X199071230Y-54030201D01*
X199135998Y-54035868D01*
X199136000Y-54035868D01*
X199136002Y-54035868D01*
X199195779Y-54030638D01*
X199362692Y-54016035D01*
X199582496Y-53957139D01*
X199788734Y-53860968D01*
X199975139Y-53730447D01*
X200136047Y-53569539D01*
X200266568Y-53383134D01*
X200293618Y-53325124D01*
X200339790Y-53272685D01*
X200406983Y-53253533D01*
X200473865Y-53273748D01*
X200518382Y-53325125D01*
X200545429Y-53383128D01*
X200545432Y-53383134D01*
X200675954Y-53569541D01*
X200836858Y-53730445D01*
X200836861Y-53730447D01*
X201023266Y-53860968D01*
X201229504Y-53957139D01*
X201449308Y-54016035D01*
X201611230Y-54030201D01*
X201675998Y-54035868D01*
X201676000Y-54035868D01*
X201676002Y-54035868D01*
X201735779Y-54030638D01*
X201902692Y-54016035D01*
X202122496Y-53957139D01*
X202328734Y-53860968D01*
X202515139Y-53730447D01*
X202676047Y-53569539D01*
X202806568Y-53383134D01*
X202833618Y-53325124D01*
X202879790Y-53272685D01*
X202946983Y-53253533D01*
X203013865Y-53273748D01*
X203058382Y-53325125D01*
X203085429Y-53383128D01*
X203085432Y-53383134D01*
X203215954Y-53569541D01*
X203376858Y-53730445D01*
X203376861Y-53730447D01*
X203563266Y-53860968D01*
X203769504Y-53957139D01*
X203989308Y-54016035D01*
X204151230Y-54030201D01*
X204215998Y-54035868D01*
X204216000Y-54035868D01*
X204216002Y-54035868D01*
X204275779Y-54030638D01*
X204442692Y-54016035D01*
X204662496Y-53957139D01*
X204868734Y-53860968D01*
X205055139Y-53730447D01*
X205216047Y-53569539D01*
X205346568Y-53383134D01*
X205373618Y-53325124D01*
X205419790Y-53272685D01*
X205486983Y-53253533D01*
X205553865Y-53273748D01*
X205598382Y-53325125D01*
X205625429Y-53383128D01*
X205625432Y-53383134D01*
X205755954Y-53569541D01*
X205916858Y-53730445D01*
X205916861Y-53730447D01*
X206103266Y-53860968D01*
X206309504Y-53957139D01*
X206529308Y-54016035D01*
X206691230Y-54030201D01*
X206755998Y-54035868D01*
X206756000Y-54035868D01*
X206756002Y-54035868D01*
X206815779Y-54030638D01*
X206982692Y-54016035D01*
X207202496Y-53957139D01*
X207408734Y-53860968D01*
X207595139Y-53730447D01*
X207756047Y-53569539D01*
X207886568Y-53383134D01*
X207913618Y-53325124D01*
X207959790Y-53272685D01*
X208026983Y-53253533D01*
X208093865Y-53273748D01*
X208138382Y-53325125D01*
X208165429Y-53383128D01*
X208165432Y-53383134D01*
X208295954Y-53569541D01*
X208456858Y-53730445D01*
X208456861Y-53730447D01*
X208643266Y-53860968D01*
X208849504Y-53957139D01*
X209069308Y-54016035D01*
X209231230Y-54030201D01*
X209295998Y-54035868D01*
X209296000Y-54035868D01*
X209296002Y-54035868D01*
X209355779Y-54030638D01*
X209522692Y-54016035D01*
X209742496Y-53957139D01*
X209948734Y-53860968D01*
X210135139Y-53730447D01*
X210296047Y-53569539D01*
X210426568Y-53383134D01*
X210453618Y-53325124D01*
X210499790Y-53272685D01*
X210566983Y-53253533D01*
X210633865Y-53273748D01*
X210678382Y-53325125D01*
X210705429Y-53383128D01*
X210705432Y-53383134D01*
X210835954Y-53569541D01*
X210996858Y-53730445D01*
X210996861Y-53730447D01*
X211183266Y-53860968D01*
X211389504Y-53957139D01*
X211609308Y-54016035D01*
X211771230Y-54030201D01*
X211835998Y-54035868D01*
X211836000Y-54035868D01*
X211836002Y-54035868D01*
X211895779Y-54030638D01*
X212062692Y-54016035D01*
X212282496Y-53957139D01*
X212488734Y-53860968D01*
X212675139Y-53730447D01*
X212836047Y-53569539D01*
X212966568Y-53383134D01*
X212993618Y-53325124D01*
X213039790Y-53272685D01*
X213106983Y-53253533D01*
X213173865Y-53273748D01*
X213218382Y-53325125D01*
X213245429Y-53383128D01*
X213245432Y-53383134D01*
X213375954Y-53569541D01*
X213536858Y-53730445D01*
X213536861Y-53730447D01*
X213723266Y-53860968D01*
X213929504Y-53957139D01*
X214149308Y-54016035D01*
X214311230Y-54030201D01*
X214375998Y-54035868D01*
X214376000Y-54035868D01*
X214376002Y-54035868D01*
X214435779Y-54030638D01*
X214602692Y-54016035D01*
X214822496Y-53957139D01*
X215028734Y-53860968D01*
X215215139Y-53730447D01*
X215376047Y-53569539D01*
X215506568Y-53383134D01*
X215533618Y-53325124D01*
X215579790Y-53272685D01*
X215646983Y-53253533D01*
X215713865Y-53273748D01*
X215758382Y-53325125D01*
X215785429Y-53383128D01*
X215785432Y-53383134D01*
X215915954Y-53569541D01*
X216076858Y-53730445D01*
X216076861Y-53730447D01*
X216263266Y-53860968D01*
X216469504Y-53957139D01*
X216689308Y-54016035D01*
X216851230Y-54030201D01*
X216915998Y-54035868D01*
X216916000Y-54035868D01*
X216916002Y-54035868D01*
X216975779Y-54030638D01*
X217142692Y-54016035D01*
X217362496Y-53957139D01*
X217568734Y-53860968D01*
X217755139Y-53730447D01*
X217916047Y-53569539D01*
X218046568Y-53383134D01*
X218073618Y-53325124D01*
X218119790Y-53272685D01*
X218186983Y-53253533D01*
X218253865Y-53273748D01*
X218298382Y-53325125D01*
X218325429Y-53383128D01*
X218325432Y-53383134D01*
X218455954Y-53569541D01*
X218616858Y-53730445D01*
X218616861Y-53730447D01*
X218803266Y-53860968D01*
X219009504Y-53957139D01*
X219229308Y-54016035D01*
X219391230Y-54030201D01*
X219455998Y-54035868D01*
X219456000Y-54035868D01*
X219456002Y-54035868D01*
X219515779Y-54030638D01*
X219682692Y-54016035D01*
X219902496Y-53957139D01*
X220108734Y-53860968D01*
X220295139Y-53730447D01*
X220456047Y-53569539D01*
X220586568Y-53383134D01*
X220613618Y-53325124D01*
X220659790Y-53272685D01*
X220726983Y-53253533D01*
X220793865Y-53273748D01*
X220838382Y-53325125D01*
X220865429Y-53383128D01*
X220865432Y-53383134D01*
X220995954Y-53569541D01*
X221156858Y-53730445D01*
X221156861Y-53730447D01*
X221343266Y-53860968D01*
X221549504Y-53957139D01*
X221769308Y-54016035D01*
X221931230Y-54030201D01*
X221995998Y-54035868D01*
X221996000Y-54035868D01*
X221996002Y-54035868D01*
X222055779Y-54030638D01*
X222222692Y-54016035D01*
X222442496Y-53957139D01*
X222648734Y-53860968D01*
X222835139Y-53730447D01*
X222996047Y-53569539D01*
X223126568Y-53383134D01*
X223222739Y-53176896D01*
X223281635Y-52957092D01*
X223301468Y-52730400D01*
X223281635Y-52503708D01*
X223222739Y-52283904D01*
X223126568Y-52077666D01*
X222996047Y-51891261D01*
X222996045Y-51891258D01*
X222835141Y-51730354D01*
X222648734Y-51599832D01*
X222648732Y-51599831D01*
X222442497Y-51503661D01*
X222442488Y-51503658D01*
X222222697Y-51444766D01*
X222222693Y-51444765D01*
X222222692Y-51444765D01*
X222222691Y-51444764D01*
X222222686Y-51444764D01*
X221996002Y-51424932D01*
X221995998Y-51424932D01*
X221769313Y-51444764D01*
X221769302Y-51444766D01*
X221549511Y-51503658D01*
X221549502Y-51503661D01*
X221343267Y-51599831D01*
X221343265Y-51599832D01*
X221156858Y-51730354D01*
X220995954Y-51891258D01*
X220865432Y-52077665D01*
X220865431Y-52077667D01*
X220838382Y-52135675D01*
X220792209Y-52188114D01*
X220725016Y-52207266D01*
X220658135Y-52187050D01*
X220613618Y-52135675D01*
X220586568Y-52077666D01*
X220456047Y-51891261D01*
X220456045Y-51891258D01*
X220295141Y-51730354D01*
X220108734Y-51599832D01*
X220108732Y-51599831D01*
X219902497Y-51503661D01*
X219902488Y-51503658D01*
X219682697Y-51444766D01*
X219682693Y-51444765D01*
X219682692Y-51444765D01*
X219682691Y-51444764D01*
X219682686Y-51444764D01*
X219456002Y-51424932D01*
X219455998Y-51424932D01*
X219229313Y-51444764D01*
X219229302Y-51444766D01*
X219009511Y-51503658D01*
X219009502Y-51503661D01*
X218803267Y-51599831D01*
X218803265Y-51599832D01*
X218616858Y-51730354D01*
X218455954Y-51891258D01*
X218325432Y-52077665D01*
X218325431Y-52077667D01*
X218298382Y-52135675D01*
X218252209Y-52188114D01*
X218185016Y-52207266D01*
X218118135Y-52187050D01*
X218073618Y-52135675D01*
X218046568Y-52077666D01*
X217916047Y-51891261D01*
X217916045Y-51891258D01*
X217755141Y-51730354D01*
X217568734Y-51599832D01*
X217568732Y-51599831D01*
X217362497Y-51503661D01*
X217362488Y-51503658D01*
X217142697Y-51444766D01*
X217142693Y-51444765D01*
X217142692Y-51444765D01*
X217142691Y-51444764D01*
X217142686Y-51444764D01*
X216916002Y-51424932D01*
X216915998Y-51424932D01*
X216689313Y-51444764D01*
X216689302Y-51444766D01*
X216469511Y-51503658D01*
X216469502Y-51503661D01*
X216263267Y-51599831D01*
X216263265Y-51599832D01*
X216076858Y-51730354D01*
X215915954Y-51891258D01*
X215785432Y-52077665D01*
X215785431Y-52077667D01*
X215758382Y-52135675D01*
X215712209Y-52188114D01*
X215645016Y-52207266D01*
X215578135Y-52187050D01*
X215533618Y-52135675D01*
X215506568Y-52077666D01*
X215376047Y-51891261D01*
X215376045Y-51891258D01*
X215215141Y-51730354D01*
X215028734Y-51599832D01*
X215028732Y-51599831D01*
X214822497Y-51503661D01*
X214822488Y-51503658D01*
X214602697Y-51444766D01*
X214602693Y-51444765D01*
X214602692Y-51444765D01*
X214602691Y-51444764D01*
X214602686Y-51444764D01*
X214376002Y-51424932D01*
X214375998Y-51424932D01*
X214149313Y-51444764D01*
X214149302Y-51444766D01*
X213929511Y-51503658D01*
X213929502Y-51503661D01*
X213723267Y-51599831D01*
X213723265Y-51599832D01*
X213536858Y-51730354D01*
X213375954Y-51891258D01*
X213245432Y-52077665D01*
X213245431Y-52077667D01*
X213218382Y-52135675D01*
X213172209Y-52188114D01*
X213105016Y-52207266D01*
X213038135Y-52187050D01*
X212993618Y-52135675D01*
X212966568Y-52077666D01*
X212836047Y-51891261D01*
X212836045Y-51891258D01*
X212675141Y-51730354D01*
X212488734Y-51599832D01*
X212488732Y-51599831D01*
X212282497Y-51503661D01*
X212282488Y-51503658D01*
X212062697Y-51444766D01*
X212062693Y-51444765D01*
X212062692Y-51444765D01*
X212062691Y-51444764D01*
X212062686Y-51444764D01*
X211836002Y-51424932D01*
X211835998Y-51424932D01*
X211604117Y-51445219D01*
X211535617Y-51431452D01*
X211505629Y-51409372D01*
X211372819Y-51276562D01*
X211339334Y-51215239D01*
X211336500Y-51188881D01*
X211336500Y-42773619D01*
X211356185Y-42706580D01*
X211408989Y-42660825D01*
X211478147Y-42650881D01*
X211492594Y-42653844D01*
X211585999Y-42678871D01*
X211586000Y-42678871D01*
X211586000Y-41315686D01*
X211597955Y-41327641D01*
X211710852Y-41385165D01*
X211804519Y-41400000D01*
X211867481Y-41400000D01*
X211961148Y-41385165D01*
X212074045Y-41327641D01*
X212086000Y-41315686D01*
X212086000Y-42678872D01*
X212282317Y-42626269D01*
X212282326Y-42626265D01*
X212488482Y-42530134D01*
X212674820Y-42399657D01*
X212835657Y-42238820D01*
X212966134Y-42052482D01*
X213062265Y-41846326D01*
X213062269Y-41846317D01*
X213121139Y-41626610D01*
X213121141Y-41626599D01*
X213136000Y-41456763D01*
X213136000Y-41250000D01*
X212151686Y-41250000D01*
X212163641Y-41238045D01*
X212221165Y-41125148D01*
X212240986Y-41000000D01*
X212221165Y-40874852D01*
X212163641Y-40761955D01*
X212151686Y-40750000D01*
X213136000Y-40750000D01*
X213136000Y-40543237D01*
X213121141Y-40373400D01*
X213121139Y-40373389D01*
X213062269Y-40153682D01*
X213062265Y-40153673D01*
X212966134Y-39947517D01*
X212835657Y-39761179D01*
X212674820Y-39600342D01*
X212488482Y-39469865D01*
X212282328Y-39373734D01*
X212086000Y-39321127D01*
X212086000Y-40684314D01*
X212074045Y-40672359D01*
X211961148Y-40614835D01*
X211867481Y-40600000D01*
X211804519Y-40600000D01*
X211710852Y-40614835D01*
X211597955Y-40672359D01*
X211586000Y-40684314D01*
X211586000Y-39321127D01*
X211585999Y-39321126D01*
X211492594Y-39346155D01*
X211422744Y-39344492D01*
X211364881Y-39305330D01*
X211337377Y-39241101D01*
X211336500Y-39226380D01*
X211336500Y-38864536D01*
X211356185Y-38797497D01*
X211408989Y-38751742D01*
X211478147Y-38741798D01*
X211492582Y-38744758D01*
X211609308Y-38776035D01*
X211771230Y-38790201D01*
X211835998Y-38795868D01*
X211836000Y-38795868D01*
X211836002Y-38795868D01*
X211892673Y-38790909D01*
X212062692Y-38776035D01*
X212282496Y-38717139D01*
X212488734Y-38620968D01*
X212675139Y-38490447D01*
X212836047Y-38329539D01*
X212966568Y-38143134D01*
X212993618Y-38085124D01*
X213039790Y-38032685D01*
X213106983Y-38013533D01*
X213173865Y-38033748D01*
X213218382Y-38085125D01*
X213245429Y-38143128D01*
X213245432Y-38143134D01*
X213375954Y-38329541D01*
X213536858Y-38490445D01*
X213536861Y-38490447D01*
X213723266Y-38620968D01*
X213929504Y-38717139D01*
X214149308Y-38776035D01*
X214311230Y-38790201D01*
X214375998Y-38795868D01*
X214376000Y-38795868D01*
X214376002Y-38795868D01*
X214432673Y-38790909D01*
X214602692Y-38776035D01*
X214822496Y-38717139D01*
X215028734Y-38620968D01*
X215215139Y-38490447D01*
X215376047Y-38329539D01*
X215506568Y-38143134D01*
X215533618Y-38085124D01*
X215579790Y-38032685D01*
X215646983Y-38013533D01*
X215713865Y-38033748D01*
X215758382Y-38085125D01*
X215785429Y-38143128D01*
X215785432Y-38143134D01*
X215915954Y-38329541D01*
X216076858Y-38490445D01*
X216076861Y-38490447D01*
X216263266Y-38620968D01*
X216469504Y-38717139D01*
X216689308Y-38776035D01*
X216851230Y-38790201D01*
X216915998Y-38795868D01*
X216916000Y-38795868D01*
X216916002Y-38795868D01*
X216972673Y-38790909D01*
X217142692Y-38776035D01*
X217362496Y-38717139D01*
X217568734Y-38620968D01*
X217755139Y-38490447D01*
X217916047Y-38329539D01*
X218046568Y-38143134D01*
X218073618Y-38085124D01*
X218119790Y-38032685D01*
X218186983Y-38013533D01*
X218253865Y-38033748D01*
X218298382Y-38085125D01*
X218325429Y-38143128D01*
X218325432Y-38143134D01*
X218455954Y-38329541D01*
X218616858Y-38490445D01*
X218616861Y-38490447D01*
X218803266Y-38620968D01*
X219009504Y-38717139D01*
X219229308Y-38776035D01*
X219391230Y-38790201D01*
X219455998Y-38795868D01*
X219456000Y-38795868D01*
X219456002Y-38795868D01*
X219512673Y-38790909D01*
X219682692Y-38776035D01*
X219902496Y-38717139D01*
X220108734Y-38620968D01*
X220295139Y-38490447D01*
X220456047Y-38329539D01*
X220586568Y-38143134D01*
X220613895Y-38084529D01*
X220660064Y-38032095D01*
X220727257Y-38012942D01*
X220794139Y-38033157D01*
X220838657Y-38084533D01*
X220865865Y-38142882D01*
X220996342Y-38329220D01*
X221157179Y-38490057D01*
X221343517Y-38620534D01*
X221549673Y-38716665D01*
X221549682Y-38716669D01*
X221745999Y-38769272D01*
X221746000Y-38769271D01*
X221746000Y-37806086D01*
X221757955Y-37818041D01*
X221870852Y-37875565D01*
X221964519Y-37890400D01*
X222027481Y-37890400D01*
X222121148Y-37875565D01*
X222234045Y-37818041D01*
X222246000Y-37806086D01*
X222246000Y-38769272D01*
X222442317Y-38716669D01*
X222442326Y-38716665D01*
X222648482Y-38620534D01*
X222834820Y-38490057D01*
X222995657Y-38329220D01*
X223126134Y-38142882D01*
X223222265Y-37936726D01*
X223222269Y-37936717D01*
X223274872Y-37740400D01*
X222311686Y-37740400D01*
X222323641Y-37728445D01*
X222381165Y-37615548D01*
X222400986Y-37490400D01*
X222381165Y-37365252D01*
X222323641Y-37252355D01*
X222311686Y-37240400D01*
X223274872Y-37240400D01*
X223274872Y-37240399D01*
X223222269Y-37044082D01*
X223222265Y-37044073D01*
X223126134Y-36837917D01*
X222995657Y-36651579D01*
X222834820Y-36490742D01*
X222648482Y-36360265D01*
X222442328Y-36264134D01*
X222246000Y-36211527D01*
X222246000Y-37174714D01*
X222234045Y-37162759D01*
X222121148Y-37105235D01*
X222027481Y-37090400D01*
X221964519Y-37090400D01*
X221870852Y-37105235D01*
X221757955Y-37162759D01*
X221746000Y-37174714D01*
X221746000Y-36211527D01*
X221549671Y-36264134D01*
X221343517Y-36360265D01*
X221157179Y-36490742D01*
X220996342Y-36651579D01*
X220865867Y-36837915D01*
X220838657Y-36896267D01*
X220792484Y-36948706D01*
X220725290Y-36967857D01*
X220658409Y-36947641D01*
X220613893Y-36896265D01*
X220586685Y-36837918D01*
X220586568Y-36837666D01*
X220456047Y-36651261D01*
X220456045Y-36651258D01*
X220295141Y-36490354D01*
X220108734Y-36359832D01*
X220108732Y-36359831D01*
X219902497Y-36263661D01*
X219902488Y-36263658D01*
X219682697Y-36204766D01*
X219682693Y-36204765D01*
X219682692Y-36204765D01*
X219682691Y-36204764D01*
X219682686Y-36204764D01*
X219456002Y-36184932D01*
X219455998Y-36184932D01*
X219229313Y-36204764D01*
X219229302Y-36204766D01*
X219009511Y-36263658D01*
X219009502Y-36263661D01*
X218803267Y-36359831D01*
X218803265Y-36359832D01*
X218616858Y-36490354D01*
X218455954Y-36651258D01*
X218325432Y-36837665D01*
X218325431Y-36837667D01*
X218298382Y-36895675D01*
X218252209Y-36948114D01*
X218185016Y-36967266D01*
X218118135Y-36947050D01*
X218073618Y-36895675D01*
X218046686Y-36837920D01*
X218046568Y-36837666D01*
X217916047Y-36651261D01*
X217916045Y-36651258D01*
X217755141Y-36490354D01*
X217568734Y-36359832D01*
X217568732Y-36359831D01*
X217362497Y-36263661D01*
X217362488Y-36263658D01*
X217142697Y-36204766D01*
X217142693Y-36204765D01*
X217142692Y-36204765D01*
X217142691Y-36204764D01*
X217142686Y-36204764D01*
X216916002Y-36184932D01*
X216915998Y-36184932D01*
X216689313Y-36204764D01*
X216689302Y-36204766D01*
X216469511Y-36263658D01*
X216469502Y-36263661D01*
X216263267Y-36359831D01*
X216263265Y-36359832D01*
X216076858Y-36490354D01*
X215915954Y-36651258D01*
X215785432Y-36837665D01*
X215785431Y-36837667D01*
X215758382Y-36895675D01*
X215712209Y-36948114D01*
X215645016Y-36967266D01*
X215578135Y-36947050D01*
X215533618Y-36895675D01*
X215506686Y-36837920D01*
X215506568Y-36837666D01*
X215376047Y-36651261D01*
X215376045Y-36651258D01*
X215215141Y-36490354D01*
X215028734Y-36359832D01*
X215028732Y-36359831D01*
X214822497Y-36263661D01*
X214822488Y-36263658D01*
X214602697Y-36204766D01*
X214602693Y-36204765D01*
X214602692Y-36204765D01*
X214602691Y-36204764D01*
X214602686Y-36204764D01*
X214376002Y-36184932D01*
X214375998Y-36184932D01*
X214149313Y-36204764D01*
X214149302Y-36204766D01*
X213929511Y-36263658D01*
X213929502Y-36263661D01*
X213723267Y-36359831D01*
X213723265Y-36359832D01*
X213536858Y-36490354D01*
X213375954Y-36651258D01*
X213245432Y-36837665D01*
X213245431Y-36837667D01*
X213218382Y-36895675D01*
X213172209Y-36948114D01*
X213105016Y-36967266D01*
X213038135Y-36947050D01*
X212993618Y-36895675D01*
X212966686Y-36837920D01*
X212966568Y-36837666D01*
X212836047Y-36651261D01*
X212836045Y-36651258D01*
X212675141Y-36490354D01*
X212488734Y-36359832D01*
X212488732Y-36359831D01*
X212282497Y-36263661D01*
X212282488Y-36263658D01*
X212062697Y-36204766D01*
X212062693Y-36204765D01*
X212062692Y-36204765D01*
X212062691Y-36204764D01*
X212062686Y-36204764D01*
X211836002Y-36184932D01*
X211835998Y-36184932D01*
X211609313Y-36204764D01*
X211609302Y-36204766D01*
X211492593Y-36236038D01*
X211422743Y-36234375D01*
X211364881Y-36195212D01*
X211337377Y-36130983D01*
X211336500Y-36116263D01*
X211336500Y-35154136D01*
X211356185Y-35087097D01*
X211408989Y-35041342D01*
X211478147Y-35031398D01*
X211492582Y-35034358D01*
X211609308Y-35065635D01*
X211771230Y-35079801D01*
X211835998Y-35085468D01*
X211836000Y-35085468D01*
X211836002Y-35085468D01*
X211892673Y-35080509D01*
X212062692Y-35065635D01*
X212282496Y-35006739D01*
X212488734Y-34910568D01*
X212675139Y-34780047D01*
X212836047Y-34619139D01*
X212966568Y-34432734D01*
X213062739Y-34226496D01*
X213121635Y-34006692D01*
X213136500Y-33836784D01*
X213136500Y-32923216D01*
X213121635Y-32753308D01*
X213062739Y-32533504D01*
X212966568Y-32327266D01*
X212836047Y-32140861D01*
X212836045Y-32140858D01*
X212675141Y-31979954D01*
X212488734Y-31849432D01*
X212488732Y-31849431D01*
X212282497Y-31753261D01*
X212282488Y-31753258D01*
X212062697Y-31694366D01*
X212062693Y-31694365D01*
X212062692Y-31694365D01*
X212062691Y-31694364D01*
X212062686Y-31694364D01*
X211836002Y-31674532D01*
X211835998Y-31674532D01*
X211609313Y-31694364D01*
X211609302Y-31694366D01*
X211389511Y-31753258D01*
X211389502Y-31753261D01*
X211183267Y-31849431D01*
X211183265Y-31849432D01*
X210996858Y-31979954D01*
X210835954Y-32140858D01*
X210705432Y-32327265D01*
X210705431Y-32327267D01*
X210693220Y-32353454D01*
X210681876Y-32377783D01*
X210678382Y-32385275D01*
X210632209Y-32437714D01*
X210565016Y-32456866D01*
X210498135Y-32436650D01*
X210453618Y-32385275D01*
X210453479Y-32384977D01*
X210426568Y-32327266D01*
X210296047Y-32140861D01*
X210296045Y-32140858D01*
X210135141Y-31979954D01*
X209948734Y-31849432D01*
X209948732Y-31849431D01*
X209742497Y-31753261D01*
X209742488Y-31753258D01*
X209522697Y-31694366D01*
X209522693Y-31694365D01*
X209522692Y-31694365D01*
X209522691Y-31694364D01*
X209522686Y-31694364D01*
X209296002Y-31674532D01*
X209295998Y-31674532D01*
X209069313Y-31694364D01*
X209069302Y-31694366D01*
X208849511Y-31753258D01*
X208849502Y-31753261D01*
X208643267Y-31849431D01*
X208643265Y-31849432D01*
X208456858Y-31979954D01*
X208295954Y-32140858D01*
X208165432Y-32327265D01*
X208165431Y-32327267D01*
X208153220Y-32353454D01*
X208141876Y-32377783D01*
X208138382Y-32385275D01*
X208092209Y-32437714D01*
X208025016Y-32456866D01*
X207958135Y-32436650D01*
X207913618Y-32385275D01*
X207913479Y-32384977D01*
X207886568Y-32327266D01*
X207756047Y-32140861D01*
X207756045Y-32140858D01*
X207595141Y-31979954D01*
X207408734Y-31849432D01*
X207408732Y-31849431D01*
X207202497Y-31753261D01*
X207202488Y-31753258D01*
X206982697Y-31694366D01*
X206982693Y-31694365D01*
X206982692Y-31694365D01*
X206982691Y-31694364D01*
X206982686Y-31694364D01*
X206756002Y-31674532D01*
X206755998Y-31674532D01*
X206529313Y-31694364D01*
X206529302Y-31694366D01*
X206309511Y-31753258D01*
X206309502Y-31753261D01*
X206103267Y-31849431D01*
X206103265Y-31849432D01*
X205916858Y-31979954D01*
X205755954Y-32140858D01*
X205625432Y-32327265D01*
X205625431Y-32327267D01*
X205613220Y-32353454D01*
X205601876Y-32377783D01*
X205598382Y-32385275D01*
X205552209Y-32437714D01*
X205485016Y-32456866D01*
X205418135Y-32436650D01*
X205373618Y-32385275D01*
X205373479Y-32384977D01*
X205346568Y-32327266D01*
X205216047Y-32140861D01*
X205216045Y-32140858D01*
X205055141Y-31979954D01*
X204868734Y-31849432D01*
X204868732Y-31849431D01*
X204662497Y-31753261D01*
X204662488Y-31753258D01*
X204442697Y-31694366D01*
X204442693Y-31694365D01*
X204442692Y-31694365D01*
X204442691Y-31694364D01*
X204442686Y-31694364D01*
X204216002Y-31674532D01*
X204215998Y-31674532D01*
X203989313Y-31694364D01*
X203989302Y-31694366D01*
X203769511Y-31753258D01*
X203769502Y-31753261D01*
X203563267Y-31849431D01*
X203563265Y-31849432D01*
X203376858Y-31979954D01*
X203215954Y-32140858D01*
X203085432Y-32327265D01*
X203085431Y-32327267D01*
X203073220Y-32353454D01*
X203061876Y-32377783D01*
X203058382Y-32385275D01*
X203012209Y-32437714D01*
X202945016Y-32456866D01*
X202878135Y-32436650D01*
X202833618Y-32385275D01*
X202833479Y-32384977D01*
X202806568Y-32327266D01*
X202676047Y-32140861D01*
X202676045Y-32140858D01*
X202515141Y-31979954D01*
X202328734Y-31849432D01*
X202328732Y-31849431D01*
X202122497Y-31753261D01*
X202122488Y-31753258D01*
X201902697Y-31694366D01*
X201902693Y-31694365D01*
X201902692Y-31694365D01*
X201902691Y-31694364D01*
X201902686Y-31694364D01*
X201676002Y-31674532D01*
X201675998Y-31674532D01*
X201449313Y-31694364D01*
X201449302Y-31694366D01*
X201229511Y-31753258D01*
X201229502Y-31753261D01*
X201023267Y-31849431D01*
X201023265Y-31849432D01*
X200836858Y-31979954D01*
X200675954Y-32140858D01*
X200545432Y-32327265D01*
X200545431Y-32327267D01*
X200533220Y-32353454D01*
X200521876Y-32377783D01*
X200518382Y-32385275D01*
X200472209Y-32437714D01*
X200405016Y-32456866D01*
X200338135Y-32436650D01*
X200293618Y-32385275D01*
X200293479Y-32384977D01*
X200266568Y-32327266D01*
X200136047Y-32140861D01*
X200136045Y-32140858D01*
X199975141Y-31979954D01*
X199788734Y-31849432D01*
X199788732Y-31849431D01*
X199582497Y-31753261D01*
X199582488Y-31753258D01*
X199362697Y-31694366D01*
X199362693Y-31694365D01*
X199362692Y-31694365D01*
X199362691Y-31694364D01*
X199362686Y-31694364D01*
X199136002Y-31674532D01*
X199135998Y-31674532D01*
X198909313Y-31694364D01*
X198909302Y-31694366D01*
X198689511Y-31753258D01*
X198689502Y-31753261D01*
X198483267Y-31849431D01*
X198483265Y-31849432D01*
X198296858Y-31979954D01*
X198135954Y-32140858D01*
X198005432Y-32327265D01*
X198005431Y-32327267D01*
X197993220Y-32353454D01*
X197981876Y-32377783D01*
X197978382Y-32385275D01*
X197932209Y-32437714D01*
X197865016Y-32456866D01*
X197798135Y-32436650D01*
X197753618Y-32385275D01*
X197753479Y-32384977D01*
X197726568Y-32327266D01*
X197596047Y-32140861D01*
X197596045Y-32140858D01*
X197435141Y-31979954D01*
X197248734Y-31849432D01*
X197248732Y-31849431D01*
X197042497Y-31753261D01*
X197042488Y-31753258D01*
X196822697Y-31694366D01*
X196822693Y-31694365D01*
X196822692Y-31694365D01*
X196822691Y-31694364D01*
X196822686Y-31694364D01*
X196596002Y-31674532D01*
X196595998Y-31674532D01*
X196369313Y-31694364D01*
X196369302Y-31694366D01*
X196149511Y-31753258D01*
X196149502Y-31753261D01*
X195943267Y-31849431D01*
X195943265Y-31849432D01*
X195756858Y-31979954D01*
X195595954Y-32140858D01*
X195465432Y-32327265D01*
X195465431Y-32327267D01*
X195453220Y-32353454D01*
X195441876Y-32377783D01*
X195438382Y-32385275D01*
X195392209Y-32437714D01*
X195325016Y-32456866D01*
X195258135Y-32436650D01*
X195213618Y-32385275D01*
X195213479Y-32384977D01*
X195186568Y-32327266D01*
X195056047Y-32140861D01*
X195056045Y-32140858D01*
X194895141Y-31979954D01*
X194708734Y-31849432D01*
X194708732Y-31849431D01*
X194502497Y-31753261D01*
X194502488Y-31753258D01*
X194282697Y-31694366D01*
X194282693Y-31694365D01*
X194282692Y-31694365D01*
X194282691Y-31694364D01*
X194282686Y-31694364D01*
X194056002Y-31674532D01*
X194055998Y-31674532D01*
X193829313Y-31694364D01*
X193829302Y-31694366D01*
X193609511Y-31753258D01*
X193609502Y-31753261D01*
X193403267Y-31849431D01*
X193403265Y-31849432D01*
X193216858Y-31979954D01*
X193055954Y-32140858D01*
X192925432Y-32327265D01*
X192925431Y-32327267D01*
X192913220Y-32353454D01*
X192901876Y-32377783D01*
X192898382Y-32385275D01*
X192852209Y-32437714D01*
X192785016Y-32456866D01*
X192718135Y-32436650D01*
X192673618Y-32385275D01*
X192673479Y-32384977D01*
X192646568Y-32327266D01*
X192516047Y-32140861D01*
X192516045Y-32140858D01*
X192355141Y-31979954D01*
X192168734Y-31849432D01*
X192168732Y-31849431D01*
X191962497Y-31753261D01*
X191962488Y-31753258D01*
X191742697Y-31694366D01*
X191742693Y-31694365D01*
X191742692Y-31694365D01*
X191742691Y-31694364D01*
X191742686Y-31694364D01*
X191516002Y-31674532D01*
X191515998Y-31674532D01*
X191289313Y-31694364D01*
X191289302Y-31694366D01*
X191069511Y-31753258D01*
X191069502Y-31753261D01*
X190863267Y-31849431D01*
X190863265Y-31849432D01*
X190676858Y-31979954D01*
X190515954Y-32140858D01*
X190385432Y-32327265D01*
X190385431Y-32327267D01*
X190373220Y-32353454D01*
X190361876Y-32377783D01*
X190358382Y-32385275D01*
X190312209Y-32437714D01*
X190245016Y-32456866D01*
X190178135Y-32436650D01*
X190133618Y-32385275D01*
X190133479Y-32384977D01*
X190106568Y-32327266D01*
X189976047Y-32140861D01*
X189976045Y-32140858D01*
X189815141Y-31979954D01*
X189628734Y-31849432D01*
X189628732Y-31849431D01*
X189422497Y-31753261D01*
X189422488Y-31753258D01*
X189202697Y-31694366D01*
X189202693Y-31694365D01*
X189202692Y-31694365D01*
X189202691Y-31694364D01*
X189202686Y-31694364D01*
X188976002Y-31674532D01*
X188975998Y-31674532D01*
X188749313Y-31694364D01*
X188749302Y-31694366D01*
X188529511Y-31753258D01*
X188529502Y-31753261D01*
X188323267Y-31849431D01*
X188323265Y-31849432D01*
X188136858Y-31979954D01*
X187975954Y-32140858D01*
X187845432Y-32327265D01*
X187845431Y-32327267D01*
X187749261Y-32533502D01*
X187749258Y-32533511D01*
X187690366Y-32753302D01*
X187690364Y-32753312D01*
X187675500Y-32923216D01*
X187675500Y-33836784D01*
X187690364Y-34006687D01*
X187690366Y-34006697D01*
X187749258Y-34226488D01*
X187749261Y-34226497D01*
X187845431Y-34432732D01*
X187845432Y-34432734D01*
X187975954Y-34619141D01*
X188136858Y-34780045D01*
X188136861Y-34780047D01*
X188323266Y-34910568D01*
X188529504Y-35006739D01*
X188529509Y-35006740D01*
X188529511Y-35006741D01*
X188582415Y-35020916D01*
X188749308Y-35065635D01*
X188911230Y-35079801D01*
X188975998Y-35085468D01*
X188976000Y-35085468D01*
X188976002Y-35085468D01*
X189032673Y-35080509D01*
X189202692Y-35065635D01*
X189319408Y-35034361D01*
X189389256Y-35036024D01*
X189447119Y-35075186D01*
X189474623Y-35139415D01*
X189475500Y-35154136D01*
X189475500Y-36116263D01*
X189455815Y-36183302D01*
X189403011Y-36229057D01*
X189333853Y-36239001D01*
X189319407Y-36236038D01*
X189202697Y-36204766D01*
X189202693Y-36204765D01*
X189202692Y-36204765D01*
X189202691Y-36204764D01*
X189202686Y-36204764D01*
X188976002Y-36184932D01*
X188975998Y-36184932D01*
X188749313Y-36204764D01*
X188749302Y-36204766D01*
X188529511Y-36263658D01*
X188529502Y-36263661D01*
X188323267Y-36359831D01*
X188323265Y-36359832D01*
X188136858Y-36490354D01*
X187975954Y-36651258D01*
X187845432Y-36837665D01*
X187845431Y-36837667D01*
X187818382Y-36895675D01*
X187772209Y-36948114D01*
X187705016Y-36967266D01*
X187638135Y-36947050D01*
X187593618Y-36895675D01*
X187566686Y-36837920D01*
X187566568Y-36837666D01*
X187436047Y-36651261D01*
X187436045Y-36651258D01*
X187275141Y-36490354D01*
X187088734Y-36359832D01*
X187088732Y-36359831D01*
X186882497Y-36263661D01*
X186882488Y-36263658D01*
X186662697Y-36204766D01*
X186662693Y-36204765D01*
X186662692Y-36204765D01*
X186662691Y-36204764D01*
X186662686Y-36204764D01*
X186436002Y-36184932D01*
X186435998Y-36184932D01*
X186209313Y-36204764D01*
X186209302Y-36204766D01*
X185989511Y-36263658D01*
X185989502Y-36263662D01*
X185793247Y-36355177D01*
X185724169Y-36365669D01*
X185660385Y-36337149D01*
X185638793Y-36313237D01*
X185624183Y-36292071D01*
X185612541Y-36281757D01*
X185577750Y-36250935D01*
X185575056Y-36248399D01*
X182718651Y-33391994D01*
X182685166Y-33330671D01*
X182686558Y-33272217D01*
X182691063Y-33255408D01*
X182711659Y-33020000D01*
X182691063Y-32784592D01*
X182629903Y-32556337D01*
X182530035Y-32342171D01*
X182524425Y-32334158D01*
X182394494Y-32148597D01*
X182227402Y-31981506D01*
X182227395Y-31981501D01*
X182225184Y-31979953D01*
X182150518Y-31927671D01*
X182033834Y-31845967D01*
X182033830Y-31845965D01*
X182033828Y-31845964D01*
X181819663Y-31746097D01*
X181819659Y-31746096D01*
X181819655Y-31746094D01*
X181591413Y-31684938D01*
X181591403Y-31684936D01*
X181356001Y-31664341D01*
X181355999Y-31664341D01*
X181120596Y-31684936D01*
X181120586Y-31684938D01*
X180892344Y-31746094D01*
X180892335Y-31746098D01*
X180678171Y-31845964D01*
X180678169Y-31845965D01*
X180484597Y-31981505D01*
X180317505Y-32148597D01*
X180187575Y-32334158D01*
X180132998Y-32377783D01*
X180063500Y-32384977D01*
X180001145Y-32353454D01*
X179984425Y-32334158D01*
X179854494Y-32148597D01*
X179687402Y-31981506D01*
X179687395Y-31981501D01*
X179685184Y-31979953D01*
X179610518Y-31927671D01*
X179493834Y-31845967D01*
X179493830Y-31845965D01*
X179493828Y-31845964D01*
X179279663Y-31746097D01*
X179279659Y-31746096D01*
X179279655Y-31746094D01*
X179051413Y-31684938D01*
X179051403Y-31684936D01*
X178816001Y-31664341D01*
X178815999Y-31664341D01*
X178580596Y-31684936D01*
X178580586Y-31684938D01*
X178352344Y-31746094D01*
X178352335Y-31746098D01*
X178138171Y-31845964D01*
X178138169Y-31845965D01*
X177944600Y-31981503D01*
X177822673Y-32103430D01*
X177761350Y-32136914D01*
X177691658Y-32131930D01*
X177635725Y-32090058D01*
X177618810Y-32059081D01*
X177569797Y-31927671D01*
X177569793Y-31927664D01*
X177483547Y-31812455D01*
X177483544Y-31812452D01*
X177368335Y-31726206D01*
X177368328Y-31726202D01*
X177233482Y-31675908D01*
X177233483Y-31675908D01*
X177173883Y-31669501D01*
X177173881Y-31669500D01*
X177173873Y-31669500D01*
X177173864Y-31669500D01*
X175378129Y-31669500D01*
X175378123Y-31669501D01*
X175318516Y-31675908D01*
X175183671Y-31726202D01*
X175183664Y-31726206D01*
X175068455Y-31812452D01*
X175068452Y-31812455D01*
X174982206Y-31927664D01*
X174982202Y-31927671D01*
X174931908Y-32062517D01*
X174925501Y-32122116D01*
X174925500Y-32122135D01*
X174925500Y-33917870D01*
X174925501Y-33917876D01*
X174931908Y-33977483D01*
X174982202Y-34112328D01*
X174982206Y-34112335D01*
X175068452Y-34227544D01*
X175068455Y-34227547D01*
X175183664Y-34313793D01*
X175183671Y-34313797D01*
X175318517Y-34364091D01*
X175318516Y-34364091D01*
X175325444Y-34364835D01*
X175378127Y-34370500D01*
X177173872Y-34370499D01*
X177233483Y-34364091D01*
X177368331Y-34313796D01*
X177483546Y-34227546D01*
X177569796Y-34112331D01*
X177618810Y-33980916D01*
X177660681Y-33924984D01*
X177726145Y-33900566D01*
X177794418Y-33915417D01*
X177822673Y-33936569D01*
X177944599Y-34058495D01*
X178041384Y-34126265D01*
X178138165Y-34194032D01*
X178138167Y-34194033D01*
X178138170Y-34194035D01*
X178352337Y-34293903D01*
X178580592Y-34355063D01*
X178757034Y-34370500D01*
X178815999Y-34375659D01*
X178816000Y-34375659D01*
X178816001Y-34375659D01*
X178874966Y-34370500D01*
X179051408Y-34355063D01*
X179279663Y-34293903D01*
X179493830Y-34194035D01*
X179687401Y-34058495D01*
X179854495Y-33891401D01*
X179984425Y-33705842D01*
X180039002Y-33662217D01*
X180108500Y-33655023D01*
X180170855Y-33686546D01*
X180187575Y-33705842D01*
X180279261Y-33836784D01*
X180317505Y-33891401D01*
X180484599Y-34058495D01*
X180581384Y-34126265D01*
X180678165Y-34194032D01*
X180678167Y-34194033D01*
X180678170Y-34194035D01*
X180892337Y-34293903D01*
X181120592Y-34355063D01*
X181297034Y-34370500D01*
X181355999Y-34375659D01*
X181356000Y-34375659D01*
X181356001Y-34375659D01*
X181414966Y-34370500D01*
X181591408Y-34355063D01*
X181608216Y-34350559D01*
X181678064Y-34352218D01*
X181727994Y-34382651D01*
X183433059Y-36087716D01*
X183466544Y-36149039D01*
X183461560Y-36218731D01*
X183419688Y-36274664D01*
X183397783Y-36287779D01*
X183243267Y-36359831D01*
X183243265Y-36359832D01*
X183056858Y-36490354D01*
X182895954Y-36651258D01*
X182765432Y-36837665D01*
X182765431Y-36837667D01*
X182738382Y-36895675D01*
X182692209Y-36948114D01*
X182625016Y-36967266D01*
X182558135Y-36947050D01*
X182513618Y-36895675D01*
X182486686Y-36837920D01*
X182486568Y-36837666D01*
X182356047Y-36651261D01*
X182356045Y-36651258D01*
X182195141Y-36490354D01*
X182008734Y-36359832D01*
X182008732Y-36359831D01*
X181802497Y-36263661D01*
X181802488Y-36263658D01*
X181582697Y-36204766D01*
X181582693Y-36204765D01*
X181582692Y-36204765D01*
X181582691Y-36204764D01*
X181582686Y-36204764D01*
X181356002Y-36184932D01*
X181355998Y-36184932D01*
X181129313Y-36204764D01*
X181129302Y-36204766D01*
X180909511Y-36263658D01*
X180909502Y-36263661D01*
X180703267Y-36359831D01*
X180703265Y-36359832D01*
X180516858Y-36490354D01*
X180355954Y-36651258D01*
X180225433Y-36837664D01*
X180225432Y-36837666D01*
X180225315Y-36837918D01*
X180198106Y-36896267D01*
X180151933Y-36948706D01*
X180084739Y-36967857D01*
X180017858Y-36947641D01*
X179973342Y-36896265D01*
X179946135Y-36837920D01*
X179946134Y-36837918D01*
X179815657Y-36651579D01*
X179654820Y-36490742D01*
X179468482Y-36360265D01*
X179262328Y-36264134D01*
X179066000Y-36211527D01*
X179066000Y-37174714D01*
X179054045Y-37162759D01*
X178941148Y-37105235D01*
X178847481Y-37090400D01*
X178784519Y-37090400D01*
X178690852Y-37105235D01*
X178577955Y-37162759D01*
X178566000Y-37174714D01*
X178566000Y-36211527D01*
X178369671Y-36264134D01*
X178163517Y-36360265D01*
X177977179Y-36490742D01*
X177816342Y-36651579D01*
X177685867Y-36837915D01*
X177658657Y-36896267D01*
X177612484Y-36948706D01*
X177545290Y-36967857D01*
X177478409Y-36947641D01*
X177433893Y-36896265D01*
X177406685Y-36837918D01*
X177406568Y-36837666D01*
X177276047Y-36651261D01*
X177276045Y-36651258D01*
X177115141Y-36490354D01*
X176928734Y-36359832D01*
X176928732Y-36359831D01*
X176722497Y-36263661D01*
X176722488Y-36263658D01*
X176502697Y-36204766D01*
X176502693Y-36204765D01*
X176502692Y-36204765D01*
X176502691Y-36204764D01*
X176502686Y-36204764D01*
X176276002Y-36184932D01*
X176275998Y-36184932D01*
X176049313Y-36204764D01*
X176049302Y-36204766D01*
X175829511Y-36263658D01*
X175829502Y-36263661D01*
X175623267Y-36359831D01*
X175623265Y-36359832D01*
X175436858Y-36490354D01*
X175275954Y-36651258D01*
X175145432Y-36837665D01*
X175145431Y-36837667D01*
X175118382Y-36895675D01*
X175072209Y-36948114D01*
X175005016Y-36967266D01*
X174938135Y-36947050D01*
X174893618Y-36895675D01*
X174866686Y-36837920D01*
X174866568Y-36837666D01*
X174736047Y-36651261D01*
X174736045Y-36651258D01*
X174575141Y-36490354D01*
X174388734Y-36359832D01*
X174388732Y-36359831D01*
X174182497Y-36263661D01*
X174182488Y-36263658D01*
X173962697Y-36204766D01*
X173962693Y-36204765D01*
X173962692Y-36204765D01*
X173962691Y-36204764D01*
X173962686Y-36204764D01*
X173736002Y-36184932D01*
X173735998Y-36184932D01*
X173509313Y-36204764D01*
X173509302Y-36204766D01*
X173289511Y-36263658D01*
X173289502Y-36263661D01*
X173083267Y-36359831D01*
X173083265Y-36359832D01*
X172896858Y-36490354D01*
X172735954Y-36651258D01*
X172605432Y-36837665D01*
X172605431Y-36837667D01*
X172509261Y-37043902D01*
X172509258Y-37043911D01*
X172450366Y-37263702D01*
X172450364Y-37263713D01*
X172430532Y-37490398D01*
X172430532Y-37490401D01*
X172450364Y-37717086D01*
X172450366Y-37717097D01*
X172509258Y-37936888D01*
X172509261Y-37936897D01*
X172605431Y-38143132D01*
X172605432Y-38143134D01*
X172735954Y-38329541D01*
X172896858Y-38490445D01*
X172896861Y-38490447D01*
X173083266Y-38620968D01*
X173289504Y-38717139D01*
X173509308Y-38776035D01*
X173671230Y-38790201D01*
X173735998Y-38795868D01*
X173736000Y-38795868D01*
X173736002Y-38795868D01*
X173792673Y-38790909D01*
X173962692Y-38776035D01*
X174182496Y-38717139D01*
X174388734Y-38620968D01*
X174575139Y-38490447D01*
X174736047Y-38329539D01*
X174866568Y-38143134D01*
X174893618Y-38085124D01*
X174939790Y-38032685D01*
X175006983Y-38013533D01*
X175073865Y-38033748D01*
X175118382Y-38085125D01*
X175145429Y-38143128D01*
X175145432Y-38143134D01*
X175275954Y-38329541D01*
X175436858Y-38490445D01*
X175436861Y-38490447D01*
X175623266Y-38620968D01*
X175829504Y-38717139D01*
X176049308Y-38776035D01*
X176211230Y-38790201D01*
X176275998Y-38795868D01*
X176276000Y-38795868D01*
X176276002Y-38795868D01*
X176332673Y-38790909D01*
X176502692Y-38776035D01*
X176722496Y-38717139D01*
X176928734Y-38620968D01*
X177115139Y-38490447D01*
X177276047Y-38329539D01*
X177406568Y-38143134D01*
X177433895Y-38084529D01*
X177480064Y-38032095D01*
X177547257Y-38012942D01*
X177614139Y-38033157D01*
X177658657Y-38084533D01*
X177685865Y-38142882D01*
X177816342Y-38329220D01*
X177977179Y-38490057D01*
X178163517Y-38620534D01*
X178369673Y-38716665D01*
X178369682Y-38716669D01*
X178565999Y-38769272D01*
X178566000Y-38769271D01*
X178566000Y-37806086D01*
X178577955Y-37818041D01*
X178690852Y-37875565D01*
X178784519Y-37890400D01*
X178847481Y-37890400D01*
X178941148Y-37875565D01*
X179054045Y-37818041D01*
X179066000Y-37806086D01*
X179066000Y-38769272D01*
X179262317Y-38716669D01*
X179262326Y-38716665D01*
X179468482Y-38620534D01*
X179654820Y-38490057D01*
X179815657Y-38329220D01*
X179946132Y-38142884D01*
X179973341Y-38084534D01*
X180019513Y-38032095D01*
X180086707Y-38012942D01*
X180153588Y-38033157D01*
X180198106Y-38084533D01*
X180225431Y-38143132D01*
X180225432Y-38143134D01*
X180355954Y-38329541D01*
X180516858Y-38490445D01*
X180516861Y-38490447D01*
X180703266Y-38620968D01*
X180909504Y-38717139D01*
X181129308Y-38776035D01*
X181291230Y-38790201D01*
X181355998Y-38795868D01*
X181356000Y-38795868D01*
X181356002Y-38795868D01*
X181412673Y-38790909D01*
X181582692Y-38776035D01*
X181802496Y-38717139D01*
X182008734Y-38620968D01*
X182195139Y-38490447D01*
X182356047Y-38329539D01*
X182486568Y-38143134D01*
X182513618Y-38085124D01*
X182559790Y-38032685D01*
X182626983Y-38013533D01*
X182693865Y-38033748D01*
X182738382Y-38085125D01*
X182765429Y-38143128D01*
X182765432Y-38143134D01*
X182895954Y-38329541D01*
X183056858Y-38490445D01*
X183056861Y-38490447D01*
X183243266Y-38620968D01*
X183449504Y-38717139D01*
X183669308Y-38776035D01*
X183831230Y-38790201D01*
X183895998Y-38795868D01*
X183896000Y-38795868D01*
X183896002Y-38795868D01*
X183952673Y-38790909D01*
X184122692Y-38776035D01*
X184342496Y-38717139D01*
X184399841Y-38690397D01*
X184468917Y-38679906D01*
X184532702Y-38708425D01*
X184554296Y-38732341D01*
X184567812Y-38751923D01*
X184567816Y-38751927D01*
X184567817Y-38751928D01*
X184614250Y-38793063D01*
X184616941Y-38795597D01*
X185975017Y-40153673D01*
X187039181Y-41217837D01*
X187072666Y-41279160D01*
X187075500Y-41305518D01*
X187075500Y-51399019D01*
X187055815Y-51466058D01*
X187003011Y-51511813D01*
X186933853Y-51521757D01*
X186899097Y-51511402D01*
X186882498Y-51503662D01*
X186882488Y-51503658D01*
X186662697Y-51444766D01*
X186662693Y-51444765D01*
X186662692Y-51444765D01*
X186662691Y-51444764D01*
X186662686Y-51444764D01*
X186436002Y-51424932D01*
X186435998Y-51424932D01*
X186209313Y-51444764D01*
X186209302Y-51444766D01*
X185989511Y-51503658D01*
X185989502Y-51503661D01*
X185783267Y-51599831D01*
X185783265Y-51599832D01*
X185596858Y-51730354D01*
X185435954Y-51891258D01*
X185305432Y-52077665D01*
X185305431Y-52077667D01*
X185278382Y-52135675D01*
X185232209Y-52188114D01*
X185165016Y-52207266D01*
X185098135Y-52187050D01*
X185053618Y-52135675D01*
X185026568Y-52077666D01*
X184896047Y-51891261D01*
X184896045Y-51891258D01*
X184735141Y-51730354D01*
X184548734Y-51599832D01*
X184548732Y-51599831D01*
X184342497Y-51503661D01*
X184342488Y-51503658D01*
X184122697Y-51444766D01*
X184122693Y-51444765D01*
X184122692Y-51444765D01*
X184122691Y-51444764D01*
X184122686Y-51444764D01*
X183896002Y-51424932D01*
X183895998Y-51424932D01*
X183669313Y-51444764D01*
X183669302Y-51444766D01*
X183449511Y-51503658D01*
X183449502Y-51503661D01*
X183243267Y-51599831D01*
X183243265Y-51599832D01*
X183056858Y-51730354D01*
X182895954Y-51891258D01*
X182765432Y-52077665D01*
X182765431Y-52077667D01*
X182738382Y-52135675D01*
X182692209Y-52188114D01*
X182625016Y-52207266D01*
X182558135Y-52187050D01*
X182513618Y-52135675D01*
X182486568Y-52077666D01*
X182356047Y-51891261D01*
X182356045Y-51891258D01*
X182195141Y-51730354D01*
X182008734Y-51599832D01*
X182008732Y-51599831D01*
X181802497Y-51503661D01*
X181802488Y-51503658D01*
X181582697Y-51444766D01*
X181582693Y-51444765D01*
X181582692Y-51444765D01*
X181582691Y-51444764D01*
X181582686Y-51444764D01*
X181356002Y-51424932D01*
X181355998Y-51424932D01*
X181129313Y-51444764D01*
X181129302Y-51444766D01*
X180909511Y-51503658D01*
X180909502Y-51503661D01*
X180703267Y-51599831D01*
X180703265Y-51599832D01*
X180516858Y-51730354D01*
X180355954Y-51891258D01*
X180225432Y-52077665D01*
X180225431Y-52077667D01*
X180198382Y-52135675D01*
X180152209Y-52188114D01*
X180085016Y-52207266D01*
X180018135Y-52187050D01*
X179973618Y-52135675D01*
X179946568Y-52077666D01*
X179816047Y-51891261D01*
X179816045Y-51891258D01*
X179655141Y-51730354D01*
X179468734Y-51599832D01*
X179468732Y-51599831D01*
X179262497Y-51503661D01*
X179262488Y-51503658D01*
X179042697Y-51444766D01*
X179042693Y-51444765D01*
X179042692Y-51444765D01*
X179042691Y-51444764D01*
X179042686Y-51444764D01*
X178816002Y-51424932D01*
X178815998Y-51424932D01*
X178589313Y-51444764D01*
X178589302Y-51444766D01*
X178369511Y-51503658D01*
X178369502Y-51503661D01*
X178163267Y-51599831D01*
X178163265Y-51599832D01*
X177976858Y-51730354D01*
X177815954Y-51891258D01*
X177685432Y-52077665D01*
X177685431Y-52077667D01*
X177658382Y-52135675D01*
X177612209Y-52188114D01*
X177545016Y-52207266D01*
X177478135Y-52187050D01*
X177433618Y-52135675D01*
X177406568Y-52077666D01*
X177276047Y-51891261D01*
X177276045Y-51891258D01*
X177115141Y-51730354D01*
X176928734Y-51599832D01*
X176928732Y-51599831D01*
X176722497Y-51503661D01*
X176722488Y-51503658D01*
X176502697Y-51444766D01*
X176502693Y-51444765D01*
X176502692Y-51444765D01*
X176502691Y-51444764D01*
X176502686Y-51444764D01*
X176276002Y-51424932D01*
X176275998Y-51424932D01*
X176049313Y-51444764D01*
X176049302Y-51444766D01*
X175829511Y-51503658D01*
X175829502Y-51503661D01*
X175623267Y-51599831D01*
X175623265Y-51599832D01*
X175436858Y-51730354D01*
X175275951Y-51891261D01*
X175258287Y-51916488D01*
X175203710Y-51960112D01*
X175134211Y-51967304D01*
X175071857Y-51935780D01*
X175036445Y-51875550D01*
X175033425Y-51858618D01*
X175029598Y-51823027D01*
X175029596Y-51823020D01*
X174979354Y-51688313D01*
X174979350Y-51688306D01*
X174893190Y-51573212D01*
X174893187Y-51573209D01*
X174778093Y-51487049D01*
X174778086Y-51487045D01*
X174643379Y-51436803D01*
X174643372Y-51436801D01*
X174583844Y-51430400D01*
X173986000Y-51430400D01*
X173986000Y-52414714D01*
X173974045Y-52402759D01*
X173861148Y-52345235D01*
X173767481Y-52330400D01*
X173704519Y-52330400D01*
X173610852Y-52345235D01*
X173497955Y-52402759D01*
X173486000Y-52414714D01*
X173486000Y-51430400D01*
X172888155Y-51430400D01*
X172828627Y-51436801D01*
X172828620Y-51436803D01*
X172693913Y-51487045D01*
X172693906Y-51487049D01*
X172578812Y-51573209D01*
X172578809Y-51573212D01*
X172492647Y-51688309D01*
X172490627Y-51692009D01*
X172487647Y-51694988D01*
X172487331Y-51695411D01*
X172487270Y-51695365D01*
X172441220Y-51741412D01*
X172372946Y-51756262D01*
X172307483Y-51731842D01*
X172294116Y-51720259D01*
X172262163Y-51688306D01*
X172094798Y-51520941D01*
X172092264Y-51518250D01*
X172051129Y-51471817D01*
X172051128Y-51471816D01*
X172051124Y-51471812D01*
X172000096Y-51436591D01*
X171997087Y-51434377D01*
X171969706Y-51412926D01*
X171948260Y-51396124D01*
X171948255Y-51396120D01*
X171939013Y-51391961D01*
X171919466Y-51380936D01*
X171911131Y-51375183D01*
X171911132Y-51375183D01*
X171911130Y-51375182D01*
X171853141Y-51353189D01*
X171849690Y-51351759D01*
X171793130Y-51326304D01*
X171783146Y-51324474D01*
X171761543Y-51318451D01*
X171752074Y-51314860D01*
X171752070Y-51314859D01*
X171690513Y-51307384D01*
X171686812Y-51306821D01*
X171625808Y-51295642D01*
X171625803Y-51295642D01*
X171563897Y-51299387D01*
X171560152Y-51299500D01*
X166209036Y-51299500D01*
X166205292Y-51299387D01*
X166143397Y-51295643D01*
X166143390Y-51295643D01*
X166082402Y-51306819D01*
X166078701Y-51307382D01*
X166017125Y-51314860D01*
X166007642Y-51318456D01*
X165986038Y-51324478D01*
X165984535Y-51324754D01*
X165976065Y-51326306D01*
X165976063Y-51326307D01*
X165919527Y-51351752D01*
X165916069Y-51353184D01*
X165858069Y-51375182D01*
X165849724Y-51380942D01*
X165830183Y-51391964D01*
X165820944Y-51396122D01*
X165820939Y-51396125D01*
X165772121Y-51434370D01*
X165769106Y-51436589D01*
X165718072Y-51471816D01*
X165718065Y-51471822D01*
X165676942Y-51518240D01*
X165674375Y-51520966D01*
X164963994Y-52231347D01*
X164902671Y-52264832D01*
X164844225Y-52263442D01*
X164827410Y-52258937D01*
X164592001Y-52238341D01*
X164591999Y-52238341D01*
X164356596Y-52258936D01*
X164356586Y-52258938D01*
X164128344Y-52320094D01*
X164128335Y-52320098D01*
X163914171Y-52419964D01*
X163914169Y-52419965D01*
X163720597Y-52555505D01*
X163553505Y-52722597D01*
X163417965Y-52916169D01*
X163417964Y-52916171D01*
X163318098Y-53130335D01*
X163318094Y-53130344D01*
X163256938Y-53358586D01*
X163256936Y-53358596D01*
X163236341Y-53593999D01*
X163236341Y-53594000D01*
X163256936Y-53829403D01*
X163256938Y-53829413D01*
X163318094Y-54057655D01*
X163318096Y-54057659D01*
X163318097Y-54057663D01*
X163383555Y-54198038D01*
X163417965Y-54271830D01*
X163417967Y-54271834D01*
X163484596Y-54366989D01*
X163553501Y-54465396D01*
X163553506Y-54465402D01*
X163720597Y-54632493D01*
X163720603Y-54632498D01*
X163906158Y-54762425D01*
X163949783Y-54817002D01*
X163956977Y-54886500D01*
X163925454Y-54948855D01*
X163906158Y-54965575D01*
X163720597Y-55095505D01*
X163553505Y-55262597D01*
X163417965Y-55456169D01*
X163417964Y-55456171D01*
X163318098Y-55670335D01*
X163318094Y-55670344D01*
X163256938Y-55898586D01*
X163256936Y-55898596D01*
X163236341Y-56133999D01*
X163236341Y-56134000D01*
X163256936Y-56369403D01*
X163256938Y-56369413D01*
X163318094Y-56597655D01*
X163318096Y-56597659D01*
X163318097Y-56597663D01*
X163341786Y-56648464D01*
X163417965Y-56811830D01*
X163417967Y-56811834D01*
X163526281Y-56966521D01*
X163553501Y-57005396D01*
X163553506Y-57005402D01*
X163720597Y-57172493D01*
X163720603Y-57172498D01*
X163906158Y-57302425D01*
X163949783Y-57357002D01*
X163956977Y-57426500D01*
X163925454Y-57488855D01*
X163906158Y-57505575D01*
X163720597Y-57635505D01*
X163553505Y-57802597D01*
X163417965Y-57996169D01*
X163417964Y-57996171D01*
X163318098Y-58210335D01*
X163318094Y-58210344D01*
X163256938Y-58438586D01*
X163256936Y-58438596D01*
X163236341Y-58673999D01*
X163236341Y-58674000D01*
X163256936Y-58909403D01*
X163256938Y-58909413D01*
X163318094Y-59137655D01*
X163318096Y-59137659D01*
X163318097Y-59137663D01*
X163322000Y-59146032D01*
X163417965Y-59351830D01*
X163417967Y-59351834D01*
X163553501Y-59545395D01*
X163553506Y-59545402D01*
X163720597Y-59712493D01*
X163720603Y-59712498D01*
X163906158Y-59842425D01*
X163949783Y-59897002D01*
X163956977Y-59966500D01*
X163925454Y-60028855D01*
X163906158Y-60045575D01*
X163720597Y-60175505D01*
X163553505Y-60342597D01*
X163417965Y-60536169D01*
X163417964Y-60536171D01*
X163318098Y-60750335D01*
X163318094Y-60750344D01*
X163256938Y-60978586D01*
X163256936Y-60978596D01*
X163236341Y-61213999D01*
X163236341Y-61214000D01*
X163256936Y-61449403D01*
X163256938Y-61449413D01*
X163318094Y-61677655D01*
X163318096Y-61677659D01*
X163318097Y-61677663D01*
X163359511Y-61766475D01*
X163417965Y-61891830D01*
X163417967Y-61891834D01*
X163553501Y-62085395D01*
X163553506Y-62085402D01*
X163720597Y-62252493D01*
X163720603Y-62252498D01*
X163906158Y-62382425D01*
X163949783Y-62437002D01*
X163956977Y-62506500D01*
X163925454Y-62568855D01*
X163906158Y-62585575D01*
X163720597Y-62715505D01*
X163553505Y-62882597D01*
X163417965Y-63076169D01*
X163417964Y-63076171D01*
X163318098Y-63290335D01*
X163318094Y-63290344D01*
X163256938Y-63518586D01*
X163256936Y-63518596D01*
X163236341Y-63753999D01*
X163236341Y-63754000D01*
X163256936Y-63989403D01*
X163256938Y-63989413D01*
X163318094Y-64217655D01*
X163318096Y-64217659D01*
X163318097Y-64217663D01*
X163322000Y-64226032D01*
X163417965Y-64431830D01*
X163417967Y-64431834D01*
X163553501Y-64625395D01*
X163553506Y-64625402D01*
X163720597Y-64792493D01*
X163720603Y-64792498D01*
X163906158Y-64922425D01*
X163949783Y-64977002D01*
X163956977Y-65046500D01*
X163925454Y-65108855D01*
X163906158Y-65125575D01*
X163720597Y-65255505D01*
X163553505Y-65422597D01*
X163417965Y-65616169D01*
X163417964Y-65616171D01*
X163318098Y-65830335D01*
X163318094Y-65830344D01*
X163256938Y-66058586D01*
X163256936Y-66058596D01*
X163236341Y-66293999D01*
X163236341Y-66294000D01*
X163256936Y-66529403D01*
X163256938Y-66529413D01*
X163318094Y-66757655D01*
X163318096Y-66757659D01*
X163318097Y-66757663D01*
X163417965Y-66971830D01*
X163417967Y-66971834D01*
X163553501Y-67165395D01*
X163553506Y-67165402D01*
X163720597Y-67332493D01*
X163720603Y-67332498D01*
X163906158Y-67462425D01*
X163949783Y-67517002D01*
X163956977Y-67586500D01*
X163925454Y-67648855D01*
X163906158Y-67665575D01*
X163720597Y-67795505D01*
X163553505Y-67962597D01*
X163417965Y-68156169D01*
X163417964Y-68156171D01*
X163318098Y-68370335D01*
X163318094Y-68370344D01*
X163256938Y-68598586D01*
X163256936Y-68598596D01*
X163236341Y-68833999D01*
X163236341Y-68834000D01*
X163256936Y-69069403D01*
X163256938Y-69069413D01*
X163318094Y-69297655D01*
X163318096Y-69297659D01*
X163318097Y-69297663D01*
X163320310Y-69302408D01*
X163417965Y-69511830D01*
X163417967Y-69511834D01*
X163553501Y-69705395D01*
X163553506Y-69705402D01*
X163720597Y-69872493D01*
X163720603Y-69872498D01*
X163906158Y-70002425D01*
X163949783Y-70057002D01*
X163956977Y-70126500D01*
X163925454Y-70188855D01*
X163906158Y-70205575D01*
X163720597Y-70335505D01*
X163553505Y-70502597D01*
X163417965Y-70696169D01*
X163417964Y-70696171D01*
X163318098Y-70910335D01*
X163318094Y-70910344D01*
X163256938Y-71138586D01*
X163256936Y-71138596D01*
X163236341Y-71373999D01*
X163236341Y-71374000D01*
X160000500Y-71374000D01*
X160000500Y-50506870D01*
X175100500Y-50506870D01*
X175100501Y-50506876D01*
X175106908Y-50566483D01*
X175157202Y-50701328D01*
X175157206Y-50701335D01*
X175243452Y-50816544D01*
X175243455Y-50816547D01*
X175358664Y-50902793D01*
X175358671Y-50902797D01*
X175493517Y-50953091D01*
X175493516Y-50953091D01*
X175500444Y-50953835D01*
X175553127Y-50959500D01*
X176998872Y-50959499D01*
X177058483Y-50953091D01*
X177193331Y-50902796D01*
X177308546Y-50816546D01*
X177394796Y-50701331D01*
X177429818Y-50607431D01*
X177471689Y-50551499D01*
X177537153Y-50527081D01*
X177605426Y-50541932D01*
X177654832Y-50591337D01*
X177662182Y-50607432D01*
X177697202Y-50701328D01*
X177697206Y-50701335D01*
X177783452Y-50816544D01*
X177783455Y-50816547D01*
X177898664Y-50902793D01*
X177898671Y-50902797D01*
X178033517Y-50953091D01*
X178033516Y-50953091D01*
X178040444Y-50953835D01*
X178093127Y-50959500D01*
X179538872Y-50959499D01*
X179598483Y-50953091D01*
X179733331Y-50902796D01*
X179848546Y-50816546D01*
X179934796Y-50701331D01*
X179985091Y-50566483D01*
X179991500Y-50506873D01*
X179991500Y-50506870D01*
X182720500Y-50506870D01*
X182720501Y-50506876D01*
X182726908Y-50566483D01*
X182777202Y-50701328D01*
X182777206Y-50701335D01*
X182863452Y-50816544D01*
X182863455Y-50816547D01*
X182978664Y-50902793D01*
X182978671Y-50902797D01*
X183113517Y-50953091D01*
X183113516Y-50953091D01*
X183120444Y-50953835D01*
X183173127Y-50959500D01*
X184618872Y-50959499D01*
X184678483Y-50953091D01*
X184813331Y-50902796D01*
X184928546Y-50816546D01*
X185014796Y-50701331D01*
X185065091Y-50566483D01*
X185071500Y-50506873D01*
X185071499Y-49061128D01*
X185065091Y-49001517D01*
X185055820Y-48976661D01*
X185014797Y-48866671D01*
X185014793Y-48866664D01*
X184928547Y-48751455D01*
X184928544Y-48751452D01*
X184813335Y-48665206D01*
X184813328Y-48665202D01*
X184678482Y-48614908D01*
X184678483Y-48614908D01*
X184618883Y-48608501D01*
X184618881Y-48608500D01*
X184618873Y-48608500D01*
X184618864Y-48608500D01*
X183173129Y-48608500D01*
X183173123Y-48608501D01*
X183113516Y-48614908D01*
X182978671Y-48665202D01*
X182978664Y-48665206D01*
X182863455Y-48751452D01*
X182863452Y-48751455D01*
X182777206Y-48866664D01*
X182777202Y-48866671D01*
X182726908Y-49001517D01*
X182720501Y-49061116D01*
X182720501Y-49061123D01*
X182720500Y-49061135D01*
X182720500Y-50506870D01*
X179991500Y-50506870D01*
X179991499Y-49061128D01*
X179985091Y-49001517D01*
X179975820Y-48976661D01*
X179934797Y-48866671D01*
X179934793Y-48866664D01*
X179848547Y-48751455D01*
X179848544Y-48751452D01*
X179733335Y-48665206D01*
X179733328Y-48665202D01*
X179598482Y-48614908D01*
X179598483Y-48614908D01*
X179538883Y-48608501D01*
X179538881Y-48608500D01*
X179538873Y-48608500D01*
X179538864Y-48608500D01*
X178093129Y-48608500D01*
X178093123Y-48608501D01*
X178033516Y-48614908D01*
X177898671Y-48665202D01*
X177898664Y-48665206D01*
X177783455Y-48751452D01*
X177783452Y-48751455D01*
X177697206Y-48866664D01*
X177697202Y-48866671D01*
X177662182Y-48960567D01*
X177620311Y-49016501D01*
X177554847Y-49040918D01*
X177486574Y-49026067D01*
X177437168Y-48976661D01*
X177429818Y-48960567D01*
X177394797Y-48866671D01*
X177394793Y-48866664D01*
X177308547Y-48751455D01*
X177308544Y-48751452D01*
X177193335Y-48665206D01*
X177193328Y-48665202D01*
X177058482Y-48614908D01*
X177058483Y-48614908D01*
X176998883Y-48608501D01*
X176998881Y-48608500D01*
X176998873Y-48608500D01*
X176998864Y-48608500D01*
X175553129Y-48608500D01*
X175553123Y-48608501D01*
X175493516Y-48614908D01*
X175358671Y-48665202D01*
X175358664Y-48665206D01*
X175243455Y-48751452D01*
X175243452Y-48751455D01*
X175157206Y-48866664D01*
X175157202Y-48866671D01*
X175106908Y-49001517D01*
X175100501Y-49061116D01*
X175100501Y-49061123D01*
X175100500Y-49061135D01*
X175100500Y-50506870D01*
X160000500Y-50506870D01*
X160000500Y-45665000D01*
X161244341Y-45665000D01*
X161264936Y-45900403D01*
X161264938Y-45900413D01*
X161326094Y-46128655D01*
X161326096Y-46128659D01*
X161326097Y-46128663D01*
X161425965Y-46342830D01*
X161425967Y-46342834D01*
X161534281Y-46497521D01*
X161561505Y-46536401D01*
X161728599Y-46703495D01*
X161770020Y-46732498D01*
X161922165Y-46839032D01*
X161922167Y-46839033D01*
X161922170Y-46839035D01*
X162136337Y-46938903D01*
X162364592Y-47000063D01*
X162552918Y-47016539D01*
X162599999Y-47020659D01*
X162600000Y-47020659D01*
X162600001Y-47020659D01*
X162639234Y-47017226D01*
X162835408Y-47000063D01*
X163063663Y-46938903D01*
X163277830Y-46839035D01*
X163471401Y-46703495D01*
X163638495Y-46536401D01*
X163774035Y-46342830D01*
X163873903Y-46128663D01*
X163935063Y-45900408D01*
X163954434Y-45679000D01*
X165044341Y-45679000D01*
X165064936Y-45914403D01*
X165064938Y-45914413D01*
X165126094Y-46142655D01*
X165126096Y-46142659D01*
X165126097Y-46142663D01*
X165219437Y-46342830D01*
X165225965Y-46356830D01*
X165225967Y-46356834D01*
X165334281Y-46511521D01*
X165361505Y-46550401D01*
X165528599Y-46717495D01*
X165625384Y-46785265D01*
X165722165Y-46853032D01*
X165722167Y-46853033D01*
X165722170Y-46853035D01*
X165936337Y-46952903D01*
X166164592Y-47014063D01*
X166336016Y-47029061D01*
X166399999Y-47034659D01*
X166400000Y-47034659D01*
X166400001Y-47034659D01*
X166439234Y-47031226D01*
X166635408Y-47014063D01*
X166863663Y-46952903D01*
X167077830Y-46853035D01*
X167271401Y-46717495D01*
X167438495Y-46550401D01*
X167574035Y-46356830D01*
X167673903Y-46142663D01*
X167735063Y-45914408D01*
X167754347Y-45694000D01*
X168824341Y-45694000D01*
X168844936Y-45929403D01*
X168844938Y-45929413D01*
X168906094Y-46157655D01*
X168906096Y-46157659D01*
X168906097Y-46157663D01*
X168992442Y-46342830D01*
X169005965Y-46371830D01*
X169005967Y-46371834D01*
X169114281Y-46526521D01*
X169141505Y-46565401D01*
X169308599Y-46732495D01*
X169405384Y-46800265D01*
X169502165Y-46868032D01*
X169502167Y-46868033D01*
X169502170Y-46868035D01*
X169716337Y-46967903D01*
X169944592Y-47029063D01*
X170132918Y-47045539D01*
X170179999Y-47049659D01*
X170180000Y-47049659D01*
X170180001Y-47049659D01*
X170219234Y-47046226D01*
X170415408Y-47029063D01*
X170643663Y-46967903D01*
X170857830Y-46868035D01*
X171051401Y-46732495D01*
X171218495Y-46565401D01*
X171354035Y-46371830D01*
X171453903Y-46157663D01*
X171515063Y-45929408D01*
X171535659Y-45694000D01*
X171515063Y-45458592D01*
X171453903Y-45230337D01*
X171354035Y-45016171D01*
X171218495Y-44822599D01*
X171096567Y-44700671D01*
X171063084Y-44639351D01*
X171068068Y-44569659D01*
X171109939Y-44513725D01*
X171140915Y-44496810D01*
X171272331Y-44447796D01*
X171387546Y-44361546D01*
X171473796Y-44246331D01*
X171524091Y-44111483D01*
X171530500Y-44051873D01*
X171530499Y-42256128D01*
X171524091Y-42196517D01*
X171518496Y-42181517D01*
X171473797Y-42061671D01*
X171473793Y-42061664D01*
X171387547Y-41946455D01*
X171387544Y-41946452D01*
X171272335Y-41860206D01*
X171272328Y-41860202D01*
X171137482Y-41809908D01*
X171137483Y-41809908D01*
X171077883Y-41803501D01*
X171077881Y-41803500D01*
X171077873Y-41803500D01*
X171077864Y-41803500D01*
X169282129Y-41803500D01*
X169282123Y-41803501D01*
X169222516Y-41809908D01*
X169087671Y-41860202D01*
X169087664Y-41860206D01*
X168972455Y-41946452D01*
X168972452Y-41946455D01*
X168886206Y-42061664D01*
X168886202Y-42061671D01*
X168835908Y-42196517D01*
X168829501Y-42256116D01*
X168829501Y-42256123D01*
X168829500Y-42256135D01*
X168829500Y-44051870D01*
X168829501Y-44051876D01*
X168835908Y-44111483D01*
X168886202Y-44246328D01*
X168886206Y-44246335D01*
X168972452Y-44361544D01*
X168972455Y-44361547D01*
X169087664Y-44447793D01*
X169087671Y-44447797D01*
X169219081Y-44496810D01*
X169275015Y-44538681D01*
X169299432Y-44604145D01*
X169284580Y-44672418D01*
X169263430Y-44700673D01*
X169141503Y-44822600D01*
X169005965Y-45016169D01*
X169005964Y-45016171D01*
X168906098Y-45230335D01*
X168906094Y-45230344D01*
X168844938Y-45458586D01*
X168844936Y-45458596D01*
X168824341Y-45693999D01*
X168824341Y-45694000D01*
X167754347Y-45694000D01*
X167755659Y-45679000D01*
X167735063Y-45443592D01*
X167673903Y-45215337D01*
X167574035Y-45001171D01*
X167564232Y-44987171D01*
X167438496Y-44807600D01*
X167424495Y-44793599D01*
X167316567Y-44685671D01*
X167283084Y-44624351D01*
X167288068Y-44554659D01*
X167329939Y-44498725D01*
X167360915Y-44481810D01*
X167492331Y-44432796D01*
X167607546Y-44346546D01*
X167693796Y-44231331D01*
X167744091Y-44096483D01*
X167750500Y-44036873D01*
X167750499Y-42241128D01*
X167744091Y-42181517D01*
X167738869Y-42167517D01*
X167693797Y-42046671D01*
X167693793Y-42046664D01*
X167607547Y-41931455D01*
X167607544Y-41931452D01*
X167492335Y-41845206D01*
X167492328Y-41845202D01*
X167357482Y-41794908D01*
X167357483Y-41794908D01*
X167297883Y-41788501D01*
X167297881Y-41788500D01*
X167297873Y-41788500D01*
X167297864Y-41788500D01*
X165502129Y-41788500D01*
X165502123Y-41788501D01*
X165442516Y-41794908D01*
X165307671Y-41845202D01*
X165307664Y-41845206D01*
X165192455Y-41931452D01*
X165192452Y-41931455D01*
X165106206Y-42046664D01*
X165106202Y-42046671D01*
X165055908Y-42181517D01*
X165051005Y-42227127D01*
X165049501Y-42241123D01*
X165049500Y-42241135D01*
X165049500Y-44036870D01*
X165049501Y-44036876D01*
X165055908Y-44096483D01*
X165106202Y-44231328D01*
X165106206Y-44231335D01*
X165192452Y-44346544D01*
X165192455Y-44346547D01*
X165307664Y-44432793D01*
X165307671Y-44432797D01*
X165439081Y-44481810D01*
X165495015Y-44523681D01*
X165519432Y-44589145D01*
X165504580Y-44657418D01*
X165483430Y-44685673D01*
X165361503Y-44807600D01*
X165225965Y-45001169D01*
X165225964Y-45001171D01*
X165126098Y-45215335D01*
X165126094Y-45215344D01*
X165064938Y-45443586D01*
X165064936Y-45443596D01*
X165044341Y-45678999D01*
X165044341Y-45679000D01*
X163954434Y-45679000D01*
X163955659Y-45665000D01*
X163935063Y-45429592D01*
X163873903Y-45201337D01*
X163774035Y-44987171D01*
X163638495Y-44793599D01*
X163516567Y-44671671D01*
X163483084Y-44610351D01*
X163488068Y-44540659D01*
X163529939Y-44484725D01*
X163560915Y-44467810D01*
X163692331Y-44418796D01*
X163807546Y-44332546D01*
X163893796Y-44217331D01*
X163944091Y-44082483D01*
X163950500Y-44022873D01*
X163950499Y-42227128D01*
X163944091Y-42167517D01*
X163904612Y-42061669D01*
X163893797Y-42032671D01*
X163893793Y-42032664D01*
X163807547Y-41917455D01*
X163807544Y-41917452D01*
X163692335Y-41831206D01*
X163692328Y-41831202D01*
X163557482Y-41780908D01*
X163557483Y-41780908D01*
X163497883Y-41774501D01*
X163497881Y-41774500D01*
X163497873Y-41774500D01*
X163497864Y-41774500D01*
X161702129Y-41774500D01*
X161702123Y-41774501D01*
X161642516Y-41780908D01*
X161507671Y-41831202D01*
X161507664Y-41831206D01*
X161392455Y-41917452D01*
X161392452Y-41917455D01*
X161306206Y-42032664D01*
X161306202Y-42032671D01*
X161255908Y-42167517D01*
X161249501Y-42227116D01*
X161249501Y-42227123D01*
X161249500Y-42227135D01*
X161249500Y-44022870D01*
X161249501Y-44022876D01*
X161255908Y-44082483D01*
X161306202Y-44217328D01*
X161306206Y-44217335D01*
X161392452Y-44332544D01*
X161392455Y-44332547D01*
X161507664Y-44418793D01*
X161507671Y-44418797D01*
X161639081Y-44467810D01*
X161695015Y-44509681D01*
X161719432Y-44575145D01*
X161704580Y-44643418D01*
X161683430Y-44671673D01*
X161561503Y-44793600D01*
X161425965Y-44987169D01*
X161425964Y-44987171D01*
X161326098Y-45201335D01*
X161326094Y-45201344D01*
X161264938Y-45429586D01*
X161264936Y-45429596D01*
X161244341Y-45664999D01*
X161244341Y-45665000D01*
X160000500Y-45665000D01*
X160000500Y-41362870D01*
X182720500Y-41362870D01*
X182720501Y-41362876D01*
X182726908Y-41422483D01*
X182777202Y-41557328D01*
X182777206Y-41557335D01*
X182863452Y-41672544D01*
X182863455Y-41672547D01*
X182978664Y-41758793D01*
X182978671Y-41758797D01*
X183113517Y-41809091D01*
X183113516Y-41809091D01*
X183120444Y-41809835D01*
X183173127Y-41815500D01*
X184618872Y-41815499D01*
X184678483Y-41809091D01*
X184813331Y-41758796D01*
X184928546Y-41672546D01*
X185014796Y-41557331D01*
X185065091Y-41422483D01*
X185071500Y-41362873D01*
X185071499Y-39917128D01*
X185065091Y-39857517D01*
X185029159Y-39761179D01*
X185014797Y-39722671D01*
X185014793Y-39722664D01*
X184928547Y-39607455D01*
X184928544Y-39607452D01*
X184813335Y-39521206D01*
X184813328Y-39521202D01*
X184678482Y-39470908D01*
X184678483Y-39470908D01*
X184618883Y-39464501D01*
X184618881Y-39464500D01*
X184618873Y-39464500D01*
X184618864Y-39464500D01*
X183173129Y-39464500D01*
X183173123Y-39464501D01*
X183113516Y-39470908D01*
X182978671Y-39521202D01*
X182978664Y-39521206D01*
X182863455Y-39607452D01*
X182863452Y-39607455D01*
X182777206Y-39722664D01*
X182777202Y-39722671D01*
X182726908Y-39857517D01*
X182720501Y-39917116D01*
X182720501Y-39917123D01*
X182720500Y-39917135D01*
X182720500Y-41362870D01*
X160000500Y-41362870D01*
X160000500Y-31124500D01*
X160020185Y-31057461D01*
X160072989Y-31011706D01*
X160124500Y-31000500D01*
X227875500Y-31000500D01*
X227942539Y-31020185D01*
G37*
%TD.AperFunction*%
%TD*%
M02*
