%TF.GenerationSoftware,KiCad,Pcbnew,7.0.9-7.0.9~ubuntu20.04.1*%
%TF.CreationDate,2023-12-30T20:23:19+01:00*%
%TF.ProjectId,6303_PLCC,36333033-5f50-44c4-9343-2e6b69636164,rev?*%
%TF.SameCoordinates,Original*%
%TF.FileFunction,Soldermask,Top*%
%TF.FilePolarity,Negative*%
%FSLAX46Y46*%
G04 Gerber Fmt 4.6, Leading zero omitted, Abs format (unit mm)*
G04 Created by KiCad (PCBNEW 7.0.9-7.0.9~ubuntu20.04.1) date 2023-12-30 20:23:19*
%MOMM*%
%LPD*%
G01*
G04 APERTURE LIST*
G04 Aperture macros list*
%AMRoundRect*
0 Rectangle with rounded corners*
0 $1 Rounding radius*
0 $2 $3 $4 $5 $6 $7 $8 $9 X,Y pos of 4 corners*
0 Add a 4 corners polygon primitive as box body*
4,1,4,$2,$3,$4,$5,$6,$7,$8,$9,$2,$3,0*
0 Add four circle primitives for the rounded corners*
1,1,$1+$1,$2,$3*
1,1,$1+$1,$4,$5*
1,1,$1+$1,$6,$7*
1,1,$1+$1,$8,$9*
0 Add four rect primitives between the rounded corners*
20,1,$1+$1,$2,$3,$4,$5,0*
20,1,$1+$1,$4,$5,$6,$7,0*
20,1,$1+$1,$6,$7,$8,$9,0*
20,1,$1+$1,$8,$9,$2,$3,0*%
G04 Aperture macros list end*
%ADD10R,1.700000X1.700000*%
%ADD11O,1.700000X1.700000*%
%ADD12R,1.350000X1.350000*%
%ADD13R,1.600000X1.600000*%
%ADD14O,1.600000X1.600000*%
%ADD15RoundRect,0.250001X-0.624999X0.462499X-0.624999X-0.462499X0.624999X-0.462499X0.624999X0.462499X0*%
%ADD16R,1.600000X2.400000*%
%ADD17O,1.600000X2.400000*%
%ADD18R,1.925000X0.700000*%
%ADD19R,0.700000X1.925000*%
G04 APERTURE END LIST*
D10*
%TO.C,J1*%
X167132000Y-71374000D03*
D11*
X164592000Y-71374000D03*
X167132000Y-68834000D03*
X164592000Y-68834000D03*
X167132000Y-66294000D03*
X164592000Y-66294000D03*
X167132000Y-63754000D03*
X164592000Y-63754000D03*
X167132000Y-61214000D03*
X164592000Y-61214000D03*
X167132000Y-58674000D03*
X164592000Y-58674000D03*
X167132000Y-56134000D03*
X164592000Y-56134000D03*
X167132000Y-53594000D03*
X164592000Y-53594000D03*
%TD*%
D10*
%TO.C,JP3*%
X170180000Y-43154000D03*
D11*
X170180000Y-45694000D03*
%TD*%
D10*
%TO.C,JP1*%
X162600000Y-43125000D03*
D11*
X162600000Y-45665000D03*
%TD*%
D10*
%TO.C,JP5*%
X175463200Y-56184800D03*
D11*
X178003200Y-56184800D03*
X180543200Y-56184800D03*
%TD*%
D12*
%TO.C,J4*%
X183896000Y-40640000D03*
%TD*%
D13*
%TO.C,U3*%
X173736000Y-52730400D03*
D14*
X176276000Y-52730400D03*
X178816000Y-52730400D03*
X181356000Y-52730400D03*
X183896000Y-52730400D03*
X186436000Y-52730400D03*
X188976000Y-52730400D03*
X191516000Y-52730400D03*
X194056000Y-52730400D03*
X196596000Y-52730400D03*
X199136000Y-52730400D03*
X201676000Y-52730400D03*
X204216000Y-52730400D03*
X206756000Y-52730400D03*
X209296000Y-52730400D03*
X211836000Y-52730400D03*
X214376000Y-52730400D03*
X216916000Y-52730400D03*
X219456000Y-52730400D03*
X221996000Y-52730400D03*
X221996000Y-37490400D03*
X219456000Y-37490400D03*
X216916000Y-37490400D03*
X214376000Y-37490400D03*
X211836000Y-37490400D03*
X209296000Y-37490400D03*
X206756000Y-37490400D03*
X204216000Y-37490400D03*
X201676000Y-37490400D03*
X199136000Y-37490400D03*
X196596000Y-37490400D03*
X194056000Y-37490400D03*
X191516000Y-37490400D03*
X188976000Y-37490400D03*
X186436000Y-37490400D03*
X183896000Y-37490400D03*
X181356000Y-37490400D03*
X178816000Y-37490400D03*
X176276000Y-37490400D03*
X173736000Y-37490400D03*
%TD*%
D10*
%TO.C,JP2*%
X166400000Y-43139000D03*
D11*
X166400000Y-45679000D03*
%TD*%
D12*
%TO.C,J2*%
X170434000Y-53594000D03*
%TD*%
%TO.C,J5*%
X176276000Y-49784000D03*
%TD*%
%TO.C,J6*%
X183896000Y-49784000D03*
%TD*%
D15*
%TO.C,D2*%
X166400000Y-37025000D03*
X166400000Y-40000000D03*
%TD*%
D10*
%TO.C,JP6*%
X176276000Y-33020000D03*
D11*
X178816000Y-33020000D03*
X181356000Y-33020000D03*
%TD*%
D15*
%TO.C,D3*%
X170200000Y-37112500D03*
X170200000Y-40087500D03*
%TD*%
D16*
%TO.C,U2*%
X188976000Y-41000000D03*
D17*
X191516000Y-41000000D03*
X194056000Y-41000000D03*
X196596000Y-41000000D03*
X199136000Y-41000000D03*
X201676000Y-41000000D03*
X204216000Y-41000000D03*
X206756000Y-41000000D03*
X209296000Y-41000000D03*
X211836000Y-41000000D03*
X211836000Y-33380000D03*
X209296000Y-33380000D03*
X206756000Y-33380000D03*
X204216000Y-33380000D03*
X201676000Y-33380000D03*
X199136000Y-33380000D03*
X196596000Y-33380000D03*
X194056000Y-33380000D03*
X191516000Y-33380000D03*
X188976000Y-33380000D03*
%TD*%
D15*
%TO.C,D1*%
X162600000Y-37112500D03*
X162600000Y-40087500D03*
%TD*%
D12*
%TO.C,J3*%
X178816000Y-49784000D03*
%TD*%
D18*
%TO.C,U1*%
X201027100Y-67196900D03*
X201027100Y-68466900D03*
X201027100Y-69736900D03*
X201027100Y-71006900D03*
X201027100Y-72276900D03*
X201027100Y-73546900D03*
X201027100Y-74816900D03*
D19*
X202539600Y-76329400D03*
X203809600Y-76329400D03*
X205079600Y-76329400D03*
X206349600Y-76329400D03*
X207619600Y-76329400D03*
X208889600Y-76329400D03*
X210159600Y-76329400D03*
X211429600Y-76329400D03*
X212699600Y-76329400D03*
X213969600Y-76329400D03*
X215239600Y-76329400D03*
X216509600Y-76329400D03*
X217779600Y-76329400D03*
D18*
X219292100Y-74816900D03*
X219292100Y-73546900D03*
X219292100Y-72276900D03*
X219292100Y-71006900D03*
X219292100Y-69736900D03*
X219292100Y-68466900D03*
X219292100Y-67196900D03*
X219292100Y-65926900D03*
X219292100Y-64656900D03*
X219292100Y-63386900D03*
X219292100Y-62116900D03*
X219292100Y-60846900D03*
X219292100Y-59576900D03*
D19*
X217779600Y-58064400D03*
X216509600Y-58064400D03*
X215239600Y-58064400D03*
X213969600Y-58064400D03*
X212699600Y-58064400D03*
X211429600Y-58064400D03*
X210159600Y-58064400D03*
X208889600Y-58064400D03*
X207619600Y-58064400D03*
X206349600Y-58064400D03*
X205079600Y-58064400D03*
X203809600Y-58064400D03*
X202539600Y-58064400D03*
D18*
X201027100Y-59576900D03*
X201027100Y-60846900D03*
X201027100Y-62116900D03*
X201027100Y-63386900D03*
X201027100Y-64656900D03*
X201027100Y-65926900D03*
%TD*%
M02*
