M48
; DRILL file {KiCad 7.0.9-7.0.9~ubuntu20.04.1} date Sa 30 Dez 2023 20:23:20
; FORMAT={-:-/ absolute / metric / decimal}
; #@! TF.CreationDate,2023-12-30T20:23:20+01:00
; #@! TF.GenerationSoftware,Kicad,Pcbnew,7.0.9-7.0.9~ubuntu20.04.1
; #@! TF.FileFunction,MixedPlating,1,2
FMAT,2
METRIC
; #@! TA.AperFunction,Plated,PTH,ViaDrill
T1C0.400
; #@! TA.AperFunction,Plated,PTH,ComponentDrill
T2C0.800
; #@! TA.AperFunction,Plated,PTH,ComponentDrill
T3C1.000
%
G90
G05
T1
X169.926Y-71.247
X170.942Y-72.39
X172.212Y-73.279
X173.355Y-74.295
X188.874Y-54.559
X191.516Y-67.564
X193.548Y-65.532
X195.072Y-66.347
X204.724Y-73.66
X204.978Y-71.018
X204.978Y-72.136
X205.13Y-64.212
X207.518Y-64.211
X209.855Y-64.211
X210.312Y-66.548
X211.328Y-74.168
X212.242Y-64.25
X212.242Y-61.125
X213.868Y-74.168
X215.138Y-74.041
X216.408Y-73.914
X216.662Y-72.517
X217.424Y-71.501
X221.019Y-70.993
X221.996Y-72.263
X223.012Y-68.707
T2
X170.434Y-53.594
X173.736Y-37.49
X173.736Y-52.73
X176.276Y-37.49
X176.276Y-49.784
X176.276Y-52.73
X178.816Y-37.49
X178.816Y-49.784
X178.816Y-52.73
X181.356Y-37.49
X181.356Y-52.73
X183.896Y-37.49
X183.896Y-40.64
X183.896Y-49.784
X183.896Y-52.73
X186.436Y-37.49
X186.436Y-52.73
X188.976Y-33.38
X188.976Y-37.49
X188.976Y-41.0
X188.976Y-52.73
X191.516Y-33.38
X191.516Y-37.49
X191.516Y-41.0
X191.516Y-52.73
X194.056Y-33.38
X194.056Y-37.49
X194.056Y-41.0
X194.056Y-52.73
X196.596Y-33.38
X196.596Y-37.49
X196.596Y-41.0
X196.596Y-52.73
X199.136Y-33.38
X199.136Y-37.49
X199.136Y-41.0
X199.136Y-52.73
X201.676Y-33.38
X201.676Y-37.49
X201.676Y-41.0
X201.676Y-52.73
X204.216Y-33.38
X204.216Y-37.49
X204.216Y-41.0
X204.216Y-52.73
X206.756Y-33.38
X206.756Y-37.49
X206.756Y-41.0
X206.756Y-52.73
X209.296Y-33.38
X209.296Y-37.49
X209.296Y-41.0
X209.296Y-52.73
X211.836Y-33.38
X211.836Y-37.49
X211.836Y-41.0
X211.836Y-52.73
X214.376Y-37.49
X214.376Y-52.73
X216.916Y-37.49
X216.916Y-52.73
X219.456Y-37.49
X219.456Y-52.73
X221.996Y-37.49
X221.996Y-52.73
T3
X162.6Y-43.125
X162.6Y-45.665
X164.592Y-53.594
X164.592Y-56.134
X164.592Y-58.674
X164.592Y-61.214
X164.592Y-63.754
X164.592Y-66.294
X164.592Y-68.834
X164.592Y-71.374
X166.4Y-43.139
X166.4Y-45.679
X167.132Y-53.594
X167.132Y-56.134
X167.132Y-58.674
X167.132Y-61.214
X167.132Y-63.754
X167.132Y-66.294
X167.132Y-68.834
X167.132Y-71.374
X170.18Y-43.154
X170.18Y-45.694
X175.463Y-56.185
X176.276Y-33.02
X178.003Y-56.185
X178.816Y-33.02
X180.543Y-56.185
X181.356Y-33.02
T0
M30
