%TF.GenerationSoftware,KiCad,Pcbnew,7.0.5-7.0.5~ubuntu20.04.1*%
%TF.CreationDate,2023-07-18T13:55:01+02:00*%
%TF.ProjectId,CPU6502_6802,43505536-3530-4325-9f36-3830322e6b69,rev?*%
%TF.SameCoordinates,Original*%
%TF.FileFunction,Legend,Top*%
%TF.FilePolarity,Positive*%
%FSLAX46Y46*%
G04 Gerber Fmt 4.6, Leading zero omitted, Abs format (unit mm)*
G04 Created by KiCad (PCBNEW 7.0.5-7.0.5~ubuntu20.04.1) date 2023-07-18 13:55:01*
%MOMM*%
%LPD*%
G01*
G04 APERTURE LIST*
%ADD10C,0.200000*%
%ADD11C,0.150000*%
%ADD12C,0.120000*%
G04 APERTURE END LIST*
D10*
X98350101Y-78376980D02*
X98302482Y-78424600D01*
X98302482Y-78424600D02*
X98159625Y-78472219D01*
X98159625Y-78472219D02*
X98064387Y-78472219D01*
X98064387Y-78472219D02*
X97921530Y-78424600D01*
X97921530Y-78424600D02*
X97826292Y-78329361D01*
X97826292Y-78329361D02*
X97778673Y-78234123D01*
X97778673Y-78234123D02*
X97731054Y-78043647D01*
X97731054Y-78043647D02*
X97731054Y-77900790D01*
X97731054Y-77900790D02*
X97778673Y-77710314D01*
X97778673Y-77710314D02*
X97826292Y-77615076D01*
X97826292Y-77615076D02*
X97921530Y-77519838D01*
X97921530Y-77519838D02*
X98064387Y-77472219D01*
X98064387Y-77472219D02*
X98159625Y-77472219D01*
X98159625Y-77472219D02*
X98302482Y-77519838D01*
X98302482Y-77519838D02*
X98350101Y-77567457D01*
X98778673Y-78472219D02*
X98778673Y-77472219D01*
X98778673Y-77472219D02*
X99159625Y-77472219D01*
X99159625Y-77472219D02*
X99254863Y-77519838D01*
X99254863Y-77519838D02*
X99302482Y-77567457D01*
X99302482Y-77567457D02*
X99350101Y-77662695D01*
X99350101Y-77662695D02*
X99350101Y-77805552D01*
X99350101Y-77805552D02*
X99302482Y-77900790D01*
X99302482Y-77900790D02*
X99254863Y-77948409D01*
X99254863Y-77948409D02*
X99159625Y-77996028D01*
X99159625Y-77996028D02*
X98778673Y-77996028D01*
X99778673Y-77472219D02*
X99778673Y-78281742D01*
X99778673Y-78281742D02*
X99826292Y-78376980D01*
X99826292Y-78376980D02*
X99873911Y-78424600D01*
X99873911Y-78424600D02*
X99969149Y-78472219D01*
X99969149Y-78472219D02*
X100159625Y-78472219D01*
X100159625Y-78472219D02*
X100254863Y-78424600D01*
X100254863Y-78424600D02*
X100302482Y-78376980D01*
X100302482Y-78376980D02*
X100350101Y-78281742D01*
X100350101Y-78281742D02*
X100350101Y-77472219D01*
X102016768Y-77472219D02*
X101826292Y-77472219D01*
X101826292Y-77472219D02*
X101731054Y-77519838D01*
X101731054Y-77519838D02*
X101683435Y-77567457D01*
X101683435Y-77567457D02*
X101588197Y-77710314D01*
X101588197Y-77710314D02*
X101540578Y-77900790D01*
X101540578Y-77900790D02*
X101540578Y-78281742D01*
X101540578Y-78281742D02*
X101588197Y-78376980D01*
X101588197Y-78376980D02*
X101635816Y-78424600D01*
X101635816Y-78424600D02*
X101731054Y-78472219D01*
X101731054Y-78472219D02*
X101921530Y-78472219D01*
X101921530Y-78472219D02*
X102016768Y-78424600D01*
X102016768Y-78424600D02*
X102064387Y-78376980D01*
X102064387Y-78376980D02*
X102112006Y-78281742D01*
X102112006Y-78281742D02*
X102112006Y-78043647D01*
X102112006Y-78043647D02*
X102064387Y-77948409D01*
X102064387Y-77948409D02*
X102016768Y-77900790D01*
X102016768Y-77900790D02*
X101921530Y-77853171D01*
X101921530Y-77853171D02*
X101731054Y-77853171D01*
X101731054Y-77853171D02*
X101635816Y-77900790D01*
X101635816Y-77900790D02*
X101588197Y-77948409D01*
X101588197Y-77948409D02*
X101540578Y-78043647D01*
X103016768Y-77472219D02*
X102540578Y-77472219D01*
X102540578Y-77472219D02*
X102492959Y-77948409D01*
X102492959Y-77948409D02*
X102540578Y-77900790D01*
X102540578Y-77900790D02*
X102635816Y-77853171D01*
X102635816Y-77853171D02*
X102873911Y-77853171D01*
X102873911Y-77853171D02*
X102969149Y-77900790D01*
X102969149Y-77900790D02*
X103016768Y-77948409D01*
X103016768Y-77948409D02*
X103064387Y-78043647D01*
X103064387Y-78043647D02*
X103064387Y-78281742D01*
X103064387Y-78281742D02*
X103016768Y-78376980D01*
X103016768Y-78376980D02*
X102969149Y-78424600D01*
X102969149Y-78424600D02*
X102873911Y-78472219D01*
X102873911Y-78472219D02*
X102635816Y-78472219D01*
X102635816Y-78472219D02*
X102540578Y-78424600D01*
X102540578Y-78424600D02*
X102492959Y-78376980D01*
X103683435Y-77472219D02*
X103778673Y-77472219D01*
X103778673Y-77472219D02*
X103873911Y-77519838D01*
X103873911Y-77519838D02*
X103921530Y-77567457D01*
X103921530Y-77567457D02*
X103969149Y-77662695D01*
X103969149Y-77662695D02*
X104016768Y-77853171D01*
X104016768Y-77853171D02*
X104016768Y-78091266D01*
X104016768Y-78091266D02*
X103969149Y-78281742D01*
X103969149Y-78281742D02*
X103921530Y-78376980D01*
X103921530Y-78376980D02*
X103873911Y-78424600D01*
X103873911Y-78424600D02*
X103778673Y-78472219D01*
X103778673Y-78472219D02*
X103683435Y-78472219D01*
X103683435Y-78472219D02*
X103588197Y-78424600D01*
X103588197Y-78424600D02*
X103540578Y-78376980D01*
X103540578Y-78376980D02*
X103492959Y-78281742D01*
X103492959Y-78281742D02*
X103445340Y-78091266D01*
X103445340Y-78091266D02*
X103445340Y-77853171D01*
X103445340Y-77853171D02*
X103492959Y-77662695D01*
X103492959Y-77662695D02*
X103540578Y-77567457D01*
X103540578Y-77567457D02*
X103588197Y-77519838D01*
X103588197Y-77519838D02*
X103683435Y-77472219D01*
X104397721Y-77567457D02*
X104445340Y-77519838D01*
X104445340Y-77519838D02*
X104540578Y-77472219D01*
X104540578Y-77472219D02*
X104778673Y-77472219D01*
X104778673Y-77472219D02*
X104873911Y-77519838D01*
X104873911Y-77519838D02*
X104921530Y-77567457D01*
X104921530Y-77567457D02*
X104969149Y-77662695D01*
X104969149Y-77662695D02*
X104969149Y-77757933D01*
X104969149Y-77757933D02*
X104921530Y-77900790D01*
X104921530Y-77900790D02*
X104350102Y-78472219D01*
X104350102Y-78472219D02*
X104969149Y-78472219D01*
X97731054Y-80034600D02*
X97873911Y-80082219D01*
X97873911Y-80082219D02*
X98112006Y-80082219D01*
X98112006Y-80082219D02*
X98207244Y-80034600D01*
X98207244Y-80034600D02*
X98254863Y-79986980D01*
X98254863Y-79986980D02*
X98302482Y-79891742D01*
X98302482Y-79891742D02*
X98302482Y-79796504D01*
X98302482Y-79796504D02*
X98254863Y-79701266D01*
X98254863Y-79701266D02*
X98207244Y-79653647D01*
X98207244Y-79653647D02*
X98112006Y-79606028D01*
X98112006Y-79606028D02*
X97921530Y-79558409D01*
X97921530Y-79558409D02*
X97826292Y-79510790D01*
X97826292Y-79510790D02*
X97778673Y-79463171D01*
X97778673Y-79463171D02*
X97731054Y-79367933D01*
X97731054Y-79367933D02*
X97731054Y-79272695D01*
X97731054Y-79272695D02*
X97778673Y-79177457D01*
X97778673Y-79177457D02*
X97826292Y-79129838D01*
X97826292Y-79129838D02*
X97921530Y-79082219D01*
X97921530Y-79082219D02*
X98159625Y-79082219D01*
X98159625Y-79082219D02*
X98302482Y-79129838D01*
X98731054Y-80082219D02*
X98731054Y-79415552D01*
X98731054Y-79082219D02*
X98683435Y-79129838D01*
X98683435Y-79129838D02*
X98731054Y-79177457D01*
X98731054Y-79177457D02*
X98778673Y-79129838D01*
X98778673Y-79129838D02*
X98731054Y-79082219D01*
X98731054Y-79082219D02*
X98731054Y-79177457D01*
X99635815Y-79415552D02*
X99635815Y-80225076D01*
X99635815Y-80225076D02*
X99588196Y-80320314D01*
X99588196Y-80320314D02*
X99540577Y-80367933D01*
X99540577Y-80367933D02*
X99445339Y-80415552D01*
X99445339Y-80415552D02*
X99302482Y-80415552D01*
X99302482Y-80415552D02*
X99207244Y-80367933D01*
X99635815Y-80034600D02*
X99540577Y-80082219D01*
X99540577Y-80082219D02*
X99350101Y-80082219D01*
X99350101Y-80082219D02*
X99254863Y-80034600D01*
X99254863Y-80034600D02*
X99207244Y-79986980D01*
X99207244Y-79986980D02*
X99159625Y-79891742D01*
X99159625Y-79891742D02*
X99159625Y-79606028D01*
X99159625Y-79606028D02*
X99207244Y-79510790D01*
X99207244Y-79510790D02*
X99254863Y-79463171D01*
X99254863Y-79463171D02*
X99350101Y-79415552D01*
X99350101Y-79415552D02*
X99540577Y-79415552D01*
X99540577Y-79415552D02*
X99635815Y-79463171D01*
X100112006Y-79415552D02*
X100112006Y-80082219D01*
X100112006Y-79510790D02*
X100159625Y-79463171D01*
X100159625Y-79463171D02*
X100254863Y-79415552D01*
X100254863Y-79415552D02*
X100397720Y-79415552D01*
X100397720Y-79415552D02*
X100492958Y-79463171D01*
X100492958Y-79463171D02*
X100540577Y-79558409D01*
X100540577Y-79558409D02*
X100540577Y-80082219D01*
X101445339Y-80082219D02*
X101445339Y-79558409D01*
X101445339Y-79558409D02*
X101397720Y-79463171D01*
X101397720Y-79463171D02*
X101302482Y-79415552D01*
X101302482Y-79415552D02*
X101112006Y-79415552D01*
X101112006Y-79415552D02*
X101016768Y-79463171D01*
X101445339Y-80034600D02*
X101350101Y-80082219D01*
X101350101Y-80082219D02*
X101112006Y-80082219D01*
X101112006Y-80082219D02*
X101016768Y-80034600D01*
X101016768Y-80034600D02*
X100969149Y-79939361D01*
X100969149Y-79939361D02*
X100969149Y-79844123D01*
X100969149Y-79844123D02*
X101016768Y-79748885D01*
X101016768Y-79748885D02*
X101112006Y-79701266D01*
X101112006Y-79701266D02*
X101350101Y-79701266D01*
X101350101Y-79701266D02*
X101445339Y-79653647D01*
X102064387Y-80082219D02*
X101969149Y-80034600D01*
X101969149Y-80034600D02*
X101921530Y-79939361D01*
X101921530Y-79939361D02*
X101921530Y-79082219D01*
X102397721Y-80034600D02*
X102492959Y-80082219D01*
X102492959Y-80082219D02*
X102683435Y-80082219D01*
X102683435Y-80082219D02*
X102778673Y-80034600D01*
X102778673Y-80034600D02*
X102826292Y-79939361D01*
X102826292Y-79939361D02*
X102826292Y-79891742D01*
X102826292Y-79891742D02*
X102778673Y-79796504D01*
X102778673Y-79796504D02*
X102683435Y-79748885D01*
X102683435Y-79748885D02*
X102540578Y-79748885D01*
X102540578Y-79748885D02*
X102445340Y-79701266D01*
X102445340Y-79701266D02*
X102397721Y-79606028D01*
X102397721Y-79606028D02*
X102397721Y-79558409D01*
X102397721Y-79558409D02*
X102445340Y-79463171D01*
X102445340Y-79463171D02*
X102540578Y-79415552D01*
X102540578Y-79415552D02*
X102683435Y-79415552D01*
X102683435Y-79415552D02*
X102778673Y-79463171D01*
X103254864Y-79986980D02*
X103302483Y-80034600D01*
X103302483Y-80034600D02*
X103254864Y-80082219D01*
X103254864Y-80082219D02*
X103207245Y-80034600D01*
X103207245Y-80034600D02*
X103254864Y-79986980D01*
X103254864Y-79986980D02*
X103254864Y-80082219D01*
X103254864Y-79463171D02*
X103302483Y-79510790D01*
X103302483Y-79510790D02*
X103254864Y-79558409D01*
X103254864Y-79558409D02*
X103207245Y-79510790D01*
X103207245Y-79510790D02*
X103254864Y-79463171D01*
X103254864Y-79463171D02*
X103254864Y-79558409D01*
X98112006Y-81168409D02*
X98254863Y-81216028D01*
X98254863Y-81216028D02*
X98302482Y-81263647D01*
X98302482Y-81263647D02*
X98350101Y-81358885D01*
X98350101Y-81358885D02*
X98350101Y-81501742D01*
X98350101Y-81501742D02*
X98302482Y-81596980D01*
X98302482Y-81596980D02*
X98254863Y-81644600D01*
X98254863Y-81644600D02*
X98159625Y-81692219D01*
X98159625Y-81692219D02*
X97778673Y-81692219D01*
X97778673Y-81692219D02*
X97778673Y-80692219D01*
X97778673Y-80692219D02*
X98112006Y-80692219D01*
X98112006Y-80692219D02*
X98207244Y-80739838D01*
X98207244Y-80739838D02*
X98254863Y-80787457D01*
X98254863Y-80787457D02*
X98302482Y-80882695D01*
X98302482Y-80882695D02*
X98302482Y-80977933D01*
X98302482Y-80977933D02*
X98254863Y-81073171D01*
X98254863Y-81073171D02*
X98207244Y-81120790D01*
X98207244Y-81120790D02*
X98112006Y-81168409D01*
X98112006Y-81168409D02*
X97778673Y-81168409D01*
X98778673Y-81168409D02*
X99112006Y-81168409D01*
X99254863Y-81692219D02*
X98778673Y-81692219D01*
X98778673Y-81692219D02*
X98778673Y-80692219D01*
X98778673Y-80692219D02*
X99254863Y-80692219D01*
X101921531Y-81644600D02*
X102064388Y-81692219D01*
X102064388Y-81692219D02*
X102302483Y-81692219D01*
X102302483Y-81692219D02*
X102397721Y-81644600D01*
X102397721Y-81644600D02*
X102445340Y-81596980D01*
X102445340Y-81596980D02*
X102492959Y-81501742D01*
X102492959Y-81501742D02*
X102492959Y-81406504D01*
X102492959Y-81406504D02*
X102445340Y-81311266D01*
X102445340Y-81311266D02*
X102397721Y-81263647D01*
X102397721Y-81263647D02*
X102302483Y-81216028D01*
X102302483Y-81216028D02*
X102112007Y-81168409D01*
X102112007Y-81168409D02*
X102016769Y-81120790D01*
X102016769Y-81120790D02*
X101969150Y-81073171D01*
X101969150Y-81073171D02*
X101921531Y-80977933D01*
X101921531Y-80977933D02*
X101921531Y-80882695D01*
X101921531Y-80882695D02*
X101969150Y-80787457D01*
X101969150Y-80787457D02*
X102016769Y-80739838D01*
X102016769Y-80739838D02*
X102112007Y-80692219D01*
X102112007Y-80692219D02*
X102350102Y-80692219D01*
X102350102Y-80692219D02*
X102492959Y-80739838D01*
X103112007Y-80692219D02*
X103302483Y-80692219D01*
X103302483Y-80692219D02*
X103397721Y-80739838D01*
X103397721Y-80739838D02*
X103492959Y-80835076D01*
X103492959Y-80835076D02*
X103540578Y-81025552D01*
X103540578Y-81025552D02*
X103540578Y-81358885D01*
X103540578Y-81358885D02*
X103492959Y-81549361D01*
X103492959Y-81549361D02*
X103397721Y-81644600D01*
X103397721Y-81644600D02*
X103302483Y-81692219D01*
X103302483Y-81692219D02*
X103112007Y-81692219D01*
X103112007Y-81692219D02*
X103016769Y-81644600D01*
X103016769Y-81644600D02*
X102921531Y-81549361D01*
X102921531Y-81549361D02*
X102873912Y-81358885D01*
X102873912Y-81358885D02*
X102873912Y-81025552D01*
X102873912Y-81025552D02*
X102921531Y-80835076D01*
X102921531Y-80835076D02*
X103016769Y-80739838D01*
X103016769Y-80739838D02*
X103112007Y-80692219D01*
X101831055Y-80414600D02*
X103631055Y-80414600D01*
X98350101Y-83302219D02*
X98016768Y-82826028D01*
X97778673Y-83302219D02*
X97778673Y-82302219D01*
X97778673Y-82302219D02*
X98159625Y-82302219D01*
X98159625Y-82302219D02*
X98254863Y-82349838D01*
X98254863Y-82349838D02*
X98302482Y-82397457D01*
X98302482Y-82397457D02*
X98350101Y-82492695D01*
X98350101Y-82492695D02*
X98350101Y-82635552D01*
X98350101Y-82635552D02*
X98302482Y-82730790D01*
X98302482Y-82730790D02*
X98254863Y-82778409D01*
X98254863Y-82778409D02*
X98159625Y-82826028D01*
X98159625Y-82826028D02*
X97778673Y-82826028D01*
X98731054Y-83254600D02*
X98873911Y-83302219D01*
X98873911Y-83302219D02*
X99112006Y-83302219D01*
X99112006Y-83302219D02*
X99207244Y-83254600D01*
X99207244Y-83254600D02*
X99254863Y-83206980D01*
X99254863Y-83206980D02*
X99302482Y-83111742D01*
X99302482Y-83111742D02*
X99302482Y-83016504D01*
X99302482Y-83016504D02*
X99254863Y-82921266D01*
X99254863Y-82921266D02*
X99207244Y-82873647D01*
X99207244Y-82873647D02*
X99112006Y-82826028D01*
X99112006Y-82826028D02*
X98921530Y-82778409D01*
X98921530Y-82778409D02*
X98826292Y-82730790D01*
X98826292Y-82730790D02*
X98778673Y-82683171D01*
X98778673Y-82683171D02*
X98731054Y-82587933D01*
X98731054Y-82587933D02*
X98731054Y-82492695D01*
X98731054Y-82492695D02*
X98778673Y-82397457D01*
X98778673Y-82397457D02*
X98826292Y-82349838D01*
X98826292Y-82349838D02*
X98921530Y-82302219D01*
X98921530Y-82302219D02*
X99159625Y-82302219D01*
X99159625Y-82302219D02*
X99302482Y-82349838D01*
X99588197Y-82302219D02*
X100159625Y-82302219D01*
X99873911Y-83302219D02*
X99873911Y-82302219D01*
X97640578Y-82024600D02*
X100154864Y-82024600D01*
X101873912Y-82302219D02*
X102207245Y-83302219D01*
X102207245Y-83302219D02*
X102540578Y-82302219D01*
X102873912Y-83302219D02*
X102873912Y-82302219D01*
X102873912Y-82302219D02*
X103254864Y-82302219D01*
X103254864Y-82302219D02*
X103350102Y-82349838D01*
X103350102Y-82349838D02*
X103397721Y-82397457D01*
X103397721Y-82397457D02*
X103445340Y-82492695D01*
X103445340Y-82492695D02*
X103445340Y-82635552D01*
X103445340Y-82635552D02*
X103397721Y-82730790D01*
X103397721Y-82730790D02*
X103350102Y-82778409D01*
X103350102Y-82778409D02*
X103254864Y-82826028D01*
X103254864Y-82826028D02*
X102873912Y-82826028D01*
X101878674Y-82024600D02*
X103535817Y-82024600D01*
X98350101Y-84912219D02*
X98016768Y-84436028D01*
X97778673Y-84912219D02*
X97778673Y-83912219D01*
X97778673Y-83912219D02*
X98159625Y-83912219D01*
X98159625Y-83912219D02*
X98254863Y-83959838D01*
X98254863Y-83959838D02*
X98302482Y-84007457D01*
X98302482Y-84007457D02*
X98350101Y-84102695D01*
X98350101Y-84102695D02*
X98350101Y-84245552D01*
X98350101Y-84245552D02*
X98302482Y-84340790D01*
X98302482Y-84340790D02*
X98254863Y-84388409D01*
X98254863Y-84388409D02*
X98159625Y-84436028D01*
X98159625Y-84436028D02*
X97778673Y-84436028D01*
X98778673Y-84912219D02*
X98778673Y-83912219D01*
X98778673Y-83912219D02*
X99016768Y-83912219D01*
X99016768Y-83912219D02*
X99159625Y-83959838D01*
X99159625Y-83959838D02*
X99254863Y-84055076D01*
X99254863Y-84055076D02*
X99302482Y-84150314D01*
X99302482Y-84150314D02*
X99350101Y-84340790D01*
X99350101Y-84340790D02*
X99350101Y-84483647D01*
X99350101Y-84483647D02*
X99302482Y-84674123D01*
X99302482Y-84674123D02*
X99254863Y-84769361D01*
X99254863Y-84769361D02*
X99159625Y-84864600D01*
X99159625Y-84864600D02*
X99016768Y-84912219D01*
X99016768Y-84912219D02*
X98778673Y-84912219D01*
X99969149Y-84436028D02*
X99969149Y-84912219D01*
X99635816Y-83912219D02*
X99969149Y-84436028D01*
X99969149Y-84436028D02*
X100302482Y-83912219D01*
X102159626Y-84912219D02*
X102159626Y-83912219D01*
X103207244Y-84912219D02*
X102873911Y-84436028D01*
X102635816Y-84912219D02*
X102635816Y-83912219D01*
X102635816Y-83912219D02*
X103016768Y-83912219D01*
X103016768Y-83912219D02*
X103112006Y-83959838D01*
X103112006Y-83959838D02*
X103159625Y-84007457D01*
X103159625Y-84007457D02*
X103207244Y-84102695D01*
X103207244Y-84102695D02*
X103207244Y-84245552D01*
X103207244Y-84245552D02*
X103159625Y-84340790D01*
X103159625Y-84340790D02*
X103112006Y-84388409D01*
X103112006Y-84388409D02*
X103016768Y-84436028D01*
X103016768Y-84436028D02*
X102635816Y-84436028D01*
X104302482Y-85007457D02*
X104207244Y-84959838D01*
X104207244Y-84959838D02*
X104112006Y-84864600D01*
X104112006Y-84864600D02*
X103969149Y-84721742D01*
X103969149Y-84721742D02*
X103873911Y-84674123D01*
X103873911Y-84674123D02*
X103778673Y-84674123D01*
X103826292Y-84912219D02*
X103731054Y-84864600D01*
X103731054Y-84864600D02*
X103635816Y-84769361D01*
X103635816Y-84769361D02*
X103588197Y-84578885D01*
X103588197Y-84578885D02*
X103588197Y-84245552D01*
X103588197Y-84245552D02*
X103635816Y-84055076D01*
X103635816Y-84055076D02*
X103731054Y-83959838D01*
X103731054Y-83959838D02*
X103826292Y-83912219D01*
X103826292Y-83912219D02*
X104016768Y-83912219D01*
X104016768Y-83912219D02*
X104112006Y-83959838D01*
X104112006Y-83959838D02*
X104207244Y-84055076D01*
X104207244Y-84055076D02*
X104254863Y-84245552D01*
X104254863Y-84245552D02*
X104254863Y-84578885D01*
X104254863Y-84578885D02*
X104207244Y-84769361D01*
X104207244Y-84769361D02*
X104112006Y-84864600D01*
X104112006Y-84864600D02*
X104016768Y-84912219D01*
X104016768Y-84912219D02*
X103826292Y-84912219D01*
X102021531Y-83634600D02*
X104345340Y-83634600D01*
X97778673Y-86522219D02*
X97778673Y-85522219D01*
X97778673Y-85522219D02*
X98112006Y-86236504D01*
X98112006Y-86236504D02*
X98445339Y-85522219D01*
X98445339Y-85522219D02*
X98445339Y-86522219D01*
X99397720Y-86522219D02*
X98921530Y-86522219D01*
X98921530Y-86522219D02*
X98921530Y-85522219D01*
X97640578Y-85244600D02*
X99392959Y-85244600D01*
X102016769Y-86522219D02*
X102016769Y-85522219D01*
X102016769Y-85522219D02*
X102588197Y-86522219D01*
X102588197Y-86522219D02*
X102588197Y-85522219D01*
X103064388Y-86522219D02*
X103064388Y-85522219D01*
X103064388Y-85522219D02*
X103397721Y-86236504D01*
X103397721Y-86236504D02*
X103731054Y-85522219D01*
X103731054Y-85522219D02*
X103731054Y-86522219D01*
X104207245Y-86522219D02*
X104207245Y-85522219D01*
X101878674Y-85244600D02*
X104345340Y-85244600D01*
X97731054Y-88084600D02*
X97873911Y-88132219D01*
X97873911Y-88132219D02*
X98112006Y-88132219D01*
X98112006Y-88132219D02*
X98207244Y-88084600D01*
X98207244Y-88084600D02*
X98254863Y-88036980D01*
X98254863Y-88036980D02*
X98302482Y-87941742D01*
X98302482Y-87941742D02*
X98302482Y-87846504D01*
X98302482Y-87846504D02*
X98254863Y-87751266D01*
X98254863Y-87751266D02*
X98207244Y-87703647D01*
X98207244Y-87703647D02*
X98112006Y-87656028D01*
X98112006Y-87656028D02*
X97921530Y-87608409D01*
X97921530Y-87608409D02*
X97826292Y-87560790D01*
X97826292Y-87560790D02*
X97778673Y-87513171D01*
X97778673Y-87513171D02*
X97731054Y-87417933D01*
X97731054Y-87417933D02*
X97731054Y-87322695D01*
X97731054Y-87322695D02*
X97778673Y-87227457D01*
X97778673Y-87227457D02*
X97826292Y-87179838D01*
X97826292Y-87179838D02*
X97921530Y-87132219D01*
X97921530Y-87132219D02*
X98159625Y-87132219D01*
X98159625Y-87132219D02*
X98302482Y-87179838D01*
X98921530Y-87656028D02*
X98921530Y-88132219D01*
X98588197Y-87132219D02*
X98921530Y-87656028D01*
X98921530Y-87656028D02*
X99254863Y-87132219D01*
X99588197Y-88132219D02*
X99588197Y-87132219D01*
X99588197Y-87132219D02*
X100159625Y-88132219D01*
X100159625Y-88132219D02*
X100159625Y-87132219D01*
X101207244Y-88036980D02*
X101159625Y-88084600D01*
X101159625Y-88084600D02*
X101016768Y-88132219D01*
X101016768Y-88132219D02*
X100921530Y-88132219D01*
X100921530Y-88132219D02*
X100778673Y-88084600D01*
X100778673Y-88084600D02*
X100683435Y-87989361D01*
X100683435Y-87989361D02*
X100635816Y-87894123D01*
X100635816Y-87894123D02*
X100588197Y-87703647D01*
X100588197Y-87703647D02*
X100588197Y-87560790D01*
X100588197Y-87560790D02*
X100635816Y-87370314D01*
X100635816Y-87370314D02*
X100683435Y-87275076D01*
X100683435Y-87275076D02*
X100778673Y-87179838D01*
X100778673Y-87179838D02*
X100921530Y-87132219D01*
X100921530Y-87132219D02*
X101016768Y-87132219D01*
X101016768Y-87132219D02*
X101159625Y-87179838D01*
X101159625Y-87179838D02*
X101207244Y-87227457D01*
X102921530Y-87179838D02*
X102826292Y-87132219D01*
X102826292Y-87132219D02*
X102683435Y-87132219D01*
X102683435Y-87132219D02*
X102540578Y-87179838D01*
X102540578Y-87179838D02*
X102445340Y-87275076D01*
X102445340Y-87275076D02*
X102397721Y-87370314D01*
X102397721Y-87370314D02*
X102350102Y-87560790D01*
X102350102Y-87560790D02*
X102350102Y-87703647D01*
X102350102Y-87703647D02*
X102397721Y-87894123D01*
X102397721Y-87894123D02*
X102445340Y-87989361D01*
X102445340Y-87989361D02*
X102540578Y-88084600D01*
X102540578Y-88084600D02*
X102683435Y-88132219D01*
X102683435Y-88132219D02*
X102778673Y-88132219D01*
X102778673Y-88132219D02*
X102921530Y-88084600D01*
X102921530Y-88084600D02*
X102969149Y-88036980D01*
X102969149Y-88036980D02*
X102969149Y-87703647D01*
X102969149Y-87703647D02*
X102778673Y-87703647D01*
X103397721Y-88132219D02*
X103397721Y-87132219D01*
X103397721Y-87132219D02*
X103969149Y-88132219D01*
X103969149Y-88132219D02*
X103969149Y-87132219D01*
X104445340Y-88132219D02*
X104445340Y-87132219D01*
X104445340Y-87132219D02*
X104683435Y-87132219D01*
X104683435Y-87132219D02*
X104826292Y-87179838D01*
X104826292Y-87179838D02*
X104921530Y-87275076D01*
X104921530Y-87275076D02*
X104969149Y-87370314D01*
X104969149Y-87370314D02*
X105016768Y-87560790D01*
X105016768Y-87560790D02*
X105016768Y-87703647D01*
X105016768Y-87703647D02*
X104969149Y-87894123D01*
X104969149Y-87894123D02*
X104921530Y-87989361D01*
X104921530Y-87989361D02*
X104826292Y-88084600D01*
X104826292Y-88084600D02*
X104683435Y-88132219D01*
X104683435Y-88132219D02*
X104445340Y-88132219D01*
D11*
X143389579Y-76730219D02*
X143389579Y-75730219D01*
X143865769Y-76063552D02*
X143865769Y-76730219D01*
X143865769Y-76158790D02*
X143913388Y-76111171D01*
X143913388Y-76111171D02*
X144008626Y-76063552D01*
X144008626Y-76063552D02*
X144151483Y-76063552D01*
X144151483Y-76063552D02*
X144246721Y-76111171D01*
X144246721Y-76111171D02*
X144294340Y-76206409D01*
X144294340Y-76206409D02*
X144294340Y-76730219D01*
D10*
X98350101Y-103903980D02*
X98302482Y-103951600D01*
X98302482Y-103951600D02*
X98159625Y-103999219D01*
X98159625Y-103999219D02*
X98064387Y-103999219D01*
X98064387Y-103999219D02*
X97921530Y-103951600D01*
X97921530Y-103951600D02*
X97826292Y-103856361D01*
X97826292Y-103856361D02*
X97778673Y-103761123D01*
X97778673Y-103761123D02*
X97731054Y-103570647D01*
X97731054Y-103570647D02*
X97731054Y-103427790D01*
X97731054Y-103427790D02*
X97778673Y-103237314D01*
X97778673Y-103237314D02*
X97826292Y-103142076D01*
X97826292Y-103142076D02*
X97921530Y-103046838D01*
X97921530Y-103046838D02*
X98064387Y-102999219D01*
X98064387Y-102999219D02*
X98159625Y-102999219D01*
X98159625Y-102999219D02*
X98302482Y-103046838D01*
X98302482Y-103046838D02*
X98350101Y-103094457D01*
X98778673Y-103999219D02*
X98778673Y-102999219D01*
X98778673Y-102999219D02*
X99159625Y-102999219D01*
X99159625Y-102999219D02*
X99254863Y-103046838D01*
X99254863Y-103046838D02*
X99302482Y-103094457D01*
X99302482Y-103094457D02*
X99350101Y-103189695D01*
X99350101Y-103189695D02*
X99350101Y-103332552D01*
X99350101Y-103332552D02*
X99302482Y-103427790D01*
X99302482Y-103427790D02*
X99254863Y-103475409D01*
X99254863Y-103475409D02*
X99159625Y-103523028D01*
X99159625Y-103523028D02*
X98778673Y-103523028D01*
X99778673Y-102999219D02*
X99778673Y-103808742D01*
X99778673Y-103808742D02*
X99826292Y-103903980D01*
X99826292Y-103903980D02*
X99873911Y-103951600D01*
X99873911Y-103951600D02*
X99969149Y-103999219D01*
X99969149Y-103999219D02*
X100159625Y-103999219D01*
X100159625Y-103999219D02*
X100254863Y-103951600D01*
X100254863Y-103951600D02*
X100302482Y-103903980D01*
X100302482Y-103903980D02*
X100350101Y-103808742D01*
X100350101Y-103808742D02*
X100350101Y-102999219D01*
X102016768Y-102999219D02*
X101826292Y-102999219D01*
X101826292Y-102999219D02*
X101731054Y-103046838D01*
X101731054Y-103046838D02*
X101683435Y-103094457D01*
X101683435Y-103094457D02*
X101588197Y-103237314D01*
X101588197Y-103237314D02*
X101540578Y-103427790D01*
X101540578Y-103427790D02*
X101540578Y-103808742D01*
X101540578Y-103808742D02*
X101588197Y-103903980D01*
X101588197Y-103903980D02*
X101635816Y-103951600D01*
X101635816Y-103951600D02*
X101731054Y-103999219D01*
X101731054Y-103999219D02*
X101921530Y-103999219D01*
X101921530Y-103999219D02*
X102016768Y-103951600D01*
X102016768Y-103951600D02*
X102064387Y-103903980D01*
X102064387Y-103903980D02*
X102112006Y-103808742D01*
X102112006Y-103808742D02*
X102112006Y-103570647D01*
X102112006Y-103570647D02*
X102064387Y-103475409D01*
X102064387Y-103475409D02*
X102016768Y-103427790D01*
X102016768Y-103427790D02*
X101921530Y-103380171D01*
X101921530Y-103380171D02*
X101731054Y-103380171D01*
X101731054Y-103380171D02*
X101635816Y-103427790D01*
X101635816Y-103427790D02*
X101588197Y-103475409D01*
X101588197Y-103475409D02*
X101540578Y-103570647D01*
X102683435Y-103427790D02*
X102588197Y-103380171D01*
X102588197Y-103380171D02*
X102540578Y-103332552D01*
X102540578Y-103332552D02*
X102492959Y-103237314D01*
X102492959Y-103237314D02*
X102492959Y-103189695D01*
X102492959Y-103189695D02*
X102540578Y-103094457D01*
X102540578Y-103094457D02*
X102588197Y-103046838D01*
X102588197Y-103046838D02*
X102683435Y-102999219D01*
X102683435Y-102999219D02*
X102873911Y-102999219D01*
X102873911Y-102999219D02*
X102969149Y-103046838D01*
X102969149Y-103046838D02*
X103016768Y-103094457D01*
X103016768Y-103094457D02*
X103064387Y-103189695D01*
X103064387Y-103189695D02*
X103064387Y-103237314D01*
X103064387Y-103237314D02*
X103016768Y-103332552D01*
X103016768Y-103332552D02*
X102969149Y-103380171D01*
X102969149Y-103380171D02*
X102873911Y-103427790D01*
X102873911Y-103427790D02*
X102683435Y-103427790D01*
X102683435Y-103427790D02*
X102588197Y-103475409D01*
X102588197Y-103475409D02*
X102540578Y-103523028D01*
X102540578Y-103523028D02*
X102492959Y-103618266D01*
X102492959Y-103618266D02*
X102492959Y-103808742D01*
X102492959Y-103808742D02*
X102540578Y-103903980D01*
X102540578Y-103903980D02*
X102588197Y-103951600D01*
X102588197Y-103951600D02*
X102683435Y-103999219D01*
X102683435Y-103999219D02*
X102873911Y-103999219D01*
X102873911Y-103999219D02*
X102969149Y-103951600D01*
X102969149Y-103951600D02*
X103016768Y-103903980D01*
X103016768Y-103903980D02*
X103064387Y-103808742D01*
X103064387Y-103808742D02*
X103064387Y-103618266D01*
X103064387Y-103618266D02*
X103016768Y-103523028D01*
X103016768Y-103523028D02*
X102969149Y-103475409D01*
X102969149Y-103475409D02*
X102873911Y-103427790D01*
X103683435Y-102999219D02*
X103778673Y-102999219D01*
X103778673Y-102999219D02*
X103873911Y-103046838D01*
X103873911Y-103046838D02*
X103921530Y-103094457D01*
X103921530Y-103094457D02*
X103969149Y-103189695D01*
X103969149Y-103189695D02*
X104016768Y-103380171D01*
X104016768Y-103380171D02*
X104016768Y-103618266D01*
X104016768Y-103618266D02*
X103969149Y-103808742D01*
X103969149Y-103808742D02*
X103921530Y-103903980D01*
X103921530Y-103903980D02*
X103873911Y-103951600D01*
X103873911Y-103951600D02*
X103778673Y-103999219D01*
X103778673Y-103999219D02*
X103683435Y-103999219D01*
X103683435Y-103999219D02*
X103588197Y-103951600D01*
X103588197Y-103951600D02*
X103540578Y-103903980D01*
X103540578Y-103903980D02*
X103492959Y-103808742D01*
X103492959Y-103808742D02*
X103445340Y-103618266D01*
X103445340Y-103618266D02*
X103445340Y-103380171D01*
X103445340Y-103380171D02*
X103492959Y-103189695D01*
X103492959Y-103189695D02*
X103540578Y-103094457D01*
X103540578Y-103094457D02*
X103588197Y-103046838D01*
X103588197Y-103046838D02*
X103683435Y-102999219D01*
X104397721Y-103094457D02*
X104445340Y-103046838D01*
X104445340Y-103046838D02*
X104540578Y-102999219D01*
X104540578Y-102999219D02*
X104778673Y-102999219D01*
X104778673Y-102999219D02*
X104873911Y-103046838D01*
X104873911Y-103046838D02*
X104921530Y-103094457D01*
X104921530Y-103094457D02*
X104969149Y-103189695D01*
X104969149Y-103189695D02*
X104969149Y-103284933D01*
X104969149Y-103284933D02*
X104921530Y-103427790D01*
X104921530Y-103427790D02*
X104350102Y-103999219D01*
X104350102Y-103999219D02*
X104969149Y-103999219D01*
X97731054Y-105561600D02*
X97873911Y-105609219D01*
X97873911Y-105609219D02*
X98112006Y-105609219D01*
X98112006Y-105609219D02*
X98207244Y-105561600D01*
X98207244Y-105561600D02*
X98254863Y-105513980D01*
X98254863Y-105513980D02*
X98302482Y-105418742D01*
X98302482Y-105418742D02*
X98302482Y-105323504D01*
X98302482Y-105323504D02*
X98254863Y-105228266D01*
X98254863Y-105228266D02*
X98207244Y-105180647D01*
X98207244Y-105180647D02*
X98112006Y-105133028D01*
X98112006Y-105133028D02*
X97921530Y-105085409D01*
X97921530Y-105085409D02*
X97826292Y-105037790D01*
X97826292Y-105037790D02*
X97778673Y-104990171D01*
X97778673Y-104990171D02*
X97731054Y-104894933D01*
X97731054Y-104894933D02*
X97731054Y-104799695D01*
X97731054Y-104799695D02*
X97778673Y-104704457D01*
X97778673Y-104704457D02*
X97826292Y-104656838D01*
X97826292Y-104656838D02*
X97921530Y-104609219D01*
X97921530Y-104609219D02*
X98159625Y-104609219D01*
X98159625Y-104609219D02*
X98302482Y-104656838D01*
X98731054Y-105609219D02*
X98731054Y-104942552D01*
X98731054Y-104609219D02*
X98683435Y-104656838D01*
X98683435Y-104656838D02*
X98731054Y-104704457D01*
X98731054Y-104704457D02*
X98778673Y-104656838D01*
X98778673Y-104656838D02*
X98731054Y-104609219D01*
X98731054Y-104609219D02*
X98731054Y-104704457D01*
X99635815Y-104942552D02*
X99635815Y-105752076D01*
X99635815Y-105752076D02*
X99588196Y-105847314D01*
X99588196Y-105847314D02*
X99540577Y-105894933D01*
X99540577Y-105894933D02*
X99445339Y-105942552D01*
X99445339Y-105942552D02*
X99302482Y-105942552D01*
X99302482Y-105942552D02*
X99207244Y-105894933D01*
X99635815Y-105561600D02*
X99540577Y-105609219D01*
X99540577Y-105609219D02*
X99350101Y-105609219D01*
X99350101Y-105609219D02*
X99254863Y-105561600D01*
X99254863Y-105561600D02*
X99207244Y-105513980D01*
X99207244Y-105513980D02*
X99159625Y-105418742D01*
X99159625Y-105418742D02*
X99159625Y-105133028D01*
X99159625Y-105133028D02*
X99207244Y-105037790D01*
X99207244Y-105037790D02*
X99254863Y-104990171D01*
X99254863Y-104990171D02*
X99350101Y-104942552D01*
X99350101Y-104942552D02*
X99540577Y-104942552D01*
X99540577Y-104942552D02*
X99635815Y-104990171D01*
X100112006Y-104942552D02*
X100112006Y-105609219D01*
X100112006Y-105037790D02*
X100159625Y-104990171D01*
X100159625Y-104990171D02*
X100254863Y-104942552D01*
X100254863Y-104942552D02*
X100397720Y-104942552D01*
X100397720Y-104942552D02*
X100492958Y-104990171D01*
X100492958Y-104990171D02*
X100540577Y-105085409D01*
X100540577Y-105085409D02*
X100540577Y-105609219D01*
X101445339Y-105609219D02*
X101445339Y-105085409D01*
X101445339Y-105085409D02*
X101397720Y-104990171D01*
X101397720Y-104990171D02*
X101302482Y-104942552D01*
X101302482Y-104942552D02*
X101112006Y-104942552D01*
X101112006Y-104942552D02*
X101016768Y-104990171D01*
X101445339Y-105561600D02*
X101350101Y-105609219D01*
X101350101Y-105609219D02*
X101112006Y-105609219D01*
X101112006Y-105609219D02*
X101016768Y-105561600D01*
X101016768Y-105561600D02*
X100969149Y-105466361D01*
X100969149Y-105466361D02*
X100969149Y-105371123D01*
X100969149Y-105371123D02*
X101016768Y-105275885D01*
X101016768Y-105275885D02*
X101112006Y-105228266D01*
X101112006Y-105228266D02*
X101350101Y-105228266D01*
X101350101Y-105228266D02*
X101445339Y-105180647D01*
X102064387Y-105609219D02*
X101969149Y-105561600D01*
X101969149Y-105561600D02*
X101921530Y-105466361D01*
X101921530Y-105466361D02*
X101921530Y-104609219D01*
X102397721Y-105561600D02*
X102492959Y-105609219D01*
X102492959Y-105609219D02*
X102683435Y-105609219D01*
X102683435Y-105609219D02*
X102778673Y-105561600D01*
X102778673Y-105561600D02*
X102826292Y-105466361D01*
X102826292Y-105466361D02*
X102826292Y-105418742D01*
X102826292Y-105418742D02*
X102778673Y-105323504D01*
X102778673Y-105323504D02*
X102683435Y-105275885D01*
X102683435Y-105275885D02*
X102540578Y-105275885D01*
X102540578Y-105275885D02*
X102445340Y-105228266D01*
X102445340Y-105228266D02*
X102397721Y-105133028D01*
X102397721Y-105133028D02*
X102397721Y-105085409D01*
X102397721Y-105085409D02*
X102445340Y-104990171D01*
X102445340Y-104990171D02*
X102540578Y-104942552D01*
X102540578Y-104942552D02*
X102683435Y-104942552D01*
X102683435Y-104942552D02*
X102778673Y-104990171D01*
X103254864Y-105513980D02*
X103302483Y-105561600D01*
X103302483Y-105561600D02*
X103254864Y-105609219D01*
X103254864Y-105609219D02*
X103207245Y-105561600D01*
X103207245Y-105561600D02*
X103254864Y-105513980D01*
X103254864Y-105513980D02*
X103254864Y-105609219D01*
X103254864Y-104990171D02*
X103302483Y-105037790D01*
X103302483Y-105037790D02*
X103254864Y-105085409D01*
X103254864Y-105085409D02*
X103207245Y-105037790D01*
X103207245Y-105037790D02*
X103254864Y-104990171D01*
X103254864Y-104990171D02*
X103254864Y-105085409D01*
X98540578Y-106838266D02*
X99302483Y-106838266D01*
X102826293Y-106838266D02*
X103588198Y-106838266D01*
X98350101Y-108829219D02*
X98016768Y-108353028D01*
X97778673Y-108829219D02*
X97778673Y-107829219D01*
X97778673Y-107829219D02*
X98159625Y-107829219D01*
X98159625Y-107829219D02*
X98254863Y-107876838D01*
X98254863Y-107876838D02*
X98302482Y-107924457D01*
X98302482Y-107924457D02*
X98350101Y-108019695D01*
X98350101Y-108019695D02*
X98350101Y-108162552D01*
X98350101Y-108162552D02*
X98302482Y-108257790D01*
X98302482Y-108257790D02*
X98254863Y-108305409D01*
X98254863Y-108305409D02*
X98159625Y-108353028D01*
X98159625Y-108353028D02*
X97778673Y-108353028D01*
X98731054Y-108781600D02*
X98873911Y-108829219D01*
X98873911Y-108829219D02*
X99112006Y-108829219D01*
X99112006Y-108829219D02*
X99207244Y-108781600D01*
X99207244Y-108781600D02*
X99254863Y-108733980D01*
X99254863Y-108733980D02*
X99302482Y-108638742D01*
X99302482Y-108638742D02*
X99302482Y-108543504D01*
X99302482Y-108543504D02*
X99254863Y-108448266D01*
X99254863Y-108448266D02*
X99207244Y-108400647D01*
X99207244Y-108400647D02*
X99112006Y-108353028D01*
X99112006Y-108353028D02*
X98921530Y-108305409D01*
X98921530Y-108305409D02*
X98826292Y-108257790D01*
X98826292Y-108257790D02*
X98778673Y-108210171D01*
X98778673Y-108210171D02*
X98731054Y-108114933D01*
X98731054Y-108114933D02*
X98731054Y-108019695D01*
X98731054Y-108019695D02*
X98778673Y-107924457D01*
X98778673Y-107924457D02*
X98826292Y-107876838D01*
X98826292Y-107876838D02*
X98921530Y-107829219D01*
X98921530Y-107829219D02*
X99159625Y-107829219D01*
X99159625Y-107829219D02*
X99302482Y-107876838D01*
X99588197Y-107829219D02*
X100159625Y-107829219D01*
X99873911Y-108829219D02*
X99873911Y-107829219D01*
X97640578Y-107551600D02*
X100154864Y-107551600D01*
X102778674Y-108448266D02*
X103540579Y-108448266D01*
X97778673Y-110439219D02*
X97778673Y-109439219D01*
X97778673Y-109915409D02*
X98350101Y-109915409D01*
X98350101Y-110439219D02*
X98350101Y-109439219D01*
X98778673Y-110153504D02*
X99254863Y-110153504D01*
X98683435Y-110439219D02*
X99016768Y-109439219D01*
X99016768Y-109439219D02*
X99350101Y-110439219D01*
X100159625Y-110439219D02*
X99683435Y-110439219D01*
X99683435Y-110439219D02*
X99683435Y-109439219D01*
X100350102Y-109439219D02*
X100921530Y-109439219D01*
X100635816Y-110439219D02*
X100635816Y-109439219D01*
X97640578Y-109161600D02*
X100916769Y-109161600D01*
X102778674Y-110439219D02*
X102778674Y-109439219D01*
X103826292Y-110439219D02*
X103492959Y-109963028D01*
X103254864Y-110439219D02*
X103254864Y-109439219D01*
X103254864Y-109439219D02*
X103635816Y-109439219D01*
X103635816Y-109439219D02*
X103731054Y-109486838D01*
X103731054Y-109486838D02*
X103778673Y-109534457D01*
X103778673Y-109534457D02*
X103826292Y-109629695D01*
X103826292Y-109629695D02*
X103826292Y-109772552D01*
X103826292Y-109772552D02*
X103778673Y-109867790D01*
X103778673Y-109867790D02*
X103731054Y-109915409D01*
X103731054Y-109915409D02*
X103635816Y-109963028D01*
X103635816Y-109963028D02*
X103254864Y-109963028D01*
X104921530Y-110534457D02*
X104826292Y-110486838D01*
X104826292Y-110486838D02*
X104731054Y-110391600D01*
X104731054Y-110391600D02*
X104588197Y-110248742D01*
X104588197Y-110248742D02*
X104492959Y-110201123D01*
X104492959Y-110201123D02*
X104397721Y-110201123D01*
X104445340Y-110439219D02*
X104350102Y-110391600D01*
X104350102Y-110391600D02*
X104254864Y-110296361D01*
X104254864Y-110296361D02*
X104207245Y-110105885D01*
X104207245Y-110105885D02*
X104207245Y-109772552D01*
X104207245Y-109772552D02*
X104254864Y-109582076D01*
X104254864Y-109582076D02*
X104350102Y-109486838D01*
X104350102Y-109486838D02*
X104445340Y-109439219D01*
X104445340Y-109439219D02*
X104635816Y-109439219D01*
X104635816Y-109439219D02*
X104731054Y-109486838D01*
X104731054Y-109486838D02*
X104826292Y-109582076D01*
X104826292Y-109582076D02*
X104873911Y-109772552D01*
X104873911Y-109772552D02*
X104873911Y-110105885D01*
X104873911Y-110105885D02*
X104826292Y-110296361D01*
X104826292Y-110296361D02*
X104731054Y-110391600D01*
X104731054Y-110391600D02*
X104635816Y-110439219D01*
X104635816Y-110439219D02*
X104445340Y-110439219D01*
X102640579Y-109161600D02*
X104964388Y-109161600D01*
X97635816Y-111049219D02*
X97969149Y-112049219D01*
X97969149Y-112049219D02*
X98302482Y-111049219D01*
X98635816Y-112049219D02*
X98635816Y-111049219D01*
X98635816Y-111049219D02*
X98969149Y-111763504D01*
X98969149Y-111763504D02*
X99302482Y-111049219D01*
X99302482Y-111049219D02*
X99302482Y-112049219D01*
X99731054Y-111763504D02*
X100207244Y-111763504D01*
X99635816Y-112049219D02*
X99969149Y-111049219D01*
X99969149Y-111049219D02*
X100302482Y-112049219D01*
X102921531Y-112049219D02*
X102921531Y-111049219D01*
X102921531Y-111049219D02*
X103492959Y-112049219D01*
X103492959Y-112049219D02*
X103492959Y-111049219D01*
X103969150Y-112049219D02*
X103969150Y-111049219D01*
X103969150Y-111049219D02*
X104302483Y-111763504D01*
X104302483Y-111763504D02*
X104635816Y-111049219D01*
X104635816Y-111049219D02*
X104635816Y-112049219D01*
X105112007Y-112049219D02*
X105112007Y-111049219D01*
X102783436Y-110771600D02*
X105250102Y-110771600D01*
X98112006Y-113135409D02*
X98254863Y-113183028D01*
X98254863Y-113183028D02*
X98302482Y-113230647D01*
X98302482Y-113230647D02*
X98350101Y-113325885D01*
X98350101Y-113325885D02*
X98350101Y-113468742D01*
X98350101Y-113468742D02*
X98302482Y-113563980D01*
X98302482Y-113563980D02*
X98254863Y-113611600D01*
X98254863Y-113611600D02*
X98159625Y-113659219D01*
X98159625Y-113659219D02*
X97778673Y-113659219D01*
X97778673Y-113659219D02*
X97778673Y-112659219D01*
X97778673Y-112659219D02*
X98112006Y-112659219D01*
X98112006Y-112659219D02*
X98207244Y-112706838D01*
X98207244Y-112706838D02*
X98254863Y-112754457D01*
X98254863Y-112754457D02*
X98302482Y-112849695D01*
X98302482Y-112849695D02*
X98302482Y-112944933D01*
X98302482Y-112944933D02*
X98254863Y-113040171D01*
X98254863Y-113040171D02*
X98207244Y-113087790D01*
X98207244Y-113087790D02*
X98112006Y-113135409D01*
X98112006Y-113135409D02*
X97778673Y-113135409D01*
X98731054Y-113373504D02*
X99207244Y-113373504D01*
X98635816Y-113659219D02*
X98969149Y-112659219D01*
X98969149Y-112659219D02*
X99302482Y-113659219D01*
X103207245Y-112706838D02*
X103112007Y-112659219D01*
X103112007Y-112659219D02*
X102969150Y-112659219D01*
X102969150Y-112659219D02*
X102826293Y-112706838D01*
X102826293Y-112706838D02*
X102731055Y-112802076D01*
X102731055Y-112802076D02*
X102683436Y-112897314D01*
X102683436Y-112897314D02*
X102635817Y-113087790D01*
X102635817Y-113087790D02*
X102635817Y-113230647D01*
X102635817Y-113230647D02*
X102683436Y-113421123D01*
X102683436Y-113421123D02*
X102731055Y-113516361D01*
X102731055Y-113516361D02*
X102826293Y-113611600D01*
X102826293Y-113611600D02*
X102969150Y-113659219D01*
X102969150Y-113659219D02*
X103064388Y-113659219D01*
X103064388Y-113659219D02*
X103207245Y-113611600D01*
X103207245Y-113611600D02*
X103254864Y-113563980D01*
X103254864Y-113563980D02*
X103254864Y-113230647D01*
X103254864Y-113230647D02*
X103064388Y-113230647D01*
X103683436Y-113659219D02*
X103683436Y-112659219D01*
X103683436Y-112659219D02*
X104254864Y-113659219D01*
X104254864Y-113659219D02*
X104254864Y-112659219D01*
X104731055Y-113659219D02*
X104731055Y-112659219D01*
X104731055Y-112659219D02*
X104969150Y-112659219D01*
X104969150Y-112659219D02*
X105112007Y-112706838D01*
X105112007Y-112706838D02*
X105207245Y-112802076D01*
X105207245Y-112802076D02*
X105254864Y-112897314D01*
X105254864Y-112897314D02*
X105302483Y-113087790D01*
X105302483Y-113087790D02*
X105302483Y-113230647D01*
X105302483Y-113230647D02*
X105254864Y-113421123D01*
X105254864Y-113421123D02*
X105207245Y-113516361D01*
X105207245Y-113516361D02*
X105112007Y-113611600D01*
X105112007Y-113611600D02*
X104969150Y-113659219D01*
X104969150Y-113659219D02*
X104731055Y-113659219D01*
D11*
X142532341Y-77866952D02*
X142722817Y-78533619D01*
X142722817Y-78533619D02*
X142913293Y-78057428D01*
X142913293Y-78057428D02*
X143103769Y-78533619D01*
X143103769Y-78533619D02*
X143294245Y-77866952D01*
X143675198Y-78533619D02*
X143675198Y-77866952D01*
X143675198Y-77533619D02*
X143627579Y-77581238D01*
X143627579Y-77581238D02*
X143675198Y-77628857D01*
X143675198Y-77628857D02*
X143722817Y-77581238D01*
X143722817Y-77581238D02*
X143675198Y-77533619D01*
X143675198Y-77533619D02*
X143675198Y-77628857D01*
X144008531Y-77866952D02*
X144389483Y-77866952D01*
X144151388Y-77533619D02*
X144151388Y-78390761D01*
X144151388Y-78390761D02*
X144199007Y-78486000D01*
X144199007Y-78486000D02*
X144294245Y-78533619D01*
X144294245Y-78533619D02*
X144389483Y-78533619D01*
X144722817Y-78533619D02*
X144722817Y-77533619D01*
X145151388Y-78533619D02*
X145151388Y-78009809D01*
X145151388Y-78009809D02*
X145103769Y-77914571D01*
X145103769Y-77914571D02*
X145008531Y-77866952D01*
X145008531Y-77866952D02*
X144865674Y-77866952D01*
X144865674Y-77866952D02*
X144770436Y-77914571D01*
X144770436Y-77914571D02*
X144722817Y-77962190D01*
X146341865Y-78247904D02*
X146818055Y-78247904D01*
X146246627Y-78533619D02*
X146579960Y-77533619D01*
X146579960Y-77533619D02*
X146913293Y-78533619D01*
X147437103Y-77533619D02*
X147627579Y-77533619D01*
X147627579Y-77533619D02*
X147722817Y-77581238D01*
X147722817Y-77581238D02*
X147818055Y-77676476D01*
X147818055Y-77676476D02*
X147865674Y-77866952D01*
X147865674Y-77866952D02*
X147865674Y-78200285D01*
X147865674Y-78200285D02*
X147818055Y-78390761D01*
X147818055Y-78390761D02*
X147722817Y-78486000D01*
X147722817Y-78486000D02*
X147627579Y-78533619D01*
X147627579Y-78533619D02*
X147437103Y-78533619D01*
X147437103Y-78533619D02*
X147341865Y-78486000D01*
X147341865Y-78486000D02*
X147246627Y-78390761D01*
X147246627Y-78390761D02*
X147199008Y-78200285D01*
X147199008Y-78200285D02*
X147199008Y-77866952D01*
X147199008Y-77866952D02*
X147246627Y-77676476D01*
X147246627Y-77676476D02*
X147341865Y-77581238D01*
X147341865Y-77581238D02*
X147437103Y-77533619D01*
X148294246Y-78009809D02*
X148627579Y-78009809D01*
X148770436Y-78533619D02*
X148294246Y-78533619D01*
X148294246Y-78533619D02*
X148294246Y-77533619D01*
X148294246Y-77533619D02*
X148770436Y-77533619D01*
X146251389Y-77256000D02*
X148860913Y-77256000D01*
X190419819Y-124234363D02*
X190657914Y-124234363D01*
X190562676Y-124472458D02*
X190657914Y-124234363D01*
X190657914Y-124234363D02*
X190562676Y-123996268D01*
X190848390Y-124377220D02*
X190657914Y-124234363D01*
X190657914Y-124234363D02*
X190848390Y-124091506D01*
X190419819Y-123615315D02*
X191229342Y-123615315D01*
X191229342Y-123615315D02*
X191324580Y-123567696D01*
X191324580Y-123567696D02*
X191372200Y-123520077D01*
X191372200Y-123520077D02*
X191419819Y-123424839D01*
X191419819Y-123424839D02*
X191419819Y-123234363D01*
X191419819Y-123234363D02*
X191372200Y-123139125D01*
X191372200Y-123139125D02*
X191324580Y-123091506D01*
X191324580Y-123091506D02*
X191229342Y-123043887D01*
X191229342Y-123043887D02*
X190419819Y-123043887D01*
X190753152Y-122567696D02*
X191419819Y-122567696D01*
X190848390Y-122567696D02*
X190800771Y-122520077D01*
X190800771Y-122520077D02*
X190753152Y-122424839D01*
X190753152Y-122424839D02*
X190753152Y-122281982D01*
X190753152Y-122281982D02*
X190800771Y-122186744D01*
X190800771Y-122186744D02*
X190896009Y-122139125D01*
X190896009Y-122139125D02*
X191419819Y-122139125D01*
X191419819Y-121662934D02*
X190753152Y-121662934D01*
X190419819Y-121662934D02*
X190467438Y-121710553D01*
X190467438Y-121710553D02*
X190515057Y-121662934D01*
X190515057Y-121662934D02*
X190467438Y-121615315D01*
X190467438Y-121615315D02*
X190419819Y-121662934D01*
X190419819Y-121662934D02*
X190515057Y-121662934D01*
X191372200Y-120758173D02*
X191419819Y-120853411D01*
X191419819Y-120853411D02*
X191419819Y-121043887D01*
X191419819Y-121043887D02*
X191372200Y-121139125D01*
X191372200Y-121139125D02*
X191324580Y-121186744D01*
X191324580Y-121186744D02*
X191229342Y-121234363D01*
X191229342Y-121234363D02*
X190943628Y-121234363D01*
X190943628Y-121234363D02*
X190848390Y-121186744D01*
X190848390Y-121186744D02*
X190800771Y-121139125D01*
X190800771Y-121139125D02*
X190753152Y-121043887D01*
X190753152Y-121043887D02*
X190753152Y-120853411D01*
X190753152Y-120853411D02*
X190800771Y-120758173D01*
X191419819Y-120186744D02*
X191372200Y-120281982D01*
X191372200Y-120281982D02*
X191324580Y-120329601D01*
X191324580Y-120329601D02*
X191229342Y-120377220D01*
X191229342Y-120377220D02*
X190943628Y-120377220D01*
X190943628Y-120377220D02*
X190848390Y-120329601D01*
X190848390Y-120329601D02*
X190800771Y-120281982D01*
X190800771Y-120281982D02*
X190753152Y-120186744D01*
X190753152Y-120186744D02*
X190753152Y-120043887D01*
X190753152Y-120043887D02*
X190800771Y-119948649D01*
X190800771Y-119948649D02*
X190848390Y-119901030D01*
X190848390Y-119901030D02*
X190943628Y-119853411D01*
X190943628Y-119853411D02*
X191229342Y-119853411D01*
X191229342Y-119853411D02*
X191324580Y-119901030D01*
X191324580Y-119901030D02*
X191372200Y-119948649D01*
X191372200Y-119948649D02*
X191419819Y-120043887D01*
X191419819Y-120043887D02*
X191419819Y-120186744D01*
X191419819Y-119424839D02*
X190753152Y-119424839D01*
X190848390Y-119424839D02*
X190800771Y-119377220D01*
X190800771Y-119377220D02*
X190753152Y-119281982D01*
X190753152Y-119281982D02*
X190753152Y-119139125D01*
X190753152Y-119139125D02*
X190800771Y-119043887D01*
X190800771Y-119043887D02*
X190896009Y-118996268D01*
X190896009Y-118996268D02*
X191419819Y-118996268D01*
X190896009Y-118996268D02*
X190800771Y-118948649D01*
X190800771Y-118948649D02*
X190753152Y-118853411D01*
X190753152Y-118853411D02*
X190753152Y-118710554D01*
X190753152Y-118710554D02*
X190800771Y-118615315D01*
X190800771Y-118615315D02*
X190896009Y-118567696D01*
X190896009Y-118567696D02*
X191419819Y-118567696D01*
X190753152Y-118091506D02*
X191753152Y-118091506D01*
X190800771Y-118091506D02*
X190753152Y-117996268D01*
X190753152Y-117996268D02*
X190753152Y-117805792D01*
X190753152Y-117805792D02*
X190800771Y-117710554D01*
X190800771Y-117710554D02*
X190848390Y-117662935D01*
X190848390Y-117662935D02*
X190943628Y-117615316D01*
X190943628Y-117615316D02*
X191229342Y-117615316D01*
X191229342Y-117615316D02*
X191324580Y-117662935D01*
X191324580Y-117662935D02*
X191372200Y-117710554D01*
X191372200Y-117710554D02*
X191419819Y-117805792D01*
X191419819Y-117805792D02*
X191419819Y-117996268D01*
X191419819Y-117996268D02*
X191372200Y-118091506D01*
X190753152Y-116520077D02*
X191419819Y-116281982D01*
X191419819Y-116281982D02*
X190753152Y-116043887D01*
X190515057Y-115710553D02*
X190467438Y-115662934D01*
X190467438Y-115662934D02*
X190419819Y-115567696D01*
X190419819Y-115567696D02*
X190419819Y-115329601D01*
X190419819Y-115329601D02*
X190467438Y-115234363D01*
X190467438Y-115234363D02*
X190515057Y-115186744D01*
X190515057Y-115186744D02*
X190610295Y-115139125D01*
X190610295Y-115139125D02*
X190705533Y-115139125D01*
X190705533Y-115139125D02*
X190848390Y-115186744D01*
X190848390Y-115186744D02*
X191419819Y-115758172D01*
X191419819Y-115758172D02*
X191419819Y-115139125D01*
X190419819Y-114567696D02*
X190657914Y-114567696D01*
X190562676Y-114805791D02*
X190657914Y-114567696D01*
X190657914Y-114567696D02*
X190562676Y-114329601D01*
X190848390Y-114710553D02*
X190657914Y-114567696D01*
X190657914Y-114567696D02*
X190848390Y-114424839D01*
X192029819Y-123948649D02*
X192029819Y-124139125D01*
X192029819Y-124139125D02*
X192077438Y-124234363D01*
X192077438Y-124234363D02*
X192125057Y-124281982D01*
X192125057Y-124281982D02*
X192267914Y-124377220D01*
X192267914Y-124377220D02*
X192458390Y-124424839D01*
X192458390Y-124424839D02*
X192839342Y-124424839D01*
X192839342Y-124424839D02*
X192934580Y-124377220D01*
X192934580Y-124377220D02*
X192982200Y-124329601D01*
X192982200Y-124329601D02*
X193029819Y-124234363D01*
X193029819Y-124234363D02*
X193029819Y-124043887D01*
X193029819Y-124043887D02*
X192982200Y-123948649D01*
X192982200Y-123948649D02*
X192934580Y-123901030D01*
X192934580Y-123901030D02*
X192839342Y-123853411D01*
X192839342Y-123853411D02*
X192601247Y-123853411D01*
X192601247Y-123853411D02*
X192506009Y-123901030D01*
X192506009Y-123901030D02*
X192458390Y-123948649D01*
X192458390Y-123948649D02*
X192410771Y-124043887D01*
X192410771Y-124043887D02*
X192410771Y-124234363D01*
X192410771Y-124234363D02*
X192458390Y-124329601D01*
X192458390Y-124329601D02*
X192506009Y-124377220D01*
X192506009Y-124377220D02*
X192601247Y-124424839D01*
X192029819Y-122948649D02*
X192029819Y-123424839D01*
X192029819Y-123424839D02*
X192506009Y-123472458D01*
X192506009Y-123472458D02*
X192458390Y-123424839D01*
X192458390Y-123424839D02*
X192410771Y-123329601D01*
X192410771Y-123329601D02*
X192410771Y-123091506D01*
X192410771Y-123091506D02*
X192458390Y-122996268D01*
X192458390Y-122996268D02*
X192506009Y-122948649D01*
X192506009Y-122948649D02*
X192601247Y-122901030D01*
X192601247Y-122901030D02*
X192839342Y-122901030D01*
X192839342Y-122901030D02*
X192934580Y-122948649D01*
X192934580Y-122948649D02*
X192982200Y-122996268D01*
X192982200Y-122996268D02*
X193029819Y-123091506D01*
X193029819Y-123091506D02*
X193029819Y-123329601D01*
X193029819Y-123329601D02*
X192982200Y-123424839D01*
X192982200Y-123424839D02*
X192934580Y-123472458D01*
X192029819Y-122281982D02*
X192029819Y-122186744D01*
X192029819Y-122186744D02*
X192077438Y-122091506D01*
X192077438Y-122091506D02*
X192125057Y-122043887D01*
X192125057Y-122043887D02*
X192220295Y-121996268D01*
X192220295Y-121996268D02*
X192410771Y-121948649D01*
X192410771Y-121948649D02*
X192648866Y-121948649D01*
X192648866Y-121948649D02*
X192839342Y-121996268D01*
X192839342Y-121996268D02*
X192934580Y-122043887D01*
X192934580Y-122043887D02*
X192982200Y-122091506D01*
X192982200Y-122091506D02*
X193029819Y-122186744D01*
X193029819Y-122186744D02*
X193029819Y-122281982D01*
X193029819Y-122281982D02*
X192982200Y-122377220D01*
X192982200Y-122377220D02*
X192934580Y-122424839D01*
X192934580Y-122424839D02*
X192839342Y-122472458D01*
X192839342Y-122472458D02*
X192648866Y-122520077D01*
X192648866Y-122520077D02*
X192410771Y-122520077D01*
X192410771Y-122520077D02*
X192220295Y-122472458D01*
X192220295Y-122472458D02*
X192125057Y-122424839D01*
X192125057Y-122424839D02*
X192077438Y-122377220D01*
X192077438Y-122377220D02*
X192029819Y-122281982D01*
X192125057Y-121567696D02*
X192077438Y-121520077D01*
X192077438Y-121520077D02*
X192029819Y-121424839D01*
X192029819Y-121424839D02*
X192029819Y-121186744D01*
X192029819Y-121186744D02*
X192077438Y-121091506D01*
X192077438Y-121091506D02*
X192125057Y-121043887D01*
X192125057Y-121043887D02*
X192220295Y-120996268D01*
X192220295Y-120996268D02*
X192315533Y-120996268D01*
X192315533Y-120996268D02*
X192458390Y-121043887D01*
X192458390Y-121043887D02*
X193029819Y-121615315D01*
X193029819Y-121615315D02*
X193029819Y-120996268D01*
X191982200Y-119091506D02*
X193267914Y-119948648D01*
X192029819Y-117567696D02*
X192029819Y-117758172D01*
X192029819Y-117758172D02*
X192077438Y-117853410D01*
X192077438Y-117853410D02*
X192125057Y-117901029D01*
X192125057Y-117901029D02*
X192267914Y-117996267D01*
X192267914Y-117996267D02*
X192458390Y-118043886D01*
X192458390Y-118043886D02*
X192839342Y-118043886D01*
X192839342Y-118043886D02*
X192934580Y-117996267D01*
X192934580Y-117996267D02*
X192982200Y-117948648D01*
X192982200Y-117948648D02*
X193029819Y-117853410D01*
X193029819Y-117853410D02*
X193029819Y-117662934D01*
X193029819Y-117662934D02*
X192982200Y-117567696D01*
X192982200Y-117567696D02*
X192934580Y-117520077D01*
X192934580Y-117520077D02*
X192839342Y-117472458D01*
X192839342Y-117472458D02*
X192601247Y-117472458D01*
X192601247Y-117472458D02*
X192506009Y-117520077D01*
X192506009Y-117520077D02*
X192458390Y-117567696D01*
X192458390Y-117567696D02*
X192410771Y-117662934D01*
X192410771Y-117662934D02*
X192410771Y-117853410D01*
X192410771Y-117853410D02*
X192458390Y-117948648D01*
X192458390Y-117948648D02*
X192506009Y-117996267D01*
X192506009Y-117996267D02*
X192601247Y-118043886D01*
X192458390Y-116901029D02*
X192410771Y-116996267D01*
X192410771Y-116996267D02*
X192363152Y-117043886D01*
X192363152Y-117043886D02*
X192267914Y-117091505D01*
X192267914Y-117091505D02*
X192220295Y-117091505D01*
X192220295Y-117091505D02*
X192125057Y-117043886D01*
X192125057Y-117043886D02*
X192077438Y-116996267D01*
X192077438Y-116996267D02*
X192029819Y-116901029D01*
X192029819Y-116901029D02*
X192029819Y-116710553D01*
X192029819Y-116710553D02*
X192077438Y-116615315D01*
X192077438Y-116615315D02*
X192125057Y-116567696D01*
X192125057Y-116567696D02*
X192220295Y-116520077D01*
X192220295Y-116520077D02*
X192267914Y-116520077D01*
X192267914Y-116520077D02*
X192363152Y-116567696D01*
X192363152Y-116567696D02*
X192410771Y-116615315D01*
X192410771Y-116615315D02*
X192458390Y-116710553D01*
X192458390Y-116710553D02*
X192458390Y-116901029D01*
X192458390Y-116901029D02*
X192506009Y-116996267D01*
X192506009Y-116996267D02*
X192553628Y-117043886D01*
X192553628Y-117043886D02*
X192648866Y-117091505D01*
X192648866Y-117091505D02*
X192839342Y-117091505D01*
X192839342Y-117091505D02*
X192934580Y-117043886D01*
X192934580Y-117043886D02*
X192982200Y-116996267D01*
X192982200Y-116996267D02*
X193029819Y-116901029D01*
X193029819Y-116901029D02*
X193029819Y-116710553D01*
X193029819Y-116710553D02*
X192982200Y-116615315D01*
X192982200Y-116615315D02*
X192934580Y-116567696D01*
X192934580Y-116567696D02*
X192839342Y-116520077D01*
X192839342Y-116520077D02*
X192648866Y-116520077D01*
X192648866Y-116520077D02*
X192553628Y-116567696D01*
X192553628Y-116567696D02*
X192506009Y-116615315D01*
X192506009Y-116615315D02*
X192458390Y-116710553D01*
X192029819Y-115901029D02*
X192029819Y-115805791D01*
X192029819Y-115805791D02*
X192077438Y-115710553D01*
X192077438Y-115710553D02*
X192125057Y-115662934D01*
X192125057Y-115662934D02*
X192220295Y-115615315D01*
X192220295Y-115615315D02*
X192410771Y-115567696D01*
X192410771Y-115567696D02*
X192648866Y-115567696D01*
X192648866Y-115567696D02*
X192839342Y-115615315D01*
X192839342Y-115615315D02*
X192934580Y-115662934D01*
X192934580Y-115662934D02*
X192982200Y-115710553D01*
X192982200Y-115710553D02*
X193029819Y-115805791D01*
X193029819Y-115805791D02*
X193029819Y-115901029D01*
X193029819Y-115901029D02*
X192982200Y-115996267D01*
X192982200Y-115996267D02*
X192934580Y-116043886D01*
X192934580Y-116043886D02*
X192839342Y-116091505D01*
X192839342Y-116091505D02*
X192648866Y-116139124D01*
X192648866Y-116139124D02*
X192410771Y-116139124D01*
X192410771Y-116139124D02*
X192220295Y-116091505D01*
X192220295Y-116091505D02*
X192125057Y-116043886D01*
X192125057Y-116043886D02*
X192077438Y-115996267D01*
X192077438Y-115996267D02*
X192029819Y-115901029D01*
X192125057Y-115186743D02*
X192077438Y-115139124D01*
X192077438Y-115139124D02*
X192029819Y-115043886D01*
X192029819Y-115043886D02*
X192029819Y-114805791D01*
X192029819Y-114805791D02*
X192077438Y-114710553D01*
X192077438Y-114710553D02*
X192125057Y-114662934D01*
X192125057Y-114662934D02*
X192220295Y-114615315D01*
X192220295Y-114615315D02*
X192315533Y-114615315D01*
X192315533Y-114615315D02*
X192458390Y-114662934D01*
X192458390Y-114662934D02*
X193029819Y-115234362D01*
X193029819Y-115234362D02*
X193029819Y-114615315D01*
X192934580Y-112853410D02*
X192982200Y-112901029D01*
X192982200Y-112901029D02*
X193029819Y-113043886D01*
X193029819Y-113043886D02*
X193029819Y-113139124D01*
X193029819Y-113139124D02*
X192982200Y-113281981D01*
X192982200Y-113281981D02*
X192886961Y-113377219D01*
X192886961Y-113377219D02*
X192791723Y-113424838D01*
X192791723Y-113424838D02*
X192601247Y-113472457D01*
X192601247Y-113472457D02*
X192458390Y-113472457D01*
X192458390Y-113472457D02*
X192267914Y-113424838D01*
X192267914Y-113424838D02*
X192172676Y-113377219D01*
X192172676Y-113377219D02*
X192077438Y-113281981D01*
X192077438Y-113281981D02*
X192029819Y-113139124D01*
X192029819Y-113139124D02*
X192029819Y-113043886D01*
X192029819Y-113043886D02*
X192077438Y-112901029D01*
X192077438Y-112901029D02*
X192125057Y-112853410D01*
X193029819Y-112424838D02*
X192029819Y-112424838D01*
X192029819Y-112424838D02*
X192029819Y-112043886D01*
X192029819Y-112043886D02*
X192077438Y-111948648D01*
X192077438Y-111948648D02*
X192125057Y-111901029D01*
X192125057Y-111901029D02*
X192220295Y-111853410D01*
X192220295Y-111853410D02*
X192363152Y-111853410D01*
X192363152Y-111853410D02*
X192458390Y-111901029D01*
X192458390Y-111901029D02*
X192506009Y-111948648D01*
X192506009Y-111948648D02*
X192553628Y-112043886D01*
X192553628Y-112043886D02*
X192553628Y-112424838D01*
X192029819Y-111424838D02*
X192839342Y-111424838D01*
X192839342Y-111424838D02*
X192934580Y-111377219D01*
X192934580Y-111377219D02*
X192982200Y-111329600D01*
X192982200Y-111329600D02*
X193029819Y-111234362D01*
X193029819Y-111234362D02*
X193029819Y-111043886D01*
X193029819Y-111043886D02*
X192982200Y-110948648D01*
X192982200Y-110948648D02*
X192934580Y-110901029D01*
X192934580Y-110901029D02*
X192839342Y-110853410D01*
X192839342Y-110853410D02*
X192029819Y-110853410D01*
X192506009Y-109281981D02*
X192553628Y-109139124D01*
X192553628Y-109139124D02*
X192601247Y-109091505D01*
X192601247Y-109091505D02*
X192696485Y-109043886D01*
X192696485Y-109043886D02*
X192839342Y-109043886D01*
X192839342Y-109043886D02*
X192934580Y-109091505D01*
X192934580Y-109091505D02*
X192982200Y-109139124D01*
X192982200Y-109139124D02*
X193029819Y-109234362D01*
X193029819Y-109234362D02*
X193029819Y-109615314D01*
X193029819Y-109615314D02*
X192029819Y-109615314D01*
X192029819Y-109615314D02*
X192029819Y-109281981D01*
X192029819Y-109281981D02*
X192077438Y-109186743D01*
X192077438Y-109186743D02*
X192125057Y-109139124D01*
X192125057Y-109139124D02*
X192220295Y-109091505D01*
X192220295Y-109091505D02*
X192315533Y-109091505D01*
X192315533Y-109091505D02*
X192410771Y-109139124D01*
X192410771Y-109139124D02*
X192458390Y-109186743D01*
X192458390Y-109186743D02*
X192506009Y-109281981D01*
X192506009Y-109281981D02*
X192506009Y-109615314D01*
X193029819Y-108472457D02*
X192982200Y-108567695D01*
X192982200Y-108567695D02*
X192934580Y-108615314D01*
X192934580Y-108615314D02*
X192839342Y-108662933D01*
X192839342Y-108662933D02*
X192553628Y-108662933D01*
X192553628Y-108662933D02*
X192458390Y-108615314D01*
X192458390Y-108615314D02*
X192410771Y-108567695D01*
X192410771Y-108567695D02*
X192363152Y-108472457D01*
X192363152Y-108472457D02*
X192363152Y-108329600D01*
X192363152Y-108329600D02*
X192410771Y-108234362D01*
X192410771Y-108234362D02*
X192458390Y-108186743D01*
X192458390Y-108186743D02*
X192553628Y-108139124D01*
X192553628Y-108139124D02*
X192839342Y-108139124D01*
X192839342Y-108139124D02*
X192934580Y-108186743D01*
X192934580Y-108186743D02*
X192982200Y-108234362D01*
X192982200Y-108234362D02*
X193029819Y-108329600D01*
X193029819Y-108329600D02*
X193029819Y-108472457D01*
X193029819Y-107281981D02*
X192506009Y-107281981D01*
X192506009Y-107281981D02*
X192410771Y-107329600D01*
X192410771Y-107329600D02*
X192363152Y-107424838D01*
X192363152Y-107424838D02*
X192363152Y-107615314D01*
X192363152Y-107615314D02*
X192410771Y-107710552D01*
X192982200Y-107281981D02*
X193029819Y-107377219D01*
X193029819Y-107377219D02*
X193029819Y-107615314D01*
X193029819Y-107615314D02*
X192982200Y-107710552D01*
X192982200Y-107710552D02*
X192886961Y-107758171D01*
X192886961Y-107758171D02*
X192791723Y-107758171D01*
X192791723Y-107758171D02*
X192696485Y-107710552D01*
X192696485Y-107710552D02*
X192648866Y-107615314D01*
X192648866Y-107615314D02*
X192648866Y-107377219D01*
X192648866Y-107377219D02*
X192601247Y-107281981D01*
X193029819Y-106805790D02*
X192363152Y-106805790D01*
X192553628Y-106805790D02*
X192458390Y-106758171D01*
X192458390Y-106758171D02*
X192410771Y-106710552D01*
X192410771Y-106710552D02*
X192363152Y-106615314D01*
X192363152Y-106615314D02*
X192363152Y-106520076D01*
X193029819Y-105758171D02*
X192029819Y-105758171D01*
X192982200Y-105758171D02*
X193029819Y-105853409D01*
X193029819Y-105853409D02*
X193029819Y-106043885D01*
X193029819Y-106043885D02*
X192982200Y-106139123D01*
X192982200Y-106139123D02*
X192934580Y-106186742D01*
X192934580Y-106186742D02*
X192839342Y-106234361D01*
X192839342Y-106234361D02*
X192553628Y-106234361D01*
X192553628Y-106234361D02*
X192458390Y-106186742D01*
X192458390Y-106186742D02*
X192410771Y-106139123D01*
X192410771Y-106139123D02*
X192363152Y-106043885D01*
X192363152Y-106043885D02*
X192363152Y-105853409D01*
X192363152Y-105853409D02*
X192410771Y-105758171D01*
X192363152Y-104615313D02*
X193029819Y-104377218D01*
X193029819Y-104377218D02*
X192363152Y-104139123D01*
X193029819Y-103234361D02*
X193029819Y-103805789D01*
X193029819Y-103520075D02*
X192029819Y-103520075D01*
X192029819Y-103520075D02*
X192172676Y-103615313D01*
X192172676Y-103615313D02*
X192267914Y-103710551D01*
X192267914Y-103710551D02*
X192315533Y-103805789D01*
X174940931Y-144885580D02*
X174893312Y-144933200D01*
X174893312Y-144933200D02*
X174750455Y-144980819D01*
X174750455Y-144980819D02*
X174655217Y-144980819D01*
X174655217Y-144980819D02*
X174512360Y-144933200D01*
X174512360Y-144933200D02*
X174417122Y-144837961D01*
X174417122Y-144837961D02*
X174369503Y-144742723D01*
X174369503Y-144742723D02*
X174321884Y-144552247D01*
X174321884Y-144552247D02*
X174321884Y-144409390D01*
X174321884Y-144409390D02*
X174369503Y-144218914D01*
X174369503Y-144218914D02*
X174417122Y-144123676D01*
X174417122Y-144123676D02*
X174512360Y-144028438D01*
X174512360Y-144028438D02*
X174655217Y-143980819D01*
X174655217Y-143980819D02*
X174750455Y-143980819D01*
X174750455Y-143980819D02*
X174893312Y-144028438D01*
X174893312Y-144028438D02*
X174940931Y-144076057D01*
X175798074Y-144314152D02*
X175798074Y-144980819D01*
X175369503Y-144314152D02*
X175369503Y-144837961D01*
X175369503Y-144837961D02*
X175417122Y-144933200D01*
X175417122Y-144933200D02*
X175512360Y-144980819D01*
X175512360Y-144980819D02*
X175655217Y-144980819D01*
X175655217Y-144980819D02*
X175750455Y-144933200D01*
X175750455Y-144933200D02*
X175798074Y-144885580D01*
X176131408Y-144314152D02*
X176512360Y-144314152D01*
X176274265Y-143980819D02*
X176274265Y-144837961D01*
X176274265Y-144837961D02*
X176321884Y-144933200D01*
X176321884Y-144933200D02*
X176417122Y-144980819D01*
X176417122Y-144980819D02*
X176512360Y-144980819D01*
X177464742Y-144314152D02*
X177845694Y-144314152D01*
X177607599Y-143980819D02*
X177607599Y-144837961D01*
X177607599Y-144837961D02*
X177655218Y-144933200D01*
X177655218Y-144933200D02*
X177750456Y-144980819D01*
X177750456Y-144980819D02*
X177845694Y-144980819D01*
X178179028Y-144980819D02*
X178179028Y-143980819D01*
X178607599Y-144980819D02*
X178607599Y-144457009D01*
X178607599Y-144457009D02*
X178559980Y-144361771D01*
X178559980Y-144361771D02*
X178464742Y-144314152D01*
X178464742Y-144314152D02*
X178321885Y-144314152D01*
X178321885Y-144314152D02*
X178226647Y-144361771D01*
X178226647Y-144361771D02*
X178179028Y-144409390D01*
X179083790Y-144980819D02*
X179083790Y-144314152D01*
X179083790Y-143980819D02*
X179036171Y-144028438D01*
X179036171Y-144028438D02*
X179083790Y-144076057D01*
X179083790Y-144076057D02*
X179131409Y-144028438D01*
X179131409Y-144028438D02*
X179083790Y-143980819D01*
X179083790Y-143980819D02*
X179083790Y-144076057D01*
X179512361Y-144933200D02*
X179607599Y-144980819D01*
X179607599Y-144980819D02*
X179798075Y-144980819D01*
X179798075Y-144980819D02*
X179893313Y-144933200D01*
X179893313Y-144933200D02*
X179940932Y-144837961D01*
X179940932Y-144837961D02*
X179940932Y-144790342D01*
X179940932Y-144790342D02*
X179893313Y-144695104D01*
X179893313Y-144695104D02*
X179798075Y-144647485D01*
X179798075Y-144647485D02*
X179655218Y-144647485D01*
X179655218Y-144647485D02*
X179559980Y-144599866D01*
X179559980Y-144599866D02*
X179512361Y-144504628D01*
X179512361Y-144504628D02*
X179512361Y-144457009D01*
X179512361Y-144457009D02*
X179559980Y-144361771D01*
X179559980Y-144361771D02*
X179655218Y-144314152D01*
X179655218Y-144314152D02*
X179798075Y-144314152D01*
X179798075Y-144314152D02*
X179893313Y-144361771D01*
X180226647Y-144076057D02*
X180417123Y-143933200D01*
X180417123Y-143933200D02*
X180607599Y-144076057D01*
X182321886Y-144076057D02*
X182512362Y-143933200D01*
X182512362Y-143933200D02*
X182702838Y-144076057D01*
X183036172Y-144980819D02*
X183036172Y-143980819D01*
X183036172Y-144361771D02*
X183131410Y-144314152D01*
X183131410Y-144314152D02*
X183321886Y-144314152D01*
X183321886Y-144314152D02*
X183417124Y-144361771D01*
X183417124Y-144361771D02*
X183464743Y-144409390D01*
X183464743Y-144409390D02*
X183512362Y-144504628D01*
X183512362Y-144504628D02*
X183512362Y-144790342D01*
X183512362Y-144790342D02*
X183464743Y-144885580D01*
X183464743Y-144885580D02*
X183417124Y-144933200D01*
X183417124Y-144933200D02*
X183321886Y-144980819D01*
X183321886Y-144980819D02*
X183131410Y-144980819D01*
X183131410Y-144980819D02*
X183036172Y-144933200D01*
X184321886Y-144933200D02*
X184226648Y-144980819D01*
X184226648Y-144980819D02*
X184036172Y-144980819D01*
X184036172Y-144980819D02*
X183940934Y-144933200D01*
X183940934Y-144933200D02*
X183893315Y-144837961D01*
X183893315Y-144837961D02*
X183893315Y-144457009D01*
X183893315Y-144457009D02*
X183940934Y-144361771D01*
X183940934Y-144361771D02*
X184036172Y-144314152D01*
X184036172Y-144314152D02*
X184226648Y-144314152D01*
X184226648Y-144314152D02*
X184321886Y-144361771D01*
X184321886Y-144361771D02*
X184369505Y-144457009D01*
X184369505Y-144457009D02*
X184369505Y-144552247D01*
X184369505Y-144552247D02*
X183893315Y-144647485D01*
X184798077Y-144314152D02*
X184798077Y-144980819D01*
X184798077Y-144409390D02*
X184845696Y-144361771D01*
X184845696Y-144361771D02*
X184940934Y-144314152D01*
X184940934Y-144314152D02*
X185083791Y-144314152D01*
X185083791Y-144314152D02*
X185179029Y-144361771D01*
X185179029Y-144361771D02*
X185226648Y-144457009D01*
X185226648Y-144457009D02*
X185226648Y-144980819D01*
X186131410Y-144980819D02*
X186131410Y-143980819D01*
X186131410Y-144933200D02*
X186036172Y-144980819D01*
X186036172Y-144980819D02*
X185845696Y-144980819D01*
X185845696Y-144980819D02*
X185750458Y-144933200D01*
X185750458Y-144933200D02*
X185702839Y-144885580D01*
X185702839Y-144885580D02*
X185655220Y-144790342D01*
X185655220Y-144790342D02*
X185655220Y-144504628D01*
X185655220Y-144504628D02*
X185702839Y-144409390D01*
X185702839Y-144409390D02*
X185750458Y-144361771D01*
X185750458Y-144361771D02*
X185845696Y-144314152D01*
X185845696Y-144314152D02*
X186036172Y-144314152D01*
X186036172Y-144314152D02*
X186131410Y-144361771D01*
X187226649Y-144314152D02*
X187607601Y-144314152D01*
X187369506Y-143980819D02*
X187369506Y-144837961D01*
X187369506Y-144837961D02*
X187417125Y-144933200D01*
X187417125Y-144933200D02*
X187512363Y-144980819D01*
X187512363Y-144980819D02*
X187607601Y-144980819D01*
X187940935Y-144980819D02*
X187940935Y-143980819D01*
X188369506Y-144980819D02*
X188369506Y-144457009D01*
X188369506Y-144457009D02*
X188321887Y-144361771D01*
X188321887Y-144361771D02*
X188226649Y-144314152D01*
X188226649Y-144314152D02*
X188083792Y-144314152D01*
X188083792Y-144314152D02*
X187988554Y-144361771D01*
X187988554Y-144361771D02*
X187940935Y-144409390D01*
X188845697Y-144980819D02*
X188845697Y-144314152D01*
X188845697Y-143980819D02*
X188798078Y-144028438D01*
X188798078Y-144028438D02*
X188845697Y-144076057D01*
X188845697Y-144076057D02*
X188893316Y-144028438D01*
X188893316Y-144028438D02*
X188845697Y-143980819D01*
X188845697Y-143980819D02*
X188845697Y-144076057D01*
X189274268Y-144933200D02*
X189369506Y-144980819D01*
X189369506Y-144980819D02*
X189559982Y-144980819D01*
X189559982Y-144980819D02*
X189655220Y-144933200D01*
X189655220Y-144933200D02*
X189702839Y-144837961D01*
X189702839Y-144837961D02*
X189702839Y-144790342D01*
X189702839Y-144790342D02*
X189655220Y-144695104D01*
X189655220Y-144695104D02*
X189559982Y-144647485D01*
X189559982Y-144647485D02*
X189417125Y-144647485D01*
X189417125Y-144647485D02*
X189321887Y-144599866D01*
X189321887Y-144599866D02*
X189274268Y-144504628D01*
X189274268Y-144504628D02*
X189274268Y-144457009D01*
X189274268Y-144457009D02*
X189321887Y-144361771D01*
X189321887Y-144361771D02*
X189417125Y-144314152D01*
X189417125Y-144314152D02*
X189559982Y-144314152D01*
X189559982Y-144314152D02*
X189655220Y-144361771D01*
X141725855Y-62420619D02*
X141916331Y-62420619D01*
X141916331Y-62420619D02*
X142011569Y-62468238D01*
X142011569Y-62468238D02*
X142106807Y-62563476D01*
X142106807Y-62563476D02*
X142154426Y-62753952D01*
X142154426Y-62753952D02*
X142154426Y-63087285D01*
X142154426Y-63087285D02*
X142106807Y-63277761D01*
X142106807Y-63277761D02*
X142011569Y-63373000D01*
X142011569Y-63373000D02*
X141916331Y-63420619D01*
X141916331Y-63420619D02*
X141725855Y-63420619D01*
X141725855Y-63420619D02*
X141630617Y-63373000D01*
X141630617Y-63373000D02*
X141535379Y-63277761D01*
X141535379Y-63277761D02*
X141487760Y-63087285D01*
X141487760Y-63087285D02*
X141487760Y-62753952D01*
X141487760Y-62753952D02*
X141535379Y-62563476D01*
X141535379Y-62563476D02*
X141630617Y-62468238D01*
X141630617Y-62468238D02*
X141725855Y-62420619D01*
X139960579Y-63344419D02*
X139960579Y-62344419D01*
D10*
X154706387Y-107737419D02*
X154706387Y-108451704D01*
X154706387Y-108451704D02*
X154658768Y-108594561D01*
X154658768Y-108594561D02*
X154563530Y-108689800D01*
X154563530Y-108689800D02*
X154420673Y-108737419D01*
X154420673Y-108737419D02*
X154325435Y-108737419D01*
X155182578Y-108737419D02*
X155182578Y-107737419D01*
X155182578Y-107737419D02*
X155563530Y-107737419D01*
X155563530Y-107737419D02*
X155658768Y-107785038D01*
X155658768Y-107785038D02*
X155706387Y-107832657D01*
X155706387Y-107832657D02*
X155754006Y-107927895D01*
X155754006Y-107927895D02*
X155754006Y-108070752D01*
X155754006Y-108070752D02*
X155706387Y-108165990D01*
X155706387Y-108165990D02*
X155658768Y-108213609D01*
X155658768Y-108213609D02*
X155563530Y-108261228D01*
X155563530Y-108261228D02*
X155182578Y-108261228D01*
X156087340Y-107737419D02*
X156754006Y-107737419D01*
X156754006Y-107737419D02*
X156325435Y-108737419D01*
X157134959Y-108642180D02*
X157182578Y-108689800D01*
X157182578Y-108689800D02*
X157134959Y-108737419D01*
X157134959Y-108737419D02*
X157087340Y-108689800D01*
X157087340Y-108689800D02*
X157134959Y-108642180D01*
X157134959Y-108642180D02*
X157134959Y-108737419D01*
X157134959Y-108118371D02*
X157182578Y-108165990D01*
X157182578Y-108165990D02*
X157134959Y-108213609D01*
X157134959Y-108213609D02*
X157087340Y-108165990D01*
X157087340Y-108165990D02*
X157134959Y-108118371D01*
X157134959Y-108118371D02*
X157134959Y-108213609D01*
X154944482Y-110347419D02*
X154373054Y-110347419D01*
X154658768Y-110347419D02*
X154658768Y-109347419D01*
X154658768Y-109347419D02*
X154563530Y-109490276D01*
X154563530Y-109490276D02*
X154468292Y-109585514D01*
X154468292Y-109585514D02*
X154373054Y-109633133D01*
X155373054Y-109966466D02*
X156134959Y-109966466D01*
X156563530Y-109442657D02*
X156611149Y-109395038D01*
X156611149Y-109395038D02*
X156706387Y-109347419D01*
X156706387Y-109347419D02*
X156944482Y-109347419D01*
X156944482Y-109347419D02*
X157039720Y-109395038D01*
X157039720Y-109395038D02*
X157087339Y-109442657D01*
X157087339Y-109442657D02*
X157134958Y-109537895D01*
X157134958Y-109537895D02*
X157134958Y-109633133D01*
X157134958Y-109633133D02*
X157087339Y-109775990D01*
X157087339Y-109775990D02*
X156515911Y-110347419D01*
X156515911Y-110347419D02*
X157134958Y-110347419D01*
X158277816Y-109442657D02*
X158325435Y-109395038D01*
X158325435Y-109395038D02*
X158420673Y-109347419D01*
X158420673Y-109347419D02*
X158658768Y-109347419D01*
X158658768Y-109347419D02*
X158754006Y-109395038D01*
X158754006Y-109395038D02*
X158801625Y-109442657D01*
X158801625Y-109442657D02*
X158849244Y-109537895D01*
X158849244Y-109537895D02*
X158849244Y-109633133D01*
X158849244Y-109633133D02*
X158801625Y-109775990D01*
X158801625Y-109775990D02*
X158230197Y-110347419D01*
X158230197Y-110347419D02*
X158849244Y-110347419D01*
X159277816Y-109966466D02*
X160039721Y-109966466D01*
X160420673Y-109347419D02*
X161039720Y-109347419D01*
X161039720Y-109347419D02*
X160706387Y-109728371D01*
X160706387Y-109728371D02*
X160849244Y-109728371D01*
X160849244Y-109728371D02*
X160944482Y-109775990D01*
X160944482Y-109775990D02*
X160992101Y-109823609D01*
X160992101Y-109823609D02*
X161039720Y-109918847D01*
X161039720Y-109918847D02*
X161039720Y-110156942D01*
X161039720Y-110156942D02*
X160992101Y-110252180D01*
X160992101Y-110252180D02*
X160944482Y-110299800D01*
X160944482Y-110299800D02*
X160849244Y-110347419D01*
X160849244Y-110347419D02*
X160563530Y-110347419D01*
X160563530Y-110347419D02*
X160468292Y-110299800D01*
X160468292Y-110299800D02*
X160420673Y-110252180D01*
X154420673Y-111957419D02*
X154420673Y-110957419D01*
X154420673Y-110957419D02*
X154801625Y-110957419D01*
X154801625Y-110957419D02*
X154896863Y-111005038D01*
X154896863Y-111005038D02*
X154944482Y-111052657D01*
X154944482Y-111052657D02*
X154992101Y-111147895D01*
X154992101Y-111147895D02*
X154992101Y-111290752D01*
X154992101Y-111290752D02*
X154944482Y-111385990D01*
X154944482Y-111385990D02*
X154896863Y-111433609D01*
X154896863Y-111433609D02*
X154801625Y-111481228D01*
X154801625Y-111481228D02*
X154420673Y-111481228D01*
X155420673Y-111957419D02*
X155420673Y-110957419D01*
X155420673Y-111433609D02*
X155992101Y-111433609D01*
X155992101Y-111957419D02*
X155992101Y-110957419D01*
X156468292Y-111957419D02*
X156468292Y-110957419D01*
X157134958Y-110957419D02*
X157230196Y-110957419D01*
X157230196Y-110957419D02*
X157325434Y-111005038D01*
X157325434Y-111005038D02*
X157373053Y-111052657D01*
X157373053Y-111052657D02*
X157420672Y-111147895D01*
X157420672Y-111147895D02*
X157468291Y-111338371D01*
X157468291Y-111338371D02*
X157468291Y-111576466D01*
X157468291Y-111576466D02*
X157420672Y-111766942D01*
X157420672Y-111766942D02*
X157373053Y-111862180D01*
X157373053Y-111862180D02*
X157325434Y-111909800D01*
X157325434Y-111909800D02*
X157230196Y-111957419D01*
X157230196Y-111957419D02*
X157134958Y-111957419D01*
X157134958Y-111957419D02*
X157039720Y-111909800D01*
X157039720Y-111909800D02*
X156992101Y-111862180D01*
X156992101Y-111862180D02*
X156944482Y-111766942D01*
X156944482Y-111766942D02*
X156896863Y-111576466D01*
X156896863Y-111576466D02*
X156896863Y-111338371D01*
X156896863Y-111338371D02*
X156944482Y-111147895D01*
X156944482Y-111147895D02*
X156992101Y-111052657D01*
X156992101Y-111052657D02*
X157039720Y-111005038D01*
X157039720Y-111005038D02*
X157134958Y-110957419D01*
X154282578Y-110679800D02*
X157558768Y-110679800D01*
X158658768Y-111957419D02*
X158658768Y-110957419D01*
X158658768Y-110957419D02*
X159039720Y-110957419D01*
X159039720Y-110957419D02*
X159134958Y-111005038D01*
X159134958Y-111005038D02*
X159182577Y-111052657D01*
X159182577Y-111052657D02*
X159230196Y-111147895D01*
X159230196Y-111147895D02*
X159230196Y-111290752D01*
X159230196Y-111290752D02*
X159182577Y-111385990D01*
X159182577Y-111385990D02*
X159134958Y-111433609D01*
X159134958Y-111433609D02*
X159039720Y-111481228D01*
X159039720Y-111481228D02*
X158658768Y-111481228D01*
X159658768Y-111957419D02*
X159658768Y-110957419D01*
X159658768Y-111433609D02*
X160230196Y-111433609D01*
X160230196Y-111957419D02*
X160230196Y-110957419D01*
X160706387Y-111957419D02*
X160706387Y-110957419D01*
X161373053Y-110957419D02*
X161468291Y-110957419D01*
X161468291Y-110957419D02*
X161563529Y-111005038D01*
X161563529Y-111005038D02*
X161611148Y-111052657D01*
X161611148Y-111052657D02*
X161658767Y-111147895D01*
X161658767Y-111147895D02*
X161706386Y-111338371D01*
X161706386Y-111338371D02*
X161706386Y-111576466D01*
X161706386Y-111576466D02*
X161658767Y-111766942D01*
X161658767Y-111766942D02*
X161611148Y-111862180D01*
X161611148Y-111862180D02*
X161563529Y-111909800D01*
X161563529Y-111909800D02*
X161468291Y-111957419D01*
X161468291Y-111957419D02*
X161373053Y-111957419D01*
X161373053Y-111957419D02*
X161277815Y-111909800D01*
X161277815Y-111909800D02*
X161230196Y-111862180D01*
X161230196Y-111862180D02*
X161182577Y-111766942D01*
X161182577Y-111766942D02*
X161134958Y-111576466D01*
X161134958Y-111576466D02*
X161134958Y-111338371D01*
X161134958Y-111338371D02*
X161182577Y-111147895D01*
X161182577Y-111147895D02*
X161230196Y-111052657D01*
X161230196Y-111052657D02*
X161277815Y-111005038D01*
X161277815Y-111005038D02*
X161373053Y-110957419D01*
D11*
X136125179Y-63344419D02*
X136125179Y-62344419D01*
X146170855Y-75781019D02*
X146361331Y-75781019D01*
X146361331Y-75781019D02*
X146456569Y-75828638D01*
X146456569Y-75828638D02*
X146551807Y-75923876D01*
X146551807Y-75923876D02*
X146599426Y-76114352D01*
X146599426Y-76114352D02*
X146599426Y-76447685D01*
X146599426Y-76447685D02*
X146551807Y-76638161D01*
X146551807Y-76638161D02*
X146456569Y-76733400D01*
X146456569Y-76733400D02*
X146361331Y-76781019D01*
X146361331Y-76781019D02*
X146170855Y-76781019D01*
X146170855Y-76781019D02*
X146075617Y-76733400D01*
X146075617Y-76733400D02*
X145980379Y-76638161D01*
X145980379Y-76638161D02*
X145932760Y-76447685D01*
X145932760Y-76447685D02*
X145932760Y-76114352D01*
X145932760Y-76114352D02*
X145980379Y-75923876D01*
X145980379Y-75923876D02*
X146075617Y-75828638D01*
X146075617Y-75828638D02*
X146170855Y-75781019D01*
X147456569Y-76114352D02*
X147456569Y-76781019D01*
X147027998Y-76114352D02*
X147027998Y-76638161D01*
X147027998Y-76638161D02*
X147075617Y-76733400D01*
X147075617Y-76733400D02*
X147170855Y-76781019D01*
X147170855Y-76781019D02*
X147313712Y-76781019D01*
X147313712Y-76781019D02*
X147408950Y-76733400D01*
X147408950Y-76733400D02*
X147456569Y-76685780D01*
X147789903Y-76114352D02*
X148170855Y-76114352D01*
X147932760Y-75781019D02*
X147932760Y-76638161D01*
X147932760Y-76638161D02*
X147980379Y-76733400D01*
X147980379Y-76733400D02*
X148075617Y-76781019D01*
X148075617Y-76781019D02*
X148170855Y-76781019D01*
X137915855Y-62319019D02*
X138106331Y-62319019D01*
X138106331Y-62319019D02*
X138201569Y-62366638D01*
X138201569Y-62366638D02*
X138296807Y-62461876D01*
X138296807Y-62461876D02*
X138344426Y-62652352D01*
X138344426Y-62652352D02*
X138344426Y-62985685D01*
X138344426Y-62985685D02*
X138296807Y-63176161D01*
X138296807Y-63176161D02*
X138201569Y-63271400D01*
X138201569Y-63271400D02*
X138106331Y-63319019D01*
X138106331Y-63319019D02*
X137915855Y-63319019D01*
X137915855Y-63319019D02*
X137820617Y-63271400D01*
X137820617Y-63271400D02*
X137725379Y-63176161D01*
X137725379Y-63176161D02*
X137677760Y-62985685D01*
X137677760Y-62985685D02*
X137677760Y-62652352D01*
X137677760Y-62652352D02*
X137725379Y-62461876D01*
X137725379Y-62461876D02*
X137820617Y-62366638D01*
X137820617Y-62366638D02*
X137915855Y-62319019D01*
%TO.C,C5*%
X157186333Y-90203580D02*
X157138714Y-90251200D01*
X157138714Y-90251200D02*
X156995857Y-90298819D01*
X156995857Y-90298819D02*
X156900619Y-90298819D01*
X156900619Y-90298819D02*
X156757762Y-90251200D01*
X156757762Y-90251200D02*
X156662524Y-90155961D01*
X156662524Y-90155961D02*
X156614905Y-90060723D01*
X156614905Y-90060723D02*
X156567286Y-89870247D01*
X156567286Y-89870247D02*
X156567286Y-89727390D01*
X156567286Y-89727390D02*
X156614905Y-89536914D01*
X156614905Y-89536914D02*
X156662524Y-89441676D01*
X156662524Y-89441676D02*
X156757762Y-89346438D01*
X156757762Y-89346438D02*
X156900619Y-89298819D01*
X156900619Y-89298819D02*
X156995857Y-89298819D01*
X156995857Y-89298819D02*
X157138714Y-89346438D01*
X157138714Y-89346438D02*
X157186333Y-89394057D01*
X158091095Y-89298819D02*
X157614905Y-89298819D01*
X157614905Y-89298819D02*
X157567286Y-89775009D01*
X157567286Y-89775009D02*
X157614905Y-89727390D01*
X157614905Y-89727390D02*
X157710143Y-89679771D01*
X157710143Y-89679771D02*
X157948238Y-89679771D01*
X157948238Y-89679771D02*
X158043476Y-89727390D01*
X158043476Y-89727390D02*
X158091095Y-89775009D01*
X158091095Y-89775009D02*
X158138714Y-89870247D01*
X158138714Y-89870247D02*
X158138714Y-90108342D01*
X158138714Y-90108342D02*
X158091095Y-90203580D01*
X158091095Y-90203580D02*
X158043476Y-90251200D01*
X158043476Y-90251200D02*
X157948238Y-90298819D01*
X157948238Y-90298819D02*
X157710143Y-90298819D01*
X157710143Y-90298819D02*
X157614905Y-90251200D01*
X157614905Y-90251200D02*
X157567286Y-90203580D01*
%TO.C,J8*%
X164764819Y-130722338D02*
X165479104Y-130722338D01*
X165479104Y-130722338D02*
X165621961Y-130769957D01*
X165621961Y-130769957D02*
X165717200Y-130865195D01*
X165717200Y-130865195D02*
X165764819Y-131008052D01*
X165764819Y-131008052D02*
X165764819Y-131103290D01*
X165193390Y-130103290D02*
X165145771Y-130198528D01*
X165145771Y-130198528D02*
X165098152Y-130246147D01*
X165098152Y-130246147D02*
X165002914Y-130293766D01*
X165002914Y-130293766D02*
X164955295Y-130293766D01*
X164955295Y-130293766D02*
X164860057Y-130246147D01*
X164860057Y-130246147D02*
X164812438Y-130198528D01*
X164812438Y-130198528D02*
X164764819Y-130103290D01*
X164764819Y-130103290D02*
X164764819Y-129912814D01*
X164764819Y-129912814D02*
X164812438Y-129817576D01*
X164812438Y-129817576D02*
X164860057Y-129769957D01*
X164860057Y-129769957D02*
X164955295Y-129722338D01*
X164955295Y-129722338D02*
X165002914Y-129722338D01*
X165002914Y-129722338D02*
X165098152Y-129769957D01*
X165098152Y-129769957D02*
X165145771Y-129817576D01*
X165145771Y-129817576D02*
X165193390Y-129912814D01*
X165193390Y-129912814D02*
X165193390Y-130103290D01*
X165193390Y-130103290D02*
X165241009Y-130198528D01*
X165241009Y-130198528D02*
X165288628Y-130246147D01*
X165288628Y-130246147D02*
X165383866Y-130293766D01*
X165383866Y-130293766D02*
X165574342Y-130293766D01*
X165574342Y-130293766D02*
X165669580Y-130246147D01*
X165669580Y-130246147D02*
X165717200Y-130198528D01*
X165717200Y-130198528D02*
X165764819Y-130103290D01*
X165764819Y-130103290D02*
X165764819Y-129912814D01*
X165764819Y-129912814D02*
X165717200Y-129817576D01*
X165717200Y-129817576D02*
X165669580Y-129769957D01*
X165669580Y-129769957D02*
X165574342Y-129722338D01*
X165574342Y-129722338D02*
X165383866Y-129722338D01*
X165383866Y-129722338D02*
X165288628Y-129769957D01*
X165288628Y-129769957D02*
X165241009Y-129817576D01*
X165241009Y-129817576D02*
X165193390Y-129912814D01*
%TO.C,U2*%
X169355419Y-74354904D02*
X170164942Y-74354904D01*
X170164942Y-74354904D02*
X170260180Y-74307285D01*
X170260180Y-74307285D02*
X170307800Y-74259666D01*
X170307800Y-74259666D02*
X170355419Y-74164428D01*
X170355419Y-74164428D02*
X170355419Y-73973952D01*
X170355419Y-73973952D02*
X170307800Y-73878714D01*
X170307800Y-73878714D02*
X170260180Y-73831095D01*
X170260180Y-73831095D02*
X170164942Y-73783476D01*
X170164942Y-73783476D02*
X169355419Y-73783476D01*
X169450657Y-73354904D02*
X169403038Y-73307285D01*
X169403038Y-73307285D02*
X169355419Y-73212047D01*
X169355419Y-73212047D02*
X169355419Y-72973952D01*
X169355419Y-72973952D02*
X169403038Y-72878714D01*
X169403038Y-72878714D02*
X169450657Y-72831095D01*
X169450657Y-72831095D02*
X169545895Y-72783476D01*
X169545895Y-72783476D02*
X169641133Y-72783476D01*
X169641133Y-72783476D02*
X169783990Y-72831095D01*
X169783990Y-72831095D02*
X170355419Y-73402523D01*
X170355419Y-73402523D02*
X170355419Y-72783476D01*
%TO.C,J1*%
X136384819Y-49906338D02*
X137099104Y-49906338D01*
X137099104Y-49906338D02*
X137241961Y-49953957D01*
X137241961Y-49953957D02*
X137337200Y-50049195D01*
X137337200Y-50049195D02*
X137384819Y-50192052D01*
X137384819Y-50192052D02*
X137384819Y-50287290D01*
X137384819Y-48906338D02*
X137384819Y-49477766D01*
X137384819Y-49192052D02*
X136384819Y-49192052D01*
X136384819Y-49192052D02*
X136527676Y-49287290D01*
X136527676Y-49287290D02*
X136622914Y-49382528D01*
X136622914Y-49382528D02*
X136670533Y-49477766D01*
%TO.C,U3*%
X180963219Y-74304104D02*
X181772742Y-74304104D01*
X181772742Y-74304104D02*
X181867980Y-74256485D01*
X181867980Y-74256485D02*
X181915600Y-74208866D01*
X181915600Y-74208866D02*
X181963219Y-74113628D01*
X181963219Y-74113628D02*
X181963219Y-73923152D01*
X181963219Y-73923152D02*
X181915600Y-73827914D01*
X181915600Y-73827914D02*
X181867980Y-73780295D01*
X181867980Y-73780295D02*
X181772742Y-73732676D01*
X181772742Y-73732676D02*
X180963219Y-73732676D01*
X180963219Y-73351723D02*
X180963219Y-72732676D01*
X180963219Y-72732676D02*
X181344171Y-73066009D01*
X181344171Y-73066009D02*
X181344171Y-72923152D01*
X181344171Y-72923152D02*
X181391790Y-72827914D01*
X181391790Y-72827914D02*
X181439409Y-72780295D01*
X181439409Y-72780295D02*
X181534647Y-72732676D01*
X181534647Y-72732676D02*
X181772742Y-72732676D01*
X181772742Y-72732676D02*
X181867980Y-72780295D01*
X181867980Y-72780295D02*
X181915600Y-72827914D01*
X181915600Y-72827914D02*
X181963219Y-72923152D01*
X181963219Y-72923152D02*
X181963219Y-73208866D01*
X181963219Y-73208866D02*
X181915600Y-73304104D01*
X181915600Y-73304104D02*
X181867980Y-73351723D01*
%TO.C,U5*%
X167442219Y-68181604D02*
X168251742Y-68181604D01*
X168251742Y-68181604D02*
X168346980Y-68133985D01*
X168346980Y-68133985D02*
X168394600Y-68086366D01*
X168394600Y-68086366D02*
X168442219Y-67991128D01*
X168442219Y-67991128D02*
X168442219Y-67800652D01*
X168442219Y-67800652D02*
X168394600Y-67705414D01*
X168394600Y-67705414D02*
X168346980Y-67657795D01*
X168346980Y-67657795D02*
X168251742Y-67610176D01*
X168251742Y-67610176D02*
X167442219Y-67610176D01*
X167442219Y-66657795D02*
X167442219Y-67133985D01*
X167442219Y-67133985D02*
X167918409Y-67181604D01*
X167918409Y-67181604D02*
X167870790Y-67133985D01*
X167870790Y-67133985D02*
X167823171Y-67038747D01*
X167823171Y-67038747D02*
X167823171Y-66800652D01*
X167823171Y-66800652D02*
X167870790Y-66705414D01*
X167870790Y-66705414D02*
X167918409Y-66657795D01*
X167918409Y-66657795D02*
X168013647Y-66610176D01*
X168013647Y-66610176D02*
X168251742Y-66610176D01*
X168251742Y-66610176D02*
X168346980Y-66657795D01*
X168346980Y-66657795D02*
X168394600Y-66705414D01*
X168394600Y-66705414D02*
X168442219Y-66800652D01*
X168442219Y-66800652D02*
X168442219Y-67038747D01*
X168442219Y-67038747D02*
X168394600Y-67133985D01*
X168394600Y-67133985D02*
X168346980Y-67181604D01*
%TO.C,J31*%
X162868076Y-125813019D02*
X162868076Y-126527304D01*
X162868076Y-126527304D02*
X162820457Y-126670161D01*
X162820457Y-126670161D02*
X162725219Y-126765400D01*
X162725219Y-126765400D02*
X162582362Y-126813019D01*
X162582362Y-126813019D02*
X162487124Y-126813019D01*
X163249029Y-125813019D02*
X163868076Y-125813019D01*
X163868076Y-125813019D02*
X163534743Y-126193971D01*
X163534743Y-126193971D02*
X163677600Y-126193971D01*
X163677600Y-126193971D02*
X163772838Y-126241590D01*
X163772838Y-126241590D02*
X163820457Y-126289209D01*
X163820457Y-126289209D02*
X163868076Y-126384447D01*
X163868076Y-126384447D02*
X163868076Y-126622542D01*
X163868076Y-126622542D02*
X163820457Y-126717780D01*
X163820457Y-126717780D02*
X163772838Y-126765400D01*
X163772838Y-126765400D02*
X163677600Y-126813019D01*
X163677600Y-126813019D02*
X163391886Y-126813019D01*
X163391886Y-126813019D02*
X163296648Y-126765400D01*
X163296648Y-126765400D02*
X163249029Y-126717780D01*
X164820457Y-126813019D02*
X164249029Y-126813019D01*
X164534743Y-126813019D02*
X164534743Y-125813019D01*
X164534743Y-125813019D02*
X164439505Y-125955876D01*
X164439505Y-125955876D02*
X164344267Y-126051114D01*
X164344267Y-126051114D02*
X164249029Y-126098733D01*
%TO.C,R3*%
X138630819Y-91352666D02*
X138154628Y-91685999D01*
X138630819Y-91924094D02*
X137630819Y-91924094D01*
X137630819Y-91924094D02*
X137630819Y-91543142D01*
X137630819Y-91543142D02*
X137678438Y-91447904D01*
X137678438Y-91447904D02*
X137726057Y-91400285D01*
X137726057Y-91400285D02*
X137821295Y-91352666D01*
X137821295Y-91352666D02*
X137964152Y-91352666D01*
X137964152Y-91352666D02*
X138059390Y-91400285D01*
X138059390Y-91400285D02*
X138107009Y-91447904D01*
X138107009Y-91447904D02*
X138154628Y-91543142D01*
X138154628Y-91543142D02*
X138154628Y-91924094D01*
X137630819Y-91019332D02*
X137630819Y-90400285D01*
X137630819Y-90400285D02*
X138011771Y-90733618D01*
X138011771Y-90733618D02*
X138011771Y-90590761D01*
X138011771Y-90590761D02*
X138059390Y-90495523D01*
X138059390Y-90495523D02*
X138107009Y-90447904D01*
X138107009Y-90447904D02*
X138202247Y-90400285D01*
X138202247Y-90400285D02*
X138440342Y-90400285D01*
X138440342Y-90400285D02*
X138535580Y-90447904D01*
X138535580Y-90447904D02*
X138583200Y-90495523D01*
X138583200Y-90495523D02*
X138630819Y-90590761D01*
X138630819Y-90590761D02*
X138630819Y-90876475D01*
X138630819Y-90876475D02*
X138583200Y-90971713D01*
X138583200Y-90971713D02*
X138535580Y-91019332D01*
%TO.C,R4*%
X133296819Y-87923666D02*
X132820628Y-88256999D01*
X133296819Y-88495094D02*
X132296819Y-88495094D01*
X132296819Y-88495094D02*
X132296819Y-88114142D01*
X132296819Y-88114142D02*
X132344438Y-88018904D01*
X132344438Y-88018904D02*
X132392057Y-87971285D01*
X132392057Y-87971285D02*
X132487295Y-87923666D01*
X132487295Y-87923666D02*
X132630152Y-87923666D01*
X132630152Y-87923666D02*
X132725390Y-87971285D01*
X132725390Y-87971285D02*
X132773009Y-88018904D01*
X132773009Y-88018904D02*
X132820628Y-88114142D01*
X132820628Y-88114142D02*
X132820628Y-88495094D01*
X132630152Y-87066523D02*
X133296819Y-87066523D01*
X132249200Y-87304618D02*
X132963485Y-87542713D01*
X132963485Y-87542713D02*
X132963485Y-86923666D01*
%TO.C,J5*%
X164764819Y-107862338D02*
X165479104Y-107862338D01*
X165479104Y-107862338D02*
X165621961Y-107909957D01*
X165621961Y-107909957D02*
X165717200Y-108005195D01*
X165717200Y-108005195D02*
X165764819Y-108148052D01*
X165764819Y-108148052D02*
X165764819Y-108243290D01*
X164764819Y-106909957D02*
X164764819Y-107386147D01*
X164764819Y-107386147D02*
X165241009Y-107433766D01*
X165241009Y-107433766D02*
X165193390Y-107386147D01*
X165193390Y-107386147D02*
X165145771Y-107290909D01*
X165145771Y-107290909D02*
X165145771Y-107052814D01*
X165145771Y-107052814D02*
X165193390Y-106957576D01*
X165193390Y-106957576D02*
X165241009Y-106909957D01*
X165241009Y-106909957D02*
X165336247Y-106862338D01*
X165336247Y-106862338D02*
X165574342Y-106862338D01*
X165574342Y-106862338D02*
X165669580Y-106909957D01*
X165669580Y-106909957D02*
X165717200Y-106957576D01*
X165717200Y-106957576D02*
X165764819Y-107052814D01*
X165764819Y-107052814D02*
X165764819Y-107290909D01*
X165764819Y-107290909D02*
X165717200Y-107386147D01*
X165717200Y-107386147D02*
X165669580Y-107433766D01*
%TO.C,J4*%
X136384819Y-135452338D02*
X137099104Y-135452338D01*
X137099104Y-135452338D02*
X137241961Y-135499957D01*
X137241961Y-135499957D02*
X137337200Y-135595195D01*
X137337200Y-135595195D02*
X137384819Y-135738052D01*
X137384819Y-135738052D02*
X137384819Y-135833290D01*
X136718152Y-134547576D02*
X137384819Y-134547576D01*
X136337200Y-134785671D02*
X137051485Y-135023766D01*
X137051485Y-135023766D02*
X137051485Y-134404719D01*
%TO.C,C4*%
X154011333Y-130915580D02*
X153963714Y-130963200D01*
X153963714Y-130963200D02*
X153820857Y-131010819D01*
X153820857Y-131010819D02*
X153725619Y-131010819D01*
X153725619Y-131010819D02*
X153582762Y-130963200D01*
X153582762Y-130963200D02*
X153487524Y-130867961D01*
X153487524Y-130867961D02*
X153439905Y-130772723D01*
X153439905Y-130772723D02*
X153392286Y-130582247D01*
X153392286Y-130582247D02*
X153392286Y-130439390D01*
X153392286Y-130439390D02*
X153439905Y-130248914D01*
X153439905Y-130248914D02*
X153487524Y-130153676D01*
X153487524Y-130153676D02*
X153582762Y-130058438D01*
X153582762Y-130058438D02*
X153725619Y-130010819D01*
X153725619Y-130010819D02*
X153820857Y-130010819D01*
X153820857Y-130010819D02*
X153963714Y-130058438D01*
X153963714Y-130058438D02*
X154011333Y-130106057D01*
X154868476Y-130344152D02*
X154868476Y-131010819D01*
X154630381Y-129963200D02*
X154392286Y-130677485D01*
X154392286Y-130677485D02*
X155011333Y-130677485D01*
%TO.C,U6*%
X161290095Y-129629819D02*
X161290095Y-130439342D01*
X161290095Y-130439342D02*
X161337714Y-130534580D01*
X161337714Y-130534580D02*
X161385333Y-130582200D01*
X161385333Y-130582200D02*
X161480571Y-130629819D01*
X161480571Y-130629819D02*
X161671047Y-130629819D01*
X161671047Y-130629819D02*
X161766285Y-130582200D01*
X161766285Y-130582200D02*
X161813904Y-130534580D01*
X161813904Y-130534580D02*
X161861523Y-130439342D01*
X161861523Y-130439342D02*
X161861523Y-129629819D01*
X162766285Y-129629819D02*
X162575809Y-129629819D01*
X162575809Y-129629819D02*
X162480571Y-129677438D01*
X162480571Y-129677438D02*
X162432952Y-129725057D01*
X162432952Y-129725057D02*
X162337714Y-129867914D01*
X162337714Y-129867914D02*
X162290095Y-130058390D01*
X162290095Y-130058390D02*
X162290095Y-130439342D01*
X162290095Y-130439342D02*
X162337714Y-130534580D01*
X162337714Y-130534580D02*
X162385333Y-130582200D01*
X162385333Y-130582200D02*
X162480571Y-130629819D01*
X162480571Y-130629819D02*
X162671047Y-130629819D01*
X162671047Y-130629819D02*
X162766285Y-130582200D01*
X162766285Y-130582200D02*
X162813904Y-130534580D01*
X162813904Y-130534580D02*
X162861523Y-130439342D01*
X162861523Y-130439342D02*
X162861523Y-130201247D01*
X162861523Y-130201247D02*
X162813904Y-130106009D01*
X162813904Y-130106009D02*
X162766285Y-130058390D01*
X162766285Y-130058390D02*
X162671047Y-130010771D01*
X162671047Y-130010771D02*
X162480571Y-130010771D01*
X162480571Y-130010771D02*
X162385333Y-130058390D01*
X162385333Y-130058390D02*
X162337714Y-130106009D01*
X162337714Y-130106009D02*
X162290095Y-130201247D01*
%TO.C,U7*%
X132169819Y-100710904D02*
X132979342Y-100710904D01*
X132979342Y-100710904D02*
X133074580Y-100663285D01*
X133074580Y-100663285D02*
X133122200Y-100615666D01*
X133122200Y-100615666D02*
X133169819Y-100520428D01*
X133169819Y-100520428D02*
X133169819Y-100329952D01*
X133169819Y-100329952D02*
X133122200Y-100234714D01*
X133122200Y-100234714D02*
X133074580Y-100187095D01*
X133074580Y-100187095D02*
X132979342Y-100139476D01*
X132979342Y-100139476D02*
X132169819Y-100139476D01*
X132169819Y-99758523D02*
X132169819Y-99091857D01*
X132169819Y-99091857D02*
X133169819Y-99520428D01*
%TO.C,JP7*%
X156773666Y-112230819D02*
X156773666Y-112945104D01*
X156773666Y-112945104D02*
X156726047Y-113087961D01*
X156726047Y-113087961D02*
X156630809Y-113183200D01*
X156630809Y-113183200D02*
X156487952Y-113230819D01*
X156487952Y-113230819D02*
X156392714Y-113230819D01*
X157249857Y-113230819D02*
X157249857Y-112230819D01*
X157249857Y-112230819D02*
X157630809Y-112230819D01*
X157630809Y-112230819D02*
X157726047Y-112278438D01*
X157726047Y-112278438D02*
X157773666Y-112326057D01*
X157773666Y-112326057D02*
X157821285Y-112421295D01*
X157821285Y-112421295D02*
X157821285Y-112564152D01*
X157821285Y-112564152D02*
X157773666Y-112659390D01*
X157773666Y-112659390D02*
X157726047Y-112707009D01*
X157726047Y-112707009D02*
X157630809Y-112754628D01*
X157630809Y-112754628D02*
X157249857Y-112754628D01*
X158154619Y-112230819D02*
X158821285Y-112230819D01*
X158821285Y-112230819D02*
X158392714Y-113230819D01*
X160492714Y-115262819D02*
X159921286Y-115262819D01*
X160207000Y-115262819D02*
X160207000Y-114262819D01*
X160207000Y-114262819D02*
X160111762Y-114405676D01*
X160111762Y-114405676D02*
X160016524Y-114500914D01*
X160016524Y-114500914D02*
X159921286Y-114548533D01*
X154673667Y-114262819D02*
X155292714Y-114262819D01*
X155292714Y-114262819D02*
X154959381Y-114643771D01*
X154959381Y-114643771D02*
X155102238Y-114643771D01*
X155102238Y-114643771D02*
X155197476Y-114691390D01*
X155197476Y-114691390D02*
X155245095Y-114739009D01*
X155245095Y-114739009D02*
X155292714Y-114834247D01*
X155292714Y-114834247D02*
X155292714Y-115072342D01*
X155292714Y-115072342D02*
X155245095Y-115167580D01*
X155245095Y-115167580D02*
X155197476Y-115215200D01*
X155197476Y-115215200D02*
X155102238Y-115262819D01*
X155102238Y-115262819D02*
X154816524Y-115262819D01*
X154816524Y-115262819D02*
X154721286Y-115215200D01*
X154721286Y-115215200D02*
X154673667Y-115167580D01*
%TO.C,J9*%
X104822666Y-99784819D02*
X104822666Y-100499104D01*
X104822666Y-100499104D02*
X104775047Y-100641961D01*
X104775047Y-100641961D02*
X104679809Y-100737200D01*
X104679809Y-100737200D02*
X104536952Y-100784819D01*
X104536952Y-100784819D02*
X104441714Y-100784819D01*
X105346476Y-100784819D02*
X105536952Y-100784819D01*
X105536952Y-100784819D02*
X105632190Y-100737200D01*
X105632190Y-100737200D02*
X105679809Y-100689580D01*
X105679809Y-100689580D02*
X105775047Y-100546723D01*
X105775047Y-100546723D02*
X105822666Y-100356247D01*
X105822666Y-100356247D02*
X105822666Y-99975295D01*
X105822666Y-99975295D02*
X105775047Y-99880057D01*
X105775047Y-99880057D02*
X105727428Y-99832438D01*
X105727428Y-99832438D02*
X105632190Y-99784819D01*
X105632190Y-99784819D02*
X105441714Y-99784819D01*
X105441714Y-99784819D02*
X105346476Y-99832438D01*
X105346476Y-99832438D02*
X105298857Y-99880057D01*
X105298857Y-99880057D02*
X105251238Y-99975295D01*
X105251238Y-99975295D02*
X105251238Y-100213390D01*
X105251238Y-100213390D02*
X105298857Y-100308628D01*
X105298857Y-100308628D02*
X105346476Y-100356247D01*
X105346476Y-100356247D02*
X105441714Y-100403866D01*
X105441714Y-100403866D02*
X105632190Y-100403866D01*
X105632190Y-100403866D02*
X105727428Y-100356247D01*
X105727428Y-100356247D02*
X105775047Y-100308628D01*
X105775047Y-100308628D02*
X105822666Y-100213390D01*
%TO.C,R7*%
X140916819Y-95924666D02*
X140440628Y-96257999D01*
X140916819Y-96496094D02*
X139916819Y-96496094D01*
X139916819Y-96496094D02*
X139916819Y-96115142D01*
X139916819Y-96115142D02*
X139964438Y-96019904D01*
X139964438Y-96019904D02*
X140012057Y-95972285D01*
X140012057Y-95972285D02*
X140107295Y-95924666D01*
X140107295Y-95924666D02*
X140250152Y-95924666D01*
X140250152Y-95924666D02*
X140345390Y-95972285D01*
X140345390Y-95972285D02*
X140393009Y-96019904D01*
X140393009Y-96019904D02*
X140440628Y-96115142D01*
X140440628Y-96115142D02*
X140440628Y-96496094D01*
X139916819Y-95591332D02*
X139916819Y-94924666D01*
X139916819Y-94924666D02*
X140916819Y-95353237D01*
%TO.C,J2*%
X136384819Y-141452338D02*
X137099104Y-141452338D01*
X137099104Y-141452338D02*
X137241961Y-141499957D01*
X137241961Y-141499957D02*
X137337200Y-141595195D01*
X137337200Y-141595195D02*
X137384819Y-141738052D01*
X137384819Y-141738052D02*
X137384819Y-141833290D01*
X136480057Y-141023766D02*
X136432438Y-140976147D01*
X136432438Y-140976147D02*
X136384819Y-140880909D01*
X136384819Y-140880909D02*
X136384819Y-140642814D01*
X136384819Y-140642814D02*
X136432438Y-140547576D01*
X136432438Y-140547576D02*
X136480057Y-140499957D01*
X136480057Y-140499957D02*
X136575295Y-140452338D01*
X136575295Y-140452338D02*
X136670533Y-140452338D01*
X136670533Y-140452338D02*
X136813390Y-140499957D01*
X136813390Y-140499957D02*
X137384819Y-141071385D01*
X137384819Y-141071385D02*
X137384819Y-140452338D01*
%TO.C,J30*%
X150980876Y-124593819D02*
X150980876Y-125308104D01*
X150980876Y-125308104D02*
X150933257Y-125450961D01*
X150933257Y-125450961D02*
X150838019Y-125546200D01*
X150838019Y-125546200D02*
X150695162Y-125593819D01*
X150695162Y-125593819D02*
X150599924Y-125593819D01*
X151361829Y-124593819D02*
X151980876Y-124593819D01*
X151980876Y-124593819D02*
X151647543Y-124974771D01*
X151647543Y-124974771D02*
X151790400Y-124974771D01*
X151790400Y-124974771D02*
X151885638Y-125022390D01*
X151885638Y-125022390D02*
X151933257Y-125070009D01*
X151933257Y-125070009D02*
X151980876Y-125165247D01*
X151980876Y-125165247D02*
X151980876Y-125403342D01*
X151980876Y-125403342D02*
X151933257Y-125498580D01*
X151933257Y-125498580D02*
X151885638Y-125546200D01*
X151885638Y-125546200D02*
X151790400Y-125593819D01*
X151790400Y-125593819D02*
X151504686Y-125593819D01*
X151504686Y-125593819D02*
X151409448Y-125546200D01*
X151409448Y-125546200D02*
X151361829Y-125498580D01*
X152599924Y-124593819D02*
X152695162Y-124593819D01*
X152695162Y-124593819D02*
X152790400Y-124641438D01*
X152790400Y-124641438D02*
X152838019Y-124689057D01*
X152838019Y-124689057D02*
X152885638Y-124784295D01*
X152885638Y-124784295D02*
X152933257Y-124974771D01*
X152933257Y-124974771D02*
X152933257Y-125212866D01*
X152933257Y-125212866D02*
X152885638Y-125403342D01*
X152885638Y-125403342D02*
X152838019Y-125498580D01*
X152838019Y-125498580D02*
X152790400Y-125546200D01*
X152790400Y-125546200D02*
X152695162Y-125593819D01*
X152695162Y-125593819D02*
X152599924Y-125593819D01*
X152599924Y-125593819D02*
X152504686Y-125546200D01*
X152504686Y-125546200D02*
X152457067Y-125498580D01*
X152457067Y-125498580D02*
X152409448Y-125403342D01*
X152409448Y-125403342D02*
X152361829Y-125212866D01*
X152361829Y-125212866D02*
X152361829Y-124974771D01*
X152361829Y-124974771D02*
X152409448Y-124784295D01*
X152409448Y-124784295D02*
X152457067Y-124689057D01*
X152457067Y-124689057D02*
X152504686Y-124641438D01*
X152504686Y-124641438D02*
X152599924Y-124593819D01*
%TO.C,J6*%
X187626666Y-129633824D02*
X187626666Y-130348109D01*
X187626666Y-130348109D02*
X187579047Y-130490966D01*
X187579047Y-130490966D02*
X187483809Y-130586205D01*
X187483809Y-130586205D02*
X187340952Y-130633824D01*
X187340952Y-130633824D02*
X187245714Y-130633824D01*
X188531428Y-129633824D02*
X188340952Y-129633824D01*
X188340952Y-129633824D02*
X188245714Y-129681443D01*
X188245714Y-129681443D02*
X188198095Y-129729062D01*
X188198095Y-129729062D02*
X188102857Y-129871919D01*
X188102857Y-129871919D02*
X188055238Y-130062395D01*
X188055238Y-130062395D02*
X188055238Y-130443347D01*
X188055238Y-130443347D02*
X188102857Y-130538585D01*
X188102857Y-130538585D02*
X188150476Y-130586205D01*
X188150476Y-130586205D02*
X188245714Y-130633824D01*
X188245714Y-130633824D02*
X188436190Y-130633824D01*
X188436190Y-130633824D02*
X188531428Y-130586205D01*
X188531428Y-130586205D02*
X188579047Y-130538585D01*
X188579047Y-130538585D02*
X188626666Y-130443347D01*
X188626666Y-130443347D02*
X188626666Y-130205252D01*
X188626666Y-130205252D02*
X188579047Y-130110014D01*
X188579047Y-130110014D02*
X188531428Y-130062395D01*
X188531428Y-130062395D02*
X188436190Y-130014776D01*
X188436190Y-130014776D02*
X188245714Y-130014776D01*
X188245714Y-130014776D02*
X188150476Y-130062395D01*
X188150476Y-130062395D02*
X188102857Y-130110014D01*
X188102857Y-130110014D02*
X188055238Y-130205252D01*
%TO.C,U9*%
X133058819Y-76199904D02*
X133868342Y-76199904D01*
X133868342Y-76199904D02*
X133963580Y-76152285D01*
X133963580Y-76152285D02*
X134011200Y-76104666D01*
X134011200Y-76104666D02*
X134058819Y-76009428D01*
X134058819Y-76009428D02*
X134058819Y-75818952D01*
X134058819Y-75818952D02*
X134011200Y-75723714D01*
X134011200Y-75723714D02*
X133963580Y-75676095D01*
X133963580Y-75676095D02*
X133868342Y-75628476D01*
X133868342Y-75628476D02*
X133058819Y-75628476D01*
X134058819Y-75104666D02*
X134058819Y-74914190D01*
X134058819Y-74914190D02*
X134011200Y-74818952D01*
X134011200Y-74818952D02*
X133963580Y-74771333D01*
X133963580Y-74771333D02*
X133820723Y-74676095D01*
X133820723Y-74676095D02*
X133630247Y-74628476D01*
X133630247Y-74628476D02*
X133249295Y-74628476D01*
X133249295Y-74628476D02*
X133154057Y-74676095D01*
X133154057Y-74676095D02*
X133106438Y-74723714D01*
X133106438Y-74723714D02*
X133058819Y-74818952D01*
X133058819Y-74818952D02*
X133058819Y-75009428D01*
X133058819Y-75009428D02*
X133106438Y-75104666D01*
X133106438Y-75104666D02*
X133154057Y-75152285D01*
X133154057Y-75152285D02*
X133249295Y-75199904D01*
X133249295Y-75199904D02*
X133487390Y-75199904D01*
X133487390Y-75199904D02*
X133582628Y-75152285D01*
X133582628Y-75152285D02*
X133630247Y-75104666D01*
X133630247Y-75104666D02*
X133677866Y-75009428D01*
X133677866Y-75009428D02*
X133677866Y-74818952D01*
X133677866Y-74818952D02*
X133630247Y-74723714D01*
X133630247Y-74723714D02*
X133582628Y-74676095D01*
X133582628Y-74676095D02*
X133487390Y-74628476D01*
%TO.C,JP8*%
X164825466Y-74185019D02*
X164825466Y-74899304D01*
X164825466Y-74899304D02*
X164777847Y-75042161D01*
X164777847Y-75042161D02*
X164682609Y-75137400D01*
X164682609Y-75137400D02*
X164539752Y-75185019D01*
X164539752Y-75185019D02*
X164444514Y-75185019D01*
X165301657Y-75185019D02*
X165301657Y-74185019D01*
X165301657Y-74185019D02*
X165682609Y-74185019D01*
X165682609Y-74185019D02*
X165777847Y-74232638D01*
X165777847Y-74232638D02*
X165825466Y-74280257D01*
X165825466Y-74280257D02*
X165873085Y-74375495D01*
X165873085Y-74375495D02*
X165873085Y-74518352D01*
X165873085Y-74518352D02*
X165825466Y-74613590D01*
X165825466Y-74613590D02*
X165777847Y-74661209D01*
X165777847Y-74661209D02*
X165682609Y-74708828D01*
X165682609Y-74708828D02*
X165301657Y-74708828D01*
X166444514Y-74613590D02*
X166349276Y-74565971D01*
X166349276Y-74565971D02*
X166301657Y-74518352D01*
X166301657Y-74518352D02*
X166254038Y-74423114D01*
X166254038Y-74423114D02*
X166254038Y-74375495D01*
X166254038Y-74375495D02*
X166301657Y-74280257D01*
X166301657Y-74280257D02*
X166349276Y-74232638D01*
X166349276Y-74232638D02*
X166444514Y-74185019D01*
X166444514Y-74185019D02*
X166634990Y-74185019D01*
X166634990Y-74185019D02*
X166730228Y-74232638D01*
X166730228Y-74232638D02*
X166777847Y-74280257D01*
X166777847Y-74280257D02*
X166825466Y-74375495D01*
X166825466Y-74375495D02*
X166825466Y-74423114D01*
X166825466Y-74423114D02*
X166777847Y-74518352D01*
X166777847Y-74518352D02*
X166730228Y-74565971D01*
X166730228Y-74565971D02*
X166634990Y-74613590D01*
X166634990Y-74613590D02*
X166444514Y-74613590D01*
X166444514Y-74613590D02*
X166349276Y-74661209D01*
X166349276Y-74661209D02*
X166301657Y-74708828D01*
X166301657Y-74708828D02*
X166254038Y-74804066D01*
X166254038Y-74804066D02*
X166254038Y-74994542D01*
X166254038Y-74994542D02*
X166301657Y-75089780D01*
X166301657Y-75089780D02*
X166349276Y-75137400D01*
X166349276Y-75137400D02*
X166444514Y-75185019D01*
X166444514Y-75185019D02*
X166634990Y-75185019D01*
X166634990Y-75185019D02*
X166730228Y-75137400D01*
X166730228Y-75137400D02*
X166777847Y-75089780D01*
X166777847Y-75089780D02*
X166825466Y-74994542D01*
X166825466Y-74994542D02*
X166825466Y-74804066D01*
X166825466Y-74804066D02*
X166777847Y-74708828D01*
X166777847Y-74708828D02*
X166730228Y-74661209D01*
X166730228Y-74661209D02*
X166634990Y-74613590D01*
X163344514Y-76985019D02*
X162773086Y-76985019D01*
X163058800Y-76985019D02*
X163058800Y-75985019D01*
X163058800Y-75985019D02*
X162963562Y-76127876D01*
X162963562Y-76127876D02*
X162868324Y-76223114D01*
X162868324Y-76223114D02*
X162773086Y-76270733D01*
X167925467Y-75985019D02*
X168544514Y-75985019D01*
X168544514Y-75985019D02*
X168211181Y-76365971D01*
X168211181Y-76365971D02*
X168354038Y-76365971D01*
X168354038Y-76365971D02*
X168449276Y-76413590D01*
X168449276Y-76413590D02*
X168496895Y-76461209D01*
X168496895Y-76461209D02*
X168544514Y-76556447D01*
X168544514Y-76556447D02*
X168544514Y-76794542D01*
X168544514Y-76794542D02*
X168496895Y-76889780D01*
X168496895Y-76889780D02*
X168449276Y-76937400D01*
X168449276Y-76937400D02*
X168354038Y-76985019D01*
X168354038Y-76985019D02*
X168068324Y-76985019D01*
X168068324Y-76985019D02*
X167973086Y-76937400D01*
X167973086Y-76937400D02*
X167925467Y-76889780D01*
%TO.C,R5*%
X148282819Y-91225666D02*
X147806628Y-91558999D01*
X148282819Y-91797094D02*
X147282819Y-91797094D01*
X147282819Y-91797094D02*
X147282819Y-91416142D01*
X147282819Y-91416142D02*
X147330438Y-91320904D01*
X147330438Y-91320904D02*
X147378057Y-91273285D01*
X147378057Y-91273285D02*
X147473295Y-91225666D01*
X147473295Y-91225666D02*
X147616152Y-91225666D01*
X147616152Y-91225666D02*
X147711390Y-91273285D01*
X147711390Y-91273285D02*
X147759009Y-91320904D01*
X147759009Y-91320904D02*
X147806628Y-91416142D01*
X147806628Y-91416142D02*
X147806628Y-91797094D01*
X147282819Y-90320904D02*
X147282819Y-90797094D01*
X147282819Y-90797094D02*
X147759009Y-90844713D01*
X147759009Y-90844713D02*
X147711390Y-90797094D01*
X147711390Y-90797094D02*
X147663771Y-90701856D01*
X147663771Y-90701856D02*
X147663771Y-90463761D01*
X147663771Y-90463761D02*
X147711390Y-90368523D01*
X147711390Y-90368523D02*
X147759009Y-90320904D01*
X147759009Y-90320904D02*
X147854247Y-90273285D01*
X147854247Y-90273285D02*
X148092342Y-90273285D01*
X148092342Y-90273285D02*
X148187580Y-90320904D01*
X148187580Y-90320904D02*
X148235200Y-90368523D01*
X148235200Y-90368523D02*
X148282819Y-90463761D01*
X148282819Y-90463761D02*
X148282819Y-90701856D01*
X148282819Y-90701856D02*
X148235200Y-90797094D01*
X148235200Y-90797094D02*
X148187580Y-90844713D01*
%TO.C,U8*%
X142837819Y-72262904D02*
X143647342Y-72262904D01*
X143647342Y-72262904D02*
X143742580Y-72215285D01*
X143742580Y-72215285D02*
X143790200Y-72167666D01*
X143790200Y-72167666D02*
X143837819Y-72072428D01*
X143837819Y-72072428D02*
X143837819Y-71881952D01*
X143837819Y-71881952D02*
X143790200Y-71786714D01*
X143790200Y-71786714D02*
X143742580Y-71739095D01*
X143742580Y-71739095D02*
X143647342Y-71691476D01*
X143647342Y-71691476D02*
X142837819Y-71691476D01*
X143266390Y-71072428D02*
X143218771Y-71167666D01*
X143218771Y-71167666D02*
X143171152Y-71215285D01*
X143171152Y-71215285D02*
X143075914Y-71262904D01*
X143075914Y-71262904D02*
X143028295Y-71262904D01*
X143028295Y-71262904D02*
X142933057Y-71215285D01*
X142933057Y-71215285D02*
X142885438Y-71167666D01*
X142885438Y-71167666D02*
X142837819Y-71072428D01*
X142837819Y-71072428D02*
X142837819Y-70881952D01*
X142837819Y-70881952D02*
X142885438Y-70786714D01*
X142885438Y-70786714D02*
X142933057Y-70739095D01*
X142933057Y-70739095D02*
X143028295Y-70691476D01*
X143028295Y-70691476D02*
X143075914Y-70691476D01*
X143075914Y-70691476D02*
X143171152Y-70739095D01*
X143171152Y-70739095D02*
X143218771Y-70786714D01*
X143218771Y-70786714D02*
X143266390Y-70881952D01*
X143266390Y-70881952D02*
X143266390Y-71072428D01*
X143266390Y-71072428D02*
X143314009Y-71167666D01*
X143314009Y-71167666D02*
X143361628Y-71215285D01*
X143361628Y-71215285D02*
X143456866Y-71262904D01*
X143456866Y-71262904D02*
X143647342Y-71262904D01*
X143647342Y-71262904D02*
X143742580Y-71215285D01*
X143742580Y-71215285D02*
X143790200Y-71167666D01*
X143790200Y-71167666D02*
X143837819Y-71072428D01*
X143837819Y-71072428D02*
X143837819Y-70881952D01*
X143837819Y-70881952D02*
X143790200Y-70786714D01*
X143790200Y-70786714D02*
X143742580Y-70739095D01*
X143742580Y-70739095D02*
X143647342Y-70691476D01*
X143647342Y-70691476D02*
X143456866Y-70691476D01*
X143456866Y-70691476D02*
X143361628Y-70739095D01*
X143361628Y-70739095D02*
X143314009Y-70786714D01*
X143314009Y-70786714D02*
X143266390Y-70881952D01*
%TO.C,J7*%
X164131666Y-109817819D02*
X164131666Y-110532104D01*
X164131666Y-110532104D02*
X164084047Y-110674961D01*
X164084047Y-110674961D02*
X163988809Y-110770200D01*
X163988809Y-110770200D02*
X163845952Y-110817819D01*
X163845952Y-110817819D02*
X163750714Y-110817819D01*
X164512619Y-109817819D02*
X165179285Y-109817819D01*
X165179285Y-109817819D02*
X164750714Y-110817819D01*
%TO.C,J3*%
X136384819Y-55906338D02*
X137099104Y-55906338D01*
X137099104Y-55906338D02*
X137241961Y-55953957D01*
X137241961Y-55953957D02*
X137337200Y-56049195D01*
X137337200Y-56049195D02*
X137384819Y-56192052D01*
X137384819Y-56192052D02*
X137384819Y-56287290D01*
X136384819Y-55525385D02*
X136384819Y-54906338D01*
X136384819Y-54906338D02*
X136765771Y-55239671D01*
X136765771Y-55239671D02*
X136765771Y-55096814D01*
X136765771Y-55096814D02*
X136813390Y-55001576D01*
X136813390Y-55001576D02*
X136861009Y-54953957D01*
X136861009Y-54953957D02*
X136956247Y-54906338D01*
X136956247Y-54906338D02*
X137194342Y-54906338D01*
X137194342Y-54906338D02*
X137289580Y-54953957D01*
X137289580Y-54953957D02*
X137337200Y-55001576D01*
X137337200Y-55001576D02*
X137384819Y-55096814D01*
X137384819Y-55096814D02*
X137384819Y-55382528D01*
X137384819Y-55382528D02*
X137337200Y-55477766D01*
X137337200Y-55477766D02*
X137289580Y-55525385D01*
%TO.C,R6*%
X143329819Y-91352666D02*
X142853628Y-91685999D01*
X143329819Y-91924094D02*
X142329819Y-91924094D01*
X142329819Y-91924094D02*
X142329819Y-91543142D01*
X142329819Y-91543142D02*
X142377438Y-91447904D01*
X142377438Y-91447904D02*
X142425057Y-91400285D01*
X142425057Y-91400285D02*
X142520295Y-91352666D01*
X142520295Y-91352666D02*
X142663152Y-91352666D01*
X142663152Y-91352666D02*
X142758390Y-91400285D01*
X142758390Y-91400285D02*
X142806009Y-91447904D01*
X142806009Y-91447904D02*
X142853628Y-91543142D01*
X142853628Y-91543142D02*
X142853628Y-91924094D01*
X142329819Y-90495523D02*
X142329819Y-90685999D01*
X142329819Y-90685999D02*
X142377438Y-90781237D01*
X142377438Y-90781237D02*
X142425057Y-90828856D01*
X142425057Y-90828856D02*
X142567914Y-90924094D01*
X142567914Y-90924094D02*
X142758390Y-90971713D01*
X142758390Y-90971713D02*
X143139342Y-90971713D01*
X143139342Y-90971713D02*
X143234580Y-90924094D01*
X143234580Y-90924094D02*
X143282200Y-90876475D01*
X143282200Y-90876475D02*
X143329819Y-90781237D01*
X143329819Y-90781237D02*
X143329819Y-90590761D01*
X143329819Y-90590761D02*
X143282200Y-90495523D01*
X143282200Y-90495523D02*
X143234580Y-90447904D01*
X143234580Y-90447904D02*
X143139342Y-90400285D01*
X143139342Y-90400285D02*
X142901247Y-90400285D01*
X142901247Y-90400285D02*
X142806009Y-90447904D01*
X142806009Y-90447904D02*
X142758390Y-90495523D01*
X142758390Y-90495523D02*
X142710771Y-90590761D01*
X142710771Y-90590761D02*
X142710771Y-90781237D01*
X142710771Y-90781237D02*
X142758390Y-90876475D01*
X142758390Y-90876475D02*
X142806009Y-90924094D01*
X142806009Y-90924094D02*
X142901247Y-90971713D01*
%TO.C,R2*%
X165619133Y-76214219D02*
X165285800Y-75738028D01*
X165047705Y-76214219D02*
X165047705Y-75214219D01*
X165047705Y-75214219D02*
X165428657Y-75214219D01*
X165428657Y-75214219D02*
X165523895Y-75261838D01*
X165523895Y-75261838D02*
X165571514Y-75309457D01*
X165571514Y-75309457D02*
X165619133Y-75404695D01*
X165619133Y-75404695D02*
X165619133Y-75547552D01*
X165619133Y-75547552D02*
X165571514Y-75642790D01*
X165571514Y-75642790D02*
X165523895Y-75690409D01*
X165523895Y-75690409D02*
X165428657Y-75738028D01*
X165428657Y-75738028D02*
X165047705Y-75738028D01*
X166000086Y-75309457D02*
X166047705Y-75261838D01*
X166047705Y-75261838D02*
X166142943Y-75214219D01*
X166142943Y-75214219D02*
X166381038Y-75214219D01*
X166381038Y-75214219D02*
X166476276Y-75261838D01*
X166476276Y-75261838D02*
X166523895Y-75309457D01*
X166523895Y-75309457D02*
X166571514Y-75404695D01*
X166571514Y-75404695D02*
X166571514Y-75499933D01*
X166571514Y-75499933D02*
X166523895Y-75642790D01*
X166523895Y-75642790D02*
X165952467Y-76214219D01*
X165952467Y-76214219D02*
X166571514Y-76214219D01*
%TO.C,C1*%
X134554933Y-60252780D02*
X134507314Y-60300400D01*
X134507314Y-60300400D02*
X134364457Y-60348019D01*
X134364457Y-60348019D02*
X134269219Y-60348019D01*
X134269219Y-60348019D02*
X134126362Y-60300400D01*
X134126362Y-60300400D02*
X134031124Y-60205161D01*
X134031124Y-60205161D02*
X133983505Y-60109923D01*
X133983505Y-60109923D02*
X133935886Y-59919447D01*
X133935886Y-59919447D02*
X133935886Y-59776590D01*
X133935886Y-59776590D02*
X133983505Y-59586114D01*
X133983505Y-59586114D02*
X134031124Y-59490876D01*
X134031124Y-59490876D02*
X134126362Y-59395638D01*
X134126362Y-59395638D02*
X134269219Y-59348019D01*
X134269219Y-59348019D02*
X134364457Y-59348019D01*
X134364457Y-59348019D02*
X134507314Y-59395638D01*
X134507314Y-59395638D02*
X134554933Y-59443257D01*
X135507314Y-60348019D02*
X134935886Y-60348019D01*
X135221600Y-60348019D02*
X135221600Y-59348019D01*
X135221600Y-59348019D02*
X135126362Y-59490876D01*
X135126362Y-59490876D02*
X135031124Y-59586114D01*
X135031124Y-59586114D02*
X134935886Y-59633733D01*
%TO.C,R8*%
X136344819Y-91352666D02*
X135868628Y-91685999D01*
X136344819Y-91924094D02*
X135344819Y-91924094D01*
X135344819Y-91924094D02*
X135344819Y-91543142D01*
X135344819Y-91543142D02*
X135392438Y-91447904D01*
X135392438Y-91447904D02*
X135440057Y-91400285D01*
X135440057Y-91400285D02*
X135535295Y-91352666D01*
X135535295Y-91352666D02*
X135678152Y-91352666D01*
X135678152Y-91352666D02*
X135773390Y-91400285D01*
X135773390Y-91400285D02*
X135821009Y-91447904D01*
X135821009Y-91447904D02*
X135868628Y-91543142D01*
X135868628Y-91543142D02*
X135868628Y-91924094D01*
X135773390Y-90781237D02*
X135725771Y-90876475D01*
X135725771Y-90876475D02*
X135678152Y-90924094D01*
X135678152Y-90924094D02*
X135582914Y-90971713D01*
X135582914Y-90971713D02*
X135535295Y-90971713D01*
X135535295Y-90971713D02*
X135440057Y-90924094D01*
X135440057Y-90924094D02*
X135392438Y-90876475D01*
X135392438Y-90876475D02*
X135344819Y-90781237D01*
X135344819Y-90781237D02*
X135344819Y-90590761D01*
X135344819Y-90590761D02*
X135392438Y-90495523D01*
X135392438Y-90495523D02*
X135440057Y-90447904D01*
X135440057Y-90447904D02*
X135535295Y-90400285D01*
X135535295Y-90400285D02*
X135582914Y-90400285D01*
X135582914Y-90400285D02*
X135678152Y-90447904D01*
X135678152Y-90447904D02*
X135725771Y-90495523D01*
X135725771Y-90495523D02*
X135773390Y-90590761D01*
X135773390Y-90590761D02*
X135773390Y-90781237D01*
X135773390Y-90781237D02*
X135821009Y-90876475D01*
X135821009Y-90876475D02*
X135868628Y-90924094D01*
X135868628Y-90924094D02*
X135963866Y-90971713D01*
X135963866Y-90971713D02*
X136154342Y-90971713D01*
X136154342Y-90971713D02*
X136249580Y-90924094D01*
X136249580Y-90924094D02*
X136297200Y-90876475D01*
X136297200Y-90876475D02*
X136344819Y-90781237D01*
X136344819Y-90781237D02*
X136344819Y-90590761D01*
X136344819Y-90590761D02*
X136297200Y-90495523D01*
X136297200Y-90495523D02*
X136249580Y-90447904D01*
X136249580Y-90447904D02*
X136154342Y-90400285D01*
X136154342Y-90400285D02*
X135963866Y-90400285D01*
X135963866Y-90400285D02*
X135868628Y-90447904D01*
X135868628Y-90447904D02*
X135821009Y-90495523D01*
X135821009Y-90495523D02*
X135773390Y-90590761D01*
D12*
%TO.C,C5*%
X156641748Y-90784000D02*
X158064252Y-90784000D01*
X156641748Y-92604000D02*
X158064252Y-92604000D01*
%TO.C,J10*%
X145829000Y-73408000D02*
X146939000Y-73408000D01*
X145829000Y-74168000D02*
X145829000Y-73408000D01*
X145829000Y-74928000D02*
X145829000Y-74863000D01*
X145829000Y-74928000D02*
X146375529Y-74928000D01*
X145829000Y-74928000D02*
X148049000Y-74928000D01*
X147502471Y-74928000D02*
X148049000Y-74928000D01*
X148049000Y-74928000D02*
X148049000Y-74863000D01*
%TO.C,J8*%
X166310000Y-131719005D02*
X166310000Y-130389005D01*
X167640000Y-131719005D02*
X166310000Y-131719005D01*
X168910000Y-131719005D02*
X189290000Y-131719005D01*
X168910000Y-131719005D02*
X168910000Y-129059005D01*
X189290000Y-131719005D02*
X189290000Y-129059005D01*
X168910000Y-129059005D02*
X189290000Y-129059005D01*
%TO.C,U2*%
X167554600Y-67403500D02*
X167554600Y-71853500D01*
X167554600Y-67403500D02*
X167554600Y-64753500D01*
X180374600Y-67403500D02*
X180374600Y-70053500D01*
X180374600Y-67403500D02*
X180374600Y-64753500D01*
%TO.C,J26*%
X125825000Y-140875000D02*
X127455000Y-140875000D01*
X125825001Y-49625000D02*
X125825000Y-140875000D01*
X127455000Y-140515000D02*
X129084999Y-140515000D01*
X127455000Y-140875000D02*
X127455000Y-140515000D01*
X129084999Y-140515000D02*
X129084999Y-140875000D01*
X129084999Y-140875000D02*
X130714999Y-140875000D01*
X130714999Y-140875000D02*
X130715000Y-49625000D01*
X130715000Y-49625000D02*
X125825001Y-49625000D01*
%TO.C,J1*%
X138370000Y-52173005D02*
X189290000Y-52173005D01*
X138370000Y-52173005D02*
X138370000Y-49573005D01*
X189290000Y-52173005D02*
X189290000Y-46973005D01*
X138370000Y-49573005D02*
X140970000Y-49573005D01*
X140970000Y-49573005D02*
X140970000Y-46973005D01*
X138370000Y-48303005D02*
X138370000Y-46973005D01*
X138370000Y-46973005D02*
X139700000Y-46973005D01*
X140970000Y-46973005D02*
X189290000Y-46973005D01*
%TO.C,U3*%
X180711800Y-67387300D02*
X180711800Y-71837300D01*
X180711800Y-67387300D02*
X180711800Y-64737300D01*
X193531800Y-67387300D02*
X193531800Y-70037300D01*
X193531800Y-67387300D02*
X193531800Y-64737300D01*
%TO.C,U5*%
X167147400Y-67419700D02*
X167147400Y-62969700D01*
X167147400Y-67419700D02*
X167147400Y-70069700D01*
X151927400Y-67419700D02*
X151927400Y-64769700D01*
X151927400Y-67419700D02*
X151927400Y-70069700D01*
%TO.C,J31*%
X164787600Y-125423200D02*
X163677600Y-125423200D01*
X164787600Y-124663200D02*
X164787600Y-125423200D01*
X164787600Y-123903200D02*
X164787600Y-117618200D01*
X164787600Y-123903200D02*
X164241071Y-123903200D01*
X164787600Y-117618200D02*
X163985130Y-117618200D01*
X163370070Y-117618200D02*
X162567600Y-117618200D01*
X163114129Y-123903200D02*
X162567600Y-123903200D01*
X162567600Y-123903200D02*
X162567600Y-117618200D01*
%TO.C,R3*%
X138959000Y-94395936D02*
X138959000Y-95850064D01*
X137139000Y-94395936D02*
X137139000Y-95850064D01*
%TO.C,R4*%
X132567000Y-92395064D02*
X132567000Y-90940936D01*
X134387000Y-92395064D02*
X134387000Y-90940936D01*
%TO.C,J5*%
X166310000Y-108859005D02*
X166310000Y-107529005D01*
X167640000Y-108859005D02*
X166310000Y-108859005D01*
X168910000Y-108859005D02*
X189290000Y-108859005D01*
X168910000Y-108859005D02*
X168910000Y-106199005D01*
X189290000Y-108859005D02*
X189290000Y-106199005D01*
X168910000Y-106199005D02*
X189290000Y-106199005D01*
%TO.C,J4*%
X138370000Y-137719005D02*
X189290000Y-137719005D01*
X138370000Y-137719005D02*
X138370000Y-135119005D01*
X189290000Y-137719005D02*
X189290000Y-132519005D01*
X138370000Y-135119005D02*
X140970000Y-135119005D01*
X140970000Y-135119005D02*
X140970000Y-132519005D01*
X138370000Y-133849005D02*
X138370000Y-132519005D01*
X138370000Y-132519005D02*
X139700000Y-132519005D01*
X140970000Y-132519005D02*
X189290000Y-132519005D01*
%TO.C,C4*%
X158447052Y-131516800D02*
X157024548Y-131516800D01*
X158447052Y-129696800D02*
X157024548Y-129696800D01*
%TO.C,J24*%
X115665000Y-140875000D02*
X117295000Y-140875000D01*
X115665001Y-49625000D02*
X115665000Y-140875000D01*
X117295000Y-140515000D02*
X118924999Y-140515000D01*
X117295000Y-140875000D02*
X117295000Y-140515000D01*
X118924999Y-140515000D02*
X118924999Y-140875000D01*
X118924999Y-140875000D02*
X120554999Y-140875000D01*
X120554999Y-140875000D02*
X120555000Y-49625000D01*
X120555000Y-49625000D02*
X115665001Y-49625000D01*
%TO.C,U6*%
X158148500Y-129168200D02*
X162598500Y-129168200D01*
X158148500Y-129168200D02*
X155498500Y-129168200D01*
X158148500Y-116348200D02*
X160798500Y-116348200D01*
X158148500Y-116348200D02*
X155498500Y-116348200D01*
%TO.C,U7*%
X133738000Y-101135000D02*
X184778000Y-101135000D01*
X184778000Y-101135000D02*
X184778000Y-83015000D01*
X133798000Y-98135000D02*
X184718000Y-98135000D01*
X184718000Y-98135000D02*
X184718000Y-86015000D01*
X133798000Y-93075000D02*
X133798000Y-98135000D01*
X133798000Y-86015000D02*
X133798000Y-91075000D01*
X184718000Y-86015000D02*
X133798000Y-86015000D01*
X133738000Y-83015000D02*
X133738000Y-101135000D01*
X184778000Y-83015000D02*
X133738000Y-83015000D01*
X133798000Y-93075000D02*
G75*
G03*
X133798000Y-91075000I0J1000000D01*
G01*
%TO.C,J11*%
X142654000Y-73408000D02*
X143764000Y-73408000D01*
X142654000Y-74168000D02*
X142654000Y-73408000D01*
X142654000Y-74928000D02*
X142654000Y-74863000D01*
X142654000Y-74928000D02*
X143200529Y-74928000D01*
X142654000Y-74928000D02*
X144874000Y-74928000D01*
X144327471Y-74928000D02*
X144874000Y-74928000D01*
X144874000Y-74928000D02*
X144874000Y-74863000D01*
%TO.C,JP7*%
X159657000Y-114508000D02*
X159657000Y-115108000D01*
X159007000Y-115808000D02*
X156207000Y-115808000D01*
X156207000Y-113808000D02*
X159007000Y-113808000D01*
X155557000Y-115108000D02*
X155557000Y-114508000D01*
X158957000Y-115808000D02*
G75*
G03*
X159657000Y-115108000I1J699999D01*
G01*
X159657000Y-114508000D02*
G75*
G03*
X158957000Y-113808000I-699999J1D01*
G01*
X155557000Y-115108000D02*
G75*
G03*
X156257000Y-115808000I700000J0D01*
G01*
X156257000Y-113808000D02*
G75*
G03*
X155557000Y-114508000I0J-700000D01*
G01*
%TO.C,J15*%
X136812000Y-64137000D02*
X137922000Y-64137000D01*
X136812000Y-64897000D02*
X136812000Y-64137000D01*
X136812000Y-65657000D02*
X136812000Y-65592000D01*
X136812000Y-65657000D02*
X137358529Y-65657000D01*
X136812000Y-65657000D02*
X139032000Y-65657000D01*
X138485471Y-65657000D02*
X139032000Y-65657000D01*
X139032000Y-65657000D02*
X139032000Y-65592000D01*
%TO.C,J20*%
X105350000Y-143570000D02*
X105350000Y-142240000D01*
X106680000Y-143570000D02*
X105350000Y-143570000D01*
X107950000Y-143570000D02*
X135950000Y-143570000D01*
X107950000Y-143570000D02*
X107950000Y-140910000D01*
X135950000Y-143570000D02*
X135950000Y-140910000D01*
X107950000Y-140910000D02*
X135950000Y-140910000D01*
%TO.C,J25*%
X120745000Y-140875000D02*
X122375000Y-140875000D01*
X120745001Y-49625000D02*
X120745000Y-140875000D01*
X122375000Y-140515000D02*
X124004999Y-140515000D01*
X122375000Y-140875000D02*
X122375000Y-140515000D01*
X124004999Y-140515000D02*
X124004999Y-140875000D01*
X124004999Y-140875000D02*
X125634999Y-140875000D01*
X125634999Y-140875000D02*
X125635000Y-49625000D01*
X125635000Y-49625000D02*
X120745001Y-49625000D01*
%TO.C,J9*%
X104107000Y-101696000D02*
X102837000Y-101696000D01*
X104107000Y-100426000D02*
X104107000Y-101696000D01*
X101794071Y-98266000D02*
X101339929Y-98266000D01*
X101794071Y-97506000D02*
X101339929Y-97506000D01*
X101794071Y-95726000D02*
X101339929Y-95726000D01*
X101794071Y-94966000D02*
X101339929Y-94966000D01*
X101794071Y-93186000D02*
X101339929Y-93186000D01*
X101794071Y-92426000D02*
X101339929Y-92426000D01*
X101794071Y-90646000D02*
X101339929Y-90646000D01*
X101794071Y-89886000D02*
X101339929Y-89886000D01*
X101727000Y-100806000D02*
X101339929Y-100806000D01*
X101727000Y-100046000D02*
X101339929Y-100046000D01*
X99254071Y-100806000D02*
X98857000Y-100806000D01*
X99254071Y-100046000D02*
X98857000Y-100046000D01*
X99254071Y-98266000D02*
X98857000Y-98266000D01*
X99254071Y-97506000D02*
X98857000Y-97506000D01*
X99254071Y-95726000D02*
X98857000Y-95726000D01*
X99254071Y-94966000D02*
X98857000Y-94966000D01*
X99254071Y-93186000D02*
X98857000Y-93186000D01*
X99254071Y-92426000D02*
X98857000Y-92426000D01*
X99254071Y-90646000D02*
X98857000Y-90646000D01*
X99254071Y-89886000D02*
X98857000Y-89886000D01*
X98857000Y-101756000D02*
X98857000Y-88936000D01*
X98857000Y-99156000D02*
X96197000Y-99156000D01*
X98857000Y-96616000D02*
X96197000Y-96616000D01*
X98857000Y-94076000D02*
X96197000Y-94076000D01*
X98857000Y-91536000D02*
X96197000Y-91536000D01*
X98857000Y-88936000D02*
X96197000Y-88936000D01*
X96197000Y-101756000D02*
X98857000Y-101756000D01*
X96197000Y-100806000D02*
X90197000Y-100806000D01*
X96197000Y-100746000D02*
X90197000Y-100746000D01*
X96197000Y-100626000D02*
X90197000Y-100626000D01*
X96197000Y-100506000D02*
X90197000Y-100506000D01*
X96197000Y-100386000D02*
X90197000Y-100386000D01*
X96197000Y-100266000D02*
X90197000Y-100266000D01*
X96197000Y-100146000D02*
X90197000Y-100146000D01*
X96197000Y-98266000D02*
X90197000Y-98266000D01*
X96197000Y-95726000D02*
X90197000Y-95726000D01*
X96197000Y-93186000D02*
X90197000Y-93186000D01*
X96197000Y-90646000D02*
X90197000Y-90646000D01*
X96197000Y-88936000D02*
X96197000Y-101756000D01*
X90197000Y-100806000D02*
X90197000Y-100046000D01*
X90197000Y-100046000D02*
X96197000Y-100046000D01*
X90197000Y-98266000D02*
X90197000Y-97506000D01*
X90197000Y-97506000D02*
X96197000Y-97506000D01*
X90197000Y-95726000D02*
X90197000Y-94966000D01*
X90197000Y-94966000D02*
X96197000Y-94966000D01*
X90197000Y-93186000D02*
X90197000Y-92426000D01*
X90197000Y-92426000D02*
X96197000Y-92426000D01*
X90197000Y-90646000D02*
X90197000Y-89886000D01*
X90197000Y-89886000D02*
X96197000Y-89886000D01*
%TO.C,R7*%
X139425000Y-92522064D02*
X139425000Y-91067936D01*
X141245000Y-92522064D02*
X141245000Y-91067936D01*
%TO.C,J13*%
X134907000Y-64137000D02*
X136017000Y-64137000D01*
X134907000Y-64897000D02*
X134907000Y-64137000D01*
X134907000Y-65657000D02*
X134907000Y-65592000D01*
X134907000Y-65657000D02*
X135453529Y-65657000D01*
X134907000Y-65657000D02*
X137127000Y-65657000D01*
X136580471Y-65657000D02*
X137127000Y-65657000D01*
X137127000Y-65657000D02*
X137127000Y-65592000D01*
%TO.C,J2*%
X138370000Y-143719005D02*
X189290000Y-143719005D01*
X138370000Y-143719005D02*
X138370000Y-141119005D01*
X189290000Y-143719005D02*
X189290000Y-138519005D01*
X138370000Y-141119005D02*
X140970000Y-141119005D01*
X140970000Y-141119005D02*
X140970000Y-138519005D01*
X138370000Y-139849005D02*
X138370000Y-138519005D01*
X138370000Y-138519005D02*
X139700000Y-138519005D01*
X140970000Y-138519005D02*
X189290000Y-138519005D01*
%TO.C,J30*%
X152900400Y-124204000D02*
X151790400Y-124204000D01*
X152900400Y-123444000D02*
X152900400Y-124204000D01*
X152900400Y-122684000D02*
X152900400Y-116399000D01*
X152900400Y-122684000D02*
X152353871Y-122684000D01*
X152900400Y-116399000D02*
X152097930Y-116399000D01*
X151482870Y-116399000D02*
X150680400Y-116399000D01*
X151226929Y-122684000D02*
X150680400Y-122684000D01*
X150680400Y-122684000D02*
X150680400Y-116399000D01*
%TO.C,J6*%
X189290000Y-129179005D02*
X187960000Y-129179005D01*
X189290000Y-127849005D02*
X189290000Y-129179005D01*
X189290000Y-126579005D02*
X189290000Y-108739005D01*
X189290000Y-126579005D02*
X186630000Y-126579005D01*
X189290000Y-108739005D02*
X186630000Y-108739005D01*
X186630000Y-126579005D02*
X186630000Y-108739005D01*
%TO.C,U9*%
X133106000Y-70485000D02*
X133106000Y-73935000D01*
X133106000Y-70485000D02*
X133106000Y-68535000D01*
X141976000Y-70485000D02*
X141976000Y-72435000D01*
X141976000Y-70485000D02*
X141976000Y-68535000D01*
%TO.C,J14*%
X140622000Y-64137000D02*
X141732000Y-64137000D01*
X140622000Y-64897000D02*
X140622000Y-64137000D01*
X140622000Y-65657000D02*
X140622000Y-65592000D01*
X140622000Y-65657000D02*
X141168529Y-65657000D01*
X140622000Y-65657000D02*
X142842000Y-65657000D01*
X142295471Y-65657000D02*
X142842000Y-65657000D01*
X142842000Y-65657000D02*
X142842000Y-65592000D01*
%TO.C,JP8*%
X163608800Y-75530200D02*
X167708800Y-75530200D01*
X163608800Y-77530200D02*
X163608800Y-75530200D01*
X167708800Y-75530200D02*
X167708800Y-77530200D01*
X167708800Y-77530200D02*
X163608800Y-77530200D01*
%TO.C,J23*%
X110585000Y-140875000D02*
X112215000Y-140875000D01*
X110585001Y-49625000D02*
X110585000Y-140875000D01*
X112215000Y-140515000D02*
X113844999Y-140515000D01*
X112215000Y-140875000D02*
X112215000Y-140515000D01*
X113844999Y-140515000D02*
X113844999Y-140875000D01*
X113844999Y-140875000D02*
X115474999Y-140875000D01*
X115474999Y-140875000D02*
X115475000Y-49625000D01*
X115475000Y-49625000D02*
X110585001Y-49625000D01*
%TO.C,R5*%
X148738000Y-94382936D02*
X148738000Y-95837064D01*
X146918000Y-94382936D02*
X146918000Y-95837064D01*
%TO.C,U8*%
X142631000Y-66421000D02*
X142631000Y-69871000D01*
X142631000Y-66421000D02*
X142631000Y-64471000D01*
X151501000Y-66421000D02*
X151501000Y-68371000D01*
X151501000Y-66421000D02*
X151501000Y-64471000D01*
%TO.C,J7*%
X166310000Y-108739005D02*
X167640000Y-108739005D01*
X166310000Y-110069005D02*
X166310000Y-108739005D01*
X166310000Y-111339005D02*
X166310000Y-129179005D01*
X166310000Y-111339005D02*
X168970000Y-111339005D01*
X166310000Y-129179005D02*
X168970000Y-129179005D01*
X168970000Y-111339005D02*
X168970000Y-129179005D01*
%TO.C,J12*%
X138717000Y-64137000D02*
X139827000Y-64137000D01*
X138717000Y-64897000D02*
X138717000Y-64137000D01*
X138717000Y-65657000D02*
X138717000Y-65592000D01*
X138717000Y-65657000D02*
X139263529Y-65657000D01*
X138717000Y-65657000D02*
X140937000Y-65657000D01*
X140390471Y-65657000D02*
X140937000Y-65657000D01*
X140937000Y-65657000D02*
X140937000Y-65592000D01*
%TO.C,J3*%
X138370000Y-58173005D02*
X189290000Y-58173005D01*
X138370000Y-58173005D02*
X138370000Y-55573005D01*
X189290000Y-58173005D02*
X189290000Y-52973005D01*
X138370000Y-55573005D02*
X140970000Y-55573005D01*
X140970000Y-55573005D02*
X140970000Y-52973005D01*
X138370000Y-54303005D02*
X138370000Y-52973005D01*
X138370000Y-52973005D02*
X139700000Y-52973005D01*
X140970000Y-52973005D02*
X189290000Y-52973005D01*
%TO.C,R6*%
X143658000Y-94382936D02*
X143658000Y-95837064D01*
X141838000Y-94382936D02*
X141838000Y-95837064D01*
%TO.C,R2*%
X166512864Y-74849400D02*
X165058736Y-74849400D01*
X166512864Y-73029400D02*
X165058736Y-73029400D01*
D11*
%TO.C,U1*%
X172854000Y-124169805D02*
X173429000Y-124169805D01*
X172854000Y-124169805D02*
X172854000Y-123494805D01*
X173429000Y-124169805D02*
X173429000Y-125444805D01*
X183204000Y-124169805D02*
X182529000Y-124169805D01*
X183204000Y-124169805D02*
X183204000Y-123494805D01*
X172854000Y-113819805D02*
X172854000Y-114494805D01*
X172854000Y-113819805D02*
X173529000Y-113819805D01*
X183204000Y-113819805D02*
X183204000Y-114494805D01*
X183204000Y-113819805D02*
X182529000Y-113819805D01*
D12*
%TO.C,J22*%
X105505000Y-140875000D02*
X107135000Y-140875000D01*
X105505001Y-49625000D02*
X105505000Y-140875000D01*
X107135000Y-140515000D02*
X108764999Y-140515000D01*
X107135000Y-140875000D02*
X107135000Y-140515000D01*
X108764999Y-140515000D02*
X108764999Y-140875000D01*
X108764999Y-140875000D02*
X110394999Y-140875000D01*
X110394999Y-140875000D02*
X110395000Y-49625000D01*
X110395000Y-49625000D02*
X105505001Y-49625000D01*
%TO.C,C1*%
X138939852Y-60803200D02*
X137517348Y-60803200D01*
X138939852Y-58983200D02*
X137517348Y-58983200D01*
%TO.C,R8*%
X136673000Y-94395936D02*
X136673000Y-95850064D01*
X134853000Y-94395936D02*
X134853000Y-95850064D01*
%TO.C,J21*%
X105350000Y-49590000D02*
X105350000Y-48260000D01*
X106680000Y-49590000D02*
X105350000Y-49590000D01*
X107950000Y-49590000D02*
X135950000Y-49590000D01*
X107950000Y-49590000D02*
X107950000Y-46930000D01*
X135950000Y-49590000D02*
X135950000Y-46930000D01*
X107950000Y-46930000D02*
X135950000Y-46930000D01*
%TD*%
M02*
