%TF.GenerationSoftware,KiCad,Pcbnew,7.0.5-7.0.5~ubuntu20.04.1*%
%TF.CreationDate,2023-07-18T13:55:01+02:00*%
%TF.ProjectId,CPU6502_6802,43505536-3530-4325-9f36-3830322e6b69,rev?*%
%TF.SameCoordinates,Original*%
%TF.FileFunction,Legend,Bot*%
%TF.FilePolarity,Positive*%
%FSLAX46Y46*%
G04 Gerber Fmt 4.6, Leading zero omitted, Abs format (unit mm)*
G04 Created by KiCad (PCBNEW 7.0.5-7.0.5~ubuntu20.04.1) date 2023-07-18 13:55:01*
%MOMM*%
%LPD*%
G01*
G04 APERTURE LIST*
%ADD10C,0.200000*%
%ADD11C,0.150000*%
%ADD12C,0.120000*%
G04 APERTURE END LIST*
D10*
X185933012Y-103743819D02*
X185933012Y-104458104D01*
X185933012Y-104458104D02*
X185980631Y-104600961D01*
X185980631Y-104600961D02*
X186075869Y-104696200D01*
X186075869Y-104696200D02*
X186218726Y-104743819D01*
X186218726Y-104743819D02*
X186313964Y-104743819D01*
X185456821Y-104743819D02*
X185456821Y-103743819D01*
X185456821Y-103743819D02*
X185075869Y-103743819D01*
X185075869Y-103743819D02*
X184980631Y-103791438D01*
X184980631Y-103791438D02*
X184933012Y-103839057D01*
X184933012Y-103839057D02*
X184885393Y-103934295D01*
X184885393Y-103934295D02*
X184885393Y-104077152D01*
X184885393Y-104077152D02*
X184933012Y-104172390D01*
X184933012Y-104172390D02*
X184980631Y-104220009D01*
X184980631Y-104220009D02*
X185075869Y-104267628D01*
X185075869Y-104267628D02*
X185456821Y-104267628D01*
X183933012Y-104743819D02*
X184504440Y-104743819D01*
X184218726Y-104743819D02*
X184218726Y-103743819D01*
X184218726Y-103743819D02*
X184313964Y-103886676D01*
X184313964Y-103886676D02*
X184409202Y-103981914D01*
X184409202Y-103981914D02*
X184504440Y-104029533D01*
X183313964Y-103743819D02*
X183218726Y-103743819D01*
X183218726Y-103743819D02*
X183123488Y-103791438D01*
X183123488Y-103791438D02*
X183075869Y-103839057D01*
X183075869Y-103839057D02*
X183028250Y-103934295D01*
X183028250Y-103934295D02*
X182980631Y-104124771D01*
X182980631Y-104124771D02*
X182980631Y-104362866D01*
X182980631Y-104362866D02*
X183028250Y-104553342D01*
X183028250Y-104553342D02*
X183075869Y-104648580D01*
X183075869Y-104648580D02*
X183123488Y-104696200D01*
X183123488Y-104696200D02*
X183218726Y-104743819D01*
X183218726Y-104743819D02*
X183313964Y-104743819D01*
X183313964Y-104743819D02*
X183409202Y-104696200D01*
X183409202Y-104696200D02*
X183456821Y-104648580D01*
X183456821Y-104648580D02*
X183504440Y-104553342D01*
X183504440Y-104553342D02*
X183552059Y-104362866D01*
X183552059Y-104362866D02*
X183552059Y-104124771D01*
X183552059Y-104124771D02*
X183504440Y-103934295D01*
X183504440Y-103934295D02*
X183456821Y-103839057D01*
X183456821Y-103839057D02*
X183409202Y-103791438D01*
X183409202Y-103791438D02*
X183313964Y-103743819D01*
X182552059Y-104648580D02*
X182504440Y-104696200D01*
X182504440Y-104696200D02*
X182552059Y-104743819D01*
X182552059Y-104743819D02*
X182599678Y-104696200D01*
X182599678Y-104696200D02*
X182552059Y-104648580D01*
X182552059Y-104648580D02*
X182552059Y-104743819D01*
X182552059Y-104124771D02*
X182504440Y-104172390D01*
X182504440Y-104172390D02*
X182552059Y-104220009D01*
X182552059Y-104220009D02*
X182599678Y-104172390D01*
X182599678Y-104172390D02*
X182552059Y-104124771D01*
X182552059Y-104124771D02*
X182552059Y-104220009D01*
X180885393Y-104696200D02*
X180980631Y-104743819D01*
X180980631Y-104743819D02*
X181171107Y-104743819D01*
X181171107Y-104743819D02*
X181266345Y-104696200D01*
X181266345Y-104696200D02*
X181313964Y-104648580D01*
X181313964Y-104648580D02*
X181361583Y-104553342D01*
X181361583Y-104553342D02*
X181361583Y-104267628D01*
X181361583Y-104267628D02*
X181313964Y-104172390D01*
X181313964Y-104172390D02*
X181266345Y-104124771D01*
X181266345Y-104124771D02*
X181171107Y-104077152D01*
X181171107Y-104077152D02*
X180980631Y-104077152D01*
X180980631Y-104077152D02*
X180885393Y-104124771D01*
X180313964Y-104743819D02*
X180409202Y-104696200D01*
X180409202Y-104696200D02*
X180456821Y-104648580D01*
X180456821Y-104648580D02*
X180504440Y-104553342D01*
X180504440Y-104553342D02*
X180504440Y-104267628D01*
X180504440Y-104267628D02*
X180456821Y-104172390D01*
X180456821Y-104172390D02*
X180409202Y-104124771D01*
X180409202Y-104124771D02*
X180313964Y-104077152D01*
X180313964Y-104077152D02*
X180171107Y-104077152D01*
X180171107Y-104077152D02*
X180075869Y-104124771D01*
X180075869Y-104124771D02*
X180028250Y-104172390D01*
X180028250Y-104172390D02*
X179980631Y-104267628D01*
X179980631Y-104267628D02*
X179980631Y-104553342D01*
X179980631Y-104553342D02*
X180028250Y-104648580D01*
X180028250Y-104648580D02*
X180075869Y-104696200D01*
X180075869Y-104696200D02*
X180171107Y-104743819D01*
X180171107Y-104743819D02*
X180313964Y-104743819D01*
X179552059Y-104077152D02*
X179552059Y-104743819D01*
X179552059Y-104172390D02*
X179504440Y-104124771D01*
X179504440Y-104124771D02*
X179409202Y-104077152D01*
X179409202Y-104077152D02*
X179266345Y-104077152D01*
X179266345Y-104077152D02*
X179171107Y-104124771D01*
X179171107Y-104124771D02*
X179123488Y-104220009D01*
X179123488Y-104220009D02*
X179123488Y-104743819D01*
X178647297Y-104077152D02*
X178647297Y-104743819D01*
X178647297Y-104172390D02*
X178599678Y-104124771D01*
X178599678Y-104124771D02*
X178504440Y-104077152D01*
X178504440Y-104077152D02*
X178361583Y-104077152D01*
X178361583Y-104077152D02*
X178266345Y-104124771D01*
X178266345Y-104124771D02*
X178218726Y-104220009D01*
X178218726Y-104220009D02*
X178218726Y-104743819D01*
X177742535Y-104648580D02*
X177694916Y-104696200D01*
X177694916Y-104696200D02*
X177742535Y-104743819D01*
X177742535Y-104743819D02*
X177790154Y-104696200D01*
X177790154Y-104696200D02*
X177742535Y-104648580D01*
X177742535Y-104648580D02*
X177742535Y-104743819D01*
X175933012Y-104743819D02*
X176266345Y-104267628D01*
X176504440Y-104743819D02*
X176504440Y-103743819D01*
X176504440Y-103743819D02*
X176123488Y-103743819D01*
X176123488Y-103743819D02*
X176028250Y-103791438D01*
X176028250Y-103791438D02*
X175980631Y-103839057D01*
X175980631Y-103839057D02*
X175933012Y-103934295D01*
X175933012Y-103934295D02*
X175933012Y-104077152D01*
X175933012Y-104077152D02*
X175980631Y-104172390D01*
X175980631Y-104172390D02*
X176028250Y-104220009D01*
X176028250Y-104220009D02*
X176123488Y-104267628D01*
X176123488Y-104267628D02*
X176504440Y-104267628D01*
X174790155Y-103696200D02*
X175647297Y-104981914D01*
X174552059Y-103743819D02*
X174313964Y-104743819D01*
X174313964Y-104743819D02*
X174123488Y-104029533D01*
X174123488Y-104029533D02*
X173933012Y-104743819D01*
X173933012Y-104743819D02*
X173694917Y-103743819D01*
X174594917Y-103466200D02*
X173652060Y-103466200D01*
X172694916Y-104077152D02*
X172313964Y-104077152D01*
X172552059Y-103743819D02*
X172552059Y-104600961D01*
X172552059Y-104600961D02*
X172504440Y-104696200D01*
X172504440Y-104696200D02*
X172409202Y-104743819D01*
X172409202Y-104743819D02*
X172313964Y-104743819D01*
X171837773Y-104743819D02*
X171933011Y-104696200D01*
X171933011Y-104696200D02*
X171980630Y-104648580D01*
X171980630Y-104648580D02*
X172028249Y-104553342D01*
X172028249Y-104553342D02*
X172028249Y-104267628D01*
X172028249Y-104267628D02*
X171980630Y-104172390D01*
X171980630Y-104172390D02*
X171933011Y-104124771D01*
X171933011Y-104124771D02*
X171837773Y-104077152D01*
X171837773Y-104077152D02*
X171694916Y-104077152D01*
X171694916Y-104077152D02*
X171599678Y-104124771D01*
X171599678Y-104124771D02*
X171552059Y-104172390D01*
X171552059Y-104172390D02*
X171504440Y-104267628D01*
X171504440Y-104267628D02*
X171504440Y-104553342D01*
X171504440Y-104553342D02*
X171552059Y-104648580D01*
X171552059Y-104648580D02*
X171599678Y-104696200D01*
X171599678Y-104696200D02*
X171694916Y-104743819D01*
X171694916Y-104743819D02*
X171837773Y-104743819D01*
X170313963Y-104743819D02*
X170313963Y-103743819D01*
X170313963Y-103743819D02*
X170075868Y-103743819D01*
X170075868Y-103743819D02*
X169933011Y-103791438D01*
X169933011Y-103791438D02*
X169837773Y-103886676D01*
X169837773Y-103886676D02*
X169790154Y-103981914D01*
X169790154Y-103981914D02*
X169742535Y-104172390D01*
X169742535Y-104172390D02*
X169742535Y-104315247D01*
X169742535Y-104315247D02*
X169790154Y-104505723D01*
X169790154Y-104505723D02*
X169837773Y-104600961D01*
X169837773Y-104600961D02*
X169933011Y-104696200D01*
X169933011Y-104696200D02*
X170075868Y-104743819D01*
X170075868Y-104743819D02*
X170313963Y-104743819D01*
X169313963Y-104743819D02*
X169313963Y-103743819D01*
X169313963Y-103743819D02*
X169075868Y-103743819D01*
X169075868Y-103743819D02*
X168933011Y-103791438D01*
X168933011Y-103791438D02*
X168837773Y-103886676D01*
X168837773Y-103886676D02*
X168790154Y-103981914D01*
X168790154Y-103981914D02*
X168742535Y-104172390D01*
X168742535Y-104172390D02*
X168742535Y-104315247D01*
X168742535Y-104315247D02*
X168790154Y-104505723D01*
X168790154Y-104505723D02*
X168837773Y-104600961D01*
X168837773Y-104600961D02*
X168933011Y-104696200D01*
X168933011Y-104696200D02*
X169075868Y-104743819D01*
X169075868Y-104743819D02*
X169313963Y-104743819D01*
X168313963Y-104743819D02*
X168313963Y-103743819D01*
X167266345Y-104743819D02*
X167599678Y-104267628D01*
X167837773Y-104743819D02*
X167837773Y-103743819D01*
X167837773Y-103743819D02*
X167456821Y-103743819D01*
X167456821Y-103743819D02*
X167361583Y-103791438D01*
X167361583Y-103791438D02*
X167313964Y-103839057D01*
X167313964Y-103839057D02*
X167266345Y-103934295D01*
X167266345Y-103934295D02*
X167266345Y-104077152D01*
X167266345Y-104077152D02*
X167313964Y-104172390D01*
X167313964Y-104172390D02*
X167361583Y-104220009D01*
X167361583Y-104220009D02*
X167456821Y-104267628D01*
X167456821Y-104267628D02*
X167837773Y-104267628D01*
X166837773Y-104648580D02*
X166790154Y-104696200D01*
X166790154Y-104696200D02*
X166837773Y-104743819D01*
X166837773Y-104743819D02*
X166885392Y-104696200D01*
X166885392Y-104696200D02*
X166837773Y-104648580D01*
X166837773Y-104648580D02*
X166837773Y-104743819D01*
X149966612Y-102151219D02*
X149966612Y-102865504D01*
X149966612Y-102865504D02*
X150014231Y-103008361D01*
X150014231Y-103008361D02*
X150109469Y-103103600D01*
X150109469Y-103103600D02*
X150252326Y-103151219D01*
X150252326Y-103151219D02*
X150347564Y-103151219D01*
X149490421Y-103151219D02*
X149490421Y-102151219D01*
X149490421Y-102151219D02*
X149109469Y-102151219D01*
X149109469Y-102151219D02*
X149014231Y-102198838D01*
X149014231Y-102198838D02*
X148966612Y-102246457D01*
X148966612Y-102246457D02*
X148918993Y-102341695D01*
X148918993Y-102341695D02*
X148918993Y-102484552D01*
X148918993Y-102484552D02*
X148966612Y-102579790D01*
X148966612Y-102579790D02*
X149014231Y-102627409D01*
X149014231Y-102627409D02*
X149109469Y-102675028D01*
X149109469Y-102675028D02*
X149490421Y-102675028D01*
X147966612Y-103151219D02*
X148538040Y-103151219D01*
X148252326Y-103151219D02*
X148252326Y-102151219D01*
X148252326Y-102151219D02*
X148347564Y-102294076D01*
X148347564Y-102294076D02*
X148442802Y-102389314D01*
X148442802Y-102389314D02*
X148538040Y-102436933D01*
X147538040Y-103055980D02*
X147490421Y-103103600D01*
X147490421Y-103103600D02*
X147538040Y-103151219D01*
X147538040Y-103151219D02*
X147585659Y-103103600D01*
X147585659Y-103103600D02*
X147538040Y-103055980D01*
X147538040Y-103055980D02*
X147538040Y-103151219D01*
X147061850Y-103055980D02*
X147014231Y-103103600D01*
X147014231Y-103103600D02*
X147061850Y-103151219D01*
X147061850Y-103151219D02*
X147109469Y-103103600D01*
X147109469Y-103103600D02*
X147061850Y-103055980D01*
X147061850Y-103055980D02*
X147061850Y-103151219D01*
X146680898Y-102151219D02*
X146061851Y-102151219D01*
X146061851Y-102151219D02*
X146395184Y-102532171D01*
X146395184Y-102532171D02*
X146252327Y-102532171D01*
X146252327Y-102532171D02*
X146157089Y-102579790D01*
X146157089Y-102579790D02*
X146109470Y-102627409D01*
X146109470Y-102627409D02*
X146061851Y-102722647D01*
X146061851Y-102722647D02*
X146061851Y-102960742D01*
X146061851Y-102960742D02*
X146109470Y-103055980D01*
X146109470Y-103055980D02*
X146157089Y-103103600D01*
X146157089Y-103103600D02*
X146252327Y-103151219D01*
X146252327Y-103151219D02*
X146538041Y-103151219D01*
X146538041Y-103151219D02*
X146633279Y-103103600D01*
X146633279Y-103103600D02*
X146680898Y-103055980D01*
X145633279Y-103055980D02*
X145585660Y-103103600D01*
X145585660Y-103103600D02*
X145633279Y-103151219D01*
X145633279Y-103151219D02*
X145680898Y-103103600D01*
X145680898Y-103103600D02*
X145633279Y-103055980D01*
X145633279Y-103055980D02*
X145633279Y-103151219D01*
X145633279Y-102532171D02*
X145585660Y-102579790D01*
X145585660Y-102579790D02*
X145633279Y-102627409D01*
X145633279Y-102627409D02*
X145680898Y-102579790D01*
X145680898Y-102579790D02*
X145633279Y-102532171D01*
X145633279Y-102532171D02*
X145633279Y-102627409D01*
X149823755Y-103761219D02*
X150014231Y-103761219D01*
X150014231Y-103761219D02*
X150109469Y-103808838D01*
X150109469Y-103808838D02*
X150157088Y-103856457D01*
X150157088Y-103856457D02*
X150252326Y-103999314D01*
X150252326Y-103999314D02*
X150299945Y-104189790D01*
X150299945Y-104189790D02*
X150299945Y-104570742D01*
X150299945Y-104570742D02*
X150252326Y-104665980D01*
X150252326Y-104665980D02*
X150204707Y-104713600D01*
X150204707Y-104713600D02*
X150109469Y-104761219D01*
X150109469Y-104761219D02*
X149918993Y-104761219D01*
X149918993Y-104761219D02*
X149823755Y-104713600D01*
X149823755Y-104713600D02*
X149776136Y-104665980D01*
X149776136Y-104665980D02*
X149728517Y-104570742D01*
X149728517Y-104570742D02*
X149728517Y-104332647D01*
X149728517Y-104332647D02*
X149776136Y-104237409D01*
X149776136Y-104237409D02*
X149823755Y-104189790D01*
X149823755Y-104189790D02*
X149918993Y-104142171D01*
X149918993Y-104142171D02*
X150109469Y-104142171D01*
X150109469Y-104142171D02*
X150204707Y-104189790D01*
X150204707Y-104189790D02*
X150252326Y-104237409D01*
X150252326Y-104237409D02*
X150299945Y-104332647D01*
X149157088Y-104189790D02*
X149252326Y-104142171D01*
X149252326Y-104142171D02*
X149299945Y-104094552D01*
X149299945Y-104094552D02*
X149347564Y-103999314D01*
X149347564Y-103999314D02*
X149347564Y-103951695D01*
X149347564Y-103951695D02*
X149299945Y-103856457D01*
X149299945Y-103856457D02*
X149252326Y-103808838D01*
X149252326Y-103808838D02*
X149157088Y-103761219D01*
X149157088Y-103761219D02*
X148966612Y-103761219D01*
X148966612Y-103761219D02*
X148871374Y-103808838D01*
X148871374Y-103808838D02*
X148823755Y-103856457D01*
X148823755Y-103856457D02*
X148776136Y-103951695D01*
X148776136Y-103951695D02*
X148776136Y-103999314D01*
X148776136Y-103999314D02*
X148823755Y-104094552D01*
X148823755Y-104094552D02*
X148871374Y-104142171D01*
X148871374Y-104142171D02*
X148966612Y-104189790D01*
X148966612Y-104189790D02*
X149157088Y-104189790D01*
X149157088Y-104189790D02*
X149252326Y-104237409D01*
X149252326Y-104237409D02*
X149299945Y-104285028D01*
X149299945Y-104285028D02*
X149347564Y-104380266D01*
X149347564Y-104380266D02*
X149347564Y-104570742D01*
X149347564Y-104570742D02*
X149299945Y-104665980D01*
X149299945Y-104665980D02*
X149252326Y-104713600D01*
X149252326Y-104713600D02*
X149157088Y-104761219D01*
X149157088Y-104761219D02*
X148966612Y-104761219D01*
X148966612Y-104761219D02*
X148871374Y-104713600D01*
X148871374Y-104713600D02*
X148823755Y-104665980D01*
X148823755Y-104665980D02*
X148776136Y-104570742D01*
X148776136Y-104570742D02*
X148776136Y-104380266D01*
X148776136Y-104380266D02*
X148823755Y-104285028D01*
X148823755Y-104285028D02*
X148871374Y-104237409D01*
X148871374Y-104237409D02*
X148966612Y-104189790D01*
X148157088Y-103761219D02*
X148061850Y-103761219D01*
X148061850Y-103761219D02*
X147966612Y-103808838D01*
X147966612Y-103808838D02*
X147918993Y-103856457D01*
X147918993Y-103856457D02*
X147871374Y-103951695D01*
X147871374Y-103951695D02*
X147823755Y-104142171D01*
X147823755Y-104142171D02*
X147823755Y-104380266D01*
X147823755Y-104380266D02*
X147871374Y-104570742D01*
X147871374Y-104570742D02*
X147918993Y-104665980D01*
X147918993Y-104665980D02*
X147966612Y-104713600D01*
X147966612Y-104713600D02*
X148061850Y-104761219D01*
X148061850Y-104761219D02*
X148157088Y-104761219D01*
X148157088Y-104761219D02*
X148252326Y-104713600D01*
X148252326Y-104713600D02*
X148299945Y-104665980D01*
X148299945Y-104665980D02*
X148347564Y-104570742D01*
X148347564Y-104570742D02*
X148395183Y-104380266D01*
X148395183Y-104380266D02*
X148395183Y-104142171D01*
X148395183Y-104142171D02*
X148347564Y-103951695D01*
X148347564Y-103951695D02*
X148299945Y-103856457D01*
X148299945Y-103856457D02*
X148252326Y-103808838D01*
X148252326Y-103808838D02*
X148157088Y-103761219D01*
X147442802Y-103856457D02*
X147395183Y-103808838D01*
X147395183Y-103808838D02*
X147299945Y-103761219D01*
X147299945Y-103761219D02*
X147061850Y-103761219D01*
X147061850Y-103761219D02*
X146966612Y-103808838D01*
X146966612Y-103808838D02*
X146918993Y-103856457D01*
X146918993Y-103856457D02*
X146871374Y-103951695D01*
X146871374Y-103951695D02*
X146871374Y-104046933D01*
X146871374Y-104046933D02*
X146918993Y-104189790D01*
X146918993Y-104189790D02*
X147490421Y-104761219D01*
X147490421Y-104761219D02*
X146871374Y-104761219D01*
X144490421Y-103761219D02*
X144680897Y-103761219D01*
X144680897Y-103761219D02*
X144776135Y-103808838D01*
X144776135Y-103808838D02*
X144823754Y-103856457D01*
X144823754Y-103856457D02*
X144918992Y-103999314D01*
X144918992Y-103999314D02*
X144966611Y-104189790D01*
X144966611Y-104189790D02*
X144966611Y-104570742D01*
X144966611Y-104570742D02*
X144918992Y-104665980D01*
X144918992Y-104665980D02*
X144871373Y-104713600D01*
X144871373Y-104713600D02*
X144776135Y-104761219D01*
X144776135Y-104761219D02*
X144585659Y-104761219D01*
X144585659Y-104761219D02*
X144490421Y-104713600D01*
X144490421Y-104713600D02*
X144442802Y-104665980D01*
X144442802Y-104665980D02*
X144395183Y-104570742D01*
X144395183Y-104570742D02*
X144395183Y-104332647D01*
X144395183Y-104332647D02*
X144442802Y-104237409D01*
X144442802Y-104237409D02*
X144490421Y-104189790D01*
X144490421Y-104189790D02*
X144585659Y-104142171D01*
X144585659Y-104142171D02*
X144776135Y-104142171D01*
X144776135Y-104142171D02*
X144871373Y-104189790D01*
X144871373Y-104189790D02*
X144918992Y-104237409D01*
X144918992Y-104237409D02*
X144966611Y-104332647D01*
X143490421Y-103761219D02*
X143966611Y-103761219D01*
X143966611Y-103761219D02*
X144014230Y-104237409D01*
X144014230Y-104237409D02*
X143966611Y-104189790D01*
X143966611Y-104189790D02*
X143871373Y-104142171D01*
X143871373Y-104142171D02*
X143633278Y-104142171D01*
X143633278Y-104142171D02*
X143538040Y-104189790D01*
X143538040Y-104189790D02*
X143490421Y-104237409D01*
X143490421Y-104237409D02*
X143442802Y-104332647D01*
X143442802Y-104332647D02*
X143442802Y-104570742D01*
X143442802Y-104570742D02*
X143490421Y-104665980D01*
X143490421Y-104665980D02*
X143538040Y-104713600D01*
X143538040Y-104713600D02*
X143633278Y-104761219D01*
X143633278Y-104761219D02*
X143871373Y-104761219D01*
X143871373Y-104761219D02*
X143966611Y-104713600D01*
X143966611Y-104713600D02*
X144014230Y-104665980D01*
X142823754Y-103761219D02*
X142728516Y-103761219D01*
X142728516Y-103761219D02*
X142633278Y-103808838D01*
X142633278Y-103808838D02*
X142585659Y-103856457D01*
X142585659Y-103856457D02*
X142538040Y-103951695D01*
X142538040Y-103951695D02*
X142490421Y-104142171D01*
X142490421Y-104142171D02*
X142490421Y-104380266D01*
X142490421Y-104380266D02*
X142538040Y-104570742D01*
X142538040Y-104570742D02*
X142585659Y-104665980D01*
X142585659Y-104665980D02*
X142633278Y-104713600D01*
X142633278Y-104713600D02*
X142728516Y-104761219D01*
X142728516Y-104761219D02*
X142823754Y-104761219D01*
X142823754Y-104761219D02*
X142918992Y-104713600D01*
X142918992Y-104713600D02*
X142966611Y-104665980D01*
X142966611Y-104665980D02*
X143014230Y-104570742D01*
X143014230Y-104570742D02*
X143061849Y-104380266D01*
X143061849Y-104380266D02*
X143061849Y-104142171D01*
X143061849Y-104142171D02*
X143014230Y-103951695D01*
X143014230Y-103951695D02*
X142966611Y-103856457D01*
X142966611Y-103856457D02*
X142918992Y-103808838D01*
X142918992Y-103808838D02*
X142823754Y-103761219D01*
X142109468Y-103856457D02*
X142061849Y-103808838D01*
X142061849Y-103808838D02*
X141966611Y-103761219D01*
X141966611Y-103761219D02*
X141728516Y-103761219D01*
X141728516Y-103761219D02*
X141633278Y-103808838D01*
X141633278Y-103808838D02*
X141585659Y-103856457D01*
X141585659Y-103856457D02*
X141538040Y-103951695D01*
X141538040Y-103951695D02*
X141538040Y-104046933D01*
X141538040Y-104046933D02*
X141585659Y-104189790D01*
X141585659Y-104189790D02*
X142157087Y-104761219D01*
X142157087Y-104761219D02*
X141538040Y-104761219D01*
X149823755Y-106323600D02*
X149918993Y-106371219D01*
X149918993Y-106371219D02*
X150109469Y-106371219D01*
X150109469Y-106371219D02*
X150204707Y-106323600D01*
X150204707Y-106323600D02*
X150252326Y-106275980D01*
X150252326Y-106275980D02*
X150299945Y-106180742D01*
X150299945Y-106180742D02*
X150299945Y-105895028D01*
X150299945Y-105895028D02*
X150252326Y-105799790D01*
X150252326Y-105799790D02*
X150204707Y-105752171D01*
X150204707Y-105752171D02*
X150109469Y-105704552D01*
X150109469Y-105704552D02*
X149918993Y-105704552D01*
X149918993Y-105704552D02*
X149823755Y-105752171D01*
X149252326Y-106371219D02*
X149347564Y-106323600D01*
X149347564Y-106323600D02*
X149395183Y-106228361D01*
X149395183Y-106228361D02*
X149395183Y-105371219D01*
X148728516Y-106371219D02*
X148823754Y-106323600D01*
X148823754Y-106323600D02*
X148871373Y-106275980D01*
X148871373Y-106275980D02*
X148918992Y-106180742D01*
X148918992Y-106180742D02*
X148918992Y-105895028D01*
X148918992Y-105895028D02*
X148871373Y-105799790D01*
X148871373Y-105799790D02*
X148823754Y-105752171D01*
X148823754Y-105752171D02*
X148728516Y-105704552D01*
X148728516Y-105704552D02*
X148585659Y-105704552D01*
X148585659Y-105704552D02*
X148490421Y-105752171D01*
X148490421Y-105752171D02*
X148442802Y-105799790D01*
X148442802Y-105799790D02*
X148395183Y-105895028D01*
X148395183Y-105895028D02*
X148395183Y-106180742D01*
X148395183Y-106180742D02*
X148442802Y-106275980D01*
X148442802Y-106275980D02*
X148490421Y-106323600D01*
X148490421Y-106323600D02*
X148585659Y-106371219D01*
X148585659Y-106371219D02*
X148728516Y-106371219D01*
X148014230Y-106323600D02*
X147918992Y-106371219D01*
X147918992Y-106371219D02*
X147728516Y-106371219D01*
X147728516Y-106371219D02*
X147633278Y-106323600D01*
X147633278Y-106323600D02*
X147585659Y-106228361D01*
X147585659Y-106228361D02*
X147585659Y-106180742D01*
X147585659Y-106180742D02*
X147633278Y-106085504D01*
X147633278Y-106085504D02*
X147728516Y-106037885D01*
X147728516Y-106037885D02*
X147871373Y-106037885D01*
X147871373Y-106037885D02*
X147966611Y-105990266D01*
X147966611Y-105990266D02*
X148014230Y-105895028D01*
X148014230Y-105895028D02*
X148014230Y-105847409D01*
X148014230Y-105847409D02*
X147966611Y-105752171D01*
X147966611Y-105752171D02*
X147871373Y-105704552D01*
X147871373Y-105704552D02*
X147728516Y-105704552D01*
X147728516Y-105704552D02*
X147633278Y-105752171D01*
X146776135Y-106323600D02*
X146871373Y-106371219D01*
X146871373Y-106371219D02*
X147061849Y-106371219D01*
X147061849Y-106371219D02*
X147157087Y-106323600D01*
X147157087Y-106323600D02*
X147204706Y-106228361D01*
X147204706Y-106228361D02*
X147204706Y-105847409D01*
X147204706Y-105847409D02*
X147157087Y-105752171D01*
X147157087Y-105752171D02*
X147061849Y-105704552D01*
X147061849Y-105704552D02*
X146871373Y-105704552D01*
X146871373Y-105704552D02*
X146776135Y-105752171D01*
X146776135Y-105752171D02*
X146728516Y-105847409D01*
X146728516Y-105847409D02*
X146728516Y-105942647D01*
X146728516Y-105942647D02*
X147204706Y-106037885D01*
X145871373Y-106371219D02*
X145871373Y-105371219D01*
X145871373Y-106323600D02*
X145966611Y-106371219D01*
X145966611Y-106371219D02*
X146157087Y-106371219D01*
X146157087Y-106371219D02*
X146252325Y-106323600D01*
X146252325Y-106323600D02*
X146299944Y-106275980D01*
X146299944Y-106275980D02*
X146347563Y-106180742D01*
X146347563Y-106180742D02*
X146347563Y-105895028D01*
X146347563Y-105895028D02*
X146299944Y-105799790D01*
X146299944Y-105799790D02*
X146252325Y-105752171D01*
X146252325Y-105752171D02*
X146157087Y-105704552D01*
X146157087Y-105704552D02*
X145966611Y-105704552D01*
X145966611Y-105704552D02*
X145871373Y-105752171D01*
X144490420Y-106371219D02*
X144585658Y-106323600D01*
X144585658Y-106323600D02*
X144633277Y-106275980D01*
X144633277Y-106275980D02*
X144680896Y-106180742D01*
X144680896Y-106180742D02*
X144680896Y-105895028D01*
X144680896Y-105895028D02*
X144633277Y-105799790D01*
X144633277Y-105799790D02*
X144585658Y-105752171D01*
X144585658Y-105752171D02*
X144490420Y-105704552D01*
X144490420Y-105704552D02*
X144347563Y-105704552D01*
X144347563Y-105704552D02*
X144252325Y-105752171D01*
X144252325Y-105752171D02*
X144204706Y-105799790D01*
X144204706Y-105799790D02*
X144157087Y-105895028D01*
X144157087Y-105895028D02*
X144157087Y-106180742D01*
X144157087Y-106180742D02*
X144204706Y-106275980D01*
X144204706Y-106275980D02*
X144252325Y-106323600D01*
X144252325Y-106323600D02*
X144347563Y-106371219D01*
X144347563Y-106371219D02*
X144490420Y-106371219D01*
X143728515Y-105704552D02*
X143728515Y-106704552D01*
X143728515Y-105752171D02*
X143633277Y-105704552D01*
X143633277Y-105704552D02*
X143442801Y-105704552D01*
X143442801Y-105704552D02*
X143347563Y-105752171D01*
X143347563Y-105752171D02*
X143299944Y-105799790D01*
X143299944Y-105799790D02*
X143252325Y-105895028D01*
X143252325Y-105895028D02*
X143252325Y-106180742D01*
X143252325Y-106180742D02*
X143299944Y-106275980D01*
X143299944Y-106275980D02*
X143347563Y-106323600D01*
X143347563Y-106323600D02*
X143442801Y-106371219D01*
X143442801Y-106371219D02*
X143633277Y-106371219D01*
X143633277Y-106371219D02*
X143728515Y-106323600D01*
X142442801Y-106323600D02*
X142538039Y-106371219D01*
X142538039Y-106371219D02*
X142728515Y-106371219D01*
X142728515Y-106371219D02*
X142823753Y-106323600D01*
X142823753Y-106323600D02*
X142871372Y-106228361D01*
X142871372Y-106228361D02*
X142871372Y-105847409D01*
X142871372Y-105847409D02*
X142823753Y-105752171D01*
X142823753Y-105752171D02*
X142728515Y-105704552D01*
X142728515Y-105704552D02*
X142538039Y-105704552D01*
X142538039Y-105704552D02*
X142442801Y-105752171D01*
X142442801Y-105752171D02*
X142395182Y-105847409D01*
X142395182Y-105847409D02*
X142395182Y-105942647D01*
X142395182Y-105942647D02*
X142871372Y-106037885D01*
X141966610Y-105704552D02*
X141966610Y-106371219D01*
X141966610Y-105799790D02*
X141918991Y-105752171D01*
X141918991Y-105752171D02*
X141823753Y-105704552D01*
X141823753Y-105704552D02*
X141680896Y-105704552D01*
X141680896Y-105704552D02*
X141585658Y-105752171D01*
X141585658Y-105752171D02*
X141538039Y-105847409D01*
X141538039Y-105847409D02*
X141538039Y-106371219D01*
X149966612Y-106981219D02*
X149966612Y-107695504D01*
X149966612Y-107695504D02*
X150014231Y-107838361D01*
X150014231Y-107838361D02*
X150109469Y-107933600D01*
X150109469Y-107933600D02*
X150252326Y-107981219D01*
X150252326Y-107981219D02*
X150347564Y-107981219D01*
X149490421Y-107981219D02*
X149490421Y-106981219D01*
X149490421Y-106981219D02*
X149109469Y-106981219D01*
X149109469Y-106981219D02*
X149014231Y-107028838D01*
X149014231Y-107028838D02*
X148966612Y-107076457D01*
X148966612Y-107076457D02*
X148918993Y-107171695D01*
X148918993Y-107171695D02*
X148918993Y-107314552D01*
X148918993Y-107314552D02*
X148966612Y-107409790D01*
X148966612Y-107409790D02*
X149014231Y-107457409D01*
X149014231Y-107457409D02*
X149109469Y-107505028D01*
X149109469Y-107505028D02*
X149490421Y-107505028D01*
X148061850Y-107314552D02*
X148061850Y-107981219D01*
X148299945Y-106933600D02*
X148538040Y-107647885D01*
X148538040Y-107647885D02*
X147918993Y-107647885D01*
X147538040Y-107885980D02*
X147490421Y-107933600D01*
X147490421Y-107933600D02*
X147538040Y-107981219D01*
X147538040Y-107981219D02*
X147585659Y-107933600D01*
X147585659Y-107933600D02*
X147538040Y-107885980D01*
X147538040Y-107885980D02*
X147538040Y-107981219D01*
X147061850Y-107885980D02*
X147014231Y-107933600D01*
X147014231Y-107933600D02*
X147061850Y-107981219D01*
X147061850Y-107981219D02*
X147109469Y-107933600D01*
X147109469Y-107933600D02*
X147061850Y-107885980D01*
X147061850Y-107885980D02*
X147061850Y-107981219D01*
X146109470Y-106981219D02*
X146585660Y-106981219D01*
X146585660Y-106981219D02*
X146633279Y-107457409D01*
X146633279Y-107457409D02*
X146585660Y-107409790D01*
X146585660Y-107409790D02*
X146490422Y-107362171D01*
X146490422Y-107362171D02*
X146252327Y-107362171D01*
X146252327Y-107362171D02*
X146157089Y-107409790D01*
X146157089Y-107409790D02*
X146109470Y-107457409D01*
X146109470Y-107457409D02*
X146061851Y-107552647D01*
X146061851Y-107552647D02*
X146061851Y-107790742D01*
X146061851Y-107790742D02*
X146109470Y-107885980D01*
X146109470Y-107885980D02*
X146157089Y-107933600D01*
X146157089Y-107933600D02*
X146252327Y-107981219D01*
X146252327Y-107981219D02*
X146490422Y-107981219D01*
X146490422Y-107981219D02*
X146585660Y-107933600D01*
X146585660Y-107933600D02*
X146633279Y-107885980D01*
X145633279Y-107885980D02*
X145585660Y-107933600D01*
X145585660Y-107933600D02*
X145633279Y-107981219D01*
X145633279Y-107981219D02*
X145680898Y-107933600D01*
X145680898Y-107933600D02*
X145633279Y-107885980D01*
X145633279Y-107885980D02*
X145633279Y-107981219D01*
X145633279Y-107362171D02*
X145585660Y-107409790D01*
X145585660Y-107409790D02*
X145633279Y-107457409D01*
X145633279Y-107457409D02*
X145680898Y-107409790D01*
X145680898Y-107409790D02*
X145633279Y-107362171D01*
X145633279Y-107362171D02*
X145633279Y-107457409D01*
X149823755Y-108591219D02*
X150014231Y-108591219D01*
X150014231Y-108591219D02*
X150109469Y-108638838D01*
X150109469Y-108638838D02*
X150157088Y-108686457D01*
X150157088Y-108686457D02*
X150252326Y-108829314D01*
X150252326Y-108829314D02*
X150299945Y-109019790D01*
X150299945Y-109019790D02*
X150299945Y-109400742D01*
X150299945Y-109400742D02*
X150252326Y-109495980D01*
X150252326Y-109495980D02*
X150204707Y-109543600D01*
X150204707Y-109543600D02*
X150109469Y-109591219D01*
X150109469Y-109591219D02*
X149918993Y-109591219D01*
X149918993Y-109591219D02*
X149823755Y-109543600D01*
X149823755Y-109543600D02*
X149776136Y-109495980D01*
X149776136Y-109495980D02*
X149728517Y-109400742D01*
X149728517Y-109400742D02*
X149728517Y-109162647D01*
X149728517Y-109162647D02*
X149776136Y-109067409D01*
X149776136Y-109067409D02*
X149823755Y-109019790D01*
X149823755Y-109019790D02*
X149918993Y-108972171D01*
X149918993Y-108972171D02*
X150109469Y-108972171D01*
X150109469Y-108972171D02*
X150204707Y-109019790D01*
X150204707Y-109019790D02*
X150252326Y-109067409D01*
X150252326Y-109067409D02*
X150299945Y-109162647D01*
X149157088Y-109019790D02*
X149252326Y-108972171D01*
X149252326Y-108972171D02*
X149299945Y-108924552D01*
X149299945Y-108924552D02*
X149347564Y-108829314D01*
X149347564Y-108829314D02*
X149347564Y-108781695D01*
X149347564Y-108781695D02*
X149299945Y-108686457D01*
X149299945Y-108686457D02*
X149252326Y-108638838D01*
X149252326Y-108638838D02*
X149157088Y-108591219D01*
X149157088Y-108591219D02*
X148966612Y-108591219D01*
X148966612Y-108591219D02*
X148871374Y-108638838D01*
X148871374Y-108638838D02*
X148823755Y-108686457D01*
X148823755Y-108686457D02*
X148776136Y-108781695D01*
X148776136Y-108781695D02*
X148776136Y-108829314D01*
X148776136Y-108829314D02*
X148823755Y-108924552D01*
X148823755Y-108924552D02*
X148871374Y-108972171D01*
X148871374Y-108972171D02*
X148966612Y-109019790D01*
X148966612Y-109019790D02*
X149157088Y-109019790D01*
X149157088Y-109019790D02*
X149252326Y-109067409D01*
X149252326Y-109067409D02*
X149299945Y-109115028D01*
X149299945Y-109115028D02*
X149347564Y-109210266D01*
X149347564Y-109210266D02*
X149347564Y-109400742D01*
X149347564Y-109400742D02*
X149299945Y-109495980D01*
X149299945Y-109495980D02*
X149252326Y-109543600D01*
X149252326Y-109543600D02*
X149157088Y-109591219D01*
X149157088Y-109591219D02*
X148966612Y-109591219D01*
X148966612Y-109591219D02*
X148871374Y-109543600D01*
X148871374Y-109543600D02*
X148823755Y-109495980D01*
X148823755Y-109495980D02*
X148776136Y-109400742D01*
X148776136Y-109400742D02*
X148776136Y-109210266D01*
X148776136Y-109210266D02*
X148823755Y-109115028D01*
X148823755Y-109115028D02*
X148871374Y-109067409D01*
X148871374Y-109067409D02*
X148966612Y-109019790D01*
X148157088Y-108591219D02*
X148061850Y-108591219D01*
X148061850Y-108591219D02*
X147966612Y-108638838D01*
X147966612Y-108638838D02*
X147918993Y-108686457D01*
X147918993Y-108686457D02*
X147871374Y-108781695D01*
X147871374Y-108781695D02*
X147823755Y-108972171D01*
X147823755Y-108972171D02*
X147823755Y-109210266D01*
X147823755Y-109210266D02*
X147871374Y-109400742D01*
X147871374Y-109400742D02*
X147918993Y-109495980D01*
X147918993Y-109495980D02*
X147966612Y-109543600D01*
X147966612Y-109543600D02*
X148061850Y-109591219D01*
X148061850Y-109591219D02*
X148157088Y-109591219D01*
X148157088Y-109591219D02*
X148252326Y-109543600D01*
X148252326Y-109543600D02*
X148299945Y-109495980D01*
X148299945Y-109495980D02*
X148347564Y-109400742D01*
X148347564Y-109400742D02*
X148395183Y-109210266D01*
X148395183Y-109210266D02*
X148395183Y-108972171D01*
X148395183Y-108972171D02*
X148347564Y-108781695D01*
X148347564Y-108781695D02*
X148299945Y-108686457D01*
X148299945Y-108686457D02*
X148252326Y-108638838D01*
X148252326Y-108638838D02*
X148157088Y-108591219D01*
X147442802Y-108686457D02*
X147395183Y-108638838D01*
X147395183Y-108638838D02*
X147299945Y-108591219D01*
X147299945Y-108591219D02*
X147061850Y-108591219D01*
X147061850Y-108591219D02*
X146966612Y-108638838D01*
X146966612Y-108638838D02*
X146918993Y-108686457D01*
X146918993Y-108686457D02*
X146871374Y-108781695D01*
X146871374Y-108781695D02*
X146871374Y-108876933D01*
X146871374Y-108876933D02*
X146918993Y-109019790D01*
X146918993Y-109019790D02*
X147490421Y-109591219D01*
X147490421Y-109591219D02*
X146871374Y-109591219D01*
X144490421Y-108591219D02*
X144680897Y-108591219D01*
X144680897Y-108591219D02*
X144776135Y-108638838D01*
X144776135Y-108638838D02*
X144823754Y-108686457D01*
X144823754Y-108686457D02*
X144918992Y-108829314D01*
X144918992Y-108829314D02*
X144966611Y-109019790D01*
X144966611Y-109019790D02*
X144966611Y-109400742D01*
X144966611Y-109400742D02*
X144918992Y-109495980D01*
X144918992Y-109495980D02*
X144871373Y-109543600D01*
X144871373Y-109543600D02*
X144776135Y-109591219D01*
X144776135Y-109591219D02*
X144585659Y-109591219D01*
X144585659Y-109591219D02*
X144490421Y-109543600D01*
X144490421Y-109543600D02*
X144442802Y-109495980D01*
X144442802Y-109495980D02*
X144395183Y-109400742D01*
X144395183Y-109400742D02*
X144395183Y-109162647D01*
X144395183Y-109162647D02*
X144442802Y-109067409D01*
X144442802Y-109067409D02*
X144490421Y-109019790D01*
X144490421Y-109019790D02*
X144585659Y-108972171D01*
X144585659Y-108972171D02*
X144776135Y-108972171D01*
X144776135Y-108972171D02*
X144871373Y-109019790D01*
X144871373Y-109019790D02*
X144918992Y-109067409D01*
X144918992Y-109067409D02*
X144966611Y-109162647D01*
X143490421Y-108591219D02*
X143966611Y-108591219D01*
X143966611Y-108591219D02*
X144014230Y-109067409D01*
X144014230Y-109067409D02*
X143966611Y-109019790D01*
X143966611Y-109019790D02*
X143871373Y-108972171D01*
X143871373Y-108972171D02*
X143633278Y-108972171D01*
X143633278Y-108972171D02*
X143538040Y-109019790D01*
X143538040Y-109019790D02*
X143490421Y-109067409D01*
X143490421Y-109067409D02*
X143442802Y-109162647D01*
X143442802Y-109162647D02*
X143442802Y-109400742D01*
X143442802Y-109400742D02*
X143490421Y-109495980D01*
X143490421Y-109495980D02*
X143538040Y-109543600D01*
X143538040Y-109543600D02*
X143633278Y-109591219D01*
X143633278Y-109591219D02*
X143871373Y-109591219D01*
X143871373Y-109591219D02*
X143966611Y-109543600D01*
X143966611Y-109543600D02*
X144014230Y-109495980D01*
X142823754Y-108591219D02*
X142728516Y-108591219D01*
X142728516Y-108591219D02*
X142633278Y-108638838D01*
X142633278Y-108638838D02*
X142585659Y-108686457D01*
X142585659Y-108686457D02*
X142538040Y-108781695D01*
X142538040Y-108781695D02*
X142490421Y-108972171D01*
X142490421Y-108972171D02*
X142490421Y-109210266D01*
X142490421Y-109210266D02*
X142538040Y-109400742D01*
X142538040Y-109400742D02*
X142585659Y-109495980D01*
X142585659Y-109495980D02*
X142633278Y-109543600D01*
X142633278Y-109543600D02*
X142728516Y-109591219D01*
X142728516Y-109591219D02*
X142823754Y-109591219D01*
X142823754Y-109591219D02*
X142918992Y-109543600D01*
X142918992Y-109543600D02*
X142966611Y-109495980D01*
X142966611Y-109495980D02*
X143014230Y-109400742D01*
X143014230Y-109400742D02*
X143061849Y-109210266D01*
X143061849Y-109210266D02*
X143061849Y-108972171D01*
X143061849Y-108972171D02*
X143014230Y-108781695D01*
X143014230Y-108781695D02*
X142966611Y-108686457D01*
X142966611Y-108686457D02*
X142918992Y-108638838D01*
X142918992Y-108638838D02*
X142823754Y-108591219D01*
X142109468Y-108686457D02*
X142061849Y-108638838D01*
X142061849Y-108638838D02*
X141966611Y-108591219D01*
X141966611Y-108591219D02*
X141728516Y-108591219D01*
X141728516Y-108591219D02*
X141633278Y-108638838D01*
X141633278Y-108638838D02*
X141585659Y-108686457D01*
X141585659Y-108686457D02*
X141538040Y-108781695D01*
X141538040Y-108781695D02*
X141538040Y-108876933D01*
X141538040Y-108876933D02*
X141585659Y-109019790D01*
X141585659Y-109019790D02*
X142157087Y-109591219D01*
X142157087Y-109591219D02*
X141538040Y-109591219D01*
X150299945Y-110296457D02*
X150252326Y-110248838D01*
X150252326Y-110248838D02*
X150157088Y-110201219D01*
X150157088Y-110201219D02*
X149918993Y-110201219D01*
X149918993Y-110201219D02*
X149823755Y-110248838D01*
X149823755Y-110248838D02*
X149776136Y-110296457D01*
X149776136Y-110296457D02*
X149728517Y-110391695D01*
X149728517Y-110391695D02*
X149728517Y-110486933D01*
X149728517Y-110486933D02*
X149776136Y-110629790D01*
X149776136Y-110629790D02*
X150347564Y-111201219D01*
X150347564Y-111201219D02*
X149728517Y-111201219D01*
X149299945Y-110820266D02*
X148538041Y-110820266D01*
X148157088Y-110201219D02*
X147538041Y-110201219D01*
X147538041Y-110201219D02*
X147871374Y-110582171D01*
X147871374Y-110582171D02*
X147728517Y-110582171D01*
X147728517Y-110582171D02*
X147633279Y-110629790D01*
X147633279Y-110629790D02*
X147585660Y-110677409D01*
X147585660Y-110677409D02*
X147538041Y-110772647D01*
X147538041Y-110772647D02*
X147538041Y-111010742D01*
X147538041Y-111010742D02*
X147585660Y-111105980D01*
X147585660Y-111105980D02*
X147633279Y-111153600D01*
X147633279Y-111153600D02*
X147728517Y-111201219D01*
X147728517Y-111201219D02*
X148014231Y-111201219D01*
X148014231Y-111201219D02*
X148109469Y-111153600D01*
X148109469Y-111153600D02*
X148157088Y-111105980D01*
X143538040Y-111201219D02*
X144109468Y-111201219D01*
X143823754Y-111201219D02*
X143823754Y-110201219D01*
X143823754Y-110201219D02*
X143918992Y-110344076D01*
X143918992Y-110344076D02*
X144014230Y-110439314D01*
X144014230Y-110439314D02*
X144109468Y-110486933D01*
X143109468Y-110820266D02*
X142347564Y-110820266D01*
X141918992Y-110296457D02*
X141871373Y-110248838D01*
X141871373Y-110248838D02*
X141776135Y-110201219D01*
X141776135Y-110201219D02*
X141538040Y-110201219D01*
X141538040Y-110201219D02*
X141442802Y-110248838D01*
X141442802Y-110248838D02*
X141395183Y-110296457D01*
X141395183Y-110296457D02*
X141347564Y-110391695D01*
X141347564Y-110391695D02*
X141347564Y-110486933D01*
X141347564Y-110486933D02*
X141395183Y-110629790D01*
X141395183Y-110629790D02*
X141966611Y-111201219D01*
X141966611Y-111201219D02*
X141347564Y-111201219D01*
X149966612Y-111811219D02*
X149966612Y-112525504D01*
X149966612Y-112525504D02*
X150014231Y-112668361D01*
X150014231Y-112668361D02*
X150109469Y-112763600D01*
X150109469Y-112763600D02*
X150252326Y-112811219D01*
X150252326Y-112811219D02*
X150347564Y-112811219D01*
X149490421Y-112811219D02*
X149490421Y-111811219D01*
X149490421Y-111811219D02*
X149109469Y-111811219D01*
X149109469Y-111811219D02*
X149014231Y-111858838D01*
X149014231Y-111858838D02*
X148966612Y-111906457D01*
X148966612Y-111906457D02*
X148918993Y-112001695D01*
X148918993Y-112001695D02*
X148918993Y-112144552D01*
X148918993Y-112144552D02*
X148966612Y-112239790D01*
X148966612Y-112239790D02*
X149014231Y-112287409D01*
X149014231Y-112287409D02*
X149109469Y-112335028D01*
X149109469Y-112335028D02*
X149490421Y-112335028D01*
X148061850Y-111811219D02*
X148252326Y-111811219D01*
X148252326Y-111811219D02*
X148347564Y-111858838D01*
X148347564Y-111858838D02*
X148395183Y-111906457D01*
X148395183Y-111906457D02*
X148490421Y-112049314D01*
X148490421Y-112049314D02*
X148538040Y-112239790D01*
X148538040Y-112239790D02*
X148538040Y-112620742D01*
X148538040Y-112620742D02*
X148490421Y-112715980D01*
X148490421Y-112715980D02*
X148442802Y-112763600D01*
X148442802Y-112763600D02*
X148347564Y-112811219D01*
X148347564Y-112811219D02*
X148157088Y-112811219D01*
X148157088Y-112811219D02*
X148061850Y-112763600D01*
X148061850Y-112763600D02*
X148014231Y-112715980D01*
X148014231Y-112715980D02*
X147966612Y-112620742D01*
X147966612Y-112620742D02*
X147966612Y-112382647D01*
X147966612Y-112382647D02*
X148014231Y-112287409D01*
X148014231Y-112287409D02*
X148061850Y-112239790D01*
X148061850Y-112239790D02*
X148157088Y-112192171D01*
X148157088Y-112192171D02*
X148347564Y-112192171D01*
X148347564Y-112192171D02*
X148442802Y-112239790D01*
X148442802Y-112239790D02*
X148490421Y-112287409D01*
X148490421Y-112287409D02*
X148538040Y-112382647D01*
X147538040Y-112715980D02*
X147490421Y-112763600D01*
X147490421Y-112763600D02*
X147538040Y-112811219D01*
X147538040Y-112811219D02*
X147585659Y-112763600D01*
X147585659Y-112763600D02*
X147538040Y-112715980D01*
X147538040Y-112715980D02*
X147538040Y-112811219D01*
X147538040Y-112192171D02*
X147490421Y-112239790D01*
X147490421Y-112239790D02*
X147538040Y-112287409D01*
X147538040Y-112287409D02*
X147585659Y-112239790D01*
X147585659Y-112239790D02*
X147538040Y-112192171D01*
X147538040Y-112192171D02*
X147538040Y-112287409D01*
X146157088Y-112811219D02*
X146252326Y-112763600D01*
X146252326Y-112763600D02*
X146299945Y-112715980D01*
X146299945Y-112715980D02*
X146347564Y-112620742D01*
X146347564Y-112620742D02*
X146347564Y-112335028D01*
X146347564Y-112335028D02*
X146299945Y-112239790D01*
X146299945Y-112239790D02*
X146252326Y-112192171D01*
X146252326Y-112192171D02*
X146157088Y-112144552D01*
X146157088Y-112144552D02*
X146014231Y-112144552D01*
X146014231Y-112144552D02*
X145918993Y-112192171D01*
X145918993Y-112192171D02*
X145871374Y-112239790D01*
X145871374Y-112239790D02*
X145823755Y-112335028D01*
X145823755Y-112335028D02*
X145823755Y-112620742D01*
X145823755Y-112620742D02*
X145871374Y-112715980D01*
X145871374Y-112715980D02*
X145918993Y-112763600D01*
X145918993Y-112763600D02*
X146014231Y-112811219D01*
X146014231Y-112811219D02*
X146157088Y-112811219D01*
X145395183Y-112144552D02*
X145395183Y-113144552D01*
X145395183Y-112192171D02*
X145299945Y-112144552D01*
X145299945Y-112144552D02*
X145109469Y-112144552D01*
X145109469Y-112144552D02*
X145014231Y-112192171D01*
X145014231Y-112192171D02*
X144966612Y-112239790D01*
X144966612Y-112239790D02*
X144918993Y-112335028D01*
X144918993Y-112335028D02*
X144918993Y-112620742D01*
X144918993Y-112620742D02*
X144966612Y-112715980D01*
X144966612Y-112715980D02*
X145014231Y-112763600D01*
X145014231Y-112763600D02*
X145109469Y-112811219D01*
X145109469Y-112811219D02*
X145299945Y-112811219D01*
X145299945Y-112811219D02*
X145395183Y-112763600D01*
X144109469Y-112763600D02*
X144204707Y-112811219D01*
X144204707Y-112811219D02*
X144395183Y-112811219D01*
X144395183Y-112811219D02*
X144490421Y-112763600D01*
X144490421Y-112763600D02*
X144538040Y-112668361D01*
X144538040Y-112668361D02*
X144538040Y-112287409D01*
X144538040Y-112287409D02*
X144490421Y-112192171D01*
X144490421Y-112192171D02*
X144395183Y-112144552D01*
X144395183Y-112144552D02*
X144204707Y-112144552D01*
X144204707Y-112144552D02*
X144109469Y-112192171D01*
X144109469Y-112192171D02*
X144061850Y-112287409D01*
X144061850Y-112287409D02*
X144061850Y-112382647D01*
X144061850Y-112382647D02*
X144538040Y-112477885D01*
X143633278Y-112144552D02*
X143633278Y-112811219D01*
X143633278Y-112239790D02*
X143585659Y-112192171D01*
X143585659Y-112192171D02*
X143490421Y-112144552D01*
X143490421Y-112144552D02*
X143347564Y-112144552D01*
X143347564Y-112144552D02*
X143252326Y-112192171D01*
X143252326Y-112192171D02*
X143204707Y-112287409D01*
X143204707Y-112287409D02*
X143204707Y-112811219D01*
X142109468Y-112144552D02*
X141728516Y-112144552D01*
X141966611Y-112811219D02*
X141966611Y-111954076D01*
X141966611Y-111954076D02*
X141918992Y-111858838D01*
X141918992Y-111858838D02*
X141823754Y-111811219D01*
X141823754Y-111811219D02*
X141728516Y-111811219D01*
X141252325Y-112811219D02*
X141347563Y-112763600D01*
X141347563Y-112763600D02*
X141395182Y-112715980D01*
X141395182Y-112715980D02*
X141442801Y-112620742D01*
X141442801Y-112620742D02*
X141442801Y-112335028D01*
X141442801Y-112335028D02*
X141395182Y-112239790D01*
X141395182Y-112239790D02*
X141347563Y-112192171D01*
X141347563Y-112192171D02*
X141252325Y-112144552D01*
X141252325Y-112144552D02*
X141109468Y-112144552D01*
X141109468Y-112144552D02*
X141014230Y-112192171D01*
X141014230Y-112192171D02*
X140966611Y-112239790D01*
X140966611Y-112239790D02*
X140918992Y-112335028D01*
X140918992Y-112335028D02*
X140918992Y-112620742D01*
X140918992Y-112620742D02*
X140966611Y-112715980D01*
X140966611Y-112715980D02*
X141014230Y-112763600D01*
X141014230Y-112763600D02*
X141109468Y-112811219D01*
X141109468Y-112811219D02*
X141252325Y-112811219D01*
X140490420Y-112811219D02*
X140490420Y-112144552D01*
X140490420Y-112335028D02*
X140442801Y-112239790D01*
X140442801Y-112239790D02*
X140395182Y-112192171D01*
X140395182Y-112192171D02*
X140299944Y-112144552D01*
X140299944Y-112144552D02*
X140204706Y-112144552D01*
X150347564Y-113421219D02*
X150109469Y-114421219D01*
X150109469Y-114421219D02*
X149918993Y-113706933D01*
X149918993Y-113706933D02*
X149728517Y-114421219D01*
X149728517Y-114421219D02*
X149490422Y-113421219D01*
X149109469Y-114421219D02*
X149109469Y-113421219D01*
X149109469Y-113421219D02*
X148871374Y-113421219D01*
X148871374Y-113421219D02*
X148728517Y-113468838D01*
X148728517Y-113468838D02*
X148633279Y-113564076D01*
X148633279Y-113564076D02*
X148585660Y-113659314D01*
X148585660Y-113659314D02*
X148538041Y-113849790D01*
X148538041Y-113849790D02*
X148538041Y-113992647D01*
X148538041Y-113992647D02*
X148585660Y-114183123D01*
X148585660Y-114183123D02*
X148633279Y-114278361D01*
X148633279Y-114278361D02*
X148728517Y-114373600D01*
X148728517Y-114373600D02*
X148871374Y-114421219D01*
X148871374Y-114421219D02*
X149109469Y-114421219D01*
X147680898Y-113421219D02*
X147871374Y-113421219D01*
X147871374Y-113421219D02*
X147966612Y-113468838D01*
X147966612Y-113468838D02*
X148014231Y-113516457D01*
X148014231Y-113516457D02*
X148109469Y-113659314D01*
X148109469Y-113659314D02*
X148157088Y-113849790D01*
X148157088Y-113849790D02*
X148157088Y-114230742D01*
X148157088Y-114230742D02*
X148109469Y-114325980D01*
X148109469Y-114325980D02*
X148061850Y-114373600D01*
X148061850Y-114373600D02*
X147966612Y-114421219D01*
X147966612Y-114421219D02*
X147776136Y-114421219D01*
X147776136Y-114421219D02*
X147680898Y-114373600D01*
X147680898Y-114373600D02*
X147633279Y-114325980D01*
X147633279Y-114325980D02*
X147585660Y-114230742D01*
X147585660Y-114230742D02*
X147585660Y-113992647D01*
X147585660Y-113992647D02*
X147633279Y-113897409D01*
X147633279Y-113897409D02*
X147680898Y-113849790D01*
X147680898Y-113849790D02*
X147776136Y-113802171D01*
X147776136Y-113802171D02*
X147966612Y-113802171D01*
X147966612Y-113802171D02*
X148061850Y-113849790D01*
X148061850Y-113849790D02*
X148109469Y-113897409D01*
X148109469Y-113897409D02*
X148157088Y-113992647D01*
X146680898Y-113421219D02*
X147157088Y-113421219D01*
X147157088Y-113421219D02*
X147204707Y-113897409D01*
X147204707Y-113897409D02*
X147157088Y-113849790D01*
X147157088Y-113849790D02*
X147061850Y-113802171D01*
X147061850Y-113802171D02*
X146823755Y-113802171D01*
X146823755Y-113802171D02*
X146728517Y-113849790D01*
X146728517Y-113849790D02*
X146680898Y-113897409D01*
X146680898Y-113897409D02*
X146633279Y-113992647D01*
X146633279Y-113992647D02*
X146633279Y-114230742D01*
X146633279Y-114230742D02*
X146680898Y-114325980D01*
X146680898Y-114325980D02*
X146728517Y-114373600D01*
X146728517Y-114373600D02*
X146823755Y-114421219D01*
X146823755Y-114421219D02*
X147061850Y-114421219D01*
X147061850Y-114421219D02*
X147157088Y-114373600D01*
X147157088Y-114373600D02*
X147204707Y-114325980D01*
X145633279Y-114325980D02*
X145680898Y-114373600D01*
X145680898Y-114373600D02*
X145823755Y-114421219D01*
X145823755Y-114421219D02*
X145918993Y-114421219D01*
X145918993Y-114421219D02*
X146061850Y-114373600D01*
X146061850Y-114373600D02*
X146157088Y-114278361D01*
X146157088Y-114278361D02*
X146204707Y-114183123D01*
X146204707Y-114183123D02*
X146252326Y-113992647D01*
X146252326Y-113992647D02*
X146252326Y-113849790D01*
X146252326Y-113849790D02*
X146204707Y-113659314D01*
X146204707Y-113659314D02*
X146157088Y-113564076D01*
X146157088Y-113564076D02*
X146061850Y-113468838D01*
X146061850Y-113468838D02*
X145918993Y-113421219D01*
X145918993Y-113421219D02*
X145823755Y-113421219D01*
X145823755Y-113421219D02*
X145680898Y-113468838D01*
X145680898Y-113468838D02*
X145633279Y-113516457D01*
X145014231Y-113421219D02*
X144918993Y-113421219D01*
X144918993Y-113421219D02*
X144823755Y-113468838D01*
X144823755Y-113468838D02*
X144776136Y-113516457D01*
X144776136Y-113516457D02*
X144728517Y-113611695D01*
X144728517Y-113611695D02*
X144680898Y-113802171D01*
X144680898Y-113802171D02*
X144680898Y-114040266D01*
X144680898Y-114040266D02*
X144728517Y-114230742D01*
X144728517Y-114230742D02*
X144776136Y-114325980D01*
X144776136Y-114325980D02*
X144823755Y-114373600D01*
X144823755Y-114373600D02*
X144918993Y-114421219D01*
X144918993Y-114421219D02*
X145014231Y-114421219D01*
X145014231Y-114421219D02*
X145109469Y-114373600D01*
X145109469Y-114373600D02*
X145157088Y-114325980D01*
X145157088Y-114325980D02*
X145204707Y-114230742D01*
X145204707Y-114230742D02*
X145252326Y-114040266D01*
X145252326Y-114040266D02*
X145252326Y-113802171D01*
X145252326Y-113802171D02*
X145204707Y-113611695D01*
X145204707Y-113611695D02*
X145157088Y-113516457D01*
X145157088Y-113516457D02*
X145109469Y-113468838D01*
X145109469Y-113468838D02*
X145014231Y-113421219D01*
X144299945Y-113516457D02*
X144252326Y-113468838D01*
X144252326Y-113468838D02*
X144157088Y-113421219D01*
X144157088Y-113421219D02*
X143918993Y-113421219D01*
X143918993Y-113421219D02*
X143823755Y-113468838D01*
X143823755Y-113468838D02*
X143776136Y-113516457D01*
X143776136Y-113516457D02*
X143728517Y-113611695D01*
X143728517Y-113611695D02*
X143728517Y-113706933D01*
X143728517Y-113706933D02*
X143776136Y-113849790D01*
X143776136Y-113849790D02*
X144347564Y-114421219D01*
X144347564Y-114421219D02*
X143728517Y-114421219D01*
X142395183Y-114421219D02*
X142490421Y-114373600D01*
X142490421Y-114373600D02*
X142538040Y-114325980D01*
X142538040Y-114325980D02*
X142585659Y-114230742D01*
X142585659Y-114230742D02*
X142585659Y-113945028D01*
X142585659Y-113945028D02*
X142538040Y-113849790D01*
X142538040Y-113849790D02*
X142490421Y-113802171D01*
X142490421Y-113802171D02*
X142395183Y-113754552D01*
X142395183Y-113754552D02*
X142252326Y-113754552D01*
X142252326Y-113754552D02*
X142157088Y-113802171D01*
X142157088Y-113802171D02*
X142109469Y-113849790D01*
X142109469Y-113849790D02*
X142061850Y-113945028D01*
X142061850Y-113945028D02*
X142061850Y-114230742D01*
X142061850Y-114230742D02*
X142109469Y-114325980D01*
X142109469Y-114325980D02*
X142157088Y-114373600D01*
X142157088Y-114373600D02*
X142252326Y-114421219D01*
X142252326Y-114421219D02*
X142395183Y-114421219D01*
X141633278Y-113754552D02*
X141633278Y-114421219D01*
X141633278Y-113849790D02*
X141585659Y-113802171D01*
X141585659Y-113802171D02*
X141490421Y-113754552D01*
X141490421Y-113754552D02*
X141347564Y-113754552D01*
X141347564Y-113754552D02*
X141252326Y-113802171D01*
X141252326Y-113802171D02*
X141204707Y-113897409D01*
X141204707Y-113897409D02*
X141204707Y-114421219D01*
X140585659Y-114421219D02*
X140680897Y-114373600D01*
X140680897Y-114373600D02*
X140728516Y-114278361D01*
X140728516Y-114278361D02*
X140728516Y-113421219D01*
X140299944Y-113754552D02*
X140061849Y-114421219D01*
X139823754Y-113754552D02*
X140061849Y-114421219D01*
X140061849Y-114421219D02*
X140157087Y-114659314D01*
X140157087Y-114659314D02*
X140204706Y-114706933D01*
X140204706Y-114706933D02*
X140299944Y-114754552D01*
X139442801Y-114325980D02*
X139395182Y-114373600D01*
X139395182Y-114373600D02*
X139442801Y-114421219D01*
X139442801Y-114421219D02*
X139490420Y-114373600D01*
X139490420Y-114373600D02*
X139442801Y-114325980D01*
X139442801Y-114325980D02*
X139442801Y-114421219D01*
X139442801Y-114040266D02*
X139490420Y-113468838D01*
X139490420Y-113468838D02*
X139442801Y-113421219D01*
X139442801Y-113421219D02*
X139395182Y-113468838D01*
X139395182Y-113468838D02*
X139442801Y-114040266D01*
X139442801Y-114040266D02*
X139442801Y-113421219D01*
D11*
%TO.C,JP10*%
X165596723Y-101740619D02*
X165596723Y-102454904D01*
X165596723Y-102454904D02*
X165644342Y-102597761D01*
X165644342Y-102597761D02*
X165739580Y-102693000D01*
X165739580Y-102693000D02*
X165882437Y-102740619D01*
X165882437Y-102740619D02*
X165977675Y-102740619D01*
X165120532Y-102740619D02*
X165120532Y-101740619D01*
X165120532Y-101740619D02*
X164739580Y-101740619D01*
X164739580Y-101740619D02*
X164644342Y-101788238D01*
X164644342Y-101788238D02*
X164596723Y-101835857D01*
X164596723Y-101835857D02*
X164549104Y-101931095D01*
X164549104Y-101931095D02*
X164549104Y-102073952D01*
X164549104Y-102073952D02*
X164596723Y-102169190D01*
X164596723Y-102169190D02*
X164644342Y-102216809D01*
X164644342Y-102216809D02*
X164739580Y-102264428D01*
X164739580Y-102264428D02*
X165120532Y-102264428D01*
X163596723Y-102740619D02*
X164168151Y-102740619D01*
X163882437Y-102740619D02*
X163882437Y-101740619D01*
X163882437Y-101740619D02*
X163977675Y-101883476D01*
X163977675Y-101883476D02*
X164072913Y-101978714D01*
X164072913Y-101978714D02*
X164168151Y-102026333D01*
X162977675Y-101740619D02*
X162882437Y-101740619D01*
X162882437Y-101740619D02*
X162787199Y-101788238D01*
X162787199Y-101788238D02*
X162739580Y-101835857D01*
X162739580Y-101835857D02*
X162691961Y-101931095D01*
X162691961Y-101931095D02*
X162644342Y-102121571D01*
X162644342Y-102121571D02*
X162644342Y-102359666D01*
X162644342Y-102359666D02*
X162691961Y-102550142D01*
X162691961Y-102550142D02*
X162739580Y-102645380D01*
X162739580Y-102645380D02*
X162787199Y-102693000D01*
X162787199Y-102693000D02*
X162882437Y-102740619D01*
X162882437Y-102740619D02*
X162977675Y-102740619D01*
X162977675Y-102740619D02*
X163072913Y-102693000D01*
X163072913Y-102693000D02*
X163120532Y-102645380D01*
X163120532Y-102645380D02*
X163168151Y-102550142D01*
X163168151Y-102550142D02*
X163215770Y-102359666D01*
X163215770Y-102359666D02*
X163215770Y-102121571D01*
X163215770Y-102121571D02*
X163168151Y-101931095D01*
X163168151Y-101931095D02*
X163120532Y-101835857D01*
X163120532Y-101835857D02*
X163072913Y-101788238D01*
X163072913Y-101788238D02*
X162977675Y-101740619D01*
%TO.C,C2*%
X138344466Y-129319580D02*
X138392085Y-129367200D01*
X138392085Y-129367200D02*
X138534942Y-129414819D01*
X138534942Y-129414819D02*
X138630180Y-129414819D01*
X138630180Y-129414819D02*
X138773037Y-129367200D01*
X138773037Y-129367200D02*
X138868275Y-129271961D01*
X138868275Y-129271961D02*
X138915894Y-129176723D01*
X138915894Y-129176723D02*
X138963513Y-128986247D01*
X138963513Y-128986247D02*
X138963513Y-128843390D01*
X138963513Y-128843390D02*
X138915894Y-128652914D01*
X138915894Y-128652914D02*
X138868275Y-128557676D01*
X138868275Y-128557676D02*
X138773037Y-128462438D01*
X138773037Y-128462438D02*
X138630180Y-128414819D01*
X138630180Y-128414819D02*
X138534942Y-128414819D01*
X138534942Y-128414819D02*
X138392085Y-128462438D01*
X138392085Y-128462438D02*
X138344466Y-128510057D01*
X137963513Y-128510057D02*
X137915894Y-128462438D01*
X137915894Y-128462438D02*
X137820656Y-128414819D01*
X137820656Y-128414819D02*
X137582561Y-128414819D01*
X137582561Y-128414819D02*
X137487323Y-128462438D01*
X137487323Y-128462438D02*
X137439704Y-128510057D01*
X137439704Y-128510057D02*
X137392085Y-128605295D01*
X137392085Y-128605295D02*
X137392085Y-128700533D01*
X137392085Y-128700533D02*
X137439704Y-128843390D01*
X137439704Y-128843390D02*
X138011132Y-129414819D01*
X138011132Y-129414819D02*
X137392085Y-129414819D01*
%TO.C,JP2*%
X147282819Y-90479666D02*
X147997104Y-90479666D01*
X147997104Y-90479666D02*
X148139961Y-90432047D01*
X148139961Y-90432047D02*
X148235200Y-90336809D01*
X148235200Y-90336809D02*
X148282819Y-90193952D01*
X148282819Y-90193952D02*
X148282819Y-90098714D01*
X148282819Y-90955857D02*
X147282819Y-90955857D01*
X147282819Y-90955857D02*
X147282819Y-91336809D01*
X147282819Y-91336809D02*
X147330438Y-91432047D01*
X147330438Y-91432047D02*
X147378057Y-91479666D01*
X147378057Y-91479666D02*
X147473295Y-91527285D01*
X147473295Y-91527285D02*
X147616152Y-91527285D01*
X147616152Y-91527285D02*
X147711390Y-91479666D01*
X147711390Y-91479666D02*
X147759009Y-91432047D01*
X147759009Y-91432047D02*
X147806628Y-91336809D01*
X147806628Y-91336809D02*
X147806628Y-90955857D01*
X147378057Y-91908238D02*
X147330438Y-91955857D01*
X147330438Y-91955857D02*
X147282819Y-92051095D01*
X147282819Y-92051095D02*
X147282819Y-92289190D01*
X147282819Y-92289190D02*
X147330438Y-92384428D01*
X147330438Y-92384428D02*
X147378057Y-92432047D01*
X147378057Y-92432047D02*
X147473295Y-92479666D01*
X147473295Y-92479666D02*
X147568533Y-92479666D01*
X147568533Y-92479666D02*
X147711390Y-92432047D01*
X147711390Y-92432047D02*
X148282819Y-91860619D01*
X148282819Y-91860619D02*
X148282819Y-92479666D01*
%TO.C,JP1*%
X144488819Y-90479666D02*
X145203104Y-90479666D01*
X145203104Y-90479666D02*
X145345961Y-90432047D01*
X145345961Y-90432047D02*
X145441200Y-90336809D01*
X145441200Y-90336809D02*
X145488819Y-90193952D01*
X145488819Y-90193952D02*
X145488819Y-90098714D01*
X145488819Y-90955857D02*
X144488819Y-90955857D01*
X144488819Y-90955857D02*
X144488819Y-91336809D01*
X144488819Y-91336809D02*
X144536438Y-91432047D01*
X144536438Y-91432047D02*
X144584057Y-91479666D01*
X144584057Y-91479666D02*
X144679295Y-91527285D01*
X144679295Y-91527285D02*
X144822152Y-91527285D01*
X144822152Y-91527285D02*
X144917390Y-91479666D01*
X144917390Y-91479666D02*
X144965009Y-91432047D01*
X144965009Y-91432047D02*
X145012628Y-91336809D01*
X145012628Y-91336809D02*
X145012628Y-90955857D01*
X145488819Y-92479666D02*
X145488819Y-91908238D01*
X145488819Y-92193952D02*
X144488819Y-92193952D01*
X144488819Y-92193952D02*
X144631676Y-92098714D01*
X144631676Y-92098714D02*
X144726914Y-92003476D01*
X144726914Y-92003476D02*
X144774533Y-91908238D01*
%TO.C,R1*%
X158841066Y-69813419D02*
X159174399Y-69337228D01*
X159412494Y-69813419D02*
X159412494Y-68813419D01*
X159412494Y-68813419D02*
X159031542Y-68813419D01*
X159031542Y-68813419D02*
X158936304Y-68861038D01*
X158936304Y-68861038D02*
X158888685Y-68908657D01*
X158888685Y-68908657D02*
X158841066Y-69003895D01*
X158841066Y-69003895D02*
X158841066Y-69146752D01*
X158841066Y-69146752D02*
X158888685Y-69241990D01*
X158888685Y-69241990D02*
X158936304Y-69289609D01*
X158936304Y-69289609D02*
X159031542Y-69337228D01*
X159031542Y-69337228D02*
X159412494Y-69337228D01*
X157888685Y-69813419D02*
X158460113Y-69813419D01*
X158174399Y-69813419D02*
X158174399Y-68813419D01*
X158174399Y-68813419D02*
X158269637Y-68956276D01*
X158269637Y-68956276D02*
X158364875Y-69051514D01*
X158364875Y-69051514D02*
X158460113Y-69099133D01*
%TO.C,R11*%
X147994619Y-63340342D02*
X147518428Y-63007009D01*
X147994619Y-62768914D02*
X146994619Y-62768914D01*
X146994619Y-62768914D02*
X146994619Y-63149866D01*
X146994619Y-63149866D02*
X147042238Y-63245104D01*
X147042238Y-63245104D02*
X147089857Y-63292723D01*
X147089857Y-63292723D02*
X147185095Y-63340342D01*
X147185095Y-63340342D02*
X147327952Y-63340342D01*
X147327952Y-63340342D02*
X147423190Y-63292723D01*
X147423190Y-63292723D02*
X147470809Y-63245104D01*
X147470809Y-63245104D02*
X147518428Y-63149866D01*
X147518428Y-63149866D02*
X147518428Y-62768914D01*
X147994619Y-64292723D02*
X147994619Y-63721295D01*
X147994619Y-64007009D02*
X146994619Y-64007009D01*
X146994619Y-64007009D02*
X147137476Y-63911771D01*
X147137476Y-63911771D02*
X147232714Y-63816533D01*
X147232714Y-63816533D02*
X147280333Y-63721295D01*
X147994619Y-65245104D02*
X147994619Y-64673676D01*
X147994619Y-64959390D02*
X146994619Y-64959390D01*
X146994619Y-64959390D02*
X147137476Y-64864152D01*
X147137476Y-64864152D02*
X147232714Y-64768914D01*
X147232714Y-64768914D02*
X147280333Y-64673676D01*
%TO.C,C7*%
X180174666Y-113345385D02*
X180222285Y-113393005D01*
X180222285Y-113393005D02*
X180365142Y-113440624D01*
X180365142Y-113440624D02*
X180460380Y-113440624D01*
X180460380Y-113440624D02*
X180603237Y-113393005D01*
X180603237Y-113393005D02*
X180698475Y-113297766D01*
X180698475Y-113297766D02*
X180746094Y-113202528D01*
X180746094Y-113202528D02*
X180793713Y-113012052D01*
X180793713Y-113012052D02*
X180793713Y-112869195D01*
X180793713Y-112869195D02*
X180746094Y-112678719D01*
X180746094Y-112678719D02*
X180698475Y-112583481D01*
X180698475Y-112583481D02*
X180603237Y-112488243D01*
X180603237Y-112488243D02*
X180460380Y-112440624D01*
X180460380Y-112440624D02*
X180365142Y-112440624D01*
X180365142Y-112440624D02*
X180222285Y-112488243D01*
X180222285Y-112488243D02*
X180174666Y-112535862D01*
X179841332Y-112440624D02*
X179174666Y-112440624D01*
X179174666Y-112440624D02*
X179603237Y-113440624D01*
%TO.C,JP29*%
X139540923Y-63865819D02*
X139540923Y-64580104D01*
X139540923Y-64580104D02*
X139588542Y-64722961D01*
X139588542Y-64722961D02*
X139683780Y-64818200D01*
X139683780Y-64818200D02*
X139826637Y-64865819D01*
X139826637Y-64865819D02*
X139921875Y-64865819D01*
X139064732Y-64865819D02*
X139064732Y-63865819D01*
X139064732Y-63865819D02*
X138683780Y-63865819D01*
X138683780Y-63865819D02*
X138588542Y-63913438D01*
X138588542Y-63913438D02*
X138540923Y-63961057D01*
X138540923Y-63961057D02*
X138493304Y-64056295D01*
X138493304Y-64056295D02*
X138493304Y-64199152D01*
X138493304Y-64199152D02*
X138540923Y-64294390D01*
X138540923Y-64294390D02*
X138588542Y-64342009D01*
X138588542Y-64342009D02*
X138683780Y-64389628D01*
X138683780Y-64389628D02*
X139064732Y-64389628D01*
X138112351Y-63961057D02*
X138064732Y-63913438D01*
X138064732Y-63913438D02*
X137969494Y-63865819D01*
X137969494Y-63865819D02*
X137731399Y-63865819D01*
X137731399Y-63865819D02*
X137636161Y-63913438D01*
X137636161Y-63913438D02*
X137588542Y-63961057D01*
X137588542Y-63961057D02*
X137540923Y-64056295D01*
X137540923Y-64056295D02*
X137540923Y-64151533D01*
X137540923Y-64151533D02*
X137588542Y-64294390D01*
X137588542Y-64294390D02*
X138159970Y-64865819D01*
X138159970Y-64865819D02*
X137540923Y-64865819D01*
X137064732Y-64865819D02*
X136874256Y-64865819D01*
X136874256Y-64865819D02*
X136779018Y-64818200D01*
X136779018Y-64818200D02*
X136731399Y-64770580D01*
X136731399Y-64770580D02*
X136636161Y-64627723D01*
X136636161Y-64627723D02*
X136588542Y-64437247D01*
X136588542Y-64437247D02*
X136588542Y-64056295D01*
X136588542Y-64056295D02*
X136636161Y-63961057D01*
X136636161Y-63961057D02*
X136683780Y-63913438D01*
X136683780Y-63913438D02*
X136779018Y-63865819D01*
X136779018Y-63865819D02*
X136969494Y-63865819D01*
X136969494Y-63865819D02*
X137064732Y-63913438D01*
X137064732Y-63913438D02*
X137112351Y-63961057D01*
X137112351Y-63961057D02*
X137159970Y-64056295D01*
X137159970Y-64056295D02*
X137159970Y-64294390D01*
X137159970Y-64294390D02*
X137112351Y-64389628D01*
X137112351Y-64389628D02*
X137064732Y-64437247D01*
X137064732Y-64437247D02*
X136969494Y-64484866D01*
X136969494Y-64484866D02*
X136779018Y-64484866D01*
X136779018Y-64484866D02*
X136683780Y-64437247D01*
X136683780Y-64437247D02*
X136636161Y-64389628D01*
X136636161Y-64389628D02*
X136588542Y-64294390D01*
X141164732Y-62065819D02*
X140545685Y-62065819D01*
X140545685Y-62065819D02*
X140879018Y-62446771D01*
X140879018Y-62446771D02*
X140736161Y-62446771D01*
X140736161Y-62446771D02*
X140640923Y-62494390D01*
X140640923Y-62494390D02*
X140593304Y-62542009D01*
X140593304Y-62542009D02*
X140545685Y-62637247D01*
X140545685Y-62637247D02*
X140545685Y-62875342D01*
X140545685Y-62875342D02*
X140593304Y-62970580D01*
X140593304Y-62970580D02*
X140640923Y-63018200D01*
X140640923Y-63018200D02*
X140736161Y-63065819D01*
X140736161Y-63065819D02*
X141021875Y-63065819D01*
X141021875Y-63065819D02*
X141117113Y-63018200D01*
X141117113Y-63018200D02*
X141164732Y-62970580D01*
X135345685Y-63065819D02*
X135917113Y-63065819D01*
X135631399Y-63065819D02*
X135631399Y-62065819D01*
X135631399Y-62065819D02*
X135726637Y-62208676D01*
X135726637Y-62208676D02*
X135821875Y-62303914D01*
X135821875Y-62303914D02*
X135917113Y-62351533D01*
%TO.C,JP3*%
X139662819Y-90225666D02*
X140377104Y-90225666D01*
X140377104Y-90225666D02*
X140519961Y-90178047D01*
X140519961Y-90178047D02*
X140615200Y-90082809D01*
X140615200Y-90082809D02*
X140662819Y-89939952D01*
X140662819Y-89939952D02*
X140662819Y-89844714D01*
X140662819Y-90701857D02*
X139662819Y-90701857D01*
X139662819Y-90701857D02*
X139662819Y-91082809D01*
X139662819Y-91082809D02*
X139710438Y-91178047D01*
X139710438Y-91178047D02*
X139758057Y-91225666D01*
X139758057Y-91225666D02*
X139853295Y-91273285D01*
X139853295Y-91273285D02*
X139996152Y-91273285D01*
X139996152Y-91273285D02*
X140091390Y-91225666D01*
X140091390Y-91225666D02*
X140139009Y-91178047D01*
X140139009Y-91178047D02*
X140186628Y-91082809D01*
X140186628Y-91082809D02*
X140186628Y-90701857D01*
X139662819Y-91606619D02*
X139662819Y-92225666D01*
X139662819Y-92225666D02*
X140043771Y-91892333D01*
X140043771Y-91892333D02*
X140043771Y-92035190D01*
X140043771Y-92035190D02*
X140091390Y-92130428D01*
X140091390Y-92130428D02*
X140139009Y-92178047D01*
X140139009Y-92178047D02*
X140234247Y-92225666D01*
X140234247Y-92225666D02*
X140472342Y-92225666D01*
X140472342Y-92225666D02*
X140567580Y-92178047D01*
X140567580Y-92178047D02*
X140615200Y-92130428D01*
X140615200Y-92130428D02*
X140662819Y-92035190D01*
X140662819Y-92035190D02*
X140662819Y-91749476D01*
X140662819Y-91749476D02*
X140615200Y-91654238D01*
X140615200Y-91654238D02*
X140567580Y-91606619D01*
%TO.C,C8*%
X183046666Y-129347385D02*
X183094285Y-129395005D01*
X183094285Y-129395005D02*
X183237142Y-129442624D01*
X183237142Y-129442624D02*
X183332380Y-129442624D01*
X183332380Y-129442624D02*
X183475237Y-129395005D01*
X183475237Y-129395005D02*
X183570475Y-129299766D01*
X183570475Y-129299766D02*
X183618094Y-129204528D01*
X183618094Y-129204528D02*
X183665713Y-129014052D01*
X183665713Y-129014052D02*
X183665713Y-128871195D01*
X183665713Y-128871195D02*
X183618094Y-128680719D01*
X183618094Y-128680719D02*
X183570475Y-128585481D01*
X183570475Y-128585481D02*
X183475237Y-128490243D01*
X183475237Y-128490243D02*
X183332380Y-128442624D01*
X183332380Y-128442624D02*
X183237142Y-128442624D01*
X183237142Y-128442624D02*
X183094285Y-128490243D01*
X183094285Y-128490243D02*
X183046666Y-128537862D01*
X182475237Y-128871195D02*
X182570475Y-128823576D01*
X182570475Y-128823576D02*
X182618094Y-128775957D01*
X182618094Y-128775957D02*
X182665713Y-128680719D01*
X182665713Y-128680719D02*
X182665713Y-128633100D01*
X182665713Y-128633100D02*
X182618094Y-128537862D01*
X182618094Y-128537862D02*
X182570475Y-128490243D01*
X182570475Y-128490243D02*
X182475237Y-128442624D01*
X182475237Y-128442624D02*
X182284761Y-128442624D01*
X182284761Y-128442624D02*
X182189523Y-128490243D01*
X182189523Y-128490243D02*
X182141904Y-128537862D01*
X182141904Y-128537862D02*
X182094285Y-128633100D01*
X182094285Y-128633100D02*
X182094285Y-128680719D01*
X182094285Y-128680719D02*
X182141904Y-128775957D01*
X182141904Y-128775957D02*
X182189523Y-128823576D01*
X182189523Y-128823576D02*
X182284761Y-128871195D01*
X182284761Y-128871195D02*
X182475237Y-128871195D01*
X182475237Y-128871195D02*
X182570475Y-128918814D01*
X182570475Y-128918814D02*
X182618094Y-128966433D01*
X182618094Y-128966433D02*
X182665713Y-129061671D01*
X182665713Y-129061671D02*
X182665713Y-129252147D01*
X182665713Y-129252147D02*
X182618094Y-129347385D01*
X182618094Y-129347385D02*
X182570475Y-129395005D01*
X182570475Y-129395005D02*
X182475237Y-129442624D01*
X182475237Y-129442624D02*
X182284761Y-129442624D01*
X182284761Y-129442624D02*
X182189523Y-129395005D01*
X182189523Y-129395005D02*
X182141904Y-129347385D01*
X182141904Y-129347385D02*
X182094285Y-129252147D01*
X182094285Y-129252147D02*
X182094285Y-129061671D01*
X182094285Y-129061671D02*
X182141904Y-128966433D01*
X182141904Y-128966433D02*
X182189523Y-128918814D01*
X182189523Y-128918814D02*
X182284761Y-128871195D01*
%TO.C,C3*%
X183478466Y-69472980D02*
X183526085Y-69520600D01*
X183526085Y-69520600D02*
X183668942Y-69568219D01*
X183668942Y-69568219D02*
X183764180Y-69568219D01*
X183764180Y-69568219D02*
X183907037Y-69520600D01*
X183907037Y-69520600D02*
X184002275Y-69425361D01*
X184002275Y-69425361D02*
X184049894Y-69330123D01*
X184049894Y-69330123D02*
X184097513Y-69139647D01*
X184097513Y-69139647D02*
X184097513Y-68996790D01*
X184097513Y-68996790D02*
X184049894Y-68806314D01*
X184049894Y-68806314D02*
X184002275Y-68711076D01*
X184002275Y-68711076D02*
X183907037Y-68615838D01*
X183907037Y-68615838D02*
X183764180Y-68568219D01*
X183764180Y-68568219D02*
X183668942Y-68568219D01*
X183668942Y-68568219D02*
X183526085Y-68615838D01*
X183526085Y-68615838D02*
X183478466Y-68663457D01*
X183145132Y-68568219D02*
X182526085Y-68568219D01*
X182526085Y-68568219D02*
X182859418Y-68949171D01*
X182859418Y-68949171D02*
X182716561Y-68949171D01*
X182716561Y-68949171D02*
X182621323Y-68996790D01*
X182621323Y-68996790D02*
X182573704Y-69044409D01*
X182573704Y-69044409D02*
X182526085Y-69139647D01*
X182526085Y-69139647D02*
X182526085Y-69377742D01*
X182526085Y-69377742D02*
X182573704Y-69472980D01*
X182573704Y-69472980D02*
X182621323Y-69520600D01*
X182621323Y-69520600D02*
X182716561Y-69568219D01*
X182716561Y-69568219D02*
X183002275Y-69568219D01*
X183002275Y-69568219D02*
X183097513Y-69520600D01*
X183097513Y-69520600D02*
X183145132Y-69472980D01*
%TO.C,R10*%
X156725857Y-63760419D02*
X157059190Y-63284228D01*
X157297285Y-63760419D02*
X157297285Y-62760419D01*
X157297285Y-62760419D02*
X156916333Y-62760419D01*
X156916333Y-62760419D02*
X156821095Y-62808038D01*
X156821095Y-62808038D02*
X156773476Y-62855657D01*
X156773476Y-62855657D02*
X156725857Y-62950895D01*
X156725857Y-62950895D02*
X156725857Y-63093752D01*
X156725857Y-63093752D02*
X156773476Y-63188990D01*
X156773476Y-63188990D02*
X156821095Y-63236609D01*
X156821095Y-63236609D02*
X156916333Y-63284228D01*
X156916333Y-63284228D02*
X157297285Y-63284228D01*
X155773476Y-63760419D02*
X156344904Y-63760419D01*
X156059190Y-63760419D02*
X156059190Y-62760419D01*
X156059190Y-62760419D02*
X156154428Y-62903276D01*
X156154428Y-62903276D02*
X156249666Y-62998514D01*
X156249666Y-62998514D02*
X156344904Y-63046133D01*
X155154428Y-62760419D02*
X155059190Y-62760419D01*
X155059190Y-62760419D02*
X154963952Y-62808038D01*
X154963952Y-62808038D02*
X154916333Y-62855657D01*
X154916333Y-62855657D02*
X154868714Y-62950895D01*
X154868714Y-62950895D02*
X154821095Y-63141371D01*
X154821095Y-63141371D02*
X154821095Y-63379466D01*
X154821095Y-63379466D02*
X154868714Y-63569942D01*
X154868714Y-63569942D02*
X154916333Y-63665180D01*
X154916333Y-63665180D02*
X154963952Y-63712800D01*
X154963952Y-63712800D02*
X155059190Y-63760419D01*
X155059190Y-63760419D02*
X155154428Y-63760419D01*
X155154428Y-63760419D02*
X155249666Y-63712800D01*
X155249666Y-63712800D02*
X155297285Y-63665180D01*
X155297285Y-63665180D02*
X155344904Y-63569942D01*
X155344904Y-63569942D02*
X155392523Y-63379466D01*
X155392523Y-63379466D02*
X155392523Y-63141371D01*
X155392523Y-63141371D02*
X155344904Y-62950895D01*
X155344904Y-62950895D02*
X155297285Y-62855657D01*
X155297285Y-62855657D02*
X155249666Y-62808038D01*
X155249666Y-62808038D02*
X155154428Y-62760419D01*
%TO.C,R9*%
X155588666Y-68967419D02*
X155921999Y-68491228D01*
X156160094Y-68967419D02*
X156160094Y-67967419D01*
X156160094Y-67967419D02*
X155779142Y-67967419D01*
X155779142Y-67967419D02*
X155683904Y-68015038D01*
X155683904Y-68015038D02*
X155636285Y-68062657D01*
X155636285Y-68062657D02*
X155588666Y-68157895D01*
X155588666Y-68157895D02*
X155588666Y-68300752D01*
X155588666Y-68300752D02*
X155636285Y-68395990D01*
X155636285Y-68395990D02*
X155683904Y-68443609D01*
X155683904Y-68443609D02*
X155779142Y-68491228D01*
X155779142Y-68491228D02*
X156160094Y-68491228D01*
X155112475Y-68967419D02*
X154921999Y-68967419D01*
X154921999Y-68967419D02*
X154826761Y-68919800D01*
X154826761Y-68919800D02*
X154779142Y-68872180D01*
X154779142Y-68872180D02*
X154683904Y-68729323D01*
X154683904Y-68729323D02*
X154636285Y-68538847D01*
X154636285Y-68538847D02*
X154636285Y-68157895D01*
X154636285Y-68157895D02*
X154683904Y-68062657D01*
X154683904Y-68062657D02*
X154731523Y-68015038D01*
X154731523Y-68015038D02*
X154826761Y-67967419D01*
X154826761Y-67967419D02*
X155017237Y-67967419D01*
X155017237Y-67967419D02*
X155112475Y-68015038D01*
X155112475Y-68015038D02*
X155160094Y-68062657D01*
X155160094Y-68062657D02*
X155207713Y-68157895D01*
X155207713Y-68157895D02*
X155207713Y-68395990D01*
X155207713Y-68395990D02*
X155160094Y-68491228D01*
X155160094Y-68491228D02*
X155112475Y-68538847D01*
X155112475Y-68538847D02*
X155017237Y-68586466D01*
X155017237Y-68586466D02*
X154826761Y-68586466D01*
X154826761Y-68586466D02*
X154731523Y-68538847D01*
X154731523Y-68538847D02*
X154683904Y-68491228D01*
X154683904Y-68491228D02*
X154636285Y-68395990D01*
%TO.C,JP6*%
X131661819Y-98480666D02*
X132376104Y-98480666D01*
X132376104Y-98480666D02*
X132518961Y-98433047D01*
X132518961Y-98433047D02*
X132614200Y-98337809D01*
X132614200Y-98337809D02*
X132661819Y-98194952D01*
X132661819Y-98194952D02*
X132661819Y-98099714D01*
X132661819Y-98956857D02*
X131661819Y-98956857D01*
X131661819Y-98956857D02*
X131661819Y-99337809D01*
X131661819Y-99337809D02*
X131709438Y-99433047D01*
X131709438Y-99433047D02*
X131757057Y-99480666D01*
X131757057Y-99480666D02*
X131852295Y-99528285D01*
X131852295Y-99528285D02*
X131995152Y-99528285D01*
X131995152Y-99528285D02*
X132090390Y-99480666D01*
X132090390Y-99480666D02*
X132138009Y-99433047D01*
X132138009Y-99433047D02*
X132185628Y-99337809D01*
X132185628Y-99337809D02*
X132185628Y-98956857D01*
X131661819Y-100385428D02*
X131661819Y-100194952D01*
X131661819Y-100194952D02*
X131709438Y-100099714D01*
X131709438Y-100099714D02*
X131757057Y-100052095D01*
X131757057Y-100052095D02*
X131899914Y-99956857D01*
X131899914Y-99956857D02*
X132090390Y-99909238D01*
X132090390Y-99909238D02*
X132471342Y-99909238D01*
X132471342Y-99909238D02*
X132566580Y-99956857D01*
X132566580Y-99956857D02*
X132614200Y-100004476D01*
X132614200Y-100004476D02*
X132661819Y-100099714D01*
X132661819Y-100099714D02*
X132661819Y-100290190D01*
X132661819Y-100290190D02*
X132614200Y-100385428D01*
X132614200Y-100385428D02*
X132566580Y-100433047D01*
X132566580Y-100433047D02*
X132471342Y-100480666D01*
X132471342Y-100480666D02*
X132233247Y-100480666D01*
X132233247Y-100480666D02*
X132138009Y-100433047D01*
X132138009Y-100433047D02*
X132090390Y-100385428D01*
X132090390Y-100385428D02*
X132042771Y-100290190D01*
X132042771Y-100290190D02*
X132042771Y-100099714D01*
X132042771Y-100099714D02*
X132090390Y-100004476D01*
X132090390Y-100004476D02*
X132138009Y-99956857D01*
X132138009Y-99956857D02*
X132233247Y-99909238D01*
%TO.C,C6*%
X173134580Y-118286138D02*
X173182200Y-118238519D01*
X173182200Y-118238519D02*
X173229819Y-118095662D01*
X173229819Y-118095662D02*
X173229819Y-118000424D01*
X173229819Y-118000424D02*
X173182200Y-117857567D01*
X173182200Y-117857567D02*
X173086961Y-117762329D01*
X173086961Y-117762329D02*
X172991723Y-117714710D01*
X172991723Y-117714710D02*
X172801247Y-117667091D01*
X172801247Y-117667091D02*
X172658390Y-117667091D01*
X172658390Y-117667091D02*
X172467914Y-117714710D01*
X172467914Y-117714710D02*
X172372676Y-117762329D01*
X172372676Y-117762329D02*
X172277438Y-117857567D01*
X172277438Y-117857567D02*
X172229819Y-118000424D01*
X172229819Y-118000424D02*
X172229819Y-118095662D01*
X172229819Y-118095662D02*
X172277438Y-118238519D01*
X172277438Y-118238519D02*
X172325057Y-118286138D01*
X172229819Y-119143281D02*
X172229819Y-118952805D01*
X172229819Y-118952805D02*
X172277438Y-118857567D01*
X172277438Y-118857567D02*
X172325057Y-118809948D01*
X172325057Y-118809948D02*
X172467914Y-118714710D01*
X172467914Y-118714710D02*
X172658390Y-118667091D01*
X172658390Y-118667091D02*
X173039342Y-118667091D01*
X173039342Y-118667091D02*
X173134580Y-118714710D01*
X173134580Y-118714710D02*
X173182200Y-118762329D01*
X173182200Y-118762329D02*
X173229819Y-118857567D01*
X173229819Y-118857567D02*
X173229819Y-119048043D01*
X173229819Y-119048043D02*
X173182200Y-119143281D01*
X173182200Y-119143281D02*
X173134580Y-119190900D01*
X173134580Y-119190900D02*
X173039342Y-119238519D01*
X173039342Y-119238519D02*
X172801247Y-119238519D01*
X172801247Y-119238519D02*
X172706009Y-119190900D01*
X172706009Y-119190900D02*
X172658390Y-119143281D01*
X172658390Y-119143281D02*
X172610771Y-119048043D01*
X172610771Y-119048043D02*
X172610771Y-118857567D01*
X172610771Y-118857567D02*
X172658390Y-118762329D01*
X172658390Y-118762329D02*
X172706009Y-118714710D01*
X172706009Y-118714710D02*
X172801247Y-118667091D01*
%TO.C,JP5*%
X137963333Y-78194819D02*
X137963333Y-78909104D01*
X137963333Y-78909104D02*
X138010952Y-79051961D01*
X138010952Y-79051961D02*
X138106190Y-79147200D01*
X138106190Y-79147200D02*
X138249047Y-79194819D01*
X138249047Y-79194819D02*
X138344285Y-79194819D01*
X137487142Y-79194819D02*
X137487142Y-78194819D01*
X137487142Y-78194819D02*
X137106190Y-78194819D01*
X137106190Y-78194819D02*
X137010952Y-78242438D01*
X137010952Y-78242438D02*
X136963333Y-78290057D01*
X136963333Y-78290057D02*
X136915714Y-78385295D01*
X136915714Y-78385295D02*
X136915714Y-78528152D01*
X136915714Y-78528152D02*
X136963333Y-78623390D01*
X136963333Y-78623390D02*
X137010952Y-78671009D01*
X137010952Y-78671009D02*
X137106190Y-78718628D01*
X137106190Y-78718628D02*
X137487142Y-78718628D01*
X136010952Y-78194819D02*
X136487142Y-78194819D01*
X136487142Y-78194819D02*
X136534761Y-78671009D01*
X136534761Y-78671009D02*
X136487142Y-78623390D01*
X136487142Y-78623390D02*
X136391904Y-78575771D01*
X136391904Y-78575771D02*
X136153809Y-78575771D01*
X136153809Y-78575771D02*
X136058571Y-78623390D01*
X136058571Y-78623390D02*
X136010952Y-78671009D01*
X136010952Y-78671009D02*
X135963333Y-78766247D01*
X135963333Y-78766247D02*
X135963333Y-79004342D01*
X135963333Y-79004342D02*
X136010952Y-79099580D01*
X136010952Y-79099580D02*
X136058571Y-79147200D01*
X136058571Y-79147200D02*
X136153809Y-79194819D01*
X136153809Y-79194819D02*
X136391904Y-79194819D01*
X136391904Y-79194819D02*
X136487142Y-79147200D01*
X136487142Y-79147200D02*
X136534761Y-79099580D01*
X139966332Y-80366819D02*
X139347285Y-80366819D01*
X139347285Y-80366819D02*
X139680618Y-80747771D01*
X139680618Y-80747771D02*
X139537761Y-80747771D01*
X139537761Y-80747771D02*
X139442523Y-80795390D01*
X139442523Y-80795390D02*
X139394904Y-80843009D01*
X139394904Y-80843009D02*
X139347285Y-80938247D01*
X139347285Y-80938247D02*
X139347285Y-81176342D01*
X139347285Y-81176342D02*
X139394904Y-81271580D01*
X139394904Y-81271580D02*
X139442523Y-81319200D01*
X139442523Y-81319200D02*
X139537761Y-81366819D01*
X139537761Y-81366819D02*
X139823475Y-81366819D01*
X139823475Y-81366819D02*
X139918713Y-81319200D01*
X139918713Y-81319200D02*
X139966332Y-81271580D01*
X134147285Y-81366819D02*
X134718713Y-81366819D01*
X134432999Y-81366819D02*
X134432999Y-80366819D01*
X134432999Y-80366819D02*
X134528237Y-80509676D01*
X134528237Y-80509676D02*
X134623475Y-80604914D01*
X134623475Y-80604914D02*
X134718713Y-80652533D01*
%TO.C,JP4*%
X144313333Y-78308819D02*
X144313333Y-79023104D01*
X144313333Y-79023104D02*
X144360952Y-79165961D01*
X144360952Y-79165961D02*
X144456190Y-79261200D01*
X144456190Y-79261200D02*
X144599047Y-79308819D01*
X144599047Y-79308819D02*
X144694285Y-79308819D01*
X143837142Y-79308819D02*
X143837142Y-78308819D01*
X143837142Y-78308819D02*
X143456190Y-78308819D01*
X143456190Y-78308819D02*
X143360952Y-78356438D01*
X143360952Y-78356438D02*
X143313333Y-78404057D01*
X143313333Y-78404057D02*
X143265714Y-78499295D01*
X143265714Y-78499295D02*
X143265714Y-78642152D01*
X143265714Y-78642152D02*
X143313333Y-78737390D01*
X143313333Y-78737390D02*
X143360952Y-78785009D01*
X143360952Y-78785009D02*
X143456190Y-78832628D01*
X143456190Y-78832628D02*
X143837142Y-78832628D01*
X142408571Y-78642152D02*
X142408571Y-79308819D01*
X142646666Y-78261200D02*
X142884761Y-78975485D01*
X142884761Y-78975485D02*
X142265714Y-78975485D01*
X146316332Y-80353819D02*
X145697285Y-80353819D01*
X145697285Y-80353819D02*
X146030618Y-80734771D01*
X146030618Y-80734771D02*
X145887761Y-80734771D01*
X145887761Y-80734771D02*
X145792523Y-80782390D01*
X145792523Y-80782390D02*
X145744904Y-80830009D01*
X145744904Y-80830009D02*
X145697285Y-80925247D01*
X145697285Y-80925247D02*
X145697285Y-81163342D01*
X145697285Y-81163342D02*
X145744904Y-81258580D01*
X145744904Y-81258580D02*
X145792523Y-81306200D01*
X145792523Y-81306200D02*
X145887761Y-81353819D01*
X145887761Y-81353819D02*
X146173475Y-81353819D01*
X146173475Y-81353819D02*
X146268713Y-81306200D01*
X146268713Y-81306200D02*
X146316332Y-81258580D01*
X140497285Y-81353819D02*
X141068713Y-81353819D01*
X140782999Y-81353819D02*
X140782999Y-80353819D01*
X140782999Y-80353819D02*
X140878237Y-80496676D01*
X140878237Y-80496676D02*
X140973475Y-80591914D01*
X140973475Y-80591914D02*
X141068713Y-80639533D01*
D12*
%TO.C,JP10*%
X164561800Y-103537800D02*
X163961800Y-103537800D01*
X163261800Y-104237800D02*
X163261800Y-105637800D01*
X165261800Y-105637800D02*
X165261800Y-104237800D01*
X163961800Y-106337800D02*
X164561800Y-106337800D01*
X165261800Y-104237800D02*
G75*
G03*
X164561800Y-103537800I-699999J1D01*
G01*
X163961800Y-103537800D02*
G75*
G03*
X163261800Y-104237800I-1J-699999D01*
G01*
X164561800Y-106337800D02*
G75*
G03*
X165261800Y-105637800I0J700000D01*
G01*
X163261800Y-105637800D02*
G75*
G03*
X163961800Y-106337800I700000J0D01*
G01*
%TO.C,C2*%
X138889052Y-131720000D02*
X137466548Y-131720000D01*
X138889052Y-129900000D02*
X137466548Y-129900000D01*
%TO.C,JP2*%
X148128000Y-86990000D02*
X147528000Y-86990000D01*
X146828000Y-87690000D02*
X146828000Y-89090000D01*
X148828000Y-89090000D02*
X148828000Y-87690000D01*
X147528000Y-89790000D02*
X148128000Y-89790000D01*
X148828000Y-87690000D02*
G75*
G03*
X148128000Y-86990000I-699999J1D01*
G01*
X147528000Y-86990000D02*
G75*
G03*
X146828000Y-87690000I-1J-699999D01*
G01*
X148128000Y-89790000D02*
G75*
G03*
X148828000Y-89090000I0J700000D01*
G01*
X146828000Y-89090000D02*
G75*
G03*
X147528000Y-89790000I700000J0D01*
G01*
%TO.C,JP1*%
X144988000Y-89790000D02*
X145588000Y-89790000D01*
X146288000Y-89090000D02*
X146288000Y-87690000D01*
X144288000Y-87690000D02*
X144288000Y-89090000D01*
X145588000Y-86990000D02*
X144988000Y-86990000D01*
X144288000Y-89090000D02*
G75*
G03*
X144988000Y-89790000I699999J-1D01*
G01*
X145588000Y-89790000D02*
G75*
G03*
X146288000Y-89090000I1J699999D01*
G01*
X144988000Y-86990000D02*
G75*
G03*
X144288000Y-87690000I0J-700000D01*
G01*
X146288000Y-87690000D02*
G75*
G03*
X145588000Y-86990000I-700000J0D01*
G01*
%TO.C,R1*%
X157947336Y-66628600D02*
X159401464Y-66628600D01*
X157947336Y-68448600D02*
X159401464Y-68448600D01*
%TO.C,R11*%
X144809800Y-64710264D02*
X144809800Y-63256136D01*
X146629800Y-64710264D02*
X146629800Y-63256136D01*
%TO.C,C7*%
X179296748Y-110225805D02*
X180719252Y-110225805D01*
X179296748Y-112045805D02*
X180719252Y-112045805D01*
%TO.C,JP29*%
X136181400Y-62311000D02*
X136181400Y-62911000D01*
X136831400Y-63611000D02*
X139631400Y-63611000D01*
X139631400Y-61611000D02*
X136831400Y-61611000D01*
X140281400Y-62911000D02*
X140281400Y-62311000D01*
X136881400Y-61611000D02*
G75*
G03*
X136181400Y-62311000I-1J-699999D01*
G01*
X136181400Y-62911000D02*
G75*
G03*
X136881400Y-63611000I699999J-1D01*
G01*
X140281400Y-62311000D02*
G75*
G03*
X139581400Y-61611000I-700000J0D01*
G01*
X139581400Y-63611000D02*
G75*
G03*
X140281400Y-62911000I0J700000D01*
G01*
%TO.C,JP3*%
X139908000Y-89536000D02*
X140508000Y-89536000D01*
X141208000Y-88836000D02*
X141208000Y-87436000D01*
X139208000Y-87436000D02*
X139208000Y-88836000D01*
X140508000Y-86736000D02*
X139908000Y-86736000D01*
X139208000Y-88836000D02*
G75*
G03*
X139908000Y-89536000I699999J-1D01*
G01*
X140508000Y-89536000D02*
G75*
G03*
X141208000Y-88836000I1J699999D01*
G01*
X139908000Y-86736000D02*
G75*
G03*
X139208000Y-87436000I0J-700000D01*
G01*
X141208000Y-87436000D02*
G75*
G03*
X140508000Y-86736000I-700000J0D01*
G01*
%TO.C,C8*%
X182168748Y-126227805D02*
X183591252Y-126227805D01*
X182168748Y-128047805D02*
X183591252Y-128047805D01*
%TO.C,C3*%
X182600548Y-68203400D02*
X184023052Y-68203400D01*
X182600548Y-70023400D02*
X184023052Y-70023400D01*
%TO.C,R10*%
X156810064Y-66035600D02*
X155355936Y-66035600D01*
X156810064Y-64215600D02*
X155355936Y-64215600D01*
%TO.C,R9*%
X156149064Y-71242600D02*
X154694936Y-71242600D01*
X156149064Y-69422600D02*
X154694936Y-69422600D01*
%TO.C,JP6*%
X132507000Y-94993000D02*
X131907000Y-94993000D01*
X131207000Y-95693000D02*
X131207000Y-97093000D01*
X133207000Y-97093000D02*
X133207000Y-95693000D01*
X131907000Y-97793000D02*
X132507000Y-97793000D01*
X133207000Y-95693000D02*
G75*
G03*
X132507000Y-94993000I-699999J1D01*
G01*
X131907000Y-94993000D02*
G75*
G03*
X131207000Y-95693000I-1J-699999D01*
G01*
X132507000Y-97793000D02*
G75*
G03*
X133207000Y-97093000I0J700000D01*
G01*
X131207000Y-97093000D02*
G75*
G03*
X131907000Y-97793000I700000J0D01*
G01*
%TO.C,C6*%
X175535000Y-117741553D02*
X175535000Y-119164057D01*
X173715000Y-117741553D02*
X173715000Y-119164057D01*
%TO.C,JP5*%
X134983000Y-79912000D02*
X134983000Y-81912000D01*
X134983000Y-81912000D02*
X139083000Y-81912000D01*
X139083000Y-79912000D02*
X134983000Y-79912000D01*
X139083000Y-81912000D02*
X139083000Y-79912000D01*
%TO.C,JP4*%
X141333000Y-79899000D02*
X141333000Y-81899000D01*
X141333000Y-81899000D02*
X145433000Y-81899000D01*
X145433000Y-79899000D02*
X141333000Y-79899000D01*
X145433000Y-81899000D02*
X145433000Y-79899000D01*
%TD*%
M02*
