M48
; DRILL file {KiCad 7.0.5-7.0.5~ubuntu20.04.1} date Di 18 Jul 2023 13:55:03
; FORMAT={-:-/ absolute / metric / decimal}
; #@! TF.CreationDate,2023-07-18T13:55:03+02:00
; #@! TF.GenerationSoftware,Kicad,Pcbnew,7.0.5-7.0.5~ubuntu20.04.1
; #@! TF.FileFunction,MixedPlating,1,2
FMAT,2
METRIC
; #@! TA.AperFunction,Plated,PTH,ViaDrill
T1C0.400
; #@! TA.AperFunction,Plated,PTH,ComponentDrill
T2C0.650
; #@! TA.AperFunction,Plated,PTH,ComponentDrill
T3C0.800
; #@! TA.AperFunction,Plated,PTH,ComponentDrill
T4C1.000
; #@! TA.AperFunction,NonPlated,NPTH,ComponentDrill
T5C3.200
%
G90
G05
T1
X131.445Y-87.706
X132.817Y-70.409
X133.477Y-93.218
X134.296Y-78.603
X135.001Y-72.96
X135.255Y-59.461
X135.306Y-57.404
X136.271Y-71.145
X136.398Y-87.935
X136.754Y-59.893
X136.931Y-62.611
X137.216Y-90.734
X137.897Y-50.775
X138.231Y-62.611
X138.633Y-106.578
X139.531Y-62.611
X140.081Y-73.025
X140.335Y-80.912
X141.163Y-61.928
X142.215Y-61.112
X143.383Y-61.112
X145.288Y-103.627
X145.796Y-63.946
X145.923Y-60.963
X146.878Y-78.704
X146.99Y-80.569
X147.066Y-61.925
X147.574Y-71.831
X147.828Y-93.56
X149.341Y-88.598
X149.55Y-63.946
X149.606Y-68.58
X150.089Y-91.211
X150.368Y-81.153
X150.876Y-61.798
X151.536Y-90.78
X151.687Y-105.816
X152.324Y-66.726
X152.552Y-63.957
X153.34Y-88.748
X153.441Y-104.216
X153.619Y-144.526
X154.108Y-108.966
X156.312Y-76.886
X159.211Y-130.607
X162.408Y-130.353
X164.059Y-68.605
X164.236Y-73.939
X164.359Y-76.53
X165.94Y-68.185
X167.322Y-66.175
X169.393Y-77.038
X169.521Y-78.54
X170.784Y-76.248
X171.917Y-76.341
X172.606Y-81.877
X174.41Y-76.618
X174.48Y-79.961
X174.498Y-78.867
X174.518Y-80.96
X174.545Y-81.969
X174.549Y-77.699
X174.625Y-119.928
X175.768Y-81.763
X175.844Y-93.421
X176.987Y-67.716
X178.187Y-121.302
X178.189Y-80.856
X178.257Y-79.807
X178.279Y-115.795
X179.451Y-120.153
X179.476Y-78.13
X180.429Y-122.693
X181.102Y-117.867
X181.837Y-69.037
X182.054Y-120.216
X182.372Y-115.327
X183.007Y-74.755
X183.464Y-80.569
X184.787Y-69.037
X185.42Y-78.384
X186.69Y-131.153
T2
X136.017Y-64.897
X137.922Y-64.897
X139.827Y-64.897
X141.732Y-64.897
X143.764Y-74.168
X146.939Y-74.168
X151.79Y-117.094
X151.79Y-118.364
X151.79Y-119.634
X151.79Y-120.904
X151.79Y-122.174
X151.79Y-123.444
X163.678Y-118.313
X163.678Y-119.583
X163.678Y-120.853
X163.678Y-122.123
X163.678Y-123.393
X163.678Y-124.663
T3
X106.68Y-50.8
X106.68Y-53.34
X106.68Y-55.88
X106.68Y-58.42
X106.68Y-60.96
X106.68Y-63.5
X106.68Y-66.04
X106.68Y-68.58
X106.68Y-71.12
X106.68Y-73.66
X106.68Y-76.2
X106.68Y-78.74
X106.68Y-81.28
X106.68Y-83.82
X106.68Y-86.36
X106.68Y-88.9
X106.68Y-91.44
X106.68Y-93.98
X106.68Y-96.52
X106.68Y-99.06
X106.68Y-101.6
X106.68Y-104.14
X106.68Y-106.68
X106.68Y-109.22
X106.68Y-111.76
X106.68Y-114.3
X106.68Y-116.84
X106.68Y-119.38
X106.68Y-121.92
X106.68Y-124.46
X106.68Y-127.0
X106.68Y-129.54
X106.68Y-132.08
X106.68Y-134.62
X106.68Y-137.16
X106.68Y-139.7
X109.22Y-50.8
X109.22Y-53.34
X109.22Y-55.88
X109.22Y-58.42
X109.22Y-60.96
X109.22Y-63.5
X109.22Y-66.04
X109.22Y-68.58
X109.22Y-71.12
X109.22Y-73.66
X109.22Y-76.2
X109.22Y-78.74
X109.22Y-81.28
X109.22Y-83.82
X109.22Y-86.36
X109.22Y-88.9
X109.22Y-91.44
X109.22Y-93.98
X109.22Y-96.52
X109.22Y-99.06
X109.22Y-101.6
X109.22Y-104.14
X109.22Y-106.68
X109.22Y-109.22
X109.22Y-111.76
X109.22Y-114.3
X109.22Y-116.84
X109.22Y-119.38
X109.22Y-121.92
X109.22Y-124.46
X109.22Y-127.0
X109.22Y-129.54
X109.22Y-132.08
X109.22Y-134.62
X109.22Y-137.16
X109.22Y-139.7
X111.76Y-50.8
X111.76Y-53.34
X111.76Y-55.88
X111.76Y-58.42
X111.76Y-60.96
X111.76Y-63.5
X111.76Y-66.04
X111.76Y-68.58
X111.76Y-71.12
X111.76Y-73.66
X111.76Y-76.2
X111.76Y-78.74
X111.76Y-81.28
X111.76Y-83.82
X111.76Y-86.36
X111.76Y-88.9
X111.76Y-91.44
X111.76Y-93.98
X111.76Y-96.52
X111.76Y-99.06
X111.76Y-101.6
X111.76Y-104.14
X111.76Y-106.68
X111.76Y-109.22
X111.76Y-111.76
X111.76Y-114.3
X111.76Y-116.84
X111.76Y-119.38
X111.76Y-121.92
X111.76Y-124.46
X111.76Y-127.0
X111.76Y-129.54
X111.76Y-132.08
X111.76Y-134.62
X111.76Y-137.16
X111.76Y-139.7
X114.3Y-50.8
X114.3Y-53.34
X114.3Y-55.88
X114.3Y-58.42
X114.3Y-60.96
X114.3Y-63.5
X114.3Y-66.04
X114.3Y-68.58
X114.3Y-71.12
X114.3Y-73.66
X114.3Y-76.2
X114.3Y-78.74
X114.3Y-81.28
X114.3Y-83.82
X114.3Y-86.36
X114.3Y-88.9
X114.3Y-91.44
X114.3Y-93.98
X114.3Y-96.52
X114.3Y-99.06
X114.3Y-101.6
X114.3Y-104.14
X114.3Y-106.68
X114.3Y-109.22
X114.3Y-111.76
X114.3Y-114.3
X114.3Y-116.84
X114.3Y-119.38
X114.3Y-121.92
X114.3Y-124.46
X114.3Y-127.0
X114.3Y-129.54
X114.3Y-132.08
X114.3Y-134.62
X114.3Y-137.16
X114.3Y-139.7
X116.84Y-50.8
X116.84Y-53.34
X116.84Y-55.88
X116.84Y-58.42
X116.84Y-60.96
X116.84Y-63.5
X116.84Y-66.04
X116.84Y-68.58
X116.84Y-71.12
X116.84Y-73.66
X116.84Y-76.2
X116.84Y-78.74
X116.84Y-81.28
X116.84Y-83.82
X116.84Y-86.36
X116.84Y-88.9
X116.84Y-91.44
X116.84Y-93.98
X116.84Y-96.52
X116.84Y-99.06
X116.84Y-101.6
X116.84Y-104.14
X116.84Y-106.68
X116.84Y-109.22
X116.84Y-111.76
X116.84Y-114.3
X116.84Y-116.84
X116.84Y-119.38
X116.84Y-121.92
X116.84Y-124.46
X116.84Y-127.0
X116.84Y-129.54
X116.84Y-132.08
X116.84Y-134.62
X116.84Y-137.16
X116.84Y-139.7
X119.38Y-50.8
X119.38Y-53.34
X119.38Y-55.88
X119.38Y-58.42
X119.38Y-60.96
X119.38Y-63.5
X119.38Y-66.04
X119.38Y-68.58
X119.38Y-71.12
X119.38Y-73.66
X119.38Y-76.2
X119.38Y-78.74
X119.38Y-81.28
X119.38Y-83.82
X119.38Y-86.36
X119.38Y-88.9
X119.38Y-91.44
X119.38Y-93.98
X119.38Y-96.52
X119.38Y-99.06
X119.38Y-101.6
X119.38Y-104.14
X119.38Y-106.68
X119.38Y-109.22
X119.38Y-111.76
X119.38Y-114.3
X119.38Y-116.84
X119.38Y-119.38
X119.38Y-121.92
X119.38Y-124.46
X119.38Y-127.0
X119.38Y-129.54
X119.38Y-132.08
X119.38Y-134.62
X119.38Y-137.16
X119.38Y-139.7
X121.92Y-50.8
X121.92Y-53.34
X121.92Y-55.88
X121.92Y-58.42
X121.92Y-60.96
X121.92Y-63.5
X121.92Y-66.04
X121.92Y-68.58
X121.92Y-71.12
X121.92Y-73.66
X121.92Y-76.2
X121.92Y-78.74
X121.92Y-81.28
X121.92Y-83.82
X121.92Y-86.36
X121.92Y-88.9
X121.92Y-91.44
X121.92Y-93.98
X121.92Y-96.52
X121.92Y-99.06
X121.92Y-101.6
X121.92Y-104.14
X121.92Y-106.68
X121.92Y-109.22
X121.92Y-111.76
X121.92Y-114.3
X121.92Y-116.84
X121.92Y-119.38
X121.92Y-121.92
X121.92Y-124.46
X121.92Y-127.0
X121.92Y-129.54
X121.92Y-132.08
X121.92Y-134.62
X121.92Y-137.16
X121.92Y-139.7
X124.46Y-50.8
X124.46Y-53.34
X124.46Y-55.88
X124.46Y-58.42
X124.46Y-60.96
X124.46Y-63.5
X124.46Y-66.04
X124.46Y-68.58
X124.46Y-71.12
X124.46Y-73.66
X124.46Y-76.2
X124.46Y-78.74
X124.46Y-81.28
X124.46Y-83.82
X124.46Y-86.36
X124.46Y-88.9
X124.46Y-91.44
X124.46Y-93.98
X124.46Y-96.52
X124.46Y-99.06
X124.46Y-101.6
X124.46Y-104.14
X124.46Y-106.68
X124.46Y-109.22
X124.46Y-111.76
X124.46Y-114.3
X124.46Y-116.84
X124.46Y-119.38
X124.46Y-121.92
X124.46Y-124.46
X124.46Y-127.0
X124.46Y-129.54
X124.46Y-132.08
X124.46Y-134.62
X124.46Y-137.16
X124.46Y-139.7
X127.0Y-50.8
X127.0Y-53.34
X127.0Y-55.88
X127.0Y-58.42
X127.0Y-60.96
X127.0Y-63.5
X127.0Y-66.04
X127.0Y-68.58
X127.0Y-71.12
X127.0Y-73.66
X127.0Y-76.2
X127.0Y-78.74
X127.0Y-81.28
X127.0Y-83.82
X127.0Y-86.36
X127.0Y-88.9
X127.0Y-91.44
X127.0Y-93.98
X127.0Y-96.52
X127.0Y-99.06
X127.0Y-101.6
X127.0Y-104.14
X127.0Y-106.68
X127.0Y-109.22
X127.0Y-111.76
X127.0Y-114.3
X127.0Y-116.84
X127.0Y-119.38
X127.0Y-121.92
X127.0Y-124.46
X127.0Y-127.0
X127.0Y-129.54
X127.0Y-132.08
X127.0Y-134.62
X127.0Y-137.16
X127.0Y-139.7
X129.54Y-50.8
X129.54Y-53.34
X129.54Y-55.88
X129.54Y-58.42
X129.54Y-60.96
X129.54Y-63.5
X129.54Y-66.04
X129.54Y-68.58
X129.54Y-71.12
X129.54Y-73.66
X129.54Y-76.2
X129.54Y-78.74
X129.54Y-81.28
X129.54Y-83.82
X129.54Y-86.36
X129.54Y-88.9
X129.54Y-91.44
X129.54Y-93.98
X129.54Y-96.52
X129.54Y-99.06
X129.54Y-101.6
X129.54Y-104.14
X129.54Y-106.68
X129.54Y-109.22
X129.54Y-111.76
X129.54Y-114.3
X129.54Y-116.84
X129.54Y-119.38
X129.54Y-121.92
X129.54Y-124.46
X129.54Y-127.0
X129.54Y-129.54
X129.54Y-132.08
X129.54Y-134.62
X129.54Y-137.16
X129.54Y-139.7
X135.128Y-84.455
X135.128Y-99.695
X137.668Y-84.455
X137.668Y-99.695
X140.208Y-84.455
X140.208Y-99.695
X142.748Y-84.455
X142.748Y-99.695
X145.288Y-84.455
X145.288Y-99.695
X147.828Y-84.455
X147.828Y-99.695
X150.368Y-84.455
X150.368Y-99.695
X152.908Y-84.455
X152.908Y-99.695
X155.448Y-84.455
X155.448Y-99.695
X157.988Y-84.455
X157.988Y-99.695
X160.528Y-84.455
X160.528Y-99.695
X163.068Y-84.455
X163.068Y-99.695
X165.608Y-84.455
X165.608Y-99.695
X168.148Y-84.455
X168.148Y-99.695
X170.688Y-84.455
X170.688Y-99.695
X173.228Y-84.455
X173.228Y-99.695
X175.768Y-84.455
X175.768Y-99.695
X178.308Y-84.455
X178.308Y-99.695
X180.848Y-84.455
X180.848Y-99.695
X183.388Y-84.455
X183.388Y-99.695
T4
X100.297Y-90.266
X100.297Y-92.806
X100.297Y-95.346
X100.297Y-97.886
X100.297Y-100.426
X102.837Y-90.266
X102.837Y-92.806
X102.837Y-95.346
X102.837Y-97.886
X102.837Y-100.426
X106.68Y-48.26
X106.68Y-142.24
X109.22Y-48.26
X109.22Y-142.24
X111.76Y-48.26
X111.76Y-142.24
X114.3Y-48.26
X114.3Y-142.24
X116.84Y-48.26
X116.84Y-142.24
X119.38Y-48.26
X119.38Y-142.24
X121.92Y-48.26
X121.92Y-142.24
X124.46Y-48.26
X124.46Y-142.24
X127.0Y-48.26
X127.0Y-142.24
X129.54Y-48.26
X129.54Y-142.24
X132.08Y-48.26
X132.08Y-142.24
X134.62Y-48.26
X134.62Y-142.24
X139.7Y-48.303
X139.7Y-50.843
X139.7Y-54.303
X139.7Y-56.843
X139.7Y-133.849
X139.7Y-136.389
X139.7Y-139.849
X139.7Y-142.389
X142.24Y-48.303
X142.24Y-50.843
X142.24Y-54.303
X142.24Y-56.843
X142.24Y-133.849
X142.24Y-136.389
X142.24Y-139.849
X142.24Y-142.389
X144.78Y-48.303
X144.78Y-50.843
X144.78Y-54.303
X144.78Y-56.843
X144.78Y-133.849
X144.78Y-136.389
X144.78Y-139.849
X144.78Y-142.389
X147.32Y-48.303
X147.32Y-50.843
X147.32Y-54.303
X147.32Y-56.843
X147.32Y-133.849
X147.32Y-136.389
X147.32Y-139.849
X147.32Y-142.389
X149.86Y-48.303
X149.86Y-50.843
X149.86Y-54.303
X149.86Y-56.843
X149.86Y-133.849
X149.86Y-136.389
X149.86Y-139.849
X149.86Y-142.389
X152.4Y-48.303
X152.4Y-50.843
X152.4Y-54.303
X152.4Y-56.843
X152.4Y-133.849
X152.4Y-136.389
X152.4Y-139.849
X152.4Y-142.389
X154.94Y-48.303
X154.94Y-50.843
X154.94Y-54.303
X154.94Y-56.843
X154.94Y-133.849
X154.94Y-136.389
X154.94Y-139.849
X154.94Y-142.389
X157.48Y-48.303
X157.48Y-50.843
X157.48Y-54.303
X157.48Y-56.843
X157.48Y-133.849
X157.48Y-136.389
X157.48Y-139.849
X157.48Y-142.389
X160.02Y-48.303
X160.02Y-50.843
X160.02Y-54.303
X160.02Y-56.843
X160.02Y-133.849
X160.02Y-136.389
X160.02Y-139.849
X160.02Y-142.389
X162.56Y-48.303
X162.56Y-50.843
X162.56Y-54.303
X162.56Y-56.843
X162.56Y-133.849
X162.56Y-136.389
X162.56Y-139.849
X162.56Y-142.389
X165.1Y-48.303
X165.1Y-50.843
X165.1Y-54.303
X165.1Y-56.843
X165.1Y-133.849
X165.1Y-136.389
X165.1Y-139.849
X165.1Y-142.389
X167.64Y-48.303
X167.64Y-50.843
X167.64Y-54.303
X167.64Y-56.843
X167.64Y-107.529
X167.64Y-110.069
X167.64Y-112.609
X167.64Y-115.149
X167.64Y-117.689
X167.64Y-120.229
X167.64Y-122.769
X167.64Y-125.309
X167.64Y-127.849
X167.64Y-130.389
X167.64Y-133.849
X167.64Y-136.389
X167.64Y-139.849
X167.64Y-142.389
X170.18Y-48.303
X170.18Y-50.843
X170.18Y-54.303
X170.18Y-56.843
X170.18Y-107.529
X170.18Y-130.389
X170.18Y-133.849
X170.18Y-136.389
X170.18Y-139.849
X170.18Y-142.389
X172.72Y-48.303
X172.72Y-50.843
X172.72Y-54.303
X172.72Y-56.843
X172.72Y-107.529
X172.72Y-130.389
X172.72Y-133.849
X172.72Y-136.389
X172.72Y-139.849
X172.72Y-142.389
X175.26Y-48.303
X175.26Y-50.843
X175.26Y-54.303
X175.26Y-56.843
X175.26Y-107.529
X175.26Y-130.389
X175.26Y-133.849
X175.26Y-136.389
X175.26Y-139.849
X175.26Y-142.389
X177.8Y-48.303
X177.8Y-50.843
X177.8Y-54.303
X177.8Y-56.843
X177.8Y-107.529
X177.8Y-130.389
X177.8Y-133.849
X177.8Y-136.389
X177.8Y-139.849
X177.8Y-142.389
X180.34Y-48.303
X180.34Y-50.843
X180.34Y-54.303
X180.34Y-56.843
X180.34Y-107.529
X180.34Y-130.389
X180.34Y-133.849
X180.34Y-136.389
X180.34Y-139.849
X180.34Y-142.389
X182.88Y-48.303
X182.88Y-50.843
X182.88Y-54.303
X182.88Y-56.843
X182.88Y-107.529
X182.88Y-130.389
X182.88Y-133.849
X182.88Y-136.389
X182.88Y-139.849
X182.88Y-142.389
X185.42Y-48.303
X185.42Y-50.843
X185.42Y-54.303
X185.42Y-56.843
X185.42Y-107.529
X185.42Y-130.389
X185.42Y-133.849
X185.42Y-136.389
X185.42Y-139.849
X185.42Y-142.389
X187.96Y-48.303
X187.96Y-50.843
X187.96Y-54.303
X187.96Y-56.843
X187.96Y-107.529
X187.96Y-110.069
X187.96Y-112.609
X187.96Y-115.149
X187.96Y-117.689
X187.96Y-120.229
X187.96Y-122.769
X187.96Y-125.309
X187.96Y-127.849
X187.96Y-130.389
X187.96Y-133.849
X187.96Y-136.389
X187.96Y-139.849
X187.96Y-142.389
T5
X101.34Y-49.346
X101.34Y-141.346
X193.34Y-49.346
X193.34Y-141.346
T0
M30
