%TF.GenerationSoftware,KiCad,Pcbnew,7.0.9-7.0.9~ubuntu20.04.1*%
%TF.CreationDate,2023-12-27T13:11:39+01:00*%
%TF.ProjectId,6303X_SDIP_Addon,36333033-585f-4534-9449-505f4164646f,rev?*%
%TF.SameCoordinates,Original*%
%TF.FileFunction,Soldermask,Top*%
%TF.FilePolarity,Negative*%
%FSLAX46Y46*%
G04 Gerber Fmt 4.6, Leading zero omitted, Abs format (unit mm)*
G04 Created by KiCad (PCBNEW 7.0.9-7.0.9~ubuntu20.04.1) date 2023-12-27 13:11:39*
%MOMM*%
%LPD*%
G01*
G04 APERTURE LIST*
%ADD10R,1.700000X1.700000*%
%ADD11O,1.700000X1.700000*%
%ADD12R,1.350000X1.350000*%
%ADD13R,1.600000X1.600000*%
%ADD14O,1.600000X1.600000*%
%ADD15O,1.500000X2.000000*%
G04 APERTURE END LIST*
D10*
%TO.C,JP1*%
X162052000Y-43942000D03*
D11*
X162052000Y-46482000D03*
%TD*%
D12*
%TO.C,J4*%
X183896000Y-40640000D03*
%TD*%
D13*
%TO.C,U3*%
X173736000Y-52730400D03*
D14*
X176276000Y-52730400D03*
X178816000Y-52730400D03*
X181356000Y-52730400D03*
X183896000Y-52730400D03*
X186436000Y-52730400D03*
X188976000Y-52730400D03*
X191516000Y-52730400D03*
X194056000Y-52730400D03*
X196596000Y-52730400D03*
X199136000Y-52730400D03*
X201676000Y-52730400D03*
X204216000Y-52730400D03*
X206756000Y-52730400D03*
X209296000Y-52730400D03*
X211836000Y-52730400D03*
X214376000Y-52730400D03*
X216916000Y-52730400D03*
X219456000Y-52730400D03*
X221996000Y-52730400D03*
X221996000Y-37490400D03*
X219456000Y-37490400D03*
X216916000Y-37490400D03*
X214376000Y-37490400D03*
X211836000Y-37490400D03*
X209296000Y-37490400D03*
X206756000Y-37490400D03*
X204216000Y-37490400D03*
X201676000Y-37490400D03*
X199136000Y-37490400D03*
X196596000Y-37490400D03*
X194056000Y-37490400D03*
X191516000Y-37490400D03*
X188976000Y-37490400D03*
X186436000Y-37490400D03*
X183896000Y-37490400D03*
X181356000Y-37490400D03*
X178816000Y-37490400D03*
X176276000Y-37490400D03*
X173736000Y-37490400D03*
%TD*%
D10*
%TO.C,J1*%
X166878000Y-83566000D03*
D11*
X164338000Y-83566000D03*
X166878000Y-81026000D03*
X164338000Y-81026000D03*
X166878000Y-78486000D03*
X164338000Y-78486000D03*
X166878000Y-75946000D03*
X164338000Y-75946000D03*
X166878000Y-73406000D03*
X164338000Y-73406000D03*
X166878000Y-70866000D03*
X164338000Y-70866000D03*
X166878000Y-68326000D03*
X164338000Y-68326000D03*
X166878000Y-65786000D03*
X164338000Y-65786000D03*
X166878000Y-63246000D03*
X164338000Y-63246000D03*
X166878000Y-60706000D03*
X164338000Y-60706000D03*
X166878000Y-58166000D03*
X164338000Y-58166000D03*
X166878000Y-55626000D03*
X164338000Y-55626000D03*
X166878000Y-53086000D03*
X164338000Y-53086000D03*
%TD*%
D15*
%TO.C,U2*%
X174442000Y-68550000D03*
X176220000Y-68550000D03*
X177998000Y-68550000D03*
X179776000Y-68550000D03*
X181554000Y-68550000D03*
X183332000Y-68550000D03*
X185110000Y-68550000D03*
X186888000Y-68550000D03*
X188666000Y-68550000D03*
X190444000Y-68550000D03*
X192222000Y-68550000D03*
X194000000Y-68550000D03*
X195778000Y-68550000D03*
X197556000Y-68550000D03*
X199334000Y-68550000D03*
X201112000Y-68550000D03*
X202890000Y-68550000D03*
X204668000Y-68550000D03*
X206446000Y-68550000D03*
X208224000Y-68550000D03*
X210002000Y-68550000D03*
X211780000Y-68550000D03*
X213558000Y-68550000D03*
X215336000Y-68550000D03*
X217114000Y-68550000D03*
X218892000Y-68550000D03*
X220670000Y-68550000D03*
X222448000Y-68550000D03*
X224226000Y-68550000D03*
X226004000Y-68550000D03*
X227782000Y-68550000D03*
X229560000Y-68550000D03*
X229560000Y-49500000D03*
X227782000Y-49500000D03*
X226004000Y-49500000D03*
X224226000Y-49500000D03*
X222448000Y-49500000D03*
X220670000Y-49500000D03*
X218892000Y-49500000D03*
X217114000Y-49500000D03*
X215336000Y-49500000D03*
X213558000Y-49500000D03*
X211780000Y-49500000D03*
X210002000Y-49500000D03*
X208224000Y-49500000D03*
X206446000Y-49500000D03*
X204668000Y-49500000D03*
X202890000Y-49500000D03*
X201112000Y-49500000D03*
X199334000Y-49500000D03*
X197556000Y-49500000D03*
X195778000Y-49500000D03*
X194000000Y-49500000D03*
X192222000Y-49500000D03*
X190444000Y-49500000D03*
X188666000Y-49500000D03*
X186888000Y-49500000D03*
X185110000Y-49500000D03*
X183332000Y-49500000D03*
X181554000Y-49500000D03*
X179776000Y-49500000D03*
X177998000Y-49500000D03*
X176220000Y-49500000D03*
X174442000Y-49500000D03*
%TD*%
D10*
%TO.C,JP2*%
X165709600Y-43942000D03*
D11*
X165709600Y-46482000D03*
%TD*%
D12*
%TO.C,J7*%
X183134000Y-45974000D03*
%TD*%
%TO.C,J6*%
X183896000Y-55372000D03*
%TD*%
%TO.C,J9*%
X179324000Y-45974000D03*
%TD*%
%TO.C,J8*%
X176276000Y-45974000D03*
%TD*%
%TO.C,J3*%
X178816000Y-55372000D03*
%TD*%
M02*
