%TF.GenerationSoftware,KiCad,Pcbnew,7.0.9-7.0.9~ubuntu20.04.1*%
%TF.CreationDate,2023-12-27T13:11:39+01:00*%
%TF.ProjectId,6303X_SDIP_Addon,36333033-585f-4534-9449-505f4164646f,rev?*%
%TF.SameCoordinates,Original*%
%TF.FileFunction,Copper,L1,Top*%
%TF.FilePolarity,Positive*%
%FSLAX46Y46*%
G04 Gerber Fmt 4.6, Leading zero omitted, Abs format (unit mm)*
G04 Created by KiCad (PCBNEW 7.0.9-7.0.9~ubuntu20.04.1) date 2023-12-27 13:11:39*
%MOMM*%
%LPD*%
G01*
G04 APERTURE LIST*
%TA.AperFunction,ComponentPad*%
%ADD10R,1.700000X1.700000*%
%TD*%
%TA.AperFunction,ComponentPad*%
%ADD11O,1.700000X1.700000*%
%TD*%
%TA.AperFunction,ComponentPad*%
%ADD12R,1.350000X1.350000*%
%TD*%
%TA.AperFunction,ComponentPad*%
%ADD13R,1.600000X1.600000*%
%TD*%
%TA.AperFunction,ComponentPad*%
%ADD14O,1.600000X1.600000*%
%TD*%
%TA.AperFunction,ComponentPad*%
%ADD15O,1.500000X2.000000*%
%TD*%
%TA.AperFunction,ViaPad*%
%ADD16C,0.800000*%
%TD*%
%TA.AperFunction,Conductor*%
%ADD17C,0.400000*%
%TD*%
%TA.AperFunction,Conductor*%
%ADD18C,0.250000*%
%TD*%
G04 APERTURE END LIST*
D10*
%TO.P,JP1,1,A*%
%TO.N,GND*%
X162052000Y-43942000D03*
D11*
%TO.P,JP1,2,B*%
%TO.N,/MP0*%
X162052000Y-46482000D03*
%TD*%
D12*
%TO.P,J4,1,Pin_1*%
%TO.N,Net-(J4-Pin_1)*%
X183896000Y-40640000D03*
%TD*%
D13*
%TO.P,U3,1,VSS*%
%TO.N,GND*%
X173736000Y-52730400D03*
D14*
%TO.P,U3,2,~{HALT}*%
%TO.N,/~{HALT}*%
X176276000Y-52730400D03*
%TO.P,U3,3,MR*%
%TO.N,Net-(J3-Pin_1)*%
X178816000Y-52730400D03*
%TO.P,U3,4,~{IRQ}*%
%TO.N,/~{IRQ1}*%
X181356000Y-52730400D03*
%TO.P,U3,5,VMA*%
%TO.N,Net-(J6-Pin_1)*%
X183896000Y-52730400D03*
%TO.P,U3,6,~{NMI}*%
%TO.N,/~{NMI}*%
X186436000Y-52730400D03*
%TO.P,U3,7,BA*%
%TO.N,/BA*%
X188976000Y-52730400D03*
%TO.P,U3,8,VCC*%
%TO.N,+5V*%
X191516000Y-52730400D03*
%TO.P,U3,9,A0*%
%TO.N,/A0*%
X194056000Y-52730400D03*
%TO.P,U3,10,A1*%
%TO.N,/A1*%
X196596000Y-52730400D03*
%TO.P,U3,11,A2*%
%TO.N,/A2*%
X199136000Y-52730400D03*
%TO.P,U3,12,A3*%
%TO.N,/A3*%
X201676000Y-52730400D03*
%TO.P,U3,13,A4*%
%TO.N,/A4*%
X204216000Y-52730400D03*
%TO.P,U3,14,A5*%
%TO.N,/A5*%
X206756000Y-52730400D03*
%TO.P,U3,15,A6*%
%TO.N,/A6*%
X209296000Y-52730400D03*
%TO.P,U3,16,A7*%
%TO.N,/A7*%
X211836000Y-52730400D03*
%TO.P,U3,17,A8*%
%TO.N,/A8*%
X214376000Y-52730400D03*
%TO.P,U3,18,A9*%
%TO.N,/A9*%
X216916000Y-52730400D03*
%TO.P,U3,19,A10*%
%TO.N,/A10*%
X219456000Y-52730400D03*
%TO.P,U3,20,A11*%
%TO.N,/A11*%
X221996000Y-52730400D03*
%TO.P,U3,21,VSS*%
%TO.N,GND*%
X221996000Y-37490400D03*
%TO.P,U3,22,A12*%
%TO.N,/A12*%
X219456000Y-37490400D03*
%TO.P,U3,23,A13*%
%TO.N,/A13*%
X216916000Y-37490400D03*
%TO.P,U3,24,A14*%
%TO.N,/A14*%
X214376000Y-37490400D03*
%TO.P,U3,25,A15*%
%TO.N,/A15*%
X211836000Y-37490400D03*
%TO.P,U3,26,D7*%
%TO.N,/D7*%
X209296000Y-37490400D03*
%TO.P,U3,27,D6*%
%TO.N,/D6*%
X206756000Y-37490400D03*
%TO.P,U3,28,D5*%
%TO.N,/D5*%
X204216000Y-37490400D03*
%TO.P,U3,29,D4*%
%TO.N,/D4*%
X201676000Y-37490400D03*
%TO.P,U3,30,D3*%
%TO.N,/D3*%
X199136000Y-37490400D03*
%TO.P,U3,31,D2*%
%TO.N,/D2*%
X196596000Y-37490400D03*
%TO.P,U3,32,D1*%
%TO.N,/D1*%
X194056000Y-37490400D03*
%TO.P,U3,33,D0*%
%TO.N,/D0*%
X191516000Y-37490400D03*
%TO.P,U3,34,R/~{W}*%
%TO.N,/R{slash}~{W}*%
X188976000Y-37490400D03*
%TO.P,U3,35,VCC_STANDBY*%
%TO.N,+5C*%
X186436000Y-37490400D03*
%TO.P,U3,36,RE*%
%TO.N,Net-(J4-Pin_1)*%
X183896000Y-37490400D03*
%TO.P,U3,37,E*%
%TO.N,/PHI2*%
X181356000Y-37490400D03*
%TO.P,U3,38,XTAL*%
%TO.N,GND*%
X178816000Y-37490400D03*
%TO.P,U3,39,EXTAL*%
%TO.N,/CPUCLK*%
X176276000Y-37490400D03*
%TO.P,U3,40,~{RESET}*%
%TO.N,/~{RST}*%
X173736000Y-37490400D03*
%TD*%
D10*
%TO.P,J1,1,Pin_1*%
%TO.N,GND*%
X166878000Y-83566000D03*
D11*
%TO.P,J1,2,Pin_2*%
%TO.N,/P67*%
X164338000Y-83566000D03*
%TO.P,J1,3,Pin_3*%
%TO.N,/P66*%
X166878000Y-81026000D03*
%TO.P,J1,4,Pin_4*%
%TO.N,/P65*%
X164338000Y-81026000D03*
%TO.P,J1,5,Pin_5*%
%TO.N,/P64*%
X166878000Y-78486000D03*
%TO.P,J1,6,Pin_6*%
%TO.N,/P63*%
X164338000Y-78486000D03*
%TO.P,J1,7,Pin_7*%
%TO.N,/P62*%
X166878000Y-75946000D03*
%TO.P,J1,8,Pin_8*%
%TO.N,/P61*%
X164338000Y-75946000D03*
%TO.P,J1,9,Pin_9*%
%TO.N,/P60*%
X166878000Y-73406000D03*
%TO.P,J1,10,Pin_10*%
%TO.N,/P57*%
X164338000Y-73406000D03*
%TO.P,J1,11,Pin_11*%
%TO.N,/P56*%
X166878000Y-70866000D03*
%TO.P,J1,12,Pin_12*%
%TO.N,/P55*%
X164338000Y-70866000D03*
%TO.P,J1,13,Pin_13*%
%TO.N,/P54*%
X166878000Y-68326000D03*
%TO.P,J1,14,Pin_14*%
%TO.N,/P53*%
X164338000Y-68326000D03*
%TO.P,J1,15,Pin_15*%
%TO.N,/P52*%
X166878000Y-65786000D03*
%TO.P,J1,16,Pin_16*%
%TO.N,/P51*%
X164338000Y-65786000D03*
%TO.P,J1,17,Pin_17*%
%TO.N,/~{IRQ1}*%
X166878000Y-63246000D03*
%TO.P,J1,18,Pin_18*%
%TO.N,/P27*%
X164338000Y-63246000D03*
%TO.P,J1,19,Pin_19*%
%TO.N,/P26*%
X166878000Y-60706000D03*
%TO.P,J1,20,Pin_20*%
%TO.N,/P25*%
X164338000Y-60706000D03*
%TO.P,J1,21,Pin_21*%
%TO.N,/P24*%
X166878000Y-58166000D03*
%TO.P,J1,22,Pin_22*%
%TO.N,/P23*%
X164338000Y-58166000D03*
%TO.P,J1,23,Pin_23*%
%TO.N,/P22*%
X166878000Y-55626000D03*
%TO.P,J1,24,Pin_24*%
%TO.N,/P21*%
X164338000Y-55626000D03*
%TO.P,J1,25,Pin_25*%
%TO.N,/P20*%
X166878000Y-53086000D03*
%TO.P,J1,26,Pin_26*%
%TO.N,+5V*%
X164338000Y-53086000D03*
%TD*%
D15*
%TO.P,U2,1,GND*%
%TO.N,GND*%
X174442000Y-68550000D03*
%TO.P,U2,2,XTAL*%
%TO.N,unconnected-(U2-XTAL-Pad2)*%
X176220000Y-68550000D03*
%TO.P,U2,3,EXTAL/CLK*%
%TO.N,/CPUCLK*%
X177998000Y-68550000D03*
%TO.P,U2,4,MP0*%
%TO.N,/MP0*%
X179776000Y-68550000D03*
%TO.P,U2,5,MP1*%
%TO.N,/MP1*%
X181554000Y-68550000D03*
%TO.P,U2,6,~{RST}*%
%TO.N,/~{RST}*%
X183332000Y-68550000D03*
%TO.P,U2,7,~{STBY}*%
%TO.N,/~{HALT}*%
X185110000Y-68550000D03*
%TO.P,U2,8,~{NMI}*%
%TO.N,/~{NMI}*%
X186888000Y-68550000D03*
%TO.P,U2,9,P20/Tin*%
%TO.N,/P20*%
X188666000Y-68550000D03*
%TO.P,U2,10,P21/Tout1*%
%TO.N,/P21*%
X190444000Y-68550000D03*
%TO.P,U2,11,P22/SCLK*%
%TO.N,/P22*%
X192222000Y-68550000D03*
%TO.P,U2,12,P23/RX*%
%TO.N,/P23*%
X194000000Y-68550000D03*
%TO.P,U2,13,P24/TX*%
%TO.N,/P24*%
X195778000Y-68550000D03*
%TO.P,U2,14,P25/Tout2*%
%TO.N,/P25*%
X197556000Y-68550000D03*
%TO.P,U2,15,P26/Tout3*%
%TO.N,/P26*%
X199334000Y-68550000D03*
%TO.P,U2,16,P27/Tclk*%
%TO.N,/P27*%
X201112000Y-68550000D03*
%TO.P,U2,17,P50/~{IRQ1}*%
%TO.N,/~{IRQ1}*%
X202890000Y-68550000D03*
%TO.P,U2,18,P51/~{IRQ2}*%
%TO.N,/P51*%
X204668000Y-68550000D03*
%TO.P,U2,19,P52/MR*%
%TO.N,/P52*%
X206446000Y-68550000D03*
%TO.P,U2,20,P53/~{HALT}*%
%TO.N,/P53*%
X208224000Y-68550000D03*
%TO.P,U2,21,P54*%
%TO.N,/P54*%
X210002000Y-68550000D03*
%TO.P,U2,22,P55*%
%TO.N,/P55*%
X211780000Y-68550000D03*
%TO.P,U2,23,P56*%
%TO.N,/P56*%
X213558000Y-68550000D03*
%TO.P,U2,24,P57*%
%TO.N,/P57*%
X215336000Y-68550000D03*
%TO.P,U2,25,P60*%
%TO.N,/P60*%
X217114000Y-68550000D03*
%TO.P,U2,26,P61*%
%TO.N,/P61*%
X218892000Y-68550000D03*
%TO.P,U2,27,P62*%
%TO.N,/P62*%
X220670000Y-68550000D03*
%TO.P,U2,28,P63*%
%TO.N,/P63*%
X222448000Y-68550000D03*
%TO.P,U2,29,P64*%
%TO.N,/P64*%
X224226000Y-68550000D03*
%TO.P,U2,30,P65*%
%TO.N,/P65*%
X226004000Y-68550000D03*
%TO.P,U2,31,P66*%
%TO.N,/P66*%
X227782000Y-68550000D03*
%TO.P,U2,32,P67*%
%TO.N,/P67*%
X229560000Y-68550000D03*
%TO.P,U2,33,Vcc*%
%TO.N,+5V*%
X229560000Y-49500000D03*
%TO.P,U2,34,A15*%
%TO.N,/A15*%
X227782000Y-49500000D03*
%TO.P,U2,35,A14*%
%TO.N,/A14*%
X226004000Y-49500000D03*
%TO.P,U2,36,A13*%
%TO.N,/A13*%
X224226000Y-49500000D03*
%TO.P,U2,37,A12*%
%TO.N,/A12*%
X222448000Y-49500000D03*
%TO.P,U2,38,A11*%
%TO.N,/A11*%
X220670000Y-49500000D03*
%TO.P,U2,39,A10*%
%TO.N,/A10*%
X218892000Y-49500000D03*
%TO.P,U2,40,A9*%
%TO.N,/A9*%
X217114000Y-49500000D03*
%TO.P,U2,41,A8*%
%TO.N,/A8*%
X215336000Y-49500000D03*
%TO.P,U2,42,GND*%
%TO.N,GND*%
X213558000Y-49500000D03*
%TO.P,U2,43,A7*%
%TO.N,/A7*%
X211780000Y-49500000D03*
%TO.P,U2,44,A6*%
%TO.N,/A6*%
X210002000Y-49500000D03*
%TO.P,U2,45,A5*%
%TO.N,/A5*%
X208224000Y-49500000D03*
%TO.P,U2,46,A4*%
%TO.N,/A4*%
X206446000Y-49500000D03*
%TO.P,U2,47,A3*%
%TO.N,/A3*%
X204668000Y-49500000D03*
%TO.P,U2,48,A2*%
%TO.N,/A2*%
X202890000Y-49500000D03*
%TO.P,U2,49,A1*%
%TO.N,/A1*%
X201112000Y-49500000D03*
%TO.P,U2,50,A0*%
%TO.N,/A0*%
X199334000Y-49500000D03*
%TO.P,U2,51,D7*%
%TO.N,/D7*%
X197556000Y-49500000D03*
%TO.P,U2,52,D6*%
%TO.N,/D6*%
X195778000Y-49500000D03*
%TO.P,U2,53,D5*%
%TO.N,/D5*%
X194000000Y-49500000D03*
%TO.P,U2,54,D4*%
%TO.N,/D4*%
X192222000Y-49500000D03*
%TO.P,U2,55,D3*%
%TO.N,/D3*%
X190444000Y-49500000D03*
%TO.P,U2,56,D2*%
%TO.N,/D2*%
X188666000Y-49500000D03*
%TO.P,U2,57,D1*%
%TO.N,/D1*%
X186888000Y-49500000D03*
%TO.P,U2,58,D0*%
%TO.N,/D0*%
X185110000Y-49500000D03*
%TO.P,U2,59,BA*%
%TO.N,/BA*%
X183332000Y-49500000D03*
%TO.P,U2,60,~{LIR}*%
%TO.N,/~{LIR}*%
X181554000Y-49500000D03*
%TO.P,U2,61,R/~{W}*%
%TO.N,/R{slash}~{W}*%
X179776000Y-49500000D03*
%TO.P,U2,62,~{WR}*%
%TO.N,/~{WR}*%
X177998000Y-49500000D03*
%TO.P,U2,63,~{RD}*%
%TO.N,/~{RD}*%
X176220000Y-49500000D03*
%TO.P,U2,64,E*%
%TO.N,/PHI2*%
X174442000Y-49500000D03*
%TD*%
D10*
%TO.P,JP2,1,A*%
%TO.N,GND*%
X165709600Y-43942000D03*
D11*
%TO.P,JP2,2,B*%
%TO.N,/MP1*%
X165709600Y-46482000D03*
%TD*%
D12*
%TO.P,J7,1,Pin_1*%
%TO.N,/~{LIR}*%
X183134000Y-45974000D03*
%TD*%
%TO.P,J6,1,Pin_1*%
%TO.N,Net-(J6-Pin_1)*%
X183896000Y-55372000D03*
%TD*%
%TO.P,J9,1,Pin_1*%
%TO.N,/~{WR}*%
X179324000Y-45974000D03*
%TD*%
%TO.P,J8,1,Pin_1*%
%TO.N,/~{RD}*%
X176276000Y-45974000D03*
%TD*%
%TO.P,J3,1,Pin_1*%
%TO.N,Net-(J3-Pin_1)*%
X178816000Y-55372000D03*
%TD*%
D16*
%TO.N,/P21*%
X187706000Y-66548000D03*
%TO.N,/P22*%
X187706000Y-65278000D03*
%TO.N,/~{IRQ1}*%
X181356000Y-62992000D03*
%TO.N,/~{RST}*%
X169672000Y-47752000D03*
%TO.N,/P23*%
X187706000Y-64008000D03*
%TO.N,/P24*%
X187772216Y-62831644D03*
%TO.N,/MP0*%
X170688000Y-45466000D03*
%TO.N,/P25*%
X187948584Y-61274276D03*
%TO.N,/P26*%
X187686999Y-60198000D03*
%TO.N,/P27*%
X187165997Y-61974321D03*
%TD*%
D17*
%TO.N,+5V*%
X225298000Y-54356000D02*
X229560000Y-50094000D01*
X191516000Y-52730400D02*
X193141600Y-54356000D01*
X193141600Y-54356000D02*
X225298000Y-54356000D01*
X229560000Y-50094000D02*
X229560000Y-49500000D01*
%TO.N,GND*%
X163322000Y-84836000D02*
X160528000Y-82042000D01*
X178816000Y-36576000D02*
X178816000Y-37490400D01*
X174442000Y-53436400D02*
X173736000Y-52730400D01*
X178054000Y-35814000D02*
X178816000Y-36576000D01*
X174442000Y-68550000D02*
X174442000Y-53436400D01*
D18*
X218041000Y-37001796D02*
X218041000Y-45017000D01*
D17*
X165709600Y-43942000D02*
X165709600Y-42692000D01*
X160528000Y-45466000D02*
X162052000Y-43942000D01*
X165608000Y-84836000D02*
X163322000Y-84836000D01*
D18*
X220871000Y-36365400D02*
X218677396Y-36365400D01*
D17*
X178816000Y-37490400D02*
X173136000Y-43170400D01*
D18*
X218041000Y-45017000D02*
X213558000Y-49500000D01*
D17*
X162052000Y-43942000D02*
X165709600Y-43942000D01*
X165709600Y-42692000D02*
X172587600Y-35814000D01*
X160528000Y-82042000D02*
X160528000Y-45466000D01*
X166878000Y-83566000D02*
X165608000Y-84836000D01*
X173136000Y-43170400D02*
X173136000Y-52130400D01*
D18*
X218677396Y-36365400D02*
X218041000Y-37001796D01*
D17*
X173136000Y-52130400D02*
X173736000Y-52730400D01*
D18*
X221996000Y-37490400D02*
X220871000Y-36365400D01*
D17*
X172587600Y-35814000D02*
X178054000Y-35814000D01*
D18*
%TO.N,/P21*%
X187706000Y-66548000D02*
X188442000Y-66548000D01*
X188442000Y-66548000D02*
X190444000Y-68550000D01*
%TO.N,/P22*%
X188950000Y-65278000D02*
X187706000Y-65278000D01*
X192222000Y-68550000D02*
X188950000Y-65278000D01*
%TO.N,/~{NMI}*%
X185888000Y-67300000D02*
X185888000Y-63494412D01*
X186436000Y-62946412D02*
X186436000Y-52730400D01*
X186888000Y-68300000D02*
X185888000Y-67300000D01*
X185888000Y-63494412D02*
X186436000Y-62946412D01*
X186888000Y-68550000D02*
X186888000Y-68300000D01*
D17*
%TO.N,/~{IRQ1}*%
X187776000Y-52373343D02*
X187776000Y-53410000D01*
D18*
X181356000Y-52730400D02*
X181356000Y-62992000D01*
D17*
X187776000Y-53410000D02*
X189484000Y-55118000D01*
X181356000Y-52730400D02*
X182556000Y-51530400D01*
X202890000Y-56840000D02*
X202890000Y-68550000D01*
X182556000Y-51530400D02*
X186933057Y-51530400D01*
X186933057Y-51530400D02*
X187776000Y-52373343D01*
X201168000Y-55118000D02*
X202890000Y-56840000D01*
X189484000Y-55118000D02*
X201168000Y-55118000D01*
D18*
%TO.N,/~{RST}*%
X170180000Y-68203188D02*
X170180000Y-48260000D01*
X183332000Y-68550000D02*
X180657000Y-71225000D01*
X173201812Y-71225000D02*
X170180000Y-68203188D01*
X180657000Y-71225000D02*
X173201812Y-71225000D01*
X170180000Y-48260000D02*
X169672000Y-47752000D01*
%TO.N,/P23*%
X187706000Y-64008000D02*
X189458000Y-64008000D01*
X189458000Y-64008000D02*
X194000000Y-68550000D01*
%TO.N,/P24*%
X190059644Y-62831644D02*
X187772216Y-62831644D01*
X195778000Y-68550000D02*
X190059644Y-62831644D01*
%TO.N,/A15*%
X222885000Y-34925000D02*
X214401400Y-34925000D01*
X227782000Y-39822000D02*
X222885000Y-34925000D01*
X214401400Y-34925000D02*
X211836000Y-37490400D01*
X227782000Y-49500000D02*
X227782000Y-39822000D01*
%TO.N,/A14*%
X225875000Y-38677000D02*
X225875000Y-49500000D01*
X216491400Y-35375000D02*
X222573000Y-35375000D01*
X214376000Y-37490400D02*
X216491400Y-35375000D01*
X222573000Y-35375000D02*
X225875000Y-38677000D01*
%TO.N,/A13*%
X221921591Y-35825000D02*
X218581400Y-35825000D01*
X224226000Y-49500000D02*
X224226000Y-38129409D01*
X218581400Y-35825000D02*
X216916000Y-37490400D01*
X224226000Y-38129409D02*
X221921591Y-35825000D01*
%TO.N,/A12*%
X222448000Y-49500000D02*
X222448000Y-42870000D01*
X219456000Y-39878000D02*
X219456000Y-37490400D01*
X222448000Y-42870000D02*
X219456000Y-39878000D01*
%TO.N,/A11*%
X221996000Y-52730400D02*
X221996000Y-52070000D01*
X220670000Y-50744000D02*
X220670000Y-49500000D01*
X221996000Y-52070000D02*
X220670000Y-50744000D01*
%TO.N,/A10*%
X219456000Y-52730400D02*
X219456000Y-50064000D01*
X219456000Y-50064000D02*
X218892000Y-49500000D01*
%TO.N,/A9*%
X216916000Y-52730400D02*
X216916000Y-49698000D01*
X216916000Y-49698000D02*
X217114000Y-49500000D01*
%TO.N,/A8*%
X215336000Y-50602000D02*
X215336000Y-49500000D01*
X214376000Y-51562000D02*
X215336000Y-50602000D01*
X214376000Y-52730400D02*
X214376000Y-51562000D01*
D17*
%TO.N,/D7*%
X197556000Y-49500000D02*
X197556000Y-49230400D01*
X197556000Y-49230400D02*
X209296000Y-37490400D01*
%TO.N,/D6*%
X195778000Y-49500000D02*
X195778000Y-48468400D01*
X195778000Y-48468400D02*
X206756000Y-37490400D01*
%TO.N,/D5*%
X194000000Y-47808000D02*
X204216000Y-37592000D01*
X204216000Y-37592000D02*
X204216000Y-37490400D01*
X194000000Y-49500000D02*
X194000000Y-47808000D01*
%TO.N,/D4*%
X192222000Y-49500000D02*
X192222000Y-48062000D01*
X192222000Y-48062000D02*
X201676000Y-38608000D01*
X201676000Y-38608000D02*
X201676000Y-37490400D01*
%TO.N,/D3*%
X190444000Y-49500000D02*
X190444000Y-48062000D01*
X190444000Y-48062000D02*
X199136000Y-39370000D01*
X199136000Y-39370000D02*
X199136000Y-37490400D01*
%TO.N,/D2*%
X188666000Y-49500000D02*
X188666000Y-48062000D01*
X196596000Y-40132000D02*
X196596000Y-37490400D01*
X188666000Y-48062000D02*
X196596000Y-40132000D01*
%TO.N,/D1*%
X186888000Y-47300000D02*
X194056000Y-40132000D01*
X194056000Y-40132000D02*
X194056000Y-37490400D01*
X186888000Y-49500000D02*
X186888000Y-47300000D01*
%TO.N,/D0*%
X191516000Y-40386000D02*
X191516000Y-37490400D01*
X185110000Y-49500000D02*
X185110000Y-46792000D01*
X185110000Y-46792000D02*
X191516000Y-40386000D01*
D18*
%TO.N,/R{slash}~{W}*%
X181102000Y-46990000D02*
X181102000Y-44196000D01*
X179776000Y-48316000D02*
X181102000Y-46990000D01*
X186182000Y-43180000D02*
X188976000Y-40386000D01*
X188976000Y-40386000D02*
X188976000Y-37490400D01*
X181102000Y-44196000D02*
X182118000Y-43180000D01*
X182118000Y-43180000D02*
X186182000Y-43180000D01*
X179776000Y-49500000D02*
X179776000Y-48316000D01*
%TO.N,/A0*%
X199334000Y-49500000D02*
X198009000Y-50825000D01*
X198009000Y-50825000D02*
X195961400Y-50825000D01*
X195961400Y-50825000D02*
X194056000Y-52730400D01*
%TO.N,/A1*%
X199304000Y-51308000D02*
X198018400Y-51308000D01*
X198018400Y-51308000D02*
X196596000Y-52730400D01*
X201112000Y-49500000D02*
X199304000Y-51308000D01*
%TO.N,/A2*%
X202890000Y-49500000D02*
X199659600Y-52730400D01*
X199659600Y-52730400D02*
X199136000Y-52730400D01*
%TO.N,/A3*%
X201676000Y-52730400D02*
X204668000Y-49738400D01*
X204668000Y-49738400D02*
X204668000Y-49500000D01*
%TO.N,/A4*%
X206446000Y-50500400D02*
X206446000Y-49500000D01*
X204216000Y-52730400D02*
X206446000Y-50500400D01*
%TO.N,/A5*%
X206756000Y-52324000D02*
X208224000Y-50856000D01*
X206756000Y-52730400D02*
X206756000Y-52324000D01*
X208224000Y-50856000D02*
X208224000Y-49500000D01*
%TO.N,/A6*%
X209296000Y-52730400D02*
X209804000Y-52222400D01*
X209804000Y-49698000D02*
X210002000Y-49500000D01*
X209804000Y-52222400D02*
X209804000Y-49698000D01*
%TO.N,/A7*%
X211836000Y-52730400D02*
X211836000Y-49556000D01*
X211836000Y-49556000D02*
X211780000Y-49500000D01*
%TO.N,/PHI2*%
X174442000Y-45808000D02*
X181356000Y-38894000D01*
X174442000Y-49500000D02*
X174442000Y-45808000D01*
X181356000Y-38894000D02*
X181356000Y-37490400D01*
%TO.N,/CPUCLK*%
X173761000Y-69875000D02*
X171704000Y-67818000D01*
X177998000Y-68550000D02*
X176673000Y-69875000D01*
X176673000Y-69875000D02*
X173761000Y-69875000D01*
X171704000Y-42062400D02*
X176276000Y-37490400D01*
X171704000Y-67818000D02*
X171704000Y-42062400D01*
%TO.N,/MP0*%
X179776000Y-68800000D02*
X178251000Y-70325000D01*
X179776000Y-68550000D02*
X179776000Y-68800000D01*
X173574604Y-70325000D02*
X171080000Y-67830396D01*
X178251000Y-70325000D02*
X173574604Y-70325000D01*
X171080000Y-45858000D02*
X170688000Y-45466000D01*
X171080000Y-67830396D02*
X171080000Y-45858000D01*
%TO.N,/MP1*%
X179329000Y-70775000D02*
X173388208Y-70775000D01*
X173388208Y-70775000D02*
X170630000Y-68016792D01*
X181554000Y-68550000D02*
X179329000Y-70775000D01*
X170630000Y-47613984D02*
X169498016Y-46482000D01*
X170630000Y-68016792D02*
X170630000Y-47613984D01*
X169498016Y-46482000D02*
X165709600Y-46482000D01*
D17*
%TO.N,Net-(J4-Pin_1)*%
X183896000Y-37490400D02*
X183896000Y-40640000D01*
D18*
%TO.N,/~{HALT}*%
X176276000Y-59466000D02*
X176276000Y-52730400D01*
X185110000Y-68300000D02*
X176276000Y-59466000D01*
X185110000Y-68550000D02*
X185110000Y-68300000D01*
%TO.N,/BA*%
X184837400Y-51005400D02*
X187251000Y-51005400D01*
X183332000Y-49500000D02*
X184837400Y-51005400D01*
X187251000Y-51005400D02*
X188976000Y-52730400D01*
%TO.N,/P25*%
X197556000Y-68550000D02*
X190280276Y-61274276D01*
X190280276Y-61274276D02*
X187948584Y-61274276D01*
%TO.N,/P26*%
X199334000Y-68550000D02*
X199334000Y-68300000D01*
X191232000Y-60198000D02*
X187686999Y-60198000D01*
X199334000Y-68300000D02*
X191232000Y-60198000D01*
%TO.N,/P27*%
X186944000Y-58674000D02*
X186911999Y-58706001D01*
X186911999Y-61720323D02*
X187165997Y-61974321D01*
X186911999Y-58706001D02*
X186911999Y-61720323D01*
X201112000Y-68550000D02*
X191236000Y-58674000D01*
X191236000Y-58674000D02*
X186944000Y-58674000D01*
%TO.N,/~{LIR}*%
X181554000Y-49500000D02*
X181554000Y-47554000D01*
X181554000Y-47554000D02*
X183134000Y-45974000D01*
%TO.N,/~{WR}*%
X179324000Y-45974000D02*
X177998000Y-47300000D01*
X177998000Y-47300000D02*
X177998000Y-49500000D01*
%TO.N,/~{RD}*%
X176220000Y-46030000D02*
X176276000Y-45974000D01*
X176220000Y-49500000D02*
X176220000Y-46030000D01*
%TD*%
%TA.AperFunction,Conductor*%
%TO.N,GND*%
G36*
X213708985Y-34520185D02*
G01*
X213754740Y-34572989D01*
X213764684Y-34642147D01*
X213735659Y-34705703D01*
X213729627Y-34712181D01*
X212250821Y-36190986D01*
X212189498Y-36224471D01*
X212131048Y-36223080D01*
X212062697Y-36204766D01*
X212062693Y-36204765D01*
X212062692Y-36204765D01*
X211949346Y-36194848D01*
X211836001Y-36184932D01*
X211835998Y-36184932D01*
X211609313Y-36204764D01*
X211609302Y-36204766D01*
X211389511Y-36263658D01*
X211389502Y-36263661D01*
X211183267Y-36359831D01*
X211183265Y-36359832D01*
X210996858Y-36490354D01*
X210835954Y-36651258D01*
X210705432Y-36837665D01*
X210705431Y-36837667D01*
X210678382Y-36895675D01*
X210632209Y-36948114D01*
X210565016Y-36967266D01*
X210498135Y-36947050D01*
X210453618Y-36895675D01*
X210426686Y-36837920D01*
X210426568Y-36837666D01*
X210296047Y-36651261D01*
X210296045Y-36651258D01*
X210135141Y-36490354D01*
X209948734Y-36359832D01*
X209948732Y-36359831D01*
X209742497Y-36263661D01*
X209742488Y-36263658D01*
X209522697Y-36204766D01*
X209522693Y-36204765D01*
X209522692Y-36204765D01*
X209522691Y-36204764D01*
X209522686Y-36204764D01*
X209296002Y-36184932D01*
X209295998Y-36184932D01*
X209069313Y-36204764D01*
X209069302Y-36204766D01*
X208849511Y-36263658D01*
X208849502Y-36263661D01*
X208643267Y-36359831D01*
X208643265Y-36359832D01*
X208456858Y-36490354D01*
X208295954Y-36651258D01*
X208165432Y-36837665D01*
X208165431Y-36837667D01*
X208138382Y-36895675D01*
X208092209Y-36948114D01*
X208025016Y-36967266D01*
X207958135Y-36947050D01*
X207913618Y-36895675D01*
X207886686Y-36837920D01*
X207886568Y-36837666D01*
X207756047Y-36651261D01*
X207756045Y-36651258D01*
X207595141Y-36490354D01*
X207408734Y-36359832D01*
X207408732Y-36359831D01*
X207202497Y-36263661D01*
X207202488Y-36263658D01*
X206982697Y-36204766D01*
X206982693Y-36204765D01*
X206982692Y-36204765D01*
X206982691Y-36204764D01*
X206982686Y-36204764D01*
X206756002Y-36184932D01*
X206755998Y-36184932D01*
X206529313Y-36204764D01*
X206529302Y-36204766D01*
X206309511Y-36263658D01*
X206309502Y-36263661D01*
X206103267Y-36359831D01*
X206103265Y-36359832D01*
X205916858Y-36490354D01*
X205755954Y-36651258D01*
X205625432Y-36837665D01*
X205625431Y-36837667D01*
X205598382Y-36895675D01*
X205552209Y-36948114D01*
X205485016Y-36967266D01*
X205418135Y-36947050D01*
X205373618Y-36895675D01*
X205346686Y-36837920D01*
X205346568Y-36837666D01*
X205216047Y-36651261D01*
X205216045Y-36651258D01*
X205055141Y-36490354D01*
X204868734Y-36359832D01*
X204868732Y-36359831D01*
X204662497Y-36263661D01*
X204662488Y-36263658D01*
X204442697Y-36204766D01*
X204442693Y-36204765D01*
X204442692Y-36204765D01*
X204442691Y-36204764D01*
X204442686Y-36204764D01*
X204216002Y-36184932D01*
X204215998Y-36184932D01*
X203989313Y-36204764D01*
X203989302Y-36204766D01*
X203769511Y-36263658D01*
X203769502Y-36263661D01*
X203563267Y-36359831D01*
X203563265Y-36359832D01*
X203376858Y-36490354D01*
X203215954Y-36651258D01*
X203085432Y-36837665D01*
X203085431Y-36837667D01*
X203058382Y-36895675D01*
X203012209Y-36948114D01*
X202945016Y-36967266D01*
X202878135Y-36947050D01*
X202833618Y-36895675D01*
X202806686Y-36837920D01*
X202806568Y-36837666D01*
X202676047Y-36651261D01*
X202676045Y-36651258D01*
X202515141Y-36490354D01*
X202328734Y-36359832D01*
X202328732Y-36359831D01*
X202122497Y-36263661D01*
X202122488Y-36263658D01*
X201902697Y-36204766D01*
X201902693Y-36204765D01*
X201902692Y-36204765D01*
X201902691Y-36204764D01*
X201902686Y-36204764D01*
X201676002Y-36184932D01*
X201675998Y-36184932D01*
X201449313Y-36204764D01*
X201449302Y-36204766D01*
X201229511Y-36263658D01*
X201229502Y-36263661D01*
X201023267Y-36359831D01*
X201023265Y-36359832D01*
X200836858Y-36490354D01*
X200675954Y-36651258D01*
X200545432Y-36837665D01*
X200545431Y-36837667D01*
X200518382Y-36895675D01*
X200472209Y-36948114D01*
X200405016Y-36967266D01*
X200338135Y-36947050D01*
X200293618Y-36895675D01*
X200266686Y-36837920D01*
X200266568Y-36837666D01*
X200136047Y-36651261D01*
X200136045Y-36651258D01*
X199975141Y-36490354D01*
X199788734Y-36359832D01*
X199788732Y-36359831D01*
X199582497Y-36263661D01*
X199582488Y-36263658D01*
X199362697Y-36204766D01*
X199362693Y-36204765D01*
X199362692Y-36204765D01*
X199362691Y-36204764D01*
X199362686Y-36204764D01*
X199136002Y-36184932D01*
X199135998Y-36184932D01*
X198909313Y-36204764D01*
X198909302Y-36204766D01*
X198689511Y-36263658D01*
X198689502Y-36263661D01*
X198483267Y-36359831D01*
X198483265Y-36359832D01*
X198296858Y-36490354D01*
X198135954Y-36651258D01*
X198005432Y-36837665D01*
X198005431Y-36837667D01*
X197978382Y-36895675D01*
X197932209Y-36948114D01*
X197865016Y-36967266D01*
X197798135Y-36947050D01*
X197753618Y-36895675D01*
X197726686Y-36837920D01*
X197726568Y-36837666D01*
X197596047Y-36651261D01*
X197596045Y-36651258D01*
X197435141Y-36490354D01*
X197248734Y-36359832D01*
X197248732Y-36359831D01*
X197042497Y-36263661D01*
X197042488Y-36263658D01*
X196822697Y-36204766D01*
X196822693Y-36204765D01*
X196822692Y-36204765D01*
X196822691Y-36204764D01*
X196822686Y-36204764D01*
X196596002Y-36184932D01*
X196595998Y-36184932D01*
X196369313Y-36204764D01*
X196369302Y-36204766D01*
X196149511Y-36263658D01*
X196149502Y-36263661D01*
X195943267Y-36359831D01*
X195943265Y-36359832D01*
X195756858Y-36490354D01*
X195595954Y-36651258D01*
X195465432Y-36837665D01*
X195465431Y-36837667D01*
X195438382Y-36895675D01*
X195392209Y-36948114D01*
X195325016Y-36967266D01*
X195258135Y-36947050D01*
X195213618Y-36895675D01*
X195186686Y-36837920D01*
X195186568Y-36837666D01*
X195056047Y-36651261D01*
X195056045Y-36651258D01*
X194895141Y-36490354D01*
X194708734Y-36359832D01*
X194708732Y-36359831D01*
X194502497Y-36263661D01*
X194502488Y-36263658D01*
X194282697Y-36204766D01*
X194282693Y-36204765D01*
X194282692Y-36204765D01*
X194282691Y-36204764D01*
X194282686Y-36204764D01*
X194056002Y-36184932D01*
X194055998Y-36184932D01*
X193829313Y-36204764D01*
X193829302Y-36204766D01*
X193609511Y-36263658D01*
X193609502Y-36263661D01*
X193403267Y-36359831D01*
X193403265Y-36359832D01*
X193216858Y-36490354D01*
X193055954Y-36651258D01*
X192925432Y-36837665D01*
X192925431Y-36837667D01*
X192898382Y-36895675D01*
X192852209Y-36948114D01*
X192785016Y-36967266D01*
X192718135Y-36947050D01*
X192673618Y-36895675D01*
X192646686Y-36837920D01*
X192646568Y-36837666D01*
X192516047Y-36651261D01*
X192516045Y-36651258D01*
X192355141Y-36490354D01*
X192168734Y-36359832D01*
X192168732Y-36359831D01*
X191962497Y-36263661D01*
X191962488Y-36263658D01*
X191742697Y-36204766D01*
X191742693Y-36204765D01*
X191742692Y-36204765D01*
X191742691Y-36204764D01*
X191742686Y-36204764D01*
X191516002Y-36184932D01*
X191515998Y-36184932D01*
X191289313Y-36204764D01*
X191289302Y-36204766D01*
X191069511Y-36263658D01*
X191069502Y-36263661D01*
X190863267Y-36359831D01*
X190863265Y-36359832D01*
X190676858Y-36490354D01*
X190515954Y-36651258D01*
X190385432Y-36837665D01*
X190385431Y-36837667D01*
X190358382Y-36895675D01*
X190312209Y-36948114D01*
X190245016Y-36967266D01*
X190178135Y-36947050D01*
X190133618Y-36895675D01*
X190106686Y-36837920D01*
X190106568Y-36837666D01*
X189976047Y-36651261D01*
X189976045Y-36651258D01*
X189815141Y-36490354D01*
X189628734Y-36359832D01*
X189628732Y-36359831D01*
X189422497Y-36263661D01*
X189422488Y-36263658D01*
X189202697Y-36204766D01*
X189202693Y-36204765D01*
X189202692Y-36204765D01*
X189202691Y-36204764D01*
X189202686Y-36204764D01*
X188976002Y-36184932D01*
X188975998Y-36184932D01*
X188749313Y-36204764D01*
X188749302Y-36204766D01*
X188529511Y-36263658D01*
X188529502Y-36263661D01*
X188323267Y-36359831D01*
X188323265Y-36359832D01*
X188136858Y-36490354D01*
X187975954Y-36651258D01*
X187845432Y-36837665D01*
X187845431Y-36837667D01*
X187818382Y-36895675D01*
X187772209Y-36948114D01*
X187705016Y-36967266D01*
X187638135Y-36947050D01*
X187593618Y-36895675D01*
X187566686Y-36837920D01*
X187566568Y-36837666D01*
X187436047Y-36651261D01*
X187436045Y-36651258D01*
X187275141Y-36490354D01*
X187088734Y-36359832D01*
X187088732Y-36359831D01*
X186882497Y-36263661D01*
X186882488Y-36263658D01*
X186662697Y-36204766D01*
X186662693Y-36204765D01*
X186662692Y-36204765D01*
X186662691Y-36204764D01*
X186662686Y-36204764D01*
X186436002Y-36184932D01*
X186435998Y-36184932D01*
X186209313Y-36204764D01*
X186209302Y-36204766D01*
X185989511Y-36263658D01*
X185989502Y-36263661D01*
X185783267Y-36359831D01*
X185783265Y-36359832D01*
X185596858Y-36490354D01*
X185435954Y-36651258D01*
X185305432Y-36837665D01*
X185305431Y-36837667D01*
X185278382Y-36895675D01*
X185232209Y-36948114D01*
X185165016Y-36967266D01*
X185098135Y-36947050D01*
X185053618Y-36895675D01*
X185026686Y-36837920D01*
X185026568Y-36837666D01*
X184896047Y-36651261D01*
X184896045Y-36651258D01*
X184735141Y-36490354D01*
X184548734Y-36359832D01*
X184548732Y-36359831D01*
X184342497Y-36263661D01*
X184342488Y-36263658D01*
X184122697Y-36204766D01*
X184122693Y-36204765D01*
X184122692Y-36204765D01*
X184122691Y-36204764D01*
X184122686Y-36204764D01*
X183896002Y-36184932D01*
X183895998Y-36184932D01*
X183669313Y-36204764D01*
X183669302Y-36204766D01*
X183449511Y-36263658D01*
X183449502Y-36263661D01*
X183243267Y-36359831D01*
X183243265Y-36359832D01*
X183056858Y-36490354D01*
X182895954Y-36651258D01*
X182765432Y-36837665D01*
X182765431Y-36837667D01*
X182738382Y-36895675D01*
X182692209Y-36948114D01*
X182625016Y-36967266D01*
X182558135Y-36947050D01*
X182513618Y-36895675D01*
X182486686Y-36837920D01*
X182486568Y-36837666D01*
X182356047Y-36651261D01*
X182356045Y-36651258D01*
X182195141Y-36490354D01*
X182008734Y-36359832D01*
X182008732Y-36359831D01*
X181802497Y-36263661D01*
X181802488Y-36263658D01*
X181582697Y-36204766D01*
X181582693Y-36204765D01*
X181582692Y-36204765D01*
X181582691Y-36204764D01*
X181582686Y-36204764D01*
X181356002Y-36184932D01*
X181355998Y-36184932D01*
X181129313Y-36204764D01*
X181129302Y-36204766D01*
X180909511Y-36263658D01*
X180909502Y-36263661D01*
X180703267Y-36359831D01*
X180703265Y-36359832D01*
X180516858Y-36490354D01*
X180355954Y-36651258D01*
X180225433Y-36837664D01*
X180225432Y-36837666D01*
X180225315Y-36837918D01*
X180198106Y-36896267D01*
X180151933Y-36948706D01*
X180084739Y-36967857D01*
X180017858Y-36947641D01*
X179973342Y-36896265D01*
X179946135Y-36837920D01*
X179946134Y-36837918D01*
X179815657Y-36651579D01*
X179654820Y-36490742D01*
X179468482Y-36360265D01*
X179262328Y-36264134D01*
X179066000Y-36211527D01*
X179066000Y-37174714D01*
X179054045Y-37162759D01*
X178941148Y-37105235D01*
X178847481Y-37090400D01*
X178784519Y-37090400D01*
X178690852Y-37105235D01*
X178577955Y-37162759D01*
X178566000Y-37174714D01*
X178566000Y-36211527D01*
X178369671Y-36264134D01*
X178163517Y-36360265D01*
X177977179Y-36490742D01*
X177816342Y-36651579D01*
X177685867Y-36837915D01*
X177658657Y-36896267D01*
X177612484Y-36948706D01*
X177545290Y-36967857D01*
X177478409Y-36947641D01*
X177433893Y-36896265D01*
X177406685Y-36837918D01*
X177406568Y-36837666D01*
X177276047Y-36651261D01*
X177276045Y-36651258D01*
X177115141Y-36490354D01*
X176928734Y-36359832D01*
X176928732Y-36359831D01*
X176722497Y-36263661D01*
X176722488Y-36263658D01*
X176502697Y-36204766D01*
X176502693Y-36204765D01*
X176502692Y-36204765D01*
X176502691Y-36204764D01*
X176502686Y-36204764D01*
X176276002Y-36184932D01*
X176275998Y-36184932D01*
X176049313Y-36204764D01*
X176049302Y-36204766D01*
X175829511Y-36263658D01*
X175829502Y-36263661D01*
X175623267Y-36359831D01*
X175623265Y-36359832D01*
X175436858Y-36490354D01*
X175275954Y-36651258D01*
X175145432Y-36837665D01*
X175145431Y-36837667D01*
X175118382Y-36895675D01*
X175072209Y-36948114D01*
X175005016Y-36967266D01*
X174938135Y-36947050D01*
X174893618Y-36895675D01*
X174866686Y-36837920D01*
X174866568Y-36837666D01*
X174736047Y-36651261D01*
X174736045Y-36651258D01*
X174575141Y-36490354D01*
X174388734Y-36359832D01*
X174388732Y-36359831D01*
X174182497Y-36263661D01*
X174182488Y-36263658D01*
X173962697Y-36204766D01*
X173962693Y-36204765D01*
X173962692Y-36204765D01*
X173962691Y-36204764D01*
X173962686Y-36204764D01*
X173736002Y-36184932D01*
X173735998Y-36184932D01*
X173509313Y-36204764D01*
X173509302Y-36204766D01*
X173289511Y-36263658D01*
X173289502Y-36263661D01*
X173083267Y-36359831D01*
X173083265Y-36359832D01*
X172896858Y-36490354D01*
X172735954Y-36651258D01*
X172605432Y-36837665D01*
X172605431Y-36837667D01*
X172509261Y-37043902D01*
X172509258Y-37043911D01*
X172450366Y-37263702D01*
X172450364Y-37263713D01*
X172430532Y-37490398D01*
X172430532Y-37490401D01*
X172450364Y-37717086D01*
X172450366Y-37717097D01*
X172509258Y-37936888D01*
X172509261Y-37936897D01*
X172605431Y-38143132D01*
X172605432Y-38143134D01*
X172735954Y-38329541D01*
X172896858Y-38490445D01*
X172896861Y-38490447D01*
X173083266Y-38620968D01*
X173289504Y-38717139D01*
X173509308Y-38776035D01*
X173666780Y-38789812D01*
X173735998Y-38795868D01*
X173735999Y-38795868D01*
X173735999Y-38795867D01*
X173736000Y-38795868D01*
X173780101Y-38792009D01*
X173848599Y-38805775D01*
X173898783Y-38854389D01*
X173914717Y-38922418D01*
X173891343Y-38988261D01*
X173878589Y-39003218D01*
X171320208Y-41561599D01*
X171307951Y-41571420D01*
X171308134Y-41571641D01*
X171302123Y-41576613D01*
X171254772Y-41627036D01*
X171233889Y-41647919D01*
X171233877Y-41647932D01*
X171229621Y-41653417D01*
X171225837Y-41657847D01*
X171193937Y-41691818D01*
X171193936Y-41691820D01*
X171184284Y-41709376D01*
X171173610Y-41725626D01*
X171161329Y-41741461D01*
X171161324Y-41741468D01*
X171142815Y-41784238D01*
X171140245Y-41789484D01*
X171117803Y-41830306D01*
X171112822Y-41849707D01*
X171106521Y-41868110D01*
X171098562Y-41886502D01*
X171098561Y-41886505D01*
X171091271Y-41932527D01*
X171090087Y-41938246D01*
X171078501Y-41983372D01*
X171078500Y-41983382D01*
X171078500Y-42003416D01*
X171076973Y-42022815D01*
X171073840Y-42042594D01*
X171073840Y-42042595D01*
X171078225Y-42088983D01*
X171078500Y-42094821D01*
X171078500Y-44475258D01*
X171058815Y-44542297D01*
X171006011Y-44588052D01*
X170936853Y-44597996D01*
X170928720Y-44596548D01*
X170782647Y-44565500D01*
X170782646Y-44565500D01*
X170593354Y-44565500D01*
X170560897Y-44572398D01*
X170408197Y-44604855D01*
X170408192Y-44604857D01*
X170235270Y-44681848D01*
X170235265Y-44681851D01*
X170082129Y-44793111D01*
X169955466Y-44933785D01*
X169860821Y-45097715D01*
X169860818Y-45097722D01*
X169806651Y-45264432D01*
X169802326Y-45277744D01*
X169786643Y-45426963D01*
X169782540Y-45466000D01*
X169799997Y-45632102D01*
X169802326Y-45654256D01*
X169823102Y-45718197D01*
X169825097Y-45788038D01*
X169789017Y-45847871D01*
X169726316Y-45878699D01*
X169681865Y-45876225D01*
X169681619Y-45877782D01*
X169627890Y-45869272D01*
X169622168Y-45868087D01*
X169577037Y-45856500D01*
X169577035Y-45856500D01*
X169557000Y-45856500D01*
X169537602Y-45854973D01*
X169530178Y-45853797D01*
X169517821Y-45851840D01*
X169517820Y-45851840D01*
X169471432Y-45856225D01*
X169465594Y-45856500D01*
X166984827Y-45856500D01*
X166917788Y-45836815D01*
X166883252Y-45803623D01*
X166748096Y-45610600D01*
X166713402Y-45575906D01*
X166625779Y-45488283D01*
X166592296Y-45426963D01*
X166597280Y-45357271D01*
X166639151Y-45301337D01*
X166670129Y-45284422D01*
X166801686Y-45235354D01*
X166801693Y-45235350D01*
X166916787Y-45149190D01*
X166916790Y-45149187D01*
X167002950Y-45034093D01*
X167002954Y-45034086D01*
X167053196Y-44899379D01*
X167053198Y-44899372D01*
X167059599Y-44839844D01*
X167059600Y-44839827D01*
X167059600Y-44192000D01*
X166143286Y-44192000D01*
X166169093Y-44151844D01*
X166209600Y-44013889D01*
X166209600Y-43870111D01*
X166169093Y-43732156D01*
X166143286Y-43692000D01*
X167059600Y-43692000D01*
X167059600Y-43044172D01*
X167059599Y-43044155D01*
X167053198Y-42984627D01*
X167053196Y-42984620D01*
X167002954Y-42849913D01*
X167002950Y-42849906D01*
X166916790Y-42734812D01*
X166916787Y-42734809D01*
X166801693Y-42648649D01*
X166801686Y-42648645D01*
X166666979Y-42598403D01*
X166666972Y-42598401D01*
X166607444Y-42592000D01*
X165959600Y-42592000D01*
X165959600Y-43506498D01*
X165851915Y-43457320D01*
X165745363Y-43442000D01*
X165673837Y-43442000D01*
X165567285Y-43457320D01*
X165459600Y-43506498D01*
X165459600Y-42592000D01*
X164811755Y-42592000D01*
X164752227Y-42598401D01*
X164752220Y-42598403D01*
X164617513Y-42648645D01*
X164617506Y-42648649D01*
X164502412Y-42734809D01*
X164502409Y-42734812D01*
X164416249Y-42849906D01*
X164416245Y-42849913D01*
X164366003Y-42984620D01*
X164366001Y-42984627D01*
X164359600Y-43044155D01*
X164359600Y-43692000D01*
X165275914Y-43692000D01*
X165250107Y-43732156D01*
X165209600Y-43870111D01*
X165209600Y-44013889D01*
X165250107Y-44151844D01*
X165275914Y-44192000D01*
X164359600Y-44192000D01*
X164359600Y-44839844D01*
X164366001Y-44899372D01*
X164366003Y-44899379D01*
X164416245Y-45034086D01*
X164416249Y-45034093D01*
X164502409Y-45149187D01*
X164502412Y-45149190D01*
X164617506Y-45235350D01*
X164617513Y-45235354D01*
X164749070Y-45284421D01*
X164805003Y-45326292D01*
X164829421Y-45391756D01*
X164814570Y-45460029D01*
X164793419Y-45488284D01*
X164671103Y-45610600D01*
X164535565Y-45804169D01*
X164535564Y-45804171D01*
X164435698Y-46018335D01*
X164435694Y-46018344D01*
X164374538Y-46246586D01*
X164374536Y-46246596D01*
X164353941Y-46481999D01*
X164353941Y-46482000D01*
X164374536Y-46717403D01*
X164374538Y-46717413D01*
X164435694Y-46945655D01*
X164435696Y-46945659D01*
X164435697Y-46945663D01*
X164527759Y-47143089D01*
X164535565Y-47159830D01*
X164535567Y-47159834D01*
X164629162Y-47293500D01*
X164671105Y-47353401D01*
X164838199Y-47520495D01*
X164899959Y-47563740D01*
X165031765Y-47656032D01*
X165031767Y-47656033D01*
X165031770Y-47656035D01*
X165245937Y-47755903D01*
X165474192Y-47817063D01*
X165662518Y-47833539D01*
X165709599Y-47837659D01*
X165709600Y-47837659D01*
X165709601Y-47837659D01*
X165748834Y-47834226D01*
X165945008Y-47817063D01*
X166173263Y-47755903D01*
X166387430Y-47656035D01*
X166581001Y-47520495D01*
X166748095Y-47353401D01*
X166883252Y-47160377D01*
X166937829Y-47116752D01*
X166984827Y-47107500D01*
X168789520Y-47107500D01*
X168856559Y-47127185D01*
X168902314Y-47179989D01*
X168912258Y-47249147D01*
X168896907Y-47293500D01*
X168844821Y-47383715D01*
X168844818Y-47383722D01*
X168789545Y-47553837D01*
X168786326Y-47563744D01*
X168766540Y-47752000D01*
X168786326Y-47940256D01*
X168786327Y-47940259D01*
X168844818Y-48120277D01*
X168844821Y-48120284D01*
X168939467Y-48284216D01*
X169015383Y-48368529D01*
X169066129Y-48424888D01*
X169219265Y-48536148D01*
X169219270Y-48536151D01*
X169392191Y-48613142D01*
X169392194Y-48613142D01*
X169392197Y-48613144D01*
X169456280Y-48626765D01*
X169517762Y-48659957D01*
X169551539Y-48721120D01*
X169554500Y-48748055D01*
X169554500Y-68120443D01*
X169552775Y-68136060D01*
X169553061Y-68136087D01*
X169552326Y-68143853D01*
X169554500Y-68213002D01*
X169554500Y-68242531D01*
X169554501Y-68242548D01*
X169555368Y-68249419D01*
X169555826Y-68255238D01*
X169557290Y-68301812D01*
X169557291Y-68301815D01*
X169562880Y-68321055D01*
X169566824Y-68340099D01*
X169569336Y-68359979D01*
X169586490Y-68403307D01*
X169588382Y-68408835D01*
X169601381Y-68453576D01*
X169611580Y-68470822D01*
X169620138Y-68488291D01*
X169627514Y-68506920D01*
X169654898Y-68544611D01*
X169658106Y-68549495D01*
X169681827Y-68589604D01*
X169681833Y-68589612D01*
X169695990Y-68603768D01*
X169708628Y-68618564D01*
X169720405Y-68634774D01*
X169720406Y-68634775D01*
X169756309Y-68664476D01*
X169760620Y-68668398D01*
X171272380Y-70180158D01*
X172701006Y-71608784D01*
X172710831Y-71621048D01*
X172711052Y-71620866D01*
X172716022Y-71626873D01*
X172716025Y-71626876D01*
X172716026Y-71626877D01*
X172766463Y-71674241D01*
X172787342Y-71695120D01*
X172792816Y-71699366D01*
X172797254Y-71703156D01*
X172831230Y-71735062D01*
X172848785Y-71744713D01*
X172865043Y-71755392D01*
X172880876Y-71767674D01*
X172902827Y-71777172D01*
X172923649Y-71786183D01*
X172928893Y-71788752D01*
X172969720Y-71811197D01*
X172989124Y-71816179D01*
X173007522Y-71822478D01*
X173025917Y-71830438D01*
X173071941Y-71837726D01*
X173077644Y-71838907D01*
X173122793Y-71850500D01*
X173142828Y-71850500D01*
X173162225Y-71852026D01*
X173182008Y-71855160D01*
X173228396Y-71850775D01*
X173234234Y-71850500D01*
X180574257Y-71850500D01*
X180589877Y-71852224D01*
X180589904Y-71851939D01*
X180597660Y-71852671D01*
X180597667Y-71852673D01*
X180666814Y-71850500D01*
X180696350Y-71850500D01*
X180703228Y-71849630D01*
X180709041Y-71849172D01*
X180755627Y-71847709D01*
X180774869Y-71842117D01*
X180793912Y-71838174D01*
X180813792Y-71835664D01*
X180857122Y-71818507D01*
X180862646Y-71816617D01*
X180866396Y-71815527D01*
X180907390Y-71803618D01*
X180924629Y-71793422D01*
X180942103Y-71784862D01*
X180960727Y-71777488D01*
X180960727Y-71777487D01*
X180960732Y-71777486D01*
X180998449Y-71750082D01*
X181003305Y-71746892D01*
X181043420Y-71723170D01*
X181057589Y-71708999D01*
X181072379Y-71696368D01*
X181088587Y-71684594D01*
X181118299Y-71648676D01*
X181122212Y-71644376D01*
X182764548Y-70002041D01*
X182825869Y-69968558D01*
X182895561Y-69973542D01*
X182900962Y-69975703D01*
X182944004Y-69994100D01*
X182944007Y-69994101D01*
X182944012Y-69994103D01*
X183163463Y-70044191D01*
X183388330Y-70054290D01*
X183611387Y-70024075D01*
X183825464Y-69954517D01*
X184023681Y-69847852D01*
X184142217Y-69753321D01*
X184206904Y-69726914D01*
X184275599Y-69739669D01*
X184305220Y-69760641D01*
X184325864Y-69780379D01*
X184327176Y-69781633D01*
X184515033Y-69905636D01*
X184722004Y-69994100D01*
X184722007Y-69994101D01*
X184722012Y-69994103D01*
X184941463Y-70044191D01*
X185166330Y-70054290D01*
X185389387Y-70024075D01*
X185603464Y-69954517D01*
X185801681Y-69847852D01*
X185920217Y-69753321D01*
X185984904Y-69726914D01*
X186053599Y-69739669D01*
X186083220Y-69760641D01*
X186103864Y-69780379D01*
X186105176Y-69781633D01*
X186293033Y-69905636D01*
X186500004Y-69994100D01*
X186500007Y-69994101D01*
X186500012Y-69994103D01*
X186719463Y-70044191D01*
X186944330Y-70054290D01*
X187167387Y-70024075D01*
X187381464Y-69954517D01*
X187579681Y-69847852D01*
X187698217Y-69753321D01*
X187762904Y-69726914D01*
X187831599Y-69739669D01*
X187861220Y-69760641D01*
X187881864Y-69780379D01*
X187883176Y-69781633D01*
X188071033Y-69905636D01*
X188278004Y-69994100D01*
X188278007Y-69994101D01*
X188278012Y-69994103D01*
X188497463Y-70044191D01*
X188722330Y-70054290D01*
X188945387Y-70024075D01*
X189159464Y-69954517D01*
X189357681Y-69847852D01*
X189476217Y-69753321D01*
X189540904Y-69726914D01*
X189609599Y-69739669D01*
X189639220Y-69760641D01*
X189659864Y-69780379D01*
X189661176Y-69781633D01*
X189849033Y-69905636D01*
X190056004Y-69994100D01*
X190056007Y-69994101D01*
X190056012Y-69994103D01*
X190275463Y-70044191D01*
X190500330Y-70054290D01*
X190723387Y-70024075D01*
X190937464Y-69954517D01*
X191135681Y-69847852D01*
X191254217Y-69753321D01*
X191318904Y-69726914D01*
X191387599Y-69739669D01*
X191417220Y-69760641D01*
X191437864Y-69780379D01*
X191439176Y-69781633D01*
X191627033Y-69905636D01*
X191834004Y-69994100D01*
X191834007Y-69994101D01*
X191834012Y-69994103D01*
X192053463Y-70044191D01*
X192278330Y-70054290D01*
X192501387Y-70024075D01*
X192715464Y-69954517D01*
X192913681Y-69847852D01*
X193032217Y-69753321D01*
X193096904Y-69726914D01*
X193165599Y-69739669D01*
X193195220Y-69760641D01*
X193215864Y-69780379D01*
X193217176Y-69781633D01*
X193405033Y-69905636D01*
X193612004Y-69994100D01*
X193612007Y-69994101D01*
X193612012Y-69994103D01*
X193831463Y-70044191D01*
X194056330Y-70054290D01*
X194279387Y-70024075D01*
X194493464Y-69954517D01*
X194691681Y-69847852D01*
X194810217Y-69753321D01*
X194874904Y-69726914D01*
X194943599Y-69739669D01*
X194973220Y-69760641D01*
X194993864Y-69780379D01*
X194995176Y-69781633D01*
X195183033Y-69905636D01*
X195390004Y-69994100D01*
X195390007Y-69994101D01*
X195390012Y-69994103D01*
X195609463Y-70044191D01*
X195834330Y-70054290D01*
X196057387Y-70024075D01*
X196271464Y-69954517D01*
X196469681Y-69847852D01*
X196588217Y-69753321D01*
X196652904Y-69726914D01*
X196721599Y-69739669D01*
X196751220Y-69760641D01*
X196771864Y-69780379D01*
X196773176Y-69781633D01*
X196961033Y-69905636D01*
X197168004Y-69994100D01*
X197168007Y-69994101D01*
X197168012Y-69994103D01*
X197387463Y-70044191D01*
X197612330Y-70054290D01*
X197835387Y-70024075D01*
X198049464Y-69954517D01*
X198247681Y-69847852D01*
X198366217Y-69753321D01*
X198430904Y-69726914D01*
X198499599Y-69739669D01*
X198529220Y-69760641D01*
X198549864Y-69780379D01*
X198551176Y-69781633D01*
X198739033Y-69905636D01*
X198946004Y-69994100D01*
X198946007Y-69994101D01*
X198946012Y-69994103D01*
X199165463Y-70044191D01*
X199390330Y-70054290D01*
X199613387Y-70024075D01*
X199827464Y-69954517D01*
X200025681Y-69847852D01*
X200144217Y-69753321D01*
X200208904Y-69726914D01*
X200277599Y-69739669D01*
X200307220Y-69760641D01*
X200327864Y-69780379D01*
X200329176Y-69781633D01*
X200517033Y-69905636D01*
X200724004Y-69994100D01*
X200724007Y-69994101D01*
X200724012Y-69994103D01*
X200943463Y-70044191D01*
X201168330Y-70054290D01*
X201391387Y-70024075D01*
X201605464Y-69954517D01*
X201803681Y-69847852D01*
X201922217Y-69753321D01*
X201986904Y-69726914D01*
X202055599Y-69739669D01*
X202085220Y-69760641D01*
X202105864Y-69780379D01*
X202107176Y-69781633D01*
X202295033Y-69905636D01*
X202502004Y-69994100D01*
X202502007Y-69994101D01*
X202502012Y-69994103D01*
X202721463Y-70044191D01*
X202946330Y-70054290D01*
X203169387Y-70024075D01*
X203383464Y-69954517D01*
X203581681Y-69847852D01*
X203700217Y-69753321D01*
X203764904Y-69726914D01*
X203833599Y-69739669D01*
X203863220Y-69760641D01*
X203883864Y-69780379D01*
X203885176Y-69781633D01*
X204073033Y-69905636D01*
X204280004Y-69994100D01*
X204280007Y-69994101D01*
X204280012Y-69994103D01*
X204499463Y-70044191D01*
X204724330Y-70054290D01*
X204947387Y-70024075D01*
X205161464Y-69954517D01*
X205359681Y-69847852D01*
X205478217Y-69753321D01*
X205542904Y-69726914D01*
X205611599Y-69739669D01*
X205641220Y-69760641D01*
X205661864Y-69780379D01*
X205663176Y-69781633D01*
X205851033Y-69905636D01*
X206058004Y-69994100D01*
X206058007Y-69994101D01*
X206058012Y-69994103D01*
X206277463Y-70044191D01*
X206502330Y-70054290D01*
X206725387Y-70024075D01*
X206939464Y-69954517D01*
X207137681Y-69847852D01*
X207256217Y-69753321D01*
X207320904Y-69726914D01*
X207389599Y-69739669D01*
X207419220Y-69760641D01*
X207439864Y-69780379D01*
X207441176Y-69781633D01*
X207629033Y-69905636D01*
X207836004Y-69994100D01*
X207836007Y-69994101D01*
X207836012Y-69994103D01*
X208055463Y-70044191D01*
X208280330Y-70054290D01*
X208503387Y-70024075D01*
X208717464Y-69954517D01*
X208915681Y-69847852D01*
X209034217Y-69753321D01*
X209098904Y-69726914D01*
X209167599Y-69739669D01*
X209197220Y-69760641D01*
X209217864Y-69780379D01*
X209219176Y-69781633D01*
X209407033Y-69905636D01*
X209614004Y-69994100D01*
X209614007Y-69994101D01*
X209614012Y-69994103D01*
X209833463Y-70044191D01*
X210058330Y-70054290D01*
X210281387Y-70024075D01*
X210495464Y-69954517D01*
X210693681Y-69847852D01*
X210812217Y-69753321D01*
X210876904Y-69726914D01*
X210945599Y-69739669D01*
X210975220Y-69760641D01*
X210995864Y-69780379D01*
X210997176Y-69781633D01*
X211185033Y-69905636D01*
X211392004Y-69994100D01*
X211392007Y-69994101D01*
X211392012Y-69994103D01*
X211611463Y-70044191D01*
X211836330Y-70054290D01*
X212059387Y-70024075D01*
X212273464Y-69954517D01*
X212471681Y-69847852D01*
X212590217Y-69753321D01*
X212654904Y-69726914D01*
X212723599Y-69739669D01*
X212753220Y-69760641D01*
X212773864Y-69780379D01*
X212775176Y-69781633D01*
X212963033Y-69905636D01*
X213170004Y-69994100D01*
X213170007Y-69994101D01*
X213170012Y-69994103D01*
X213389463Y-70044191D01*
X213614330Y-70054290D01*
X213837387Y-70024075D01*
X214051464Y-69954517D01*
X214249681Y-69847852D01*
X214368217Y-69753321D01*
X214432904Y-69726914D01*
X214501599Y-69739669D01*
X214531220Y-69760641D01*
X214551864Y-69780379D01*
X214553176Y-69781633D01*
X214741033Y-69905636D01*
X214948004Y-69994100D01*
X214948007Y-69994101D01*
X214948012Y-69994103D01*
X215167463Y-70044191D01*
X215392330Y-70054290D01*
X215615387Y-70024075D01*
X215829464Y-69954517D01*
X216027681Y-69847852D01*
X216146217Y-69753321D01*
X216210904Y-69726914D01*
X216279599Y-69739669D01*
X216309220Y-69760641D01*
X216329864Y-69780379D01*
X216331176Y-69781633D01*
X216519033Y-69905636D01*
X216726004Y-69994100D01*
X216726007Y-69994101D01*
X216726012Y-69994103D01*
X216945463Y-70044191D01*
X217170330Y-70054290D01*
X217393387Y-70024075D01*
X217607464Y-69954517D01*
X217805681Y-69847852D01*
X217924217Y-69753321D01*
X217988904Y-69726914D01*
X218057599Y-69739669D01*
X218087220Y-69760641D01*
X218107864Y-69780379D01*
X218109176Y-69781633D01*
X218297033Y-69905636D01*
X218504004Y-69994100D01*
X218504007Y-69994101D01*
X218504012Y-69994103D01*
X218723463Y-70044191D01*
X218948330Y-70054290D01*
X219171387Y-70024075D01*
X219385464Y-69954517D01*
X219583681Y-69847852D01*
X219702217Y-69753321D01*
X219766904Y-69726914D01*
X219835599Y-69739669D01*
X219865220Y-69760641D01*
X219885864Y-69780379D01*
X219887176Y-69781633D01*
X220075033Y-69905636D01*
X220282004Y-69994100D01*
X220282007Y-69994101D01*
X220282012Y-69994103D01*
X220501463Y-70044191D01*
X220726330Y-70054290D01*
X220949387Y-70024075D01*
X221163464Y-69954517D01*
X221361681Y-69847852D01*
X221480217Y-69753321D01*
X221544904Y-69726914D01*
X221613599Y-69739669D01*
X221643220Y-69760641D01*
X221663864Y-69780379D01*
X221665176Y-69781633D01*
X221853033Y-69905636D01*
X222060004Y-69994100D01*
X222060007Y-69994101D01*
X222060012Y-69994103D01*
X222279463Y-70044191D01*
X222504330Y-70054290D01*
X222727387Y-70024075D01*
X222941464Y-69954517D01*
X223139681Y-69847852D01*
X223258217Y-69753321D01*
X223322904Y-69726914D01*
X223391599Y-69739669D01*
X223421220Y-69760641D01*
X223441864Y-69780379D01*
X223443176Y-69781633D01*
X223631033Y-69905636D01*
X223838004Y-69994100D01*
X223838007Y-69994101D01*
X223838012Y-69994103D01*
X224057463Y-70044191D01*
X224282330Y-70054290D01*
X224505387Y-70024075D01*
X224719464Y-69954517D01*
X224917681Y-69847852D01*
X225036217Y-69753321D01*
X225100904Y-69726914D01*
X225169599Y-69739669D01*
X225199220Y-69760641D01*
X225219864Y-69780379D01*
X225221176Y-69781633D01*
X225409033Y-69905636D01*
X225616004Y-69994100D01*
X225616007Y-69994101D01*
X225616012Y-69994103D01*
X225835463Y-70044191D01*
X226060330Y-70054290D01*
X226283387Y-70024075D01*
X226497464Y-69954517D01*
X226695681Y-69847852D01*
X226814217Y-69753321D01*
X226878904Y-69726914D01*
X226947599Y-69739669D01*
X226977220Y-69760641D01*
X226997864Y-69780379D01*
X226999176Y-69781633D01*
X227187033Y-69905636D01*
X227394004Y-69994100D01*
X227394007Y-69994101D01*
X227394012Y-69994103D01*
X227613463Y-70044191D01*
X227838330Y-70054290D01*
X228061387Y-70024075D01*
X228275464Y-69954517D01*
X228473681Y-69847852D01*
X228592217Y-69753321D01*
X228656904Y-69726914D01*
X228725599Y-69739669D01*
X228755220Y-69760641D01*
X228775864Y-69780379D01*
X228777176Y-69781633D01*
X228965033Y-69905636D01*
X229172004Y-69994100D01*
X229172007Y-69994101D01*
X229172012Y-69994103D01*
X229391463Y-70044191D01*
X229616330Y-70054290D01*
X229839387Y-70024075D01*
X230053464Y-69954517D01*
X230251681Y-69847852D01*
X230427666Y-69707508D01*
X230575765Y-69537996D01*
X230691215Y-69344764D01*
X230759407Y-69163067D01*
X230801392Y-69107219D01*
X230866907Y-69082936D01*
X230935149Y-69097927D01*
X230984453Y-69147434D01*
X230999500Y-69206638D01*
X230999500Y-85375500D01*
X230979815Y-85442539D01*
X230927011Y-85488294D01*
X230875500Y-85499500D01*
X159624500Y-85499500D01*
X159557461Y-85479815D01*
X159511706Y-85427011D01*
X159500500Y-85375500D01*
X159500500Y-83566000D01*
X162982341Y-83566000D01*
X163002936Y-83801403D01*
X163002938Y-83801413D01*
X163064094Y-84029655D01*
X163064096Y-84029659D01*
X163064097Y-84029663D01*
X163163965Y-84243830D01*
X163163967Y-84243834D01*
X163272281Y-84398521D01*
X163299505Y-84437401D01*
X163466599Y-84604495D01*
X163543135Y-84658086D01*
X163660165Y-84740032D01*
X163660167Y-84740033D01*
X163660170Y-84740035D01*
X163874337Y-84839903D01*
X164102592Y-84901063D01*
X164273319Y-84916000D01*
X164337999Y-84921659D01*
X164338000Y-84921659D01*
X164338001Y-84921659D01*
X164402681Y-84916000D01*
X164573408Y-84901063D01*
X164801663Y-84839903D01*
X165015830Y-84740035D01*
X165209401Y-84604495D01*
X165331717Y-84482178D01*
X165393036Y-84448696D01*
X165462728Y-84453680D01*
X165518662Y-84495551D01*
X165535577Y-84526528D01*
X165584646Y-84658088D01*
X165584649Y-84658093D01*
X165670809Y-84773187D01*
X165670812Y-84773190D01*
X165785906Y-84859350D01*
X165785913Y-84859354D01*
X165920620Y-84909596D01*
X165920627Y-84909598D01*
X165980155Y-84915999D01*
X165980172Y-84916000D01*
X166628000Y-84916000D01*
X166628000Y-84001501D01*
X166735685Y-84050680D01*
X166842237Y-84066000D01*
X166913763Y-84066000D01*
X167020315Y-84050680D01*
X167128000Y-84001501D01*
X167128000Y-84916000D01*
X167775828Y-84916000D01*
X167775844Y-84915999D01*
X167835372Y-84909598D01*
X167835379Y-84909596D01*
X167970086Y-84859354D01*
X167970093Y-84859350D01*
X168085187Y-84773190D01*
X168085190Y-84773187D01*
X168171350Y-84658093D01*
X168171354Y-84658086D01*
X168221596Y-84523379D01*
X168221598Y-84523372D01*
X168227999Y-84463844D01*
X168228000Y-84463827D01*
X168228000Y-83816000D01*
X167311686Y-83816000D01*
X167337493Y-83775844D01*
X167378000Y-83637889D01*
X167378000Y-83494111D01*
X167337493Y-83356156D01*
X167311686Y-83316000D01*
X168228000Y-83316000D01*
X168228000Y-82668172D01*
X168227999Y-82668155D01*
X168221598Y-82608627D01*
X168221596Y-82608620D01*
X168171354Y-82473913D01*
X168171350Y-82473906D01*
X168085190Y-82358812D01*
X168085187Y-82358809D01*
X167970093Y-82272649D01*
X167970088Y-82272646D01*
X167838528Y-82223577D01*
X167782595Y-82181705D01*
X167758178Y-82116241D01*
X167773030Y-82047968D01*
X167794175Y-82019720D01*
X167916495Y-81897401D01*
X168052035Y-81703830D01*
X168151903Y-81489663D01*
X168213063Y-81261408D01*
X168233659Y-81026000D01*
X168213063Y-80790592D01*
X168151903Y-80562337D01*
X168052035Y-80348171D01*
X168046425Y-80340158D01*
X167916494Y-80154597D01*
X167749402Y-79987506D01*
X167749396Y-79987501D01*
X167563842Y-79857575D01*
X167520217Y-79802998D01*
X167513023Y-79733500D01*
X167544546Y-79671145D01*
X167563842Y-79654425D01*
X167586026Y-79638891D01*
X167749401Y-79524495D01*
X167916495Y-79357401D01*
X168052035Y-79163830D01*
X168151903Y-78949663D01*
X168213063Y-78721408D01*
X168233659Y-78486000D01*
X168213063Y-78250592D01*
X168151903Y-78022337D01*
X168052035Y-77808171D01*
X168046425Y-77800158D01*
X167916494Y-77614597D01*
X167749402Y-77447506D01*
X167749396Y-77447501D01*
X167563842Y-77317575D01*
X167520217Y-77262998D01*
X167513023Y-77193500D01*
X167544546Y-77131145D01*
X167563842Y-77114425D01*
X167586026Y-77098891D01*
X167749401Y-76984495D01*
X167916495Y-76817401D01*
X168052035Y-76623830D01*
X168151903Y-76409663D01*
X168213063Y-76181408D01*
X168233659Y-75946000D01*
X168213063Y-75710592D01*
X168151903Y-75482337D01*
X168052035Y-75268171D01*
X168046425Y-75260158D01*
X167916494Y-75074597D01*
X167749402Y-74907506D01*
X167749396Y-74907501D01*
X167563842Y-74777575D01*
X167520217Y-74722998D01*
X167513023Y-74653500D01*
X167544546Y-74591145D01*
X167563842Y-74574425D01*
X167586026Y-74558891D01*
X167749401Y-74444495D01*
X167916495Y-74277401D01*
X168052035Y-74083830D01*
X168151903Y-73869663D01*
X168213063Y-73641408D01*
X168233659Y-73406000D01*
X168213063Y-73170592D01*
X168151903Y-72942337D01*
X168052035Y-72728171D01*
X168046425Y-72720158D01*
X167916494Y-72534597D01*
X167749402Y-72367506D01*
X167749396Y-72367501D01*
X167563842Y-72237575D01*
X167520217Y-72182998D01*
X167513023Y-72113500D01*
X167544546Y-72051145D01*
X167563842Y-72034425D01*
X167586026Y-72018891D01*
X167749401Y-71904495D01*
X167916495Y-71737401D01*
X168052035Y-71543830D01*
X168151903Y-71329663D01*
X168213063Y-71101408D01*
X168233659Y-70866000D01*
X168213063Y-70630592D01*
X168151903Y-70402337D01*
X168052035Y-70188171D01*
X168046425Y-70180158D01*
X167916494Y-69994597D01*
X167749402Y-69827506D01*
X167749396Y-69827501D01*
X167563842Y-69697575D01*
X167520217Y-69642998D01*
X167513023Y-69573500D01*
X167544546Y-69511145D01*
X167563842Y-69494425D01*
X167586026Y-69478891D01*
X167749401Y-69364495D01*
X167916495Y-69197401D01*
X168052035Y-69003830D01*
X168151903Y-68789663D01*
X168213063Y-68561408D01*
X168233659Y-68326000D01*
X168213063Y-68090592D01*
X168151903Y-67862337D01*
X168052035Y-67648171D01*
X168046425Y-67640158D01*
X167916494Y-67454597D01*
X167749402Y-67287506D01*
X167749396Y-67287501D01*
X167563842Y-67157575D01*
X167520217Y-67102998D01*
X167513023Y-67033500D01*
X167544546Y-66971145D01*
X167563842Y-66954425D01*
X167651741Y-66892877D01*
X167749401Y-66824495D01*
X167916495Y-66657401D01*
X168052035Y-66463830D01*
X168151903Y-66249663D01*
X168213063Y-66021408D01*
X168233659Y-65786000D01*
X168213063Y-65550592D01*
X168151903Y-65322337D01*
X168052035Y-65108171D01*
X168046425Y-65100158D01*
X167916494Y-64914597D01*
X167749402Y-64747506D01*
X167749396Y-64747501D01*
X167563842Y-64617575D01*
X167520217Y-64562998D01*
X167513023Y-64493500D01*
X167544546Y-64431145D01*
X167563842Y-64414425D01*
X167618323Y-64376277D01*
X167749401Y-64284495D01*
X167916495Y-64117401D01*
X168052035Y-63923830D01*
X168151903Y-63709663D01*
X168213063Y-63481408D01*
X168233659Y-63246000D01*
X168213063Y-63010592D01*
X168151903Y-62782337D01*
X168052035Y-62568171D01*
X168046425Y-62560158D01*
X167916494Y-62374597D01*
X167749402Y-62207506D01*
X167749396Y-62207501D01*
X167563842Y-62077575D01*
X167520217Y-62022998D01*
X167513023Y-61953500D01*
X167544546Y-61891145D01*
X167563842Y-61874425D01*
X167586026Y-61858891D01*
X167749401Y-61744495D01*
X167916495Y-61577401D01*
X168052035Y-61383830D01*
X168151903Y-61169663D01*
X168213063Y-60941408D01*
X168233659Y-60706000D01*
X168213063Y-60470592D01*
X168151903Y-60242337D01*
X168052035Y-60028171D01*
X168046425Y-60020158D01*
X167916494Y-59834597D01*
X167749402Y-59667506D01*
X167749396Y-59667501D01*
X167563842Y-59537575D01*
X167520217Y-59482998D01*
X167513023Y-59413500D01*
X167544546Y-59351145D01*
X167563842Y-59334425D01*
X167613720Y-59299500D01*
X167749401Y-59204495D01*
X167916495Y-59037401D01*
X168052035Y-58843830D01*
X168151903Y-58629663D01*
X168213063Y-58401408D01*
X168233659Y-58166000D01*
X168233478Y-58163936D01*
X168224456Y-58060814D01*
X168213063Y-57930592D01*
X168151903Y-57702337D01*
X168052035Y-57488171D01*
X168046425Y-57480158D01*
X167916494Y-57294597D01*
X167749402Y-57127506D01*
X167749396Y-57127501D01*
X167563842Y-56997575D01*
X167520217Y-56942998D01*
X167513023Y-56873500D01*
X167544546Y-56811145D01*
X167563842Y-56794425D01*
X167586026Y-56778891D01*
X167749401Y-56664495D01*
X167916495Y-56497401D01*
X168052035Y-56303830D01*
X168151903Y-56089663D01*
X168213063Y-55861408D01*
X168233659Y-55626000D01*
X168213063Y-55390592D01*
X168151903Y-55162337D01*
X168052035Y-54948171D01*
X168046425Y-54940158D01*
X167916494Y-54754597D01*
X167749402Y-54587506D01*
X167749396Y-54587501D01*
X167563842Y-54457575D01*
X167520217Y-54402998D01*
X167513023Y-54333500D01*
X167544546Y-54271145D01*
X167563842Y-54254425D01*
X167740062Y-54131034D01*
X167749401Y-54124495D01*
X167916495Y-53957401D01*
X168052035Y-53763830D01*
X168151903Y-53549663D01*
X168213063Y-53321408D01*
X168233659Y-53086000D01*
X168213063Y-52850592D01*
X168151903Y-52622337D01*
X168052035Y-52408171D01*
X168048246Y-52402759D01*
X167916494Y-52214597D01*
X167749402Y-52047506D01*
X167749395Y-52047501D01*
X167555834Y-51911967D01*
X167555830Y-51911965D01*
X167433471Y-51854908D01*
X167341663Y-51812097D01*
X167341659Y-51812096D01*
X167341655Y-51812094D01*
X167113413Y-51750938D01*
X167113403Y-51750936D01*
X166878001Y-51730341D01*
X166877999Y-51730341D01*
X166642596Y-51750936D01*
X166642586Y-51750938D01*
X166414344Y-51812094D01*
X166414335Y-51812098D01*
X166200171Y-51911964D01*
X166200169Y-51911965D01*
X166006597Y-52047505D01*
X165839505Y-52214597D01*
X165709575Y-52400158D01*
X165654998Y-52443783D01*
X165585500Y-52450977D01*
X165523145Y-52419454D01*
X165506425Y-52400158D01*
X165376494Y-52214597D01*
X165209402Y-52047506D01*
X165209395Y-52047501D01*
X165015834Y-51911967D01*
X165015830Y-51911965D01*
X164893471Y-51854908D01*
X164801663Y-51812097D01*
X164801659Y-51812096D01*
X164801655Y-51812094D01*
X164573413Y-51750938D01*
X164573403Y-51750936D01*
X164338001Y-51730341D01*
X164337999Y-51730341D01*
X164102596Y-51750936D01*
X164102586Y-51750938D01*
X163874344Y-51812094D01*
X163874335Y-51812098D01*
X163660171Y-51911964D01*
X163660169Y-51911965D01*
X163466597Y-52047505D01*
X163299505Y-52214597D01*
X163163965Y-52408169D01*
X163163964Y-52408171D01*
X163064098Y-52622335D01*
X163064094Y-52622344D01*
X163002938Y-52850586D01*
X163002936Y-52850596D01*
X162982341Y-53085999D01*
X162982341Y-53086000D01*
X163002936Y-53321403D01*
X163002938Y-53321413D01*
X163064094Y-53549655D01*
X163064096Y-53549659D01*
X163064097Y-53549663D01*
X163113450Y-53655500D01*
X163163965Y-53763830D01*
X163163967Y-53763834D01*
X163256209Y-53895568D01*
X163299501Y-53957396D01*
X163299506Y-53957402D01*
X163466597Y-54124493D01*
X163466603Y-54124498D01*
X163652158Y-54254425D01*
X163695783Y-54309002D01*
X163702977Y-54378500D01*
X163671454Y-54440855D01*
X163652158Y-54457575D01*
X163466597Y-54587505D01*
X163299505Y-54754597D01*
X163163965Y-54948169D01*
X163163964Y-54948171D01*
X163064098Y-55162335D01*
X163064094Y-55162344D01*
X163002938Y-55390586D01*
X163002936Y-55390596D01*
X162982341Y-55625999D01*
X162982341Y-55626000D01*
X163002936Y-55861403D01*
X163002938Y-55861413D01*
X163064094Y-56089655D01*
X163064096Y-56089659D01*
X163064097Y-56089663D01*
X163144004Y-56261023D01*
X163163965Y-56303830D01*
X163163967Y-56303834D01*
X163234487Y-56404546D01*
X163299501Y-56497396D01*
X163299506Y-56497402D01*
X163466597Y-56664493D01*
X163466603Y-56664498D01*
X163652158Y-56794425D01*
X163695783Y-56849002D01*
X163702977Y-56918500D01*
X163671454Y-56980855D01*
X163652158Y-56997575D01*
X163466597Y-57127505D01*
X163299505Y-57294597D01*
X163163965Y-57488169D01*
X163163964Y-57488171D01*
X163064098Y-57702335D01*
X163064094Y-57702344D01*
X163002938Y-57930586D01*
X163002936Y-57930596D01*
X162982341Y-58165999D01*
X162982341Y-58166000D01*
X163002936Y-58401403D01*
X163002938Y-58401413D01*
X163064094Y-58629655D01*
X163064096Y-58629659D01*
X163064097Y-58629663D01*
X163068000Y-58638032D01*
X163163965Y-58843830D01*
X163163967Y-58843834D01*
X163272281Y-58998521D01*
X163299501Y-59037396D01*
X163299506Y-59037402D01*
X163466597Y-59204493D01*
X163466603Y-59204498D01*
X163652158Y-59334425D01*
X163695783Y-59389002D01*
X163702977Y-59458500D01*
X163671454Y-59520855D01*
X163652158Y-59537575D01*
X163466597Y-59667505D01*
X163299505Y-59834597D01*
X163163965Y-60028169D01*
X163163964Y-60028171D01*
X163064098Y-60242335D01*
X163064094Y-60242344D01*
X163002938Y-60470586D01*
X163002936Y-60470596D01*
X162982341Y-60705999D01*
X162982341Y-60706000D01*
X163002936Y-60941403D01*
X163002938Y-60941413D01*
X163064094Y-61169655D01*
X163064096Y-61169659D01*
X163064097Y-61169663D01*
X163068000Y-61178032D01*
X163163965Y-61383830D01*
X163163967Y-61383834D01*
X163272281Y-61538521D01*
X163299501Y-61577396D01*
X163299506Y-61577402D01*
X163466597Y-61744493D01*
X163466603Y-61744498D01*
X163652158Y-61874425D01*
X163695783Y-61929002D01*
X163702977Y-61998500D01*
X163671454Y-62060855D01*
X163652158Y-62077575D01*
X163466597Y-62207505D01*
X163299505Y-62374597D01*
X163163965Y-62568169D01*
X163163964Y-62568171D01*
X163064098Y-62782335D01*
X163064094Y-62782344D01*
X163002938Y-63010586D01*
X163002936Y-63010596D01*
X162982341Y-63245999D01*
X162982341Y-63246000D01*
X163002936Y-63481403D01*
X163002938Y-63481413D01*
X163064094Y-63709655D01*
X163064096Y-63709659D01*
X163064097Y-63709663D01*
X163138202Y-63868581D01*
X163163965Y-63923830D01*
X163163967Y-63923834D01*
X163272281Y-64078521D01*
X163299501Y-64117396D01*
X163299506Y-64117402D01*
X163466597Y-64284493D01*
X163466603Y-64284498D01*
X163652158Y-64414425D01*
X163695783Y-64469002D01*
X163702977Y-64538500D01*
X163671454Y-64600855D01*
X163652158Y-64617575D01*
X163466597Y-64747505D01*
X163299505Y-64914597D01*
X163163965Y-65108169D01*
X163163964Y-65108171D01*
X163064098Y-65322335D01*
X163064094Y-65322344D01*
X163002938Y-65550586D01*
X163002936Y-65550596D01*
X162982341Y-65785999D01*
X162982341Y-65786000D01*
X163002936Y-66021403D01*
X163002938Y-66021413D01*
X163064094Y-66249655D01*
X163064096Y-66249659D01*
X163064097Y-66249663D01*
X163068000Y-66258032D01*
X163163965Y-66463830D01*
X163163967Y-66463834D01*
X163272281Y-66618521D01*
X163299501Y-66657396D01*
X163299506Y-66657402D01*
X163466597Y-66824493D01*
X163466603Y-66824498D01*
X163652158Y-66954425D01*
X163695783Y-67009002D01*
X163702977Y-67078500D01*
X163671454Y-67140855D01*
X163652158Y-67157575D01*
X163466597Y-67287505D01*
X163299505Y-67454597D01*
X163163965Y-67648169D01*
X163163964Y-67648171D01*
X163064098Y-67862335D01*
X163064094Y-67862344D01*
X163002938Y-68090586D01*
X163002936Y-68090596D01*
X162982341Y-68325999D01*
X162982341Y-68326000D01*
X163002936Y-68561403D01*
X163002938Y-68561413D01*
X163064094Y-68789655D01*
X163064096Y-68789659D01*
X163064097Y-68789663D01*
X163095103Y-68856155D01*
X163163965Y-69003830D01*
X163163967Y-69003834D01*
X163229852Y-69097927D01*
X163299501Y-69197396D01*
X163299506Y-69197402D01*
X163466597Y-69364493D01*
X163466603Y-69364498D01*
X163652158Y-69494425D01*
X163695783Y-69549002D01*
X163702977Y-69618500D01*
X163671454Y-69680855D01*
X163652158Y-69697575D01*
X163466597Y-69827505D01*
X163299505Y-69994597D01*
X163163965Y-70188169D01*
X163163964Y-70188171D01*
X163064098Y-70402335D01*
X163064094Y-70402344D01*
X163002938Y-70630586D01*
X163002936Y-70630596D01*
X162982341Y-70865999D01*
X162982341Y-70866000D01*
X163002936Y-71101403D01*
X163002938Y-71101413D01*
X163064094Y-71329655D01*
X163064096Y-71329659D01*
X163064097Y-71329663D01*
X163068000Y-71338032D01*
X163163965Y-71543830D01*
X163163967Y-71543834D01*
X163222112Y-71626873D01*
X163299501Y-71737396D01*
X163299506Y-71737402D01*
X163466597Y-71904493D01*
X163466603Y-71904498D01*
X163652158Y-72034425D01*
X163695783Y-72089002D01*
X163702977Y-72158500D01*
X163671454Y-72220855D01*
X163652158Y-72237575D01*
X163466597Y-72367505D01*
X163299505Y-72534597D01*
X163163965Y-72728169D01*
X163163964Y-72728171D01*
X163064098Y-72942335D01*
X163064094Y-72942344D01*
X163002938Y-73170586D01*
X163002936Y-73170596D01*
X162982341Y-73405999D01*
X162982341Y-73406000D01*
X163002936Y-73641403D01*
X163002938Y-73641413D01*
X163064094Y-73869655D01*
X163064096Y-73869659D01*
X163064097Y-73869663D01*
X163068000Y-73878032D01*
X163163965Y-74083830D01*
X163163967Y-74083834D01*
X163272281Y-74238521D01*
X163299501Y-74277396D01*
X163299506Y-74277402D01*
X163466597Y-74444493D01*
X163466603Y-74444498D01*
X163652158Y-74574425D01*
X163695783Y-74629002D01*
X163702977Y-74698500D01*
X163671454Y-74760855D01*
X163652158Y-74777575D01*
X163466597Y-74907505D01*
X163299505Y-75074597D01*
X163163965Y-75268169D01*
X163163964Y-75268171D01*
X163064098Y-75482335D01*
X163064094Y-75482344D01*
X163002938Y-75710586D01*
X163002936Y-75710596D01*
X162982341Y-75945999D01*
X162982341Y-75946000D01*
X163002936Y-76181403D01*
X163002938Y-76181413D01*
X163064094Y-76409655D01*
X163064096Y-76409659D01*
X163064097Y-76409663D01*
X163068000Y-76418032D01*
X163163965Y-76623830D01*
X163163967Y-76623834D01*
X163272281Y-76778521D01*
X163299501Y-76817396D01*
X163299506Y-76817402D01*
X163466597Y-76984493D01*
X163466603Y-76984498D01*
X163652158Y-77114425D01*
X163695783Y-77169002D01*
X163702977Y-77238500D01*
X163671454Y-77300855D01*
X163652158Y-77317575D01*
X163466597Y-77447505D01*
X163299505Y-77614597D01*
X163163965Y-77808169D01*
X163163964Y-77808171D01*
X163064098Y-78022335D01*
X163064094Y-78022344D01*
X163002938Y-78250586D01*
X163002936Y-78250596D01*
X162982341Y-78485999D01*
X162982341Y-78486000D01*
X163002936Y-78721403D01*
X163002938Y-78721413D01*
X163064094Y-78949655D01*
X163064096Y-78949659D01*
X163064097Y-78949663D01*
X163068000Y-78958032D01*
X163163965Y-79163830D01*
X163163967Y-79163834D01*
X163272281Y-79318521D01*
X163299501Y-79357396D01*
X163299506Y-79357402D01*
X163466597Y-79524493D01*
X163466603Y-79524498D01*
X163652158Y-79654425D01*
X163695783Y-79709002D01*
X163702977Y-79778500D01*
X163671454Y-79840855D01*
X163652158Y-79857575D01*
X163466597Y-79987505D01*
X163299505Y-80154597D01*
X163163965Y-80348169D01*
X163163964Y-80348171D01*
X163064098Y-80562335D01*
X163064094Y-80562344D01*
X163002938Y-80790586D01*
X163002936Y-80790596D01*
X162982341Y-81025999D01*
X162982341Y-81026000D01*
X163002936Y-81261403D01*
X163002938Y-81261413D01*
X163064094Y-81489655D01*
X163064096Y-81489659D01*
X163064097Y-81489663D01*
X163068000Y-81498032D01*
X163163965Y-81703830D01*
X163163967Y-81703834D01*
X163272281Y-81858521D01*
X163299501Y-81897396D01*
X163299506Y-81897402D01*
X163466597Y-82064493D01*
X163466603Y-82064498D01*
X163652158Y-82194425D01*
X163695783Y-82249002D01*
X163702977Y-82318500D01*
X163671454Y-82380855D01*
X163652158Y-82397575D01*
X163466597Y-82527505D01*
X163299505Y-82694597D01*
X163163965Y-82888169D01*
X163163964Y-82888171D01*
X163064098Y-83102335D01*
X163064094Y-83102344D01*
X163002938Y-83330586D01*
X163002936Y-83330596D01*
X162982341Y-83565999D01*
X162982341Y-83566000D01*
X159500500Y-83566000D01*
X159500500Y-46482000D01*
X160696341Y-46482000D01*
X160716936Y-46717403D01*
X160716938Y-46717413D01*
X160778094Y-46945655D01*
X160778096Y-46945659D01*
X160778097Y-46945663D01*
X160870159Y-47143089D01*
X160877965Y-47159830D01*
X160877967Y-47159834D01*
X160971562Y-47293500D01*
X161013505Y-47353401D01*
X161180599Y-47520495D01*
X161242359Y-47563740D01*
X161374165Y-47656032D01*
X161374167Y-47656033D01*
X161374170Y-47656035D01*
X161588337Y-47755903D01*
X161816592Y-47817063D01*
X162004918Y-47833539D01*
X162051999Y-47837659D01*
X162052000Y-47837659D01*
X162052001Y-47837659D01*
X162091234Y-47834226D01*
X162287408Y-47817063D01*
X162515663Y-47755903D01*
X162729830Y-47656035D01*
X162923401Y-47520495D01*
X163090495Y-47353401D01*
X163226035Y-47159830D01*
X163325903Y-46945663D01*
X163387063Y-46717408D01*
X163407659Y-46482000D01*
X163387063Y-46246592D01*
X163325903Y-46018337D01*
X163226035Y-45804171D01*
X163225651Y-45803623D01*
X163090496Y-45610600D01*
X163055802Y-45575906D01*
X162968179Y-45488283D01*
X162934696Y-45426963D01*
X162939680Y-45357271D01*
X162981551Y-45301337D01*
X163012529Y-45284422D01*
X163144086Y-45235354D01*
X163144093Y-45235350D01*
X163259187Y-45149190D01*
X163259190Y-45149187D01*
X163345350Y-45034093D01*
X163345354Y-45034086D01*
X163395596Y-44899379D01*
X163395598Y-44899372D01*
X163401999Y-44839844D01*
X163402000Y-44839827D01*
X163402000Y-44192000D01*
X162485686Y-44192000D01*
X162511493Y-44151844D01*
X162552000Y-44013889D01*
X162552000Y-43870111D01*
X162511493Y-43732156D01*
X162485686Y-43692000D01*
X163402000Y-43692000D01*
X163402000Y-43044172D01*
X163401999Y-43044155D01*
X163395598Y-42984627D01*
X163395596Y-42984620D01*
X163345354Y-42849913D01*
X163345350Y-42849906D01*
X163259190Y-42734812D01*
X163259187Y-42734809D01*
X163144093Y-42648649D01*
X163144086Y-42648645D01*
X163009379Y-42598403D01*
X163009372Y-42598401D01*
X162949844Y-42592000D01*
X162302000Y-42592000D01*
X162302000Y-43506498D01*
X162194315Y-43457320D01*
X162087763Y-43442000D01*
X162016237Y-43442000D01*
X161909685Y-43457320D01*
X161802000Y-43506498D01*
X161802000Y-42592000D01*
X161154155Y-42592000D01*
X161094627Y-42598401D01*
X161094620Y-42598403D01*
X160959913Y-42648645D01*
X160959906Y-42648649D01*
X160844812Y-42734809D01*
X160844809Y-42734812D01*
X160758649Y-42849906D01*
X160758645Y-42849913D01*
X160708403Y-42984620D01*
X160708401Y-42984627D01*
X160702000Y-43044155D01*
X160702000Y-43692000D01*
X161618314Y-43692000D01*
X161592507Y-43732156D01*
X161552000Y-43870111D01*
X161552000Y-44013889D01*
X161592507Y-44151844D01*
X161618314Y-44192000D01*
X160702000Y-44192000D01*
X160702000Y-44839844D01*
X160708401Y-44899372D01*
X160708403Y-44899379D01*
X160758645Y-45034086D01*
X160758649Y-45034093D01*
X160844809Y-45149187D01*
X160844812Y-45149190D01*
X160959906Y-45235350D01*
X160959913Y-45235354D01*
X161091470Y-45284421D01*
X161147403Y-45326292D01*
X161171821Y-45391756D01*
X161156970Y-45460029D01*
X161135819Y-45488284D01*
X161013503Y-45610600D01*
X160877965Y-45804169D01*
X160877964Y-45804171D01*
X160778098Y-46018335D01*
X160778094Y-46018344D01*
X160716938Y-46246586D01*
X160716936Y-46246596D01*
X160696341Y-46481999D01*
X160696341Y-46482000D01*
X159500500Y-46482000D01*
X159500500Y-34624500D01*
X159520185Y-34557461D01*
X159572989Y-34511706D01*
X159624500Y-34500500D01*
X213641946Y-34500500D01*
X213708985Y-34520185D01*
G37*
%TD.AperFunction*%
%TA.AperFunction,Conductor*%
G36*
X173986000Y-54030400D02*
G01*
X174583828Y-54030400D01*
X174583844Y-54030399D01*
X174643372Y-54023998D01*
X174643379Y-54023996D01*
X174778086Y-53973754D01*
X174778093Y-53973750D01*
X174893187Y-53887590D01*
X174893190Y-53887587D01*
X174979350Y-53772493D01*
X174979354Y-53772486D01*
X175029596Y-53637780D01*
X175033424Y-53602181D01*
X175060162Y-53537630D01*
X175117555Y-53497782D01*
X175187380Y-53495288D01*
X175247469Y-53530940D01*
X175258289Y-53544312D01*
X175275956Y-53569543D01*
X175436858Y-53730445D01*
X175597623Y-53843013D01*
X175641248Y-53897589D01*
X175650500Y-53944588D01*
X175650500Y-59383255D01*
X175648775Y-59398872D01*
X175649061Y-59398899D01*
X175648326Y-59406665D01*
X175650500Y-59475814D01*
X175650500Y-59505343D01*
X175650501Y-59505360D01*
X175651368Y-59512231D01*
X175651826Y-59518050D01*
X175653290Y-59564624D01*
X175653291Y-59564627D01*
X175658880Y-59583867D01*
X175662824Y-59602911D01*
X175665336Y-59622791D01*
X175682490Y-59666119D01*
X175684382Y-59671647D01*
X175697381Y-59716388D01*
X175707580Y-59733634D01*
X175716138Y-59751103D01*
X175723514Y-59769732D01*
X175750898Y-59807423D01*
X175754106Y-59812307D01*
X175777827Y-59852416D01*
X175777833Y-59852424D01*
X175791990Y-59866580D01*
X175804628Y-59881376D01*
X175816405Y-59897586D01*
X175816406Y-59897587D01*
X175852309Y-59927288D01*
X175856620Y-59931210D01*
X179370595Y-63445185D01*
X182871722Y-66946312D01*
X182905207Y-67007635D01*
X182900223Y-67077327D01*
X182858351Y-67133260D01*
X182842801Y-67143187D01*
X182640321Y-67252146D01*
X182640312Y-67252152D01*
X182521782Y-67346677D01*
X182457096Y-67373086D01*
X182388400Y-67360329D01*
X182358779Y-67339357D01*
X182336827Y-67318369D01*
X182148966Y-67194363D01*
X181941995Y-67105899D01*
X181941982Y-67105895D01*
X181722542Y-67055810D01*
X181722538Y-67055809D01*
X181722537Y-67055809D01*
X181722536Y-67055808D01*
X181722531Y-67055808D01*
X181497674Y-67045710D01*
X181497673Y-67045710D01*
X181497670Y-67045710D01*
X181274613Y-67075925D01*
X181274610Y-67075925D01*
X181274609Y-67075926D01*
X181060534Y-67145483D01*
X180862321Y-67252146D01*
X180862312Y-67252152D01*
X180743782Y-67346677D01*
X180679096Y-67373086D01*
X180610400Y-67360329D01*
X180580779Y-67339357D01*
X180558827Y-67318369D01*
X180370966Y-67194363D01*
X180163995Y-67105899D01*
X180163982Y-67105895D01*
X179944542Y-67055810D01*
X179944538Y-67055809D01*
X179944537Y-67055809D01*
X179944536Y-67055808D01*
X179944531Y-67055808D01*
X179719674Y-67045710D01*
X179719673Y-67045710D01*
X179719670Y-67045710D01*
X179496613Y-67075925D01*
X179496610Y-67075925D01*
X179496609Y-67075926D01*
X179282534Y-67145483D01*
X179084321Y-67252146D01*
X179084312Y-67252152D01*
X178965782Y-67346677D01*
X178901096Y-67373086D01*
X178832400Y-67360329D01*
X178802779Y-67339357D01*
X178780827Y-67318369D01*
X178592966Y-67194363D01*
X178385995Y-67105899D01*
X178385982Y-67105895D01*
X178166542Y-67055810D01*
X178166538Y-67055809D01*
X178166537Y-67055809D01*
X178166536Y-67055808D01*
X178166531Y-67055808D01*
X177941674Y-67045710D01*
X177941673Y-67045710D01*
X177941670Y-67045710D01*
X177718613Y-67075925D01*
X177718610Y-67075925D01*
X177718609Y-67075926D01*
X177504534Y-67145483D01*
X177306321Y-67252146D01*
X177306312Y-67252152D01*
X177187782Y-67346677D01*
X177123096Y-67373086D01*
X177054400Y-67360329D01*
X177024779Y-67339357D01*
X177002827Y-67318369D01*
X176814966Y-67194363D01*
X176607995Y-67105899D01*
X176607982Y-67105895D01*
X176388542Y-67055810D01*
X176388538Y-67055809D01*
X176388537Y-67055809D01*
X176388536Y-67055808D01*
X176388531Y-67055808D01*
X176163674Y-67045710D01*
X176163673Y-67045710D01*
X176163670Y-67045710D01*
X175940613Y-67075925D01*
X175940610Y-67075925D01*
X175940609Y-67075926D01*
X175726534Y-67145483D01*
X175528321Y-67252146D01*
X175528312Y-67252152D01*
X175409387Y-67346992D01*
X175344701Y-67373401D01*
X175276005Y-67360644D01*
X175246385Y-67339673D01*
X175224510Y-67318760D01*
X175224511Y-67318760D01*
X175036733Y-67194808D01*
X174829830Y-67106375D01*
X174829821Y-67106372D01*
X174610475Y-67056308D01*
X174610464Y-67056306D01*
X174385696Y-67046212D01*
X174162721Y-67076416D01*
X173948731Y-67145945D01*
X173750594Y-67252568D01*
X173610133Y-67364579D01*
X174397600Y-68152046D01*
X174316852Y-68164835D01*
X174203955Y-68222359D01*
X174114359Y-68311955D01*
X174056835Y-68424852D01*
X174044046Y-68505598D01*
X173306505Y-67768057D01*
X173306504Y-67768058D01*
X173232175Y-67966109D01*
X173198345Y-68152527D01*
X173167006Y-68214974D01*
X173106881Y-68250565D01*
X173037058Y-68247999D01*
X172988657Y-68218066D01*
X172365819Y-67595228D01*
X172332334Y-67533905D01*
X172329500Y-67507547D01*
X172329500Y-53927109D01*
X172349185Y-53860070D01*
X172401989Y-53814315D01*
X172471147Y-53804371D01*
X172534703Y-53833396D01*
X172552767Y-53852798D01*
X172578813Y-53887590D01*
X172693906Y-53973750D01*
X172693913Y-53973754D01*
X172828620Y-54023996D01*
X172828627Y-54023998D01*
X172888155Y-54030399D01*
X172888172Y-54030400D01*
X173486000Y-54030400D01*
X173486000Y-53046086D01*
X173497955Y-53058041D01*
X173610852Y-53115565D01*
X173704519Y-53130400D01*
X173767481Y-53130400D01*
X173861148Y-53115565D01*
X173974045Y-53058041D01*
X173986000Y-53046086D01*
X173986000Y-54030400D01*
G37*
%TD.AperFunction*%
%TA.AperFunction,Conductor*%
G36*
X179066000Y-38769272D02*
G01*
X179262317Y-38716669D01*
X179262326Y-38716665D01*
X179468482Y-38620534D01*
X179654820Y-38490057D01*
X179815657Y-38329220D01*
X179946132Y-38142884D01*
X179973341Y-38084534D01*
X180019513Y-38032095D01*
X180086707Y-38012942D01*
X180153588Y-38033157D01*
X180198106Y-38084533D01*
X180225431Y-38143132D01*
X180225432Y-38143134D01*
X180355954Y-38329541D01*
X180516859Y-38490446D01*
X180606430Y-38553164D01*
X180650055Y-38607741D01*
X180657249Y-38677239D01*
X180625726Y-38739594D01*
X180622988Y-38742420D01*
X174058208Y-45307199D01*
X174045951Y-45317020D01*
X174046134Y-45317241D01*
X174040123Y-45322213D01*
X173992772Y-45372636D01*
X173971889Y-45393519D01*
X173971877Y-45393532D01*
X173967621Y-45399017D01*
X173963837Y-45403447D01*
X173931937Y-45437418D01*
X173931936Y-45437420D01*
X173922284Y-45454976D01*
X173911610Y-45471226D01*
X173899329Y-45487061D01*
X173899324Y-45487068D01*
X173880815Y-45529838D01*
X173878245Y-45535084D01*
X173855803Y-45575906D01*
X173850822Y-45595307D01*
X173844521Y-45613710D01*
X173836562Y-45632102D01*
X173836561Y-45632105D01*
X173829271Y-45678127D01*
X173828087Y-45683846D01*
X173816501Y-45728972D01*
X173816500Y-45728982D01*
X173816500Y-45749016D01*
X173814973Y-45768415D01*
X173811840Y-45788194D01*
X173811840Y-45788195D01*
X173816225Y-45834583D01*
X173816500Y-45840421D01*
X173816500Y-48092447D01*
X173796815Y-48159486D01*
X173754614Y-48198539D01*
X173754970Y-48199078D01*
X173751701Y-48201235D01*
X173751269Y-48201636D01*
X173750327Y-48202142D01*
X173750318Y-48202148D01*
X173574336Y-48342489D01*
X173426236Y-48512003D01*
X173310787Y-48705232D01*
X173310786Y-48705234D01*
X173231692Y-48915976D01*
X173191500Y-49137450D01*
X173191500Y-49806151D01*
X173206622Y-49974186D01*
X173206623Y-49974192D01*
X173266503Y-50191160D01*
X173266508Y-50191173D01*
X173364167Y-50393966D01*
X173364171Y-50393974D01*
X173496473Y-50576072D01*
X173496474Y-50576074D01*
X173496477Y-50576077D01*
X173496478Y-50576078D01*
X173554414Y-50631470D01*
X173659176Y-50731633D01*
X173847033Y-50855636D01*
X174054004Y-50944100D01*
X174054007Y-50944101D01*
X174054012Y-50944103D01*
X174273463Y-50994191D01*
X174498330Y-51004290D01*
X174721387Y-50974075D01*
X174935464Y-50904517D01*
X175133681Y-50797852D01*
X175252217Y-50703321D01*
X175316904Y-50676914D01*
X175385599Y-50689669D01*
X175415220Y-50710641D01*
X175427513Y-50722394D01*
X175437176Y-50731633D01*
X175625033Y-50855636D01*
X175832004Y-50944100D01*
X175832007Y-50944101D01*
X175832012Y-50944103D01*
X176051463Y-50994191D01*
X176276330Y-51004290D01*
X176499387Y-50974075D01*
X176713464Y-50904517D01*
X176911681Y-50797852D01*
X177030217Y-50703321D01*
X177094904Y-50676914D01*
X177163599Y-50689669D01*
X177193220Y-50710641D01*
X177205513Y-50722394D01*
X177215176Y-50731633D01*
X177403033Y-50855636D01*
X177610004Y-50944100D01*
X177610007Y-50944101D01*
X177610012Y-50944103D01*
X177829463Y-50994191D01*
X178054330Y-51004290D01*
X178277387Y-50974075D01*
X178491464Y-50904517D01*
X178689681Y-50797852D01*
X178808217Y-50703321D01*
X178872904Y-50676914D01*
X178941599Y-50689669D01*
X178971220Y-50710641D01*
X178983513Y-50722394D01*
X178993176Y-50731633D01*
X179181033Y-50855636D01*
X179388004Y-50944100D01*
X179388007Y-50944101D01*
X179388012Y-50944103D01*
X179607463Y-50994191D01*
X179832330Y-51004290D01*
X180055387Y-50974075D01*
X180269464Y-50904517D01*
X180467681Y-50797852D01*
X180586217Y-50703321D01*
X180650904Y-50676914D01*
X180719599Y-50689669D01*
X180749220Y-50710641D01*
X180761513Y-50722394D01*
X180771176Y-50731633D01*
X180959033Y-50855636D01*
X181166004Y-50944100D01*
X181166007Y-50944101D01*
X181166012Y-50944103D01*
X181385463Y-50994191D01*
X181610330Y-51004290D01*
X181802619Y-50978242D01*
X181871689Y-50988750D01*
X181924118Y-51034934D01*
X181943255Y-51102131D01*
X181923024Y-51169008D01*
X181906940Y-51188801D01*
X181686369Y-51409372D01*
X181625046Y-51442857D01*
X181587881Y-51445219D01*
X181582680Y-51444764D01*
X181563171Y-51443057D01*
X181356002Y-51424932D01*
X181355998Y-51424932D01*
X181129313Y-51444764D01*
X181129302Y-51444766D01*
X180909511Y-51503658D01*
X180909502Y-51503661D01*
X180703267Y-51599831D01*
X180703265Y-51599832D01*
X180516858Y-51730354D01*
X180355954Y-51891258D01*
X180225432Y-52077665D01*
X180225431Y-52077667D01*
X180198382Y-52135675D01*
X180152209Y-52188114D01*
X180085016Y-52207266D01*
X180018135Y-52187050D01*
X179973618Y-52135675D01*
X179961117Y-52108866D01*
X179946568Y-52077666D01*
X179847219Y-51935780D01*
X179816045Y-51891258D01*
X179655141Y-51730354D01*
X179468734Y-51599832D01*
X179468732Y-51599831D01*
X179262497Y-51503661D01*
X179262488Y-51503658D01*
X179042697Y-51444766D01*
X179042693Y-51444765D01*
X179042692Y-51444765D01*
X179042691Y-51444764D01*
X179042686Y-51444764D01*
X178816002Y-51424932D01*
X178815998Y-51424932D01*
X178589313Y-51444764D01*
X178589302Y-51444766D01*
X178369511Y-51503658D01*
X178369502Y-51503661D01*
X178163267Y-51599831D01*
X178163265Y-51599832D01*
X177976858Y-51730354D01*
X177815954Y-51891258D01*
X177685432Y-52077665D01*
X177685431Y-52077667D01*
X177658382Y-52135675D01*
X177612209Y-52188114D01*
X177545016Y-52207266D01*
X177478135Y-52187050D01*
X177433618Y-52135675D01*
X177421117Y-52108866D01*
X177406568Y-52077666D01*
X177307219Y-51935780D01*
X177276045Y-51891258D01*
X177115141Y-51730354D01*
X176928734Y-51599832D01*
X176928732Y-51599831D01*
X176722497Y-51503661D01*
X176722488Y-51503658D01*
X176502697Y-51444766D01*
X176502693Y-51444765D01*
X176502692Y-51444765D01*
X176502691Y-51444764D01*
X176502686Y-51444764D01*
X176276002Y-51424932D01*
X176275998Y-51424932D01*
X176049313Y-51444764D01*
X176049302Y-51444766D01*
X175829511Y-51503658D01*
X175829502Y-51503661D01*
X175623267Y-51599831D01*
X175623265Y-51599832D01*
X175436858Y-51730354D01*
X175275951Y-51891261D01*
X175258287Y-51916488D01*
X175203710Y-51960112D01*
X175134211Y-51967304D01*
X175071857Y-51935780D01*
X175036445Y-51875550D01*
X175033425Y-51858618D01*
X175029598Y-51823027D01*
X175029596Y-51823020D01*
X174979354Y-51688313D01*
X174979350Y-51688306D01*
X174893190Y-51573212D01*
X174893187Y-51573209D01*
X174778093Y-51487049D01*
X174778086Y-51487045D01*
X174643379Y-51436803D01*
X174643372Y-51436801D01*
X174583844Y-51430400D01*
X173986000Y-51430400D01*
X173986000Y-52414714D01*
X173974045Y-52402759D01*
X173861148Y-52345235D01*
X173767481Y-52330400D01*
X173704519Y-52330400D01*
X173610852Y-52345235D01*
X173497955Y-52402759D01*
X173486000Y-52414714D01*
X173486000Y-51430400D01*
X172888155Y-51430400D01*
X172828627Y-51436801D01*
X172828620Y-51436803D01*
X172693913Y-51487045D01*
X172693906Y-51487049D01*
X172578812Y-51573209D01*
X172552766Y-51608002D01*
X172496831Y-51649873D01*
X172427140Y-51654856D01*
X172365817Y-51621370D01*
X172332333Y-51560046D01*
X172329500Y-51533690D01*
X172329500Y-42372852D01*
X172349185Y-42305813D01*
X172365819Y-42285171D01*
X174105119Y-40545871D01*
X175861179Y-38789810D01*
X175922500Y-38756327D01*
X175980947Y-38757717D01*
X176049308Y-38776035D01*
X176206780Y-38789812D01*
X176275998Y-38795868D01*
X176276000Y-38795868D01*
X176276002Y-38795868D01*
X176345220Y-38789812D01*
X176502692Y-38776035D01*
X176722496Y-38717139D01*
X176928734Y-38620968D01*
X177115139Y-38490447D01*
X177276047Y-38329539D01*
X177406568Y-38143134D01*
X177433895Y-38084529D01*
X177480064Y-38032095D01*
X177547257Y-38012942D01*
X177614139Y-38033157D01*
X177658657Y-38084533D01*
X177685865Y-38142882D01*
X177816342Y-38329220D01*
X177977179Y-38490057D01*
X178163517Y-38620534D01*
X178369673Y-38716665D01*
X178369682Y-38716669D01*
X178565999Y-38769272D01*
X178566000Y-38769271D01*
X178566000Y-37806086D01*
X178577955Y-37818041D01*
X178690852Y-37875565D01*
X178784519Y-37890400D01*
X178847481Y-37890400D01*
X178941148Y-37875565D01*
X179054045Y-37818041D01*
X179066000Y-37806086D01*
X179066000Y-38769272D01*
G37*
%TD.AperFunction*%
%TA.AperFunction,Conductor*%
G36*
X218253865Y-38033748D02*
G01*
X218298382Y-38085125D01*
X218325429Y-38143128D01*
X218325432Y-38143134D01*
X218455954Y-38329541D01*
X218616858Y-38490445D01*
X218777623Y-38603013D01*
X218821248Y-38657589D01*
X218830500Y-38704588D01*
X218830500Y-39795255D01*
X218828775Y-39810872D01*
X218829061Y-39810899D01*
X218828326Y-39818665D01*
X218830500Y-39887814D01*
X218830500Y-39917343D01*
X218830501Y-39917360D01*
X218831368Y-39924231D01*
X218831826Y-39930050D01*
X218833290Y-39976624D01*
X218833291Y-39976627D01*
X218838880Y-39995867D01*
X218842824Y-40014911D01*
X218845336Y-40034792D01*
X218847654Y-40040646D01*
X218862490Y-40078119D01*
X218864382Y-40083647D01*
X218877381Y-40128388D01*
X218887580Y-40145634D01*
X218896136Y-40163100D01*
X218903514Y-40181732D01*
X218930898Y-40219423D01*
X218934106Y-40224307D01*
X218957827Y-40264416D01*
X218957833Y-40264424D01*
X218971990Y-40278580D01*
X218984628Y-40293376D01*
X218996405Y-40309586D01*
X218996406Y-40309587D01*
X219032309Y-40339288D01*
X219036620Y-40343210D01*
X220419036Y-41725626D01*
X221786181Y-43092771D01*
X221819666Y-43154094D01*
X221822500Y-43180452D01*
X221822500Y-48092447D01*
X221802815Y-48159486D01*
X221760614Y-48198539D01*
X221760970Y-48199078D01*
X221757701Y-48201235D01*
X221757269Y-48201636D01*
X221756327Y-48202142D01*
X221756312Y-48202152D01*
X221637782Y-48296677D01*
X221573096Y-48323086D01*
X221504400Y-48310329D01*
X221474779Y-48289357D01*
X221452827Y-48268369D01*
X221264966Y-48144363D01*
X221057995Y-48055899D01*
X221057982Y-48055895D01*
X220838542Y-48005810D01*
X220838538Y-48005809D01*
X220838537Y-48005809D01*
X220838536Y-48005808D01*
X220838531Y-48005808D01*
X220613674Y-47995710D01*
X220613673Y-47995710D01*
X220613670Y-47995710D01*
X220390613Y-48025925D01*
X220390610Y-48025925D01*
X220390609Y-48025926D01*
X220176534Y-48095483D01*
X219978321Y-48202146D01*
X219978312Y-48202152D01*
X219859782Y-48296677D01*
X219795096Y-48323086D01*
X219726400Y-48310329D01*
X219696779Y-48289357D01*
X219674827Y-48268369D01*
X219486966Y-48144363D01*
X219279995Y-48055899D01*
X219279982Y-48055895D01*
X219060542Y-48005810D01*
X219060538Y-48005809D01*
X219060537Y-48005809D01*
X219060536Y-48005808D01*
X219060531Y-48005808D01*
X218835674Y-47995710D01*
X218835673Y-47995710D01*
X218835670Y-47995710D01*
X218612613Y-48025925D01*
X218612610Y-48025925D01*
X218612609Y-48025926D01*
X218398534Y-48095483D01*
X218200321Y-48202146D01*
X218200312Y-48202152D01*
X218081782Y-48296677D01*
X218017096Y-48323086D01*
X217948400Y-48310329D01*
X217918779Y-48289357D01*
X217896827Y-48268369D01*
X217708966Y-48144363D01*
X217501995Y-48055899D01*
X217501982Y-48055895D01*
X217282542Y-48005810D01*
X217282538Y-48005809D01*
X217282537Y-48005809D01*
X217282536Y-48005808D01*
X217282531Y-48005808D01*
X217057674Y-47995710D01*
X217057673Y-47995710D01*
X217057670Y-47995710D01*
X216834613Y-48025925D01*
X216834610Y-48025925D01*
X216834609Y-48025926D01*
X216620534Y-48095483D01*
X216422321Y-48202146D01*
X216422312Y-48202152D01*
X216303782Y-48296677D01*
X216239096Y-48323086D01*
X216170400Y-48310329D01*
X216140779Y-48289357D01*
X216118827Y-48268369D01*
X215930966Y-48144363D01*
X215723995Y-48055899D01*
X215723982Y-48055895D01*
X215504542Y-48005810D01*
X215504538Y-48005809D01*
X215504537Y-48005809D01*
X215504536Y-48005808D01*
X215504531Y-48005808D01*
X215279674Y-47995710D01*
X215279673Y-47995710D01*
X215279670Y-47995710D01*
X215056613Y-48025925D01*
X215056610Y-48025925D01*
X215056609Y-48025926D01*
X214842534Y-48095483D01*
X214644321Y-48202146D01*
X214644312Y-48202152D01*
X214525387Y-48296992D01*
X214460701Y-48323401D01*
X214392005Y-48310644D01*
X214362385Y-48289673D01*
X214340510Y-48268760D01*
X214340511Y-48268760D01*
X214152733Y-48144808D01*
X213945830Y-48056375D01*
X213945821Y-48056372D01*
X213726475Y-48006308D01*
X213726464Y-48006306D01*
X213501696Y-47996212D01*
X213278721Y-48026416D01*
X213064731Y-48095945D01*
X212866598Y-48202565D01*
X212866596Y-48202567D01*
X212748146Y-48297027D01*
X212683459Y-48323435D01*
X212614764Y-48310678D01*
X212585143Y-48289706D01*
X212579399Y-48284214D01*
X212562825Y-48268368D01*
X212473159Y-48209180D01*
X212374966Y-48144363D01*
X212167995Y-48055899D01*
X212167982Y-48055895D01*
X211948542Y-48005810D01*
X211948538Y-48005809D01*
X211948537Y-48005809D01*
X211948536Y-48005808D01*
X211948531Y-48005808D01*
X211723674Y-47995710D01*
X211723673Y-47995710D01*
X211723670Y-47995710D01*
X211500613Y-48025925D01*
X211500610Y-48025925D01*
X211500609Y-48025926D01*
X211286534Y-48095483D01*
X211088321Y-48202146D01*
X211088312Y-48202152D01*
X210969782Y-48296677D01*
X210905096Y-48323086D01*
X210836400Y-48310329D01*
X210806779Y-48289357D01*
X210784827Y-48268369D01*
X210596966Y-48144363D01*
X210389995Y-48055899D01*
X210389982Y-48055895D01*
X210170542Y-48005810D01*
X210170538Y-48005809D01*
X210170537Y-48005809D01*
X210170536Y-48005808D01*
X210170531Y-48005808D01*
X209945674Y-47995710D01*
X209945673Y-47995710D01*
X209945670Y-47995710D01*
X209722613Y-48025925D01*
X209722610Y-48025925D01*
X209722609Y-48025926D01*
X209508534Y-48095483D01*
X209310321Y-48202146D01*
X209310312Y-48202152D01*
X209191782Y-48296677D01*
X209127096Y-48323086D01*
X209058400Y-48310329D01*
X209028779Y-48289357D01*
X209006827Y-48268369D01*
X208818966Y-48144363D01*
X208611995Y-48055899D01*
X208611982Y-48055895D01*
X208392542Y-48005810D01*
X208392538Y-48005809D01*
X208392537Y-48005809D01*
X208392536Y-48005808D01*
X208392531Y-48005808D01*
X208167674Y-47995710D01*
X208167673Y-47995710D01*
X208167670Y-47995710D01*
X207944613Y-48025925D01*
X207944610Y-48025925D01*
X207944609Y-48025926D01*
X207730534Y-48095483D01*
X207532321Y-48202146D01*
X207532312Y-48202152D01*
X207413782Y-48296677D01*
X207349096Y-48323086D01*
X207280400Y-48310329D01*
X207250779Y-48289357D01*
X207228827Y-48268369D01*
X207040966Y-48144363D01*
X206833995Y-48055899D01*
X206833982Y-48055895D01*
X206614542Y-48005810D01*
X206614538Y-48005809D01*
X206614537Y-48005809D01*
X206614536Y-48005808D01*
X206614531Y-48005808D01*
X206389674Y-47995710D01*
X206389673Y-47995710D01*
X206389670Y-47995710D01*
X206166613Y-48025925D01*
X206166610Y-48025925D01*
X206166609Y-48025926D01*
X205952534Y-48095483D01*
X205754321Y-48202146D01*
X205754312Y-48202152D01*
X205635782Y-48296677D01*
X205571096Y-48323086D01*
X205502400Y-48310329D01*
X205472779Y-48289357D01*
X205450827Y-48268369D01*
X205262966Y-48144363D01*
X205055995Y-48055899D01*
X205055982Y-48055895D01*
X204836542Y-48005810D01*
X204836538Y-48005809D01*
X204836537Y-48005809D01*
X204836536Y-48005808D01*
X204836531Y-48005808D01*
X204611674Y-47995710D01*
X204611673Y-47995710D01*
X204611670Y-47995710D01*
X204388613Y-48025925D01*
X204388610Y-48025925D01*
X204388609Y-48025926D01*
X204174534Y-48095483D01*
X203976321Y-48202146D01*
X203976312Y-48202152D01*
X203857782Y-48296677D01*
X203793096Y-48323086D01*
X203724400Y-48310329D01*
X203694779Y-48289357D01*
X203672827Y-48268369D01*
X203484966Y-48144363D01*
X203277995Y-48055899D01*
X203277982Y-48055895D01*
X203058542Y-48005810D01*
X203058538Y-48005809D01*
X203058537Y-48005809D01*
X203058536Y-48005808D01*
X203058531Y-48005808D01*
X202833674Y-47995710D01*
X202833673Y-47995710D01*
X202833670Y-47995710D01*
X202610613Y-48025925D01*
X202610610Y-48025925D01*
X202610609Y-48025926D01*
X202396534Y-48095483D01*
X202198321Y-48202146D01*
X202198312Y-48202152D01*
X202079782Y-48296677D01*
X202015096Y-48323086D01*
X201946400Y-48310329D01*
X201916779Y-48289357D01*
X201894827Y-48268369D01*
X201706966Y-48144363D01*
X201499995Y-48055899D01*
X201499982Y-48055895D01*
X201280542Y-48005810D01*
X201280538Y-48005809D01*
X201280537Y-48005809D01*
X201280536Y-48005808D01*
X201280531Y-48005808D01*
X201055674Y-47995710D01*
X201055673Y-47995710D01*
X201055670Y-47995710D01*
X200832613Y-48025925D01*
X200832610Y-48025925D01*
X200832609Y-48025926D01*
X200618534Y-48095483D01*
X200420321Y-48202146D01*
X200420312Y-48202152D01*
X200301782Y-48296677D01*
X200237096Y-48323086D01*
X200168400Y-48310329D01*
X200138779Y-48289357D01*
X200116827Y-48268369D01*
X199928971Y-48144366D01*
X199905761Y-48134446D01*
X199889994Y-48127706D01*
X199836088Y-48083259D01*
X199814768Y-48016722D01*
X199832806Y-47949221D01*
X199851046Y-47926009D01*
X208965630Y-38811425D01*
X209026951Y-38777942D01*
X209064117Y-38775580D01*
X209069303Y-38776033D01*
X209069308Y-38776035D01*
X209274263Y-38793966D01*
X209295999Y-38795868D01*
X209296000Y-38795868D01*
X209296002Y-38795868D01*
X209365220Y-38789812D01*
X209522692Y-38776035D01*
X209742496Y-38717139D01*
X209948734Y-38620968D01*
X210135139Y-38490447D01*
X210296047Y-38329539D01*
X210426568Y-38143134D01*
X210453618Y-38085124D01*
X210499790Y-38032685D01*
X210566983Y-38013533D01*
X210633865Y-38033748D01*
X210678382Y-38085125D01*
X210705429Y-38143128D01*
X210705432Y-38143134D01*
X210835954Y-38329541D01*
X210996858Y-38490445D01*
X210996861Y-38490447D01*
X211183266Y-38620968D01*
X211389504Y-38717139D01*
X211609308Y-38776035D01*
X211766780Y-38789812D01*
X211835998Y-38795868D01*
X211836000Y-38795868D01*
X211836002Y-38795868D01*
X211905220Y-38789812D01*
X212062692Y-38776035D01*
X212282496Y-38717139D01*
X212488734Y-38620968D01*
X212675139Y-38490447D01*
X212836047Y-38329539D01*
X212966568Y-38143134D01*
X212993618Y-38085124D01*
X213039790Y-38032685D01*
X213106983Y-38013533D01*
X213173865Y-38033748D01*
X213218382Y-38085125D01*
X213245429Y-38143128D01*
X213245432Y-38143134D01*
X213375954Y-38329541D01*
X213536858Y-38490445D01*
X213536861Y-38490447D01*
X213723266Y-38620968D01*
X213929504Y-38717139D01*
X214149308Y-38776035D01*
X214306780Y-38789812D01*
X214375998Y-38795868D01*
X214376000Y-38795868D01*
X214376002Y-38795868D01*
X214445220Y-38789812D01*
X214602692Y-38776035D01*
X214822496Y-38717139D01*
X215028734Y-38620968D01*
X215215139Y-38490447D01*
X215376047Y-38329539D01*
X215506568Y-38143134D01*
X215533618Y-38085124D01*
X215579790Y-38032685D01*
X215646983Y-38013533D01*
X215713865Y-38033748D01*
X215758382Y-38085125D01*
X215785429Y-38143128D01*
X215785432Y-38143134D01*
X215915954Y-38329541D01*
X216076858Y-38490445D01*
X216076861Y-38490447D01*
X216263266Y-38620968D01*
X216469504Y-38717139D01*
X216689308Y-38776035D01*
X216846780Y-38789812D01*
X216915998Y-38795868D01*
X216916000Y-38795868D01*
X216916002Y-38795868D01*
X216985220Y-38789812D01*
X217142692Y-38776035D01*
X217362496Y-38717139D01*
X217568734Y-38620968D01*
X217755139Y-38490447D01*
X217916047Y-38329539D01*
X218046568Y-38143134D01*
X218073618Y-38085124D01*
X218119790Y-38032685D01*
X218186983Y-38013533D01*
X218253865Y-38033748D01*
G37*
%TD.AperFunction*%
%TA.AperFunction,Conductor*%
G36*
X222246000Y-38769272D02*
G01*
X222442317Y-38716669D01*
X222442326Y-38716665D01*
X222648482Y-38620534D01*
X222834820Y-38490057D01*
X222995657Y-38329220D01*
X223126134Y-38142881D01*
X223128839Y-38138197D01*
X223131039Y-38139467D01*
X223170088Y-38095014D01*
X223237259Y-38075784D01*
X223304164Y-38095922D01*
X223324101Y-38112100D01*
X223564181Y-38352180D01*
X223597666Y-38413503D01*
X223600500Y-38439861D01*
X223600500Y-48092447D01*
X223580815Y-48159486D01*
X223538614Y-48198539D01*
X223538970Y-48199078D01*
X223535701Y-48201235D01*
X223535269Y-48201636D01*
X223534327Y-48202142D01*
X223534312Y-48202152D01*
X223415782Y-48296677D01*
X223351096Y-48323086D01*
X223282400Y-48310329D01*
X223252779Y-48289357D01*
X223230827Y-48268369D01*
X223230824Y-48268366D01*
X223129188Y-48201276D01*
X223084083Y-48147916D01*
X223073500Y-48097790D01*
X223073500Y-42952742D01*
X223075224Y-42937122D01*
X223074939Y-42937096D01*
X223075671Y-42929340D01*
X223075673Y-42929333D01*
X223073500Y-42860185D01*
X223073500Y-42830650D01*
X223072631Y-42823772D01*
X223072172Y-42817943D01*
X223070709Y-42771372D01*
X223065122Y-42752144D01*
X223061174Y-42733084D01*
X223059573Y-42720406D01*
X223058664Y-42713208D01*
X223058663Y-42713206D01*
X223058663Y-42713204D01*
X223041512Y-42669887D01*
X223039619Y-42664358D01*
X223026618Y-42619609D01*
X223026616Y-42619606D01*
X223016423Y-42602371D01*
X223007861Y-42584894D01*
X223000487Y-42566270D01*
X222998025Y-42562881D01*
X222973079Y-42528545D01*
X222969888Y-42523686D01*
X222966632Y-42518181D01*
X222946170Y-42483580D01*
X222946168Y-42483578D01*
X222946165Y-42483574D01*
X222932006Y-42469415D01*
X222919368Y-42454619D01*
X222907594Y-42438413D01*
X222871688Y-42408709D01*
X222867376Y-42404786D01*
X220117819Y-39655228D01*
X220084334Y-39593905D01*
X220081500Y-39567547D01*
X220081500Y-38704588D01*
X220101185Y-38637549D01*
X220134377Y-38603013D01*
X220227097Y-38538090D01*
X220295139Y-38490447D01*
X220456047Y-38329539D01*
X220586568Y-38143134D01*
X220613895Y-38084529D01*
X220660064Y-38032095D01*
X220727257Y-38012942D01*
X220794139Y-38033157D01*
X220838657Y-38084533D01*
X220865865Y-38142882D01*
X220996342Y-38329220D01*
X221157179Y-38490057D01*
X221343517Y-38620534D01*
X221549673Y-38716665D01*
X221549682Y-38716669D01*
X221745999Y-38769272D01*
X221746000Y-38769271D01*
X221746000Y-37806086D01*
X221757955Y-37818041D01*
X221870852Y-37875565D01*
X221964519Y-37890400D01*
X222027481Y-37890400D01*
X222121148Y-37875565D01*
X222234045Y-37818041D01*
X222246000Y-37806086D01*
X222246000Y-38769272D01*
G37*
%TD.AperFunction*%
%TA.AperFunction,Conductor*%
G36*
X220966188Y-36470185D02*
G01*
X221011943Y-36522989D01*
X221021887Y-36592147D01*
X220997810Y-36646006D01*
X220999444Y-36647150D01*
X220865867Y-36837915D01*
X220838657Y-36896267D01*
X220792484Y-36948706D01*
X220725290Y-36967857D01*
X220658409Y-36947641D01*
X220613893Y-36896265D01*
X220586685Y-36837918D01*
X220586568Y-36837666D01*
X220456047Y-36651261D01*
X220452942Y-36646826D01*
X220454734Y-36645571D01*
X220430502Y-36590171D01*
X220441556Y-36521182D01*
X220488155Y-36469120D01*
X220553508Y-36450500D01*
X220899149Y-36450500D01*
X220966188Y-36470185D01*
G37*
%TD.AperFunction*%
%TD*%
M02*
