M48
; DRILL file {KiCad 7.0.9-7.0.9~ubuntu20.04.1} date Mi 27 Dez 2023 13:11:41
; FORMAT={-:-/ absolute / metric / decimal}
; #@! TF.CreationDate,2023-12-27T13:11:41+01:00
; #@! TF.GenerationSoftware,Kicad,Pcbnew,7.0.9-7.0.9~ubuntu20.04.1
; #@! TF.FileFunction,MixedPlating,1,2
FMAT,2
METRIC
; #@! TA.AperFunction,Plated,PTH,ViaDrill
T1C0.400
; #@! TA.AperFunction,Plated,PTH,ComponentDrill
T2C0.800
; #@! TA.AperFunction,Plated,PTH,ComponentDrill
T3C1.000
%
G90
G05
T1
X169.672Y-47.752
X170.688Y-45.466
X181.356Y-62.992
X187.166Y-61.974
X187.687Y-60.198
X187.706Y-64.008
X187.706Y-65.278
X187.706Y-66.548
X187.772Y-62.832
X187.949Y-61.274
T2
X173.736Y-37.49
X173.736Y-52.73
X174.442Y-49.5
X174.442Y-68.55
X176.22Y-49.5
X176.22Y-68.55
X176.276Y-37.49
X176.276Y-45.974
X176.276Y-52.73
X177.998Y-49.5
X177.998Y-68.55
X178.816Y-37.49
X178.816Y-52.73
X178.816Y-55.372
X179.324Y-45.974
X179.776Y-49.5
X179.776Y-68.55
X181.356Y-37.49
X181.356Y-52.73
X181.554Y-49.5
X181.554Y-68.55
X183.134Y-45.974
X183.332Y-49.5
X183.332Y-68.55
X183.896Y-37.49
X183.896Y-40.64
X183.896Y-52.73
X183.896Y-55.372
X185.11Y-49.5
X185.11Y-68.55
X186.436Y-37.49
X186.436Y-52.73
X186.888Y-49.5
X186.888Y-68.55
X188.666Y-49.5
X188.666Y-68.55
X188.976Y-37.49
X188.976Y-52.73
X190.444Y-49.5
X190.444Y-68.55
X191.516Y-37.49
X191.516Y-52.73
X192.222Y-49.5
X192.222Y-68.55
X194.0Y-49.5
X194.0Y-68.55
X194.056Y-37.49
X194.056Y-52.73
X195.778Y-49.5
X195.778Y-68.55
X196.596Y-37.49
X196.596Y-52.73
X197.556Y-49.5
X197.556Y-68.55
X199.136Y-37.49
X199.136Y-52.73
X199.334Y-49.5
X199.334Y-68.55
X201.112Y-49.5
X201.112Y-68.55
X201.676Y-37.49
X201.676Y-52.73
X202.89Y-49.5
X202.89Y-68.55
X204.216Y-37.49
X204.216Y-52.73
X204.668Y-49.5
X204.668Y-68.55
X206.446Y-49.5
X206.446Y-68.55
X206.756Y-37.49
X206.756Y-52.73
X208.224Y-49.5
X208.224Y-68.55
X209.296Y-37.49
X209.296Y-52.73
X210.002Y-49.5
X210.002Y-68.55
X211.78Y-49.5
X211.78Y-68.55
X211.836Y-37.49
X211.836Y-52.73
X213.558Y-49.5
X213.558Y-68.55
X214.376Y-37.49
X214.376Y-52.73
X215.336Y-49.5
X215.336Y-68.55
X216.916Y-37.49
X216.916Y-52.73
X217.114Y-49.5
X217.114Y-68.55
X218.892Y-49.5
X218.892Y-68.55
X219.456Y-37.49
X219.456Y-52.73
X220.67Y-49.5
X220.67Y-68.55
X221.996Y-37.49
X221.996Y-52.73
X222.448Y-49.5
X222.448Y-68.55
X224.226Y-49.5
X224.226Y-68.55
X226.004Y-49.5
X226.004Y-68.55
X227.782Y-49.5
X227.782Y-68.55
X229.56Y-49.5
X229.56Y-68.55
T3
X162.052Y-43.942
X162.052Y-46.482
X164.338Y-53.086
X164.338Y-55.626
X164.338Y-58.166
X164.338Y-60.706
X164.338Y-63.246
X164.338Y-65.786
X164.338Y-68.326
X164.338Y-70.866
X164.338Y-73.406
X164.338Y-75.946
X164.338Y-78.486
X164.338Y-81.026
X164.338Y-83.566
X165.71Y-43.942
X165.71Y-46.482
X166.878Y-53.086
X166.878Y-55.626
X166.878Y-58.166
X166.878Y-60.706
X166.878Y-63.246
X166.878Y-65.786
X166.878Y-68.326
X166.878Y-70.866
X166.878Y-73.406
X166.878Y-75.946
X166.878Y-78.486
X166.878Y-81.026
X166.878Y-83.566
T0
M30
