%TF.GenerationSoftware,KiCad,Pcbnew,7.0.9-7.0.9~ubuntu20.04.1*%
%TF.CreationDate,2023-12-27T13:11:39+01:00*%
%TF.ProjectId,6303X_SDIP_Addon,36333033-585f-4534-9449-505f4164646f,rev?*%
%TF.SameCoordinates,Original*%
%TF.FileFunction,Copper,L2,Bot*%
%TF.FilePolarity,Positive*%
%FSLAX46Y46*%
G04 Gerber Fmt 4.6, Leading zero omitted, Abs format (unit mm)*
G04 Created by KiCad (PCBNEW 7.0.9-7.0.9~ubuntu20.04.1) date 2023-12-27 13:11:39*
%MOMM*%
%LPD*%
G01*
G04 APERTURE LIST*
G04 Aperture macros list*
%AMRoundRect*
0 Rectangle with rounded corners*
0 $1 Rounding radius*
0 $2 $3 $4 $5 $6 $7 $8 $9 X,Y pos of 4 corners*
0 Add a 4 corners polygon primitive as box body*
4,1,4,$2,$3,$4,$5,$6,$7,$8,$9,$2,$3,0*
0 Add four circle primitives for the rounded corners*
1,1,$1+$1,$2,$3*
1,1,$1+$1,$4,$5*
1,1,$1+$1,$6,$7*
1,1,$1+$1,$8,$9*
0 Add four rect primitives between the rounded corners*
20,1,$1+$1,$2,$3,$4,$5,0*
20,1,$1+$1,$4,$5,$6,$7,0*
20,1,$1+$1,$6,$7,$8,$9,0*
20,1,$1+$1,$8,$9,$2,$3,0*%
G04 Aperture macros list end*
%TA.AperFunction,ComponentPad*%
%ADD10R,1.700000X1.700000*%
%TD*%
%TA.AperFunction,ComponentPad*%
%ADD11O,1.700000X1.700000*%
%TD*%
%TA.AperFunction,ComponentPad*%
%ADD12R,1.350000X1.350000*%
%TD*%
%TA.AperFunction,ComponentPad*%
%ADD13R,1.600000X1.600000*%
%TD*%
%TA.AperFunction,ComponentPad*%
%ADD14O,1.600000X1.600000*%
%TD*%
%TA.AperFunction,ComponentPad*%
%ADD15O,1.500000X2.000000*%
%TD*%
%TA.AperFunction,SMDPad,CuDef*%
%ADD16RoundRect,0.250000X0.412500X0.650000X-0.412500X0.650000X-0.412500X-0.650000X0.412500X-0.650000X0*%
%TD*%
%TA.AperFunction,SMDPad,CuDef*%
%ADD17RoundRect,0.250000X-0.625000X0.400000X-0.625000X-0.400000X0.625000X-0.400000X0.625000X0.400000X0*%
%TD*%
%TA.AperFunction,ViaPad*%
%ADD18C,0.800000*%
%TD*%
%TA.AperFunction,Conductor*%
%ADD19C,0.250000*%
%TD*%
%TA.AperFunction,Conductor*%
%ADD20C,0.400000*%
%TD*%
G04 APERTURE END LIST*
D10*
%TO.P,JP1,1,A*%
%TO.N,GND*%
X162052000Y-43942000D03*
D11*
%TO.P,JP1,2,B*%
%TO.N,/MP0*%
X162052000Y-46482000D03*
%TD*%
D12*
%TO.P,J4,1,Pin_1*%
%TO.N,Net-(J4-Pin_1)*%
X183896000Y-40640000D03*
%TD*%
D13*
%TO.P,U3,1,VSS*%
%TO.N,GND*%
X173736000Y-52730400D03*
D14*
%TO.P,U3,2,~{HALT}*%
%TO.N,/~{HALT}*%
X176276000Y-52730400D03*
%TO.P,U3,3,MR*%
%TO.N,Net-(J3-Pin_1)*%
X178816000Y-52730400D03*
%TO.P,U3,4,~{IRQ}*%
%TO.N,/~{IRQ1}*%
X181356000Y-52730400D03*
%TO.P,U3,5,VMA*%
%TO.N,Net-(J6-Pin_1)*%
X183896000Y-52730400D03*
%TO.P,U3,6,~{NMI}*%
%TO.N,/~{NMI}*%
X186436000Y-52730400D03*
%TO.P,U3,7,BA*%
%TO.N,/BA*%
X188976000Y-52730400D03*
%TO.P,U3,8,VCC*%
%TO.N,+5V*%
X191516000Y-52730400D03*
%TO.P,U3,9,A0*%
%TO.N,/A0*%
X194056000Y-52730400D03*
%TO.P,U3,10,A1*%
%TO.N,/A1*%
X196596000Y-52730400D03*
%TO.P,U3,11,A2*%
%TO.N,/A2*%
X199136000Y-52730400D03*
%TO.P,U3,12,A3*%
%TO.N,/A3*%
X201676000Y-52730400D03*
%TO.P,U3,13,A4*%
%TO.N,/A4*%
X204216000Y-52730400D03*
%TO.P,U3,14,A5*%
%TO.N,/A5*%
X206756000Y-52730400D03*
%TO.P,U3,15,A6*%
%TO.N,/A6*%
X209296000Y-52730400D03*
%TO.P,U3,16,A7*%
%TO.N,/A7*%
X211836000Y-52730400D03*
%TO.P,U3,17,A8*%
%TO.N,/A8*%
X214376000Y-52730400D03*
%TO.P,U3,18,A9*%
%TO.N,/A9*%
X216916000Y-52730400D03*
%TO.P,U3,19,A10*%
%TO.N,/A10*%
X219456000Y-52730400D03*
%TO.P,U3,20,A11*%
%TO.N,/A11*%
X221996000Y-52730400D03*
%TO.P,U3,21,VSS*%
%TO.N,GND*%
X221996000Y-37490400D03*
%TO.P,U3,22,A12*%
%TO.N,/A12*%
X219456000Y-37490400D03*
%TO.P,U3,23,A13*%
%TO.N,/A13*%
X216916000Y-37490400D03*
%TO.P,U3,24,A14*%
%TO.N,/A14*%
X214376000Y-37490400D03*
%TO.P,U3,25,A15*%
%TO.N,/A15*%
X211836000Y-37490400D03*
%TO.P,U3,26,D7*%
%TO.N,/D7*%
X209296000Y-37490400D03*
%TO.P,U3,27,D6*%
%TO.N,/D6*%
X206756000Y-37490400D03*
%TO.P,U3,28,D5*%
%TO.N,/D5*%
X204216000Y-37490400D03*
%TO.P,U3,29,D4*%
%TO.N,/D4*%
X201676000Y-37490400D03*
%TO.P,U3,30,D3*%
%TO.N,/D3*%
X199136000Y-37490400D03*
%TO.P,U3,31,D2*%
%TO.N,/D2*%
X196596000Y-37490400D03*
%TO.P,U3,32,D1*%
%TO.N,/D1*%
X194056000Y-37490400D03*
%TO.P,U3,33,D0*%
%TO.N,/D0*%
X191516000Y-37490400D03*
%TO.P,U3,34,R/~{W}*%
%TO.N,/R{slash}~{W}*%
X188976000Y-37490400D03*
%TO.P,U3,35,VCC_STANDBY*%
%TO.N,+5C*%
X186436000Y-37490400D03*
%TO.P,U3,36,RE*%
%TO.N,Net-(J4-Pin_1)*%
X183896000Y-37490400D03*
%TO.P,U3,37,E*%
%TO.N,/PHI2*%
X181356000Y-37490400D03*
%TO.P,U3,38,XTAL*%
%TO.N,GND*%
X178816000Y-37490400D03*
%TO.P,U3,39,EXTAL*%
%TO.N,/CPUCLK*%
X176276000Y-37490400D03*
%TO.P,U3,40,~{RESET}*%
%TO.N,/~{RST}*%
X173736000Y-37490400D03*
%TD*%
D10*
%TO.P,J1,1,Pin_1*%
%TO.N,GND*%
X166878000Y-83566000D03*
D11*
%TO.P,J1,2,Pin_2*%
%TO.N,/P67*%
X164338000Y-83566000D03*
%TO.P,J1,3,Pin_3*%
%TO.N,/P66*%
X166878000Y-81026000D03*
%TO.P,J1,4,Pin_4*%
%TO.N,/P65*%
X164338000Y-81026000D03*
%TO.P,J1,5,Pin_5*%
%TO.N,/P64*%
X166878000Y-78486000D03*
%TO.P,J1,6,Pin_6*%
%TO.N,/P63*%
X164338000Y-78486000D03*
%TO.P,J1,7,Pin_7*%
%TO.N,/P62*%
X166878000Y-75946000D03*
%TO.P,J1,8,Pin_8*%
%TO.N,/P61*%
X164338000Y-75946000D03*
%TO.P,J1,9,Pin_9*%
%TO.N,/P60*%
X166878000Y-73406000D03*
%TO.P,J1,10,Pin_10*%
%TO.N,/P57*%
X164338000Y-73406000D03*
%TO.P,J1,11,Pin_11*%
%TO.N,/P56*%
X166878000Y-70866000D03*
%TO.P,J1,12,Pin_12*%
%TO.N,/P55*%
X164338000Y-70866000D03*
%TO.P,J1,13,Pin_13*%
%TO.N,/P54*%
X166878000Y-68326000D03*
%TO.P,J1,14,Pin_14*%
%TO.N,/P53*%
X164338000Y-68326000D03*
%TO.P,J1,15,Pin_15*%
%TO.N,/P52*%
X166878000Y-65786000D03*
%TO.P,J1,16,Pin_16*%
%TO.N,/P51*%
X164338000Y-65786000D03*
%TO.P,J1,17,Pin_17*%
%TO.N,/~{IRQ1}*%
X166878000Y-63246000D03*
%TO.P,J1,18,Pin_18*%
%TO.N,/P27*%
X164338000Y-63246000D03*
%TO.P,J1,19,Pin_19*%
%TO.N,/P26*%
X166878000Y-60706000D03*
%TO.P,J1,20,Pin_20*%
%TO.N,/P25*%
X164338000Y-60706000D03*
%TO.P,J1,21,Pin_21*%
%TO.N,/P24*%
X166878000Y-58166000D03*
%TO.P,J1,22,Pin_22*%
%TO.N,/P23*%
X164338000Y-58166000D03*
%TO.P,J1,23,Pin_23*%
%TO.N,/P22*%
X166878000Y-55626000D03*
%TO.P,J1,24,Pin_24*%
%TO.N,/P21*%
X164338000Y-55626000D03*
%TO.P,J1,25,Pin_25*%
%TO.N,/P20*%
X166878000Y-53086000D03*
%TO.P,J1,26,Pin_26*%
%TO.N,+5V*%
X164338000Y-53086000D03*
%TD*%
D15*
%TO.P,U2,1,GND*%
%TO.N,GND*%
X174442000Y-68550000D03*
%TO.P,U2,2,XTAL*%
%TO.N,unconnected-(U2-XTAL-Pad2)*%
X176220000Y-68550000D03*
%TO.P,U2,3,EXTAL/CLK*%
%TO.N,/CPUCLK*%
X177998000Y-68550000D03*
%TO.P,U2,4,MP0*%
%TO.N,/MP0*%
X179776000Y-68550000D03*
%TO.P,U2,5,MP1*%
%TO.N,/MP1*%
X181554000Y-68550000D03*
%TO.P,U2,6,~{RST}*%
%TO.N,/~{RST}*%
X183332000Y-68550000D03*
%TO.P,U2,7,~{STBY}*%
%TO.N,/~{HALT}*%
X185110000Y-68550000D03*
%TO.P,U2,8,~{NMI}*%
%TO.N,/~{NMI}*%
X186888000Y-68550000D03*
%TO.P,U2,9,P20/Tin*%
%TO.N,/P20*%
X188666000Y-68550000D03*
%TO.P,U2,10,P21/Tout1*%
%TO.N,/P21*%
X190444000Y-68550000D03*
%TO.P,U2,11,P22/SCLK*%
%TO.N,/P22*%
X192222000Y-68550000D03*
%TO.P,U2,12,P23/RX*%
%TO.N,/P23*%
X194000000Y-68550000D03*
%TO.P,U2,13,P24/TX*%
%TO.N,/P24*%
X195778000Y-68550000D03*
%TO.P,U2,14,P25/Tout2*%
%TO.N,/P25*%
X197556000Y-68550000D03*
%TO.P,U2,15,P26/Tout3*%
%TO.N,/P26*%
X199334000Y-68550000D03*
%TO.P,U2,16,P27/Tclk*%
%TO.N,/P27*%
X201112000Y-68550000D03*
%TO.P,U2,17,P50/~{IRQ1}*%
%TO.N,/~{IRQ1}*%
X202890000Y-68550000D03*
%TO.P,U2,18,P51/~{IRQ2}*%
%TO.N,/P51*%
X204668000Y-68550000D03*
%TO.P,U2,19,P52/MR*%
%TO.N,/P52*%
X206446000Y-68550000D03*
%TO.P,U2,20,P53/~{HALT}*%
%TO.N,/P53*%
X208224000Y-68550000D03*
%TO.P,U2,21,P54*%
%TO.N,/P54*%
X210002000Y-68550000D03*
%TO.P,U2,22,P55*%
%TO.N,/P55*%
X211780000Y-68550000D03*
%TO.P,U2,23,P56*%
%TO.N,/P56*%
X213558000Y-68550000D03*
%TO.P,U2,24,P57*%
%TO.N,/P57*%
X215336000Y-68550000D03*
%TO.P,U2,25,P60*%
%TO.N,/P60*%
X217114000Y-68550000D03*
%TO.P,U2,26,P61*%
%TO.N,/P61*%
X218892000Y-68550000D03*
%TO.P,U2,27,P62*%
%TO.N,/P62*%
X220670000Y-68550000D03*
%TO.P,U2,28,P63*%
%TO.N,/P63*%
X222448000Y-68550000D03*
%TO.P,U2,29,P64*%
%TO.N,/P64*%
X224226000Y-68550000D03*
%TO.P,U2,30,P65*%
%TO.N,/P65*%
X226004000Y-68550000D03*
%TO.P,U2,31,P66*%
%TO.N,/P66*%
X227782000Y-68550000D03*
%TO.P,U2,32,P67*%
%TO.N,/P67*%
X229560000Y-68550000D03*
%TO.P,U2,33,Vcc*%
%TO.N,+5V*%
X229560000Y-49500000D03*
%TO.P,U2,34,A15*%
%TO.N,/A15*%
X227782000Y-49500000D03*
%TO.P,U2,35,A14*%
%TO.N,/A14*%
X226004000Y-49500000D03*
%TO.P,U2,36,A13*%
%TO.N,/A13*%
X224226000Y-49500000D03*
%TO.P,U2,37,A12*%
%TO.N,/A12*%
X222448000Y-49500000D03*
%TO.P,U2,38,A11*%
%TO.N,/A11*%
X220670000Y-49500000D03*
%TO.P,U2,39,A10*%
%TO.N,/A10*%
X218892000Y-49500000D03*
%TO.P,U2,40,A9*%
%TO.N,/A9*%
X217114000Y-49500000D03*
%TO.P,U2,41,A8*%
%TO.N,/A8*%
X215336000Y-49500000D03*
%TO.P,U2,42,GND*%
%TO.N,GND*%
X213558000Y-49500000D03*
%TO.P,U2,43,A7*%
%TO.N,/A7*%
X211780000Y-49500000D03*
%TO.P,U2,44,A6*%
%TO.N,/A6*%
X210002000Y-49500000D03*
%TO.P,U2,45,A5*%
%TO.N,/A5*%
X208224000Y-49500000D03*
%TO.P,U2,46,A4*%
%TO.N,/A4*%
X206446000Y-49500000D03*
%TO.P,U2,47,A3*%
%TO.N,/A3*%
X204668000Y-49500000D03*
%TO.P,U2,48,A2*%
%TO.N,/A2*%
X202890000Y-49500000D03*
%TO.P,U2,49,A1*%
%TO.N,/A1*%
X201112000Y-49500000D03*
%TO.P,U2,50,A0*%
%TO.N,/A0*%
X199334000Y-49500000D03*
%TO.P,U2,51,D7*%
%TO.N,/D7*%
X197556000Y-49500000D03*
%TO.P,U2,52,D6*%
%TO.N,/D6*%
X195778000Y-49500000D03*
%TO.P,U2,53,D5*%
%TO.N,/D5*%
X194000000Y-49500000D03*
%TO.P,U2,54,D4*%
%TO.N,/D4*%
X192222000Y-49500000D03*
%TO.P,U2,55,D3*%
%TO.N,/D3*%
X190444000Y-49500000D03*
%TO.P,U2,56,D2*%
%TO.N,/D2*%
X188666000Y-49500000D03*
%TO.P,U2,57,D1*%
%TO.N,/D1*%
X186888000Y-49500000D03*
%TO.P,U2,58,D0*%
%TO.N,/D0*%
X185110000Y-49500000D03*
%TO.P,U2,59,BA*%
%TO.N,/BA*%
X183332000Y-49500000D03*
%TO.P,U2,60,~{LIR}*%
%TO.N,/~{LIR}*%
X181554000Y-49500000D03*
%TO.P,U2,61,R/~{W}*%
%TO.N,/R{slash}~{W}*%
X179776000Y-49500000D03*
%TO.P,U2,62,~{WR}*%
%TO.N,/~{WR}*%
X177998000Y-49500000D03*
%TO.P,U2,63,~{RD}*%
%TO.N,/~{RD}*%
X176220000Y-49500000D03*
%TO.P,U2,64,E*%
%TO.N,/PHI2*%
X174442000Y-49500000D03*
%TD*%
D10*
%TO.P,JP2,1,A*%
%TO.N,GND*%
X165709600Y-43942000D03*
D11*
%TO.P,JP2,2,B*%
%TO.N,/MP1*%
X165709600Y-46482000D03*
%TD*%
D12*
%TO.P,J7,1,Pin_1*%
%TO.N,/~{LIR}*%
X183134000Y-45974000D03*
%TD*%
%TO.P,J6,1,Pin_1*%
%TO.N,Net-(J6-Pin_1)*%
X183896000Y-55372000D03*
%TD*%
%TO.P,J9,1,Pin_1*%
%TO.N,/~{WR}*%
X179324000Y-45974000D03*
%TD*%
%TO.P,J8,1,Pin_1*%
%TO.N,/~{RD}*%
X176276000Y-45974000D03*
%TD*%
%TO.P,J3,1,Pin_1*%
%TO.N,Net-(J3-Pin_1)*%
X178816000Y-55372000D03*
%TD*%
D16*
%TO.P,C1,1*%
%TO.N,+5V*%
X220980000Y-55626000D03*
%TO.P,C1,2*%
%TO.N,GND*%
X217855000Y-55626000D03*
%TD*%
D17*
%TO.P,R1,1*%
%TO.N,+5V*%
X163068000Y-37566000D03*
%TO.P,R1,2*%
%TO.N,/MP0*%
X163068000Y-40666000D03*
%TD*%
%TO.P,R2,1*%
%TO.N,+5V*%
X165354000Y-37566000D03*
%TO.P,R2,2*%
%TO.N,/MP1*%
X165354000Y-40666000D03*
%TD*%
D18*
%TO.N,/P21*%
X187706000Y-66548000D03*
%TO.N,/P22*%
X187706000Y-65278000D03*
%TO.N,/~{IRQ1}*%
X181356000Y-62992000D03*
%TO.N,/~{RST}*%
X169672000Y-47752000D03*
%TO.N,/P23*%
X187706000Y-64008000D03*
%TO.N,/P24*%
X187772216Y-62831644D03*
%TO.N,/MP0*%
X170688000Y-45466000D03*
%TO.N,/P25*%
X187948584Y-61274276D03*
%TO.N,/P26*%
X187686999Y-60198000D03*
%TO.N,/P27*%
X187165997Y-61974321D03*
%TD*%
D19*
%TO.N,+5V*%
X163068000Y-37566000D02*
X162078000Y-37566000D01*
D20*
X229560000Y-50094000D02*
X229560000Y-49500000D01*
D19*
X159977000Y-48725000D02*
X164338000Y-53086000D01*
D20*
X220980000Y-55626000D02*
X224028000Y-55626000D01*
D19*
X163068000Y-37566000D02*
X165354000Y-37566000D01*
D20*
X164338000Y-53086000D02*
X166116000Y-51308000D01*
X166116000Y-51308000D02*
X190093600Y-51308000D01*
X190093600Y-51308000D02*
X191516000Y-52730400D01*
D19*
X162078000Y-37566000D02*
X159977000Y-39667000D01*
X159977000Y-39667000D02*
X159977000Y-48725000D01*
D20*
X224028000Y-55626000D02*
X229560000Y-50094000D01*
%TO.N,GND*%
X180492400Y-35814000D02*
X209316657Y-35814000D01*
X213106000Y-49952000D02*
X213558000Y-49500000D01*
X217855000Y-55626000D02*
X215434543Y-55626000D01*
X215434543Y-55626000D02*
X213106000Y-53297457D01*
X213558000Y-49250000D02*
X213558000Y-49500000D01*
X210636000Y-37133343D02*
X210636000Y-46328000D01*
X209316657Y-35814000D02*
X210636000Y-37133343D01*
X213106000Y-53297457D02*
X213106000Y-49952000D01*
X210636000Y-46328000D02*
X213558000Y-49250000D01*
X178816000Y-37490400D02*
X180492400Y-35814000D01*
D19*
%TO.N,/P20*%
X166878000Y-53086000D02*
X170942000Y-57150000D01*
X170942000Y-57150000D02*
X189189996Y-57150000D01*
X190711999Y-58672003D02*
X190711999Y-66504001D01*
X189189996Y-57150000D02*
X190711999Y-58672003D01*
X190711999Y-66504001D02*
X188666000Y-68550000D01*
%TO.N,/P21*%
X165513000Y-54451000D02*
X167606604Y-54451000D01*
X190261999Y-63992001D02*
X187706000Y-66548000D01*
X170755604Y-57600000D02*
X189003600Y-57600000D01*
X164338000Y-55626000D02*
X165513000Y-54451000D01*
X190261999Y-58858399D02*
X190261999Y-63992001D01*
X167606604Y-54451000D02*
X170755604Y-57600000D01*
X189003600Y-57600000D02*
X190261999Y-58858399D01*
%TO.N,/P22*%
X189635000Y-63349000D02*
X187706000Y-65278000D01*
X189635000Y-61255203D02*
X189635000Y-63349000D01*
X188544203Y-58050000D02*
X189811999Y-59317796D01*
X166878000Y-55626000D02*
X168145208Y-55626000D01*
X168145208Y-55626000D02*
X170569208Y-58050000D01*
X189811999Y-61078204D02*
X189635000Y-61255203D01*
X189811999Y-59317796D02*
X189811999Y-61078204D01*
X170569208Y-58050000D02*
X188544203Y-58050000D01*
%TO.N,/~{IRQ1}*%
X181102000Y-63246000D02*
X181356000Y-62992000D01*
X166878000Y-63246000D02*
X181102000Y-63246000D01*
%TO.N,/~{RST}*%
X169672000Y-47752000D02*
X173736000Y-43688000D01*
X173736000Y-43688000D02*
X173736000Y-37490400D01*
%TO.N,/P23*%
X189361999Y-59504192D02*
X189361999Y-60891808D01*
X164338000Y-58166000D02*
X165528000Y-56976000D01*
X168858812Y-56976000D02*
X170382812Y-58500000D01*
X188357807Y-58500000D02*
X189361999Y-59504192D01*
X189361999Y-60891808D02*
X189185000Y-61068807D01*
X189185000Y-61068807D02*
X189185000Y-62529000D01*
X170382812Y-58500000D02*
X188357807Y-58500000D01*
X165528000Y-56976000D02*
X168858812Y-56976000D01*
X189185000Y-62529000D02*
X187706000Y-64008000D01*
%TO.N,/P24*%
X188911999Y-59690588D02*
X188911999Y-60705412D01*
X188735000Y-61868860D02*
X187772216Y-62831644D01*
X166878000Y-58166000D02*
X167662000Y-58950000D01*
X188735000Y-60882411D02*
X188735000Y-61868860D01*
X167662000Y-58950000D02*
X188171411Y-58950000D01*
X188911999Y-60705412D02*
X188735000Y-60882411D01*
X188171411Y-58950000D02*
X188911999Y-59690588D01*
D20*
%TO.N,Net-(J6-Pin_1)*%
X183896000Y-55372000D02*
X183896000Y-52730400D01*
D19*
%TO.N,/MP0*%
X170688000Y-45466000D02*
X170529000Y-45307000D01*
X162052000Y-46482000D02*
X160877000Y-45307000D01*
X160877000Y-42857000D02*
X163068000Y-40666000D01*
X163227000Y-45307000D02*
X162052000Y-46482000D01*
X170529000Y-45307000D02*
X163227000Y-45307000D01*
X160877000Y-45307000D02*
X160877000Y-42857000D01*
%TO.N,/MP1*%
X164534600Y-47657000D02*
X161195000Y-47657000D01*
X165709600Y-46482000D02*
X164534600Y-47657000D01*
X161798000Y-39370000D02*
X164058000Y-39370000D01*
X160427000Y-40741000D02*
X161798000Y-39370000D01*
X160427000Y-46889000D02*
X160427000Y-40741000D01*
X161195000Y-47657000D02*
X160427000Y-46889000D01*
X164058000Y-39370000D02*
X165354000Y-40666000D01*
D20*
%TO.N,Net-(J3-Pin_1)*%
X178816000Y-52730400D02*
X178816000Y-55372000D01*
D19*
%TO.N,/P25*%
X188461999Y-59876984D02*
X188461999Y-60484001D01*
X187948584Y-60997416D02*
X187948584Y-61274276D01*
X164338000Y-60706000D02*
X165621000Y-59423000D01*
X165621000Y-59423000D02*
X188008015Y-59423000D01*
X188008015Y-59423000D02*
X188461999Y-59876984D01*
X188461999Y-60484001D02*
X187948584Y-60997416D01*
%TO.N,/P26*%
X166878000Y-60706000D02*
X187178999Y-60706000D01*
X187178999Y-60706000D02*
X187686999Y-60198000D01*
%TO.N,/P27*%
X183828984Y-61709000D02*
X186900676Y-61709000D01*
X164338000Y-63246000D02*
X165608000Y-61976000D01*
X165608000Y-61976000D02*
X183561984Y-61976000D01*
X186900676Y-61709000D02*
X187165997Y-61974321D01*
X183561984Y-61976000D02*
X183828984Y-61709000D01*
%TO.N,/P51*%
X203114000Y-70104000D02*
X204668000Y-68550000D01*
X167291000Y-64421000D02*
X172974000Y-70104000D01*
X165703000Y-64421000D02*
X167291000Y-64421000D01*
X164338000Y-65786000D02*
X165703000Y-64421000D01*
X172974000Y-70104000D02*
X203114000Y-70104000D01*
%TO.N,/P52*%
X167640000Y-65786000D02*
X172466000Y-70612000D01*
X172466000Y-70612000D02*
X204384000Y-70612000D01*
X204384000Y-70612000D02*
X206446000Y-68550000D01*
X166878000Y-65786000D02*
X167640000Y-65786000D01*
%TO.N,/P53*%
X205596000Y-71178000D02*
X208224000Y-68550000D01*
X167735000Y-67151000D02*
X171762000Y-71178000D01*
X171762000Y-71178000D02*
X205596000Y-71178000D01*
X165513000Y-67151000D02*
X167735000Y-67151000D01*
X164338000Y-68326000D02*
X165513000Y-67151000D01*
%TO.N,/P54*%
X209296004Y-68579995D02*
X209295995Y-68580004D01*
X166878000Y-68326000D02*
X168080081Y-68326000D01*
X168080081Y-68326000D02*
X171382081Y-71628000D01*
X206924000Y-71628000D02*
X210002000Y-68550000D01*
X171382081Y-71628000D02*
X206924000Y-71628000D01*
%TO.N,/P55*%
X167894000Y-69596000D02*
X170688000Y-72390000D01*
X165608000Y-69596000D02*
X167894000Y-69596000D01*
X207940000Y-72390000D02*
X211780000Y-68550000D01*
X170688000Y-72390000D02*
X207940000Y-72390000D01*
X164338000Y-70866000D02*
X165608000Y-69596000D01*
%TO.N,/P56*%
X168080081Y-70866000D02*
X166878000Y-70866000D01*
X170112081Y-72898000D02*
X168080081Y-70866000D01*
X209210000Y-72898000D02*
X170112081Y-72898000D01*
X213558000Y-68550000D02*
X209210000Y-72898000D01*
%TO.N,/P57*%
X169375000Y-73871000D02*
X210015000Y-73871000D01*
X165703000Y-72041000D02*
X167545000Y-72041000D01*
X210015000Y-73871000D02*
X215336000Y-68550000D01*
X167545000Y-72041000D02*
X169375000Y-73871000D01*
X164338000Y-73406000D02*
X165703000Y-72041000D01*
%TO.N,/P60*%
X217114000Y-68550000D02*
X211343000Y-74321000D01*
X211343000Y-74321000D02*
X167793000Y-74321000D01*
X167793000Y-74321000D02*
X166878000Y-73406000D01*
%TO.N,/P61*%
X165513000Y-74771000D02*
X214027000Y-74771000D01*
X218892000Y-69906000D02*
X218892000Y-68550000D01*
X164338000Y-75946000D02*
X165513000Y-74771000D01*
X214027000Y-74771000D02*
X218892000Y-69906000D01*
%TO.N,/P62*%
X220670000Y-69144000D02*
X213868000Y-75946000D01*
X213868000Y-75946000D02*
X166878000Y-75946000D01*
X220670000Y-68550000D02*
X220670000Y-69144000D01*
%TO.N,/P63*%
X165703000Y-77121000D02*
X216249000Y-77121000D01*
X216249000Y-77121000D02*
X222448000Y-70922000D01*
X222448000Y-70922000D02*
X222448000Y-68550000D01*
X164338000Y-78486000D02*
X165703000Y-77121000D01*
%TO.N,/P64*%
X218186000Y-77724000D02*
X167640000Y-77724000D01*
X224226000Y-71684000D02*
X218186000Y-77724000D01*
X167640000Y-77724000D02*
X166878000Y-78486000D01*
X224226000Y-68550000D02*
X224226000Y-71684000D01*
%TO.N,/P65*%
X169164000Y-78740000D02*
X220218000Y-78740000D01*
X226004000Y-72954000D02*
X226004000Y-68550000D01*
X168243000Y-79661000D02*
X169164000Y-78740000D01*
X165703000Y-79661000D02*
X168243000Y-79661000D01*
X164338000Y-81026000D02*
X165703000Y-79661000D01*
X220218000Y-78740000D02*
X226004000Y-72954000D01*
%TO.N,/P66*%
X227782000Y-72954000D02*
X220726000Y-80010000D01*
X168148000Y-81026000D02*
X166878000Y-81026000D01*
X227782000Y-68550000D02*
X227782000Y-72954000D01*
X220726000Y-80010000D02*
X169164000Y-80010000D01*
X169164000Y-80010000D02*
X168148000Y-81026000D01*
%TO.N,/P67*%
X221361000Y-80518000D02*
X229560000Y-72319000D01*
X169292396Y-80518000D02*
X221361000Y-80518000D01*
X165703000Y-82201000D02*
X167609396Y-82201000D01*
X167609396Y-82201000D02*
X169292396Y-80518000D01*
X229560000Y-72319000D02*
X229560000Y-68550000D01*
X164338000Y-83566000D02*
X165703000Y-82201000D01*
%TD*%
%TA.AperFunction,Conductor*%
%TO.N,GND*%
G36*
X159705703Y-49338739D02*
G01*
X159712180Y-49344770D01*
X161356130Y-50988721D01*
X162997761Y-52630352D01*
X163031246Y-52691675D01*
X163029855Y-52750124D01*
X163002937Y-52850589D01*
X163002937Y-52850590D01*
X162982341Y-53085999D01*
X162982341Y-53086000D01*
X163002936Y-53321403D01*
X163002938Y-53321413D01*
X163064094Y-53549655D01*
X163064096Y-53549659D01*
X163064097Y-53549663D01*
X163105187Y-53637780D01*
X163163965Y-53763830D01*
X163163967Y-53763834D01*
X163299501Y-53957395D01*
X163299506Y-53957402D01*
X163466597Y-54124493D01*
X163466603Y-54124498D01*
X163652158Y-54254425D01*
X163695783Y-54309002D01*
X163702977Y-54378500D01*
X163671454Y-54440855D01*
X163652158Y-54457575D01*
X163466597Y-54587505D01*
X163299505Y-54754597D01*
X163163965Y-54948169D01*
X163163964Y-54948171D01*
X163064098Y-55162335D01*
X163064094Y-55162344D01*
X163002938Y-55390586D01*
X163002936Y-55390596D01*
X162982341Y-55625999D01*
X162982341Y-55626000D01*
X163002936Y-55861403D01*
X163002938Y-55861413D01*
X163064094Y-56089655D01*
X163064096Y-56089659D01*
X163064097Y-56089663D01*
X163111107Y-56190476D01*
X163163965Y-56303830D01*
X163163967Y-56303834D01*
X163299501Y-56497395D01*
X163299506Y-56497402D01*
X163466597Y-56664493D01*
X163466603Y-56664498D01*
X163652158Y-56794425D01*
X163695783Y-56849002D01*
X163702977Y-56918500D01*
X163671454Y-56980855D01*
X163652158Y-56997575D01*
X163466597Y-57127505D01*
X163299505Y-57294597D01*
X163163965Y-57488169D01*
X163163964Y-57488171D01*
X163064098Y-57702335D01*
X163064094Y-57702344D01*
X163002938Y-57930586D01*
X163002936Y-57930596D01*
X162982341Y-58165999D01*
X162982341Y-58166000D01*
X163002936Y-58401403D01*
X163002938Y-58401413D01*
X163064094Y-58629655D01*
X163064096Y-58629659D01*
X163064097Y-58629663D01*
X163111508Y-58731335D01*
X163163965Y-58843830D01*
X163163967Y-58843834D01*
X163299501Y-59037395D01*
X163299506Y-59037402D01*
X163466597Y-59204493D01*
X163466603Y-59204498D01*
X163652158Y-59334425D01*
X163695783Y-59389002D01*
X163702977Y-59458500D01*
X163671454Y-59520855D01*
X163652158Y-59537575D01*
X163466597Y-59667505D01*
X163299505Y-59834597D01*
X163163965Y-60028169D01*
X163163964Y-60028171D01*
X163064098Y-60242335D01*
X163064094Y-60242344D01*
X163002938Y-60470586D01*
X163002936Y-60470596D01*
X162982341Y-60705999D01*
X162982341Y-60706000D01*
X163002936Y-60941403D01*
X163002938Y-60941413D01*
X163064094Y-61169655D01*
X163064096Y-61169659D01*
X163064097Y-61169663D01*
X163068000Y-61178032D01*
X163163965Y-61383830D01*
X163163967Y-61383834D01*
X163299501Y-61577395D01*
X163299506Y-61577402D01*
X163466597Y-61744493D01*
X163466603Y-61744498D01*
X163652158Y-61874425D01*
X163695783Y-61929002D01*
X163702977Y-61998500D01*
X163671454Y-62060855D01*
X163652158Y-62077575D01*
X163466597Y-62207505D01*
X163299505Y-62374597D01*
X163163965Y-62568169D01*
X163163964Y-62568171D01*
X163064098Y-62782335D01*
X163064094Y-62782344D01*
X163002938Y-63010586D01*
X163002936Y-63010596D01*
X162982341Y-63245999D01*
X162982341Y-63246000D01*
X163002936Y-63481403D01*
X163002938Y-63481413D01*
X163064094Y-63709655D01*
X163064096Y-63709659D01*
X163064097Y-63709663D01*
X163138915Y-63870110D01*
X163163965Y-63923830D01*
X163163967Y-63923834D01*
X163299501Y-64117395D01*
X163299506Y-64117402D01*
X163466597Y-64284493D01*
X163466603Y-64284498D01*
X163652158Y-64414425D01*
X163695783Y-64469002D01*
X163702977Y-64538500D01*
X163671454Y-64600855D01*
X163652158Y-64617575D01*
X163466597Y-64747505D01*
X163299505Y-64914597D01*
X163163965Y-65108169D01*
X163163964Y-65108171D01*
X163064098Y-65322335D01*
X163064094Y-65322344D01*
X163002938Y-65550586D01*
X163002936Y-65550596D01*
X162982341Y-65785999D01*
X162982341Y-65786000D01*
X163002936Y-66021403D01*
X163002938Y-66021413D01*
X163064094Y-66249655D01*
X163064096Y-66249659D01*
X163064097Y-66249663D01*
X163078816Y-66281228D01*
X163163965Y-66463830D01*
X163163967Y-66463834D01*
X163299501Y-66657395D01*
X163299506Y-66657402D01*
X163466597Y-66824493D01*
X163466603Y-66824498D01*
X163652158Y-66954425D01*
X163695783Y-67009002D01*
X163702977Y-67078500D01*
X163671454Y-67140855D01*
X163652158Y-67157575D01*
X163466597Y-67287505D01*
X163299505Y-67454597D01*
X163163965Y-67648169D01*
X163163964Y-67648171D01*
X163064098Y-67862335D01*
X163064094Y-67862344D01*
X163002938Y-68090586D01*
X163002936Y-68090596D01*
X162982341Y-68325999D01*
X162982341Y-68326000D01*
X163002936Y-68561403D01*
X163002938Y-68561413D01*
X163064094Y-68789655D01*
X163064096Y-68789659D01*
X163064097Y-68789663D01*
X163095091Y-68856129D01*
X163163965Y-69003830D01*
X163163967Y-69003834D01*
X163299501Y-69197395D01*
X163299506Y-69197402D01*
X163466597Y-69364493D01*
X163466603Y-69364498D01*
X163652158Y-69494425D01*
X163695783Y-69549002D01*
X163702977Y-69618500D01*
X163671454Y-69680855D01*
X163652158Y-69697575D01*
X163466597Y-69827505D01*
X163299505Y-69994597D01*
X163163965Y-70188169D01*
X163163964Y-70188171D01*
X163064098Y-70402335D01*
X163064094Y-70402344D01*
X163002938Y-70630586D01*
X163002936Y-70630596D01*
X162982341Y-70865999D01*
X162982341Y-70866000D01*
X163002936Y-71101403D01*
X163002938Y-71101413D01*
X163064094Y-71329655D01*
X163064096Y-71329659D01*
X163064097Y-71329663D01*
X163125447Y-71461228D01*
X163163965Y-71543830D01*
X163163967Y-71543834D01*
X163299501Y-71737395D01*
X163299506Y-71737402D01*
X163466597Y-71904493D01*
X163466603Y-71904498D01*
X163652158Y-72034425D01*
X163695783Y-72089002D01*
X163702977Y-72158500D01*
X163671454Y-72220855D01*
X163652158Y-72237575D01*
X163466597Y-72367505D01*
X163299505Y-72534597D01*
X163163965Y-72728169D01*
X163163964Y-72728171D01*
X163064098Y-72942335D01*
X163064094Y-72942344D01*
X163002938Y-73170586D01*
X163002936Y-73170596D01*
X162982341Y-73405999D01*
X162982341Y-73406000D01*
X163002936Y-73641403D01*
X163002938Y-73641413D01*
X163064094Y-73869655D01*
X163064096Y-73869659D01*
X163064097Y-73869663D01*
X163126671Y-74003853D01*
X163163965Y-74083830D01*
X163163967Y-74083834D01*
X163299501Y-74277395D01*
X163299506Y-74277402D01*
X163466597Y-74444493D01*
X163466603Y-74444498D01*
X163652158Y-74574425D01*
X163695783Y-74629002D01*
X163702977Y-74698500D01*
X163671454Y-74760855D01*
X163652158Y-74777575D01*
X163466597Y-74907505D01*
X163299505Y-75074597D01*
X163163965Y-75268169D01*
X163163964Y-75268171D01*
X163064098Y-75482335D01*
X163064094Y-75482344D01*
X163002938Y-75710586D01*
X163002936Y-75710596D01*
X162982341Y-75945999D01*
X162982341Y-75946000D01*
X163002936Y-76181403D01*
X163002938Y-76181413D01*
X163064094Y-76409655D01*
X163064096Y-76409659D01*
X163064097Y-76409663D01*
X163105425Y-76498290D01*
X163163965Y-76623830D01*
X163163967Y-76623834D01*
X163299501Y-76817395D01*
X163299506Y-76817402D01*
X163466597Y-76984493D01*
X163466603Y-76984498D01*
X163652158Y-77114425D01*
X163695783Y-77169002D01*
X163702977Y-77238500D01*
X163671454Y-77300855D01*
X163652158Y-77317575D01*
X163466597Y-77447505D01*
X163299505Y-77614597D01*
X163163965Y-77808169D01*
X163163964Y-77808171D01*
X163064098Y-78022335D01*
X163064094Y-78022344D01*
X163002938Y-78250586D01*
X163002936Y-78250596D01*
X162982341Y-78485999D01*
X162982341Y-78486000D01*
X163002936Y-78721403D01*
X163002938Y-78721413D01*
X163064094Y-78949655D01*
X163064096Y-78949659D01*
X163064097Y-78949663D01*
X163105425Y-79038290D01*
X163163965Y-79163830D01*
X163163967Y-79163834D01*
X163299501Y-79357395D01*
X163299506Y-79357402D01*
X163466597Y-79524493D01*
X163466603Y-79524498D01*
X163652158Y-79654425D01*
X163695783Y-79709002D01*
X163702977Y-79778500D01*
X163671454Y-79840855D01*
X163652158Y-79857575D01*
X163466597Y-79987505D01*
X163299505Y-80154597D01*
X163163965Y-80348169D01*
X163163964Y-80348171D01*
X163064098Y-80562335D01*
X163064094Y-80562344D01*
X163002938Y-80790586D01*
X163002936Y-80790596D01*
X162982341Y-81025999D01*
X162982341Y-81026000D01*
X163002936Y-81261403D01*
X163002938Y-81261413D01*
X163064094Y-81489655D01*
X163064096Y-81489659D01*
X163064097Y-81489663D01*
X163105425Y-81578290D01*
X163163965Y-81703830D01*
X163163967Y-81703834D01*
X163299501Y-81897395D01*
X163299506Y-81897402D01*
X163466597Y-82064493D01*
X163466603Y-82064498D01*
X163652158Y-82194425D01*
X163695783Y-82249002D01*
X163702977Y-82318500D01*
X163671454Y-82380855D01*
X163652158Y-82397575D01*
X163466597Y-82527505D01*
X163299505Y-82694597D01*
X163163965Y-82888169D01*
X163163964Y-82888171D01*
X163064098Y-83102335D01*
X163064094Y-83102344D01*
X163002938Y-83330586D01*
X163002936Y-83330596D01*
X162982341Y-83565999D01*
X162982341Y-83566000D01*
X163002936Y-83801403D01*
X163002938Y-83801413D01*
X163064094Y-84029655D01*
X163064096Y-84029659D01*
X163064097Y-84029663D01*
X163163965Y-84243830D01*
X163163967Y-84243834D01*
X163272281Y-84398521D01*
X163299505Y-84437401D01*
X163466599Y-84604495D01*
X163543135Y-84658086D01*
X163660165Y-84740032D01*
X163660167Y-84740033D01*
X163660170Y-84740035D01*
X163874337Y-84839903D01*
X164102592Y-84901063D01*
X164273319Y-84916000D01*
X164337999Y-84921659D01*
X164338000Y-84921659D01*
X164338001Y-84921659D01*
X164402681Y-84916000D01*
X164573408Y-84901063D01*
X164801663Y-84839903D01*
X165015830Y-84740035D01*
X165209401Y-84604495D01*
X165331717Y-84482178D01*
X165393036Y-84448696D01*
X165462728Y-84453680D01*
X165518662Y-84495551D01*
X165535577Y-84526528D01*
X165584646Y-84658088D01*
X165584649Y-84658093D01*
X165670809Y-84773187D01*
X165670812Y-84773190D01*
X165785906Y-84859350D01*
X165785913Y-84859354D01*
X165920620Y-84909596D01*
X165920627Y-84909598D01*
X165980155Y-84915999D01*
X165980172Y-84916000D01*
X166628000Y-84916000D01*
X166628000Y-84001501D01*
X166735685Y-84050680D01*
X166842237Y-84066000D01*
X166913763Y-84066000D01*
X167020315Y-84050680D01*
X167128000Y-84001501D01*
X167128000Y-84916000D01*
X167775828Y-84916000D01*
X167775844Y-84915999D01*
X167835372Y-84909598D01*
X167835379Y-84909596D01*
X167970086Y-84859354D01*
X167970093Y-84859350D01*
X168085187Y-84773190D01*
X168085190Y-84773187D01*
X168171350Y-84658093D01*
X168171354Y-84658086D01*
X168221596Y-84523379D01*
X168221598Y-84523372D01*
X168227999Y-84463844D01*
X168228000Y-84463827D01*
X168228000Y-83816000D01*
X167311686Y-83816000D01*
X167337493Y-83775844D01*
X167378000Y-83637889D01*
X167378000Y-83494111D01*
X167337493Y-83356156D01*
X167311686Y-83316000D01*
X168228000Y-83316000D01*
X168228000Y-82668172D01*
X168227999Y-82668155D01*
X168221598Y-82608627D01*
X168221597Y-82608623D01*
X168212708Y-82584790D01*
X168207724Y-82515099D01*
X168241205Y-82453779D01*
X169515168Y-81179819D01*
X169576491Y-81146334D01*
X169602849Y-81143500D01*
X221278257Y-81143500D01*
X221293877Y-81145224D01*
X221293904Y-81144939D01*
X221301660Y-81145671D01*
X221301667Y-81145673D01*
X221370814Y-81143500D01*
X221400350Y-81143500D01*
X221407228Y-81142630D01*
X221413041Y-81142172D01*
X221459627Y-81140709D01*
X221478869Y-81135117D01*
X221497912Y-81131174D01*
X221517792Y-81128664D01*
X221561122Y-81111507D01*
X221566646Y-81109617D01*
X221570396Y-81108527D01*
X221611390Y-81096618D01*
X221628629Y-81086422D01*
X221646103Y-81077862D01*
X221664727Y-81070488D01*
X221664727Y-81070487D01*
X221664732Y-81070486D01*
X221702449Y-81043082D01*
X221707305Y-81039892D01*
X221747420Y-81016170D01*
X221761589Y-81001999D01*
X221776379Y-80989368D01*
X221792587Y-80977594D01*
X221822299Y-80941676D01*
X221826212Y-80937376D01*
X229943788Y-72819801D01*
X229956042Y-72809986D01*
X229955859Y-72809764D01*
X229961866Y-72804792D01*
X229961877Y-72804786D01*
X229992775Y-72771882D01*
X230009227Y-72754364D01*
X230019671Y-72743918D01*
X230030120Y-72733471D01*
X230034379Y-72727978D01*
X230038152Y-72723561D01*
X230070062Y-72689582D01*
X230079715Y-72672020D01*
X230090389Y-72655770D01*
X230102673Y-72639936D01*
X230121180Y-72597167D01*
X230123749Y-72591924D01*
X230146196Y-72551093D01*
X230146197Y-72551092D01*
X230151177Y-72531691D01*
X230157478Y-72513288D01*
X230165438Y-72494896D01*
X230172730Y-72448849D01*
X230173911Y-72443152D01*
X230185500Y-72398019D01*
X230185500Y-72377983D01*
X230187027Y-72358582D01*
X230190160Y-72338804D01*
X230185775Y-72292415D01*
X230185500Y-72286577D01*
X230185500Y-69957551D01*
X230205185Y-69890512D01*
X230247391Y-69851459D01*
X230247035Y-69850919D01*
X230250320Y-69848750D01*
X230250749Y-69848353D01*
X230251681Y-69847852D01*
X230427666Y-69707508D01*
X230575765Y-69537996D01*
X230691215Y-69344764D01*
X230759407Y-69163067D01*
X230801392Y-69107219D01*
X230866907Y-69082936D01*
X230935149Y-69097927D01*
X230984453Y-69147434D01*
X230999500Y-69206638D01*
X230999500Y-85375500D01*
X230979815Y-85442539D01*
X230927011Y-85488294D01*
X230875500Y-85499500D01*
X159624500Y-85499500D01*
X159557461Y-85479815D01*
X159511706Y-85427011D01*
X159500500Y-85375500D01*
X159500500Y-49432452D01*
X159520185Y-49365413D01*
X159572989Y-49319658D01*
X159642147Y-49309714D01*
X159705703Y-49338739D01*
G37*
%TD.AperFunction*%
%TA.AperFunction,Conductor*%
G36*
X186329586Y-62354185D02*
G01*
X186369934Y-62396500D01*
X186433464Y-62506537D01*
X186520925Y-62603672D01*
X186560126Y-62647209D01*
X186713262Y-62758469D01*
X186713267Y-62758472D01*
X186800821Y-62797454D01*
X186854058Y-62842704D01*
X186873706Y-62897771D01*
X186886542Y-63019900D01*
X186886543Y-63019903D01*
X186945034Y-63199921D01*
X186945036Y-63199925D01*
X186945037Y-63199928D01*
X186971636Y-63245999D01*
X187008140Y-63309226D01*
X187024612Y-63377126D01*
X187001759Y-63443153D01*
X186992905Y-63454193D01*
X186973472Y-63475776D01*
X186973464Y-63475787D01*
X186878821Y-63639715D01*
X186878818Y-63639722D01*
X186820327Y-63819740D01*
X186820326Y-63819744D01*
X186800540Y-64008000D01*
X186820326Y-64196256D01*
X186820327Y-64196259D01*
X186878818Y-64376277D01*
X186878821Y-64376284D01*
X186973467Y-64540216D01*
X186983806Y-64551699D01*
X186991307Y-64560030D01*
X187021535Y-64623022D01*
X187012909Y-64692357D01*
X186991307Y-64725970D01*
X186973466Y-64745785D01*
X186878821Y-64909715D01*
X186878818Y-64909722D01*
X186832560Y-65052091D01*
X186820326Y-65089744D01*
X186800540Y-65278000D01*
X186820326Y-65466256D01*
X186820327Y-65466259D01*
X186878818Y-65646277D01*
X186878821Y-65646284D01*
X186973467Y-65810216D01*
X186983806Y-65821699D01*
X186991307Y-65830030D01*
X187021535Y-65893022D01*
X187012909Y-65962357D01*
X186991307Y-65995970D01*
X186973466Y-66015785D01*
X186878821Y-66179715D01*
X186878818Y-66179722D01*
X186820327Y-66359740D01*
X186820326Y-66359744D01*
X186800540Y-66548000D01*
X186820326Y-66736256D01*
X186820327Y-66736259D01*
X186871215Y-66892877D01*
X186873210Y-66962718D01*
X186837130Y-67022551D01*
X186774429Y-67053379D01*
X186769930Y-67054073D01*
X186705062Y-67062860D01*
X186608613Y-67075925D01*
X186608611Y-67075925D01*
X186608608Y-67075926D01*
X186394534Y-67145483D01*
X186196321Y-67252146D01*
X186196312Y-67252152D01*
X186077782Y-67346677D01*
X186013096Y-67373086D01*
X185944400Y-67360329D01*
X185914779Y-67339357D01*
X185892827Y-67318369D01*
X185704966Y-67194363D01*
X185497995Y-67105899D01*
X185497982Y-67105895D01*
X185278542Y-67055810D01*
X185278538Y-67055809D01*
X185278537Y-67055809D01*
X185278536Y-67055808D01*
X185278531Y-67055808D01*
X185053674Y-67045710D01*
X185053673Y-67045710D01*
X185053670Y-67045710D01*
X184830613Y-67075925D01*
X184830610Y-67075925D01*
X184830609Y-67075926D01*
X184616534Y-67145483D01*
X184418321Y-67252146D01*
X184418312Y-67252152D01*
X184299782Y-67346677D01*
X184235096Y-67373086D01*
X184166400Y-67360329D01*
X184136779Y-67339357D01*
X184114827Y-67318369D01*
X183926966Y-67194363D01*
X183719995Y-67105899D01*
X183719982Y-67105895D01*
X183500542Y-67055810D01*
X183500538Y-67055809D01*
X183500537Y-67055809D01*
X183500536Y-67055808D01*
X183500531Y-67055808D01*
X183275674Y-67045710D01*
X183275673Y-67045710D01*
X183275670Y-67045710D01*
X183052613Y-67075925D01*
X183052610Y-67075925D01*
X183052609Y-67075926D01*
X182838534Y-67145483D01*
X182640321Y-67252146D01*
X182640312Y-67252152D01*
X182521782Y-67346677D01*
X182457096Y-67373086D01*
X182388400Y-67360329D01*
X182358779Y-67339357D01*
X182336827Y-67318369D01*
X182148966Y-67194363D01*
X181941995Y-67105899D01*
X181941982Y-67105895D01*
X181722542Y-67055810D01*
X181722538Y-67055809D01*
X181722537Y-67055809D01*
X181722536Y-67055808D01*
X181722531Y-67055808D01*
X181497674Y-67045710D01*
X181497673Y-67045710D01*
X181497670Y-67045710D01*
X181274613Y-67075925D01*
X181274610Y-67075925D01*
X181274609Y-67075926D01*
X181060534Y-67145483D01*
X180862321Y-67252146D01*
X180862312Y-67252152D01*
X180743782Y-67346677D01*
X180679096Y-67373086D01*
X180610400Y-67360329D01*
X180580779Y-67339357D01*
X180558827Y-67318369D01*
X180370966Y-67194363D01*
X180163995Y-67105899D01*
X180163982Y-67105895D01*
X179944542Y-67055810D01*
X179944538Y-67055809D01*
X179944537Y-67055809D01*
X179944536Y-67055808D01*
X179944531Y-67055808D01*
X179719674Y-67045710D01*
X179719673Y-67045710D01*
X179719670Y-67045710D01*
X179496613Y-67075925D01*
X179496610Y-67075925D01*
X179496609Y-67075926D01*
X179282534Y-67145483D01*
X179084321Y-67252146D01*
X179084312Y-67252152D01*
X178965782Y-67346677D01*
X178901096Y-67373086D01*
X178832400Y-67360329D01*
X178802779Y-67339357D01*
X178780827Y-67318369D01*
X178592966Y-67194363D01*
X178385995Y-67105899D01*
X178385982Y-67105895D01*
X178166542Y-67055810D01*
X178166538Y-67055809D01*
X178166537Y-67055809D01*
X178166536Y-67055808D01*
X178166531Y-67055808D01*
X177941674Y-67045710D01*
X177941673Y-67045710D01*
X177941670Y-67045710D01*
X177718613Y-67075925D01*
X177718610Y-67075925D01*
X177718609Y-67075926D01*
X177504534Y-67145483D01*
X177306321Y-67252146D01*
X177306312Y-67252152D01*
X177187782Y-67346677D01*
X177123096Y-67373086D01*
X177054400Y-67360329D01*
X177024779Y-67339357D01*
X177002827Y-67318369D01*
X176814966Y-67194363D01*
X176607995Y-67105899D01*
X176607982Y-67105895D01*
X176388542Y-67055810D01*
X176388538Y-67055809D01*
X176388537Y-67055809D01*
X176388536Y-67055808D01*
X176388531Y-67055808D01*
X176163674Y-67045710D01*
X176163673Y-67045710D01*
X176163670Y-67045710D01*
X175940613Y-67075925D01*
X175940610Y-67075925D01*
X175940609Y-67075926D01*
X175726534Y-67145483D01*
X175528321Y-67252146D01*
X175528312Y-67252152D01*
X175409387Y-67346992D01*
X175344701Y-67373401D01*
X175276005Y-67360644D01*
X175246385Y-67339673D01*
X175224510Y-67318760D01*
X175224511Y-67318760D01*
X175036733Y-67194808D01*
X174829830Y-67106375D01*
X174829821Y-67106372D01*
X174610475Y-67056308D01*
X174610464Y-67056306D01*
X174385696Y-67046212D01*
X174162721Y-67076416D01*
X173948731Y-67145945D01*
X173750594Y-67252568D01*
X173610133Y-67364579D01*
X174397600Y-68152046D01*
X174316852Y-68164835D01*
X174203955Y-68222359D01*
X174114359Y-68311955D01*
X174056835Y-68424852D01*
X174044046Y-68505598D01*
X173306505Y-67768057D01*
X173306504Y-67768058D01*
X173232175Y-67966110D01*
X173192000Y-68187494D01*
X173192000Y-68856129D01*
X173207116Y-69024096D01*
X173207117Y-69024103D01*
X173245443Y-69162971D01*
X173244303Y-69232832D01*
X173205575Y-69290986D01*
X173141554Y-69318969D01*
X173072567Y-69307899D01*
X173038231Y-69283641D01*
X170536761Y-66782171D01*
X167971740Y-64217149D01*
X167938255Y-64155826D01*
X167943239Y-64086134D01*
X167957842Y-64058350D01*
X168051653Y-63924374D01*
X168106229Y-63880751D01*
X168153227Y-63871500D01*
X181019257Y-63871500D01*
X181034877Y-63873224D01*
X181034904Y-63872939D01*
X181042660Y-63873671D01*
X181042667Y-63873673D01*
X181111814Y-63871500D01*
X181141350Y-63871500D01*
X181145248Y-63871500D01*
X181145248Y-63871868D01*
X181174329Y-63874002D01*
X181261354Y-63892500D01*
X181450644Y-63892500D01*
X181450646Y-63892500D01*
X181635803Y-63853144D01*
X181808730Y-63776151D01*
X181961871Y-63664888D01*
X182088533Y-63524216D01*
X182183179Y-63360284D01*
X182241674Y-63180256D01*
X182261460Y-62992000D01*
X182241674Y-62803744D01*
X182228700Y-62763817D01*
X182226706Y-62693978D01*
X182262786Y-62634145D01*
X182325487Y-62603316D01*
X182346632Y-62601500D01*
X183479241Y-62601500D01*
X183494861Y-62603224D01*
X183494888Y-62602939D01*
X183502644Y-62603671D01*
X183502651Y-62603673D01*
X183571798Y-62601500D01*
X183601334Y-62601500D01*
X183608212Y-62600630D01*
X183614025Y-62600172D01*
X183660611Y-62598709D01*
X183679853Y-62593117D01*
X183698896Y-62589174D01*
X183718776Y-62586664D01*
X183762106Y-62569507D01*
X183767630Y-62567617D01*
X183771380Y-62566527D01*
X183812374Y-62554618D01*
X183829613Y-62544422D01*
X183847087Y-62535862D01*
X183865711Y-62528488D01*
X183865711Y-62528487D01*
X183865716Y-62528486D01*
X183903433Y-62501082D01*
X183908289Y-62497892D01*
X183948404Y-62474170D01*
X183962573Y-62459999D01*
X183977363Y-62447368D01*
X183993571Y-62435594D01*
X184023278Y-62399682D01*
X184027191Y-62395381D01*
X184042955Y-62379617D01*
X184051757Y-62370817D01*
X184113081Y-62337333D01*
X184139436Y-62334500D01*
X186262547Y-62334500D01*
X186329586Y-62354185D01*
G37*
%TD.AperFunction*%
%TA.AperFunction,Conductor*%
G36*
X230935149Y-50047927D02*
G01*
X230984453Y-50097434D01*
X230999500Y-50156638D01*
X230999500Y-67900031D01*
X230979815Y-67967070D01*
X230927011Y-68012825D01*
X230857853Y-68022769D01*
X230794297Y-67993744D01*
X230756523Y-67934966D01*
X230755969Y-67933020D01*
X230735496Y-67858839D01*
X230735491Y-67858826D01*
X230637832Y-67656033D01*
X230637828Y-67656025D01*
X230505526Y-67473927D01*
X230505525Y-67473925D01*
X230485309Y-67454597D01*
X230342825Y-67318368D01*
X230342823Y-67318366D01*
X230154966Y-67194363D01*
X229947995Y-67105899D01*
X229947982Y-67105895D01*
X229728542Y-67055810D01*
X229728538Y-67055809D01*
X229728537Y-67055809D01*
X229728536Y-67055808D01*
X229728531Y-67055808D01*
X229503674Y-67045710D01*
X229503673Y-67045710D01*
X229503670Y-67045710D01*
X229280613Y-67075925D01*
X229280610Y-67075925D01*
X229280609Y-67075926D01*
X229066534Y-67145483D01*
X228868321Y-67252146D01*
X228868312Y-67252152D01*
X228749782Y-67346677D01*
X228685096Y-67373086D01*
X228616400Y-67360329D01*
X228586779Y-67339357D01*
X228564827Y-67318369D01*
X228376966Y-67194363D01*
X228169995Y-67105899D01*
X228169982Y-67105895D01*
X227950542Y-67055810D01*
X227950538Y-67055809D01*
X227950537Y-67055809D01*
X227950536Y-67055808D01*
X227950531Y-67055808D01*
X227725674Y-67045710D01*
X227725673Y-67045710D01*
X227725670Y-67045710D01*
X227502613Y-67075925D01*
X227502610Y-67075925D01*
X227502609Y-67075926D01*
X227288534Y-67145483D01*
X227090321Y-67252146D01*
X227090312Y-67252152D01*
X226971782Y-67346677D01*
X226907096Y-67373086D01*
X226838400Y-67360329D01*
X226808779Y-67339357D01*
X226786827Y-67318369D01*
X226598966Y-67194363D01*
X226391995Y-67105899D01*
X226391982Y-67105895D01*
X226172542Y-67055810D01*
X226172538Y-67055809D01*
X226172537Y-67055809D01*
X226172536Y-67055808D01*
X226172531Y-67055808D01*
X225947674Y-67045710D01*
X225947673Y-67045710D01*
X225947670Y-67045710D01*
X225724613Y-67075925D01*
X225724610Y-67075925D01*
X225724609Y-67075926D01*
X225510534Y-67145483D01*
X225312321Y-67252146D01*
X225312312Y-67252152D01*
X225193782Y-67346677D01*
X225129096Y-67373086D01*
X225060400Y-67360329D01*
X225030779Y-67339357D01*
X225008827Y-67318369D01*
X224820966Y-67194363D01*
X224613995Y-67105899D01*
X224613982Y-67105895D01*
X224394542Y-67055810D01*
X224394538Y-67055809D01*
X224394537Y-67055809D01*
X224394536Y-67055808D01*
X224394531Y-67055808D01*
X224169674Y-67045710D01*
X224169673Y-67045710D01*
X224169670Y-67045710D01*
X223946613Y-67075925D01*
X223946610Y-67075925D01*
X223946609Y-67075926D01*
X223732534Y-67145483D01*
X223534321Y-67252146D01*
X223534312Y-67252152D01*
X223415782Y-67346677D01*
X223351096Y-67373086D01*
X223282400Y-67360329D01*
X223252779Y-67339357D01*
X223230827Y-67318369D01*
X223042966Y-67194363D01*
X222835995Y-67105899D01*
X222835982Y-67105895D01*
X222616542Y-67055810D01*
X222616538Y-67055809D01*
X222616537Y-67055809D01*
X222616536Y-67055808D01*
X222616531Y-67055808D01*
X222391674Y-67045710D01*
X222391673Y-67045710D01*
X222391670Y-67045710D01*
X222168613Y-67075925D01*
X222168610Y-67075925D01*
X222168609Y-67075926D01*
X221954534Y-67145483D01*
X221756321Y-67252146D01*
X221756312Y-67252152D01*
X221637782Y-67346677D01*
X221573096Y-67373086D01*
X221504400Y-67360329D01*
X221474779Y-67339357D01*
X221452827Y-67318369D01*
X221264966Y-67194363D01*
X221057995Y-67105899D01*
X221057982Y-67105895D01*
X220838542Y-67055810D01*
X220838538Y-67055809D01*
X220838537Y-67055809D01*
X220838536Y-67055808D01*
X220838531Y-67055808D01*
X220613674Y-67045710D01*
X220613673Y-67045710D01*
X220613670Y-67045710D01*
X220390613Y-67075925D01*
X220390610Y-67075925D01*
X220390609Y-67075926D01*
X220176534Y-67145483D01*
X219978321Y-67252146D01*
X219978312Y-67252152D01*
X219859782Y-67346677D01*
X219795096Y-67373086D01*
X219726400Y-67360329D01*
X219696779Y-67339357D01*
X219674827Y-67318369D01*
X219486966Y-67194363D01*
X219279995Y-67105899D01*
X219279982Y-67105895D01*
X219060542Y-67055810D01*
X219060538Y-67055809D01*
X219060537Y-67055809D01*
X219060536Y-67055808D01*
X219060531Y-67055808D01*
X218835674Y-67045710D01*
X218835673Y-67045710D01*
X218835670Y-67045710D01*
X218612613Y-67075925D01*
X218612610Y-67075925D01*
X218612609Y-67075926D01*
X218398534Y-67145483D01*
X218200321Y-67252146D01*
X218200312Y-67252152D01*
X218081782Y-67346677D01*
X218017096Y-67373086D01*
X217948400Y-67360329D01*
X217918779Y-67339357D01*
X217896827Y-67318369D01*
X217708966Y-67194363D01*
X217501995Y-67105899D01*
X217501982Y-67105895D01*
X217282542Y-67055810D01*
X217282538Y-67055809D01*
X217282537Y-67055809D01*
X217282536Y-67055808D01*
X217282531Y-67055808D01*
X217057674Y-67045710D01*
X217057673Y-67045710D01*
X217057670Y-67045710D01*
X216834613Y-67075925D01*
X216834610Y-67075925D01*
X216834609Y-67075926D01*
X216620534Y-67145483D01*
X216422321Y-67252146D01*
X216422312Y-67252152D01*
X216303782Y-67346677D01*
X216239096Y-67373086D01*
X216170400Y-67360329D01*
X216140779Y-67339357D01*
X216118827Y-67318369D01*
X215930966Y-67194363D01*
X215723995Y-67105899D01*
X215723982Y-67105895D01*
X215504542Y-67055810D01*
X215504538Y-67055809D01*
X215504537Y-67055809D01*
X215504536Y-67055808D01*
X215504531Y-67055808D01*
X215279674Y-67045710D01*
X215279673Y-67045710D01*
X215279670Y-67045710D01*
X215056613Y-67075925D01*
X215056610Y-67075925D01*
X215056609Y-67075926D01*
X214842534Y-67145483D01*
X214644321Y-67252146D01*
X214644312Y-67252152D01*
X214525782Y-67346677D01*
X214461096Y-67373086D01*
X214392400Y-67360329D01*
X214362779Y-67339357D01*
X214340827Y-67318369D01*
X214152966Y-67194363D01*
X213945995Y-67105899D01*
X213945982Y-67105895D01*
X213726542Y-67055810D01*
X213726538Y-67055809D01*
X213726537Y-67055809D01*
X213726536Y-67055808D01*
X213726531Y-67055808D01*
X213501674Y-67045710D01*
X213501673Y-67045710D01*
X213501670Y-67045710D01*
X213278613Y-67075925D01*
X213278610Y-67075925D01*
X213278609Y-67075926D01*
X213064534Y-67145483D01*
X212866321Y-67252146D01*
X212866312Y-67252152D01*
X212747782Y-67346677D01*
X212683096Y-67373086D01*
X212614400Y-67360329D01*
X212584779Y-67339357D01*
X212562827Y-67318369D01*
X212374966Y-67194363D01*
X212167995Y-67105899D01*
X212167982Y-67105895D01*
X211948542Y-67055810D01*
X211948538Y-67055809D01*
X211948537Y-67055809D01*
X211948536Y-67055808D01*
X211948531Y-67055808D01*
X211723674Y-67045710D01*
X211723673Y-67045710D01*
X211723670Y-67045710D01*
X211500613Y-67075925D01*
X211500610Y-67075925D01*
X211500609Y-67075926D01*
X211286534Y-67145483D01*
X211088321Y-67252146D01*
X211088312Y-67252152D01*
X210969782Y-67346677D01*
X210905096Y-67373086D01*
X210836400Y-67360329D01*
X210806779Y-67339357D01*
X210784827Y-67318369D01*
X210596966Y-67194363D01*
X210389995Y-67105899D01*
X210389982Y-67105895D01*
X210170542Y-67055810D01*
X210170538Y-67055809D01*
X210170537Y-67055809D01*
X210170536Y-67055808D01*
X210170531Y-67055808D01*
X209945674Y-67045710D01*
X209945673Y-67045710D01*
X209945670Y-67045710D01*
X209722613Y-67075925D01*
X209722610Y-67075925D01*
X209722609Y-67075926D01*
X209508534Y-67145483D01*
X209310321Y-67252146D01*
X209310312Y-67252152D01*
X209191782Y-67346677D01*
X209127096Y-67373086D01*
X209058400Y-67360329D01*
X209028779Y-67339357D01*
X209006827Y-67318369D01*
X208818966Y-67194363D01*
X208611995Y-67105899D01*
X208611982Y-67105895D01*
X208392542Y-67055810D01*
X208392538Y-67055809D01*
X208392537Y-67055809D01*
X208392536Y-67055808D01*
X208392531Y-67055808D01*
X208167674Y-67045710D01*
X208167673Y-67045710D01*
X208167670Y-67045710D01*
X207944613Y-67075925D01*
X207944610Y-67075925D01*
X207944609Y-67075926D01*
X207730534Y-67145483D01*
X207532321Y-67252146D01*
X207532312Y-67252152D01*
X207413782Y-67346677D01*
X207349096Y-67373086D01*
X207280400Y-67360329D01*
X207250779Y-67339357D01*
X207228827Y-67318369D01*
X207040966Y-67194363D01*
X206833995Y-67105899D01*
X206833982Y-67105895D01*
X206614542Y-67055810D01*
X206614538Y-67055809D01*
X206614537Y-67055809D01*
X206614536Y-67055808D01*
X206614531Y-67055808D01*
X206389674Y-67045710D01*
X206389673Y-67045710D01*
X206389670Y-67045710D01*
X206166613Y-67075925D01*
X206166610Y-67075925D01*
X206166609Y-67075926D01*
X205952534Y-67145483D01*
X205754321Y-67252146D01*
X205754312Y-67252152D01*
X205635782Y-67346677D01*
X205571096Y-67373086D01*
X205502400Y-67360329D01*
X205472779Y-67339357D01*
X205450827Y-67318369D01*
X205262966Y-67194363D01*
X205055995Y-67105899D01*
X205055982Y-67105895D01*
X204836542Y-67055810D01*
X204836538Y-67055809D01*
X204836537Y-67055809D01*
X204836536Y-67055808D01*
X204836531Y-67055808D01*
X204611674Y-67045710D01*
X204611673Y-67045710D01*
X204611670Y-67045710D01*
X204388613Y-67075925D01*
X204388610Y-67075925D01*
X204388609Y-67075926D01*
X204174534Y-67145483D01*
X203976321Y-67252146D01*
X203976312Y-67252152D01*
X203857782Y-67346677D01*
X203793096Y-67373086D01*
X203724400Y-67360329D01*
X203694779Y-67339357D01*
X203672827Y-67318369D01*
X203484966Y-67194363D01*
X203277995Y-67105899D01*
X203277982Y-67105895D01*
X203058542Y-67055810D01*
X203058538Y-67055809D01*
X203058537Y-67055809D01*
X203058536Y-67055808D01*
X203058531Y-67055808D01*
X202833674Y-67045710D01*
X202833673Y-67045710D01*
X202833670Y-67045710D01*
X202610613Y-67075925D01*
X202610610Y-67075925D01*
X202610609Y-67075926D01*
X202396534Y-67145483D01*
X202198321Y-67252146D01*
X202198312Y-67252152D01*
X202079782Y-67346677D01*
X202015096Y-67373086D01*
X201946400Y-67360329D01*
X201916779Y-67339357D01*
X201894827Y-67318369D01*
X201706966Y-67194363D01*
X201499995Y-67105899D01*
X201499982Y-67105895D01*
X201280542Y-67055810D01*
X201280538Y-67055809D01*
X201280537Y-67055809D01*
X201280536Y-67055808D01*
X201280531Y-67055808D01*
X201055674Y-67045710D01*
X201055673Y-67045710D01*
X201055670Y-67045710D01*
X200832613Y-67075925D01*
X200832610Y-67075925D01*
X200832609Y-67075926D01*
X200618534Y-67145483D01*
X200420321Y-67252146D01*
X200420312Y-67252152D01*
X200301782Y-67346677D01*
X200237096Y-67373086D01*
X200168400Y-67360329D01*
X200138779Y-67339357D01*
X200116827Y-67318369D01*
X199928966Y-67194363D01*
X199721995Y-67105899D01*
X199721982Y-67105895D01*
X199502542Y-67055810D01*
X199502538Y-67055809D01*
X199502537Y-67055809D01*
X199502536Y-67055808D01*
X199502531Y-67055808D01*
X199277674Y-67045710D01*
X199277673Y-67045710D01*
X199277670Y-67045710D01*
X199054613Y-67075925D01*
X199054610Y-67075925D01*
X199054609Y-67075926D01*
X198840534Y-67145483D01*
X198642321Y-67252146D01*
X198642312Y-67252152D01*
X198523782Y-67346677D01*
X198459096Y-67373086D01*
X198390400Y-67360329D01*
X198360779Y-67339357D01*
X198338827Y-67318369D01*
X198150966Y-67194363D01*
X197943995Y-67105899D01*
X197943982Y-67105895D01*
X197724542Y-67055810D01*
X197724538Y-67055809D01*
X197724537Y-67055809D01*
X197724536Y-67055808D01*
X197724531Y-67055808D01*
X197499674Y-67045710D01*
X197499673Y-67045710D01*
X197499670Y-67045710D01*
X197276613Y-67075925D01*
X197276610Y-67075925D01*
X197276609Y-67075926D01*
X197062534Y-67145483D01*
X196864321Y-67252146D01*
X196864312Y-67252152D01*
X196745782Y-67346677D01*
X196681096Y-67373086D01*
X196612400Y-67360329D01*
X196582779Y-67339357D01*
X196560827Y-67318369D01*
X196372966Y-67194363D01*
X196165995Y-67105899D01*
X196165982Y-67105895D01*
X195946542Y-67055810D01*
X195946538Y-67055809D01*
X195946537Y-67055809D01*
X195946536Y-67055808D01*
X195946531Y-67055808D01*
X195721674Y-67045710D01*
X195721673Y-67045710D01*
X195721670Y-67045710D01*
X195498613Y-67075925D01*
X195498610Y-67075925D01*
X195498609Y-67075926D01*
X195284534Y-67145483D01*
X195086321Y-67252146D01*
X195086312Y-67252152D01*
X194967782Y-67346677D01*
X194903096Y-67373086D01*
X194834400Y-67360329D01*
X194804779Y-67339357D01*
X194782827Y-67318369D01*
X194594966Y-67194363D01*
X194387995Y-67105899D01*
X194387982Y-67105895D01*
X194168542Y-67055810D01*
X194168538Y-67055809D01*
X194168537Y-67055809D01*
X194168536Y-67055808D01*
X194168531Y-67055808D01*
X193943674Y-67045710D01*
X193943673Y-67045710D01*
X193943670Y-67045710D01*
X193720613Y-67075925D01*
X193720610Y-67075925D01*
X193720609Y-67075926D01*
X193506534Y-67145483D01*
X193308321Y-67252146D01*
X193308312Y-67252152D01*
X193189782Y-67346677D01*
X193125096Y-67373086D01*
X193056400Y-67360329D01*
X193026779Y-67339357D01*
X193004827Y-67318369D01*
X192816966Y-67194363D01*
X192609995Y-67105899D01*
X192609982Y-67105895D01*
X192390542Y-67055810D01*
X192390538Y-67055809D01*
X192390537Y-67055809D01*
X192390536Y-67055808D01*
X192390531Y-67055808D01*
X192165674Y-67045710D01*
X192165673Y-67045710D01*
X192165670Y-67045710D01*
X191942613Y-67075925D01*
X191942610Y-67075925D01*
X191942609Y-67075926D01*
X191728534Y-67145483D01*
X191530321Y-67252146D01*
X191530312Y-67252152D01*
X191411782Y-67346677D01*
X191347096Y-67373086D01*
X191278400Y-67360329D01*
X191248779Y-67339357D01*
X191226827Y-67318369D01*
X191085829Y-67225297D01*
X191040724Y-67171937D01*
X191031627Y-67102662D01*
X191061428Y-67039466D01*
X191066442Y-67034146D01*
X191095785Y-67004803D01*
X191108047Y-66994981D01*
X191107864Y-66994760D01*
X191113866Y-66989793D01*
X191113876Y-66989787D01*
X191161240Y-66939349D01*
X191182119Y-66918471D01*
X191186372Y-66912987D01*
X191190149Y-66908564D01*
X191222061Y-66874583D01*
X191231713Y-66857024D01*
X191242388Y-66840773D01*
X191254673Y-66824937D01*
X191273185Y-66782153D01*
X191275741Y-66776936D01*
X191298106Y-66736257D01*
X191298193Y-66736099D01*
X191298193Y-66736098D01*
X191298196Y-66736093D01*
X191303179Y-66716681D01*
X191309476Y-66698292D01*
X191317437Y-66679896D01*
X191324728Y-66633854D01*
X191325907Y-66628163D01*
X191337499Y-66583020D01*
X191337499Y-66562984D01*
X191339026Y-66543583D01*
X191342159Y-66523805D01*
X191337774Y-66477416D01*
X191337499Y-66471578D01*
X191337499Y-58754740D01*
X191339223Y-58739126D01*
X191338937Y-58739099D01*
X191339671Y-58731336D01*
X191337499Y-58662206D01*
X191337499Y-58632654D01*
X191337499Y-58632653D01*
X191336628Y-58625762D01*
X191336171Y-58619948D01*
X191334708Y-58573376D01*
X191329120Y-58554142D01*
X191325173Y-58535084D01*
X191322663Y-58515211D01*
X191305506Y-58471878D01*
X191303613Y-58466349D01*
X191290617Y-58421617D01*
X191290616Y-58421613D01*
X191280419Y-58404371D01*
X191271862Y-58386905D01*
X191264485Y-58368271D01*
X191237082Y-58330553D01*
X191233899Y-58325708D01*
X191210169Y-58285582D01*
X191210164Y-58285576D01*
X191196004Y-58271416D01*
X191183369Y-58256623D01*
X191171592Y-58240415D01*
X191135692Y-58210716D01*
X191131380Y-58206793D01*
X189690799Y-56766212D01*
X189680976Y-56753950D01*
X189680755Y-56754134D01*
X189675782Y-56748123D01*
X189671759Y-56744345D01*
X189625360Y-56700773D01*
X189614915Y-56690328D01*
X189604471Y-56679883D01*
X189598982Y-56675625D01*
X189594557Y-56671847D01*
X189560578Y-56639938D01*
X189560576Y-56639936D01*
X189560573Y-56639935D01*
X189543025Y-56630288D01*
X189526759Y-56619604D01*
X189510929Y-56607325D01*
X189468164Y-56588818D01*
X189462918Y-56586248D01*
X189422089Y-56563803D01*
X189422088Y-56563802D01*
X189402689Y-56558822D01*
X189384277Y-56552518D01*
X189365894Y-56544562D01*
X189365888Y-56544560D01*
X189319870Y-56537272D01*
X189314148Y-56536087D01*
X189269017Y-56524500D01*
X189269015Y-56524500D01*
X189248980Y-56524500D01*
X189229582Y-56522973D01*
X189222158Y-56521797D01*
X189209801Y-56519840D01*
X189209800Y-56519840D01*
X189163412Y-56524225D01*
X189157574Y-56524500D01*
X185086471Y-56524500D01*
X185019432Y-56504815D01*
X184973677Y-56452011D01*
X184963733Y-56382853D01*
X184987204Y-56326189D01*
X184987332Y-56326018D01*
X185014796Y-56289331D01*
X185065091Y-56154483D01*
X185071500Y-56094873D01*
X185071500Y-55876000D01*
X216692501Y-55876000D01*
X216692501Y-56325986D01*
X216702994Y-56428697D01*
X216758141Y-56595119D01*
X216758143Y-56595124D01*
X216850184Y-56744345D01*
X216974154Y-56868315D01*
X217123375Y-56960356D01*
X217123380Y-56960358D01*
X217289802Y-57015505D01*
X217289809Y-57015506D01*
X217392519Y-57025999D01*
X217604999Y-57025999D01*
X217605000Y-57025998D01*
X217605000Y-55876000D01*
X218105000Y-55876000D01*
X218105000Y-57025999D01*
X218317472Y-57025999D01*
X218317486Y-57025998D01*
X218420197Y-57015505D01*
X218586619Y-56960358D01*
X218586624Y-56960356D01*
X218735845Y-56868315D01*
X218859815Y-56744345D01*
X218951856Y-56595124D01*
X218951858Y-56595119D01*
X219007005Y-56428697D01*
X219007006Y-56428690D01*
X219017499Y-56325986D01*
X219017500Y-56325973D01*
X219017500Y-55876000D01*
X218105000Y-55876000D01*
X217605000Y-55876000D01*
X216692501Y-55876000D01*
X185071500Y-55876000D01*
X185071500Y-55376000D01*
X216692500Y-55376000D01*
X217605000Y-55376000D01*
X217605000Y-54226000D01*
X218105000Y-54226000D01*
X218105000Y-55376000D01*
X219017499Y-55376000D01*
X219017499Y-54926028D01*
X219017498Y-54926013D01*
X219007005Y-54823302D01*
X218951858Y-54656880D01*
X218951856Y-54656875D01*
X218859815Y-54507654D01*
X218735845Y-54383684D01*
X218586624Y-54291643D01*
X218586619Y-54291641D01*
X218420197Y-54236494D01*
X218420190Y-54236493D01*
X218317486Y-54226000D01*
X218105000Y-54226000D01*
X217605000Y-54226000D01*
X217392529Y-54226000D01*
X217392512Y-54226001D01*
X217289802Y-54236494D01*
X217123380Y-54291641D01*
X217123375Y-54291643D01*
X216974154Y-54383684D01*
X216850184Y-54507654D01*
X216758143Y-54656875D01*
X216758141Y-54656880D01*
X216702994Y-54823302D01*
X216702993Y-54823309D01*
X216692500Y-54926013D01*
X216692500Y-55376000D01*
X185071500Y-55376000D01*
X185071499Y-54649128D01*
X185065091Y-54589517D01*
X185034442Y-54507344D01*
X185014797Y-54454671D01*
X185014793Y-54454664D01*
X184928547Y-54339455D01*
X184928544Y-54339452D01*
X184813335Y-54253206D01*
X184813330Y-54253203D01*
X184677166Y-54202417D01*
X184621233Y-54160545D01*
X184596816Y-54095081D01*
X184596500Y-54086235D01*
X184596500Y-53892072D01*
X184616185Y-53825033D01*
X184649375Y-53790498D01*
X184735139Y-53730447D01*
X184896047Y-53569539D01*
X185026568Y-53383134D01*
X185053618Y-53325124D01*
X185099790Y-53272685D01*
X185166983Y-53253533D01*
X185233865Y-53273748D01*
X185278382Y-53325125D01*
X185305429Y-53383128D01*
X185305432Y-53383134D01*
X185435954Y-53569541D01*
X185596858Y-53730445D01*
X185596861Y-53730447D01*
X185783266Y-53860968D01*
X185989504Y-53957139D01*
X185989509Y-53957140D01*
X185989511Y-53957141D01*
X186042415Y-53971316D01*
X186209308Y-54016035D01*
X186371230Y-54030201D01*
X186435998Y-54035868D01*
X186436000Y-54035868D01*
X186436002Y-54035868D01*
X186498511Y-54030399D01*
X186662692Y-54016035D01*
X186882496Y-53957139D01*
X187088734Y-53860968D01*
X187275139Y-53730447D01*
X187436047Y-53569539D01*
X187566568Y-53383134D01*
X187593618Y-53325124D01*
X187639790Y-53272685D01*
X187706983Y-53253533D01*
X187773865Y-53273748D01*
X187818382Y-53325125D01*
X187845429Y-53383128D01*
X187845432Y-53383134D01*
X187975954Y-53569541D01*
X188136858Y-53730445D01*
X188136861Y-53730447D01*
X188323266Y-53860968D01*
X188529504Y-53957139D01*
X188529509Y-53957140D01*
X188529511Y-53957141D01*
X188582415Y-53971316D01*
X188749308Y-54016035D01*
X188911230Y-54030201D01*
X188975998Y-54035868D01*
X188976000Y-54035868D01*
X188976002Y-54035868D01*
X189038511Y-54030399D01*
X189202692Y-54016035D01*
X189422496Y-53957139D01*
X189628734Y-53860968D01*
X189815139Y-53730447D01*
X189976047Y-53569539D01*
X190106568Y-53383134D01*
X190133618Y-53325124D01*
X190179790Y-53272685D01*
X190246983Y-53253533D01*
X190313865Y-53273748D01*
X190358382Y-53325125D01*
X190385429Y-53383128D01*
X190385432Y-53383134D01*
X190515954Y-53569541D01*
X190676858Y-53730445D01*
X190676861Y-53730447D01*
X190863266Y-53860968D01*
X191069504Y-53957139D01*
X191069509Y-53957140D01*
X191069511Y-53957141D01*
X191122415Y-53971316D01*
X191289308Y-54016035D01*
X191451230Y-54030201D01*
X191515998Y-54035868D01*
X191516000Y-54035868D01*
X191516002Y-54035868D01*
X191578511Y-54030399D01*
X191742692Y-54016035D01*
X191962496Y-53957139D01*
X192168734Y-53860968D01*
X192355139Y-53730447D01*
X192516047Y-53569539D01*
X192646568Y-53383134D01*
X192673618Y-53325124D01*
X192719790Y-53272685D01*
X192786983Y-53253533D01*
X192853865Y-53273748D01*
X192898382Y-53325125D01*
X192925429Y-53383128D01*
X192925432Y-53383134D01*
X193055954Y-53569541D01*
X193216858Y-53730445D01*
X193216861Y-53730447D01*
X193403266Y-53860968D01*
X193609504Y-53957139D01*
X193609509Y-53957140D01*
X193609511Y-53957141D01*
X193662415Y-53971316D01*
X193829308Y-54016035D01*
X193991230Y-54030201D01*
X194055998Y-54035868D01*
X194056000Y-54035868D01*
X194056002Y-54035868D01*
X194118511Y-54030399D01*
X194282692Y-54016035D01*
X194502496Y-53957139D01*
X194708734Y-53860968D01*
X194895139Y-53730447D01*
X195056047Y-53569539D01*
X195186568Y-53383134D01*
X195213618Y-53325124D01*
X195259790Y-53272685D01*
X195326983Y-53253533D01*
X195393865Y-53273748D01*
X195438382Y-53325125D01*
X195465429Y-53383128D01*
X195465432Y-53383134D01*
X195595954Y-53569541D01*
X195756858Y-53730445D01*
X195756861Y-53730447D01*
X195943266Y-53860968D01*
X196149504Y-53957139D01*
X196149509Y-53957140D01*
X196149511Y-53957141D01*
X196202415Y-53971316D01*
X196369308Y-54016035D01*
X196531230Y-54030201D01*
X196595998Y-54035868D01*
X196596000Y-54035868D01*
X196596002Y-54035868D01*
X196658511Y-54030399D01*
X196822692Y-54016035D01*
X197042496Y-53957139D01*
X197248734Y-53860968D01*
X197435139Y-53730447D01*
X197596047Y-53569539D01*
X197726568Y-53383134D01*
X197753618Y-53325124D01*
X197799790Y-53272685D01*
X197866983Y-53253533D01*
X197933865Y-53273748D01*
X197978382Y-53325125D01*
X198005429Y-53383128D01*
X198005432Y-53383134D01*
X198135954Y-53569541D01*
X198296858Y-53730445D01*
X198296861Y-53730447D01*
X198483266Y-53860968D01*
X198689504Y-53957139D01*
X198689509Y-53957140D01*
X198689511Y-53957141D01*
X198742415Y-53971316D01*
X198909308Y-54016035D01*
X199071230Y-54030201D01*
X199135998Y-54035868D01*
X199136000Y-54035868D01*
X199136002Y-54035868D01*
X199198511Y-54030399D01*
X199362692Y-54016035D01*
X199582496Y-53957139D01*
X199788734Y-53860968D01*
X199975139Y-53730447D01*
X200136047Y-53569539D01*
X200266568Y-53383134D01*
X200293618Y-53325124D01*
X200339790Y-53272685D01*
X200406983Y-53253533D01*
X200473865Y-53273748D01*
X200518382Y-53325125D01*
X200545429Y-53383128D01*
X200545432Y-53383134D01*
X200675954Y-53569541D01*
X200836858Y-53730445D01*
X200836861Y-53730447D01*
X201023266Y-53860968D01*
X201229504Y-53957139D01*
X201229509Y-53957140D01*
X201229511Y-53957141D01*
X201282415Y-53971316D01*
X201449308Y-54016035D01*
X201611230Y-54030201D01*
X201675998Y-54035868D01*
X201676000Y-54035868D01*
X201676002Y-54035868D01*
X201738511Y-54030399D01*
X201902692Y-54016035D01*
X202122496Y-53957139D01*
X202328734Y-53860968D01*
X202515139Y-53730447D01*
X202676047Y-53569539D01*
X202806568Y-53383134D01*
X202833618Y-53325124D01*
X202879790Y-53272685D01*
X202946983Y-53253533D01*
X203013865Y-53273748D01*
X203058382Y-53325125D01*
X203085429Y-53383128D01*
X203085432Y-53383134D01*
X203215954Y-53569541D01*
X203376858Y-53730445D01*
X203376861Y-53730447D01*
X203563266Y-53860968D01*
X203769504Y-53957139D01*
X203769509Y-53957140D01*
X203769511Y-53957141D01*
X203822415Y-53971316D01*
X203989308Y-54016035D01*
X204151230Y-54030201D01*
X204215998Y-54035868D01*
X204216000Y-54035868D01*
X204216002Y-54035868D01*
X204278511Y-54030399D01*
X204442692Y-54016035D01*
X204662496Y-53957139D01*
X204868734Y-53860968D01*
X205055139Y-53730447D01*
X205216047Y-53569539D01*
X205346568Y-53383134D01*
X205373618Y-53325124D01*
X205419790Y-53272685D01*
X205486983Y-53253533D01*
X205553865Y-53273748D01*
X205598382Y-53325125D01*
X205625429Y-53383128D01*
X205625432Y-53383134D01*
X205755954Y-53569541D01*
X205916858Y-53730445D01*
X205916861Y-53730447D01*
X206103266Y-53860968D01*
X206309504Y-53957139D01*
X206309509Y-53957140D01*
X206309511Y-53957141D01*
X206362415Y-53971316D01*
X206529308Y-54016035D01*
X206691230Y-54030201D01*
X206755998Y-54035868D01*
X206756000Y-54035868D01*
X206756002Y-54035868D01*
X206818511Y-54030399D01*
X206982692Y-54016035D01*
X207202496Y-53957139D01*
X207408734Y-53860968D01*
X207595139Y-53730447D01*
X207756047Y-53569539D01*
X207886568Y-53383134D01*
X207913618Y-53325124D01*
X207959790Y-53272685D01*
X208026983Y-53253533D01*
X208093865Y-53273748D01*
X208138382Y-53325125D01*
X208165429Y-53383128D01*
X208165432Y-53383134D01*
X208295954Y-53569541D01*
X208456858Y-53730445D01*
X208456861Y-53730447D01*
X208643266Y-53860968D01*
X208849504Y-53957139D01*
X208849509Y-53957140D01*
X208849511Y-53957141D01*
X208902415Y-53971316D01*
X209069308Y-54016035D01*
X209231230Y-54030201D01*
X209295998Y-54035868D01*
X209296000Y-54035868D01*
X209296002Y-54035868D01*
X209358511Y-54030399D01*
X209522692Y-54016035D01*
X209742496Y-53957139D01*
X209948734Y-53860968D01*
X210135139Y-53730447D01*
X210296047Y-53569539D01*
X210426568Y-53383134D01*
X210453618Y-53325124D01*
X210499790Y-53272685D01*
X210566983Y-53253533D01*
X210633865Y-53273748D01*
X210678382Y-53325125D01*
X210705429Y-53383128D01*
X210705432Y-53383134D01*
X210835954Y-53569541D01*
X210996858Y-53730445D01*
X210996861Y-53730447D01*
X211183266Y-53860968D01*
X211389504Y-53957139D01*
X211389509Y-53957140D01*
X211389511Y-53957141D01*
X211442415Y-53971316D01*
X211609308Y-54016035D01*
X211771230Y-54030201D01*
X211835998Y-54035868D01*
X211836000Y-54035868D01*
X211836002Y-54035868D01*
X211898511Y-54030399D01*
X212062692Y-54016035D01*
X212282496Y-53957139D01*
X212488734Y-53860968D01*
X212675139Y-53730447D01*
X212836047Y-53569539D01*
X212966568Y-53383134D01*
X212993618Y-53325124D01*
X213039790Y-53272685D01*
X213106983Y-53253533D01*
X213173865Y-53273748D01*
X213218382Y-53325125D01*
X213245429Y-53383128D01*
X213245432Y-53383134D01*
X213375954Y-53569541D01*
X213536858Y-53730445D01*
X213536861Y-53730447D01*
X213723266Y-53860968D01*
X213929504Y-53957139D01*
X213929509Y-53957140D01*
X213929511Y-53957141D01*
X213982415Y-53971316D01*
X214149308Y-54016035D01*
X214311230Y-54030201D01*
X214375998Y-54035868D01*
X214376000Y-54035868D01*
X214376002Y-54035868D01*
X214438511Y-54030399D01*
X214602692Y-54016035D01*
X214822496Y-53957139D01*
X215028734Y-53860968D01*
X215215139Y-53730447D01*
X215376047Y-53569539D01*
X215506568Y-53383134D01*
X215533618Y-53325124D01*
X215579790Y-53272685D01*
X215646983Y-53253533D01*
X215713865Y-53273748D01*
X215758382Y-53325125D01*
X215785429Y-53383128D01*
X215785432Y-53383134D01*
X215915954Y-53569541D01*
X216076858Y-53730445D01*
X216076861Y-53730447D01*
X216263266Y-53860968D01*
X216469504Y-53957139D01*
X216469509Y-53957140D01*
X216469511Y-53957141D01*
X216522415Y-53971316D01*
X216689308Y-54016035D01*
X216851230Y-54030201D01*
X216915998Y-54035868D01*
X216916000Y-54035868D01*
X216916002Y-54035868D01*
X216978511Y-54030399D01*
X217142692Y-54016035D01*
X217362496Y-53957139D01*
X217568734Y-53860968D01*
X217755139Y-53730447D01*
X217916047Y-53569539D01*
X218046568Y-53383134D01*
X218073618Y-53325124D01*
X218119790Y-53272685D01*
X218186983Y-53253533D01*
X218253865Y-53273748D01*
X218298382Y-53325125D01*
X218325429Y-53383128D01*
X218325432Y-53383134D01*
X218455954Y-53569541D01*
X218616858Y-53730445D01*
X218616861Y-53730447D01*
X218803266Y-53860968D01*
X219009504Y-53957139D01*
X219009509Y-53957140D01*
X219009511Y-53957141D01*
X219062415Y-53971316D01*
X219229308Y-54016035D01*
X219391230Y-54030201D01*
X219455998Y-54035868D01*
X219456000Y-54035868D01*
X219456002Y-54035868D01*
X219518511Y-54030399D01*
X219682692Y-54016035D01*
X219902496Y-53957139D01*
X220108734Y-53860968D01*
X220295139Y-53730447D01*
X220456047Y-53569539D01*
X220586568Y-53383134D01*
X220613618Y-53325124D01*
X220659790Y-53272685D01*
X220726983Y-53253533D01*
X220793865Y-53273748D01*
X220838382Y-53325125D01*
X220865429Y-53383128D01*
X220865432Y-53383134D01*
X220995954Y-53569541D01*
X221156858Y-53730445D01*
X221156861Y-53730447D01*
X221343266Y-53860968D01*
X221549504Y-53957139D01*
X221549509Y-53957140D01*
X221549511Y-53957141D01*
X221602415Y-53971316D01*
X221769308Y-54016035D01*
X221931230Y-54030201D01*
X221995998Y-54035868D01*
X221996000Y-54035868D01*
X221996002Y-54035868D01*
X222058511Y-54030399D01*
X222222692Y-54016035D01*
X222442496Y-53957139D01*
X222648734Y-53860968D01*
X222835139Y-53730447D01*
X222996047Y-53569539D01*
X223126568Y-53383134D01*
X223222739Y-53176896D01*
X223281635Y-52957092D01*
X223301468Y-52730400D01*
X223281635Y-52503708D01*
X223222739Y-52283904D01*
X223126568Y-52077666D01*
X222996047Y-51891261D01*
X222996045Y-51891258D01*
X222835141Y-51730354D01*
X222648734Y-51599832D01*
X222648732Y-51599831D01*
X222442497Y-51503661D01*
X222442488Y-51503658D01*
X222222697Y-51444766D01*
X222222693Y-51444765D01*
X222222692Y-51444765D01*
X222222691Y-51444764D01*
X222222686Y-51444764D01*
X221996002Y-51424932D01*
X221995998Y-51424932D01*
X221769313Y-51444764D01*
X221769302Y-51444766D01*
X221549511Y-51503658D01*
X221549502Y-51503661D01*
X221343267Y-51599831D01*
X221343265Y-51599832D01*
X221156858Y-51730354D01*
X220995954Y-51891258D01*
X220865432Y-52077665D01*
X220865431Y-52077667D01*
X220838382Y-52135675D01*
X220792209Y-52188114D01*
X220725016Y-52207266D01*
X220658135Y-52187050D01*
X220613618Y-52135675D01*
X220586568Y-52077666D01*
X220456047Y-51891261D01*
X220456045Y-51891258D01*
X220295141Y-51730354D01*
X220108734Y-51599832D01*
X220108732Y-51599831D01*
X219902497Y-51503661D01*
X219902488Y-51503658D01*
X219682697Y-51444766D01*
X219682693Y-51444765D01*
X219682692Y-51444765D01*
X219682691Y-51444764D01*
X219682686Y-51444764D01*
X219456002Y-51424932D01*
X219455998Y-51424932D01*
X219229313Y-51444764D01*
X219229302Y-51444766D01*
X219009511Y-51503658D01*
X219009502Y-51503661D01*
X218803267Y-51599831D01*
X218803265Y-51599832D01*
X218616858Y-51730354D01*
X218455954Y-51891258D01*
X218325432Y-52077665D01*
X218325431Y-52077667D01*
X218298382Y-52135675D01*
X218252209Y-52188114D01*
X218185016Y-52207266D01*
X218118135Y-52187050D01*
X218073618Y-52135675D01*
X218046568Y-52077666D01*
X217916047Y-51891261D01*
X217916045Y-51891258D01*
X217755141Y-51730354D01*
X217568734Y-51599832D01*
X217568732Y-51599831D01*
X217362497Y-51503661D01*
X217362488Y-51503658D01*
X217142697Y-51444766D01*
X217142693Y-51444765D01*
X217142692Y-51444765D01*
X217142691Y-51444764D01*
X217142686Y-51444764D01*
X216916002Y-51424932D01*
X216915998Y-51424932D01*
X216689313Y-51444764D01*
X216689302Y-51444766D01*
X216469511Y-51503658D01*
X216469502Y-51503661D01*
X216263267Y-51599831D01*
X216263265Y-51599832D01*
X216076858Y-51730354D01*
X215915954Y-51891258D01*
X215785432Y-52077665D01*
X215785431Y-52077667D01*
X215758382Y-52135675D01*
X215712209Y-52188114D01*
X215645016Y-52207266D01*
X215578135Y-52187050D01*
X215533618Y-52135675D01*
X215506568Y-52077666D01*
X215376047Y-51891261D01*
X215376045Y-51891258D01*
X215215141Y-51730354D01*
X215028734Y-51599832D01*
X215028732Y-51599831D01*
X214822497Y-51503661D01*
X214822488Y-51503658D01*
X214602697Y-51444766D01*
X214602693Y-51444765D01*
X214602692Y-51444765D01*
X214602691Y-51444764D01*
X214602686Y-51444764D01*
X214376002Y-51424932D01*
X214375998Y-51424932D01*
X214149313Y-51444764D01*
X214149302Y-51444766D01*
X213929511Y-51503658D01*
X213929502Y-51503661D01*
X213723267Y-51599831D01*
X213723265Y-51599832D01*
X213536858Y-51730354D01*
X213375954Y-51891258D01*
X213245432Y-52077665D01*
X213245431Y-52077667D01*
X213218382Y-52135675D01*
X213172209Y-52188114D01*
X213105016Y-52207266D01*
X213038135Y-52187050D01*
X212993618Y-52135675D01*
X212966568Y-52077666D01*
X212836047Y-51891261D01*
X212836045Y-51891258D01*
X212675141Y-51730354D01*
X212488734Y-51599832D01*
X212488732Y-51599831D01*
X212282497Y-51503661D01*
X212282488Y-51503658D01*
X212062697Y-51444766D01*
X212062693Y-51444765D01*
X212062692Y-51444765D01*
X212062691Y-51444764D01*
X212062686Y-51444764D01*
X211836002Y-51424932D01*
X211835998Y-51424932D01*
X211609313Y-51444764D01*
X211609302Y-51444766D01*
X211389511Y-51503658D01*
X211389502Y-51503661D01*
X211183267Y-51599831D01*
X211183265Y-51599832D01*
X210996858Y-51730354D01*
X210835954Y-51891258D01*
X210705432Y-52077665D01*
X210705431Y-52077667D01*
X210678382Y-52135675D01*
X210632209Y-52188114D01*
X210565016Y-52207266D01*
X210498135Y-52187050D01*
X210453618Y-52135675D01*
X210426568Y-52077666D01*
X210296047Y-51891261D01*
X210296045Y-51891258D01*
X210135141Y-51730354D01*
X209948734Y-51599832D01*
X209948732Y-51599831D01*
X209742497Y-51503661D01*
X209742488Y-51503658D01*
X209522697Y-51444766D01*
X209522693Y-51444765D01*
X209522692Y-51444765D01*
X209522691Y-51444764D01*
X209522686Y-51444764D01*
X209296002Y-51424932D01*
X209295998Y-51424932D01*
X209069313Y-51444764D01*
X209069302Y-51444766D01*
X208849511Y-51503658D01*
X208849502Y-51503661D01*
X208643267Y-51599831D01*
X208643265Y-51599832D01*
X208456858Y-51730354D01*
X208295954Y-51891258D01*
X208165432Y-52077665D01*
X208165431Y-52077667D01*
X208138382Y-52135675D01*
X208092209Y-52188114D01*
X208025016Y-52207266D01*
X207958135Y-52187050D01*
X207913618Y-52135675D01*
X207886568Y-52077666D01*
X207756047Y-51891261D01*
X207756045Y-51891258D01*
X207595141Y-51730354D01*
X207408734Y-51599832D01*
X207408732Y-51599831D01*
X207202497Y-51503661D01*
X207202488Y-51503658D01*
X206982697Y-51444766D01*
X206982693Y-51444765D01*
X206982692Y-51444765D01*
X206982691Y-51444764D01*
X206982686Y-51444764D01*
X206756002Y-51424932D01*
X206755998Y-51424932D01*
X206529313Y-51444764D01*
X206529302Y-51444766D01*
X206309511Y-51503658D01*
X206309502Y-51503661D01*
X206103267Y-51599831D01*
X206103265Y-51599832D01*
X205916858Y-51730354D01*
X205755954Y-51891258D01*
X205625432Y-52077665D01*
X205625431Y-52077667D01*
X205598382Y-52135675D01*
X205552209Y-52188114D01*
X205485016Y-52207266D01*
X205418135Y-52187050D01*
X205373618Y-52135675D01*
X205346568Y-52077666D01*
X205216047Y-51891261D01*
X205216045Y-51891258D01*
X205055141Y-51730354D01*
X204868734Y-51599832D01*
X204868732Y-51599831D01*
X204662497Y-51503661D01*
X204662488Y-51503658D01*
X204442697Y-51444766D01*
X204442693Y-51444765D01*
X204442692Y-51444765D01*
X204442691Y-51444764D01*
X204442686Y-51444764D01*
X204216002Y-51424932D01*
X204215998Y-51424932D01*
X203989313Y-51444764D01*
X203989302Y-51444766D01*
X203769511Y-51503658D01*
X203769502Y-51503661D01*
X203563267Y-51599831D01*
X203563265Y-51599832D01*
X203376858Y-51730354D01*
X203215954Y-51891258D01*
X203085432Y-52077665D01*
X203085431Y-52077667D01*
X203058382Y-52135675D01*
X203012209Y-52188114D01*
X202945016Y-52207266D01*
X202878135Y-52187050D01*
X202833618Y-52135675D01*
X202806568Y-52077666D01*
X202676047Y-51891261D01*
X202676045Y-51891258D01*
X202515141Y-51730354D01*
X202328734Y-51599832D01*
X202328732Y-51599831D01*
X202122497Y-51503661D01*
X202122488Y-51503658D01*
X201902697Y-51444766D01*
X201902693Y-51444765D01*
X201902692Y-51444765D01*
X201902691Y-51444764D01*
X201902686Y-51444764D01*
X201676002Y-51424932D01*
X201675998Y-51424932D01*
X201449313Y-51444764D01*
X201449302Y-51444766D01*
X201229511Y-51503658D01*
X201229502Y-51503661D01*
X201023267Y-51599831D01*
X201023265Y-51599832D01*
X200836858Y-51730354D01*
X200675954Y-51891258D01*
X200545432Y-52077665D01*
X200545431Y-52077667D01*
X200518382Y-52135675D01*
X200472209Y-52188114D01*
X200405016Y-52207266D01*
X200338135Y-52187050D01*
X200293618Y-52135675D01*
X200266568Y-52077666D01*
X200136047Y-51891261D01*
X200136045Y-51891258D01*
X199975141Y-51730354D01*
X199788734Y-51599832D01*
X199788732Y-51599831D01*
X199582497Y-51503661D01*
X199582488Y-51503658D01*
X199362697Y-51444766D01*
X199362693Y-51444765D01*
X199362692Y-51444765D01*
X199362691Y-51444764D01*
X199362686Y-51444764D01*
X199136002Y-51424932D01*
X199135998Y-51424932D01*
X198909313Y-51444764D01*
X198909302Y-51444766D01*
X198689511Y-51503658D01*
X198689502Y-51503661D01*
X198483267Y-51599831D01*
X198483265Y-51599832D01*
X198296858Y-51730354D01*
X198135954Y-51891258D01*
X198005432Y-52077665D01*
X198005431Y-52077667D01*
X197978382Y-52135675D01*
X197932209Y-52188114D01*
X197865016Y-52207266D01*
X197798135Y-52187050D01*
X197753618Y-52135675D01*
X197726568Y-52077666D01*
X197596047Y-51891261D01*
X197596045Y-51891258D01*
X197435141Y-51730354D01*
X197248734Y-51599832D01*
X197248732Y-51599831D01*
X197042497Y-51503661D01*
X197042488Y-51503658D01*
X196822697Y-51444766D01*
X196822693Y-51444765D01*
X196822692Y-51444765D01*
X196822691Y-51444764D01*
X196822686Y-51444764D01*
X196596002Y-51424932D01*
X196595998Y-51424932D01*
X196369313Y-51444764D01*
X196369302Y-51444766D01*
X196149511Y-51503658D01*
X196149502Y-51503661D01*
X195943267Y-51599831D01*
X195943265Y-51599832D01*
X195756858Y-51730354D01*
X195595954Y-51891258D01*
X195465432Y-52077665D01*
X195465431Y-52077667D01*
X195438382Y-52135675D01*
X195392209Y-52188114D01*
X195325016Y-52207266D01*
X195258135Y-52187050D01*
X195213618Y-52135675D01*
X195186568Y-52077666D01*
X195056047Y-51891261D01*
X195056045Y-51891258D01*
X194895141Y-51730354D01*
X194708734Y-51599832D01*
X194708732Y-51599831D01*
X194502497Y-51503661D01*
X194502488Y-51503658D01*
X194282697Y-51444766D01*
X194282693Y-51444765D01*
X194282692Y-51444765D01*
X194282691Y-51444764D01*
X194282686Y-51444764D01*
X194056002Y-51424932D01*
X194055998Y-51424932D01*
X193829313Y-51444764D01*
X193829302Y-51444766D01*
X193609511Y-51503658D01*
X193609502Y-51503661D01*
X193403267Y-51599831D01*
X193403265Y-51599832D01*
X193216858Y-51730354D01*
X193055954Y-51891258D01*
X192925432Y-52077665D01*
X192925431Y-52077667D01*
X192898382Y-52135675D01*
X192852209Y-52188114D01*
X192785016Y-52207266D01*
X192718135Y-52187050D01*
X192673618Y-52135675D01*
X192646568Y-52077666D01*
X192516047Y-51891261D01*
X192516045Y-51891258D01*
X192355141Y-51730354D01*
X192168734Y-51599832D01*
X192168732Y-51599831D01*
X191962497Y-51503661D01*
X191962488Y-51503658D01*
X191742697Y-51444766D01*
X191742693Y-51444765D01*
X191742692Y-51444765D01*
X191742691Y-51444764D01*
X191742686Y-51444764D01*
X191516002Y-51424932D01*
X191515998Y-51424932D01*
X191284117Y-51445219D01*
X191215617Y-51431452D01*
X191185629Y-51409372D01*
X190886806Y-51110549D01*
X190853321Y-51049226D01*
X190858305Y-50979534D01*
X190900177Y-50923601D01*
X190932424Y-50906880D01*
X190932349Y-50906703D01*
X190934722Y-50905688D01*
X190936173Y-50904936D01*
X190937464Y-50904517D01*
X191135681Y-50797852D01*
X191254217Y-50703321D01*
X191318904Y-50676914D01*
X191387599Y-50689669D01*
X191417220Y-50710641D01*
X191437864Y-50730379D01*
X191439176Y-50731633D01*
X191627033Y-50855636D01*
X191834004Y-50944100D01*
X191834007Y-50944101D01*
X191834012Y-50944103D01*
X192053463Y-50994191D01*
X192278330Y-51004290D01*
X192501387Y-50974075D01*
X192715464Y-50904517D01*
X192913681Y-50797852D01*
X193032217Y-50703321D01*
X193096904Y-50676914D01*
X193165599Y-50689669D01*
X193195220Y-50710641D01*
X193215864Y-50730379D01*
X193217176Y-50731633D01*
X193405033Y-50855636D01*
X193612004Y-50944100D01*
X193612007Y-50944101D01*
X193612012Y-50944103D01*
X193831463Y-50994191D01*
X194056330Y-51004290D01*
X194279387Y-50974075D01*
X194493464Y-50904517D01*
X194691681Y-50797852D01*
X194810217Y-50703321D01*
X194874904Y-50676914D01*
X194943599Y-50689669D01*
X194973220Y-50710641D01*
X194993864Y-50730379D01*
X194995176Y-50731633D01*
X195183033Y-50855636D01*
X195390004Y-50944100D01*
X195390007Y-50944101D01*
X195390012Y-50944103D01*
X195609463Y-50994191D01*
X195834330Y-51004290D01*
X196057387Y-50974075D01*
X196271464Y-50904517D01*
X196469681Y-50797852D01*
X196588217Y-50703321D01*
X196652904Y-50676914D01*
X196721599Y-50689669D01*
X196751220Y-50710641D01*
X196771864Y-50730379D01*
X196773176Y-50731633D01*
X196961033Y-50855636D01*
X197168004Y-50944100D01*
X197168007Y-50944101D01*
X197168012Y-50944103D01*
X197387463Y-50994191D01*
X197612330Y-51004290D01*
X197835387Y-50974075D01*
X198049464Y-50904517D01*
X198247681Y-50797852D01*
X198366217Y-50703321D01*
X198430904Y-50676914D01*
X198499599Y-50689669D01*
X198529220Y-50710641D01*
X198549864Y-50730379D01*
X198551176Y-50731633D01*
X198739033Y-50855636D01*
X198946004Y-50944100D01*
X198946007Y-50944101D01*
X198946012Y-50944103D01*
X199165463Y-50994191D01*
X199390330Y-51004290D01*
X199613387Y-50974075D01*
X199827464Y-50904517D01*
X200025681Y-50797852D01*
X200144217Y-50703321D01*
X200208904Y-50676914D01*
X200277599Y-50689669D01*
X200307220Y-50710641D01*
X200327864Y-50730379D01*
X200329176Y-50731633D01*
X200517033Y-50855636D01*
X200724004Y-50944100D01*
X200724007Y-50944101D01*
X200724012Y-50944103D01*
X200943463Y-50994191D01*
X201168330Y-51004290D01*
X201391387Y-50974075D01*
X201605464Y-50904517D01*
X201803681Y-50797852D01*
X201922217Y-50703321D01*
X201986904Y-50676914D01*
X202055599Y-50689669D01*
X202085220Y-50710641D01*
X202105864Y-50730379D01*
X202107176Y-50731633D01*
X202295033Y-50855636D01*
X202502004Y-50944100D01*
X202502007Y-50944101D01*
X202502012Y-50944103D01*
X202721463Y-50994191D01*
X202946330Y-51004290D01*
X203169387Y-50974075D01*
X203383464Y-50904517D01*
X203581681Y-50797852D01*
X203700217Y-50703321D01*
X203764904Y-50676914D01*
X203833599Y-50689669D01*
X203863220Y-50710641D01*
X203883864Y-50730379D01*
X203885176Y-50731633D01*
X204073033Y-50855636D01*
X204280004Y-50944100D01*
X204280007Y-50944101D01*
X204280012Y-50944103D01*
X204499463Y-50994191D01*
X204724330Y-51004290D01*
X204947387Y-50974075D01*
X205161464Y-50904517D01*
X205359681Y-50797852D01*
X205478217Y-50703321D01*
X205542904Y-50676914D01*
X205611599Y-50689669D01*
X205641220Y-50710641D01*
X205661864Y-50730379D01*
X205663176Y-50731633D01*
X205851033Y-50855636D01*
X206058004Y-50944100D01*
X206058007Y-50944101D01*
X206058012Y-50944103D01*
X206277463Y-50994191D01*
X206502330Y-51004290D01*
X206725387Y-50974075D01*
X206939464Y-50904517D01*
X207137681Y-50797852D01*
X207256217Y-50703321D01*
X207320904Y-50676914D01*
X207389599Y-50689669D01*
X207419220Y-50710641D01*
X207439864Y-50730379D01*
X207441176Y-50731633D01*
X207629033Y-50855636D01*
X207836004Y-50944100D01*
X207836007Y-50944101D01*
X207836012Y-50944103D01*
X208055463Y-50994191D01*
X208280330Y-51004290D01*
X208503387Y-50974075D01*
X208717464Y-50904517D01*
X208915681Y-50797852D01*
X209034217Y-50703321D01*
X209098904Y-50676914D01*
X209167599Y-50689669D01*
X209197220Y-50710641D01*
X209217864Y-50730379D01*
X209219176Y-50731633D01*
X209407033Y-50855636D01*
X209614004Y-50944100D01*
X209614007Y-50944101D01*
X209614012Y-50944103D01*
X209833463Y-50994191D01*
X210058330Y-51004290D01*
X210281387Y-50974075D01*
X210495464Y-50904517D01*
X210693681Y-50797852D01*
X210812217Y-50703321D01*
X210876904Y-50676914D01*
X210945599Y-50689669D01*
X210975220Y-50710641D01*
X210995864Y-50730379D01*
X210997176Y-50731633D01*
X211185033Y-50855636D01*
X211392004Y-50944100D01*
X211392007Y-50944101D01*
X211392012Y-50944103D01*
X211611463Y-50994191D01*
X211836330Y-51004290D01*
X212059387Y-50974075D01*
X212273464Y-50904517D01*
X212471681Y-50797852D01*
X212590614Y-50703005D01*
X212655297Y-50676598D01*
X212723992Y-50689353D01*
X212753616Y-50710326D01*
X212775492Y-50731242D01*
X212963266Y-50855191D01*
X213170169Y-50943624D01*
X213170178Y-50943627D01*
X213389524Y-50993691D01*
X213389535Y-50993693D01*
X213614303Y-51003787D01*
X213837278Y-50973583D01*
X214051268Y-50904054D01*
X214249401Y-50797434D01*
X214249404Y-50797432D01*
X214367852Y-50702973D01*
X214432539Y-50676565D01*
X214501234Y-50689320D01*
X214530856Y-50710293D01*
X214553175Y-50731632D01*
X214626174Y-50779818D01*
X214741033Y-50855636D01*
X214948004Y-50944100D01*
X214948007Y-50944101D01*
X214948012Y-50944103D01*
X215167463Y-50994191D01*
X215392330Y-51004290D01*
X215615387Y-50974075D01*
X215829464Y-50904517D01*
X216027681Y-50797852D01*
X216146217Y-50703321D01*
X216210904Y-50676914D01*
X216279599Y-50689669D01*
X216309220Y-50710641D01*
X216329864Y-50730379D01*
X216331176Y-50731633D01*
X216519033Y-50855636D01*
X216726004Y-50944100D01*
X216726007Y-50944101D01*
X216726012Y-50944103D01*
X216945463Y-50994191D01*
X217170330Y-51004290D01*
X217393387Y-50974075D01*
X217607464Y-50904517D01*
X217805681Y-50797852D01*
X217924217Y-50703321D01*
X217988904Y-50676914D01*
X218057599Y-50689669D01*
X218087220Y-50710641D01*
X218107864Y-50730379D01*
X218109176Y-50731633D01*
X218297033Y-50855636D01*
X218504004Y-50944100D01*
X218504007Y-50944101D01*
X218504012Y-50944103D01*
X218723463Y-50994191D01*
X218948330Y-51004290D01*
X219171387Y-50974075D01*
X219385464Y-50904517D01*
X219583681Y-50797852D01*
X219702217Y-50703321D01*
X219766904Y-50676914D01*
X219835599Y-50689669D01*
X219865220Y-50710641D01*
X219885864Y-50730379D01*
X219887176Y-50731633D01*
X220075033Y-50855636D01*
X220282004Y-50944100D01*
X220282007Y-50944101D01*
X220282012Y-50944103D01*
X220501463Y-50994191D01*
X220726330Y-51004290D01*
X220949387Y-50974075D01*
X221163464Y-50904517D01*
X221361681Y-50797852D01*
X221480217Y-50703321D01*
X221544904Y-50676914D01*
X221613599Y-50689669D01*
X221643220Y-50710641D01*
X221663864Y-50730379D01*
X221665176Y-50731633D01*
X221853033Y-50855636D01*
X222060004Y-50944100D01*
X222060007Y-50944101D01*
X222060012Y-50944103D01*
X222279463Y-50994191D01*
X222504330Y-51004290D01*
X222727387Y-50974075D01*
X222941464Y-50904517D01*
X223139681Y-50797852D01*
X223258217Y-50703321D01*
X223322904Y-50676914D01*
X223391599Y-50689669D01*
X223421220Y-50710641D01*
X223441864Y-50730379D01*
X223443176Y-50731633D01*
X223631033Y-50855636D01*
X223838004Y-50944100D01*
X223838007Y-50944101D01*
X223838012Y-50944103D01*
X224057463Y-50994191D01*
X224282330Y-51004290D01*
X224505387Y-50974075D01*
X224719464Y-50904517D01*
X224917681Y-50797852D01*
X225036217Y-50703321D01*
X225100904Y-50676914D01*
X225169599Y-50689669D01*
X225199220Y-50710641D01*
X225219864Y-50730379D01*
X225221176Y-50731633D01*
X225409033Y-50855636D01*
X225616004Y-50944100D01*
X225616007Y-50944101D01*
X225616012Y-50944103D01*
X225835463Y-50994191D01*
X226060330Y-51004290D01*
X226283387Y-50974075D01*
X226497464Y-50904517D01*
X226695681Y-50797852D01*
X226814217Y-50703321D01*
X226878904Y-50676914D01*
X226947599Y-50689669D01*
X226977220Y-50710641D01*
X226997864Y-50730379D01*
X226999176Y-50731633D01*
X227187033Y-50855636D01*
X227394004Y-50944100D01*
X227394006Y-50944100D01*
X227394012Y-50944103D01*
X227440068Y-50954615D01*
X227501044Y-50988721D01*
X227533902Y-51050382D01*
X227528208Y-51120019D01*
X227500155Y-51163186D01*
X223774162Y-54889181D01*
X223712839Y-54922666D01*
X223686481Y-54925500D01*
X222254663Y-54925500D01*
X222187624Y-54905815D01*
X222141869Y-54853011D01*
X222133411Y-54827459D01*
X222132500Y-54823207D01*
X222132499Y-54823203D01*
X222077314Y-54656666D01*
X221985212Y-54507344D01*
X221861156Y-54383288D01*
X221711834Y-54291186D01*
X221545297Y-54236001D01*
X221545295Y-54236000D01*
X221442510Y-54225500D01*
X220517498Y-54225500D01*
X220517480Y-54225501D01*
X220414703Y-54236000D01*
X220414700Y-54236001D01*
X220248168Y-54291185D01*
X220248163Y-54291187D01*
X220098842Y-54383289D01*
X219974789Y-54507342D01*
X219882687Y-54656663D01*
X219882685Y-54656668D01*
X219882615Y-54656880D01*
X219827501Y-54823203D01*
X219827501Y-54823204D01*
X219827500Y-54823204D01*
X219817000Y-54925983D01*
X219817000Y-56326001D01*
X219817001Y-56326018D01*
X219827500Y-56428796D01*
X219827501Y-56428799D01*
X219859214Y-56524500D01*
X219882686Y-56595334D01*
X219974788Y-56744656D01*
X220098844Y-56868712D01*
X220248166Y-56960814D01*
X220414703Y-57015999D01*
X220517491Y-57026500D01*
X221442508Y-57026499D01*
X221442516Y-57026498D01*
X221442519Y-57026498D01*
X221498802Y-57020748D01*
X221545297Y-57015999D01*
X221711834Y-56960814D01*
X221861156Y-56868712D01*
X221985212Y-56744656D01*
X222077314Y-56595334D01*
X222132499Y-56428797D01*
X222132499Y-56428793D01*
X222133412Y-56424533D01*
X222166699Y-56363102D01*
X222227914Y-56329419D01*
X222254663Y-56326500D01*
X224004952Y-56326500D01*
X224008697Y-56326613D01*
X224016042Y-56327057D01*
X224070606Y-56330358D01*
X224108314Y-56323447D01*
X224131621Y-56319177D01*
X224135325Y-56318613D01*
X224153170Y-56316446D01*
X224196872Y-56311140D01*
X224206335Y-56307550D01*
X224227961Y-56301522D01*
X224228893Y-56301351D01*
X224237932Y-56299695D01*
X224294512Y-56274229D01*
X224297942Y-56272809D01*
X224355930Y-56250818D01*
X224364266Y-56245062D01*
X224383821Y-56234034D01*
X224393057Y-56229878D01*
X224441896Y-56191613D01*
X224444876Y-56189421D01*
X224495929Y-56154183D01*
X224537065Y-56107748D01*
X224539599Y-56105056D01*
X229614553Y-51030102D01*
X229675874Y-50996619D01*
X229685569Y-50994910D01*
X229839387Y-50974075D01*
X230053464Y-50904517D01*
X230251681Y-50797852D01*
X230427666Y-50657508D01*
X230575765Y-50487996D01*
X230691215Y-50294764D01*
X230759407Y-50113067D01*
X230801392Y-50057219D01*
X230866907Y-50032936D01*
X230935149Y-50047927D01*
G37*
%TD.AperFunction*%
%TA.AperFunction,Conductor*%
G36*
X172379039Y-52028185D02*
G01*
X172424794Y-52080989D01*
X172436000Y-52132500D01*
X172436000Y-52480400D01*
X173420314Y-52480400D01*
X173408359Y-52492355D01*
X173350835Y-52605252D01*
X173331014Y-52730400D01*
X173350835Y-52855548D01*
X173408359Y-52968445D01*
X173420314Y-52980400D01*
X172436000Y-52980400D01*
X172436000Y-53578244D01*
X172442401Y-53637772D01*
X172442403Y-53637779D01*
X172492645Y-53772486D01*
X172492649Y-53772493D01*
X172578809Y-53887587D01*
X172578812Y-53887590D01*
X172693906Y-53973750D01*
X172693913Y-53973754D01*
X172828620Y-54023996D01*
X172828627Y-54023998D01*
X172888155Y-54030399D01*
X172888172Y-54030400D01*
X173486000Y-54030400D01*
X173486000Y-53046086D01*
X173497955Y-53058041D01*
X173610852Y-53115565D01*
X173704519Y-53130400D01*
X173767481Y-53130400D01*
X173861148Y-53115565D01*
X173974045Y-53058041D01*
X173986000Y-53046086D01*
X173986000Y-54030400D01*
X174583828Y-54030400D01*
X174583844Y-54030399D01*
X174643372Y-54023998D01*
X174643379Y-54023996D01*
X174778086Y-53973754D01*
X174778093Y-53973750D01*
X174893187Y-53887590D01*
X174893190Y-53887587D01*
X174979350Y-53772493D01*
X174979354Y-53772486D01*
X175029596Y-53637780D01*
X175033424Y-53602181D01*
X175060162Y-53537630D01*
X175117555Y-53497782D01*
X175187380Y-53495288D01*
X175247469Y-53530940D01*
X175258289Y-53544312D01*
X175275956Y-53569543D01*
X175436858Y-53730445D01*
X175436861Y-53730447D01*
X175623266Y-53860968D01*
X175829504Y-53957139D01*
X175829509Y-53957140D01*
X175829511Y-53957141D01*
X175882415Y-53971316D01*
X176049308Y-54016035D01*
X176211230Y-54030201D01*
X176275998Y-54035868D01*
X176276000Y-54035868D01*
X176276002Y-54035868D01*
X176338511Y-54030399D01*
X176502692Y-54016035D01*
X176722496Y-53957139D01*
X176928734Y-53860968D01*
X177115139Y-53730447D01*
X177276047Y-53569539D01*
X177406568Y-53383134D01*
X177433618Y-53325124D01*
X177479790Y-53272685D01*
X177546983Y-53253533D01*
X177613865Y-53273748D01*
X177658382Y-53325125D01*
X177685429Y-53383128D01*
X177685432Y-53383134D01*
X177815954Y-53569541D01*
X177976857Y-53730444D01*
X177976860Y-53730446D01*
X177976861Y-53730447D01*
X178062623Y-53790497D01*
X178106248Y-53845073D01*
X178115500Y-53892072D01*
X178115500Y-54086235D01*
X178095815Y-54153274D01*
X178043011Y-54199029D01*
X178034834Y-54202417D01*
X177898669Y-54253203D01*
X177898664Y-54253206D01*
X177783455Y-54339452D01*
X177783452Y-54339455D01*
X177697206Y-54454664D01*
X177697202Y-54454671D01*
X177646908Y-54589517D01*
X177640501Y-54649116D01*
X177640501Y-54649123D01*
X177640500Y-54649135D01*
X177640500Y-56094870D01*
X177640501Y-56094876D01*
X177646908Y-56154483D01*
X177697202Y-56289328D01*
X177697203Y-56289330D01*
X177708058Y-56303830D01*
X177724660Y-56326008D01*
X177724796Y-56326189D01*
X177749213Y-56391653D01*
X177734362Y-56459926D01*
X177684957Y-56509332D01*
X177625529Y-56524500D01*
X171252452Y-56524500D01*
X171185413Y-56504815D01*
X171164771Y-56488181D01*
X168218237Y-53541646D01*
X168184752Y-53480323D01*
X168186142Y-53421876D01*
X168213063Y-53321408D01*
X168233659Y-53086000D01*
X168213063Y-52850592D01*
X168151903Y-52622337D01*
X168052035Y-52408171D01*
X168048245Y-52402759D01*
X167916492Y-52214595D01*
X167914484Y-52212201D01*
X167913930Y-52210935D01*
X167913390Y-52210164D01*
X167913545Y-52210055D01*
X167886474Y-52148191D01*
X167897517Y-52079200D01*
X167944106Y-52027131D01*
X168009477Y-52008500D01*
X172312000Y-52008500D01*
X172379039Y-52028185D01*
G37*
%TD.AperFunction*%
%TA.AperFunction,Conductor*%
G36*
X230942539Y-34520185D02*
G01*
X230988294Y-34572989D01*
X230999500Y-34624500D01*
X230999500Y-48850031D01*
X230979815Y-48917070D01*
X230927011Y-48962825D01*
X230857853Y-48972769D01*
X230794297Y-48943744D01*
X230756523Y-48884966D01*
X230755969Y-48883020D01*
X230735496Y-48808839D01*
X230735491Y-48808826D01*
X230637832Y-48606033D01*
X230637828Y-48606025D01*
X230505526Y-48423927D01*
X230505525Y-48423925D01*
X230495716Y-48414547D01*
X230345485Y-48270911D01*
X230342823Y-48268366D01*
X230154966Y-48144363D01*
X229947995Y-48055899D01*
X229947982Y-48055895D01*
X229728542Y-48005810D01*
X229728538Y-48005809D01*
X229728537Y-48005809D01*
X229728536Y-48005808D01*
X229728531Y-48005808D01*
X229503674Y-47995710D01*
X229503673Y-47995710D01*
X229503670Y-47995710D01*
X229280613Y-48025925D01*
X229280610Y-48025925D01*
X229280609Y-48025926D01*
X229066534Y-48095483D01*
X228868321Y-48202146D01*
X228868312Y-48202152D01*
X228749782Y-48296677D01*
X228685096Y-48323086D01*
X228616400Y-48310329D01*
X228586779Y-48289357D01*
X228564827Y-48268369D01*
X228376966Y-48144363D01*
X228169995Y-48055899D01*
X228169982Y-48055895D01*
X227950542Y-48005810D01*
X227950538Y-48005809D01*
X227950537Y-48005809D01*
X227950536Y-48005808D01*
X227950531Y-48005808D01*
X227725674Y-47995710D01*
X227725673Y-47995710D01*
X227725670Y-47995710D01*
X227502613Y-48025925D01*
X227502610Y-48025925D01*
X227502609Y-48025926D01*
X227288534Y-48095483D01*
X227090321Y-48202146D01*
X227090312Y-48202152D01*
X226971782Y-48296677D01*
X226907096Y-48323086D01*
X226838400Y-48310329D01*
X226808779Y-48289357D01*
X226786827Y-48268369D01*
X226598966Y-48144363D01*
X226391995Y-48055899D01*
X226391982Y-48055895D01*
X226172542Y-48005810D01*
X226172538Y-48005809D01*
X226172537Y-48005809D01*
X226172536Y-48005808D01*
X226172531Y-48005808D01*
X225947674Y-47995710D01*
X225947673Y-47995710D01*
X225947670Y-47995710D01*
X225724613Y-48025925D01*
X225724610Y-48025925D01*
X225724609Y-48025926D01*
X225510534Y-48095483D01*
X225312321Y-48202146D01*
X225312312Y-48202152D01*
X225193782Y-48296677D01*
X225129096Y-48323086D01*
X225060400Y-48310329D01*
X225030779Y-48289357D01*
X225008827Y-48268369D01*
X224820966Y-48144363D01*
X224613995Y-48055899D01*
X224613982Y-48055895D01*
X224394542Y-48005810D01*
X224394538Y-48005809D01*
X224394537Y-48005809D01*
X224394536Y-48005808D01*
X224394531Y-48005808D01*
X224169674Y-47995710D01*
X224169673Y-47995710D01*
X224169670Y-47995710D01*
X223946613Y-48025925D01*
X223946610Y-48025925D01*
X223946609Y-48025926D01*
X223732534Y-48095483D01*
X223534321Y-48202146D01*
X223534312Y-48202152D01*
X223415782Y-48296677D01*
X223351096Y-48323086D01*
X223282400Y-48310329D01*
X223252779Y-48289357D01*
X223230827Y-48268369D01*
X223042966Y-48144363D01*
X222835995Y-48055899D01*
X222835982Y-48055895D01*
X222616542Y-48005810D01*
X222616538Y-48005809D01*
X222616537Y-48005809D01*
X222616536Y-48005808D01*
X222616531Y-48005808D01*
X222391674Y-47995710D01*
X222391673Y-47995710D01*
X222391670Y-47995710D01*
X222168613Y-48025925D01*
X222168610Y-48025925D01*
X222168609Y-48025926D01*
X221954534Y-48095483D01*
X221756321Y-48202146D01*
X221756312Y-48202152D01*
X221637782Y-48296677D01*
X221573096Y-48323086D01*
X221504400Y-48310329D01*
X221474779Y-48289357D01*
X221452827Y-48268369D01*
X221264966Y-48144363D01*
X221057995Y-48055899D01*
X221057982Y-48055895D01*
X220838542Y-48005810D01*
X220838538Y-48005809D01*
X220838537Y-48005809D01*
X220838536Y-48005808D01*
X220838531Y-48005808D01*
X220613674Y-47995710D01*
X220613673Y-47995710D01*
X220613670Y-47995710D01*
X220390613Y-48025925D01*
X220390610Y-48025925D01*
X220390609Y-48025926D01*
X220176534Y-48095483D01*
X219978321Y-48202146D01*
X219978312Y-48202152D01*
X219859782Y-48296677D01*
X219795096Y-48323086D01*
X219726400Y-48310329D01*
X219696779Y-48289357D01*
X219674827Y-48268369D01*
X219486966Y-48144363D01*
X219279995Y-48055899D01*
X219279982Y-48055895D01*
X219060542Y-48005810D01*
X219060538Y-48005809D01*
X219060537Y-48005809D01*
X219060536Y-48005808D01*
X219060531Y-48005808D01*
X218835674Y-47995710D01*
X218835673Y-47995710D01*
X218835670Y-47995710D01*
X218612613Y-48025925D01*
X218612610Y-48025925D01*
X218612609Y-48025926D01*
X218398534Y-48095483D01*
X218200321Y-48202146D01*
X218200312Y-48202152D01*
X218081782Y-48296677D01*
X218017096Y-48323086D01*
X217948400Y-48310329D01*
X217918779Y-48289357D01*
X217896827Y-48268369D01*
X217708966Y-48144363D01*
X217501995Y-48055899D01*
X217501982Y-48055895D01*
X217282542Y-48005810D01*
X217282538Y-48005809D01*
X217282537Y-48005809D01*
X217282536Y-48005808D01*
X217282531Y-48005808D01*
X217057674Y-47995710D01*
X217057673Y-47995710D01*
X217057670Y-47995710D01*
X216834613Y-48025925D01*
X216834610Y-48025925D01*
X216834609Y-48025926D01*
X216620534Y-48095483D01*
X216422321Y-48202146D01*
X216422312Y-48202152D01*
X216303782Y-48296677D01*
X216239096Y-48323086D01*
X216170400Y-48310329D01*
X216140779Y-48289357D01*
X216118827Y-48268369D01*
X215930966Y-48144363D01*
X215723995Y-48055899D01*
X215723982Y-48055895D01*
X215504542Y-48005810D01*
X215504538Y-48005809D01*
X215504537Y-48005809D01*
X215504536Y-48005808D01*
X215504531Y-48005808D01*
X215279674Y-47995710D01*
X215279673Y-47995710D01*
X215279670Y-47995710D01*
X215056613Y-48025925D01*
X215056610Y-48025925D01*
X215056609Y-48025926D01*
X214842534Y-48095483D01*
X214644321Y-48202146D01*
X214644312Y-48202152D01*
X214525387Y-48296992D01*
X214460701Y-48323401D01*
X214392005Y-48310644D01*
X214362385Y-48289673D01*
X214340510Y-48268760D01*
X214340511Y-48268760D01*
X214152733Y-48144808D01*
X213945830Y-48056375D01*
X213945821Y-48056372D01*
X213726475Y-48006308D01*
X213726464Y-48006306D01*
X213501696Y-47996212D01*
X213278721Y-48026416D01*
X213064731Y-48095945D01*
X212866598Y-48202565D01*
X212866596Y-48202567D01*
X212748146Y-48297027D01*
X212683459Y-48323435D01*
X212614764Y-48310678D01*
X212585143Y-48289706D01*
X212579111Y-48283939D01*
X212562825Y-48268368D01*
X212502674Y-48228662D01*
X212374966Y-48144363D01*
X212167995Y-48055899D01*
X212167982Y-48055895D01*
X211948542Y-48005810D01*
X211948538Y-48005809D01*
X211948537Y-48005809D01*
X211948536Y-48005808D01*
X211948531Y-48005808D01*
X211723674Y-47995710D01*
X211723673Y-47995710D01*
X211723670Y-47995710D01*
X211500613Y-48025925D01*
X211500610Y-48025925D01*
X211500609Y-48025926D01*
X211286534Y-48095483D01*
X211088321Y-48202146D01*
X211088312Y-48202152D01*
X210969782Y-48296677D01*
X210905096Y-48323086D01*
X210836400Y-48310329D01*
X210806779Y-48289357D01*
X210784827Y-48268369D01*
X210596966Y-48144363D01*
X210389995Y-48055899D01*
X210389982Y-48055895D01*
X210170542Y-48005810D01*
X210170538Y-48005809D01*
X210170537Y-48005809D01*
X210170536Y-48005808D01*
X210170531Y-48005808D01*
X209945674Y-47995710D01*
X209945673Y-47995710D01*
X209945670Y-47995710D01*
X209722613Y-48025925D01*
X209722610Y-48025925D01*
X209722609Y-48025926D01*
X209508534Y-48095483D01*
X209310321Y-48202146D01*
X209310312Y-48202152D01*
X209191782Y-48296677D01*
X209127096Y-48323086D01*
X209058400Y-48310329D01*
X209028779Y-48289357D01*
X209006827Y-48268369D01*
X208818966Y-48144363D01*
X208611995Y-48055899D01*
X208611982Y-48055895D01*
X208392542Y-48005810D01*
X208392538Y-48005809D01*
X208392537Y-48005809D01*
X208392536Y-48005808D01*
X208392531Y-48005808D01*
X208167674Y-47995710D01*
X208167673Y-47995710D01*
X208167670Y-47995710D01*
X207944613Y-48025925D01*
X207944610Y-48025925D01*
X207944609Y-48025926D01*
X207730534Y-48095483D01*
X207532321Y-48202146D01*
X207532312Y-48202152D01*
X207413782Y-48296677D01*
X207349096Y-48323086D01*
X207280400Y-48310329D01*
X207250779Y-48289357D01*
X207228827Y-48268369D01*
X207040966Y-48144363D01*
X206833995Y-48055899D01*
X206833982Y-48055895D01*
X206614542Y-48005810D01*
X206614538Y-48005809D01*
X206614537Y-48005809D01*
X206614536Y-48005808D01*
X206614531Y-48005808D01*
X206389674Y-47995710D01*
X206389673Y-47995710D01*
X206389670Y-47995710D01*
X206166613Y-48025925D01*
X206166610Y-48025925D01*
X206166609Y-48025926D01*
X205952534Y-48095483D01*
X205754321Y-48202146D01*
X205754312Y-48202152D01*
X205635782Y-48296677D01*
X205571096Y-48323086D01*
X205502400Y-48310329D01*
X205472779Y-48289357D01*
X205450827Y-48268369D01*
X205262966Y-48144363D01*
X205055995Y-48055899D01*
X205055982Y-48055895D01*
X204836542Y-48005810D01*
X204836538Y-48005809D01*
X204836537Y-48005809D01*
X204836536Y-48005808D01*
X204836531Y-48005808D01*
X204611674Y-47995710D01*
X204611673Y-47995710D01*
X204611670Y-47995710D01*
X204388613Y-48025925D01*
X204388610Y-48025925D01*
X204388609Y-48025926D01*
X204174534Y-48095483D01*
X203976321Y-48202146D01*
X203976312Y-48202152D01*
X203857782Y-48296677D01*
X203793096Y-48323086D01*
X203724400Y-48310329D01*
X203694779Y-48289357D01*
X203672827Y-48268369D01*
X203484966Y-48144363D01*
X203277995Y-48055899D01*
X203277982Y-48055895D01*
X203058542Y-48005810D01*
X203058538Y-48005809D01*
X203058537Y-48005809D01*
X203058536Y-48005808D01*
X203058531Y-48005808D01*
X202833674Y-47995710D01*
X202833673Y-47995710D01*
X202833670Y-47995710D01*
X202610613Y-48025925D01*
X202610610Y-48025925D01*
X202610609Y-48025926D01*
X202396534Y-48095483D01*
X202198321Y-48202146D01*
X202198312Y-48202152D01*
X202079782Y-48296677D01*
X202015096Y-48323086D01*
X201946400Y-48310329D01*
X201916779Y-48289357D01*
X201894827Y-48268369D01*
X201706966Y-48144363D01*
X201499995Y-48055899D01*
X201499982Y-48055895D01*
X201280542Y-48005810D01*
X201280538Y-48005809D01*
X201280537Y-48005809D01*
X201280536Y-48005808D01*
X201280531Y-48005808D01*
X201055674Y-47995710D01*
X201055673Y-47995710D01*
X201055670Y-47995710D01*
X200832613Y-48025925D01*
X200832610Y-48025925D01*
X200832609Y-48025926D01*
X200618534Y-48095483D01*
X200420321Y-48202146D01*
X200420312Y-48202152D01*
X200301782Y-48296677D01*
X200237096Y-48323086D01*
X200168400Y-48310329D01*
X200138779Y-48289357D01*
X200116827Y-48268369D01*
X199928966Y-48144363D01*
X199721995Y-48055899D01*
X199721982Y-48055895D01*
X199502542Y-48005810D01*
X199502538Y-48005809D01*
X199502537Y-48005809D01*
X199502536Y-48005808D01*
X199502531Y-48005808D01*
X199277674Y-47995710D01*
X199277673Y-47995710D01*
X199277670Y-47995710D01*
X199054613Y-48025925D01*
X199054610Y-48025925D01*
X199054609Y-48025926D01*
X198840534Y-48095483D01*
X198642321Y-48202146D01*
X198642312Y-48202152D01*
X198523782Y-48296677D01*
X198459096Y-48323086D01*
X198390400Y-48310329D01*
X198360779Y-48289357D01*
X198338827Y-48268369D01*
X198150966Y-48144363D01*
X197943995Y-48055899D01*
X197943982Y-48055895D01*
X197724542Y-48005810D01*
X197724538Y-48005809D01*
X197724537Y-48005809D01*
X197724536Y-48005808D01*
X197724531Y-48005808D01*
X197499674Y-47995710D01*
X197499673Y-47995710D01*
X197499670Y-47995710D01*
X197276613Y-48025925D01*
X197276610Y-48025925D01*
X197276609Y-48025926D01*
X197062534Y-48095483D01*
X196864321Y-48202146D01*
X196864312Y-48202152D01*
X196745782Y-48296677D01*
X196681096Y-48323086D01*
X196612400Y-48310329D01*
X196582779Y-48289357D01*
X196560827Y-48268369D01*
X196372966Y-48144363D01*
X196165995Y-48055899D01*
X196165982Y-48055895D01*
X195946542Y-48005810D01*
X195946538Y-48005809D01*
X195946537Y-48005809D01*
X195946536Y-48005808D01*
X195946531Y-48005808D01*
X195721674Y-47995710D01*
X195721673Y-47995710D01*
X195721670Y-47995710D01*
X195498613Y-48025925D01*
X195498610Y-48025925D01*
X195498609Y-48025926D01*
X195284534Y-48095483D01*
X195086321Y-48202146D01*
X195086312Y-48202152D01*
X194967782Y-48296677D01*
X194903096Y-48323086D01*
X194834400Y-48310329D01*
X194804779Y-48289357D01*
X194782827Y-48268369D01*
X194594966Y-48144363D01*
X194387995Y-48055899D01*
X194387982Y-48055895D01*
X194168542Y-48005810D01*
X194168538Y-48005809D01*
X194168537Y-48005809D01*
X194168536Y-48005808D01*
X194168531Y-48005808D01*
X193943674Y-47995710D01*
X193943673Y-47995710D01*
X193943670Y-47995710D01*
X193720613Y-48025925D01*
X193720610Y-48025925D01*
X193720609Y-48025926D01*
X193506534Y-48095483D01*
X193308321Y-48202146D01*
X193308312Y-48202152D01*
X193189782Y-48296677D01*
X193125096Y-48323086D01*
X193056400Y-48310329D01*
X193026779Y-48289357D01*
X193004827Y-48268369D01*
X192816966Y-48144363D01*
X192609995Y-48055899D01*
X192609982Y-48055895D01*
X192390542Y-48005810D01*
X192390538Y-48005809D01*
X192390537Y-48005809D01*
X192390536Y-48005808D01*
X192390531Y-48005808D01*
X192165674Y-47995710D01*
X192165673Y-47995710D01*
X192165670Y-47995710D01*
X191942613Y-48025925D01*
X191942610Y-48025925D01*
X191942609Y-48025926D01*
X191728534Y-48095483D01*
X191530321Y-48202146D01*
X191530312Y-48202152D01*
X191411782Y-48296677D01*
X191347096Y-48323086D01*
X191278400Y-48310329D01*
X191248779Y-48289357D01*
X191226827Y-48268369D01*
X191038966Y-48144363D01*
X190831995Y-48055899D01*
X190831982Y-48055895D01*
X190612542Y-48005810D01*
X190612538Y-48005809D01*
X190612537Y-48005809D01*
X190612536Y-48005808D01*
X190612531Y-48005808D01*
X190387674Y-47995710D01*
X190387673Y-47995710D01*
X190387670Y-47995710D01*
X190164613Y-48025925D01*
X190164610Y-48025925D01*
X190164609Y-48025926D01*
X189950534Y-48095483D01*
X189752321Y-48202146D01*
X189752312Y-48202152D01*
X189633782Y-48296677D01*
X189569096Y-48323086D01*
X189500400Y-48310329D01*
X189470779Y-48289357D01*
X189448827Y-48268369D01*
X189260966Y-48144363D01*
X189053995Y-48055899D01*
X189053982Y-48055895D01*
X188834542Y-48005810D01*
X188834538Y-48005809D01*
X188834537Y-48005809D01*
X188834536Y-48005808D01*
X188834531Y-48005808D01*
X188609674Y-47995710D01*
X188609673Y-47995710D01*
X188609670Y-47995710D01*
X188386613Y-48025925D01*
X188386610Y-48025925D01*
X188386609Y-48025926D01*
X188172534Y-48095483D01*
X187974321Y-48202146D01*
X187974312Y-48202152D01*
X187855782Y-48296677D01*
X187791096Y-48323086D01*
X187722400Y-48310329D01*
X187692779Y-48289357D01*
X187670827Y-48268369D01*
X187482966Y-48144363D01*
X187275995Y-48055899D01*
X187275982Y-48055895D01*
X187056542Y-48005810D01*
X187056538Y-48005809D01*
X187056537Y-48005809D01*
X187056536Y-48005808D01*
X187056531Y-48005808D01*
X186831674Y-47995710D01*
X186831673Y-47995710D01*
X186831670Y-47995710D01*
X186608613Y-48025925D01*
X186608610Y-48025925D01*
X186608609Y-48025926D01*
X186394534Y-48095483D01*
X186196321Y-48202146D01*
X186196312Y-48202152D01*
X186077782Y-48296677D01*
X186013096Y-48323086D01*
X185944400Y-48310329D01*
X185914779Y-48289357D01*
X185892827Y-48268369D01*
X185704966Y-48144363D01*
X185497995Y-48055899D01*
X185497982Y-48055895D01*
X185278542Y-48005810D01*
X185278538Y-48005809D01*
X185278537Y-48005809D01*
X185278536Y-48005808D01*
X185278531Y-48005808D01*
X185053674Y-47995710D01*
X185053673Y-47995710D01*
X185053670Y-47995710D01*
X184830613Y-48025925D01*
X184830610Y-48025925D01*
X184830609Y-48025926D01*
X184616534Y-48095483D01*
X184418321Y-48202146D01*
X184418312Y-48202152D01*
X184299782Y-48296677D01*
X184235096Y-48323086D01*
X184166400Y-48310329D01*
X184136779Y-48289357D01*
X184114827Y-48268369D01*
X183926966Y-48144363D01*
X183719995Y-48055899D01*
X183719982Y-48055895D01*
X183500542Y-48005810D01*
X183500538Y-48005809D01*
X183500537Y-48005809D01*
X183500536Y-48005808D01*
X183500531Y-48005808D01*
X183275674Y-47995710D01*
X183275673Y-47995710D01*
X183275670Y-47995710D01*
X183052613Y-48025925D01*
X183052610Y-48025925D01*
X183052609Y-48025926D01*
X182838534Y-48095483D01*
X182640321Y-48202146D01*
X182640312Y-48202152D01*
X182521782Y-48296677D01*
X182457096Y-48323086D01*
X182388400Y-48310329D01*
X182358779Y-48289357D01*
X182336827Y-48268369D01*
X182148966Y-48144363D01*
X181941995Y-48055899D01*
X181941982Y-48055895D01*
X181722542Y-48005810D01*
X181722538Y-48005809D01*
X181722537Y-48005809D01*
X181722536Y-48005808D01*
X181722531Y-48005808D01*
X181497674Y-47995710D01*
X181497673Y-47995710D01*
X181497670Y-47995710D01*
X181274613Y-48025925D01*
X181274610Y-48025925D01*
X181274609Y-48025926D01*
X181060534Y-48095483D01*
X180862321Y-48202146D01*
X180862312Y-48202152D01*
X180743782Y-48296677D01*
X180679096Y-48323086D01*
X180610400Y-48310329D01*
X180580779Y-48289357D01*
X180558827Y-48268369D01*
X180370966Y-48144363D01*
X180163995Y-48055899D01*
X180163982Y-48055895D01*
X179944542Y-48005810D01*
X179944538Y-48005809D01*
X179944537Y-48005809D01*
X179944536Y-48005808D01*
X179944531Y-48005808D01*
X179719674Y-47995710D01*
X179719673Y-47995710D01*
X179719670Y-47995710D01*
X179496613Y-48025925D01*
X179496610Y-48025925D01*
X179496609Y-48025926D01*
X179282534Y-48095483D01*
X179084321Y-48202146D01*
X179084312Y-48202152D01*
X178965782Y-48296677D01*
X178901096Y-48323086D01*
X178832400Y-48310329D01*
X178802779Y-48289357D01*
X178780827Y-48268369D01*
X178592966Y-48144363D01*
X178385995Y-48055899D01*
X178385982Y-48055895D01*
X178166542Y-48005810D01*
X178166538Y-48005809D01*
X178166537Y-48005809D01*
X178166536Y-48005808D01*
X178166531Y-48005808D01*
X177941674Y-47995710D01*
X177941673Y-47995710D01*
X177941670Y-47995710D01*
X177718613Y-48025925D01*
X177718610Y-48025925D01*
X177718609Y-48025926D01*
X177504534Y-48095483D01*
X177306321Y-48202146D01*
X177306312Y-48202152D01*
X177187782Y-48296677D01*
X177123096Y-48323086D01*
X177054400Y-48310329D01*
X177024779Y-48289357D01*
X177002827Y-48268369D01*
X176814966Y-48144363D01*
X176607995Y-48055899D01*
X176607982Y-48055895D01*
X176388542Y-48005810D01*
X176388538Y-48005809D01*
X176388537Y-48005809D01*
X176388536Y-48005808D01*
X176388531Y-48005808D01*
X176163674Y-47995710D01*
X176163673Y-47995710D01*
X176163670Y-47995710D01*
X175940613Y-48025925D01*
X175940610Y-48025925D01*
X175940609Y-48025926D01*
X175726534Y-48095483D01*
X175528321Y-48202146D01*
X175528312Y-48202152D01*
X175409782Y-48296677D01*
X175345096Y-48323086D01*
X175276400Y-48310329D01*
X175246779Y-48289357D01*
X175224827Y-48268369D01*
X175036966Y-48144363D01*
X174829995Y-48055899D01*
X174829982Y-48055895D01*
X174610542Y-48005810D01*
X174610538Y-48005809D01*
X174610537Y-48005809D01*
X174610536Y-48005808D01*
X174610531Y-48005808D01*
X174385674Y-47995710D01*
X174385673Y-47995710D01*
X174385670Y-47995710D01*
X174162613Y-48025925D01*
X174162610Y-48025925D01*
X174162609Y-48025926D01*
X173948534Y-48095483D01*
X173750321Y-48202146D01*
X173750318Y-48202148D01*
X173574336Y-48342489D01*
X173426236Y-48512003D01*
X173310787Y-48705232D01*
X173310786Y-48705234D01*
X173231692Y-48915976D01*
X173191500Y-49137450D01*
X173191500Y-49806151D01*
X173206622Y-49974186D01*
X173206623Y-49974192D01*
X173266503Y-50191160D01*
X173266508Y-50191173D01*
X173364167Y-50393966D01*
X173364168Y-50393968D01*
X173364171Y-50393973D01*
X173376263Y-50410617D01*
X173399742Y-50476422D01*
X173383916Y-50544476D01*
X173333810Y-50593170D01*
X173275944Y-50607500D01*
X166139048Y-50607500D01*
X166135303Y-50607387D01*
X166073396Y-50603642D01*
X166073389Y-50603642D01*
X166012386Y-50614821D01*
X166008685Y-50615384D01*
X165947128Y-50622859D01*
X165947121Y-50622861D01*
X165937647Y-50626454D01*
X165916049Y-50632475D01*
X165906069Y-50634304D01*
X165849519Y-50659755D01*
X165846060Y-50661188D01*
X165788071Y-50683181D01*
X165788066Y-50683184D01*
X165779722Y-50688943D01*
X165760187Y-50699961D01*
X165750947Y-50704120D01*
X165750945Y-50704121D01*
X165702136Y-50742359D01*
X165699122Y-50744576D01*
X165648070Y-50779817D01*
X165648068Y-50779818D01*
X165606942Y-50826240D01*
X165604375Y-50828966D01*
X164709994Y-51723347D01*
X164648671Y-51756832D01*
X164590225Y-51755442D01*
X164573410Y-51750937D01*
X164338001Y-51730341D01*
X164337999Y-51730341D01*
X164102590Y-51750937D01*
X164102589Y-51750937D01*
X164002124Y-51777855D01*
X163932274Y-51776191D01*
X163882352Y-51745761D01*
X160638819Y-48502228D01*
X160605334Y-48440905D01*
X160602500Y-48414547D01*
X160602500Y-48245214D01*
X160622185Y-48178175D01*
X160674989Y-48132420D01*
X160744147Y-48122476D01*
X160807703Y-48151501D01*
X160811374Y-48154813D01*
X160824418Y-48167062D01*
X160841976Y-48176714D01*
X160858233Y-48187393D01*
X160874064Y-48199673D01*
X160893737Y-48208186D01*
X160916833Y-48218182D01*
X160922077Y-48220750D01*
X160962908Y-48243197D01*
X160975523Y-48246435D01*
X160982305Y-48248177D01*
X161000719Y-48254481D01*
X161019104Y-48262438D01*
X161065157Y-48269732D01*
X161070826Y-48270906D01*
X161115981Y-48282500D01*
X161136016Y-48282500D01*
X161155413Y-48284026D01*
X161175196Y-48287160D01*
X161221584Y-48282775D01*
X161227422Y-48282500D01*
X164451857Y-48282500D01*
X164467477Y-48284224D01*
X164467504Y-48283939D01*
X164475260Y-48284671D01*
X164475267Y-48284673D01*
X164544414Y-48282500D01*
X164573950Y-48282500D01*
X164580828Y-48281630D01*
X164586641Y-48281172D01*
X164633227Y-48279709D01*
X164652469Y-48274117D01*
X164671512Y-48270174D01*
X164691392Y-48267664D01*
X164734722Y-48250507D01*
X164740246Y-48248617D01*
X164751959Y-48245214D01*
X164784990Y-48235618D01*
X164802229Y-48225422D01*
X164819703Y-48216862D01*
X164838327Y-48209488D01*
X164838327Y-48209487D01*
X164838332Y-48209486D01*
X164876049Y-48182082D01*
X164880905Y-48178892D01*
X164921020Y-48155170D01*
X164935189Y-48140999D01*
X164949979Y-48128368D01*
X164966187Y-48116594D01*
X164995899Y-48080676D01*
X164999812Y-48076376D01*
X165253953Y-47822235D01*
X165315274Y-47788752D01*
X165373725Y-47790143D01*
X165408380Y-47799428D01*
X165474192Y-47817063D01*
X165662518Y-47833539D01*
X165709599Y-47837659D01*
X165709600Y-47837659D01*
X165709601Y-47837659D01*
X165748834Y-47834226D01*
X165945008Y-47817063D01*
X166173263Y-47755903D01*
X166387430Y-47656035D01*
X166581001Y-47520495D01*
X166748095Y-47353401D01*
X166883635Y-47159830D01*
X166983503Y-46945663D01*
X167044663Y-46717408D01*
X167065259Y-46482000D01*
X167044663Y-46246592D01*
X167002328Y-46088593D01*
X167003991Y-46018743D01*
X167043154Y-45960881D01*
X167107382Y-45933377D01*
X167122103Y-45932500D01*
X169845934Y-45932500D01*
X169912973Y-45952185D01*
X169953320Y-45994498D01*
X169955467Y-45998216D01*
X170082129Y-46138888D01*
X170149082Y-46187532D01*
X170191747Y-46242862D01*
X170197726Y-46312476D01*
X170165120Y-46374271D01*
X170163877Y-46375531D01*
X169724228Y-46815181D01*
X169662905Y-46848666D01*
X169636547Y-46851500D01*
X169577354Y-46851500D01*
X169544897Y-46858398D01*
X169392197Y-46890855D01*
X169392192Y-46890857D01*
X169219270Y-46967848D01*
X169219265Y-46967851D01*
X169066129Y-47079111D01*
X168939466Y-47219785D01*
X168844821Y-47383715D01*
X168844818Y-47383722D01*
X168786327Y-47563740D01*
X168786326Y-47563744D01*
X168766540Y-47752000D01*
X168786326Y-47940256D01*
X168786327Y-47940259D01*
X168844818Y-48120277D01*
X168844821Y-48120284D01*
X168939467Y-48284216D01*
X169015383Y-48368529D01*
X169066129Y-48424888D01*
X169219265Y-48536148D01*
X169219270Y-48536151D01*
X169392192Y-48613142D01*
X169392197Y-48613144D01*
X169577354Y-48652500D01*
X169577355Y-48652500D01*
X169766644Y-48652500D01*
X169766646Y-48652500D01*
X169951803Y-48613144D01*
X170124730Y-48536151D01*
X170277871Y-48424888D01*
X170404533Y-48284216D01*
X170499179Y-48120284D01*
X170557674Y-47940256D01*
X170575321Y-47772345D01*
X170601905Y-47707732D01*
X170610952Y-47697636D01*
X171611718Y-46696870D01*
X175100500Y-46696870D01*
X175100501Y-46696876D01*
X175106908Y-46756483D01*
X175157202Y-46891328D01*
X175157206Y-46891335D01*
X175243452Y-47006544D01*
X175243455Y-47006547D01*
X175358664Y-47092793D01*
X175358671Y-47092797D01*
X175493517Y-47143091D01*
X175493516Y-47143091D01*
X175500444Y-47143835D01*
X175553127Y-47149500D01*
X176998872Y-47149499D01*
X177058483Y-47143091D01*
X177193331Y-47092796D01*
X177308546Y-47006546D01*
X177394796Y-46891331D01*
X177445091Y-46756483D01*
X177451500Y-46696873D01*
X177451500Y-46696870D01*
X178148500Y-46696870D01*
X178148501Y-46696876D01*
X178154908Y-46756483D01*
X178205202Y-46891328D01*
X178205206Y-46891335D01*
X178291452Y-47006544D01*
X178291455Y-47006547D01*
X178406664Y-47092793D01*
X178406671Y-47092797D01*
X178541517Y-47143091D01*
X178541516Y-47143091D01*
X178548444Y-47143835D01*
X178601127Y-47149500D01*
X180046872Y-47149499D01*
X180106483Y-47143091D01*
X180241331Y-47092796D01*
X180356546Y-47006546D01*
X180442796Y-46891331D01*
X180493091Y-46756483D01*
X180499500Y-46696873D01*
X180499500Y-46696870D01*
X181958500Y-46696870D01*
X181958501Y-46696876D01*
X181964908Y-46756483D01*
X182015202Y-46891328D01*
X182015206Y-46891335D01*
X182101452Y-47006544D01*
X182101455Y-47006547D01*
X182216664Y-47092793D01*
X182216671Y-47092797D01*
X182351517Y-47143091D01*
X182351516Y-47143091D01*
X182358444Y-47143835D01*
X182411127Y-47149500D01*
X183856872Y-47149499D01*
X183916483Y-47143091D01*
X184051331Y-47092796D01*
X184166546Y-47006546D01*
X184252796Y-46891331D01*
X184303091Y-46756483D01*
X184309500Y-46696873D01*
X184309499Y-45251128D01*
X184303091Y-45191517D01*
X184252796Y-45056669D01*
X184252795Y-45056668D01*
X184252793Y-45056664D01*
X184166547Y-44941455D01*
X184166544Y-44941452D01*
X184051335Y-44855206D01*
X184051328Y-44855202D01*
X183916482Y-44804908D01*
X183916483Y-44804908D01*
X183856883Y-44798501D01*
X183856881Y-44798500D01*
X183856873Y-44798500D01*
X183856864Y-44798500D01*
X182411129Y-44798500D01*
X182411123Y-44798501D01*
X182351516Y-44804908D01*
X182216671Y-44855202D01*
X182216664Y-44855206D01*
X182101455Y-44941452D01*
X182101452Y-44941455D01*
X182015206Y-45056664D01*
X182015202Y-45056671D01*
X181964908Y-45191517D01*
X181958501Y-45251116D01*
X181958501Y-45251123D01*
X181958500Y-45251135D01*
X181958500Y-46696870D01*
X180499500Y-46696870D01*
X180499499Y-45251128D01*
X180493091Y-45191517D01*
X180442796Y-45056669D01*
X180442795Y-45056668D01*
X180442793Y-45056664D01*
X180356547Y-44941455D01*
X180356544Y-44941452D01*
X180241335Y-44855206D01*
X180241328Y-44855202D01*
X180106482Y-44804908D01*
X180106483Y-44804908D01*
X180046883Y-44798501D01*
X180046881Y-44798500D01*
X180046873Y-44798500D01*
X180046864Y-44798500D01*
X178601129Y-44798500D01*
X178601123Y-44798501D01*
X178541516Y-44804908D01*
X178406671Y-44855202D01*
X178406664Y-44855206D01*
X178291455Y-44941452D01*
X178291452Y-44941455D01*
X178205206Y-45056664D01*
X178205202Y-45056671D01*
X178154908Y-45191517D01*
X178148501Y-45251116D01*
X178148501Y-45251123D01*
X178148500Y-45251135D01*
X178148500Y-46696870D01*
X177451500Y-46696870D01*
X177451499Y-45251128D01*
X177445091Y-45191517D01*
X177394796Y-45056669D01*
X177394795Y-45056668D01*
X177394793Y-45056664D01*
X177308547Y-44941455D01*
X177308544Y-44941452D01*
X177193335Y-44855206D01*
X177193328Y-44855202D01*
X177058482Y-44804908D01*
X177058483Y-44804908D01*
X176998883Y-44798501D01*
X176998881Y-44798500D01*
X176998873Y-44798500D01*
X176998864Y-44798500D01*
X175553129Y-44798500D01*
X175553123Y-44798501D01*
X175493516Y-44804908D01*
X175358671Y-44855202D01*
X175358664Y-44855206D01*
X175243455Y-44941452D01*
X175243452Y-44941455D01*
X175157206Y-45056664D01*
X175157202Y-45056671D01*
X175106908Y-45191517D01*
X175100501Y-45251116D01*
X175100501Y-45251123D01*
X175100500Y-45251135D01*
X175100500Y-46696870D01*
X171611718Y-46696870D01*
X174119788Y-44188801D01*
X174132042Y-44178986D01*
X174131859Y-44178764D01*
X174137866Y-44173792D01*
X174137877Y-44173786D01*
X174168775Y-44140882D01*
X174185227Y-44123364D01*
X174195671Y-44112918D01*
X174206120Y-44102471D01*
X174210379Y-44096978D01*
X174214152Y-44092561D01*
X174246062Y-44058582D01*
X174255715Y-44041020D01*
X174266389Y-44024770D01*
X174278673Y-44008936D01*
X174297180Y-43966167D01*
X174299749Y-43960924D01*
X174322196Y-43920093D01*
X174322197Y-43920092D01*
X174327177Y-43900691D01*
X174333478Y-43882288D01*
X174341438Y-43863896D01*
X174348730Y-43817849D01*
X174349911Y-43812152D01*
X174361500Y-43767019D01*
X174361500Y-43746983D01*
X174363027Y-43727582D01*
X174366160Y-43707804D01*
X174361775Y-43661415D01*
X174361500Y-43655577D01*
X174361500Y-41362870D01*
X182720500Y-41362870D01*
X182720501Y-41362876D01*
X182726908Y-41422483D01*
X182777202Y-41557328D01*
X182777206Y-41557335D01*
X182863452Y-41672544D01*
X182863455Y-41672547D01*
X182978664Y-41758793D01*
X182978671Y-41758797D01*
X183113517Y-41809091D01*
X183113516Y-41809091D01*
X183120444Y-41809835D01*
X183173127Y-41815500D01*
X184618872Y-41815499D01*
X184678483Y-41809091D01*
X184813331Y-41758796D01*
X184928546Y-41672546D01*
X185014796Y-41557331D01*
X185065091Y-41422483D01*
X185071500Y-41362873D01*
X185071499Y-39917128D01*
X185065091Y-39857517D01*
X185042647Y-39797342D01*
X185014797Y-39722671D01*
X185014793Y-39722664D01*
X184928547Y-39607455D01*
X184928544Y-39607452D01*
X184813335Y-39521206D01*
X184813328Y-39521202D01*
X184678482Y-39470908D01*
X184678483Y-39470908D01*
X184618883Y-39464501D01*
X184618881Y-39464500D01*
X184618873Y-39464500D01*
X184618864Y-39464500D01*
X183173129Y-39464500D01*
X183173123Y-39464501D01*
X183113516Y-39470908D01*
X182978671Y-39521202D01*
X182978664Y-39521206D01*
X182863455Y-39607452D01*
X182863452Y-39607455D01*
X182777206Y-39722664D01*
X182777202Y-39722671D01*
X182726908Y-39857517D01*
X182720501Y-39917116D01*
X182720501Y-39917123D01*
X182720500Y-39917135D01*
X182720500Y-41362870D01*
X174361500Y-41362870D01*
X174361500Y-38704588D01*
X174381185Y-38637549D01*
X174414377Y-38603013D01*
X174462836Y-38569081D01*
X174575139Y-38490447D01*
X174736047Y-38329539D01*
X174866568Y-38143134D01*
X174893618Y-38085124D01*
X174939790Y-38032685D01*
X175006983Y-38013533D01*
X175073865Y-38033748D01*
X175118382Y-38085125D01*
X175145429Y-38143128D01*
X175145432Y-38143134D01*
X175275954Y-38329541D01*
X175436858Y-38490445D01*
X175436861Y-38490447D01*
X175623266Y-38620968D01*
X175829504Y-38717139D01*
X176049308Y-38776035D01*
X176211230Y-38790201D01*
X176275998Y-38795868D01*
X176276000Y-38795868D01*
X176276002Y-38795868D01*
X176332673Y-38790909D01*
X176502692Y-38776035D01*
X176722496Y-38717139D01*
X176928734Y-38620968D01*
X177115139Y-38490447D01*
X177276047Y-38329539D01*
X177406568Y-38143134D01*
X177433895Y-38084529D01*
X177480064Y-38032095D01*
X177547257Y-38012942D01*
X177614139Y-38033157D01*
X177658657Y-38084533D01*
X177685865Y-38142882D01*
X177816342Y-38329220D01*
X177977179Y-38490057D01*
X178163517Y-38620534D01*
X178369673Y-38716665D01*
X178369682Y-38716669D01*
X178565999Y-38769272D01*
X178566000Y-38769271D01*
X178566000Y-37806086D01*
X178577955Y-37818041D01*
X178690852Y-37875565D01*
X178784519Y-37890400D01*
X178847481Y-37890400D01*
X178941148Y-37875565D01*
X179054045Y-37818041D01*
X179066000Y-37806086D01*
X179066000Y-38769272D01*
X179262317Y-38716669D01*
X179262326Y-38716665D01*
X179468482Y-38620534D01*
X179654820Y-38490057D01*
X179815657Y-38329220D01*
X179946132Y-38142884D01*
X179973341Y-38084534D01*
X180019513Y-38032095D01*
X180086707Y-38012942D01*
X180153588Y-38033157D01*
X180198105Y-38084532D01*
X180214083Y-38118797D01*
X180225431Y-38143132D01*
X180225432Y-38143134D01*
X180355954Y-38329541D01*
X180516858Y-38490445D01*
X180516861Y-38490447D01*
X180703266Y-38620968D01*
X180909504Y-38717139D01*
X181129308Y-38776035D01*
X181291230Y-38790201D01*
X181355998Y-38795868D01*
X181356000Y-38795868D01*
X181356002Y-38795868D01*
X181412673Y-38790909D01*
X181582692Y-38776035D01*
X181802496Y-38717139D01*
X182008734Y-38620968D01*
X182195139Y-38490447D01*
X182356047Y-38329539D01*
X182486568Y-38143134D01*
X182513618Y-38085124D01*
X182559790Y-38032685D01*
X182626983Y-38013533D01*
X182693865Y-38033748D01*
X182738382Y-38085125D01*
X182765429Y-38143128D01*
X182765432Y-38143134D01*
X182895954Y-38329541D01*
X183056858Y-38490445D01*
X183056861Y-38490447D01*
X183243266Y-38620968D01*
X183449504Y-38717139D01*
X183669308Y-38776035D01*
X183831230Y-38790201D01*
X183895998Y-38795868D01*
X183896000Y-38795868D01*
X183896002Y-38795868D01*
X183952673Y-38790909D01*
X184122692Y-38776035D01*
X184342496Y-38717139D01*
X184548734Y-38620968D01*
X184735139Y-38490447D01*
X184896047Y-38329539D01*
X185026568Y-38143134D01*
X185053618Y-38085124D01*
X185099790Y-38032685D01*
X185166983Y-38013533D01*
X185233865Y-38033748D01*
X185278382Y-38085125D01*
X185305429Y-38143128D01*
X185305432Y-38143134D01*
X185435954Y-38329541D01*
X185596858Y-38490445D01*
X185596861Y-38490447D01*
X185783266Y-38620968D01*
X185989504Y-38717139D01*
X186209308Y-38776035D01*
X186371230Y-38790201D01*
X186435998Y-38795868D01*
X186436000Y-38795868D01*
X186436002Y-38795868D01*
X186492673Y-38790909D01*
X186662692Y-38776035D01*
X186882496Y-38717139D01*
X187088734Y-38620968D01*
X187275139Y-38490447D01*
X187436047Y-38329539D01*
X187566568Y-38143134D01*
X187593618Y-38085124D01*
X187639790Y-38032685D01*
X187706983Y-38013533D01*
X187773865Y-38033748D01*
X187818382Y-38085125D01*
X187845429Y-38143128D01*
X187845432Y-38143134D01*
X187975954Y-38329541D01*
X188136858Y-38490445D01*
X188136861Y-38490447D01*
X188323266Y-38620968D01*
X188529504Y-38717139D01*
X188749308Y-38776035D01*
X188911230Y-38790201D01*
X188975998Y-38795868D01*
X188976000Y-38795868D01*
X188976002Y-38795868D01*
X189032673Y-38790909D01*
X189202692Y-38776035D01*
X189422496Y-38717139D01*
X189628734Y-38620968D01*
X189815139Y-38490447D01*
X189976047Y-38329539D01*
X190106568Y-38143134D01*
X190133618Y-38085124D01*
X190179790Y-38032685D01*
X190246983Y-38013533D01*
X190313865Y-38033748D01*
X190358382Y-38085125D01*
X190385429Y-38143128D01*
X190385432Y-38143134D01*
X190515954Y-38329541D01*
X190676858Y-38490445D01*
X190676861Y-38490447D01*
X190863266Y-38620968D01*
X191069504Y-38717139D01*
X191289308Y-38776035D01*
X191451230Y-38790201D01*
X191515998Y-38795868D01*
X191516000Y-38795868D01*
X191516002Y-38795868D01*
X191572673Y-38790909D01*
X191742692Y-38776035D01*
X191962496Y-38717139D01*
X192168734Y-38620968D01*
X192355139Y-38490447D01*
X192516047Y-38329539D01*
X192646568Y-38143134D01*
X192673618Y-38085124D01*
X192719790Y-38032685D01*
X192786983Y-38013533D01*
X192853865Y-38033748D01*
X192898382Y-38085125D01*
X192925429Y-38143128D01*
X192925432Y-38143134D01*
X193055954Y-38329541D01*
X193216858Y-38490445D01*
X193216861Y-38490447D01*
X193403266Y-38620968D01*
X193609504Y-38717139D01*
X193829308Y-38776035D01*
X193991230Y-38790201D01*
X194055998Y-38795868D01*
X194056000Y-38795868D01*
X194056002Y-38795868D01*
X194112673Y-38790909D01*
X194282692Y-38776035D01*
X194502496Y-38717139D01*
X194708734Y-38620968D01*
X194895139Y-38490447D01*
X195056047Y-38329539D01*
X195186568Y-38143134D01*
X195213618Y-38085124D01*
X195259790Y-38032685D01*
X195326983Y-38013533D01*
X195393865Y-38033748D01*
X195438382Y-38085125D01*
X195465429Y-38143128D01*
X195465432Y-38143134D01*
X195595954Y-38329541D01*
X195756858Y-38490445D01*
X195756861Y-38490447D01*
X195943266Y-38620968D01*
X196149504Y-38717139D01*
X196369308Y-38776035D01*
X196531230Y-38790201D01*
X196595998Y-38795868D01*
X196596000Y-38795868D01*
X196596002Y-38795868D01*
X196652673Y-38790909D01*
X196822692Y-38776035D01*
X197042496Y-38717139D01*
X197248734Y-38620968D01*
X197435139Y-38490447D01*
X197596047Y-38329539D01*
X197726568Y-38143134D01*
X197753618Y-38085124D01*
X197799790Y-38032685D01*
X197866983Y-38013533D01*
X197933865Y-38033748D01*
X197978382Y-38085125D01*
X198005429Y-38143128D01*
X198005432Y-38143134D01*
X198135954Y-38329541D01*
X198296858Y-38490445D01*
X198296861Y-38490447D01*
X198483266Y-38620968D01*
X198689504Y-38717139D01*
X198909308Y-38776035D01*
X199071230Y-38790201D01*
X199135998Y-38795868D01*
X199136000Y-38795868D01*
X199136002Y-38795868D01*
X199192673Y-38790909D01*
X199362692Y-38776035D01*
X199582496Y-38717139D01*
X199788734Y-38620968D01*
X199975139Y-38490447D01*
X200136047Y-38329539D01*
X200266568Y-38143134D01*
X200293618Y-38085124D01*
X200339790Y-38032685D01*
X200406983Y-38013533D01*
X200473865Y-38033748D01*
X200518382Y-38085125D01*
X200545429Y-38143128D01*
X200545432Y-38143134D01*
X200675954Y-38329541D01*
X200836858Y-38490445D01*
X200836861Y-38490447D01*
X201023266Y-38620968D01*
X201229504Y-38717139D01*
X201449308Y-38776035D01*
X201611230Y-38790201D01*
X201675998Y-38795868D01*
X201676000Y-38795868D01*
X201676002Y-38795868D01*
X201732673Y-38790909D01*
X201902692Y-38776035D01*
X202122496Y-38717139D01*
X202328734Y-38620968D01*
X202515139Y-38490447D01*
X202676047Y-38329539D01*
X202806568Y-38143134D01*
X202833618Y-38085124D01*
X202879790Y-38032685D01*
X202946983Y-38013533D01*
X203013865Y-38033748D01*
X203058382Y-38085125D01*
X203085429Y-38143128D01*
X203085432Y-38143134D01*
X203215954Y-38329541D01*
X203376858Y-38490445D01*
X203376861Y-38490447D01*
X203563266Y-38620968D01*
X203769504Y-38717139D01*
X203989308Y-38776035D01*
X204151230Y-38790201D01*
X204215998Y-38795868D01*
X204216000Y-38795868D01*
X204216002Y-38795868D01*
X204272673Y-38790909D01*
X204442692Y-38776035D01*
X204662496Y-38717139D01*
X204868734Y-38620968D01*
X205055139Y-38490447D01*
X205216047Y-38329539D01*
X205346568Y-38143134D01*
X205373618Y-38085124D01*
X205419790Y-38032685D01*
X205486983Y-38013533D01*
X205553865Y-38033748D01*
X205598382Y-38085125D01*
X205625429Y-38143128D01*
X205625432Y-38143134D01*
X205755954Y-38329541D01*
X205916858Y-38490445D01*
X205916861Y-38490447D01*
X206103266Y-38620968D01*
X206309504Y-38717139D01*
X206529308Y-38776035D01*
X206691230Y-38790201D01*
X206755998Y-38795868D01*
X206756000Y-38795868D01*
X206756002Y-38795868D01*
X206812673Y-38790909D01*
X206982692Y-38776035D01*
X207202496Y-38717139D01*
X207408734Y-38620968D01*
X207595139Y-38490447D01*
X207756047Y-38329539D01*
X207886568Y-38143134D01*
X207913618Y-38085124D01*
X207959790Y-38032685D01*
X208026983Y-38013533D01*
X208093865Y-38033748D01*
X208138382Y-38085125D01*
X208165429Y-38143128D01*
X208165432Y-38143134D01*
X208295954Y-38329541D01*
X208456858Y-38490445D01*
X208456861Y-38490447D01*
X208643266Y-38620968D01*
X208849504Y-38717139D01*
X209069308Y-38776035D01*
X209231230Y-38790201D01*
X209295998Y-38795868D01*
X209296000Y-38795868D01*
X209296002Y-38795868D01*
X209352673Y-38790909D01*
X209522692Y-38776035D01*
X209742496Y-38717139D01*
X209948734Y-38620968D01*
X210135139Y-38490447D01*
X210296047Y-38329539D01*
X210426568Y-38143134D01*
X210453618Y-38085124D01*
X210499790Y-38032685D01*
X210566983Y-38013533D01*
X210633865Y-38033748D01*
X210678382Y-38085125D01*
X210705429Y-38143128D01*
X210705432Y-38143134D01*
X210835954Y-38329541D01*
X210996858Y-38490445D01*
X210996861Y-38490447D01*
X211183266Y-38620968D01*
X211389504Y-38717139D01*
X211609308Y-38776035D01*
X211771230Y-38790201D01*
X211835998Y-38795868D01*
X211836000Y-38795868D01*
X211836002Y-38795868D01*
X211892673Y-38790909D01*
X212062692Y-38776035D01*
X212282496Y-38717139D01*
X212488734Y-38620968D01*
X212675139Y-38490447D01*
X212836047Y-38329539D01*
X212966568Y-38143134D01*
X212993618Y-38085124D01*
X213039790Y-38032685D01*
X213106983Y-38013533D01*
X213173865Y-38033748D01*
X213218382Y-38085125D01*
X213245429Y-38143128D01*
X213245432Y-38143134D01*
X213375954Y-38329541D01*
X213536858Y-38490445D01*
X213536861Y-38490447D01*
X213723266Y-38620968D01*
X213929504Y-38717139D01*
X214149308Y-38776035D01*
X214311230Y-38790201D01*
X214375998Y-38795868D01*
X214376000Y-38795868D01*
X214376002Y-38795868D01*
X214432673Y-38790909D01*
X214602692Y-38776035D01*
X214822496Y-38717139D01*
X215028734Y-38620968D01*
X215215139Y-38490447D01*
X215376047Y-38329539D01*
X215506568Y-38143134D01*
X215533618Y-38085124D01*
X215579790Y-38032685D01*
X215646983Y-38013533D01*
X215713865Y-38033748D01*
X215758382Y-38085125D01*
X215785429Y-38143128D01*
X215785432Y-38143134D01*
X215915954Y-38329541D01*
X216076858Y-38490445D01*
X216076861Y-38490447D01*
X216263266Y-38620968D01*
X216469504Y-38717139D01*
X216689308Y-38776035D01*
X216851230Y-38790201D01*
X216915998Y-38795868D01*
X216916000Y-38795868D01*
X216916002Y-38795868D01*
X216972673Y-38790909D01*
X217142692Y-38776035D01*
X217362496Y-38717139D01*
X217568734Y-38620968D01*
X217755139Y-38490447D01*
X217916047Y-38329539D01*
X218046568Y-38143134D01*
X218073618Y-38085124D01*
X218119790Y-38032685D01*
X218186983Y-38013533D01*
X218253865Y-38033748D01*
X218298382Y-38085125D01*
X218325429Y-38143128D01*
X218325432Y-38143134D01*
X218455954Y-38329541D01*
X218616858Y-38490445D01*
X218616861Y-38490447D01*
X218803266Y-38620968D01*
X219009504Y-38717139D01*
X219229308Y-38776035D01*
X219391230Y-38790201D01*
X219455998Y-38795868D01*
X219456000Y-38795868D01*
X219456002Y-38795868D01*
X219512673Y-38790909D01*
X219682692Y-38776035D01*
X219902496Y-38717139D01*
X220108734Y-38620968D01*
X220295139Y-38490447D01*
X220456047Y-38329539D01*
X220586568Y-38143134D01*
X220613895Y-38084529D01*
X220660064Y-38032095D01*
X220727257Y-38012942D01*
X220794139Y-38033157D01*
X220838657Y-38084533D01*
X220865865Y-38142882D01*
X220996342Y-38329220D01*
X221157179Y-38490057D01*
X221343517Y-38620534D01*
X221549673Y-38716665D01*
X221549682Y-38716669D01*
X221745999Y-38769272D01*
X221746000Y-38769271D01*
X221746000Y-37806086D01*
X221757955Y-37818041D01*
X221870852Y-37875565D01*
X221964519Y-37890400D01*
X222027481Y-37890400D01*
X222121148Y-37875565D01*
X222234045Y-37818041D01*
X222246000Y-37806086D01*
X222246000Y-38769272D01*
X222442317Y-38716669D01*
X222442326Y-38716665D01*
X222648482Y-38620534D01*
X222834820Y-38490057D01*
X222995657Y-38329220D01*
X223126134Y-38142882D01*
X223222265Y-37936726D01*
X223222269Y-37936717D01*
X223274872Y-37740400D01*
X222311686Y-37740400D01*
X222323641Y-37728445D01*
X222381165Y-37615548D01*
X222400986Y-37490400D01*
X222381165Y-37365252D01*
X222323641Y-37252355D01*
X222311686Y-37240400D01*
X223274872Y-37240400D01*
X223274872Y-37240399D01*
X223222269Y-37044082D01*
X223222265Y-37044073D01*
X223126134Y-36837917D01*
X222995657Y-36651579D01*
X222834820Y-36490742D01*
X222648482Y-36360265D01*
X222442328Y-36264134D01*
X222246000Y-36211527D01*
X222246000Y-37174714D01*
X222234045Y-37162759D01*
X222121148Y-37105235D01*
X222027481Y-37090400D01*
X221964519Y-37090400D01*
X221870852Y-37105235D01*
X221757955Y-37162759D01*
X221746000Y-37174714D01*
X221746000Y-36211527D01*
X221549671Y-36264134D01*
X221343517Y-36360265D01*
X221157179Y-36490742D01*
X220996342Y-36651579D01*
X220865867Y-36837915D01*
X220838657Y-36896267D01*
X220792484Y-36948706D01*
X220725290Y-36967857D01*
X220658409Y-36947641D01*
X220613893Y-36896265D01*
X220590765Y-36846668D01*
X220586568Y-36837666D01*
X220456047Y-36651261D01*
X220456045Y-36651258D01*
X220295141Y-36490354D01*
X220108734Y-36359832D01*
X220108732Y-36359831D01*
X219902497Y-36263661D01*
X219902488Y-36263658D01*
X219682697Y-36204766D01*
X219682693Y-36204765D01*
X219682692Y-36204765D01*
X219682691Y-36204764D01*
X219682686Y-36204764D01*
X219456002Y-36184932D01*
X219455998Y-36184932D01*
X219229313Y-36204764D01*
X219229302Y-36204766D01*
X219009511Y-36263658D01*
X219009502Y-36263661D01*
X218803267Y-36359831D01*
X218803265Y-36359832D01*
X218616858Y-36490354D01*
X218455954Y-36651258D01*
X218325432Y-36837665D01*
X218325431Y-36837667D01*
X218298382Y-36895675D01*
X218252209Y-36948114D01*
X218185016Y-36967266D01*
X218118135Y-36947050D01*
X218073618Y-36895675D01*
X218046568Y-36837666D01*
X217916047Y-36651261D01*
X217916045Y-36651258D01*
X217755141Y-36490354D01*
X217568734Y-36359832D01*
X217568732Y-36359831D01*
X217362497Y-36263661D01*
X217362488Y-36263658D01*
X217142697Y-36204766D01*
X217142693Y-36204765D01*
X217142692Y-36204765D01*
X217142691Y-36204764D01*
X217142686Y-36204764D01*
X216916002Y-36184932D01*
X216915998Y-36184932D01*
X216689313Y-36204764D01*
X216689302Y-36204766D01*
X216469511Y-36263658D01*
X216469502Y-36263661D01*
X216263267Y-36359831D01*
X216263265Y-36359832D01*
X216076858Y-36490354D01*
X215915954Y-36651258D01*
X215785432Y-36837665D01*
X215785431Y-36837667D01*
X215758382Y-36895675D01*
X215712209Y-36948114D01*
X215645016Y-36967266D01*
X215578135Y-36947050D01*
X215533618Y-36895675D01*
X215506568Y-36837666D01*
X215376047Y-36651261D01*
X215376045Y-36651258D01*
X215215141Y-36490354D01*
X215028734Y-36359832D01*
X215028732Y-36359831D01*
X214822497Y-36263661D01*
X214822488Y-36263658D01*
X214602697Y-36204766D01*
X214602693Y-36204765D01*
X214602692Y-36204765D01*
X214602691Y-36204764D01*
X214602686Y-36204764D01*
X214376002Y-36184932D01*
X214375998Y-36184932D01*
X214149313Y-36204764D01*
X214149302Y-36204766D01*
X213929511Y-36263658D01*
X213929502Y-36263661D01*
X213723267Y-36359831D01*
X213723265Y-36359832D01*
X213536858Y-36490354D01*
X213375954Y-36651258D01*
X213245432Y-36837665D01*
X213245431Y-36837667D01*
X213218382Y-36895675D01*
X213172209Y-36948114D01*
X213105016Y-36967266D01*
X213038135Y-36947050D01*
X212993618Y-36895675D01*
X212966568Y-36837666D01*
X212836047Y-36651261D01*
X212836045Y-36651258D01*
X212675141Y-36490354D01*
X212488734Y-36359832D01*
X212488732Y-36359831D01*
X212282497Y-36263661D01*
X212282488Y-36263658D01*
X212062697Y-36204766D01*
X212062693Y-36204765D01*
X212062692Y-36204765D01*
X212062691Y-36204764D01*
X212062686Y-36204764D01*
X211836002Y-36184932D01*
X211835998Y-36184932D01*
X211609313Y-36204764D01*
X211609302Y-36204766D01*
X211389511Y-36263658D01*
X211389502Y-36263661D01*
X211183267Y-36359831D01*
X211183265Y-36359832D01*
X210996858Y-36490354D01*
X210835954Y-36651258D01*
X210705432Y-36837665D01*
X210705431Y-36837667D01*
X210678382Y-36895675D01*
X210632209Y-36948114D01*
X210565016Y-36967266D01*
X210498135Y-36947050D01*
X210453618Y-36895675D01*
X210426568Y-36837666D01*
X210296047Y-36651261D01*
X210296045Y-36651258D01*
X210135141Y-36490354D01*
X209948734Y-36359832D01*
X209948732Y-36359831D01*
X209742497Y-36263661D01*
X209742488Y-36263658D01*
X209522697Y-36204766D01*
X209522693Y-36204765D01*
X209522692Y-36204765D01*
X209522691Y-36204764D01*
X209522686Y-36204764D01*
X209296002Y-36184932D01*
X209295998Y-36184932D01*
X209069313Y-36204764D01*
X209069302Y-36204766D01*
X208849511Y-36263658D01*
X208849502Y-36263661D01*
X208643267Y-36359831D01*
X208643265Y-36359832D01*
X208456858Y-36490354D01*
X208295954Y-36651258D01*
X208165432Y-36837665D01*
X208165431Y-36837667D01*
X208138382Y-36895675D01*
X208092209Y-36948114D01*
X208025016Y-36967266D01*
X207958135Y-36947050D01*
X207913618Y-36895675D01*
X207886568Y-36837666D01*
X207756047Y-36651261D01*
X207756045Y-36651258D01*
X207595141Y-36490354D01*
X207408734Y-36359832D01*
X207408732Y-36359831D01*
X207202497Y-36263661D01*
X207202488Y-36263658D01*
X206982697Y-36204766D01*
X206982693Y-36204765D01*
X206982692Y-36204765D01*
X206982691Y-36204764D01*
X206982686Y-36204764D01*
X206756002Y-36184932D01*
X206755998Y-36184932D01*
X206529313Y-36204764D01*
X206529302Y-36204766D01*
X206309511Y-36263658D01*
X206309502Y-36263661D01*
X206103267Y-36359831D01*
X206103265Y-36359832D01*
X205916858Y-36490354D01*
X205755954Y-36651258D01*
X205625432Y-36837665D01*
X205625431Y-36837667D01*
X205598382Y-36895675D01*
X205552209Y-36948114D01*
X205485016Y-36967266D01*
X205418135Y-36947050D01*
X205373618Y-36895675D01*
X205346568Y-36837666D01*
X205216047Y-36651261D01*
X205216045Y-36651258D01*
X205055141Y-36490354D01*
X204868734Y-36359832D01*
X204868732Y-36359831D01*
X204662497Y-36263661D01*
X204662488Y-36263658D01*
X204442697Y-36204766D01*
X204442693Y-36204765D01*
X204442692Y-36204765D01*
X204442691Y-36204764D01*
X204442686Y-36204764D01*
X204216002Y-36184932D01*
X204215998Y-36184932D01*
X203989313Y-36204764D01*
X203989302Y-36204766D01*
X203769511Y-36263658D01*
X203769502Y-36263661D01*
X203563267Y-36359831D01*
X203563265Y-36359832D01*
X203376858Y-36490354D01*
X203215954Y-36651258D01*
X203085432Y-36837665D01*
X203085431Y-36837667D01*
X203058382Y-36895675D01*
X203012209Y-36948114D01*
X202945016Y-36967266D01*
X202878135Y-36947050D01*
X202833618Y-36895675D01*
X202806568Y-36837666D01*
X202676047Y-36651261D01*
X202676045Y-36651258D01*
X202515141Y-36490354D01*
X202328734Y-36359832D01*
X202328732Y-36359831D01*
X202122497Y-36263661D01*
X202122488Y-36263658D01*
X201902697Y-36204766D01*
X201902693Y-36204765D01*
X201902692Y-36204765D01*
X201902691Y-36204764D01*
X201902686Y-36204764D01*
X201676002Y-36184932D01*
X201675998Y-36184932D01*
X201449313Y-36204764D01*
X201449302Y-36204766D01*
X201229511Y-36263658D01*
X201229502Y-36263661D01*
X201023267Y-36359831D01*
X201023265Y-36359832D01*
X200836858Y-36490354D01*
X200675954Y-36651258D01*
X200545432Y-36837665D01*
X200545431Y-36837667D01*
X200518382Y-36895675D01*
X200472209Y-36948114D01*
X200405016Y-36967266D01*
X200338135Y-36947050D01*
X200293618Y-36895675D01*
X200266568Y-36837666D01*
X200136047Y-36651261D01*
X200136045Y-36651258D01*
X199975141Y-36490354D01*
X199788734Y-36359832D01*
X199788732Y-36359831D01*
X199582497Y-36263661D01*
X199582488Y-36263658D01*
X199362697Y-36204766D01*
X199362693Y-36204765D01*
X199362692Y-36204765D01*
X199362691Y-36204764D01*
X199362686Y-36204764D01*
X199136002Y-36184932D01*
X199135998Y-36184932D01*
X198909313Y-36204764D01*
X198909302Y-36204766D01*
X198689511Y-36263658D01*
X198689502Y-36263661D01*
X198483267Y-36359831D01*
X198483265Y-36359832D01*
X198296858Y-36490354D01*
X198135954Y-36651258D01*
X198005432Y-36837665D01*
X198005431Y-36837667D01*
X197978382Y-36895675D01*
X197932209Y-36948114D01*
X197865016Y-36967266D01*
X197798135Y-36947050D01*
X197753618Y-36895675D01*
X197726568Y-36837666D01*
X197596047Y-36651261D01*
X197596045Y-36651258D01*
X197435141Y-36490354D01*
X197248734Y-36359832D01*
X197248732Y-36359831D01*
X197042497Y-36263661D01*
X197042488Y-36263658D01*
X196822697Y-36204766D01*
X196822693Y-36204765D01*
X196822692Y-36204765D01*
X196822691Y-36204764D01*
X196822686Y-36204764D01*
X196596002Y-36184932D01*
X196595998Y-36184932D01*
X196369313Y-36204764D01*
X196369302Y-36204766D01*
X196149511Y-36263658D01*
X196149502Y-36263661D01*
X195943267Y-36359831D01*
X195943265Y-36359832D01*
X195756858Y-36490354D01*
X195595954Y-36651258D01*
X195465432Y-36837665D01*
X195465431Y-36837667D01*
X195438382Y-36895675D01*
X195392209Y-36948114D01*
X195325016Y-36967266D01*
X195258135Y-36947050D01*
X195213618Y-36895675D01*
X195186568Y-36837666D01*
X195056047Y-36651261D01*
X195056045Y-36651258D01*
X194895141Y-36490354D01*
X194708734Y-36359832D01*
X194708732Y-36359831D01*
X194502497Y-36263661D01*
X194502488Y-36263658D01*
X194282697Y-36204766D01*
X194282693Y-36204765D01*
X194282692Y-36204765D01*
X194282691Y-36204764D01*
X194282686Y-36204764D01*
X194056002Y-36184932D01*
X194055998Y-36184932D01*
X193829313Y-36204764D01*
X193829302Y-36204766D01*
X193609511Y-36263658D01*
X193609502Y-36263661D01*
X193403267Y-36359831D01*
X193403265Y-36359832D01*
X193216858Y-36490354D01*
X193055954Y-36651258D01*
X192925432Y-36837665D01*
X192925431Y-36837667D01*
X192898382Y-36895675D01*
X192852209Y-36948114D01*
X192785016Y-36967266D01*
X192718135Y-36947050D01*
X192673618Y-36895675D01*
X192646568Y-36837666D01*
X192516047Y-36651261D01*
X192516045Y-36651258D01*
X192355141Y-36490354D01*
X192168734Y-36359832D01*
X192168732Y-36359831D01*
X191962497Y-36263661D01*
X191962488Y-36263658D01*
X191742697Y-36204766D01*
X191742693Y-36204765D01*
X191742692Y-36204765D01*
X191742691Y-36204764D01*
X191742686Y-36204764D01*
X191516002Y-36184932D01*
X191515998Y-36184932D01*
X191289313Y-36204764D01*
X191289302Y-36204766D01*
X191069511Y-36263658D01*
X191069502Y-36263661D01*
X190863267Y-36359831D01*
X190863265Y-36359832D01*
X190676858Y-36490354D01*
X190515954Y-36651258D01*
X190385432Y-36837665D01*
X190385431Y-36837667D01*
X190358382Y-36895675D01*
X190312209Y-36948114D01*
X190245016Y-36967266D01*
X190178135Y-36947050D01*
X190133618Y-36895675D01*
X190106568Y-36837666D01*
X189976047Y-36651261D01*
X189976045Y-36651258D01*
X189815141Y-36490354D01*
X189628734Y-36359832D01*
X189628732Y-36359831D01*
X189422497Y-36263661D01*
X189422488Y-36263658D01*
X189202697Y-36204766D01*
X189202693Y-36204765D01*
X189202692Y-36204765D01*
X189202691Y-36204764D01*
X189202686Y-36204764D01*
X188976002Y-36184932D01*
X188975998Y-36184932D01*
X188749313Y-36204764D01*
X188749302Y-36204766D01*
X188529511Y-36263658D01*
X188529502Y-36263661D01*
X188323267Y-36359831D01*
X188323265Y-36359832D01*
X188136858Y-36490354D01*
X187975954Y-36651258D01*
X187845432Y-36837665D01*
X187845431Y-36837667D01*
X187818382Y-36895675D01*
X187772209Y-36948114D01*
X187705016Y-36967266D01*
X187638135Y-36947050D01*
X187593618Y-36895675D01*
X187566568Y-36837666D01*
X187436047Y-36651261D01*
X187436045Y-36651258D01*
X187275141Y-36490354D01*
X187088734Y-36359832D01*
X187088732Y-36359831D01*
X186882497Y-36263661D01*
X186882488Y-36263658D01*
X186662697Y-36204766D01*
X186662693Y-36204765D01*
X186662692Y-36204765D01*
X186662691Y-36204764D01*
X186662686Y-36204764D01*
X186436002Y-36184932D01*
X186435998Y-36184932D01*
X186209313Y-36204764D01*
X186209302Y-36204766D01*
X185989511Y-36263658D01*
X185989502Y-36263661D01*
X185783267Y-36359831D01*
X185783265Y-36359832D01*
X185596858Y-36490354D01*
X185435954Y-36651258D01*
X185305432Y-36837665D01*
X185305431Y-36837667D01*
X185278382Y-36895675D01*
X185232209Y-36948114D01*
X185165016Y-36967266D01*
X185098135Y-36947050D01*
X185053618Y-36895675D01*
X185026568Y-36837666D01*
X184896047Y-36651261D01*
X184896045Y-36651258D01*
X184735141Y-36490354D01*
X184548734Y-36359832D01*
X184548732Y-36359831D01*
X184342497Y-36263661D01*
X184342488Y-36263658D01*
X184122697Y-36204766D01*
X184122693Y-36204765D01*
X184122692Y-36204765D01*
X184122691Y-36204764D01*
X184122686Y-36204764D01*
X183896002Y-36184932D01*
X183895998Y-36184932D01*
X183669313Y-36204764D01*
X183669302Y-36204766D01*
X183449511Y-36263658D01*
X183449502Y-36263661D01*
X183243267Y-36359831D01*
X183243265Y-36359832D01*
X183056858Y-36490354D01*
X182895954Y-36651258D01*
X182765432Y-36837665D01*
X182765431Y-36837667D01*
X182738382Y-36895675D01*
X182692209Y-36948114D01*
X182625016Y-36967266D01*
X182558135Y-36947050D01*
X182513618Y-36895675D01*
X182486568Y-36837666D01*
X182356047Y-36651261D01*
X182356045Y-36651258D01*
X182195141Y-36490354D01*
X182008734Y-36359832D01*
X182008732Y-36359831D01*
X181802497Y-36263661D01*
X181802488Y-36263658D01*
X181582697Y-36204766D01*
X181582693Y-36204765D01*
X181582692Y-36204765D01*
X181582691Y-36204764D01*
X181582686Y-36204764D01*
X181356002Y-36184932D01*
X181355998Y-36184932D01*
X181129313Y-36204764D01*
X181129302Y-36204766D01*
X180909511Y-36263658D01*
X180909502Y-36263661D01*
X180703267Y-36359831D01*
X180703265Y-36359832D01*
X180516858Y-36490354D01*
X180355954Y-36651258D01*
X180225433Y-36837664D01*
X180225432Y-36837666D01*
X180225315Y-36837918D01*
X180198106Y-36896267D01*
X180151933Y-36948706D01*
X180084739Y-36967857D01*
X180017858Y-36947641D01*
X179973342Y-36896265D01*
X179946135Y-36837920D01*
X179946134Y-36837918D01*
X179815657Y-36651579D01*
X179654820Y-36490742D01*
X179468482Y-36360265D01*
X179262328Y-36264134D01*
X179066000Y-36211527D01*
X179066000Y-37174714D01*
X179054045Y-37162759D01*
X178941148Y-37105235D01*
X178847481Y-37090400D01*
X178784519Y-37090400D01*
X178690852Y-37105235D01*
X178577955Y-37162759D01*
X178566000Y-37174714D01*
X178566000Y-36211527D01*
X178369671Y-36264134D01*
X178163517Y-36360265D01*
X177977179Y-36490742D01*
X177816342Y-36651579D01*
X177685867Y-36837915D01*
X177658657Y-36896267D01*
X177612484Y-36948706D01*
X177545290Y-36967857D01*
X177478409Y-36947641D01*
X177433893Y-36896265D01*
X177410765Y-36846668D01*
X177406568Y-36837666D01*
X177276047Y-36651261D01*
X177276045Y-36651258D01*
X177115141Y-36490354D01*
X176928734Y-36359832D01*
X176928732Y-36359831D01*
X176722497Y-36263661D01*
X176722488Y-36263658D01*
X176502697Y-36204766D01*
X176502693Y-36204765D01*
X176502692Y-36204765D01*
X176502691Y-36204764D01*
X176502686Y-36204764D01*
X176276002Y-36184932D01*
X176275998Y-36184932D01*
X176049313Y-36204764D01*
X176049302Y-36204766D01*
X175829511Y-36263658D01*
X175829502Y-36263661D01*
X175623267Y-36359831D01*
X175623265Y-36359832D01*
X175436858Y-36490354D01*
X175275954Y-36651258D01*
X175145432Y-36837665D01*
X175145431Y-36837667D01*
X175118382Y-36895675D01*
X175072209Y-36948114D01*
X175005016Y-36967266D01*
X174938135Y-36947050D01*
X174893618Y-36895675D01*
X174866568Y-36837666D01*
X174736047Y-36651261D01*
X174736045Y-36651258D01*
X174575141Y-36490354D01*
X174388734Y-36359832D01*
X174388732Y-36359831D01*
X174182497Y-36263661D01*
X174182488Y-36263658D01*
X173962697Y-36204766D01*
X173962693Y-36204765D01*
X173962692Y-36204765D01*
X173962691Y-36204764D01*
X173962686Y-36204764D01*
X173736002Y-36184932D01*
X173735998Y-36184932D01*
X173509313Y-36204764D01*
X173509302Y-36204766D01*
X173289511Y-36263658D01*
X173289502Y-36263661D01*
X173083267Y-36359831D01*
X173083265Y-36359832D01*
X172896858Y-36490354D01*
X172735954Y-36651258D01*
X172605432Y-36837665D01*
X172605431Y-36837667D01*
X172509261Y-37043902D01*
X172509258Y-37043911D01*
X172450366Y-37263702D01*
X172450364Y-37263713D01*
X172430532Y-37490398D01*
X172430532Y-37490401D01*
X172450364Y-37717086D01*
X172450366Y-37717097D01*
X172509258Y-37936888D01*
X172509261Y-37936897D01*
X172605431Y-38143132D01*
X172605432Y-38143134D01*
X172735954Y-38329541D01*
X172896858Y-38490445D01*
X173057623Y-38603013D01*
X173101248Y-38657589D01*
X173110500Y-38704588D01*
X173110500Y-43377547D01*
X173090815Y-43444586D01*
X173074181Y-43465228D01*
X171600625Y-44938783D01*
X171539302Y-44972268D01*
X171469610Y-44967284D01*
X171420794Y-44934074D01*
X171377113Y-44885562D01*
X171293871Y-44793112D01*
X171293870Y-44793111D01*
X171140734Y-44681851D01*
X171140729Y-44681848D01*
X170967807Y-44604857D01*
X170967802Y-44604855D01*
X170822001Y-44573865D01*
X170782646Y-44565500D01*
X170593354Y-44565500D01*
X170560897Y-44572398D01*
X170408197Y-44604855D01*
X170408192Y-44604857D01*
X170260133Y-44670779D01*
X170209697Y-44681500D01*
X167183600Y-44681500D01*
X167116561Y-44661815D01*
X167070806Y-44609011D01*
X167059600Y-44557500D01*
X167059600Y-44192000D01*
X166143286Y-44192000D01*
X166169093Y-44151844D01*
X166209600Y-44013889D01*
X166209600Y-43870111D01*
X166169093Y-43732156D01*
X166143286Y-43692000D01*
X167059600Y-43692000D01*
X167059600Y-43044172D01*
X167059599Y-43044155D01*
X167053198Y-42984627D01*
X167053196Y-42984620D01*
X167002954Y-42849913D01*
X167002950Y-42849906D01*
X166916790Y-42734812D01*
X166916787Y-42734809D01*
X166801693Y-42648649D01*
X166801686Y-42648645D01*
X166666979Y-42598403D01*
X166666972Y-42598401D01*
X166607444Y-42592000D01*
X165959600Y-42592000D01*
X165959600Y-43506498D01*
X165851915Y-43457320D01*
X165745363Y-43442000D01*
X165673837Y-43442000D01*
X165567285Y-43457320D01*
X165459600Y-43506498D01*
X165459600Y-42592000D01*
X164811755Y-42592000D01*
X164752227Y-42598401D01*
X164752220Y-42598403D01*
X164617513Y-42648645D01*
X164617506Y-42648649D01*
X164502412Y-42734809D01*
X164502409Y-42734812D01*
X164416249Y-42849906D01*
X164416245Y-42849913D01*
X164366003Y-42984620D01*
X164366001Y-42984627D01*
X164359600Y-43044155D01*
X164359600Y-43692000D01*
X165275914Y-43692000D01*
X165250107Y-43732156D01*
X165209600Y-43870111D01*
X165209600Y-44013889D01*
X165250107Y-44151844D01*
X165275914Y-44192000D01*
X164359600Y-44192000D01*
X164359600Y-44557500D01*
X164339915Y-44624539D01*
X164287111Y-44670294D01*
X164235600Y-44681500D01*
X163526000Y-44681500D01*
X163458961Y-44661815D01*
X163413206Y-44609011D01*
X163402000Y-44557500D01*
X163402000Y-44192000D01*
X162485686Y-44192000D01*
X162511493Y-44151844D01*
X162552000Y-44013889D01*
X162552000Y-43870111D01*
X162511493Y-43732156D01*
X162485686Y-43692000D01*
X163402000Y-43692000D01*
X163402000Y-43044172D01*
X163401999Y-43044155D01*
X163395598Y-42984627D01*
X163395596Y-42984620D01*
X163345354Y-42849913D01*
X163345350Y-42849906D01*
X163259190Y-42734812D01*
X163259187Y-42734809D01*
X163144093Y-42648649D01*
X163144086Y-42648645D01*
X163009379Y-42598403D01*
X163009372Y-42598401D01*
X162949844Y-42592000D01*
X162325952Y-42592000D01*
X162258913Y-42572315D01*
X162213158Y-42519511D01*
X162203214Y-42450353D01*
X162232239Y-42386797D01*
X162238271Y-42380319D01*
X162765771Y-41852818D01*
X162827094Y-41819333D01*
X162853452Y-41816499D01*
X163743002Y-41816499D01*
X163743008Y-41816499D01*
X163752798Y-41815499D01*
X163760895Y-41814671D01*
X163845797Y-41805999D01*
X164012334Y-41750814D01*
X164145907Y-41668425D01*
X164213295Y-41649987D01*
X164276092Y-41668425D01*
X164409666Y-41750814D01*
X164576203Y-41805999D01*
X164678991Y-41816500D01*
X166029008Y-41816499D01*
X166038798Y-41815499D01*
X166046895Y-41814671D01*
X166131797Y-41805999D01*
X166298334Y-41750814D01*
X166447656Y-41658712D01*
X166571712Y-41534656D01*
X166663814Y-41385334D01*
X166718999Y-41218797D01*
X166729500Y-41116009D01*
X166729499Y-40215992D01*
X166718999Y-40113203D01*
X166663814Y-39946666D01*
X166571712Y-39797344D01*
X166447656Y-39673288D01*
X166340923Y-39607455D01*
X166298336Y-39581187D01*
X166298331Y-39581185D01*
X166296862Y-39580698D01*
X166131797Y-39526001D01*
X166131795Y-39526000D01*
X166029016Y-39515500D01*
X166029009Y-39515500D01*
X165139453Y-39515500D01*
X165072414Y-39495815D01*
X165051772Y-39479181D01*
X164558803Y-38986212D01*
X164548980Y-38973950D01*
X164548759Y-38974134D01*
X164543786Y-38968123D01*
X164493364Y-38920773D01*
X164491189Y-38918598D01*
X164457704Y-38857275D01*
X164462688Y-38787583D01*
X164504560Y-38731650D01*
X164570024Y-38707233D01*
X164591472Y-38707558D01*
X164678991Y-38716500D01*
X166029008Y-38716499D01*
X166131797Y-38705999D01*
X166298334Y-38650814D01*
X166447656Y-38558712D01*
X166571712Y-38434656D01*
X166663814Y-38285334D01*
X166718999Y-38118797D01*
X166729500Y-38016009D01*
X166729499Y-37115992D01*
X166728519Y-37106403D01*
X166718999Y-37013203D01*
X166718998Y-37013200D01*
X166697627Y-36948706D01*
X166663814Y-36846666D01*
X166571712Y-36697344D01*
X166447656Y-36573288D01*
X166298334Y-36481186D01*
X166131797Y-36426001D01*
X166131795Y-36426000D01*
X166029010Y-36415500D01*
X164678998Y-36415500D01*
X164678981Y-36415501D01*
X164576203Y-36426000D01*
X164576200Y-36426001D01*
X164409668Y-36481185D01*
X164409659Y-36481189D01*
X164276096Y-36563572D01*
X164208704Y-36582012D01*
X164145904Y-36563572D01*
X164012340Y-36481189D01*
X164012335Y-36481187D01*
X164012334Y-36481186D01*
X163845797Y-36426001D01*
X163845795Y-36426000D01*
X163743010Y-36415500D01*
X162392998Y-36415500D01*
X162392981Y-36415501D01*
X162290203Y-36426000D01*
X162290200Y-36426001D01*
X162123668Y-36481185D01*
X162123663Y-36481187D01*
X161974342Y-36573289D01*
X161850289Y-36697342D01*
X161758187Y-36846663D01*
X161758185Y-36846668D01*
X161703000Y-37013207D01*
X161702999Y-37013208D01*
X161702884Y-37014340D01*
X161702617Y-37014992D01*
X161701582Y-37019829D01*
X161700719Y-37019644D01*
X161676483Y-37079030D01*
X161652422Y-37102039D01*
X161646415Y-37106403D01*
X161646411Y-37106407D01*
X161616710Y-37142309D01*
X161612777Y-37146631D01*
X159712181Y-39047227D01*
X159650858Y-39080712D01*
X159581166Y-39075728D01*
X159525233Y-39033856D01*
X159500816Y-38968392D01*
X159500500Y-38959546D01*
X159500500Y-34624500D01*
X159520185Y-34557461D01*
X159572989Y-34511706D01*
X159624500Y-34500500D01*
X230875500Y-34500500D01*
X230942539Y-34520185D01*
G37*
%TD.AperFunction*%
%TD*%
M02*
