%TF.GenerationSoftware,KiCad,Pcbnew,7.0.10-7.0.10~ubuntu20.04.1*%
%TF.CreationDate,2024-01-16T10:42:34+01:00*%
%TF.ProjectId,Unicomp_LCD_Board,556e6963-6f6d-4705-9f4c-43445f426f61,rev?*%
%TF.SameCoordinates,Original*%
%TF.FileFunction,Paste,Bot*%
%TF.FilePolarity,Positive*%
%FSLAX46Y46*%
G04 Gerber Fmt 4.6, Leading zero omitted, Abs format (unit mm)*
G04 Created by KiCad (PCBNEW 7.0.10-7.0.10~ubuntu20.04.1) date 2024-01-16 10:42:34*
%MOMM*%
%LPD*%
G01*
G04 APERTURE LIST*
G04 Aperture macros list*
%AMRoundRect*
0 Rectangle with rounded corners*
0 $1 Rounding radius*
0 $2 $3 $4 $5 $6 $7 $8 $9 X,Y pos of 4 corners*
0 Add a 4 corners polygon primitive as box body*
4,1,4,$2,$3,$4,$5,$6,$7,$8,$9,$2,$3,0*
0 Add four circle primitives for the rounded corners*
1,1,$1+$1,$2,$3*
1,1,$1+$1,$4,$5*
1,1,$1+$1,$6,$7*
1,1,$1+$1,$8,$9*
0 Add four rect primitives between the rounded corners*
20,1,$1+$1,$2,$3,$4,$5,0*
20,1,$1+$1,$4,$5,$6,$7,0*
20,1,$1+$1,$6,$7,$8,$9,0*
20,1,$1+$1,$8,$9,$2,$3,0*%
G04 Aperture macros list end*
%ADD10RoundRect,0.250000X-0.400000X-0.625000X0.400000X-0.625000X0.400000X0.625000X-0.400000X0.625000X0*%
%ADD11RoundRect,0.250000X-0.650000X0.412500X-0.650000X-0.412500X0.650000X-0.412500X0.650000X0.412500X0*%
%ADD12RoundRect,0.250000X-0.625000X0.400000X-0.625000X-0.400000X0.625000X-0.400000X0.625000X0.400000X0*%
%ADD13RoundRect,0.250000X0.400000X0.625000X-0.400000X0.625000X-0.400000X-0.625000X0.400000X-0.625000X0*%
%ADD14RoundRect,0.250000X0.625000X-0.400000X0.625000X0.400000X-0.625000X0.400000X-0.625000X-0.400000X0*%
%ADD15RoundRect,0.250001X0.462499X0.624999X-0.462499X0.624999X-0.462499X-0.624999X0.462499X-0.624999X0*%
%ADD16RoundRect,0.250000X0.650000X-0.412500X0.650000X0.412500X-0.650000X0.412500X-0.650000X-0.412500X0*%
%ADD17RoundRect,0.250000X-0.412500X-0.650000X0.412500X-0.650000X0.412500X0.650000X-0.412500X0.650000X0*%
G04 APERTURE END LIST*
D10*
%TO.C,R17*%
X126948000Y-55626000D03*
X130048000Y-55626000D03*
%TD*%
D11*
%TO.C,C1*%
X87376000Y-89369500D03*
X87376000Y-92494500D03*
%TD*%
D12*
%TO.C,R8*%
X151130000Y-27634000D03*
X151130000Y-30734000D03*
%TD*%
%TO.C,R15*%
X135128000Y-27617404D03*
X135128000Y-30717404D03*
%TD*%
D13*
%TO.C,R4*%
X132640000Y-62992000D03*
X129540000Y-62992000D03*
%TD*%
D12*
%TO.C,R16*%
X132842000Y-27617404D03*
X132842000Y-30717404D03*
%TD*%
D13*
%TO.C,R6*%
X142240000Y-48260000D03*
X139140000Y-48260000D03*
%TD*%
D12*
%TO.C,R9*%
X148844000Y-27634000D03*
X148844000Y-30734000D03*
%TD*%
%TO.C,R13*%
X137414000Y-27634000D03*
X137414000Y-30734000D03*
%TD*%
D13*
%TO.C,R7*%
X133402000Y-48246000D03*
X130302000Y-48246000D03*
%TD*%
%TO.C,R5*%
X133376000Y-50800000D03*
X130276000Y-50800000D03*
%TD*%
D12*
%TO.C,R10*%
X146558000Y-27634000D03*
X146558000Y-30734000D03*
%TD*%
D14*
%TO.C,R3*%
X79502000Y-88444000D03*
X79502000Y-85344000D03*
%TD*%
D15*
%TO.C,D4*%
X131572000Y-40132000D03*
X128597000Y-40132000D03*
%TD*%
%TO.C,D5*%
X147247000Y-48260000D03*
X144272000Y-48260000D03*
%TD*%
D12*
%TO.C,R12*%
X139700000Y-27634000D03*
X139700000Y-30734000D03*
%TD*%
%TO.C,R11*%
X144272000Y-27634000D03*
X144272000Y-30734000D03*
%TD*%
D16*
%TO.C,C2*%
X87376000Y-101384500D03*
X87376000Y-98259500D03*
%TD*%
D10*
%TO.C,R2*%
X126948000Y-53340000D03*
X130048000Y-53340000D03*
%TD*%
D12*
%TO.C,R14*%
X141986000Y-27634000D03*
X141986000Y-30734000D03*
%TD*%
D17*
%TO.C,C3*%
X81495500Y-102870000D03*
X84620500Y-102870000D03*
%TD*%
D10*
%TO.C,R18*%
X125205384Y-42591859D03*
X128305384Y-42591859D03*
%TD*%
M02*
