%TF.GenerationSoftware,KiCad,Pcbnew,7.0.10-7.0.10~ubuntu20.04.1*%
%TF.CreationDate,2024-01-09T21:32:10+01:00*%
%TF.ProjectId,Unicomp_LCD_Board,556e6963-6f6d-4705-9f4c-43445f426f61,rev?*%
%TF.SameCoordinates,Original*%
%TF.FileFunction,Soldermask,Bot*%
%TF.FilePolarity,Negative*%
%FSLAX46Y46*%
G04 Gerber Fmt 4.6, Leading zero omitted, Abs format (unit mm)*
G04 Created by KiCad (PCBNEW 7.0.10-7.0.10~ubuntu20.04.1) date 2024-01-09 21:32:10*
%MOMM*%
%LPD*%
G01*
G04 APERTURE LIST*
G04 Aperture macros list*
%AMRoundRect*
0 Rectangle with rounded corners*
0 $1 Rounding radius*
0 $2 $3 $4 $5 $6 $7 $8 $9 X,Y pos of 4 corners*
0 Add a 4 corners polygon primitive as box body*
4,1,4,$2,$3,$4,$5,$6,$7,$8,$9,$2,$3,0*
0 Add four circle primitives for the rounded corners*
1,1,$1+$1,$2,$3*
1,1,$1+$1,$4,$5*
1,1,$1+$1,$6,$7*
1,1,$1+$1,$8,$9*
0 Add four rect primitives between the rounded corners*
20,1,$1+$1,$2,$3,$4,$5,0*
20,1,$1+$1,$4,$5,$6,$7,0*
20,1,$1+$1,$6,$7,$8,$9,0*
20,1,$1+$1,$8,$9,$2,$3,0*%
G04 Aperture macros list end*
%ADD10R,1.700000X1.700000*%
%ADD11O,1.700000X1.700000*%
%ADD12R,1.350000X1.350000*%
%ADD13C,1.600000*%
%ADD14O,1.600000X1.600000*%
%ADD15R,1.600000X2.400000*%
%ADD16O,1.600000X2.400000*%
%ADD17R,1.800000X1.800000*%
%ADD18C,1.800000*%
%ADD19R,3.000000X1.500000*%
%ADD20O,3.000000X1.500000*%
%ADD21C,3.000000*%
%ADD22C,1.500000*%
%ADD23C,2.000000*%
%ADD24R,1.050000X1.500000*%
%ADD25O,1.050000X1.500000*%
%ADD26O,1.800000X1.800000*%
%ADD27RoundRect,0.250000X-0.400000X-0.625000X0.400000X-0.625000X0.400000X0.625000X-0.400000X0.625000X0*%
%ADD28RoundRect,0.250000X-0.650000X0.412500X-0.650000X-0.412500X0.650000X-0.412500X0.650000X0.412500X0*%
%ADD29RoundRect,0.250000X-0.625000X0.400000X-0.625000X-0.400000X0.625000X-0.400000X0.625000X0.400000X0*%
%ADD30RoundRect,0.250000X0.400000X0.625000X-0.400000X0.625000X-0.400000X-0.625000X0.400000X-0.625000X0*%
%ADD31RoundRect,0.250000X0.625000X-0.400000X0.625000X0.400000X-0.625000X0.400000X-0.625000X-0.400000X0*%
%ADD32RoundRect,0.250001X0.462499X0.624999X-0.462499X0.624999X-0.462499X-0.624999X0.462499X-0.624999X0*%
%ADD33RoundRect,0.250000X0.650000X-0.412500X0.650000X0.412500X-0.650000X0.412500X-0.650000X-0.412500X0*%
%ADD34RoundRect,0.250000X-0.412500X-0.650000X0.412500X-0.650000X0.412500X0.650000X-0.412500X0.650000X0*%
G04 APERTURE END LIST*
D10*
%TO.C,U7*%
X79756000Y-72644000D03*
D11*
X82296000Y-72644000D03*
X84836000Y-72644000D03*
X87376000Y-72644000D03*
X89916000Y-72644000D03*
X92456000Y-72644000D03*
X94996000Y-72644000D03*
X97536000Y-72644000D03*
X100076000Y-72644000D03*
X102616000Y-72644000D03*
X105156000Y-72644000D03*
X107696000Y-72644000D03*
X110236000Y-72644000D03*
X112776000Y-72644000D03*
X115316000Y-72644000D03*
X117856000Y-72644000D03*
%TD*%
D12*
%TO.C,J9*%
X132588000Y-73660000D03*
%TD*%
%TO.C,J30*%
X132588000Y-24384000D03*
%TD*%
%TO.C,J2*%
X142240000Y-92456000D03*
%TD*%
%TO.C,J14*%
X138176000Y-96520000D03*
%TD*%
%TO.C,J12*%
X149860000Y-73660000D03*
%TD*%
%TO.C,J16*%
X132080000Y-94742000D03*
%TD*%
%TO.C,J28*%
X136144000Y-48260000D03*
%TD*%
D13*
%TO.C,R1*%
X147066000Y-88900000D03*
D14*
X136906000Y-88900000D03*
%TD*%
D12*
%TO.C,J23*%
X139446000Y-73660000D03*
%TD*%
%TO.C,J31*%
X135636000Y-24384000D03*
%TD*%
D10*
%TO.C,J1*%
X150600000Y-100000000D03*
D11*
X150600000Y-102540000D03*
X148060000Y-100000000D03*
X148060000Y-102540000D03*
X145520000Y-100000000D03*
X145520000Y-102540000D03*
X142980000Y-100000000D03*
X142980000Y-102540000D03*
X140440000Y-100000000D03*
X140440000Y-102540000D03*
X137900000Y-100000000D03*
X137900000Y-102540000D03*
X135360000Y-100000000D03*
X135360000Y-102540000D03*
X132820000Y-100000000D03*
X132820000Y-102540000D03*
X130280000Y-100000000D03*
X130280000Y-102540000D03*
X127740000Y-100000000D03*
X127740000Y-102540000D03*
X125200000Y-100000000D03*
X125200000Y-102540000D03*
X122660000Y-100000000D03*
X122660000Y-102540000D03*
X120120000Y-100000000D03*
X120120000Y-102540000D03*
X117580000Y-100000000D03*
X117580000Y-102540000D03*
X115040000Y-100000000D03*
X115040000Y-102540000D03*
X112500000Y-100000000D03*
X112500000Y-102540000D03*
X109960000Y-100000000D03*
X109960000Y-102540000D03*
X107420000Y-100000000D03*
X107420000Y-102540000D03*
X104880000Y-100000000D03*
X104880000Y-102540000D03*
X102340000Y-100000000D03*
X102340000Y-102540000D03*
%TD*%
D12*
%TO.C,J7*%
X145796000Y-54356000D03*
%TD*%
%TO.C,J3*%
X126746000Y-92964000D03*
%TD*%
D15*
%TO.C,U3*%
X116840000Y-85090000D03*
D16*
X119380000Y-85090000D03*
X121920000Y-85090000D03*
X124460000Y-85090000D03*
X127000000Y-85090000D03*
X129540000Y-85090000D03*
X132080000Y-85090000D03*
X132080000Y-77470000D03*
X129540000Y-77470000D03*
X127000000Y-77470000D03*
X124460000Y-77470000D03*
X121920000Y-77470000D03*
X119380000Y-77470000D03*
X116840000Y-77470000D03*
%TD*%
D15*
%TO.C,U2*%
X137155000Y-85080000D03*
D16*
X139695000Y-85080000D03*
X142235000Y-85080000D03*
X144775000Y-85080000D03*
X147315000Y-85080000D03*
X149855000Y-85080000D03*
X152395000Y-85080000D03*
X152395000Y-77460000D03*
X149855000Y-77460000D03*
X147315000Y-77460000D03*
X144775000Y-77460000D03*
X142235000Y-77460000D03*
X139695000Y-77460000D03*
X137155000Y-77460000D03*
%TD*%
D12*
%TO.C,J25*%
X123444000Y-73660000D03*
%TD*%
%TO.C,J21*%
X142748000Y-54356000D03*
%TD*%
D17*
%TO.C,D2*%
X131064000Y-57912000D03*
D18*
X131064000Y-60452000D03*
%TD*%
D19*
%TO.C,U4*%
X91072250Y-89775750D03*
D20*
X91072250Y-92315750D03*
X91072250Y-97395750D03*
X91072250Y-99935750D03*
X91072250Y-102475750D03*
%TD*%
D12*
%TO.C,J24*%
X135890000Y-68580000D03*
%TD*%
%TO.C,J33*%
X122682000Y-40386000D03*
%TD*%
%TO.C,J29*%
X122682000Y-94234000D03*
%TD*%
%TO.C,J6*%
X104902000Y-95504000D03*
%TD*%
%TO.C,J18*%
X146304000Y-68580000D03*
%TD*%
%TO.C,J13*%
X129540000Y-73660000D03*
%TD*%
%TO.C,J27*%
X146050000Y-33782000D03*
%TD*%
D17*
%TO.C,D3*%
X138684000Y-53594000D03*
D18*
X136144000Y-53594000D03*
%TD*%
D12*
%TO.C,J20*%
X141224000Y-68580000D03*
%TD*%
D15*
%TO.C,U5*%
X136144000Y-65278000D03*
D16*
X138684000Y-65278000D03*
X141224000Y-65278000D03*
X143764000Y-65278000D03*
X146304000Y-65278000D03*
X148844000Y-65278000D03*
X151384000Y-65278000D03*
X151384000Y-57658000D03*
X148844000Y-57658000D03*
X146304000Y-57658000D03*
X143764000Y-57658000D03*
X141224000Y-57658000D03*
X138684000Y-57658000D03*
X136144000Y-57658000D03*
%TD*%
D21*
%TO.C,RV2*%
X74676000Y-92964000D03*
D22*
X76576000Y-99964000D03*
D21*
X83476000Y-92964000D03*
D22*
X79076000Y-99964000D03*
X81576000Y-99964000D03*
%TD*%
D12*
%TO.C,J17*%
X135128000Y-94742000D03*
%TD*%
D10*
%TO.C,U1*%
X79756000Y-34036000D03*
D11*
X82296000Y-34036000D03*
X84836000Y-34036000D03*
X87376000Y-34036000D03*
X89916000Y-34036000D03*
X92456000Y-34036000D03*
X94996000Y-34036000D03*
X97536000Y-34036000D03*
X100076000Y-34036000D03*
X102616000Y-34036000D03*
X105156000Y-34036000D03*
X107696000Y-34036000D03*
X110236000Y-34036000D03*
X112776000Y-34036000D03*
X115316000Y-34036000D03*
X117856000Y-34036000D03*
%TD*%
D15*
%TO.C,U6*%
X133350000Y-44704000D03*
D16*
X135890000Y-44704000D03*
X138430000Y-44704000D03*
X140970000Y-44704000D03*
X143510000Y-44704000D03*
X146050000Y-44704000D03*
X148590000Y-44704000D03*
X151130000Y-44704000D03*
X151130000Y-37084000D03*
X148590000Y-37084000D03*
X146050000Y-37084000D03*
X143510000Y-37084000D03*
X140970000Y-37084000D03*
X138430000Y-37084000D03*
X135890000Y-37084000D03*
X133350000Y-37084000D03*
%TD*%
D12*
%TO.C,J4*%
X119380000Y-90170000D03*
%TD*%
D23*
%TO.C,SW1*%
X123496000Y-28230000D03*
X129996000Y-28230000D03*
X123496000Y-32730000D03*
X129996000Y-32730000D03*
%TD*%
D12*
%TO.C,J26*%
X149098000Y-33782000D03*
%TD*%
D24*
%TO.C,Q1*%
X125222000Y-47244000D03*
D25*
X126492000Y-47244000D03*
X127762000Y-47244000D03*
%TD*%
D12*
%TO.C,J19*%
X126492000Y-73660000D03*
%TD*%
D17*
%TO.C,D1*%
X122682000Y-89662000D03*
D26*
X132842000Y-89662000D03*
%TD*%
D12*
%TO.C,J5*%
X116332000Y-90170000D03*
%TD*%
%TO.C,J10*%
X114046000Y-59944000D03*
%TD*%
%TO.C,J22*%
X152908000Y-73660000D03*
%TD*%
%TO.C,J15*%
X142494000Y-73660000D03*
%TD*%
%TO.C,J11*%
X141732000Y-96520000D03*
%TD*%
D10*
%TO.C,J32*%
X154432000Y-24384000D03*
D11*
X151892000Y-24384000D03*
X149352000Y-24384000D03*
X146812000Y-24384000D03*
X144272000Y-24384000D03*
X141732000Y-24384000D03*
X139192000Y-24384000D03*
%TD*%
D12*
%TO.C,J8*%
X148844000Y-54356000D03*
%TD*%
D27*
%TO.C,R17*%
X126948000Y-55626000D03*
X130048000Y-55626000D03*
%TD*%
D28*
%TO.C,C1*%
X87376000Y-89369500D03*
X87376000Y-92494500D03*
%TD*%
D29*
%TO.C,R8*%
X151130000Y-27634000D03*
X151130000Y-30734000D03*
%TD*%
%TO.C,R15*%
X135128000Y-27617404D03*
X135128000Y-30717404D03*
%TD*%
D30*
%TO.C,R4*%
X132640000Y-62992000D03*
X129540000Y-62992000D03*
%TD*%
D29*
%TO.C,R16*%
X132842000Y-27617404D03*
X132842000Y-30717404D03*
%TD*%
D30*
%TO.C,R6*%
X142240000Y-48260000D03*
X139140000Y-48260000D03*
%TD*%
D29*
%TO.C,R9*%
X148844000Y-27634000D03*
X148844000Y-30734000D03*
%TD*%
%TO.C,R13*%
X137414000Y-27634000D03*
X137414000Y-30734000D03*
%TD*%
D30*
%TO.C,R7*%
X133402000Y-48246000D03*
X130302000Y-48246000D03*
%TD*%
%TO.C,R5*%
X133376000Y-50800000D03*
X130276000Y-50800000D03*
%TD*%
D29*
%TO.C,R10*%
X146558000Y-27634000D03*
X146558000Y-30734000D03*
%TD*%
D31*
%TO.C,R3*%
X79502000Y-88444000D03*
X79502000Y-85344000D03*
%TD*%
D32*
%TO.C,D4*%
X131572000Y-40132000D03*
X128597000Y-40132000D03*
%TD*%
%TO.C,D5*%
X147247000Y-48260000D03*
X144272000Y-48260000D03*
%TD*%
D29*
%TO.C,R12*%
X139700000Y-27634000D03*
X139700000Y-30734000D03*
%TD*%
%TO.C,R11*%
X144272000Y-27634000D03*
X144272000Y-30734000D03*
%TD*%
D33*
%TO.C,C2*%
X87376000Y-101384500D03*
X87376000Y-98259500D03*
%TD*%
D27*
%TO.C,R2*%
X126948000Y-53340000D03*
X130048000Y-53340000D03*
%TD*%
D29*
%TO.C,R14*%
X141986000Y-27634000D03*
X141986000Y-30734000D03*
%TD*%
D34*
%TO.C,C3*%
X81495500Y-102870000D03*
X84620500Y-102870000D03*
%TD*%
D27*
%TO.C,R18*%
X125205384Y-42591859D03*
X128305384Y-42591859D03*
%TD*%
M02*
