%TF.GenerationSoftware,KiCad,Pcbnew,7.0.9-7.0.9~ubuntu20.04.1*%
%TF.CreationDate,2023-12-26T20:59:22+01:00*%
%TF.ProjectId,6303_FP,36333033-5f46-4502-9e6b-696361645f70,rev?*%
%TF.SameCoordinates,Original*%
%TF.FileFunction,Paste,Top*%
%TF.FilePolarity,Positive*%
%FSLAX46Y46*%
G04 Gerber Fmt 4.6, Leading zero omitted, Abs format (unit mm)*
G04 Created by KiCad (PCBNEW 7.0.9-7.0.9~ubuntu20.04.1) date 2023-12-26 20:59:22*
%MOMM*%
%LPD*%
G01*
G04 APERTURE LIST*
%ADD10R,0.500000X1.300000*%
%ADD11R,1.300000X0.500000*%
G04 APERTURE END LIST*
D10*
%TO.C,U4*%
X189384000Y-72688000D03*
X190184000Y-72688000D03*
X190984000Y-72688000D03*
X191784000Y-72688000D03*
X192584000Y-72688000D03*
X193384000Y-72688000D03*
X194184000Y-72688000D03*
X194984000Y-72688000D03*
X195784000Y-72688000D03*
X196584000Y-72688000D03*
X197384000Y-72688000D03*
X198184000Y-72688000D03*
X198984000Y-72688000D03*
X199784000Y-72688000D03*
X200584000Y-72688000D03*
X201384000Y-72688000D03*
X202184000Y-72688000D03*
X202984000Y-72688000D03*
X203784000Y-72688000D03*
X204584000Y-72688000D03*
X205384000Y-72688000D03*
X206184000Y-72688000D03*
X206984000Y-72688000D03*
X207784000Y-72688000D03*
D11*
X209734000Y-70538000D03*
X209734000Y-69738000D03*
X209734000Y-68938000D03*
X209734000Y-68138000D03*
X209734000Y-67338000D03*
X209734000Y-66538000D03*
X209734000Y-65738000D03*
X209734000Y-64938000D03*
X209734000Y-64138000D03*
X209734000Y-63338000D03*
X209734000Y-62538000D03*
X209734000Y-61738000D03*
X209734000Y-60938000D03*
X209734000Y-60138000D03*
X209734000Y-59338000D03*
X209734000Y-58538000D03*
D10*
X207784000Y-56388000D03*
X206984000Y-56388000D03*
X206184000Y-56388000D03*
X205384000Y-56388000D03*
X204584000Y-56388000D03*
X203784000Y-56388000D03*
X202984000Y-56388000D03*
X202184000Y-56388000D03*
X201384000Y-56388000D03*
X200584000Y-56388000D03*
X199784000Y-56388000D03*
X198984000Y-56388000D03*
X198184000Y-56388000D03*
X197384000Y-56388000D03*
X196584000Y-56388000D03*
X195784000Y-56388000D03*
X194984000Y-56388000D03*
X194184000Y-56388000D03*
X193384000Y-56388000D03*
X192584000Y-56388000D03*
X191784000Y-56388000D03*
X190984000Y-56388000D03*
X190184000Y-56388000D03*
X189384000Y-56388000D03*
D11*
X187434000Y-58538000D03*
X187434000Y-59338000D03*
X187434000Y-60138000D03*
X187434000Y-60938000D03*
X187434000Y-61738000D03*
X187434000Y-62538000D03*
X187434000Y-63338000D03*
X187434000Y-64138000D03*
X187434000Y-64938000D03*
X187434000Y-65738000D03*
X187434000Y-66538000D03*
X187434000Y-67338000D03*
X187434000Y-68138000D03*
X187434000Y-68938000D03*
X187434000Y-69738000D03*
X187434000Y-70538000D03*
%TD*%
M02*
