M48
; DRILL file {KiCad 7.0.9-7.0.9~ubuntu20.04.1} date Di 26 Dez 2023 20:59:25
; FORMAT={-:-/ absolute / metric / decimal}
; #@! TF.CreationDate,2023-12-26T20:59:25+01:00
; #@! TF.GenerationSoftware,Kicad,Pcbnew,7.0.9-7.0.9~ubuntu20.04.1
; #@! TF.FileFunction,MixedPlating,1,2
FMAT,2
METRIC
; #@! TA.AperFunction,Plated,PTH,ViaDrill
T1C0.400
; #@! TA.AperFunction,Plated,PTH,ComponentDrill
T2C0.800
; #@! TA.AperFunction,Plated,PTH,ComponentDrill
T3C1.000
%
G90
G05
T1
X181.305Y-63.064
X185.166Y-54.61
X189.382Y-71.222
X189.433Y-60.706
X190.011Y-58.773
X190.754Y-59.563
X191.516Y-64.008
X192.76Y-66.548
X192.76Y-68.974
X193.548Y-61.214
X196.342Y-61.722
X197.612Y-61.722
X199.136Y-60.96
X199.796Y-70.053
X200.406Y-60.198
X201.422Y-59.436
X202.075Y-60.597
X202.184Y-58.674
X204.47Y-64.138
X211.75Y-70.625
X212.852Y-69.85
X213.868Y-69.088
X214.63Y-68.072
X215.392Y-71.374
X215.646Y-66.548
X216.916Y-64.77
X216.916Y-66.294
T2
X173.736Y-37.49
X173.736Y-52.73
X176.276Y-37.49
X176.276Y-52.73
X178.816Y-37.49
X178.816Y-49.784
X178.816Y-52.73
X181.356Y-37.49
X181.356Y-52.73
X183.896Y-37.49
X183.896Y-40.64
X183.896Y-49.784
X183.896Y-52.73
X184.709Y-56.998
X184.709Y-60.046
X184.709Y-63.094
X186.436Y-37.49
X186.436Y-52.73
X188.976Y-37.49
X188.976Y-52.73
X191.516Y-37.49
X191.516Y-52.73
X194.056Y-37.49
X194.056Y-52.73
X196.596Y-37.49
X196.596Y-52.73
X199.136Y-37.49
X199.136Y-52.73
X201.676Y-37.49
X201.676Y-52.73
X204.216Y-37.49
X204.216Y-52.73
X206.756Y-37.49
X206.756Y-52.73
X209.296Y-37.49
X209.296Y-52.73
X211.836Y-37.49
X211.836Y-52.73
X214.376Y-37.49
X214.376Y-52.73
X216.916Y-37.49
X216.916Y-52.73
X219.456Y-37.49
X219.456Y-52.73
X221.996Y-37.49
X221.996Y-52.73
T3
X164.338Y-53.086
X164.338Y-55.626
X164.338Y-58.166
X164.338Y-60.706
X164.338Y-63.246
X164.338Y-65.786
X164.338Y-68.326
X164.338Y-70.866
X164.338Y-73.406
X164.338Y-75.946
X164.338Y-78.486
X164.338Y-81.026
X164.338Y-83.566
X166.878Y-53.086
X166.878Y-55.626
X166.878Y-58.166
X166.878Y-60.706
X166.878Y-63.246
X166.878Y-65.786
X166.878Y-68.326
X166.878Y-70.866
X166.878Y-73.406
X166.878Y-75.946
X166.878Y-78.486
X166.878Y-81.026
X166.878Y-83.566
X180.746Y-66.492
X180.746Y-69.032
X184.404Y-66.492
X184.404Y-69.032
T0
M30
