%TF.GenerationSoftware,KiCad,Pcbnew,7.0.7-7.0.7~ubuntu20.04.1*%
%TF.CreationDate,2023-09-08T15:46:13+02:00*%
%TF.ProjectId,SplitterBoard,53706c69-7474-4657-9242-6f6172642e6b,rev?*%
%TF.SameCoordinates,Original*%
%TF.FileFunction,Soldermask,Bot*%
%TF.FilePolarity,Negative*%
%FSLAX46Y46*%
G04 Gerber Fmt 4.6, Leading zero omitted, Abs format (unit mm)*
G04 Created by KiCad (PCBNEW 7.0.7-7.0.7~ubuntu20.04.1) date 2023-09-08 15:46:13*
%MOMM*%
%LPD*%
G01*
G04 APERTURE LIST*
G04 Aperture macros list*
%AMRoundRect*
0 Rectangle with rounded corners*
0 $1 Rounding radius*
0 $2 $3 $4 $5 $6 $7 $8 $9 X,Y pos of 4 corners*
0 Add a 4 corners polygon primitive as box body*
4,1,4,$2,$3,$4,$5,$6,$7,$8,$9,$2,$3,0*
0 Add four circle primitives for the rounded corners*
1,1,$1+$1,$2,$3*
1,1,$1+$1,$4,$5*
1,1,$1+$1,$6,$7*
1,1,$1+$1,$8,$9*
0 Add four rect primitives between the rounded corners*
20,1,$1+$1,$2,$3,$4,$5,0*
20,1,$1+$1,$4,$5,$6,$7,0*
20,1,$1+$1,$6,$7,$8,$9,0*
20,1,$1+$1,$8,$9,$2,$3,0*%
%AMFreePoly0*
4,1,19,0.550000,-0.750000,0.000000,-0.750000,0.000000,-0.744911,-0.071157,-0.744911,-0.207708,-0.704816,-0.327430,-0.627875,-0.420627,-0.520320,-0.479746,-0.390866,-0.500000,-0.250000,-0.500000,0.250000,-0.479746,0.390866,-0.420627,0.520320,-0.327430,0.627875,-0.207708,0.704816,-0.071157,0.744911,0.000000,0.744911,0.000000,0.750000,0.550000,0.750000,0.550000,-0.750000,0.550000,-0.750000,
$1*%
%AMFreePoly1*
4,1,19,0.000000,0.744911,0.071157,0.744911,0.207708,0.704816,0.327430,0.627875,0.420627,0.520320,0.479746,0.390866,0.500000,0.250000,0.500000,-0.250000,0.479746,-0.390866,0.420627,-0.520320,0.327430,-0.627875,0.207708,-0.704816,0.071157,-0.744911,0.000000,-0.744911,0.000000,-0.750000,-0.550000,-0.750000,-0.550000,0.750000,0.000000,0.750000,0.000000,0.744911,0.000000,0.744911,
$1*%
G04 Aperture macros list end*
%ADD10R,1.500000X1.000000*%
%ADD11R,1.350000X1.350000*%
%ADD12R,1.700000X1.700000*%
%ADD13O,1.700000X1.700000*%
%ADD14C,3.200000*%
%ADD15RoundRect,0.250000X-0.325000X-0.650000X0.325000X-0.650000X0.325000X0.650000X-0.325000X0.650000X0*%
%ADD16FreePoly0,90.000000*%
%ADD17FreePoly1,90.000000*%
%ADD18R,1.000000X1.500000*%
G04 APERTURE END LIST*
D10*
%TO.C,JP5*%
X182245000Y-66354000D03*
X182245000Y-65054000D03*
X182245000Y-63754000D03*
%TD*%
%TO.C,JP4*%
X184791000Y-63754000D03*
X184791000Y-65054000D03*
X184791000Y-66354000D03*
%TD*%
D11*
%TO.C,J14*%
X180213000Y-69088000D03*
%TD*%
D12*
%TO.C,J1*%
X142360000Y-42957000D03*
D13*
X142360000Y-45497000D03*
X144900000Y-42957000D03*
X144900000Y-45497000D03*
X147440000Y-42957000D03*
X147440000Y-45497000D03*
X149980000Y-42957000D03*
X149980000Y-45497000D03*
X152520000Y-42957000D03*
X152520000Y-45497000D03*
X155060000Y-42957000D03*
X155060000Y-45497000D03*
X157600000Y-42957000D03*
X157600000Y-45497000D03*
X160140000Y-42957000D03*
X160140000Y-45497000D03*
X162680000Y-42957000D03*
X162680000Y-45497000D03*
X165220000Y-42957000D03*
X165220000Y-45497000D03*
X167760000Y-42957000D03*
X167760000Y-45497000D03*
X170300000Y-42957000D03*
X170300000Y-45497000D03*
X172840000Y-42957000D03*
X172840000Y-45497000D03*
X175380000Y-42957000D03*
X175380000Y-45497000D03*
X177920000Y-42957000D03*
X177920000Y-45497000D03*
X180460000Y-42957000D03*
X180460000Y-45497000D03*
X183000000Y-42957000D03*
X183000000Y-45497000D03*
X185540000Y-42957000D03*
X185540000Y-45497000D03*
X188080000Y-42957000D03*
X188080000Y-45497000D03*
X190620000Y-42957000D03*
X190620000Y-45497000D03*
%TD*%
D12*
%TO.C,J6*%
X105497000Y-130620000D03*
D13*
X102957000Y-130620000D03*
X105497000Y-128080000D03*
X102957000Y-128080000D03*
X105497000Y-125540000D03*
X102957000Y-125540000D03*
X105497000Y-123000000D03*
X102957000Y-123000000D03*
X105497000Y-120460000D03*
X102957000Y-120460000D03*
X105497000Y-117920000D03*
X102957000Y-117920000D03*
X105497000Y-115380000D03*
X102957000Y-115380000D03*
X105497000Y-112840000D03*
X102957000Y-112840000D03*
X105497000Y-110300000D03*
X102957000Y-110300000D03*
X105497000Y-107760000D03*
X102957000Y-107760000D03*
X105497000Y-105220000D03*
X102957000Y-105220000D03*
X105497000Y-102680000D03*
X102957000Y-102680000D03*
X105497000Y-100140000D03*
X102957000Y-100140000D03*
X105497000Y-97600000D03*
X102957000Y-97600000D03*
X105497000Y-95060000D03*
X102957000Y-95060000D03*
X105497000Y-92520000D03*
X102957000Y-92520000D03*
X105497000Y-89980000D03*
X102957000Y-89980000D03*
X105497000Y-87440000D03*
X102957000Y-87440000D03*
X105497000Y-84900000D03*
X102957000Y-84900000D03*
X105497000Y-82360000D03*
X102957000Y-82360000D03*
%TD*%
D12*
%TO.C,J7*%
X118000000Y-80772000D03*
D13*
X120540000Y-80772000D03*
X123080000Y-80772000D03*
X125620000Y-80772000D03*
X128160000Y-80772000D03*
X130700000Y-80772000D03*
X133240000Y-80772000D03*
X135780000Y-80772000D03*
X138320000Y-80772000D03*
X140860000Y-80772000D03*
X143400000Y-80772000D03*
X145940000Y-80772000D03*
X148480000Y-80772000D03*
X151020000Y-80772000D03*
X153560000Y-80772000D03*
X156100000Y-80772000D03*
X158640000Y-80772000D03*
X161180000Y-80772000D03*
X163720000Y-80772000D03*
X166260000Y-80772000D03*
X168800000Y-80772000D03*
%TD*%
D14*
%TO.C,H1*%
X196000000Y-136000000D03*
%TD*%
D12*
%TO.C,J2*%
X142360000Y-134503000D03*
D13*
X142360000Y-137043000D03*
X144900000Y-134503000D03*
X144900000Y-137043000D03*
X147440000Y-134503000D03*
X147440000Y-137043000D03*
X149980000Y-134503000D03*
X149980000Y-137043000D03*
X152520000Y-134503000D03*
X152520000Y-137043000D03*
X155060000Y-134503000D03*
X155060000Y-137043000D03*
X157600000Y-134503000D03*
X157600000Y-137043000D03*
X160140000Y-134503000D03*
X160140000Y-137043000D03*
X162680000Y-134503000D03*
X162680000Y-137043000D03*
X165220000Y-134503000D03*
X165220000Y-137043000D03*
X167760000Y-134503000D03*
X167760000Y-137043000D03*
X170300000Y-134503000D03*
X170300000Y-137043000D03*
X172840000Y-134503000D03*
X172840000Y-137043000D03*
X175380000Y-134503000D03*
X175380000Y-137043000D03*
X177920000Y-134503000D03*
X177920000Y-137043000D03*
X180460000Y-134503000D03*
X180460000Y-137043000D03*
X183000000Y-134503000D03*
X183000000Y-137043000D03*
X185540000Y-134503000D03*
X185540000Y-137043000D03*
X188080000Y-134503000D03*
X188080000Y-137043000D03*
X190620000Y-134503000D03*
X190620000Y-137043000D03*
%TD*%
D12*
%TO.C,J5*%
X194503000Y-82360000D03*
D13*
X197043000Y-82360000D03*
X194503000Y-84900000D03*
X197043000Y-84900000D03*
X194503000Y-87440000D03*
X197043000Y-87440000D03*
X194503000Y-89980000D03*
X197043000Y-89980000D03*
X194503000Y-92520000D03*
X197043000Y-92520000D03*
X194503000Y-95060000D03*
X197043000Y-95060000D03*
X194503000Y-97600000D03*
X197043000Y-97600000D03*
X194503000Y-100140000D03*
X197043000Y-100140000D03*
X194503000Y-102680000D03*
X197043000Y-102680000D03*
X194503000Y-105220000D03*
X197043000Y-105220000D03*
X194503000Y-107760000D03*
X197043000Y-107760000D03*
X194503000Y-110300000D03*
X197043000Y-110300000D03*
X194503000Y-112840000D03*
X197043000Y-112840000D03*
X194503000Y-115380000D03*
X197043000Y-115380000D03*
X194503000Y-117920000D03*
X197043000Y-117920000D03*
X194503000Y-120460000D03*
X197043000Y-120460000D03*
X194503000Y-123000000D03*
X197043000Y-123000000D03*
X194503000Y-125540000D03*
X197043000Y-125540000D03*
X194503000Y-128080000D03*
X197043000Y-128080000D03*
X194503000Y-130620000D03*
X197043000Y-130620000D03*
%TD*%
D11*
%TO.C,J17*%
X179705000Y-79375000D03*
%TD*%
D14*
%TO.C,H3*%
X196000000Y-44000000D03*
%TD*%
D12*
%TO.C,J4*%
X142369130Y-128328879D03*
D13*
X142369130Y-130868879D03*
X144909130Y-128328879D03*
X144909130Y-130868879D03*
X147449130Y-128328879D03*
X147449130Y-130868879D03*
X149989130Y-128328879D03*
X149989130Y-130868879D03*
X152529130Y-128328879D03*
X152529130Y-130868879D03*
X155069130Y-128328879D03*
X155069130Y-130868879D03*
X157609130Y-128328879D03*
X157609130Y-130868879D03*
X160149130Y-128328879D03*
X160149130Y-130868879D03*
X162689130Y-128328879D03*
X162689130Y-130868879D03*
X165229130Y-128328879D03*
X165229130Y-130868879D03*
X167769130Y-128328879D03*
X167769130Y-130868879D03*
X170309130Y-128328879D03*
X170309130Y-130868879D03*
X172849130Y-128328879D03*
X172849130Y-130868879D03*
X175389130Y-128328879D03*
X175389130Y-130868879D03*
X177929130Y-128328879D03*
X177929130Y-130868879D03*
X180469130Y-128328879D03*
X180469130Y-130868879D03*
X183009130Y-128328879D03*
X183009130Y-130868879D03*
X185549130Y-128328879D03*
X185549130Y-130868879D03*
X188089130Y-128328879D03*
X188089130Y-130868879D03*
X190629130Y-128328879D03*
X190629130Y-130868879D03*
%TD*%
D12*
%TO.C,J11*%
X119253000Y-60934600D03*
D13*
X121793000Y-60934600D03*
X124333000Y-60934600D03*
%TD*%
D12*
%TO.C,J8*%
X128000000Y-60960000D03*
D13*
X130540000Y-60960000D03*
X133080000Y-60960000D03*
X135620000Y-60960000D03*
X138160000Y-60960000D03*
X140700000Y-60960000D03*
X143240000Y-60960000D03*
X145780000Y-60960000D03*
X148320000Y-60960000D03*
X150860000Y-60960000D03*
X153400000Y-60960000D03*
X155940000Y-60960000D03*
X158480000Y-60960000D03*
X161020000Y-60960000D03*
X163560000Y-60960000D03*
X166100000Y-60960000D03*
X168640000Y-60960000D03*
X171180000Y-60960000D03*
X173720000Y-60960000D03*
X176260000Y-60960000D03*
X178800000Y-60960000D03*
%TD*%
D12*
%TO.C,J12*%
X118059200Y-75869800D03*
D13*
X120599200Y-75869800D03*
X123139200Y-75869800D03*
%TD*%
D12*
%TO.C,J15*%
X194505197Y-79819841D03*
D13*
X197045197Y-79819841D03*
%TD*%
D14*
%TO.C,H4*%
X104000000Y-44000000D03*
%TD*%
%TO.C,H2*%
X104000000Y-136000000D03*
%TD*%
D12*
%TO.C,J10*%
X134747000Y-43688000D03*
D13*
X137287000Y-43688000D03*
X134747000Y-46228000D03*
X137287000Y-46228000D03*
X134747000Y-48768000D03*
X137287000Y-48768000D03*
%TD*%
D12*
%TO.C,J9*%
X128436000Y-43688000D03*
D13*
X130976000Y-43688000D03*
X128436000Y-46228000D03*
X130976000Y-46228000D03*
X128436000Y-48768000D03*
X130976000Y-48768000D03*
%TD*%
D12*
%TO.C,J3*%
X142360397Y-49123807D03*
D13*
X142360397Y-51663807D03*
X144900397Y-49123807D03*
X144900397Y-51663807D03*
X147440397Y-49123807D03*
X147440397Y-51663807D03*
X149980397Y-49123807D03*
X149980397Y-51663807D03*
X152520397Y-49123807D03*
X152520397Y-51663807D03*
X155060397Y-49123807D03*
X155060397Y-51663807D03*
X157600397Y-49123807D03*
X157600397Y-51663807D03*
X160140397Y-49123807D03*
X160140397Y-51663807D03*
X162680397Y-49123807D03*
X162680397Y-51663807D03*
X165220397Y-49123807D03*
X165220397Y-51663807D03*
X167760397Y-49123807D03*
X167760397Y-51663807D03*
X170300397Y-49123807D03*
X170300397Y-51663807D03*
X172840397Y-49123807D03*
X172840397Y-51663807D03*
X175380397Y-49123807D03*
X175380397Y-51663807D03*
X177920397Y-49123807D03*
X177920397Y-51663807D03*
X180460397Y-49123807D03*
X180460397Y-51663807D03*
X183000397Y-49123807D03*
X183000397Y-51663807D03*
X185540397Y-49123807D03*
X185540397Y-51663807D03*
X188080397Y-49123807D03*
X188080397Y-51663807D03*
X190620397Y-49123807D03*
X190620397Y-51663807D03*
%TD*%
D11*
%TO.C,J13*%
X180213000Y-73914000D03*
%TD*%
%TO.C,J16*%
X183261000Y-73914000D03*
%TD*%
D10*
%TO.C,JP3*%
X176022000Y-82042000D03*
X176022000Y-80742000D03*
X176022000Y-79442000D03*
%TD*%
D15*
%TO.C,C5*%
X128651000Y-70916800D03*
X131601000Y-70916800D03*
%TD*%
%TO.C,C4*%
X164283600Y-70358000D03*
X167233600Y-70358000D03*
%TD*%
D16*
%TO.C,JP2*%
X111988600Y-68055800D03*
D10*
X111988600Y-66755800D03*
D17*
X111988600Y-65455800D03*
%TD*%
D18*
%TO.C,JP1*%
X156240000Y-123571000D03*
X154940000Y-123571000D03*
X153640000Y-123571000D03*
%TD*%
M02*
