M48
; DRILL file {KiCad 7.0.5-7.0.5~ubuntu20.04.1} date Di 18 Jul 2023 14:51:21
; FORMAT={-:-/ absolute / metric / decimal}
; #@! TF.CreationDate,2023-07-18T14:51:21+02:00
; #@! TF.GenerationSoftware,Kicad,Pcbnew,7.0.5-7.0.5~ubuntu20.04.1
; #@! TF.FileFunction,MixedPlating,1,2
FMAT,2
METRIC
; #@! TA.AperFunction,Plated,PTH,ViaDrill
T1C0.400
; #@! TA.AperFunction,Plated,PTH,ComponentDrill
T2C1.000
; #@! TA.AperFunction,NonPlated,NPTH,ComponentDrill
T3C3.200
%
G90
G05
T1
X110.299Y-90.614
X111.252Y-131.826
X111.379Y-91.694
X112.088Y-132.556
X112.395Y-92.71
X113.088Y-131.826
X114.084Y-132.588
X115.084Y-131.826
X116.078Y-132.588
X117.094Y-131.826
X118.11Y-132.588
X119.126Y-131.826
X120.142Y-132.588
X121.158Y-131.826
X122.174Y-132.588
X123.19Y-131.826
X124.206Y-132.588
X125.222Y-131.826
X126.216Y-132.588
X127.216Y-131.826
X128.016Y-132.588
X128.651Y-70.917
X129.032Y-131.826
X130.048Y-132.588
X131.064Y-131.826
X131.601Y-70.917
X132.08Y-132.588
X133.096Y-131.826
X134.112Y-130.937
X134.256Y-106.934
X135.01Y-129.995
X136.008Y-129.159
X136.909Y-130.022
X137.904Y-129.159
X138.9Y-130.048
X139.91Y-131.064
X140.754Y-129.794
X142.215Y-65.481
X144.06Y-126.634
X164.284Y-70.358
X167.194Y-82.988
X167.234Y-70.358
X168.021Y-83.718
X168.885Y-84.455
X169.875Y-85.242
X171.069Y-85.623
X172.237Y-86.36
X173.406Y-86.639
X174.6Y-86.868
X175.793Y-87.528
X176.555Y-88.468
X177.622Y-88.494
X178.714Y-88.595
X179.756Y-88.57
X180.899Y-88.621
X181.991Y-88.595
X183.134Y-88.595
X184.175Y-88.595
X185.293Y-88.621
X186.487Y-88.697
X186.948Y-84.9
X187.249Y-86.131
X187.655Y-87.554
X187.706Y-88.798
X188.036Y-89.992
X188.766Y-91.155
X189.179Y-92.38
X189.666Y-93.396
X190.116Y-94.894
X190.5Y-96.037
X191.016Y-97.46
X191.466Y-98.958
X191.916Y-100.203
X192.378Y-101.402
T2
X102.957Y-82.36
X102.957Y-84.9
X102.957Y-87.44
X102.957Y-89.98
X102.957Y-92.52
X102.957Y-95.06
X102.957Y-97.6
X102.957Y-100.14
X102.957Y-102.68
X102.957Y-105.22
X102.957Y-107.76
X102.957Y-110.3
X102.957Y-112.84
X102.957Y-115.38
X102.957Y-117.92
X102.957Y-120.46
X102.957Y-123.0
X102.957Y-125.54
X102.957Y-128.08
X102.957Y-130.62
X105.497Y-82.36
X105.497Y-84.9
X105.497Y-87.44
X105.497Y-89.98
X105.497Y-92.52
X105.497Y-95.06
X105.497Y-97.6
X105.497Y-100.14
X105.497Y-102.68
X105.497Y-105.22
X105.497Y-107.76
X105.497Y-110.3
X105.497Y-112.84
X105.497Y-115.38
X105.497Y-117.92
X105.497Y-120.46
X105.497Y-123.0
X105.497Y-125.54
X105.497Y-128.08
X105.497Y-130.62
X118.0Y-80.772
X118.059Y-75.87
X119.253Y-60.935
X120.54Y-80.772
X120.599Y-75.87
X121.793Y-60.935
X123.08Y-80.772
X123.139Y-75.87
X124.333Y-60.935
X125.62Y-80.772
X128.0Y-60.96
X128.16Y-80.772
X128.436Y-43.688
X128.436Y-46.228
X128.436Y-48.768
X130.54Y-60.96
X130.7Y-80.772
X130.976Y-43.688
X130.976Y-46.228
X130.976Y-48.768
X133.08Y-60.96
X133.24Y-80.772
X134.747Y-43.688
X134.747Y-46.228
X134.747Y-48.768
X135.62Y-60.96
X135.78Y-80.772
X137.287Y-43.688
X137.287Y-46.228
X137.287Y-48.768
X138.16Y-60.96
X138.32Y-80.772
X140.7Y-60.96
X140.86Y-80.772
X142.36Y-42.957
X142.36Y-45.497
X142.36Y-134.503
X142.36Y-137.043
X142.36Y-49.124
X142.36Y-51.664
X142.369Y-128.329
X142.369Y-130.869
X143.24Y-60.96
X143.4Y-80.772
X144.9Y-42.957
X144.9Y-45.497
X144.9Y-134.503
X144.9Y-137.043
X144.9Y-49.124
X144.9Y-51.664
X144.909Y-128.329
X144.909Y-130.869
X145.78Y-60.96
X145.94Y-80.772
X147.44Y-42.957
X147.44Y-45.497
X147.44Y-134.503
X147.44Y-137.043
X147.44Y-49.124
X147.44Y-51.664
X147.449Y-128.329
X147.449Y-130.869
X148.32Y-60.96
X148.48Y-80.772
X149.98Y-42.957
X149.98Y-45.497
X149.98Y-134.503
X149.98Y-137.043
X149.98Y-49.124
X149.98Y-51.664
X149.989Y-128.329
X149.989Y-130.869
X150.86Y-60.96
X151.02Y-80.772
X152.52Y-42.957
X152.52Y-45.497
X152.52Y-134.503
X152.52Y-137.043
X152.52Y-49.124
X152.52Y-51.664
X152.529Y-128.329
X152.529Y-130.869
X153.4Y-60.96
X153.56Y-80.772
X155.06Y-42.957
X155.06Y-45.497
X155.06Y-134.503
X155.06Y-137.043
X155.06Y-49.124
X155.06Y-51.664
X155.069Y-128.329
X155.069Y-130.869
X155.94Y-60.96
X156.1Y-80.772
X157.6Y-42.957
X157.6Y-45.497
X157.6Y-134.503
X157.6Y-137.043
X157.6Y-49.124
X157.6Y-51.664
X157.609Y-128.329
X157.609Y-130.869
X158.48Y-60.96
X158.64Y-80.772
X160.14Y-42.957
X160.14Y-45.497
X160.14Y-134.503
X160.14Y-137.043
X160.14Y-49.124
X160.14Y-51.664
X160.149Y-128.329
X160.149Y-130.869
X161.02Y-60.96
X161.18Y-80.772
X162.68Y-42.957
X162.68Y-45.497
X162.68Y-134.503
X162.68Y-137.043
X162.68Y-49.124
X162.68Y-51.664
X162.689Y-128.329
X162.689Y-130.869
X163.56Y-60.96
X163.72Y-80.772
X165.22Y-42.957
X165.22Y-45.497
X165.22Y-134.503
X165.22Y-137.043
X165.22Y-49.124
X165.22Y-51.664
X165.229Y-128.329
X165.229Y-130.869
X166.1Y-60.96
X166.26Y-80.772
X167.76Y-42.957
X167.76Y-45.497
X167.76Y-134.503
X167.76Y-137.043
X167.76Y-49.124
X167.76Y-51.664
X167.769Y-128.329
X167.769Y-130.869
X168.64Y-60.96
X168.8Y-80.772
X170.3Y-42.957
X170.3Y-45.497
X170.3Y-134.503
X170.3Y-137.043
X170.3Y-49.124
X170.3Y-51.664
X170.309Y-128.329
X170.309Y-130.869
X171.18Y-60.96
X172.84Y-42.957
X172.84Y-45.497
X172.84Y-134.503
X172.84Y-137.043
X172.84Y-49.124
X172.84Y-51.664
X172.849Y-128.329
X172.849Y-130.869
X173.72Y-60.96
X175.38Y-42.957
X175.38Y-45.497
X175.38Y-134.503
X175.38Y-137.043
X175.38Y-49.124
X175.38Y-51.664
X175.389Y-128.329
X175.389Y-130.869
X176.26Y-60.96
X177.92Y-42.957
X177.92Y-45.497
X177.92Y-134.503
X177.92Y-137.043
X177.92Y-49.124
X177.92Y-51.664
X177.929Y-128.329
X177.929Y-130.869
X178.8Y-60.96
X180.46Y-42.957
X180.46Y-45.497
X180.46Y-134.503
X180.46Y-137.043
X180.46Y-49.124
X180.46Y-51.664
X180.469Y-128.329
X180.469Y-130.869
X183.0Y-42.957
X183.0Y-45.497
X183.0Y-134.503
X183.0Y-137.043
X183.0Y-49.124
X183.0Y-51.664
X183.009Y-128.329
X183.009Y-130.869
X185.54Y-42.957
X185.54Y-45.497
X185.54Y-134.503
X185.54Y-137.043
X185.54Y-49.124
X185.54Y-51.664
X185.549Y-128.329
X185.549Y-130.869
X188.08Y-42.957
X188.08Y-45.497
X188.08Y-134.503
X188.08Y-137.043
X188.08Y-49.124
X188.08Y-51.664
X188.089Y-128.329
X188.089Y-130.869
X190.62Y-42.957
X190.62Y-45.497
X190.62Y-134.503
X190.62Y-137.043
X190.62Y-49.124
X190.62Y-51.664
X190.629Y-128.329
X190.629Y-130.869
X194.503Y-82.36
X194.503Y-84.9
X194.503Y-87.44
X194.503Y-89.98
X194.503Y-92.52
X194.503Y-95.06
X194.503Y-97.6
X194.503Y-100.14
X194.503Y-102.68
X194.503Y-105.22
X194.503Y-107.76
X194.503Y-110.3
X194.503Y-112.84
X194.503Y-115.38
X194.503Y-117.92
X194.503Y-120.46
X194.503Y-123.0
X194.503Y-125.54
X194.503Y-128.08
X194.503Y-130.62
X197.043Y-82.36
X197.043Y-84.9
X197.043Y-87.44
X197.043Y-89.98
X197.043Y-92.52
X197.043Y-95.06
X197.043Y-97.6
X197.043Y-100.14
X197.043Y-102.68
X197.043Y-105.22
X197.043Y-107.76
X197.043Y-110.3
X197.043Y-112.84
X197.043Y-115.38
X197.043Y-117.92
X197.043Y-120.46
X197.043Y-123.0
X197.043Y-125.54
X197.043Y-128.08
X197.043Y-130.62
T3
X104.0Y-44.0
X104.0Y-136.0
X196.0Y-44.0
X196.0Y-136.0
T0
M30
