%TF.GenerationSoftware,KiCad,Pcbnew,7.0.7-7.0.7~ubuntu20.04.1*%
%TF.CreationDate,2023-09-08T15:46:13+02:00*%
%TF.ProjectId,SplitterBoard,53706c69-7474-4657-9242-6f6172642e6b,rev?*%
%TF.SameCoordinates,Original*%
%TF.FileFunction,Legend,Top*%
%TF.FilePolarity,Positive*%
%FSLAX46Y46*%
G04 Gerber Fmt 4.6, Leading zero omitted, Abs format (unit mm)*
G04 Created by KiCad (PCBNEW 7.0.7-7.0.7~ubuntu20.04.1) date 2023-09-08 15:46:13*
%MOMM*%
%LPD*%
G01*
G04 APERTURE LIST*
%ADD10C,0.300000*%
%ADD11C,0.150000*%
%ADD12C,0.120000*%
G04 APERTURE END LIST*
D10*
X177372489Y-54301171D02*
X177372489Y-55801171D01*
X177372489Y-55801171D02*
X176872489Y-54729742D01*
X176872489Y-54729742D02*
X176372489Y-55801171D01*
X176372489Y-55801171D02*
X176372489Y-54301171D01*
X175015346Y-54301171D02*
X175015346Y-55086885D01*
X175015346Y-55086885D02*
X175086774Y-55229742D01*
X175086774Y-55229742D02*
X175229631Y-55301171D01*
X175229631Y-55301171D02*
X175515346Y-55301171D01*
X175515346Y-55301171D02*
X175658203Y-55229742D01*
X175015346Y-54372600D02*
X175158203Y-54301171D01*
X175158203Y-54301171D02*
X175515346Y-54301171D01*
X175515346Y-54301171D02*
X175658203Y-54372600D01*
X175658203Y-54372600D02*
X175729631Y-54515457D01*
X175729631Y-54515457D02*
X175729631Y-54658314D01*
X175729631Y-54658314D02*
X175658203Y-54801171D01*
X175658203Y-54801171D02*
X175515346Y-54872600D01*
X175515346Y-54872600D02*
X175158203Y-54872600D01*
X175158203Y-54872600D02*
X175015346Y-54944028D01*
X174372488Y-54372600D02*
X174229631Y-54301171D01*
X174229631Y-54301171D02*
X173943917Y-54301171D01*
X173943917Y-54301171D02*
X173801060Y-54372600D01*
X173801060Y-54372600D02*
X173729631Y-54515457D01*
X173729631Y-54515457D02*
X173729631Y-54586885D01*
X173729631Y-54586885D02*
X173801060Y-54729742D01*
X173801060Y-54729742D02*
X173943917Y-54801171D01*
X173943917Y-54801171D02*
X174158203Y-54801171D01*
X174158203Y-54801171D02*
X174301060Y-54872600D01*
X174301060Y-54872600D02*
X174372488Y-55015457D01*
X174372488Y-55015457D02*
X174372488Y-55086885D01*
X174372488Y-55086885D02*
X174301060Y-55229742D01*
X174301060Y-55229742D02*
X174158203Y-55301171D01*
X174158203Y-55301171D02*
X173943917Y-55301171D01*
X173943917Y-55301171D02*
X173801060Y-55229742D01*
X173301059Y-55301171D02*
X172729631Y-55301171D01*
X173086774Y-55801171D02*
X173086774Y-54515457D01*
X173086774Y-54515457D02*
X173015345Y-54372600D01*
X173015345Y-54372600D02*
X172872488Y-54301171D01*
X172872488Y-54301171D02*
X172729631Y-54301171D01*
X171658202Y-54372600D02*
X171801059Y-54301171D01*
X171801059Y-54301171D02*
X172086774Y-54301171D01*
X172086774Y-54301171D02*
X172229631Y-54372600D01*
X172229631Y-54372600D02*
X172301059Y-54515457D01*
X172301059Y-54515457D02*
X172301059Y-55086885D01*
X172301059Y-55086885D02*
X172229631Y-55229742D01*
X172229631Y-55229742D02*
X172086774Y-55301171D01*
X172086774Y-55301171D02*
X171801059Y-55301171D01*
X171801059Y-55301171D02*
X171658202Y-55229742D01*
X171658202Y-55229742D02*
X171586774Y-55086885D01*
X171586774Y-55086885D02*
X171586774Y-54944028D01*
X171586774Y-54944028D02*
X172301059Y-54801171D01*
X170943917Y-54301171D02*
X170943917Y-55301171D01*
X170943917Y-55015457D02*
X170872488Y-55158314D01*
X170872488Y-55158314D02*
X170801060Y-55229742D01*
X170801060Y-55229742D02*
X170658202Y-55301171D01*
X170658202Y-55301171D02*
X170515345Y-55301171D01*
X167801060Y-55872600D02*
X169086774Y-53944028D01*
X166229631Y-54372600D02*
X166015346Y-54301171D01*
X166015346Y-54301171D02*
X165658203Y-54301171D01*
X165658203Y-54301171D02*
X165515346Y-54372600D01*
X165515346Y-54372600D02*
X165443917Y-54444028D01*
X165443917Y-54444028D02*
X165372488Y-54586885D01*
X165372488Y-54586885D02*
X165372488Y-54729742D01*
X165372488Y-54729742D02*
X165443917Y-54872600D01*
X165443917Y-54872600D02*
X165515346Y-54944028D01*
X165515346Y-54944028D02*
X165658203Y-55015457D01*
X165658203Y-55015457D02*
X165943917Y-55086885D01*
X165943917Y-55086885D02*
X166086774Y-55158314D01*
X166086774Y-55158314D02*
X166158203Y-55229742D01*
X166158203Y-55229742D02*
X166229631Y-55372600D01*
X166229631Y-55372600D02*
X166229631Y-55515457D01*
X166229631Y-55515457D02*
X166158203Y-55658314D01*
X166158203Y-55658314D02*
X166086774Y-55729742D01*
X166086774Y-55729742D02*
X165943917Y-55801171D01*
X165943917Y-55801171D02*
X165586774Y-55801171D01*
X165586774Y-55801171D02*
X165372488Y-55729742D01*
X164515346Y-54301171D02*
X164658203Y-54372600D01*
X164658203Y-54372600D02*
X164729632Y-54515457D01*
X164729632Y-54515457D02*
X164729632Y-55801171D01*
X163301061Y-54301171D02*
X163301061Y-55086885D01*
X163301061Y-55086885D02*
X163372489Y-55229742D01*
X163372489Y-55229742D02*
X163515346Y-55301171D01*
X163515346Y-55301171D02*
X163801061Y-55301171D01*
X163801061Y-55301171D02*
X163943918Y-55229742D01*
X163301061Y-54372600D02*
X163443918Y-54301171D01*
X163443918Y-54301171D02*
X163801061Y-54301171D01*
X163801061Y-54301171D02*
X163943918Y-54372600D01*
X163943918Y-54372600D02*
X164015346Y-54515457D01*
X164015346Y-54515457D02*
X164015346Y-54658314D01*
X164015346Y-54658314D02*
X163943918Y-54801171D01*
X163943918Y-54801171D02*
X163801061Y-54872600D01*
X163801061Y-54872600D02*
X163443918Y-54872600D01*
X163443918Y-54872600D02*
X163301061Y-54944028D01*
X162729632Y-55301171D02*
X162372489Y-54301171D01*
X162372489Y-54301171D02*
X162015346Y-55301171D01*
X160872489Y-54372600D02*
X161015346Y-54301171D01*
X161015346Y-54301171D02*
X161301061Y-54301171D01*
X161301061Y-54301171D02*
X161443918Y-54372600D01*
X161443918Y-54372600D02*
X161515346Y-54515457D01*
X161515346Y-54515457D02*
X161515346Y-55086885D01*
X161515346Y-55086885D02*
X161443918Y-55229742D01*
X161443918Y-55229742D02*
X161301061Y-55301171D01*
X161301061Y-55301171D02*
X161015346Y-55301171D01*
X161015346Y-55301171D02*
X160872489Y-55229742D01*
X160872489Y-55229742D02*
X160801061Y-55086885D01*
X160801061Y-55086885D02*
X160801061Y-54944028D01*
X160801061Y-54944028D02*
X161515346Y-54801171D01*
X158158204Y-54444028D02*
X158229632Y-54372600D01*
X158229632Y-54372600D02*
X158443918Y-54301171D01*
X158443918Y-54301171D02*
X158586775Y-54301171D01*
X158586775Y-54301171D02*
X158801061Y-54372600D01*
X158801061Y-54372600D02*
X158943918Y-54515457D01*
X158943918Y-54515457D02*
X159015347Y-54658314D01*
X159015347Y-54658314D02*
X159086775Y-54944028D01*
X159086775Y-54944028D02*
X159086775Y-55158314D01*
X159086775Y-55158314D02*
X159015347Y-55444028D01*
X159015347Y-55444028D02*
X158943918Y-55586885D01*
X158943918Y-55586885D02*
X158801061Y-55729742D01*
X158801061Y-55729742D02*
X158586775Y-55801171D01*
X158586775Y-55801171D02*
X158443918Y-55801171D01*
X158443918Y-55801171D02*
X158229632Y-55729742D01*
X158229632Y-55729742D02*
X158158204Y-55658314D01*
X157515347Y-54301171D02*
X157515347Y-55801171D01*
X157515347Y-55801171D02*
X156943918Y-55801171D01*
X156943918Y-55801171D02*
X156801061Y-55729742D01*
X156801061Y-55729742D02*
X156729632Y-55658314D01*
X156729632Y-55658314D02*
X156658204Y-55515457D01*
X156658204Y-55515457D02*
X156658204Y-55301171D01*
X156658204Y-55301171D02*
X156729632Y-55158314D01*
X156729632Y-55158314D02*
X156801061Y-55086885D01*
X156801061Y-55086885D02*
X156943918Y-55015457D01*
X156943918Y-55015457D02*
X157515347Y-55015457D01*
X156015347Y-55801171D02*
X156015347Y-54586885D01*
X156015347Y-54586885D02*
X155943918Y-54444028D01*
X155943918Y-54444028D02*
X155872490Y-54372600D01*
X155872490Y-54372600D02*
X155729632Y-54301171D01*
X155729632Y-54301171D02*
X155443918Y-54301171D01*
X155443918Y-54301171D02*
X155301061Y-54372600D01*
X155301061Y-54372600D02*
X155229632Y-54444028D01*
X155229632Y-54444028D02*
X155158204Y-54586885D01*
X155158204Y-54586885D02*
X155158204Y-55801171D01*
D11*
X196099819Y-71580363D02*
X196337914Y-71580363D01*
X196242676Y-71818458D02*
X196337914Y-71580363D01*
X196337914Y-71580363D02*
X196242676Y-71342268D01*
X196528390Y-71723220D02*
X196337914Y-71580363D01*
X196337914Y-71580363D02*
X196528390Y-71437506D01*
X196099819Y-70961315D02*
X196909342Y-70961315D01*
X196909342Y-70961315D02*
X197004580Y-70913696D01*
X197004580Y-70913696D02*
X197052200Y-70866077D01*
X197052200Y-70866077D02*
X197099819Y-70770839D01*
X197099819Y-70770839D02*
X197099819Y-70580363D01*
X197099819Y-70580363D02*
X197052200Y-70485125D01*
X197052200Y-70485125D02*
X197004580Y-70437506D01*
X197004580Y-70437506D02*
X196909342Y-70389887D01*
X196909342Y-70389887D02*
X196099819Y-70389887D01*
X196433152Y-69913696D02*
X197099819Y-69913696D01*
X196528390Y-69913696D02*
X196480771Y-69866077D01*
X196480771Y-69866077D02*
X196433152Y-69770839D01*
X196433152Y-69770839D02*
X196433152Y-69627982D01*
X196433152Y-69627982D02*
X196480771Y-69532744D01*
X196480771Y-69532744D02*
X196576009Y-69485125D01*
X196576009Y-69485125D02*
X197099819Y-69485125D01*
X197099819Y-69008934D02*
X196433152Y-69008934D01*
X196099819Y-69008934D02*
X196147438Y-69056553D01*
X196147438Y-69056553D02*
X196195057Y-69008934D01*
X196195057Y-69008934D02*
X196147438Y-68961315D01*
X196147438Y-68961315D02*
X196099819Y-69008934D01*
X196099819Y-69008934D02*
X196195057Y-69008934D01*
X197052200Y-68104173D02*
X197099819Y-68199411D01*
X197099819Y-68199411D02*
X197099819Y-68389887D01*
X197099819Y-68389887D02*
X197052200Y-68485125D01*
X197052200Y-68485125D02*
X197004580Y-68532744D01*
X197004580Y-68532744D02*
X196909342Y-68580363D01*
X196909342Y-68580363D02*
X196623628Y-68580363D01*
X196623628Y-68580363D02*
X196528390Y-68532744D01*
X196528390Y-68532744D02*
X196480771Y-68485125D01*
X196480771Y-68485125D02*
X196433152Y-68389887D01*
X196433152Y-68389887D02*
X196433152Y-68199411D01*
X196433152Y-68199411D02*
X196480771Y-68104173D01*
X197099819Y-67532744D02*
X197052200Y-67627982D01*
X197052200Y-67627982D02*
X197004580Y-67675601D01*
X197004580Y-67675601D02*
X196909342Y-67723220D01*
X196909342Y-67723220D02*
X196623628Y-67723220D01*
X196623628Y-67723220D02*
X196528390Y-67675601D01*
X196528390Y-67675601D02*
X196480771Y-67627982D01*
X196480771Y-67627982D02*
X196433152Y-67532744D01*
X196433152Y-67532744D02*
X196433152Y-67389887D01*
X196433152Y-67389887D02*
X196480771Y-67294649D01*
X196480771Y-67294649D02*
X196528390Y-67247030D01*
X196528390Y-67247030D02*
X196623628Y-67199411D01*
X196623628Y-67199411D02*
X196909342Y-67199411D01*
X196909342Y-67199411D02*
X197004580Y-67247030D01*
X197004580Y-67247030D02*
X197052200Y-67294649D01*
X197052200Y-67294649D02*
X197099819Y-67389887D01*
X197099819Y-67389887D02*
X197099819Y-67532744D01*
X197099819Y-66770839D02*
X196433152Y-66770839D01*
X196528390Y-66770839D02*
X196480771Y-66723220D01*
X196480771Y-66723220D02*
X196433152Y-66627982D01*
X196433152Y-66627982D02*
X196433152Y-66485125D01*
X196433152Y-66485125D02*
X196480771Y-66389887D01*
X196480771Y-66389887D02*
X196576009Y-66342268D01*
X196576009Y-66342268D02*
X197099819Y-66342268D01*
X196576009Y-66342268D02*
X196480771Y-66294649D01*
X196480771Y-66294649D02*
X196433152Y-66199411D01*
X196433152Y-66199411D02*
X196433152Y-66056554D01*
X196433152Y-66056554D02*
X196480771Y-65961315D01*
X196480771Y-65961315D02*
X196576009Y-65913696D01*
X196576009Y-65913696D02*
X197099819Y-65913696D01*
X196433152Y-65437506D02*
X197433152Y-65437506D01*
X196480771Y-65437506D02*
X196433152Y-65342268D01*
X196433152Y-65342268D02*
X196433152Y-65151792D01*
X196433152Y-65151792D02*
X196480771Y-65056554D01*
X196480771Y-65056554D02*
X196528390Y-65008935D01*
X196528390Y-65008935D02*
X196623628Y-64961316D01*
X196623628Y-64961316D02*
X196909342Y-64961316D01*
X196909342Y-64961316D02*
X197004580Y-65008935D01*
X197004580Y-65008935D02*
X197052200Y-65056554D01*
X197052200Y-65056554D02*
X197099819Y-65151792D01*
X197099819Y-65151792D02*
X197099819Y-65342268D01*
X197099819Y-65342268D02*
X197052200Y-65437506D01*
X196433152Y-63866077D02*
X197099819Y-63627982D01*
X197099819Y-63627982D02*
X196433152Y-63389887D01*
X196195057Y-63056553D02*
X196147438Y-63008934D01*
X196147438Y-63008934D02*
X196099819Y-62913696D01*
X196099819Y-62913696D02*
X196099819Y-62675601D01*
X196099819Y-62675601D02*
X196147438Y-62580363D01*
X196147438Y-62580363D02*
X196195057Y-62532744D01*
X196195057Y-62532744D02*
X196290295Y-62485125D01*
X196290295Y-62485125D02*
X196385533Y-62485125D01*
X196385533Y-62485125D02*
X196528390Y-62532744D01*
X196528390Y-62532744D02*
X197099819Y-63104172D01*
X197099819Y-63104172D02*
X197099819Y-62485125D01*
X196099819Y-61913696D02*
X196337914Y-61913696D01*
X196242676Y-62151791D02*
X196337914Y-61913696D01*
X196337914Y-61913696D02*
X196242676Y-61675601D01*
X196528390Y-62056553D02*
X196337914Y-61913696D01*
X196337914Y-61913696D02*
X196528390Y-61770839D01*
X198662200Y-71770839D02*
X198709819Y-71627982D01*
X198709819Y-71627982D02*
X198709819Y-71389887D01*
X198709819Y-71389887D02*
X198662200Y-71294649D01*
X198662200Y-71294649D02*
X198614580Y-71247030D01*
X198614580Y-71247030D02*
X198519342Y-71199411D01*
X198519342Y-71199411D02*
X198424104Y-71199411D01*
X198424104Y-71199411D02*
X198328866Y-71247030D01*
X198328866Y-71247030D02*
X198281247Y-71294649D01*
X198281247Y-71294649D02*
X198233628Y-71389887D01*
X198233628Y-71389887D02*
X198186009Y-71580363D01*
X198186009Y-71580363D02*
X198138390Y-71675601D01*
X198138390Y-71675601D02*
X198090771Y-71723220D01*
X198090771Y-71723220D02*
X197995533Y-71770839D01*
X197995533Y-71770839D02*
X197900295Y-71770839D01*
X197900295Y-71770839D02*
X197805057Y-71723220D01*
X197805057Y-71723220D02*
X197757438Y-71675601D01*
X197757438Y-71675601D02*
X197709819Y-71580363D01*
X197709819Y-71580363D02*
X197709819Y-71342268D01*
X197709819Y-71342268D02*
X197757438Y-71199411D01*
X198043152Y-70770839D02*
X199043152Y-70770839D01*
X198090771Y-70770839D02*
X198043152Y-70675601D01*
X198043152Y-70675601D02*
X198043152Y-70485125D01*
X198043152Y-70485125D02*
X198090771Y-70389887D01*
X198090771Y-70389887D02*
X198138390Y-70342268D01*
X198138390Y-70342268D02*
X198233628Y-70294649D01*
X198233628Y-70294649D02*
X198519342Y-70294649D01*
X198519342Y-70294649D02*
X198614580Y-70342268D01*
X198614580Y-70342268D02*
X198662200Y-70389887D01*
X198662200Y-70389887D02*
X198709819Y-70485125D01*
X198709819Y-70485125D02*
X198709819Y-70675601D01*
X198709819Y-70675601D02*
X198662200Y-70770839D01*
X198709819Y-69723220D02*
X198662200Y-69818458D01*
X198662200Y-69818458D02*
X198566961Y-69866077D01*
X198566961Y-69866077D02*
X197709819Y-69866077D01*
X198709819Y-69342267D02*
X198043152Y-69342267D01*
X197709819Y-69342267D02*
X197757438Y-69389886D01*
X197757438Y-69389886D02*
X197805057Y-69342267D01*
X197805057Y-69342267D02*
X197757438Y-69294648D01*
X197757438Y-69294648D02*
X197709819Y-69342267D01*
X197709819Y-69342267D02*
X197805057Y-69342267D01*
X198043152Y-69008934D02*
X198043152Y-68627982D01*
X197709819Y-68866077D02*
X198566961Y-68866077D01*
X198566961Y-68866077D02*
X198662200Y-68818458D01*
X198662200Y-68818458D02*
X198709819Y-68723220D01*
X198709819Y-68723220D02*
X198709819Y-68627982D01*
X198043152Y-68437505D02*
X198043152Y-68056553D01*
X197709819Y-68294648D02*
X198566961Y-68294648D01*
X198566961Y-68294648D02*
X198662200Y-68247029D01*
X198662200Y-68247029D02*
X198709819Y-68151791D01*
X198709819Y-68151791D02*
X198709819Y-68056553D01*
X198662200Y-67342267D02*
X198709819Y-67437505D01*
X198709819Y-67437505D02*
X198709819Y-67627981D01*
X198709819Y-67627981D02*
X198662200Y-67723219D01*
X198662200Y-67723219D02*
X198566961Y-67770838D01*
X198566961Y-67770838D02*
X198186009Y-67770838D01*
X198186009Y-67770838D02*
X198090771Y-67723219D01*
X198090771Y-67723219D02*
X198043152Y-67627981D01*
X198043152Y-67627981D02*
X198043152Y-67437505D01*
X198043152Y-67437505D02*
X198090771Y-67342267D01*
X198090771Y-67342267D02*
X198186009Y-67294648D01*
X198186009Y-67294648D02*
X198281247Y-67294648D01*
X198281247Y-67294648D02*
X198376485Y-67770838D01*
X198709819Y-66866076D02*
X198043152Y-66866076D01*
X198233628Y-66866076D02*
X198138390Y-66818457D01*
X198138390Y-66818457D02*
X198090771Y-66770838D01*
X198090771Y-66770838D02*
X198043152Y-66675600D01*
X198043152Y-66675600D02*
X198043152Y-66580362D01*
X198186009Y-65151790D02*
X198233628Y-65008933D01*
X198233628Y-65008933D02*
X198281247Y-64961314D01*
X198281247Y-64961314D02*
X198376485Y-64913695D01*
X198376485Y-64913695D02*
X198519342Y-64913695D01*
X198519342Y-64913695D02*
X198614580Y-64961314D01*
X198614580Y-64961314D02*
X198662200Y-65008933D01*
X198662200Y-65008933D02*
X198709819Y-65104171D01*
X198709819Y-65104171D02*
X198709819Y-65485123D01*
X198709819Y-65485123D02*
X197709819Y-65485123D01*
X197709819Y-65485123D02*
X197709819Y-65151790D01*
X197709819Y-65151790D02*
X197757438Y-65056552D01*
X197757438Y-65056552D02*
X197805057Y-65008933D01*
X197805057Y-65008933D02*
X197900295Y-64961314D01*
X197900295Y-64961314D02*
X197995533Y-64961314D01*
X197995533Y-64961314D02*
X198090771Y-65008933D01*
X198090771Y-65008933D02*
X198138390Y-65056552D01*
X198138390Y-65056552D02*
X198186009Y-65151790D01*
X198186009Y-65151790D02*
X198186009Y-65485123D01*
X198709819Y-64342266D02*
X198662200Y-64437504D01*
X198662200Y-64437504D02*
X198614580Y-64485123D01*
X198614580Y-64485123D02*
X198519342Y-64532742D01*
X198519342Y-64532742D02*
X198233628Y-64532742D01*
X198233628Y-64532742D02*
X198138390Y-64485123D01*
X198138390Y-64485123D02*
X198090771Y-64437504D01*
X198090771Y-64437504D02*
X198043152Y-64342266D01*
X198043152Y-64342266D02*
X198043152Y-64199409D01*
X198043152Y-64199409D02*
X198090771Y-64104171D01*
X198090771Y-64104171D02*
X198138390Y-64056552D01*
X198138390Y-64056552D02*
X198233628Y-64008933D01*
X198233628Y-64008933D02*
X198519342Y-64008933D01*
X198519342Y-64008933D02*
X198614580Y-64056552D01*
X198614580Y-64056552D02*
X198662200Y-64104171D01*
X198662200Y-64104171D02*
X198709819Y-64199409D01*
X198709819Y-64199409D02*
X198709819Y-64342266D01*
X198709819Y-63151790D02*
X198186009Y-63151790D01*
X198186009Y-63151790D02*
X198090771Y-63199409D01*
X198090771Y-63199409D02*
X198043152Y-63294647D01*
X198043152Y-63294647D02*
X198043152Y-63485123D01*
X198043152Y-63485123D02*
X198090771Y-63580361D01*
X198662200Y-63151790D02*
X198709819Y-63247028D01*
X198709819Y-63247028D02*
X198709819Y-63485123D01*
X198709819Y-63485123D02*
X198662200Y-63580361D01*
X198662200Y-63580361D02*
X198566961Y-63627980D01*
X198566961Y-63627980D02*
X198471723Y-63627980D01*
X198471723Y-63627980D02*
X198376485Y-63580361D01*
X198376485Y-63580361D02*
X198328866Y-63485123D01*
X198328866Y-63485123D02*
X198328866Y-63247028D01*
X198328866Y-63247028D02*
X198281247Y-63151790D01*
X198709819Y-62675599D02*
X198043152Y-62675599D01*
X198233628Y-62675599D02*
X198138390Y-62627980D01*
X198138390Y-62627980D02*
X198090771Y-62580361D01*
X198090771Y-62580361D02*
X198043152Y-62485123D01*
X198043152Y-62485123D02*
X198043152Y-62389885D01*
X198709819Y-61627980D02*
X197709819Y-61627980D01*
X198662200Y-61627980D02*
X198709819Y-61723218D01*
X198709819Y-61723218D02*
X198709819Y-61913694D01*
X198709819Y-61913694D02*
X198662200Y-62008932D01*
X198662200Y-62008932D02*
X198614580Y-62056551D01*
X198614580Y-62056551D02*
X198519342Y-62104170D01*
X198519342Y-62104170D02*
X198233628Y-62104170D01*
X198233628Y-62104170D02*
X198138390Y-62056551D01*
X198138390Y-62056551D02*
X198090771Y-62008932D01*
X198090771Y-62008932D02*
X198043152Y-61913694D01*
X198043152Y-61913694D02*
X198043152Y-61723218D01*
X198043152Y-61723218D02*
X198090771Y-61627980D01*
X198043152Y-60485122D02*
X198709819Y-60247027D01*
X198709819Y-60247027D02*
X198043152Y-60008932D01*
X198709819Y-59104170D02*
X198709819Y-59675598D01*
X198709819Y-59389884D02*
X197709819Y-59389884D01*
X197709819Y-59389884D02*
X197852676Y-59485122D01*
X197852676Y-59485122D02*
X197947914Y-59580360D01*
X197947914Y-59580360D02*
X197995533Y-59675598D01*
X198614580Y-58675598D02*
X198662200Y-58627979D01*
X198662200Y-58627979D02*
X198709819Y-58675598D01*
X198709819Y-58675598D02*
X198662200Y-58723217D01*
X198662200Y-58723217D02*
X198614580Y-58675598D01*
X198614580Y-58675598D02*
X198709819Y-58675598D01*
X198709819Y-57675599D02*
X198709819Y-58247027D01*
X198709819Y-57961313D02*
X197709819Y-57961313D01*
X197709819Y-57961313D02*
X197852676Y-58056551D01*
X197852676Y-58056551D02*
X197947914Y-58151789D01*
X197947914Y-58151789D02*
X197995533Y-58247027D01*
D10*
X192332828Y-111618346D02*
X191618542Y-112118346D01*
X192332828Y-112475489D02*
X190832828Y-112475489D01*
X190832828Y-112475489D02*
X190832828Y-111904060D01*
X190832828Y-111904060D02*
X190904257Y-111761203D01*
X190904257Y-111761203D02*
X190975685Y-111689774D01*
X190975685Y-111689774D02*
X191118542Y-111618346D01*
X191118542Y-111618346D02*
X191332828Y-111618346D01*
X191332828Y-111618346D02*
X191475685Y-111689774D01*
X191475685Y-111689774D02*
X191547114Y-111761203D01*
X191547114Y-111761203D02*
X191618542Y-111904060D01*
X191618542Y-111904060D02*
X191618542Y-112475489D01*
X191904257Y-111046917D02*
X191904257Y-110332632D01*
X192332828Y-111189774D02*
X190832828Y-110689774D01*
X190832828Y-110689774D02*
X192332828Y-110189774D01*
X192332828Y-109689775D02*
X190832828Y-109689775D01*
X190832828Y-109689775D02*
X191904257Y-109189775D01*
X191904257Y-109189775D02*
X190832828Y-108689775D01*
X190832828Y-108689775D02*
X192332828Y-108689775D01*
X192332828Y-105975489D02*
X191618542Y-106475489D01*
X192332828Y-106832632D02*
X190832828Y-106832632D01*
X190832828Y-106832632D02*
X190832828Y-106261203D01*
X190832828Y-106261203D02*
X190904257Y-106118346D01*
X190904257Y-106118346D02*
X190975685Y-106046917D01*
X190975685Y-106046917D02*
X191118542Y-105975489D01*
X191118542Y-105975489D02*
X191332828Y-105975489D01*
X191332828Y-105975489D02*
X191475685Y-106046917D01*
X191475685Y-106046917D02*
X191547114Y-106118346D01*
X191547114Y-106118346D02*
X191618542Y-106261203D01*
X191618542Y-106261203D02*
X191618542Y-106832632D01*
X190832828Y-105046917D02*
X190832828Y-104761203D01*
X190832828Y-104761203D02*
X190904257Y-104618346D01*
X190904257Y-104618346D02*
X191047114Y-104475489D01*
X191047114Y-104475489D02*
X191332828Y-104404060D01*
X191332828Y-104404060D02*
X191832828Y-104404060D01*
X191832828Y-104404060D02*
X192118542Y-104475489D01*
X192118542Y-104475489D02*
X192261400Y-104618346D01*
X192261400Y-104618346D02*
X192332828Y-104761203D01*
X192332828Y-104761203D02*
X192332828Y-105046917D01*
X192332828Y-105046917D02*
X192261400Y-105189775D01*
X192261400Y-105189775D02*
X192118542Y-105332632D01*
X192118542Y-105332632D02*
X191832828Y-105404060D01*
X191832828Y-105404060D02*
X191332828Y-105404060D01*
X191332828Y-105404060D02*
X191047114Y-105332632D01*
X191047114Y-105332632D02*
X190904257Y-105189775D01*
X190904257Y-105189775D02*
X190832828Y-105046917D01*
X192332828Y-103761203D02*
X190832828Y-103761203D01*
X190832828Y-103761203D02*
X191904257Y-103261203D01*
X191904257Y-103261203D02*
X190832828Y-102761203D01*
X190832828Y-102761203D02*
X192332828Y-102761203D01*
X192261400Y-100975488D02*
X192332828Y-100761203D01*
X192332828Y-100761203D02*
X192332828Y-100404060D01*
X192332828Y-100404060D02*
X192261400Y-100261203D01*
X192261400Y-100261203D02*
X192189971Y-100189774D01*
X192189971Y-100189774D02*
X192047114Y-100118345D01*
X192047114Y-100118345D02*
X191904257Y-100118345D01*
X191904257Y-100118345D02*
X191761400Y-100189774D01*
X191761400Y-100189774D02*
X191689971Y-100261203D01*
X191689971Y-100261203D02*
X191618542Y-100404060D01*
X191618542Y-100404060D02*
X191547114Y-100689774D01*
X191547114Y-100689774D02*
X191475685Y-100832631D01*
X191475685Y-100832631D02*
X191404257Y-100904060D01*
X191404257Y-100904060D02*
X191261400Y-100975488D01*
X191261400Y-100975488D02*
X191118542Y-100975488D01*
X191118542Y-100975488D02*
X190975685Y-100904060D01*
X190975685Y-100904060D02*
X190904257Y-100832631D01*
X190904257Y-100832631D02*
X190832828Y-100689774D01*
X190832828Y-100689774D02*
X190832828Y-100332631D01*
X190832828Y-100332631D02*
X190904257Y-100118345D01*
X192332828Y-99475489D02*
X191332828Y-99475489D01*
X190832828Y-99475489D02*
X190904257Y-99546917D01*
X190904257Y-99546917D02*
X190975685Y-99475489D01*
X190975685Y-99475489D02*
X190904257Y-99404060D01*
X190904257Y-99404060D02*
X190832828Y-99475489D01*
X190832828Y-99475489D02*
X190975685Y-99475489D01*
X192332828Y-98118346D02*
X190832828Y-98118346D01*
X192261400Y-98118346D02*
X192332828Y-98261203D01*
X192332828Y-98261203D02*
X192332828Y-98546917D01*
X192332828Y-98546917D02*
X192261400Y-98689774D01*
X192261400Y-98689774D02*
X192189971Y-98761203D01*
X192189971Y-98761203D02*
X192047114Y-98832631D01*
X192047114Y-98832631D02*
X191618542Y-98832631D01*
X191618542Y-98832631D02*
X191475685Y-98761203D01*
X191475685Y-98761203D02*
X191404257Y-98689774D01*
X191404257Y-98689774D02*
X191332828Y-98546917D01*
X191332828Y-98546917D02*
X191332828Y-98261203D01*
X191332828Y-98261203D02*
X191404257Y-98118346D01*
X192261400Y-96832631D02*
X192332828Y-96975488D01*
X192332828Y-96975488D02*
X192332828Y-97261203D01*
X192332828Y-97261203D02*
X192261400Y-97404060D01*
X192261400Y-97404060D02*
X192118542Y-97475488D01*
X192118542Y-97475488D02*
X191547114Y-97475488D01*
X191547114Y-97475488D02*
X191404257Y-97404060D01*
X191404257Y-97404060D02*
X191332828Y-97261203D01*
X191332828Y-97261203D02*
X191332828Y-96975488D01*
X191332828Y-96975488D02*
X191404257Y-96832631D01*
X191404257Y-96832631D02*
X191547114Y-96761203D01*
X191547114Y-96761203D02*
X191689971Y-96761203D01*
X191689971Y-96761203D02*
X191832828Y-97475488D01*
X159304510Y-125784828D02*
X159304510Y-124284828D01*
X159304510Y-124284828D02*
X159804510Y-125356257D01*
X159804510Y-125356257D02*
X160304510Y-124284828D01*
X160304510Y-124284828D02*
X160304510Y-125784828D01*
X161661654Y-125784828D02*
X161661654Y-124999114D01*
X161661654Y-124999114D02*
X161590225Y-124856257D01*
X161590225Y-124856257D02*
X161447368Y-124784828D01*
X161447368Y-124784828D02*
X161161654Y-124784828D01*
X161161654Y-124784828D02*
X161018796Y-124856257D01*
X161661654Y-125713400D02*
X161518796Y-125784828D01*
X161518796Y-125784828D02*
X161161654Y-125784828D01*
X161161654Y-125784828D02*
X161018796Y-125713400D01*
X161018796Y-125713400D02*
X160947368Y-125570542D01*
X160947368Y-125570542D02*
X160947368Y-125427685D01*
X160947368Y-125427685D02*
X161018796Y-125284828D01*
X161018796Y-125284828D02*
X161161654Y-125213400D01*
X161161654Y-125213400D02*
X161518796Y-125213400D01*
X161518796Y-125213400D02*
X161661654Y-125141971D01*
X162304511Y-125713400D02*
X162447368Y-125784828D01*
X162447368Y-125784828D02*
X162733082Y-125784828D01*
X162733082Y-125784828D02*
X162875939Y-125713400D01*
X162875939Y-125713400D02*
X162947368Y-125570542D01*
X162947368Y-125570542D02*
X162947368Y-125499114D01*
X162947368Y-125499114D02*
X162875939Y-125356257D01*
X162875939Y-125356257D02*
X162733082Y-125284828D01*
X162733082Y-125284828D02*
X162518797Y-125284828D01*
X162518797Y-125284828D02*
X162375939Y-125213400D01*
X162375939Y-125213400D02*
X162304511Y-125070542D01*
X162304511Y-125070542D02*
X162304511Y-124999114D01*
X162304511Y-124999114D02*
X162375939Y-124856257D01*
X162375939Y-124856257D02*
X162518797Y-124784828D01*
X162518797Y-124784828D02*
X162733082Y-124784828D01*
X162733082Y-124784828D02*
X162875939Y-124856257D01*
X163375940Y-124784828D02*
X163947368Y-124784828D01*
X163590225Y-124284828D02*
X163590225Y-125570542D01*
X163590225Y-125570542D02*
X163661654Y-125713400D01*
X163661654Y-125713400D02*
X163804511Y-125784828D01*
X163804511Y-125784828D02*
X163947368Y-125784828D01*
X165018797Y-125713400D02*
X164875940Y-125784828D01*
X164875940Y-125784828D02*
X164590226Y-125784828D01*
X164590226Y-125784828D02*
X164447368Y-125713400D01*
X164447368Y-125713400D02*
X164375940Y-125570542D01*
X164375940Y-125570542D02*
X164375940Y-124999114D01*
X164375940Y-124999114D02*
X164447368Y-124856257D01*
X164447368Y-124856257D02*
X164590226Y-124784828D01*
X164590226Y-124784828D02*
X164875940Y-124784828D01*
X164875940Y-124784828D02*
X165018797Y-124856257D01*
X165018797Y-124856257D02*
X165090226Y-124999114D01*
X165090226Y-124999114D02*
X165090226Y-125141971D01*
X165090226Y-125141971D02*
X164375940Y-125284828D01*
X165733082Y-125784828D02*
X165733082Y-124784828D01*
X165733082Y-125070542D02*
X165804511Y-124927685D01*
X165804511Y-124927685D02*
X165875940Y-124856257D01*
X165875940Y-124856257D02*
X166018797Y-124784828D01*
X166018797Y-124784828D02*
X166161654Y-124784828D01*
X168875939Y-124213400D02*
X167590225Y-126141971D01*
X170447368Y-125713400D02*
X170661654Y-125784828D01*
X170661654Y-125784828D02*
X171018796Y-125784828D01*
X171018796Y-125784828D02*
X171161654Y-125713400D01*
X171161654Y-125713400D02*
X171233082Y-125641971D01*
X171233082Y-125641971D02*
X171304511Y-125499114D01*
X171304511Y-125499114D02*
X171304511Y-125356257D01*
X171304511Y-125356257D02*
X171233082Y-125213400D01*
X171233082Y-125213400D02*
X171161654Y-125141971D01*
X171161654Y-125141971D02*
X171018796Y-125070542D01*
X171018796Y-125070542D02*
X170733082Y-124999114D01*
X170733082Y-124999114D02*
X170590225Y-124927685D01*
X170590225Y-124927685D02*
X170518796Y-124856257D01*
X170518796Y-124856257D02*
X170447368Y-124713400D01*
X170447368Y-124713400D02*
X170447368Y-124570542D01*
X170447368Y-124570542D02*
X170518796Y-124427685D01*
X170518796Y-124427685D02*
X170590225Y-124356257D01*
X170590225Y-124356257D02*
X170733082Y-124284828D01*
X170733082Y-124284828D02*
X171090225Y-124284828D01*
X171090225Y-124284828D02*
X171304511Y-124356257D01*
X172161653Y-125784828D02*
X172018796Y-125713400D01*
X172018796Y-125713400D02*
X171947367Y-125570542D01*
X171947367Y-125570542D02*
X171947367Y-124284828D01*
X173375939Y-125784828D02*
X173375939Y-124999114D01*
X173375939Y-124999114D02*
X173304510Y-124856257D01*
X173304510Y-124856257D02*
X173161653Y-124784828D01*
X173161653Y-124784828D02*
X172875939Y-124784828D01*
X172875939Y-124784828D02*
X172733081Y-124856257D01*
X173375939Y-125713400D02*
X173233081Y-125784828D01*
X173233081Y-125784828D02*
X172875939Y-125784828D01*
X172875939Y-125784828D02*
X172733081Y-125713400D01*
X172733081Y-125713400D02*
X172661653Y-125570542D01*
X172661653Y-125570542D02*
X172661653Y-125427685D01*
X172661653Y-125427685D02*
X172733081Y-125284828D01*
X172733081Y-125284828D02*
X172875939Y-125213400D01*
X172875939Y-125213400D02*
X173233081Y-125213400D01*
X173233081Y-125213400D02*
X173375939Y-125141971D01*
X173947367Y-124784828D02*
X174304510Y-125784828D01*
X174304510Y-125784828D02*
X174661653Y-124784828D01*
X175804510Y-125713400D02*
X175661653Y-125784828D01*
X175661653Y-125784828D02*
X175375939Y-125784828D01*
X175375939Y-125784828D02*
X175233081Y-125713400D01*
X175233081Y-125713400D02*
X175161653Y-125570542D01*
X175161653Y-125570542D02*
X175161653Y-124999114D01*
X175161653Y-124999114D02*
X175233081Y-124856257D01*
X175233081Y-124856257D02*
X175375939Y-124784828D01*
X175375939Y-124784828D02*
X175661653Y-124784828D01*
X175661653Y-124784828D02*
X175804510Y-124856257D01*
X175804510Y-124856257D02*
X175875939Y-124999114D01*
X175875939Y-124999114D02*
X175875939Y-125141971D01*
X175875939Y-125141971D02*
X175161653Y-125284828D01*
X178518795Y-125641971D02*
X178447367Y-125713400D01*
X178447367Y-125713400D02*
X178233081Y-125784828D01*
X178233081Y-125784828D02*
X178090224Y-125784828D01*
X178090224Y-125784828D02*
X177875938Y-125713400D01*
X177875938Y-125713400D02*
X177733081Y-125570542D01*
X177733081Y-125570542D02*
X177661652Y-125427685D01*
X177661652Y-125427685D02*
X177590224Y-125141971D01*
X177590224Y-125141971D02*
X177590224Y-124927685D01*
X177590224Y-124927685D02*
X177661652Y-124641971D01*
X177661652Y-124641971D02*
X177733081Y-124499114D01*
X177733081Y-124499114D02*
X177875938Y-124356257D01*
X177875938Y-124356257D02*
X178090224Y-124284828D01*
X178090224Y-124284828D02*
X178233081Y-124284828D01*
X178233081Y-124284828D02*
X178447367Y-124356257D01*
X178447367Y-124356257D02*
X178518795Y-124427685D01*
X179161652Y-125784828D02*
X179161652Y-124284828D01*
X179161652Y-124284828D02*
X179733081Y-124284828D01*
X179733081Y-124284828D02*
X179875938Y-124356257D01*
X179875938Y-124356257D02*
X179947367Y-124427685D01*
X179947367Y-124427685D02*
X180018795Y-124570542D01*
X180018795Y-124570542D02*
X180018795Y-124784828D01*
X180018795Y-124784828D02*
X179947367Y-124927685D01*
X179947367Y-124927685D02*
X179875938Y-124999114D01*
X179875938Y-124999114D02*
X179733081Y-125070542D01*
X179733081Y-125070542D02*
X179161652Y-125070542D01*
X180661652Y-124284828D02*
X180661652Y-125499114D01*
X180661652Y-125499114D02*
X180733081Y-125641971D01*
X180733081Y-125641971D02*
X180804510Y-125713400D01*
X180804510Y-125713400D02*
X180947367Y-125784828D01*
X180947367Y-125784828D02*
X181233081Y-125784828D01*
X181233081Y-125784828D02*
X181375938Y-125713400D01*
X181375938Y-125713400D02*
X181447367Y-125641971D01*
X181447367Y-125641971D02*
X181518795Y-125499114D01*
X181518795Y-125499114D02*
X181518795Y-124284828D01*
X107641171Y-101995653D02*
X108355457Y-101495653D01*
X107641171Y-101138510D02*
X109141171Y-101138510D01*
X109141171Y-101138510D02*
X109141171Y-101709939D01*
X109141171Y-101709939D02*
X109069742Y-101852796D01*
X109069742Y-101852796D02*
X108998314Y-101924225D01*
X108998314Y-101924225D02*
X108855457Y-101995653D01*
X108855457Y-101995653D02*
X108641171Y-101995653D01*
X108641171Y-101995653D02*
X108498314Y-101924225D01*
X108498314Y-101924225D02*
X108426885Y-101852796D01*
X108426885Y-101852796D02*
X108355457Y-101709939D01*
X108355457Y-101709939D02*
X108355457Y-101138510D01*
X108069742Y-102567082D02*
X108069742Y-103281368D01*
X107641171Y-102424225D02*
X109141171Y-102924225D01*
X109141171Y-102924225D02*
X107641171Y-103424225D01*
X107641171Y-103924224D02*
X109141171Y-103924224D01*
X109141171Y-103924224D02*
X108069742Y-104424224D01*
X108069742Y-104424224D02*
X109141171Y-104924224D01*
X109141171Y-104924224D02*
X107641171Y-104924224D01*
X107641171Y-107638510D02*
X108355457Y-107138510D01*
X107641171Y-106781367D02*
X109141171Y-106781367D01*
X109141171Y-106781367D02*
X109141171Y-107352796D01*
X109141171Y-107352796D02*
X109069742Y-107495653D01*
X109069742Y-107495653D02*
X108998314Y-107567082D01*
X108998314Y-107567082D02*
X108855457Y-107638510D01*
X108855457Y-107638510D02*
X108641171Y-107638510D01*
X108641171Y-107638510D02*
X108498314Y-107567082D01*
X108498314Y-107567082D02*
X108426885Y-107495653D01*
X108426885Y-107495653D02*
X108355457Y-107352796D01*
X108355457Y-107352796D02*
X108355457Y-106781367D01*
X109141171Y-108567082D02*
X109141171Y-108852796D01*
X109141171Y-108852796D02*
X109069742Y-108995653D01*
X109069742Y-108995653D02*
X108926885Y-109138510D01*
X108926885Y-109138510D02*
X108641171Y-109209939D01*
X108641171Y-109209939D02*
X108141171Y-109209939D01*
X108141171Y-109209939D02*
X107855457Y-109138510D01*
X107855457Y-109138510D02*
X107712600Y-108995653D01*
X107712600Y-108995653D02*
X107641171Y-108852796D01*
X107641171Y-108852796D02*
X107641171Y-108567082D01*
X107641171Y-108567082D02*
X107712600Y-108424225D01*
X107712600Y-108424225D02*
X107855457Y-108281367D01*
X107855457Y-108281367D02*
X108141171Y-108209939D01*
X108141171Y-108209939D02*
X108641171Y-108209939D01*
X108641171Y-108209939D02*
X108926885Y-108281367D01*
X108926885Y-108281367D02*
X109069742Y-108424225D01*
X109069742Y-108424225D02*
X109141171Y-108567082D01*
X107641171Y-109852796D02*
X109141171Y-109852796D01*
X109141171Y-109852796D02*
X108069742Y-110352796D01*
X108069742Y-110352796D02*
X109141171Y-110852796D01*
X109141171Y-110852796D02*
X107641171Y-110852796D01*
X107712600Y-112638511D02*
X107641171Y-112852797D01*
X107641171Y-112852797D02*
X107641171Y-113209939D01*
X107641171Y-113209939D02*
X107712600Y-113352797D01*
X107712600Y-113352797D02*
X107784028Y-113424225D01*
X107784028Y-113424225D02*
X107926885Y-113495654D01*
X107926885Y-113495654D02*
X108069742Y-113495654D01*
X108069742Y-113495654D02*
X108212600Y-113424225D01*
X108212600Y-113424225D02*
X108284028Y-113352797D01*
X108284028Y-113352797D02*
X108355457Y-113209939D01*
X108355457Y-113209939D02*
X108426885Y-112924225D01*
X108426885Y-112924225D02*
X108498314Y-112781368D01*
X108498314Y-112781368D02*
X108569742Y-112709939D01*
X108569742Y-112709939D02*
X108712600Y-112638511D01*
X108712600Y-112638511D02*
X108855457Y-112638511D01*
X108855457Y-112638511D02*
X108998314Y-112709939D01*
X108998314Y-112709939D02*
X109069742Y-112781368D01*
X109069742Y-112781368D02*
X109141171Y-112924225D01*
X109141171Y-112924225D02*
X109141171Y-113281368D01*
X109141171Y-113281368D02*
X109069742Y-113495654D01*
X107641171Y-114138510D02*
X108641171Y-114138510D01*
X109141171Y-114138510D02*
X109069742Y-114067082D01*
X109069742Y-114067082D02*
X108998314Y-114138510D01*
X108998314Y-114138510D02*
X109069742Y-114209939D01*
X109069742Y-114209939D02*
X109141171Y-114138510D01*
X109141171Y-114138510D02*
X108998314Y-114138510D01*
X107641171Y-115495654D02*
X109141171Y-115495654D01*
X107712600Y-115495654D02*
X107641171Y-115352796D01*
X107641171Y-115352796D02*
X107641171Y-115067082D01*
X107641171Y-115067082D02*
X107712600Y-114924225D01*
X107712600Y-114924225D02*
X107784028Y-114852796D01*
X107784028Y-114852796D02*
X107926885Y-114781368D01*
X107926885Y-114781368D02*
X108355457Y-114781368D01*
X108355457Y-114781368D02*
X108498314Y-114852796D01*
X108498314Y-114852796D02*
X108569742Y-114924225D01*
X108569742Y-114924225D02*
X108641171Y-115067082D01*
X108641171Y-115067082D02*
X108641171Y-115352796D01*
X108641171Y-115352796D02*
X108569742Y-115495654D01*
X107712600Y-116781368D02*
X107641171Y-116638511D01*
X107641171Y-116638511D02*
X107641171Y-116352797D01*
X107641171Y-116352797D02*
X107712600Y-116209939D01*
X107712600Y-116209939D02*
X107855457Y-116138511D01*
X107855457Y-116138511D02*
X108426885Y-116138511D01*
X108426885Y-116138511D02*
X108569742Y-116209939D01*
X108569742Y-116209939D02*
X108641171Y-116352797D01*
X108641171Y-116352797D02*
X108641171Y-116638511D01*
X108641171Y-116638511D02*
X108569742Y-116781368D01*
X108569742Y-116781368D02*
X108426885Y-116852797D01*
X108426885Y-116852797D02*
X108284028Y-116852797D01*
X108284028Y-116852797D02*
X108141171Y-116138511D01*
D11*
X179403476Y-66482819D02*
X179403476Y-67197104D01*
X179403476Y-67197104D02*
X179355857Y-67339961D01*
X179355857Y-67339961D02*
X179260619Y-67435200D01*
X179260619Y-67435200D02*
X179117762Y-67482819D01*
X179117762Y-67482819D02*
X179022524Y-67482819D01*
X180403476Y-67482819D02*
X179832048Y-67482819D01*
X180117762Y-67482819D02*
X180117762Y-66482819D01*
X180117762Y-66482819D02*
X180022524Y-66625676D01*
X180022524Y-66625676D02*
X179927286Y-66720914D01*
X179927286Y-66720914D02*
X179832048Y-66768533D01*
X181260619Y-66816152D02*
X181260619Y-67482819D01*
X181022524Y-66435200D02*
X180784429Y-67149485D01*
X180784429Y-67149485D02*
X181403476Y-67149485D01*
X139044819Y-44560333D02*
X139759104Y-44560333D01*
X139759104Y-44560333D02*
X139901961Y-44607952D01*
X139901961Y-44607952D02*
X139997200Y-44703190D01*
X139997200Y-44703190D02*
X140044819Y-44846047D01*
X140044819Y-44846047D02*
X140044819Y-44941285D01*
X140044819Y-43560333D02*
X140044819Y-44131761D01*
X140044819Y-43846047D02*
X139044819Y-43846047D01*
X139044819Y-43846047D02*
X139187676Y-43941285D01*
X139187676Y-43941285D02*
X139282914Y-44036523D01*
X139282914Y-44036523D02*
X139330533Y-44131761D01*
X99508666Y-132344819D02*
X99508666Y-133059104D01*
X99508666Y-133059104D02*
X99461047Y-133201961D01*
X99461047Y-133201961D02*
X99365809Y-133297200D01*
X99365809Y-133297200D02*
X99222952Y-133344819D01*
X99222952Y-133344819D02*
X99127714Y-133344819D01*
X100413428Y-132344819D02*
X100222952Y-132344819D01*
X100222952Y-132344819D02*
X100127714Y-132392438D01*
X100127714Y-132392438D02*
X100080095Y-132440057D01*
X100080095Y-132440057D02*
X99984857Y-132582914D01*
X99984857Y-132582914D02*
X99937238Y-132773390D01*
X99937238Y-132773390D02*
X99937238Y-133154342D01*
X99937238Y-133154342D02*
X99984857Y-133249580D01*
X99984857Y-133249580D02*
X100032476Y-133297200D01*
X100032476Y-133297200D02*
X100127714Y-133344819D01*
X100127714Y-133344819D02*
X100318190Y-133344819D01*
X100318190Y-133344819D02*
X100413428Y-133297200D01*
X100413428Y-133297200D02*
X100461047Y-133249580D01*
X100461047Y-133249580D02*
X100508666Y-133154342D01*
X100508666Y-133154342D02*
X100508666Y-132916247D01*
X100508666Y-132916247D02*
X100461047Y-132821009D01*
X100461047Y-132821009D02*
X100413428Y-132773390D01*
X100413428Y-132773390D02*
X100318190Y-132725771D01*
X100318190Y-132725771D02*
X100127714Y-132725771D01*
X100127714Y-132725771D02*
X100032476Y-132773390D01*
X100032476Y-132773390D02*
X99984857Y-132821009D01*
X99984857Y-132821009D02*
X99937238Y-132916247D01*
X115124819Y-81105333D02*
X115839104Y-81105333D01*
X115839104Y-81105333D02*
X115981961Y-81152952D01*
X115981961Y-81152952D02*
X116077200Y-81248190D01*
X116077200Y-81248190D02*
X116124819Y-81391047D01*
X116124819Y-81391047D02*
X116124819Y-81486285D01*
X115124819Y-80724380D02*
X115124819Y-80057714D01*
X115124819Y-80057714D02*
X116124819Y-80486285D01*
X195238095Y-132254819D02*
X195238095Y-131254819D01*
X195238095Y-131731009D02*
X195809523Y-131731009D01*
X195809523Y-132254819D02*
X195809523Y-131254819D01*
X196809523Y-132254819D02*
X196238095Y-132254819D01*
X196523809Y-132254819D02*
X196523809Y-131254819D01*
X196523809Y-131254819D02*
X196428571Y-131397676D01*
X196428571Y-131397676D02*
X196333333Y-131492914D01*
X196333333Y-131492914D02*
X196238095Y-131540533D01*
X124843619Y-71518204D02*
X125653142Y-71518204D01*
X125653142Y-71518204D02*
X125748380Y-71470585D01*
X125748380Y-71470585D02*
X125796000Y-71422966D01*
X125796000Y-71422966D02*
X125843619Y-71327728D01*
X125843619Y-71327728D02*
X125843619Y-71137252D01*
X125843619Y-71137252D02*
X125796000Y-71042014D01*
X125796000Y-71042014D02*
X125748380Y-70994395D01*
X125748380Y-70994395D02*
X125653142Y-70946776D01*
X125653142Y-70946776D02*
X124843619Y-70946776D01*
X125843619Y-69946776D02*
X125843619Y-70518204D01*
X125843619Y-70232490D02*
X124843619Y-70232490D01*
X124843619Y-70232490D02*
X124986476Y-70327728D01*
X124986476Y-70327728D02*
X125081714Y-70422966D01*
X125081714Y-70422966D02*
X125129333Y-70518204D01*
X139044819Y-136106333D02*
X139759104Y-136106333D01*
X139759104Y-136106333D02*
X139901961Y-136153952D01*
X139901961Y-136153952D02*
X139997200Y-136249190D01*
X139997200Y-136249190D02*
X140044819Y-136392047D01*
X140044819Y-136392047D02*
X140044819Y-136487285D01*
X139140057Y-135677761D02*
X139092438Y-135630142D01*
X139092438Y-135630142D02*
X139044819Y-135534904D01*
X139044819Y-135534904D02*
X139044819Y-135296809D01*
X139044819Y-135296809D02*
X139092438Y-135201571D01*
X139092438Y-135201571D02*
X139140057Y-135153952D01*
X139140057Y-135153952D02*
X139235295Y-135106333D01*
X139235295Y-135106333D02*
X139330533Y-135106333D01*
X139330533Y-135106333D02*
X139473390Y-135153952D01*
X139473390Y-135153952D02*
X140044819Y-135725380D01*
X140044819Y-135725380D02*
X140044819Y-135106333D01*
X199824666Y-79544819D02*
X199824666Y-80259104D01*
X199824666Y-80259104D02*
X199777047Y-80401961D01*
X199777047Y-80401961D02*
X199681809Y-80497200D01*
X199681809Y-80497200D02*
X199538952Y-80544819D01*
X199538952Y-80544819D02*
X199443714Y-80544819D01*
X200777047Y-79544819D02*
X200300857Y-79544819D01*
X200300857Y-79544819D02*
X200253238Y-80021009D01*
X200253238Y-80021009D02*
X200300857Y-79973390D01*
X200300857Y-79973390D02*
X200396095Y-79925771D01*
X200396095Y-79925771D02*
X200634190Y-79925771D01*
X200634190Y-79925771D02*
X200729428Y-79973390D01*
X200729428Y-79973390D02*
X200777047Y-80021009D01*
X200777047Y-80021009D02*
X200824666Y-80116247D01*
X200824666Y-80116247D02*
X200824666Y-80354342D01*
X200824666Y-80354342D02*
X200777047Y-80449580D01*
X200777047Y-80449580D02*
X200729428Y-80497200D01*
X200729428Y-80497200D02*
X200634190Y-80544819D01*
X200634190Y-80544819D02*
X200396095Y-80544819D01*
X200396095Y-80544819D02*
X200300857Y-80497200D01*
X200300857Y-80497200D02*
X200253238Y-80449580D01*
X181537076Y-78677419D02*
X181537076Y-79391704D01*
X181537076Y-79391704D02*
X181489457Y-79534561D01*
X181489457Y-79534561D02*
X181394219Y-79629800D01*
X181394219Y-79629800D02*
X181251362Y-79677419D01*
X181251362Y-79677419D02*
X181156124Y-79677419D01*
X182537076Y-79677419D02*
X181965648Y-79677419D01*
X182251362Y-79677419D02*
X182251362Y-78677419D01*
X182251362Y-78677419D02*
X182156124Y-78820276D01*
X182156124Y-78820276D02*
X182060886Y-78915514D01*
X182060886Y-78915514D02*
X181965648Y-78963133D01*
X182870410Y-78677419D02*
X183537076Y-78677419D01*
X183537076Y-78677419D02*
X183108505Y-79677419D01*
X143980819Y-74701304D02*
X144790342Y-74701304D01*
X144790342Y-74701304D02*
X144885580Y-74653685D01*
X144885580Y-74653685D02*
X144933200Y-74606066D01*
X144933200Y-74606066D02*
X144980819Y-74510828D01*
X144980819Y-74510828D02*
X144980819Y-74320352D01*
X144980819Y-74320352D02*
X144933200Y-74225114D01*
X144933200Y-74225114D02*
X144885580Y-74177495D01*
X144885580Y-74177495D02*
X144790342Y-74129876D01*
X144790342Y-74129876D02*
X143980819Y-74129876D01*
X144076057Y-73701304D02*
X144028438Y-73653685D01*
X144028438Y-73653685D02*
X143980819Y-73558447D01*
X143980819Y-73558447D02*
X143980819Y-73320352D01*
X143980819Y-73320352D02*
X144028438Y-73225114D01*
X144028438Y-73225114D02*
X144076057Y-73177495D01*
X144076057Y-73177495D02*
X144171295Y-73129876D01*
X144171295Y-73129876D02*
X144266533Y-73129876D01*
X144266533Y-73129876D02*
X144409390Y-73177495D01*
X144409390Y-73177495D02*
X144980819Y-73748923D01*
X144980819Y-73748923D02*
X144980819Y-73129876D01*
X197478095Y-48321814D02*
X197478095Y-47321814D01*
X197478095Y-47798004D02*
X198049523Y-47798004D01*
X198049523Y-48321814D02*
X198049523Y-47321814D01*
X198430476Y-47321814D02*
X199049523Y-47321814D01*
X199049523Y-47321814D02*
X198716190Y-47702766D01*
X198716190Y-47702766D02*
X198859047Y-47702766D01*
X198859047Y-47702766D02*
X198954285Y-47750385D01*
X198954285Y-47750385D02*
X199001904Y-47798004D01*
X199001904Y-47798004D02*
X199049523Y-47893242D01*
X199049523Y-47893242D02*
X199049523Y-48131337D01*
X199049523Y-48131337D02*
X199001904Y-48226575D01*
X199001904Y-48226575D02*
X198954285Y-48274195D01*
X198954285Y-48274195D02*
X198859047Y-48321814D01*
X198859047Y-48321814D02*
X198573333Y-48321814D01*
X198573333Y-48321814D02*
X198478095Y-48274195D01*
X198478095Y-48274195D02*
X198430476Y-48226575D01*
X139053949Y-129932212D02*
X139768234Y-129932212D01*
X139768234Y-129932212D02*
X139911091Y-129979831D01*
X139911091Y-129979831D02*
X140006330Y-130075069D01*
X140006330Y-130075069D02*
X140053949Y-130217926D01*
X140053949Y-130217926D02*
X140053949Y-130313164D01*
X139387282Y-129027450D02*
X140053949Y-129027450D01*
X139006330Y-129265545D02*
X139720615Y-129503640D01*
X139720615Y-129503640D02*
X139720615Y-128884593D01*
X161710019Y-74650504D02*
X162519542Y-74650504D01*
X162519542Y-74650504D02*
X162614780Y-74602885D01*
X162614780Y-74602885D02*
X162662400Y-74555266D01*
X162662400Y-74555266D02*
X162710019Y-74460028D01*
X162710019Y-74460028D02*
X162710019Y-74269552D01*
X162710019Y-74269552D02*
X162662400Y-74174314D01*
X162662400Y-74174314D02*
X162614780Y-74126695D01*
X162614780Y-74126695D02*
X162519542Y-74079076D01*
X162519542Y-74079076D02*
X161710019Y-74079076D01*
X162043352Y-73174314D02*
X162710019Y-73174314D01*
X161662400Y-73412409D02*
X162376685Y-73650504D01*
X162376685Y-73650504D02*
X162376685Y-73031457D01*
X116377819Y-61744123D02*
X117092104Y-61744123D01*
X117092104Y-61744123D02*
X117234961Y-61791742D01*
X117234961Y-61791742D02*
X117330200Y-61886980D01*
X117330200Y-61886980D02*
X117377819Y-62029837D01*
X117377819Y-62029837D02*
X117377819Y-62125075D01*
X117377819Y-60744123D02*
X117377819Y-61315551D01*
X117377819Y-61029837D02*
X116377819Y-61029837D01*
X116377819Y-61029837D02*
X116520676Y-61125075D01*
X116520676Y-61125075D02*
X116615914Y-61220313D01*
X116615914Y-61220313D02*
X116663533Y-61315551D01*
X117377819Y-59791742D02*
X117377819Y-60363170D01*
X117377819Y-60077456D02*
X116377819Y-60077456D01*
X116377819Y-60077456D02*
X116520676Y-60172694D01*
X116520676Y-60172694D02*
X116615914Y-60267932D01*
X116615914Y-60267932D02*
X116663533Y-60363170D01*
X125124819Y-61293333D02*
X125839104Y-61293333D01*
X125839104Y-61293333D02*
X125981961Y-61340952D01*
X125981961Y-61340952D02*
X126077200Y-61436190D01*
X126077200Y-61436190D02*
X126124819Y-61579047D01*
X126124819Y-61579047D02*
X126124819Y-61674285D01*
X125553390Y-60674285D02*
X125505771Y-60769523D01*
X125505771Y-60769523D02*
X125458152Y-60817142D01*
X125458152Y-60817142D02*
X125362914Y-60864761D01*
X125362914Y-60864761D02*
X125315295Y-60864761D01*
X125315295Y-60864761D02*
X125220057Y-60817142D01*
X125220057Y-60817142D02*
X125172438Y-60769523D01*
X125172438Y-60769523D02*
X125124819Y-60674285D01*
X125124819Y-60674285D02*
X125124819Y-60483809D01*
X125124819Y-60483809D02*
X125172438Y-60388571D01*
X125172438Y-60388571D02*
X125220057Y-60340952D01*
X125220057Y-60340952D02*
X125315295Y-60293333D01*
X125315295Y-60293333D02*
X125362914Y-60293333D01*
X125362914Y-60293333D02*
X125458152Y-60340952D01*
X125458152Y-60340952D02*
X125505771Y-60388571D01*
X125505771Y-60388571D02*
X125553390Y-60483809D01*
X125553390Y-60483809D02*
X125553390Y-60674285D01*
X125553390Y-60674285D02*
X125601009Y-60769523D01*
X125601009Y-60769523D02*
X125648628Y-60817142D01*
X125648628Y-60817142D02*
X125743866Y-60864761D01*
X125743866Y-60864761D02*
X125934342Y-60864761D01*
X125934342Y-60864761D02*
X126029580Y-60817142D01*
X126029580Y-60817142D02*
X126077200Y-60769523D01*
X126077200Y-60769523D02*
X126124819Y-60674285D01*
X126124819Y-60674285D02*
X126124819Y-60483809D01*
X126124819Y-60483809D02*
X126077200Y-60388571D01*
X126077200Y-60388571D02*
X126029580Y-60340952D01*
X126029580Y-60340952D02*
X125934342Y-60293333D01*
X125934342Y-60293333D02*
X125743866Y-60293333D01*
X125743866Y-60293333D02*
X125648628Y-60340952D01*
X125648628Y-60340952D02*
X125601009Y-60388571D01*
X125601009Y-60388571D02*
X125553390Y-60483809D01*
X115184019Y-76679323D02*
X115898304Y-76679323D01*
X115898304Y-76679323D02*
X116041161Y-76726942D01*
X116041161Y-76726942D02*
X116136400Y-76822180D01*
X116136400Y-76822180D02*
X116184019Y-76965037D01*
X116184019Y-76965037D02*
X116184019Y-77060275D01*
X116184019Y-75679323D02*
X116184019Y-76250751D01*
X116184019Y-75965037D02*
X115184019Y-75965037D01*
X115184019Y-75965037D02*
X115326876Y-76060275D01*
X115326876Y-76060275D02*
X115422114Y-76155513D01*
X115422114Y-76155513D02*
X115469733Y-76250751D01*
X115279257Y-75298370D02*
X115231638Y-75250751D01*
X115231638Y-75250751D02*
X115184019Y-75155513D01*
X115184019Y-75155513D02*
X115184019Y-74917418D01*
X115184019Y-74917418D02*
X115231638Y-74822180D01*
X115231638Y-74822180D02*
X115279257Y-74774561D01*
X115279257Y-74774561D02*
X115374495Y-74726942D01*
X115374495Y-74726942D02*
X115469733Y-74726942D01*
X115469733Y-74726942D02*
X115612590Y-74774561D01*
X115612590Y-74774561D02*
X116184019Y-75345989D01*
X116184019Y-75345989D02*
X116184019Y-74726942D01*
X193375942Y-76794800D02*
X193375942Y-77509085D01*
X193375942Y-77509085D02*
X193328323Y-77651942D01*
X193328323Y-77651942D02*
X193233085Y-77747181D01*
X193233085Y-77747181D02*
X193090228Y-77794800D01*
X193090228Y-77794800D02*
X192994990Y-77794800D01*
X194375942Y-77794800D02*
X193804514Y-77794800D01*
X194090228Y-77794800D02*
X194090228Y-76794800D01*
X194090228Y-76794800D02*
X193994990Y-76937657D01*
X193994990Y-76937657D02*
X193899752Y-77032895D01*
X193899752Y-77032895D02*
X193804514Y-77080514D01*
X195280704Y-76794800D02*
X194804514Y-76794800D01*
X194804514Y-76794800D02*
X194756895Y-77270990D01*
X194756895Y-77270990D02*
X194804514Y-77223371D01*
X194804514Y-77223371D02*
X194899752Y-77175752D01*
X194899752Y-77175752D02*
X195137847Y-77175752D01*
X195137847Y-77175752D02*
X195233085Y-77223371D01*
X195233085Y-77223371D02*
X195280704Y-77270990D01*
X195280704Y-77270990D02*
X195328323Y-77366228D01*
X195328323Y-77366228D02*
X195328323Y-77604323D01*
X195328323Y-77604323D02*
X195280704Y-77699561D01*
X195280704Y-77699561D02*
X195233085Y-77747181D01*
X195233085Y-77747181D02*
X195137847Y-77794800D01*
X195137847Y-77794800D02*
X194899752Y-77794800D01*
X194899752Y-77794800D02*
X194804514Y-77747181D01*
X194804514Y-77747181D02*
X194756895Y-77699561D01*
X100704095Y-46924814D02*
X100704095Y-45924814D01*
X100704095Y-46401004D02*
X101275523Y-46401004D01*
X101275523Y-46924814D02*
X101275523Y-45924814D01*
X102180285Y-46258147D02*
X102180285Y-46924814D01*
X101942190Y-45877195D02*
X101704095Y-46591480D01*
X101704095Y-46591480D02*
X102323142Y-46591480D01*
X103238095Y-132254819D02*
X103238095Y-131254819D01*
X103238095Y-131731009D02*
X103809523Y-131731009D01*
X103809523Y-132254819D02*
X103809523Y-131254819D01*
X104238095Y-131350057D02*
X104285714Y-131302438D01*
X104285714Y-131302438D02*
X104380952Y-131254819D01*
X104380952Y-131254819D02*
X104619047Y-131254819D01*
X104619047Y-131254819D02*
X104714285Y-131302438D01*
X104714285Y-131302438D02*
X104761904Y-131350057D01*
X104761904Y-131350057D02*
X104809523Y-131445295D01*
X104809523Y-131445295D02*
X104809523Y-131540533D01*
X104809523Y-131540533D02*
X104761904Y-131683390D01*
X104761904Y-131683390D02*
X104190476Y-132254819D01*
X104190476Y-132254819D02*
X104809523Y-132254819D01*
X135207476Y-40812819D02*
X135207476Y-41527104D01*
X135207476Y-41527104D02*
X135159857Y-41669961D01*
X135159857Y-41669961D02*
X135064619Y-41765200D01*
X135064619Y-41765200D02*
X134921762Y-41812819D01*
X134921762Y-41812819D02*
X134826524Y-41812819D01*
X136207476Y-41812819D02*
X135636048Y-41812819D01*
X135921762Y-41812819D02*
X135921762Y-40812819D01*
X135921762Y-40812819D02*
X135826524Y-40955676D01*
X135826524Y-40955676D02*
X135731286Y-41050914D01*
X135731286Y-41050914D02*
X135636048Y-41098533D01*
X136826524Y-40812819D02*
X136921762Y-40812819D01*
X136921762Y-40812819D02*
X137017000Y-40860438D01*
X137017000Y-40860438D02*
X137064619Y-40908057D01*
X137064619Y-40908057D02*
X137112238Y-41003295D01*
X137112238Y-41003295D02*
X137159857Y-41193771D01*
X137159857Y-41193771D02*
X137159857Y-41431866D01*
X137159857Y-41431866D02*
X137112238Y-41622342D01*
X137112238Y-41622342D02*
X137064619Y-41717580D01*
X137064619Y-41717580D02*
X137017000Y-41765200D01*
X137017000Y-41765200D02*
X136921762Y-41812819D01*
X136921762Y-41812819D02*
X136826524Y-41812819D01*
X136826524Y-41812819D02*
X136731286Y-41765200D01*
X136731286Y-41765200D02*
X136683667Y-41717580D01*
X136683667Y-41717580D02*
X136636048Y-41622342D01*
X136636048Y-41622342D02*
X136588429Y-41431866D01*
X136588429Y-41431866D02*
X136588429Y-41193771D01*
X136588429Y-41193771D02*
X136636048Y-41003295D01*
X136636048Y-41003295D02*
X136683667Y-40908057D01*
X136683667Y-40908057D02*
X136731286Y-40860438D01*
X136731286Y-40860438D02*
X136826524Y-40812819D01*
X129372666Y-40812819D02*
X129372666Y-41527104D01*
X129372666Y-41527104D02*
X129325047Y-41669961D01*
X129325047Y-41669961D02*
X129229809Y-41765200D01*
X129229809Y-41765200D02*
X129086952Y-41812819D01*
X129086952Y-41812819D02*
X128991714Y-41812819D01*
X129896476Y-41812819D02*
X130086952Y-41812819D01*
X130086952Y-41812819D02*
X130182190Y-41765200D01*
X130182190Y-41765200D02*
X130229809Y-41717580D01*
X130229809Y-41717580D02*
X130325047Y-41574723D01*
X130325047Y-41574723D02*
X130372666Y-41384247D01*
X130372666Y-41384247D02*
X130372666Y-41003295D01*
X130372666Y-41003295D02*
X130325047Y-40908057D01*
X130325047Y-40908057D02*
X130277428Y-40860438D01*
X130277428Y-40860438D02*
X130182190Y-40812819D01*
X130182190Y-40812819D02*
X129991714Y-40812819D01*
X129991714Y-40812819D02*
X129896476Y-40860438D01*
X129896476Y-40860438D02*
X129848857Y-40908057D01*
X129848857Y-40908057D02*
X129801238Y-41003295D01*
X129801238Y-41003295D02*
X129801238Y-41241390D01*
X129801238Y-41241390D02*
X129848857Y-41336628D01*
X129848857Y-41336628D02*
X129896476Y-41384247D01*
X129896476Y-41384247D02*
X129991714Y-41431866D01*
X129991714Y-41431866D02*
X130182190Y-41431866D01*
X130182190Y-41431866D02*
X130277428Y-41384247D01*
X130277428Y-41384247D02*
X130325047Y-41336628D01*
X130325047Y-41336628D02*
X130372666Y-41241390D01*
X139045216Y-50727140D02*
X139759501Y-50727140D01*
X139759501Y-50727140D02*
X139902358Y-50774759D01*
X139902358Y-50774759D02*
X139997597Y-50869997D01*
X139997597Y-50869997D02*
X140045216Y-51012854D01*
X140045216Y-51012854D02*
X140045216Y-51108092D01*
X139045216Y-50346187D02*
X139045216Y-49727140D01*
X139045216Y-49727140D02*
X139426168Y-50060473D01*
X139426168Y-50060473D02*
X139426168Y-49917616D01*
X139426168Y-49917616D02*
X139473787Y-49822378D01*
X139473787Y-49822378D02*
X139521406Y-49774759D01*
X139521406Y-49774759D02*
X139616644Y-49727140D01*
X139616644Y-49727140D02*
X139854739Y-49727140D01*
X139854739Y-49727140D02*
X139949977Y-49774759D01*
X139949977Y-49774759D02*
X139997597Y-49822378D01*
X139997597Y-49822378D02*
X140045216Y-49917616D01*
X140045216Y-49917616D02*
X140045216Y-50203330D01*
X140045216Y-50203330D02*
X139997597Y-50298568D01*
X139997597Y-50298568D02*
X139949977Y-50346187D01*
X179403476Y-71308819D02*
X179403476Y-72023104D01*
X179403476Y-72023104D02*
X179355857Y-72165961D01*
X179355857Y-72165961D02*
X179260619Y-72261200D01*
X179260619Y-72261200D02*
X179117762Y-72308819D01*
X179117762Y-72308819D02*
X179022524Y-72308819D01*
X180403476Y-72308819D02*
X179832048Y-72308819D01*
X180117762Y-72308819D02*
X180117762Y-71308819D01*
X180117762Y-71308819D02*
X180022524Y-71451676D01*
X180022524Y-71451676D02*
X179927286Y-71546914D01*
X179927286Y-71546914D02*
X179832048Y-71594533D01*
X180736810Y-71308819D02*
X181355857Y-71308819D01*
X181355857Y-71308819D02*
X181022524Y-71689771D01*
X181022524Y-71689771D02*
X181165381Y-71689771D01*
X181165381Y-71689771D02*
X181260619Y-71737390D01*
X181260619Y-71737390D02*
X181308238Y-71785009D01*
X181308238Y-71785009D02*
X181355857Y-71880247D01*
X181355857Y-71880247D02*
X181355857Y-72118342D01*
X181355857Y-72118342D02*
X181308238Y-72213580D01*
X181308238Y-72213580D02*
X181260619Y-72261200D01*
X181260619Y-72261200D02*
X181165381Y-72308819D01*
X181165381Y-72308819D02*
X180879667Y-72308819D01*
X180879667Y-72308819D02*
X180784429Y-72261200D01*
X180784429Y-72261200D02*
X180736810Y-72213580D01*
X182451476Y-71308819D02*
X182451476Y-72023104D01*
X182451476Y-72023104D02*
X182403857Y-72165961D01*
X182403857Y-72165961D02*
X182308619Y-72261200D01*
X182308619Y-72261200D02*
X182165762Y-72308819D01*
X182165762Y-72308819D02*
X182070524Y-72308819D01*
X183451476Y-72308819D02*
X182880048Y-72308819D01*
X183165762Y-72308819D02*
X183165762Y-71308819D01*
X183165762Y-71308819D02*
X183070524Y-71451676D01*
X183070524Y-71451676D02*
X182975286Y-71546914D01*
X182975286Y-71546914D02*
X182880048Y-71594533D01*
X184308619Y-71308819D02*
X184118143Y-71308819D01*
X184118143Y-71308819D02*
X184022905Y-71356438D01*
X184022905Y-71356438D02*
X183975286Y-71404057D01*
X183975286Y-71404057D02*
X183880048Y-71546914D01*
X183880048Y-71546914D02*
X183832429Y-71737390D01*
X183832429Y-71737390D02*
X183832429Y-72118342D01*
X183832429Y-72118342D02*
X183880048Y-72213580D01*
X183880048Y-72213580D02*
X183927667Y-72261200D01*
X183927667Y-72261200D02*
X184022905Y-72308819D01*
X184022905Y-72308819D02*
X184213381Y-72308819D01*
X184213381Y-72308819D02*
X184308619Y-72261200D01*
X184308619Y-72261200D02*
X184356238Y-72213580D01*
X184356238Y-72213580D02*
X184403857Y-72118342D01*
X184403857Y-72118342D02*
X184403857Y-71880247D01*
X184403857Y-71880247D02*
X184356238Y-71785009D01*
X184356238Y-71785009D02*
X184308619Y-71737390D01*
X184308619Y-71737390D02*
X184213381Y-71689771D01*
X184213381Y-71689771D02*
X184022905Y-71689771D01*
X184022905Y-71689771D02*
X183927667Y-71737390D01*
X183927667Y-71737390D02*
X183880048Y-71785009D01*
X183880048Y-71785009D02*
X183832429Y-71880247D01*
D12*
%TO.C,J14*%
X179153000Y-68028000D02*
X180213000Y-68028000D01*
X179153000Y-69088000D02*
X179153000Y-68028000D01*
X179153000Y-70088000D02*
X179153000Y-70148000D01*
X179153000Y-70088000D02*
X181273000Y-70088000D01*
X179153000Y-70148000D02*
X181273000Y-70148000D01*
X181273000Y-70088000D02*
X181273000Y-70148000D01*
%TO.C,J1*%
X141030000Y-46827000D02*
X191950000Y-46827000D01*
X141030000Y-46827000D02*
X141030000Y-44227000D01*
X191950000Y-46827000D02*
X191950000Y-41627000D01*
X141030000Y-44227000D02*
X143630000Y-44227000D01*
X143630000Y-44227000D02*
X143630000Y-41627000D01*
X141030000Y-42957000D02*
X141030000Y-41627000D01*
X141030000Y-41627000D02*
X142360000Y-41627000D01*
X143630000Y-41627000D02*
X191950000Y-41627000D01*
%TO.C,J6*%
X106767000Y-131890000D02*
X105497000Y-131890000D01*
X106767000Y-130620000D02*
X106767000Y-131890000D01*
X104454071Y-128460000D02*
X103999929Y-128460000D01*
X104454071Y-127700000D02*
X103999929Y-127700000D01*
X104454071Y-125920000D02*
X103999929Y-125920000D01*
X104454071Y-125160000D02*
X103999929Y-125160000D01*
X104454071Y-123380000D02*
X103999929Y-123380000D01*
X104454071Y-122620000D02*
X103999929Y-122620000D01*
X104454071Y-120840000D02*
X103999929Y-120840000D01*
X104454071Y-120080000D02*
X103999929Y-120080000D01*
X104454071Y-118300000D02*
X103999929Y-118300000D01*
X104454071Y-117540000D02*
X103999929Y-117540000D01*
X104454071Y-115760000D02*
X103999929Y-115760000D01*
X104454071Y-115000000D02*
X103999929Y-115000000D01*
X104454071Y-113220000D02*
X103999929Y-113220000D01*
X104454071Y-112460000D02*
X103999929Y-112460000D01*
X104454071Y-110680000D02*
X103999929Y-110680000D01*
X104454071Y-109920000D02*
X103999929Y-109920000D01*
X104454071Y-108140000D02*
X103999929Y-108140000D01*
X104454071Y-107380000D02*
X103999929Y-107380000D01*
X104454071Y-105600000D02*
X103999929Y-105600000D01*
X104454071Y-104840000D02*
X103999929Y-104840000D01*
X104454071Y-103060000D02*
X103999929Y-103060000D01*
X104454071Y-102300000D02*
X103999929Y-102300000D01*
X104454071Y-100520000D02*
X103999929Y-100520000D01*
X104454071Y-99760000D02*
X103999929Y-99760000D01*
X104454071Y-97980000D02*
X103999929Y-97980000D01*
X104454071Y-97220000D02*
X103999929Y-97220000D01*
X104454071Y-95440000D02*
X103999929Y-95440000D01*
X104454071Y-94680000D02*
X103999929Y-94680000D01*
X104454071Y-92900000D02*
X103999929Y-92900000D01*
X104454071Y-92140000D02*
X103999929Y-92140000D01*
X104454071Y-90360000D02*
X103999929Y-90360000D01*
X104454071Y-89600000D02*
X103999929Y-89600000D01*
X104454071Y-87820000D02*
X103999929Y-87820000D01*
X104454071Y-87060000D02*
X103999929Y-87060000D01*
X104454071Y-85280000D02*
X103999929Y-85280000D01*
X104454071Y-84520000D02*
X103999929Y-84520000D01*
X104454071Y-82740000D02*
X103999929Y-82740000D01*
X104454071Y-81980000D02*
X103999929Y-81980000D01*
X104387000Y-131000000D02*
X103999929Y-131000000D01*
X104387000Y-130240000D02*
X103999929Y-130240000D01*
X101914071Y-131000000D02*
X101517000Y-131000000D01*
X101914071Y-130240000D02*
X101517000Y-130240000D01*
X101914071Y-128460000D02*
X101517000Y-128460000D01*
X101914071Y-127700000D02*
X101517000Y-127700000D01*
X101914071Y-125920000D02*
X101517000Y-125920000D01*
X101914071Y-125160000D02*
X101517000Y-125160000D01*
X101914071Y-123380000D02*
X101517000Y-123380000D01*
X101914071Y-122620000D02*
X101517000Y-122620000D01*
X101914071Y-120840000D02*
X101517000Y-120840000D01*
X101914071Y-120080000D02*
X101517000Y-120080000D01*
X101914071Y-118300000D02*
X101517000Y-118300000D01*
X101914071Y-117540000D02*
X101517000Y-117540000D01*
X101914071Y-115760000D02*
X101517000Y-115760000D01*
X101914071Y-115000000D02*
X101517000Y-115000000D01*
X101914071Y-113220000D02*
X101517000Y-113220000D01*
X101914071Y-112460000D02*
X101517000Y-112460000D01*
X101914071Y-110680000D02*
X101517000Y-110680000D01*
X101914071Y-109920000D02*
X101517000Y-109920000D01*
X101914071Y-108140000D02*
X101517000Y-108140000D01*
X101914071Y-107380000D02*
X101517000Y-107380000D01*
X101914071Y-105600000D02*
X101517000Y-105600000D01*
X101914071Y-104840000D02*
X101517000Y-104840000D01*
X101914071Y-103060000D02*
X101517000Y-103060000D01*
X101914071Y-102300000D02*
X101517000Y-102300000D01*
X101914071Y-100520000D02*
X101517000Y-100520000D01*
X101914071Y-99760000D02*
X101517000Y-99760000D01*
X101914071Y-97980000D02*
X101517000Y-97980000D01*
X101914071Y-97220000D02*
X101517000Y-97220000D01*
X101914071Y-95440000D02*
X101517000Y-95440000D01*
X101914071Y-94680000D02*
X101517000Y-94680000D01*
X101914071Y-92900000D02*
X101517000Y-92900000D01*
X101914071Y-92140000D02*
X101517000Y-92140000D01*
X101914071Y-90360000D02*
X101517000Y-90360000D01*
X101914071Y-89600000D02*
X101517000Y-89600000D01*
X101914071Y-87820000D02*
X101517000Y-87820000D01*
X101914071Y-87060000D02*
X101517000Y-87060000D01*
X101914071Y-85280000D02*
X101517000Y-85280000D01*
X101914071Y-84520000D02*
X101517000Y-84520000D01*
X101914071Y-82740000D02*
X101517000Y-82740000D01*
X101914071Y-81980000D02*
X101517000Y-81980000D01*
X101517000Y-131950000D02*
X101517000Y-81030000D01*
X101517000Y-129350000D02*
X98857000Y-129350000D01*
X101517000Y-126810000D02*
X98857000Y-126810000D01*
X101517000Y-124270000D02*
X98857000Y-124270000D01*
X101517000Y-121730000D02*
X98857000Y-121730000D01*
X101517000Y-119190000D02*
X98857000Y-119190000D01*
X101517000Y-116650000D02*
X98857000Y-116650000D01*
X101517000Y-114110000D02*
X98857000Y-114110000D01*
X101517000Y-111570000D02*
X98857000Y-111570000D01*
X101517000Y-109030000D02*
X98857000Y-109030000D01*
X101517000Y-106490000D02*
X98857000Y-106490000D01*
X101517000Y-103950000D02*
X98857000Y-103950000D01*
X101517000Y-101410000D02*
X98857000Y-101410000D01*
X101517000Y-98870000D02*
X98857000Y-98870000D01*
X101517000Y-96330000D02*
X98857000Y-96330000D01*
X101517000Y-93790000D02*
X98857000Y-93790000D01*
X101517000Y-91250000D02*
X98857000Y-91250000D01*
X101517000Y-88710000D02*
X98857000Y-88710000D01*
X101517000Y-86170000D02*
X98857000Y-86170000D01*
X101517000Y-83630000D02*
X98857000Y-83630000D01*
X101517000Y-81030000D02*
X98857000Y-81030000D01*
X98857000Y-131950000D02*
X101517000Y-131950000D01*
X98857000Y-131000000D02*
X92857000Y-131000000D01*
X98857000Y-130940000D02*
X92857000Y-130940000D01*
X98857000Y-130820000D02*
X92857000Y-130820000D01*
X98857000Y-130700000D02*
X92857000Y-130700000D01*
X98857000Y-130580000D02*
X92857000Y-130580000D01*
X98857000Y-130460000D02*
X92857000Y-130460000D01*
X98857000Y-130340000D02*
X92857000Y-130340000D01*
X98857000Y-128460000D02*
X92857000Y-128460000D01*
X98857000Y-125920000D02*
X92857000Y-125920000D01*
X98857000Y-123380000D02*
X92857000Y-123380000D01*
X98857000Y-120840000D02*
X92857000Y-120840000D01*
X98857000Y-118300000D02*
X92857000Y-118300000D01*
X98857000Y-115760000D02*
X92857000Y-115760000D01*
X98857000Y-113220000D02*
X92857000Y-113220000D01*
X98857000Y-110680000D02*
X92857000Y-110680000D01*
X98857000Y-108140000D02*
X92857000Y-108140000D01*
X98857000Y-105600000D02*
X92857000Y-105600000D01*
X98857000Y-103060000D02*
X92857000Y-103060000D01*
X98857000Y-100520000D02*
X92857000Y-100520000D01*
X98857000Y-97980000D02*
X92857000Y-97980000D01*
X98857000Y-95440000D02*
X92857000Y-95440000D01*
X98857000Y-92900000D02*
X92857000Y-92900000D01*
X98857000Y-90360000D02*
X92857000Y-90360000D01*
X98857000Y-87820000D02*
X92857000Y-87820000D01*
X98857000Y-85280000D02*
X92857000Y-85280000D01*
X98857000Y-82740000D02*
X92857000Y-82740000D01*
X98857000Y-81030000D02*
X98857000Y-131950000D01*
X92857000Y-131000000D02*
X92857000Y-130240000D01*
X92857000Y-130240000D02*
X98857000Y-130240000D01*
X92857000Y-128460000D02*
X92857000Y-127700000D01*
X92857000Y-127700000D02*
X98857000Y-127700000D01*
X92857000Y-125920000D02*
X92857000Y-125160000D01*
X92857000Y-125160000D02*
X98857000Y-125160000D01*
X92857000Y-123380000D02*
X92857000Y-122620000D01*
X92857000Y-122620000D02*
X98857000Y-122620000D01*
X92857000Y-120840000D02*
X92857000Y-120080000D01*
X92857000Y-120080000D02*
X98857000Y-120080000D01*
X92857000Y-118300000D02*
X92857000Y-117540000D01*
X92857000Y-117540000D02*
X98857000Y-117540000D01*
X92857000Y-115760000D02*
X92857000Y-115000000D01*
X92857000Y-115000000D02*
X98857000Y-115000000D01*
X92857000Y-113220000D02*
X92857000Y-112460000D01*
X92857000Y-112460000D02*
X98857000Y-112460000D01*
X92857000Y-110680000D02*
X92857000Y-109920000D01*
X92857000Y-109920000D02*
X98857000Y-109920000D01*
X92857000Y-108140000D02*
X92857000Y-107380000D01*
X92857000Y-107380000D02*
X98857000Y-107380000D01*
X92857000Y-105600000D02*
X92857000Y-104840000D01*
X92857000Y-104840000D02*
X98857000Y-104840000D01*
X92857000Y-103060000D02*
X92857000Y-102300000D01*
X92857000Y-102300000D02*
X98857000Y-102300000D01*
X92857000Y-100520000D02*
X92857000Y-99760000D01*
X92857000Y-99760000D02*
X98857000Y-99760000D01*
X92857000Y-97980000D02*
X92857000Y-97220000D01*
X92857000Y-97220000D02*
X98857000Y-97220000D01*
X92857000Y-95440000D02*
X92857000Y-94680000D01*
X92857000Y-94680000D02*
X98857000Y-94680000D01*
X92857000Y-92900000D02*
X92857000Y-92140000D01*
X92857000Y-92140000D02*
X98857000Y-92140000D01*
X92857000Y-90360000D02*
X92857000Y-89600000D01*
X92857000Y-89600000D02*
X98857000Y-89600000D01*
X92857000Y-87820000D02*
X92857000Y-87060000D01*
X92857000Y-87060000D02*
X98857000Y-87060000D01*
X92857000Y-85280000D02*
X92857000Y-84520000D01*
X92857000Y-84520000D02*
X98857000Y-84520000D01*
X92857000Y-82740000D02*
X92857000Y-81980000D01*
X92857000Y-81980000D02*
X98857000Y-81980000D01*
%TO.C,J7*%
X116670000Y-82102000D02*
X116670000Y-80772000D01*
X118000000Y-82102000D02*
X116670000Y-82102000D01*
X119270000Y-82102000D02*
X170130000Y-82102000D01*
X119270000Y-82102000D02*
X119270000Y-79442000D01*
X170130000Y-82102000D02*
X170130000Y-79442000D01*
X119270000Y-79442000D02*
X170130000Y-79442000D01*
%TO.C,U1*%
X126228800Y-70756300D02*
X126228800Y-75206300D01*
X126228800Y-70756300D02*
X126228800Y-68106300D01*
X139048800Y-70756300D02*
X139048800Y-73406300D01*
X139048800Y-70756300D02*
X139048800Y-68106300D01*
%TO.C,J2*%
X141030000Y-138373000D02*
X191950000Y-138373000D01*
X141030000Y-138373000D02*
X141030000Y-135773000D01*
X191950000Y-138373000D02*
X191950000Y-133173000D01*
X141030000Y-135773000D02*
X143630000Y-135773000D01*
X143630000Y-135773000D02*
X143630000Y-133173000D01*
X141030000Y-134503000D02*
X141030000Y-133173000D01*
X141030000Y-133173000D02*
X142360000Y-133173000D01*
X143630000Y-133173000D02*
X191950000Y-133173000D01*
%TO.C,J5*%
X193233000Y-81090000D02*
X194503000Y-81090000D01*
X193233000Y-82360000D02*
X193233000Y-81090000D01*
X195545929Y-84520000D02*
X196000071Y-84520000D01*
X195545929Y-85280000D02*
X196000071Y-85280000D01*
X195545929Y-87060000D02*
X196000071Y-87060000D01*
X195545929Y-87820000D02*
X196000071Y-87820000D01*
X195545929Y-89600000D02*
X196000071Y-89600000D01*
X195545929Y-90360000D02*
X196000071Y-90360000D01*
X195545929Y-92140000D02*
X196000071Y-92140000D01*
X195545929Y-92900000D02*
X196000071Y-92900000D01*
X195545929Y-94680000D02*
X196000071Y-94680000D01*
X195545929Y-95440000D02*
X196000071Y-95440000D01*
X195545929Y-97220000D02*
X196000071Y-97220000D01*
X195545929Y-97980000D02*
X196000071Y-97980000D01*
X195545929Y-99760000D02*
X196000071Y-99760000D01*
X195545929Y-100520000D02*
X196000071Y-100520000D01*
X195545929Y-102300000D02*
X196000071Y-102300000D01*
X195545929Y-103060000D02*
X196000071Y-103060000D01*
X195545929Y-104840000D02*
X196000071Y-104840000D01*
X195545929Y-105600000D02*
X196000071Y-105600000D01*
X195545929Y-107380000D02*
X196000071Y-107380000D01*
X195545929Y-108140000D02*
X196000071Y-108140000D01*
X195545929Y-109920000D02*
X196000071Y-109920000D01*
X195545929Y-110680000D02*
X196000071Y-110680000D01*
X195545929Y-112460000D02*
X196000071Y-112460000D01*
X195545929Y-113220000D02*
X196000071Y-113220000D01*
X195545929Y-115000000D02*
X196000071Y-115000000D01*
X195545929Y-115760000D02*
X196000071Y-115760000D01*
X195545929Y-117540000D02*
X196000071Y-117540000D01*
X195545929Y-118300000D02*
X196000071Y-118300000D01*
X195545929Y-120080000D02*
X196000071Y-120080000D01*
X195545929Y-120840000D02*
X196000071Y-120840000D01*
X195545929Y-122620000D02*
X196000071Y-122620000D01*
X195545929Y-123380000D02*
X196000071Y-123380000D01*
X195545929Y-125160000D02*
X196000071Y-125160000D01*
X195545929Y-125920000D02*
X196000071Y-125920000D01*
X195545929Y-127700000D02*
X196000071Y-127700000D01*
X195545929Y-128460000D02*
X196000071Y-128460000D01*
X195545929Y-130240000D02*
X196000071Y-130240000D01*
X195545929Y-131000000D02*
X196000071Y-131000000D01*
X195613000Y-81980000D02*
X196000071Y-81980000D01*
X195613000Y-82740000D02*
X196000071Y-82740000D01*
X198085929Y-81980000D02*
X198483000Y-81980000D01*
X198085929Y-82740000D02*
X198483000Y-82740000D01*
X198085929Y-84520000D02*
X198483000Y-84520000D01*
X198085929Y-85280000D02*
X198483000Y-85280000D01*
X198085929Y-87060000D02*
X198483000Y-87060000D01*
X198085929Y-87820000D02*
X198483000Y-87820000D01*
X198085929Y-89600000D02*
X198483000Y-89600000D01*
X198085929Y-90360000D02*
X198483000Y-90360000D01*
X198085929Y-92140000D02*
X198483000Y-92140000D01*
X198085929Y-92900000D02*
X198483000Y-92900000D01*
X198085929Y-94680000D02*
X198483000Y-94680000D01*
X198085929Y-95440000D02*
X198483000Y-95440000D01*
X198085929Y-97220000D02*
X198483000Y-97220000D01*
X198085929Y-97980000D02*
X198483000Y-97980000D01*
X198085929Y-99760000D02*
X198483000Y-99760000D01*
X198085929Y-100520000D02*
X198483000Y-100520000D01*
X198085929Y-102300000D02*
X198483000Y-102300000D01*
X198085929Y-103060000D02*
X198483000Y-103060000D01*
X198085929Y-104840000D02*
X198483000Y-104840000D01*
X198085929Y-105600000D02*
X198483000Y-105600000D01*
X198085929Y-107380000D02*
X198483000Y-107380000D01*
X198085929Y-108140000D02*
X198483000Y-108140000D01*
X198085929Y-109920000D02*
X198483000Y-109920000D01*
X198085929Y-110680000D02*
X198483000Y-110680000D01*
X198085929Y-112460000D02*
X198483000Y-112460000D01*
X198085929Y-113220000D02*
X198483000Y-113220000D01*
X198085929Y-115000000D02*
X198483000Y-115000000D01*
X198085929Y-115760000D02*
X198483000Y-115760000D01*
X198085929Y-117540000D02*
X198483000Y-117540000D01*
X198085929Y-118300000D02*
X198483000Y-118300000D01*
X198085929Y-120080000D02*
X198483000Y-120080000D01*
X198085929Y-120840000D02*
X198483000Y-120840000D01*
X198085929Y-122620000D02*
X198483000Y-122620000D01*
X198085929Y-123380000D02*
X198483000Y-123380000D01*
X198085929Y-125160000D02*
X198483000Y-125160000D01*
X198085929Y-125920000D02*
X198483000Y-125920000D01*
X198085929Y-127700000D02*
X198483000Y-127700000D01*
X198085929Y-128460000D02*
X198483000Y-128460000D01*
X198085929Y-130240000D02*
X198483000Y-130240000D01*
X198085929Y-131000000D02*
X198483000Y-131000000D01*
X198483000Y-81030000D02*
X198483000Y-131950000D01*
X198483000Y-83630000D02*
X201143000Y-83630000D01*
X198483000Y-86170000D02*
X201143000Y-86170000D01*
X198483000Y-88710000D02*
X201143000Y-88710000D01*
X198483000Y-91250000D02*
X201143000Y-91250000D01*
X198483000Y-93790000D02*
X201143000Y-93790000D01*
X198483000Y-96330000D02*
X201143000Y-96330000D01*
X198483000Y-98870000D02*
X201143000Y-98870000D01*
X198483000Y-101410000D02*
X201143000Y-101410000D01*
X198483000Y-103950000D02*
X201143000Y-103950000D01*
X198483000Y-106490000D02*
X201143000Y-106490000D01*
X198483000Y-109030000D02*
X201143000Y-109030000D01*
X198483000Y-111570000D02*
X201143000Y-111570000D01*
X198483000Y-114110000D02*
X201143000Y-114110000D01*
X198483000Y-116650000D02*
X201143000Y-116650000D01*
X198483000Y-119190000D02*
X201143000Y-119190000D01*
X198483000Y-121730000D02*
X201143000Y-121730000D01*
X198483000Y-124270000D02*
X201143000Y-124270000D01*
X198483000Y-126810000D02*
X201143000Y-126810000D01*
X198483000Y-129350000D02*
X201143000Y-129350000D01*
X198483000Y-131950000D02*
X201143000Y-131950000D01*
X201143000Y-81030000D02*
X198483000Y-81030000D01*
X201143000Y-81980000D02*
X207143000Y-81980000D01*
X201143000Y-82040000D02*
X207143000Y-82040000D01*
X201143000Y-82160000D02*
X207143000Y-82160000D01*
X201143000Y-82280000D02*
X207143000Y-82280000D01*
X201143000Y-82400000D02*
X207143000Y-82400000D01*
X201143000Y-82520000D02*
X207143000Y-82520000D01*
X201143000Y-82640000D02*
X207143000Y-82640000D01*
X201143000Y-84520000D02*
X207143000Y-84520000D01*
X201143000Y-87060000D02*
X207143000Y-87060000D01*
X201143000Y-89600000D02*
X207143000Y-89600000D01*
X201143000Y-92140000D02*
X207143000Y-92140000D01*
X201143000Y-94680000D02*
X207143000Y-94680000D01*
X201143000Y-97220000D02*
X207143000Y-97220000D01*
X201143000Y-99760000D02*
X207143000Y-99760000D01*
X201143000Y-102300000D02*
X207143000Y-102300000D01*
X201143000Y-104840000D02*
X207143000Y-104840000D01*
X201143000Y-107380000D02*
X207143000Y-107380000D01*
X201143000Y-109920000D02*
X207143000Y-109920000D01*
X201143000Y-112460000D02*
X207143000Y-112460000D01*
X201143000Y-115000000D02*
X207143000Y-115000000D01*
X201143000Y-117540000D02*
X207143000Y-117540000D01*
X201143000Y-120080000D02*
X207143000Y-120080000D01*
X201143000Y-122620000D02*
X207143000Y-122620000D01*
X201143000Y-125160000D02*
X207143000Y-125160000D01*
X201143000Y-127700000D02*
X207143000Y-127700000D01*
X201143000Y-130240000D02*
X207143000Y-130240000D01*
X201143000Y-131950000D02*
X201143000Y-81030000D01*
X207143000Y-81980000D02*
X207143000Y-82740000D01*
X207143000Y-82740000D02*
X201143000Y-82740000D01*
X207143000Y-84520000D02*
X207143000Y-85280000D01*
X207143000Y-85280000D02*
X201143000Y-85280000D01*
X207143000Y-87060000D02*
X207143000Y-87820000D01*
X207143000Y-87820000D02*
X201143000Y-87820000D01*
X207143000Y-89600000D02*
X207143000Y-90360000D01*
X207143000Y-90360000D02*
X201143000Y-90360000D01*
X207143000Y-92140000D02*
X207143000Y-92900000D01*
X207143000Y-92900000D02*
X201143000Y-92900000D01*
X207143000Y-94680000D02*
X207143000Y-95440000D01*
X207143000Y-95440000D02*
X201143000Y-95440000D01*
X207143000Y-97220000D02*
X207143000Y-97980000D01*
X207143000Y-97980000D02*
X201143000Y-97980000D01*
X207143000Y-99760000D02*
X207143000Y-100520000D01*
X207143000Y-100520000D02*
X201143000Y-100520000D01*
X207143000Y-102300000D02*
X207143000Y-103060000D01*
X207143000Y-103060000D02*
X201143000Y-103060000D01*
X207143000Y-104840000D02*
X207143000Y-105600000D01*
X207143000Y-105600000D02*
X201143000Y-105600000D01*
X207143000Y-107380000D02*
X207143000Y-108140000D01*
X207143000Y-108140000D02*
X201143000Y-108140000D01*
X207143000Y-109920000D02*
X207143000Y-110680000D01*
X207143000Y-110680000D02*
X201143000Y-110680000D01*
X207143000Y-112460000D02*
X207143000Y-113220000D01*
X207143000Y-113220000D02*
X201143000Y-113220000D01*
X207143000Y-115000000D02*
X207143000Y-115760000D01*
X207143000Y-115760000D02*
X201143000Y-115760000D01*
X207143000Y-117540000D02*
X207143000Y-118300000D01*
X207143000Y-118300000D02*
X201143000Y-118300000D01*
X207143000Y-120080000D02*
X207143000Y-120840000D01*
X207143000Y-120840000D02*
X201143000Y-120840000D01*
X207143000Y-122620000D02*
X207143000Y-123380000D01*
X207143000Y-123380000D02*
X201143000Y-123380000D01*
X207143000Y-125160000D02*
X207143000Y-125920000D01*
X207143000Y-125920000D02*
X201143000Y-125920000D01*
X207143000Y-127700000D02*
X207143000Y-128460000D01*
X207143000Y-128460000D02*
X201143000Y-128460000D01*
X207143000Y-130240000D02*
X207143000Y-131000000D01*
X207143000Y-131000000D02*
X201143000Y-131000000D01*
%TO.C,J17*%
X178645000Y-78315000D02*
X179705000Y-78315000D01*
X178645000Y-79375000D02*
X178645000Y-78315000D01*
X178645000Y-80375000D02*
X178645000Y-80435000D01*
X178645000Y-80375000D02*
X180765000Y-80375000D01*
X178645000Y-80435000D02*
X180765000Y-80435000D01*
X180765000Y-80375000D02*
X180765000Y-80435000D01*
%TO.C,U2*%
X145405800Y-70561200D02*
X145405800Y-75011200D01*
X145405800Y-70561200D02*
X145405800Y-67911200D01*
X158225800Y-70561200D02*
X158225800Y-73211200D01*
X158225800Y-70561200D02*
X158225800Y-67911200D01*
%TO.C,J4*%
X141039130Y-132198879D02*
X191959130Y-132198879D01*
X141039130Y-132198879D02*
X141039130Y-129598879D01*
X191959130Y-132198879D02*
X191959130Y-126998879D01*
X141039130Y-129598879D02*
X143639130Y-129598879D01*
X143639130Y-129598879D02*
X143639130Y-126998879D01*
X141039130Y-128328879D02*
X141039130Y-126998879D01*
X141039130Y-126998879D02*
X142369130Y-126998879D01*
X143639130Y-126998879D02*
X191959130Y-126998879D01*
%TO.C,U4*%
X163160400Y-70553100D02*
X163160400Y-75003100D01*
X163160400Y-70553100D02*
X163160400Y-67903100D01*
X175980400Y-70553100D02*
X175980400Y-73203100D01*
X175980400Y-70553100D02*
X175980400Y-67903100D01*
%TO.C,J11*%
X117923000Y-62264600D02*
X117923000Y-60934600D01*
X119253000Y-62264600D02*
X117923000Y-62264600D01*
X120523000Y-62264600D02*
X125663000Y-62264600D01*
X120523000Y-62264600D02*
X120523000Y-59604600D01*
X125663000Y-62264600D02*
X125663000Y-59604600D01*
X120523000Y-59604600D02*
X125663000Y-59604600D01*
%TO.C,J8*%
X126670000Y-62290000D02*
X126670000Y-60960000D01*
X128000000Y-62290000D02*
X126670000Y-62290000D01*
X129270000Y-62290000D02*
X180130000Y-62290000D01*
X129270000Y-62290000D02*
X129270000Y-59630000D01*
X180130000Y-62290000D02*
X180130000Y-59630000D01*
X129270000Y-59630000D02*
X180130000Y-59630000D01*
%TO.C,J12*%
X116729200Y-77199800D02*
X116729200Y-75869800D01*
X118059200Y-77199800D02*
X116729200Y-77199800D01*
X119329200Y-77199800D02*
X124469200Y-77199800D01*
X119329200Y-77199800D02*
X119329200Y-74539800D01*
X124469200Y-77199800D02*
X124469200Y-74539800D01*
X119329200Y-74539800D02*
X124469200Y-74539800D01*
%TO.C,J15*%
X193175197Y-81149841D02*
X193175197Y-79819841D01*
X194505197Y-81149841D02*
X193175197Y-81149841D01*
X195775197Y-81149841D02*
X198375197Y-81149841D01*
X195775197Y-81149841D02*
X195775197Y-78489841D01*
X198375197Y-81149841D02*
X198375197Y-78489841D01*
X195775197Y-78489841D02*
X198375197Y-78489841D01*
%TO.C,J10*%
X133417000Y-42358000D02*
X134747000Y-42358000D01*
X133417000Y-43688000D02*
X133417000Y-42358000D01*
X133417000Y-44958000D02*
X133417000Y-50098000D01*
X133417000Y-44958000D02*
X136017000Y-44958000D01*
X133417000Y-50098000D02*
X138617000Y-50098000D01*
X136017000Y-42358000D02*
X138617000Y-42358000D01*
X136017000Y-44958000D02*
X136017000Y-42358000D01*
X138617000Y-42358000D02*
X138617000Y-50098000D01*
%TO.C,J9*%
X127106000Y-42358000D02*
X128436000Y-42358000D01*
X127106000Y-43688000D02*
X127106000Y-42358000D01*
X127106000Y-44958000D02*
X127106000Y-50098000D01*
X127106000Y-44958000D02*
X129706000Y-44958000D01*
X127106000Y-50098000D02*
X132306000Y-50098000D01*
X129706000Y-42358000D02*
X132306000Y-42358000D01*
X129706000Y-44958000D02*
X129706000Y-42358000D01*
X132306000Y-42358000D02*
X132306000Y-50098000D01*
%TO.C,J3*%
X141030397Y-52993807D02*
X191950397Y-52993807D01*
X141030397Y-52993807D02*
X141030397Y-50393807D01*
X191950397Y-52993807D02*
X191950397Y-47793807D01*
X141030397Y-50393807D02*
X143630397Y-50393807D01*
X143630397Y-50393807D02*
X143630397Y-47793807D01*
X141030397Y-49123807D02*
X141030397Y-47793807D01*
X141030397Y-47793807D02*
X142360397Y-47793807D01*
X143630397Y-47793807D02*
X191950397Y-47793807D01*
%TO.C,J13*%
X179153000Y-72854000D02*
X180213000Y-72854000D01*
X179153000Y-73914000D02*
X179153000Y-72854000D01*
X179153000Y-74914000D02*
X179153000Y-74974000D01*
X179153000Y-74914000D02*
X181273000Y-74914000D01*
X179153000Y-74974000D02*
X181273000Y-74974000D01*
X181273000Y-74914000D02*
X181273000Y-74974000D01*
%TO.C,J16*%
X182201000Y-72854000D02*
X183261000Y-72854000D01*
X182201000Y-73914000D02*
X182201000Y-72854000D01*
X182201000Y-74914000D02*
X182201000Y-74974000D01*
X182201000Y-74914000D02*
X184321000Y-74914000D01*
X182201000Y-74974000D02*
X184321000Y-74974000D01*
X184321000Y-74914000D02*
X184321000Y-74974000D01*
%TD*%
M02*
