%TF.GenerationSoftware,KiCad,Pcbnew,7.0.5-7.0.5~ubuntu20.04.1*%
%TF.CreationDate,2023-07-18T14:51:19+02:00*%
%TF.ProjectId,SplitterBoard,53706c69-7474-4657-9242-6f6172642e6b,rev?*%
%TF.SameCoordinates,Original*%
%TF.FileFunction,Legend,Bot*%
%TF.FilePolarity,Positive*%
%FSLAX46Y46*%
G04 Gerber Fmt 4.6, Leading zero omitted, Abs format (unit mm)*
G04 Created by KiCad (PCBNEW 7.0.5-7.0.5~ubuntu20.04.1) date 2023-07-18 14:51:19*
%MOMM*%
%LPD*%
G01*
G04 APERTURE LIST*
%ADD10C,0.150000*%
%ADD11C,0.120000*%
G04 APERTURE END LIST*
D10*
%TO.C,JP2*%
X106360019Y-76154066D02*
X107074304Y-76154066D01*
X107074304Y-76154066D02*
X107217161Y-76106447D01*
X107217161Y-76106447D02*
X107312400Y-76011209D01*
X107312400Y-76011209D02*
X107360019Y-75868352D01*
X107360019Y-75868352D02*
X107360019Y-75773114D01*
X107360019Y-76630257D02*
X106360019Y-76630257D01*
X106360019Y-76630257D02*
X106360019Y-77011209D01*
X106360019Y-77011209D02*
X106407638Y-77106447D01*
X106407638Y-77106447D02*
X106455257Y-77154066D01*
X106455257Y-77154066D02*
X106550495Y-77201685D01*
X106550495Y-77201685D02*
X106693352Y-77201685D01*
X106693352Y-77201685D02*
X106788590Y-77154066D01*
X106788590Y-77154066D02*
X106836209Y-77106447D01*
X106836209Y-77106447D02*
X106883828Y-77011209D01*
X106883828Y-77011209D02*
X106883828Y-76630257D01*
X106455257Y-77582638D02*
X106407638Y-77630257D01*
X106407638Y-77630257D02*
X106360019Y-77725495D01*
X106360019Y-77725495D02*
X106360019Y-77963590D01*
X106360019Y-77963590D02*
X106407638Y-78058828D01*
X106407638Y-78058828D02*
X106455257Y-78106447D01*
X106455257Y-78106447D02*
X106550495Y-78154066D01*
X106550495Y-78154066D02*
X106645733Y-78154066D01*
X106645733Y-78154066D02*
X106788590Y-78106447D01*
X106788590Y-78106447D02*
X107360019Y-77535019D01*
X107360019Y-77535019D02*
X107360019Y-78154066D01*
X105560019Y-79873114D02*
X105560019Y-79301686D01*
X105560019Y-79587400D02*
X104560019Y-79587400D01*
X104560019Y-79587400D02*
X104702876Y-79492162D01*
X104702876Y-79492162D02*
X104798114Y-79396924D01*
X104798114Y-79396924D02*
X104845733Y-79301686D01*
X104560019Y-74054067D02*
X104560019Y-74673114D01*
X104560019Y-74673114D02*
X104940971Y-74339781D01*
X104940971Y-74339781D02*
X104940971Y-74482638D01*
X104940971Y-74482638D02*
X104988590Y-74577876D01*
X104988590Y-74577876D02*
X105036209Y-74625495D01*
X105036209Y-74625495D02*
X105131447Y-74673114D01*
X105131447Y-74673114D02*
X105369542Y-74673114D01*
X105369542Y-74673114D02*
X105464780Y-74625495D01*
X105464780Y-74625495D02*
X105512400Y-74577876D01*
X105512400Y-74577876D02*
X105560019Y-74482638D01*
X105560019Y-74482638D02*
X105560019Y-74196924D01*
X105560019Y-74196924D02*
X105512400Y-74101686D01*
X105512400Y-74101686D02*
X105464780Y-74054067D01*
%TO.C,C5*%
X130292666Y-73126380D02*
X130340285Y-73174000D01*
X130340285Y-73174000D02*
X130483142Y-73221619D01*
X130483142Y-73221619D02*
X130578380Y-73221619D01*
X130578380Y-73221619D02*
X130721237Y-73174000D01*
X130721237Y-73174000D02*
X130816475Y-73078761D01*
X130816475Y-73078761D02*
X130864094Y-72983523D01*
X130864094Y-72983523D02*
X130911713Y-72793047D01*
X130911713Y-72793047D02*
X130911713Y-72650190D01*
X130911713Y-72650190D02*
X130864094Y-72459714D01*
X130864094Y-72459714D02*
X130816475Y-72364476D01*
X130816475Y-72364476D02*
X130721237Y-72269238D01*
X130721237Y-72269238D02*
X130578380Y-72221619D01*
X130578380Y-72221619D02*
X130483142Y-72221619D01*
X130483142Y-72221619D02*
X130340285Y-72269238D01*
X130340285Y-72269238D02*
X130292666Y-72316857D01*
X129387904Y-72221619D02*
X129864094Y-72221619D01*
X129864094Y-72221619D02*
X129911713Y-72697809D01*
X129911713Y-72697809D02*
X129864094Y-72650190D01*
X129864094Y-72650190D02*
X129768856Y-72602571D01*
X129768856Y-72602571D02*
X129530761Y-72602571D01*
X129530761Y-72602571D02*
X129435523Y-72650190D01*
X129435523Y-72650190D02*
X129387904Y-72697809D01*
X129387904Y-72697809D02*
X129340285Y-72793047D01*
X129340285Y-72793047D02*
X129340285Y-73031142D01*
X129340285Y-73031142D02*
X129387904Y-73126380D01*
X129387904Y-73126380D02*
X129435523Y-73174000D01*
X129435523Y-73174000D02*
X129530761Y-73221619D01*
X129530761Y-73221619D02*
X129768856Y-73221619D01*
X129768856Y-73221619D02*
X129864094Y-73174000D01*
X129864094Y-73174000D02*
X129911713Y-73126380D01*
%TO.C,C4*%
X165925266Y-72567580D02*
X165972885Y-72615200D01*
X165972885Y-72615200D02*
X166115742Y-72662819D01*
X166115742Y-72662819D02*
X166210980Y-72662819D01*
X166210980Y-72662819D02*
X166353837Y-72615200D01*
X166353837Y-72615200D02*
X166449075Y-72519961D01*
X166449075Y-72519961D02*
X166496694Y-72424723D01*
X166496694Y-72424723D02*
X166544313Y-72234247D01*
X166544313Y-72234247D02*
X166544313Y-72091390D01*
X166544313Y-72091390D02*
X166496694Y-71900914D01*
X166496694Y-71900914D02*
X166449075Y-71805676D01*
X166449075Y-71805676D02*
X166353837Y-71710438D01*
X166353837Y-71710438D02*
X166210980Y-71662819D01*
X166210980Y-71662819D02*
X166115742Y-71662819D01*
X166115742Y-71662819D02*
X165972885Y-71710438D01*
X165972885Y-71710438D02*
X165925266Y-71758057D01*
X165068123Y-71996152D02*
X165068123Y-72662819D01*
X165306218Y-71615200D02*
X165544313Y-72329485D01*
X165544313Y-72329485D02*
X164925266Y-72329485D01*
%TO.C,JP1*%
X155773333Y-121225819D02*
X155773333Y-121940104D01*
X155773333Y-121940104D02*
X155820952Y-122082961D01*
X155820952Y-122082961D02*
X155916190Y-122178200D01*
X155916190Y-122178200D02*
X156059047Y-122225819D01*
X156059047Y-122225819D02*
X156154285Y-122225819D01*
X155297142Y-122225819D02*
X155297142Y-121225819D01*
X155297142Y-121225819D02*
X154916190Y-121225819D01*
X154916190Y-121225819D02*
X154820952Y-121273438D01*
X154820952Y-121273438D02*
X154773333Y-121321057D01*
X154773333Y-121321057D02*
X154725714Y-121416295D01*
X154725714Y-121416295D02*
X154725714Y-121559152D01*
X154725714Y-121559152D02*
X154773333Y-121654390D01*
X154773333Y-121654390D02*
X154820952Y-121702009D01*
X154820952Y-121702009D02*
X154916190Y-121749628D01*
X154916190Y-121749628D02*
X155297142Y-121749628D01*
X153773333Y-122225819D02*
X154344761Y-122225819D01*
X154059047Y-122225819D02*
X154059047Y-121225819D01*
X154059047Y-121225819D02*
X154154285Y-121368676D01*
X154154285Y-121368676D02*
X154249523Y-121463914D01*
X154249523Y-121463914D02*
X154344761Y-121511533D01*
X152673332Y-123025819D02*
X152054285Y-123025819D01*
X152054285Y-123025819D02*
X152387618Y-123406771D01*
X152387618Y-123406771D02*
X152244761Y-123406771D01*
X152244761Y-123406771D02*
X152149523Y-123454390D01*
X152149523Y-123454390D02*
X152101904Y-123502009D01*
X152101904Y-123502009D02*
X152054285Y-123597247D01*
X152054285Y-123597247D02*
X152054285Y-123835342D01*
X152054285Y-123835342D02*
X152101904Y-123930580D01*
X152101904Y-123930580D02*
X152149523Y-123978200D01*
X152149523Y-123978200D02*
X152244761Y-124025819D01*
X152244761Y-124025819D02*
X152530475Y-124025819D01*
X152530475Y-124025819D02*
X152625713Y-123978200D01*
X152625713Y-123978200D02*
X152673332Y-123930580D01*
X157254285Y-124025819D02*
X157825713Y-124025819D01*
X157539999Y-124025819D02*
X157539999Y-123025819D01*
X157539999Y-123025819D02*
X157635237Y-123168676D01*
X157635237Y-123168676D02*
X157730475Y-123263914D01*
X157730475Y-123263914D02*
X157825713Y-123311533D01*
D11*
%TO.C,JP2*%
X104105200Y-75587400D02*
X104105200Y-78387400D01*
X104805200Y-79037400D02*
X105405200Y-79037400D01*
X105405200Y-74937400D02*
X104805200Y-74937400D01*
X106105200Y-78387400D02*
X106105200Y-75587400D01*
X105405200Y-79037400D02*
G75*
G03*
X106105200Y-78337400I1J699999D01*
G01*
X106105200Y-75637400D02*
G75*
G03*
X105405200Y-74937400I-700000J0D01*
G01*
X104105200Y-78337400D02*
G75*
G03*
X104805200Y-79037400I699999J-1D01*
G01*
X104805200Y-74937400D02*
G75*
G03*
X104105200Y-75637400I0J-700000D01*
G01*
%TO.C,C5*%
X129414748Y-71826800D02*
X130837252Y-71826800D01*
X129414748Y-70006800D02*
X130837252Y-70006800D01*
%TO.C,C4*%
X165047348Y-71268000D02*
X166469852Y-71268000D01*
X165047348Y-69448000D02*
X166469852Y-69448000D01*
%TO.C,JP1*%
X156990000Y-124571000D02*
X156990000Y-122571000D01*
X156990000Y-122571000D02*
X152890000Y-122571000D01*
X152890000Y-124571000D02*
X156990000Y-124571000D01*
X152890000Y-122571000D02*
X152890000Y-124571000D01*
%TD*%
M02*
