%TF.GenerationSoftware,KiCad,Pcbnew,7.0.5-7.0.5~ubuntu20.04.1*%
%TF.CreationDate,2023-07-18T14:51:19+02:00*%
%TF.ProjectId,SplitterBoard,53706c69-7474-4657-9242-6f6172642e6b,rev?*%
%TF.SameCoordinates,Original*%
%TF.FileFunction,Paste,Top*%
%TF.FilePolarity,Positive*%
%FSLAX46Y46*%
G04 Gerber Fmt 4.6, Leading zero omitted, Abs format (unit mm)*
G04 Created by KiCad (PCBNEW 7.0.5-7.0.5~ubuntu20.04.1) date 2023-07-18 14:51:19*
%MOMM*%
%LPD*%
G01*
G04 APERTURE LIST*
G04 Aperture macros list*
%AMRoundRect*
0 Rectangle with rounded corners*
0 $1 Rounding radius*
0 $2 $3 $4 $5 $6 $7 $8 $9 X,Y pos of 4 corners*
0 Add a 4 corners polygon primitive as box body*
4,1,4,$2,$3,$4,$5,$6,$7,$8,$9,$2,$3,0*
0 Add four circle primitives for the rounded corners*
1,1,$1+$1,$2,$3*
1,1,$1+$1,$4,$5*
1,1,$1+$1,$6,$7*
1,1,$1+$1,$8,$9*
0 Add four rect primitives between the rounded corners*
20,1,$1+$1,$2,$3,$4,$5,0*
20,1,$1+$1,$4,$5,$6,$7,0*
20,1,$1+$1,$6,$7,$8,$9,0*
20,1,$1+$1,$8,$9,$2,$3,0*%
G04 Aperture macros list end*
%ADD10RoundRect,0.150000X0.150000X-0.837500X0.150000X0.837500X-0.150000X0.837500X-0.150000X-0.837500X0*%
G04 APERTURE END LIST*
D10*
%TO.C,U4*%
X163855400Y-74015600D03*
X165125400Y-74015600D03*
X166395400Y-74015600D03*
X167665400Y-74015600D03*
X168935400Y-74015600D03*
X170205400Y-74015600D03*
X171475400Y-74015600D03*
X172745400Y-74015600D03*
X174015400Y-74015600D03*
X175285400Y-74015600D03*
X175285400Y-67090600D03*
X174015400Y-67090600D03*
X172745400Y-67090600D03*
X171475400Y-67090600D03*
X170205400Y-67090600D03*
X168935400Y-67090600D03*
X167665400Y-67090600D03*
X166395400Y-67090600D03*
X165125400Y-67090600D03*
X163855400Y-67090600D03*
%TD*%
%TO.C,U2*%
X146100800Y-74023700D03*
X147370800Y-74023700D03*
X148640800Y-74023700D03*
X149910800Y-74023700D03*
X151180800Y-74023700D03*
X152450800Y-74023700D03*
X153720800Y-74023700D03*
X154990800Y-74023700D03*
X156260800Y-74023700D03*
X157530800Y-74023700D03*
X157530800Y-67098700D03*
X156260800Y-67098700D03*
X154990800Y-67098700D03*
X153720800Y-67098700D03*
X152450800Y-67098700D03*
X151180800Y-67098700D03*
X149910800Y-67098700D03*
X148640800Y-67098700D03*
X147370800Y-67098700D03*
X146100800Y-67098700D03*
%TD*%
%TO.C,U1*%
X126923800Y-67293800D03*
X128193800Y-67293800D03*
X129463800Y-67293800D03*
X130733800Y-67293800D03*
X132003800Y-67293800D03*
X133273800Y-67293800D03*
X134543800Y-67293800D03*
X135813800Y-67293800D03*
X137083800Y-67293800D03*
X138353800Y-67293800D03*
X138353800Y-74218800D03*
X137083800Y-74218800D03*
X135813800Y-74218800D03*
X134543800Y-74218800D03*
X133273800Y-74218800D03*
X132003800Y-74218800D03*
X130733800Y-74218800D03*
X129463800Y-74218800D03*
X128193800Y-74218800D03*
X126923800Y-74218800D03*
%TD*%
M02*
