M48
; DRILL file {KiCad 7.0.9-7.0.9~ubuntu20.04.1} date Di 26 Dez 2023 19:53:33
; FORMAT={-:-/ absolute / metric / decimal}
; #@! TF.CreationDate,2023-12-26T19:53:33+01:00
; #@! TF.GenerationSoftware,Kicad,Pcbnew,7.0.9-7.0.9~ubuntu20.04.1
; #@! TF.FileFunction,MixedPlating,1,2
FMAT,2
METRIC
; #@! TA.AperFunction,Plated,PTH,ViaDrill
T1C0.400
; #@! TA.AperFunction,Plated,PTH,ComponentDrill
T2C0.800
; #@! TA.AperFunction,Plated,PTH,ComponentDrill
T3C1.000
%
G90
G05
T1
X177.292Y-43.434
X177.546Y-59.182
X223.172Y-35.654
T2
X170.434Y-53.594
X173.736Y-37.49
X173.736Y-52.73
X175.006Y-56.896
X175.006Y-72.136
X176.276Y-37.49
X176.276Y-49.784
X176.276Y-52.73
X177.546Y-56.896
X177.546Y-72.136
X178.816Y-37.49
X178.816Y-49.784
X178.816Y-52.73
X180.086Y-56.896
X180.086Y-72.136
X181.356Y-37.49
X181.356Y-52.73
X182.626Y-56.896
X182.626Y-72.136
X183.896Y-37.49
X183.896Y-40.64
X183.896Y-49.784
X183.896Y-52.73
X185.166Y-56.896
X185.166Y-72.136
X186.436Y-37.49
X186.436Y-52.73
X187.706Y-56.896
X187.706Y-72.136
X188.976Y-33.38
X188.976Y-37.49
X188.976Y-41.0
X188.976Y-52.73
X190.246Y-56.896
X190.246Y-72.136
X191.516Y-33.38
X191.516Y-37.49
X191.516Y-41.0
X191.516Y-52.73
X192.786Y-56.896
X192.786Y-72.136
X194.056Y-33.38
X194.056Y-37.49
X194.056Y-41.0
X194.056Y-52.73
X195.326Y-56.896
X195.326Y-72.136
X196.596Y-33.38
X196.596Y-37.49
X196.596Y-41.0
X196.596Y-52.73
X197.866Y-56.896
X197.866Y-72.136
X199.136Y-33.38
X199.136Y-37.49
X199.136Y-41.0
X199.136Y-52.73
X200.406Y-56.896
X200.406Y-72.136
X201.676Y-33.38
X201.676Y-37.49
X201.676Y-41.0
X201.676Y-52.73
X202.946Y-56.896
X202.946Y-72.136
X204.216Y-33.38
X204.216Y-37.49
X204.216Y-41.0
X204.216Y-52.73
X205.486Y-56.896
X205.486Y-72.136
X206.756Y-33.38
X206.756Y-37.49
X206.756Y-41.0
X206.756Y-52.73
X208.026Y-56.896
X208.026Y-72.136
X209.296Y-33.38
X209.296Y-37.49
X209.296Y-41.0
X209.296Y-52.73
X210.566Y-56.896
X210.566Y-72.136
X211.836Y-33.38
X211.836Y-37.49
X211.836Y-41.0
X211.836Y-52.73
X213.106Y-56.896
X213.106Y-72.136
X214.376Y-37.49
X214.376Y-52.73
X215.646Y-56.896
X215.646Y-72.136
X216.916Y-37.49
X216.916Y-52.73
X218.186Y-56.896
X218.186Y-72.136
X219.456Y-37.49
X219.456Y-52.73
X220.726Y-56.896
X220.726Y-72.136
X221.996Y-37.49
X221.996Y-52.73
X223.266Y-56.896
X223.266Y-72.136
T3
X162.6Y-43.125
X162.6Y-45.665
X164.592Y-53.594
X164.592Y-56.134
X164.592Y-58.674
X164.592Y-61.214
X164.592Y-63.754
X164.592Y-66.294
X164.592Y-68.834
X164.592Y-71.374
X166.4Y-43.139
X166.4Y-45.679
X167.132Y-53.594
X167.132Y-56.134
X167.132Y-58.674
X167.132Y-61.214
X167.132Y-63.754
X167.132Y-66.294
X167.132Y-68.834
X167.132Y-71.374
X170.18Y-43.154
X170.18Y-45.694
X175.021Y-75.692
X176.276Y-33.02
X177.561Y-75.692
X178.816Y-33.02
X180.101Y-75.692
X181.356Y-33.02
T0
M30
