%TF.GenerationSoftware,KiCad,Pcbnew,7.0.9-7.0.9~ubuntu20.04.1*%
%TF.CreationDate,2023-12-26T19:53:29+01:00*%
%TF.ProjectId,6803_Addon,36383033-5f41-4646-946f-6e2e6b696361,rev?*%
%TF.SameCoordinates,Original*%
%TF.FileFunction,Copper,L2,Bot*%
%TF.FilePolarity,Positive*%
%FSLAX46Y46*%
G04 Gerber Fmt 4.6, Leading zero omitted, Abs format (unit mm)*
G04 Created by KiCad (PCBNEW 7.0.9-7.0.9~ubuntu20.04.1) date 2023-12-26 19:53:29*
%MOMM*%
%LPD*%
G01*
G04 APERTURE LIST*
%TA.AperFunction,ComponentPad*%
%ADD10R,1.600000X1.600000*%
%TD*%
%TA.AperFunction,ComponentPad*%
%ADD11O,1.600000X1.600000*%
%TD*%
%TA.AperFunction,ComponentPad*%
%ADD12R,1.700000X1.700000*%
%TD*%
%TA.AperFunction,ComponentPad*%
%ADD13O,1.700000X1.700000*%
%TD*%
%TA.AperFunction,ComponentPad*%
%ADD14R,1.350000X1.350000*%
%TD*%
%TA.AperFunction,ComponentPad*%
%ADD15R,1.600000X2.400000*%
%TD*%
%TA.AperFunction,ComponentPad*%
%ADD16O,1.600000X2.400000*%
%TD*%
%TA.AperFunction,ViaPad*%
%ADD17C,0.800000*%
%TD*%
%TA.AperFunction,Conductor*%
%ADD18C,0.400000*%
%TD*%
G04 APERTURE END LIST*
D10*
%TO.P,U3,1,VSS*%
%TO.N,GND*%
X173736000Y-52730400D03*
D11*
%TO.P,U3,2,~{HALT}*%
%TO.N,/~{HALT}*%
X176276000Y-52730400D03*
%TO.P,U3,3,MR*%
%TO.N,Net-(J3-Pin_1)*%
X178816000Y-52730400D03*
%TO.P,U3,4,~{IRQ}*%
%TO.N,/~{IRQ1}*%
X181356000Y-52730400D03*
%TO.P,U3,5,VMA*%
%TO.N,/AS*%
X183896000Y-52730400D03*
%TO.P,U3,6,~{NMI}*%
%TO.N,/~{NMI}*%
X186436000Y-52730400D03*
%TO.P,U3,7,BA*%
%TO.N,/BA*%
X188976000Y-52730400D03*
%TO.P,U3,8,VCC*%
%TO.N,+5V*%
X191516000Y-52730400D03*
%TO.P,U3,9,A0*%
%TO.N,/A0*%
X194056000Y-52730400D03*
%TO.P,U3,10,A1*%
%TO.N,/A1*%
X196596000Y-52730400D03*
%TO.P,U3,11,A2*%
%TO.N,/A2*%
X199136000Y-52730400D03*
%TO.P,U3,12,A3*%
%TO.N,/A3*%
X201676000Y-52730400D03*
%TO.P,U3,13,A4*%
%TO.N,/A4*%
X204216000Y-52730400D03*
%TO.P,U3,14,A5*%
%TO.N,/A5*%
X206756000Y-52730400D03*
%TO.P,U3,15,A6*%
%TO.N,/A6*%
X209296000Y-52730400D03*
%TO.P,U3,16,A7*%
%TO.N,/A7*%
X211836000Y-52730400D03*
%TO.P,U3,17,A8*%
%TO.N,/A8*%
X214376000Y-52730400D03*
%TO.P,U3,18,A9*%
%TO.N,/A9*%
X216916000Y-52730400D03*
%TO.P,U3,19,A10*%
%TO.N,/A10*%
X219456000Y-52730400D03*
%TO.P,U3,20,A11*%
%TO.N,/A11*%
X221996000Y-52730400D03*
%TO.P,U3,21,VSS*%
%TO.N,GND*%
X221996000Y-37490400D03*
%TO.P,U3,22,A12*%
%TO.N,/A12*%
X219456000Y-37490400D03*
%TO.P,U3,23,A13*%
%TO.N,/A13*%
X216916000Y-37490400D03*
%TO.P,U3,24,A14*%
%TO.N,/A14*%
X214376000Y-37490400D03*
%TO.P,U3,25,A15*%
%TO.N,/A15*%
X211836000Y-37490400D03*
%TO.P,U3,26,D7*%
%TO.N,/D7*%
X209296000Y-37490400D03*
%TO.P,U3,27,D6*%
%TO.N,/D6*%
X206756000Y-37490400D03*
%TO.P,U3,28,D5*%
%TO.N,/D5*%
X204216000Y-37490400D03*
%TO.P,U3,29,D4*%
%TO.N,/D4*%
X201676000Y-37490400D03*
%TO.P,U3,30,D3*%
%TO.N,/D3*%
X199136000Y-37490400D03*
%TO.P,U3,31,D2*%
%TO.N,/D2*%
X196596000Y-37490400D03*
%TO.P,U3,32,D1*%
%TO.N,/D1*%
X194056000Y-37490400D03*
%TO.P,U3,33,D0*%
%TO.N,/D0*%
X191516000Y-37490400D03*
%TO.P,U3,34,R/~{W}*%
%TO.N,/R{slash}~{W}*%
X188976000Y-37490400D03*
%TO.P,U3,35,VCC_STANDBY*%
%TO.N,+5C*%
X186436000Y-37490400D03*
%TO.P,U3,36,RE*%
%TO.N,Net-(J4-Pin_1)*%
X183896000Y-37490400D03*
%TO.P,U3,37,E*%
%TO.N,/PHI2*%
X181356000Y-37490400D03*
%TO.P,U3,38,XTAL*%
%TO.N,GND*%
X178816000Y-37490400D03*
%TO.P,U3,39,EXTAL*%
%TO.N,/CPUCLK*%
X176276000Y-37490400D03*
%TO.P,U3,40,~{RESET}*%
%TO.N,/~{RST}*%
X173736000Y-37490400D03*
%TD*%
D12*
%TO.P,JP6,1,A*%
%TO.N,/CPUCLK*%
X176276000Y-33020000D03*
D13*
%TO.P,JP6,2,C*%
%TO.N,Net-(JP6-C)*%
X178816000Y-33020000D03*
%TO.P,JP6,3,B*%
%TO.N,/BA*%
X181356000Y-33020000D03*
%TD*%
D12*
%TO.P,JP5,1,A*%
%TO.N,GND*%
X175021000Y-75692000D03*
D13*
%TO.P,JP5,2,C*%
%TO.N,Net-(JP5-C)*%
X177561000Y-75692000D03*
%TO.P,JP5,3,B*%
%TO.N,/~{HALT}*%
X180101000Y-75692000D03*
%TD*%
D12*
%TO.P,J1,1,Pin_1*%
%TO.N,GND*%
X167132000Y-71374000D03*
D13*
%TO.P,J1,2,Pin_2*%
%TO.N,/P20*%
X164592000Y-71374000D03*
%TO.P,J1,3,Pin_3*%
%TO.N,/P21*%
X167132000Y-68834000D03*
%TO.P,J1,4,Pin_4*%
%TO.N,/P22*%
X164592000Y-68834000D03*
%TO.P,J1,5,Pin_5*%
%TO.N,/P23*%
X167132000Y-66294000D03*
%TO.P,J1,6,Pin_6*%
%TO.N,/P24*%
X164592000Y-66294000D03*
%TO.P,J1,7,Pin_7*%
%TO.N,/P10*%
X167132000Y-63754000D03*
%TO.P,J1,8,Pin_8*%
%TO.N,/P11*%
X164592000Y-63754000D03*
%TO.P,J1,9,Pin_9*%
%TO.N,/P12*%
X167132000Y-61214000D03*
%TO.P,J1,10,Pin_10*%
%TO.N,/P13*%
X164592000Y-61214000D03*
%TO.P,J1,11,Pin_11*%
%TO.N,/P14*%
X167132000Y-58674000D03*
%TO.P,J1,12,Pin_12*%
%TO.N,/P15*%
X164592000Y-58674000D03*
%TO.P,J1,13,Pin_13*%
%TO.N,/P16*%
X167132000Y-56134000D03*
%TO.P,J1,14,Pin_14*%
%TO.N,/P17*%
X164592000Y-56134000D03*
%TO.P,J1,15,Pin_15*%
%TO.N,Net-(J1-Pin_15)*%
X167132000Y-53594000D03*
%TO.P,J1,16,Pin_16*%
%TO.N,+5V*%
X164592000Y-53594000D03*
%TD*%
D12*
%TO.P,JP3,1,A*%
%TO.N,Net-(D3-A)*%
X170180000Y-43154000D03*
D13*
%TO.P,JP3,2,B*%
%TO.N,/P22*%
X170180000Y-45694000D03*
%TD*%
D12*
%TO.P,JP1,1,A*%
%TO.N,Net-(D1-A)*%
X162600000Y-43125000D03*
D13*
%TO.P,JP1,2,B*%
%TO.N,/P20*%
X162600000Y-45665000D03*
%TD*%
D14*
%TO.P,J4,1,Pin_1*%
%TO.N,Net-(J4-Pin_1)*%
X183896000Y-40640000D03*
%TD*%
D12*
%TO.P,JP2,1,A*%
%TO.N,Net-(D2-A)*%
X166400000Y-43139000D03*
D13*
%TO.P,JP2,2,B*%
%TO.N,/P21*%
X166400000Y-45679000D03*
%TD*%
D14*
%TO.P,J2,1,Pin_1*%
%TO.N,Net-(J1-Pin_15)*%
X170434000Y-53594000D03*
%TD*%
%TO.P,J5,1,Pin_1*%
%TO.N,/~{HALT}*%
X176276000Y-49784000D03*
%TD*%
%TO.P,J6,1,Pin_1*%
%TO.N,/AS*%
X183896000Y-49784000D03*
%TD*%
D15*
%TO.P,U1,1,GND*%
%TO.N,GND*%
X175006000Y-72136000D03*
D16*
%TO.P,U1,2,XTAL*%
%TO.N,Net-(JP5-C)*%
X177546000Y-72136000D03*
%TO.P,U1,3,EXTAL*%
%TO.N,Net-(JP6-C)*%
X180086000Y-72136000D03*
%TO.P,U1,4,~{NMI}*%
%TO.N,/~{NMI}*%
X182626000Y-72136000D03*
%TO.P,U1,5,~{IRQ1}*%
%TO.N,/~{IRQ1}*%
X185166000Y-72136000D03*
%TO.P,U1,6,~{RST}*%
%TO.N,/~{RST}*%
X187706000Y-72136000D03*
%TO.P,U1,7,VCC*%
%TO.N,+5V*%
X190246000Y-72136000D03*
%TO.P,U1,8,P20/TIN1*%
%TO.N,/P20*%
X192786000Y-72136000D03*
%TO.P,U1,9,P21/TOUT1*%
%TO.N,/P21*%
X195326000Y-72136000D03*
%TO.P,U1,10,P22/SCLK*%
%TO.N,/P22*%
X197866000Y-72136000D03*
%TO.P,U1,11,P23/RX*%
%TO.N,/P23*%
X200406000Y-72136000D03*
%TO.P,U1,12,P24/TX*%
%TO.N,/P24*%
X202946000Y-72136000D03*
%TO.P,U1,13,P10/TIN2*%
%TO.N,/P10*%
X205486000Y-72136000D03*
%TO.P,U1,14,P11/TOUT2*%
%TO.N,/P11*%
X208026000Y-72136000D03*
%TO.P,U1,15,P12/TOUT3*%
%TO.N,/P12*%
X210566000Y-72136000D03*
%TO.P,U1,16,P13*%
%TO.N,/P13*%
X213106000Y-72136000D03*
%TO.P,U1,17,P14*%
%TO.N,/P14*%
X215646000Y-72136000D03*
%TO.P,U1,18,P15*%
%TO.N,/P15*%
X218186000Y-72136000D03*
%TO.P,U1,19,P16*%
%TO.N,/P16*%
X220726000Y-72136000D03*
%TO.P,U1,20,P17*%
%TO.N,/P17*%
X223266000Y-72136000D03*
%TO.P,U1,21,VCC_STBY*%
%TO.N,+5C*%
X223266000Y-56896000D03*
%TO.P,U1,22,P47/A15*%
%TO.N,/A15*%
X220726000Y-56896000D03*
%TO.P,U1,23,P46/A14*%
%TO.N,/A14*%
X218186000Y-56896000D03*
%TO.P,U1,24,P45/A13*%
%TO.N,/A13*%
X215646000Y-56896000D03*
%TO.P,U1,25,P44/A12*%
%TO.N,/A12*%
X213106000Y-56896000D03*
%TO.P,U1,26,P43/A11*%
%TO.N,/A11*%
X210566000Y-56896000D03*
%TO.P,U1,27,P42/A10*%
%TO.N,/A10*%
X208026000Y-56896000D03*
%TO.P,U1,28,P41/A9*%
%TO.N,/A9*%
X205486000Y-56896000D03*
%TO.P,U1,29,P40/A8*%
%TO.N,/A8*%
X202946000Y-56896000D03*
%TO.P,U1,30,P37/AD7*%
%TO.N,/D7*%
X200406000Y-56896000D03*
%TO.P,U1,31,P36/AD6*%
%TO.N,/D6*%
X197866000Y-56896000D03*
%TO.P,U1,32,P35/AD5*%
%TO.N,/D5*%
X195326000Y-56896000D03*
%TO.P,U1,33,P34/AD4*%
%TO.N,/D4*%
X192786000Y-56896000D03*
%TO.P,U1,34,P33/AD3*%
%TO.N,/D3*%
X190246000Y-56896000D03*
%TO.P,U1,35,P32/AD2*%
%TO.N,/D2*%
X187706000Y-56896000D03*
%TO.P,U1,36,P31/AD1*%
%TO.N,/D1*%
X185166000Y-56896000D03*
%TO.P,U1,37,P30/AD0*%
%TO.N,/D0*%
X182626000Y-56896000D03*
%TO.P,U1,38,SC2/R/~{W}*%
%TO.N,/R{slash}~{W}*%
X180086000Y-56896000D03*
%TO.P,U1,39,SC1/AS*%
%TO.N,/AS*%
X177546000Y-56896000D03*
%TO.P,U1,40,E*%
%TO.N,/PHI2*%
X175006000Y-56896000D03*
%TD*%
D15*
%TO.P,U2,1,OE*%
%TO.N,GND*%
X188976000Y-41000000D03*
D16*
%TO.P,U2,2,D0*%
%TO.N,/D0*%
X191516000Y-41000000D03*
%TO.P,U2,3,D1*%
%TO.N,/D1*%
X194056000Y-41000000D03*
%TO.P,U2,4,D2*%
%TO.N,/D2*%
X196596000Y-41000000D03*
%TO.P,U2,5,D3*%
%TO.N,/D3*%
X199136000Y-41000000D03*
%TO.P,U2,6,D4*%
%TO.N,/D4*%
X201676000Y-41000000D03*
%TO.P,U2,7,D5*%
%TO.N,/D5*%
X204216000Y-41000000D03*
%TO.P,U2,8,D6*%
%TO.N,/D6*%
X206756000Y-41000000D03*
%TO.P,U2,9,D7*%
%TO.N,/D7*%
X209296000Y-41000000D03*
%TO.P,U2,10,GND*%
%TO.N,GND*%
X211836000Y-41000000D03*
%TO.P,U2,11,Load*%
%TO.N,/AS*%
X211836000Y-33380000D03*
%TO.P,U2,12,Q7*%
%TO.N,/A7*%
X209296000Y-33380000D03*
%TO.P,U2,13,Q6*%
%TO.N,/A6*%
X206756000Y-33380000D03*
%TO.P,U2,14,Q5*%
%TO.N,/A5*%
X204216000Y-33380000D03*
%TO.P,U2,15,Q4*%
%TO.N,/A4*%
X201676000Y-33380000D03*
%TO.P,U2,16,Q3*%
%TO.N,/A3*%
X199136000Y-33380000D03*
%TO.P,U2,17,Q2*%
%TO.N,/A2*%
X196596000Y-33380000D03*
%TO.P,U2,18,Q1*%
%TO.N,/A1*%
X194056000Y-33380000D03*
%TO.P,U2,19,Q0*%
%TO.N,/A0*%
X191516000Y-33380000D03*
%TO.P,U2,20,VCC*%
%TO.N,+5V*%
X188976000Y-33380000D03*
%TD*%
D14*
%TO.P,J3,1,Pin_1*%
%TO.N,Net-(J3-Pin_1)*%
X178816000Y-49784000D03*
%TD*%
D17*
%TO.N,Net-(JP6-C)*%
X177546000Y-59182000D03*
%TO.N,/~{RST}*%
X177292000Y-43434000D03*
%TO.N,+5C*%
X223171528Y-35654472D03*
%TD*%
D18*
%TO.N,/P17*%
X165862000Y-54864000D02*
X164592000Y-56134000D01*
X211928000Y-60798000D02*
X174125264Y-60798000D01*
%TO.N,+5V*%
X175514000Y-60198000D02*
X189416082Y-60198000D01*
%TO.N,/P17*%
X168191264Y-54864000D02*
X165862000Y-54864000D01*
%TO.N,+5V*%
X164592000Y-53594000D02*
X166186000Y-52000000D01*
%TO.N,/P17*%
X223266000Y-72136000D02*
X211928000Y-60798000D01*
X174125264Y-60798000D02*
X168191264Y-54864000D01*
%TO.N,+5V*%
X170990000Y-52000000D02*
X171958000Y-52968000D01*
X166186000Y-52000000D02*
X170990000Y-52000000D01*
X171958000Y-52968000D02*
X171958000Y-56642000D01*
X171958000Y-56642000D02*
X175514000Y-60198000D01*
X189416082Y-60198000D02*
X191516000Y-58098082D01*
X191516000Y-58098082D02*
X191516000Y-52730400D01*
%TO.N,Net-(JP6-C)*%
X176346000Y-57982000D02*
X177546000Y-59182000D01*
X177546000Y-54798944D02*
X176346000Y-55998944D01*
X178562000Y-47888000D02*
X177546000Y-48904000D01*
X178562000Y-42926000D02*
X178562000Y-47888000D01*
X177546000Y-48904000D02*
X177546000Y-54798944D01*
X177616000Y-41980000D02*
X178562000Y-42926000D01*
X177616000Y-34220000D02*
X177616000Y-41980000D01*
X176346000Y-55998944D02*
X176346000Y-57982000D01*
X178816000Y-33020000D02*
X177616000Y-34220000D01*
%TO.N,/BA*%
X188976000Y-52730400D02*
X187776000Y-51530400D01*
X187776000Y-40963999D02*
X185096000Y-38283999D01*
X187776000Y-51530400D02*
X187776000Y-40963999D01*
X185096000Y-38283999D02*
X185096000Y-36760000D01*
X185096000Y-36760000D02*
X181356000Y-33020000D01*
%TO.N,/AS*%
X179578000Y-54864000D02*
X177546000Y-56896000D01*
X179578000Y-54864000D02*
X181762400Y-54864000D01*
X181762400Y-54864000D02*
X183896000Y-52730400D01*
%TO.N,GND*%
X175006000Y-72136000D02*
X167894000Y-72136000D01*
X167894000Y-72136000D02*
X167132000Y-71374000D01*
%TO.N,+5V*%
X190176000Y-34580000D02*
X188976000Y-33380000D01*
X190176000Y-51390400D02*
X190176000Y-34580000D01*
X190176000Y-51390400D02*
X191516000Y-52730400D01*
%TO.N,GND*%
X214090400Y-36290400D02*
X220796000Y-36290400D01*
X220796000Y-36290400D02*
X221996000Y-37490400D01*
%TO.N,/P20*%
X168422000Y-70124000D02*
X165842000Y-70124000D01*
X170677056Y-70542000D02*
X168840000Y-70542000D01*
X168840000Y-70542000D02*
X168422000Y-70124000D01*
X191186000Y-70536000D02*
X170683056Y-70536000D01*
X165842000Y-70124000D02*
X164592000Y-71374000D01*
X192786000Y-72136000D02*
X191186000Y-70536000D01*
X170683056Y-70536000D02*
X170677056Y-70542000D01*
%TO.N,/P21*%
X169163472Y-69936000D02*
X168061472Y-68834000D01*
X195326000Y-72136000D02*
X193126000Y-69936000D01*
X193126000Y-69936000D02*
X169163472Y-69936000D01*
X168061472Y-68834000D02*
X167132000Y-68834000D01*
%TO.N,/P22*%
X167894000Y-67564000D02*
X165862000Y-67564000D01*
X165862000Y-67564000D02*
X164592000Y-68834000D01*
X197866000Y-72136000D02*
X195066000Y-69336000D01*
X169666000Y-69336000D02*
X167894000Y-67564000D01*
X195066000Y-69336000D02*
X169666000Y-69336000D01*
%TO.N,/~{RST}*%
X173736000Y-39878000D02*
X173736000Y-37490400D01*
X177292000Y-43434000D02*
X173736000Y-39878000D01*
%TO.N,/P23*%
X169953360Y-68532000D02*
X167715360Y-66294000D01*
X167715360Y-66294000D02*
X167132000Y-66294000D01*
X196802000Y-68532000D02*
X169953360Y-68532000D01*
X200406000Y-72136000D02*
X196802000Y-68532000D01*
%TO.N,/P24*%
X198742000Y-67932000D02*
X170537767Y-67932000D01*
X165862000Y-65024000D02*
X164592000Y-66294000D01*
X202946000Y-72136000D02*
X198742000Y-67932000D01*
X167629767Y-65024000D02*
X165862000Y-65024000D01*
X170537767Y-67932000D02*
X167629767Y-65024000D01*
%TO.N,/P10*%
X205086000Y-72136000D02*
X200282000Y-67332000D01*
X205486000Y-72136000D02*
X205086000Y-72136000D01*
X171218000Y-67332000D02*
X167640000Y-63754000D01*
X200282000Y-67332000D02*
X171218000Y-67332000D01*
X167640000Y-63754000D02*
X167132000Y-63754000D01*
%TO.N,/P11*%
X202622000Y-66732000D02*
X172142000Y-66732000D01*
X165842000Y-62504000D02*
X164592000Y-63754000D01*
X167914000Y-62504000D02*
X165842000Y-62504000D01*
X172142000Y-66732000D02*
X167914000Y-62504000D01*
X208026000Y-72136000D02*
X202622000Y-66732000D01*
%TO.N,/P12*%
X167894000Y-61214000D02*
X167132000Y-61214000D01*
X204518000Y-66088000D02*
X172768000Y-66088000D01*
X210566000Y-72136000D02*
X204518000Y-66088000D01*
X172768000Y-66088000D02*
X167894000Y-61214000D01*
%TO.N,/P13*%
X206458000Y-65488000D02*
X173692000Y-65488000D01*
X213106000Y-72136000D02*
X206458000Y-65488000D01*
X165842000Y-59964000D02*
X164592000Y-61214000D01*
X173692000Y-65488000D02*
X168168000Y-59964000D01*
X168168000Y-59964000D02*
X165842000Y-59964000D01*
%TO.N,/P14*%
X168051239Y-58674000D02*
X167132000Y-58674000D01*
X215646000Y-72136000D02*
X208398000Y-64888000D01*
X174265239Y-64888000D02*
X168051239Y-58674000D01*
X208398000Y-64888000D02*
X174265239Y-64888000D01*
%TO.N,/P15*%
X218186000Y-72136000D02*
X210338000Y-64288000D01*
X168148000Y-57404000D02*
X165862000Y-57404000D01*
X175032000Y-64288000D02*
X168148000Y-57404000D01*
X210338000Y-64288000D02*
X175032000Y-64288000D01*
X165862000Y-57404000D02*
X164592000Y-58674000D01*
%TO.N,/P16*%
X175702000Y-63688000D02*
X168148000Y-56134000D01*
X220726000Y-72136000D02*
X212278000Y-63688000D01*
X212278000Y-63688000D02*
X175702000Y-63688000D01*
X168148000Y-56134000D02*
X167132000Y-56134000D01*
%TO.N,/A15*%
X224006000Y-53616000D02*
X220726000Y-56896000D01*
X224006000Y-49660400D02*
X224006000Y-53616000D01*
X211836000Y-37490400D02*
X224006000Y-49660400D01*
%TO.N,/A14*%
X223763056Y-58496000D02*
X219786000Y-58496000D01*
X219786000Y-58496000D02*
X218186000Y-56896000D01*
X224606000Y-47720400D02*
X224606000Y-57653056D01*
X224606000Y-57653056D02*
X223763056Y-58496000D01*
X214376000Y-37490400D02*
X224606000Y-47720400D01*
%TO.N,/A13*%
X216916000Y-37490400D02*
X225206000Y-45780400D01*
X225206000Y-57901584D02*
X224011584Y-59096000D01*
X217846000Y-59096000D02*
X215646000Y-56896000D01*
X224011584Y-59096000D02*
X217846000Y-59096000D01*
X225206000Y-45780400D02*
X225206000Y-57901584D01*
%TO.N,/A12*%
X225806000Y-43840400D02*
X225806000Y-58150112D01*
X219456000Y-37490400D02*
X225806000Y-43840400D01*
X225806000Y-58150112D02*
X223758112Y-60198000D01*
X216408000Y-60198000D02*
X213106000Y-56896000D01*
X223758112Y-60198000D02*
X216408000Y-60198000D01*
%TO.N,/A11*%
X219596000Y-55130400D02*
X221996000Y-52730400D01*
X210566000Y-56896000D02*
X212331600Y-55130400D01*
X212331600Y-55130400D02*
X219596000Y-55130400D01*
%TO.N,/A10*%
X208026000Y-56896000D02*
X210391600Y-54530400D01*
X217656000Y-54530400D02*
X219456000Y-52730400D01*
X210391600Y-54530400D02*
X217656000Y-54530400D01*
%TO.N,/A9*%
X208451600Y-53930400D02*
X215716000Y-53930400D01*
X215716000Y-53930400D02*
X216916000Y-52730400D01*
X205486000Y-56896000D02*
X208451600Y-53930400D01*
%TO.N,/A0*%
X192716000Y-51390400D02*
X194056000Y-52730400D01*
X192716000Y-51390400D02*
X192716000Y-34580000D01*
X192716000Y-34580000D02*
X191516000Y-33380000D01*
%TO.N,/A1*%
X195256000Y-34580000D02*
X194056000Y-33380000D01*
X195256000Y-51390400D02*
X196596000Y-52730400D01*
X195256000Y-51390400D02*
X195256000Y-34580000D01*
%TO.N,/A2*%
X197936000Y-51530400D02*
X199136000Y-52730400D01*
X197936000Y-51530400D02*
X197936000Y-34720000D01*
X197936000Y-34720000D02*
X196596000Y-33380000D01*
%TO.N,/A3*%
X200336000Y-34580000D02*
X200336000Y-51390400D01*
X199136000Y-33380000D02*
X200336000Y-34580000D01*
X200336000Y-51390400D02*
X201676000Y-52730400D01*
%TO.N,/A4*%
X202876000Y-51390400D02*
X204216000Y-52730400D01*
X202876000Y-51390400D02*
X202876000Y-34580000D01*
X202876000Y-34580000D02*
X201676000Y-33380000D01*
%TO.N,/A5*%
X205416000Y-51390400D02*
X206756000Y-52730400D01*
X205416000Y-34580000D02*
X205416000Y-51390400D01*
X204216000Y-33380000D02*
X205416000Y-34580000D01*
%TO.N,/A6*%
X208096000Y-34720000D02*
X206756000Y-33380000D01*
X208096000Y-51530400D02*
X209296000Y-52730400D01*
X208096000Y-51530400D02*
X208096000Y-34720000D01*
%TO.N,/A7*%
X210636000Y-34720000D02*
X210636000Y-51530400D01*
X210636000Y-51530400D02*
X211836000Y-52730400D01*
X209296000Y-33380000D02*
X210636000Y-34720000D01*
%TO.N,+5C*%
X186436000Y-32258000D02*
X187198000Y-31496000D01*
X187198000Y-31496000D02*
X219013056Y-31496000D01*
X219013056Y-31496000D02*
X223171528Y-35654472D01*
X186436000Y-37490400D02*
X186436000Y-32258000D01*
%TO.N,Net-(J1-Pin_15)*%
X167132000Y-53594000D02*
X170434000Y-53594000D01*
%TD*%
%TA.AperFunction,Conductor*%
%TO.N,GND*%
G36*
X186470519Y-31020185D02*
G01*
X186516274Y-31072989D01*
X186526218Y-31142147D01*
X186497193Y-31205703D01*
X186491161Y-31212181D01*
X185956966Y-31746375D01*
X185954240Y-31748942D01*
X185907818Y-31790068D01*
X185872586Y-31841109D01*
X185870368Y-31844124D01*
X185832124Y-31892939D01*
X185832119Y-31892948D01*
X185827960Y-31902188D01*
X185816942Y-31921723D01*
X185811187Y-31930061D01*
X185811183Y-31930067D01*
X185811182Y-31930070D01*
X185811180Y-31930074D01*
X185811179Y-31930077D01*
X185789189Y-31988055D01*
X185787757Y-31991513D01*
X185762305Y-32048068D01*
X185760477Y-32058042D01*
X185754453Y-32079653D01*
X185750860Y-32089127D01*
X185750859Y-32089128D01*
X185743384Y-32150685D01*
X185742821Y-32154386D01*
X185731642Y-32215390D01*
X185731642Y-32215395D01*
X185735387Y-32277302D01*
X185735500Y-32281047D01*
X185735500Y-36109481D01*
X185715815Y-36176520D01*
X185663011Y-36222275D01*
X185593853Y-36232219D01*
X185530297Y-36203194D01*
X185523819Y-36197162D01*
X182718651Y-33391994D01*
X182685166Y-33330671D01*
X182686558Y-33272217D01*
X182691063Y-33255408D01*
X182711659Y-33020000D01*
X182691063Y-32784592D01*
X182629903Y-32556337D01*
X182530035Y-32342171D01*
X182527218Y-32338147D01*
X182394494Y-32148597D01*
X182227402Y-31981506D01*
X182227395Y-31981501D01*
X182033834Y-31845967D01*
X182033830Y-31845965D01*
X182023416Y-31841109D01*
X181819663Y-31746097D01*
X181819659Y-31746096D01*
X181819655Y-31746094D01*
X181591413Y-31684938D01*
X181591403Y-31684936D01*
X181356001Y-31664341D01*
X181355999Y-31664341D01*
X181120596Y-31684936D01*
X181120586Y-31684938D01*
X180892344Y-31746094D01*
X180892335Y-31746098D01*
X180678171Y-31845964D01*
X180678169Y-31845965D01*
X180484597Y-31981505D01*
X180317505Y-32148597D01*
X180187575Y-32334158D01*
X180132998Y-32377783D01*
X180063500Y-32384977D01*
X180001145Y-32353454D01*
X179984425Y-32334158D01*
X179854494Y-32148597D01*
X179687402Y-31981506D01*
X179687395Y-31981501D01*
X179493834Y-31845967D01*
X179493830Y-31845965D01*
X179483416Y-31841109D01*
X179279663Y-31746097D01*
X179279659Y-31746096D01*
X179279655Y-31746094D01*
X179051413Y-31684938D01*
X179051403Y-31684936D01*
X178816001Y-31664341D01*
X178815999Y-31664341D01*
X178580596Y-31684936D01*
X178580586Y-31684938D01*
X178352344Y-31746094D01*
X178352335Y-31746098D01*
X178138171Y-31845964D01*
X178138169Y-31845965D01*
X177944600Y-31981503D01*
X177822673Y-32103430D01*
X177761350Y-32136914D01*
X177691658Y-32131930D01*
X177635725Y-32090058D01*
X177618810Y-32059081D01*
X177569797Y-31927671D01*
X177569793Y-31927664D01*
X177483547Y-31812455D01*
X177483544Y-31812452D01*
X177368335Y-31726206D01*
X177368328Y-31726202D01*
X177233482Y-31675908D01*
X177233483Y-31675908D01*
X177173883Y-31669501D01*
X177173881Y-31669500D01*
X177173873Y-31669500D01*
X177173864Y-31669500D01*
X175378129Y-31669500D01*
X175378123Y-31669501D01*
X175318516Y-31675908D01*
X175183671Y-31726202D01*
X175183664Y-31726206D01*
X175068455Y-31812452D01*
X175068452Y-31812455D01*
X174982206Y-31927664D01*
X174982202Y-31927671D01*
X174931908Y-32062517D01*
X174925501Y-32122116D01*
X174925500Y-32122135D01*
X174925500Y-33917870D01*
X174925501Y-33917876D01*
X174931908Y-33977483D01*
X174982202Y-34112328D01*
X174982206Y-34112335D01*
X175068452Y-34227544D01*
X175068455Y-34227547D01*
X175183664Y-34313793D01*
X175183671Y-34313797D01*
X175318517Y-34364091D01*
X175318516Y-34364091D01*
X175325444Y-34364835D01*
X175378127Y-34370500D01*
X176791500Y-34370499D01*
X176858539Y-34390184D01*
X176904294Y-34442987D01*
X176915500Y-34494499D01*
X176915500Y-36159019D01*
X176895815Y-36226058D01*
X176843011Y-36271813D01*
X176773853Y-36281757D01*
X176739097Y-36271402D01*
X176722498Y-36263662D01*
X176722488Y-36263658D01*
X176502697Y-36204766D01*
X176502693Y-36204765D01*
X176502692Y-36204765D01*
X176502691Y-36204764D01*
X176502686Y-36204764D01*
X176276002Y-36184932D01*
X176275998Y-36184932D01*
X176049313Y-36204764D01*
X176049302Y-36204766D01*
X175829511Y-36263658D01*
X175829502Y-36263661D01*
X175623267Y-36359831D01*
X175623265Y-36359832D01*
X175436858Y-36490354D01*
X175275954Y-36651258D01*
X175145432Y-36837665D01*
X175145431Y-36837667D01*
X175118382Y-36895675D01*
X175072209Y-36948114D01*
X175005016Y-36967266D01*
X174938135Y-36947050D01*
X174893618Y-36895675D01*
X174866686Y-36837920D01*
X174866568Y-36837666D01*
X174736047Y-36651261D01*
X174736045Y-36651258D01*
X174575141Y-36490354D01*
X174388734Y-36359832D01*
X174388732Y-36359831D01*
X174182497Y-36263661D01*
X174182488Y-36263658D01*
X173962697Y-36204766D01*
X173962693Y-36204765D01*
X173962692Y-36204765D01*
X173962691Y-36204764D01*
X173962686Y-36204764D01*
X173736002Y-36184932D01*
X173735998Y-36184932D01*
X173509313Y-36204764D01*
X173509302Y-36204766D01*
X173289511Y-36263658D01*
X173289502Y-36263661D01*
X173083267Y-36359831D01*
X173083265Y-36359832D01*
X172896858Y-36490354D01*
X172735954Y-36651258D01*
X172605432Y-36837665D01*
X172605431Y-36837667D01*
X172509261Y-37043902D01*
X172509258Y-37043911D01*
X172450366Y-37263702D01*
X172450364Y-37263713D01*
X172430532Y-37490398D01*
X172430532Y-37490401D01*
X172450364Y-37717086D01*
X172450366Y-37717097D01*
X172509258Y-37936888D01*
X172509261Y-37936897D01*
X172605431Y-38143132D01*
X172605432Y-38143134D01*
X172735954Y-38329541D01*
X172896857Y-38490444D01*
X172896860Y-38490446D01*
X172896861Y-38490447D01*
X172982623Y-38550497D01*
X173026248Y-38605073D01*
X173035500Y-38652072D01*
X173035500Y-39854951D01*
X173035387Y-39858696D01*
X173031642Y-39920603D01*
X173031642Y-39920605D01*
X173042821Y-39981612D01*
X173043384Y-39985313D01*
X173050859Y-40046870D01*
X173050860Y-40046874D01*
X173054451Y-40056343D01*
X173060474Y-40077946D01*
X173062304Y-40087930D01*
X173087759Y-40144490D01*
X173089189Y-40147941D01*
X173111182Y-40205930D01*
X173111183Y-40205931D01*
X173116936Y-40214266D01*
X173127961Y-40233813D01*
X173132120Y-40243055D01*
X173132124Y-40243060D01*
X173170371Y-40291878D01*
X173172591Y-40294896D01*
X173207812Y-40345924D01*
X173207816Y-40345928D01*
X173207817Y-40345929D01*
X173254250Y-40387064D01*
X173256941Y-40389598D01*
X174813795Y-41946452D01*
X176365495Y-43498152D01*
X176398980Y-43559475D01*
X176401134Y-43572869D01*
X176406325Y-43622249D01*
X176406327Y-43622260D01*
X176464818Y-43802277D01*
X176464821Y-43802284D01*
X176559467Y-43966216D01*
X176636593Y-44051873D01*
X176686129Y-44106888D01*
X176839265Y-44218148D01*
X176839270Y-44218151D01*
X177012192Y-44295142D01*
X177012197Y-44295144D01*
X177197354Y-44334500D01*
X177197355Y-44334500D01*
X177386644Y-44334500D01*
X177386646Y-44334500D01*
X177571803Y-44295144D01*
X177644251Y-44262887D01*
X177687064Y-44243826D01*
X177756314Y-44234541D01*
X177819590Y-44264169D01*
X177856804Y-44323303D01*
X177861500Y-44357105D01*
X177861500Y-47546480D01*
X177841815Y-47613519D01*
X177825181Y-47634161D01*
X177066966Y-48392375D01*
X177064240Y-48394942D01*
X177017818Y-48436068D01*
X176982586Y-48487109D01*
X176980368Y-48490124D01*
X176942124Y-48538939D01*
X176938241Y-48545363D01*
X176936224Y-48544143D01*
X176898236Y-48588458D01*
X176831302Y-48608498D01*
X176830644Y-48608500D01*
X175553129Y-48608500D01*
X175553123Y-48608501D01*
X175493516Y-48614908D01*
X175358671Y-48665202D01*
X175358664Y-48665206D01*
X175243455Y-48751452D01*
X175243452Y-48751455D01*
X175157206Y-48866664D01*
X175157202Y-48866671D01*
X175106908Y-49001517D01*
X175100501Y-49061116D01*
X175100501Y-49061123D01*
X175100500Y-49061135D01*
X175100500Y-50506870D01*
X175100501Y-50506876D01*
X175106908Y-50566483D01*
X175157202Y-50701328D01*
X175157206Y-50701335D01*
X175243452Y-50816544D01*
X175243455Y-50816547D01*
X175358664Y-50902793D01*
X175358671Y-50902797D01*
X175493517Y-50953091D01*
X175493516Y-50953091D01*
X175500444Y-50953835D01*
X175553127Y-50959500D01*
X176721500Y-50959499D01*
X176788539Y-50979184D01*
X176834294Y-51031987D01*
X176845500Y-51083499D01*
X176845500Y-51375019D01*
X176825815Y-51442058D01*
X176773011Y-51487813D01*
X176703853Y-51497757D01*
X176689407Y-51494794D01*
X176502697Y-51444766D01*
X176502693Y-51444765D01*
X176502692Y-51444765D01*
X176502691Y-51444764D01*
X176502686Y-51444764D01*
X176276002Y-51424932D01*
X176275998Y-51424932D01*
X176049313Y-51444764D01*
X176049302Y-51444766D01*
X175829511Y-51503658D01*
X175829502Y-51503661D01*
X175623267Y-51599831D01*
X175623265Y-51599832D01*
X175436858Y-51730354D01*
X175275951Y-51891261D01*
X175258287Y-51916488D01*
X175203710Y-51960112D01*
X175134211Y-51967304D01*
X175071857Y-51935780D01*
X175036445Y-51875550D01*
X175033425Y-51858618D01*
X175029598Y-51823027D01*
X175029596Y-51823020D01*
X174979354Y-51688313D01*
X174979350Y-51688306D01*
X174893190Y-51573212D01*
X174893187Y-51573209D01*
X174778093Y-51487049D01*
X174778086Y-51487045D01*
X174643379Y-51436803D01*
X174643372Y-51436801D01*
X174583844Y-51430400D01*
X173986000Y-51430400D01*
X173986000Y-52414714D01*
X173974045Y-52402759D01*
X173861148Y-52345235D01*
X173767481Y-52330400D01*
X173704519Y-52330400D01*
X173610852Y-52345235D01*
X173497955Y-52402759D01*
X173486000Y-52414714D01*
X173486000Y-51430400D01*
X172888155Y-51430400D01*
X172828627Y-51436801D01*
X172828620Y-51436803D01*
X172693913Y-51487045D01*
X172693906Y-51487049D01*
X172578812Y-51573209D01*
X172578809Y-51573212D01*
X172492649Y-51688306D01*
X172492645Y-51688313D01*
X172442403Y-51823020D01*
X172442401Y-51823027D01*
X172436000Y-51882555D01*
X172436000Y-52155981D01*
X172416315Y-52223020D01*
X172363511Y-52268775D01*
X172294353Y-52278719D01*
X172230797Y-52249694D01*
X172224319Y-52243662D01*
X171863212Y-51882555D01*
X171501598Y-51520941D01*
X171499064Y-51518250D01*
X171457929Y-51471817D01*
X171457928Y-51471816D01*
X171457924Y-51471812D01*
X171406896Y-51436591D01*
X171403887Y-51434377D01*
X171376506Y-51412926D01*
X171355060Y-51396124D01*
X171355055Y-51396120D01*
X171345813Y-51391961D01*
X171326266Y-51380936D01*
X171317931Y-51375183D01*
X171317932Y-51375183D01*
X171317930Y-51375182D01*
X171259941Y-51353189D01*
X171256490Y-51351759D01*
X171199930Y-51326304D01*
X171189946Y-51324474D01*
X171168343Y-51318451D01*
X171158874Y-51314860D01*
X171158870Y-51314859D01*
X171097313Y-51307384D01*
X171093612Y-51306821D01*
X171032608Y-51295642D01*
X171032603Y-51295642D01*
X170970697Y-51299387D01*
X170966952Y-51299500D01*
X166209036Y-51299500D01*
X166205292Y-51299387D01*
X166143397Y-51295643D01*
X166143390Y-51295643D01*
X166082402Y-51306819D01*
X166078701Y-51307382D01*
X166017125Y-51314860D01*
X166007642Y-51318456D01*
X165986038Y-51324478D01*
X165984535Y-51324754D01*
X165976065Y-51326306D01*
X165976063Y-51326307D01*
X165919527Y-51351752D01*
X165916069Y-51353184D01*
X165858069Y-51375182D01*
X165849724Y-51380942D01*
X165830183Y-51391964D01*
X165820944Y-51396122D01*
X165820939Y-51396125D01*
X165772121Y-51434370D01*
X165769106Y-51436589D01*
X165718072Y-51471816D01*
X165718065Y-51471822D01*
X165676942Y-51518240D01*
X165674375Y-51520966D01*
X164963994Y-52231347D01*
X164902671Y-52264832D01*
X164844225Y-52263442D01*
X164827410Y-52258937D01*
X164592001Y-52238341D01*
X164591999Y-52238341D01*
X164356596Y-52258936D01*
X164356586Y-52258938D01*
X164128344Y-52320094D01*
X164128335Y-52320098D01*
X163914171Y-52419964D01*
X163914169Y-52419965D01*
X163720597Y-52555505D01*
X163553505Y-52722597D01*
X163417965Y-52916169D01*
X163417964Y-52916171D01*
X163318098Y-53130335D01*
X163318094Y-53130344D01*
X163256938Y-53358586D01*
X163256936Y-53358596D01*
X163236341Y-53593999D01*
X163236341Y-53594000D01*
X163256936Y-53829403D01*
X163256938Y-53829413D01*
X163318094Y-54057655D01*
X163318096Y-54057659D01*
X163318097Y-54057663D01*
X163402741Y-54239182D01*
X163417965Y-54271830D01*
X163417967Y-54271834D01*
X163490322Y-54375167D01*
X163547919Y-54457424D01*
X163553501Y-54465395D01*
X163553506Y-54465402D01*
X163720597Y-54632493D01*
X163720603Y-54632498D01*
X163906158Y-54762425D01*
X163949783Y-54817002D01*
X163956977Y-54886500D01*
X163925454Y-54948855D01*
X163906158Y-54965575D01*
X163720597Y-55095505D01*
X163553505Y-55262597D01*
X163417965Y-55456169D01*
X163417964Y-55456171D01*
X163318098Y-55670335D01*
X163318094Y-55670344D01*
X163256938Y-55898586D01*
X163256936Y-55898596D01*
X163236341Y-56133999D01*
X163236341Y-56134000D01*
X163256936Y-56369403D01*
X163256938Y-56369413D01*
X163318094Y-56597655D01*
X163318096Y-56597659D01*
X163318097Y-56597663D01*
X163387950Y-56747462D01*
X163417965Y-56811830D01*
X163417967Y-56811834D01*
X163553501Y-57005395D01*
X163553506Y-57005402D01*
X163720597Y-57172493D01*
X163720603Y-57172498D01*
X163906158Y-57302425D01*
X163949783Y-57357002D01*
X163956977Y-57426500D01*
X163925454Y-57488855D01*
X163906158Y-57505575D01*
X163720597Y-57635505D01*
X163553505Y-57802597D01*
X163417965Y-57996169D01*
X163417964Y-57996171D01*
X163318098Y-58210335D01*
X163318094Y-58210344D01*
X163256938Y-58438586D01*
X163256936Y-58438596D01*
X163236341Y-58673999D01*
X163236341Y-58674000D01*
X163256936Y-58909403D01*
X163256938Y-58909413D01*
X163318094Y-59137655D01*
X163318096Y-59137659D01*
X163318097Y-59137663D01*
X163397282Y-59307475D01*
X163417965Y-59351830D01*
X163417967Y-59351834D01*
X163553501Y-59545395D01*
X163553506Y-59545402D01*
X163720597Y-59712493D01*
X163720603Y-59712498D01*
X163906158Y-59842425D01*
X163949783Y-59897002D01*
X163956977Y-59966500D01*
X163925454Y-60028855D01*
X163906158Y-60045575D01*
X163720597Y-60175505D01*
X163553505Y-60342597D01*
X163417965Y-60536169D01*
X163417964Y-60536171D01*
X163318098Y-60750335D01*
X163318094Y-60750344D01*
X163256938Y-60978586D01*
X163256936Y-60978596D01*
X163236341Y-61213999D01*
X163236341Y-61214000D01*
X163256936Y-61449403D01*
X163256938Y-61449413D01*
X163318094Y-61677655D01*
X163318096Y-61677659D01*
X163318097Y-61677663D01*
X163375241Y-61800208D01*
X163417965Y-61891830D01*
X163417967Y-61891834D01*
X163553501Y-62085395D01*
X163553506Y-62085402D01*
X163720597Y-62252493D01*
X163720603Y-62252498D01*
X163906158Y-62382425D01*
X163949783Y-62437002D01*
X163956977Y-62506500D01*
X163925454Y-62568855D01*
X163906158Y-62585575D01*
X163720597Y-62715505D01*
X163553505Y-62882597D01*
X163417965Y-63076169D01*
X163417964Y-63076171D01*
X163318098Y-63290335D01*
X163318094Y-63290344D01*
X163256938Y-63518586D01*
X163256936Y-63518596D01*
X163236341Y-63753999D01*
X163236341Y-63754000D01*
X163256936Y-63989403D01*
X163256938Y-63989413D01*
X163318094Y-64217655D01*
X163318096Y-64217659D01*
X163318097Y-64217663D01*
X163322000Y-64226032D01*
X163417965Y-64431830D01*
X163417967Y-64431834D01*
X163553501Y-64625395D01*
X163553506Y-64625402D01*
X163720597Y-64792493D01*
X163720603Y-64792498D01*
X163906158Y-64922425D01*
X163949783Y-64977002D01*
X163956977Y-65046500D01*
X163925454Y-65108855D01*
X163906158Y-65125575D01*
X163720597Y-65255505D01*
X163553505Y-65422597D01*
X163417965Y-65616169D01*
X163417964Y-65616171D01*
X163318098Y-65830335D01*
X163318094Y-65830344D01*
X163256938Y-66058586D01*
X163256936Y-66058596D01*
X163236341Y-66293999D01*
X163236341Y-66294000D01*
X163256936Y-66529403D01*
X163256938Y-66529413D01*
X163318094Y-66757655D01*
X163318096Y-66757659D01*
X163318097Y-66757663D01*
X163365651Y-66859643D01*
X163417965Y-66971830D01*
X163417967Y-66971834D01*
X163553501Y-67165395D01*
X163553506Y-67165402D01*
X163720597Y-67332493D01*
X163720603Y-67332498D01*
X163906158Y-67462425D01*
X163949783Y-67517002D01*
X163956977Y-67586500D01*
X163925454Y-67648855D01*
X163906158Y-67665575D01*
X163720597Y-67795505D01*
X163553505Y-67962597D01*
X163417965Y-68156169D01*
X163417964Y-68156171D01*
X163318098Y-68370335D01*
X163318094Y-68370344D01*
X163256938Y-68598586D01*
X163256936Y-68598596D01*
X163236341Y-68833999D01*
X163236341Y-68834000D01*
X163256936Y-69069403D01*
X163256938Y-69069413D01*
X163318094Y-69297655D01*
X163318096Y-69297659D01*
X163318097Y-69297663D01*
X163375241Y-69420208D01*
X163417965Y-69511830D01*
X163417967Y-69511834D01*
X163553501Y-69705395D01*
X163553506Y-69705402D01*
X163720597Y-69872493D01*
X163720603Y-69872498D01*
X163906158Y-70002425D01*
X163949783Y-70057002D01*
X163956977Y-70126500D01*
X163925454Y-70188855D01*
X163906158Y-70205575D01*
X163720597Y-70335505D01*
X163553505Y-70502597D01*
X163417965Y-70696169D01*
X163417964Y-70696171D01*
X163318098Y-70910335D01*
X163318094Y-70910344D01*
X163256938Y-71138586D01*
X163256936Y-71138596D01*
X163236341Y-71373999D01*
X163236341Y-71374000D01*
X163256936Y-71609403D01*
X163256938Y-71609413D01*
X163318094Y-71837655D01*
X163318096Y-71837659D01*
X163318097Y-71837663D01*
X163374439Y-71958489D01*
X163417965Y-72051830D01*
X163417967Y-72051834D01*
X163526281Y-72206521D01*
X163553505Y-72245401D01*
X163720599Y-72412495D01*
X163793643Y-72463641D01*
X163914165Y-72548032D01*
X163914167Y-72548033D01*
X163914170Y-72548035D01*
X164128337Y-72647903D01*
X164356592Y-72709063D01*
X164527319Y-72724000D01*
X164591999Y-72729659D01*
X164592000Y-72729659D01*
X164592001Y-72729659D01*
X164656681Y-72724000D01*
X164827408Y-72709063D01*
X165055663Y-72647903D01*
X165269830Y-72548035D01*
X165463401Y-72412495D01*
X165585717Y-72290178D01*
X165647036Y-72256696D01*
X165716728Y-72261680D01*
X165772662Y-72303551D01*
X165789577Y-72334528D01*
X165838646Y-72466088D01*
X165838649Y-72466093D01*
X165924809Y-72581187D01*
X165924812Y-72581190D01*
X166039906Y-72667350D01*
X166039913Y-72667354D01*
X166174620Y-72717596D01*
X166174627Y-72717598D01*
X166234155Y-72723999D01*
X166234172Y-72724000D01*
X166882000Y-72724000D01*
X166882000Y-71809501D01*
X166989685Y-71858680D01*
X167096237Y-71874000D01*
X167167763Y-71874000D01*
X167274315Y-71858680D01*
X167382000Y-71809501D01*
X167382000Y-72724000D01*
X168029828Y-72724000D01*
X168029844Y-72723999D01*
X168089372Y-72717598D01*
X168089379Y-72717596D01*
X168224086Y-72667354D01*
X168224093Y-72667350D01*
X168339187Y-72581190D01*
X168339190Y-72581187D01*
X168425350Y-72466093D01*
X168425354Y-72466086D01*
X168475596Y-72331379D01*
X168475598Y-72331372D01*
X168481999Y-72271844D01*
X168482000Y-72271827D01*
X168482000Y-71624000D01*
X167565686Y-71624000D01*
X167591493Y-71583844D01*
X167632000Y-71445889D01*
X167632000Y-71302111D01*
X167591493Y-71164156D01*
X167565686Y-71124000D01*
X168404229Y-71124000D01*
X168468071Y-71142746D01*
X168468525Y-71141997D01*
X168474943Y-71145877D01*
X168484174Y-71150031D01*
X168503727Y-71161059D01*
X168512070Y-71166818D01*
X168570057Y-71188809D01*
X168573512Y-71190239D01*
X168603093Y-71203553D01*
X168630063Y-71215692D01*
X168630064Y-71215692D01*
X168630068Y-71215694D01*
X168640030Y-71217519D01*
X168661651Y-71223546D01*
X168671125Y-71227139D01*
X168671128Y-71227140D01*
X168687871Y-71229173D01*
X168732689Y-71234615D01*
X168736386Y-71235177D01*
X168797394Y-71246357D01*
X168797395Y-71246356D01*
X168797396Y-71246357D01*
X168859293Y-71242613D01*
X168863037Y-71242500D01*
X170654008Y-71242500D01*
X170657753Y-71242613D01*
X170665098Y-71243057D01*
X170719662Y-71246358D01*
X170762374Y-71238530D01*
X170784724Y-71236500D01*
X173582000Y-71236500D01*
X173649039Y-71256185D01*
X173694794Y-71308989D01*
X173706000Y-71360500D01*
X173706000Y-71886000D01*
X174690314Y-71886000D01*
X174678359Y-71897955D01*
X174620835Y-72010852D01*
X174601014Y-72136000D01*
X174620835Y-72261148D01*
X174678359Y-72374045D01*
X174690314Y-72386000D01*
X173706000Y-72386000D01*
X173706000Y-73383844D01*
X173712401Y-73443372D01*
X173712403Y-73443379D01*
X173762645Y-73578086D01*
X173762649Y-73578093D01*
X173848809Y-73693187D01*
X173848812Y-73693190D01*
X173963906Y-73779350D01*
X173963913Y-73779354D01*
X174098620Y-73829596D01*
X174098627Y-73829598D01*
X174158155Y-73835999D01*
X174158172Y-73836000D01*
X174756000Y-73836000D01*
X174756000Y-72451686D01*
X174767955Y-72463641D01*
X174880852Y-72521165D01*
X174974519Y-72536000D01*
X175037481Y-72536000D01*
X175131148Y-72521165D01*
X175244045Y-72463641D01*
X175256000Y-72451686D01*
X175256000Y-73836000D01*
X175853828Y-73836000D01*
X175853844Y-73835999D01*
X175913372Y-73829598D01*
X175913379Y-73829596D01*
X176048086Y-73779354D01*
X176048093Y-73779350D01*
X176163187Y-73693190D01*
X176163190Y-73693187D01*
X176249350Y-73578093D01*
X176249354Y-73578086D01*
X176299596Y-73443380D01*
X176303424Y-73407781D01*
X176330162Y-73343230D01*
X176387555Y-73303382D01*
X176457380Y-73300888D01*
X176517469Y-73336540D01*
X176528289Y-73349912D01*
X176545956Y-73375143D01*
X176706858Y-73536045D01*
X176706861Y-73536047D01*
X176893266Y-73666568D01*
X177099504Y-73762739D01*
X177319308Y-73821635D01*
X177481230Y-73835801D01*
X177545998Y-73841468D01*
X177546000Y-73841468D01*
X177546002Y-73841468D01*
X177608511Y-73835999D01*
X177772692Y-73821635D01*
X177992496Y-73762739D01*
X178198734Y-73666568D01*
X178385139Y-73536047D01*
X178546047Y-73375139D01*
X178676568Y-73188734D01*
X178703618Y-73130724D01*
X178749790Y-73078285D01*
X178816983Y-73059133D01*
X178883865Y-73079348D01*
X178928382Y-73130725D01*
X178955429Y-73188728D01*
X178955432Y-73188734D01*
X179085954Y-73375141D01*
X179246858Y-73536045D01*
X179246861Y-73536047D01*
X179433266Y-73666568D01*
X179639504Y-73762739D01*
X179859308Y-73821635D01*
X180021230Y-73835801D01*
X180085998Y-73841468D01*
X180086000Y-73841468D01*
X180086002Y-73841468D01*
X180148511Y-73835999D01*
X180312692Y-73821635D01*
X180532496Y-73762739D01*
X180738734Y-73666568D01*
X180925139Y-73536047D01*
X181086047Y-73375139D01*
X181216568Y-73188734D01*
X181243618Y-73130724D01*
X181289790Y-73078285D01*
X181356983Y-73059133D01*
X181423865Y-73079348D01*
X181468382Y-73130725D01*
X181495429Y-73188728D01*
X181495432Y-73188734D01*
X181625954Y-73375141D01*
X181786858Y-73536045D01*
X181786861Y-73536047D01*
X181973266Y-73666568D01*
X182179504Y-73762739D01*
X182399308Y-73821635D01*
X182561230Y-73835801D01*
X182625998Y-73841468D01*
X182626000Y-73841468D01*
X182626002Y-73841468D01*
X182688511Y-73835999D01*
X182852692Y-73821635D01*
X183072496Y-73762739D01*
X183278734Y-73666568D01*
X183465139Y-73536047D01*
X183626047Y-73375139D01*
X183756568Y-73188734D01*
X183783618Y-73130724D01*
X183829790Y-73078285D01*
X183896983Y-73059133D01*
X183963865Y-73079348D01*
X184008382Y-73130725D01*
X184035429Y-73188728D01*
X184035432Y-73188734D01*
X184165954Y-73375141D01*
X184326858Y-73536045D01*
X184326861Y-73536047D01*
X184513266Y-73666568D01*
X184719504Y-73762739D01*
X184939308Y-73821635D01*
X185101230Y-73835801D01*
X185165998Y-73841468D01*
X185166000Y-73841468D01*
X185166002Y-73841468D01*
X185228511Y-73835999D01*
X185392692Y-73821635D01*
X185612496Y-73762739D01*
X185818734Y-73666568D01*
X186005139Y-73536047D01*
X186166047Y-73375139D01*
X186296568Y-73188734D01*
X186323618Y-73130724D01*
X186369790Y-73078285D01*
X186436983Y-73059133D01*
X186503865Y-73079348D01*
X186548382Y-73130725D01*
X186575429Y-73188728D01*
X186575432Y-73188734D01*
X186705954Y-73375141D01*
X186866858Y-73536045D01*
X186866861Y-73536047D01*
X187053266Y-73666568D01*
X187259504Y-73762739D01*
X187479308Y-73821635D01*
X187641230Y-73835801D01*
X187705998Y-73841468D01*
X187706000Y-73841468D01*
X187706002Y-73841468D01*
X187768511Y-73835999D01*
X187932692Y-73821635D01*
X188152496Y-73762739D01*
X188358734Y-73666568D01*
X188545139Y-73536047D01*
X188706047Y-73375139D01*
X188836568Y-73188734D01*
X188863618Y-73130724D01*
X188909790Y-73078285D01*
X188976983Y-73059133D01*
X189043865Y-73079348D01*
X189088382Y-73130725D01*
X189115429Y-73188728D01*
X189115432Y-73188734D01*
X189245954Y-73375141D01*
X189406858Y-73536045D01*
X189406861Y-73536047D01*
X189593266Y-73666568D01*
X189799504Y-73762739D01*
X190019308Y-73821635D01*
X190181230Y-73835801D01*
X190245998Y-73841468D01*
X190246000Y-73841468D01*
X190246002Y-73841468D01*
X190308511Y-73835999D01*
X190472692Y-73821635D01*
X190692496Y-73762739D01*
X190898734Y-73666568D01*
X191085139Y-73536047D01*
X191246047Y-73375139D01*
X191376568Y-73188734D01*
X191403618Y-73130724D01*
X191449790Y-73078285D01*
X191516983Y-73059133D01*
X191583865Y-73079348D01*
X191628382Y-73130725D01*
X191655429Y-73188728D01*
X191655432Y-73188734D01*
X191785954Y-73375141D01*
X191946858Y-73536045D01*
X191946861Y-73536047D01*
X192133266Y-73666568D01*
X192339504Y-73762739D01*
X192559308Y-73821635D01*
X192721230Y-73835801D01*
X192785998Y-73841468D01*
X192786000Y-73841468D01*
X192786002Y-73841468D01*
X192848511Y-73835999D01*
X193012692Y-73821635D01*
X193232496Y-73762739D01*
X193438734Y-73666568D01*
X193625139Y-73536047D01*
X193786047Y-73375139D01*
X193916568Y-73188734D01*
X193943618Y-73130724D01*
X193989790Y-73078285D01*
X194056983Y-73059133D01*
X194123865Y-73079348D01*
X194168382Y-73130725D01*
X194195429Y-73188728D01*
X194195432Y-73188734D01*
X194325954Y-73375141D01*
X194486858Y-73536045D01*
X194486861Y-73536047D01*
X194673266Y-73666568D01*
X194879504Y-73762739D01*
X195099308Y-73821635D01*
X195261230Y-73835801D01*
X195325998Y-73841468D01*
X195326000Y-73841468D01*
X195326002Y-73841468D01*
X195388511Y-73835999D01*
X195552692Y-73821635D01*
X195772496Y-73762739D01*
X195978734Y-73666568D01*
X196165139Y-73536047D01*
X196326047Y-73375139D01*
X196456568Y-73188734D01*
X196483618Y-73130724D01*
X196529790Y-73078285D01*
X196596983Y-73059133D01*
X196663865Y-73079348D01*
X196708382Y-73130725D01*
X196735429Y-73188728D01*
X196735432Y-73188734D01*
X196865954Y-73375141D01*
X197026858Y-73536045D01*
X197026861Y-73536047D01*
X197213266Y-73666568D01*
X197419504Y-73762739D01*
X197639308Y-73821635D01*
X197801230Y-73835801D01*
X197865998Y-73841468D01*
X197866000Y-73841468D01*
X197866002Y-73841468D01*
X197928511Y-73835999D01*
X198092692Y-73821635D01*
X198312496Y-73762739D01*
X198518734Y-73666568D01*
X198705139Y-73536047D01*
X198866047Y-73375139D01*
X198996568Y-73188734D01*
X199023618Y-73130724D01*
X199069790Y-73078285D01*
X199136983Y-73059133D01*
X199203865Y-73079348D01*
X199248382Y-73130725D01*
X199275429Y-73188728D01*
X199275432Y-73188734D01*
X199405954Y-73375141D01*
X199566858Y-73536045D01*
X199566861Y-73536047D01*
X199753266Y-73666568D01*
X199959504Y-73762739D01*
X200179308Y-73821635D01*
X200341230Y-73835801D01*
X200405998Y-73841468D01*
X200406000Y-73841468D01*
X200406002Y-73841468D01*
X200468511Y-73835999D01*
X200632692Y-73821635D01*
X200852496Y-73762739D01*
X201058734Y-73666568D01*
X201245139Y-73536047D01*
X201406047Y-73375139D01*
X201536568Y-73188734D01*
X201563618Y-73130724D01*
X201609790Y-73078285D01*
X201676983Y-73059133D01*
X201743865Y-73079348D01*
X201788382Y-73130725D01*
X201815429Y-73188728D01*
X201815432Y-73188734D01*
X201945954Y-73375141D01*
X202106858Y-73536045D01*
X202106861Y-73536047D01*
X202293266Y-73666568D01*
X202499504Y-73762739D01*
X202719308Y-73821635D01*
X202881230Y-73835801D01*
X202945998Y-73841468D01*
X202946000Y-73841468D01*
X202946002Y-73841468D01*
X203008511Y-73835999D01*
X203172692Y-73821635D01*
X203392496Y-73762739D01*
X203598734Y-73666568D01*
X203785139Y-73536047D01*
X203946047Y-73375139D01*
X204076568Y-73188734D01*
X204103618Y-73130724D01*
X204149790Y-73078285D01*
X204216983Y-73059133D01*
X204283865Y-73079348D01*
X204328382Y-73130725D01*
X204355429Y-73188728D01*
X204355432Y-73188734D01*
X204485954Y-73375141D01*
X204646858Y-73536045D01*
X204646861Y-73536047D01*
X204833266Y-73666568D01*
X205039504Y-73762739D01*
X205259308Y-73821635D01*
X205421230Y-73835801D01*
X205485998Y-73841468D01*
X205486000Y-73841468D01*
X205486002Y-73841468D01*
X205548511Y-73835999D01*
X205712692Y-73821635D01*
X205932496Y-73762739D01*
X206138734Y-73666568D01*
X206325139Y-73536047D01*
X206486047Y-73375139D01*
X206616568Y-73188734D01*
X206643618Y-73130724D01*
X206689790Y-73078285D01*
X206756983Y-73059133D01*
X206823865Y-73079348D01*
X206868382Y-73130725D01*
X206895429Y-73188728D01*
X206895432Y-73188734D01*
X207025954Y-73375141D01*
X207186858Y-73536045D01*
X207186861Y-73536047D01*
X207373266Y-73666568D01*
X207579504Y-73762739D01*
X207799308Y-73821635D01*
X207961230Y-73835801D01*
X208025998Y-73841468D01*
X208026000Y-73841468D01*
X208026002Y-73841468D01*
X208088511Y-73835999D01*
X208252692Y-73821635D01*
X208472496Y-73762739D01*
X208678734Y-73666568D01*
X208865139Y-73536047D01*
X209026047Y-73375139D01*
X209156568Y-73188734D01*
X209183618Y-73130724D01*
X209229790Y-73078285D01*
X209296983Y-73059133D01*
X209363865Y-73079348D01*
X209408382Y-73130725D01*
X209435429Y-73188728D01*
X209435432Y-73188734D01*
X209565954Y-73375141D01*
X209726858Y-73536045D01*
X209726861Y-73536047D01*
X209913266Y-73666568D01*
X210119504Y-73762739D01*
X210339308Y-73821635D01*
X210501230Y-73835801D01*
X210565998Y-73841468D01*
X210566000Y-73841468D01*
X210566002Y-73841468D01*
X210628511Y-73835999D01*
X210792692Y-73821635D01*
X211012496Y-73762739D01*
X211218734Y-73666568D01*
X211405139Y-73536047D01*
X211566047Y-73375139D01*
X211696568Y-73188734D01*
X211723618Y-73130724D01*
X211769790Y-73078285D01*
X211836983Y-73059133D01*
X211903865Y-73079348D01*
X211948382Y-73130725D01*
X211975429Y-73188728D01*
X211975432Y-73188734D01*
X212105954Y-73375141D01*
X212266858Y-73536045D01*
X212266861Y-73536047D01*
X212453266Y-73666568D01*
X212659504Y-73762739D01*
X212879308Y-73821635D01*
X213041230Y-73835801D01*
X213105998Y-73841468D01*
X213106000Y-73841468D01*
X213106002Y-73841468D01*
X213168511Y-73835999D01*
X213332692Y-73821635D01*
X213552496Y-73762739D01*
X213758734Y-73666568D01*
X213945139Y-73536047D01*
X214106047Y-73375139D01*
X214236568Y-73188734D01*
X214263618Y-73130724D01*
X214309790Y-73078285D01*
X214376983Y-73059133D01*
X214443865Y-73079348D01*
X214488382Y-73130725D01*
X214515429Y-73188728D01*
X214515432Y-73188734D01*
X214645954Y-73375141D01*
X214806858Y-73536045D01*
X214806861Y-73536047D01*
X214993266Y-73666568D01*
X215199504Y-73762739D01*
X215419308Y-73821635D01*
X215581230Y-73835801D01*
X215645998Y-73841468D01*
X215646000Y-73841468D01*
X215646002Y-73841468D01*
X215708511Y-73835999D01*
X215872692Y-73821635D01*
X216092496Y-73762739D01*
X216298734Y-73666568D01*
X216485139Y-73536047D01*
X216646047Y-73375139D01*
X216776568Y-73188734D01*
X216803618Y-73130724D01*
X216849790Y-73078285D01*
X216916983Y-73059133D01*
X216983865Y-73079348D01*
X217028382Y-73130725D01*
X217055429Y-73188728D01*
X217055432Y-73188734D01*
X217185954Y-73375141D01*
X217346858Y-73536045D01*
X217346861Y-73536047D01*
X217533266Y-73666568D01*
X217739504Y-73762739D01*
X217959308Y-73821635D01*
X218121230Y-73835801D01*
X218185998Y-73841468D01*
X218186000Y-73841468D01*
X218186002Y-73841468D01*
X218248511Y-73835999D01*
X218412692Y-73821635D01*
X218632496Y-73762739D01*
X218838734Y-73666568D01*
X219025139Y-73536047D01*
X219186047Y-73375139D01*
X219316568Y-73188734D01*
X219343618Y-73130724D01*
X219389790Y-73078285D01*
X219456983Y-73059133D01*
X219523865Y-73079348D01*
X219568382Y-73130725D01*
X219595429Y-73188728D01*
X219595432Y-73188734D01*
X219725954Y-73375141D01*
X219886858Y-73536045D01*
X219886861Y-73536047D01*
X220073266Y-73666568D01*
X220279504Y-73762739D01*
X220499308Y-73821635D01*
X220661230Y-73835801D01*
X220725998Y-73841468D01*
X220726000Y-73841468D01*
X220726002Y-73841468D01*
X220788511Y-73835999D01*
X220952692Y-73821635D01*
X221172496Y-73762739D01*
X221378734Y-73666568D01*
X221565139Y-73536047D01*
X221726047Y-73375139D01*
X221856568Y-73188734D01*
X221883618Y-73130724D01*
X221929790Y-73078285D01*
X221996983Y-73059133D01*
X222063865Y-73079348D01*
X222108382Y-73130725D01*
X222135429Y-73188728D01*
X222135432Y-73188734D01*
X222265954Y-73375141D01*
X222426858Y-73536045D01*
X222426861Y-73536047D01*
X222613266Y-73666568D01*
X222819504Y-73762739D01*
X223039308Y-73821635D01*
X223201230Y-73835801D01*
X223265998Y-73841468D01*
X223266000Y-73841468D01*
X223266002Y-73841468D01*
X223328511Y-73835999D01*
X223492692Y-73821635D01*
X223712496Y-73762739D01*
X223918734Y-73666568D01*
X224105139Y-73536047D01*
X224266047Y-73375139D01*
X224396568Y-73188734D01*
X224492739Y-72982496D01*
X224551635Y-72762692D01*
X224566500Y-72592784D01*
X224566500Y-71679216D01*
X224551635Y-71509308D01*
X224492739Y-71289504D01*
X224396568Y-71083266D01*
X224266047Y-70896861D01*
X224266045Y-70896858D01*
X224105141Y-70735954D01*
X223918734Y-70605432D01*
X223918732Y-70605431D01*
X223712497Y-70509261D01*
X223712488Y-70509258D01*
X223492697Y-70450366D01*
X223492693Y-70450365D01*
X223492692Y-70450365D01*
X223492691Y-70450364D01*
X223492686Y-70450364D01*
X223266002Y-70430532D01*
X223265998Y-70430532D01*
X223039313Y-70450364D01*
X223039302Y-70450366D01*
X222819511Y-70509258D01*
X222819497Y-70509263D01*
X222768899Y-70532858D01*
X222699822Y-70543350D01*
X222636038Y-70514830D01*
X222628814Y-70508157D01*
X217543254Y-65422597D01*
X212439598Y-60318941D01*
X212437064Y-60316250D01*
X212395929Y-60269817D01*
X212395928Y-60269816D01*
X212395924Y-60269812D01*
X212344896Y-60234591D01*
X212341887Y-60232377D01*
X212293060Y-60194124D01*
X212293055Y-60194120D01*
X212283813Y-60189961D01*
X212264266Y-60178936D01*
X212255931Y-60173183D01*
X212255932Y-60173183D01*
X212255930Y-60173182D01*
X212197941Y-60151189D01*
X212194490Y-60149759D01*
X212137930Y-60124304D01*
X212127946Y-60122474D01*
X212106343Y-60116451D01*
X212096874Y-60112860D01*
X212096870Y-60112859D01*
X212035313Y-60105384D01*
X212031612Y-60104821D01*
X211970608Y-60093642D01*
X211970603Y-60093642D01*
X211908697Y-60097387D01*
X211904952Y-60097500D01*
X190806601Y-60097500D01*
X190739562Y-60077815D01*
X190693807Y-60025011D01*
X190683863Y-59955853D01*
X190712888Y-59892297D01*
X190718920Y-59885819D01*
X191344530Y-59260208D01*
X191995048Y-58609688D01*
X191997740Y-58607154D01*
X192044183Y-58566011D01*
X192068488Y-58530798D01*
X192079408Y-58514978D01*
X192081616Y-58511975D01*
X192082237Y-58511181D01*
X192083676Y-58509344D01*
X192140502Y-58468696D01*
X192210285Y-58465222D01*
X192233704Y-58473403D01*
X192339504Y-58522739D01*
X192559308Y-58581635D01*
X192721230Y-58595801D01*
X192785998Y-58601468D01*
X192786000Y-58601468D01*
X192786002Y-58601468D01*
X192842673Y-58596509D01*
X193012692Y-58581635D01*
X193232496Y-58522739D01*
X193438734Y-58426568D01*
X193625139Y-58296047D01*
X193786047Y-58135139D01*
X193916568Y-57948734D01*
X193943618Y-57890724D01*
X193989790Y-57838285D01*
X194056983Y-57819133D01*
X194123865Y-57839348D01*
X194168382Y-57890725D01*
X194195429Y-57948728D01*
X194195432Y-57948734D01*
X194325954Y-58135141D01*
X194486858Y-58296045D01*
X194486861Y-58296047D01*
X194673266Y-58426568D01*
X194879504Y-58522739D01*
X195099308Y-58581635D01*
X195261230Y-58595801D01*
X195325998Y-58601468D01*
X195326000Y-58601468D01*
X195326002Y-58601468D01*
X195382673Y-58596509D01*
X195552692Y-58581635D01*
X195772496Y-58522739D01*
X195978734Y-58426568D01*
X196165139Y-58296047D01*
X196326047Y-58135139D01*
X196456568Y-57948734D01*
X196483618Y-57890724D01*
X196529790Y-57838285D01*
X196596983Y-57819133D01*
X196663865Y-57839348D01*
X196708382Y-57890725D01*
X196735429Y-57948728D01*
X196735432Y-57948734D01*
X196865954Y-58135141D01*
X197026858Y-58296045D01*
X197026861Y-58296047D01*
X197213266Y-58426568D01*
X197419504Y-58522739D01*
X197639308Y-58581635D01*
X197801230Y-58595801D01*
X197865998Y-58601468D01*
X197866000Y-58601468D01*
X197866002Y-58601468D01*
X197922673Y-58596509D01*
X198092692Y-58581635D01*
X198312496Y-58522739D01*
X198518734Y-58426568D01*
X198705139Y-58296047D01*
X198866047Y-58135139D01*
X198996568Y-57948734D01*
X199023618Y-57890724D01*
X199069790Y-57838285D01*
X199136983Y-57819133D01*
X199203865Y-57839348D01*
X199248382Y-57890725D01*
X199275429Y-57948728D01*
X199275432Y-57948734D01*
X199405954Y-58135141D01*
X199566858Y-58296045D01*
X199566861Y-58296047D01*
X199753266Y-58426568D01*
X199959504Y-58522739D01*
X200179308Y-58581635D01*
X200341230Y-58595801D01*
X200405998Y-58601468D01*
X200406000Y-58601468D01*
X200406002Y-58601468D01*
X200462673Y-58596509D01*
X200632692Y-58581635D01*
X200852496Y-58522739D01*
X201058734Y-58426568D01*
X201245139Y-58296047D01*
X201406047Y-58135139D01*
X201536568Y-57948734D01*
X201563618Y-57890724D01*
X201609790Y-57838285D01*
X201676983Y-57819133D01*
X201743865Y-57839348D01*
X201788382Y-57890725D01*
X201815429Y-57948728D01*
X201815432Y-57948734D01*
X201945954Y-58135141D01*
X202106858Y-58296045D01*
X202106861Y-58296047D01*
X202293266Y-58426568D01*
X202499504Y-58522739D01*
X202719308Y-58581635D01*
X202881230Y-58595801D01*
X202945998Y-58601468D01*
X202946000Y-58601468D01*
X202946002Y-58601468D01*
X203002673Y-58596509D01*
X203172692Y-58581635D01*
X203392496Y-58522739D01*
X203598734Y-58426568D01*
X203785139Y-58296047D01*
X203946047Y-58135139D01*
X204076568Y-57948734D01*
X204103618Y-57890724D01*
X204149790Y-57838285D01*
X204216983Y-57819133D01*
X204283865Y-57839348D01*
X204328382Y-57890725D01*
X204355429Y-57948728D01*
X204355432Y-57948734D01*
X204485954Y-58135141D01*
X204646858Y-58296045D01*
X204646861Y-58296047D01*
X204833266Y-58426568D01*
X205039504Y-58522739D01*
X205259308Y-58581635D01*
X205421230Y-58595801D01*
X205485998Y-58601468D01*
X205486000Y-58601468D01*
X205486002Y-58601468D01*
X205542673Y-58596509D01*
X205712692Y-58581635D01*
X205932496Y-58522739D01*
X206138734Y-58426568D01*
X206325139Y-58296047D01*
X206486047Y-58135139D01*
X206616568Y-57948734D01*
X206643618Y-57890724D01*
X206689790Y-57838285D01*
X206756983Y-57819133D01*
X206823865Y-57839348D01*
X206868382Y-57890725D01*
X206895429Y-57948728D01*
X206895432Y-57948734D01*
X207025954Y-58135141D01*
X207186858Y-58296045D01*
X207186861Y-58296047D01*
X207373266Y-58426568D01*
X207579504Y-58522739D01*
X207799308Y-58581635D01*
X207961230Y-58595801D01*
X208025998Y-58601468D01*
X208026000Y-58601468D01*
X208026002Y-58601468D01*
X208082673Y-58596509D01*
X208252692Y-58581635D01*
X208472496Y-58522739D01*
X208678734Y-58426568D01*
X208865139Y-58296047D01*
X209026047Y-58135139D01*
X209156568Y-57948734D01*
X209183618Y-57890724D01*
X209229790Y-57838285D01*
X209296983Y-57819133D01*
X209363865Y-57839348D01*
X209408382Y-57890725D01*
X209435429Y-57948728D01*
X209435432Y-57948734D01*
X209565954Y-58135141D01*
X209726858Y-58296045D01*
X209726861Y-58296047D01*
X209913266Y-58426568D01*
X210119504Y-58522739D01*
X210339308Y-58581635D01*
X210501230Y-58595801D01*
X210565998Y-58601468D01*
X210566000Y-58601468D01*
X210566002Y-58601468D01*
X210622673Y-58596509D01*
X210792692Y-58581635D01*
X211012496Y-58522739D01*
X211218734Y-58426568D01*
X211405139Y-58296047D01*
X211566047Y-58135139D01*
X211696568Y-57948734D01*
X211723618Y-57890724D01*
X211769790Y-57838285D01*
X211836983Y-57819133D01*
X211903865Y-57839348D01*
X211948382Y-57890725D01*
X211975429Y-57948728D01*
X211975432Y-57948734D01*
X212105954Y-58135141D01*
X212266858Y-58296045D01*
X212266861Y-58296047D01*
X212453266Y-58426568D01*
X212659504Y-58522739D01*
X212879308Y-58581635D01*
X213041230Y-58595801D01*
X213105998Y-58601468D01*
X213106000Y-58601468D01*
X213106002Y-58601468D01*
X213162673Y-58596509D01*
X213332692Y-58581635D01*
X213552496Y-58522739D01*
X213603100Y-58499141D01*
X213672174Y-58488649D01*
X213735958Y-58517167D01*
X213743185Y-58523842D01*
X215896399Y-60677056D01*
X215898935Y-60679750D01*
X215940069Y-60726181D01*
X215940073Y-60726185D01*
X215967021Y-60744786D01*
X215991117Y-60761417D01*
X215994107Y-60763617D01*
X216042943Y-60801878D01*
X216052171Y-60806031D01*
X216052180Y-60806035D01*
X216071726Y-60817058D01*
X216080070Y-60822818D01*
X216138044Y-60844804D01*
X216138052Y-60844807D01*
X216141514Y-60846241D01*
X216198068Y-60871694D01*
X216208030Y-60873519D01*
X216229651Y-60879546D01*
X216229667Y-60879552D01*
X216239128Y-60883140D01*
X216255871Y-60885173D01*
X216300689Y-60890615D01*
X216304386Y-60891177D01*
X216365394Y-60902357D01*
X216365395Y-60902356D01*
X216365396Y-60902357D01*
X216427293Y-60898613D01*
X216431037Y-60898500D01*
X223735064Y-60898500D01*
X223738809Y-60898613D01*
X223746154Y-60899057D01*
X223800718Y-60902358D01*
X223838426Y-60895447D01*
X223861733Y-60891177D01*
X223865437Y-60890613D01*
X223883282Y-60888446D01*
X223926984Y-60883140D01*
X223936447Y-60879550D01*
X223958073Y-60873522D01*
X223959005Y-60873351D01*
X223968044Y-60871695D01*
X224024624Y-60846229D01*
X224028060Y-60844807D01*
X224086042Y-60822818D01*
X224094378Y-60817062D01*
X224113933Y-60806034D01*
X224123169Y-60801878D01*
X224172008Y-60763613D01*
X224174988Y-60761421D01*
X224226041Y-60726183D01*
X224267177Y-60679748D01*
X224269711Y-60677056D01*
X226285056Y-58661711D01*
X226287748Y-58659177D01*
X226334183Y-58618041D01*
X226369421Y-58566988D01*
X226371613Y-58564008D01*
X226409878Y-58515169D01*
X226414034Y-58505933D01*
X226425062Y-58486378D01*
X226430818Y-58478042D01*
X226452809Y-58420054D01*
X226454229Y-58416624D01*
X226479695Y-58360044D01*
X226481522Y-58350073D01*
X226487552Y-58328443D01*
X226491140Y-58318983D01*
X226491140Y-58318980D01*
X226498613Y-58257437D01*
X226499177Y-58253733D01*
X226503447Y-58230426D01*
X226510358Y-58192718D01*
X226506613Y-58130808D01*
X226506500Y-58127063D01*
X226506500Y-43863435D01*
X226506613Y-43859690D01*
X226510357Y-43797794D01*
X226499177Y-43736786D01*
X226498615Y-43733089D01*
X226491140Y-43671529D01*
X226491139Y-43671525D01*
X226487546Y-43662051D01*
X226481519Y-43640429D01*
X226479694Y-43630470D01*
X226479694Y-43630468D01*
X226454241Y-43573914D01*
X226452807Y-43570452D01*
X226430818Y-43512471D01*
X226430818Y-43512470D01*
X226425058Y-43504126D01*
X226414035Y-43484580D01*
X226409878Y-43475343D01*
X226371617Y-43426507D01*
X226369417Y-43423517D01*
X226352786Y-43399421D01*
X226334185Y-43372473D01*
X226334183Y-43372471D01*
X226287750Y-43331335D01*
X226285056Y-43328799D01*
X221782319Y-38826062D01*
X221748834Y-38764739D01*
X221746000Y-38738381D01*
X221746000Y-37806086D01*
X221757955Y-37818041D01*
X221870852Y-37875565D01*
X221964519Y-37890400D01*
X222027481Y-37890400D01*
X222121148Y-37875565D01*
X222234045Y-37818041D01*
X222246000Y-37806086D01*
X222246000Y-38769272D01*
X222442317Y-38716669D01*
X222442326Y-38716665D01*
X222648482Y-38620534D01*
X222834820Y-38490057D01*
X222995657Y-38329220D01*
X223126134Y-38142882D01*
X223222265Y-37936726D01*
X223222269Y-37936717D01*
X223274872Y-37740400D01*
X222311686Y-37740400D01*
X222323641Y-37728445D01*
X222381165Y-37615548D01*
X222400986Y-37490400D01*
X222381165Y-37365252D01*
X222323641Y-37252355D01*
X222311686Y-37240400D01*
X223274872Y-37240400D01*
X223274872Y-37240399D01*
X223222269Y-37044082D01*
X223222265Y-37044073D01*
X223126134Y-36837917D01*
X223064640Y-36750096D01*
X223042313Y-36683890D01*
X223059323Y-36616123D01*
X223110271Y-36568309D01*
X223166215Y-36554972D01*
X223266172Y-36554972D01*
X223266174Y-36554972D01*
X223451331Y-36515616D01*
X223624258Y-36438623D01*
X223777399Y-36327360D01*
X223904061Y-36186688D01*
X223998707Y-36022756D01*
X224057202Y-35842728D01*
X224076988Y-35654472D01*
X224057202Y-35466216D01*
X223998707Y-35286188D01*
X223904061Y-35122256D01*
X223777399Y-34981584D01*
X223777398Y-34981583D01*
X223624262Y-34870323D01*
X223624257Y-34870320D01*
X223451335Y-34793329D01*
X223451330Y-34793327D01*
X223296399Y-34760396D01*
X223234917Y-34727204D01*
X223234499Y-34726787D01*
X219719894Y-31212181D01*
X219686409Y-31150858D01*
X219691393Y-31081166D01*
X219733265Y-31025233D01*
X219798729Y-31000816D01*
X219807575Y-31000500D01*
X227875500Y-31000500D01*
X227942539Y-31020185D01*
X227988294Y-31072989D01*
X227999500Y-31124500D01*
X227999500Y-77383915D01*
X227979815Y-77450954D01*
X227927011Y-77496709D01*
X227876373Y-77507912D01*
X191867000Y-77761500D01*
X160124500Y-77761500D01*
X160057461Y-77741815D01*
X160011706Y-77689011D01*
X160000500Y-77637500D01*
X160000500Y-76589844D01*
X173671000Y-76589844D01*
X173677401Y-76649372D01*
X173677403Y-76649379D01*
X173727645Y-76784086D01*
X173727649Y-76784093D01*
X173813809Y-76899187D01*
X173813812Y-76899190D01*
X173928906Y-76985350D01*
X173928913Y-76985354D01*
X174063620Y-77035596D01*
X174063627Y-77035598D01*
X174123155Y-77041999D01*
X174123172Y-77042000D01*
X174771000Y-77042000D01*
X174771000Y-76127501D01*
X174878685Y-76176680D01*
X174985237Y-76192000D01*
X175056763Y-76192000D01*
X175163315Y-76176680D01*
X175271000Y-76127501D01*
X175271000Y-77042000D01*
X175918828Y-77042000D01*
X175918844Y-77041999D01*
X175978372Y-77035598D01*
X175978379Y-77035596D01*
X176113086Y-76985354D01*
X176113093Y-76985350D01*
X176228187Y-76899190D01*
X176228190Y-76899187D01*
X176314350Y-76784093D01*
X176314354Y-76784086D01*
X176363422Y-76652529D01*
X176405293Y-76596595D01*
X176470757Y-76572178D01*
X176539030Y-76587030D01*
X176567285Y-76608181D01*
X176689599Y-76730495D01*
X176766135Y-76784086D01*
X176883165Y-76866032D01*
X176883167Y-76866033D01*
X176883170Y-76866035D01*
X177097337Y-76965903D01*
X177325592Y-77027063D01*
X177496319Y-77042000D01*
X177560999Y-77047659D01*
X177561000Y-77047659D01*
X177561001Y-77047659D01*
X177625681Y-77042000D01*
X177796408Y-77027063D01*
X178024663Y-76965903D01*
X178238830Y-76866035D01*
X178432401Y-76730495D01*
X178599495Y-76563401D01*
X178729425Y-76377842D01*
X178784002Y-76334217D01*
X178853500Y-76327023D01*
X178915855Y-76358546D01*
X178932575Y-76377842D01*
X179062500Y-76563395D01*
X179062505Y-76563401D01*
X179229599Y-76730495D01*
X179306135Y-76784086D01*
X179423165Y-76866032D01*
X179423167Y-76866033D01*
X179423170Y-76866035D01*
X179637337Y-76965903D01*
X179865592Y-77027063D01*
X180036319Y-77042000D01*
X180100999Y-77047659D01*
X180101000Y-77047659D01*
X180101001Y-77047659D01*
X180165681Y-77042000D01*
X180336408Y-77027063D01*
X180564663Y-76965903D01*
X180778830Y-76866035D01*
X180972401Y-76730495D01*
X181139495Y-76563401D01*
X181275035Y-76369830D01*
X181374903Y-76155663D01*
X181436063Y-75927408D01*
X181456659Y-75692000D01*
X181436063Y-75456592D01*
X181374903Y-75228337D01*
X181275035Y-75014171D01*
X181269425Y-75006158D01*
X181139494Y-74820597D01*
X180972402Y-74653506D01*
X180972395Y-74653501D01*
X180778834Y-74517967D01*
X180778830Y-74517965D01*
X180707727Y-74484809D01*
X180564663Y-74418097D01*
X180564659Y-74418096D01*
X180564655Y-74418094D01*
X180336413Y-74356938D01*
X180336403Y-74356936D01*
X180101001Y-74336341D01*
X180100999Y-74336341D01*
X179865596Y-74356936D01*
X179865586Y-74356938D01*
X179637344Y-74418094D01*
X179637335Y-74418098D01*
X179423171Y-74517964D01*
X179423169Y-74517965D01*
X179229597Y-74653505D01*
X179062505Y-74820597D01*
X178932575Y-75006158D01*
X178877998Y-75049783D01*
X178808500Y-75056977D01*
X178746145Y-75025454D01*
X178729425Y-75006158D01*
X178599494Y-74820597D01*
X178432402Y-74653506D01*
X178432395Y-74653501D01*
X178238834Y-74517967D01*
X178238830Y-74517965D01*
X178167727Y-74484809D01*
X178024663Y-74418097D01*
X178024659Y-74418096D01*
X178024655Y-74418094D01*
X177796413Y-74356938D01*
X177796403Y-74356936D01*
X177561001Y-74336341D01*
X177560999Y-74336341D01*
X177325596Y-74356936D01*
X177325586Y-74356938D01*
X177097344Y-74418094D01*
X177097335Y-74418098D01*
X176883171Y-74517964D01*
X176883169Y-74517965D01*
X176689600Y-74653503D01*
X176567284Y-74775819D01*
X176505961Y-74809303D01*
X176436269Y-74804319D01*
X176380336Y-74762447D01*
X176363421Y-74731470D01*
X176314354Y-74599913D01*
X176314350Y-74599906D01*
X176228190Y-74484812D01*
X176228187Y-74484809D01*
X176113093Y-74398649D01*
X176113086Y-74398645D01*
X175978379Y-74348403D01*
X175978372Y-74348401D01*
X175918844Y-74342000D01*
X175271000Y-74342000D01*
X175271000Y-75256498D01*
X175163315Y-75207320D01*
X175056763Y-75192000D01*
X174985237Y-75192000D01*
X174878685Y-75207320D01*
X174771000Y-75256498D01*
X174771000Y-74342000D01*
X174123155Y-74342000D01*
X174063627Y-74348401D01*
X174063620Y-74348403D01*
X173928913Y-74398645D01*
X173928906Y-74398649D01*
X173813812Y-74484809D01*
X173813809Y-74484812D01*
X173727649Y-74599906D01*
X173727645Y-74599913D01*
X173677403Y-74734620D01*
X173677401Y-74734627D01*
X173671000Y-74794155D01*
X173671000Y-75442000D01*
X174587314Y-75442000D01*
X174561507Y-75482156D01*
X174521000Y-75620111D01*
X174521000Y-75763889D01*
X174561507Y-75901844D01*
X174587314Y-75942000D01*
X173671000Y-75942000D01*
X173671000Y-76589844D01*
X160000500Y-76589844D01*
X160000500Y-45665000D01*
X161244341Y-45665000D01*
X161264936Y-45900403D01*
X161264938Y-45900413D01*
X161326094Y-46128655D01*
X161326096Y-46128659D01*
X161326097Y-46128663D01*
X161419927Y-46329881D01*
X161425965Y-46342830D01*
X161425967Y-46342834D01*
X161495877Y-46442675D01*
X161561505Y-46536401D01*
X161728599Y-46703495D01*
X161770020Y-46732498D01*
X161922165Y-46839032D01*
X161922167Y-46839033D01*
X161922170Y-46839035D01*
X162136337Y-46938903D01*
X162364592Y-47000063D01*
X162552918Y-47016539D01*
X162599999Y-47020659D01*
X162600000Y-47020659D01*
X162600001Y-47020659D01*
X162639234Y-47017226D01*
X162835408Y-47000063D01*
X163063663Y-46938903D01*
X163277830Y-46839035D01*
X163471401Y-46703495D01*
X163638495Y-46536401D01*
X163774035Y-46342830D01*
X163873903Y-46128663D01*
X163935063Y-45900408D01*
X163954434Y-45679000D01*
X165044341Y-45679000D01*
X165064936Y-45914403D01*
X165064938Y-45914413D01*
X165126094Y-46142655D01*
X165126096Y-46142659D01*
X165126097Y-46142663D01*
X165219437Y-46342830D01*
X165225965Y-46356830D01*
X165225967Y-46356834D01*
X165286074Y-46442675D01*
X165361505Y-46550401D01*
X165528599Y-46717495D01*
X165625384Y-46785265D01*
X165722165Y-46853032D01*
X165722167Y-46853033D01*
X165722170Y-46853035D01*
X165936337Y-46952903D01*
X166164592Y-47014063D01*
X166336016Y-47029061D01*
X166399999Y-47034659D01*
X166400000Y-47034659D01*
X166400001Y-47034659D01*
X166439234Y-47031226D01*
X166635408Y-47014063D01*
X166863663Y-46952903D01*
X167077830Y-46853035D01*
X167271401Y-46717495D01*
X167438495Y-46550401D01*
X167574035Y-46356830D01*
X167673903Y-46142663D01*
X167735063Y-45914408D01*
X167754347Y-45694000D01*
X168824341Y-45694000D01*
X168844936Y-45929403D01*
X168844938Y-45929413D01*
X168906094Y-46157655D01*
X168906096Y-46157659D01*
X168906097Y-46157663D01*
X168986404Y-46329881D01*
X169005965Y-46371830D01*
X169005967Y-46371834D01*
X169055571Y-46442675D01*
X169141505Y-46565401D01*
X169308599Y-46732495D01*
X169405384Y-46800265D01*
X169502165Y-46868032D01*
X169502167Y-46868033D01*
X169502170Y-46868035D01*
X169716337Y-46967903D01*
X169944592Y-47029063D01*
X170132918Y-47045539D01*
X170179999Y-47049659D01*
X170180000Y-47049659D01*
X170180001Y-47049659D01*
X170219234Y-47046226D01*
X170415408Y-47029063D01*
X170643663Y-46967903D01*
X170857830Y-46868035D01*
X171051401Y-46732495D01*
X171218495Y-46565401D01*
X171354035Y-46371830D01*
X171453903Y-46157663D01*
X171515063Y-45929408D01*
X171535659Y-45694000D01*
X171515063Y-45458592D01*
X171453903Y-45230337D01*
X171354035Y-45016171D01*
X171218495Y-44822599D01*
X171096567Y-44700671D01*
X171063084Y-44639351D01*
X171068068Y-44569659D01*
X171109939Y-44513725D01*
X171140915Y-44496810D01*
X171272331Y-44447796D01*
X171387546Y-44361546D01*
X171473796Y-44246331D01*
X171524091Y-44111483D01*
X171530500Y-44051873D01*
X171530499Y-42256128D01*
X171524091Y-42196517D01*
X171518496Y-42181517D01*
X171473797Y-42061671D01*
X171473793Y-42061664D01*
X171387547Y-41946455D01*
X171387544Y-41946452D01*
X171272335Y-41860206D01*
X171272328Y-41860202D01*
X171137482Y-41809908D01*
X171137483Y-41809908D01*
X171077883Y-41803501D01*
X171077881Y-41803500D01*
X171077873Y-41803500D01*
X171077864Y-41803500D01*
X169282129Y-41803500D01*
X169282123Y-41803501D01*
X169222516Y-41809908D01*
X169087671Y-41860202D01*
X169087664Y-41860206D01*
X168972455Y-41946452D01*
X168972452Y-41946455D01*
X168886206Y-42061664D01*
X168886202Y-42061671D01*
X168835908Y-42196517D01*
X168829501Y-42256116D01*
X168829501Y-42256123D01*
X168829500Y-42256135D01*
X168829500Y-44051870D01*
X168829501Y-44051876D01*
X168835908Y-44111483D01*
X168886202Y-44246328D01*
X168886206Y-44246335D01*
X168972452Y-44361544D01*
X168972455Y-44361547D01*
X169087664Y-44447793D01*
X169087671Y-44447797D01*
X169219081Y-44496810D01*
X169275015Y-44538681D01*
X169299432Y-44604145D01*
X169284580Y-44672418D01*
X169263430Y-44700673D01*
X169141503Y-44822600D01*
X169005965Y-45016169D01*
X169005964Y-45016171D01*
X168906098Y-45230335D01*
X168906094Y-45230344D01*
X168844938Y-45458586D01*
X168844936Y-45458596D01*
X168824341Y-45693999D01*
X168824341Y-45694000D01*
X167754347Y-45694000D01*
X167755659Y-45679000D01*
X167735063Y-45443592D01*
X167673903Y-45215337D01*
X167574035Y-45001171D01*
X167564232Y-44987171D01*
X167438496Y-44807600D01*
X167424495Y-44793599D01*
X167316567Y-44685671D01*
X167283084Y-44624351D01*
X167288068Y-44554659D01*
X167329939Y-44498725D01*
X167360915Y-44481810D01*
X167492331Y-44432796D01*
X167607546Y-44346546D01*
X167693796Y-44231331D01*
X167744091Y-44096483D01*
X167750500Y-44036873D01*
X167750499Y-42241128D01*
X167744091Y-42181517D01*
X167738869Y-42167517D01*
X167693797Y-42046671D01*
X167693793Y-42046664D01*
X167607547Y-41931455D01*
X167607544Y-41931452D01*
X167492335Y-41845206D01*
X167492328Y-41845202D01*
X167357482Y-41794908D01*
X167357483Y-41794908D01*
X167297883Y-41788501D01*
X167297881Y-41788500D01*
X167297873Y-41788500D01*
X167297864Y-41788500D01*
X165502129Y-41788500D01*
X165502123Y-41788501D01*
X165442516Y-41794908D01*
X165307671Y-41845202D01*
X165307664Y-41845206D01*
X165192455Y-41931452D01*
X165192452Y-41931455D01*
X165106206Y-42046664D01*
X165106202Y-42046671D01*
X165055908Y-42181517D01*
X165051005Y-42227127D01*
X165049501Y-42241123D01*
X165049500Y-42241135D01*
X165049500Y-44036870D01*
X165049501Y-44036876D01*
X165055908Y-44096483D01*
X165106202Y-44231328D01*
X165106206Y-44231335D01*
X165192452Y-44346544D01*
X165192455Y-44346547D01*
X165307664Y-44432793D01*
X165307671Y-44432797D01*
X165439081Y-44481810D01*
X165495015Y-44523681D01*
X165519432Y-44589145D01*
X165504580Y-44657418D01*
X165483430Y-44685673D01*
X165361503Y-44807600D01*
X165225965Y-45001169D01*
X165225964Y-45001171D01*
X165126098Y-45215335D01*
X165126094Y-45215344D01*
X165064938Y-45443586D01*
X165064936Y-45443596D01*
X165044341Y-45678999D01*
X165044341Y-45679000D01*
X163954434Y-45679000D01*
X163955659Y-45665000D01*
X163935063Y-45429592D01*
X163873903Y-45201337D01*
X163774035Y-44987171D01*
X163638495Y-44793599D01*
X163516567Y-44671671D01*
X163483084Y-44610351D01*
X163488068Y-44540659D01*
X163529939Y-44484725D01*
X163560915Y-44467810D01*
X163692331Y-44418796D01*
X163807546Y-44332546D01*
X163893796Y-44217331D01*
X163944091Y-44082483D01*
X163950500Y-44022873D01*
X163950499Y-42227128D01*
X163944091Y-42167517D01*
X163904612Y-42061669D01*
X163893797Y-42032671D01*
X163893793Y-42032664D01*
X163807547Y-41917455D01*
X163807544Y-41917452D01*
X163692335Y-41831206D01*
X163692328Y-41831202D01*
X163557482Y-41780908D01*
X163557483Y-41780908D01*
X163497883Y-41774501D01*
X163497881Y-41774500D01*
X163497873Y-41774500D01*
X163497864Y-41774500D01*
X161702129Y-41774500D01*
X161702123Y-41774501D01*
X161642516Y-41780908D01*
X161507671Y-41831202D01*
X161507664Y-41831206D01*
X161392455Y-41917452D01*
X161392452Y-41917455D01*
X161306206Y-42032664D01*
X161306202Y-42032671D01*
X161255908Y-42167517D01*
X161249501Y-42227116D01*
X161249501Y-42227123D01*
X161249500Y-42227135D01*
X161249500Y-44022870D01*
X161249501Y-44022876D01*
X161255908Y-44082483D01*
X161306202Y-44217328D01*
X161306206Y-44217335D01*
X161392452Y-44332544D01*
X161392455Y-44332547D01*
X161507664Y-44418793D01*
X161507671Y-44418797D01*
X161639081Y-44467810D01*
X161695015Y-44509681D01*
X161719432Y-44575145D01*
X161704580Y-44643418D01*
X161683430Y-44671673D01*
X161561503Y-44793600D01*
X161425965Y-44987169D01*
X161425964Y-44987171D01*
X161326098Y-45201335D01*
X161326094Y-45201344D01*
X161264938Y-45429586D01*
X161264936Y-45429596D01*
X161244341Y-45664999D01*
X161244341Y-45665000D01*
X160000500Y-45665000D01*
X160000500Y-31124500D01*
X160020185Y-31057461D01*
X160072989Y-31011706D01*
X160124500Y-31000500D01*
X186403480Y-31000500D01*
X186470519Y-31020185D01*
G37*
%TD.AperFunction*%
%TA.AperFunction,Conductor*%
G36*
X173986000Y-54030400D02*
G01*
X174583828Y-54030400D01*
X174583844Y-54030399D01*
X174643372Y-54023998D01*
X174643379Y-54023996D01*
X174778086Y-53973754D01*
X174778093Y-53973750D01*
X174893187Y-53887590D01*
X174893190Y-53887587D01*
X174979350Y-53772493D01*
X174979354Y-53772486D01*
X175029596Y-53637780D01*
X175033424Y-53602181D01*
X175060162Y-53537630D01*
X175117555Y-53497782D01*
X175187380Y-53495288D01*
X175247469Y-53530940D01*
X175258289Y-53544312D01*
X175275956Y-53569543D01*
X175436858Y-53730445D01*
X175436861Y-53730447D01*
X175623266Y-53860968D01*
X175829504Y-53957139D01*
X175829509Y-53957140D01*
X175829511Y-53957141D01*
X175868799Y-53967668D01*
X176049308Y-54016035D01*
X176211230Y-54030201D01*
X176275998Y-54035868D01*
X176276000Y-54035868D01*
X176276002Y-54035868D01*
X176338511Y-54030399D01*
X176502692Y-54016035D01*
X176689407Y-53966005D01*
X176759256Y-53967668D01*
X176817119Y-54006831D01*
X176844623Y-54071059D01*
X176845500Y-54085780D01*
X176845500Y-54457424D01*
X176825815Y-54524463D01*
X176809181Y-54545105D01*
X175926472Y-55427813D01*
X175865149Y-55461298D01*
X175795457Y-55456314D01*
X175767669Y-55441708D01*
X175712226Y-55402887D01*
X175658734Y-55365432D01*
X175511247Y-55296657D01*
X175452497Y-55269261D01*
X175452488Y-55269258D01*
X175232697Y-55210366D01*
X175232693Y-55210365D01*
X175232692Y-55210365D01*
X175232691Y-55210364D01*
X175232686Y-55210364D01*
X175006002Y-55190532D01*
X175005998Y-55190532D01*
X174779313Y-55210364D01*
X174779302Y-55210366D01*
X174559511Y-55269258D01*
X174559502Y-55269261D01*
X174353267Y-55365431D01*
X174353265Y-55365432D01*
X174166858Y-55495954D01*
X174005954Y-55656858D01*
X173875432Y-55843265D01*
X173875431Y-55843267D01*
X173779261Y-56049502D01*
X173779258Y-56049511D01*
X173720366Y-56269302D01*
X173720364Y-56269312D01*
X173705500Y-56439216D01*
X173705500Y-57099481D01*
X173685815Y-57166520D01*
X173633011Y-57212275D01*
X173563853Y-57222219D01*
X173500297Y-57193194D01*
X173493819Y-57187162D01*
X172694819Y-56388162D01*
X172661334Y-56326839D01*
X172658500Y-56300481D01*
X172658500Y-54139139D01*
X172678185Y-54072100D01*
X172730989Y-54026345D01*
X172800147Y-54016401D01*
X172825835Y-54022958D01*
X172828619Y-54023996D01*
X172828627Y-54023998D01*
X172888155Y-54030399D01*
X172888172Y-54030400D01*
X173486000Y-54030400D01*
X173486000Y-53046086D01*
X173497955Y-53058041D01*
X173610852Y-53115565D01*
X173704519Y-53130400D01*
X173767481Y-53130400D01*
X173861148Y-53115565D01*
X173974045Y-53058041D01*
X173986000Y-53046086D01*
X173986000Y-54030400D01*
G37*
%TD.AperFunction*%
%TA.AperFunction,Conductor*%
G36*
X179066000Y-38769272D02*
G01*
X179262317Y-38716669D01*
X179262326Y-38716665D01*
X179468482Y-38620534D01*
X179654820Y-38490057D01*
X179815657Y-38329220D01*
X179946132Y-38142884D01*
X179973341Y-38084534D01*
X180019513Y-38032095D01*
X180086707Y-38012942D01*
X180153588Y-38033157D01*
X180198106Y-38084533D01*
X180225431Y-38143132D01*
X180225432Y-38143134D01*
X180355954Y-38329541D01*
X180516858Y-38490445D01*
X180516861Y-38490447D01*
X180703266Y-38620968D01*
X180909504Y-38717139D01*
X181129308Y-38776035D01*
X181281465Y-38789347D01*
X181355998Y-38795868D01*
X181356000Y-38795868D01*
X181356002Y-38795868D01*
X181430535Y-38789347D01*
X181582692Y-38776035D01*
X181802496Y-38717139D01*
X182008734Y-38620968D01*
X182195139Y-38490447D01*
X182356047Y-38329539D01*
X182486568Y-38143134D01*
X182513618Y-38085124D01*
X182559790Y-38032685D01*
X182626983Y-38013533D01*
X182693865Y-38033748D01*
X182738382Y-38085125D01*
X182765429Y-38143128D01*
X182765432Y-38143134D01*
X182895954Y-38329541D01*
X183056858Y-38490445D01*
X183056861Y-38490447D01*
X183243266Y-38620968D01*
X183449504Y-38717139D01*
X183669308Y-38776035D01*
X183821465Y-38789347D01*
X183895998Y-38795868D01*
X183896000Y-38795868D01*
X183896002Y-38795868D01*
X183970535Y-38789347D01*
X184122692Y-38776035D01*
X184342496Y-38717139D01*
X184399841Y-38690397D01*
X184468917Y-38679906D01*
X184532702Y-38708425D01*
X184554296Y-38732341D01*
X184567812Y-38751923D01*
X184567816Y-38751927D01*
X184567817Y-38751928D01*
X184614250Y-38793063D01*
X184616941Y-38795597D01*
X185868214Y-40046870D01*
X187039181Y-41217837D01*
X187072666Y-41279160D01*
X187075500Y-41305518D01*
X187075500Y-51399019D01*
X187055815Y-51466058D01*
X187003011Y-51511813D01*
X186933853Y-51521757D01*
X186899097Y-51511402D01*
X186882498Y-51503662D01*
X186882488Y-51503658D01*
X186662697Y-51444766D01*
X186662693Y-51444765D01*
X186662692Y-51444765D01*
X186662691Y-51444764D01*
X186662686Y-51444764D01*
X186436002Y-51424932D01*
X186435998Y-51424932D01*
X186209313Y-51444764D01*
X186209302Y-51444766D01*
X185989511Y-51503658D01*
X185989502Y-51503661D01*
X185783267Y-51599831D01*
X185783265Y-51599832D01*
X185596858Y-51730354D01*
X185435954Y-51891258D01*
X185305432Y-52077665D01*
X185305431Y-52077667D01*
X185278382Y-52135675D01*
X185232209Y-52188114D01*
X185165016Y-52207266D01*
X185098135Y-52187050D01*
X185053618Y-52135675D01*
X185026568Y-52077667D01*
X185026567Y-52077665D01*
X185016065Y-52062667D01*
X184896047Y-51891261D01*
X184896045Y-51891258D01*
X184735141Y-51730354D01*
X184548734Y-51599832D01*
X184548732Y-51599831D01*
X184342497Y-51503661D01*
X184342488Y-51503658D01*
X184122697Y-51444766D01*
X184122693Y-51444765D01*
X184122692Y-51444765D01*
X184122691Y-51444764D01*
X184122686Y-51444764D01*
X183896002Y-51424932D01*
X183895998Y-51424932D01*
X183669313Y-51444764D01*
X183669302Y-51444766D01*
X183449511Y-51503658D01*
X183449502Y-51503661D01*
X183243267Y-51599831D01*
X183243265Y-51599832D01*
X183056858Y-51730354D01*
X182895954Y-51891258D01*
X182765432Y-52077665D01*
X182765431Y-52077667D01*
X182738382Y-52135675D01*
X182692209Y-52188114D01*
X182625016Y-52207266D01*
X182558135Y-52187050D01*
X182513618Y-52135675D01*
X182486568Y-52077667D01*
X182486567Y-52077665D01*
X182476065Y-52062667D01*
X182356047Y-51891261D01*
X182356045Y-51891258D01*
X182195141Y-51730354D01*
X182008734Y-51599832D01*
X182008732Y-51599831D01*
X181802497Y-51503661D01*
X181802488Y-51503658D01*
X181582697Y-51444766D01*
X181582693Y-51444765D01*
X181582692Y-51444765D01*
X181582691Y-51444764D01*
X181582686Y-51444764D01*
X181356002Y-51424932D01*
X181355998Y-51424932D01*
X181129313Y-51444764D01*
X181129302Y-51444766D01*
X180909511Y-51503658D01*
X180909502Y-51503661D01*
X180703267Y-51599831D01*
X180703265Y-51599832D01*
X180516858Y-51730354D01*
X180355954Y-51891258D01*
X180225432Y-52077665D01*
X180225431Y-52077667D01*
X180198382Y-52135675D01*
X180152209Y-52188114D01*
X180085016Y-52207266D01*
X180018135Y-52187050D01*
X179973618Y-52135675D01*
X179946568Y-52077667D01*
X179946567Y-52077665D01*
X179936065Y-52062667D01*
X179816047Y-51891261D01*
X179816045Y-51891258D01*
X179655141Y-51730354D01*
X179468734Y-51599832D01*
X179468732Y-51599831D01*
X179262497Y-51503661D01*
X179262488Y-51503658D01*
X179042697Y-51444766D01*
X179042693Y-51444765D01*
X179042692Y-51444765D01*
X179042691Y-51444764D01*
X179042686Y-51444764D01*
X178816002Y-51424932D01*
X178815998Y-51424932D01*
X178589313Y-51444764D01*
X178589302Y-51444766D01*
X178402593Y-51494794D01*
X178332743Y-51493131D01*
X178274881Y-51453968D01*
X178247377Y-51389739D01*
X178246500Y-51375019D01*
X178246500Y-51083499D01*
X178266185Y-51016460D01*
X178318989Y-50970705D01*
X178370500Y-50959499D01*
X179538871Y-50959499D01*
X179538872Y-50959499D01*
X179598483Y-50953091D01*
X179733331Y-50902796D01*
X179848546Y-50816546D01*
X179934796Y-50701331D01*
X179985091Y-50566483D01*
X179991500Y-50506873D01*
X179991500Y-50506870D01*
X182720500Y-50506870D01*
X182720501Y-50506876D01*
X182726908Y-50566483D01*
X182777202Y-50701328D01*
X182777206Y-50701335D01*
X182863452Y-50816544D01*
X182863455Y-50816547D01*
X182978664Y-50902793D01*
X182978671Y-50902797D01*
X183113517Y-50953091D01*
X183113516Y-50953091D01*
X183120444Y-50953835D01*
X183173127Y-50959500D01*
X184618872Y-50959499D01*
X184678483Y-50953091D01*
X184813331Y-50902796D01*
X184928546Y-50816546D01*
X185014796Y-50701331D01*
X185065091Y-50566483D01*
X185071500Y-50506873D01*
X185071499Y-49061128D01*
X185065091Y-49001517D01*
X185014796Y-48866669D01*
X185014795Y-48866668D01*
X185014793Y-48866664D01*
X184928547Y-48751455D01*
X184928544Y-48751452D01*
X184813335Y-48665206D01*
X184813328Y-48665202D01*
X184678482Y-48614908D01*
X184678483Y-48614908D01*
X184618883Y-48608501D01*
X184618881Y-48608500D01*
X184618873Y-48608500D01*
X184618864Y-48608500D01*
X183173129Y-48608500D01*
X183173123Y-48608501D01*
X183113516Y-48614908D01*
X182978671Y-48665202D01*
X182978664Y-48665206D01*
X182863455Y-48751452D01*
X182863452Y-48751455D01*
X182777206Y-48866664D01*
X182777202Y-48866671D01*
X182726908Y-49001517D01*
X182720501Y-49061116D01*
X182720501Y-49061123D01*
X182720500Y-49061135D01*
X182720500Y-50506870D01*
X179991500Y-50506870D01*
X179991499Y-49061128D01*
X179985091Y-49001517D01*
X179934796Y-48866669D01*
X179934795Y-48866668D01*
X179934793Y-48866664D01*
X179848547Y-48751455D01*
X179848544Y-48751452D01*
X179733335Y-48665206D01*
X179733328Y-48665202D01*
X179598482Y-48614908D01*
X179598483Y-48614908D01*
X179538883Y-48608501D01*
X179538881Y-48608500D01*
X179538873Y-48608500D01*
X179538865Y-48608500D01*
X179132049Y-48608500D01*
X179065010Y-48588815D01*
X179019255Y-48536011D01*
X179009311Y-48466853D01*
X179038336Y-48403297D01*
X179049815Y-48391690D01*
X179090183Y-48355929D01*
X179125421Y-48304876D01*
X179127613Y-48301896D01*
X179165878Y-48253057D01*
X179170034Y-48243821D01*
X179181062Y-48224266D01*
X179186818Y-48215930D01*
X179208809Y-48157942D01*
X179210229Y-48154512D01*
X179235695Y-48097932D01*
X179237522Y-48087961D01*
X179243552Y-48066331D01*
X179245226Y-48061919D01*
X179247140Y-48056872D01*
X179254613Y-47995325D01*
X179255177Y-47991621D01*
X179259447Y-47968314D01*
X179266358Y-47930606D01*
X179262613Y-47868696D01*
X179262500Y-47864951D01*
X179262500Y-42949047D01*
X179262613Y-42945302D01*
X179263026Y-42938468D01*
X179266358Y-42883394D01*
X179255175Y-42822370D01*
X179254613Y-42818673D01*
X179247140Y-42757127D01*
X179243548Y-42747656D01*
X179237522Y-42726042D01*
X179235695Y-42716068D01*
X179210234Y-42659496D01*
X179208806Y-42656049D01*
X179197691Y-42626741D01*
X179186818Y-42598070D01*
X179181063Y-42589733D01*
X179170036Y-42570182D01*
X179165879Y-42560946D01*
X179165878Y-42560943D01*
X179141741Y-42530134D01*
X179127630Y-42512122D01*
X179125410Y-42509106D01*
X179090182Y-42458070D01*
X179085148Y-42453610D01*
X179043750Y-42416935D01*
X179041056Y-42414399D01*
X178352819Y-41726162D01*
X178319334Y-41664839D01*
X178316500Y-41638481D01*
X178316500Y-41362870D01*
X182720500Y-41362870D01*
X182720501Y-41362876D01*
X182726908Y-41422483D01*
X182777202Y-41557328D01*
X182777206Y-41557335D01*
X182863452Y-41672544D01*
X182863455Y-41672547D01*
X182978664Y-41758793D01*
X182978671Y-41758797D01*
X183113517Y-41809091D01*
X183113516Y-41809091D01*
X183120444Y-41809835D01*
X183173127Y-41815500D01*
X184618872Y-41815499D01*
X184678483Y-41809091D01*
X184813331Y-41758796D01*
X184928546Y-41672546D01*
X185014796Y-41557331D01*
X185065091Y-41422483D01*
X185071500Y-41362873D01*
X185071499Y-39917128D01*
X185065091Y-39857517D01*
X185064835Y-39856831D01*
X185014797Y-39722671D01*
X185014793Y-39722664D01*
X184928547Y-39607455D01*
X184928544Y-39607452D01*
X184813335Y-39521206D01*
X184813328Y-39521202D01*
X184678482Y-39470908D01*
X184678483Y-39470908D01*
X184618883Y-39464501D01*
X184618881Y-39464500D01*
X184618873Y-39464500D01*
X184618864Y-39464500D01*
X183173129Y-39464500D01*
X183173123Y-39464501D01*
X183113516Y-39470908D01*
X182978671Y-39521202D01*
X182978664Y-39521206D01*
X182863455Y-39607452D01*
X182863452Y-39607455D01*
X182777206Y-39722664D01*
X182777202Y-39722671D01*
X182726908Y-39857517D01*
X182720501Y-39917116D01*
X182720501Y-39917123D01*
X182720500Y-39917135D01*
X182720500Y-41362870D01*
X178316500Y-41362870D01*
X178316500Y-38864019D01*
X178336185Y-38796980D01*
X178388989Y-38751225D01*
X178458147Y-38741281D01*
X178472594Y-38744244D01*
X178565999Y-38769271D01*
X178566000Y-38769271D01*
X178566000Y-37806086D01*
X178577955Y-37818041D01*
X178690852Y-37875565D01*
X178784519Y-37890400D01*
X178847481Y-37890400D01*
X178941148Y-37875565D01*
X179054045Y-37818041D01*
X179066000Y-37806086D01*
X179066000Y-38769272D01*
G37*
%TD.AperFunction*%
%TA.AperFunction,Conductor*%
G36*
X213169536Y-39814593D02*
G01*
X223269181Y-49914238D01*
X223302666Y-49975561D01*
X223305500Y-50001919D01*
X223305500Y-51939929D01*
X223285815Y-52006968D01*
X223233011Y-52052723D01*
X223163853Y-52062667D01*
X223100297Y-52033642D01*
X223079925Y-52011052D01*
X222996045Y-51891258D01*
X222835141Y-51730354D01*
X222648734Y-51599832D01*
X222648732Y-51599831D01*
X222442497Y-51503661D01*
X222442488Y-51503658D01*
X222222697Y-51444766D01*
X222222693Y-51444765D01*
X222222692Y-51444765D01*
X222222691Y-51444764D01*
X222222686Y-51444764D01*
X221996002Y-51424932D01*
X221995998Y-51424932D01*
X221769313Y-51444764D01*
X221769302Y-51444766D01*
X221549511Y-51503658D01*
X221549502Y-51503661D01*
X221343267Y-51599831D01*
X221343265Y-51599832D01*
X221156858Y-51730354D01*
X220995954Y-51891258D01*
X220865432Y-52077665D01*
X220865431Y-52077667D01*
X220838382Y-52135675D01*
X220792209Y-52188114D01*
X220725016Y-52207266D01*
X220658135Y-52187050D01*
X220613618Y-52135675D01*
X220586568Y-52077667D01*
X220586567Y-52077665D01*
X220576065Y-52062667D01*
X220456047Y-51891261D01*
X220456045Y-51891258D01*
X220295141Y-51730354D01*
X220108734Y-51599832D01*
X220108732Y-51599831D01*
X219902497Y-51503661D01*
X219902488Y-51503658D01*
X219682697Y-51444766D01*
X219682693Y-51444765D01*
X219682692Y-51444765D01*
X219682691Y-51444764D01*
X219682686Y-51444764D01*
X219456002Y-51424932D01*
X219455998Y-51424932D01*
X219229313Y-51444764D01*
X219229302Y-51444766D01*
X219009511Y-51503658D01*
X219009502Y-51503661D01*
X218803267Y-51599831D01*
X218803265Y-51599832D01*
X218616858Y-51730354D01*
X218455954Y-51891258D01*
X218325432Y-52077665D01*
X218325431Y-52077667D01*
X218298382Y-52135675D01*
X218252209Y-52188114D01*
X218185016Y-52207266D01*
X218118135Y-52187050D01*
X218073618Y-52135675D01*
X218046568Y-52077667D01*
X218046567Y-52077665D01*
X218036065Y-52062667D01*
X217916047Y-51891261D01*
X217916045Y-51891258D01*
X217755141Y-51730354D01*
X217568734Y-51599832D01*
X217568732Y-51599831D01*
X217362497Y-51503661D01*
X217362488Y-51503658D01*
X217142697Y-51444766D01*
X217142693Y-51444765D01*
X217142692Y-51444765D01*
X217142691Y-51444764D01*
X217142686Y-51444764D01*
X216916002Y-51424932D01*
X216915998Y-51424932D01*
X216689313Y-51444764D01*
X216689302Y-51444766D01*
X216469511Y-51503658D01*
X216469502Y-51503661D01*
X216263267Y-51599831D01*
X216263265Y-51599832D01*
X216076858Y-51730354D01*
X215915954Y-51891258D01*
X215785432Y-52077665D01*
X215785431Y-52077667D01*
X215758382Y-52135675D01*
X215712209Y-52188114D01*
X215645016Y-52207266D01*
X215578135Y-52187050D01*
X215533618Y-52135675D01*
X215506568Y-52077667D01*
X215506567Y-52077665D01*
X215496065Y-52062667D01*
X215376047Y-51891261D01*
X215376045Y-51891258D01*
X215215141Y-51730354D01*
X215028734Y-51599832D01*
X215028732Y-51599831D01*
X214822497Y-51503661D01*
X214822488Y-51503658D01*
X214602697Y-51444766D01*
X214602693Y-51444765D01*
X214602692Y-51444765D01*
X214602691Y-51444764D01*
X214602686Y-51444764D01*
X214376002Y-51424932D01*
X214375998Y-51424932D01*
X214149313Y-51444764D01*
X214149302Y-51444766D01*
X213929511Y-51503658D01*
X213929502Y-51503661D01*
X213723267Y-51599831D01*
X213723265Y-51599832D01*
X213536858Y-51730354D01*
X213375954Y-51891258D01*
X213245432Y-52077665D01*
X213245431Y-52077667D01*
X213218382Y-52135675D01*
X213172209Y-52188114D01*
X213105016Y-52207266D01*
X213038135Y-52187050D01*
X212993618Y-52135675D01*
X212966568Y-52077667D01*
X212966567Y-52077665D01*
X212956065Y-52062667D01*
X212836047Y-51891261D01*
X212836045Y-51891258D01*
X212675141Y-51730354D01*
X212488734Y-51599832D01*
X212488732Y-51599831D01*
X212282497Y-51503661D01*
X212282488Y-51503658D01*
X212062697Y-51444766D01*
X212062693Y-51444765D01*
X212062692Y-51444765D01*
X212062691Y-51444764D01*
X212062686Y-51444764D01*
X211836002Y-51424932D01*
X211835998Y-51424932D01*
X211604117Y-51445219D01*
X211535617Y-51431452D01*
X211505629Y-51409372D01*
X211372819Y-51276562D01*
X211339334Y-51215239D01*
X211336500Y-51188881D01*
X211336500Y-42773619D01*
X211356185Y-42706580D01*
X211408989Y-42660825D01*
X211478147Y-42650881D01*
X211492594Y-42653844D01*
X211585999Y-42678871D01*
X211586000Y-42678871D01*
X211586000Y-41315686D01*
X211597955Y-41327641D01*
X211710852Y-41385165D01*
X211804519Y-41400000D01*
X211867481Y-41400000D01*
X211961148Y-41385165D01*
X212074045Y-41327641D01*
X212086000Y-41315686D01*
X212086000Y-42678872D01*
X212282317Y-42626269D01*
X212282326Y-42626265D01*
X212488482Y-42530134D01*
X212674820Y-42399657D01*
X212835657Y-42238820D01*
X212966134Y-42052482D01*
X213062265Y-41846326D01*
X213062269Y-41846317D01*
X213121139Y-41626610D01*
X213121141Y-41626599D01*
X213136000Y-41456763D01*
X213136000Y-41250000D01*
X212151686Y-41250000D01*
X212163641Y-41238045D01*
X212221165Y-41125148D01*
X212240986Y-41000000D01*
X212221165Y-40874852D01*
X212163641Y-40761955D01*
X212151686Y-40750000D01*
X213136000Y-40750000D01*
X213136000Y-40543237D01*
X213121141Y-40373400D01*
X213121139Y-40373389D01*
X213062269Y-40153682D01*
X213062265Y-40153673D01*
X212969473Y-39954679D01*
X212958981Y-39885601D01*
X212987501Y-39821817D01*
X213045977Y-39783578D01*
X213115845Y-39783023D01*
X213169536Y-39814593D01*
G37*
%TD.AperFunction*%
%TA.AperFunction,Conductor*%
G36*
X189226000Y-42700000D02*
G01*
X189351500Y-42700000D01*
X189418539Y-42719685D01*
X189464294Y-42772489D01*
X189475500Y-42824000D01*
X189475500Y-51356263D01*
X189455815Y-51423302D01*
X189403011Y-51469057D01*
X189333853Y-51479001D01*
X189319407Y-51476038D01*
X189202697Y-51444766D01*
X189202693Y-51444765D01*
X189202692Y-51444765D01*
X189202691Y-51444764D01*
X189202686Y-51444764D01*
X188976002Y-51424932D01*
X188975998Y-51424932D01*
X188744117Y-51445219D01*
X188675617Y-51431452D01*
X188645629Y-51409372D01*
X188512819Y-51276562D01*
X188479334Y-51215239D01*
X188476500Y-51188881D01*
X188476500Y-42824000D01*
X188496185Y-42756961D01*
X188548989Y-42711206D01*
X188600500Y-42700000D01*
X188726000Y-42700000D01*
X188726000Y-41315686D01*
X188737955Y-41327641D01*
X188850852Y-41385165D01*
X188944519Y-41400000D01*
X189007481Y-41400000D01*
X189101148Y-41385165D01*
X189214045Y-41327641D01*
X189226000Y-41315686D01*
X189226000Y-42700000D01*
G37*
%TD.AperFunction*%
%TA.AperFunction,Conductor*%
G36*
X187773865Y-38033748D02*
G01*
X187818382Y-38085125D01*
X187845429Y-38143128D01*
X187845432Y-38143134D01*
X187975954Y-38329541D01*
X188136858Y-38490445D01*
X188136861Y-38490447D01*
X188323266Y-38620968D01*
X188529504Y-38717139D01*
X188749308Y-38776035D01*
X188901465Y-38789347D01*
X188975998Y-38795868D01*
X188976000Y-38795868D01*
X188976002Y-38795868D01*
X189050535Y-38789347D01*
X189202692Y-38776035D01*
X189319408Y-38744761D01*
X189389256Y-38746424D01*
X189447119Y-38785586D01*
X189474623Y-38849815D01*
X189475500Y-38864536D01*
X189475500Y-39176000D01*
X189455815Y-39243039D01*
X189403011Y-39288794D01*
X189351500Y-39300000D01*
X189226000Y-39300000D01*
X189226000Y-40684314D01*
X189214045Y-40672359D01*
X189101148Y-40614835D01*
X189007481Y-40600000D01*
X188944519Y-40600000D01*
X188850852Y-40614835D01*
X188737955Y-40672359D01*
X188726000Y-40684314D01*
X188726000Y-39300000D01*
X188128155Y-39300000D01*
X188068627Y-39306401D01*
X188068620Y-39306403D01*
X187933913Y-39356645D01*
X187933906Y-39356649D01*
X187818812Y-39442809D01*
X187818809Y-39442812D01*
X187732649Y-39557906D01*
X187732646Y-39557911D01*
X187698997Y-39648129D01*
X187657125Y-39704062D01*
X187591661Y-39728479D01*
X187523388Y-39713627D01*
X187495134Y-39692476D01*
X186748312Y-38945654D01*
X186714827Y-38884331D01*
X186719811Y-38814639D01*
X186761683Y-38758706D01*
X186803899Y-38738198D01*
X186845362Y-38727088D01*
X186882486Y-38717142D01*
X186882489Y-38717140D01*
X186882496Y-38717139D01*
X187088734Y-38620968D01*
X187275139Y-38490447D01*
X187436047Y-38329539D01*
X187566568Y-38143134D01*
X187593618Y-38085124D01*
X187639790Y-38032685D01*
X187706983Y-38013533D01*
X187773865Y-38033748D01*
G37*
%TD.AperFunction*%
%TA.AperFunction,Conductor*%
G36*
X211492582Y-38744758D02*
G01*
X211609308Y-38776035D01*
X211761465Y-38789347D01*
X211835998Y-38795868D01*
X211836000Y-38795868D01*
X211836001Y-38795868D01*
X211854304Y-38794266D01*
X212062692Y-38776035D01*
X212062697Y-38776033D01*
X212067881Y-38775580D01*
X212136381Y-38789346D01*
X212166370Y-38811427D01*
X212621406Y-39266463D01*
X212654891Y-39327786D01*
X212649907Y-39397478D01*
X212608035Y-39453411D01*
X212542571Y-39477828D01*
X212481320Y-39466526D01*
X212282328Y-39373734D01*
X212086000Y-39321127D01*
X212086000Y-40684314D01*
X212074045Y-40672359D01*
X211961148Y-40614835D01*
X211867481Y-40600000D01*
X211804519Y-40600000D01*
X211710852Y-40614835D01*
X211597955Y-40672359D01*
X211586000Y-40684314D01*
X211586000Y-39321127D01*
X211585999Y-39321126D01*
X211492594Y-39346155D01*
X211422744Y-39344492D01*
X211364881Y-39305330D01*
X211337377Y-39241101D01*
X211336500Y-39226380D01*
X211336500Y-38864536D01*
X211356185Y-38797497D01*
X211408989Y-38751742D01*
X211478147Y-38741798D01*
X211492582Y-38744758D01*
G37*
%TD.AperFunction*%
%TA.AperFunction,Conductor*%
G36*
X180170855Y-33686546D02*
G01*
X180187575Y-33705842D01*
X180279261Y-33836784D01*
X180317505Y-33891401D01*
X180484599Y-34058495D01*
X180581384Y-34126265D01*
X180678165Y-34194032D01*
X180678167Y-34194033D01*
X180678170Y-34194035D01*
X180892337Y-34293903D01*
X181120592Y-34355063D01*
X181297034Y-34370500D01*
X181355999Y-34375659D01*
X181356000Y-34375659D01*
X181356001Y-34375659D01*
X181414966Y-34370500D01*
X181591408Y-34355063D01*
X181608216Y-34350559D01*
X181678064Y-34352218D01*
X181727994Y-34382651D01*
X183433059Y-36087716D01*
X183466544Y-36149039D01*
X183461560Y-36218731D01*
X183419688Y-36274664D01*
X183397783Y-36287779D01*
X183243267Y-36359831D01*
X183243265Y-36359832D01*
X183056858Y-36490354D01*
X182895954Y-36651258D01*
X182765432Y-36837665D01*
X182765431Y-36837667D01*
X182738382Y-36895675D01*
X182692209Y-36948114D01*
X182625016Y-36967266D01*
X182558135Y-36947050D01*
X182513618Y-36895675D01*
X182486686Y-36837920D01*
X182486568Y-36837666D01*
X182356047Y-36651261D01*
X182356045Y-36651258D01*
X182195141Y-36490354D01*
X182008734Y-36359832D01*
X182008732Y-36359831D01*
X181802497Y-36263661D01*
X181802488Y-36263658D01*
X181582697Y-36204766D01*
X181582693Y-36204765D01*
X181582692Y-36204765D01*
X181582691Y-36204764D01*
X181582686Y-36204764D01*
X181356002Y-36184932D01*
X181355998Y-36184932D01*
X181129313Y-36204764D01*
X181129302Y-36204766D01*
X180909511Y-36263658D01*
X180909502Y-36263661D01*
X180703267Y-36359831D01*
X180703265Y-36359832D01*
X180516858Y-36490354D01*
X180355954Y-36651258D01*
X180225433Y-36837664D01*
X180225432Y-36837666D01*
X180225315Y-36837918D01*
X180198106Y-36896267D01*
X180151933Y-36948706D01*
X180084739Y-36967857D01*
X180017858Y-36947641D01*
X179973342Y-36896265D01*
X179946135Y-36837920D01*
X179946134Y-36837918D01*
X179815657Y-36651579D01*
X179654820Y-36490742D01*
X179468482Y-36360265D01*
X179262328Y-36264134D01*
X179066000Y-36211527D01*
X179066000Y-37174714D01*
X179054045Y-37162759D01*
X178941148Y-37105235D01*
X178847481Y-37090400D01*
X178784519Y-37090400D01*
X178690852Y-37105235D01*
X178577955Y-37162759D01*
X178566000Y-37174714D01*
X178566000Y-36211527D01*
X178565999Y-36211526D01*
X178472594Y-36236555D01*
X178402744Y-36234892D01*
X178344881Y-36195730D01*
X178317377Y-36131501D01*
X178316500Y-36116780D01*
X178316500Y-34561518D01*
X178336185Y-34494479D01*
X178352810Y-34473846D01*
X178444008Y-34382648D01*
X178505326Y-34349166D01*
X178563778Y-34350557D01*
X178580592Y-34355063D01*
X178757034Y-34370500D01*
X178815999Y-34375659D01*
X178816000Y-34375659D01*
X178816001Y-34375659D01*
X178874966Y-34370500D01*
X179051408Y-34355063D01*
X179279663Y-34293903D01*
X179493830Y-34194035D01*
X179687401Y-34058495D01*
X179854495Y-33891401D01*
X179984425Y-33705842D01*
X180039002Y-33662217D01*
X180108500Y-33655023D01*
X180170855Y-33686546D01*
G37*
%TD.AperFunction*%
%TA.AperFunction,Conductor*%
G36*
X218738576Y-32216185D02*
G01*
X218759218Y-32232819D01*
X222245023Y-35718623D01*
X222278508Y-35779946D01*
X222280662Y-35793340D01*
X222285853Y-35842721D01*
X222285855Y-35842732D01*
X222344346Y-36022749D01*
X222346990Y-36028686D01*
X222344473Y-36029806D01*
X222358069Y-36085937D01*
X222335194Y-36151956D01*
X222280257Y-36195127D01*
X222265549Y-36196526D01*
X222246000Y-36211527D01*
X222246000Y-37174714D01*
X222234045Y-37162759D01*
X222121148Y-37105235D01*
X222027481Y-37090400D01*
X221964519Y-37090400D01*
X221870852Y-37105235D01*
X221757955Y-37162759D01*
X221746000Y-37174714D01*
X221746000Y-36211527D01*
X221549671Y-36264134D01*
X221343517Y-36360265D01*
X221157179Y-36490742D01*
X220996342Y-36651579D01*
X220865867Y-36837915D01*
X220838657Y-36896267D01*
X220792484Y-36948706D01*
X220725290Y-36967857D01*
X220658409Y-36947641D01*
X220613893Y-36896265D01*
X220586685Y-36837918D01*
X220586568Y-36837666D01*
X220456047Y-36651261D01*
X220456045Y-36651258D01*
X220295141Y-36490354D01*
X220108734Y-36359832D01*
X220108732Y-36359831D01*
X219902497Y-36263661D01*
X219902488Y-36263658D01*
X219682697Y-36204766D01*
X219682693Y-36204765D01*
X219682692Y-36204765D01*
X219682691Y-36204764D01*
X219682686Y-36204764D01*
X219456002Y-36184932D01*
X219455998Y-36184932D01*
X219229313Y-36204764D01*
X219229302Y-36204766D01*
X219009511Y-36263658D01*
X219009502Y-36263661D01*
X218803267Y-36359831D01*
X218803265Y-36359832D01*
X218616858Y-36490354D01*
X218455954Y-36651258D01*
X218325432Y-36837665D01*
X218325431Y-36837667D01*
X218298382Y-36895675D01*
X218252209Y-36948114D01*
X218185016Y-36967266D01*
X218118135Y-36947050D01*
X218073618Y-36895675D01*
X218046686Y-36837920D01*
X218046568Y-36837666D01*
X217916047Y-36651261D01*
X217916045Y-36651258D01*
X217755141Y-36490354D01*
X217568734Y-36359832D01*
X217568732Y-36359831D01*
X217362497Y-36263661D01*
X217362488Y-36263658D01*
X217142697Y-36204766D01*
X217142693Y-36204765D01*
X217142692Y-36204765D01*
X217142691Y-36204764D01*
X217142686Y-36204764D01*
X216916002Y-36184932D01*
X216915998Y-36184932D01*
X216689313Y-36204764D01*
X216689302Y-36204766D01*
X216469511Y-36263658D01*
X216469502Y-36263661D01*
X216263267Y-36359831D01*
X216263265Y-36359832D01*
X216076858Y-36490354D01*
X215915954Y-36651258D01*
X215785432Y-36837665D01*
X215785431Y-36837667D01*
X215758382Y-36895675D01*
X215712209Y-36948114D01*
X215645016Y-36967266D01*
X215578135Y-36947050D01*
X215533618Y-36895675D01*
X215506686Y-36837920D01*
X215506568Y-36837666D01*
X215376047Y-36651261D01*
X215376045Y-36651258D01*
X215215141Y-36490354D01*
X215028734Y-36359832D01*
X215028732Y-36359831D01*
X214822497Y-36263661D01*
X214822488Y-36263658D01*
X214602697Y-36204766D01*
X214602693Y-36204765D01*
X214602692Y-36204765D01*
X214602691Y-36204764D01*
X214602686Y-36204764D01*
X214376002Y-36184932D01*
X214375998Y-36184932D01*
X214149313Y-36204764D01*
X214149302Y-36204766D01*
X213929511Y-36263658D01*
X213929502Y-36263661D01*
X213723267Y-36359831D01*
X213723265Y-36359832D01*
X213536858Y-36490354D01*
X213375954Y-36651258D01*
X213245432Y-36837665D01*
X213245431Y-36837667D01*
X213218382Y-36895675D01*
X213172209Y-36948114D01*
X213105016Y-36967266D01*
X213038135Y-36947050D01*
X212993618Y-36895675D01*
X212966686Y-36837920D01*
X212966568Y-36837666D01*
X212836047Y-36651261D01*
X212836045Y-36651258D01*
X212675141Y-36490354D01*
X212488734Y-36359832D01*
X212488732Y-36359831D01*
X212282497Y-36263661D01*
X212282488Y-36263658D01*
X212062697Y-36204766D01*
X212062693Y-36204765D01*
X212062692Y-36204765D01*
X212062691Y-36204764D01*
X212062686Y-36204764D01*
X211836002Y-36184932D01*
X211835998Y-36184932D01*
X211609313Y-36204764D01*
X211609302Y-36204766D01*
X211492593Y-36236038D01*
X211422743Y-36234375D01*
X211364881Y-36195212D01*
X211337377Y-36130983D01*
X211336500Y-36116263D01*
X211336500Y-35154136D01*
X211356185Y-35087097D01*
X211408989Y-35041342D01*
X211478147Y-35031398D01*
X211492582Y-35034358D01*
X211609308Y-35065635D01*
X211771230Y-35079801D01*
X211835998Y-35085468D01*
X211836000Y-35085468D01*
X211836002Y-35085468D01*
X211892673Y-35080509D01*
X212062692Y-35065635D01*
X212282496Y-35006739D01*
X212488734Y-34910568D01*
X212675139Y-34780047D01*
X212836047Y-34619139D01*
X212966568Y-34432734D01*
X213062739Y-34226496D01*
X213121635Y-34006692D01*
X213136500Y-33836784D01*
X213136500Y-32923216D01*
X213121635Y-32753308D01*
X213062739Y-32533504D01*
X212987850Y-32372905D01*
X212977358Y-32303827D01*
X213005878Y-32240043D01*
X213064354Y-32201804D01*
X213100232Y-32196500D01*
X218671537Y-32196500D01*
X218738576Y-32216185D01*
G37*
%TD.AperFunction*%
%TD*%
M02*
