%TF.GenerationSoftware,KiCad,Pcbnew,7.0.9-7.0.9~ubuntu20.04.1*%
%TF.CreationDate,2023-12-26T19:53:29+01:00*%
%TF.ProjectId,6803_Addon,36383033-5f41-4646-946f-6e2e6b696361,rev?*%
%TF.SameCoordinates,Original*%
%TF.FileFunction,Soldermask,Top*%
%TF.FilePolarity,Negative*%
%FSLAX46Y46*%
G04 Gerber Fmt 4.6, Leading zero omitted, Abs format (unit mm)*
G04 Created by KiCad (PCBNEW 7.0.9-7.0.9~ubuntu20.04.1) date 2023-12-26 19:53:29*
%MOMM*%
%LPD*%
G01*
G04 APERTURE LIST*
G04 Aperture macros list*
%AMRoundRect*
0 Rectangle with rounded corners*
0 $1 Rounding radius*
0 $2 $3 $4 $5 $6 $7 $8 $9 X,Y pos of 4 corners*
0 Add a 4 corners polygon primitive as box body*
4,1,4,$2,$3,$4,$5,$6,$7,$8,$9,$2,$3,0*
0 Add four circle primitives for the rounded corners*
1,1,$1+$1,$2,$3*
1,1,$1+$1,$4,$5*
1,1,$1+$1,$6,$7*
1,1,$1+$1,$8,$9*
0 Add four rect primitives between the rounded corners*
20,1,$1+$1,$2,$3,$4,$5,0*
20,1,$1+$1,$4,$5,$6,$7,0*
20,1,$1+$1,$6,$7,$8,$9,0*
20,1,$1+$1,$8,$9,$2,$3,0*%
G04 Aperture macros list end*
%ADD10R,1.600000X1.600000*%
%ADD11O,1.600000X1.600000*%
%ADD12R,1.700000X1.700000*%
%ADD13O,1.700000X1.700000*%
%ADD14RoundRect,0.250000X0.650000X-0.412500X0.650000X0.412500X-0.650000X0.412500X-0.650000X-0.412500X0*%
%ADD15R,1.350000X1.350000*%
%ADD16RoundRect,0.250000X-0.625000X0.400000X-0.625000X-0.400000X0.625000X-0.400000X0.625000X0.400000X0*%
%ADD17RoundRect,0.250001X-0.624999X0.462499X-0.624999X-0.462499X0.624999X-0.462499X0.624999X0.462499X0*%
%ADD18R,1.600000X2.400000*%
%ADD19O,1.600000X2.400000*%
G04 APERTURE END LIST*
D10*
%TO.C,U3*%
X173736000Y-52730400D03*
D11*
X176276000Y-52730400D03*
X178816000Y-52730400D03*
X181356000Y-52730400D03*
X183896000Y-52730400D03*
X186436000Y-52730400D03*
X188976000Y-52730400D03*
X191516000Y-52730400D03*
X194056000Y-52730400D03*
X196596000Y-52730400D03*
X199136000Y-52730400D03*
X201676000Y-52730400D03*
X204216000Y-52730400D03*
X206756000Y-52730400D03*
X209296000Y-52730400D03*
X211836000Y-52730400D03*
X214376000Y-52730400D03*
X216916000Y-52730400D03*
X219456000Y-52730400D03*
X221996000Y-52730400D03*
X221996000Y-37490400D03*
X219456000Y-37490400D03*
X216916000Y-37490400D03*
X214376000Y-37490400D03*
X211836000Y-37490400D03*
X209296000Y-37490400D03*
X206756000Y-37490400D03*
X204216000Y-37490400D03*
X201676000Y-37490400D03*
X199136000Y-37490400D03*
X196596000Y-37490400D03*
X194056000Y-37490400D03*
X191516000Y-37490400D03*
X188976000Y-37490400D03*
X186436000Y-37490400D03*
X183896000Y-37490400D03*
X181356000Y-37490400D03*
X178816000Y-37490400D03*
X176276000Y-37490400D03*
X173736000Y-37490400D03*
%TD*%
D12*
%TO.C,JP6*%
X176276000Y-33020000D03*
D13*
X178816000Y-33020000D03*
X181356000Y-33020000D03*
%TD*%
D12*
%TO.C,JP5*%
X175021000Y-75692000D03*
D13*
X177561000Y-75692000D03*
X180101000Y-75692000D03*
%TD*%
D12*
%TO.C,J1*%
X167132000Y-71374000D03*
D13*
X164592000Y-71374000D03*
X167132000Y-68834000D03*
X164592000Y-68834000D03*
X167132000Y-66294000D03*
X164592000Y-66294000D03*
X167132000Y-63754000D03*
X164592000Y-63754000D03*
X167132000Y-61214000D03*
X164592000Y-61214000D03*
X167132000Y-58674000D03*
X164592000Y-58674000D03*
X167132000Y-56134000D03*
X164592000Y-56134000D03*
X167132000Y-53594000D03*
X164592000Y-53594000D03*
%TD*%
D12*
%TO.C,JP3*%
X170180000Y-43154000D03*
D13*
X170180000Y-45694000D03*
%TD*%
D14*
%TO.C,C1*%
X175006000Y-67094500D03*
X175006000Y-63969500D03*
%TD*%
D12*
%TO.C,JP1*%
X162600000Y-43125000D03*
D13*
X162600000Y-45665000D03*
%TD*%
D15*
%TO.C,J4*%
X183896000Y-40640000D03*
%TD*%
D16*
%TO.C,R3*%
X197600000Y-65100000D03*
X197600000Y-68200000D03*
%TD*%
D12*
%TO.C,JP2*%
X166400000Y-43139000D03*
D13*
X166400000Y-45679000D03*
%TD*%
D15*
%TO.C,J2*%
X170434000Y-53594000D03*
%TD*%
%TO.C,J5*%
X176276000Y-49784000D03*
%TD*%
%TO.C,J6*%
X183896000Y-49784000D03*
%TD*%
D17*
%TO.C,D2*%
X166400000Y-37025000D03*
X166400000Y-40000000D03*
%TD*%
D16*
%TO.C,R1*%
X192800000Y-65050000D03*
X192800000Y-68150000D03*
%TD*%
D18*
%TO.C,U1*%
X175006000Y-72136000D03*
D19*
X177546000Y-72136000D03*
X180086000Y-72136000D03*
X182626000Y-72136000D03*
X185166000Y-72136000D03*
X187706000Y-72136000D03*
X190246000Y-72136000D03*
X192786000Y-72136000D03*
X195326000Y-72136000D03*
X197866000Y-72136000D03*
X200406000Y-72136000D03*
X202946000Y-72136000D03*
X205486000Y-72136000D03*
X208026000Y-72136000D03*
X210566000Y-72136000D03*
X213106000Y-72136000D03*
X215646000Y-72136000D03*
X218186000Y-72136000D03*
X220726000Y-72136000D03*
X223266000Y-72136000D03*
X223266000Y-56896000D03*
X220726000Y-56896000D03*
X218186000Y-56896000D03*
X215646000Y-56896000D03*
X213106000Y-56896000D03*
X210566000Y-56896000D03*
X208026000Y-56896000D03*
X205486000Y-56896000D03*
X202946000Y-56896000D03*
X200406000Y-56896000D03*
X197866000Y-56896000D03*
X195326000Y-56896000D03*
X192786000Y-56896000D03*
X190246000Y-56896000D03*
X187706000Y-56896000D03*
X185166000Y-56896000D03*
X182626000Y-56896000D03*
X180086000Y-56896000D03*
X177546000Y-56896000D03*
X175006000Y-56896000D03*
%TD*%
D17*
%TO.C,D3*%
X170200000Y-37112500D03*
X170200000Y-40087500D03*
%TD*%
D18*
%TO.C,U2*%
X188976000Y-41000000D03*
D19*
X191516000Y-41000000D03*
X194056000Y-41000000D03*
X196596000Y-41000000D03*
X199136000Y-41000000D03*
X201676000Y-41000000D03*
X204216000Y-41000000D03*
X206756000Y-41000000D03*
X209296000Y-41000000D03*
X211836000Y-41000000D03*
X211836000Y-33380000D03*
X209296000Y-33380000D03*
X206756000Y-33380000D03*
X204216000Y-33380000D03*
X201676000Y-33380000D03*
X199136000Y-33380000D03*
X196596000Y-33380000D03*
X194056000Y-33380000D03*
X191516000Y-33380000D03*
X188976000Y-33380000D03*
%TD*%
D16*
%TO.C,R2*%
X195200000Y-65050000D03*
X195200000Y-68150000D03*
%TD*%
D17*
%TO.C,D1*%
X162600000Y-37112500D03*
X162600000Y-40087500D03*
%TD*%
D15*
%TO.C,J3*%
X178816000Y-49784000D03*
%TD*%
M02*
