%TF.GenerationSoftware,KiCad,Pcbnew,7.0.5-7.0.5~ubuntu20.04.1*%
%TF.CreationDate,2023-07-18T13:57:16+02:00*%
%TF.ProjectId,MOS_MultiParallel_2,4d4f535f-4d75-46c7-9469-506172616c6c,rev?*%
%TF.SameCoordinates,Original*%
%TF.FileFunction,Legend,Bot*%
%TF.FilePolarity,Positive*%
%FSLAX46Y46*%
G04 Gerber Fmt 4.6, Leading zero omitted, Abs format (unit mm)*
G04 Created by KiCad (PCBNEW 7.0.5-7.0.5~ubuntu20.04.1) date 2023-07-18 13:57:16*
%MOMM*%
%LPD*%
G01*
G04 APERTURE LIST*
%ADD10C,0.150000*%
%ADD11C,0.120000*%
G04 APERTURE END LIST*
D10*
%TO.C,C2*%
X187176580Y-122032733D02*
X187224200Y-121985114D01*
X187224200Y-121985114D02*
X187271819Y-121842257D01*
X187271819Y-121842257D02*
X187271819Y-121747019D01*
X187271819Y-121747019D02*
X187224200Y-121604162D01*
X187224200Y-121604162D02*
X187128961Y-121508924D01*
X187128961Y-121508924D02*
X187033723Y-121461305D01*
X187033723Y-121461305D02*
X186843247Y-121413686D01*
X186843247Y-121413686D02*
X186700390Y-121413686D01*
X186700390Y-121413686D02*
X186509914Y-121461305D01*
X186509914Y-121461305D02*
X186414676Y-121508924D01*
X186414676Y-121508924D02*
X186319438Y-121604162D01*
X186319438Y-121604162D02*
X186271819Y-121747019D01*
X186271819Y-121747019D02*
X186271819Y-121842257D01*
X186271819Y-121842257D02*
X186319438Y-121985114D01*
X186319438Y-121985114D02*
X186367057Y-122032733D01*
X186367057Y-122413686D02*
X186319438Y-122461305D01*
X186319438Y-122461305D02*
X186271819Y-122556543D01*
X186271819Y-122556543D02*
X186271819Y-122794638D01*
X186271819Y-122794638D02*
X186319438Y-122889876D01*
X186319438Y-122889876D02*
X186367057Y-122937495D01*
X186367057Y-122937495D02*
X186462295Y-122985114D01*
X186462295Y-122985114D02*
X186557533Y-122985114D01*
X186557533Y-122985114D02*
X186700390Y-122937495D01*
X186700390Y-122937495D02*
X187271819Y-122366067D01*
X187271819Y-122366067D02*
X187271819Y-122985114D01*
%TO.C,JP12*%
X183721923Y-112615219D02*
X183721923Y-113329504D01*
X183721923Y-113329504D02*
X183769542Y-113472361D01*
X183769542Y-113472361D02*
X183864780Y-113567600D01*
X183864780Y-113567600D02*
X184007637Y-113615219D01*
X184007637Y-113615219D02*
X184102875Y-113615219D01*
X183245732Y-113615219D02*
X183245732Y-112615219D01*
X183245732Y-112615219D02*
X182864780Y-112615219D01*
X182864780Y-112615219D02*
X182769542Y-112662838D01*
X182769542Y-112662838D02*
X182721923Y-112710457D01*
X182721923Y-112710457D02*
X182674304Y-112805695D01*
X182674304Y-112805695D02*
X182674304Y-112948552D01*
X182674304Y-112948552D02*
X182721923Y-113043790D01*
X182721923Y-113043790D02*
X182769542Y-113091409D01*
X182769542Y-113091409D02*
X182864780Y-113139028D01*
X182864780Y-113139028D02*
X183245732Y-113139028D01*
X181721923Y-113615219D02*
X182293351Y-113615219D01*
X182007637Y-113615219D02*
X182007637Y-112615219D01*
X182007637Y-112615219D02*
X182102875Y-112758076D01*
X182102875Y-112758076D02*
X182198113Y-112853314D01*
X182198113Y-112853314D02*
X182293351Y-112900933D01*
X181340970Y-112710457D02*
X181293351Y-112662838D01*
X181293351Y-112662838D02*
X181198113Y-112615219D01*
X181198113Y-112615219D02*
X180960018Y-112615219D01*
X180960018Y-112615219D02*
X180864780Y-112662838D01*
X180864780Y-112662838D02*
X180817161Y-112710457D01*
X180817161Y-112710457D02*
X180769542Y-112805695D01*
X180769542Y-112805695D02*
X180769542Y-112900933D01*
X180769542Y-112900933D02*
X180817161Y-113043790D01*
X180817161Y-113043790D02*
X181388589Y-113615219D01*
X181388589Y-113615219D02*
X180769542Y-113615219D01*
%TO.C,JP9*%
X138055819Y-61490066D02*
X138770104Y-61490066D01*
X138770104Y-61490066D02*
X138912961Y-61442447D01*
X138912961Y-61442447D02*
X139008200Y-61347209D01*
X139008200Y-61347209D02*
X139055819Y-61204352D01*
X139055819Y-61204352D02*
X139055819Y-61109114D01*
X139055819Y-61966257D02*
X138055819Y-61966257D01*
X138055819Y-61966257D02*
X138055819Y-62347209D01*
X138055819Y-62347209D02*
X138103438Y-62442447D01*
X138103438Y-62442447D02*
X138151057Y-62490066D01*
X138151057Y-62490066D02*
X138246295Y-62537685D01*
X138246295Y-62537685D02*
X138389152Y-62537685D01*
X138389152Y-62537685D02*
X138484390Y-62490066D01*
X138484390Y-62490066D02*
X138532009Y-62442447D01*
X138532009Y-62442447D02*
X138579628Y-62347209D01*
X138579628Y-62347209D02*
X138579628Y-61966257D01*
X139055819Y-63013876D02*
X139055819Y-63204352D01*
X139055819Y-63204352D02*
X139008200Y-63299590D01*
X139008200Y-63299590D02*
X138960580Y-63347209D01*
X138960580Y-63347209D02*
X138817723Y-63442447D01*
X138817723Y-63442447D02*
X138627247Y-63490066D01*
X138627247Y-63490066D02*
X138246295Y-63490066D01*
X138246295Y-63490066D02*
X138151057Y-63442447D01*
X138151057Y-63442447D02*
X138103438Y-63394828D01*
X138103438Y-63394828D02*
X138055819Y-63299590D01*
X138055819Y-63299590D02*
X138055819Y-63109114D01*
X138055819Y-63109114D02*
X138103438Y-63013876D01*
X138103438Y-63013876D02*
X138151057Y-62966257D01*
X138151057Y-62966257D02*
X138246295Y-62918638D01*
X138246295Y-62918638D02*
X138484390Y-62918638D01*
X138484390Y-62918638D02*
X138579628Y-62966257D01*
X138579628Y-62966257D02*
X138627247Y-63013876D01*
X138627247Y-63013876D02*
X138674866Y-63109114D01*
X138674866Y-63109114D02*
X138674866Y-63299590D01*
X138674866Y-63299590D02*
X138627247Y-63394828D01*
X138627247Y-63394828D02*
X138579628Y-63442447D01*
X138579628Y-63442447D02*
X138484390Y-63490066D01*
%TO.C,U5*%
X193926619Y-71154166D02*
X194736142Y-71154166D01*
X194736142Y-71154166D02*
X194831380Y-71201785D01*
X194831380Y-71201785D02*
X194879000Y-71249404D01*
X194879000Y-71249404D02*
X194926619Y-71344642D01*
X194926619Y-71344642D02*
X194926619Y-71535118D01*
X194926619Y-71535118D02*
X194879000Y-71630356D01*
X194879000Y-71630356D02*
X194831380Y-71677975D01*
X194831380Y-71677975D02*
X194736142Y-71725594D01*
X194736142Y-71725594D02*
X193926619Y-71725594D01*
X193926619Y-72677975D02*
X193926619Y-72201785D01*
X193926619Y-72201785D02*
X194402809Y-72154166D01*
X194402809Y-72154166D02*
X194355190Y-72201785D01*
X194355190Y-72201785D02*
X194307571Y-72297023D01*
X194307571Y-72297023D02*
X194307571Y-72535118D01*
X194307571Y-72535118D02*
X194355190Y-72630356D01*
X194355190Y-72630356D02*
X194402809Y-72677975D01*
X194402809Y-72677975D02*
X194498047Y-72725594D01*
X194498047Y-72725594D02*
X194736142Y-72725594D01*
X194736142Y-72725594D02*
X194831380Y-72677975D01*
X194831380Y-72677975D02*
X194879000Y-72630356D01*
X194879000Y-72630356D02*
X194926619Y-72535118D01*
X194926619Y-72535118D02*
X194926619Y-72297023D01*
X194926619Y-72297023D02*
X194879000Y-72201785D01*
X194879000Y-72201785D02*
X194831380Y-72154166D01*
%TO.C,JP10*%
X146034123Y-102296019D02*
X146034123Y-103010304D01*
X146034123Y-103010304D02*
X146081742Y-103153161D01*
X146081742Y-103153161D02*
X146176980Y-103248400D01*
X146176980Y-103248400D02*
X146319837Y-103296019D01*
X146319837Y-103296019D02*
X146415075Y-103296019D01*
X145557932Y-103296019D02*
X145557932Y-102296019D01*
X145557932Y-102296019D02*
X145176980Y-102296019D01*
X145176980Y-102296019D02*
X145081742Y-102343638D01*
X145081742Y-102343638D02*
X145034123Y-102391257D01*
X145034123Y-102391257D02*
X144986504Y-102486495D01*
X144986504Y-102486495D02*
X144986504Y-102629352D01*
X144986504Y-102629352D02*
X145034123Y-102724590D01*
X145034123Y-102724590D02*
X145081742Y-102772209D01*
X145081742Y-102772209D02*
X145176980Y-102819828D01*
X145176980Y-102819828D02*
X145557932Y-102819828D01*
X144034123Y-103296019D02*
X144605551Y-103296019D01*
X144319837Y-103296019D02*
X144319837Y-102296019D01*
X144319837Y-102296019D02*
X144415075Y-102438876D01*
X144415075Y-102438876D02*
X144510313Y-102534114D01*
X144510313Y-102534114D02*
X144605551Y-102581733D01*
X143415075Y-102296019D02*
X143319837Y-102296019D01*
X143319837Y-102296019D02*
X143224599Y-102343638D01*
X143224599Y-102343638D02*
X143176980Y-102391257D01*
X143176980Y-102391257D02*
X143129361Y-102486495D01*
X143129361Y-102486495D02*
X143081742Y-102676971D01*
X143081742Y-102676971D02*
X143081742Y-102915066D01*
X143081742Y-102915066D02*
X143129361Y-103105542D01*
X143129361Y-103105542D02*
X143176980Y-103200780D01*
X143176980Y-103200780D02*
X143224599Y-103248400D01*
X143224599Y-103248400D02*
X143319837Y-103296019D01*
X143319837Y-103296019D02*
X143415075Y-103296019D01*
X143415075Y-103296019D02*
X143510313Y-103248400D01*
X143510313Y-103248400D02*
X143557932Y-103200780D01*
X143557932Y-103200780D02*
X143605551Y-103105542D01*
X143605551Y-103105542D02*
X143653170Y-102915066D01*
X143653170Y-102915066D02*
X143653170Y-102676971D01*
X143653170Y-102676971D02*
X143605551Y-102486495D01*
X143605551Y-102486495D02*
X143557932Y-102391257D01*
X143557932Y-102391257D02*
X143510313Y-102343638D01*
X143510313Y-102343638D02*
X143415075Y-102296019D01*
X141838885Y-101496019D02*
X142410313Y-101496019D01*
X142124599Y-101496019D02*
X142124599Y-100496019D01*
X142124599Y-100496019D02*
X142219837Y-100638876D01*
X142219837Y-100638876D02*
X142315075Y-100734114D01*
X142315075Y-100734114D02*
X142410313Y-100781733D01*
X147657932Y-100496019D02*
X147038885Y-100496019D01*
X147038885Y-100496019D02*
X147372218Y-100876971D01*
X147372218Y-100876971D02*
X147229361Y-100876971D01*
X147229361Y-100876971D02*
X147134123Y-100924590D01*
X147134123Y-100924590D02*
X147086504Y-100972209D01*
X147086504Y-100972209D02*
X147038885Y-101067447D01*
X147038885Y-101067447D02*
X147038885Y-101305542D01*
X147038885Y-101305542D02*
X147086504Y-101400780D01*
X147086504Y-101400780D02*
X147134123Y-101448400D01*
X147134123Y-101448400D02*
X147229361Y-101496019D01*
X147229361Y-101496019D02*
X147515075Y-101496019D01*
X147515075Y-101496019D02*
X147610313Y-101448400D01*
X147610313Y-101448400D02*
X147657932Y-101400780D01*
%TO.C,JP11*%
X183691923Y-85328819D02*
X183691923Y-86043104D01*
X183691923Y-86043104D02*
X183739542Y-86185961D01*
X183739542Y-86185961D02*
X183834780Y-86281200D01*
X183834780Y-86281200D02*
X183977637Y-86328819D01*
X183977637Y-86328819D02*
X184072875Y-86328819D01*
X183215732Y-86328819D02*
X183215732Y-85328819D01*
X183215732Y-85328819D02*
X182834780Y-85328819D01*
X182834780Y-85328819D02*
X182739542Y-85376438D01*
X182739542Y-85376438D02*
X182691923Y-85424057D01*
X182691923Y-85424057D02*
X182644304Y-85519295D01*
X182644304Y-85519295D02*
X182644304Y-85662152D01*
X182644304Y-85662152D02*
X182691923Y-85757390D01*
X182691923Y-85757390D02*
X182739542Y-85805009D01*
X182739542Y-85805009D02*
X182834780Y-85852628D01*
X182834780Y-85852628D02*
X183215732Y-85852628D01*
X181691923Y-86328819D02*
X182263351Y-86328819D01*
X181977637Y-86328819D02*
X181977637Y-85328819D01*
X181977637Y-85328819D02*
X182072875Y-85471676D01*
X182072875Y-85471676D02*
X182168113Y-85566914D01*
X182168113Y-85566914D02*
X182263351Y-85614533D01*
X180739542Y-86328819D02*
X181310970Y-86328819D01*
X181025256Y-86328819D02*
X181025256Y-85328819D01*
X181025256Y-85328819D02*
X181120494Y-85471676D01*
X181120494Y-85471676D02*
X181215732Y-85566914D01*
X181215732Y-85566914D02*
X181310970Y-85614533D01*
%TO.C,JP7*%
X179674733Y-81743819D02*
X179674733Y-82458104D01*
X179674733Y-82458104D02*
X179722352Y-82600961D01*
X179722352Y-82600961D02*
X179817590Y-82696200D01*
X179817590Y-82696200D02*
X179960447Y-82743819D01*
X179960447Y-82743819D02*
X180055685Y-82743819D01*
X179198542Y-82743819D02*
X179198542Y-81743819D01*
X179198542Y-81743819D02*
X178817590Y-81743819D01*
X178817590Y-81743819D02*
X178722352Y-81791438D01*
X178722352Y-81791438D02*
X178674733Y-81839057D01*
X178674733Y-81839057D02*
X178627114Y-81934295D01*
X178627114Y-81934295D02*
X178627114Y-82077152D01*
X178627114Y-82077152D02*
X178674733Y-82172390D01*
X178674733Y-82172390D02*
X178722352Y-82220009D01*
X178722352Y-82220009D02*
X178817590Y-82267628D01*
X178817590Y-82267628D02*
X179198542Y-82267628D01*
X178293780Y-81743819D02*
X177627114Y-81743819D01*
X177627114Y-81743819D02*
X178055685Y-82743819D01*
%TO.C,R2*%
X124678066Y-138055419D02*
X125011399Y-137579228D01*
X125249494Y-138055419D02*
X125249494Y-137055419D01*
X125249494Y-137055419D02*
X124868542Y-137055419D01*
X124868542Y-137055419D02*
X124773304Y-137103038D01*
X124773304Y-137103038D02*
X124725685Y-137150657D01*
X124725685Y-137150657D02*
X124678066Y-137245895D01*
X124678066Y-137245895D02*
X124678066Y-137388752D01*
X124678066Y-137388752D02*
X124725685Y-137483990D01*
X124725685Y-137483990D02*
X124773304Y-137531609D01*
X124773304Y-137531609D02*
X124868542Y-137579228D01*
X124868542Y-137579228D02*
X125249494Y-137579228D01*
X124297113Y-137150657D02*
X124249494Y-137103038D01*
X124249494Y-137103038D02*
X124154256Y-137055419D01*
X124154256Y-137055419D02*
X123916161Y-137055419D01*
X123916161Y-137055419D02*
X123820923Y-137103038D01*
X123820923Y-137103038D02*
X123773304Y-137150657D01*
X123773304Y-137150657D02*
X123725685Y-137245895D01*
X123725685Y-137245895D02*
X123725685Y-137341133D01*
X123725685Y-137341133D02*
X123773304Y-137483990D01*
X123773304Y-137483990D02*
X124344732Y-138055419D01*
X124344732Y-138055419D02*
X123725685Y-138055419D01*
%TO.C,R3*%
X124676866Y-135744019D02*
X125010199Y-135267828D01*
X125248294Y-135744019D02*
X125248294Y-134744019D01*
X125248294Y-134744019D02*
X124867342Y-134744019D01*
X124867342Y-134744019D02*
X124772104Y-134791638D01*
X124772104Y-134791638D02*
X124724485Y-134839257D01*
X124724485Y-134839257D02*
X124676866Y-134934495D01*
X124676866Y-134934495D02*
X124676866Y-135077352D01*
X124676866Y-135077352D02*
X124724485Y-135172590D01*
X124724485Y-135172590D02*
X124772104Y-135220209D01*
X124772104Y-135220209D02*
X124867342Y-135267828D01*
X124867342Y-135267828D02*
X125248294Y-135267828D01*
X124343532Y-134744019D02*
X123724485Y-134744019D01*
X123724485Y-134744019D02*
X124057818Y-135124971D01*
X124057818Y-135124971D02*
X123914961Y-135124971D01*
X123914961Y-135124971D02*
X123819723Y-135172590D01*
X123819723Y-135172590D02*
X123772104Y-135220209D01*
X123772104Y-135220209D02*
X123724485Y-135315447D01*
X123724485Y-135315447D02*
X123724485Y-135553542D01*
X123724485Y-135553542D02*
X123772104Y-135648780D01*
X123772104Y-135648780D02*
X123819723Y-135696400D01*
X123819723Y-135696400D02*
X123914961Y-135744019D01*
X123914961Y-135744019D02*
X124200675Y-135744019D01*
X124200675Y-135744019D02*
X124295913Y-135696400D01*
X124295913Y-135696400D02*
X124343532Y-135648780D01*
%TO.C,JP8*%
X138070819Y-64030066D02*
X138785104Y-64030066D01*
X138785104Y-64030066D02*
X138927961Y-63982447D01*
X138927961Y-63982447D02*
X139023200Y-63887209D01*
X139023200Y-63887209D02*
X139070819Y-63744352D01*
X139070819Y-63744352D02*
X139070819Y-63649114D01*
X139070819Y-64506257D02*
X138070819Y-64506257D01*
X138070819Y-64506257D02*
X138070819Y-64887209D01*
X138070819Y-64887209D02*
X138118438Y-64982447D01*
X138118438Y-64982447D02*
X138166057Y-65030066D01*
X138166057Y-65030066D02*
X138261295Y-65077685D01*
X138261295Y-65077685D02*
X138404152Y-65077685D01*
X138404152Y-65077685D02*
X138499390Y-65030066D01*
X138499390Y-65030066D02*
X138547009Y-64982447D01*
X138547009Y-64982447D02*
X138594628Y-64887209D01*
X138594628Y-64887209D02*
X138594628Y-64506257D01*
X138499390Y-65649114D02*
X138451771Y-65553876D01*
X138451771Y-65553876D02*
X138404152Y-65506257D01*
X138404152Y-65506257D02*
X138308914Y-65458638D01*
X138308914Y-65458638D02*
X138261295Y-65458638D01*
X138261295Y-65458638D02*
X138166057Y-65506257D01*
X138166057Y-65506257D02*
X138118438Y-65553876D01*
X138118438Y-65553876D02*
X138070819Y-65649114D01*
X138070819Y-65649114D02*
X138070819Y-65839590D01*
X138070819Y-65839590D02*
X138118438Y-65934828D01*
X138118438Y-65934828D02*
X138166057Y-65982447D01*
X138166057Y-65982447D02*
X138261295Y-66030066D01*
X138261295Y-66030066D02*
X138308914Y-66030066D01*
X138308914Y-66030066D02*
X138404152Y-65982447D01*
X138404152Y-65982447D02*
X138451771Y-65934828D01*
X138451771Y-65934828D02*
X138499390Y-65839590D01*
X138499390Y-65839590D02*
X138499390Y-65649114D01*
X138499390Y-65649114D02*
X138547009Y-65553876D01*
X138547009Y-65553876D02*
X138594628Y-65506257D01*
X138594628Y-65506257D02*
X138689866Y-65458638D01*
X138689866Y-65458638D02*
X138880342Y-65458638D01*
X138880342Y-65458638D02*
X138975580Y-65506257D01*
X138975580Y-65506257D02*
X139023200Y-65553876D01*
X139023200Y-65553876D02*
X139070819Y-65649114D01*
X139070819Y-65649114D02*
X139070819Y-65839590D01*
X139070819Y-65839590D02*
X139023200Y-65934828D01*
X139023200Y-65934828D02*
X138975580Y-65982447D01*
X138975580Y-65982447D02*
X138880342Y-66030066D01*
X138880342Y-66030066D02*
X138689866Y-66030066D01*
X138689866Y-66030066D02*
X138594628Y-65982447D01*
X138594628Y-65982447D02*
X138547009Y-65934828D01*
X138547009Y-65934828D02*
X138499390Y-65839590D01*
%TO.C,U1*%
X163429019Y-63381195D02*
X164238542Y-63381195D01*
X164238542Y-63381195D02*
X164333780Y-63428814D01*
X164333780Y-63428814D02*
X164381400Y-63476433D01*
X164381400Y-63476433D02*
X164429019Y-63571671D01*
X164429019Y-63571671D02*
X164429019Y-63762147D01*
X164429019Y-63762147D02*
X164381400Y-63857385D01*
X164381400Y-63857385D02*
X164333780Y-63905004D01*
X164333780Y-63905004D02*
X164238542Y-63952623D01*
X164238542Y-63952623D02*
X163429019Y-63952623D01*
X164429019Y-64952623D02*
X164429019Y-64381195D01*
X164429019Y-64666909D02*
X163429019Y-64666909D01*
X163429019Y-64666909D02*
X163571876Y-64571671D01*
X163571876Y-64571671D02*
X163667114Y-64476433D01*
X163667114Y-64476433D02*
X163714733Y-64381195D01*
%TO.C,R4*%
X124678066Y-133432619D02*
X125011399Y-132956428D01*
X125249494Y-133432619D02*
X125249494Y-132432619D01*
X125249494Y-132432619D02*
X124868542Y-132432619D01*
X124868542Y-132432619D02*
X124773304Y-132480238D01*
X124773304Y-132480238D02*
X124725685Y-132527857D01*
X124725685Y-132527857D02*
X124678066Y-132623095D01*
X124678066Y-132623095D02*
X124678066Y-132765952D01*
X124678066Y-132765952D02*
X124725685Y-132861190D01*
X124725685Y-132861190D02*
X124773304Y-132908809D01*
X124773304Y-132908809D02*
X124868542Y-132956428D01*
X124868542Y-132956428D02*
X125249494Y-132956428D01*
X123820923Y-132765952D02*
X123820923Y-133432619D01*
X124059018Y-132385000D02*
X124297113Y-133099285D01*
X124297113Y-133099285D02*
X123678066Y-133099285D01*
D11*
%TO.C,C2*%
X187608800Y-122861652D02*
X187608800Y-121439148D01*
X189428800Y-122861652D02*
X189428800Y-121439148D01*
%TO.C,JP12*%
X183812400Y-115260400D02*
X183812400Y-114660400D01*
X183112400Y-113960400D02*
X181712400Y-113960400D01*
X181712400Y-115960400D02*
X183112400Y-115960400D01*
X181012400Y-114660400D02*
X181012400Y-115260400D01*
X183112400Y-115960400D02*
G75*
G03*
X183812400Y-115260400I1J699999D01*
G01*
X183812400Y-114660400D02*
G75*
G03*
X183112400Y-113960400I-699999J1D01*
G01*
X181012400Y-115260400D02*
G75*
G03*
X181712400Y-115960400I700000J0D01*
G01*
X181712400Y-113960400D02*
G75*
G03*
X181012400Y-114660400I0J-700000D01*
G01*
%TO.C,JP9*%
X142287000Y-62623400D02*
X142287000Y-62023400D01*
X141587000Y-61323400D02*
X140187000Y-61323400D01*
X140187000Y-63323400D02*
X141587000Y-63323400D01*
X139487000Y-62023400D02*
X139487000Y-62623400D01*
X141587000Y-63323400D02*
G75*
G03*
X142287000Y-62623400I1J699999D01*
G01*
X142287000Y-62023400D02*
G75*
G03*
X141587000Y-61323400I-699999J1D01*
G01*
X139487000Y-62623400D02*
G75*
G03*
X140187000Y-63323400I700000J0D01*
G01*
X140187000Y-61323400D02*
G75*
G03*
X139487000Y-62023400I0J-700000D01*
G01*
%TO.C,U5*%
X172821800Y-74166071D02*
X172821800Y-60966071D01*
X193421800Y-72166071D02*
X193421800Y-74166071D01*
X193621800Y-72166071D02*
X193421800Y-72166071D01*
X193621800Y-72166071D02*
X193621800Y-60966071D01*
%TO.C,JP10*%
X142674600Y-100041200D02*
X142674600Y-102041200D01*
X142674600Y-102041200D02*
X146774600Y-102041200D01*
X146774600Y-100041200D02*
X142674600Y-100041200D01*
X146774600Y-102041200D02*
X146774600Y-100041200D01*
%TO.C,JP11*%
X180982400Y-83774000D02*
X180982400Y-84374000D01*
X181682400Y-85074000D02*
X183082400Y-85074000D01*
X183082400Y-83074000D02*
X181682400Y-83074000D01*
X183782400Y-84374000D02*
X183782400Y-83774000D01*
X181682400Y-83074000D02*
G75*
G03*
X180982400Y-83774000I-1J-699999D01*
G01*
X180982400Y-84374000D02*
G75*
G03*
X181682400Y-85074000I699999J-1D01*
G01*
X183782400Y-83774000D02*
G75*
G03*
X183082400Y-83074000I-700000J0D01*
G01*
X183082400Y-85074000D02*
G75*
G03*
X183782400Y-84374000I0J700000D01*
G01*
%TO.C,JP7*%
X180241400Y-84389000D02*
X180241400Y-83789000D01*
X179541400Y-83089000D02*
X178141400Y-83089000D01*
X178141400Y-85089000D02*
X179541400Y-85089000D01*
X177441400Y-83789000D02*
X177441400Y-84389000D01*
X179541400Y-85089000D02*
G75*
G03*
X180241400Y-84389000I1J699999D01*
G01*
X180241400Y-83789000D02*
G75*
G03*
X179541400Y-83089000I-699999J1D01*
G01*
X177441400Y-84389000D02*
G75*
G03*
X178141400Y-85089000I700000J0D01*
G01*
X178141400Y-83089000D02*
G75*
G03*
X177441400Y-83789000I0J-700000D01*
G01*
%TO.C,R2*%
X125238464Y-140330600D02*
X123784336Y-140330600D01*
X125238464Y-138510600D02*
X123784336Y-138510600D01*
%TO.C,R3*%
X125237264Y-138019200D02*
X123783136Y-138019200D01*
X125237264Y-136199200D02*
X123783136Y-136199200D01*
%TO.C,JP8*%
X142302000Y-65163400D02*
X142302000Y-64563400D01*
X141602000Y-63863400D02*
X140202000Y-63863400D01*
X140202000Y-65863400D02*
X141602000Y-65863400D01*
X139502000Y-64563400D02*
X139502000Y-65163400D01*
X141602000Y-65863400D02*
G75*
G03*
X142302000Y-65163400I1J699999D01*
G01*
X142302000Y-64563400D02*
G75*
G03*
X141602000Y-63863400I-699999J1D01*
G01*
X139502000Y-65163400D02*
G75*
G03*
X140202000Y-65863400I700000J0D01*
G01*
X140202000Y-63863400D02*
G75*
G03*
X139502000Y-64563400I0J-700000D01*
G01*
%TO.C,U1*%
X147914200Y-64143100D02*
X147914200Y-66793100D01*
X147914200Y-64143100D02*
X147914200Y-61493100D01*
X163134200Y-64143100D02*
X163134200Y-68593100D01*
X163134200Y-64143100D02*
X163134200Y-61493100D01*
%TO.C,R4*%
X125238464Y-135707800D02*
X123784336Y-135707800D01*
X125238464Y-133887800D02*
X123784336Y-133887800D01*
%TD*%
M02*
