M48
; DRILL file {KiCad 7.0.5-7.0.5~ubuntu20.04.1} date Di 18 Jul 2023 13:57:19
; FORMAT={-:-/ absolute / metric / decimal}
; #@! TF.CreationDate,2023-07-18T13:57:19+02:00
; #@! TF.GenerationSoftware,Kicad,Pcbnew,7.0.5-7.0.5~ubuntu20.04.1
; #@! TF.FileFunction,MixedPlating,1,2
FMAT,2
METRIC
; #@! TA.AperFunction,Plated,PTH,ViaDrill
T1C0.400
; #@! TA.AperFunction,Plated,PTH,ComponentDrill
T2C0.800
; #@! TA.AperFunction,Plated,PTH,ComponentDrill
T3C1.000
; #@! TA.AperFunction,NonPlated,NPTH,ComponentDrill
T4C3.200
%
G90
G05
T1
X111.379Y-135.484
X112.344Y-70.383
X113.69Y-70.434
X117.341Y-111.517
X118.477Y-87.986
X118.477Y-89.51
X120.262Y-93.255
X120.828Y-94.412
X121.285Y-93.37
X121.302Y-91.88
X121.793Y-90.907
X122.479Y-99.085
X122.631Y-89.637
X134.463Y-93.722
X135.89Y-95.479
X136.296Y-77.495
X137.609Y-90.644
X137.617Y-107.975
X140.157Y-115.124
X140.894Y-91.389
X142.443Y-115.849
X142.975Y-85.598
X143.84Y-82.525
X144.678Y-91.567
X144.98Y-116.381
X147.494Y-116.965
X148.768Y-86.309
X149.53Y-91.694
X149.768Y-117.358
X149.809Y-65.735
X150.138Y-63.246
X150.139Y-86.004
X152.654Y-115.497
X153.088Y-63.246
X155.118Y-116.201
X155.27Y-92.405
X155.956Y-93.269
X156.794Y-94.031
X157.734Y-116.926
X159.969Y-60.681
X160.401Y-117.651
X161.239Y-67.606
X162.814Y-118.376
X164.694Y-62.941
X165.354Y-119.101
X166.878Y-67.818
X166.954Y-73.05
X167.178Y-74.3
X167.654Y-72.009
X167.894Y-68.377
X167.894Y-119.833
X168.808Y-69.215
X170.434Y-120.558
X171.584Y-82.593
X171.679Y-86.804
X171.755Y-105.283
X172.822Y-121.283
X173.916Y-66.728
X173.916Y-67.924
X173.916Y-69.268
X173.916Y-65.458
X174.209Y-82.094
X175.514Y-122.008
X175.565Y-86.298
X178.054Y-122.733
X178.777Y-74.475
X179.066Y-69.268
X179.066Y-66.76
X179.066Y-70.538
X179.066Y-67.998
X179.491Y-84.089
X180.047Y-61.939
X180.594Y-123.469
X181.257Y-61.916
X181.393Y-64.696
X182.47Y-70.488
X182.597Y-63.477
X183.82Y-60.173
X183.847Y-73.166
X185.064Y-83.693
X185.127Y-61.966
X186.397Y-73.953
X187.53Y-71.224
X187.53Y-72.494
X187.985Y-88.57
X191.063Y-75.687
X191.414Y-90.297
X192.156Y-89.503
X192.507Y-80.975
X192.608Y-78.054
X192.68Y-68.684
X192.68Y-69.954
X192.938Y-104.343
X192.984Y-60.234
X193.306Y-75.946
X194.229Y-59.441
T2
X107.086Y-52.07
X107.376Y-119.959
X107.376Y-122.499
X107.376Y-125.039
X107.376Y-127.579
X107.376Y-130.119
X107.376Y-132.659
X107.376Y-135.199
X109.982Y-52.095
X114.996Y-119.959
X114.996Y-122.499
X114.996Y-125.039
X114.996Y-127.579
X114.996Y-130.119
X114.996Y-132.659
X114.996Y-135.199
X119.024Y-96.241
X119.583Y-65.278
X119.583Y-67.843
X119.583Y-70.383
X137.312Y-68.631
X137.312Y-71.603
X137.346Y-62.577
X137.346Y-65.625
X137.414Y-111.227
X137.414Y-126.467
X137.439Y-80.787
X137.439Y-88.519
X137.439Y-96.027
X137.439Y-103.759
X139.954Y-106.985
X139.954Y-111.227
X139.954Y-126.467
X139.979Y-80.787
X139.979Y-88.519
X139.979Y-96.027
X139.979Y-103.759
X142.494Y-111.227
X142.494Y-126.467
X142.519Y-80.787
X142.519Y-88.519
X142.519Y-96.027
X142.519Y-103.759
X142.57Y-91.161
X145.034Y-111.227
X145.034Y-126.467
X145.059Y-80.787
X145.059Y-88.519
X145.059Y-96.027
X145.059Y-103.759
X145.136Y-60.757
X145.136Y-63.779
X147.574Y-111.227
X147.574Y-126.467
X147.599Y-80.787
X147.599Y-88.519
X147.599Y-96.027
X147.599Y-103.759
X147.625Y-90.932
X150.114Y-111.227
X150.114Y-126.467
X150.139Y-80.787
X150.139Y-88.519
X150.139Y-96.027
X150.139Y-103.759
X152.654Y-111.227
X152.654Y-126.467
X152.679Y-80.787
X152.679Y-88.519
X152.679Y-96.027
X152.679Y-103.759
X155.194Y-111.227
X155.194Y-126.467
X155.219Y-80.787
X155.219Y-88.519
X155.219Y-96.027
X155.219Y-103.759
X157.734Y-111.227
X157.734Y-126.467
X157.759Y-80.787
X157.759Y-88.519
X157.759Y-96.027
X157.759Y-103.759
X160.274Y-111.227
X160.274Y-126.467
X160.299Y-80.787
X160.299Y-88.519
X160.299Y-96.027
X160.299Y-103.759
X162.814Y-111.227
X162.814Y-126.467
X162.839Y-80.787
X162.839Y-88.519
X162.839Y-96.027
X162.839Y-103.759
X165.354Y-111.227
X165.354Y-126.467
X165.379Y-80.787
X165.379Y-88.519
X165.379Y-96.027
X165.379Y-103.759
X167.894Y-111.227
X167.894Y-126.467
X167.919Y-80.787
X167.919Y-88.519
X167.919Y-96.027
X167.919Y-103.759
X170.434Y-111.227
X170.434Y-126.467
X170.459Y-80.787
X170.459Y-88.519
X170.459Y-96.027
X170.459Y-103.759
X172.974Y-111.227
X172.974Y-126.467
X172.999Y-80.787
X172.999Y-88.519
X172.999Y-96.027
X172.999Y-103.759
X175.514Y-111.227
X175.514Y-126.467
X175.539Y-80.787
X175.539Y-88.519
X175.539Y-96.027
X175.539Y-103.759
X178.054Y-111.227
X178.054Y-114.986
X178.054Y-126.467
X178.079Y-80.787
X178.079Y-88.519
X178.079Y-96.027
X178.079Y-103.759
X180.594Y-111.227
X180.594Y-126.467
X180.619Y-80.787
X180.619Y-88.519
X180.619Y-96.027
X180.619Y-103.759
X183.134Y-111.227
X183.134Y-126.467
X183.159Y-80.787
X183.159Y-88.519
X183.159Y-96.027
X183.159Y-103.759
X185.674Y-111.227
X185.674Y-126.467
X185.699Y-80.787
X185.699Y-88.519
X185.699Y-96.027
X185.699Y-103.759
X188.036Y-130.454
T3
X100.873Y-57.683
X100.873Y-60.223
X100.873Y-62.763
X100.873Y-65.303
X100.873Y-67.843
X100.873Y-70.383
X100.873Y-72.923
X100.873Y-75.463
X100.873Y-78.003
X100.873Y-80.543
X100.873Y-83.083
X100.873Y-85.623
X100.873Y-88.163
X100.873Y-90.703
X100.873Y-93.243
X103.556Y-119.964
X103.556Y-122.504
X103.556Y-125.044
X103.556Y-127.584
X103.556Y-130.124
X103.556Y-132.664
X104.699Y-112.5
X104.699Y-115.04
X106.68Y-48.26
X107.239Y-112.5
X107.239Y-115.04
X107.917Y-142.389
X109.22Y-48.26
X109.779Y-112.5
X109.779Y-115.04
X110.457Y-142.389
X111.76Y-48.26
X112.319Y-112.5
X112.319Y-115.04
X112.997Y-142.389
X114.3Y-48.26
X114.859Y-112.5
X114.859Y-115.04
X115.537Y-142.389
X116.113Y-57.683
X116.113Y-60.223
X116.113Y-62.763
X116.113Y-65.303
X116.113Y-67.843
X116.113Y-70.383
X116.113Y-72.923
X116.113Y-75.463
X116.113Y-78.003
X116.113Y-80.543
X116.113Y-83.083
X116.113Y-85.623
X116.113Y-88.163
X116.113Y-90.703
X116.113Y-93.243
X116.84Y-48.26
X118.077Y-142.389
X118.417Y-122.504
X118.417Y-125.044
X118.417Y-127.584
X118.417Y-130.124
X118.417Y-132.664
X118.417Y-135.204
X119.38Y-48.26
X120.617Y-142.389
X121.92Y-48.26
X123.157Y-142.389
X124.46Y-48.26
X125.697Y-142.389
X126.873Y-72.873
X126.873Y-75.413
X126.873Y-77.953
X126.873Y-80.493
X126.873Y-83.033
X126.873Y-85.573
X126.873Y-88.113
X126.873Y-90.653
X126.873Y-93.193
X126.873Y-95.733
X126.873Y-98.273
X126.873Y-100.813
X126.873Y-103.353
X126.873Y-105.893
X126.873Y-108.433
X126.873Y-110.973
X126.873Y-113.513
X126.873Y-116.053
X126.873Y-118.593
X126.873Y-121.133
X126.873Y-123.673
X126.873Y-126.213
X127.0Y-48.26
X128.237Y-142.389
X129.413Y-72.873
X129.413Y-75.413
X129.413Y-77.953
X129.413Y-80.493
X129.413Y-83.033
X129.413Y-85.573
X129.413Y-88.113
X129.413Y-90.653
X129.413Y-93.193
X129.413Y-95.733
X129.413Y-98.273
X129.413Y-100.813
X129.413Y-103.353
X129.413Y-105.893
X129.413Y-108.433
X129.413Y-110.973
X129.413Y-113.513
X129.413Y-116.053
X129.413Y-118.593
X129.413Y-121.133
X129.413Y-123.673
X129.413Y-126.213
X129.54Y-48.26
X130.777Y-142.389
X132.08Y-48.26
X133.317Y-142.389
X134.62Y-48.26
X135.857Y-142.389
X139.7Y-48.303
X139.7Y-50.843
X139.7Y-54.303
X139.7Y-56.843
X139.7Y-133.849
X139.7Y-136.389
X139.7Y-139.849
X139.7Y-142.389
X140.97Y-72.365
X140.97Y-74.905
X140.97Y-77.445
X142.24Y-48.303
X142.24Y-50.843
X142.24Y-54.303
X142.24Y-56.843
X142.24Y-133.849
X142.24Y-136.389
X142.24Y-139.849
X142.24Y-142.389
X144.501Y-72.365
X144.501Y-74.905
X144.501Y-77.445
X144.78Y-48.303
X144.78Y-50.843
X144.78Y-54.303
X144.78Y-56.843
X144.78Y-133.849
X144.78Y-136.389
X144.78Y-139.849
X144.78Y-142.389
X147.32Y-48.303
X147.32Y-50.843
X147.32Y-54.303
X147.32Y-56.843
X147.32Y-133.849
X147.32Y-136.389
X147.32Y-139.849
X147.32Y-142.389
X148.031Y-72.365
X148.031Y-74.905
X148.031Y-77.445
X149.86Y-48.303
X149.86Y-50.843
X149.86Y-54.303
X149.86Y-56.843
X149.86Y-133.849
X149.86Y-136.389
X149.86Y-139.849
X149.86Y-142.389
X151.562Y-72.365
X151.562Y-74.905
X151.562Y-77.445
X152.4Y-48.303
X152.4Y-50.843
X152.4Y-54.303
X152.4Y-56.843
X152.4Y-133.849
X152.4Y-136.389
X152.4Y-139.849
X152.4Y-142.389
X154.94Y-48.303
X154.94Y-50.843
X154.94Y-54.303
X154.94Y-56.843
X154.94Y-133.849
X154.94Y-136.389
X154.94Y-139.849
X154.94Y-142.389
X155.067Y-72.38
X155.067Y-74.92
X155.067Y-77.46
X157.48Y-48.303
X157.48Y-50.843
X157.48Y-54.303
X157.48Y-56.843
X157.48Y-133.849
X157.48Y-136.389
X157.48Y-139.849
X157.48Y-142.389
X160.02Y-48.303
X160.02Y-50.843
X160.02Y-54.303
X160.02Y-56.843
X160.02Y-133.849
X160.02Y-136.389
X160.02Y-139.849
X160.02Y-142.389
X162.56Y-48.303
X162.56Y-50.843
X162.56Y-54.303
X162.56Y-56.843
X162.56Y-133.849
X162.56Y-136.389
X162.56Y-139.849
X162.56Y-142.389
X165.1Y-48.303
X165.1Y-50.843
X165.1Y-54.303
X165.1Y-56.843
X165.1Y-133.849
X165.1Y-136.389
X165.1Y-139.849
X165.1Y-142.389
X167.64Y-48.303
X167.64Y-50.843
X167.64Y-54.303
X167.64Y-56.843
X167.64Y-133.849
X167.64Y-136.389
X167.64Y-139.849
X167.64Y-142.389
X170.18Y-48.303
X170.18Y-50.843
X170.18Y-54.303
X170.18Y-56.843
X170.18Y-133.849
X170.18Y-136.389
X170.18Y-139.849
X170.18Y-142.389
X172.72Y-48.303
X172.72Y-50.843
X172.72Y-54.303
X172.72Y-56.843
X172.72Y-133.849
X172.72Y-136.389
X172.72Y-139.849
X172.72Y-142.389
X175.26Y-48.303
X175.26Y-50.843
X175.26Y-54.303
X175.26Y-56.843
X175.26Y-133.849
X175.26Y-136.389
X175.26Y-139.849
X175.26Y-142.389
X177.8Y-48.303
X177.8Y-50.843
X177.8Y-54.303
X177.8Y-56.843
X177.8Y-133.849
X177.8Y-136.389
X177.8Y-139.849
X177.8Y-142.389
X180.34Y-48.303
X180.34Y-50.843
X180.34Y-54.303
X180.34Y-56.843
X180.34Y-133.849
X180.34Y-136.389
X180.34Y-139.849
X180.34Y-142.389
X182.88Y-48.303
X182.88Y-50.843
X182.88Y-54.303
X182.88Y-56.843
X182.88Y-133.849
X182.88Y-136.389
X182.88Y-139.849
X182.88Y-142.389
X185.42Y-48.303
X185.42Y-50.843
X185.42Y-54.303
X185.42Y-56.843
X185.42Y-133.849
X185.42Y-136.389
X185.42Y-139.849
X185.42Y-142.389
X187.96Y-48.303
X187.96Y-50.843
X187.96Y-54.303
X187.96Y-56.843
X187.96Y-133.849
X187.96Y-136.389
X187.96Y-139.849
X187.96Y-142.389
X189.128Y-81.041
X189.128Y-83.581
X189.128Y-86.121
T4
X101.34Y-49.346
X101.34Y-141.346
X193.34Y-49.346
X193.34Y-141.346
T0
M30
