%TF.GenerationSoftware,KiCad,Pcbnew,7.0.7-7.0.7~ubuntu20.04.1*%
%TF.CreationDate,2023-08-26T19:10:28+02:00*%
%TF.ProjectId,MOS_MultiParallel_2,4d4f535f-4d75-46c7-9469-506172616c6c,rev?*%
%TF.SameCoordinates,Original*%
%TF.FileFunction,Paste,Bot*%
%TF.FilePolarity,Positive*%
%FSLAX46Y46*%
G04 Gerber Fmt 4.6, Leading zero omitted, Abs format (unit mm)*
G04 Created by KiCad (PCBNEW 7.0.7-7.0.7~ubuntu20.04.1) date 2023-08-26 19:10:28*
%MOMM*%
%LPD*%
G01*
G04 APERTURE LIST*
G04 Aperture macros list*
%AMRoundRect*
0 Rectangle with rounded corners*
0 $1 Rounding radius*
0 $2 $3 $4 $5 $6 $7 $8 $9 X,Y pos of 4 corners*
0 Add a 4 corners polygon primitive as box body*
4,1,4,$2,$3,$4,$5,$6,$7,$8,$9,$2,$3,0*
0 Add four circle primitives for the rounded corners*
1,1,$1+$1,$2,$3*
1,1,$1+$1,$4,$5*
1,1,$1+$1,$6,$7*
1,1,$1+$1,$8,$9*
0 Add four rect primitives between the rounded corners*
20,1,$1+$1,$2,$3,$4,$5,0*
20,1,$1+$1,$4,$5,$6,$7,0*
20,1,$1+$1,$6,$7,$8,$9,0*
20,1,$1+$1,$8,$9,$2,$3,0*%
G04 Aperture macros list end*
%ADD10RoundRect,0.250000X0.650000X-0.325000X0.650000X0.325000X-0.650000X0.325000X-0.650000X-0.325000X0*%
%ADD11R,0.600000X1.600000*%
%ADD12RoundRect,0.250000X0.400000X0.625000X-0.400000X0.625000X-0.400000X-0.625000X0.400000X-0.625000X0*%
%ADD13RoundRect,0.150000X0.150000X-0.837500X0.150000X0.837500X-0.150000X0.837500X-0.150000X-0.837500X0*%
G04 APERTURE END LIST*
D10*
%TO.C,C2*%
X188518800Y-123625400D03*
X188518800Y-120675400D03*
%TD*%
D11*
%TO.C,U5*%
X192746800Y-73166071D03*
X191476800Y-73166071D03*
X190206800Y-73166071D03*
X188936800Y-73166071D03*
X187666800Y-73166071D03*
X186396800Y-73166071D03*
X185126800Y-73166071D03*
X183846800Y-73166071D03*
X182596800Y-73166071D03*
X181316800Y-73166071D03*
X180046800Y-73166071D03*
X178776800Y-73166071D03*
X177506800Y-73166071D03*
X176236800Y-73166071D03*
X174966800Y-73166071D03*
X173696800Y-73166071D03*
X173696800Y-61966071D03*
X174966800Y-61966071D03*
X176236800Y-61966071D03*
X177506800Y-61966071D03*
X178776800Y-61966071D03*
X180046800Y-61966071D03*
X181316800Y-61966071D03*
X182596800Y-61966071D03*
X183846800Y-61966071D03*
X185126800Y-61966071D03*
X186396800Y-61966071D03*
X187666800Y-61966071D03*
X188936800Y-61966071D03*
X190206800Y-61966071D03*
X191476800Y-61966071D03*
X192746800Y-61966071D03*
%TD*%
D12*
%TO.C,R2*%
X126061400Y-139420600D03*
X122961400Y-139420600D03*
%TD*%
%TO.C,R3*%
X126060200Y-137109200D03*
X122960200Y-137109200D03*
%TD*%
D13*
%TO.C,U1*%
X162509200Y-67605600D03*
X161239200Y-67605600D03*
X159969200Y-67605600D03*
X158699200Y-67605600D03*
X157429200Y-67605600D03*
X156159200Y-67605600D03*
X154889200Y-67605600D03*
X153619200Y-67605600D03*
X152349200Y-67605600D03*
X151079200Y-67605600D03*
X149809200Y-67605600D03*
X148539200Y-67605600D03*
X148539200Y-60680600D03*
X149809200Y-60680600D03*
X151079200Y-60680600D03*
X152349200Y-60680600D03*
X153619200Y-60680600D03*
X154889200Y-60680600D03*
X156159200Y-60680600D03*
X157429200Y-60680600D03*
X158699200Y-60680600D03*
X159969200Y-60680600D03*
X161239200Y-60680600D03*
X162509200Y-60680600D03*
%TD*%
D12*
%TO.C,R4*%
X126061400Y-134797800D03*
X122961400Y-134797800D03*
%TD*%
M02*
