%TF.GenerationSoftware,KiCad,Pcbnew,7.0.7-7.0.7~ubuntu20.04.1*%
%TF.CreationDate,2023-08-26T19:10:28+02:00*%
%TF.ProjectId,MOS_MultiParallel_2,4d4f535f-4d75-46c7-9469-506172616c6c,rev?*%
%TF.SameCoordinates,Original*%
%TF.FileFunction,Soldermask,Top*%
%TF.FilePolarity,Negative*%
%FSLAX46Y46*%
G04 Gerber Fmt 4.6, Leading zero omitted, Abs format (unit mm)*
G04 Created by KiCad (PCBNEW 7.0.7-7.0.7~ubuntu20.04.1) date 2023-08-26 19:10:28*
%MOMM*%
%LPD*%
G01*
G04 APERTURE LIST*
G04 Aperture macros list*
%AMRoundRect*
0 Rectangle with rounded corners*
0 $1 Rounding radius*
0 $2 $3 $4 $5 $6 $7 $8 $9 X,Y pos of 4 corners*
0 Add a 4 corners polygon primitive as box body*
4,1,4,$2,$3,$4,$5,$6,$7,$8,$9,$2,$3,0*
0 Add four circle primitives for the rounded corners*
1,1,$1+$1,$2,$3*
1,1,$1+$1,$4,$5*
1,1,$1+$1,$6,$7*
1,1,$1+$1,$8,$9*
0 Add four rect primitives between the rounded corners*
20,1,$1+$1,$2,$3,$4,$5,0*
20,1,$1+$1,$4,$5,$6,$7,0*
20,1,$1+$1,$6,$7,$8,$9,0*
20,1,$1+$1,$8,$9,$2,$3,0*%
G04 Aperture macros list end*
%ADD10R,1.700000X1.700000*%
%ADD11O,1.700000X1.700000*%
%ADD12R,1.350000X1.350000*%
%ADD13R,1.600000X2.400000*%
%ADD14O,1.600000X2.400000*%
%ADD15RoundRect,0.250000X-0.400000X-0.625000X0.400000X-0.625000X0.400000X0.625000X-0.400000X0.625000X0*%
%ADD16RoundRect,0.150000X0.725000X0.150000X-0.725000X0.150000X-0.725000X-0.150000X0.725000X-0.150000X0*%
%ADD17RoundRect,0.250000X0.625000X-0.400000X0.625000X0.400000X-0.625000X0.400000X-0.625000X-0.400000X0*%
%ADD18RoundRect,0.150000X-0.512500X-0.150000X0.512500X-0.150000X0.512500X0.150000X-0.512500X0.150000X0*%
%ADD19RoundRect,0.250000X-0.229810X0.689429X-0.689429X0.229810X0.229810X-0.689429X0.689429X-0.229810X0*%
%ADD20RoundRect,0.250000X0.325000X0.650000X-0.325000X0.650000X-0.325000X-0.650000X0.325000X-0.650000X0*%
%ADD21RoundRect,0.250000X-0.650000X0.325000X-0.650000X-0.325000X0.650000X-0.325000X0.650000X0.325000X0*%
%ADD22C,3.200000*%
%ADD23RoundRect,0.250000X0.650000X-0.325000X0.650000X0.325000X-0.650000X0.325000X-0.650000X-0.325000X0*%
%ADD24R,1.560000X0.650000*%
%ADD25RoundRect,0.150000X-0.725000X-0.150000X0.725000X-0.150000X0.725000X0.150000X-0.725000X0.150000X0*%
%ADD26R,1.600000X1.600000*%
%ADD27O,1.600000X1.600000*%
G04 APERTURE END LIST*
D10*
%TO.C,J31*%
X129413000Y-126212600D03*
D11*
X126873000Y-126212600D03*
X129413000Y-123672600D03*
X126873000Y-123672600D03*
X129413000Y-121132600D03*
X126873000Y-121132600D03*
X129413000Y-118592600D03*
X126873000Y-118592600D03*
X129413000Y-116052600D03*
X126873000Y-116052600D03*
X129413000Y-113512600D03*
X126873000Y-113512600D03*
X129413000Y-110972600D03*
X126873000Y-110972600D03*
X129413000Y-108432600D03*
X126873000Y-108432600D03*
X129413000Y-105892600D03*
X126873000Y-105892600D03*
X129413000Y-103352600D03*
X126873000Y-103352600D03*
X129413000Y-100812600D03*
X126873000Y-100812600D03*
X129413000Y-98272600D03*
X126873000Y-98272600D03*
X129413000Y-95732600D03*
X126873000Y-95732600D03*
X129413000Y-93192600D03*
X126873000Y-93192600D03*
X129413000Y-90652600D03*
X126873000Y-90652600D03*
X129413000Y-88112600D03*
X126873000Y-88112600D03*
X129413000Y-85572600D03*
X126873000Y-85572600D03*
X129413000Y-83032600D03*
X126873000Y-83032600D03*
X129413000Y-80492600D03*
X126873000Y-80492600D03*
X129413000Y-77952600D03*
X126873000Y-77952600D03*
X129413000Y-75412600D03*
X126873000Y-75412600D03*
X129413000Y-72872600D03*
X126873000Y-72872600D03*
%TD*%
D12*
%TO.C,J14*%
X139954000Y-106984800D03*
%TD*%
D13*
%TO.C,U11*%
X137414000Y-126466600D03*
D14*
X139954000Y-126466600D03*
X142494000Y-126466600D03*
X145034000Y-126466600D03*
X147574000Y-126466600D03*
X150114000Y-126466600D03*
X152654000Y-126466600D03*
X155194000Y-126466600D03*
X157734000Y-126466600D03*
X160274000Y-126466600D03*
X162814000Y-126466600D03*
X165354000Y-126466600D03*
X167894000Y-126466600D03*
X170434000Y-126466600D03*
X172974000Y-126466600D03*
X175514000Y-126466600D03*
X178054000Y-126466600D03*
X180594000Y-126466600D03*
X183134000Y-126466600D03*
X185674000Y-126466600D03*
X185674000Y-111226600D03*
X183134000Y-111226600D03*
X180594000Y-111226600D03*
X178054000Y-111226600D03*
X175514000Y-111226600D03*
X172974000Y-111226600D03*
X170434000Y-111226600D03*
X167894000Y-111226600D03*
X165354000Y-111226600D03*
X162814000Y-111226600D03*
X160274000Y-111226600D03*
X157734000Y-111226600D03*
X155194000Y-111226600D03*
X152654000Y-111226600D03*
X150114000Y-111226600D03*
X147574000Y-111226600D03*
X145034000Y-111226600D03*
X142494000Y-111226600D03*
X139954000Y-111226600D03*
X137414000Y-111226600D03*
%TD*%
D13*
%TO.C,U4*%
X137439400Y-96027000D03*
D14*
X139979400Y-96027000D03*
X142519400Y-96027000D03*
X145059400Y-96027000D03*
X147599400Y-96027000D03*
X150139400Y-96027000D03*
X152679400Y-96027000D03*
X155219400Y-96027000D03*
X157759400Y-96027000D03*
X160299400Y-96027000D03*
X162839400Y-96027000D03*
X165379400Y-96027000D03*
X167919400Y-96027000D03*
X170459400Y-96027000D03*
X172999400Y-96027000D03*
X175539400Y-96027000D03*
X178079400Y-96027000D03*
X180619400Y-96027000D03*
X183159400Y-96027000D03*
X185699400Y-96027000D03*
X185699400Y-80787000D03*
X183159400Y-80787000D03*
X180619400Y-80787000D03*
X178079400Y-80787000D03*
X175539400Y-80787000D03*
X172999400Y-80787000D03*
X170459400Y-80787000D03*
X167919400Y-80787000D03*
X165379400Y-80787000D03*
X162839400Y-80787000D03*
X160299400Y-80787000D03*
X157759400Y-80787000D03*
X155219400Y-80787000D03*
X152679400Y-80787000D03*
X150139400Y-80787000D03*
X147599400Y-80787000D03*
X145059400Y-80787000D03*
X142519400Y-80787000D03*
X139979400Y-80787000D03*
X137439400Y-80787000D03*
%TD*%
D12*
%TO.C,J6*%
X119583200Y-67843400D03*
%TD*%
D10*
%TO.C,J1*%
X139700000Y-48303005D03*
D11*
X139700000Y-50843005D03*
X142240000Y-48303005D03*
X142240000Y-50843005D03*
X144780000Y-48303005D03*
X144780000Y-50843005D03*
X147320000Y-48303005D03*
X147320000Y-50843005D03*
X149860000Y-48303005D03*
X149860000Y-50843005D03*
X152400000Y-48303005D03*
X152400000Y-50843005D03*
X154940000Y-48303005D03*
X154940000Y-50843005D03*
X157480000Y-48303005D03*
X157480000Y-50843005D03*
X160020000Y-48303005D03*
X160020000Y-50843005D03*
X162560000Y-48303005D03*
X162560000Y-50843005D03*
X165100000Y-48303005D03*
X165100000Y-50843005D03*
X167640000Y-48303005D03*
X167640000Y-50843005D03*
X170180000Y-48303005D03*
X170180000Y-50843005D03*
X172720000Y-48303005D03*
X172720000Y-50843005D03*
X175260000Y-48303005D03*
X175260000Y-50843005D03*
X177800000Y-48303005D03*
X177800000Y-50843005D03*
X180340000Y-48303005D03*
X180340000Y-50843005D03*
X182880000Y-48303005D03*
X182880000Y-50843005D03*
X185420000Y-48303005D03*
X185420000Y-50843005D03*
X187960000Y-48303005D03*
X187960000Y-50843005D03*
%TD*%
D12*
%TO.C,J17*%
X145135600Y-60756800D03*
%TD*%
D10*
%TO.C,J27*%
X104698800Y-115040331D03*
D11*
X104698800Y-112500331D03*
X107238800Y-115040331D03*
X107238800Y-112500331D03*
X109778800Y-115040331D03*
X109778800Y-112500331D03*
X112318800Y-115040331D03*
X112318800Y-112500331D03*
X114858800Y-115040331D03*
X114858800Y-112500331D03*
%TD*%
D15*
%TO.C,R1*%
X142975400Y-85775800D03*
X146075400Y-85775800D03*
%TD*%
D12*
%TO.C,J12*%
X137346000Y-65625400D03*
%TD*%
%TO.C,J26*%
X137312400Y-71602600D03*
%TD*%
D10*
%TO.C,JP3*%
X148031200Y-72364600D03*
D11*
X148031200Y-74904600D03*
X148031200Y-77444600D03*
%TD*%
D10*
%TO.C,J4*%
X139700000Y-133849005D03*
D11*
X139700000Y-136389005D03*
X142240000Y-133849005D03*
X142240000Y-136389005D03*
X144780000Y-133849005D03*
X144780000Y-136389005D03*
X147320000Y-133849005D03*
X147320000Y-136389005D03*
X149860000Y-133849005D03*
X149860000Y-136389005D03*
X152400000Y-133849005D03*
X152400000Y-136389005D03*
X154940000Y-133849005D03*
X154940000Y-136389005D03*
X157480000Y-133849005D03*
X157480000Y-136389005D03*
X160020000Y-133849005D03*
X160020000Y-136389005D03*
X162560000Y-133849005D03*
X162560000Y-136389005D03*
X165100000Y-133849005D03*
X165100000Y-136389005D03*
X167640000Y-133849005D03*
X167640000Y-136389005D03*
X170180000Y-133849005D03*
X170180000Y-136389005D03*
X172720000Y-133849005D03*
X172720000Y-136389005D03*
X175260000Y-133849005D03*
X175260000Y-136389005D03*
X177800000Y-133849005D03*
X177800000Y-136389005D03*
X180340000Y-133849005D03*
X180340000Y-136389005D03*
X182880000Y-133849005D03*
X182880000Y-136389005D03*
X185420000Y-133849005D03*
X185420000Y-136389005D03*
X187960000Y-133849005D03*
X187960000Y-136389005D03*
%TD*%
D12*
%TO.C,J13*%
X137312400Y-68630800D03*
%TD*%
%TO.C,J16*%
X147624800Y-90932000D03*
%TD*%
D10*
%TO.C,JP4*%
X151561800Y-72364600D03*
D11*
X151561800Y-74904600D03*
X151561800Y-77444600D03*
%TD*%
D16*
%TO.C,U6*%
X179065800Y-73077871D03*
X179065800Y-71807871D03*
X179065800Y-70537871D03*
X179065800Y-69267871D03*
X179065800Y-67997871D03*
X179065800Y-66727871D03*
X179065800Y-65457871D03*
X179065800Y-64187871D03*
X173915800Y-64187871D03*
X173915800Y-65457871D03*
X173915800Y-66727871D03*
X173915800Y-67997871D03*
X173915800Y-69267871D03*
X173915800Y-70537871D03*
X173915800Y-71807871D03*
X173915800Y-73077871D03*
%TD*%
D17*
%TO.C,R5*%
X190855600Y-133451600D03*
X190855600Y-130351600D03*
%TD*%
D12*
%TO.C,J18*%
X145135600Y-63779400D03*
%TD*%
%TO.C,J28*%
X109982000Y-52095400D03*
%TD*%
%TO.C,J5*%
X119583200Y-70383400D03*
%TD*%
D18*
%TO.C,U8*%
X190708700Y-58333600D03*
X190708700Y-59283600D03*
X190708700Y-60233600D03*
X192983700Y-60233600D03*
X192983700Y-58333600D03*
%TD*%
D10*
%TO.C,J10*%
X118417300Y-135204200D03*
D11*
X118417300Y-132664200D03*
X118417300Y-130124200D03*
X118417300Y-127584200D03*
X118417300Y-125044200D03*
X118417300Y-122504200D03*
%TD*%
D12*
%TO.C,J29*%
X107086400Y-52070000D03*
%TD*%
D10*
%TO.C,J20*%
X107917000Y-142389005D03*
D11*
X110457000Y-142389005D03*
X112997000Y-142389005D03*
X115537000Y-142389005D03*
X118077000Y-142389005D03*
X120617000Y-142389005D03*
X123157000Y-142389005D03*
X125697000Y-142389005D03*
X128237000Y-142389005D03*
X130777000Y-142389005D03*
X133317000Y-142389005D03*
X135857000Y-142389005D03*
%TD*%
D10*
%TO.C,JP5*%
X155067000Y-72379600D03*
D11*
X155067000Y-74919600D03*
X155067000Y-77459600D03*
%TD*%
D10*
%TO.C,J11*%
X103555800Y-119964200D03*
D11*
X103555800Y-122504200D03*
X103555800Y-125044200D03*
X103555800Y-127584200D03*
X103555800Y-130124200D03*
X103555800Y-132664200D03*
%TD*%
D12*
%TO.C,J7*%
X119024400Y-96240600D03*
%TD*%
%TO.C,J25*%
X178054000Y-114985800D03*
%TD*%
D19*
%TO.C,C5*%
X184556400Y-68402200D03*
X182470434Y-70488166D03*
%TD*%
D20*
%TO.C,C6*%
X153087600Y-63246000D03*
X150137600Y-63246000D03*
%TD*%
D10*
%TO.C,J2*%
X139700000Y-139849005D03*
D11*
X139700000Y-142389005D03*
X142240000Y-139849005D03*
X142240000Y-142389005D03*
X144780000Y-139849005D03*
X144780000Y-142389005D03*
X147320000Y-139849005D03*
X147320000Y-142389005D03*
X149860000Y-139849005D03*
X149860000Y-142389005D03*
X152400000Y-139849005D03*
X152400000Y-142389005D03*
X154940000Y-139849005D03*
X154940000Y-142389005D03*
X157480000Y-139849005D03*
X157480000Y-142389005D03*
X160020000Y-139849005D03*
X160020000Y-142389005D03*
X162560000Y-139849005D03*
X162560000Y-142389005D03*
X165100000Y-139849005D03*
X165100000Y-142389005D03*
X167640000Y-139849005D03*
X167640000Y-142389005D03*
X170180000Y-139849005D03*
X170180000Y-142389005D03*
X172720000Y-139849005D03*
X172720000Y-142389005D03*
X175260000Y-139849005D03*
X175260000Y-142389005D03*
X177800000Y-139849005D03*
X177800000Y-142389005D03*
X180340000Y-139849005D03*
X180340000Y-142389005D03*
X182880000Y-139849005D03*
X182880000Y-142389005D03*
X185420000Y-139849005D03*
X185420000Y-142389005D03*
X187960000Y-139849005D03*
X187960000Y-142389005D03*
%TD*%
D21*
%TO.C,C3*%
X110566200Y-126210800D03*
X110566200Y-129160800D03*
%TD*%
D22*
%TO.C,H3*%
X193340000Y-49346005D03*
%TD*%
D23*
%TO.C,C4*%
X118160800Y-119358331D03*
X118160800Y-116408331D03*
%TD*%
D12*
%TO.C,J30*%
X119583200Y-65278000D03*
%TD*%
D24*
%TO.C,U9*%
X169171600Y-65786000D03*
X169171600Y-64836000D03*
X169171600Y-63886000D03*
X166471600Y-63886000D03*
X166471600Y-65786000D03*
%TD*%
D10*
%TO.C,J3*%
X139700000Y-54303005D03*
D11*
X139700000Y-56843005D03*
X142240000Y-54303005D03*
X142240000Y-56843005D03*
X144780000Y-54303005D03*
X144780000Y-56843005D03*
X147320000Y-54303005D03*
X147320000Y-56843005D03*
X149860000Y-54303005D03*
X149860000Y-56843005D03*
X152400000Y-54303005D03*
X152400000Y-56843005D03*
X154940000Y-54303005D03*
X154940000Y-56843005D03*
X157480000Y-54303005D03*
X157480000Y-56843005D03*
X160020000Y-54303005D03*
X160020000Y-56843005D03*
X162560000Y-54303005D03*
X162560000Y-56843005D03*
X165100000Y-54303005D03*
X165100000Y-56843005D03*
X167640000Y-54303005D03*
X167640000Y-56843005D03*
X170180000Y-54303005D03*
X170180000Y-56843005D03*
X172720000Y-54303005D03*
X172720000Y-56843005D03*
X175260000Y-54303005D03*
X175260000Y-56843005D03*
X177800000Y-54303005D03*
X177800000Y-56843005D03*
X180340000Y-54303005D03*
X180340000Y-56843005D03*
X182880000Y-54303005D03*
X182880000Y-56843005D03*
X185420000Y-54303005D03*
X185420000Y-56843005D03*
X187960000Y-54303005D03*
X187960000Y-56843005D03*
%TD*%
D13*
%TO.C,U3*%
X137439400Y-103759000D03*
D14*
X139979400Y-103759000D03*
X142519400Y-103759000D03*
X145059400Y-103759000D03*
X147599400Y-103759000D03*
X150139400Y-103759000D03*
X152679400Y-103759000D03*
X155219400Y-103759000D03*
X157759400Y-103759000D03*
X160299400Y-103759000D03*
X162839400Y-103759000D03*
X165379400Y-103759000D03*
X167919400Y-103759000D03*
X170459400Y-103759000D03*
X172999400Y-103759000D03*
X175539400Y-103759000D03*
X178079400Y-103759000D03*
X180619400Y-103759000D03*
X183159400Y-103759000D03*
X185699400Y-103759000D03*
X185699400Y-88519000D03*
X183159400Y-88519000D03*
X180619400Y-88519000D03*
X178079400Y-88519000D03*
X175539400Y-88519000D03*
X172999400Y-88519000D03*
X170459400Y-88519000D03*
X167919400Y-88519000D03*
X165379400Y-88519000D03*
X162839400Y-88519000D03*
X160299400Y-88519000D03*
X157759400Y-88519000D03*
X155219400Y-88519000D03*
X152679400Y-88519000D03*
X150139400Y-88519000D03*
X147599400Y-88519000D03*
X145059400Y-88519000D03*
X142519400Y-88519000D03*
X139979400Y-88519000D03*
X137439400Y-88519000D03*
%TD*%
D12*
%TO.C,J9*%
X137346000Y-62577400D03*
%TD*%
D10*
%TO.C,JP6*%
X189128400Y-81041000D03*
D11*
X189128400Y-83581000D03*
X189128400Y-86121000D03*
%TD*%
D12*
%TO.C,J15*%
X142570200Y-91160600D03*
%TD*%
D22*
%TO.C,H1*%
X101340000Y-49346005D03*
%TD*%
D25*
%TO.C,U7*%
X187530200Y-63603671D03*
X187530200Y-64873671D03*
X187530200Y-66143671D03*
X187530200Y-67413671D03*
X187530200Y-68683671D03*
X187530200Y-69953671D03*
X187530200Y-71223671D03*
X187530200Y-72493671D03*
X192680200Y-72493671D03*
X192680200Y-71223671D03*
X192680200Y-69953671D03*
X192680200Y-68683671D03*
X192680200Y-67413671D03*
X192680200Y-66143671D03*
X192680200Y-64873671D03*
X192680200Y-63603671D03*
%TD*%
D20*
%TO.C,C1*%
X141664000Y-59885000D03*
X138714000Y-59885000D03*
%TD*%
D12*
%TO.C,J8*%
X188036200Y-130454400D03*
%TD*%
D22*
%TO.C,H2*%
X101340000Y-141346005D03*
%TD*%
D10*
%TO.C,JP2*%
X144500600Y-72364600D03*
D11*
X144500600Y-74904600D03*
X144500600Y-77444600D03*
%TD*%
D10*
%TO.C,J21*%
X106680000Y-48260000D03*
D11*
X109220000Y-48260000D03*
X111760000Y-48260000D03*
X114300000Y-48260000D03*
X116840000Y-48260000D03*
X119380000Y-48260000D03*
X121920000Y-48260000D03*
X124460000Y-48260000D03*
X127000000Y-48260000D03*
X129540000Y-48260000D03*
X132080000Y-48260000D03*
X134620000Y-48260000D03*
%TD*%
D26*
%TO.C,A1*%
X100873400Y-57683400D03*
D27*
X100873400Y-60223400D03*
X100873400Y-62763400D03*
X100873400Y-65303400D03*
X100873400Y-67843400D03*
X100873400Y-70383400D03*
X100873400Y-72923400D03*
X100873400Y-75463400D03*
X100873400Y-78003400D03*
X100873400Y-80543400D03*
X100873400Y-83083400D03*
X100873400Y-85623400D03*
X100873400Y-88163400D03*
X100873400Y-90703400D03*
X100873400Y-93243400D03*
X116113400Y-93243400D03*
X116113400Y-90703400D03*
X116113400Y-88163400D03*
X116113400Y-85623400D03*
X116113400Y-83083400D03*
X116113400Y-80543400D03*
X116113400Y-78003400D03*
X116113400Y-75463400D03*
X116113400Y-72923400D03*
X116113400Y-70383400D03*
X116113400Y-67843400D03*
X116113400Y-65303400D03*
X116113400Y-62763400D03*
X116113400Y-60223400D03*
X116113400Y-57683400D03*
%TD*%
D10*
%TO.C,JP1*%
X140970000Y-72364600D03*
D11*
X140970000Y-74904600D03*
X140970000Y-77444600D03*
%TD*%
D22*
%TO.C,H4*%
X193340000Y-141346005D03*
%TD*%
D26*
%TO.C,U2*%
X107375800Y-119959200D03*
D27*
X107375800Y-122499200D03*
X107375800Y-125039200D03*
X107375800Y-127579200D03*
X107375800Y-130119200D03*
X107375800Y-132659200D03*
X107375800Y-135199200D03*
X114995800Y-135199200D03*
X114995800Y-132659200D03*
X114995800Y-130119200D03*
X114995800Y-127579200D03*
X114995800Y-125039200D03*
X114995800Y-122499200D03*
X114995800Y-119959200D03*
%TD*%
M02*
