%TF.GenerationSoftware,KiCad,Pcbnew,7.0.11-7.0.11~ubuntu20.04.1*%
%TF.CreationDate,2024-04-16T16:23:03+02:00*%
%TF.ProjectId,z80_schematics,7a38305f-7363-4686-956d-61746963732e,rev?*%
%TF.SameCoordinates,Original*%
%TF.FileFunction,Legend,Bot*%
%TF.FilePolarity,Positive*%
%FSLAX46Y46*%
G04 Gerber Fmt 4.6, Leading zero omitted, Abs format (unit mm)*
G04 Created by KiCad (PCBNEW 7.0.11-7.0.11~ubuntu20.04.1) date 2024-04-16 16:23:03*
%MOMM*%
%LPD*%
G01*
G04 APERTURE LIST*
%ADD10C,0.150000*%
%ADD11C,0.120000*%
G04 APERTURE END LIST*
D10*
X139826830Y-59982219D02*
X140303020Y-59982219D01*
X140303020Y-59982219D02*
X140350639Y-60458409D01*
X140350639Y-60458409D02*
X140303020Y-60410790D01*
X140303020Y-60410790D02*
X140207782Y-60363171D01*
X140207782Y-60363171D02*
X139969687Y-60363171D01*
X139969687Y-60363171D02*
X139874449Y-60410790D01*
X139874449Y-60410790D02*
X139826830Y-60458409D01*
X139826830Y-60458409D02*
X139779211Y-60553647D01*
X139779211Y-60553647D02*
X139779211Y-60791742D01*
X139779211Y-60791742D02*
X139826830Y-60886980D01*
X139826830Y-60886980D02*
X139874449Y-60934600D01*
X139874449Y-60934600D02*
X139969687Y-60982219D01*
X139969687Y-60982219D02*
X140207782Y-60982219D01*
X140207782Y-60982219D02*
X140303020Y-60934600D01*
X140303020Y-60934600D02*
X140350639Y-60886980D01*
X139493496Y-59982219D02*
X139160163Y-60982219D01*
X139160163Y-60982219D02*
X138826830Y-59982219D01*
X138255401Y-61315552D02*
X138255401Y-59886980D01*
X137636353Y-59982219D02*
X137017306Y-59982219D01*
X137017306Y-59982219D02*
X137350639Y-60363171D01*
X137350639Y-60363171D02*
X137207782Y-60363171D01*
X137207782Y-60363171D02*
X137112544Y-60410790D01*
X137112544Y-60410790D02*
X137064925Y-60458409D01*
X137064925Y-60458409D02*
X137017306Y-60553647D01*
X137017306Y-60553647D02*
X137017306Y-60791742D01*
X137017306Y-60791742D02*
X137064925Y-60886980D01*
X137064925Y-60886980D02*
X137112544Y-60934600D01*
X137112544Y-60934600D02*
X137207782Y-60982219D01*
X137207782Y-60982219D02*
X137493496Y-60982219D01*
X137493496Y-60982219D02*
X137588734Y-60934600D01*
X137588734Y-60934600D02*
X137636353Y-60886980D01*
X136731591Y-59982219D02*
X136398258Y-60982219D01*
X136398258Y-60982219D02*
X136064925Y-59982219D01*
X135826829Y-59982219D02*
X135207782Y-59982219D01*
X135207782Y-59982219D02*
X135541115Y-60363171D01*
X135541115Y-60363171D02*
X135398258Y-60363171D01*
X135398258Y-60363171D02*
X135303020Y-60410790D01*
X135303020Y-60410790D02*
X135255401Y-60458409D01*
X135255401Y-60458409D02*
X135207782Y-60553647D01*
X135207782Y-60553647D02*
X135207782Y-60791742D01*
X135207782Y-60791742D02*
X135255401Y-60886980D01*
X135255401Y-60886980D02*
X135303020Y-60934600D01*
X135303020Y-60934600D02*
X135398258Y-60982219D01*
X135398258Y-60982219D02*
X135683972Y-60982219D01*
X135683972Y-60982219D02*
X135779210Y-60934600D01*
X135779210Y-60934600D02*
X135826829Y-60886980D01*
X146504819Y-89654142D02*
X146028628Y-89320809D01*
X146504819Y-89082714D02*
X145504819Y-89082714D01*
X145504819Y-89082714D02*
X145504819Y-89463666D01*
X145504819Y-89463666D02*
X145552438Y-89558904D01*
X145552438Y-89558904D02*
X145600057Y-89606523D01*
X145600057Y-89606523D02*
X145695295Y-89654142D01*
X145695295Y-89654142D02*
X145838152Y-89654142D01*
X145838152Y-89654142D02*
X145933390Y-89606523D01*
X145933390Y-89606523D02*
X145981009Y-89558904D01*
X145981009Y-89558904D02*
X146028628Y-89463666D01*
X146028628Y-89463666D02*
X146028628Y-89082714D01*
X145600057Y-90035095D02*
X145552438Y-90082714D01*
X145552438Y-90082714D02*
X145504819Y-90177952D01*
X145504819Y-90177952D02*
X145504819Y-90416047D01*
X145504819Y-90416047D02*
X145552438Y-90511285D01*
X145552438Y-90511285D02*
X145600057Y-90558904D01*
X145600057Y-90558904D02*
X145695295Y-90606523D01*
X145695295Y-90606523D02*
X145790533Y-90606523D01*
X145790533Y-90606523D02*
X145933390Y-90558904D01*
X145933390Y-90558904D02*
X146504819Y-89987476D01*
X146504819Y-89987476D02*
X146504819Y-90606523D01*
X146504819Y-91558904D02*
X146504819Y-90987476D01*
X146504819Y-91273190D02*
X145504819Y-91273190D01*
X145504819Y-91273190D02*
X145647676Y-91177952D01*
X145647676Y-91177952D02*
X145742914Y-91082714D01*
X145742914Y-91082714D02*
X145790533Y-90987476D01*
X134557923Y-62065819D02*
X134557923Y-62780104D01*
X134557923Y-62780104D02*
X134605542Y-62922961D01*
X134605542Y-62922961D02*
X134700780Y-63018200D01*
X134700780Y-63018200D02*
X134843637Y-63065819D01*
X134843637Y-63065819D02*
X134938875Y-63065819D01*
X134081732Y-63065819D02*
X134081732Y-62065819D01*
X134081732Y-62065819D02*
X133700780Y-62065819D01*
X133700780Y-62065819D02*
X133605542Y-62113438D01*
X133605542Y-62113438D02*
X133557923Y-62161057D01*
X133557923Y-62161057D02*
X133510304Y-62256295D01*
X133510304Y-62256295D02*
X133510304Y-62399152D01*
X133510304Y-62399152D02*
X133557923Y-62494390D01*
X133557923Y-62494390D02*
X133605542Y-62542009D01*
X133605542Y-62542009D02*
X133700780Y-62589628D01*
X133700780Y-62589628D02*
X134081732Y-62589628D01*
X133129351Y-62161057D02*
X133081732Y-62113438D01*
X133081732Y-62113438D02*
X132986494Y-62065819D01*
X132986494Y-62065819D02*
X132748399Y-62065819D01*
X132748399Y-62065819D02*
X132653161Y-62113438D01*
X132653161Y-62113438D02*
X132605542Y-62161057D01*
X132605542Y-62161057D02*
X132557923Y-62256295D01*
X132557923Y-62256295D02*
X132557923Y-62351533D01*
X132557923Y-62351533D02*
X132605542Y-62494390D01*
X132605542Y-62494390D02*
X133176970Y-63065819D01*
X133176970Y-63065819D02*
X132557923Y-63065819D01*
X132081732Y-63065819D02*
X131891256Y-63065819D01*
X131891256Y-63065819D02*
X131796018Y-63018200D01*
X131796018Y-63018200D02*
X131748399Y-62970580D01*
X131748399Y-62970580D02*
X131653161Y-62827723D01*
X131653161Y-62827723D02*
X131605542Y-62637247D01*
X131605542Y-62637247D02*
X131605542Y-62256295D01*
X131605542Y-62256295D02*
X131653161Y-62161057D01*
X131653161Y-62161057D02*
X131700780Y-62113438D01*
X131700780Y-62113438D02*
X131796018Y-62065819D01*
X131796018Y-62065819D02*
X131986494Y-62065819D01*
X131986494Y-62065819D02*
X132081732Y-62113438D01*
X132081732Y-62113438D02*
X132129351Y-62161057D01*
X132129351Y-62161057D02*
X132176970Y-62256295D01*
X132176970Y-62256295D02*
X132176970Y-62494390D01*
X132176970Y-62494390D02*
X132129351Y-62589628D01*
X132129351Y-62589628D02*
X132081732Y-62637247D01*
X132081732Y-62637247D02*
X131986494Y-62684866D01*
X131986494Y-62684866D02*
X131796018Y-62684866D01*
X131796018Y-62684866D02*
X131700780Y-62637247D01*
X131700780Y-62637247D02*
X131653161Y-62589628D01*
X131653161Y-62589628D02*
X131605542Y-62494390D01*
X141190132Y-62065819D02*
X140571085Y-62065819D01*
X140571085Y-62065819D02*
X140904418Y-62446771D01*
X140904418Y-62446771D02*
X140761561Y-62446771D01*
X140761561Y-62446771D02*
X140666323Y-62494390D01*
X140666323Y-62494390D02*
X140618704Y-62542009D01*
X140618704Y-62542009D02*
X140571085Y-62637247D01*
X140571085Y-62637247D02*
X140571085Y-62875342D01*
X140571085Y-62875342D02*
X140618704Y-62970580D01*
X140618704Y-62970580D02*
X140666323Y-63018200D01*
X140666323Y-63018200D02*
X140761561Y-63065819D01*
X140761561Y-63065819D02*
X141047275Y-63065819D01*
X141047275Y-63065819D02*
X141142513Y-63018200D01*
X141142513Y-63018200D02*
X141190132Y-62970580D01*
X135371085Y-63065819D02*
X135942513Y-63065819D01*
X135656799Y-63065819D02*
X135656799Y-62065819D01*
X135656799Y-62065819D02*
X135752037Y-62208676D01*
X135752037Y-62208676D02*
X135847275Y-62303914D01*
X135847275Y-62303914D02*
X135942513Y-62351533D01*
X138344466Y-129319580D02*
X138392085Y-129367200D01*
X138392085Y-129367200D02*
X138534942Y-129414819D01*
X138534942Y-129414819D02*
X138630180Y-129414819D01*
X138630180Y-129414819D02*
X138773037Y-129367200D01*
X138773037Y-129367200D02*
X138868275Y-129271961D01*
X138868275Y-129271961D02*
X138915894Y-129176723D01*
X138915894Y-129176723D02*
X138963513Y-128986247D01*
X138963513Y-128986247D02*
X138963513Y-128843390D01*
X138963513Y-128843390D02*
X138915894Y-128652914D01*
X138915894Y-128652914D02*
X138868275Y-128557676D01*
X138868275Y-128557676D02*
X138773037Y-128462438D01*
X138773037Y-128462438D02*
X138630180Y-128414819D01*
X138630180Y-128414819D02*
X138534942Y-128414819D01*
X138534942Y-128414819D02*
X138392085Y-128462438D01*
X138392085Y-128462438D02*
X138344466Y-128510057D01*
X137963513Y-128510057D02*
X137915894Y-128462438D01*
X137915894Y-128462438D02*
X137820656Y-128414819D01*
X137820656Y-128414819D02*
X137582561Y-128414819D01*
X137582561Y-128414819D02*
X137487323Y-128462438D01*
X137487323Y-128462438D02*
X137439704Y-128510057D01*
X137439704Y-128510057D02*
X137392085Y-128605295D01*
X137392085Y-128605295D02*
X137392085Y-128700533D01*
X137392085Y-128700533D02*
X137439704Y-128843390D01*
X137439704Y-128843390D02*
X138011132Y-129414819D01*
X138011132Y-129414819D02*
X137392085Y-129414819D01*
X144684819Y-92549142D02*
X144208628Y-92215809D01*
X144684819Y-91977714D02*
X143684819Y-91977714D01*
X143684819Y-91977714D02*
X143684819Y-92358666D01*
X143684819Y-92358666D02*
X143732438Y-92453904D01*
X143732438Y-92453904D02*
X143780057Y-92501523D01*
X143780057Y-92501523D02*
X143875295Y-92549142D01*
X143875295Y-92549142D02*
X144018152Y-92549142D01*
X144018152Y-92549142D02*
X144113390Y-92501523D01*
X144113390Y-92501523D02*
X144161009Y-92453904D01*
X144161009Y-92453904D02*
X144208628Y-92358666D01*
X144208628Y-92358666D02*
X144208628Y-91977714D01*
X143780057Y-92930095D02*
X143732438Y-92977714D01*
X143732438Y-92977714D02*
X143684819Y-93072952D01*
X143684819Y-93072952D02*
X143684819Y-93311047D01*
X143684819Y-93311047D02*
X143732438Y-93406285D01*
X143732438Y-93406285D02*
X143780057Y-93453904D01*
X143780057Y-93453904D02*
X143875295Y-93501523D01*
X143875295Y-93501523D02*
X143970533Y-93501523D01*
X143970533Y-93501523D02*
X144113390Y-93453904D01*
X144113390Y-93453904D02*
X144684819Y-92882476D01*
X144684819Y-92882476D02*
X144684819Y-93501523D01*
X143684819Y-94406285D02*
X143684819Y-93930095D01*
X143684819Y-93930095D02*
X144161009Y-93882476D01*
X144161009Y-93882476D02*
X144113390Y-93930095D01*
X144113390Y-93930095D02*
X144065771Y-94025333D01*
X144065771Y-94025333D02*
X144065771Y-94263428D01*
X144065771Y-94263428D02*
X144113390Y-94358666D01*
X144113390Y-94358666D02*
X144161009Y-94406285D01*
X144161009Y-94406285D02*
X144256247Y-94453904D01*
X144256247Y-94453904D02*
X144494342Y-94453904D01*
X144494342Y-94453904D02*
X144589580Y-94406285D01*
X144589580Y-94406285D02*
X144637200Y-94358666D01*
X144637200Y-94358666D02*
X144684819Y-94263428D01*
X144684819Y-94263428D02*
X144684819Y-94025333D01*
X144684819Y-94025333D02*
X144637200Y-93930095D01*
X144637200Y-93930095D02*
X144589580Y-93882476D01*
X151711819Y-88892142D02*
X151235628Y-88558809D01*
X151711819Y-88320714D02*
X150711819Y-88320714D01*
X150711819Y-88320714D02*
X150711819Y-88701666D01*
X150711819Y-88701666D02*
X150759438Y-88796904D01*
X150759438Y-88796904D02*
X150807057Y-88844523D01*
X150807057Y-88844523D02*
X150902295Y-88892142D01*
X150902295Y-88892142D02*
X151045152Y-88892142D01*
X151045152Y-88892142D02*
X151140390Y-88844523D01*
X151140390Y-88844523D02*
X151188009Y-88796904D01*
X151188009Y-88796904D02*
X151235628Y-88701666D01*
X151235628Y-88701666D02*
X151235628Y-88320714D01*
X150807057Y-89273095D02*
X150759438Y-89320714D01*
X150759438Y-89320714D02*
X150711819Y-89415952D01*
X150711819Y-89415952D02*
X150711819Y-89654047D01*
X150711819Y-89654047D02*
X150759438Y-89749285D01*
X150759438Y-89749285D02*
X150807057Y-89796904D01*
X150807057Y-89796904D02*
X150902295Y-89844523D01*
X150902295Y-89844523D02*
X150997533Y-89844523D01*
X150997533Y-89844523D02*
X151140390Y-89796904D01*
X151140390Y-89796904D02*
X151711819Y-89225476D01*
X151711819Y-89225476D02*
X151711819Y-89844523D01*
X150711819Y-90463571D02*
X150711819Y-90558809D01*
X150711819Y-90558809D02*
X150759438Y-90654047D01*
X150759438Y-90654047D02*
X150807057Y-90701666D01*
X150807057Y-90701666D02*
X150902295Y-90749285D01*
X150902295Y-90749285D02*
X151092771Y-90796904D01*
X151092771Y-90796904D02*
X151330866Y-90796904D01*
X151330866Y-90796904D02*
X151521342Y-90749285D01*
X151521342Y-90749285D02*
X151616580Y-90701666D01*
X151616580Y-90701666D02*
X151664200Y-90654047D01*
X151664200Y-90654047D02*
X151711819Y-90558809D01*
X151711819Y-90558809D02*
X151711819Y-90463571D01*
X151711819Y-90463571D02*
X151664200Y-90368333D01*
X151664200Y-90368333D02*
X151616580Y-90320714D01*
X151616580Y-90320714D02*
X151521342Y-90273095D01*
X151521342Y-90273095D02*
X151330866Y-90225476D01*
X151330866Y-90225476D02*
X151092771Y-90225476D01*
X151092771Y-90225476D02*
X150902295Y-90273095D01*
X150902295Y-90273095D02*
X150807057Y-90320714D01*
X150807057Y-90320714D02*
X150759438Y-90368333D01*
X150759438Y-90368333D02*
X150711819Y-90463571D01*
X177839666Y-66706819D02*
X178172999Y-66230628D01*
X178411094Y-66706819D02*
X178411094Y-65706819D01*
X178411094Y-65706819D02*
X178030142Y-65706819D01*
X178030142Y-65706819D02*
X177934904Y-65754438D01*
X177934904Y-65754438D02*
X177887285Y-65802057D01*
X177887285Y-65802057D02*
X177839666Y-65897295D01*
X177839666Y-65897295D02*
X177839666Y-66040152D01*
X177839666Y-66040152D02*
X177887285Y-66135390D01*
X177887285Y-66135390D02*
X177934904Y-66183009D01*
X177934904Y-66183009D02*
X178030142Y-66230628D01*
X178030142Y-66230628D02*
X178411094Y-66230628D01*
X176887285Y-66706819D02*
X177458713Y-66706819D01*
X177172999Y-66706819D02*
X177172999Y-65706819D01*
X177172999Y-65706819D02*
X177268237Y-65849676D01*
X177268237Y-65849676D02*
X177363475Y-65944914D01*
X177363475Y-65944914D02*
X177458713Y-65992533D01*
X180174666Y-113345385D02*
X180222285Y-113393005D01*
X180222285Y-113393005D02*
X180365142Y-113440624D01*
X180365142Y-113440624D02*
X180460380Y-113440624D01*
X180460380Y-113440624D02*
X180603237Y-113393005D01*
X180603237Y-113393005D02*
X180698475Y-113297766D01*
X180698475Y-113297766D02*
X180746094Y-113202528D01*
X180746094Y-113202528D02*
X180793713Y-113012052D01*
X180793713Y-113012052D02*
X180793713Y-112869195D01*
X180793713Y-112869195D02*
X180746094Y-112678719D01*
X180746094Y-112678719D02*
X180698475Y-112583481D01*
X180698475Y-112583481D02*
X180603237Y-112488243D01*
X180603237Y-112488243D02*
X180460380Y-112440624D01*
X180460380Y-112440624D02*
X180365142Y-112440624D01*
X180365142Y-112440624D02*
X180222285Y-112488243D01*
X180222285Y-112488243D02*
X180174666Y-112535862D01*
X179841332Y-112440624D02*
X179174666Y-112440624D01*
X179174666Y-112440624D02*
X179603237Y-113440624D01*
X150941019Y-85717142D02*
X150464828Y-85383809D01*
X150941019Y-85145714D02*
X149941019Y-85145714D01*
X149941019Y-85145714D02*
X149941019Y-85526666D01*
X149941019Y-85526666D02*
X149988638Y-85621904D01*
X149988638Y-85621904D02*
X150036257Y-85669523D01*
X150036257Y-85669523D02*
X150131495Y-85717142D01*
X150131495Y-85717142D02*
X150274352Y-85717142D01*
X150274352Y-85717142D02*
X150369590Y-85669523D01*
X150369590Y-85669523D02*
X150417209Y-85621904D01*
X150417209Y-85621904D02*
X150464828Y-85526666D01*
X150464828Y-85526666D02*
X150464828Y-85145714D01*
X150036257Y-86098095D02*
X149988638Y-86145714D01*
X149988638Y-86145714D02*
X149941019Y-86240952D01*
X149941019Y-86240952D02*
X149941019Y-86479047D01*
X149941019Y-86479047D02*
X149988638Y-86574285D01*
X149988638Y-86574285D02*
X150036257Y-86621904D01*
X150036257Y-86621904D02*
X150131495Y-86669523D01*
X150131495Y-86669523D02*
X150226733Y-86669523D01*
X150226733Y-86669523D02*
X150369590Y-86621904D01*
X150369590Y-86621904D02*
X150941019Y-86050476D01*
X150941019Y-86050476D02*
X150941019Y-86669523D01*
X150036257Y-87050476D02*
X149988638Y-87098095D01*
X149988638Y-87098095D02*
X149941019Y-87193333D01*
X149941019Y-87193333D02*
X149941019Y-87431428D01*
X149941019Y-87431428D02*
X149988638Y-87526666D01*
X149988638Y-87526666D02*
X150036257Y-87574285D01*
X150036257Y-87574285D02*
X150131495Y-87621904D01*
X150131495Y-87621904D02*
X150226733Y-87621904D01*
X150226733Y-87621904D02*
X150369590Y-87574285D01*
X150369590Y-87574285D02*
X150941019Y-87002857D01*
X150941019Y-87002857D02*
X150941019Y-87621904D01*
X150314819Y-88765142D02*
X149838628Y-88431809D01*
X150314819Y-88193714D02*
X149314819Y-88193714D01*
X149314819Y-88193714D02*
X149314819Y-88574666D01*
X149314819Y-88574666D02*
X149362438Y-88669904D01*
X149362438Y-88669904D02*
X149410057Y-88717523D01*
X149410057Y-88717523D02*
X149505295Y-88765142D01*
X149505295Y-88765142D02*
X149648152Y-88765142D01*
X149648152Y-88765142D02*
X149743390Y-88717523D01*
X149743390Y-88717523D02*
X149791009Y-88669904D01*
X149791009Y-88669904D02*
X149838628Y-88574666D01*
X149838628Y-88574666D02*
X149838628Y-88193714D01*
X149410057Y-89146095D02*
X149362438Y-89193714D01*
X149362438Y-89193714D02*
X149314819Y-89288952D01*
X149314819Y-89288952D02*
X149314819Y-89527047D01*
X149314819Y-89527047D02*
X149362438Y-89622285D01*
X149362438Y-89622285D02*
X149410057Y-89669904D01*
X149410057Y-89669904D02*
X149505295Y-89717523D01*
X149505295Y-89717523D02*
X149600533Y-89717523D01*
X149600533Y-89717523D02*
X149743390Y-89669904D01*
X149743390Y-89669904D02*
X150314819Y-89098476D01*
X150314819Y-89098476D02*
X150314819Y-89717523D01*
X149314819Y-90050857D02*
X149314819Y-90669904D01*
X149314819Y-90669904D02*
X149695771Y-90336571D01*
X149695771Y-90336571D02*
X149695771Y-90479428D01*
X149695771Y-90479428D02*
X149743390Y-90574666D01*
X149743390Y-90574666D02*
X149791009Y-90622285D01*
X149791009Y-90622285D02*
X149886247Y-90669904D01*
X149886247Y-90669904D02*
X150124342Y-90669904D01*
X150124342Y-90669904D02*
X150219580Y-90622285D01*
X150219580Y-90622285D02*
X150267200Y-90574666D01*
X150267200Y-90574666D02*
X150314819Y-90479428D01*
X150314819Y-90479428D02*
X150314819Y-90193714D01*
X150314819Y-90193714D02*
X150267200Y-90098476D01*
X150267200Y-90098476D02*
X150219580Y-90050857D01*
X183046666Y-129347385D02*
X183094285Y-129395005D01*
X183094285Y-129395005D02*
X183237142Y-129442624D01*
X183237142Y-129442624D02*
X183332380Y-129442624D01*
X183332380Y-129442624D02*
X183475237Y-129395005D01*
X183475237Y-129395005D02*
X183570475Y-129299766D01*
X183570475Y-129299766D02*
X183618094Y-129204528D01*
X183618094Y-129204528D02*
X183665713Y-129014052D01*
X183665713Y-129014052D02*
X183665713Y-128871195D01*
X183665713Y-128871195D02*
X183618094Y-128680719D01*
X183618094Y-128680719D02*
X183570475Y-128585481D01*
X183570475Y-128585481D02*
X183475237Y-128490243D01*
X183475237Y-128490243D02*
X183332380Y-128442624D01*
X183332380Y-128442624D02*
X183237142Y-128442624D01*
X183237142Y-128442624D02*
X183094285Y-128490243D01*
X183094285Y-128490243D02*
X183046666Y-128537862D01*
X182475237Y-128871195D02*
X182570475Y-128823576D01*
X182570475Y-128823576D02*
X182618094Y-128775957D01*
X182618094Y-128775957D02*
X182665713Y-128680719D01*
X182665713Y-128680719D02*
X182665713Y-128633100D01*
X182665713Y-128633100D02*
X182618094Y-128537862D01*
X182618094Y-128537862D02*
X182570475Y-128490243D01*
X182570475Y-128490243D02*
X182475237Y-128442624D01*
X182475237Y-128442624D02*
X182284761Y-128442624D01*
X182284761Y-128442624D02*
X182189523Y-128490243D01*
X182189523Y-128490243D02*
X182141904Y-128537862D01*
X182141904Y-128537862D02*
X182094285Y-128633100D01*
X182094285Y-128633100D02*
X182094285Y-128680719D01*
X182094285Y-128680719D02*
X182141904Y-128775957D01*
X182141904Y-128775957D02*
X182189523Y-128823576D01*
X182189523Y-128823576D02*
X182284761Y-128871195D01*
X182284761Y-128871195D02*
X182475237Y-128871195D01*
X182475237Y-128871195D02*
X182570475Y-128918814D01*
X182570475Y-128918814D02*
X182618094Y-128966433D01*
X182618094Y-128966433D02*
X182665713Y-129061671D01*
X182665713Y-129061671D02*
X182665713Y-129252147D01*
X182665713Y-129252147D02*
X182618094Y-129347385D01*
X182618094Y-129347385D02*
X182570475Y-129395005D01*
X182570475Y-129395005D02*
X182475237Y-129442624D01*
X182475237Y-129442624D02*
X182284761Y-129442624D01*
X182284761Y-129442624D02*
X182189523Y-129395005D01*
X182189523Y-129395005D02*
X182141904Y-129347385D01*
X182141904Y-129347385D02*
X182094285Y-129252147D01*
X182094285Y-129252147D02*
X182094285Y-129061671D01*
X182094285Y-129061671D02*
X182141904Y-128966433D01*
X182141904Y-128966433D02*
X182189523Y-128918814D01*
X182189523Y-128918814D02*
X182284761Y-128871195D01*
X183046666Y-70281580D02*
X183094285Y-70329200D01*
X183094285Y-70329200D02*
X183237142Y-70376819D01*
X183237142Y-70376819D02*
X183332380Y-70376819D01*
X183332380Y-70376819D02*
X183475237Y-70329200D01*
X183475237Y-70329200D02*
X183570475Y-70233961D01*
X183570475Y-70233961D02*
X183618094Y-70138723D01*
X183618094Y-70138723D02*
X183665713Y-69948247D01*
X183665713Y-69948247D02*
X183665713Y-69805390D01*
X183665713Y-69805390D02*
X183618094Y-69614914D01*
X183618094Y-69614914D02*
X183570475Y-69519676D01*
X183570475Y-69519676D02*
X183475237Y-69424438D01*
X183475237Y-69424438D02*
X183332380Y-69376819D01*
X183332380Y-69376819D02*
X183237142Y-69376819D01*
X183237142Y-69376819D02*
X183094285Y-69424438D01*
X183094285Y-69424438D02*
X183046666Y-69472057D01*
X182713332Y-69376819D02*
X182094285Y-69376819D01*
X182094285Y-69376819D02*
X182427618Y-69757771D01*
X182427618Y-69757771D02*
X182284761Y-69757771D01*
X182284761Y-69757771D02*
X182189523Y-69805390D01*
X182189523Y-69805390D02*
X182141904Y-69853009D01*
X182141904Y-69853009D02*
X182094285Y-69948247D01*
X182094285Y-69948247D02*
X182094285Y-70186342D01*
X182094285Y-70186342D02*
X182141904Y-70281580D01*
X182141904Y-70281580D02*
X182189523Y-70329200D01*
X182189523Y-70329200D02*
X182284761Y-70376819D01*
X182284761Y-70376819D02*
X182570475Y-70376819D01*
X182570475Y-70376819D02*
X182665713Y-70329200D01*
X182665713Y-70329200D02*
X182713332Y-70281580D01*
X144091819Y-89527142D02*
X143615628Y-89193809D01*
X144091819Y-88955714D02*
X143091819Y-88955714D01*
X143091819Y-88955714D02*
X143091819Y-89336666D01*
X143091819Y-89336666D02*
X143139438Y-89431904D01*
X143139438Y-89431904D02*
X143187057Y-89479523D01*
X143187057Y-89479523D02*
X143282295Y-89527142D01*
X143282295Y-89527142D02*
X143425152Y-89527142D01*
X143425152Y-89527142D02*
X143520390Y-89479523D01*
X143520390Y-89479523D02*
X143568009Y-89431904D01*
X143568009Y-89431904D02*
X143615628Y-89336666D01*
X143615628Y-89336666D02*
X143615628Y-88955714D01*
X143187057Y-89908095D02*
X143139438Y-89955714D01*
X143139438Y-89955714D02*
X143091819Y-90050952D01*
X143091819Y-90050952D02*
X143091819Y-90289047D01*
X143091819Y-90289047D02*
X143139438Y-90384285D01*
X143139438Y-90384285D02*
X143187057Y-90431904D01*
X143187057Y-90431904D02*
X143282295Y-90479523D01*
X143282295Y-90479523D02*
X143377533Y-90479523D01*
X143377533Y-90479523D02*
X143520390Y-90431904D01*
X143520390Y-90431904D02*
X144091819Y-89860476D01*
X144091819Y-89860476D02*
X144091819Y-90479523D01*
X143425152Y-91336666D02*
X144091819Y-91336666D01*
X143044200Y-91098571D02*
X143758485Y-90860476D01*
X143758485Y-90860476D02*
X143758485Y-91479523D01*
X173134580Y-118286138D02*
X173182200Y-118238519D01*
X173182200Y-118238519D02*
X173229819Y-118095662D01*
X173229819Y-118095662D02*
X173229819Y-118000424D01*
X173229819Y-118000424D02*
X173182200Y-117857567D01*
X173182200Y-117857567D02*
X173086961Y-117762329D01*
X173086961Y-117762329D02*
X172991723Y-117714710D01*
X172991723Y-117714710D02*
X172801247Y-117667091D01*
X172801247Y-117667091D02*
X172658390Y-117667091D01*
X172658390Y-117667091D02*
X172467914Y-117714710D01*
X172467914Y-117714710D02*
X172372676Y-117762329D01*
X172372676Y-117762329D02*
X172277438Y-117857567D01*
X172277438Y-117857567D02*
X172229819Y-118000424D01*
X172229819Y-118000424D02*
X172229819Y-118095662D01*
X172229819Y-118095662D02*
X172277438Y-118238519D01*
X172277438Y-118238519D02*
X172325057Y-118286138D01*
X172229819Y-119143281D02*
X172229819Y-118952805D01*
X172229819Y-118952805D02*
X172277438Y-118857567D01*
X172277438Y-118857567D02*
X172325057Y-118809948D01*
X172325057Y-118809948D02*
X172467914Y-118714710D01*
X172467914Y-118714710D02*
X172658390Y-118667091D01*
X172658390Y-118667091D02*
X173039342Y-118667091D01*
X173039342Y-118667091D02*
X173134580Y-118714710D01*
X173134580Y-118714710D02*
X173182200Y-118762329D01*
X173182200Y-118762329D02*
X173229819Y-118857567D01*
X173229819Y-118857567D02*
X173229819Y-119048043D01*
X173229819Y-119048043D02*
X173182200Y-119143281D01*
X173182200Y-119143281D02*
X173134580Y-119190900D01*
X173134580Y-119190900D02*
X173039342Y-119238519D01*
X173039342Y-119238519D02*
X172801247Y-119238519D01*
X172801247Y-119238519D02*
X172706009Y-119190900D01*
X172706009Y-119190900D02*
X172658390Y-119143281D01*
X172658390Y-119143281D02*
X172610771Y-119048043D01*
X172610771Y-119048043D02*
X172610771Y-118857567D01*
X172610771Y-118857567D02*
X172658390Y-118762329D01*
X172658390Y-118762329D02*
X172706009Y-118714710D01*
X172706009Y-118714710D02*
X172801247Y-118667091D01*
D11*
%TO.C,R21*%
X145140000Y-87087064D02*
X145140000Y-85632936D01*
X146960000Y-87087064D02*
X146960000Y-85632936D01*
%TO.C,JP29*%
X136206800Y-62311000D02*
X136206800Y-62911000D01*
X136856800Y-63611000D02*
X139656800Y-63611000D01*
X139656800Y-61611000D02*
X136856800Y-61611000D01*
X140306800Y-62911000D02*
X140306800Y-62311000D01*
X136906800Y-61611000D02*
G75*
G03*
X136206800Y-62311000I-1J-699999D01*
G01*
X136206800Y-62911000D02*
G75*
G03*
X136906800Y-63611000I699999J-1D01*
G01*
X140306800Y-62311000D02*
G75*
G03*
X139606800Y-61611000I-700000J0D01*
G01*
X139606800Y-63611000D02*
G75*
G03*
X140306800Y-62911000I0J700000D01*
G01*
%TO.C,C2*%
X138889052Y-131720000D02*
X137466548Y-131720000D01*
X138889052Y-129900000D02*
X137466548Y-129900000D01*
%TO.C,R9*%
X143743000Y-61687064D02*
X143743000Y-60232936D01*
X145563000Y-61687064D02*
X145563000Y-60232936D01*
%TO.C,R12*%
X141457000Y-61687064D02*
X141457000Y-60232936D01*
X143277000Y-61687064D02*
X143277000Y-60232936D01*
%TO.C,R11*%
X145987000Y-61687064D02*
X145987000Y-60232936D01*
X147807000Y-61687064D02*
X147807000Y-60232936D01*
%TO.C,R25*%
X146960000Y-92464936D02*
X146960000Y-93919064D01*
X145140000Y-92464936D02*
X145140000Y-93919064D01*
%TO.C,R20*%
X152167000Y-92490936D02*
X152167000Y-93945064D01*
X150347000Y-92490936D02*
X150347000Y-93945064D01*
%TO.C,R1*%
X178400064Y-68982000D02*
X176945936Y-68982000D01*
X178400064Y-67162000D02*
X176945936Y-67162000D01*
%TO.C,C7*%
X179296748Y-110225805D02*
X180719252Y-110225805D01*
X179296748Y-112045805D02*
X180719252Y-112045805D01*
%TO.C,R22*%
X147756200Y-87087064D02*
X147756200Y-85632936D01*
X149576200Y-87087064D02*
X149576200Y-85632936D01*
%TO.C,R23*%
X149576200Y-92490936D02*
X149576200Y-93945064D01*
X147756200Y-92490936D02*
X147756200Y-93945064D01*
%TO.C,R8*%
X150559000Y-61687064D02*
X150559000Y-60232936D01*
X152379000Y-61687064D02*
X152379000Y-60232936D01*
%TO.C,C8*%
X182168748Y-126227805D02*
X183591252Y-126227805D01*
X182168748Y-128047805D02*
X183591252Y-128047805D01*
%TO.C,C3*%
X182168748Y-67162000D02*
X183591252Y-67162000D01*
X182168748Y-68982000D02*
X183591252Y-68982000D01*
%TO.C,R24*%
X142600000Y-87087064D02*
X142600000Y-85632936D01*
X144420000Y-87087064D02*
X144420000Y-85632936D01*
%TO.C,C6*%
X175535000Y-117741553D02*
X175535000Y-119164057D01*
X173715000Y-117741553D02*
X173715000Y-119164057D01*
%TO.C,R10*%
X148273000Y-61687064D02*
X148273000Y-60232936D01*
X150093000Y-61687064D02*
X150093000Y-60232936D01*
%TD*%
M02*
