M48
; DRILL file {KiCad 7.0.7-7.0.7~ubuntu20.04.1} date Fr 08 Sep 2023 15:38:03
; FORMAT={-:-/ absolute / metric / decimal}
; #@! TF.CreationDate,2023-09-08T15:38:03+02:00
; #@! TF.GenerationSoftware,Kicad,Pcbnew,7.0.7-7.0.7~ubuntu20.04.1
; #@! TF.FileFunction,MixedPlating,1,2
FMAT,2
METRIC
; #@! TA.AperFunction,Plated,PTH,ViaDrill
T1C0.400
; #@! TA.AperFunction,Plated,PTH,ComponentDrill
T2C0.800
; #@! TA.AperFunction,Plated,PTH,ComponentDrill
T3C0.900
; #@! TA.AperFunction,Plated,PTH,ComponentDrill
T4C0.950
; #@! TA.AperFunction,Plated,PTH,ComponentDrill
T5C1.000
; #@! TA.AperFunction,Plated,PTH,ComponentDrill
T6C1.100
; #@! TA.AperFunction,Plated,PTH,ComponentDrill
T7C2.300
; #@! TA.AperFunction,NonPlated,NPTH,ComponentDrill
T8C2.750
; #@! TA.AperFunction,NonPlated,NPTH,ComponentDrill
T9C3.200
%
G90
G05
T1
X102.535Y-59.032
X102.66Y-62.432
X102.815Y-51.082
X105.283Y-75.692
X106.172Y-80.264
X106.553Y-76.454
X110.26Y-62.682
X110.91Y-50.732
X147.447Y-84.455
X148.463Y-78.867
X153.543Y-122.682
X169.291Y-110.49
X169.291Y-115.57
X169.291Y-118.11
X169.291Y-119.38
X169.291Y-120.65
X169.291Y-123.19
X169.291Y-116.84
X172.085Y-106.68
X172.085Y-107.95
X172.593Y-114.3
X174.879Y-107.696
X175.514Y-122.936
X181.356Y-120.65
X182.245Y-119.888
X183.007Y-118.872
X184.023Y-117.856
T2
X115.443Y-70.485
X115.443Y-73.025
X115.443Y-80.645
X115.443Y-83.213
X115.443Y-85.725
X115.443Y-88.265
X115.443Y-90.805
X115.443Y-93.345
X115.443Y-95.885
X115.444Y-98.425
X120.396Y-57.785
X120.396Y-60.325
X120.396Y-62.865
X120.396Y-65.405
X120.396Y-67.945
X120.396Y-70.485
X120.396Y-73.025
X120.396Y-75.565
X120.396Y-78.105
X120.396Y-80.645
X120.396Y-83.185
X120.396Y-85.725
X120.396Y-88.265
X120.396Y-90.805
X120.396Y-93.345
X120.396Y-95.885
X120.396Y-98.425
X120.396Y-100.965
X120.396Y-103.505
X120.396Y-106.045
X135.636Y-57.785
X135.636Y-60.325
X135.636Y-62.865
X135.636Y-65.405
X135.636Y-67.945
X135.636Y-70.485
X135.636Y-73.025
X135.636Y-75.565
X135.636Y-78.105
X135.636Y-80.645
X135.636Y-83.185
X135.636Y-85.725
X135.636Y-88.265
X135.636Y-90.805
X135.636Y-93.345
X135.636Y-95.885
X135.636Y-98.425
X135.636Y-100.965
X135.636Y-103.505
X135.636Y-106.045
X138.684Y-85.725
X138.684Y-88.265
X143.256Y-95.123
X143.256Y-97.536
X165.227Y-113.03
T3
X104.013Y-115.829
X104.013Y-118.369
X104.013Y-120.777
X104.013Y-123.317
T4
X124.318Y-53.213
X126.818Y-53.213
X128.818Y-53.213
X131.318Y-53.213
T5
X112.395Y-43.18
X112.395Y-45.72
X114.935Y-43.18
X114.935Y-45.72
X117.475Y-43.18
X117.475Y-45.72
X124.153Y-75.276
X124.153Y-77.816
X126.698Y-75.274
X126.698Y-77.814
X126.698Y-80.354
X126.698Y-82.894
X126.698Y-85.434
X126.698Y-87.974
X126.698Y-90.514
X126.698Y-93.054
X126.698Y-95.594
X126.698Y-98.134
X126.698Y-100.674
X126.698Y-103.214
X126.698Y-105.754
X126.698Y-108.294
X126.698Y-110.834
X126.698Y-113.374
X126.698Y-115.914
X126.698Y-118.454
X126.698Y-120.994
X126.698Y-123.534
X129.238Y-75.274
X129.238Y-77.814
X129.238Y-80.354
X129.238Y-82.894
X129.238Y-85.434
X129.238Y-87.974
X129.238Y-90.514
X129.238Y-93.054
X129.238Y-95.594
X129.238Y-98.134
X129.238Y-100.674
X129.238Y-103.214
X129.238Y-105.754
X129.238Y-108.294
X129.238Y-110.834
X129.238Y-113.374
X129.238Y-115.914
X129.238Y-118.454
X129.238Y-120.994
X129.238Y-123.534
X135.534Y-113.335
X135.534Y-115.875
X142.36Y-42.957
X142.36Y-45.497
X142.36Y-134.503
X142.36Y-137.043
X142.36Y-49.124
X142.36Y-51.664
X142.369Y-128.329
X142.369Y-130.869
X142.555Y-58.482
X142.555Y-61.022
X142.555Y-63.562
X142.555Y-66.102
X142.555Y-68.642
X142.555Y-71.182
X142.555Y-73.722
X142.555Y-76.262
X142.555Y-78.802
X142.555Y-81.342
X142.555Y-101.092
X142.555Y-103.632
X142.555Y-106.172
X142.555Y-108.712
X142.555Y-111.252
X142.555Y-113.792
X142.555Y-116.332
X142.555Y-118.872
X142.555Y-121.412
X142.555Y-123.952
X144.9Y-42.957
X144.9Y-45.497
X144.9Y-134.503
X144.9Y-137.043
X144.9Y-49.124
X144.9Y-51.664
X144.909Y-128.329
X144.909Y-130.869
X145.095Y-58.482
X145.095Y-61.022
X145.095Y-63.562
X145.095Y-66.102
X145.095Y-68.642
X145.095Y-71.182
X145.095Y-73.722
X145.095Y-76.262
X145.095Y-78.802
X145.095Y-81.342
X145.095Y-101.092
X145.095Y-103.632
X145.095Y-106.172
X145.095Y-108.712
X145.095Y-111.252
X145.095Y-113.792
X145.095Y-116.332
X145.095Y-118.872
X145.095Y-121.412
X145.095Y-123.952
X147.44Y-42.957
X147.44Y-45.497
X147.44Y-134.503
X147.44Y-137.043
X147.44Y-49.124
X147.44Y-51.664
X147.449Y-128.329
X147.449Y-130.869
X148.167Y-87.49
X148.167Y-90.03
X148.167Y-92.57
X148.167Y-95.11
X149.98Y-42.957
X149.98Y-45.497
X149.98Y-134.503
X149.98Y-137.043
X149.98Y-49.124
X149.98Y-51.664
X149.989Y-128.329
X149.989Y-130.869
X150.876Y-70.231
X150.876Y-72.771
X152.52Y-42.957
X152.52Y-45.497
X152.52Y-134.503
X152.52Y-137.043
X152.52Y-49.124
X152.52Y-51.664
X152.529Y-128.329
X152.529Y-130.869
X153.416Y-70.231
X153.416Y-72.771
X155.06Y-42.957
X155.06Y-45.497
X155.06Y-134.503
X155.06Y-137.043
X155.06Y-49.124
X155.06Y-51.664
X155.069Y-128.329
X155.069Y-130.869
X155.956Y-70.231
X155.956Y-72.771
X157.6Y-42.957
X157.6Y-45.497
X157.6Y-134.503
X157.6Y-137.043
X157.6Y-49.124
X157.6Y-51.664
X157.609Y-128.329
X157.609Y-130.869
X158.496Y-70.231
X158.496Y-72.771
X160.14Y-42.957
X160.14Y-45.497
X160.14Y-134.503
X160.14Y-137.043
X160.14Y-49.124
X160.14Y-51.664
X160.149Y-128.329
X160.149Y-130.869
X161.036Y-70.231
X161.036Y-72.771
X162.68Y-42.957
X162.68Y-45.497
X162.68Y-134.503
X162.68Y-137.043
X162.68Y-49.124
X162.68Y-51.664
X162.689Y-128.329
X162.689Y-130.869
X165.22Y-42.957
X165.22Y-45.497
X165.22Y-134.503
X165.22Y-137.043
X165.22Y-49.124
X165.22Y-51.664
X165.229Y-128.329
X165.229Y-130.869
X167.76Y-42.957
X167.76Y-45.497
X167.76Y-134.503
X167.76Y-137.043
X167.76Y-49.124
X167.76Y-51.664
X167.769Y-128.329
X167.769Y-130.869
X170.3Y-42.957
X170.3Y-45.497
X170.3Y-134.503
X170.3Y-137.043
X170.3Y-49.124
X170.3Y-51.664
X170.309Y-128.329
X170.309Y-130.869
X172.84Y-42.957
X172.84Y-45.497
X172.84Y-134.503
X172.84Y-137.043
X172.84Y-49.124
X172.84Y-51.664
X172.849Y-128.329
X172.849Y-130.869
X175.38Y-42.957
X175.38Y-45.497
X175.38Y-134.503
X175.38Y-137.043
X175.38Y-49.124
X175.38Y-51.664
X175.389Y-128.329
X175.389Y-130.869
X177.92Y-42.957
X177.92Y-45.497
X177.92Y-134.503
X177.92Y-137.043
X177.92Y-49.124
X177.92Y-51.664
X177.929Y-128.329
X177.929Y-130.869
X180.46Y-42.957
X180.46Y-45.497
X180.46Y-134.503
X180.46Y-137.043
X180.46Y-49.124
X180.46Y-51.664
X180.469Y-128.329
X180.469Y-130.869
X183.0Y-42.957
X183.0Y-45.497
X183.0Y-134.503
X183.0Y-137.043
X183.0Y-49.124
X183.0Y-51.664
X183.009Y-128.329
X183.009Y-130.869
X185.54Y-42.957
X185.54Y-45.497
X185.54Y-134.503
X185.54Y-137.043
X185.54Y-49.124
X185.54Y-51.664
X185.549Y-128.329
X185.549Y-130.869
X186.055Y-58.482
X186.055Y-61.022
X186.055Y-63.562
X186.055Y-66.102
X186.055Y-68.642
X186.055Y-71.182
X186.055Y-73.722
X186.055Y-76.262
X186.055Y-78.802
X186.055Y-81.342
X186.055Y-101.092
X186.055Y-103.632
X186.055Y-106.172
X186.055Y-108.712
X186.055Y-111.252
X186.055Y-113.792
X186.055Y-116.332
X186.055Y-118.872
X186.055Y-121.412
X186.055Y-123.952
X188.08Y-42.957
X188.08Y-45.497
X188.08Y-134.503
X188.08Y-137.043
X188.08Y-49.124
X188.08Y-51.664
X188.089Y-128.329
X188.089Y-130.869
X188.595Y-58.482
X188.595Y-61.022
X188.595Y-63.562
X188.595Y-66.102
X188.595Y-68.642
X188.595Y-71.182
X188.595Y-73.722
X188.595Y-76.262
X188.595Y-78.802
X188.595Y-81.342
X188.595Y-101.092
X188.595Y-103.632
X188.595Y-106.172
X188.595Y-108.712
X188.595Y-111.252
X188.595Y-113.792
X188.595Y-116.332
X188.595Y-118.872
X188.595Y-121.412
X188.595Y-123.952
X190.62Y-42.957
X190.62Y-45.497
X190.62Y-134.503
X190.62Y-137.043
X190.62Y-49.124
X190.62Y-51.664
X190.629Y-128.329
X190.629Y-130.869
X194.503Y-82.36
X194.503Y-84.9
X194.503Y-87.44
X194.503Y-89.98
X194.503Y-92.52
X194.503Y-95.06
X194.503Y-97.6
X194.503Y-100.14
X194.503Y-102.68
X194.503Y-105.22
X194.503Y-107.76
X194.503Y-110.3
X194.503Y-112.84
X194.503Y-115.38
X194.503Y-117.92
X194.503Y-120.46
X194.503Y-123.0
X194.503Y-125.54
X194.503Y-128.08
X194.503Y-130.62
X194.505Y-79.82
X197.043Y-82.36
X197.043Y-84.9
X197.043Y-87.44
X197.043Y-89.98
X197.043Y-92.52
X197.043Y-95.06
X197.043Y-97.6
X197.043Y-100.14
X197.043Y-102.68
X197.043Y-105.22
X197.043Y-107.76
X197.043Y-110.3
X197.043Y-112.84
X197.043Y-115.38
X197.043Y-117.92
X197.043Y-120.46
X197.043Y-123.0
X197.043Y-125.54
X197.043Y-128.08
X197.043Y-130.62
X197.045Y-79.82
T6
X103.336Y-78.263
X103.336Y-82.763
X103.336Y-88.263
X103.336Y-92.763
X103.336Y-98.263
X103.336Y-102.763
X103.336Y-108.263
X103.336Y-112.763
X109.836Y-78.263
X109.836Y-82.763
X109.836Y-88.263
X109.836Y-92.763
X109.836Y-98.263
X109.836Y-102.763
X109.836Y-108.263
X109.836Y-112.763
T7
X121.248Y-50.503
X134.388Y-50.503
T8
X104.968Y-70.404
X104.968Y-128.404
X127.968Y-70.404
X127.968Y-128.404
T9
X104.0Y-44.0
X104.0Y-136.0
X104.965Y-70.405
X104.967Y-128.41
X127.967Y-70.403
X127.968Y-128.406
X196.0Y-44.0
X196.0Y-136.0
T0
M30
