%TF.GenerationSoftware,KiCad,Pcbnew,7.0.7-7.0.7~ubuntu20.04.1*%
%TF.CreationDate,2023-09-08T15:38:02+02:00*%
%TF.ProjectId,cpld_board_max2,63706c64-5f62-46f6-9172-645f6d617832,rev?*%
%TF.SameCoordinates,Original*%
%TF.FileFunction,Legend,Top*%
%TF.FilePolarity,Positive*%
%FSLAX46Y46*%
G04 Gerber Fmt 4.6, Leading zero omitted, Abs format (unit mm)*
G04 Created by KiCad (PCBNEW 7.0.7-7.0.7~ubuntu20.04.1) date 2023-09-08 15:38:02*
%MOMM*%
%LPD*%
G01*
G04 APERTURE LIST*
%ADD10C,0.300000*%
%ADD11C,0.150000*%
%ADD12C,0.120000*%
G04 APERTURE END LIST*
D10*
X177372489Y-54301171D02*
X177372489Y-55801171D01*
X177372489Y-55801171D02*
X176872489Y-54729742D01*
X176872489Y-54729742D02*
X176372489Y-55801171D01*
X176372489Y-55801171D02*
X176372489Y-54301171D01*
X175015346Y-54301171D02*
X175015346Y-55086885D01*
X175015346Y-55086885D02*
X175086774Y-55229742D01*
X175086774Y-55229742D02*
X175229631Y-55301171D01*
X175229631Y-55301171D02*
X175515346Y-55301171D01*
X175515346Y-55301171D02*
X175658203Y-55229742D01*
X175015346Y-54372600D02*
X175158203Y-54301171D01*
X175158203Y-54301171D02*
X175515346Y-54301171D01*
X175515346Y-54301171D02*
X175658203Y-54372600D01*
X175658203Y-54372600D02*
X175729631Y-54515457D01*
X175729631Y-54515457D02*
X175729631Y-54658314D01*
X175729631Y-54658314D02*
X175658203Y-54801171D01*
X175658203Y-54801171D02*
X175515346Y-54872600D01*
X175515346Y-54872600D02*
X175158203Y-54872600D01*
X175158203Y-54872600D02*
X175015346Y-54944028D01*
X174372488Y-54372600D02*
X174229631Y-54301171D01*
X174229631Y-54301171D02*
X173943917Y-54301171D01*
X173943917Y-54301171D02*
X173801060Y-54372600D01*
X173801060Y-54372600D02*
X173729631Y-54515457D01*
X173729631Y-54515457D02*
X173729631Y-54586885D01*
X173729631Y-54586885D02*
X173801060Y-54729742D01*
X173801060Y-54729742D02*
X173943917Y-54801171D01*
X173943917Y-54801171D02*
X174158203Y-54801171D01*
X174158203Y-54801171D02*
X174301060Y-54872600D01*
X174301060Y-54872600D02*
X174372488Y-55015457D01*
X174372488Y-55015457D02*
X174372488Y-55086885D01*
X174372488Y-55086885D02*
X174301060Y-55229742D01*
X174301060Y-55229742D02*
X174158203Y-55301171D01*
X174158203Y-55301171D02*
X173943917Y-55301171D01*
X173943917Y-55301171D02*
X173801060Y-55229742D01*
X173301059Y-55301171D02*
X172729631Y-55301171D01*
X173086774Y-55801171D02*
X173086774Y-54515457D01*
X173086774Y-54515457D02*
X173015345Y-54372600D01*
X173015345Y-54372600D02*
X172872488Y-54301171D01*
X172872488Y-54301171D02*
X172729631Y-54301171D01*
X171658202Y-54372600D02*
X171801059Y-54301171D01*
X171801059Y-54301171D02*
X172086774Y-54301171D01*
X172086774Y-54301171D02*
X172229631Y-54372600D01*
X172229631Y-54372600D02*
X172301059Y-54515457D01*
X172301059Y-54515457D02*
X172301059Y-55086885D01*
X172301059Y-55086885D02*
X172229631Y-55229742D01*
X172229631Y-55229742D02*
X172086774Y-55301171D01*
X172086774Y-55301171D02*
X171801059Y-55301171D01*
X171801059Y-55301171D02*
X171658202Y-55229742D01*
X171658202Y-55229742D02*
X171586774Y-55086885D01*
X171586774Y-55086885D02*
X171586774Y-54944028D01*
X171586774Y-54944028D02*
X172301059Y-54801171D01*
X170943917Y-54301171D02*
X170943917Y-55301171D01*
X170943917Y-55015457D02*
X170872488Y-55158314D01*
X170872488Y-55158314D02*
X170801060Y-55229742D01*
X170801060Y-55229742D02*
X170658202Y-55301171D01*
X170658202Y-55301171D02*
X170515345Y-55301171D01*
X167801060Y-55872600D02*
X169086774Y-53944028D01*
X166229631Y-54372600D02*
X166015346Y-54301171D01*
X166015346Y-54301171D02*
X165658203Y-54301171D01*
X165658203Y-54301171D02*
X165515346Y-54372600D01*
X165515346Y-54372600D02*
X165443917Y-54444028D01*
X165443917Y-54444028D02*
X165372488Y-54586885D01*
X165372488Y-54586885D02*
X165372488Y-54729742D01*
X165372488Y-54729742D02*
X165443917Y-54872600D01*
X165443917Y-54872600D02*
X165515346Y-54944028D01*
X165515346Y-54944028D02*
X165658203Y-55015457D01*
X165658203Y-55015457D02*
X165943917Y-55086885D01*
X165943917Y-55086885D02*
X166086774Y-55158314D01*
X166086774Y-55158314D02*
X166158203Y-55229742D01*
X166158203Y-55229742D02*
X166229631Y-55372600D01*
X166229631Y-55372600D02*
X166229631Y-55515457D01*
X166229631Y-55515457D02*
X166158203Y-55658314D01*
X166158203Y-55658314D02*
X166086774Y-55729742D01*
X166086774Y-55729742D02*
X165943917Y-55801171D01*
X165943917Y-55801171D02*
X165586774Y-55801171D01*
X165586774Y-55801171D02*
X165372488Y-55729742D01*
X164515346Y-54301171D02*
X164658203Y-54372600D01*
X164658203Y-54372600D02*
X164729632Y-54515457D01*
X164729632Y-54515457D02*
X164729632Y-55801171D01*
X163301061Y-54301171D02*
X163301061Y-55086885D01*
X163301061Y-55086885D02*
X163372489Y-55229742D01*
X163372489Y-55229742D02*
X163515346Y-55301171D01*
X163515346Y-55301171D02*
X163801061Y-55301171D01*
X163801061Y-55301171D02*
X163943918Y-55229742D01*
X163301061Y-54372600D02*
X163443918Y-54301171D01*
X163443918Y-54301171D02*
X163801061Y-54301171D01*
X163801061Y-54301171D02*
X163943918Y-54372600D01*
X163943918Y-54372600D02*
X164015346Y-54515457D01*
X164015346Y-54515457D02*
X164015346Y-54658314D01*
X164015346Y-54658314D02*
X163943918Y-54801171D01*
X163943918Y-54801171D02*
X163801061Y-54872600D01*
X163801061Y-54872600D02*
X163443918Y-54872600D01*
X163443918Y-54872600D02*
X163301061Y-54944028D01*
X162729632Y-55301171D02*
X162372489Y-54301171D01*
X162372489Y-54301171D02*
X162015346Y-55301171D01*
X160872489Y-54372600D02*
X161015346Y-54301171D01*
X161015346Y-54301171D02*
X161301061Y-54301171D01*
X161301061Y-54301171D02*
X161443918Y-54372600D01*
X161443918Y-54372600D02*
X161515346Y-54515457D01*
X161515346Y-54515457D02*
X161515346Y-55086885D01*
X161515346Y-55086885D02*
X161443918Y-55229742D01*
X161443918Y-55229742D02*
X161301061Y-55301171D01*
X161301061Y-55301171D02*
X161015346Y-55301171D01*
X161015346Y-55301171D02*
X160872489Y-55229742D01*
X160872489Y-55229742D02*
X160801061Y-55086885D01*
X160801061Y-55086885D02*
X160801061Y-54944028D01*
X160801061Y-54944028D02*
X161515346Y-54801171D01*
X158158204Y-54444028D02*
X158229632Y-54372600D01*
X158229632Y-54372600D02*
X158443918Y-54301171D01*
X158443918Y-54301171D02*
X158586775Y-54301171D01*
X158586775Y-54301171D02*
X158801061Y-54372600D01*
X158801061Y-54372600D02*
X158943918Y-54515457D01*
X158943918Y-54515457D02*
X159015347Y-54658314D01*
X159015347Y-54658314D02*
X159086775Y-54944028D01*
X159086775Y-54944028D02*
X159086775Y-55158314D01*
X159086775Y-55158314D02*
X159015347Y-55444028D01*
X159015347Y-55444028D02*
X158943918Y-55586885D01*
X158943918Y-55586885D02*
X158801061Y-55729742D01*
X158801061Y-55729742D02*
X158586775Y-55801171D01*
X158586775Y-55801171D02*
X158443918Y-55801171D01*
X158443918Y-55801171D02*
X158229632Y-55729742D01*
X158229632Y-55729742D02*
X158158204Y-55658314D01*
X157515347Y-54301171D02*
X157515347Y-55801171D01*
X157515347Y-55801171D02*
X156943918Y-55801171D01*
X156943918Y-55801171D02*
X156801061Y-55729742D01*
X156801061Y-55729742D02*
X156729632Y-55658314D01*
X156729632Y-55658314D02*
X156658204Y-55515457D01*
X156658204Y-55515457D02*
X156658204Y-55301171D01*
X156658204Y-55301171D02*
X156729632Y-55158314D01*
X156729632Y-55158314D02*
X156801061Y-55086885D01*
X156801061Y-55086885D02*
X156943918Y-55015457D01*
X156943918Y-55015457D02*
X157515347Y-55015457D01*
X156015347Y-55801171D02*
X156015347Y-54586885D01*
X156015347Y-54586885D02*
X155943918Y-54444028D01*
X155943918Y-54444028D02*
X155872490Y-54372600D01*
X155872490Y-54372600D02*
X155729632Y-54301171D01*
X155729632Y-54301171D02*
X155443918Y-54301171D01*
X155443918Y-54301171D02*
X155301061Y-54372600D01*
X155301061Y-54372600D02*
X155229632Y-54444028D01*
X155229632Y-54444028D02*
X155158204Y-54586885D01*
X155158204Y-54586885D02*
X155158204Y-55801171D01*
D11*
X196099819Y-71580363D02*
X196337914Y-71580363D01*
X196242676Y-71818458D02*
X196337914Y-71580363D01*
X196337914Y-71580363D02*
X196242676Y-71342268D01*
X196528390Y-71723220D02*
X196337914Y-71580363D01*
X196337914Y-71580363D02*
X196528390Y-71437506D01*
X196099819Y-70961315D02*
X196909342Y-70961315D01*
X196909342Y-70961315D02*
X197004580Y-70913696D01*
X197004580Y-70913696D02*
X197052200Y-70866077D01*
X197052200Y-70866077D02*
X197099819Y-70770839D01*
X197099819Y-70770839D02*
X197099819Y-70580363D01*
X197099819Y-70580363D02*
X197052200Y-70485125D01*
X197052200Y-70485125D02*
X197004580Y-70437506D01*
X197004580Y-70437506D02*
X196909342Y-70389887D01*
X196909342Y-70389887D02*
X196099819Y-70389887D01*
X196433152Y-69913696D02*
X197099819Y-69913696D01*
X196528390Y-69913696D02*
X196480771Y-69866077D01*
X196480771Y-69866077D02*
X196433152Y-69770839D01*
X196433152Y-69770839D02*
X196433152Y-69627982D01*
X196433152Y-69627982D02*
X196480771Y-69532744D01*
X196480771Y-69532744D02*
X196576009Y-69485125D01*
X196576009Y-69485125D02*
X197099819Y-69485125D01*
X197099819Y-69008934D02*
X196433152Y-69008934D01*
X196099819Y-69008934D02*
X196147438Y-69056553D01*
X196147438Y-69056553D02*
X196195057Y-69008934D01*
X196195057Y-69008934D02*
X196147438Y-68961315D01*
X196147438Y-68961315D02*
X196099819Y-69008934D01*
X196099819Y-69008934D02*
X196195057Y-69008934D01*
X197052200Y-68104173D02*
X197099819Y-68199411D01*
X197099819Y-68199411D02*
X197099819Y-68389887D01*
X197099819Y-68389887D02*
X197052200Y-68485125D01*
X197052200Y-68485125D02*
X197004580Y-68532744D01*
X197004580Y-68532744D02*
X196909342Y-68580363D01*
X196909342Y-68580363D02*
X196623628Y-68580363D01*
X196623628Y-68580363D02*
X196528390Y-68532744D01*
X196528390Y-68532744D02*
X196480771Y-68485125D01*
X196480771Y-68485125D02*
X196433152Y-68389887D01*
X196433152Y-68389887D02*
X196433152Y-68199411D01*
X196433152Y-68199411D02*
X196480771Y-68104173D01*
X197099819Y-67532744D02*
X197052200Y-67627982D01*
X197052200Y-67627982D02*
X197004580Y-67675601D01*
X197004580Y-67675601D02*
X196909342Y-67723220D01*
X196909342Y-67723220D02*
X196623628Y-67723220D01*
X196623628Y-67723220D02*
X196528390Y-67675601D01*
X196528390Y-67675601D02*
X196480771Y-67627982D01*
X196480771Y-67627982D02*
X196433152Y-67532744D01*
X196433152Y-67532744D02*
X196433152Y-67389887D01*
X196433152Y-67389887D02*
X196480771Y-67294649D01*
X196480771Y-67294649D02*
X196528390Y-67247030D01*
X196528390Y-67247030D02*
X196623628Y-67199411D01*
X196623628Y-67199411D02*
X196909342Y-67199411D01*
X196909342Y-67199411D02*
X197004580Y-67247030D01*
X197004580Y-67247030D02*
X197052200Y-67294649D01*
X197052200Y-67294649D02*
X197099819Y-67389887D01*
X197099819Y-67389887D02*
X197099819Y-67532744D01*
X197099819Y-66770839D02*
X196433152Y-66770839D01*
X196528390Y-66770839D02*
X196480771Y-66723220D01*
X196480771Y-66723220D02*
X196433152Y-66627982D01*
X196433152Y-66627982D02*
X196433152Y-66485125D01*
X196433152Y-66485125D02*
X196480771Y-66389887D01*
X196480771Y-66389887D02*
X196576009Y-66342268D01*
X196576009Y-66342268D02*
X197099819Y-66342268D01*
X196576009Y-66342268D02*
X196480771Y-66294649D01*
X196480771Y-66294649D02*
X196433152Y-66199411D01*
X196433152Y-66199411D02*
X196433152Y-66056554D01*
X196433152Y-66056554D02*
X196480771Y-65961315D01*
X196480771Y-65961315D02*
X196576009Y-65913696D01*
X196576009Y-65913696D02*
X197099819Y-65913696D01*
X196433152Y-65437506D02*
X197433152Y-65437506D01*
X196480771Y-65437506D02*
X196433152Y-65342268D01*
X196433152Y-65342268D02*
X196433152Y-65151792D01*
X196433152Y-65151792D02*
X196480771Y-65056554D01*
X196480771Y-65056554D02*
X196528390Y-65008935D01*
X196528390Y-65008935D02*
X196623628Y-64961316D01*
X196623628Y-64961316D02*
X196909342Y-64961316D01*
X196909342Y-64961316D02*
X197004580Y-65008935D01*
X197004580Y-65008935D02*
X197052200Y-65056554D01*
X197052200Y-65056554D02*
X197099819Y-65151792D01*
X197099819Y-65151792D02*
X197099819Y-65342268D01*
X197099819Y-65342268D02*
X197052200Y-65437506D01*
X196433152Y-63866077D02*
X197099819Y-63627982D01*
X197099819Y-63627982D02*
X196433152Y-63389887D01*
X196195057Y-63056553D02*
X196147438Y-63008934D01*
X196147438Y-63008934D02*
X196099819Y-62913696D01*
X196099819Y-62913696D02*
X196099819Y-62675601D01*
X196099819Y-62675601D02*
X196147438Y-62580363D01*
X196147438Y-62580363D02*
X196195057Y-62532744D01*
X196195057Y-62532744D02*
X196290295Y-62485125D01*
X196290295Y-62485125D02*
X196385533Y-62485125D01*
X196385533Y-62485125D02*
X196528390Y-62532744D01*
X196528390Y-62532744D02*
X197099819Y-63104172D01*
X197099819Y-63104172D02*
X197099819Y-62485125D01*
X196099819Y-61913696D02*
X196337914Y-61913696D01*
X196242676Y-62151791D02*
X196337914Y-61913696D01*
X196337914Y-61913696D02*
X196242676Y-61675601D01*
X196528390Y-62056553D02*
X196337914Y-61913696D01*
X196337914Y-61913696D02*
X196528390Y-61770839D01*
X198614580Y-71151792D02*
X198662200Y-71199411D01*
X198662200Y-71199411D02*
X198709819Y-71342268D01*
X198709819Y-71342268D02*
X198709819Y-71437506D01*
X198709819Y-71437506D02*
X198662200Y-71580363D01*
X198662200Y-71580363D02*
X198566961Y-71675601D01*
X198566961Y-71675601D02*
X198471723Y-71723220D01*
X198471723Y-71723220D02*
X198281247Y-71770839D01*
X198281247Y-71770839D02*
X198138390Y-71770839D01*
X198138390Y-71770839D02*
X197947914Y-71723220D01*
X197947914Y-71723220D02*
X197852676Y-71675601D01*
X197852676Y-71675601D02*
X197757438Y-71580363D01*
X197757438Y-71580363D02*
X197709819Y-71437506D01*
X197709819Y-71437506D02*
X197709819Y-71342268D01*
X197709819Y-71342268D02*
X197757438Y-71199411D01*
X197757438Y-71199411D02*
X197805057Y-71151792D01*
X198709819Y-70723220D02*
X197709819Y-70723220D01*
X197709819Y-70723220D02*
X197709819Y-70342268D01*
X197709819Y-70342268D02*
X197757438Y-70247030D01*
X197757438Y-70247030D02*
X197805057Y-70199411D01*
X197805057Y-70199411D02*
X197900295Y-70151792D01*
X197900295Y-70151792D02*
X198043152Y-70151792D01*
X198043152Y-70151792D02*
X198138390Y-70199411D01*
X198138390Y-70199411D02*
X198186009Y-70247030D01*
X198186009Y-70247030D02*
X198233628Y-70342268D01*
X198233628Y-70342268D02*
X198233628Y-70723220D01*
X198709819Y-69247030D02*
X198709819Y-69723220D01*
X198709819Y-69723220D02*
X197709819Y-69723220D01*
X198709819Y-68913696D02*
X197709819Y-68913696D01*
X197709819Y-68913696D02*
X197709819Y-68675601D01*
X197709819Y-68675601D02*
X197757438Y-68532744D01*
X197757438Y-68532744D02*
X197852676Y-68437506D01*
X197852676Y-68437506D02*
X197947914Y-68389887D01*
X197947914Y-68389887D02*
X198138390Y-68342268D01*
X198138390Y-68342268D02*
X198281247Y-68342268D01*
X198281247Y-68342268D02*
X198471723Y-68389887D01*
X198471723Y-68389887D02*
X198566961Y-68437506D01*
X198566961Y-68437506D02*
X198662200Y-68532744D01*
X198662200Y-68532744D02*
X198709819Y-68675601D01*
X198709819Y-68675601D02*
X198709819Y-68913696D01*
X198186009Y-66818458D02*
X198233628Y-66675601D01*
X198233628Y-66675601D02*
X198281247Y-66627982D01*
X198281247Y-66627982D02*
X198376485Y-66580363D01*
X198376485Y-66580363D02*
X198519342Y-66580363D01*
X198519342Y-66580363D02*
X198614580Y-66627982D01*
X198614580Y-66627982D02*
X198662200Y-66675601D01*
X198662200Y-66675601D02*
X198709819Y-66770839D01*
X198709819Y-66770839D02*
X198709819Y-67151791D01*
X198709819Y-67151791D02*
X197709819Y-67151791D01*
X197709819Y-67151791D02*
X197709819Y-66818458D01*
X197709819Y-66818458D02*
X197757438Y-66723220D01*
X197757438Y-66723220D02*
X197805057Y-66675601D01*
X197805057Y-66675601D02*
X197900295Y-66627982D01*
X197900295Y-66627982D02*
X197995533Y-66627982D01*
X197995533Y-66627982D02*
X198090771Y-66675601D01*
X198090771Y-66675601D02*
X198138390Y-66723220D01*
X198138390Y-66723220D02*
X198186009Y-66818458D01*
X198186009Y-66818458D02*
X198186009Y-67151791D01*
X198709819Y-66008934D02*
X198662200Y-66104172D01*
X198662200Y-66104172D02*
X198614580Y-66151791D01*
X198614580Y-66151791D02*
X198519342Y-66199410D01*
X198519342Y-66199410D02*
X198233628Y-66199410D01*
X198233628Y-66199410D02*
X198138390Y-66151791D01*
X198138390Y-66151791D02*
X198090771Y-66104172D01*
X198090771Y-66104172D02*
X198043152Y-66008934D01*
X198043152Y-66008934D02*
X198043152Y-65866077D01*
X198043152Y-65866077D02*
X198090771Y-65770839D01*
X198090771Y-65770839D02*
X198138390Y-65723220D01*
X198138390Y-65723220D02*
X198233628Y-65675601D01*
X198233628Y-65675601D02*
X198519342Y-65675601D01*
X198519342Y-65675601D02*
X198614580Y-65723220D01*
X198614580Y-65723220D02*
X198662200Y-65770839D01*
X198662200Y-65770839D02*
X198709819Y-65866077D01*
X198709819Y-65866077D02*
X198709819Y-66008934D01*
X198709819Y-64818458D02*
X198186009Y-64818458D01*
X198186009Y-64818458D02*
X198090771Y-64866077D01*
X198090771Y-64866077D02*
X198043152Y-64961315D01*
X198043152Y-64961315D02*
X198043152Y-65151791D01*
X198043152Y-65151791D02*
X198090771Y-65247029D01*
X198662200Y-64818458D02*
X198709819Y-64913696D01*
X198709819Y-64913696D02*
X198709819Y-65151791D01*
X198709819Y-65151791D02*
X198662200Y-65247029D01*
X198662200Y-65247029D02*
X198566961Y-65294648D01*
X198566961Y-65294648D02*
X198471723Y-65294648D01*
X198471723Y-65294648D02*
X198376485Y-65247029D01*
X198376485Y-65247029D02*
X198328866Y-65151791D01*
X198328866Y-65151791D02*
X198328866Y-64913696D01*
X198328866Y-64913696D02*
X198281247Y-64818458D01*
X198709819Y-64342267D02*
X198043152Y-64342267D01*
X198233628Y-64342267D02*
X198138390Y-64294648D01*
X198138390Y-64294648D02*
X198090771Y-64247029D01*
X198090771Y-64247029D02*
X198043152Y-64151791D01*
X198043152Y-64151791D02*
X198043152Y-64056553D01*
X198709819Y-63294648D02*
X197709819Y-63294648D01*
X198662200Y-63294648D02*
X198709819Y-63389886D01*
X198709819Y-63389886D02*
X198709819Y-63580362D01*
X198709819Y-63580362D02*
X198662200Y-63675600D01*
X198662200Y-63675600D02*
X198614580Y-63723219D01*
X198614580Y-63723219D02*
X198519342Y-63770838D01*
X198519342Y-63770838D02*
X198233628Y-63770838D01*
X198233628Y-63770838D02*
X198138390Y-63723219D01*
X198138390Y-63723219D02*
X198090771Y-63675600D01*
X198090771Y-63675600D02*
X198043152Y-63580362D01*
X198043152Y-63580362D02*
X198043152Y-63389886D01*
X198043152Y-63389886D02*
X198090771Y-63294648D01*
X198043152Y-62151790D02*
X198709819Y-61913695D01*
X198709819Y-61913695D02*
X198043152Y-61675600D01*
X198709819Y-60770838D02*
X198709819Y-61342266D01*
X198709819Y-61056552D02*
X197709819Y-61056552D01*
X197709819Y-61056552D02*
X197852676Y-61151790D01*
X197852676Y-61151790D02*
X197947914Y-61247028D01*
X197947914Y-61247028D02*
X197995533Y-61342266D01*
X198614580Y-60342266D02*
X198662200Y-60294647D01*
X198662200Y-60294647D02*
X198709819Y-60342266D01*
X198709819Y-60342266D02*
X198662200Y-60389885D01*
X198662200Y-60389885D02*
X198614580Y-60342266D01*
X198614580Y-60342266D02*
X198709819Y-60342266D01*
X197709819Y-59675600D02*
X197709819Y-59580362D01*
X197709819Y-59580362D02*
X197757438Y-59485124D01*
X197757438Y-59485124D02*
X197805057Y-59437505D01*
X197805057Y-59437505D02*
X197900295Y-59389886D01*
X197900295Y-59389886D02*
X198090771Y-59342267D01*
X198090771Y-59342267D02*
X198328866Y-59342267D01*
X198328866Y-59342267D02*
X198519342Y-59389886D01*
X198519342Y-59389886D02*
X198614580Y-59437505D01*
X198614580Y-59437505D02*
X198662200Y-59485124D01*
X198662200Y-59485124D02*
X198709819Y-59580362D01*
X198709819Y-59580362D02*
X198709819Y-59675600D01*
X198709819Y-59675600D02*
X198662200Y-59770838D01*
X198662200Y-59770838D02*
X198614580Y-59818457D01*
X198614580Y-59818457D02*
X198519342Y-59866076D01*
X198519342Y-59866076D02*
X198328866Y-59913695D01*
X198328866Y-59913695D02*
X198090771Y-59913695D01*
X198090771Y-59913695D02*
X197900295Y-59866076D01*
X197900295Y-59866076D02*
X197805057Y-59818457D01*
X197805057Y-59818457D02*
X197757438Y-59770838D01*
X197757438Y-59770838D02*
X197709819Y-59675600D01*
D10*
X192332828Y-111618346D02*
X191618542Y-112118346D01*
X192332828Y-112475489D02*
X190832828Y-112475489D01*
X190832828Y-112475489D02*
X190832828Y-111904060D01*
X190832828Y-111904060D02*
X190904257Y-111761203D01*
X190904257Y-111761203D02*
X190975685Y-111689774D01*
X190975685Y-111689774D02*
X191118542Y-111618346D01*
X191118542Y-111618346D02*
X191332828Y-111618346D01*
X191332828Y-111618346D02*
X191475685Y-111689774D01*
X191475685Y-111689774D02*
X191547114Y-111761203D01*
X191547114Y-111761203D02*
X191618542Y-111904060D01*
X191618542Y-111904060D02*
X191618542Y-112475489D01*
X191904257Y-111046917D02*
X191904257Y-110332632D01*
X192332828Y-111189774D02*
X190832828Y-110689774D01*
X190832828Y-110689774D02*
X192332828Y-110189774D01*
X192332828Y-109689775D02*
X190832828Y-109689775D01*
X190832828Y-109689775D02*
X191904257Y-109189775D01*
X191904257Y-109189775D02*
X190832828Y-108689775D01*
X190832828Y-108689775D02*
X192332828Y-108689775D01*
X192332828Y-105975489D02*
X191618542Y-106475489D01*
X192332828Y-106832632D02*
X190832828Y-106832632D01*
X190832828Y-106832632D02*
X190832828Y-106261203D01*
X190832828Y-106261203D02*
X190904257Y-106118346D01*
X190904257Y-106118346D02*
X190975685Y-106046917D01*
X190975685Y-106046917D02*
X191118542Y-105975489D01*
X191118542Y-105975489D02*
X191332828Y-105975489D01*
X191332828Y-105975489D02*
X191475685Y-106046917D01*
X191475685Y-106046917D02*
X191547114Y-106118346D01*
X191547114Y-106118346D02*
X191618542Y-106261203D01*
X191618542Y-106261203D02*
X191618542Y-106832632D01*
X190832828Y-105046917D02*
X190832828Y-104761203D01*
X190832828Y-104761203D02*
X190904257Y-104618346D01*
X190904257Y-104618346D02*
X191047114Y-104475489D01*
X191047114Y-104475489D02*
X191332828Y-104404060D01*
X191332828Y-104404060D02*
X191832828Y-104404060D01*
X191832828Y-104404060D02*
X192118542Y-104475489D01*
X192118542Y-104475489D02*
X192261400Y-104618346D01*
X192261400Y-104618346D02*
X192332828Y-104761203D01*
X192332828Y-104761203D02*
X192332828Y-105046917D01*
X192332828Y-105046917D02*
X192261400Y-105189775D01*
X192261400Y-105189775D02*
X192118542Y-105332632D01*
X192118542Y-105332632D02*
X191832828Y-105404060D01*
X191832828Y-105404060D02*
X191332828Y-105404060D01*
X191332828Y-105404060D02*
X191047114Y-105332632D01*
X191047114Y-105332632D02*
X190904257Y-105189775D01*
X190904257Y-105189775D02*
X190832828Y-105046917D01*
X192332828Y-103761203D02*
X190832828Y-103761203D01*
X190832828Y-103761203D02*
X191904257Y-103261203D01*
X191904257Y-103261203D02*
X190832828Y-102761203D01*
X190832828Y-102761203D02*
X192332828Y-102761203D01*
X192261400Y-100975488D02*
X192332828Y-100761203D01*
X192332828Y-100761203D02*
X192332828Y-100404060D01*
X192332828Y-100404060D02*
X192261400Y-100261203D01*
X192261400Y-100261203D02*
X192189971Y-100189774D01*
X192189971Y-100189774D02*
X192047114Y-100118345D01*
X192047114Y-100118345D02*
X191904257Y-100118345D01*
X191904257Y-100118345D02*
X191761400Y-100189774D01*
X191761400Y-100189774D02*
X191689971Y-100261203D01*
X191689971Y-100261203D02*
X191618542Y-100404060D01*
X191618542Y-100404060D02*
X191547114Y-100689774D01*
X191547114Y-100689774D02*
X191475685Y-100832631D01*
X191475685Y-100832631D02*
X191404257Y-100904060D01*
X191404257Y-100904060D02*
X191261400Y-100975488D01*
X191261400Y-100975488D02*
X191118542Y-100975488D01*
X191118542Y-100975488D02*
X190975685Y-100904060D01*
X190975685Y-100904060D02*
X190904257Y-100832631D01*
X190904257Y-100832631D02*
X190832828Y-100689774D01*
X190832828Y-100689774D02*
X190832828Y-100332631D01*
X190832828Y-100332631D02*
X190904257Y-100118345D01*
X192332828Y-99475489D02*
X191332828Y-99475489D01*
X190832828Y-99475489D02*
X190904257Y-99546917D01*
X190904257Y-99546917D02*
X190975685Y-99475489D01*
X190975685Y-99475489D02*
X190904257Y-99404060D01*
X190904257Y-99404060D02*
X190832828Y-99475489D01*
X190832828Y-99475489D02*
X190975685Y-99475489D01*
X192332828Y-98118346D02*
X190832828Y-98118346D01*
X192261400Y-98118346D02*
X192332828Y-98261203D01*
X192332828Y-98261203D02*
X192332828Y-98546917D01*
X192332828Y-98546917D02*
X192261400Y-98689774D01*
X192261400Y-98689774D02*
X192189971Y-98761203D01*
X192189971Y-98761203D02*
X192047114Y-98832631D01*
X192047114Y-98832631D02*
X191618542Y-98832631D01*
X191618542Y-98832631D02*
X191475685Y-98761203D01*
X191475685Y-98761203D02*
X191404257Y-98689774D01*
X191404257Y-98689774D02*
X191332828Y-98546917D01*
X191332828Y-98546917D02*
X191332828Y-98261203D01*
X191332828Y-98261203D02*
X191404257Y-98118346D01*
X192261400Y-96832631D02*
X192332828Y-96975488D01*
X192332828Y-96975488D02*
X192332828Y-97261203D01*
X192332828Y-97261203D02*
X192261400Y-97404060D01*
X192261400Y-97404060D02*
X192118542Y-97475488D01*
X192118542Y-97475488D02*
X191547114Y-97475488D01*
X191547114Y-97475488D02*
X191404257Y-97404060D01*
X191404257Y-97404060D02*
X191332828Y-97261203D01*
X191332828Y-97261203D02*
X191332828Y-96975488D01*
X191332828Y-96975488D02*
X191404257Y-96832631D01*
X191404257Y-96832631D02*
X191547114Y-96761203D01*
X191547114Y-96761203D02*
X191689971Y-96761203D01*
X191689971Y-96761203D02*
X191832828Y-97475488D01*
X159304510Y-125784828D02*
X159304510Y-124284828D01*
X159304510Y-124284828D02*
X159804510Y-125356257D01*
X159804510Y-125356257D02*
X160304510Y-124284828D01*
X160304510Y-124284828D02*
X160304510Y-125784828D01*
X161661654Y-125784828D02*
X161661654Y-124999114D01*
X161661654Y-124999114D02*
X161590225Y-124856257D01*
X161590225Y-124856257D02*
X161447368Y-124784828D01*
X161447368Y-124784828D02*
X161161654Y-124784828D01*
X161161654Y-124784828D02*
X161018796Y-124856257D01*
X161661654Y-125713400D02*
X161518796Y-125784828D01*
X161518796Y-125784828D02*
X161161654Y-125784828D01*
X161161654Y-125784828D02*
X161018796Y-125713400D01*
X161018796Y-125713400D02*
X160947368Y-125570542D01*
X160947368Y-125570542D02*
X160947368Y-125427685D01*
X160947368Y-125427685D02*
X161018796Y-125284828D01*
X161018796Y-125284828D02*
X161161654Y-125213400D01*
X161161654Y-125213400D02*
X161518796Y-125213400D01*
X161518796Y-125213400D02*
X161661654Y-125141971D01*
X162304511Y-125713400D02*
X162447368Y-125784828D01*
X162447368Y-125784828D02*
X162733082Y-125784828D01*
X162733082Y-125784828D02*
X162875939Y-125713400D01*
X162875939Y-125713400D02*
X162947368Y-125570542D01*
X162947368Y-125570542D02*
X162947368Y-125499114D01*
X162947368Y-125499114D02*
X162875939Y-125356257D01*
X162875939Y-125356257D02*
X162733082Y-125284828D01*
X162733082Y-125284828D02*
X162518797Y-125284828D01*
X162518797Y-125284828D02*
X162375939Y-125213400D01*
X162375939Y-125213400D02*
X162304511Y-125070542D01*
X162304511Y-125070542D02*
X162304511Y-124999114D01*
X162304511Y-124999114D02*
X162375939Y-124856257D01*
X162375939Y-124856257D02*
X162518797Y-124784828D01*
X162518797Y-124784828D02*
X162733082Y-124784828D01*
X162733082Y-124784828D02*
X162875939Y-124856257D01*
X163375940Y-124784828D02*
X163947368Y-124784828D01*
X163590225Y-124284828D02*
X163590225Y-125570542D01*
X163590225Y-125570542D02*
X163661654Y-125713400D01*
X163661654Y-125713400D02*
X163804511Y-125784828D01*
X163804511Y-125784828D02*
X163947368Y-125784828D01*
X165018797Y-125713400D02*
X164875940Y-125784828D01*
X164875940Y-125784828D02*
X164590226Y-125784828D01*
X164590226Y-125784828D02*
X164447368Y-125713400D01*
X164447368Y-125713400D02*
X164375940Y-125570542D01*
X164375940Y-125570542D02*
X164375940Y-124999114D01*
X164375940Y-124999114D02*
X164447368Y-124856257D01*
X164447368Y-124856257D02*
X164590226Y-124784828D01*
X164590226Y-124784828D02*
X164875940Y-124784828D01*
X164875940Y-124784828D02*
X165018797Y-124856257D01*
X165018797Y-124856257D02*
X165090226Y-124999114D01*
X165090226Y-124999114D02*
X165090226Y-125141971D01*
X165090226Y-125141971D02*
X164375940Y-125284828D01*
X165733082Y-125784828D02*
X165733082Y-124784828D01*
X165733082Y-125070542D02*
X165804511Y-124927685D01*
X165804511Y-124927685D02*
X165875940Y-124856257D01*
X165875940Y-124856257D02*
X166018797Y-124784828D01*
X166018797Y-124784828D02*
X166161654Y-124784828D01*
X168875939Y-124213400D02*
X167590225Y-126141971D01*
X170447368Y-125713400D02*
X170661654Y-125784828D01*
X170661654Y-125784828D02*
X171018796Y-125784828D01*
X171018796Y-125784828D02*
X171161654Y-125713400D01*
X171161654Y-125713400D02*
X171233082Y-125641971D01*
X171233082Y-125641971D02*
X171304511Y-125499114D01*
X171304511Y-125499114D02*
X171304511Y-125356257D01*
X171304511Y-125356257D02*
X171233082Y-125213400D01*
X171233082Y-125213400D02*
X171161654Y-125141971D01*
X171161654Y-125141971D02*
X171018796Y-125070542D01*
X171018796Y-125070542D02*
X170733082Y-124999114D01*
X170733082Y-124999114D02*
X170590225Y-124927685D01*
X170590225Y-124927685D02*
X170518796Y-124856257D01*
X170518796Y-124856257D02*
X170447368Y-124713400D01*
X170447368Y-124713400D02*
X170447368Y-124570542D01*
X170447368Y-124570542D02*
X170518796Y-124427685D01*
X170518796Y-124427685D02*
X170590225Y-124356257D01*
X170590225Y-124356257D02*
X170733082Y-124284828D01*
X170733082Y-124284828D02*
X171090225Y-124284828D01*
X171090225Y-124284828D02*
X171304511Y-124356257D01*
X172161653Y-125784828D02*
X172018796Y-125713400D01*
X172018796Y-125713400D02*
X171947367Y-125570542D01*
X171947367Y-125570542D02*
X171947367Y-124284828D01*
X173375939Y-125784828D02*
X173375939Y-124999114D01*
X173375939Y-124999114D02*
X173304510Y-124856257D01*
X173304510Y-124856257D02*
X173161653Y-124784828D01*
X173161653Y-124784828D02*
X172875939Y-124784828D01*
X172875939Y-124784828D02*
X172733081Y-124856257D01*
X173375939Y-125713400D02*
X173233081Y-125784828D01*
X173233081Y-125784828D02*
X172875939Y-125784828D01*
X172875939Y-125784828D02*
X172733081Y-125713400D01*
X172733081Y-125713400D02*
X172661653Y-125570542D01*
X172661653Y-125570542D02*
X172661653Y-125427685D01*
X172661653Y-125427685D02*
X172733081Y-125284828D01*
X172733081Y-125284828D02*
X172875939Y-125213400D01*
X172875939Y-125213400D02*
X173233081Y-125213400D01*
X173233081Y-125213400D02*
X173375939Y-125141971D01*
X173947367Y-124784828D02*
X174304510Y-125784828D01*
X174304510Y-125784828D02*
X174661653Y-124784828D01*
X175804510Y-125713400D02*
X175661653Y-125784828D01*
X175661653Y-125784828D02*
X175375939Y-125784828D01*
X175375939Y-125784828D02*
X175233081Y-125713400D01*
X175233081Y-125713400D02*
X175161653Y-125570542D01*
X175161653Y-125570542D02*
X175161653Y-124999114D01*
X175161653Y-124999114D02*
X175233081Y-124856257D01*
X175233081Y-124856257D02*
X175375939Y-124784828D01*
X175375939Y-124784828D02*
X175661653Y-124784828D01*
X175661653Y-124784828D02*
X175804510Y-124856257D01*
X175804510Y-124856257D02*
X175875939Y-124999114D01*
X175875939Y-124999114D02*
X175875939Y-125141971D01*
X175875939Y-125141971D02*
X175161653Y-125284828D01*
X178518795Y-125641971D02*
X178447367Y-125713400D01*
X178447367Y-125713400D02*
X178233081Y-125784828D01*
X178233081Y-125784828D02*
X178090224Y-125784828D01*
X178090224Y-125784828D02*
X177875938Y-125713400D01*
X177875938Y-125713400D02*
X177733081Y-125570542D01*
X177733081Y-125570542D02*
X177661652Y-125427685D01*
X177661652Y-125427685D02*
X177590224Y-125141971D01*
X177590224Y-125141971D02*
X177590224Y-124927685D01*
X177590224Y-124927685D02*
X177661652Y-124641971D01*
X177661652Y-124641971D02*
X177733081Y-124499114D01*
X177733081Y-124499114D02*
X177875938Y-124356257D01*
X177875938Y-124356257D02*
X178090224Y-124284828D01*
X178090224Y-124284828D02*
X178233081Y-124284828D01*
X178233081Y-124284828D02*
X178447367Y-124356257D01*
X178447367Y-124356257D02*
X178518795Y-124427685D01*
X179161652Y-125784828D02*
X179161652Y-124284828D01*
X179161652Y-124284828D02*
X179733081Y-124284828D01*
X179733081Y-124284828D02*
X179875938Y-124356257D01*
X179875938Y-124356257D02*
X179947367Y-124427685D01*
X179947367Y-124427685D02*
X180018795Y-124570542D01*
X180018795Y-124570542D02*
X180018795Y-124784828D01*
X180018795Y-124784828D02*
X179947367Y-124927685D01*
X179947367Y-124927685D02*
X179875938Y-124999114D01*
X179875938Y-124999114D02*
X179733081Y-125070542D01*
X179733081Y-125070542D02*
X179161652Y-125070542D01*
X180661652Y-124284828D02*
X180661652Y-125499114D01*
X180661652Y-125499114D02*
X180733081Y-125641971D01*
X180733081Y-125641971D02*
X180804510Y-125713400D01*
X180804510Y-125713400D02*
X180947367Y-125784828D01*
X180947367Y-125784828D02*
X181233081Y-125784828D01*
X181233081Y-125784828D02*
X181375938Y-125713400D01*
X181375938Y-125713400D02*
X181447367Y-125641971D01*
X181447367Y-125641971D02*
X181518795Y-125499114D01*
X181518795Y-125499114D02*
X181518795Y-124284828D01*
D11*
X139044819Y-44560333D02*
X139759104Y-44560333D01*
X139759104Y-44560333D02*
X139901961Y-44607952D01*
X139901961Y-44607952D02*
X139997200Y-44703190D01*
X139997200Y-44703190D02*
X140044819Y-44846047D01*
X140044819Y-44846047D02*
X140044819Y-44941285D01*
X140044819Y-43560333D02*
X140044819Y-44131761D01*
X140044819Y-43846047D02*
X139044819Y-43846047D01*
X139044819Y-43846047D02*
X139187676Y-43941285D01*
X139187676Y-43941285D02*
X139282914Y-44036523D01*
X139282914Y-44036523D02*
X139330533Y-44131761D01*
X127484666Y-55857819D02*
X127484666Y-56572104D01*
X127484666Y-56572104D02*
X127437047Y-56714961D01*
X127437047Y-56714961D02*
X127341809Y-56810200D01*
X127341809Y-56810200D02*
X127198952Y-56857819D01*
X127198952Y-56857819D02*
X127103714Y-56857819D01*
X128103714Y-56286390D02*
X128008476Y-56238771D01*
X128008476Y-56238771D02*
X127960857Y-56191152D01*
X127960857Y-56191152D02*
X127913238Y-56095914D01*
X127913238Y-56095914D02*
X127913238Y-56048295D01*
X127913238Y-56048295D02*
X127960857Y-55953057D01*
X127960857Y-55953057D02*
X128008476Y-55905438D01*
X128008476Y-55905438D02*
X128103714Y-55857819D01*
X128103714Y-55857819D02*
X128294190Y-55857819D01*
X128294190Y-55857819D02*
X128389428Y-55905438D01*
X128389428Y-55905438D02*
X128437047Y-55953057D01*
X128437047Y-55953057D02*
X128484666Y-56048295D01*
X128484666Y-56048295D02*
X128484666Y-56095914D01*
X128484666Y-56095914D02*
X128437047Y-56191152D01*
X128437047Y-56191152D02*
X128389428Y-56238771D01*
X128389428Y-56238771D02*
X128294190Y-56286390D01*
X128294190Y-56286390D02*
X128103714Y-56286390D01*
X128103714Y-56286390D02*
X128008476Y-56334009D01*
X128008476Y-56334009D02*
X127960857Y-56381628D01*
X127960857Y-56381628D02*
X127913238Y-56476866D01*
X127913238Y-56476866D02*
X127913238Y-56667342D01*
X127913238Y-56667342D02*
X127960857Y-56762580D01*
X127960857Y-56762580D02*
X128008476Y-56810200D01*
X128008476Y-56810200D02*
X128103714Y-56857819D01*
X128103714Y-56857819D02*
X128294190Y-56857819D01*
X128294190Y-56857819D02*
X128389428Y-56810200D01*
X128389428Y-56810200D02*
X128437047Y-56762580D01*
X128437047Y-56762580D02*
X128484666Y-56667342D01*
X128484666Y-56667342D02*
X128484666Y-56476866D01*
X128484666Y-56476866D02*
X128437047Y-56381628D01*
X128437047Y-56381628D02*
X128389428Y-56334009D01*
X128389428Y-56334009D02*
X128294190Y-56286390D01*
X114633476Y-67879819D02*
X114633476Y-68594104D01*
X114633476Y-68594104D02*
X114585857Y-68736961D01*
X114585857Y-68736961D02*
X114490619Y-68832200D01*
X114490619Y-68832200D02*
X114347762Y-68879819D01*
X114347762Y-68879819D02*
X114252524Y-68879819D01*
X115633476Y-68879819D02*
X115062048Y-68879819D01*
X115347762Y-68879819D02*
X115347762Y-67879819D01*
X115347762Y-67879819D02*
X115252524Y-68022676D01*
X115252524Y-68022676D02*
X115157286Y-68117914D01*
X115157286Y-68117914D02*
X115062048Y-68165533D01*
X115966810Y-67879819D02*
X116633476Y-67879819D01*
X116633476Y-67879819D02*
X116204905Y-68879819D01*
X114633476Y-90739819D02*
X114633476Y-91454104D01*
X114633476Y-91454104D02*
X114585857Y-91596961D01*
X114585857Y-91596961D02*
X114490619Y-91692200D01*
X114490619Y-91692200D02*
X114347762Y-91739819D01*
X114347762Y-91739819D02*
X114252524Y-91739819D01*
X115062048Y-90835057D02*
X115109667Y-90787438D01*
X115109667Y-90787438D02*
X115204905Y-90739819D01*
X115204905Y-90739819D02*
X115443000Y-90739819D01*
X115443000Y-90739819D02*
X115538238Y-90787438D01*
X115538238Y-90787438D02*
X115585857Y-90835057D01*
X115585857Y-90835057D02*
X115633476Y-90930295D01*
X115633476Y-90930295D02*
X115633476Y-91025533D01*
X115633476Y-91025533D02*
X115585857Y-91168390D01*
X115585857Y-91168390D02*
X115014429Y-91739819D01*
X115014429Y-91739819D02*
X115633476Y-91739819D01*
X116490619Y-90739819D02*
X116300143Y-90739819D01*
X116300143Y-90739819D02*
X116204905Y-90787438D01*
X116204905Y-90787438D02*
X116157286Y-90835057D01*
X116157286Y-90835057D02*
X116062048Y-90977914D01*
X116062048Y-90977914D02*
X116014429Y-91168390D01*
X116014429Y-91168390D02*
X116014429Y-91549342D01*
X116014429Y-91549342D02*
X116062048Y-91644580D01*
X116062048Y-91644580D02*
X116109667Y-91692200D01*
X116109667Y-91692200D02*
X116204905Y-91739819D01*
X116204905Y-91739819D02*
X116395381Y-91739819D01*
X116395381Y-91739819D02*
X116490619Y-91692200D01*
X116490619Y-91692200D02*
X116538238Y-91644580D01*
X116538238Y-91644580D02*
X116585857Y-91549342D01*
X116585857Y-91549342D02*
X116585857Y-91311247D01*
X116585857Y-91311247D02*
X116538238Y-91216009D01*
X116538238Y-91216009D02*
X116490619Y-91168390D01*
X116490619Y-91168390D02*
X116395381Y-91120771D01*
X116395381Y-91120771D02*
X116204905Y-91120771D01*
X116204905Y-91120771D02*
X116109667Y-91168390D01*
X116109667Y-91168390D02*
X116062048Y-91216009D01*
X116062048Y-91216009D02*
X116014429Y-91311247D01*
X104204786Y-124664732D02*
X104204786Y-123664732D01*
X104204786Y-124140922D02*
X104776214Y-124140922D01*
X104776214Y-124664732D02*
X104776214Y-123664732D01*
X105395262Y-124093303D02*
X105300024Y-124045684D01*
X105300024Y-124045684D02*
X105252405Y-123998065D01*
X105252405Y-123998065D02*
X105204786Y-123902827D01*
X105204786Y-123902827D02*
X105204786Y-123855208D01*
X105204786Y-123855208D02*
X105252405Y-123759970D01*
X105252405Y-123759970D02*
X105300024Y-123712351D01*
X105300024Y-123712351D02*
X105395262Y-123664732D01*
X105395262Y-123664732D02*
X105585738Y-123664732D01*
X105585738Y-123664732D02*
X105680976Y-123712351D01*
X105680976Y-123712351D02*
X105728595Y-123759970D01*
X105728595Y-123759970D02*
X105776214Y-123855208D01*
X105776214Y-123855208D02*
X105776214Y-123902827D01*
X105776214Y-123902827D02*
X105728595Y-123998065D01*
X105728595Y-123998065D02*
X105680976Y-124045684D01*
X105680976Y-124045684D02*
X105585738Y-124093303D01*
X105585738Y-124093303D02*
X105395262Y-124093303D01*
X105395262Y-124093303D02*
X105300024Y-124140922D01*
X105300024Y-124140922D02*
X105252405Y-124188541D01*
X105252405Y-124188541D02*
X105204786Y-124283779D01*
X105204786Y-124283779D02*
X105204786Y-124474255D01*
X105204786Y-124474255D02*
X105252405Y-124569493D01*
X105252405Y-124569493D02*
X105300024Y-124617113D01*
X105300024Y-124617113D02*
X105395262Y-124664732D01*
X105395262Y-124664732D02*
X105585738Y-124664732D01*
X105585738Y-124664732D02*
X105680976Y-124617113D01*
X105680976Y-124617113D02*
X105728595Y-124569493D01*
X105728595Y-124569493D02*
X105776214Y-124474255D01*
X105776214Y-124474255D02*
X105776214Y-124283779D01*
X105776214Y-124283779D02*
X105728595Y-124188541D01*
X105728595Y-124188541D02*
X105680976Y-124140922D01*
X105680976Y-124140922D02*
X105585738Y-124093303D01*
X148000819Y-72310523D02*
X148715104Y-72310523D01*
X148715104Y-72310523D02*
X148857961Y-72358142D01*
X148857961Y-72358142D02*
X148953200Y-72453380D01*
X148953200Y-72453380D02*
X149000819Y-72596237D01*
X149000819Y-72596237D02*
X149000819Y-72691475D01*
X149000819Y-71310523D02*
X149000819Y-71881951D01*
X149000819Y-71596237D02*
X148000819Y-71596237D01*
X148000819Y-71596237D02*
X148143676Y-71691475D01*
X148143676Y-71691475D02*
X148238914Y-71786713D01*
X148238914Y-71786713D02*
X148286533Y-71881951D01*
X148000819Y-70977189D02*
X148000819Y-70358142D01*
X148000819Y-70358142D02*
X148381771Y-70691475D01*
X148381771Y-70691475D02*
X148381771Y-70548618D01*
X148381771Y-70548618D02*
X148429390Y-70453380D01*
X148429390Y-70453380D02*
X148477009Y-70405761D01*
X148477009Y-70405761D02*
X148572247Y-70358142D01*
X148572247Y-70358142D02*
X148810342Y-70358142D01*
X148810342Y-70358142D02*
X148905580Y-70405761D01*
X148905580Y-70405761D02*
X148953200Y-70453380D01*
X148953200Y-70453380D02*
X149000819Y-70548618D01*
X149000819Y-70548618D02*
X149000819Y-70834332D01*
X149000819Y-70834332D02*
X148953200Y-70929570D01*
X148953200Y-70929570D02*
X148905580Y-70977189D01*
X123343645Y-72400467D02*
X123343645Y-73114752D01*
X123343645Y-73114752D02*
X123296026Y-73257609D01*
X123296026Y-73257609D02*
X123200788Y-73352848D01*
X123200788Y-73352848D02*
X123057931Y-73400467D01*
X123057931Y-73400467D02*
X122962693Y-73400467D01*
X124343645Y-73400467D02*
X123772217Y-73400467D01*
X124057931Y-73400467D02*
X124057931Y-72400467D01*
X124057931Y-72400467D02*
X123962693Y-72543324D01*
X123962693Y-72543324D02*
X123867455Y-72638562D01*
X123867455Y-72638562D02*
X123772217Y-72686181D01*
X125296026Y-73400467D02*
X124724598Y-73400467D01*
X125010312Y-73400467D02*
X125010312Y-72400467D01*
X125010312Y-72400467D02*
X124915074Y-72543324D01*
X124915074Y-72543324D02*
X124819836Y-72638562D01*
X124819836Y-72638562D02*
X124724598Y-72686181D01*
X137874476Y-85659819D02*
X137874476Y-86374104D01*
X137874476Y-86374104D02*
X137826857Y-86516961D01*
X137826857Y-86516961D02*
X137731619Y-86612200D01*
X137731619Y-86612200D02*
X137588762Y-86659819D01*
X137588762Y-86659819D02*
X137493524Y-86659819D01*
X138874476Y-86659819D02*
X138303048Y-86659819D01*
X138588762Y-86659819D02*
X138588762Y-85659819D01*
X138588762Y-85659819D02*
X138493524Y-85802676D01*
X138493524Y-85802676D02*
X138398286Y-85897914D01*
X138398286Y-85897914D02*
X138303048Y-85945533D01*
X139445905Y-86088390D02*
X139350667Y-86040771D01*
X139350667Y-86040771D02*
X139303048Y-85993152D01*
X139303048Y-85993152D02*
X139255429Y-85897914D01*
X139255429Y-85897914D02*
X139255429Y-85850295D01*
X139255429Y-85850295D02*
X139303048Y-85755057D01*
X139303048Y-85755057D02*
X139350667Y-85707438D01*
X139350667Y-85707438D02*
X139445905Y-85659819D01*
X139445905Y-85659819D02*
X139636381Y-85659819D01*
X139636381Y-85659819D02*
X139731619Y-85707438D01*
X139731619Y-85707438D02*
X139779238Y-85755057D01*
X139779238Y-85755057D02*
X139826857Y-85850295D01*
X139826857Y-85850295D02*
X139826857Y-85897914D01*
X139826857Y-85897914D02*
X139779238Y-85993152D01*
X139779238Y-85993152D02*
X139731619Y-86040771D01*
X139731619Y-86040771D02*
X139636381Y-86088390D01*
X139636381Y-86088390D02*
X139445905Y-86088390D01*
X139445905Y-86088390D02*
X139350667Y-86136009D01*
X139350667Y-86136009D02*
X139303048Y-86183628D01*
X139303048Y-86183628D02*
X139255429Y-86278866D01*
X139255429Y-86278866D02*
X139255429Y-86469342D01*
X139255429Y-86469342D02*
X139303048Y-86564580D01*
X139303048Y-86564580D02*
X139350667Y-86612200D01*
X139350667Y-86612200D02*
X139445905Y-86659819D01*
X139445905Y-86659819D02*
X139636381Y-86659819D01*
X139636381Y-86659819D02*
X139731619Y-86612200D01*
X139731619Y-86612200D02*
X139779238Y-86564580D01*
X139779238Y-86564580D02*
X139826857Y-86469342D01*
X139826857Y-86469342D02*
X139826857Y-86278866D01*
X139826857Y-86278866D02*
X139779238Y-86183628D01*
X139779238Y-86183628D02*
X139731619Y-86136009D01*
X139731619Y-86136009D02*
X139636381Y-86088390D01*
X114633476Y-83119819D02*
X114633476Y-83834104D01*
X114633476Y-83834104D02*
X114585857Y-83976961D01*
X114585857Y-83976961D02*
X114490619Y-84072200D01*
X114490619Y-84072200D02*
X114347762Y-84119819D01*
X114347762Y-84119819D02*
X114252524Y-84119819D01*
X115062048Y-83215057D02*
X115109667Y-83167438D01*
X115109667Y-83167438D02*
X115204905Y-83119819D01*
X115204905Y-83119819D02*
X115443000Y-83119819D01*
X115443000Y-83119819D02*
X115538238Y-83167438D01*
X115538238Y-83167438D02*
X115585857Y-83215057D01*
X115585857Y-83215057D02*
X115633476Y-83310295D01*
X115633476Y-83310295D02*
X115633476Y-83405533D01*
X115633476Y-83405533D02*
X115585857Y-83548390D01*
X115585857Y-83548390D02*
X115014429Y-84119819D01*
X115014429Y-84119819D02*
X115633476Y-84119819D01*
X115966810Y-83119819D02*
X116585857Y-83119819D01*
X116585857Y-83119819D02*
X116252524Y-83500771D01*
X116252524Y-83500771D02*
X116395381Y-83500771D01*
X116395381Y-83500771D02*
X116490619Y-83548390D01*
X116490619Y-83548390D02*
X116538238Y-83596009D01*
X116538238Y-83596009D02*
X116585857Y-83691247D01*
X116585857Y-83691247D02*
X116585857Y-83929342D01*
X116585857Y-83929342D02*
X116538238Y-84024580D01*
X116538238Y-84024580D02*
X116490619Y-84072200D01*
X116490619Y-84072200D02*
X116395381Y-84119819D01*
X116395381Y-84119819D02*
X116109667Y-84119819D01*
X116109667Y-84119819D02*
X116014429Y-84072200D01*
X116014429Y-84072200D02*
X115966810Y-84024580D01*
X153949666Y-120336819D02*
X153949666Y-121051104D01*
X153949666Y-121051104D02*
X153902047Y-121193961D01*
X153902047Y-121193961D02*
X153806809Y-121289200D01*
X153806809Y-121289200D02*
X153663952Y-121336819D01*
X153663952Y-121336819D02*
X153568714Y-121336819D01*
X154425857Y-121336819D02*
X154425857Y-120336819D01*
X154425857Y-120336819D02*
X154806809Y-120336819D01*
X154806809Y-120336819D02*
X154902047Y-120384438D01*
X154902047Y-120384438D02*
X154949666Y-120432057D01*
X154949666Y-120432057D02*
X154997285Y-120527295D01*
X154997285Y-120527295D02*
X154997285Y-120670152D01*
X154997285Y-120670152D02*
X154949666Y-120765390D01*
X154949666Y-120765390D02*
X154902047Y-120813009D01*
X154902047Y-120813009D02*
X154806809Y-120860628D01*
X154806809Y-120860628D02*
X154425857Y-120860628D01*
X155949666Y-121336819D02*
X155378238Y-121336819D01*
X155663952Y-121336819D02*
X155663952Y-120336819D01*
X155663952Y-120336819D02*
X155568714Y-120479676D01*
X155568714Y-120479676D02*
X155473476Y-120574914D01*
X155473476Y-120574914D02*
X155378238Y-120622533D01*
X142446476Y-92517819D02*
X142446476Y-93232104D01*
X142446476Y-93232104D02*
X142398857Y-93374961D01*
X142398857Y-93374961D02*
X142303619Y-93470200D01*
X142303619Y-93470200D02*
X142160762Y-93517819D01*
X142160762Y-93517819D02*
X142065524Y-93517819D01*
X143446476Y-93517819D02*
X142875048Y-93517819D01*
X143160762Y-93517819D02*
X143160762Y-92517819D01*
X143160762Y-92517819D02*
X143065524Y-92660676D01*
X143065524Y-92660676D02*
X142970286Y-92755914D01*
X142970286Y-92755914D02*
X142875048Y-92803533D01*
X144303619Y-92517819D02*
X144113143Y-92517819D01*
X144113143Y-92517819D02*
X144017905Y-92565438D01*
X144017905Y-92565438D02*
X143970286Y-92613057D01*
X143970286Y-92613057D02*
X143875048Y-92755914D01*
X143875048Y-92755914D02*
X143827429Y-92946390D01*
X143827429Y-92946390D02*
X143827429Y-93327342D01*
X143827429Y-93327342D02*
X143875048Y-93422580D01*
X143875048Y-93422580D02*
X143922667Y-93470200D01*
X143922667Y-93470200D02*
X144017905Y-93517819D01*
X144017905Y-93517819D02*
X144208381Y-93517819D01*
X144208381Y-93517819D02*
X144303619Y-93470200D01*
X144303619Y-93470200D02*
X144351238Y-93422580D01*
X144351238Y-93422580D02*
X144398857Y-93327342D01*
X144398857Y-93327342D02*
X144398857Y-93089247D01*
X144398857Y-93089247D02*
X144351238Y-92994009D01*
X144351238Y-92994009D02*
X144303619Y-92946390D01*
X144303619Y-92946390D02*
X144208381Y-92898771D01*
X144208381Y-92898771D02*
X144017905Y-92898771D01*
X144017905Y-92898771D02*
X143922667Y-92946390D01*
X143922667Y-92946390D02*
X143875048Y-92994009D01*
X143875048Y-92994009D02*
X143827429Y-93089247D01*
X164417476Y-110424819D02*
X164417476Y-111139104D01*
X164417476Y-111139104D02*
X164369857Y-111281961D01*
X164369857Y-111281961D02*
X164274619Y-111377200D01*
X164274619Y-111377200D02*
X164131762Y-111424819D01*
X164131762Y-111424819D02*
X164036524Y-111424819D01*
X164846048Y-110520057D02*
X164893667Y-110472438D01*
X164893667Y-110472438D02*
X164988905Y-110424819D01*
X164988905Y-110424819D02*
X165227000Y-110424819D01*
X165227000Y-110424819D02*
X165322238Y-110472438D01*
X165322238Y-110472438D02*
X165369857Y-110520057D01*
X165369857Y-110520057D02*
X165417476Y-110615295D01*
X165417476Y-110615295D02*
X165417476Y-110710533D01*
X165417476Y-110710533D02*
X165369857Y-110853390D01*
X165369857Y-110853390D02*
X164798429Y-111424819D01*
X164798429Y-111424819D02*
X165417476Y-111424819D01*
X165893667Y-111424819D02*
X166084143Y-111424819D01*
X166084143Y-111424819D02*
X166179381Y-111377200D01*
X166179381Y-111377200D02*
X166227000Y-111329580D01*
X166227000Y-111329580D02*
X166322238Y-111186723D01*
X166322238Y-111186723D02*
X166369857Y-110996247D01*
X166369857Y-110996247D02*
X166369857Y-110615295D01*
X166369857Y-110615295D02*
X166322238Y-110520057D01*
X166322238Y-110520057D02*
X166274619Y-110472438D01*
X166274619Y-110472438D02*
X166179381Y-110424819D01*
X166179381Y-110424819D02*
X165988905Y-110424819D01*
X165988905Y-110424819D02*
X165893667Y-110472438D01*
X165893667Y-110472438D02*
X165846048Y-110520057D01*
X165846048Y-110520057D02*
X165798429Y-110615295D01*
X165798429Y-110615295D02*
X165798429Y-110853390D01*
X165798429Y-110853390D02*
X165846048Y-110948628D01*
X165846048Y-110948628D02*
X165893667Y-110996247D01*
X165893667Y-110996247D02*
X165988905Y-111043866D01*
X165988905Y-111043866D02*
X166179381Y-111043866D01*
X166179381Y-111043866D02*
X166274619Y-110996247D01*
X166274619Y-110996247D02*
X166322238Y-110948628D01*
X166322238Y-110948628D02*
X166369857Y-110853390D01*
X195238095Y-132254819D02*
X195238095Y-131254819D01*
X195238095Y-131731009D02*
X195809523Y-131731009D01*
X195809523Y-132254819D02*
X195809523Y-131254819D01*
X196809523Y-132254819D02*
X196238095Y-132254819D01*
X196523809Y-132254819D02*
X196523809Y-131254819D01*
X196523809Y-131254819D02*
X196428571Y-131397676D01*
X196428571Y-131397676D02*
X196333333Y-131492914D01*
X196333333Y-131492914D02*
X196238095Y-131540533D01*
X127682666Y-54909819D02*
X127682666Y-55624104D01*
X127682666Y-55624104D02*
X127635047Y-55766961D01*
X127635047Y-55766961D02*
X127539809Y-55862200D01*
X127539809Y-55862200D02*
X127396952Y-55909819D01*
X127396952Y-55909819D02*
X127301714Y-55909819D01*
X128587428Y-54909819D02*
X128396952Y-54909819D01*
X128396952Y-54909819D02*
X128301714Y-54957438D01*
X128301714Y-54957438D02*
X128254095Y-55005057D01*
X128254095Y-55005057D02*
X128158857Y-55147914D01*
X128158857Y-55147914D02*
X128111238Y-55338390D01*
X128111238Y-55338390D02*
X128111238Y-55719342D01*
X128111238Y-55719342D02*
X128158857Y-55814580D01*
X128158857Y-55814580D02*
X128206476Y-55862200D01*
X128206476Y-55862200D02*
X128301714Y-55909819D01*
X128301714Y-55909819D02*
X128492190Y-55909819D01*
X128492190Y-55909819D02*
X128587428Y-55862200D01*
X128587428Y-55862200D02*
X128635047Y-55814580D01*
X128635047Y-55814580D02*
X128682666Y-55719342D01*
X128682666Y-55719342D02*
X128682666Y-55481247D01*
X128682666Y-55481247D02*
X128635047Y-55386009D01*
X128635047Y-55386009D02*
X128587428Y-55338390D01*
X128587428Y-55338390D02*
X128492190Y-55290771D01*
X128492190Y-55290771D02*
X128301714Y-55290771D01*
X128301714Y-55290771D02*
X128206476Y-55338390D01*
X128206476Y-55338390D02*
X128158857Y-55386009D01*
X128158857Y-55386009D02*
X128111238Y-55481247D01*
X132422819Y-99737333D02*
X133137104Y-99737333D01*
X133137104Y-99737333D02*
X133279961Y-99784952D01*
X133279961Y-99784952D02*
X133375200Y-99880190D01*
X133375200Y-99880190D02*
X133422819Y-100023047D01*
X133422819Y-100023047D02*
X133422819Y-100118285D01*
X133422819Y-99213523D02*
X133422819Y-99023047D01*
X133422819Y-99023047D02*
X133375200Y-98927809D01*
X133375200Y-98927809D02*
X133327580Y-98880190D01*
X133327580Y-98880190D02*
X133184723Y-98784952D01*
X133184723Y-98784952D02*
X132994247Y-98737333D01*
X132994247Y-98737333D02*
X132613295Y-98737333D01*
X132613295Y-98737333D02*
X132518057Y-98784952D01*
X132518057Y-98784952D02*
X132470438Y-98832571D01*
X132470438Y-98832571D02*
X132422819Y-98927809D01*
X132422819Y-98927809D02*
X132422819Y-99118285D01*
X132422819Y-99118285D02*
X132470438Y-99213523D01*
X132470438Y-99213523D02*
X132518057Y-99261142D01*
X132518057Y-99261142D02*
X132613295Y-99308761D01*
X132613295Y-99308761D02*
X132851390Y-99308761D01*
X132851390Y-99308761D02*
X132946628Y-99261142D01*
X132946628Y-99261142D02*
X132994247Y-99213523D01*
X132994247Y-99213523D02*
X133041866Y-99118285D01*
X133041866Y-99118285D02*
X133041866Y-98927809D01*
X133041866Y-98927809D02*
X132994247Y-98832571D01*
X132994247Y-98832571D02*
X132946628Y-98784952D01*
X132946628Y-98784952D02*
X132851390Y-98737333D01*
X114634477Y-95819819D02*
X114634477Y-96534104D01*
X114634477Y-96534104D02*
X114586858Y-96676961D01*
X114586858Y-96676961D02*
X114491620Y-96772200D01*
X114491620Y-96772200D02*
X114348763Y-96819819D01*
X114348763Y-96819819D02*
X114253525Y-96819819D01*
X115063049Y-95915057D02*
X115110668Y-95867438D01*
X115110668Y-95867438D02*
X115205906Y-95819819D01*
X115205906Y-95819819D02*
X115444001Y-95819819D01*
X115444001Y-95819819D02*
X115539239Y-95867438D01*
X115539239Y-95867438D02*
X115586858Y-95915057D01*
X115586858Y-95915057D02*
X115634477Y-96010295D01*
X115634477Y-96010295D02*
X115634477Y-96105533D01*
X115634477Y-96105533D02*
X115586858Y-96248390D01*
X115586858Y-96248390D02*
X115015430Y-96819819D01*
X115015430Y-96819819D02*
X115634477Y-96819819D01*
X116205906Y-96248390D02*
X116110668Y-96200771D01*
X116110668Y-96200771D02*
X116063049Y-96153152D01*
X116063049Y-96153152D02*
X116015430Y-96057914D01*
X116015430Y-96057914D02*
X116015430Y-96010295D01*
X116015430Y-96010295D02*
X116063049Y-95915057D01*
X116063049Y-95915057D02*
X116110668Y-95867438D01*
X116110668Y-95867438D02*
X116205906Y-95819819D01*
X116205906Y-95819819D02*
X116396382Y-95819819D01*
X116396382Y-95819819D02*
X116491620Y-95867438D01*
X116491620Y-95867438D02*
X116539239Y-95915057D01*
X116539239Y-95915057D02*
X116586858Y-96010295D01*
X116586858Y-96010295D02*
X116586858Y-96057914D01*
X116586858Y-96057914D02*
X116539239Y-96153152D01*
X116539239Y-96153152D02*
X116491620Y-96200771D01*
X116491620Y-96200771D02*
X116396382Y-96248390D01*
X116396382Y-96248390D02*
X116205906Y-96248390D01*
X116205906Y-96248390D02*
X116110668Y-96296009D01*
X116110668Y-96296009D02*
X116063049Y-96343628D01*
X116063049Y-96343628D02*
X116015430Y-96438866D01*
X116015430Y-96438866D02*
X116015430Y-96629342D01*
X116015430Y-96629342D02*
X116063049Y-96724580D01*
X116063049Y-96724580D02*
X116110668Y-96772200D01*
X116110668Y-96772200D02*
X116205906Y-96819819D01*
X116205906Y-96819819D02*
X116396382Y-96819819D01*
X116396382Y-96819819D02*
X116491620Y-96772200D01*
X116491620Y-96772200D02*
X116539239Y-96724580D01*
X116539239Y-96724580D02*
X116586858Y-96629342D01*
X116586858Y-96629342D02*
X116586858Y-96438866D01*
X116586858Y-96438866D02*
X116539239Y-96343628D01*
X116539239Y-96343628D02*
X116491620Y-96296009D01*
X116491620Y-96296009D02*
X116396382Y-96248390D01*
X114633476Y-85659819D02*
X114633476Y-86374104D01*
X114633476Y-86374104D02*
X114585857Y-86516961D01*
X114585857Y-86516961D02*
X114490619Y-86612200D01*
X114490619Y-86612200D02*
X114347762Y-86659819D01*
X114347762Y-86659819D02*
X114252524Y-86659819D01*
X115062048Y-85755057D02*
X115109667Y-85707438D01*
X115109667Y-85707438D02*
X115204905Y-85659819D01*
X115204905Y-85659819D02*
X115443000Y-85659819D01*
X115443000Y-85659819D02*
X115538238Y-85707438D01*
X115538238Y-85707438D02*
X115585857Y-85755057D01*
X115585857Y-85755057D02*
X115633476Y-85850295D01*
X115633476Y-85850295D02*
X115633476Y-85945533D01*
X115633476Y-85945533D02*
X115585857Y-86088390D01*
X115585857Y-86088390D02*
X115014429Y-86659819D01*
X115014429Y-86659819D02*
X115633476Y-86659819D01*
X116490619Y-85993152D02*
X116490619Y-86659819D01*
X116252524Y-85612200D02*
X116014429Y-86326485D01*
X116014429Y-86326485D02*
X116633476Y-86326485D01*
X119508819Y-44493333D02*
X120223104Y-44493333D01*
X120223104Y-44493333D02*
X120365961Y-44540952D01*
X120365961Y-44540952D02*
X120461200Y-44636190D01*
X120461200Y-44636190D02*
X120508819Y-44779047D01*
X120508819Y-44779047D02*
X120508819Y-44874285D01*
X119604057Y-44064761D02*
X119556438Y-44017142D01*
X119556438Y-44017142D02*
X119508819Y-43921904D01*
X119508819Y-43921904D02*
X119508819Y-43683809D01*
X119508819Y-43683809D02*
X119556438Y-43588571D01*
X119556438Y-43588571D02*
X119604057Y-43540952D01*
X119604057Y-43540952D02*
X119699295Y-43493333D01*
X119699295Y-43493333D02*
X119794533Y-43493333D01*
X119794533Y-43493333D02*
X119937390Y-43540952D01*
X119937390Y-43540952D02*
X120508819Y-44112380D01*
X120508819Y-44112380D02*
X120508819Y-43493333D01*
X199824666Y-79544819D02*
X199824666Y-80259104D01*
X199824666Y-80259104D02*
X199777047Y-80401961D01*
X199777047Y-80401961D02*
X199681809Y-80497200D01*
X199681809Y-80497200D02*
X199538952Y-80544819D01*
X199538952Y-80544819D02*
X199443714Y-80544819D01*
X200777047Y-79544819D02*
X200300857Y-79544819D01*
X200300857Y-79544819D02*
X200253238Y-80021009D01*
X200253238Y-80021009D02*
X200300857Y-79973390D01*
X200300857Y-79973390D02*
X200396095Y-79925771D01*
X200396095Y-79925771D02*
X200634190Y-79925771D01*
X200634190Y-79925771D02*
X200729428Y-79973390D01*
X200729428Y-79973390D02*
X200777047Y-80021009D01*
X200777047Y-80021009D02*
X200824666Y-80116247D01*
X200824666Y-80116247D02*
X200824666Y-80354342D01*
X200824666Y-80354342D02*
X200777047Y-80449580D01*
X200777047Y-80449580D02*
X200729428Y-80497200D01*
X200729428Y-80497200D02*
X200634190Y-80544819D01*
X200634190Y-80544819D02*
X200396095Y-80544819D01*
X200396095Y-80544819D02*
X200300857Y-80497200D01*
X200300857Y-80497200D02*
X200253238Y-80449580D01*
X127204810Y-66658126D02*
X127204810Y-65658126D01*
X127204810Y-66134316D02*
X127776238Y-66134316D01*
X127776238Y-66658126D02*
X127776238Y-65658126D01*
X128728619Y-65658126D02*
X128252429Y-65658126D01*
X128252429Y-65658126D02*
X128204810Y-66134316D01*
X128204810Y-66134316D02*
X128252429Y-66086697D01*
X128252429Y-66086697D02*
X128347667Y-66039078D01*
X128347667Y-66039078D02*
X128585762Y-66039078D01*
X128585762Y-66039078D02*
X128681000Y-66086697D01*
X128681000Y-66086697D02*
X128728619Y-66134316D01*
X128728619Y-66134316D02*
X128776238Y-66229554D01*
X128776238Y-66229554D02*
X128776238Y-66467649D01*
X128776238Y-66467649D02*
X128728619Y-66562887D01*
X128728619Y-66562887D02*
X128681000Y-66610507D01*
X128681000Y-66610507D02*
X128585762Y-66658126D01*
X128585762Y-66658126D02*
X128347667Y-66658126D01*
X128347667Y-66658126D02*
X128252429Y-66610507D01*
X128252429Y-66610507D02*
X128204810Y-66562887D01*
X114633476Y-93279819D02*
X114633476Y-93994104D01*
X114633476Y-93994104D02*
X114585857Y-94136961D01*
X114585857Y-94136961D02*
X114490619Y-94232200D01*
X114490619Y-94232200D02*
X114347762Y-94279819D01*
X114347762Y-94279819D02*
X114252524Y-94279819D01*
X115062048Y-93375057D02*
X115109667Y-93327438D01*
X115109667Y-93327438D02*
X115204905Y-93279819D01*
X115204905Y-93279819D02*
X115443000Y-93279819D01*
X115443000Y-93279819D02*
X115538238Y-93327438D01*
X115538238Y-93327438D02*
X115585857Y-93375057D01*
X115585857Y-93375057D02*
X115633476Y-93470295D01*
X115633476Y-93470295D02*
X115633476Y-93565533D01*
X115633476Y-93565533D02*
X115585857Y-93708390D01*
X115585857Y-93708390D02*
X115014429Y-94279819D01*
X115014429Y-94279819D02*
X115633476Y-94279819D01*
X115966810Y-93279819D02*
X116633476Y-93279819D01*
X116633476Y-93279819D02*
X116204905Y-94279819D01*
X127205635Y-124660568D02*
X127205635Y-123660568D01*
X127205635Y-124136758D02*
X127777063Y-124136758D01*
X127777063Y-124660568D02*
X127777063Y-123660568D01*
X128158016Y-123660568D02*
X128824682Y-123660568D01*
X128824682Y-123660568D02*
X128396111Y-124660568D01*
X138027580Y-43395666D02*
X138075200Y-43443285D01*
X138075200Y-43443285D02*
X138122819Y-43586142D01*
X138122819Y-43586142D02*
X138122819Y-43681380D01*
X138122819Y-43681380D02*
X138075200Y-43824237D01*
X138075200Y-43824237D02*
X137979961Y-43919475D01*
X137979961Y-43919475D02*
X137884723Y-43967094D01*
X137884723Y-43967094D02*
X137694247Y-44014713D01*
X137694247Y-44014713D02*
X137551390Y-44014713D01*
X137551390Y-44014713D02*
X137360914Y-43967094D01*
X137360914Y-43967094D02*
X137265676Y-43919475D01*
X137265676Y-43919475D02*
X137170438Y-43824237D01*
X137170438Y-43824237D02*
X137122819Y-43681380D01*
X137122819Y-43681380D02*
X137122819Y-43586142D01*
X137122819Y-43586142D02*
X137170438Y-43443285D01*
X137170438Y-43443285D02*
X137218057Y-43395666D01*
X137456152Y-42538523D02*
X138122819Y-42538523D01*
X137075200Y-42776618D02*
X137789485Y-43014713D01*
X137789485Y-43014713D02*
X137789485Y-42395666D01*
X197478095Y-48321814D02*
X197478095Y-47321814D01*
X197478095Y-47798004D02*
X198049523Y-47798004D01*
X198049523Y-48321814D02*
X198049523Y-47321814D01*
X198430476Y-47321814D02*
X199049523Y-47321814D01*
X199049523Y-47321814D02*
X198716190Y-47702766D01*
X198716190Y-47702766D02*
X198859047Y-47702766D01*
X198859047Y-47702766D02*
X198954285Y-47750385D01*
X198954285Y-47750385D02*
X199001904Y-47798004D01*
X199001904Y-47798004D02*
X199049523Y-47893242D01*
X199049523Y-47893242D02*
X199049523Y-48131337D01*
X199049523Y-48131337D02*
X199001904Y-48226575D01*
X199001904Y-48226575D02*
X198954285Y-48274195D01*
X198954285Y-48274195D02*
X198859047Y-48321814D01*
X198859047Y-48321814D02*
X198573333Y-48321814D01*
X198573333Y-48321814D02*
X198478095Y-48274195D01*
X198478095Y-48274195D02*
X198430476Y-48226575D01*
X114633476Y-80607819D02*
X114633476Y-81322104D01*
X114633476Y-81322104D02*
X114585857Y-81464961D01*
X114585857Y-81464961D02*
X114490619Y-81560200D01*
X114490619Y-81560200D02*
X114347762Y-81607819D01*
X114347762Y-81607819D02*
X114252524Y-81607819D01*
X115062048Y-80703057D02*
X115109667Y-80655438D01*
X115109667Y-80655438D02*
X115204905Y-80607819D01*
X115204905Y-80607819D02*
X115443000Y-80607819D01*
X115443000Y-80607819D02*
X115538238Y-80655438D01*
X115538238Y-80655438D02*
X115585857Y-80703057D01*
X115585857Y-80703057D02*
X115633476Y-80798295D01*
X115633476Y-80798295D02*
X115633476Y-80893533D01*
X115633476Y-80893533D02*
X115585857Y-81036390D01*
X115585857Y-81036390D02*
X115014429Y-81607819D01*
X115014429Y-81607819D02*
X115633476Y-81607819D01*
X116014429Y-80703057D02*
X116062048Y-80655438D01*
X116062048Y-80655438D02*
X116157286Y-80607819D01*
X116157286Y-80607819D02*
X116395381Y-80607819D01*
X116395381Y-80607819D02*
X116490619Y-80655438D01*
X116490619Y-80655438D02*
X116538238Y-80703057D01*
X116538238Y-80703057D02*
X116585857Y-80798295D01*
X116585857Y-80798295D02*
X116585857Y-80893533D01*
X116585857Y-80893533D02*
X116538238Y-81036390D01*
X116538238Y-81036390D02*
X115966810Y-81607819D01*
X115966810Y-81607819D02*
X116585857Y-81607819D01*
X101507819Y-117837094D02*
X100507819Y-117837094D01*
X100507819Y-117837094D02*
X100507819Y-117598999D01*
X100507819Y-117598999D02*
X100555438Y-117456142D01*
X100555438Y-117456142D02*
X100650676Y-117360904D01*
X100650676Y-117360904D02*
X100745914Y-117313285D01*
X100745914Y-117313285D02*
X100936390Y-117265666D01*
X100936390Y-117265666D02*
X101079247Y-117265666D01*
X101079247Y-117265666D02*
X101269723Y-117313285D01*
X101269723Y-117313285D02*
X101364961Y-117360904D01*
X101364961Y-117360904D02*
X101460200Y-117456142D01*
X101460200Y-117456142D02*
X101507819Y-117598999D01*
X101507819Y-117598999D02*
X101507819Y-117837094D01*
X100603057Y-116884713D02*
X100555438Y-116837094D01*
X100555438Y-116837094D02*
X100507819Y-116741856D01*
X100507819Y-116741856D02*
X100507819Y-116503761D01*
X100507819Y-116503761D02*
X100555438Y-116408523D01*
X100555438Y-116408523D02*
X100603057Y-116360904D01*
X100603057Y-116360904D02*
X100698295Y-116313285D01*
X100698295Y-116313285D02*
X100793533Y-116313285D01*
X100793533Y-116313285D02*
X100936390Y-116360904D01*
X100936390Y-116360904D02*
X101507819Y-116932332D01*
X101507819Y-116932332D02*
X101507819Y-116313285D01*
X134724876Y-110459619D02*
X134724876Y-111173904D01*
X134724876Y-111173904D02*
X134677257Y-111316761D01*
X134677257Y-111316761D02*
X134582019Y-111412000D01*
X134582019Y-111412000D02*
X134439162Y-111459619D01*
X134439162Y-111459619D02*
X134343924Y-111459619D01*
X135724876Y-111459619D02*
X135153448Y-111459619D01*
X135439162Y-111459619D02*
X135439162Y-110459619D01*
X135439162Y-110459619D02*
X135343924Y-110602476D01*
X135343924Y-110602476D02*
X135248686Y-110697714D01*
X135248686Y-110697714D02*
X135153448Y-110745333D01*
X136105829Y-110554857D02*
X136153448Y-110507238D01*
X136153448Y-110507238D02*
X136248686Y-110459619D01*
X136248686Y-110459619D02*
X136486781Y-110459619D01*
X136486781Y-110459619D02*
X136582019Y-110507238D01*
X136582019Y-110507238D02*
X136629638Y-110554857D01*
X136629638Y-110554857D02*
X136677257Y-110650095D01*
X136677257Y-110650095D02*
X136677257Y-110745333D01*
X136677257Y-110745333D02*
X136629638Y-110888190D01*
X136629638Y-110888190D02*
X136058210Y-111459619D01*
X136058210Y-111459619D02*
X136677257Y-111459619D01*
X114633476Y-70419819D02*
X114633476Y-71134104D01*
X114633476Y-71134104D02*
X114585857Y-71276961D01*
X114585857Y-71276961D02*
X114490619Y-71372200D01*
X114490619Y-71372200D02*
X114347762Y-71419819D01*
X114347762Y-71419819D02*
X114252524Y-71419819D01*
X115633476Y-71419819D02*
X115062048Y-71419819D01*
X115347762Y-71419819D02*
X115347762Y-70419819D01*
X115347762Y-70419819D02*
X115252524Y-70562676D01*
X115252524Y-70562676D02*
X115157286Y-70657914D01*
X115157286Y-70657914D02*
X115062048Y-70705533D01*
X116109667Y-71419819D02*
X116300143Y-71419819D01*
X116300143Y-71419819D02*
X116395381Y-71372200D01*
X116395381Y-71372200D02*
X116443000Y-71324580D01*
X116443000Y-71324580D02*
X116538238Y-71181723D01*
X116538238Y-71181723D02*
X116585857Y-70991247D01*
X116585857Y-70991247D02*
X116585857Y-70610295D01*
X116585857Y-70610295D02*
X116538238Y-70515057D01*
X116538238Y-70515057D02*
X116490619Y-70467438D01*
X116490619Y-70467438D02*
X116395381Y-70419819D01*
X116395381Y-70419819D02*
X116204905Y-70419819D01*
X116204905Y-70419819D02*
X116109667Y-70467438D01*
X116109667Y-70467438D02*
X116062048Y-70515057D01*
X116062048Y-70515057D02*
X116014429Y-70610295D01*
X116014429Y-70610295D02*
X116014429Y-70848390D01*
X116014429Y-70848390D02*
X116062048Y-70943628D01*
X116062048Y-70943628D02*
X116109667Y-70991247D01*
X116109667Y-70991247D02*
X116204905Y-71038866D01*
X116204905Y-71038866D02*
X116395381Y-71038866D01*
X116395381Y-71038866D02*
X116490619Y-70991247D01*
X116490619Y-70991247D02*
X116538238Y-70943628D01*
X116538238Y-70943628D02*
X116585857Y-70848390D01*
X142446476Y-94930819D02*
X142446476Y-95645104D01*
X142446476Y-95645104D02*
X142398857Y-95787961D01*
X142398857Y-95787961D02*
X142303619Y-95883200D01*
X142303619Y-95883200D02*
X142160762Y-95930819D01*
X142160762Y-95930819D02*
X142065524Y-95930819D01*
X143446476Y-95930819D02*
X142875048Y-95930819D01*
X143160762Y-95930819D02*
X143160762Y-94930819D01*
X143160762Y-94930819D02*
X143065524Y-95073676D01*
X143065524Y-95073676D02*
X142970286Y-95168914D01*
X142970286Y-95168914D02*
X142875048Y-95216533D01*
X144303619Y-95264152D02*
X144303619Y-95930819D01*
X144065524Y-94883200D02*
X143827429Y-95597485D01*
X143827429Y-95597485D02*
X144446476Y-95597485D01*
X193187673Y-76353660D02*
X193187673Y-77067945D01*
X193187673Y-77067945D02*
X193140054Y-77210802D01*
X193140054Y-77210802D02*
X193044816Y-77306041D01*
X193044816Y-77306041D02*
X192901959Y-77353660D01*
X192901959Y-77353660D02*
X192806721Y-77353660D01*
X194187673Y-77353660D02*
X193616245Y-77353660D01*
X193901959Y-77353660D02*
X193901959Y-76353660D01*
X193901959Y-76353660D02*
X193806721Y-76496517D01*
X193806721Y-76496517D02*
X193711483Y-76591755D01*
X193711483Y-76591755D02*
X193616245Y-76639374D01*
X195092435Y-76353660D02*
X194616245Y-76353660D01*
X194616245Y-76353660D02*
X194568626Y-76829850D01*
X194568626Y-76829850D02*
X194616245Y-76782231D01*
X194616245Y-76782231D02*
X194711483Y-76734612D01*
X194711483Y-76734612D02*
X194949578Y-76734612D01*
X194949578Y-76734612D02*
X195044816Y-76782231D01*
X195044816Y-76782231D02*
X195092435Y-76829850D01*
X195092435Y-76829850D02*
X195140054Y-76925088D01*
X195140054Y-76925088D02*
X195140054Y-77163183D01*
X195140054Y-77163183D02*
X195092435Y-77258421D01*
X195092435Y-77258421D02*
X195044816Y-77306041D01*
X195044816Y-77306041D02*
X194949578Y-77353660D01*
X194949578Y-77353660D02*
X194711483Y-77353660D01*
X194711483Y-77353660D02*
X194616245Y-77306041D01*
X194616245Y-77306041D02*
X194568626Y-77258421D01*
X166388057Y-92324957D02*
X166388057Y-91515434D01*
X166388057Y-91515434D02*
X166340438Y-91420196D01*
X166340438Y-91420196D02*
X166292819Y-91372577D01*
X166292819Y-91372577D02*
X166197581Y-91324957D01*
X166197581Y-91324957D02*
X166007105Y-91324957D01*
X166007105Y-91324957D02*
X165911867Y-91372577D01*
X165911867Y-91372577D02*
X165864248Y-91420196D01*
X165864248Y-91420196D02*
X165816629Y-91515434D01*
X165816629Y-91515434D02*
X165816629Y-92324957D01*
X164816629Y-91324957D02*
X165388057Y-91324957D01*
X165102343Y-91324957D02*
X165102343Y-92324957D01*
X165102343Y-92324957D02*
X165197581Y-92182100D01*
X165197581Y-92182100D02*
X165292819Y-92086862D01*
X165292819Y-92086862D02*
X165388057Y-92039243D01*
X101507819Y-122785094D02*
X100507819Y-122785094D01*
X100507819Y-122785094D02*
X100507819Y-122546999D01*
X100507819Y-122546999D02*
X100555438Y-122404142D01*
X100555438Y-122404142D02*
X100650676Y-122308904D01*
X100650676Y-122308904D02*
X100745914Y-122261285D01*
X100745914Y-122261285D02*
X100936390Y-122213666D01*
X100936390Y-122213666D02*
X101079247Y-122213666D01*
X101079247Y-122213666D02*
X101269723Y-122261285D01*
X101269723Y-122261285D02*
X101364961Y-122308904D01*
X101364961Y-122308904D02*
X101460200Y-122404142D01*
X101460200Y-122404142D02*
X101507819Y-122546999D01*
X101507819Y-122546999D02*
X101507819Y-122785094D01*
X101507819Y-121261285D02*
X101507819Y-121832713D01*
X101507819Y-121546999D02*
X100507819Y-121546999D01*
X100507819Y-121546999D02*
X100650676Y-121642237D01*
X100650676Y-121642237D02*
X100745914Y-121737475D01*
X100745914Y-121737475D02*
X100793533Y-121832713D01*
X173179095Y-124289819D02*
X173179095Y-125099342D01*
X173179095Y-125099342D02*
X173226714Y-125194580D01*
X173226714Y-125194580D02*
X173274333Y-125242200D01*
X173274333Y-125242200D02*
X173369571Y-125289819D01*
X173369571Y-125289819D02*
X173560047Y-125289819D01*
X173560047Y-125289819D02*
X173655285Y-125242200D01*
X173655285Y-125242200D02*
X173702904Y-125194580D01*
X173702904Y-125194580D02*
X173750523Y-125099342D01*
X173750523Y-125099342D02*
X173750523Y-124289819D01*
X174131476Y-124289819D02*
X174750523Y-124289819D01*
X174750523Y-124289819D02*
X174417190Y-124670771D01*
X174417190Y-124670771D02*
X174560047Y-124670771D01*
X174560047Y-124670771D02*
X174655285Y-124718390D01*
X174655285Y-124718390D02*
X174702904Y-124766009D01*
X174702904Y-124766009D02*
X174750523Y-124861247D01*
X174750523Y-124861247D02*
X174750523Y-125099342D01*
X174750523Y-125099342D02*
X174702904Y-125194580D01*
X174702904Y-125194580D02*
X174655285Y-125242200D01*
X174655285Y-125242200D02*
X174560047Y-125289819D01*
X174560047Y-125289819D02*
X174274333Y-125289819D01*
X174274333Y-125289819D02*
X174179095Y-125242200D01*
X174179095Y-125242200D02*
X174131476Y-125194580D01*
X104203559Y-66659783D02*
X104203559Y-65659783D01*
X104203559Y-66135973D02*
X104774987Y-66135973D01*
X104774987Y-66659783D02*
X104774987Y-65659783D01*
X105679749Y-65659783D02*
X105489273Y-65659783D01*
X105489273Y-65659783D02*
X105394035Y-65707402D01*
X105394035Y-65707402D02*
X105346416Y-65755021D01*
X105346416Y-65755021D02*
X105251178Y-65897878D01*
X105251178Y-65897878D02*
X105203559Y-66088354D01*
X105203559Y-66088354D02*
X105203559Y-66469306D01*
X105203559Y-66469306D02*
X105251178Y-66564544D01*
X105251178Y-66564544D02*
X105298797Y-66612164D01*
X105298797Y-66612164D02*
X105394035Y-66659783D01*
X105394035Y-66659783D02*
X105584511Y-66659783D01*
X105584511Y-66659783D02*
X105679749Y-66612164D01*
X105679749Y-66612164D02*
X105727368Y-66564544D01*
X105727368Y-66564544D02*
X105774987Y-66469306D01*
X105774987Y-66469306D02*
X105774987Y-66231211D01*
X105774987Y-66231211D02*
X105727368Y-66135973D01*
X105727368Y-66135973D02*
X105679749Y-66088354D01*
X105679749Y-66088354D02*
X105584511Y-66040735D01*
X105584511Y-66040735D02*
X105394035Y-66040735D01*
X105394035Y-66040735D02*
X105298797Y-66088354D01*
X105298797Y-66088354D02*
X105251178Y-66135973D01*
X105251178Y-66135973D02*
X105203559Y-66231211D01*
X107442095Y-47063819D02*
X107442095Y-46063819D01*
X107442095Y-46540009D02*
X108013523Y-46540009D01*
X108013523Y-47063819D02*
X108013523Y-46063819D01*
X108918285Y-46397152D02*
X108918285Y-47063819D01*
X108680190Y-46016200D02*
X108442095Y-46730485D01*
X108442095Y-46730485D02*
X109061142Y-46730485D01*
X103238095Y-132254819D02*
X103238095Y-131254819D01*
X103238095Y-131731009D02*
X103809523Y-131731009D01*
X103809523Y-132254819D02*
X103809523Y-131254819D01*
X104238095Y-131350057D02*
X104285714Y-131302438D01*
X104285714Y-131302438D02*
X104380952Y-131254819D01*
X104380952Y-131254819D02*
X104619047Y-131254819D01*
X104619047Y-131254819D02*
X104714285Y-131302438D01*
X104714285Y-131302438D02*
X104761904Y-131350057D01*
X104761904Y-131350057D02*
X104809523Y-131445295D01*
X104809523Y-131445295D02*
X104809523Y-131540533D01*
X104809523Y-131540533D02*
X104761904Y-131683390D01*
X104761904Y-131683390D02*
X104190476Y-132254819D01*
X104190476Y-132254819D02*
X104809523Y-132254819D01*
X109519819Y-45259523D02*
X110234104Y-45259523D01*
X110234104Y-45259523D02*
X110376961Y-45307142D01*
X110376961Y-45307142D02*
X110472200Y-45402380D01*
X110472200Y-45402380D02*
X110519819Y-45545237D01*
X110519819Y-45545237D02*
X110519819Y-45640475D01*
X110519819Y-44259523D02*
X110519819Y-44830951D01*
X110519819Y-44545237D02*
X109519819Y-44545237D01*
X109519819Y-44545237D02*
X109662676Y-44640475D01*
X109662676Y-44640475D02*
X109757914Y-44735713D01*
X109757914Y-44735713D02*
X109805533Y-44830951D01*
X109519819Y-43640475D02*
X109519819Y-43545237D01*
X109519819Y-43545237D02*
X109567438Y-43449999D01*
X109567438Y-43449999D02*
X109615057Y-43402380D01*
X109615057Y-43402380D02*
X109710295Y-43354761D01*
X109710295Y-43354761D02*
X109900771Y-43307142D01*
X109900771Y-43307142D02*
X110138866Y-43307142D01*
X110138866Y-43307142D02*
X110329342Y-43354761D01*
X110329342Y-43354761D02*
X110424580Y-43402380D01*
X110424580Y-43402380D02*
X110472200Y-43449999D01*
X110472200Y-43449999D02*
X110519819Y-43545237D01*
X110519819Y-43545237D02*
X110519819Y-43640475D01*
X110519819Y-43640475D02*
X110472200Y-43735713D01*
X110472200Y-43735713D02*
X110424580Y-43783332D01*
X110424580Y-43783332D02*
X110329342Y-43830951D01*
X110329342Y-43830951D02*
X110138866Y-43878570D01*
X110138866Y-43878570D02*
X109900771Y-43878570D01*
X109900771Y-43878570D02*
X109710295Y-43830951D01*
X109710295Y-43830951D02*
X109615057Y-43783332D01*
X109615057Y-43783332D02*
X109567438Y-43735713D01*
X109567438Y-43735713D02*
X109519819Y-43640475D01*
X114633476Y-88199819D02*
X114633476Y-88914104D01*
X114633476Y-88914104D02*
X114585857Y-89056961D01*
X114585857Y-89056961D02*
X114490619Y-89152200D01*
X114490619Y-89152200D02*
X114347762Y-89199819D01*
X114347762Y-89199819D02*
X114252524Y-89199819D01*
X115062048Y-88295057D02*
X115109667Y-88247438D01*
X115109667Y-88247438D02*
X115204905Y-88199819D01*
X115204905Y-88199819D02*
X115443000Y-88199819D01*
X115443000Y-88199819D02*
X115538238Y-88247438D01*
X115538238Y-88247438D02*
X115585857Y-88295057D01*
X115585857Y-88295057D02*
X115633476Y-88390295D01*
X115633476Y-88390295D02*
X115633476Y-88485533D01*
X115633476Y-88485533D02*
X115585857Y-88628390D01*
X115585857Y-88628390D02*
X115014429Y-89199819D01*
X115014429Y-89199819D02*
X115633476Y-89199819D01*
X116538238Y-88199819D02*
X116062048Y-88199819D01*
X116062048Y-88199819D02*
X116014429Y-88676009D01*
X116014429Y-88676009D02*
X116062048Y-88628390D01*
X116062048Y-88628390D02*
X116157286Y-88580771D01*
X116157286Y-88580771D02*
X116395381Y-88580771D01*
X116395381Y-88580771D02*
X116490619Y-88628390D01*
X116490619Y-88628390D02*
X116538238Y-88676009D01*
X116538238Y-88676009D02*
X116585857Y-88771247D01*
X116585857Y-88771247D02*
X116585857Y-89009342D01*
X116585857Y-89009342D02*
X116538238Y-89104580D01*
X116538238Y-89104580D02*
X116490619Y-89152200D01*
X116490619Y-89152200D02*
X116395381Y-89199819D01*
X116395381Y-89199819D02*
X116157286Y-89199819D01*
X116157286Y-89199819D02*
X116062048Y-89152200D01*
X116062048Y-89152200D02*
X116014429Y-89104580D01*
X114633476Y-78039819D02*
X114633476Y-78754104D01*
X114633476Y-78754104D02*
X114585857Y-78896961D01*
X114585857Y-78896961D02*
X114490619Y-78992200D01*
X114490619Y-78992200D02*
X114347762Y-79039819D01*
X114347762Y-79039819D02*
X114252524Y-79039819D01*
X115062048Y-78135057D02*
X115109667Y-78087438D01*
X115109667Y-78087438D02*
X115204905Y-78039819D01*
X115204905Y-78039819D02*
X115443000Y-78039819D01*
X115443000Y-78039819D02*
X115538238Y-78087438D01*
X115538238Y-78087438D02*
X115585857Y-78135057D01*
X115585857Y-78135057D02*
X115633476Y-78230295D01*
X115633476Y-78230295D02*
X115633476Y-78325533D01*
X115633476Y-78325533D02*
X115585857Y-78468390D01*
X115585857Y-78468390D02*
X115014429Y-79039819D01*
X115014429Y-79039819D02*
X115633476Y-79039819D01*
X116252524Y-78039819D02*
X116347762Y-78039819D01*
X116347762Y-78039819D02*
X116443000Y-78087438D01*
X116443000Y-78087438D02*
X116490619Y-78135057D01*
X116490619Y-78135057D02*
X116538238Y-78230295D01*
X116538238Y-78230295D02*
X116585857Y-78420771D01*
X116585857Y-78420771D02*
X116585857Y-78658866D01*
X116585857Y-78658866D02*
X116538238Y-78849342D01*
X116538238Y-78849342D02*
X116490619Y-78944580D01*
X116490619Y-78944580D02*
X116443000Y-78992200D01*
X116443000Y-78992200D02*
X116347762Y-79039819D01*
X116347762Y-79039819D02*
X116252524Y-79039819D01*
X116252524Y-79039819D02*
X116157286Y-78992200D01*
X116157286Y-78992200D02*
X116109667Y-78944580D01*
X116109667Y-78944580D02*
X116062048Y-78849342D01*
X116062048Y-78849342D02*
X116014429Y-78658866D01*
X116014429Y-78658866D02*
X116014429Y-78420771D01*
X116014429Y-78420771D02*
X116062048Y-78230295D01*
X116062048Y-78230295D02*
X116109667Y-78135057D01*
X116109667Y-78135057D02*
X116157286Y-78087438D01*
X116157286Y-78087438D02*
X116252524Y-78039819D01*
X139045216Y-50727140D02*
X139759501Y-50727140D01*
X139759501Y-50727140D02*
X139902358Y-50774759D01*
X139902358Y-50774759D02*
X139997597Y-50869997D01*
X139997597Y-50869997D02*
X140045216Y-51012854D01*
X140045216Y-51012854D02*
X140045216Y-51108092D01*
X139045216Y-50346187D02*
X139045216Y-49727140D01*
X139045216Y-49727140D02*
X139426168Y-50060473D01*
X139426168Y-50060473D02*
X139426168Y-49917616D01*
X139426168Y-49917616D02*
X139473787Y-49822378D01*
X139473787Y-49822378D02*
X139521406Y-49774759D01*
X139521406Y-49774759D02*
X139616644Y-49727140D01*
X139616644Y-49727140D02*
X139854739Y-49727140D01*
X139854739Y-49727140D02*
X139949977Y-49774759D01*
X139949977Y-49774759D02*
X139997597Y-49822378D01*
X139997597Y-49822378D02*
X140045216Y-49917616D01*
X140045216Y-49917616D02*
X140045216Y-50203330D01*
X140045216Y-50203330D02*
X139997597Y-50298568D01*
X139997597Y-50298568D02*
X139949977Y-50346187D01*
X137874476Y-83119819D02*
X137874476Y-83834104D01*
X137874476Y-83834104D02*
X137826857Y-83976961D01*
X137826857Y-83976961D02*
X137731619Y-84072200D01*
X137731619Y-84072200D02*
X137588762Y-84119819D01*
X137588762Y-84119819D02*
X137493524Y-84119819D01*
X138303048Y-83215057D02*
X138350667Y-83167438D01*
X138350667Y-83167438D02*
X138445905Y-83119819D01*
X138445905Y-83119819D02*
X138684000Y-83119819D01*
X138684000Y-83119819D02*
X138779238Y-83167438D01*
X138779238Y-83167438D02*
X138826857Y-83215057D01*
X138826857Y-83215057D02*
X138874476Y-83310295D01*
X138874476Y-83310295D02*
X138874476Y-83405533D01*
X138874476Y-83405533D02*
X138826857Y-83548390D01*
X138826857Y-83548390D02*
X138255429Y-84119819D01*
X138255429Y-84119819D02*
X138874476Y-84119819D01*
X139826857Y-84119819D02*
X139255429Y-84119819D01*
X139541143Y-84119819D02*
X139541143Y-83119819D01*
X139541143Y-83119819D02*
X139445905Y-83262676D01*
X139445905Y-83262676D02*
X139350667Y-83357914D01*
X139350667Y-83357914D02*
X139255429Y-83405533D01*
D12*
%TO.C,J1*%
X141030000Y-46827000D02*
X191950000Y-46827000D01*
X141030000Y-46827000D02*
X141030000Y-44227000D01*
X191950000Y-46827000D02*
X191950000Y-41627000D01*
X141030000Y-44227000D02*
X143630000Y-44227000D01*
X143630000Y-44227000D02*
X143630000Y-41627000D01*
X141030000Y-42957000D02*
X141030000Y-41627000D01*
X141030000Y-41627000D02*
X142360000Y-41627000D01*
X143630000Y-41627000D02*
X191950000Y-41627000D01*
%TO.C,J8*%
X135128000Y-40633000D02*
X135128000Y-40113000D01*
X135128000Y-40113000D02*
X120508000Y-40113000D01*
X134478000Y-55593000D02*
X134478000Y-52263000D01*
X134478000Y-55593000D02*
X121158000Y-55593000D01*
X134478000Y-40633000D02*
X135128000Y-40633000D01*
X134478000Y-40633000D02*
X134478000Y-48743000D01*
X132218000Y-55813000D02*
X130418000Y-55813000D01*
X121158000Y-55593000D02*
X121158000Y-52263000D01*
X121158000Y-48743000D02*
X121158000Y-40633000D01*
X120508000Y-40633000D02*
X121158000Y-40633000D01*
X120508000Y-40113000D02*
X120508000Y-40633000D01*
%TO.C,J17*%
X114383000Y-69425000D02*
X115443000Y-69425000D01*
X114383000Y-70485000D02*
X114383000Y-69425000D01*
X114383000Y-71485000D02*
X114383000Y-71545000D01*
X114383000Y-71485000D02*
X116503000Y-71485000D01*
X114383000Y-71545000D02*
X116503000Y-71545000D01*
X116503000Y-71485000D02*
X116503000Y-71545000D01*
%TO.C,J26*%
X114383000Y-92285000D02*
X115443000Y-92285000D01*
X114383000Y-93345000D02*
X114383000Y-92285000D01*
X114383000Y-94345000D02*
X114383000Y-94405000D01*
X114383000Y-94345000D02*
X116503000Y-94345000D01*
X114383000Y-94405000D02*
X116503000Y-94405000D01*
X116503000Y-94345000D02*
X116503000Y-94405000D01*
%TO.C,J13*%
X149546000Y-74101000D02*
X149546000Y-72771000D01*
X150876000Y-74101000D02*
X149546000Y-74101000D01*
X152146000Y-74101000D02*
X162366000Y-74101000D01*
X152146000Y-74101000D02*
X152146000Y-71501000D01*
X162366000Y-74101000D02*
X162366000Y-68901000D01*
X149546000Y-71501000D02*
X149546000Y-68901000D01*
X152146000Y-71501000D02*
X149546000Y-71501000D01*
X149546000Y-68901000D02*
X162366000Y-68901000D01*
%TO.C,J11*%
X122823169Y-73945648D02*
X124153169Y-73945648D01*
X122823169Y-75275648D02*
X122823169Y-73945648D01*
X122823169Y-76545648D02*
X122823169Y-79145648D01*
X122823169Y-76545648D02*
X125483169Y-76545648D01*
X122823169Y-79145648D02*
X125483169Y-79145648D01*
X125483169Y-76545648D02*
X125483169Y-79145648D01*
%TO.C,J18*%
X137624000Y-87205000D02*
X138684000Y-87205000D01*
X137624000Y-88265000D02*
X137624000Y-87205000D01*
X137624000Y-89265000D02*
X137624000Y-89325000D01*
X137624000Y-89265000D02*
X139744000Y-89265000D01*
X137624000Y-89325000D02*
X139744000Y-89325000D01*
X139744000Y-89265000D02*
X139744000Y-89325000D01*
%TO.C,J23*%
X114383000Y-84665000D02*
X115443000Y-84665000D01*
X114383000Y-85725000D02*
X114383000Y-84665000D01*
X114383000Y-86725000D02*
X114383000Y-86785000D01*
X114383000Y-86725000D02*
X116503000Y-86725000D01*
X114383000Y-86785000D02*
X116503000Y-86785000D01*
X116503000Y-86725000D02*
X116503000Y-86785000D01*
%TO.C,JP1*%
X152733000Y-122982000D02*
X152733000Y-122382000D01*
X153283000Y-124182000D02*
X153883000Y-124182000D01*
X153383000Y-121682000D02*
X156183000Y-121682000D01*
X153583000Y-123882000D02*
X153283000Y-124182000D01*
X153583000Y-123882000D02*
X153883000Y-124182000D01*
X156183000Y-123682000D02*
X153383000Y-123682000D01*
X156833000Y-122382000D02*
X156833000Y-122982000D01*
X153433000Y-121682000D02*
G75*
G03*
X152733000Y-122382000I-1J-699999D01*
G01*
X152733000Y-122982000D02*
G75*
G03*
X153433000Y-123682000I699999J-1D01*
G01*
X156833000Y-122382000D02*
G75*
G03*
X156133000Y-121682000I-700000J0D01*
G01*
X156133000Y-123682000D02*
G75*
G03*
X156833000Y-122982000I0J700000D01*
G01*
%TO.C,J16*%
X142196000Y-94063000D02*
X143256000Y-94063000D01*
X142196000Y-95123000D02*
X142196000Y-94063000D01*
X142196000Y-96123000D02*
X142196000Y-96183000D01*
X142196000Y-96123000D02*
X144316000Y-96123000D01*
X142196000Y-96183000D02*
X144316000Y-96183000D01*
X144316000Y-96123000D02*
X144316000Y-96183000D01*
%TO.C,J29*%
X164167000Y-111970000D02*
X165227000Y-111970000D01*
X164167000Y-113030000D02*
X164167000Y-111970000D01*
X164167000Y-114030000D02*
X164167000Y-114090000D01*
X164167000Y-114030000D02*
X166287000Y-114030000D01*
X164167000Y-114090000D02*
X166287000Y-114090000D01*
X166287000Y-114030000D02*
X166287000Y-114090000D01*
%TO.C,J6*%
X118956000Y-56395000D02*
X118956000Y-107435000D01*
X118956000Y-107435000D02*
X137076000Y-107435000D01*
X121956000Y-56455000D02*
X121956000Y-107375000D01*
X121956000Y-107375000D02*
X134076000Y-107375000D01*
X127016000Y-56455000D02*
X121956000Y-56455000D01*
X134076000Y-56455000D02*
X129016000Y-56455000D01*
X134076000Y-107375000D02*
X134076000Y-56455000D01*
X137076000Y-56395000D02*
X118956000Y-56395000D01*
X137076000Y-107435000D02*
X137076000Y-56395000D01*
X127016000Y-56455000D02*
G75*
G03*
X129016000Y-56455000I1000000J0D01*
G01*
%TO.C,J9*%
X131528000Y-69904000D02*
X131528000Y-128904000D01*
X130568000Y-124864000D02*
X130568000Y-73944000D01*
X130568000Y-124864000D02*
X127968000Y-124864000D01*
X130568000Y-73944000D02*
X125368000Y-73944000D01*
X128468000Y-131964000D02*
X104468000Y-131964000D01*
X127968000Y-124864000D02*
X127968000Y-122264000D01*
X127968000Y-122264000D02*
X125368000Y-122264000D01*
X126698000Y-124864000D02*
X125368000Y-124864000D01*
X125368000Y-124864000D02*
X125368000Y-123534000D01*
X125368000Y-122264000D02*
X125368000Y-73944000D01*
X125028000Y-66844000D02*
X128468000Y-66844000D01*
X125028000Y-66844000D02*
X125028000Y-65644000D01*
X125028000Y-65644000D02*
X107908000Y-65644000D01*
X107908000Y-66844000D02*
X104468000Y-66844000D01*
X107908000Y-65644000D02*
X107908000Y-66844000D01*
X101408000Y-125214000D02*
X101408000Y-128904000D01*
X101408000Y-113794000D02*
X100708000Y-113794000D01*
X101408000Y-94564000D02*
X101408000Y-113794000D01*
X101408000Y-86444000D02*
X99608000Y-86444000D01*
X101408000Y-81964000D02*
X101408000Y-86444000D01*
X101408000Y-73844000D02*
X99608000Y-73844000D01*
X101408000Y-69904000D02*
X101408000Y-73844000D01*
X100708000Y-125214000D02*
X101408000Y-125214000D01*
X100708000Y-113794000D02*
X100708000Y-125214000D01*
X99608000Y-94564000D02*
X101408000Y-94564000D01*
X99608000Y-86444000D02*
X99608000Y-94564000D01*
X99608000Y-81964000D02*
X101408000Y-81964000D01*
X99608000Y-73844000D02*
X99608000Y-81964000D01*
X128468000Y-131964000D02*
G75*
G03*
X131528000Y-128904000I1J3059999D01*
G01*
X131528000Y-69904000D02*
G75*
G03*
X128468000Y-66844000I-3059999J1D01*
G01*
X101408000Y-128904000D02*
G75*
G03*
X104468000Y-131964000I3060000J0D01*
G01*
X104468000Y-66844000D02*
G75*
G03*
X101408000Y-69904000I0J-3060000D01*
G01*
%TO.C,J28*%
X114384001Y-97365000D02*
X115444001Y-97365000D01*
X114384001Y-98425000D02*
X114384001Y-97365000D01*
X114384001Y-99425000D02*
X114384001Y-99485000D01*
X114384001Y-99425000D02*
X116504001Y-99425000D01*
X114384001Y-99485000D02*
X116504001Y-99485000D01*
X116504001Y-99425000D02*
X116504001Y-99485000D01*
%TO.C,J24*%
X114383000Y-87205000D02*
X115443000Y-87205000D01*
X114383000Y-88265000D02*
X114383000Y-87205000D01*
X114383000Y-89265000D02*
X114383000Y-89325000D01*
X114383000Y-89265000D02*
X116503000Y-89265000D01*
X114383000Y-89325000D02*
X116503000Y-89325000D01*
X116503000Y-89265000D02*
X116503000Y-89325000D01*
%TO.C,J2*%
X141030000Y-138373000D02*
X191950000Y-138373000D01*
X141030000Y-138373000D02*
X141030000Y-135773000D01*
X191950000Y-138373000D02*
X191950000Y-133173000D01*
X141030000Y-135773000D02*
X143630000Y-135773000D01*
X143630000Y-135773000D02*
X143630000Y-133173000D01*
X141030000Y-134503000D02*
X141030000Y-133173000D01*
X141030000Y-133173000D02*
X142360000Y-133173000D01*
X143630000Y-133173000D02*
X191950000Y-133173000D01*
%TO.C,J5*%
X193233000Y-81090000D02*
X194503000Y-81090000D01*
X193233000Y-82360000D02*
X193233000Y-81090000D01*
X195545929Y-84520000D02*
X196000071Y-84520000D01*
X195545929Y-85280000D02*
X196000071Y-85280000D01*
X195545929Y-87060000D02*
X196000071Y-87060000D01*
X195545929Y-87820000D02*
X196000071Y-87820000D01*
X195545929Y-89600000D02*
X196000071Y-89600000D01*
X195545929Y-90360000D02*
X196000071Y-90360000D01*
X195545929Y-92140000D02*
X196000071Y-92140000D01*
X195545929Y-92900000D02*
X196000071Y-92900000D01*
X195545929Y-94680000D02*
X196000071Y-94680000D01*
X195545929Y-95440000D02*
X196000071Y-95440000D01*
X195545929Y-97220000D02*
X196000071Y-97220000D01*
X195545929Y-97980000D02*
X196000071Y-97980000D01*
X195545929Y-99760000D02*
X196000071Y-99760000D01*
X195545929Y-100520000D02*
X196000071Y-100520000D01*
X195545929Y-102300000D02*
X196000071Y-102300000D01*
X195545929Y-103060000D02*
X196000071Y-103060000D01*
X195545929Y-104840000D02*
X196000071Y-104840000D01*
X195545929Y-105600000D02*
X196000071Y-105600000D01*
X195545929Y-107380000D02*
X196000071Y-107380000D01*
X195545929Y-108140000D02*
X196000071Y-108140000D01*
X195545929Y-109920000D02*
X196000071Y-109920000D01*
X195545929Y-110680000D02*
X196000071Y-110680000D01*
X195545929Y-112460000D02*
X196000071Y-112460000D01*
X195545929Y-113220000D02*
X196000071Y-113220000D01*
X195545929Y-115000000D02*
X196000071Y-115000000D01*
X195545929Y-115760000D02*
X196000071Y-115760000D01*
X195545929Y-117540000D02*
X196000071Y-117540000D01*
X195545929Y-118300000D02*
X196000071Y-118300000D01*
X195545929Y-120080000D02*
X196000071Y-120080000D01*
X195545929Y-120840000D02*
X196000071Y-120840000D01*
X195545929Y-122620000D02*
X196000071Y-122620000D01*
X195545929Y-123380000D02*
X196000071Y-123380000D01*
X195545929Y-125160000D02*
X196000071Y-125160000D01*
X195545929Y-125920000D02*
X196000071Y-125920000D01*
X195545929Y-127700000D02*
X196000071Y-127700000D01*
X195545929Y-128460000D02*
X196000071Y-128460000D01*
X195545929Y-130240000D02*
X196000071Y-130240000D01*
X195545929Y-131000000D02*
X196000071Y-131000000D01*
X195613000Y-81980000D02*
X196000071Y-81980000D01*
X195613000Y-82740000D02*
X196000071Y-82740000D01*
X198085929Y-81980000D02*
X198483000Y-81980000D01*
X198085929Y-82740000D02*
X198483000Y-82740000D01*
X198085929Y-84520000D02*
X198483000Y-84520000D01*
X198085929Y-85280000D02*
X198483000Y-85280000D01*
X198085929Y-87060000D02*
X198483000Y-87060000D01*
X198085929Y-87820000D02*
X198483000Y-87820000D01*
X198085929Y-89600000D02*
X198483000Y-89600000D01*
X198085929Y-90360000D02*
X198483000Y-90360000D01*
X198085929Y-92140000D02*
X198483000Y-92140000D01*
X198085929Y-92900000D02*
X198483000Y-92900000D01*
X198085929Y-94680000D02*
X198483000Y-94680000D01*
X198085929Y-95440000D02*
X198483000Y-95440000D01*
X198085929Y-97220000D02*
X198483000Y-97220000D01*
X198085929Y-97980000D02*
X198483000Y-97980000D01*
X198085929Y-99760000D02*
X198483000Y-99760000D01*
X198085929Y-100520000D02*
X198483000Y-100520000D01*
X198085929Y-102300000D02*
X198483000Y-102300000D01*
X198085929Y-103060000D02*
X198483000Y-103060000D01*
X198085929Y-104840000D02*
X198483000Y-104840000D01*
X198085929Y-105600000D02*
X198483000Y-105600000D01*
X198085929Y-107380000D02*
X198483000Y-107380000D01*
X198085929Y-108140000D02*
X198483000Y-108140000D01*
X198085929Y-109920000D02*
X198483000Y-109920000D01*
X198085929Y-110680000D02*
X198483000Y-110680000D01*
X198085929Y-112460000D02*
X198483000Y-112460000D01*
X198085929Y-113220000D02*
X198483000Y-113220000D01*
X198085929Y-115000000D02*
X198483000Y-115000000D01*
X198085929Y-115760000D02*
X198483000Y-115760000D01*
X198085929Y-117540000D02*
X198483000Y-117540000D01*
X198085929Y-118300000D02*
X198483000Y-118300000D01*
X198085929Y-120080000D02*
X198483000Y-120080000D01*
X198085929Y-120840000D02*
X198483000Y-120840000D01*
X198085929Y-122620000D02*
X198483000Y-122620000D01*
X198085929Y-123380000D02*
X198483000Y-123380000D01*
X198085929Y-125160000D02*
X198483000Y-125160000D01*
X198085929Y-125920000D02*
X198483000Y-125920000D01*
X198085929Y-127700000D02*
X198483000Y-127700000D01*
X198085929Y-128460000D02*
X198483000Y-128460000D01*
X198085929Y-130240000D02*
X198483000Y-130240000D01*
X198085929Y-131000000D02*
X198483000Y-131000000D01*
X198483000Y-81030000D02*
X198483000Y-131950000D01*
X198483000Y-83630000D02*
X201143000Y-83630000D01*
X198483000Y-86170000D02*
X201143000Y-86170000D01*
X198483000Y-88710000D02*
X201143000Y-88710000D01*
X198483000Y-91250000D02*
X201143000Y-91250000D01*
X198483000Y-93790000D02*
X201143000Y-93790000D01*
X198483000Y-96330000D02*
X201143000Y-96330000D01*
X198483000Y-98870000D02*
X201143000Y-98870000D01*
X198483000Y-101410000D02*
X201143000Y-101410000D01*
X198483000Y-103950000D02*
X201143000Y-103950000D01*
X198483000Y-106490000D02*
X201143000Y-106490000D01*
X198483000Y-109030000D02*
X201143000Y-109030000D01*
X198483000Y-111570000D02*
X201143000Y-111570000D01*
X198483000Y-114110000D02*
X201143000Y-114110000D01*
X198483000Y-116650000D02*
X201143000Y-116650000D01*
X198483000Y-119190000D02*
X201143000Y-119190000D01*
X198483000Y-121730000D02*
X201143000Y-121730000D01*
X198483000Y-124270000D02*
X201143000Y-124270000D01*
X198483000Y-126810000D02*
X201143000Y-126810000D01*
X198483000Y-129350000D02*
X201143000Y-129350000D01*
X198483000Y-131950000D02*
X201143000Y-131950000D01*
X201143000Y-81030000D02*
X198483000Y-81030000D01*
X201143000Y-81980000D02*
X207143000Y-81980000D01*
X201143000Y-82040000D02*
X207143000Y-82040000D01*
X201143000Y-82160000D02*
X207143000Y-82160000D01*
X201143000Y-82280000D02*
X207143000Y-82280000D01*
X201143000Y-82400000D02*
X207143000Y-82400000D01*
X201143000Y-82520000D02*
X207143000Y-82520000D01*
X201143000Y-82640000D02*
X207143000Y-82640000D01*
X201143000Y-84520000D02*
X207143000Y-84520000D01*
X201143000Y-87060000D02*
X207143000Y-87060000D01*
X201143000Y-89600000D02*
X207143000Y-89600000D01*
X201143000Y-92140000D02*
X207143000Y-92140000D01*
X201143000Y-94680000D02*
X207143000Y-94680000D01*
X201143000Y-97220000D02*
X207143000Y-97220000D01*
X201143000Y-99760000D02*
X207143000Y-99760000D01*
X201143000Y-102300000D02*
X207143000Y-102300000D01*
X201143000Y-104840000D02*
X207143000Y-104840000D01*
X201143000Y-107380000D02*
X207143000Y-107380000D01*
X201143000Y-109920000D02*
X207143000Y-109920000D01*
X201143000Y-112460000D02*
X207143000Y-112460000D01*
X201143000Y-115000000D02*
X207143000Y-115000000D01*
X201143000Y-117540000D02*
X207143000Y-117540000D01*
X201143000Y-120080000D02*
X207143000Y-120080000D01*
X201143000Y-122620000D02*
X207143000Y-122620000D01*
X201143000Y-125160000D02*
X207143000Y-125160000D01*
X201143000Y-127700000D02*
X207143000Y-127700000D01*
X201143000Y-130240000D02*
X207143000Y-130240000D01*
X201143000Y-131950000D02*
X201143000Y-81030000D01*
X207143000Y-81980000D02*
X207143000Y-82740000D01*
X207143000Y-82740000D02*
X201143000Y-82740000D01*
X207143000Y-84520000D02*
X207143000Y-85280000D01*
X207143000Y-85280000D02*
X201143000Y-85280000D01*
X207143000Y-87060000D02*
X207143000Y-87820000D01*
X207143000Y-87820000D02*
X201143000Y-87820000D01*
X207143000Y-89600000D02*
X207143000Y-90360000D01*
X207143000Y-90360000D02*
X201143000Y-90360000D01*
X207143000Y-92140000D02*
X207143000Y-92900000D01*
X207143000Y-92900000D02*
X201143000Y-92900000D01*
X207143000Y-94680000D02*
X207143000Y-95440000D01*
X207143000Y-95440000D02*
X201143000Y-95440000D01*
X207143000Y-97220000D02*
X207143000Y-97980000D01*
X207143000Y-97980000D02*
X201143000Y-97980000D01*
X207143000Y-99760000D02*
X207143000Y-100520000D01*
X207143000Y-100520000D02*
X201143000Y-100520000D01*
X207143000Y-102300000D02*
X207143000Y-103060000D01*
X207143000Y-103060000D02*
X201143000Y-103060000D01*
X207143000Y-104840000D02*
X207143000Y-105600000D01*
X207143000Y-105600000D02*
X201143000Y-105600000D01*
X207143000Y-107380000D02*
X207143000Y-108140000D01*
X207143000Y-108140000D02*
X201143000Y-108140000D01*
X207143000Y-109920000D02*
X207143000Y-110680000D01*
X207143000Y-110680000D02*
X201143000Y-110680000D01*
X207143000Y-112460000D02*
X207143000Y-113220000D01*
X207143000Y-113220000D02*
X201143000Y-113220000D01*
X207143000Y-115000000D02*
X207143000Y-115760000D01*
X207143000Y-115760000D02*
X201143000Y-115760000D01*
X207143000Y-117540000D02*
X207143000Y-118300000D01*
X207143000Y-118300000D02*
X201143000Y-118300000D01*
X207143000Y-120080000D02*
X207143000Y-120840000D01*
X207143000Y-120840000D02*
X201143000Y-120840000D01*
X207143000Y-122620000D02*
X207143000Y-123380000D01*
X207143000Y-123380000D02*
X201143000Y-123380000D01*
X207143000Y-125160000D02*
X207143000Y-125920000D01*
X207143000Y-125920000D02*
X201143000Y-125920000D01*
X207143000Y-127700000D02*
X207143000Y-128460000D01*
X207143000Y-128460000D02*
X201143000Y-128460000D01*
X207143000Y-130240000D02*
X207143000Y-131000000D01*
X207143000Y-131000000D02*
X201143000Y-131000000D01*
%TO.C,J27*%
X114383000Y-94825000D02*
X115443000Y-94825000D01*
X114383000Y-95885000D02*
X114383000Y-94825000D01*
X114383000Y-96885000D02*
X114383000Y-96945000D01*
X114383000Y-96885000D02*
X116503000Y-96885000D01*
X114383000Y-96945000D02*
X116503000Y-96945000D01*
X116503000Y-96885000D02*
X116503000Y-96945000D01*
%TO.C,C4*%
X136758000Y-43891252D02*
X136758000Y-42468748D01*
X138578000Y-43891252D02*
X138578000Y-42468748D01*
%TO.C,J22*%
X114383000Y-82153000D02*
X115443000Y-82153000D01*
X114383000Y-83213000D02*
X114383000Y-82153000D01*
X114383000Y-84213000D02*
X114383000Y-84273000D01*
X114383000Y-84213000D02*
X116503000Y-84213000D01*
X114383000Y-84273000D02*
X116503000Y-84273000D01*
X116503000Y-84213000D02*
X116503000Y-84273000D01*
%TO.C,J4*%
X141039130Y-132198879D02*
X191959130Y-132198879D01*
X141039130Y-132198879D02*
X141039130Y-129598879D01*
X191959130Y-132198879D02*
X191959130Y-126998879D01*
X141039130Y-129598879D02*
X143639130Y-129598879D01*
X143639130Y-129598879D02*
X143639130Y-126998879D01*
X141039130Y-128328879D02*
X141039130Y-126998879D01*
X141039130Y-126998879D02*
X142369130Y-126998879D01*
X143639130Y-126998879D02*
X191959130Y-126998879D01*
%TO.C,D2*%
X102777000Y-118659000D02*
X102933000Y-118659000D01*
X105093000Y-118659000D02*
X105249000Y-118659000D01*
X102934392Y-115426666D02*
G75*
G03*
X102777485Y-118658999I1078608J-1672334D01*
G01*
X102933164Y-116057871D02*
G75*
G03*
X102933001Y-118139960I1079836J-1041129D01*
G01*
X105092999Y-118139960D02*
G75*
G03*
X105092836Y-116057871I-1079999J1040960D01*
G01*
X105248515Y-118658999D02*
G75*
G03*
X105091608Y-115426666I-1235515J1559999D01*
G01*
%TO.C,J12*%
X134204400Y-112004800D02*
X135534400Y-112004800D01*
X134204400Y-113334800D02*
X134204400Y-112004800D01*
X134204400Y-114604800D02*
X134204400Y-117204800D01*
X134204400Y-114604800D02*
X136864400Y-114604800D01*
X134204400Y-117204800D02*
X136864400Y-117204800D01*
X136864400Y-114604800D02*
X136864400Y-117204800D01*
%TO.C,J19*%
X114383000Y-71965000D02*
X115443000Y-71965000D01*
X114383000Y-73025000D02*
X114383000Y-71965000D01*
X114383000Y-74025000D02*
X114383000Y-74085000D01*
X114383000Y-74025000D02*
X116503000Y-74025000D01*
X114383000Y-74085000D02*
X116503000Y-74085000D01*
X116503000Y-74025000D02*
X116503000Y-74085000D01*
%TO.C,J14*%
X142196000Y-96476000D02*
X143256000Y-96476000D01*
X142196000Y-97536000D02*
X142196000Y-96476000D01*
X142196000Y-98536000D02*
X142196000Y-98596000D01*
X142196000Y-98536000D02*
X144316000Y-98536000D01*
X142196000Y-98596000D02*
X144316000Y-98596000D01*
X144316000Y-98536000D02*
X144316000Y-98596000D01*
%TO.C,J15*%
X193175197Y-81149841D02*
X193175197Y-79819841D01*
X194505197Y-81149841D02*
X193175197Y-81149841D01*
X195775197Y-81149841D02*
X198375197Y-81149841D01*
X195775197Y-81149841D02*
X195775197Y-78489841D01*
X198375197Y-81149841D02*
X198375197Y-78489841D01*
X195775197Y-78489841D02*
X198375197Y-78489841D01*
%TO.C,U1*%
X189925000Y-99762000D02*
X189925000Y-125282000D01*
X189925000Y-82672000D02*
X188595000Y-82672000D01*
X189925000Y-81342000D02*
X189925000Y-82672000D01*
X189925000Y-80072000D02*
X189925000Y-57152000D01*
X189925000Y-80072000D02*
X187325000Y-80072000D01*
X189925000Y-57152000D02*
X184725000Y-57152000D01*
X187325000Y-102362000D02*
X187325000Y-99762000D01*
X187325000Y-99762000D02*
X189925000Y-99762000D01*
X187325000Y-82672000D02*
X184725000Y-82672000D01*
X187325000Y-80072000D02*
X187325000Y-82672000D01*
X184725000Y-125282000D02*
X189925000Y-125282000D01*
X184725000Y-102362000D02*
X187325000Y-102362000D01*
X184725000Y-102362000D02*
X184725000Y-125282000D01*
X184725000Y-101092000D02*
X184725000Y-99762000D01*
X184725000Y-99762000D02*
X186055000Y-99762000D01*
X184725000Y-82672000D02*
X184725000Y-57152000D01*
X149497211Y-88760101D02*
X149497211Y-96440101D01*
X146837211Y-96440101D02*
X149497211Y-96440101D01*
X146837211Y-88760101D02*
X149497211Y-88760101D01*
X146837211Y-88760101D02*
X146837211Y-96440101D01*
X146837211Y-87490101D02*
X146837211Y-86160101D01*
X146827211Y-86160101D02*
X148157211Y-86160101D01*
X146425000Y-99762000D02*
X146425000Y-125282000D01*
X146425000Y-82672000D02*
X145095000Y-82672000D01*
X146425000Y-81342000D02*
X146425000Y-82672000D01*
X146425000Y-80072000D02*
X146425000Y-57152000D01*
X146425000Y-80072000D02*
X143825000Y-80072000D01*
X146425000Y-57152000D02*
X141225000Y-57152000D01*
X143825000Y-102362000D02*
X143825000Y-99762000D01*
X143825000Y-99762000D02*
X146425000Y-99762000D01*
X143825000Y-82672000D02*
X141225000Y-82672000D01*
X143825000Y-80072000D02*
X143825000Y-82672000D01*
X141225000Y-125282000D02*
X146425000Y-125282000D01*
X141225000Y-102362000D02*
X143825000Y-102362000D01*
X141225000Y-102362000D02*
X141225000Y-125282000D01*
X141225000Y-101092000D02*
X141225000Y-99762000D01*
X141225000Y-99762000D02*
X142555000Y-99762000D01*
X141225000Y-82672000D02*
X141225000Y-57152000D01*
%TO.C,D1*%
X102777000Y-123607000D02*
X102933000Y-123607000D01*
X105093000Y-123607000D02*
X105249000Y-123607000D01*
X102934392Y-120374666D02*
G75*
G03*
X102777485Y-123606999I1078608J-1672334D01*
G01*
X102933164Y-121005871D02*
G75*
G03*
X102933001Y-123087960I1079836J-1041129D01*
G01*
X105092999Y-123087960D02*
G75*
G03*
X105092836Y-121005871I-1079999J1040960D01*
G01*
X105248515Y-123606999D02*
G75*
G03*
X105091608Y-120374666I-1235515J1559999D01*
G01*
%TO.C,U3*%
X177801000Y-123995000D02*
X177801000Y-123750000D01*
X177801000Y-123750000D02*
X179616000Y-123750000D01*
X177801000Y-105875000D02*
X177801000Y-106120000D01*
X173941000Y-123995000D02*
X177801000Y-123995000D01*
X173941000Y-123995000D02*
X170081000Y-123995000D01*
X173941000Y-105875000D02*
X177801000Y-105875000D01*
X173941000Y-105875000D02*
X170081000Y-105875000D01*
X170081000Y-123995000D02*
X170081000Y-123750000D01*
X170081000Y-105875000D02*
X170081000Y-106120000D01*
%TO.C,J10*%
X111065000Y-47050000D02*
X111065000Y-45720000D01*
X112395000Y-47050000D02*
X111065000Y-47050000D01*
X113665000Y-47050000D02*
X118805000Y-47050000D01*
X113665000Y-47050000D02*
X113665000Y-44450000D01*
X118805000Y-47050000D02*
X118805000Y-41850000D01*
X111065000Y-44450000D02*
X111065000Y-41850000D01*
X113665000Y-44450000D02*
X111065000Y-44450000D01*
X111065000Y-41850000D02*
X118805000Y-41850000D01*
%TO.C,J25*%
X114383000Y-89745000D02*
X115443000Y-89745000D01*
X114383000Y-90805000D02*
X114383000Y-89745000D01*
X114383000Y-91805000D02*
X114383000Y-91865000D01*
X114383000Y-91805000D02*
X116503000Y-91805000D01*
X114383000Y-91865000D02*
X116503000Y-91865000D01*
X116503000Y-91805000D02*
X116503000Y-91865000D01*
%TO.C,J20*%
X114383000Y-79585000D02*
X115443000Y-79585000D01*
X114383000Y-80645000D02*
X114383000Y-79585000D01*
X114383000Y-81645000D02*
X114383000Y-81705000D01*
X114383000Y-81645000D02*
X116503000Y-81645000D01*
X114383000Y-81705000D02*
X116503000Y-81705000D01*
X116503000Y-81645000D02*
X116503000Y-81705000D01*
%TO.C,J3*%
X141030397Y-52993807D02*
X191950397Y-52993807D01*
X141030397Y-52993807D02*
X141030397Y-50393807D01*
X191950397Y-52993807D02*
X191950397Y-47793807D01*
X141030397Y-50393807D02*
X143630397Y-50393807D01*
X143630397Y-50393807D02*
X143630397Y-47793807D01*
X141030397Y-49123807D02*
X141030397Y-47793807D01*
X141030397Y-47793807D02*
X142360397Y-47793807D01*
X143630397Y-47793807D02*
X191950397Y-47793807D01*
%TO.C,J21*%
X137624000Y-84665000D02*
X138684000Y-84665000D01*
X137624000Y-85725000D02*
X137624000Y-84665000D01*
X137624000Y-86725000D02*
X137624000Y-86785000D01*
X137624000Y-86725000D02*
X139744000Y-86725000D01*
X137624000Y-86785000D02*
X139744000Y-86785000D01*
X139744000Y-86725000D02*
X139744000Y-86785000D01*
%TD*%
M02*
