%TF.GenerationSoftware,KiCad,Pcbnew,7.0.7-7.0.7~ubuntu20.04.1*%
%TF.CreationDate,2023-09-08T15:38:02+02:00*%
%TF.ProjectId,cpld_board_max2,63706c64-5f62-46f6-9172-645f6d617832,rev?*%
%TF.SameCoordinates,Original*%
%TF.FileFunction,Paste,Bot*%
%TF.FilePolarity,Positive*%
%FSLAX46Y46*%
G04 Gerber Fmt 4.6, Leading zero omitted, Abs format (unit mm)*
G04 Created by KiCad (PCBNEW 7.0.7-7.0.7~ubuntu20.04.1) date 2023-09-08 15:38:02*
%MOMM*%
%LPD*%
G01*
G04 APERTURE LIST*
G04 Aperture macros list*
%AMRoundRect*
0 Rectangle with rounded corners*
0 $1 Rounding radius*
0 $2 $3 $4 $5 $6 $7 $8 $9 X,Y pos of 4 corners*
0 Add a 4 corners polygon primitive as box body*
4,1,4,$2,$3,$4,$5,$6,$7,$8,$9,$2,$3,0*
0 Add four circle primitives for the rounded corners*
1,1,$1+$1,$2,$3*
1,1,$1+$1,$4,$5*
1,1,$1+$1,$6,$7*
1,1,$1+$1,$8,$9*
0 Add four rect primitives between the rounded corners*
20,1,$1+$1,$2,$3,$4,$5,0*
20,1,$1+$1,$4,$5,$6,$7,0*
20,1,$1+$1,$6,$7,$8,$9,0*
20,1,$1+$1,$8,$9,$2,$3,0*%
G04 Aperture macros list end*
%ADD10RoundRect,0.250000X-0.400000X-0.625000X0.400000X-0.625000X0.400000X0.625000X-0.400000X0.625000X0*%
%ADD11RoundRect,0.150000X-0.150000X0.837500X-0.150000X-0.837500X0.150000X-0.837500X0.150000X0.837500X0*%
%ADD12RoundRect,0.250000X0.325000X0.650000X-0.325000X0.650000X-0.325000X-0.650000X0.325000X-0.650000X0*%
%ADD13R,1.750000X0.700000*%
%ADD14R,1.000000X1.450000*%
%ADD15R,1.550000X1.000000*%
%ADD16R,1.500000X0.800000*%
%ADD17R,1.500000X1.300000*%
%ADD18R,1.500000X1.500000*%
%ADD19R,1.400000X0.800000*%
%ADD20RoundRect,0.250000X-0.325000X-0.650000X0.325000X-0.650000X0.325000X0.650000X-0.325000X0.650000X0*%
G04 APERTURE END LIST*
D10*
%TO.C,R1*%
X102743000Y-85471000D03*
X105843000Y-85471000D03*
%TD*%
D11*
%TO.C,U2*%
X149667000Y-76514000D03*
X150937000Y-76514000D03*
X152207000Y-76514000D03*
X153477000Y-76514000D03*
X154747000Y-76514000D03*
X156017000Y-76514000D03*
X157287000Y-76514000D03*
X158557000Y-76514000D03*
X159827000Y-76514000D03*
X161097000Y-76514000D03*
X161097000Y-83439000D03*
X159827000Y-83439000D03*
X158557000Y-83439000D03*
X157287000Y-83439000D03*
X156017000Y-83439000D03*
X154747000Y-83439000D03*
X153477000Y-83439000D03*
X152207000Y-83439000D03*
X150937000Y-83439000D03*
X149667000Y-83439000D03*
%TD*%
D10*
%TO.C,R4*%
X107315000Y-120777000D03*
X110415000Y-120777000D03*
%TD*%
D12*
%TO.C,C2*%
X147447000Y-84455000D03*
X144497000Y-84455000D03*
%TD*%
D13*
%TO.C,J7*%
X102535000Y-53532000D03*
X102535000Y-54632000D03*
X102535000Y-55732000D03*
X102535000Y-56832000D03*
X102535000Y-57932000D03*
X102535000Y-59032000D03*
X102535000Y-60132000D03*
X102535000Y-61232000D03*
D14*
X111760000Y-62357000D03*
D15*
X113335000Y-51132000D03*
D16*
X110260000Y-62682000D03*
D17*
X102660000Y-62432000D03*
D18*
X102660000Y-51082000D03*
D19*
X110910000Y-50732000D03*
%TD*%
D10*
%TO.C,R2*%
X102743000Y-95504000D03*
X105843000Y-95504000D03*
%TD*%
%TO.C,R5*%
X107315000Y-118364000D03*
X110415000Y-118364000D03*
%TD*%
D20*
%TO.C,C3*%
X172564000Y-122936000D03*
X175514000Y-122936000D03*
%TD*%
D10*
%TO.C,R3*%
X102743000Y-105537000D03*
X105843000Y-105537000D03*
%TD*%
D20*
%TO.C,C1*%
X102538000Y-65151000D03*
X105488000Y-65151000D03*
%TD*%
M02*
