%TF.GenerationSoftware,KiCad,Pcbnew,7.0.7-7.0.7~ubuntu20.04.1*%
%TF.CreationDate,2023-09-08T15:38:02+02:00*%
%TF.ProjectId,cpld_board_max2,63706c64-5f62-46f6-9172-645f6d617832,rev?*%
%TF.SameCoordinates,Original*%
%TF.FileFunction,Soldermask,Top*%
%TF.FilePolarity,Negative*%
%FSLAX46Y46*%
G04 Gerber Fmt 4.6, Leading zero omitted, Abs format (unit mm)*
G04 Created by KiCad (PCBNEW 7.0.7-7.0.7~ubuntu20.04.1) date 2023-09-08 15:38:02*
%MOMM*%
%LPD*%
G01*
G04 APERTURE LIST*
G04 Aperture macros list*
%AMRoundRect*
0 Rectangle with rounded corners*
0 $1 Rounding radius*
0 $2 $3 $4 $5 $6 $7 $8 $9 X,Y pos of 4 corners*
0 Add a 4 corners polygon primitive as box body*
4,1,4,$2,$3,$4,$5,$6,$7,$8,$9,$2,$3,0*
0 Add four circle primitives for the rounded corners*
1,1,$1+$1,$2,$3*
1,1,$1+$1,$4,$5*
1,1,$1+$1,$6,$7*
1,1,$1+$1,$8,$9*
0 Add four rect primitives between the rounded corners*
20,1,$1+$1,$2,$3,$4,$5,0*
20,1,$1+$1,$4,$5,$6,$7,0*
20,1,$1+$1,$6,$7,$8,$9,0*
20,1,$1+$1,$8,$9,$2,$3,0*%
%AMFreePoly0*
4,1,19,0.550000,-0.750000,0.000000,-0.750000,0.000000,-0.744911,-0.071157,-0.744911,-0.207708,-0.704816,-0.327430,-0.627875,-0.420627,-0.520320,-0.479746,-0.390866,-0.500000,-0.250000,-0.500000,0.250000,-0.479746,0.390866,-0.420627,0.520320,-0.327430,0.627875,-0.207708,0.704816,-0.071157,0.744911,0.000000,0.744911,0.000000,0.750000,0.550000,0.750000,0.550000,-0.750000,0.550000,-0.750000,
$1*%
%AMFreePoly1*
4,1,19,0.000000,0.744911,0.071157,0.744911,0.207708,0.704816,0.327430,0.627875,0.420627,0.520320,0.479746,0.390866,0.500000,0.250000,0.500000,-0.250000,0.479746,-0.390866,0.420627,-0.520320,0.327430,-0.627875,0.207708,-0.704816,0.071157,-0.744911,0.000000,-0.744911,0.000000,-0.750000,-0.550000,-0.750000,-0.550000,0.750000,0.000000,0.750000,0.000000,0.744911,0.000000,0.744911,
$1*%
G04 Aperture macros list end*
%ADD10R,1.700000X1.700000*%
%ADD11O,1.700000X1.700000*%
%ADD12R,1.600000X1.500000*%
%ADD13C,1.600000*%
%ADD14C,3.000000*%
%ADD15R,1.350000X1.350000*%
%ADD16C,3.200000*%
%ADD17FreePoly0,0.000000*%
%ADD18R,1.000000X1.500000*%
%ADD19FreePoly1,0.000000*%
%ADD20R,2.400000X1.600000*%
%ADD21O,2.400000X1.600000*%
%ADD22C,6.000000*%
%ADD23RoundRect,0.250000X0.650000X-0.325000X0.650000X0.325000X-0.650000X0.325000X-0.650000X-0.325000X0*%
%ADD24R,1.800000X1.800000*%
%ADD25C,1.800000*%
%ADD26RoundRect,0.150000X0.875000X0.150000X-0.875000X0.150000X-0.875000X-0.150000X0.875000X-0.150000X0*%
%ADD27C,2.000000*%
G04 APERTURE END LIST*
D10*
%TO.C,J1*%
X142360000Y-42957000D03*
D11*
X142360000Y-45497000D03*
X144900000Y-42957000D03*
X144900000Y-45497000D03*
X147440000Y-42957000D03*
X147440000Y-45497000D03*
X149980000Y-42957000D03*
X149980000Y-45497000D03*
X152520000Y-42957000D03*
X152520000Y-45497000D03*
X155060000Y-42957000D03*
X155060000Y-45497000D03*
X157600000Y-42957000D03*
X157600000Y-45497000D03*
X160140000Y-42957000D03*
X160140000Y-45497000D03*
X162680000Y-42957000D03*
X162680000Y-45497000D03*
X165220000Y-42957000D03*
X165220000Y-45497000D03*
X167760000Y-42957000D03*
X167760000Y-45497000D03*
X170300000Y-42957000D03*
X170300000Y-45497000D03*
X172840000Y-42957000D03*
X172840000Y-45497000D03*
X175380000Y-42957000D03*
X175380000Y-45497000D03*
X177920000Y-42957000D03*
X177920000Y-45497000D03*
X180460000Y-42957000D03*
X180460000Y-45497000D03*
X183000000Y-42957000D03*
X183000000Y-45497000D03*
X185540000Y-42957000D03*
X185540000Y-45497000D03*
X188080000Y-42957000D03*
X188080000Y-45497000D03*
X190620000Y-42957000D03*
X190620000Y-45497000D03*
%TD*%
D12*
%TO.C,J8*%
X131318000Y-53213000D03*
D13*
X128818000Y-53213000D03*
X126818000Y-53213000D03*
X124318000Y-53213000D03*
D14*
X134388000Y-50503000D03*
X121248000Y-50503000D03*
%TD*%
D15*
%TO.C,J17*%
X115443000Y-70485000D03*
%TD*%
%TO.C,J26*%
X115443000Y-93345000D03*
%TD*%
D16*
%TO.C,H8*%
X104966691Y-128409913D03*
%TD*%
D10*
%TO.C,J13*%
X150876000Y-72771000D03*
D11*
X150876000Y-70231000D03*
X153416000Y-72771000D03*
X153416000Y-70231000D03*
X155956000Y-72771000D03*
X155956000Y-70231000D03*
X158496000Y-72771000D03*
X158496000Y-70231000D03*
X161036000Y-72771000D03*
X161036000Y-70231000D03*
%TD*%
D10*
%TO.C,J11*%
X124153169Y-75275648D03*
D11*
X124153169Y-77815648D03*
%TD*%
D15*
%TO.C,J18*%
X138684000Y-88265000D03*
%TD*%
%TO.C,J23*%
X115443000Y-85725000D03*
%TD*%
D17*
%TO.C,JP1*%
X153483000Y-122682000D03*
D18*
X154783000Y-122682000D03*
D19*
X156083000Y-122682000D03*
%TD*%
D15*
%TO.C,J16*%
X143256000Y-95123000D03*
%TD*%
%TO.C,J29*%
X165227000Y-113030000D03*
%TD*%
D16*
%TO.C,H1*%
X196000000Y-136000000D03*
%TD*%
D20*
%TO.C,J6*%
X120396000Y-57785000D03*
D21*
X120396000Y-60325000D03*
X120396000Y-62865000D03*
X120396000Y-65405000D03*
X120396000Y-67945000D03*
X120396000Y-70485000D03*
X120396000Y-73025000D03*
X120396000Y-75565000D03*
X120396000Y-78105000D03*
X120396000Y-80645000D03*
X120396000Y-83185000D03*
X120396000Y-85725000D03*
X120396000Y-88265000D03*
X120396000Y-90805000D03*
X120396000Y-93345000D03*
X120396000Y-95885000D03*
X120396000Y-98425000D03*
X120396000Y-100965000D03*
X120396000Y-103505000D03*
X120396000Y-106045000D03*
X135636000Y-106045000D03*
X135636000Y-103505000D03*
X135636000Y-100965000D03*
X135636000Y-98425000D03*
X135636000Y-95885000D03*
X135636000Y-93345000D03*
X135636000Y-90805000D03*
X135636000Y-88265000D03*
X135636000Y-85725000D03*
X135636000Y-83185000D03*
X135636000Y-80645000D03*
X135636000Y-78105000D03*
X135636000Y-75565000D03*
X135636000Y-73025000D03*
X135636000Y-70485000D03*
X135636000Y-67945000D03*
X135636000Y-65405000D03*
X135636000Y-62865000D03*
X135636000Y-60325000D03*
X135636000Y-57785000D03*
%TD*%
D22*
%TO.C,J9*%
X127968000Y-128404000D03*
X127968000Y-70404000D03*
X104968000Y-128404000D03*
X104968000Y-70404000D03*
D10*
X126698000Y-123534000D03*
D11*
X129238000Y-123534000D03*
X126698000Y-120994000D03*
X129238000Y-120994000D03*
X126698000Y-118454000D03*
X129238000Y-118454000D03*
X126698000Y-115914000D03*
X129238000Y-115914000D03*
X126698000Y-113374000D03*
X129238000Y-113374000D03*
X126698000Y-110834000D03*
X129238000Y-110834000D03*
X126698000Y-108294000D03*
X129238000Y-108294000D03*
X126698000Y-105754000D03*
X129238000Y-105754000D03*
X126698000Y-103214000D03*
X129238000Y-103214000D03*
X126698000Y-100674000D03*
X129238000Y-100674000D03*
X126698000Y-98134000D03*
X129238000Y-98134000D03*
X126698000Y-95594000D03*
X129238000Y-95594000D03*
X126698000Y-93054000D03*
X129238000Y-93054000D03*
X126698000Y-90514000D03*
X129238000Y-90514000D03*
X126698000Y-87974000D03*
X129238000Y-87974000D03*
X126698000Y-85434000D03*
X129238000Y-85434000D03*
X126698000Y-82894000D03*
X129238000Y-82894000D03*
X126698000Y-80354000D03*
X129238000Y-80354000D03*
X126698000Y-77814000D03*
X129238000Y-77814000D03*
X126698000Y-75274000D03*
X129238000Y-75274000D03*
%TD*%
D15*
%TO.C,J28*%
X115444001Y-98425000D03*
%TD*%
%TO.C,J24*%
X115443000Y-88265000D03*
%TD*%
D10*
%TO.C,J2*%
X142360000Y-134503000D03*
D11*
X142360000Y-137043000D03*
X144900000Y-134503000D03*
X144900000Y-137043000D03*
X147440000Y-134503000D03*
X147440000Y-137043000D03*
X149980000Y-134503000D03*
X149980000Y-137043000D03*
X152520000Y-134503000D03*
X152520000Y-137043000D03*
X155060000Y-134503000D03*
X155060000Y-137043000D03*
X157600000Y-134503000D03*
X157600000Y-137043000D03*
X160140000Y-134503000D03*
X160140000Y-137043000D03*
X162680000Y-134503000D03*
X162680000Y-137043000D03*
X165220000Y-134503000D03*
X165220000Y-137043000D03*
X167760000Y-134503000D03*
X167760000Y-137043000D03*
X170300000Y-134503000D03*
X170300000Y-137043000D03*
X172840000Y-134503000D03*
X172840000Y-137043000D03*
X175380000Y-134503000D03*
X175380000Y-137043000D03*
X177920000Y-134503000D03*
X177920000Y-137043000D03*
X180460000Y-134503000D03*
X180460000Y-137043000D03*
X183000000Y-134503000D03*
X183000000Y-137043000D03*
X185540000Y-134503000D03*
X185540000Y-137043000D03*
X188080000Y-134503000D03*
X188080000Y-137043000D03*
X190620000Y-134503000D03*
X190620000Y-137043000D03*
%TD*%
D10*
%TO.C,J5*%
X194503000Y-82360000D03*
D11*
X197043000Y-82360000D03*
X194503000Y-84900000D03*
X197043000Y-84900000D03*
X194503000Y-87440000D03*
X197043000Y-87440000D03*
X194503000Y-89980000D03*
X197043000Y-89980000D03*
X194503000Y-92520000D03*
X197043000Y-92520000D03*
X194503000Y-95060000D03*
X197043000Y-95060000D03*
X194503000Y-97600000D03*
X197043000Y-97600000D03*
X194503000Y-100140000D03*
X197043000Y-100140000D03*
X194503000Y-102680000D03*
X197043000Y-102680000D03*
X194503000Y-105220000D03*
X197043000Y-105220000D03*
X194503000Y-107760000D03*
X197043000Y-107760000D03*
X194503000Y-110300000D03*
X197043000Y-110300000D03*
X194503000Y-112840000D03*
X197043000Y-112840000D03*
X194503000Y-115380000D03*
X197043000Y-115380000D03*
X194503000Y-117920000D03*
X197043000Y-117920000D03*
X194503000Y-120460000D03*
X197043000Y-120460000D03*
X194503000Y-123000000D03*
X197043000Y-123000000D03*
X194503000Y-125540000D03*
X197043000Y-125540000D03*
X194503000Y-128080000D03*
X197043000Y-128080000D03*
X194503000Y-130620000D03*
X197043000Y-130620000D03*
%TD*%
D16*
%TO.C,H5*%
X127966715Y-70403307D03*
%TD*%
D15*
%TO.C,J27*%
X115443000Y-95885000D03*
%TD*%
D16*
%TO.C,H7*%
X127967540Y-128405749D03*
%TD*%
D23*
%TO.C,C4*%
X137668000Y-44655000D03*
X137668000Y-41705000D03*
%TD*%
D16*
%TO.C,H3*%
X196000000Y-44000000D03*
%TD*%
D15*
%TO.C,J22*%
X115443000Y-83213000D03*
%TD*%
D10*
%TO.C,J4*%
X142369130Y-128328879D03*
D11*
X142369130Y-130868879D03*
X144909130Y-128328879D03*
X144909130Y-130868879D03*
X147449130Y-128328879D03*
X147449130Y-130868879D03*
X149989130Y-128328879D03*
X149989130Y-130868879D03*
X152529130Y-128328879D03*
X152529130Y-130868879D03*
X155069130Y-128328879D03*
X155069130Y-130868879D03*
X157609130Y-128328879D03*
X157609130Y-130868879D03*
X160149130Y-128328879D03*
X160149130Y-130868879D03*
X162689130Y-128328879D03*
X162689130Y-130868879D03*
X165229130Y-128328879D03*
X165229130Y-130868879D03*
X167769130Y-128328879D03*
X167769130Y-130868879D03*
X170309130Y-128328879D03*
X170309130Y-130868879D03*
X172849130Y-128328879D03*
X172849130Y-130868879D03*
X175389130Y-128328879D03*
X175389130Y-130868879D03*
X177929130Y-128328879D03*
X177929130Y-130868879D03*
X180469130Y-128328879D03*
X180469130Y-130868879D03*
X183009130Y-128328879D03*
X183009130Y-130868879D03*
X185549130Y-128328879D03*
X185549130Y-130868879D03*
X188089130Y-128328879D03*
X188089130Y-130868879D03*
X190629130Y-128328879D03*
X190629130Y-130868879D03*
%TD*%
D24*
%TO.C,D2*%
X104013000Y-118369000D03*
D25*
X104013000Y-115829000D03*
%TD*%
D10*
%TO.C,J12*%
X135534400Y-113334800D03*
D11*
X135534400Y-115874800D03*
%TD*%
D15*
%TO.C,J19*%
X115443000Y-73025000D03*
%TD*%
%TO.C,J14*%
X143256000Y-97536000D03*
%TD*%
D10*
%TO.C,J15*%
X194505197Y-79819841D03*
D11*
X197045197Y-79819841D03*
%TD*%
%TO.C,U1*%
X186055000Y-123952000D03*
X188595000Y-123952000D03*
X186055000Y-121412000D03*
X188595000Y-121412000D03*
X186055000Y-118872000D03*
X188595000Y-118872000D03*
X186055000Y-116332000D03*
X188595000Y-116332000D03*
X145095000Y-58482000D03*
X186055000Y-106172000D03*
D10*
X148167211Y-87490101D03*
D11*
X148167211Y-95110101D03*
X186055000Y-113792000D03*
X188595000Y-113792000D03*
X186055000Y-111252000D03*
X188595000Y-111252000D03*
X186055000Y-108712000D03*
X188595000Y-108712000D03*
X188595000Y-106172000D03*
X186055000Y-103632000D03*
X188595000Y-103632000D03*
D10*
X186055000Y-101092000D03*
D11*
X188595000Y-101092000D03*
D10*
X188595000Y-81342000D03*
D11*
X186055000Y-81342000D03*
X188595000Y-78802000D03*
X186055000Y-78802000D03*
X188595000Y-76262000D03*
X186055000Y-76262000D03*
X188595000Y-73722000D03*
X186055000Y-73722000D03*
X188595000Y-71182000D03*
X186055000Y-71182000D03*
X188595000Y-68642000D03*
X186055000Y-68642000D03*
X188595000Y-66102000D03*
X186055000Y-66102000D03*
X188595000Y-63562000D03*
X186055000Y-63562000D03*
X188595000Y-61022000D03*
X186055000Y-61022000D03*
X188595000Y-58482000D03*
X186055000Y-58482000D03*
X142555000Y-58482000D03*
X142555000Y-63562000D03*
X145095000Y-63562000D03*
X142555000Y-66102000D03*
X145095000Y-66102000D03*
X142555000Y-68642000D03*
X148167211Y-92570101D03*
X148167211Y-90030101D03*
X142555000Y-61022000D03*
X145095000Y-68642000D03*
X142555000Y-71182000D03*
X145095000Y-71182000D03*
X142555000Y-73722000D03*
X145095000Y-73722000D03*
X142555000Y-76262000D03*
X145095000Y-76262000D03*
X142555000Y-78802000D03*
X145095000Y-78802000D03*
X142555000Y-81342000D03*
D10*
X145095000Y-81342000D03*
X142555000Y-101092000D03*
D11*
X145095000Y-101092000D03*
X142555000Y-103632000D03*
X145095000Y-103632000D03*
X142555000Y-106172000D03*
X145095000Y-106172000D03*
X142555000Y-108712000D03*
X145095000Y-108712000D03*
X142555000Y-111252000D03*
X145095000Y-111252000D03*
X142555000Y-113792000D03*
X145095000Y-113792000D03*
X142555000Y-116332000D03*
X145095000Y-116332000D03*
X142555000Y-118872000D03*
X145095000Y-118872000D03*
X142555000Y-121412000D03*
X145095000Y-121412000D03*
X142555000Y-123952000D03*
X145095000Y-123952000D03*
X145095000Y-61022000D03*
%TD*%
D24*
%TO.C,D1*%
X104013000Y-123317000D03*
D25*
X104013000Y-120777000D03*
%TD*%
D26*
%TO.C,U3*%
X178591000Y-123190000D03*
X178591000Y-121920000D03*
X178591000Y-120650000D03*
X178591000Y-119380000D03*
X178591000Y-118110000D03*
X178591000Y-116840000D03*
X178591000Y-115570000D03*
X178591000Y-114300000D03*
X178591000Y-113030000D03*
X178591000Y-111760000D03*
X178591000Y-110490000D03*
X178591000Y-109220000D03*
X178591000Y-107950000D03*
X178591000Y-106680000D03*
X169291000Y-106680000D03*
X169291000Y-107950000D03*
X169291000Y-109220000D03*
X169291000Y-110490000D03*
X169291000Y-111760000D03*
X169291000Y-113030000D03*
X169291000Y-114300000D03*
X169291000Y-115570000D03*
X169291000Y-116840000D03*
X169291000Y-118110000D03*
X169291000Y-119380000D03*
X169291000Y-120650000D03*
X169291000Y-121920000D03*
X169291000Y-123190000D03*
%TD*%
D16*
%TO.C,H6*%
X104965464Y-70404964D03*
%TD*%
%TO.C,H4*%
X104000000Y-44000000D03*
%TD*%
%TO.C,H2*%
X104000000Y-136000000D03*
%TD*%
D10*
%TO.C,J10*%
X112395000Y-45720000D03*
D11*
X112395000Y-43180000D03*
X114935000Y-45720000D03*
X114935000Y-43180000D03*
X117475000Y-45720000D03*
X117475000Y-43180000D03*
%TD*%
D15*
%TO.C,J25*%
X115443000Y-90805000D03*
%TD*%
%TO.C,J20*%
X115443000Y-80645000D03*
%TD*%
D10*
%TO.C,J3*%
X142360397Y-49123807D03*
D11*
X142360397Y-51663807D03*
X144900397Y-49123807D03*
X144900397Y-51663807D03*
X147440397Y-49123807D03*
X147440397Y-51663807D03*
X149980397Y-49123807D03*
X149980397Y-51663807D03*
X152520397Y-49123807D03*
X152520397Y-51663807D03*
X155060397Y-49123807D03*
X155060397Y-51663807D03*
X157600397Y-49123807D03*
X157600397Y-51663807D03*
X160140397Y-49123807D03*
X160140397Y-51663807D03*
X162680397Y-49123807D03*
X162680397Y-51663807D03*
X165220397Y-49123807D03*
X165220397Y-51663807D03*
X167760397Y-49123807D03*
X167760397Y-51663807D03*
X170300397Y-49123807D03*
X170300397Y-51663807D03*
X172840397Y-49123807D03*
X172840397Y-51663807D03*
X175380397Y-49123807D03*
X175380397Y-51663807D03*
X177920397Y-49123807D03*
X177920397Y-51663807D03*
X180460397Y-49123807D03*
X180460397Y-51663807D03*
X183000397Y-49123807D03*
X183000397Y-51663807D03*
X185540397Y-49123807D03*
X185540397Y-51663807D03*
X188080397Y-49123807D03*
X188080397Y-51663807D03*
X190620397Y-49123807D03*
X190620397Y-51663807D03*
%TD*%
D15*
%TO.C,J21*%
X138684000Y-85725000D03*
%TD*%
D27*
%TO.C,SW2*%
X109836000Y-88263000D03*
X103336000Y-88263000D03*
X109836000Y-92763000D03*
X103336000Y-92763000D03*
%TD*%
%TO.C,SW4*%
X109836000Y-108263000D03*
X103336000Y-108263000D03*
X109836000Y-112763000D03*
X103336000Y-112763000D03*
%TD*%
%TO.C,SW1*%
X109836000Y-78263000D03*
X103336000Y-78263000D03*
X109836000Y-82763000D03*
X103336000Y-82763000D03*
%TD*%
%TO.C,SW3*%
X109836000Y-98263000D03*
X103336000Y-98263000D03*
X109836000Y-102763000D03*
X103336000Y-102763000D03*
%TD*%
M02*
