M48
; DRILL file {KiCad 7.0.7-7.0.7~ubuntu20.04.1} date Fr 08 Sep 2023 15:59:59
; FORMAT={-:-/ absolute / metric / decimal}
; #@! TF.CreationDate,2023-09-08T15:59:59+02:00
; #@! TF.GenerationSoftware,Kicad,Pcbnew,7.0.7-7.0.7~ubuntu20.04.1
; #@! TF.FileFunction,MixedPlating,1,2
FMAT,2
METRIC
; #@! TA.AperFunction,Plated,PTH,ViaDrill
T1C0.400
; #@! TA.AperFunction,Plated,PTH,ComponentDrill
T2C0.800
; #@! TA.AperFunction,Plated,PTH,ComponentDrill
T3C1.000
; #@! TA.AperFunction,NonPlated,NPTH,ComponentDrill
T4C3.200
%
G90
G05
T1
X107.769Y-95.504
X112.522Y-108.026
X116.383Y-114.717
X126.187Y-59.817
X126.393Y-95.508
X126.644Y-67.742
X127.469Y-70.942
X128.143Y-86.995
X128.201Y-118.281
X128.283Y-94.285
X128.815Y-88.773
X129.083Y-105.156
X129.142Y-67.505
X129.286Y-116.84
X129.286Y-59.766
X129.352Y-96.546
X130.556Y-114.072
X130.609Y-83.384
X130.658Y-91.948
X131.47Y-90.83
X131.928Y-105.142
X132.212Y-83.444
X133.096Y-49.911
X133.223Y-83.185
X133.284Y-90.681
X134.493Y-83.185
X134.508Y-103.276
X135.077Y-70.358
X135.382Y-58.674
X135.636Y-50.497
X135.75Y-93.882
X135.763Y-83.185
X135.778Y-103.276
X135.865Y-139.45
X136.042Y-63.016
X136.971Y-54.864
X136.995Y-93.882
X137.033Y-83.058
X137.06Y-103.273
X137.25Y-47.231
X138.049Y-52.121
X138.265Y-93.958
X138.303Y-82.931
X138.318Y-103.276
X139.319Y-67.169
X139.535Y-93.958
X139.573Y-82.931
X139.598Y-103.327
X140.614Y-69.164
X140.858Y-98.126
X141.859Y-67.169
X142.049Y-93.867
X142.672Y-79.299
X143.51Y-80.01
X143.637Y-76.733
X143.713Y-127.205
X144.348Y-80.772
X144.424Y-69.393
X145.186Y-76.708
X145.186Y-78.283
X145.288Y-81.559
X145.339Y-75.489
X145.542Y-60.604
X145.682Y-129.883
X145.866Y-77.497
X147.362Y-69.155
X147.777Y-100.681
X147.947Y-64.8
X148.632Y-62.23
X148.632Y-69.155
X149.098Y-60.161
X149.492Y-129.883
X149.631Y-80.747
X149.902Y-69.155
X150.241Y-87.833
X150.317Y-100.743
X150.546Y-81.509
X150.647Y-66.7
X150.8Y-86.97
X151.172Y-69.155
X151.512Y-86.222
X151.587Y-100.743
X151.689Y-88.671
X152.442Y-69.155
X152.654Y-78.384
X153.712Y-69.155
X153.838Y-81.352
X154.127Y-102.63
X154.982Y-69.155
X155.14Y-127.528
X155.296Y-117.653
X155.339Y-124.521
X155.423Y-102.591
X155.532Y-97.692
X155.651Y-112.319
X156.032Y-85.42
X156.185Y-77.445
X156.19Y-132.309
X156.252Y-69.155
X156.286Y-143.939
X156.362Y-110.134
X156.66Y-75.655
X156.881Y-76.63
X157.023Y-64.313
X157.069Y-74.743
X157.409Y-124.9
X157.468Y-129.877
X157.522Y-69.155
X158.293Y-100.743
X158.679Y-124.9
X158.801Y-64.668
X159.537Y-59.004
X160.274Y-82.271
X160.35Y-81.204
X160.579Y-83.287
X160.604Y-78.816
X160.833Y-100.743
X161.219Y-124.937
X162.052Y-88.036
X162.103Y-100.743
X163.322Y-88.062
X164.897Y-87.986
X166.048Y-97.692
X166.243Y-76.962
X166.325Y-127.528
X166.649Y-75.133
X167.259Y-74.168
X168.367Y-74.708
X168.402Y-73.406
X168.406Y-71.235
X168.411Y-72.276
X168.56Y-124.9
X168.801Y-75.67
X168.834Y-100.732
X168.874Y-68.78
X168.895Y-66.416
X169.129Y-67.637
X169.189Y-76.835
X169.24Y-78.156
X169.243Y-65.442
X170.082Y-64.898
X170.759Y-64.162
X170.795Y-127.477
X171.374Y-100.732
X171.758Y-64.203
X172.37Y-124.9
X172.466Y-121.328
X172.618Y-100.758
X172.698Y-63.862
X173.691Y-121.257
X173.691Y-124.912
X173.694Y-63.773
X174.364Y-70.385
X174.364Y-71.655
X174.364Y-72.851
X174.364Y-74.195
X174.752Y-63.83
X174.91Y-121.867
X174.961Y-124.912
X176.022Y-63.779
X176.18Y-122.422
X176.18Y-124.9
X177.434Y-63.702
X178.544Y-63.685
X179.194Y-79.402
X179.451Y-128.449
X179.483Y-74.195
X179.483Y-71.687
X179.483Y-75.465
X179.483Y-72.925
X179.68Y-63.652
X180.099Y-96.431
X180.099Y-99.381
X180.289Y-115.418
X180.464Y-66.866
X180.746Y-63.652
X181.674Y-66.843
X181.81Y-69.623
X181.966Y-63.5
X182.887Y-75.416
X183.014Y-68.404
X183.032Y-62.484
X183.54Y-114.605
X183.54Y-118.415
X183.54Y-122.225
X184.264Y-78.094
X185.544Y-66.894
X186.08Y-117.6
X186.814Y-78.881
X187.947Y-76.151
X187.947Y-77.421
X188.062Y-64.922
X188.49Y-115.875
X188.49Y-119.685
X190.602Y-113.792
X190.652Y-86.106
X191.059Y-111.15
X193.097Y-73.611
X193.151Y-74.625
X193.401Y-65.161
X194.107Y-114.503
X194.646Y-64.368
X195.529Y-100.406
X195.529Y-117.348
X195.74Y-81.376
T2
X109.22Y-83.947
X109.22Y-86.487
X109.22Y-89.027
X109.22Y-91.567
X109.22Y-94.107
X109.22Y-96.647
X109.22Y-99.187
X109.22Y-101.727
X109.22Y-104.267
X109.22Y-106.807
X109.22Y-109.347
X109.22Y-111.887
X109.22Y-114.427
X109.22Y-116.967
X109.22Y-119.507
X109.22Y-122.047
X109.22Y-124.587
X109.22Y-127.127
X109.22Y-129.667
X109.22Y-132.207
X124.46Y-83.947
X124.46Y-86.487
X124.46Y-89.027
X124.46Y-91.567
X124.46Y-94.107
X124.46Y-96.647
X124.46Y-99.187
X124.46Y-101.727
X124.46Y-104.267
X124.46Y-106.807
X124.46Y-109.347
X124.46Y-111.887
X124.46Y-114.427
X124.46Y-116.967
X124.46Y-119.507
X124.46Y-122.047
X124.46Y-124.587
X124.46Y-127.127
X124.46Y-129.667
X124.46Y-132.207
X132.131Y-119.685
X135.23Y-119.736
X138.557Y-59.944
X140.335Y-59.944
X142.113Y-59.944
X145.377Y-120.739
X147.917Y-120.739
X150.457Y-120.739
X152.997Y-120.739
X191.313Y-131.42
T3
X139.7Y-48.303
X139.7Y-50.843
X139.7Y-54.303
X139.7Y-56.843
X139.7Y-133.849
X139.7Y-136.389
X139.7Y-139.849
X139.7Y-142.389
X142.24Y-48.303
X142.24Y-50.843
X142.24Y-54.303
X142.24Y-56.843
X142.24Y-133.849
X142.24Y-136.389
X142.24Y-139.849
X142.24Y-142.389
X144.78Y-48.303
X144.78Y-50.843
X144.78Y-54.303
X144.78Y-56.843
X144.78Y-133.849
X144.78Y-136.389
X144.78Y-139.849
X144.78Y-142.389
X147.32Y-48.303
X147.32Y-50.843
X147.32Y-54.303
X147.32Y-56.843
X147.32Y-133.849
X147.32Y-136.389
X147.32Y-139.849
X147.32Y-142.389
X149.86Y-48.303
X149.86Y-50.843
X149.86Y-54.303
X149.86Y-56.843
X149.86Y-133.849
X149.86Y-136.389
X149.86Y-139.849
X149.86Y-142.389
X152.4Y-48.303
X152.4Y-50.843
X152.4Y-54.303
X152.4Y-56.843
X152.4Y-133.849
X152.4Y-136.389
X152.4Y-139.849
X152.4Y-142.389
X154.94Y-48.303
X154.94Y-50.843
X154.94Y-54.303
X154.94Y-56.843
X154.94Y-133.849
X154.94Y-136.389
X154.94Y-139.849
X154.94Y-142.389
X157.48Y-48.303
X157.48Y-50.843
X157.48Y-54.303
X157.48Y-56.843
X157.48Y-133.849
X157.48Y-136.389
X157.48Y-139.849
X157.48Y-142.389
X160.02Y-48.303
X160.02Y-50.843
X160.02Y-54.303
X160.02Y-56.843
X160.02Y-133.849
X160.02Y-136.389
X160.02Y-139.849
X160.02Y-142.389
X162.56Y-48.303
X162.56Y-50.843
X162.56Y-54.303
X162.56Y-56.843
X162.56Y-133.849
X162.56Y-136.389
X162.56Y-139.849
X162.56Y-142.389
X165.1Y-48.303
X165.1Y-50.843
X165.1Y-54.303
X165.1Y-56.843
X165.1Y-133.849
X165.1Y-136.389
X165.1Y-139.849
X165.1Y-142.389
X167.64Y-48.303
X167.64Y-50.843
X167.64Y-54.303
X167.64Y-56.843
X167.64Y-133.849
X167.64Y-136.389
X167.64Y-139.849
X167.64Y-142.389
X170.18Y-48.303
X170.18Y-50.843
X170.18Y-54.303
X170.18Y-56.843
X170.18Y-133.849
X170.18Y-136.389
X170.18Y-139.849
X170.18Y-142.389
X172.72Y-48.303
X172.72Y-50.843
X172.72Y-54.303
X172.72Y-56.843
X172.72Y-133.849
X172.72Y-136.389
X172.72Y-139.849
X172.72Y-142.389
X175.26Y-48.303
X175.26Y-50.843
X175.26Y-54.303
X175.26Y-56.843
X175.26Y-133.849
X175.26Y-136.389
X175.26Y-139.849
X175.26Y-142.389
X177.8Y-48.303
X177.8Y-50.843
X177.8Y-54.303
X177.8Y-56.843
X177.8Y-133.849
X177.8Y-136.389
X177.8Y-139.849
X177.8Y-142.389
X180.34Y-48.303
X180.34Y-50.843
X180.34Y-54.303
X180.34Y-56.843
X180.34Y-133.849
X180.34Y-136.389
X180.34Y-139.849
X180.34Y-142.389
X182.88Y-48.303
X182.88Y-50.843
X182.88Y-54.303
X182.88Y-56.843
X182.88Y-133.849
X182.88Y-136.389
X182.88Y-139.849
X182.88Y-142.389
X185.42Y-48.303
X185.42Y-50.843
X185.42Y-54.303
X185.42Y-56.843
X185.42Y-133.849
X185.42Y-136.389
X185.42Y-139.849
X185.42Y-142.389
X187.96Y-48.303
X187.96Y-50.843
X187.96Y-54.303
X187.96Y-56.843
X187.96Y-133.849
X187.96Y-136.389
X187.96Y-139.849
X187.96Y-142.389
T4
X101.34Y-49.346
X101.34Y-141.346
X193.34Y-49.346
X193.34Y-141.346
T0
M30
