%TF.GenerationSoftware,KiCad,Pcbnew,7.0.7-7.0.7~ubuntu20.04.1*%
%TF.CreationDate,2023-09-08T15:59:57+02:00*%
%TF.ProjectId,RAMROM_512k_board,52414d52-4f4d-45f3-9531-326b5f626f61,rev?*%
%TF.SameCoordinates,Original*%
%TF.FileFunction,Soldermask,Bot*%
%TF.FilePolarity,Negative*%
%FSLAX46Y46*%
G04 Gerber Fmt 4.6, Leading zero omitted, Abs format (unit mm)*
G04 Created by KiCad (PCBNEW 7.0.7-7.0.7~ubuntu20.04.1) date 2023-09-08 15:59:57*
%MOMM*%
%LPD*%
G01*
G04 APERTURE LIST*
G04 Aperture macros list*
%AMRoundRect*
0 Rectangle with rounded corners*
0 $1 Rounding radius*
0 $2 $3 $4 $5 $6 $7 $8 $9 X,Y pos of 4 corners*
0 Add a 4 corners polygon primitive as box body*
4,1,4,$2,$3,$4,$5,$6,$7,$8,$9,$2,$3,0*
0 Add four circle primitives for the rounded corners*
1,1,$1+$1,$2,$3*
1,1,$1+$1,$4,$5*
1,1,$1+$1,$6,$7*
1,1,$1+$1,$8,$9*
0 Add four rect primitives between the rounded corners*
20,1,$1+$1,$2,$3,$4,$5,0*
20,1,$1+$1,$4,$5,$6,$7,0*
20,1,$1+$1,$6,$7,$8,$9,0*
20,1,$1+$1,$8,$9,$2,$3,0*%
G04 Aperture macros list end*
%ADD10R,1.350000X1.350000*%
%ADD11R,1.700000X1.700000*%
%ADD12O,1.700000X1.700000*%
%ADD13R,2.400000X1.600000*%
%ADD14O,2.400000X1.600000*%
%ADD15C,3.200000*%
%ADD16RoundRect,0.250000X-0.650000X0.325000X-0.650000X-0.325000X0.650000X-0.325000X0.650000X0.325000X0*%
%ADD17R,0.600000X1.600000*%
%ADD18RoundRect,0.250000X0.650000X-0.325000X0.650000X0.325000X-0.650000X0.325000X-0.650000X-0.325000X0*%
%ADD19RoundRect,0.137500X0.625000X0.137500X-0.625000X0.137500X-0.625000X-0.137500X0.625000X-0.137500X0*%
%ADD20RoundRect,0.150000X-0.150000X0.725000X-0.150000X-0.725000X0.150000X-0.725000X0.150000X0.725000X0*%
%ADD21R,1.560000X0.650000*%
%ADD22RoundRect,0.150000X-0.150000X0.825000X-0.150000X-0.825000X0.150000X-0.825000X0.150000X0.825000X0*%
%ADD23RoundRect,0.150000X-0.587500X-0.150000X0.587500X-0.150000X0.587500X0.150000X-0.587500X0.150000X0*%
%ADD24RoundRect,0.250000X0.400000X0.625000X-0.400000X0.625000X-0.400000X-0.625000X0.400000X-0.625000X0*%
G04 APERTURE END LIST*
D10*
%TO.C,J15*%
X138557000Y-59944000D03*
%TD*%
%TO.C,J9*%
X140335000Y-59944000D03*
%TD*%
%TO.C,J7*%
X142113000Y-59944000D03*
%TD*%
%TO.C,J13*%
X152996900Y-120738900D03*
%TD*%
D11*
%TO.C,J1*%
X139700000Y-48303005D03*
D12*
X139700000Y-50843005D03*
X142240000Y-48303005D03*
X142240000Y-50843005D03*
X144780000Y-48303005D03*
X144780000Y-50843005D03*
X147320000Y-48303005D03*
X147320000Y-50843005D03*
X149860000Y-48303005D03*
X149860000Y-50843005D03*
X152400000Y-48303005D03*
X152400000Y-50843005D03*
X154940000Y-48303005D03*
X154940000Y-50843005D03*
X157480000Y-48303005D03*
X157480000Y-50843005D03*
X160020000Y-48303005D03*
X160020000Y-50843005D03*
X162560000Y-48303005D03*
X162560000Y-50843005D03*
X165100000Y-48303005D03*
X165100000Y-50843005D03*
X167640000Y-48303005D03*
X167640000Y-50843005D03*
X170180000Y-48303005D03*
X170180000Y-50843005D03*
X172720000Y-48303005D03*
X172720000Y-50843005D03*
X175260000Y-48303005D03*
X175260000Y-50843005D03*
X177800000Y-48303005D03*
X177800000Y-50843005D03*
X180340000Y-48303005D03*
X180340000Y-50843005D03*
X182880000Y-48303005D03*
X182880000Y-50843005D03*
X185420000Y-48303005D03*
X185420000Y-50843005D03*
X187960000Y-48303005D03*
X187960000Y-50843005D03*
%TD*%
D13*
%TO.C,J6*%
X109220000Y-83947000D03*
D14*
X109220000Y-86487000D03*
X109220000Y-89027000D03*
X109220000Y-91567000D03*
X109220000Y-94107000D03*
X109220000Y-96647000D03*
X109220000Y-99187000D03*
X109220000Y-101727000D03*
X109220000Y-104267000D03*
X109220000Y-106807000D03*
X109220000Y-109347000D03*
X109220000Y-111887000D03*
X109220000Y-114427000D03*
X109220000Y-116967000D03*
X109220000Y-119507000D03*
X109220000Y-122047000D03*
X109220000Y-124587000D03*
X109220000Y-127127000D03*
X109220000Y-129667000D03*
X109220000Y-132207000D03*
X124460000Y-132207000D03*
X124460000Y-129667000D03*
X124460000Y-127127000D03*
X124460000Y-124587000D03*
X124460000Y-122047000D03*
X124460000Y-119507000D03*
X124460000Y-116967000D03*
X124460000Y-114427000D03*
X124460000Y-111887000D03*
X124460000Y-109347000D03*
X124460000Y-106807000D03*
X124460000Y-104267000D03*
X124460000Y-101727000D03*
X124460000Y-99187000D03*
X124460000Y-96647000D03*
X124460000Y-94107000D03*
X124460000Y-91567000D03*
X124460000Y-89027000D03*
X124460000Y-86487000D03*
X124460000Y-83947000D03*
%TD*%
D11*
%TO.C,J4*%
X139700000Y-133849005D03*
D12*
X139700000Y-136389005D03*
X142240000Y-133849005D03*
X142240000Y-136389005D03*
X144780000Y-133849005D03*
X144780000Y-136389005D03*
X147320000Y-133849005D03*
X147320000Y-136389005D03*
X149860000Y-133849005D03*
X149860000Y-136389005D03*
X152400000Y-133849005D03*
X152400000Y-136389005D03*
X154940000Y-133849005D03*
X154940000Y-136389005D03*
X157480000Y-133849005D03*
X157480000Y-136389005D03*
X160020000Y-133849005D03*
X160020000Y-136389005D03*
X162560000Y-133849005D03*
X162560000Y-136389005D03*
X165100000Y-133849005D03*
X165100000Y-136389005D03*
X167640000Y-133849005D03*
X167640000Y-136389005D03*
X170180000Y-133849005D03*
X170180000Y-136389005D03*
X172720000Y-133849005D03*
X172720000Y-136389005D03*
X175260000Y-133849005D03*
X175260000Y-136389005D03*
X177800000Y-133849005D03*
X177800000Y-136389005D03*
X180340000Y-133849005D03*
X180340000Y-136389005D03*
X182880000Y-133849005D03*
X182880000Y-136389005D03*
X185420000Y-133849005D03*
X185420000Y-136389005D03*
X187960000Y-133849005D03*
X187960000Y-136389005D03*
%TD*%
D10*
%TO.C,J5*%
X135229600Y-119735600D03*
%TD*%
%TO.C,J12*%
X145376900Y-120738900D03*
%TD*%
%TO.C,J10*%
X132130800Y-119684800D03*
%TD*%
D11*
%TO.C,J2*%
X139700000Y-139849005D03*
D12*
X139700000Y-142389005D03*
X142240000Y-139849005D03*
X142240000Y-142389005D03*
X144780000Y-139849005D03*
X144780000Y-142389005D03*
X147320000Y-139849005D03*
X147320000Y-142389005D03*
X149860000Y-139849005D03*
X149860000Y-142389005D03*
X152400000Y-139849005D03*
X152400000Y-142389005D03*
X154940000Y-139849005D03*
X154940000Y-142389005D03*
X157480000Y-139849005D03*
X157480000Y-142389005D03*
X160020000Y-139849005D03*
X160020000Y-142389005D03*
X162560000Y-139849005D03*
X162560000Y-142389005D03*
X165100000Y-139849005D03*
X165100000Y-142389005D03*
X167640000Y-139849005D03*
X167640000Y-142389005D03*
X170180000Y-139849005D03*
X170180000Y-142389005D03*
X172720000Y-139849005D03*
X172720000Y-142389005D03*
X175260000Y-139849005D03*
X175260000Y-142389005D03*
X177800000Y-139849005D03*
X177800000Y-142389005D03*
X180340000Y-139849005D03*
X180340000Y-142389005D03*
X182880000Y-139849005D03*
X182880000Y-142389005D03*
X185420000Y-139849005D03*
X185420000Y-142389005D03*
X187960000Y-139849005D03*
X187960000Y-142389005D03*
%TD*%
D15*
%TO.C,H3*%
X193340000Y-49346005D03*
%TD*%
D11*
%TO.C,J3*%
X139700000Y-54303005D03*
D12*
X139700000Y-56843005D03*
X142240000Y-54303005D03*
X142240000Y-56843005D03*
X144780000Y-54303005D03*
X144780000Y-56843005D03*
X147320000Y-54303005D03*
X147320000Y-56843005D03*
X149860000Y-54303005D03*
X149860000Y-56843005D03*
X152400000Y-54303005D03*
X152400000Y-56843005D03*
X154940000Y-54303005D03*
X154940000Y-56843005D03*
X157480000Y-54303005D03*
X157480000Y-56843005D03*
X160020000Y-54303005D03*
X160020000Y-56843005D03*
X162560000Y-54303005D03*
X162560000Y-56843005D03*
X165100000Y-54303005D03*
X165100000Y-56843005D03*
X167640000Y-54303005D03*
X167640000Y-56843005D03*
X170180000Y-54303005D03*
X170180000Y-56843005D03*
X172720000Y-54303005D03*
X172720000Y-56843005D03*
X175260000Y-54303005D03*
X175260000Y-56843005D03*
X177800000Y-54303005D03*
X177800000Y-56843005D03*
X180340000Y-54303005D03*
X180340000Y-56843005D03*
X182880000Y-54303005D03*
X182880000Y-56843005D03*
X185420000Y-54303005D03*
X185420000Y-56843005D03*
X187960000Y-54303005D03*
X187960000Y-56843005D03*
%TD*%
D10*
%TO.C,J11*%
X150456900Y-120738900D03*
%TD*%
D15*
%TO.C,H1*%
X101340000Y-49346005D03*
%TD*%
D10*
%TO.C,J8*%
X191312800Y-131419600D03*
%TD*%
D15*
%TO.C,H2*%
X101340000Y-141346005D03*
%TD*%
%TO.C,H4*%
X193340000Y-141346005D03*
%TD*%
D10*
%TO.C,J14*%
X147916900Y-120738900D03*
%TD*%
D16*
%TO.C,C2*%
X135864600Y-136499600D03*
X135864600Y-139449600D03*
%TD*%
D17*
%TO.C,U5*%
X193163841Y-78093671D03*
X191893841Y-78093671D03*
X190623841Y-78093671D03*
X189353841Y-78093671D03*
X188083841Y-78093671D03*
X186813841Y-78093671D03*
X185543841Y-78093671D03*
X184263841Y-78093671D03*
X183013841Y-78093671D03*
X181733841Y-78093671D03*
X180463841Y-78093671D03*
X179193841Y-78093671D03*
X177923841Y-78093671D03*
X176653841Y-78093671D03*
X175383841Y-78093671D03*
X174113841Y-78093671D03*
X174113841Y-66893671D03*
X175383841Y-66893671D03*
X176653841Y-66893671D03*
X177923841Y-66893671D03*
X179193841Y-66893671D03*
X180463841Y-66893671D03*
X181733841Y-66893671D03*
X183013841Y-66893671D03*
X184263841Y-66893671D03*
X185543841Y-66893671D03*
X186813841Y-66893671D03*
X188083841Y-66893671D03*
X189353841Y-66893671D03*
X190623841Y-66893671D03*
X191893841Y-66893671D03*
X193163841Y-66893671D03*
%TD*%
D16*
%TO.C,C6*%
X186080400Y-117600200D03*
X186080400Y-120550200D03*
%TD*%
D18*
%TO.C,C9*%
X180099075Y-99380876D03*
X180099075Y-96430876D03*
%TD*%
D19*
%TO.C,U4*%
X158901900Y-73438800D03*
X158901900Y-74238800D03*
X158901900Y-75038800D03*
X158901900Y-75838800D03*
X158901900Y-76638800D03*
X158901900Y-77438800D03*
X158901900Y-78238800D03*
X158901900Y-79038800D03*
X158901900Y-79838800D03*
X158901900Y-80638800D03*
X158901900Y-81438800D03*
X158901900Y-82238800D03*
X158901900Y-83038800D03*
X158901900Y-83838800D03*
X158901900Y-84638800D03*
X158901900Y-85438800D03*
X158901900Y-86238800D03*
X158901900Y-87038800D03*
X158901900Y-87838800D03*
X158901900Y-88638800D03*
X158901900Y-89438800D03*
X158901900Y-90238800D03*
X147726900Y-90238800D03*
X147726900Y-89438800D03*
X147726900Y-88638800D03*
X147726900Y-87838800D03*
X147726900Y-87038800D03*
X147726900Y-86238800D03*
X147726900Y-85438800D03*
X147726900Y-84638800D03*
X147726900Y-83838800D03*
X147726900Y-83038800D03*
X147726900Y-82238800D03*
X147726900Y-81438800D03*
X147726900Y-80638800D03*
X147726900Y-79838800D03*
X147726900Y-79038800D03*
X147726900Y-78238800D03*
X147726900Y-77438800D03*
X147726900Y-76638800D03*
X147726900Y-75838800D03*
X147726900Y-75038800D03*
X147726900Y-74238800D03*
X147726900Y-73438800D03*
%TD*%
D20*
%TO.C,U10*%
X131968200Y-98126400D03*
X133238200Y-98126400D03*
X134508200Y-98126400D03*
X135778200Y-98126400D03*
X137048200Y-98126400D03*
X138318200Y-98126400D03*
X139588200Y-98126400D03*
X140858200Y-98126400D03*
X140858200Y-103276400D03*
X139588200Y-103276400D03*
X138318200Y-103276400D03*
X137048200Y-103276400D03*
X135778200Y-103276400D03*
X134508200Y-103276400D03*
X133238200Y-103276400D03*
X131968200Y-103276400D03*
%TD*%
D21*
%TO.C,U3*%
X150647400Y-64800400D03*
X150647400Y-65750400D03*
X150647400Y-66700400D03*
X147947400Y-66700400D03*
X147947400Y-64800400D03*
%TD*%
D18*
%TO.C,C11*%
X129997200Y-102467200D03*
X129997200Y-99517200D03*
%TD*%
D22*
%TO.C,U18*%
X147777200Y-95793351D03*
X149047200Y-95793351D03*
X150317200Y-95793351D03*
X151587200Y-95793351D03*
X152857200Y-95793351D03*
X154127200Y-95793351D03*
X155397200Y-95793351D03*
X156667200Y-95793351D03*
X156667200Y-100743351D03*
X155397200Y-100743351D03*
X154127200Y-100743351D03*
X152857200Y-100743351D03*
X151587200Y-100743351D03*
X150317200Y-100743351D03*
X149047200Y-100743351D03*
X147777200Y-100743351D03*
%TD*%
D23*
%TO.C,Q1*%
X133126000Y-54290000D03*
X133126000Y-52390000D03*
X135001000Y-53340000D03*
%TD*%
D22*
%TO.C,U19*%
X158292800Y-95793351D03*
X159562800Y-95793351D03*
X160832800Y-95793351D03*
X162102800Y-95793351D03*
X163372800Y-95793351D03*
X164642800Y-95793351D03*
X165912800Y-95793351D03*
X167182800Y-95793351D03*
X167182800Y-100743351D03*
X165912800Y-100743351D03*
X164642800Y-100743351D03*
X163372800Y-100743351D03*
X162102800Y-100743351D03*
X160832800Y-100743351D03*
X159562800Y-100743351D03*
X158292800Y-100743351D03*
%TD*%
%TO.C,U20*%
X168833800Y-95782151D03*
X170103800Y-95782151D03*
X171373800Y-95782151D03*
X172643800Y-95782151D03*
X173913800Y-95782151D03*
X175183800Y-95782151D03*
X176453800Y-95782151D03*
X177723800Y-95782151D03*
X177723800Y-100732151D03*
X176453800Y-100732151D03*
X175183800Y-100732151D03*
X173913800Y-100732151D03*
X172643800Y-100732151D03*
X171373800Y-100732151D03*
X170103800Y-100732151D03*
X168833800Y-100732151D03*
%TD*%
D24*
%TO.C,R1*%
X164465600Y-127508000D03*
X161365600Y-127508000D03*
%TD*%
M02*
