%TF.GenerationSoftware,KiCad,Pcbnew,7.0.7-7.0.7~ubuntu20.04.1*%
%TF.CreationDate,2023-09-08T15:59:57+02:00*%
%TF.ProjectId,RAMROM_512k_board,52414d52-4f4d-45f3-9531-326b5f626f61,rev?*%
%TF.SameCoordinates,Original*%
%TF.FileFunction,Legend,Bot*%
%TF.FilePolarity,Positive*%
%FSLAX46Y46*%
G04 Gerber Fmt 4.6, Leading zero omitted, Abs format (unit mm)*
G04 Created by KiCad (PCBNEW 7.0.7-7.0.7~ubuntu20.04.1) date 2023-09-08 15:59:57*
%MOMM*%
%LPD*%
G01*
G04 APERTURE LIST*
%ADD10C,0.150000*%
%ADD11C,0.120000*%
G04 APERTURE END LIST*
D10*
X134141380Y-137884133D02*
X134189000Y-137836514D01*
X134189000Y-137836514D02*
X134236619Y-137693657D01*
X134236619Y-137693657D02*
X134236619Y-137598419D01*
X134236619Y-137598419D02*
X134189000Y-137455562D01*
X134189000Y-137455562D02*
X134093761Y-137360324D01*
X134093761Y-137360324D02*
X133998523Y-137312705D01*
X133998523Y-137312705D02*
X133808047Y-137265086D01*
X133808047Y-137265086D02*
X133665190Y-137265086D01*
X133665190Y-137265086D02*
X133474714Y-137312705D01*
X133474714Y-137312705D02*
X133379476Y-137360324D01*
X133379476Y-137360324D02*
X133284238Y-137455562D01*
X133284238Y-137455562D02*
X133236619Y-137598419D01*
X133236619Y-137598419D02*
X133236619Y-137693657D01*
X133236619Y-137693657D02*
X133284238Y-137836514D01*
X133284238Y-137836514D02*
X133331857Y-137884133D01*
X133331857Y-138265086D02*
X133284238Y-138312705D01*
X133284238Y-138312705D02*
X133236619Y-138407943D01*
X133236619Y-138407943D02*
X133236619Y-138646038D01*
X133236619Y-138646038D02*
X133284238Y-138741276D01*
X133284238Y-138741276D02*
X133331857Y-138788895D01*
X133331857Y-138788895D02*
X133427095Y-138836514D01*
X133427095Y-138836514D02*
X133522333Y-138836514D01*
X133522333Y-138836514D02*
X133665190Y-138788895D01*
X133665190Y-138788895D02*
X134236619Y-138217467D01*
X134236619Y-138217467D02*
X134236619Y-138836514D01*
X194343660Y-76081766D02*
X195153183Y-76081766D01*
X195153183Y-76081766D02*
X195248421Y-76129385D01*
X195248421Y-76129385D02*
X195296041Y-76177004D01*
X195296041Y-76177004D02*
X195343660Y-76272242D01*
X195343660Y-76272242D02*
X195343660Y-76462718D01*
X195343660Y-76462718D02*
X195296041Y-76557956D01*
X195296041Y-76557956D02*
X195248421Y-76605575D01*
X195248421Y-76605575D02*
X195153183Y-76653194D01*
X195153183Y-76653194D02*
X194343660Y-76653194D01*
X194343660Y-77605575D02*
X194343660Y-77129385D01*
X194343660Y-77129385D02*
X194819850Y-77081766D01*
X194819850Y-77081766D02*
X194772231Y-77129385D01*
X194772231Y-77129385D02*
X194724612Y-77224623D01*
X194724612Y-77224623D02*
X194724612Y-77462718D01*
X194724612Y-77462718D02*
X194772231Y-77557956D01*
X194772231Y-77557956D02*
X194819850Y-77605575D01*
X194819850Y-77605575D02*
X194915088Y-77653194D01*
X194915088Y-77653194D02*
X195153183Y-77653194D01*
X195153183Y-77653194D02*
X195248421Y-77605575D01*
X195248421Y-77605575D02*
X195296041Y-77557956D01*
X195296041Y-77557956D02*
X195343660Y-77462718D01*
X195343660Y-77462718D02*
X195343660Y-77224623D01*
X195343660Y-77224623D02*
X195296041Y-77129385D01*
X195296041Y-77129385D02*
X195248421Y-77081766D01*
X186389180Y-115377933D02*
X186436800Y-115330314D01*
X186436800Y-115330314D02*
X186484419Y-115187457D01*
X186484419Y-115187457D02*
X186484419Y-115092219D01*
X186484419Y-115092219D02*
X186436800Y-114949362D01*
X186436800Y-114949362D02*
X186341561Y-114854124D01*
X186341561Y-114854124D02*
X186246323Y-114806505D01*
X186246323Y-114806505D02*
X186055847Y-114758886D01*
X186055847Y-114758886D02*
X185912990Y-114758886D01*
X185912990Y-114758886D02*
X185722514Y-114806505D01*
X185722514Y-114806505D02*
X185627276Y-114854124D01*
X185627276Y-114854124D02*
X185532038Y-114949362D01*
X185532038Y-114949362D02*
X185484419Y-115092219D01*
X185484419Y-115092219D02*
X185484419Y-115187457D01*
X185484419Y-115187457D02*
X185532038Y-115330314D01*
X185532038Y-115330314D02*
X185579657Y-115377933D01*
X185484419Y-116235076D02*
X185484419Y-116044600D01*
X185484419Y-116044600D02*
X185532038Y-115949362D01*
X185532038Y-115949362D02*
X185579657Y-115901743D01*
X185579657Y-115901743D02*
X185722514Y-115806505D01*
X185722514Y-115806505D02*
X185912990Y-115758886D01*
X185912990Y-115758886D02*
X186293942Y-115758886D01*
X186293942Y-115758886D02*
X186389180Y-115806505D01*
X186389180Y-115806505D02*
X186436800Y-115854124D01*
X186436800Y-115854124D02*
X186484419Y-115949362D01*
X186484419Y-115949362D02*
X186484419Y-116139838D01*
X186484419Y-116139838D02*
X186436800Y-116235076D01*
X186436800Y-116235076D02*
X186389180Y-116282695D01*
X186389180Y-116282695D02*
X186293942Y-116330314D01*
X186293942Y-116330314D02*
X186055847Y-116330314D01*
X186055847Y-116330314D02*
X185960609Y-116282695D01*
X185960609Y-116282695D02*
X185912990Y-116235076D01*
X185912990Y-116235076D02*
X185865371Y-116139838D01*
X185865371Y-116139838D02*
X185865371Y-115949362D01*
X185865371Y-115949362D02*
X185912990Y-115854124D01*
X185912990Y-115854124D02*
X185960609Y-115806505D01*
X185960609Y-115806505D02*
X186055847Y-115758886D01*
X182308655Y-97739209D02*
X182356275Y-97691590D01*
X182356275Y-97691590D02*
X182403894Y-97548733D01*
X182403894Y-97548733D02*
X182403894Y-97453495D01*
X182403894Y-97453495D02*
X182356275Y-97310638D01*
X182356275Y-97310638D02*
X182261036Y-97215400D01*
X182261036Y-97215400D02*
X182165798Y-97167781D01*
X182165798Y-97167781D02*
X181975322Y-97120162D01*
X181975322Y-97120162D02*
X181832465Y-97120162D01*
X181832465Y-97120162D02*
X181641989Y-97167781D01*
X181641989Y-97167781D02*
X181546751Y-97215400D01*
X181546751Y-97215400D02*
X181451513Y-97310638D01*
X181451513Y-97310638D02*
X181403894Y-97453495D01*
X181403894Y-97453495D02*
X181403894Y-97548733D01*
X181403894Y-97548733D02*
X181451513Y-97691590D01*
X181451513Y-97691590D02*
X181499132Y-97739209D01*
X182403894Y-98215400D02*
X182403894Y-98405876D01*
X182403894Y-98405876D02*
X182356275Y-98501114D01*
X182356275Y-98501114D02*
X182308655Y-98548733D01*
X182308655Y-98548733D02*
X182165798Y-98643971D01*
X182165798Y-98643971D02*
X181975322Y-98691590D01*
X181975322Y-98691590D02*
X181594370Y-98691590D01*
X181594370Y-98691590D02*
X181499132Y-98643971D01*
X181499132Y-98643971D02*
X181451513Y-98596352D01*
X181451513Y-98596352D02*
X181403894Y-98501114D01*
X181403894Y-98501114D02*
X181403894Y-98310638D01*
X181403894Y-98310638D02*
X181451513Y-98215400D01*
X181451513Y-98215400D02*
X181499132Y-98167781D01*
X181499132Y-98167781D02*
X181594370Y-98120162D01*
X181594370Y-98120162D02*
X181832465Y-98120162D01*
X181832465Y-98120162D02*
X181927703Y-98167781D01*
X181927703Y-98167781D02*
X181975322Y-98215400D01*
X181975322Y-98215400D02*
X182022941Y-98310638D01*
X182022941Y-98310638D02*
X182022941Y-98501114D01*
X182022941Y-98501114D02*
X181975322Y-98596352D01*
X181975322Y-98596352D02*
X181927703Y-98643971D01*
X181927703Y-98643971D02*
X181832465Y-98691590D01*
X159359504Y-70930419D02*
X159359504Y-71739942D01*
X159359504Y-71739942D02*
X159311885Y-71835180D01*
X159311885Y-71835180D02*
X159264266Y-71882800D01*
X159264266Y-71882800D02*
X159169028Y-71930419D01*
X159169028Y-71930419D02*
X158978552Y-71930419D01*
X158978552Y-71930419D02*
X158883314Y-71882800D01*
X158883314Y-71882800D02*
X158835695Y-71835180D01*
X158835695Y-71835180D02*
X158788076Y-71739942D01*
X158788076Y-71739942D02*
X158788076Y-70930419D01*
X157883314Y-71263752D02*
X157883314Y-71930419D01*
X158121409Y-70882800D02*
X158359504Y-71597085D01*
X158359504Y-71597085D02*
X157740457Y-71597085D01*
X129968019Y-99463305D02*
X130777542Y-99463305D01*
X130777542Y-99463305D02*
X130872780Y-99510924D01*
X130872780Y-99510924D02*
X130920400Y-99558543D01*
X130920400Y-99558543D02*
X130968019Y-99653781D01*
X130968019Y-99653781D02*
X130968019Y-99844257D01*
X130968019Y-99844257D02*
X130920400Y-99939495D01*
X130920400Y-99939495D02*
X130872780Y-99987114D01*
X130872780Y-99987114D02*
X130777542Y-100034733D01*
X130777542Y-100034733D02*
X129968019Y-100034733D01*
X130968019Y-101034733D02*
X130968019Y-100463305D01*
X130968019Y-100749019D02*
X129968019Y-100749019D01*
X129968019Y-100749019D02*
X130110876Y-100653781D01*
X130110876Y-100653781D02*
X130206114Y-100558543D01*
X130206114Y-100558543D02*
X130253733Y-100463305D01*
X129968019Y-101653781D02*
X129968019Y-101749019D01*
X129968019Y-101749019D02*
X130015638Y-101844257D01*
X130015638Y-101844257D02*
X130063257Y-101891876D01*
X130063257Y-101891876D02*
X130158495Y-101939495D01*
X130158495Y-101939495D02*
X130348971Y-101987114D01*
X130348971Y-101987114D02*
X130587066Y-101987114D01*
X130587066Y-101987114D02*
X130777542Y-101939495D01*
X130777542Y-101939495D02*
X130872780Y-101891876D01*
X130872780Y-101891876D02*
X130920400Y-101844257D01*
X130920400Y-101844257D02*
X130968019Y-101749019D01*
X130968019Y-101749019D02*
X130968019Y-101653781D01*
X130968019Y-101653781D02*
X130920400Y-101558543D01*
X130920400Y-101558543D02*
X130872780Y-101510924D01*
X130872780Y-101510924D02*
X130777542Y-101463305D01*
X130777542Y-101463305D02*
X130587066Y-101415686D01*
X130587066Y-101415686D02*
X130348971Y-101415686D01*
X130348971Y-101415686D02*
X130158495Y-101463305D01*
X130158495Y-101463305D02*
X130063257Y-101510924D01*
X130063257Y-101510924D02*
X130015638Y-101558543D01*
X130015638Y-101558543D02*
X129968019Y-101653781D01*
X151180704Y-62650019D02*
X151180704Y-63459542D01*
X151180704Y-63459542D02*
X151133085Y-63554780D01*
X151133085Y-63554780D02*
X151085466Y-63602400D01*
X151085466Y-63602400D02*
X150990228Y-63650019D01*
X150990228Y-63650019D02*
X150799752Y-63650019D01*
X150799752Y-63650019D02*
X150704514Y-63602400D01*
X150704514Y-63602400D02*
X150656895Y-63554780D01*
X150656895Y-63554780D02*
X150609276Y-63459542D01*
X150609276Y-63459542D02*
X150609276Y-62650019D01*
X150228323Y-62650019D02*
X149609276Y-62650019D01*
X149609276Y-62650019D02*
X149942609Y-63030971D01*
X149942609Y-63030971D02*
X149799752Y-63030971D01*
X149799752Y-63030971D02*
X149704514Y-63078590D01*
X149704514Y-63078590D02*
X149656895Y-63126209D01*
X149656895Y-63126209D02*
X149609276Y-63221447D01*
X149609276Y-63221447D02*
X149609276Y-63459542D01*
X149609276Y-63459542D02*
X149656895Y-63554780D01*
X149656895Y-63554780D02*
X149704514Y-63602400D01*
X149704514Y-63602400D02*
X149799752Y-63650019D01*
X149799752Y-63650019D02*
X150085466Y-63650019D01*
X150085466Y-63650019D02*
X150180704Y-63602400D01*
X150180704Y-63602400D02*
X150228323Y-63554780D01*
X132206780Y-100349342D02*
X132254400Y-100301723D01*
X132254400Y-100301723D02*
X132302019Y-100158866D01*
X132302019Y-100158866D02*
X132302019Y-100063628D01*
X132302019Y-100063628D02*
X132254400Y-99920771D01*
X132254400Y-99920771D02*
X132159161Y-99825533D01*
X132159161Y-99825533D02*
X132063923Y-99777914D01*
X132063923Y-99777914D02*
X131873447Y-99730295D01*
X131873447Y-99730295D02*
X131730590Y-99730295D01*
X131730590Y-99730295D02*
X131540114Y-99777914D01*
X131540114Y-99777914D02*
X131444876Y-99825533D01*
X131444876Y-99825533D02*
X131349638Y-99920771D01*
X131349638Y-99920771D02*
X131302019Y-100063628D01*
X131302019Y-100063628D02*
X131302019Y-100158866D01*
X131302019Y-100158866D02*
X131349638Y-100301723D01*
X131349638Y-100301723D02*
X131397257Y-100349342D01*
X132302019Y-101301723D02*
X132302019Y-100730295D01*
X132302019Y-101016009D02*
X131302019Y-101016009D01*
X131302019Y-101016009D02*
X131444876Y-100920771D01*
X131444876Y-100920771D02*
X131540114Y-100825533D01*
X131540114Y-100825533D02*
X131587733Y-100730295D01*
X132302019Y-102254104D02*
X132302019Y-101682676D01*
X132302019Y-101968390D02*
X131302019Y-101968390D01*
X131302019Y-101968390D02*
X131444876Y-101873152D01*
X131444876Y-101873152D02*
X131540114Y-101777914D01*
X131540114Y-101777914D02*
X131587733Y-101682676D01*
X148761294Y-93079219D02*
X148761294Y-93888742D01*
X148761294Y-93888742D02*
X148713675Y-93983980D01*
X148713675Y-93983980D02*
X148666056Y-94031600D01*
X148666056Y-94031600D02*
X148570818Y-94079219D01*
X148570818Y-94079219D02*
X148380342Y-94079219D01*
X148380342Y-94079219D02*
X148285104Y-94031600D01*
X148285104Y-94031600D02*
X148237485Y-93983980D01*
X148237485Y-93983980D02*
X148189866Y-93888742D01*
X148189866Y-93888742D02*
X148189866Y-93079219D01*
X147189866Y-94079219D02*
X147761294Y-94079219D01*
X147475580Y-94079219D02*
X147475580Y-93079219D01*
X147475580Y-93079219D02*
X147570818Y-93222076D01*
X147570818Y-93222076D02*
X147666056Y-93317314D01*
X147666056Y-93317314D02*
X147761294Y-93364933D01*
X146618437Y-93507790D02*
X146713675Y-93460171D01*
X146713675Y-93460171D02*
X146761294Y-93412552D01*
X146761294Y-93412552D02*
X146808913Y-93317314D01*
X146808913Y-93317314D02*
X146808913Y-93269695D01*
X146808913Y-93269695D02*
X146761294Y-93174457D01*
X146761294Y-93174457D02*
X146713675Y-93126838D01*
X146713675Y-93126838D02*
X146618437Y-93079219D01*
X146618437Y-93079219D02*
X146427961Y-93079219D01*
X146427961Y-93079219D02*
X146332723Y-93126838D01*
X146332723Y-93126838D02*
X146285104Y-93174457D01*
X146285104Y-93174457D02*
X146237485Y-93269695D01*
X146237485Y-93269695D02*
X146237485Y-93317314D01*
X146237485Y-93317314D02*
X146285104Y-93412552D01*
X146285104Y-93412552D02*
X146332723Y-93460171D01*
X146332723Y-93460171D02*
X146427961Y-93507790D01*
X146427961Y-93507790D02*
X146618437Y-93507790D01*
X146618437Y-93507790D02*
X146713675Y-93555409D01*
X146713675Y-93555409D02*
X146761294Y-93603028D01*
X146761294Y-93603028D02*
X146808913Y-93698266D01*
X146808913Y-93698266D02*
X146808913Y-93888742D01*
X146808913Y-93888742D02*
X146761294Y-93983980D01*
X146761294Y-93983980D02*
X146713675Y-94031600D01*
X146713675Y-94031600D02*
X146618437Y-94079219D01*
X146618437Y-94079219D02*
X146427961Y-94079219D01*
X146427961Y-94079219D02*
X146332723Y-94031600D01*
X146332723Y-94031600D02*
X146285104Y-93983980D01*
X146285104Y-93983980D02*
X146237485Y-93888742D01*
X146237485Y-93888742D02*
X146237485Y-93698266D01*
X146237485Y-93698266D02*
X146285104Y-93603028D01*
X146285104Y-93603028D02*
X146332723Y-93555409D01*
X146332723Y-93555409D02*
X146427961Y-93507790D01*
X134158738Y-56290057D02*
X134253976Y-56242438D01*
X134253976Y-56242438D02*
X134349214Y-56147200D01*
X134349214Y-56147200D02*
X134492071Y-56004342D01*
X134492071Y-56004342D02*
X134587309Y-55956723D01*
X134587309Y-55956723D02*
X134682547Y-55956723D01*
X134634928Y-56194819D02*
X134730166Y-56147200D01*
X134730166Y-56147200D02*
X134825404Y-56051961D01*
X134825404Y-56051961D02*
X134873023Y-55861485D01*
X134873023Y-55861485D02*
X134873023Y-55528152D01*
X134873023Y-55528152D02*
X134825404Y-55337676D01*
X134825404Y-55337676D02*
X134730166Y-55242438D01*
X134730166Y-55242438D02*
X134634928Y-55194819D01*
X134634928Y-55194819D02*
X134444452Y-55194819D01*
X134444452Y-55194819D02*
X134349214Y-55242438D01*
X134349214Y-55242438D02*
X134253976Y-55337676D01*
X134253976Y-55337676D02*
X134206357Y-55528152D01*
X134206357Y-55528152D02*
X134206357Y-55861485D01*
X134206357Y-55861485D02*
X134253976Y-56051961D01*
X134253976Y-56051961D02*
X134349214Y-56147200D01*
X134349214Y-56147200D02*
X134444452Y-56194819D01*
X134444452Y-56194819D02*
X134634928Y-56194819D01*
X133253976Y-56194819D02*
X133825404Y-56194819D01*
X133539690Y-56194819D02*
X133539690Y-55194819D01*
X133539690Y-55194819D02*
X133634928Y-55337676D01*
X133634928Y-55337676D02*
X133730166Y-55432914D01*
X133730166Y-55432914D02*
X133825404Y-55480533D01*
X159429294Y-93028419D02*
X159429294Y-93837942D01*
X159429294Y-93837942D02*
X159381675Y-93933180D01*
X159381675Y-93933180D02*
X159334056Y-93980800D01*
X159334056Y-93980800D02*
X159238818Y-94028419D01*
X159238818Y-94028419D02*
X159048342Y-94028419D01*
X159048342Y-94028419D02*
X158953104Y-93980800D01*
X158953104Y-93980800D02*
X158905485Y-93933180D01*
X158905485Y-93933180D02*
X158857866Y-93837942D01*
X158857866Y-93837942D02*
X158857866Y-93028419D01*
X157857866Y-94028419D02*
X158429294Y-94028419D01*
X158143580Y-94028419D02*
X158143580Y-93028419D01*
X158143580Y-93028419D02*
X158238818Y-93171276D01*
X158238818Y-93171276D02*
X158334056Y-93266514D01*
X158334056Y-93266514D02*
X158429294Y-93314133D01*
X157381675Y-94028419D02*
X157191199Y-94028419D01*
X157191199Y-94028419D02*
X157095961Y-93980800D01*
X157095961Y-93980800D02*
X157048342Y-93933180D01*
X157048342Y-93933180D02*
X156953104Y-93790323D01*
X156953104Y-93790323D02*
X156905485Y-93599847D01*
X156905485Y-93599847D02*
X156905485Y-93218895D01*
X156905485Y-93218895D02*
X156953104Y-93123657D01*
X156953104Y-93123657D02*
X157000723Y-93076038D01*
X157000723Y-93076038D02*
X157095961Y-93028419D01*
X157095961Y-93028419D02*
X157286437Y-93028419D01*
X157286437Y-93028419D02*
X157381675Y-93076038D01*
X157381675Y-93076038D02*
X157429294Y-93123657D01*
X157429294Y-93123657D02*
X157476913Y-93218895D01*
X157476913Y-93218895D02*
X157476913Y-93456990D01*
X157476913Y-93456990D02*
X157429294Y-93552228D01*
X157429294Y-93552228D02*
X157381675Y-93599847D01*
X157381675Y-93599847D02*
X157286437Y-93647466D01*
X157286437Y-93647466D02*
X157095961Y-93647466D01*
X157095961Y-93647466D02*
X157000723Y-93599847D01*
X157000723Y-93599847D02*
X156953104Y-93552228D01*
X156953104Y-93552228D02*
X156905485Y-93456990D01*
X170046494Y-93130019D02*
X170046494Y-93939542D01*
X170046494Y-93939542D02*
X169998875Y-94034780D01*
X169998875Y-94034780D02*
X169951256Y-94082400D01*
X169951256Y-94082400D02*
X169856018Y-94130019D01*
X169856018Y-94130019D02*
X169665542Y-94130019D01*
X169665542Y-94130019D02*
X169570304Y-94082400D01*
X169570304Y-94082400D02*
X169522685Y-94034780D01*
X169522685Y-94034780D02*
X169475066Y-93939542D01*
X169475066Y-93939542D02*
X169475066Y-93130019D01*
X169046494Y-93225257D02*
X168998875Y-93177638D01*
X168998875Y-93177638D02*
X168903637Y-93130019D01*
X168903637Y-93130019D02*
X168665542Y-93130019D01*
X168665542Y-93130019D02*
X168570304Y-93177638D01*
X168570304Y-93177638D02*
X168522685Y-93225257D01*
X168522685Y-93225257D02*
X168475066Y-93320495D01*
X168475066Y-93320495D02*
X168475066Y-93415733D01*
X168475066Y-93415733D02*
X168522685Y-93558590D01*
X168522685Y-93558590D02*
X169094113Y-94130019D01*
X169094113Y-94130019D02*
X168475066Y-94130019D01*
X167856018Y-93130019D02*
X167760780Y-93130019D01*
X167760780Y-93130019D02*
X167665542Y-93177638D01*
X167665542Y-93177638D02*
X167617923Y-93225257D01*
X167617923Y-93225257D02*
X167570304Y-93320495D01*
X167570304Y-93320495D02*
X167522685Y-93510971D01*
X167522685Y-93510971D02*
X167522685Y-93749066D01*
X167522685Y-93749066D02*
X167570304Y-93939542D01*
X167570304Y-93939542D02*
X167617923Y-94034780D01*
X167617923Y-94034780D02*
X167665542Y-94082400D01*
X167665542Y-94082400D02*
X167760780Y-94130019D01*
X167760780Y-94130019D02*
X167856018Y-94130019D01*
X167856018Y-94130019D02*
X167951256Y-94082400D01*
X167951256Y-94082400D02*
X167998875Y-94034780D01*
X167998875Y-94034780D02*
X168046494Y-93939542D01*
X168046494Y-93939542D02*
X168094113Y-93749066D01*
X168094113Y-93749066D02*
X168094113Y-93510971D01*
X168094113Y-93510971D02*
X168046494Y-93320495D01*
X168046494Y-93320495D02*
X167998875Y-93225257D01*
X167998875Y-93225257D02*
X167951256Y-93177638D01*
X167951256Y-93177638D02*
X167856018Y-93130019D01*
X163082266Y-126142819D02*
X163415599Y-125666628D01*
X163653694Y-126142819D02*
X163653694Y-125142819D01*
X163653694Y-125142819D02*
X163272742Y-125142819D01*
X163272742Y-125142819D02*
X163177504Y-125190438D01*
X163177504Y-125190438D02*
X163129885Y-125238057D01*
X163129885Y-125238057D02*
X163082266Y-125333295D01*
X163082266Y-125333295D02*
X163082266Y-125476152D01*
X163082266Y-125476152D02*
X163129885Y-125571390D01*
X163129885Y-125571390D02*
X163177504Y-125619009D01*
X163177504Y-125619009D02*
X163272742Y-125666628D01*
X163272742Y-125666628D02*
X163653694Y-125666628D01*
X162129885Y-126142819D02*
X162701313Y-126142819D01*
X162415599Y-126142819D02*
X162415599Y-125142819D01*
X162415599Y-125142819D02*
X162510837Y-125285676D01*
X162510837Y-125285676D02*
X162606075Y-125380914D01*
X162606075Y-125380914D02*
X162701313Y-125428533D01*
D11*
%TO.C,C2*%
X136774600Y-137263348D02*
X136774600Y-138685852D01*
X134954600Y-137263348D02*
X134954600Y-138685852D01*
%TO.C,U5*%
X173238841Y-79093671D02*
X173238841Y-65893671D01*
X193838841Y-77093671D02*
X193838841Y-79093671D01*
X194038841Y-77093671D02*
X193838841Y-77093671D01*
X194038841Y-77093671D02*
X194038841Y-65893671D01*
%TO.C,C6*%
X186990400Y-118363948D02*
X186990400Y-119786452D01*
X185170400Y-118363948D02*
X185170400Y-119786452D01*
%TO.C,C9*%
X179189075Y-98617128D02*
X179189075Y-97194624D01*
X181009075Y-98617128D02*
X181009075Y-97194624D01*
%TO.C,U4*%
X158504400Y-91153800D02*
X158504400Y-90773800D01*
X158504400Y-72903800D02*
X159664400Y-72903800D01*
X158504400Y-72523800D02*
X158504400Y-72903800D01*
X153314400Y-91153800D02*
X158504400Y-91153800D01*
X153314400Y-91153800D02*
X148124400Y-91153800D01*
X153314400Y-72523800D02*
X158504400Y-72523800D01*
X153314400Y-72523800D02*
X148124400Y-72523800D01*
X148124400Y-91153800D02*
X148124400Y-90773800D01*
X148124400Y-72523800D02*
X148124400Y-72903800D01*
%TO.C,U10*%
X141473200Y-100701400D02*
X141473200Y-98751400D01*
X141473200Y-100701400D02*
X141473200Y-102651400D01*
X131353200Y-100701400D02*
X131353200Y-97251400D01*
X131353200Y-100701400D02*
X131353200Y-102651400D01*
%TO.C,U3*%
X150197400Y-67360400D02*
X148397400Y-67360400D01*
X148397400Y-64140400D02*
X150847400Y-64140400D01*
%TO.C,C11*%
X129087200Y-101703452D02*
X129087200Y-100280948D01*
X130907200Y-101703452D02*
X130907200Y-100280948D01*
%TO.C,U18*%
X157282200Y-98268351D02*
X157282200Y-96318351D01*
X157282200Y-98268351D02*
X157282200Y-100218351D01*
X147162200Y-98268351D02*
X147162200Y-94818351D01*
X147162200Y-98268351D02*
X147162200Y-100218351D01*
%TO.C,Q1*%
X134063500Y-51780000D02*
X133413500Y-51780000D01*
X134063500Y-51780000D02*
X134713500Y-51780000D01*
X134063500Y-54900000D02*
X132388500Y-54900000D01*
X134063500Y-54900000D02*
X134713500Y-54900000D01*
%TO.C,U19*%
X167797800Y-98268351D02*
X167797800Y-96318351D01*
X167797800Y-98268351D02*
X167797800Y-100218351D01*
X157677800Y-98268351D02*
X157677800Y-94818351D01*
X157677800Y-98268351D02*
X157677800Y-100218351D01*
%TO.C,U20*%
X178338800Y-98257151D02*
X178338800Y-96307151D01*
X178338800Y-98257151D02*
X178338800Y-100207151D01*
X168218800Y-98257151D02*
X168218800Y-94807151D01*
X168218800Y-98257151D02*
X168218800Y-100207151D01*
%TO.C,R1*%
X163642664Y-128418000D02*
X162188536Y-128418000D01*
X163642664Y-126598000D02*
X162188536Y-126598000D01*
%TD*%
M02*
