%TF.GenerationSoftware,KiCad,Pcbnew,7.0.6-7.0.6~ubuntu20.04.1*%
%TF.CreationDate,2023-08-06T10:37:38+02:00*%
%TF.ProjectId,RAMROM_512k_board,52414d52-4f4d-45f3-9531-326b5f626f61,rev?*%
%TF.SameCoordinates,Original*%
%TF.FileFunction,Soldermask,Top*%
%TF.FilePolarity,Negative*%
%FSLAX46Y46*%
G04 Gerber Fmt 4.6, Leading zero omitted, Abs format (unit mm)*
G04 Created by KiCad (PCBNEW 7.0.6-7.0.6~ubuntu20.04.1) date 2023-08-06 10:37:38*
%MOMM*%
%LPD*%
G01*
G04 APERTURE LIST*
G04 Aperture macros list*
%AMRoundRect*
0 Rectangle with rounded corners*
0 $1 Rounding radius*
0 $2 $3 $4 $5 $6 $7 $8 $9 X,Y pos of 4 corners*
0 Add a 4 corners polygon primitive as box body*
4,1,4,$2,$3,$4,$5,$6,$7,$8,$9,$2,$3,0*
0 Add four circle primitives for the rounded corners*
1,1,$1+$1,$2,$3*
1,1,$1+$1,$4,$5*
1,1,$1+$1,$6,$7*
1,1,$1+$1,$8,$9*
0 Add four rect primitives between the rounded corners*
20,1,$1+$1,$2,$3,$4,$5,0*
20,1,$1+$1,$4,$5,$6,$7,0*
20,1,$1+$1,$6,$7,$8,$9,0*
20,1,$1+$1,$8,$9,$2,$3,0*%
G04 Aperture macros list end*
%ADD10RoundRect,0.150000X0.512500X0.150000X-0.512500X0.150000X-0.512500X-0.150000X0.512500X-0.150000X0*%
%ADD11R,1.350000X1.350000*%
%ADD12R,1.700000X1.700000*%
%ADD13O,1.700000X1.700000*%
%ADD14RoundRect,0.150000X-0.150000X0.825000X-0.150000X-0.825000X0.150000X-0.825000X0.150000X0.825000X0*%
%ADD15R,2.400000X1.600000*%
%ADD16O,2.400000X1.600000*%
%ADD17RoundRect,0.150000X0.825000X0.150000X-0.825000X0.150000X-0.825000X-0.150000X0.825000X-0.150000X0*%
%ADD18RoundRect,0.250000X-0.650000X0.325000X-0.650000X-0.325000X0.650000X-0.325000X0.650000X0.325000X0*%
%ADD19RoundRect,0.250000X-0.625000X0.312500X-0.625000X-0.312500X0.625000X-0.312500X0.625000X0.312500X0*%
%ADD20RoundRect,0.250000X0.625000X-0.400000X0.625000X0.400000X-0.625000X0.400000X-0.625000X-0.400000X0*%
%ADD21RoundRect,0.150000X0.725000X0.150000X-0.725000X0.150000X-0.725000X-0.150000X0.725000X-0.150000X0*%
%ADD22RoundRect,0.150000X-0.512500X-0.150000X0.512500X-0.150000X0.512500X0.150000X-0.512500X0.150000X0*%
%ADD23RoundRect,0.150000X0.150000X-0.825000X0.150000X0.825000X-0.150000X0.825000X-0.150000X-0.825000X0*%
%ADD24RoundRect,0.250000X-0.229810X0.689429X-0.689429X0.229810X0.229810X-0.689429X0.689429X-0.229810X0*%
%ADD25RoundRect,0.250000X0.312500X0.625000X-0.312500X0.625000X-0.312500X-0.625000X0.312500X-0.625000X0*%
%ADD26C,3.200000*%
%ADD27RoundRect,0.150000X-0.825000X-0.150000X0.825000X-0.150000X0.825000X0.150000X-0.825000X0.150000X0*%
%ADD28RoundRect,0.150000X0.150000X-0.837500X0.150000X0.837500X-0.150000X0.837500X-0.150000X-0.837500X0*%
%ADD29RoundRect,0.250000X0.650000X-0.325000X0.650000X0.325000X-0.650000X0.325000X-0.650000X-0.325000X0*%
%ADD30RoundRect,0.150000X-0.725000X-0.150000X0.725000X-0.150000X0.725000X0.150000X-0.725000X0.150000X0*%
G04 APERTURE END LIST*
D10*
%TO.C,U12*%
X142005900Y-103312000D03*
X142005900Y-102362000D03*
X142005900Y-101412000D03*
X139730900Y-101412000D03*
X139730900Y-103312000D03*
%TD*%
D11*
%TO.C,J13*%
X152996900Y-120738900D03*
%TD*%
D12*
%TO.C,J1*%
X139700000Y-48303005D03*
D13*
X139700000Y-50843005D03*
X142240000Y-48303005D03*
X142240000Y-50843005D03*
X144780000Y-48303005D03*
X144780000Y-50843005D03*
X147320000Y-48303005D03*
X147320000Y-50843005D03*
X149860000Y-48303005D03*
X149860000Y-50843005D03*
X152400000Y-48303005D03*
X152400000Y-50843005D03*
X154940000Y-48303005D03*
X154940000Y-50843005D03*
X157480000Y-48303005D03*
X157480000Y-50843005D03*
X160020000Y-48303005D03*
X160020000Y-50843005D03*
X162560000Y-48303005D03*
X162560000Y-50843005D03*
X165100000Y-48303005D03*
X165100000Y-50843005D03*
X167640000Y-48303005D03*
X167640000Y-50843005D03*
X170180000Y-48303005D03*
X170180000Y-50843005D03*
X172720000Y-48303005D03*
X172720000Y-50843005D03*
X175260000Y-48303005D03*
X175260000Y-50843005D03*
X177800000Y-48303005D03*
X177800000Y-50843005D03*
X180340000Y-48303005D03*
X180340000Y-50843005D03*
X182880000Y-48303005D03*
X182880000Y-50843005D03*
X185420000Y-48303005D03*
X185420000Y-50843005D03*
X187960000Y-48303005D03*
X187960000Y-50843005D03*
%TD*%
D14*
%TO.C,U13*%
X153301700Y-124932900D03*
X152031700Y-124932900D03*
X150761700Y-124932900D03*
X149491700Y-124932900D03*
X148221700Y-124932900D03*
X146951700Y-124932900D03*
X145681700Y-124932900D03*
X145681700Y-129882900D03*
X146951700Y-129882900D03*
X148221700Y-129882900D03*
X149491700Y-129882900D03*
X150761700Y-129882900D03*
X152031700Y-129882900D03*
X153301700Y-129882900D03*
%TD*%
D15*
%TO.C,J6*%
X109220000Y-83947000D03*
D16*
X109220000Y-86487000D03*
X109220000Y-89027000D03*
X109220000Y-91567000D03*
X109220000Y-94107000D03*
X109220000Y-96647000D03*
X109220000Y-99187000D03*
X109220000Y-101727000D03*
X109220000Y-104267000D03*
X109220000Y-106807000D03*
X109220000Y-109347000D03*
X109220000Y-111887000D03*
X109220000Y-114427000D03*
X109220000Y-116967000D03*
X109220000Y-119507000D03*
X109220000Y-122047000D03*
X109220000Y-124587000D03*
X109220000Y-127127000D03*
X109220000Y-129667000D03*
X109220000Y-132207000D03*
X124460000Y-132207000D03*
X124460000Y-129667000D03*
X124460000Y-127127000D03*
X124460000Y-124587000D03*
X124460000Y-122047000D03*
X124460000Y-119507000D03*
X124460000Y-116967000D03*
X124460000Y-114427000D03*
X124460000Y-111887000D03*
X124460000Y-109347000D03*
X124460000Y-106807000D03*
X124460000Y-104267000D03*
X124460000Y-101727000D03*
X124460000Y-99187000D03*
X124460000Y-96647000D03*
X124460000Y-94107000D03*
X124460000Y-91567000D03*
X124460000Y-89027000D03*
X124460000Y-86487000D03*
X124460000Y-83947000D03*
%TD*%
D17*
%TO.C,U11*%
X137653800Y-130683000D03*
X137653800Y-129413000D03*
X137653800Y-128143000D03*
X137653800Y-126873000D03*
X132703800Y-126873000D03*
X132703800Y-128143000D03*
X132703800Y-129413000D03*
X132703800Y-130683000D03*
%TD*%
D18*
%TO.C,C10*%
X161213800Y-66544400D03*
X161213800Y-69494400D03*
%TD*%
D19*
%TO.C,R3*%
X113995200Y-114717100D03*
X113995200Y-117642100D03*
%TD*%
D12*
%TO.C,J4*%
X139700000Y-133849005D03*
D13*
X139700000Y-136389005D03*
X142240000Y-133849005D03*
X142240000Y-136389005D03*
X144780000Y-133849005D03*
X144780000Y-136389005D03*
X147320000Y-133849005D03*
X147320000Y-136389005D03*
X149860000Y-133849005D03*
X149860000Y-136389005D03*
X152400000Y-133849005D03*
X152400000Y-136389005D03*
X154940000Y-133849005D03*
X154940000Y-136389005D03*
X157480000Y-133849005D03*
X157480000Y-136389005D03*
X160020000Y-133849005D03*
X160020000Y-136389005D03*
X162560000Y-133849005D03*
X162560000Y-136389005D03*
X165100000Y-133849005D03*
X165100000Y-136389005D03*
X167640000Y-133849005D03*
X167640000Y-136389005D03*
X170180000Y-133849005D03*
X170180000Y-136389005D03*
X172720000Y-133849005D03*
X172720000Y-136389005D03*
X175260000Y-133849005D03*
X175260000Y-136389005D03*
X177800000Y-133849005D03*
X177800000Y-136389005D03*
X180340000Y-133849005D03*
X180340000Y-136389005D03*
X182880000Y-133849005D03*
X182880000Y-136389005D03*
X185420000Y-133849005D03*
X185420000Y-136389005D03*
X187960000Y-133849005D03*
X187960000Y-136389005D03*
%TD*%
D11*
%TO.C,J5*%
X135229600Y-119735600D03*
%TD*%
D20*
%TO.C,R2*%
X179451000Y-128449000D03*
X179451000Y-125349000D03*
%TD*%
D21*
%TO.C,U6*%
X179482841Y-78005471D03*
X179482841Y-76735471D03*
X179482841Y-75465471D03*
X179482841Y-74195471D03*
X179482841Y-72925471D03*
X179482841Y-71655471D03*
X179482841Y-70385471D03*
X179482841Y-69115471D03*
X174332841Y-69115471D03*
X174332841Y-70385471D03*
X174332841Y-71655471D03*
X174332841Y-72925471D03*
X174332841Y-74195471D03*
X174332841Y-75465471D03*
X174332841Y-76735471D03*
X174332841Y-78005471D03*
%TD*%
D11*
%TO.C,J12*%
X145376900Y-120738900D03*
%TD*%
D14*
%TO.C,U16*%
X177450000Y-124900400D03*
X176180000Y-124900400D03*
X174910000Y-124900400D03*
X173640000Y-124900400D03*
X172370000Y-124900400D03*
X171100000Y-124900400D03*
X169830000Y-124900400D03*
X168560000Y-124900400D03*
X168560000Y-129850400D03*
X169830000Y-129850400D03*
X171100000Y-129850400D03*
X172370000Y-129850400D03*
X173640000Y-129850400D03*
X174910000Y-129850400D03*
X176180000Y-129850400D03*
X177450000Y-129850400D03*
%TD*%
D22*
%TO.C,U8*%
X191125741Y-63261200D03*
X191125741Y-64211200D03*
X191125741Y-65161200D03*
X193400741Y-65161200D03*
X193400741Y-63261200D03*
%TD*%
D11*
%TO.C,J10*%
X132130800Y-119684800D03*
%TD*%
D23*
%TO.C,U21*%
X138049000Y-67168800D03*
X139319000Y-67168800D03*
X140589000Y-67168800D03*
X141859000Y-67168800D03*
X143129000Y-67168800D03*
X144399000Y-67168800D03*
X145669000Y-67168800D03*
X145669000Y-62218800D03*
X144399000Y-62218800D03*
X143129000Y-62218800D03*
X141859000Y-62218800D03*
X140589000Y-62218800D03*
X139319000Y-62218800D03*
X138049000Y-62218800D03*
%TD*%
D18*
%TO.C,C4*%
X155168600Y-80492600D03*
X155168600Y-83442600D03*
%TD*%
D14*
%TO.C,U17*%
X166299400Y-124900400D03*
X165029400Y-124900400D03*
X163759400Y-124900400D03*
X162489400Y-124900400D03*
X161219400Y-124900400D03*
X159949400Y-124900400D03*
X158679400Y-124900400D03*
X157409400Y-124900400D03*
X157409400Y-129850400D03*
X158679400Y-129850400D03*
X159949400Y-129850400D03*
X161219400Y-129850400D03*
X162489400Y-129850400D03*
X163759400Y-129850400D03*
X165029400Y-129850400D03*
X166299400Y-129850400D03*
%TD*%
D24*
%TO.C,C5*%
X184973441Y-73329800D03*
X182887475Y-75415766D03*
%TD*%
D12*
%TO.C,J2*%
X139700000Y-139849005D03*
D13*
X139700000Y-142389005D03*
X142240000Y-139849005D03*
X142240000Y-142389005D03*
X144780000Y-139849005D03*
X144780000Y-142389005D03*
X147320000Y-139849005D03*
X147320000Y-142389005D03*
X149860000Y-139849005D03*
X149860000Y-142389005D03*
X152400000Y-139849005D03*
X152400000Y-142389005D03*
X154940000Y-139849005D03*
X154940000Y-142389005D03*
X157480000Y-139849005D03*
X157480000Y-142389005D03*
X160020000Y-139849005D03*
X160020000Y-142389005D03*
X162560000Y-139849005D03*
X162560000Y-142389005D03*
X165100000Y-139849005D03*
X165100000Y-142389005D03*
X167640000Y-139849005D03*
X167640000Y-142389005D03*
X170180000Y-139849005D03*
X170180000Y-142389005D03*
X172720000Y-139849005D03*
X172720000Y-142389005D03*
X175260000Y-139849005D03*
X175260000Y-142389005D03*
X177800000Y-139849005D03*
X177800000Y-142389005D03*
X180340000Y-139849005D03*
X180340000Y-142389005D03*
X182880000Y-139849005D03*
X182880000Y-142389005D03*
X185420000Y-139849005D03*
X185420000Y-142389005D03*
X187960000Y-139849005D03*
X187960000Y-142389005D03*
%TD*%
D25*
%TO.C,R6*%
X135839200Y-122529600D03*
X132914200Y-122529600D03*
%TD*%
D26*
%TO.C,H3*%
X193340000Y-49346005D03*
%TD*%
D19*
%TO.C,R4*%
X116382800Y-114717100D03*
X116382800Y-117642100D03*
%TD*%
D25*
%TO.C,R5*%
X135868600Y-124866400D03*
X132943600Y-124866400D03*
%TD*%
D27*
%TO.C,U2*%
X183540400Y-114604800D03*
X183540400Y-115874800D03*
X183540400Y-117144800D03*
X183540400Y-118414800D03*
X183540400Y-119684800D03*
X183540400Y-120954800D03*
X183540400Y-122224800D03*
X188490400Y-122224800D03*
X188490400Y-120954800D03*
X188490400Y-119684800D03*
X188490400Y-118414800D03*
X188490400Y-117144800D03*
X188490400Y-115874800D03*
X188490400Y-114604800D03*
%TD*%
D12*
%TO.C,J3*%
X139700000Y-54303005D03*
D13*
X139700000Y-56843005D03*
X142240000Y-54303005D03*
X142240000Y-56843005D03*
X144780000Y-54303005D03*
X144780000Y-56843005D03*
X147320000Y-54303005D03*
X147320000Y-56843005D03*
X149860000Y-54303005D03*
X149860000Y-56843005D03*
X152400000Y-54303005D03*
X152400000Y-56843005D03*
X154940000Y-54303005D03*
X154940000Y-56843005D03*
X157480000Y-54303005D03*
X157480000Y-56843005D03*
X160020000Y-54303005D03*
X160020000Y-56843005D03*
X162560000Y-54303005D03*
X162560000Y-56843005D03*
X165100000Y-54303005D03*
X165100000Y-56843005D03*
X167640000Y-54303005D03*
X167640000Y-56843005D03*
X170180000Y-54303005D03*
X170180000Y-56843005D03*
X172720000Y-54303005D03*
X172720000Y-56843005D03*
X175260000Y-54303005D03*
X175260000Y-56843005D03*
X177800000Y-54303005D03*
X177800000Y-56843005D03*
X180340000Y-54303005D03*
X180340000Y-56843005D03*
X182880000Y-54303005D03*
X182880000Y-56843005D03*
X185420000Y-54303005D03*
X185420000Y-56843005D03*
X187960000Y-54303005D03*
X187960000Y-56843005D03*
%TD*%
D11*
%TO.C,J11*%
X150456900Y-120738900D03*
%TD*%
D28*
%TO.C,U1*%
X147362000Y-69155000D03*
X148632000Y-69155000D03*
X149902000Y-69155000D03*
X151172000Y-69155000D03*
X152442000Y-69155000D03*
X153712000Y-69155000D03*
X154982000Y-69155000D03*
X156252000Y-69155000D03*
X157522000Y-69155000D03*
X158792000Y-69155000D03*
X158792000Y-62230000D03*
X157522000Y-62230000D03*
X156252000Y-62230000D03*
X154982000Y-62230000D03*
X153712000Y-62230000D03*
X152442000Y-62230000D03*
X151172000Y-62230000D03*
X149902000Y-62230000D03*
X148632000Y-62230000D03*
X147362000Y-62230000D03*
%TD*%
D29*
%TO.C,C7*%
X143713200Y-127205000D03*
X143713200Y-124255000D03*
%TD*%
D26*
%TO.C,H1*%
X101340000Y-49346005D03*
%TD*%
D30*
%TO.C,U7*%
X187947241Y-68531271D03*
X187947241Y-69801271D03*
X187947241Y-71071271D03*
X187947241Y-72341271D03*
X187947241Y-73611271D03*
X187947241Y-74881271D03*
X187947241Y-76151271D03*
X187947241Y-77421271D03*
X193097241Y-77421271D03*
X193097241Y-76151271D03*
X193097241Y-74881271D03*
X193097241Y-73611271D03*
X193097241Y-72341271D03*
X193097241Y-71071271D03*
X193097241Y-69801271D03*
X193097241Y-68531271D03*
%TD*%
D29*
%TO.C,C1*%
X135636000Y-50497000D03*
X135636000Y-47547000D03*
%TD*%
D11*
%TO.C,J8*%
X191312800Y-131419600D03*
%TD*%
D23*
%TO.C,U9*%
X133159500Y-93867362D03*
X134429500Y-93867362D03*
X135699500Y-93867362D03*
X136969500Y-93867362D03*
X138239500Y-93867362D03*
X139509500Y-93867362D03*
X140779500Y-93867362D03*
X142049500Y-93867362D03*
X142049500Y-88917362D03*
X140779500Y-88917362D03*
X139509500Y-88917362D03*
X138239500Y-88917362D03*
X136969500Y-88917362D03*
X135699500Y-88917362D03*
X134429500Y-88917362D03*
X133159500Y-88917362D03*
%TD*%
D26*
%TO.C,H2*%
X101340000Y-141346005D03*
%TD*%
D29*
%TO.C,C3*%
X155339481Y-127470811D03*
X155339481Y-124520811D03*
%TD*%
D18*
%TO.C,C8*%
X136042400Y-63015600D03*
X136042400Y-65965600D03*
%TD*%
D26*
%TO.C,H4*%
X193340000Y-141346005D03*
%TD*%
D11*
%TO.C,J14*%
X147916900Y-120738900D03*
%TD*%
M02*
