M48
; DRILL file {KiCad 7.0.5-7.0.5~ubuntu20.04.1} date Di 18 Jul 2023 12:44:15
; FORMAT={-:-/ absolute / metric / decimal}
; #@! TF.CreationDate,2023-07-18T12:44:15+02:00
; #@! TF.GenerationSoftware,Kicad,Pcbnew,7.0.5-7.0.5~ubuntu20.04.1
; #@! TF.FileFunction,MixedPlating,1,2
FMAT,2
METRIC
; #@! TA.AperFunction,Plated,PTH,ViaDrill
T1C0.300
; #@! TA.AperFunction,Plated,PTH,ViaDrill
T2C0.400
; #@! TA.AperFunction,Plated,PTH,ComponentDrill
T3C0.500
; #@! TA.AperFunction,Plated,PTH,ComponentDrill
T4C0.800
%
G90
G05
T1
X101.594Y-88.166
X102.688Y-93.716
X102.688Y-95.616
X105.12Y-88.168
X105.388Y-93.716
X108.004Y-89.343
X108.839Y-86.111
X108.839Y-88.011
X112.344Y-88.849
X112.878Y-89.586
X113.538Y-92.008
X114.122Y-91.367
X117.499Y-90.034
X117.787Y-92.713
X118.339Y-91.973
X119.228Y-90.062
X119.482Y-90.932
X134.026Y-85.462
T2
X113.069Y-84.879
X123.469Y-89.052
X123.77Y-93.418
X124.588Y-88.959
X124.689Y-90.576
X124.81Y-93.237
X127.013Y-96.139
T3
X107.112Y-91.948
X107.899Y-92.964
X108.199Y-91.567
X108.509Y-94.64
X108.763Y-96.012
X109.144Y-92.989
X109.268Y-90.78
X109.779Y-94.513
X109.982Y-96.024
X111.658Y-95.123
X112.319Y-91.034
X112.776Y-86.868
X113.436Y-90.653
X113.868Y-94.844
X113.894Y-86.563
X131.039Y-93.751
X131.089Y-95.733
X131.267Y-88.392
X132.232Y-93.726
X132.258Y-95.733
X132.283Y-86.716
X132.309Y-91.796
X132.385Y-89.103
X132.867Y-94.717
X133.426Y-95.758
X133.452Y-86.944
X133.452Y-88.113
X133.477Y-93.701
X133.883Y-89.23
X133.883Y-90.449
X134.645Y-88.087
T4
X101.651Y-83.591
X101.651Y-98.831
X104.191Y-83.591
X104.191Y-98.831
X106.731Y-83.591
X106.731Y-98.831
X109.271Y-83.591
X109.271Y-98.831
X111.811Y-83.591
X111.811Y-98.831
X114.351Y-83.591
X114.351Y-98.831
X116.891Y-83.591
X116.891Y-98.831
X119.431Y-83.591
X119.431Y-98.831
X121.971Y-83.591
X121.971Y-98.831
X124.511Y-83.591
X124.511Y-98.831
X127.051Y-83.591
X127.051Y-98.831
X129.591Y-83.591
X129.591Y-98.831
X132.131Y-83.591
X132.131Y-98.831
X134.671Y-83.591
X134.671Y-98.831
T0
M30
