%TF.GenerationSoftware,KiCad,Pcbnew,7.0.5-7.0.5~ubuntu20.04.1*%
%TF.CreationDate,2023-07-18T12:44:14+02:00*%
%TF.ProjectId,EpromEMU_BOT,4570726f-6d45-44d5-955f-424f542e6b69,rev?*%
%TF.SameCoordinates,Original*%
%TF.FileFunction,Paste,Bot*%
%TF.FilePolarity,Positive*%
%FSLAX46Y46*%
G04 Gerber Fmt 4.6, Leading zero omitted, Abs format (unit mm)*
G04 Created by KiCad (PCBNEW 7.0.5-7.0.5~ubuntu20.04.1) date 2023-07-18 12:44:14*
%MOMM*%
%LPD*%
G01*
G04 APERTURE LIST*
G04 Aperture macros list*
%AMRoundRect*
0 Rectangle with rounded corners*
0 $1 Rounding radius*
0 $2 $3 $4 $5 $6 $7 $8 $9 X,Y pos of 4 corners*
0 Add a 4 corners polygon primitive as box body*
4,1,4,$2,$3,$4,$5,$6,$7,$8,$9,$2,$3,0*
0 Add four circle primitives for the rounded corners*
1,1,$1+$1,$2,$3*
1,1,$1+$1,$4,$5*
1,1,$1+$1,$6,$7*
1,1,$1+$1,$8,$9*
0 Add four rect primitives between the rounded corners*
20,1,$1+$1,$2,$3,$4,$5,0*
20,1,$1+$1,$4,$5,$6,$7,0*
20,1,$1+$1,$6,$7,$8,$9,0*
20,1,$1+$1,$8,$9,$2,$3,0*%
G04 Aperture macros list end*
%ADD10RoundRect,0.250000X0.250000X0.475000X-0.250000X0.475000X-0.250000X-0.475000X0.250000X-0.475000X0*%
%ADD11RoundRect,0.075000X0.662500X0.075000X-0.662500X0.075000X-0.662500X-0.075000X0.662500X-0.075000X0*%
%ADD12RoundRect,0.250000X0.475000X-0.250000X0.475000X0.250000X-0.475000X0.250000X-0.475000X-0.250000X0*%
%ADD13RoundRect,0.250000X-0.250000X-0.475000X0.250000X-0.475000X0.250000X0.475000X-0.250000X0.475000X0*%
%ADD14RoundRect,0.150000X-0.150000X0.587500X-0.150000X-0.587500X0.150000X-0.587500X0.150000X0.587500X0*%
G04 APERTURE END LIST*
D10*
%TO.C,C1*%
X106146600Y-95427800D03*
X104246600Y-95427800D03*
%TD*%
D11*
%TO.C,U5*%
X129304720Y-85461600D03*
X129304720Y-85961600D03*
X129304720Y-86461600D03*
X129304720Y-86961600D03*
X129304720Y-87461600D03*
X129304720Y-87961600D03*
X129304720Y-88461600D03*
X129304720Y-88961600D03*
X129304720Y-89461600D03*
X129304720Y-89961600D03*
X129304720Y-90461600D03*
X129304720Y-90961600D03*
X129304720Y-91461600D03*
X129304720Y-91961600D03*
X129304720Y-92461600D03*
X129304720Y-92961600D03*
X129304720Y-93461600D03*
X129304720Y-93961600D03*
X129304720Y-94461600D03*
X129304720Y-94961600D03*
X129304720Y-95461600D03*
X129304720Y-95961600D03*
X129304720Y-96461600D03*
X129304720Y-96961600D03*
X121879720Y-96961600D03*
X121879720Y-96461600D03*
X121879720Y-95961600D03*
X121879720Y-95461600D03*
X121879720Y-94961600D03*
X121879720Y-94461600D03*
X121879720Y-93961600D03*
X121879720Y-93461600D03*
X121879720Y-92961600D03*
X121879720Y-92461600D03*
X121879720Y-91961600D03*
X121879720Y-91461600D03*
X121879720Y-90961600D03*
X121879720Y-90461600D03*
X121879720Y-89961600D03*
X121879720Y-89461600D03*
X121879720Y-88961600D03*
X121879720Y-88461600D03*
X121879720Y-87961600D03*
X121879720Y-87461600D03*
X121879720Y-86961600D03*
X121879720Y-86461600D03*
X121879720Y-85961600D03*
X121879720Y-85461600D03*
%TD*%
D12*
%TO.C,C2*%
X108839000Y-88011000D03*
X108839000Y-86111000D03*
%TD*%
D13*
%TO.C,C6*%
X101589800Y-85979000D03*
X103489800Y-85979000D03*
%TD*%
D14*
%TO.C,U8*%
X101564400Y-88165700D03*
X103464400Y-88165700D03*
X102514400Y-90040700D03*
%TD*%
%TO.C,D2*%
X105120400Y-88168000D03*
X107020400Y-88168000D03*
X106070400Y-90043000D03*
%TD*%
M02*
