%TF.GenerationSoftware,KiCad,Pcbnew,7.0.5-7.0.5~ubuntu20.04.1*%
%TF.CreationDate,2023-07-18T12:44:14+02:00*%
%TF.ProjectId,EpromEMU_BOT,4570726f-6d45-44d5-955f-424f542e6b69,rev?*%
%TF.SameCoordinates,Original*%
%TF.FileFunction,Soldermask,Bot*%
%TF.FilePolarity,Negative*%
%FSLAX46Y46*%
G04 Gerber Fmt 4.6, Leading zero omitted, Abs format (unit mm)*
G04 Created by KiCad (PCBNEW 7.0.5-7.0.5~ubuntu20.04.1) date 2023-07-18 12:44:14*
%MOMM*%
%LPD*%
G01*
G04 APERTURE LIST*
G04 Aperture macros list*
%AMRoundRect*
0 Rectangle with rounded corners*
0 $1 Rounding radius*
0 $2 $3 $4 $5 $6 $7 $8 $9 X,Y pos of 4 corners*
0 Add a 4 corners polygon primitive as box body*
4,1,4,$2,$3,$4,$5,$6,$7,$8,$9,$2,$3,0*
0 Add four circle primitives for the rounded corners*
1,1,$1+$1,$2,$3*
1,1,$1+$1,$4,$5*
1,1,$1+$1,$6,$7*
1,1,$1+$1,$8,$9*
0 Add four rect primitives between the rounded corners*
20,1,$1+$1,$2,$3,$4,$5,0*
20,1,$1+$1,$4,$5,$6,$7,0*
20,1,$1+$1,$6,$7,$8,$9,0*
20,1,$1+$1,$8,$9,$2,$3,0*%
G04 Aperture macros list end*
%ADD10C,0.800000*%
%ADD11RoundRect,0.250000X0.250000X0.475000X-0.250000X0.475000X-0.250000X-0.475000X0.250000X-0.475000X0*%
%ADD12RoundRect,0.075000X0.662500X0.075000X-0.662500X0.075000X-0.662500X-0.075000X0.662500X-0.075000X0*%
%ADD13R,1.600000X1.600000*%
%ADD14O,1.600000X1.600000*%
%ADD15RoundRect,0.250000X0.475000X-0.250000X0.475000X0.250000X-0.475000X0.250000X-0.475000X-0.250000X0*%
%ADD16RoundRect,0.250000X-0.250000X-0.475000X0.250000X-0.475000X0.250000X0.475000X-0.250000X0.475000X0*%
%ADD17RoundRect,0.150000X-0.150000X0.587500X-0.150000X-0.587500X0.150000X-0.587500X0.150000X0.587500X0*%
G04 APERTURE END LIST*
D10*
%TO.C,J40*%
X111658400Y-95123000D03*
%TD*%
%TO.C,J34*%
X113893600Y-86563200D03*
%TD*%
D11*
%TO.C,C1*%
X106146600Y-95427800D03*
X104246600Y-95427800D03*
%TD*%
D12*
%TO.C,U5*%
X129304720Y-85461600D03*
X129304720Y-85961600D03*
X129304720Y-86461600D03*
X129304720Y-86961600D03*
X129304720Y-87461600D03*
X129304720Y-87961600D03*
X129304720Y-88461600D03*
X129304720Y-88961600D03*
X129304720Y-89461600D03*
X129304720Y-89961600D03*
X129304720Y-90461600D03*
X129304720Y-90961600D03*
X129304720Y-91461600D03*
X129304720Y-91961600D03*
X129304720Y-92461600D03*
X129304720Y-92961600D03*
X129304720Y-93461600D03*
X129304720Y-93961600D03*
X129304720Y-94461600D03*
X129304720Y-94961600D03*
X129304720Y-95461600D03*
X129304720Y-95961600D03*
X129304720Y-96461600D03*
X129304720Y-96961600D03*
X121879720Y-96961600D03*
X121879720Y-96461600D03*
X121879720Y-95961600D03*
X121879720Y-95461600D03*
X121879720Y-94961600D03*
X121879720Y-94461600D03*
X121879720Y-93961600D03*
X121879720Y-93461600D03*
X121879720Y-92961600D03*
X121879720Y-92461600D03*
X121879720Y-91961600D03*
X121879720Y-91461600D03*
X121879720Y-90961600D03*
X121879720Y-90461600D03*
X121879720Y-89961600D03*
X121879720Y-89461600D03*
X121879720Y-88961600D03*
X121879720Y-88461600D03*
X121879720Y-87961600D03*
X121879720Y-87461600D03*
X121879720Y-86961600D03*
X121879720Y-86461600D03*
X121879720Y-85961600D03*
X121879720Y-85461600D03*
%TD*%
D10*
%TO.C,J2*%
X107111800Y-91948000D03*
%TD*%
%TO.C,J32*%
X113436400Y-90652600D03*
%TD*%
%TO.C,J31*%
X113868200Y-94843600D03*
%TD*%
D13*
%TO.C,U7*%
X101650800Y-98831400D03*
D14*
X104190800Y-98831400D03*
X106730800Y-98831400D03*
X109270800Y-98831400D03*
X111810800Y-98831400D03*
X114350800Y-98831400D03*
X116890800Y-98831400D03*
X119430800Y-98831400D03*
X121970800Y-98831400D03*
X124510800Y-98831400D03*
X127050800Y-98831400D03*
X129590800Y-98831400D03*
X132130800Y-98831400D03*
X134670800Y-98831400D03*
X134670800Y-83591400D03*
X132130800Y-83591400D03*
X129590800Y-83591400D03*
X127050800Y-83591400D03*
X124510800Y-83591400D03*
X121970800Y-83591400D03*
X119430800Y-83591400D03*
X116890800Y-83591400D03*
X114350800Y-83591400D03*
X111810800Y-83591400D03*
X109270800Y-83591400D03*
X106730800Y-83591400D03*
X104190800Y-83591400D03*
X101650800Y-83591400D03*
%TD*%
D15*
%TO.C,C2*%
X108839000Y-88011000D03*
X108839000Y-86111000D03*
%TD*%
D10*
%TO.C,J6*%
X132257800Y-95732600D03*
%TD*%
%TO.C,J18*%
X133883400Y-89230200D03*
%TD*%
%TO.C,J33*%
X112318800Y-91033600D03*
%TD*%
%TO.C,J5*%
X131089400Y-95732600D03*
%TD*%
%TO.C,J27*%
X108199200Y-91567000D03*
%TD*%
D16*
%TO.C,C6*%
X101589800Y-85979000D03*
X103489800Y-85979000D03*
%TD*%
D10*
%TO.C,J19*%
X133883400Y-90449400D03*
%TD*%
%TO.C,J16*%
X134645400Y-88087200D03*
%TD*%
%TO.C,J7*%
X132867400Y-94716600D03*
%TD*%
%TO.C,J21*%
X108762800Y-96012000D03*
%TD*%
%TO.C,J1*%
X133426200Y-95758000D03*
%TD*%
%TO.C,J10*%
X133477000Y-93700600D03*
%TD*%
%TO.C,J20*%
X109982000Y-96023800D03*
%TD*%
%TO.C,J23*%
X108508800Y-94640400D03*
%TD*%
%TO.C,J11*%
X132308600Y-91795600D03*
%TD*%
%TO.C,J30*%
X112776000Y-86868000D03*
%TD*%
%TO.C,J22*%
X109778800Y-94513400D03*
%TD*%
%TO.C,J25*%
X107899200Y-92964000D03*
%TD*%
%TO.C,J8*%
X131038600Y-93751400D03*
%TD*%
%TO.C,J17*%
X132384800Y-89103200D03*
%TD*%
%TO.C,J24*%
X109143800Y-92989400D03*
%TD*%
%TO.C,J12*%
X131267200Y-88392000D03*
%TD*%
%TO.C,J15*%
X133451600Y-86944200D03*
%TD*%
%TO.C,J14*%
X132283200Y-86715600D03*
%TD*%
D17*
%TO.C,U8*%
X101564400Y-88165700D03*
X103464400Y-88165700D03*
X102514400Y-90040700D03*
%TD*%
%TO.C,D2*%
X105120400Y-88168000D03*
X107020400Y-88168000D03*
X106070400Y-90043000D03*
%TD*%
D10*
%TO.C,J9*%
X132232400Y-93726000D03*
%TD*%
%TO.C,J13*%
X133451600Y-88112600D03*
%TD*%
%TO.C,J26*%
X109267600Y-90779600D03*
%TD*%
M02*
