%TF.GenerationSoftware,KiCad,Pcbnew,7.0.5-7.0.5~ubuntu20.04.1*%
%TF.CreationDate,2023-07-18T12:44:13+02:00*%
%TF.ProjectId,EpromEMU_BOT,4570726f-6d45-44d5-955f-424f542e6b69,rev?*%
%TF.SameCoordinates,Original*%
%TF.FileFunction,Copper,L1,Top*%
%TF.FilePolarity,Positive*%
%FSLAX46Y46*%
G04 Gerber Fmt 4.6, Leading zero omitted, Abs format (unit mm)*
G04 Created by KiCad (PCBNEW 7.0.5-7.0.5~ubuntu20.04.1) date 2023-07-18 12:44:13*
%MOMM*%
%LPD*%
G01*
G04 APERTURE LIST*
G04 Aperture macros list*
%AMRoundRect*
0 Rectangle with rounded corners*
0 $1 Rounding radius*
0 $2 $3 $4 $5 $6 $7 $8 $9 X,Y pos of 4 corners*
0 Add a 4 corners polygon primitive as box body*
4,1,4,$2,$3,$4,$5,$6,$7,$8,$9,$2,$3,0*
0 Add four circle primitives for the rounded corners*
1,1,$1+$1,$2,$3*
1,1,$1+$1,$4,$5*
1,1,$1+$1,$6,$7*
1,1,$1+$1,$8,$9*
0 Add four rect primitives between the rounded corners*
20,1,$1+$1,$2,$3,$4,$5,0*
20,1,$1+$1,$4,$5,$6,$7,0*
20,1,$1+$1,$6,$7,$8,$9,0*
20,1,$1+$1,$8,$9,$2,$3,0*%
G04 Aperture macros list end*
%TA.AperFunction,ComponentPad*%
%ADD10C,0.800000*%
%TD*%
%TA.AperFunction,SMDPad,CuDef*%
%ADD11RoundRect,0.150000X-0.150000X0.587500X-0.150000X-0.587500X0.150000X-0.587500X0.150000X0.587500X0*%
%TD*%
%TA.AperFunction,SMDPad,CuDef*%
%ADD12R,1.560000X0.650000*%
%TD*%
%TA.AperFunction,SMDPad,CuDef*%
%ADD13R,0.650000X1.560000*%
%TD*%
%TA.AperFunction,SMDPad,CuDef*%
%ADD14RoundRect,0.075000X0.700000X0.075000X-0.700000X0.075000X-0.700000X-0.075000X0.700000X-0.075000X0*%
%TD*%
%TA.AperFunction,ComponentPad*%
%ADD15R,1.600000X1.600000*%
%TD*%
%TA.AperFunction,ComponentPad*%
%ADD16O,1.600000X1.600000*%
%TD*%
%TA.AperFunction,SMDPad,CuDef*%
%ADD17RoundRect,0.250000X0.475000X-0.250000X0.475000X0.250000X-0.475000X0.250000X-0.475000X-0.250000X0*%
%TD*%
%TA.AperFunction,ViaPad*%
%ADD18C,0.600000*%
%TD*%
%TA.AperFunction,ViaPad*%
%ADD19C,0.800000*%
%TD*%
%TA.AperFunction,Conductor*%
%ADD20C,0.200000*%
%TD*%
%TA.AperFunction,Conductor*%
%ADD21C,0.250000*%
%TD*%
%TA.AperFunction,Conductor*%
%ADD22C,0.400000*%
%TD*%
G04 APERTURE END LIST*
D10*
%TO.P,J40,1,Pin_1*%
%TO.N,/uA16*%
X111658400Y-95123000D03*
%TD*%
D11*
%TO.P,D1,1*%
%TO.N,/VCCRAM*%
X107020400Y-89463400D03*
%TO.P,D1,2*%
%TO.N,unconnected-(D1-Pad2)*%
X105120400Y-89463400D03*
%TO.P,D1,3*%
%TO.N,/BATT*%
X106070400Y-91338400D03*
%TD*%
D12*
%TO.P,U3,1*%
%TO.N,/~{AOE}*%
X102688400Y-93715800D03*
%TO.P,U3,2*%
%TO.N,/~{EXT}*%
X102688400Y-94665800D03*
%TO.P,U3,3,GND*%
%TO.N,GND*%
X102688400Y-95615800D03*
%TO.P,U3,4*%
%TO.N,/~{DOE}*%
X105388400Y-95615800D03*
%TO.P,U3,5,VCC*%
%TO.N,+3V3*%
X105388400Y-93715800D03*
%TD*%
D13*
%TO.P,U1,1*%
%TO.N,/~{EOE}*%
X103489800Y-88134200D03*
%TO.P,U1,2*%
%TO.N,/~{ECS}*%
X102539800Y-88134200D03*
%TO.P,U1,3,GND*%
%TO.N,GND*%
X101589800Y-88134200D03*
%TO.P,U1,4*%
%TO.N,/~{EXT}*%
X101589800Y-90834200D03*
%TO.P,U1,5,VCC*%
%TO.N,+3V3*%
X103489800Y-90834200D03*
%TD*%
D10*
%TO.P,J34,1,Pin_1*%
%TO.N,/~{DOE}*%
X113893600Y-86563200D03*
%TD*%
D14*
%TO.P,U2,32,A16*%
%TO.N,/uA16*%
X115718120Y-96366600D03*
%TO.P,U2,31,A15*%
%TO.N,/A15*%
X115718120Y-95866600D03*
%TO.P,U2,30,A14*%
%TO.N,/A14*%
X115718120Y-95366600D03*
%TO.P,U2,29,A13*%
%TO.N,/A13*%
X115718120Y-94866600D03*
%TO.P,U2,28,~{OE}*%
%TO.N,/~{OERAM}*%
X115718120Y-94366600D03*
%TO.P,U2,27,I/O7*%
%TO.N,/D7*%
X115718120Y-93866600D03*
%TO.P,U2,26,I/O6*%
%TO.N,/D6*%
X115718120Y-93366600D03*
%TO.P,U2,25,GND*%
%TO.N,GND*%
X115718120Y-92866600D03*
%TO.P,U2,24,VDD*%
%TO.N,/VCCRAM*%
X115718120Y-92366600D03*
%TO.P,U2,23,I/O5*%
%TO.N,/D5*%
X115718120Y-91866600D03*
%TO.P,U2,22,I/O4*%
%TO.N,/D4*%
X115718120Y-91366600D03*
%TO.P,U2,21,A12*%
%TO.N,/A12*%
X115718120Y-90866600D03*
%TO.P,U2,20,A11*%
%TO.N,/A11*%
X115718120Y-90366600D03*
%TO.P,U2,19,A10*%
%TO.N,/A10*%
X115718120Y-89866600D03*
%TO.P,U2,18,A9*%
%TO.N,/A9*%
X115718120Y-89366600D03*
%TO.P,U2,17,A8*%
%TO.N,/A8*%
X115718120Y-88866600D03*
%TO.P,U2,16,A7*%
%TO.N,/A7*%
X128568120Y-88866600D03*
%TO.P,U2,15,A6*%
%TO.N,/A6*%
X128568120Y-89366600D03*
%TO.P,U2,14,A5*%
%TO.N,/A5*%
X128568120Y-89866600D03*
%TO.P,U2,13,A4*%
%TO.N,/A4*%
X128568120Y-90366600D03*
%TO.P,U2,12,~{WE}*%
%TO.N,/~{WERAM}*%
X128568120Y-90866600D03*
%TO.P,U2,11,I/O3*%
%TO.N,/D3*%
X128568120Y-91366600D03*
%TO.P,U2,10,I/O2*%
%TO.N,/D2*%
X128568120Y-91866600D03*
%TO.P,U2,9,GND*%
%TO.N,GND*%
X128568120Y-92366600D03*
%TO.P,U2,8,VDD*%
%TO.N,/VCCRAM*%
X128568120Y-92866600D03*
%TO.P,U2,7,I/O1*%
%TO.N,/D1*%
X128568120Y-93366600D03*
%TO.P,U2,6,I/O0*%
%TO.N,/D0*%
X128568120Y-93866600D03*
%TO.P,U2,5,~{CE}*%
%TO.N,GND*%
X128568120Y-94366600D03*
%TO.P,U2,4,A3*%
%TO.N,/A3*%
X128568120Y-94866600D03*
%TO.P,U2,3,A2*%
%TO.N,/A2*%
X128568120Y-95366600D03*
%TO.P,U2,2,A1*%
%TO.N,/A1*%
X128568120Y-95866600D03*
%TO.P,U2,1,A0*%
%TO.N,/A0*%
X128568120Y-96366600D03*
%TD*%
D10*
%TO.P,J2,1,Pin_1*%
%TO.N,/BATT*%
X107111800Y-91948000D03*
%TD*%
%TO.P,J32,1,Pin_1*%
%TO.N,/~{WERAM}*%
X113436400Y-90652600D03*
%TD*%
%TO.P,J31,1,Pin_1*%
%TO.N,/~{OERAM}*%
X113868200Y-94843600D03*
%TD*%
D15*
%TO.P,U7,1,A15*%
%TO.N,/EA15*%
X101650800Y-98831400D03*
D16*
%TO.P,U7,2,A12*%
%TO.N,/EA12*%
X104190800Y-98831400D03*
%TO.P,U7,3,A7*%
%TO.N,/EA7*%
X106730800Y-98831400D03*
%TO.P,U7,4,A6*%
%TO.N,/EA6*%
X109270800Y-98831400D03*
%TO.P,U7,5,A5*%
%TO.N,/EA5*%
X111810800Y-98831400D03*
%TO.P,U7,6,A4*%
%TO.N,/EA4*%
X114350800Y-98831400D03*
%TO.P,U7,7,A3*%
%TO.N,/EA3*%
X116890800Y-98831400D03*
%TO.P,U7,8,A2*%
%TO.N,/EA2*%
X119430800Y-98831400D03*
%TO.P,U7,9,A1*%
%TO.N,/EA1*%
X121970800Y-98831400D03*
%TO.P,U7,10,A0*%
%TO.N,/EA0*%
X124510800Y-98831400D03*
%TO.P,U7,11,D0*%
%TO.N,/ED0*%
X127050800Y-98831400D03*
%TO.P,U7,12,D1*%
%TO.N,/ED1*%
X129590800Y-98831400D03*
%TO.P,U7,13,D2*%
%TO.N,/ED2*%
X132130800Y-98831400D03*
%TO.P,U7,14,GND*%
%TO.N,GND*%
X134670800Y-98831400D03*
%TO.P,U7,15,D3*%
%TO.N,/ED3*%
X134670800Y-83591400D03*
%TO.P,U7,16,D4*%
%TO.N,/ED4*%
X132130800Y-83591400D03*
%TO.P,U7,17,D5*%
%TO.N,/ED5*%
X129590800Y-83591400D03*
%TO.P,U7,18,D6*%
%TO.N,/ED6*%
X127050800Y-83591400D03*
%TO.P,U7,19,D7*%
%TO.N,/ED7*%
X124510800Y-83591400D03*
%TO.P,U7,20,~{CE}*%
%TO.N,/~{ECS}*%
X121970800Y-83591400D03*
%TO.P,U7,21,A10*%
%TO.N,/EA10*%
X119430800Y-83591400D03*
%TO.P,U7,22,~{OE}*%
%TO.N,/~{EOE}*%
X116890800Y-83591400D03*
%TO.P,U7,23,A11*%
%TO.N,/EA11*%
X114350800Y-83591400D03*
%TO.P,U7,24,A9*%
%TO.N,/EA9*%
X111810800Y-83591400D03*
%TO.P,U7,25,A8*%
%TO.N,/EA8*%
X109270800Y-83591400D03*
%TO.P,U7,26,A13*%
%TO.N,/EA13*%
X106730800Y-83591400D03*
%TO.P,U7,27,A14*%
%TO.N,/EA14*%
X104190800Y-83591400D03*
%TO.P,U7,28,VCC*%
%TO.N,+5V*%
X101650800Y-83591400D03*
%TD*%
D10*
%TO.P,J6,1,Pin_1*%
%TO.N,/A2*%
X132257800Y-95732600D03*
%TD*%
%TO.P,J18,1,Pin_1*%
%TO.N,/A14*%
X133883400Y-89230200D03*
%TD*%
%TO.P,J33,1,Pin_1*%
%TO.N,/~{AOE}*%
X112318800Y-91033600D03*
%TD*%
%TO.P,J5,1,Pin_1*%
%TO.N,/A1*%
X131089400Y-95732600D03*
%TD*%
%TO.P,J27,1,Pin_1*%
%TO.N,/D7*%
X108199200Y-91567000D03*
%TD*%
%TO.P,J19,1,Pin_1*%
%TO.N,/A15*%
X133883400Y-90449400D03*
%TD*%
%TO.P,J16,1,Pin_1*%
%TO.N,/A12*%
X134645400Y-88087200D03*
%TD*%
%TO.P,J7,1,Pin_1*%
%TO.N,/A3*%
X132867400Y-94716600D03*
%TD*%
%TO.P,J21,1,Pin_1*%
%TO.N,/D1*%
X108762800Y-96012000D03*
%TD*%
%TO.P,J1,1,Pin_1*%
%TO.N,/A0*%
X133426200Y-95758000D03*
%TD*%
%TO.P,J10,1,Pin_1*%
%TO.N,/A6*%
X133477000Y-93700600D03*
%TD*%
%TO.P,J20,1,Pin_1*%
%TO.N,/D0*%
X109982000Y-96023800D03*
%TD*%
%TO.P,J23,1,Pin_1*%
%TO.N,/D3*%
X108508800Y-94640400D03*
%TD*%
D17*
%TO.P,C4,2*%
%TO.N,GND*%
X110896400Y-86121200D03*
%TO.P,C4,1*%
%TO.N,+3V3*%
X110896400Y-88021200D03*
%TD*%
D10*
%TO.P,J11,1,Pin_1*%
%TO.N,/A7*%
X132308600Y-91795600D03*
%TD*%
%TO.P,J30,1,Pin_1*%
%TO.N,+3V3*%
X112776000Y-86868000D03*
%TD*%
%TO.P,J22,1,Pin_1*%
%TO.N,/D2*%
X109778800Y-94513400D03*
%TD*%
%TO.P,J25,1,Pin_1*%
%TO.N,/D5*%
X107899200Y-92964000D03*
%TD*%
%TO.P,J8,1,Pin_1*%
%TO.N,/A4*%
X131038600Y-93751400D03*
%TD*%
%TO.P,J17,1,Pin_1*%
%TO.N,/A13*%
X132384800Y-89103200D03*
%TD*%
%TO.P,J24,1,Pin_1*%
%TO.N,/D4*%
X109143800Y-92989400D03*
%TD*%
%TO.P,J12,1,Pin_1*%
%TO.N,/A8*%
X131267200Y-88392000D03*
%TD*%
%TO.P,J15,1,Pin_1*%
%TO.N,/A11*%
X133451600Y-86944200D03*
%TD*%
%TO.P,J14,1,Pin_1*%
%TO.N,/A10*%
X132283200Y-86715600D03*
%TD*%
%TO.P,J9,1,Pin_1*%
%TO.N,/A5*%
X132232400Y-93726000D03*
%TD*%
%TO.P,J13,1,Pin_1*%
%TO.N,/A9*%
X133451600Y-88112600D03*
%TD*%
%TO.P,J26,1,Pin_1*%
%TO.N,/D6*%
X109267600Y-90779600D03*
%TD*%
D18*
%TO.N,/~{AOE}*%
X134026400Y-85461600D03*
%TO.N,/~{DOE}*%
X112344200Y-88849200D03*
%TO.N,+3V3*%
X105388400Y-93715802D03*
%TO.N,GND*%
X102688400Y-95615808D03*
%TO.N,/~{DOE}*%
X108003577Y-89342808D03*
%TO.N,/~{AOE}*%
X102688400Y-93715806D03*
X112877600Y-89585800D03*
%TO.N,GND*%
X101594400Y-88165700D03*
X108839000Y-86111000D03*
%TO.N,+3V3*%
X105120400Y-88168000D03*
%TO.N,/VCCRAM*%
X108839006Y-88010994D03*
%TO.N,/D4*%
X114122200Y-91366600D03*
%TO.N,/D5*%
X113538000Y-92008400D03*
%TO.N,/D0*%
X117787043Y-92713087D03*
%TO.N,/D1*%
X118338600Y-91973400D03*
%TO.N,/D2*%
X119481600Y-90932000D03*
%TO.N,/D3*%
X119227600Y-90061600D03*
%TO.N,/~{WERAM}*%
X117498635Y-90034435D03*
D19*
%TO.N,GND*%
X113068558Y-84879227D03*
X124587781Y-88958600D03*
X124688600Y-90576400D03*
X124809695Y-93236600D03*
%TO.N,+3V3*%
X123469400Y-89052400D03*
X123770096Y-93418474D03*
%TO.N,GND*%
X127013376Y-96139150D03*
%TD*%
D20*
%TO.N,+3V3*%
X105120400Y-88168000D02*
X104719600Y-88168000D01*
X104719600Y-88168000D02*
X104343200Y-88544400D01*
X104343200Y-88544400D02*
X104343200Y-89980800D01*
X104343200Y-89980800D02*
X103489800Y-90834200D01*
%TO.N,/~{DOE}*%
X108003577Y-89342808D02*
X108003577Y-89916000D01*
X105257600Y-92481400D02*
X105486200Y-92710000D01*
X108003577Y-89916000D02*
X107448677Y-90470900D01*
X105746430Y-90330900D02*
X105257600Y-90819730D01*
X105257600Y-90819730D02*
X105257600Y-92481400D01*
X107448677Y-90470900D02*
X106696430Y-90470900D01*
X106527600Y-92710000D02*
X106807000Y-92989400D01*
X106696430Y-90470900D02*
X106556430Y-90330900D01*
X106556430Y-90330900D02*
X105746430Y-90330900D01*
X105486200Y-92710000D02*
X106527600Y-92710000D01*
X106807000Y-92989400D02*
X106807000Y-94197200D01*
X106807000Y-94197200D02*
X105388400Y-95615800D01*
%TO.N,+3V3*%
X103489800Y-90834200D02*
X103489800Y-92339200D01*
X103489800Y-92339200D02*
X104866400Y-93715800D01*
X104866400Y-93715800D02*
X105388400Y-93715800D01*
%TO.N,GND*%
X101381608Y-95615808D02*
X102688400Y-95615808D01*
X100761800Y-94996000D02*
X101381608Y-95615808D01*
X100761800Y-88998300D02*
X100761800Y-94996000D01*
X101594400Y-88165700D02*
X100761800Y-88998300D01*
%TO.N,/~{EXT}*%
X101589800Y-90834200D02*
X101269800Y-91154200D01*
X101269800Y-93929200D02*
X102006400Y-94665800D01*
X101269800Y-91154200D02*
X101269800Y-93929200D01*
X102006400Y-94665800D02*
X102688400Y-94665800D01*
%TO.N,/BATT*%
X106070400Y-91338400D02*
X106502200Y-91338400D01*
X106502200Y-91338400D02*
X107111800Y-91948000D01*
%TO.N,/D7*%
X111709200Y-93786600D02*
X115638120Y-93786600D01*
X111709200Y-93786600D02*
X109489600Y-91567000D01*
X109489600Y-91567000D02*
X108199200Y-91567000D01*
%TO.N,/VCCRAM*%
X107020400Y-89463400D02*
X107020400Y-88788200D01*
X107020400Y-88788200D02*
X107797606Y-88010994D01*
X107797606Y-88010994D02*
X108839006Y-88010994D01*
D21*
%TO.N,/uA16*%
X115718120Y-96366600D02*
X112902000Y-96366600D01*
X112902000Y-96366600D02*
X111658400Y-95123000D01*
D20*
%TO.N,/D7*%
X115638120Y-93786600D02*
X115718120Y-93866600D01*
%TO.N,/D6*%
X109267600Y-90779600D02*
X111867800Y-93379800D01*
X111867800Y-93379800D02*
X115704920Y-93379800D01*
X115704920Y-93379800D02*
X115718120Y-93366600D01*
%TO.N,/VCCRAM*%
X108839006Y-88010994D02*
X111506000Y-90677988D01*
X111506000Y-90677988D02*
X111506000Y-91338400D01*
X111506000Y-91338400D02*
X112776000Y-92608400D01*
X114433177Y-92366600D02*
X115718120Y-92366600D01*
X112776000Y-92608400D02*
X114191377Y-92608400D01*
X114191377Y-92608400D02*
X114433177Y-92366600D01*
%TO.N,/D5*%
X114470729Y-91866600D02*
X114328929Y-92008400D01*
X114328929Y-92008400D02*
X113538000Y-92008400D01*
X115718120Y-91866600D02*
X114470729Y-91866600D01*
%TO.N,/D4*%
X115718120Y-91366600D02*
X114122200Y-91366600D01*
%TO.N,/~{DOE}*%
X113893600Y-86563200D02*
X113893600Y-86857670D01*
X112344200Y-88407070D02*
X112344200Y-88849200D01*
%TO.N,/~{AOE}*%
X114135216Y-87263200D02*
X114183550Y-87263200D01*
X134026400Y-85309200D02*
X134026400Y-85461600D01*
X112877600Y-89585800D02*
X112944200Y-89519200D01*
%TO.N,/~{DOE}*%
X113893600Y-86857670D02*
X112344200Y-88407070D01*
%TO.N,/~{AOE}*%
X112944200Y-88454216D02*
X114135216Y-87263200D01*
X112944200Y-89519200D02*
X112944200Y-88454216D01*
X114593600Y-86804816D02*
X116390816Y-85007600D01*
X116390816Y-85007600D02*
X133724800Y-85007600D01*
X114183550Y-87263200D02*
X114593600Y-86853150D01*
X133724800Y-85007600D02*
X134026400Y-85309200D01*
X114593600Y-86853150D02*
X114593600Y-86804816D01*
X112877600Y-89585800D02*
X112318800Y-90144600D01*
X112318800Y-90144600D02*
X112318800Y-91033600D01*
%TO.N,/A12*%
X114920600Y-86940264D02*
X116526264Y-85334600D01*
%TO.N,/A10*%
X115574600Y-87259494D02*
X114589894Y-88244200D01*
%TO.N,/A11*%
X133451600Y-86378515D02*
X133451600Y-86944200D01*
%TO.N,/A12*%
X114920600Y-86988598D02*
X114920600Y-86940264D01*
%TO.N,/A11*%
X114603448Y-90366600D02*
X113925400Y-89688552D01*
%TO.N,/A10*%
X115574600Y-87211160D02*
X115574600Y-87259494D01*
%TO.N,/A12*%
X113598400Y-88262464D02*
X114270664Y-87590200D01*
X115718120Y-90866600D02*
X114641000Y-90866600D01*
%TO.N,/A10*%
X114541560Y-88244200D02*
X114252400Y-88533360D01*
%TO.N,/A12*%
X113598400Y-89824000D02*
X113598400Y-88262464D01*
%TO.N,/A10*%
X114252400Y-89553104D02*
X114565896Y-89866600D01*
X131556200Y-85988600D02*
X116797160Y-85988600D01*
%TO.N,/A11*%
X115718120Y-90366600D02*
X114603448Y-90366600D01*
%TO.N,/A12*%
X114318998Y-87590200D02*
X114920600Y-86988598D01*
X114641000Y-90866600D02*
X113598400Y-89824000D01*
%TO.N,/A10*%
X114252400Y-88533360D02*
X114252400Y-89553104D01*
X114565896Y-89866600D02*
X115718120Y-89866600D01*
%TO.N,/A11*%
X115247600Y-87124046D02*
X115247600Y-87075712D01*
X114406112Y-87917200D02*
X114454446Y-87917200D01*
%TO.N,/A10*%
X114589894Y-88244200D02*
X114541560Y-88244200D01*
X116797160Y-85988600D02*
X115574600Y-87211160D01*
X132283200Y-86715600D02*
X131556200Y-85988600D01*
%TO.N,/A12*%
X114270664Y-87590200D02*
X114318998Y-87590200D01*
%TO.N,/A11*%
X132734685Y-85661600D02*
X133451600Y-86378515D01*
X116661712Y-85661600D02*
X132734685Y-85661600D01*
X113925400Y-89688552D02*
X113925400Y-88397912D01*
X115247600Y-87075712D02*
X116661712Y-85661600D01*
X113925400Y-88397912D02*
X114406112Y-87917200D01*
X114454446Y-87917200D02*
X115247600Y-87124046D01*
%TO.N,/A12*%
X116526264Y-85334600D02*
X132918570Y-85334600D01*
X132918570Y-85334600D02*
X134645400Y-87061430D01*
X134645400Y-87061430D02*
X134645400Y-88087200D01*
%TO.N,/A9*%
X126401792Y-86629800D02*
X126087592Y-86315600D01*
X116932608Y-86315600D02*
X115901600Y-87346608D01*
X130673400Y-86629800D02*
X126401792Y-86629800D01*
X133451600Y-88112600D02*
X132156200Y-88112600D01*
X114579400Y-88717142D02*
X114579400Y-89128600D01*
X115901600Y-87394942D02*
X114579400Y-88717142D01*
X115901600Y-87346608D02*
X115901600Y-87394942D01*
X126087592Y-86315600D02*
X116932608Y-86315600D01*
X132156200Y-88112600D02*
X130673400Y-86629800D01*
X114579400Y-89128600D02*
X114817400Y-89366600D01*
X114817400Y-89366600D02*
X115718120Y-89366600D01*
%TO.N,/D2*%
X128568120Y-91866600D02*
X127805216Y-91866600D01*
%TO.N,/D3*%
X126895200Y-88510552D02*
X126316248Y-87931600D01*
%TO.N,/D2*%
X122155000Y-88258600D02*
X119481600Y-90932000D01*
%TO.N,/D3*%
X128568120Y-91366600D02*
X127805216Y-91366600D01*
%TO.N,/~{WERAM}*%
X119928470Y-87604600D02*
X117498635Y-90034435D01*
%TO.N,/D3*%
X119227600Y-89931800D02*
X119227600Y-90061600D01*
X126316248Y-87931600D02*
X121227800Y-87931600D01*
X121227800Y-87931600D02*
X119227600Y-89931800D01*
%TO.N,GND*%
X124688600Y-89059419D02*
X124587781Y-88958600D01*
%TO.N,/D2*%
X127805216Y-91866600D02*
X126568200Y-90629584D01*
%TO.N,/D3*%
X126895200Y-90456584D02*
X126895200Y-88510552D01*
%TO.N,/D2*%
X126568200Y-88646000D02*
X126180800Y-88258600D01*
X126568200Y-90629584D02*
X126568200Y-88646000D01*
X126180800Y-88258600D02*
X122155000Y-88258600D01*
%TO.N,GND*%
X124688600Y-90576400D02*
X124688600Y-89059419D01*
%TO.N,/A8*%
X117627920Y-86956800D02*
X115718120Y-88866600D01*
X120428022Y-86642600D02*
X120113822Y-86956800D01*
%TO.N,/~{WERAM}*%
X126451696Y-87604600D02*
X119928470Y-87604600D01*
X127222200Y-88375104D02*
X126451696Y-87604600D01*
%TO.N,/A8*%
X126266344Y-86956800D02*
X125952144Y-86642600D01*
X131267200Y-88239600D02*
X129984400Y-86956800D01*
%TO.N,/~{WERAM}*%
X128568120Y-90866600D02*
X127805216Y-90866600D01*
%TO.N,/A8*%
X125952144Y-86642600D02*
X120428022Y-86642600D01*
X129984400Y-86956800D02*
X126266344Y-86956800D01*
%TO.N,/~{WERAM}*%
X127805216Y-90866600D02*
X127222200Y-90283584D01*
X127222200Y-90283584D02*
X127222200Y-88375104D01*
%TO.N,/D3*%
X127805216Y-91366600D02*
X126895200Y-90456584D01*
%TO.N,/A8*%
X120113822Y-86956800D02*
X117627920Y-86956800D01*
%TO.N,GND*%
X111826585Y-86121200D02*
X113068558Y-84879227D01*
X110896400Y-86121200D02*
X111826585Y-86121200D01*
%TO.N,/~{EOE}*%
X111939435Y-85018400D02*
X106150600Y-85018400D01*
X113870681Y-84691400D02*
X113355081Y-84175800D01*
X116890800Y-83591400D02*
X115790800Y-84691400D01*
X103489800Y-87679200D02*
X103489800Y-88134200D01*
X115790800Y-84691400D02*
X113870681Y-84691400D01*
X113355081Y-84175800D02*
X112782035Y-84175800D01*
X112782035Y-84175800D02*
X111939435Y-85018400D01*
X106150600Y-85018400D02*
X103489800Y-87679200D01*
D21*
%TO.N,/A0*%
X128568120Y-96366600D02*
X128670720Y-96469200D01*
X128670720Y-96469200D02*
X132715000Y-96469200D01*
X132715000Y-96469200D02*
X133426200Y-95758000D01*
D20*
%TO.N,/A2*%
X128568120Y-95366600D02*
X130465450Y-95366600D01*
X130465450Y-95366600D02*
X130799450Y-95032600D01*
X130799450Y-95032600D02*
X131557800Y-95032600D01*
X131557800Y-95032600D02*
X132257800Y-95732600D01*
%TO.N,/~{ECS}*%
X121970800Y-83591400D02*
X120870800Y-82491400D01*
X111355165Y-82491400D02*
X110370800Y-83475765D01*
X120870800Y-82491400D02*
X111355165Y-82491400D01*
X110370800Y-83475765D02*
X110370800Y-84047035D01*
X102539800Y-87154200D02*
X102539800Y-88134200D01*
X110370800Y-84047035D02*
X109726435Y-84691400D01*
X109726435Y-84691400D02*
X105002600Y-84691400D01*
X105002600Y-84691400D02*
X102539800Y-87154200D01*
D22*
%TO.N,GND*%
X110896400Y-86121200D02*
X108849200Y-86121200D01*
%TO.N,+3V3*%
X110896400Y-88021200D02*
X111622800Y-88021200D01*
X111622800Y-88021200D02*
X112776000Y-86868000D01*
X105120400Y-88168000D02*
X106166400Y-87122000D01*
X106166400Y-87122000D02*
X109997200Y-87122000D01*
X109997200Y-87122000D02*
X110896400Y-88021200D01*
D20*
%TO.N,/VCCRAM*%
X118507486Y-91170200D02*
X117683671Y-91170200D01*
X125154478Y-94118474D02*
X121455760Y-94118474D01*
X128568120Y-92866600D02*
X126406352Y-92866600D01*
X116487271Y-92366600D02*
X115718120Y-92366600D01*
X121455760Y-94118474D02*
X118507486Y-91170200D01*
X126406352Y-92866600D02*
X125154478Y-94118474D01*
X117683671Y-91170200D02*
X116487271Y-92366600D01*
%TO.N,/D0*%
X128568120Y-93866600D02*
X126427600Y-93866600D01*
X126427600Y-93866600D02*
X125476000Y-94818200D01*
X125476000Y-94818200D02*
X119892156Y-94818200D01*
X119892156Y-94818200D02*
X117787043Y-92713087D01*
%TO.N,/D1*%
X120856400Y-94491200D02*
X118338600Y-91973400D01*
X125244200Y-94491200D02*
X120856400Y-94491200D01*
X126368800Y-93366600D02*
X125244200Y-94491200D01*
X128568120Y-93366600D02*
X126368800Y-93366600D01*
%TO.N,GND*%
X115718120Y-92866600D02*
X116844200Y-92866600D01*
X116844200Y-92866600D02*
X120116750Y-96139150D01*
X120116750Y-96139150D02*
X127013376Y-96139150D01*
D21*
%TO.N,+3V3*%
X123291600Y-89230200D02*
X123469400Y-89052400D01*
X123291600Y-92939978D02*
X123291600Y-89230200D01*
X123770096Y-93418474D02*
X123291600Y-92939978D01*
D20*
%TO.N,GND*%
X124809695Y-93236600D02*
X124809695Y-90697495D01*
X124809695Y-90697495D02*
X124688600Y-90576400D01*
X125679695Y-92366600D02*
X124809695Y-93236600D01*
X128568120Y-92366600D02*
X125679695Y-92366600D01*
%TO.N,/A14*%
X134220170Y-97183600D02*
X134758800Y-96644970D01*
X118427349Y-97183600D02*
X134220170Y-97183600D01*
X115718120Y-95366600D02*
X116610349Y-95366600D01*
X116610349Y-95366600D02*
X118427349Y-97183600D01*
X134758800Y-96644970D02*
X134758800Y-92314750D01*
%TO.N,/A15*%
X135178800Y-91744800D02*
X133883400Y-90449400D01*
%TO.N,/A14*%
X134758800Y-92314750D02*
X133183400Y-90739350D01*
X133183400Y-90739350D02*
X133183400Y-89930200D01*
X133183400Y-89930200D02*
X133883400Y-89230200D01*
%TO.N,/A13*%
X115718120Y-94866600D02*
X116704319Y-94866600D01*
X116704319Y-94866600D02*
X118694319Y-96856600D01*
%TO.N,/A15*%
X135178800Y-96818940D02*
X135178800Y-91744800D01*
%TO.N,/A13*%
X118694319Y-96856600D02*
X133851600Y-96856600D01*
X134213600Y-96494600D02*
X134213600Y-92356449D01*
%TO.N,/A15*%
X118160379Y-97510600D02*
X134487140Y-97510600D01*
%TO.N,/A13*%
X134213600Y-92356449D02*
X132384800Y-90527649D01*
X133851600Y-96856600D02*
X134213600Y-96494600D01*
X132384800Y-90527649D02*
X132384800Y-89103200D01*
%TO.N,/A15*%
X115718120Y-95866600D02*
X116516379Y-95866600D01*
X116516379Y-95866600D02*
X118160379Y-97510600D01*
X134487140Y-97510600D02*
X135178800Y-96818940D01*
%TO.N,/~{OERAM}*%
X113868200Y-94843600D02*
X114345200Y-94366600D01*
X114345200Y-94366600D02*
X115718120Y-94366600D01*
%TO.N,/A6*%
X128568120Y-89366600D02*
X129557210Y-89366600D01*
X129557210Y-89366600D02*
X131089400Y-90898790D01*
X131089400Y-90898790D02*
X131089400Y-91592400D01*
X131089400Y-91592400D02*
X133197600Y-93700600D01*
%TO.N,/A4*%
X130249400Y-92962200D02*
X131038600Y-93751400D01*
X130249400Y-91249621D02*
X130249400Y-92962200D01*
X128568120Y-90366600D02*
X129366379Y-90366600D01*
%TO.N,/A5*%
X130669400Y-92163000D02*
X132232400Y-93726000D01*
X130669400Y-91072760D02*
X130669400Y-92163000D01*
X129463240Y-89866600D02*
X130669400Y-91072760D01*
X128568120Y-89866600D02*
X129463240Y-89866600D01*
%TO.N,/A4*%
X129366379Y-90366600D02*
X130249400Y-91249621D01*
%TO.N,GND*%
X128568120Y-92366600D02*
X129501400Y-92366600D01*
X129501400Y-92366600D02*
X129743200Y-92608400D01*
X129743200Y-94157800D02*
X129534400Y-94366600D01*
X129743200Y-92608400D02*
X129743200Y-94157800D01*
X129534400Y-94366600D02*
X128568120Y-94366600D01*
%TO.N,/A3*%
X128568120Y-94866600D02*
X130378551Y-94866600D01*
X130378551Y-94866600D02*
X130627551Y-94617600D01*
X130627551Y-94617600D02*
X132768400Y-94617600D01*
D21*
%TO.N,/A1*%
X128568120Y-95866600D02*
X131019800Y-95866600D01*
D20*
%TO.N,/A7*%
X128568120Y-88866600D02*
X129919885Y-88866600D01*
X129919885Y-88866600D02*
X132308600Y-91255315D01*
X132308600Y-91255315D02*
X132308600Y-91795600D01*
%TO.N,GND*%
X127769861Y-94366600D02*
X127013376Y-95123085D01*
X127013376Y-95123085D02*
X127013376Y-96139150D01*
X128568120Y-94366600D02*
X127769861Y-94366600D01*
%TD*%
M02*
