%TF.GenerationSoftware,KiCad,Pcbnew,7.0.7-7.0.7~ubuntu20.04.1*%
%TF.CreationDate,2023-09-08T17:20:42+02:00*%
%TF.ProjectId,CPU_6809_board,4350555f-3638-4303-995f-626f6172642e,rev?*%
%TF.SameCoordinates,Original*%
%TF.FileFunction,Legend,Top*%
%TF.FilePolarity,Positive*%
%FSLAX46Y46*%
G04 Gerber Fmt 4.6, Leading zero omitted, Abs format (unit mm)*
G04 Created by KiCad (PCBNEW 7.0.7-7.0.7~ubuntu20.04.1) date 2023-09-08 17:20:42*
%MOMM*%
%LPD*%
G01*
G04 APERTURE LIST*
%ADD10C,0.150000*%
%ADD11C,0.120000*%
G04 APERTURE END LIST*
D10*
X97745779Y-105058819D02*
X97745779Y-104058819D01*
X97745779Y-104058819D02*
X98079112Y-104773104D01*
X98079112Y-104773104D02*
X98412445Y-104058819D01*
X98412445Y-104058819D02*
X98412445Y-105058819D01*
X99460064Y-104963580D02*
X99412445Y-105011200D01*
X99412445Y-105011200D02*
X99269588Y-105058819D01*
X99269588Y-105058819D02*
X99174350Y-105058819D01*
X99174350Y-105058819D02*
X99031493Y-105011200D01*
X99031493Y-105011200D02*
X98936255Y-104915961D01*
X98936255Y-104915961D02*
X98888636Y-104820723D01*
X98888636Y-104820723D02*
X98841017Y-104630247D01*
X98841017Y-104630247D02*
X98841017Y-104487390D01*
X98841017Y-104487390D02*
X98888636Y-104296914D01*
X98888636Y-104296914D02*
X98936255Y-104201676D01*
X98936255Y-104201676D02*
X99031493Y-104106438D01*
X99031493Y-104106438D02*
X99174350Y-104058819D01*
X99174350Y-104058819D02*
X99269588Y-104058819D01*
X99269588Y-104058819D02*
X99412445Y-104106438D01*
X99412445Y-104106438D02*
X99460064Y-104154057D01*
X100317207Y-104058819D02*
X100126731Y-104058819D01*
X100126731Y-104058819D02*
X100031493Y-104106438D01*
X100031493Y-104106438D02*
X99983874Y-104154057D01*
X99983874Y-104154057D02*
X99888636Y-104296914D01*
X99888636Y-104296914D02*
X99841017Y-104487390D01*
X99841017Y-104487390D02*
X99841017Y-104868342D01*
X99841017Y-104868342D02*
X99888636Y-104963580D01*
X99888636Y-104963580D02*
X99936255Y-105011200D01*
X99936255Y-105011200D02*
X100031493Y-105058819D01*
X100031493Y-105058819D02*
X100221969Y-105058819D01*
X100221969Y-105058819D02*
X100317207Y-105011200D01*
X100317207Y-105011200D02*
X100364826Y-104963580D01*
X100364826Y-104963580D02*
X100412445Y-104868342D01*
X100412445Y-104868342D02*
X100412445Y-104630247D01*
X100412445Y-104630247D02*
X100364826Y-104535009D01*
X100364826Y-104535009D02*
X100317207Y-104487390D01*
X100317207Y-104487390D02*
X100221969Y-104439771D01*
X100221969Y-104439771D02*
X100031493Y-104439771D01*
X100031493Y-104439771D02*
X99936255Y-104487390D01*
X99936255Y-104487390D02*
X99888636Y-104535009D01*
X99888636Y-104535009D02*
X99841017Y-104630247D01*
X100983874Y-104487390D02*
X100888636Y-104439771D01*
X100888636Y-104439771D02*
X100841017Y-104392152D01*
X100841017Y-104392152D02*
X100793398Y-104296914D01*
X100793398Y-104296914D02*
X100793398Y-104249295D01*
X100793398Y-104249295D02*
X100841017Y-104154057D01*
X100841017Y-104154057D02*
X100888636Y-104106438D01*
X100888636Y-104106438D02*
X100983874Y-104058819D01*
X100983874Y-104058819D02*
X101174350Y-104058819D01*
X101174350Y-104058819D02*
X101269588Y-104106438D01*
X101269588Y-104106438D02*
X101317207Y-104154057D01*
X101317207Y-104154057D02*
X101364826Y-104249295D01*
X101364826Y-104249295D02*
X101364826Y-104296914D01*
X101364826Y-104296914D02*
X101317207Y-104392152D01*
X101317207Y-104392152D02*
X101269588Y-104439771D01*
X101269588Y-104439771D02*
X101174350Y-104487390D01*
X101174350Y-104487390D02*
X100983874Y-104487390D01*
X100983874Y-104487390D02*
X100888636Y-104535009D01*
X100888636Y-104535009D02*
X100841017Y-104582628D01*
X100841017Y-104582628D02*
X100793398Y-104677866D01*
X100793398Y-104677866D02*
X100793398Y-104868342D01*
X100793398Y-104868342D02*
X100841017Y-104963580D01*
X100841017Y-104963580D02*
X100888636Y-105011200D01*
X100888636Y-105011200D02*
X100983874Y-105058819D01*
X100983874Y-105058819D02*
X101174350Y-105058819D01*
X101174350Y-105058819D02*
X101269588Y-105011200D01*
X101269588Y-105011200D02*
X101317207Y-104963580D01*
X101317207Y-104963580D02*
X101364826Y-104868342D01*
X101364826Y-104868342D02*
X101364826Y-104677866D01*
X101364826Y-104677866D02*
X101317207Y-104582628D01*
X101317207Y-104582628D02*
X101269588Y-104535009D01*
X101269588Y-104535009D02*
X101174350Y-104487390D01*
X101983874Y-104058819D02*
X102079112Y-104058819D01*
X102079112Y-104058819D02*
X102174350Y-104106438D01*
X102174350Y-104106438D02*
X102221969Y-104154057D01*
X102221969Y-104154057D02*
X102269588Y-104249295D01*
X102269588Y-104249295D02*
X102317207Y-104439771D01*
X102317207Y-104439771D02*
X102317207Y-104677866D01*
X102317207Y-104677866D02*
X102269588Y-104868342D01*
X102269588Y-104868342D02*
X102221969Y-104963580D01*
X102221969Y-104963580D02*
X102174350Y-105011200D01*
X102174350Y-105011200D02*
X102079112Y-105058819D01*
X102079112Y-105058819D02*
X101983874Y-105058819D01*
X101983874Y-105058819D02*
X101888636Y-105011200D01*
X101888636Y-105011200D02*
X101841017Y-104963580D01*
X101841017Y-104963580D02*
X101793398Y-104868342D01*
X101793398Y-104868342D02*
X101745779Y-104677866D01*
X101745779Y-104677866D02*
X101745779Y-104439771D01*
X101745779Y-104439771D02*
X101793398Y-104249295D01*
X101793398Y-104249295D02*
X101841017Y-104154057D01*
X101841017Y-104154057D02*
X101888636Y-104106438D01*
X101888636Y-104106438D02*
X101983874Y-104058819D01*
X102793398Y-105058819D02*
X102983874Y-105058819D01*
X102983874Y-105058819D02*
X103079112Y-105011200D01*
X103079112Y-105011200D02*
X103126731Y-104963580D01*
X103126731Y-104963580D02*
X103221969Y-104820723D01*
X103221969Y-104820723D02*
X103269588Y-104630247D01*
X103269588Y-104630247D02*
X103269588Y-104249295D01*
X103269588Y-104249295D02*
X103221969Y-104154057D01*
X103221969Y-104154057D02*
X103174350Y-104106438D01*
X103174350Y-104106438D02*
X103079112Y-104058819D01*
X103079112Y-104058819D02*
X102888636Y-104058819D01*
X102888636Y-104058819D02*
X102793398Y-104106438D01*
X102793398Y-104106438D02*
X102745779Y-104154057D01*
X102745779Y-104154057D02*
X102698160Y-104249295D01*
X102698160Y-104249295D02*
X102698160Y-104487390D01*
X102698160Y-104487390D02*
X102745779Y-104582628D01*
X102745779Y-104582628D02*
X102793398Y-104630247D01*
X102793398Y-104630247D02*
X102888636Y-104677866D01*
X102888636Y-104677866D02*
X103079112Y-104677866D01*
X103079112Y-104677866D02*
X103174350Y-104630247D01*
X103174350Y-104630247D02*
X103221969Y-104582628D01*
X103221969Y-104582628D02*
X103269588Y-104487390D01*
X97698160Y-106621200D02*
X97841017Y-106668819D01*
X97841017Y-106668819D02*
X98079112Y-106668819D01*
X98079112Y-106668819D02*
X98174350Y-106621200D01*
X98174350Y-106621200D02*
X98221969Y-106573580D01*
X98221969Y-106573580D02*
X98269588Y-106478342D01*
X98269588Y-106478342D02*
X98269588Y-106383104D01*
X98269588Y-106383104D02*
X98221969Y-106287866D01*
X98221969Y-106287866D02*
X98174350Y-106240247D01*
X98174350Y-106240247D02*
X98079112Y-106192628D01*
X98079112Y-106192628D02*
X97888636Y-106145009D01*
X97888636Y-106145009D02*
X97793398Y-106097390D01*
X97793398Y-106097390D02*
X97745779Y-106049771D01*
X97745779Y-106049771D02*
X97698160Y-105954533D01*
X97698160Y-105954533D02*
X97698160Y-105859295D01*
X97698160Y-105859295D02*
X97745779Y-105764057D01*
X97745779Y-105764057D02*
X97793398Y-105716438D01*
X97793398Y-105716438D02*
X97888636Y-105668819D01*
X97888636Y-105668819D02*
X98126731Y-105668819D01*
X98126731Y-105668819D02*
X98269588Y-105716438D01*
X98698160Y-106668819D02*
X98698160Y-106002152D01*
X98698160Y-105668819D02*
X98650541Y-105716438D01*
X98650541Y-105716438D02*
X98698160Y-105764057D01*
X98698160Y-105764057D02*
X98745779Y-105716438D01*
X98745779Y-105716438D02*
X98698160Y-105668819D01*
X98698160Y-105668819D02*
X98698160Y-105764057D01*
X99602921Y-106002152D02*
X99602921Y-106811676D01*
X99602921Y-106811676D02*
X99555302Y-106906914D01*
X99555302Y-106906914D02*
X99507683Y-106954533D01*
X99507683Y-106954533D02*
X99412445Y-107002152D01*
X99412445Y-107002152D02*
X99269588Y-107002152D01*
X99269588Y-107002152D02*
X99174350Y-106954533D01*
X99602921Y-106621200D02*
X99507683Y-106668819D01*
X99507683Y-106668819D02*
X99317207Y-106668819D01*
X99317207Y-106668819D02*
X99221969Y-106621200D01*
X99221969Y-106621200D02*
X99174350Y-106573580D01*
X99174350Y-106573580D02*
X99126731Y-106478342D01*
X99126731Y-106478342D02*
X99126731Y-106192628D01*
X99126731Y-106192628D02*
X99174350Y-106097390D01*
X99174350Y-106097390D02*
X99221969Y-106049771D01*
X99221969Y-106049771D02*
X99317207Y-106002152D01*
X99317207Y-106002152D02*
X99507683Y-106002152D01*
X99507683Y-106002152D02*
X99602921Y-106049771D01*
X100079112Y-106002152D02*
X100079112Y-106668819D01*
X100079112Y-106097390D02*
X100126731Y-106049771D01*
X100126731Y-106049771D02*
X100221969Y-106002152D01*
X100221969Y-106002152D02*
X100364826Y-106002152D01*
X100364826Y-106002152D02*
X100460064Y-106049771D01*
X100460064Y-106049771D02*
X100507683Y-106145009D01*
X100507683Y-106145009D02*
X100507683Y-106668819D01*
X101412445Y-106668819D02*
X101412445Y-106145009D01*
X101412445Y-106145009D02*
X101364826Y-106049771D01*
X101364826Y-106049771D02*
X101269588Y-106002152D01*
X101269588Y-106002152D02*
X101079112Y-106002152D01*
X101079112Y-106002152D02*
X100983874Y-106049771D01*
X101412445Y-106621200D02*
X101317207Y-106668819D01*
X101317207Y-106668819D02*
X101079112Y-106668819D01*
X101079112Y-106668819D02*
X100983874Y-106621200D01*
X100983874Y-106621200D02*
X100936255Y-106525961D01*
X100936255Y-106525961D02*
X100936255Y-106430723D01*
X100936255Y-106430723D02*
X100983874Y-106335485D01*
X100983874Y-106335485D02*
X101079112Y-106287866D01*
X101079112Y-106287866D02*
X101317207Y-106287866D01*
X101317207Y-106287866D02*
X101412445Y-106240247D01*
X102031493Y-106668819D02*
X101936255Y-106621200D01*
X101936255Y-106621200D02*
X101888636Y-106525961D01*
X101888636Y-106525961D02*
X101888636Y-105668819D01*
X102364827Y-106621200D02*
X102460065Y-106668819D01*
X102460065Y-106668819D02*
X102650541Y-106668819D01*
X102650541Y-106668819D02*
X102745779Y-106621200D01*
X102745779Y-106621200D02*
X102793398Y-106525961D01*
X102793398Y-106525961D02*
X102793398Y-106478342D01*
X102793398Y-106478342D02*
X102745779Y-106383104D01*
X102745779Y-106383104D02*
X102650541Y-106335485D01*
X102650541Y-106335485D02*
X102507684Y-106335485D01*
X102507684Y-106335485D02*
X102412446Y-106287866D01*
X102412446Y-106287866D02*
X102364827Y-106192628D01*
X102364827Y-106192628D02*
X102364827Y-106145009D01*
X102364827Y-106145009D02*
X102412446Y-106049771D01*
X102412446Y-106049771D02*
X102507684Y-106002152D01*
X102507684Y-106002152D02*
X102650541Y-106002152D01*
X102650541Y-106002152D02*
X102745779Y-106049771D01*
X103221970Y-106573580D02*
X103269589Y-106621200D01*
X103269589Y-106621200D02*
X103221970Y-106668819D01*
X103221970Y-106668819D02*
X103174351Y-106621200D01*
X103174351Y-106621200D02*
X103221970Y-106573580D01*
X103221970Y-106573580D02*
X103221970Y-106668819D01*
X103221970Y-106049771D02*
X103269589Y-106097390D01*
X103269589Y-106097390D02*
X103221970Y-106145009D01*
X103221970Y-106145009D02*
X103174351Y-106097390D01*
X103174351Y-106097390D02*
X103221970Y-106049771D01*
X103221970Y-106049771D02*
X103221970Y-106145009D01*
X98269588Y-107326438D02*
X98174350Y-107278819D01*
X98174350Y-107278819D02*
X98031493Y-107278819D01*
X98031493Y-107278819D02*
X97888636Y-107326438D01*
X97888636Y-107326438D02*
X97793398Y-107421676D01*
X97793398Y-107421676D02*
X97745779Y-107516914D01*
X97745779Y-107516914D02*
X97698160Y-107707390D01*
X97698160Y-107707390D02*
X97698160Y-107850247D01*
X97698160Y-107850247D02*
X97745779Y-108040723D01*
X97745779Y-108040723D02*
X97793398Y-108135961D01*
X97793398Y-108135961D02*
X97888636Y-108231200D01*
X97888636Y-108231200D02*
X98031493Y-108278819D01*
X98031493Y-108278819D02*
X98126731Y-108278819D01*
X98126731Y-108278819D02*
X98269588Y-108231200D01*
X98269588Y-108231200D02*
X98317207Y-108183580D01*
X98317207Y-108183580D02*
X98317207Y-107850247D01*
X98317207Y-107850247D02*
X98126731Y-107850247D01*
X98745779Y-108278819D02*
X98745779Y-107278819D01*
X98745779Y-107278819D02*
X99317207Y-108278819D01*
X99317207Y-108278819D02*
X99317207Y-107278819D01*
X99793398Y-108278819D02*
X99793398Y-107278819D01*
X99793398Y-107278819D02*
X100031493Y-107278819D01*
X100031493Y-107278819D02*
X100174350Y-107326438D01*
X100174350Y-107326438D02*
X100269588Y-107421676D01*
X100269588Y-107421676D02*
X100317207Y-107516914D01*
X100317207Y-107516914D02*
X100364826Y-107707390D01*
X100364826Y-107707390D02*
X100364826Y-107850247D01*
X100364826Y-107850247D02*
X100317207Y-108040723D01*
X100317207Y-108040723D02*
X100269588Y-108135961D01*
X100269588Y-108135961D02*
X100174350Y-108231200D01*
X100174350Y-108231200D02*
X100031493Y-108278819D01*
X100031493Y-108278819D02*
X99793398Y-108278819D01*
X102269589Y-107993104D02*
X102745779Y-107993104D01*
X102174351Y-108278819D02*
X102507684Y-107278819D01*
X102507684Y-107278819D02*
X102841017Y-108278819D01*
X103031494Y-107278819D02*
X103364827Y-108278819D01*
X103364827Y-108278819D02*
X103698160Y-107278819D01*
X104031494Y-108278819D02*
X104031494Y-107278819D01*
X104031494Y-107278819D02*
X104364827Y-107993104D01*
X104364827Y-107993104D02*
X104698160Y-107278819D01*
X104698160Y-107278819D02*
X104698160Y-108278819D01*
X105126732Y-107993104D02*
X105602922Y-107993104D01*
X105031494Y-108278819D02*
X105364827Y-107278819D01*
X105364827Y-107278819D02*
X105698160Y-108278819D01*
X97745779Y-109888819D02*
X97745779Y-108888819D01*
X97745779Y-109365009D02*
X98317207Y-109365009D01*
X98317207Y-109888819D02*
X98317207Y-108888819D01*
X98745779Y-109603104D02*
X99221969Y-109603104D01*
X98650541Y-109888819D02*
X98983874Y-108888819D01*
X98983874Y-108888819D02*
X99317207Y-109888819D01*
X100126731Y-109888819D02*
X99650541Y-109888819D01*
X99650541Y-109888819D02*
X99650541Y-108888819D01*
X100317208Y-108888819D02*
X100888636Y-108888819D01*
X100602922Y-109888819D02*
X100602922Y-108888819D01*
X97607684Y-108611200D02*
X100883875Y-108611200D01*
X102317208Y-109365009D02*
X102460065Y-109412628D01*
X102460065Y-109412628D02*
X102507684Y-109460247D01*
X102507684Y-109460247D02*
X102555303Y-109555485D01*
X102555303Y-109555485D02*
X102555303Y-109698342D01*
X102555303Y-109698342D02*
X102507684Y-109793580D01*
X102507684Y-109793580D02*
X102460065Y-109841200D01*
X102460065Y-109841200D02*
X102364827Y-109888819D01*
X102364827Y-109888819D02*
X101983875Y-109888819D01*
X101983875Y-109888819D02*
X101983875Y-108888819D01*
X101983875Y-108888819D02*
X102317208Y-108888819D01*
X102317208Y-108888819D02*
X102412446Y-108936438D01*
X102412446Y-108936438D02*
X102460065Y-108984057D01*
X102460065Y-108984057D02*
X102507684Y-109079295D01*
X102507684Y-109079295D02*
X102507684Y-109174533D01*
X102507684Y-109174533D02*
X102460065Y-109269771D01*
X102460065Y-109269771D02*
X102412446Y-109317390D01*
X102412446Y-109317390D02*
X102317208Y-109365009D01*
X102317208Y-109365009D02*
X101983875Y-109365009D01*
X102983875Y-108888819D02*
X102983875Y-109698342D01*
X102983875Y-109698342D02*
X103031494Y-109793580D01*
X103031494Y-109793580D02*
X103079113Y-109841200D01*
X103079113Y-109841200D02*
X103174351Y-109888819D01*
X103174351Y-109888819D02*
X103364827Y-109888819D01*
X103364827Y-109888819D02*
X103460065Y-109841200D01*
X103460065Y-109841200D02*
X103507684Y-109793580D01*
X103507684Y-109793580D02*
X103555303Y-109698342D01*
X103555303Y-109698342D02*
X103555303Y-108888819D01*
X103983875Y-109841200D02*
X104126732Y-109888819D01*
X104126732Y-109888819D02*
X104364827Y-109888819D01*
X104364827Y-109888819D02*
X104460065Y-109841200D01*
X104460065Y-109841200D02*
X104507684Y-109793580D01*
X104507684Y-109793580D02*
X104555303Y-109698342D01*
X104555303Y-109698342D02*
X104555303Y-109603104D01*
X104555303Y-109603104D02*
X104507684Y-109507866D01*
X104507684Y-109507866D02*
X104460065Y-109460247D01*
X104460065Y-109460247D02*
X104364827Y-109412628D01*
X104364827Y-109412628D02*
X104174351Y-109365009D01*
X104174351Y-109365009D02*
X104079113Y-109317390D01*
X104079113Y-109317390D02*
X104031494Y-109269771D01*
X104031494Y-109269771D02*
X103983875Y-109174533D01*
X103983875Y-109174533D02*
X103983875Y-109079295D01*
X103983875Y-109079295D02*
X104031494Y-108984057D01*
X104031494Y-108984057D02*
X104079113Y-108936438D01*
X104079113Y-108936438D02*
X104174351Y-108888819D01*
X104174351Y-108888819D02*
X104412446Y-108888819D01*
X104412446Y-108888819D02*
X104555303Y-108936438D01*
X105174351Y-109412628D02*
X105174351Y-109888819D01*
X104841018Y-108888819D02*
X105174351Y-109412628D01*
X105174351Y-109412628D02*
X105507684Y-108888819D01*
X97602922Y-110498819D02*
X98174350Y-110498819D01*
X97888636Y-111498819D02*
X97888636Y-110498819D01*
X98460065Y-111451200D02*
X98602922Y-111498819D01*
X98602922Y-111498819D02*
X98841017Y-111498819D01*
X98841017Y-111498819D02*
X98936255Y-111451200D01*
X98936255Y-111451200D02*
X98983874Y-111403580D01*
X98983874Y-111403580D02*
X99031493Y-111308342D01*
X99031493Y-111308342D02*
X99031493Y-111213104D01*
X99031493Y-111213104D02*
X98983874Y-111117866D01*
X98983874Y-111117866D02*
X98936255Y-111070247D01*
X98936255Y-111070247D02*
X98841017Y-111022628D01*
X98841017Y-111022628D02*
X98650541Y-110975009D01*
X98650541Y-110975009D02*
X98555303Y-110927390D01*
X98555303Y-110927390D02*
X98507684Y-110879771D01*
X98507684Y-110879771D02*
X98460065Y-110784533D01*
X98460065Y-110784533D02*
X98460065Y-110689295D01*
X98460065Y-110689295D02*
X98507684Y-110594057D01*
X98507684Y-110594057D02*
X98555303Y-110546438D01*
X98555303Y-110546438D02*
X98650541Y-110498819D01*
X98650541Y-110498819D02*
X98888636Y-110498819D01*
X98888636Y-110498819D02*
X99031493Y-110546438D01*
X100031493Y-111403580D02*
X99983874Y-111451200D01*
X99983874Y-111451200D02*
X99841017Y-111498819D01*
X99841017Y-111498819D02*
X99745779Y-111498819D01*
X99745779Y-111498819D02*
X99602922Y-111451200D01*
X99602922Y-111451200D02*
X99507684Y-111355961D01*
X99507684Y-111355961D02*
X99460065Y-111260723D01*
X99460065Y-111260723D02*
X99412446Y-111070247D01*
X99412446Y-111070247D02*
X99412446Y-110927390D01*
X99412446Y-110927390D02*
X99460065Y-110736914D01*
X99460065Y-110736914D02*
X99507684Y-110641676D01*
X99507684Y-110641676D02*
X99602922Y-110546438D01*
X99602922Y-110546438D02*
X99745779Y-110498819D01*
X99745779Y-110498819D02*
X99841017Y-110498819D01*
X99841017Y-110498819D02*
X99983874Y-110546438D01*
X99983874Y-110546438D02*
X100031493Y-110594057D01*
X102460065Y-111498819D02*
X101983875Y-111498819D01*
X101983875Y-111498819D02*
X101983875Y-110498819D01*
X102793399Y-111498819D02*
X102793399Y-110498819D01*
X103841017Y-111403580D02*
X103793398Y-111451200D01*
X103793398Y-111451200D02*
X103650541Y-111498819D01*
X103650541Y-111498819D02*
X103555303Y-111498819D01*
X103555303Y-111498819D02*
X103412446Y-111451200D01*
X103412446Y-111451200D02*
X103317208Y-111355961D01*
X103317208Y-111355961D02*
X103269589Y-111260723D01*
X103269589Y-111260723D02*
X103221970Y-111070247D01*
X103221970Y-111070247D02*
X103221970Y-110927390D01*
X103221970Y-110927390D02*
X103269589Y-110736914D01*
X103269589Y-110736914D02*
X103317208Y-110641676D01*
X103317208Y-110641676D02*
X103412446Y-110546438D01*
X103412446Y-110546438D02*
X103555303Y-110498819D01*
X103555303Y-110498819D02*
X103650541Y-110498819D01*
X103650541Y-110498819D02*
X103793398Y-110546438D01*
X103793398Y-110546438D02*
X103841017Y-110594057D01*
X97745779Y-113108819D02*
X97745779Y-112108819D01*
X97745779Y-112108819D02*
X98317207Y-113108819D01*
X98317207Y-113108819D02*
X98317207Y-112108819D01*
X98793398Y-113108819D02*
X98793398Y-112108819D01*
X98793398Y-112108819D02*
X99126731Y-112823104D01*
X99126731Y-112823104D02*
X99460064Y-112108819D01*
X99460064Y-112108819D02*
X99460064Y-113108819D01*
X99936255Y-113108819D02*
X99936255Y-112108819D01*
X97607684Y-111831200D02*
X100074350Y-111831200D01*
X102460064Y-112156438D02*
X102364826Y-112108819D01*
X102364826Y-112108819D02*
X102221969Y-112108819D01*
X102221969Y-112108819D02*
X102079112Y-112156438D01*
X102079112Y-112156438D02*
X101983874Y-112251676D01*
X101983874Y-112251676D02*
X101936255Y-112346914D01*
X101936255Y-112346914D02*
X101888636Y-112537390D01*
X101888636Y-112537390D02*
X101888636Y-112680247D01*
X101888636Y-112680247D02*
X101936255Y-112870723D01*
X101936255Y-112870723D02*
X101983874Y-112965961D01*
X101983874Y-112965961D02*
X102079112Y-113061200D01*
X102079112Y-113061200D02*
X102221969Y-113108819D01*
X102221969Y-113108819D02*
X102317207Y-113108819D01*
X102317207Y-113108819D02*
X102460064Y-113061200D01*
X102460064Y-113061200D02*
X102507683Y-113013580D01*
X102507683Y-113013580D02*
X102507683Y-112680247D01*
X102507683Y-112680247D02*
X102317207Y-112680247D01*
X102936255Y-113108819D02*
X102936255Y-112108819D01*
X102936255Y-112108819D02*
X103507683Y-113108819D01*
X103507683Y-113108819D02*
X103507683Y-112108819D01*
X103983874Y-113108819D02*
X103983874Y-112108819D01*
X103983874Y-112108819D02*
X104221969Y-112108819D01*
X104221969Y-112108819D02*
X104364826Y-112156438D01*
X104364826Y-112156438D02*
X104460064Y-112251676D01*
X104460064Y-112251676D02*
X104507683Y-112346914D01*
X104507683Y-112346914D02*
X104555302Y-112537390D01*
X104555302Y-112537390D02*
X104555302Y-112680247D01*
X104555302Y-112680247D02*
X104507683Y-112870723D01*
X104507683Y-112870723D02*
X104460064Y-112965961D01*
X104460064Y-112965961D02*
X104364826Y-113061200D01*
X104364826Y-113061200D02*
X104221969Y-113108819D01*
X104221969Y-113108819D02*
X103983874Y-113108819D01*
X98079112Y-114195009D02*
X97745779Y-114195009D01*
X97745779Y-114718819D02*
X97745779Y-113718819D01*
X97745779Y-113718819D02*
X98221969Y-113718819D01*
X98602922Y-114718819D02*
X98602922Y-113718819D01*
X99650540Y-114718819D02*
X99317207Y-114242628D01*
X99079112Y-114718819D02*
X99079112Y-113718819D01*
X99079112Y-113718819D02*
X99460064Y-113718819D01*
X99460064Y-113718819D02*
X99555302Y-113766438D01*
X99555302Y-113766438D02*
X99602921Y-113814057D01*
X99602921Y-113814057D02*
X99650540Y-113909295D01*
X99650540Y-113909295D02*
X99650540Y-114052152D01*
X99650540Y-114052152D02*
X99602921Y-114147390D01*
X99602921Y-114147390D02*
X99555302Y-114195009D01*
X99555302Y-114195009D02*
X99460064Y-114242628D01*
X99460064Y-114242628D02*
X99079112Y-114242628D01*
X100745778Y-114814057D02*
X100650540Y-114766438D01*
X100650540Y-114766438D02*
X100555302Y-114671200D01*
X100555302Y-114671200D02*
X100412445Y-114528342D01*
X100412445Y-114528342D02*
X100317207Y-114480723D01*
X100317207Y-114480723D02*
X100221969Y-114480723D01*
X100269588Y-114718819D02*
X100174350Y-114671200D01*
X100174350Y-114671200D02*
X100079112Y-114575961D01*
X100079112Y-114575961D02*
X100031493Y-114385485D01*
X100031493Y-114385485D02*
X100031493Y-114052152D01*
X100031493Y-114052152D02*
X100079112Y-113861676D01*
X100079112Y-113861676D02*
X100174350Y-113766438D01*
X100174350Y-113766438D02*
X100269588Y-113718819D01*
X100269588Y-113718819D02*
X100460064Y-113718819D01*
X100460064Y-113718819D02*
X100555302Y-113766438D01*
X100555302Y-113766438D02*
X100650540Y-113861676D01*
X100650540Y-113861676D02*
X100698159Y-114052152D01*
X100698159Y-114052152D02*
X100698159Y-114385485D01*
X100698159Y-114385485D02*
X100650540Y-114575961D01*
X100650540Y-114575961D02*
X100555302Y-114671200D01*
X100555302Y-114671200D02*
X100460064Y-114718819D01*
X100460064Y-114718819D02*
X100269588Y-114718819D01*
X97607684Y-113441200D02*
X100788636Y-113441200D01*
X101888636Y-114718819D02*
X101888636Y-113718819D01*
X102936254Y-114718819D02*
X102602921Y-114242628D01*
X102364826Y-114718819D02*
X102364826Y-113718819D01*
X102364826Y-113718819D02*
X102745778Y-113718819D01*
X102745778Y-113718819D02*
X102841016Y-113766438D01*
X102841016Y-113766438D02*
X102888635Y-113814057D01*
X102888635Y-113814057D02*
X102936254Y-113909295D01*
X102936254Y-113909295D02*
X102936254Y-114052152D01*
X102936254Y-114052152D02*
X102888635Y-114147390D01*
X102888635Y-114147390D02*
X102841016Y-114195009D01*
X102841016Y-114195009D02*
X102745778Y-114242628D01*
X102745778Y-114242628D02*
X102364826Y-114242628D01*
X104031492Y-114814057D02*
X103936254Y-114766438D01*
X103936254Y-114766438D02*
X103841016Y-114671200D01*
X103841016Y-114671200D02*
X103698159Y-114528342D01*
X103698159Y-114528342D02*
X103602921Y-114480723D01*
X103602921Y-114480723D02*
X103507683Y-114480723D01*
X103555302Y-114718819D02*
X103460064Y-114671200D01*
X103460064Y-114671200D02*
X103364826Y-114575961D01*
X103364826Y-114575961D02*
X103317207Y-114385485D01*
X103317207Y-114385485D02*
X103317207Y-114052152D01*
X103317207Y-114052152D02*
X103364826Y-113861676D01*
X103364826Y-113861676D02*
X103460064Y-113766438D01*
X103460064Y-113766438D02*
X103555302Y-113718819D01*
X103555302Y-113718819D02*
X103745778Y-113718819D01*
X103745778Y-113718819D02*
X103841016Y-113766438D01*
X103841016Y-113766438D02*
X103936254Y-113861676D01*
X103936254Y-113861676D02*
X103983873Y-114052152D01*
X103983873Y-114052152D02*
X103983873Y-114385485D01*
X103983873Y-114385485D02*
X103936254Y-114575961D01*
X103936254Y-114575961D02*
X103841016Y-114671200D01*
X103841016Y-114671200D02*
X103745778Y-114718819D01*
X103745778Y-114718819D02*
X103555302Y-114718819D01*
X101750541Y-113441200D02*
X104074350Y-113441200D01*
X98079112Y-115805009D02*
X98221969Y-115852628D01*
X98221969Y-115852628D02*
X98269588Y-115900247D01*
X98269588Y-115900247D02*
X98317207Y-115995485D01*
X98317207Y-115995485D02*
X98317207Y-116138342D01*
X98317207Y-116138342D02*
X98269588Y-116233580D01*
X98269588Y-116233580D02*
X98221969Y-116281200D01*
X98221969Y-116281200D02*
X98126731Y-116328819D01*
X98126731Y-116328819D02*
X97745779Y-116328819D01*
X97745779Y-116328819D02*
X97745779Y-115328819D01*
X97745779Y-115328819D02*
X98079112Y-115328819D01*
X98079112Y-115328819D02*
X98174350Y-115376438D01*
X98174350Y-115376438D02*
X98221969Y-115424057D01*
X98221969Y-115424057D02*
X98269588Y-115519295D01*
X98269588Y-115519295D02*
X98269588Y-115614533D01*
X98269588Y-115614533D02*
X98221969Y-115709771D01*
X98221969Y-115709771D02*
X98174350Y-115757390D01*
X98174350Y-115757390D02*
X98079112Y-115805009D01*
X98079112Y-115805009D02*
X97745779Y-115805009D01*
X98698160Y-116043104D02*
X99174350Y-116043104D01*
X98602922Y-116328819D02*
X98936255Y-115328819D01*
X98936255Y-115328819D02*
X99269588Y-116328819D01*
X102221970Y-115805009D02*
X102364827Y-115852628D01*
X102364827Y-115852628D02*
X102412446Y-115900247D01*
X102412446Y-115900247D02*
X102460065Y-115995485D01*
X102460065Y-115995485D02*
X102460065Y-116138342D01*
X102460065Y-116138342D02*
X102412446Y-116233580D01*
X102412446Y-116233580D02*
X102364827Y-116281200D01*
X102364827Y-116281200D02*
X102269589Y-116328819D01*
X102269589Y-116328819D02*
X101888637Y-116328819D01*
X101888637Y-116328819D02*
X101888637Y-115328819D01*
X101888637Y-115328819D02*
X102221970Y-115328819D01*
X102221970Y-115328819D02*
X102317208Y-115376438D01*
X102317208Y-115376438D02*
X102364827Y-115424057D01*
X102364827Y-115424057D02*
X102412446Y-115519295D01*
X102412446Y-115519295D02*
X102412446Y-115614533D01*
X102412446Y-115614533D02*
X102364827Y-115709771D01*
X102364827Y-115709771D02*
X102317208Y-115757390D01*
X102317208Y-115757390D02*
X102221970Y-115805009D01*
X102221970Y-115805009D02*
X101888637Y-115805009D01*
X102841018Y-116281200D02*
X102983875Y-116328819D01*
X102983875Y-116328819D02*
X103221970Y-116328819D01*
X103221970Y-116328819D02*
X103317208Y-116281200D01*
X103317208Y-116281200D02*
X103364827Y-116233580D01*
X103364827Y-116233580D02*
X103412446Y-116138342D01*
X103412446Y-116138342D02*
X103412446Y-116043104D01*
X103412446Y-116043104D02*
X103364827Y-115947866D01*
X103364827Y-115947866D02*
X103317208Y-115900247D01*
X103317208Y-115900247D02*
X103221970Y-115852628D01*
X103221970Y-115852628D02*
X103031494Y-115805009D01*
X103031494Y-115805009D02*
X102936256Y-115757390D01*
X102936256Y-115757390D02*
X102888637Y-115709771D01*
X102888637Y-115709771D02*
X102841018Y-115614533D01*
X102841018Y-115614533D02*
X102841018Y-115519295D01*
X102841018Y-115519295D02*
X102888637Y-115424057D01*
X102888637Y-115424057D02*
X102936256Y-115376438D01*
X102936256Y-115376438D02*
X103031494Y-115328819D01*
X103031494Y-115328819D02*
X103269589Y-115328819D01*
X103269589Y-115328819D02*
X103412446Y-115376438D01*
X136150579Y-63344419D02*
X136150579Y-62344419D01*
X139763693Y-109035419D02*
X139763693Y-109749704D01*
X139763693Y-109749704D02*
X139716074Y-109892561D01*
X139716074Y-109892561D02*
X139620836Y-109987800D01*
X139620836Y-109987800D02*
X139477979Y-110035419D01*
X139477979Y-110035419D02*
X139382741Y-110035419D01*
X140239884Y-110035419D02*
X140239884Y-109035419D01*
X140239884Y-109035419D02*
X140620836Y-109035419D01*
X140620836Y-109035419D02*
X140716074Y-109083038D01*
X140716074Y-109083038D02*
X140763693Y-109130657D01*
X140763693Y-109130657D02*
X140811312Y-109225895D01*
X140811312Y-109225895D02*
X140811312Y-109368752D01*
X140811312Y-109368752D02*
X140763693Y-109463990D01*
X140763693Y-109463990D02*
X140716074Y-109511609D01*
X140716074Y-109511609D02*
X140620836Y-109559228D01*
X140620836Y-109559228D02*
X140239884Y-109559228D01*
X141192265Y-109130657D02*
X141239884Y-109083038D01*
X141239884Y-109083038D02*
X141335122Y-109035419D01*
X141335122Y-109035419D02*
X141573217Y-109035419D01*
X141573217Y-109035419D02*
X141668455Y-109083038D01*
X141668455Y-109083038D02*
X141716074Y-109130657D01*
X141716074Y-109130657D02*
X141763693Y-109225895D01*
X141763693Y-109225895D02*
X141763693Y-109321133D01*
X141763693Y-109321133D02*
X141716074Y-109463990D01*
X141716074Y-109463990D02*
X141144646Y-110035419D01*
X141144646Y-110035419D02*
X141763693Y-110035419D01*
X142716074Y-110035419D02*
X142144646Y-110035419D01*
X142430360Y-110035419D02*
X142430360Y-109035419D01*
X142430360Y-109035419D02*
X142335122Y-109178276D01*
X142335122Y-109178276D02*
X142239884Y-109273514D01*
X142239884Y-109273514D02*
X142144646Y-109321133D01*
X143144646Y-109940180D02*
X143192265Y-109987800D01*
X143192265Y-109987800D02*
X143144646Y-110035419D01*
X143144646Y-110035419D02*
X143097027Y-109987800D01*
X143097027Y-109987800D02*
X143144646Y-109940180D01*
X143144646Y-109940180D02*
X143144646Y-110035419D01*
X143620836Y-109940180D02*
X143668455Y-109987800D01*
X143668455Y-109987800D02*
X143620836Y-110035419D01*
X143620836Y-110035419D02*
X143573217Y-109987800D01*
X143573217Y-109987800D02*
X143620836Y-109940180D01*
X143620836Y-109940180D02*
X143620836Y-110035419D01*
X144049407Y-109130657D02*
X144097026Y-109083038D01*
X144097026Y-109083038D02*
X144192264Y-109035419D01*
X144192264Y-109035419D02*
X144430359Y-109035419D01*
X144430359Y-109035419D02*
X144525597Y-109083038D01*
X144525597Y-109083038D02*
X144573216Y-109130657D01*
X144573216Y-109130657D02*
X144620835Y-109225895D01*
X144620835Y-109225895D02*
X144620835Y-109321133D01*
X144620835Y-109321133D02*
X144573216Y-109463990D01*
X144573216Y-109463990D02*
X144001788Y-110035419D01*
X144001788Y-110035419D02*
X144620835Y-110035419D01*
X145477978Y-109035419D02*
X145287502Y-109035419D01*
X145287502Y-109035419D02*
X145192264Y-109083038D01*
X145192264Y-109083038D02*
X145144645Y-109130657D01*
X145144645Y-109130657D02*
X145049407Y-109273514D01*
X145049407Y-109273514D02*
X145001788Y-109463990D01*
X145001788Y-109463990D02*
X145001788Y-109844942D01*
X145001788Y-109844942D02*
X145049407Y-109940180D01*
X145049407Y-109940180D02*
X145097026Y-109987800D01*
X145097026Y-109987800D02*
X145192264Y-110035419D01*
X145192264Y-110035419D02*
X145382740Y-110035419D01*
X145382740Y-110035419D02*
X145477978Y-109987800D01*
X145477978Y-109987800D02*
X145525597Y-109940180D01*
X145525597Y-109940180D02*
X145573216Y-109844942D01*
X145573216Y-109844942D02*
X145573216Y-109606847D01*
X145573216Y-109606847D02*
X145525597Y-109511609D01*
X145525597Y-109511609D02*
X145477978Y-109463990D01*
X145477978Y-109463990D02*
X145382740Y-109416371D01*
X145382740Y-109416371D02*
X145192264Y-109416371D01*
X145192264Y-109416371D02*
X145097026Y-109463990D01*
X145097026Y-109463990D02*
X145049407Y-109511609D01*
X145049407Y-109511609D02*
X145001788Y-109606847D01*
X146001788Y-109940180D02*
X146049407Y-109987800D01*
X146049407Y-109987800D02*
X146001788Y-110035419D01*
X146001788Y-110035419D02*
X145954169Y-109987800D01*
X145954169Y-109987800D02*
X146001788Y-109940180D01*
X146001788Y-109940180D02*
X146001788Y-110035419D01*
X146001788Y-109416371D02*
X146049407Y-109463990D01*
X146049407Y-109463990D02*
X146001788Y-109511609D01*
X146001788Y-109511609D02*
X145954169Y-109463990D01*
X145954169Y-109463990D02*
X146001788Y-109416371D01*
X146001788Y-109416371D02*
X146001788Y-109511609D01*
X140763693Y-111645419D02*
X140192265Y-111645419D01*
X140477979Y-111645419D02*
X140477979Y-110645419D01*
X140477979Y-110645419D02*
X140382741Y-110788276D01*
X140382741Y-110788276D02*
X140287503Y-110883514D01*
X140287503Y-110883514D02*
X140192265Y-110931133D01*
X141192265Y-111264466D02*
X141954170Y-111264466D01*
X142382741Y-110740657D02*
X142430360Y-110693038D01*
X142430360Y-110693038D02*
X142525598Y-110645419D01*
X142525598Y-110645419D02*
X142763693Y-110645419D01*
X142763693Y-110645419D02*
X142858931Y-110693038D01*
X142858931Y-110693038D02*
X142906550Y-110740657D01*
X142906550Y-110740657D02*
X142954169Y-110835895D01*
X142954169Y-110835895D02*
X142954169Y-110931133D01*
X142954169Y-110931133D02*
X142906550Y-111073990D01*
X142906550Y-111073990D02*
X142335122Y-111645419D01*
X142335122Y-111645419D02*
X142954169Y-111645419D01*
X145620837Y-110740657D02*
X145668456Y-110693038D01*
X145668456Y-110693038D02*
X145763694Y-110645419D01*
X145763694Y-110645419D02*
X146001789Y-110645419D01*
X146001789Y-110645419D02*
X146097027Y-110693038D01*
X146097027Y-110693038D02*
X146144646Y-110740657D01*
X146144646Y-110740657D02*
X146192265Y-110835895D01*
X146192265Y-110835895D02*
X146192265Y-110931133D01*
X146192265Y-110931133D02*
X146144646Y-111073990D01*
X146144646Y-111073990D02*
X145573218Y-111645419D01*
X145573218Y-111645419D02*
X146192265Y-111645419D01*
X146620837Y-111264466D02*
X147382742Y-111264466D01*
X147763694Y-110645419D02*
X148382741Y-110645419D01*
X148382741Y-110645419D02*
X148049408Y-111026371D01*
X148049408Y-111026371D02*
X148192265Y-111026371D01*
X148192265Y-111026371D02*
X148287503Y-111073990D01*
X148287503Y-111073990D02*
X148335122Y-111121609D01*
X148335122Y-111121609D02*
X148382741Y-111216847D01*
X148382741Y-111216847D02*
X148382741Y-111454942D01*
X148382741Y-111454942D02*
X148335122Y-111550180D01*
X148335122Y-111550180D02*
X148287503Y-111597800D01*
X148287503Y-111597800D02*
X148192265Y-111645419D01*
X148192265Y-111645419D02*
X147906551Y-111645419D01*
X147906551Y-111645419D02*
X147811313Y-111597800D01*
X147811313Y-111597800D02*
X147763694Y-111550180D01*
X139906550Y-112255419D02*
X139716074Y-112255419D01*
X139716074Y-112255419D02*
X139620836Y-112303038D01*
X139620836Y-112303038D02*
X139573217Y-112350657D01*
X139573217Y-112350657D02*
X139477979Y-112493514D01*
X139477979Y-112493514D02*
X139430360Y-112683990D01*
X139430360Y-112683990D02*
X139430360Y-113064942D01*
X139430360Y-113064942D02*
X139477979Y-113160180D01*
X139477979Y-113160180D02*
X139525598Y-113207800D01*
X139525598Y-113207800D02*
X139620836Y-113255419D01*
X139620836Y-113255419D02*
X139811312Y-113255419D01*
X139811312Y-113255419D02*
X139906550Y-113207800D01*
X139906550Y-113207800D02*
X139954169Y-113160180D01*
X139954169Y-113160180D02*
X140001788Y-113064942D01*
X140001788Y-113064942D02*
X140001788Y-112826847D01*
X140001788Y-112826847D02*
X139954169Y-112731609D01*
X139954169Y-112731609D02*
X139906550Y-112683990D01*
X139906550Y-112683990D02*
X139811312Y-112636371D01*
X139811312Y-112636371D02*
X139620836Y-112636371D01*
X139620836Y-112636371D02*
X139525598Y-112683990D01*
X139525598Y-112683990D02*
X139477979Y-112731609D01*
X139477979Y-112731609D02*
X139430360Y-112826847D01*
X140573217Y-112683990D02*
X140477979Y-112636371D01*
X140477979Y-112636371D02*
X140430360Y-112588752D01*
X140430360Y-112588752D02*
X140382741Y-112493514D01*
X140382741Y-112493514D02*
X140382741Y-112445895D01*
X140382741Y-112445895D02*
X140430360Y-112350657D01*
X140430360Y-112350657D02*
X140477979Y-112303038D01*
X140477979Y-112303038D02*
X140573217Y-112255419D01*
X140573217Y-112255419D02*
X140763693Y-112255419D01*
X140763693Y-112255419D02*
X140858931Y-112303038D01*
X140858931Y-112303038D02*
X140906550Y-112350657D01*
X140906550Y-112350657D02*
X140954169Y-112445895D01*
X140954169Y-112445895D02*
X140954169Y-112493514D01*
X140954169Y-112493514D02*
X140906550Y-112588752D01*
X140906550Y-112588752D02*
X140858931Y-112636371D01*
X140858931Y-112636371D02*
X140763693Y-112683990D01*
X140763693Y-112683990D02*
X140573217Y-112683990D01*
X140573217Y-112683990D02*
X140477979Y-112731609D01*
X140477979Y-112731609D02*
X140430360Y-112779228D01*
X140430360Y-112779228D02*
X140382741Y-112874466D01*
X140382741Y-112874466D02*
X140382741Y-113064942D01*
X140382741Y-113064942D02*
X140430360Y-113160180D01*
X140430360Y-113160180D02*
X140477979Y-113207800D01*
X140477979Y-113207800D02*
X140573217Y-113255419D01*
X140573217Y-113255419D02*
X140763693Y-113255419D01*
X140763693Y-113255419D02*
X140858931Y-113207800D01*
X140858931Y-113207800D02*
X140906550Y-113160180D01*
X140906550Y-113160180D02*
X140954169Y-113064942D01*
X140954169Y-113064942D02*
X140954169Y-112874466D01*
X140954169Y-112874466D02*
X140906550Y-112779228D01*
X140906550Y-112779228D02*
X140858931Y-112731609D01*
X140858931Y-112731609D02*
X140763693Y-112683990D01*
X141573217Y-112255419D02*
X141668455Y-112255419D01*
X141668455Y-112255419D02*
X141763693Y-112303038D01*
X141763693Y-112303038D02*
X141811312Y-112350657D01*
X141811312Y-112350657D02*
X141858931Y-112445895D01*
X141858931Y-112445895D02*
X141906550Y-112636371D01*
X141906550Y-112636371D02*
X141906550Y-112874466D01*
X141906550Y-112874466D02*
X141858931Y-113064942D01*
X141858931Y-113064942D02*
X141811312Y-113160180D01*
X141811312Y-113160180D02*
X141763693Y-113207800D01*
X141763693Y-113207800D02*
X141668455Y-113255419D01*
X141668455Y-113255419D02*
X141573217Y-113255419D01*
X141573217Y-113255419D02*
X141477979Y-113207800D01*
X141477979Y-113207800D02*
X141430360Y-113160180D01*
X141430360Y-113160180D02*
X141382741Y-113064942D01*
X141382741Y-113064942D02*
X141335122Y-112874466D01*
X141335122Y-112874466D02*
X141335122Y-112636371D01*
X141335122Y-112636371D02*
X141382741Y-112445895D01*
X141382741Y-112445895D02*
X141430360Y-112350657D01*
X141430360Y-112350657D02*
X141477979Y-112303038D01*
X141477979Y-112303038D02*
X141573217Y-112255419D01*
X142382741Y-113255419D02*
X142573217Y-113255419D01*
X142573217Y-113255419D02*
X142668455Y-113207800D01*
X142668455Y-113207800D02*
X142716074Y-113160180D01*
X142716074Y-113160180D02*
X142811312Y-113017323D01*
X142811312Y-113017323D02*
X142858931Y-112826847D01*
X142858931Y-112826847D02*
X142858931Y-112445895D01*
X142858931Y-112445895D02*
X142811312Y-112350657D01*
X142811312Y-112350657D02*
X142763693Y-112303038D01*
X142763693Y-112303038D02*
X142668455Y-112255419D01*
X142668455Y-112255419D02*
X142477979Y-112255419D01*
X142477979Y-112255419D02*
X142382741Y-112303038D01*
X142382741Y-112303038D02*
X142335122Y-112350657D01*
X142335122Y-112350657D02*
X142287503Y-112445895D01*
X142287503Y-112445895D02*
X142287503Y-112683990D01*
X142287503Y-112683990D02*
X142335122Y-112779228D01*
X142335122Y-112779228D02*
X142382741Y-112826847D01*
X142382741Y-112826847D02*
X142477979Y-112874466D01*
X142477979Y-112874466D02*
X142668455Y-112874466D01*
X142668455Y-112874466D02*
X142763693Y-112826847D01*
X142763693Y-112826847D02*
X142811312Y-112779228D01*
X142811312Y-112779228D02*
X142858931Y-112683990D01*
X143287503Y-112731609D02*
X143620836Y-112731609D01*
X143763693Y-113255419D02*
X143287503Y-113255419D01*
X143287503Y-113255419D02*
X143287503Y-112255419D01*
X143287503Y-112255419D02*
X143763693Y-112255419D01*
X145382741Y-112255419D02*
X145192265Y-112255419D01*
X145192265Y-112255419D02*
X145097027Y-112303038D01*
X145097027Y-112303038D02*
X145049408Y-112350657D01*
X145049408Y-112350657D02*
X144954170Y-112493514D01*
X144954170Y-112493514D02*
X144906551Y-112683990D01*
X144906551Y-112683990D02*
X144906551Y-113064942D01*
X144906551Y-113064942D02*
X144954170Y-113160180D01*
X144954170Y-113160180D02*
X145001789Y-113207800D01*
X145001789Y-113207800D02*
X145097027Y-113255419D01*
X145097027Y-113255419D02*
X145287503Y-113255419D01*
X145287503Y-113255419D02*
X145382741Y-113207800D01*
X145382741Y-113207800D02*
X145430360Y-113160180D01*
X145430360Y-113160180D02*
X145477979Y-113064942D01*
X145477979Y-113064942D02*
X145477979Y-112826847D01*
X145477979Y-112826847D02*
X145430360Y-112731609D01*
X145430360Y-112731609D02*
X145382741Y-112683990D01*
X145382741Y-112683990D02*
X145287503Y-112636371D01*
X145287503Y-112636371D02*
X145097027Y-112636371D01*
X145097027Y-112636371D02*
X145001789Y-112683990D01*
X145001789Y-112683990D02*
X144954170Y-112731609D01*
X144954170Y-112731609D02*
X144906551Y-112826847D01*
X146049408Y-112683990D02*
X145954170Y-112636371D01*
X145954170Y-112636371D02*
X145906551Y-112588752D01*
X145906551Y-112588752D02*
X145858932Y-112493514D01*
X145858932Y-112493514D02*
X145858932Y-112445895D01*
X145858932Y-112445895D02*
X145906551Y-112350657D01*
X145906551Y-112350657D02*
X145954170Y-112303038D01*
X145954170Y-112303038D02*
X146049408Y-112255419D01*
X146049408Y-112255419D02*
X146239884Y-112255419D01*
X146239884Y-112255419D02*
X146335122Y-112303038D01*
X146335122Y-112303038D02*
X146382741Y-112350657D01*
X146382741Y-112350657D02*
X146430360Y-112445895D01*
X146430360Y-112445895D02*
X146430360Y-112493514D01*
X146430360Y-112493514D02*
X146382741Y-112588752D01*
X146382741Y-112588752D02*
X146335122Y-112636371D01*
X146335122Y-112636371D02*
X146239884Y-112683990D01*
X146239884Y-112683990D02*
X146049408Y-112683990D01*
X146049408Y-112683990D02*
X145954170Y-112731609D01*
X145954170Y-112731609D02*
X145906551Y-112779228D01*
X145906551Y-112779228D02*
X145858932Y-112874466D01*
X145858932Y-112874466D02*
X145858932Y-113064942D01*
X145858932Y-113064942D02*
X145906551Y-113160180D01*
X145906551Y-113160180D02*
X145954170Y-113207800D01*
X145954170Y-113207800D02*
X146049408Y-113255419D01*
X146049408Y-113255419D02*
X146239884Y-113255419D01*
X146239884Y-113255419D02*
X146335122Y-113207800D01*
X146335122Y-113207800D02*
X146382741Y-113160180D01*
X146382741Y-113160180D02*
X146430360Y-113064942D01*
X146430360Y-113064942D02*
X146430360Y-112874466D01*
X146430360Y-112874466D02*
X146382741Y-112779228D01*
X146382741Y-112779228D02*
X146335122Y-112731609D01*
X146335122Y-112731609D02*
X146239884Y-112683990D01*
X147049408Y-112255419D02*
X147144646Y-112255419D01*
X147144646Y-112255419D02*
X147239884Y-112303038D01*
X147239884Y-112303038D02*
X147287503Y-112350657D01*
X147287503Y-112350657D02*
X147335122Y-112445895D01*
X147335122Y-112445895D02*
X147382741Y-112636371D01*
X147382741Y-112636371D02*
X147382741Y-112874466D01*
X147382741Y-112874466D02*
X147335122Y-113064942D01*
X147335122Y-113064942D02*
X147287503Y-113160180D01*
X147287503Y-113160180D02*
X147239884Y-113207800D01*
X147239884Y-113207800D02*
X147144646Y-113255419D01*
X147144646Y-113255419D02*
X147049408Y-113255419D01*
X147049408Y-113255419D02*
X146954170Y-113207800D01*
X146954170Y-113207800D02*
X146906551Y-113160180D01*
X146906551Y-113160180D02*
X146858932Y-113064942D01*
X146858932Y-113064942D02*
X146811313Y-112874466D01*
X146811313Y-112874466D02*
X146811313Y-112636371D01*
X146811313Y-112636371D02*
X146858932Y-112445895D01*
X146858932Y-112445895D02*
X146906551Y-112350657D01*
X146906551Y-112350657D02*
X146954170Y-112303038D01*
X146954170Y-112303038D02*
X147049408Y-112255419D01*
X147858932Y-113255419D02*
X148049408Y-113255419D01*
X148049408Y-113255419D02*
X148144646Y-113207800D01*
X148144646Y-113207800D02*
X148192265Y-113160180D01*
X148192265Y-113160180D02*
X148287503Y-113017323D01*
X148287503Y-113017323D02*
X148335122Y-112826847D01*
X148335122Y-112826847D02*
X148335122Y-112445895D01*
X148335122Y-112445895D02*
X148287503Y-112350657D01*
X148287503Y-112350657D02*
X148239884Y-112303038D01*
X148239884Y-112303038D02*
X148144646Y-112255419D01*
X148144646Y-112255419D02*
X147954170Y-112255419D01*
X147954170Y-112255419D02*
X147858932Y-112303038D01*
X147858932Y-112303038D02*
X147811313Y-112350657D01*
X147811313Y-112350657D02*
X147763694Y-112445895D01*
X147763694Y-112445895D02*
X147763694Y-112683990D01*
X147763694Y-112683990D02*
X147811313Y-112779228D01*
X147811313Y-112779228D02*
X147858932Y-112826847D01*
X147858932Y-112826847D02*
X147954170Y-112874466D01*
X147954170Y-112874466D02*
X148144646Y-112874466D01*
X148144646Y-112874466D02*
X148239884Y-112826847D01*
X148239884Y-112826847D02*
X148287503Y-112779228D01*
X148287503Y-112779228D02*
X148335122Y-112683990D01*
X143414979Y-76730219D02*
X143414979Y-75730219D01*
X143891169Y-76063552D02*
X143891169Y-76730219D01*
X143891169Y-76158790D02*
X143938788Y-76111171D01*
X143938788Y-76111171D02*
X144034026Y-76063552D01*
X144034026Y-76063552D02*
X144176883Y-76063552D01*
X144176883Y-76063552D02*
X144272121Y-76111171D01*
X144272121Y-76111171D02*
X144319740Y-76206409D01*
X144319740Y-76206409D02*
X144319740Y-76730219D01*
X142557741Y-77866952D02*
X142748217Y-78533619D01*
X142748217Y-78533619D02*
X142938693Y-78057428D01*
X142938693Y-78057428D02*
X143129169Y-78533619D01*
X143129169Y-78533619D02*
X143319645Y-77866952D01*
X143700598Y-78533619D02*
X143700598Y-77866952D01*
X143700598Y-77533619D02*
X143652979Y-77581238D01*
X143652979Y-77581238D02*
X143700598Y-77628857D01*
X143700598Y-77628857D02*
X143748217Y-77581238D01*
X143748217Y-77581238D02*
X143700598Y-77533619D01*
X143700598Y-77533619D02*
X143700598Y-77628857D01*
X144033931Y-77866952D02*
X144414883Y-77866952D01*
X144176788Y-77533619D02*
X144176788Y-78390761D01*
X144176788Y-78390761D02*
X144224407Y-78486000D01*
X144224407Y-78486000D02*
X144319645Y-78533619D01*
X144319645Y-78533619D02*
X144414883Y-78533619D01*
X144748217Y-78533619D02*
X144748217Y-77533619D01*
X145176788Y-78533619D02*
X145176788Y-78009809D01*
X145176788Y-78009809D02*
X145129169Y-77914571D01*
X145129169Y-77914571D02*
X145033931Y-77866952D01*
X145033931Y-77866952D02*
X144891074Y-77866952D01*
X144891074Y-77866952D02*
X144795836Y-77914571D01*
X144795836Y-77914571D02*
X144748217Y-77962190D01*
X146367265Y-78247904D02*
X146843455Y-78247904D01*
X146272027Y-78533619D02*
X146605360Y-77533619D01*
X146605360Y-77533619D02*
X146938693Y-78533619D01*
X147462503Y-77533619D02*
X147652979Y-77533619D01*
X147652979Y-77533619D02*
X147748217Y-77581238D01*
X147748217Y-77581238D02*
X147843455Y-77676476D01*
X147843455Y-77676476D02*
X147891074Y-77866952D01*
X147891074Y-77866952D02*
X147891074Y-78200285D01*
X147891074Y-78200285D02*
X147843455Y-78390761D01*
X147843455Y-78390761D02*
X147748217Y-78486000D01*
X147748217Y-78486000D02*
X147652979Y-78533619D01*
X147652979Y-78533619D02*
X147462503Y-78533619D01*
X147462503Y-78533619D02*
X147367265Y-78486000D01*
X147367265Y-78486000D02*
X147272027Y-78390761D01*
X147272027Y-78390761D02*
X147224408Y-78200285D01*
X147224408Y-78200285D02*
X147224408Y-77866952D01*
X147224408Y-77866952D02*
X147272027Y-77676476D01*
X147272027Y-77676476D02*
X147367265Y-77581238D01*
X147367265Y-77581238D02*
X147462503Y-77533619D01*
X148319646Y-78009809D02*
X148652979Y-78009809D01*
X148795836Y-78533619D02*
X148319646Y-78533619D01*
X148319646Y-78533619D02*
X148319646Y-77533619D01*
X148319646Y-77533619D02*
X148795836Y-77533619D01*
X146276789Y-77256000D02*
X148886313Y-77256000D01*
X162845979Y-78616180D02*
X162893598Y-78663800D01*
X162893598Y-78663800D02*
X162845979Y-78711419D01*
X162845979Y-78711419D02*
X162798360Y-78663800D01*
X162798360Y-78663800D02*
X162845979Y-78616180D01*
X162845979Y-78616180D02*
X162845979Y-78711419D01*
X162845979Y-78092371D02*
X162893598Y-78139990D01*
X162893598Y-78139990D02*
X162845979Y-78187609D01*
X162845979Y-78187609D02*
X162798360Y-78139990D01*
X162798360Y-78139990D02*
X162845979Y-78092371D01*
X162845979Y-78092371D02*
X162845979Y-78187609D01*
X164560264Y-77711419D02*
X164084074Y-77711419D01*
X164084074Y-77711419D02*
X164036455Y-78187609D01*
X164036455Y-78187609D02*
X164084074Y-78139990D01*
X164084074Y-78139990D02*
X164179312Y-78092371D01*
X164179312Y-78092371D02*
X164417407Y-78092371D01*
X164417407Y-78092371D02*
X164512645Y-78139990D01*
X164512645Y-78139990D02*
X164560264Y-78187609D01*
X164560264Y-78187609D02*
X164607883Y-78282847D01*
X164607883Y-78282847D02*
X164607883Y-78520942D01*
X164607883Y-78520942D02*
X164560264Y-78616180D01*
X164560264Y-78616180D02*
X164512645Y-78663800D01*
X164512645Y-78663800D02*
X164417407Y-78711419D01*
X164417407Y-78711419D02*
X164179312Y-78711419D01*
X164179312Y-78711419D02*
X164084074Y-78663800D01*
X164084074Y-78663800D02*
X164036455Y-78616180D01*
X164893598Y-77711419D02*
X165226931Y-78711419D01*
X165226931Y-78711419D02*
X165560264Y-77711419D01*
X166131693Y-79044752D02*
X166131693Y-77616180D01*
X166750741Y-77711419D02*
X167369788Y-77711419D01*
X167369788Y-77711419D02*
X167036455Y-78092371D01*
X167036455Y-78092371D02*
X167179312Y-78092371D01*
X167179312Y-78092371D02*
X167274550Y-78139990D01*
X167274550Y-78139990D02*
X167322169Y-78187609D01*
X167322169Y-78187609D02*
X167369788Y-78282847D01*
X167369788Y-78282847D02*
X167369788Y-78520942D01*
X167369788Y-78520942D02*
X167322169Y-78616180D01*
X167322169Y-78616180D02*
X167274550Y-78663800D01*
X167274550Y-78663800D02*
X167179312Y-78711419D01*
X167179312Y-78711419D02*
X166893598Y-78711419D01*
X166893598Y-78711419D02*
X166798360Y-78663800D01*
X166798360Y-78663800D02*
X166750741Y-78616180D01*
X167655503Y-77711419D02*
X167988836Y-78711419D01*
X167988836Y-78711419D02*
X168322169Y-77711419D01*
X168560265Y-77711419D02*
X169179312Y-77711419D01*
X169179312Y-77711419D02*
X168845979Y-78092371D01*
X168845979Y-78092371D02*
X168988836Y-78092371D01*
X168988836Y-78092371D02*
X169084074Y-78139990D01*
X169084074Y-78139990D02*
X169131693Y-78187609D01*
X169131693Y-78187609D02*
X169179312Y-78282847D01*
X169179312Y-78282847D02*
X169179312Y-78520942D01*
X169179312Y-78520942D02*
X169131693Y-78616180D01*
X169131693Y-78616180D02*
X169084074Y-78663800D01*
X169084074Y-78663800D02*
X168988836Y-78711419D01*
X168988836Y-78711419D02*
X168703122Y-78711419D01*
X168703122Y-78711419D02*
X168607884Y-78663800D01*
X168607884Y-78663800D02*
X168560265Y-78616180D01*
X146196255Y-75781019D02*
X146386731Y-75781019D01*
X146386731Y-75781019D02*
X146481969Y-75828638D01*
X146481969Y-75828638D02*
X146577207Y-75923876D01*
X146577207Y-75923876D02*
X146624826Y-76114352D01*
X146624826Y-76114352D02*
X146624826Y-76447685D01*
X146624826Y-76447685D02*
X146577207Y-76638161D01*
X146577207Y-76638161D02*
X146481969Y-76733400D01*
X146481969Y-76733400D02*
X146386731Y-76781019D01*
X146386731Y-76781019D02*
X146196255Y-76781019D01*
X146196255Y-76781019D02*
X146101017Y-76733400D01*
X146101017Y-76733400D02*
X146005779Y-76638161D01*
X146005779Y-76638161D02*
X145958160Y-76447685D01*
X145958160Y-76447685D02*
X145958160Y-76114352D01*
X145958160Y-76114352D02*
X146005779Y-75923876D01*
X146005779Y-75923876D02*
X146101017Y-75828638D01*
X146101017Y-75828638D02*
X146196255Y-75781019D01*
X147481969Y-76114352D02*
X147481969Y-76781019D01*
X147053398Y-76114352D02*
X147053398Y-76638161D01*
X147053398Y-76638161D02*
X147101017Y-76733400D01*
X147101017Y-76733400D02*
X147196255Y-76781019D01*
X147196255Y-76781019D02*
X147339112Y-76781019D01*
X147339112Y-76781019D02*
X147434350Y-76733400D01*
X147434350Y-76733400D02*
X147481969Y-76685780D01*
X147815303Y-76114352D02*
X148196255Y-76114352D01*
X147958160Y-75781019D02*
X147958160Y-76638161D01*
X147958160Y-76638161D02*
X148005779Y-76733400D01*
X148005779Y-76733400D02*
X148101017Y-76781019D01*
X148101017Y-76781019D02*
X148196255Y-76781019D01*
X190419819Y-124234363D02*
X190657914Y-124234363D01*
X190562676Y-124472458D02*
X190657914Y-124234363D01*
X190657914Y-124234363D02*
X190562676Y-123996268D01*
X190848390Y-124377220D02*
X190657914Y-124234363D01*
X190657914Y-124234363D02*
X190848390Y-124091506D01*
X190419819Y-123615315D02*
X191229342Y-123615315D01*
X191229342Y-123615315D02*
X191324580Y-123567696D01*
X191324580Y-123567696D02*
X191372200Y-123520077D01*
X191372200Y-123520077D02*
X191419819Y-123424839D01*
X191419819Y-123424839D02*
X191419819Y-123234363D01*
X191419819Y-123234363D02*
X191372200Y-123139125D01*
X191372200Y-123139125D02*
X191324580Y-123091506D01*
X191324580Y-123091506D02*
X191229342Y-123043887D01*
X191229342Y-123043887D02*
X190419819Y-123043887D01*
X190753152Y-122567696D02*
X191419819Y-122567696D01*
X190848390Y-122567696D02*
X190800771Y-122520077D01*
X190800771Y-122520077D02*
X190753152Y-122424839D01*
X190753152Y-122424839D02*
X190753152Y-122281982D01*
X190753152Y-122281982D02*
X190800771Y-122186744D01*
X190800771Y-122186744D02*
X190896009Y-122139125D01*
X190896009Y-122139125D02*
X191419819Y-122139125D01*
X191419819Y-121662934D02*
X190753152Y-121662934D01*
X190419819Y-121662934D02*
X190467438Y-121710553D01*
X190467438Y-121710553D02*
X190515057Y-121662934D01*
X190515057Y-121662934D02*
X190467438Y-121615315D01*
X190467438Y-121615315D02*
X190419819Y-121662934D01*
X190419819Y-121662934D02*
X190515057Y-121662934D01*
X191372200Y-120758173D02*
X191419819Y-120853411D01*
X191419819Y-120853411D02*
X191419819Y-121043887D01*
X191419819Y-121043887D02*
X191372200Y-121139125D01*
X191372200Y-121139125D02*
X191324580Y-121186744D01*
X191324580Y-121186744D02*
X191229342Y-121234363D01*
X191229342Y-121234363D02*
X190943628Y-121234363D01*
X190943628Y-121234363D02*
X190848390Y-121186744D01*
X190848390Y-121186744D02*
X190800771Y-121139125D01*
X190800771Y-121139125D02*
X190753152Y-121043887D01*
X190753152Y-121043887D02*
X190753152Y-120853411D01*
X190753152Y-120853411D02*
X190800771Y-120758173D01*
X191419819Y-120186744D02*
X191372200Y-120281982D01*
X191372200Y-120281982D02*
X191324580Y-120329601D01*
X191324580Y-120329601D02*
X191229342Y-120377220D01*
X191229342Y-120377220D02*
X190943628Y-120377220D01*
X190943628Y-120377220D02*
X190848390Y-120329601D01*
X190848390Y-120329601D02*
X190800771Y-120281982D01*
X190800771Y-120281982D02*
X190753152Y-120186744D01*
X190753152Y-120186744D02*
X190753152Y-120043887D01*
X190753152Y-120043887D02*
X190800771Y-119948649D01*
X190800771Y-119948649D02*
X190848390Y-119901030D01*
X190848390Y-119901030D02*
X190943628Y-119853411D01*
X190943628Y-119853411D02*
X191229342Y-119853411D01*
X191229342Y-119853411D02*
X191324580Y-119901030D01*
X191324580Y-119901030D02*
X191372200Y-119948649D01*
X191372200Y-119948649D02*
X191419819Y-120043887D01*
X191419819Y-120043887D02*
X191419819Y-120186744D01*
X191419819Y-119424839D02*
X190753152Y-119424839D01*
X190848390Y-119424839D02*
X190800771Y-119377220D01*
X190800771Y-119377220D02*
X190753152Y-119281982D01*
X190753152Y-119281982D02*
X190753152Y-119139125D01*
X190753152Y-119139125D02*
X190800771Y-119043887D01*
X190800771Y-119043887D02*
X190896009Y-118996268D01*
X190896009Y-118996268D02*
X191419819Y-118996268D01*
X190896009Y-118996268D02*
X190800771Y-118948649D01*
X190800771Y-118948649D02*
X190753152Y-118853411D01*
X190753152Y-118853411D02*
X190753152Y-118710554D01*
X190753152Y-118710554D02*
X190800771Y-118615315D01*
X190800771Y-118615315D02*
X190896009Y-118567696D01*
X190896009Y-118567696D02*
X191419819Y-118567696D01*
X190753152Y-118091506D02*
X191753152Y-118091506D01*
X190800771Y-118091506D02*
X190753152Y-117996268D01*
X190753152Y-117996268D02*
X190753152Y-117805792D01*
X190753152Y-117805792D02*
X190800771Y-117710554D01*
X190800771Y-117710554D02*
X190848390Y-117662935D01*
X190848390Y-117662935D02*
X190943628Y-117615316D01*
X190943628Y-117615316D02*
X191229342Y-117615316D01*
X191229342Y-117615316D02*
X191324580Y-117662935D01*
X191324580Y-117662935D02*
X191372200Y-117710554D01*
X191372200Y-117710554D02*
X191419819Y-117805792D01*
X191419819Y-117805792D02*
X191419819Y-117996268D01*
X191419819Y-117996268D02*
X191372200Y-118091506D01*
X190753152Y-116520077D02*
X191419819Y-116281982D01*
X191419819Y-116281982D02*
X190753152Y-116043887D01*
X190515057Y-115710553D02*
X190467438Y-115662934D01*
X190467438Y-115662934D02*
X190419819Y-115567696D01*
X190419819Y-115567696D02*
X190419819Y-115329601D01*
X190419819Y-115329601D02*
X190467438Y-115234363D01*
X190467438Y-115234363D02*
X190515057Y-115186744D01*
X190515057Y-115186744D02*
X190610295Y-115139125D01*
X190610295Y-115139125D02*
X190705533Y-115139125D01*
X190705533Y-115139125D02*
X190848390Y-115186744D01*
X190848390Y-115186744D02*
X191419819Y-115758172D01*
X191419819Y-115758172D02*
X191419819Y-115139125D01*
X190419819Y-114567696D02*
X190657914Y-114567696D01*
X190562676Y-114805791D02*
X190657914Y-114567696D01*
X190657914Y-114567696D02*
X190562676Y-114329601D01*
X190848390Y-114710553D02*
X190657914Y-114567696D01*
X190657914Y-114567696D02*
X190848390Y-114424839D01*
X192029819Y-123948649D02*
X192029819Y-124139125D01*
X192029819Y-124139125D02*
X192077438Y-124234363D01*
X192077438Y-124234363D02*
X192125057Y-124281982D01*
X192125057Y-124281982D02*
X192267914Y-124377220D01*
X192267914Y-124377220D02*
X192458390Y-124424839D01*
X192458390Y-124424839D02*
X192839342Y-124424839D01*
X192839342Y-124424839D02*
X192934580Y-124377220D01*
X192934580Y-124377220D02*
X192982200Y-124329601D01*
X192982200Y-124329601D02*
X193029819Y-124234363D01*
X193029819Y-124234363D02*
X193029819Y-124043887D01*
X193029819Y-124043887D02*
X192982200Y-123948649D01*
X192982200Y-123948649D02*
X192934580Y-123901030D01*
X192934580Y-123901030D02*
X192839342Y-123853411D01*
X192839342Y-123853411D02*
X192601247Y-123853411D01*
X192601247Y-123853411D02*
X192506009Y-123901030D01*
X192506009Y-123901030D02*
X192458390Y-123948649D01*
X192458390Y-123948649D02*
X192410771Y-124043887D01*
X192410771Y-124043887D02*
X192410771Y-124234363D01*
X192410771Y-124234363D02*
X192458390Y-124329601D01*
X192458390Y-124329601D02*
X192506009Y-124377220D01*
X192506009Y-124377220D02*
X192601247Y-124424839D01*
X192458390Y-123281982D02*
X192410771Y-123377220D01*
X192410771Y-123377220D02*
X192363152Y-123424839D01*
X192363152Y-123424839D02*
X192267914Y-123472458D01*
X192267914Y-123472458D02*
X192220295Y-123472458D01*
X192220295Y-123472458D02*
X192125057Y-123424839D01*
X192125057Y-123424839D02*
X192077438Y-123377220D01*
X192077438Y-123377220D02*
X192029819Y-123281982D01*
X192029819Y-123281982D02*
X192029819Y-123091506D01*
X192029819Y-123091506D02*
X192077438Y-122996268D01*
X192077438Y-122996268D02*
X192125057Y-122948649D01*
X192125057Y-122948649D02*
X192220295Y-122901030D01*
X192220295Y-122901030D02*
X192267914Y-122901030D01*
X192267914Y-122901030D02*
X192363152Y-122948649D01*
X192363152Y-122948649D02*
X192410771Y-122996268D01*
X192410771Y-122996268D02*
X192458390Y-123091506D01*
X192458390Y-123091506D02*
X192458390Y-123281982D01*
X192458390Y-123281982D02*
X192506009Y-123377220D01*
X192506009Y-123377220D02*
X192553628Y-123424839D01*
X192553628Y-123424839D02*
X192648866Y-123472458D01*
X192648866Y-123472458D02*
X192839342Y-123472458D01*
X192839342Y-123472458D02*
X192934580Y-123424839D01*
X192934580Y-123424839D02*
X192982200Y-123377220D01*
X192982200Y-123377220D02*
X193029819Y-123281982D01*
X193029819Y-123281982D02*
X193029819Y-123091506D01*
X193029819Y-123091506D02*
X192982200Y-122996268D01*
X192982200Y-122996268D02*
X192934580Y-122948649D01*
X192934580Y-122948649D02*
X192839342Y-122901030D01*
X192839342Y-122901030D02*
X192648866Y-122901030D01*
X192648866Y-122901030D02*
X192553628Y-122948649D01*
X192553628Y-122948649D02*
X192506009Y-122996268D01*
X192506009Y-122996268D02*
X192458390Y-123091506D01*
X192029819Y-122281982D02*
X192029819Y-122186744D01*
X192029819Y-122186744D02*
X192077438Y-122091506D01*
X192077438Y-122091506D02*
X192125057Y-122043887D01*
X192125057Y-122043887D02*
X192220295Y-121996268D01*
X192220295Y-121996268D02*
X192410771Y-121948649D01*
X192410771Y-121948649D02*
X192648866Y-121948649D01*
X192648866Y-121948649D02*
X192839342Y-121996268D01*
X192839342Y-121996268D02*
X192934580Y-122043887D01*
X192934580Y-122043887D02*
X192982200Y-122091506D01*
X192982200Y-122091506D02*
X193029819Y-122186744D01*
X193029819Y-122186744D02*
X193029819Y-122281982D01*
X193029819Y-122281982D02*
X192982200Y-122377220D01*
X192982200Y-122377220D02*
X192934580Y-122424839D01*
X192934580Y-122424839D02*
X192839342Y-122472458D01*
X192839342Y-122472458D02*
X192648866Y-122520077D01*
X192648866Y-122520077D02*
X192410771Y-122520077D01*
X192410771Y-122520077D02*
X192220295Y-122472458D01*
X192220295Y-122472458D02*
X192125057Y-122424839D01*
X192125057Y-122424839D02*
X192077438Y-122377220D01*
X192077438Y-122377220D02*
X192029819Y-122281982D01*
X193029819Y-121472458D02*
X193029819Y-121281982D01*
X193029819Y-121281982D02*
X192982200Y-121186744D01*
X192982200Y-121186744D02*
X192934580Y-121139125D01*
X192934580Y-121139125D02*
X192791723Y-121043887D01*
X192791723Y-121043887D02*
X192601247Y-120996268D01*
X192601247Y-120996268D02*
X192220295Y-120996268D01*
X192220295Y-120996268D02*
X192125057Y-121043887D01*
X192125057Y-121043887D02*
X192077438Y-121091506D01*
X192077438Y-121091506D02*
X192029819Y-121186744D01*
X192029819Y-121186744D02*
X192029819Y-121377220D01*
X192029819Y-121377220D02*
X192077438Y-121472458D01*
X192077438Y-121472458D02*
X192125057Y-121520077D01*
X192125057Y-121520077D02*
X192220295Y-121567696D01*
X192220295Y-121567696D02*
X192458390Y-121567696D01*
X192458390Y-121567696D02*
X192553628Y-121520077D01*
X192553628Y-121520077D02*
X192601247Y-121472458D01*
X192601247Y-121472458D02*
X192648866Y-121377220D01*
X192648866Y-121377220D02*
X192648866Y-121186744D01*
X192648866Y-121186744D02*
X192601247Y-121091506D01*
X192601247Y-121091506D02*
X192553628Y-121043887D01*
X192553628Y-121043887D02*
X192458390Y-120996268D01*
X192934580Y-119234363D02*
X192982200Y-119281982D01*
X192982200Y-119281982D02*
X193029819Y-119424839D01*
X193029819Y-119424839D02*
X193029819Y-119520077D01*
X193029819Y-119520077D02*
X192982200Y-119662934D01*
X192982200Y-119662934D02*
X192886961Y-119758172D01*
X192886961Y-119758172D02*
X192791723Y-119805791D01*
X192791723Y-119805791D02*
X192601247Y-119853410D01*
X192601247Y-119853410D02*
X192458390Y-119853410D01*
X192458390Y-119853410D02*
X192267914Y-119805791D01*
X192267914Y-119805791D02*
X192172676Y-119758172D01*
X192172676Y-119758172D02*
X192077438Y-119662934D01*
X192077438Y-119662934D02*
X192029819Y-119520077D01*
X192029819Y-119520077D02*
X192029819Y-119424839D01*
X192029819Y-119424839D02*
X192077438Y-119281982D01*
X192077438Y-119281982D02*
X192125057Y-119234363D01*
X193029819Y-118805791D02*
X192029819Y-118805791D01*
X192029819Y-118805791D02*
X192029819Y-118424839D01*
X192029819Y-118424839D02*
X192077438Y-118329601D01*
X192077438Y-118329601D02*
X192125057Y-118281982D01*
X192125057Y-118281982D02*
X192220295Y-118234363D01*
X192220295Y-118234363D02*
X192363152Y-118234363D01*
X192363152Y-118234363D02*
X192458390Y-118281982D01*
X192458390Y-118281982D02*
X192506009Y-118329601D01*
X192506009Y-118329601D02*
X192553628Y-118424839D01*
X192553628Y-118424839D02*
X192553628Y-118805791D01*
X192029819Y-117805791D02*
X192839342Y-117805791D01*
X192839342Y-117805791D02*
X192934580Y-117758172D01*
X192934580Y-117758172D02*
X192982200Y-117710553D01*
X192982200Y-117710553D02*
X193029819Y-117615315D01*
X193029819Y-117615315D02*
X193029819Y-117424839D01*
X193029819Y-117424839D02*
X192982200Y-117329601D01*
X192982200Y-117329601D02*
X192934580Y-117281982D01*
X192934580Y-117281982D02*
X192839342Y-117234363D01*
X192839342Y-117234363D02*
X192029819Y-117234363D01*
X192506009Y-115662934D02*
X192553628Y-115520077D01*
X192553628Y-115520077D02*
X192601247Y-115472458D01*
X192601247Y-115472458D02*
X192696485Y-115424839D01*
X192696485Y-115424839D02*
X192839342Y-115424839D01*
X192839342Y-115424839D02*
X192934580Y-115472458D01*
X192934580Y-115472458D02*
X192982200Y-115520077D01*
X192982200Y-115520077D02*
X193029819Y-115615315D01*
X193029819Y-115615315D02*
X193029819Y-115996267D01*
X193029819Y-115996267D02*
X192029819Y-115996267D01*
X192029819Y-115996267D02*
X192029819Y-115662934D01*
X192029819Y-115662934D02*
X192077438Y-115567696D01*
X192077438Y-115567696D02*
X192125057Y-115520077D01*
X192125057Y-115520077D02*
X192220295Y-115472458D01*
X192220295Y-115472458D02*
X192315533Y-115472458D01*
X192315533Y-115472458D02*
X192410771Y-115520077D01*
X192410771Y-115520077D02*
X192458390Y-115567696D01*
X192458390Y-115567696D02*
X192506009Y-115662934D01*
X192506009Y-115662934D02*
X192506009Y-115996267D01*
X193029819Y-114853410D02*
X192982200Y-114948648D01*
X192982200Y-114948648D02*
X192934580Y-114996267D01*
X192934580Y-114996267D02*
X192839342Y-115043886D01*
X192839342Y-115043886D02*
X192553628Y-115043886D01*
X192553628Y-115043886D02*
X192458390Y-114996267D01*
X192458390Y-114996267D02*
X192410771Y-114948648D01*
X192410771Y-114948648D02*
X192363152Y-114853410D01*
X192363152Y-114853410D02*
X192363152Y-114710553D01*
X192363152Y-114710553D02*
X192410771Y-114615315D01*
X192410771Y-114615315D02*
X192458390Y-114567696D01*
X192458390Y-114567696D02*
X192553628Y-114520077D01*
X192553628Y-114520077D02*
X192839342Y-114520077D01*
X192839342Y-114520077D02*
X192934580Y-114567696D01*
X192934580Y-114567696D02*
X192982200Y-114615315D01*
X192982200Y-114615315D02*
X193029819Y-114710553D01*
X193029819Y-114710553D02*
X193029819Y-114853410D01*
X193029819Y-113662934D02*
X192506009Y-113662934D01*
X192506009Y-113662934D02*
X192410771Y-113710553D01*
X192410771Y-113710553D02*
X192363152Y-113805791D01*
X192363152Y-113805791D02*
X192363152Y-113996267D01*
X192363152Y-113996267D02*
X192410771Y-114091505D01*
X192982200Y-113662934D02*
X193029819Y-113758172D01*
X193029819Y-113758172D02*
X193029819Y-113996267D01*
X193029819Y-113996267D02*
X192982200Y-114091505D01*
X192982200Y-114091505D02*
X192886961Y-114139124D01*
X192886961Y-114139124D02*
X192791723Y-114139124D01*
X192791723Y-114139124D02*
X192696485Y-114091505D01*
X192696485Y-114091505D02*
X192648866Y-113996267D01*
X192648866Y-113996267D02*
X192648866Y-113758172D01*
X192648866Y-113758172D02*
X192601247Y-113662934D01*
X193029819Y-113186743D02*
X192363152Y-113186743D01*
X192553628Y-113186743D02*
X192458390Y-113139124D01*
X192458390Y-113139124D02*
X192410771Y-113091505D01*
X192410771Y-113091505D02*
X192363152Y-112996267D01*
X192363152Y-112996267D02*
X192363152Y-112901029D01*
X193029819Y-112139124D02*
X192029819Y-112139124D01*
X192982200Y-112139124D02*
X193029819Y-112234362D01*
X193029819Y-112234362D02*
X193029819Y-112424838D01*
X193029819Y-112424838D02*
X192982200Y-112520076D01*
X192982200Y-112520076D02*
X192934580Y-112567695D01*
X192934580Y-112567695D02*
X192839342Y-112615314D01*
X192839342Y-112615314D02*
X192553628Y-112615314D01*
X192553628Y-112615314D02*
X192458390Y-112567695D01*
X192458390Y-112567695D02*
X192410771Y-112520076D01*
X192410771Y-112520076D02*
X192363152Y-112424838D01*
X192363152Y-112424838D02*
X192363152Y-112234362D01*
X192363152Y-112234362D02*
X192410771Y-112139124D01*
X192363152Y-110996266D02*
X193029819Y-110758171D01*
X193029819Y-110758171D02*
X192363152Y-110520076D01*
X193029819Y-109615314D02*
X193029819Y-110186742D01*
X193029819Y-109901028D02*
X192029819Y-109901028D01*
X192029819Y-109901028D02*
X192172676Y-109996266D01*
X192172676Y-109996266D02*
X192267914Y-110091504D01*
X192267914Y-110091504D02*
X192315533Y-110186742D01*
X192934580Y-109186742D02*
X192982200Y-109139123D01*
X192982200Y-109139123D02*
X193029819Y-109186742D01*
X193029819Y-109186742D02*
X192982200Y-109234361D01*
X192982200Y-109234361D02*
X192934580Y-109186742D01*
X192934580Y-109186742D02*
X193029819Y-109186742D01*
X193029819Y-108186743D02*
X193029819Y-108758171D01*
X193029819Y-108472457D02*
X192029819Y-108472457D01*
X192029819Y-108472457D02*
X192172676Y-108567695D01*
X192172676Y-108567695D02*
X192267914Y-108662933D01*
X192267914Y-108662933D02*
X192315533Y-108758171D01*
X137941255Y-62319019D02*
X138131731Y-62319019D01*
X138131731Y-62319019D02*
X138226969Y-62366638D01*
X138226969Y-62366638D02*
X138322207Y-62461876D01*
X138322207Y-62461876D02*
X138369826Y-62652352D01*
X138369826Y-62652352D02*
X138369826Y-62985685D01*
X138369826Y-62985685D02*
X138322207Y-63176161D01*
X138322207Y-63176161D02*
X138226969Y-63271400D01*
X138226969Y-63271400D02*
X138131731Y-63319019D01*
X138131731Y-63319019D02*
X137941255Y-63319019D01*
X137941255Y-63319019D02*
X137846017Y-63271400D01*
X137846017Y-63271400D02*
X137750779Y-63176161D01*
X137750779Y-63176161D02*
X137703160Y-62985685D01*
X137703160Y-62985685D02*
X137703160Y-62652352D01*
X137703160Y-62652352D02*
X137750779Y-62461876D01*
X137750779Y-62461876D02*
X137846017Y-62366638D01*
X137846017Y-62366638D02*
X137941255Y-62319019D01*
X174940931Y-144885580D02*
X174893312Y-144933200D01*
X174893312Y-144933200D02*
X174750455Y-144980819D01*
X174750455Y-144980819D02*
X174655217Y-144980819D01*
X174655217Y-144980819D02*
X174512360Y-144933200D01*
X174512360Y-144933200D02*
X174417122Y-144837961D01*
X174417122Y-144837961D02*
X174369503Y-144742723D01*
X174369503Y-144742723D02*
X174321884Y-144552247D01*
X174321884Y-144552247D02*
X174321884Y-144409390D01*
X174321884Y-144409390D02*
X174369503Y-144218914D01*
X174369503Y-144218914D02*
X174417122Y-144123676D01*
X174417122Y-144123676D02*
X174512360Y-144028438D01*
X174512360Y-144028438D02*
X174655217Y-143980819D01*
X174655217Y-143980819D02*
X174750455Y-143980819D01*
X174750455Y-143980819D02*
X174893312Y-144028438D01*
X174893312Y-144028438D02*
X174940931Y-144076057D01*
X175798074Y-144314152D02*
X175798074Y-144980819D01*
X175369503Y-144314152D02*
X175369503Y-144837961D01*
X175369503Y-144837961D02*
X175417122Y-144933200D01*
X175417122Y-144933200D02*
X175512360Y-144980819D01*
X175512360Y-144980819D02*
X175655217Y-144980819D01*
X175655217Y-144980819D02*
X175750455Y-144933200D01*
X175750455Y-144933200D02*
X175798074Y-144885580D01*
X176131408Y-144314152D02*
X176512360Y-144314152D01*
X176274265Y-143980819D02*
X176274265Y-144837961D01*
X176274265Y-144837961D02*
X176321884Y-144933200D01*
X176321884Y-144933200D02*
X176417122Y-144980819D01*
X176417122Y-144980819D02*
X176512360Y-144980819D01*
X177464742Y-144314152D02*
X177845694Y-144314152D01*
X177607599Y-143980819D02*
X177607599Y-144837961D01*
X177607599Y-144837961D02*
X177655218Y-144933200D01*
X177655218Y-144933200D02*
X177750456Y-144980819D01*
X177750456Y-144980819D02*
X177845694Y-144980819D01*
X178179028Y-144980819D02*
X178179028Y-143980819D01*
X178607599Y-144980819D02*
X178607599Y-144457009D01*
X178607599Y-144457009D02*
X178559980Y-144361771D01*
X178559980Y-144361771D02*
X178464742Y-144314152D01*
X178464742Y-144314152D02*
X178321885Y-144314152D01*
X178321885Y-144314152D02*
X178226647Y-144361771D01*
X178226647Y-144361771D02*
X178179028Y-144409390D01*
X179083790Y-144980819D02*
X179083790Y-144314152D01*
X179083790Y-143980819D02*
X179036171Y-144028438D01*
X179036171Y-144028438D02*
X179083790Y-144076057D01*
X179083790Y-144076057D02*
X179131409Y-144028438D01*
X179131409Y-144028438D02*
X179083790Y-143980819D01*
X179083790Y-143980819D02*
X179083790Y-144076057D01*
X179512361Y-144933200D02*
X179607599Y-144980819D01*
X179607599Y-144980819D02*
X179798075Y-144980819D01*
X179798075Y-144980819D02*
X179893313Y-144933200D01*
X179893313Y-144933200D02*
X179940932Y-144837961D01*
X179940932Y-144837961D02*
X179940932Y-144790342D01*
X179940932Y-144790342D02*
X179893313Y-144695104D01*
X179893313Y-144695104D02*
X179798075Y-144647485D01*
X179798075Y-144647485D02*
X179655218Y-144647485D01*
X179655218Y-144647485D02*
X179559980Y-144599866D01*
X179559980Y-144599866D02*
X179512361Y-144504628D01*
X179512361Y-144504628D02*
X179512361Y-144457009D01*
X179512361Y-144457009D02*
X179559980Y-144361771D01*
X179559980Y-144361771D02*
X179655218Y-144314152D01*
X179655218Y-144314152D02*
X179798075Y-144314152D01*
X179798075Y-144314152D02*
X179893313Y-144361771D01*
X180226647Y-144076057D02*
X180417123Y-143933200D01*
X180417123Y-143933200D02*
X180607599Y-144076057D01*
X182321886Y-144076057D02*
X182512362Y-143933200D01*
X182512362Y-143933200D02*
X182702838Y-144076057D01*
X183036172Y-144980819D02*
X183036172Y-143980819D01*
X183036172Y-144361771D02*
X183131410Y-144314152D01*
X183131410Y-144314152D02*
X183321886Y-144314152D01*
X183321886Y-144314152D02*
X183417124Y-144361771D01*
X183417124Y-144361771D02*
X183464743Y-144409390D01*
X183464743Y-144409390D02*
X183512362Y-144504628D01*
X183512362Y-144504628D02*
X183512362Y-144790342D01*
X183512362Y-144790342D02*
X183464743Y-144885580D01*
X183464743Y-144885580D02*
X183417124Y-144933200D01*
X183417124Y-144933200D02*
X183321886Y-144980819D01*
X183321886Y-144980819D02*
X183131410Y-144980819D01*
X183131410Y-144980819D02*
X183036172Y-144933200D01*
X184321886Y-144933200D02*
X184226648Y-144980819D01*
X184226648Y-144980819D02*
X184036172Y-144980819D01*
X184036172Y-144980819D02*
X183940934Y-144933200D01*
X183940934Y-144933200D02*
X183893315Y-144837961D01*
X183893315Y-144837961D02*
X183893315Y-144457009D01*
X183893315Y-144457009D02*
X183940934Y-144361771D01*
X183940934Y-144361771D02*
X184036172Y-144314152D01*
X184036172Y-144314152D02*
X184226648Y-144314152D01*
X184226648Y-144314152D02*
X184321886Y-144361771D01*
X184321886Y-144361771D02*
X184369505Y-144457009D01*
X184369505Y-144457009D02*
X184369505Y-144552247D01*
X184369505Y-144552247D02*
X183893315Y-144647485D01*
X184798077Y-144314152D02*
X184798077Y-144980819D01*
X184798077Y-144409390D02*
X184845696Y-144361771D01*
X184845696Y-144361771D02*
X184940934Y-144314152D01*
X184940934Y-144314152D02*
X185083791Y-144314152D01*
X185083791Y-144314152D02*
X185179029Y-144361771D01*
X185179029Y-144361771D02*
X185226648Y-144457009D01*
X185226648Y-144457009D02*
X185226648Y-144980819D01*
X186131410Y-144980819D02*
X186131410Y-143980819D01*
X186131410Y-144933200D02*
X186036172Y-144980819D01*
X186036172Y-144980819D02*
X185845696Y-144980819D01*
X185845696Y-144980819D02*
X185750458Y-144933200D01*
X185750458Y-144933200D02*
X185702839Y-144885580D01*
X185702839Y-144885580D02*
X185655220Y-144790342D01*
X185655220Y-144790342D02*
X185655220Y-144504628D01*
X185655220Y-144504628D02*
X185702839Y-144409390D01*
X185702839Y-144409390D02*
X185750458Y-144361771D01*
X185750458Y-144361771D02*
X185845696Y-144314152D01*
X185845696Y-144314152D02*
X186036172Y-144314152D01*
X186036172Y-144314152D02*
X186131410Y-144361771D01*
X187226649Y-144314152D02*
X187607601Y-144314152D01*
X187369506Y-143980819D02*
X187369506Y-144837961D01*
X187369506Y-144837961D02*
X187417125Y-144933200D01*
X187417125Y-144933200D02*
X187512363Y-144980819D01*
X187512363Y-144980819D02*
X187607601Y-144980819D01*
X187940935Y-144980819D02*
X187940935Y-143980819D01*
X188369506Y-144980819D02*
X188369506Y-144457009D01*
X188369506Y-144457009D02*
X188321887Y-144361771D01*
X188321887Y-144361771D02*
X188226649Y-144314152D01*
X188226649Y-144314152D02*
X188083792Y-144314152D01*
X188083792Y-144314152D02*
X187988554Y-144361771D01*
X187988554Y-144361771D02*
X187940935Y-144409390D01*
X188845697Y-144980819D02*
X188845697Y-144314152D01*
X188845697Y-143980819D02*
X188798078Y-144028438D01*
X188798078Y-144028438D02*
X188845697Y-144076057D01*
X188845697Y-144076057D02*
X188893316Y-144028438D01*
X188893316Y-144028438D02*
X188845697Y-143980819D01*
X188845697Y-143980819D02*
X188845697Y-144076057D01*
X189274268Y-144933200D02*
X189369506Y-144980819D01*
X189369506Y-144980819D02*
X189559982Y-144980819D01*
X189559982Y-144980819D02*
X189655220Y-144933200D01*
X189655220Y-144933200D02*
X189702839Y-144837961D01*
X189702839Y-144837961D02*
X189702839Y-144790342D01*
X189702839Y-144790342D02*
X189655220Y-144695104D01*
X189655220Y-144695104D02*
X189559982Y-144647485D01*
X189559982Y-144647485D02*
X189417125Y-144647485D01*
X189417125Y-144647485D02*
X189321887Y-144599866D01*
X189321887Y-144599866D02*
X189274268Y-144504628D01*
X189274268Y-144504628D02*
X189274268Y-144457009D01*
X189274268Y-144457009D02*
X189321887Y-144361771D01*
X189321887Y-144361771D02*
X189417125Y-144314152D01*
X189417125Y-144314152D02*
X189559982Y-144314152D01*
X189559982Y-144314152D02*
X189655220Y-144361771D01*
X141751255Y-62420619D02*
X141941731Y-62420619D01*
X141941731Y-62420619D02*
X142036969Y-62468238D01*
X142036969Y-62468238D02*
X142132207Y-62563476D01*
X142132207Y-62563476D02*
X142179826Y-62753952D01*
X142179826Y-62753952D02*
X142179826Y-63087285D01*
X142179826Y-63087285D02*
X142132207Y-63277761D01*
X142132207Y-63277761D02*
X142036969Y-63373000D01*
X142036969Y-63373000D02*
X141941731Y-63420619D01*
X141941731Y-63420619D02*
X141751255Y-63420619D01*
X141751255Y-63420619D02*
X141656017Y-63373000D01*
X141656017Y-63373000D02*
X141560779Y-63277761D01*
X141560779Y-63277761D02*
X141513160Y-63087285D01*
X141513160Y-63087285D02*
X141513160Y-62753952D01*
X141513160Y-62753952D02*
X141560779Y-62563476D01*
X141560779Y-62563476D02*
X141656017Y-62468238D01*
X141656017Y-62468238D02*
X141751255Y-62420619D01*
X139985979Y-63344419D02*
X139985979Y-62344419D01*
X160507466Y-77712219D02*
X160507466Y-78426504D01*
X160507466Y-78426504D02*
X160459847Y-78569361D01*
X160459847Y-78569361D02*
X160364609Y-78664600D01*
X160364609Y-78664600D02*
X160221752Y-78712219D01*
X160221752Y-78712219D02*
X160126514Y-78712219D01*
X160983657Y-78712219D02*
X160983657Y-77712219D01*
X160983657Y-77712219D02*
X161364609Y-77712219D01*
X161364609Y-77712219D02*
X161459847Y-77759838D01*
X161459847Y-77759838D02*
X161507466Y-77807457D01*
X161507466Y-77807457D02*
X161555085Y-77902695D01*
X161555085Y-77902695D02*
X161555085Y-78045552D01*
X161555085Y-78045552D02*
X161507466Y-78140790D01*
X161507466Y-78140790D02*
X161459847Y-78188409D01*
X161459847Y-78188409D02*
X161364609Y-78236028D01*
X161364609Y-78236028D02*
X160983657Y-78236028D01*
X162126514Y-78140790D02*
X162031276Y-78093171D01*
X162031276Y-78093171D02*
X161983657Y-78045552D01*
X161983657Y-78045552D02*
X161936038Y-77950314D01*
X161936038Y-77950314D02*
X161936038Y-77902695D01*
X161936038Y-77902695D02*
X161983657Y-77807457D01*
X161983657Y-77807457D02*
X162031276Y-77759838D01*
X162031276Y-77759838D02*
X162126514Y-77712219D01*
X162126514Y-77712219D02*
X162316990Y-77712219D01*
X162316990Y-77712219D02*
X162412228Y-77759838D01*
X162412228Y-77759838D02*
X162459847Y-77807457D01*
X162459847Y-77807457D02*
X162507466Y-77902695D01*
X162507466Y-77902695D02*
X162507466Y-77950314D01*
X162507466Y-77950314D02*
X162459847Y-78045552D01*
X162459847Y-78045552D02*
X162412228Y-78093171D01*
X162412228Y-78093171D02*
X162316990Y-78140790D01*
X162316990Y-78140790D02*
X162126514Y-78140790D01*
X162126514Y-78140790D02*
X162031276Y-78188409D01*
X162031276Y-78188409D02*
X161983657Y-78236028D01*
X161983657Y-78236028D02*
X161936038Y-78331266D01*
X161936038Y-78331266D02*
X161936038Y-78521742D01*
X161936038Y-78521742D02*
X161983657Y-78616980D01*
X161983657Y-78616980D02*
X162031276Y-78664600D01*
X162031276Y-78664600D02*
X162126514Y-78712219D01*
X162126514Y-78712219D02*
X162316990Y-78712219D01*
X162316990Y-78712219D02*
X162412228Y-78664600D01*
X162412228Y-78664600D02*
X162459847Y-78616980D01*
X162459847Y-78616980D02*
X162507466Y-78521742D01*
X162507466Y-78521742D02*
X162507466Y-78331266D01*
X162507466Y-78331266D02*
X162459847Y-78236028D01*
X162459847Y-78236028D02*
X162412228Y-78188409D01*
X162412228Y-78188409D02*
X162316990Y-78140790D01*
X168357267Y-75578619D02*
X168976314Y-75578619D01*
X168976314Y-75578619D02*
X168642981Y-75959571D01*
X168642981Y-75959571D02*
X168785838Y-75959571D01*
X168785838Y-75959571D02*
X168881076Y-76007190D01*
X168881076Y-76007190D02*
X168928695Y-76054809D01*
X168928695Y-76054809D02*
X168976314Y-76150047D01*
X168976314Y-76150047D02*
X168976314Y-76388142D01*
X168976314Y-76388142D02*
X168928695Y-76483380D01*
X168928695Y-76483380D02*
X168881076Y-76531000D01*
X168881076Y-76531000D02*
X168785838Y-76578619D01*
X168785838Y-76578619D02*
X168500124Y-76578619D01*
X168500124Y-76578619D02*
X168404886Y-76531000D01*
X168404886Y-76531000D02*
X168357267Y-76483380D01*
X163776314Y-76578619D02*
X163204886Y-76578619D01*
X163490600Y-76578619D02*
X163490600Y-75578619D01*
X163490600Y-75578619D02*
X163395362Y-75721476D01*
X163395362Y-75721476D02*
X163300124Y-75816714D01*
X163300124Y-75816714D02*
X163204886Y-75864333D01*
X142379933Y-94614780D02*
X142332314Y-94662400D01*
X142332314Y-94662400D02*
X142189457Y-94710019D01*
X142189457Y-94710019D02*
X142094219Y-94710019D01*
X142094219Y-94710019D02*
X141951362Y-94662400D01*
X141951362Y-94662400D02*
X141856124Y-94567161D01*
X141856124Y-94567161D02*
X141808505Y-94471923D01*
X141808505Y-94471923D02*
X141760886Y-94281447D01*
X141760886Y-94281447D02*
X141760886Y-94138590D01*
X141760886Y-94138590D02*
X141808505Y-93948114D01*
X141808505Y-93948114D02*
X141856124Y-93852876D01*
X141856124Y-93852876D02*
X141951362Y-93757638D01*
X141951362Y-93757638D02*
X142094219Y-93710019D01*
X142094219Y-93710019D02*
X142189457Y-93710019D01*
X142189457Y-93710019D02*
X142332314Y-93757638D01*
X142332314Y-93757638D02*
X142379933Y-93805257D01*
X143284695Y-93710019D02*
X142808505Y-93710019D01*
X142808505Y-93710019D02*
X142760886Y-94186209D01*
X142760886Y-94186209D02*
X142808505Y-94138590D01*
X142808505Y-94138590D02*
X142903743Y-94090971D01*
X142903743Y-94090971D02*
X143141838Y-94090971D01*
X143141838Y-94090971D02*
X143237076Y-94138590D01*
X143237076Y-94138590D02*
X143284695Y-94186209D01*
X143284695Y-94186209D02*
X143332314Y-94281447D01*
X143332314Y-94281447D02*
X143332314Y-94519542D01*
X143332314Y-94519542D02*
X143284695Y-94614780D01*
X143284695Y-94614780D02*
X143237076Y-94662400D01*
X143237076Y-94662400D02*
X143141838Y-94710019D01*
X143141838Y-94710019D02*
X142903743Y-94710019D01*
X142903743Y-94710019D02*
X142808505Y-94662400D01*
X142808505Y-94662400D02*
X142760886Y-94614780D01*
X164764819Y-130722338D02*
X165479104Y-130722338D01*
X165479104Y-130722338D02*
X165621961Y-130769957D01*
X165621961Y-130769957D02*
X165717200Y-130865195D01*
X165717200Y-130865195D02*
X165764819Y-131008052D01*
X165764819Y-131008052D02*
X165764819Y-131103290D01*
X165193390Y-130103290D02*
X165145771Y-130198528D01*
X165145771Y-130198528D02*
X165098152Y-130246147D01*
X165098152Y-130246147D02*
X165002914Y-130293766D01*
X165002914Y-130293766D02*
X164955295Y-130293766D01*
X164955295Y-130293766D02*
X164860057Y-130246147D01*
X164860057Y-130246147D02*
X164812438Y-130198528D01*
X164812438Y-130198528D02*
X164764819Y-130103290D01*
X164764819Y-130103290D02*
X164764819Y-129912814D01*
X164764819Y-129912814D02*
X164812438Y-129817576D01*
X164812438Y-129817576D02*
X164860057Y-129769957D01*
X164860057Y-129769957D02*
X164955295Y-129722338D01*
X164955295Y-129722338D02*
X165002914Y-129722338D01*
X165002914Y-129722338D02*
X165098152Y-129769957D01*
X165098152Y-129769957D02*
X165145771Y-129817576D01*
X165145771Y-129817576D02*
X165193390Y-129912814D01*
X165193390Y-129912814D02*
X165193390Y-130103290D01*
X165193390Y-130103290D02*
X165241009Y-130198528D01*
X165241009Y-130198528D02*
X165288628Y-130246147D01*
X165288628Y-130246147D02*
X165383866Y-130293766D01*
X165383866Y-130293766D02*
X165574342Y-130293766D01*
X165574342Y-130293766D02*
X165669580Y-130246147D01*
X165669580Y-130246147D02*
X165717200Y-130198528D01*
X165717200Y-130198528D02*
X165764819Y-130103290D01*
X165764819Y-130103290D02*
X165764819Y-129912814D01*
X165764819Y-129912814D02*
X165717200Y-129817576D01*
X165717200Y-129817576D02*
X165669580Y-129769957D01*
X165669580Y-129769957D02*
X165574342Y-129722338D01*
X165574342Y-129722338D02*
X165383866Y-129722338D01*
X165383866Y-129722338D02*
X165288628Y-129769957D01*
X165288628Y-129769957D02*
X165241009Y-129817576D01*
X165241009Y-129817576D02*
X165193390Y-129912814D01*
X136384819Y-49906338D02*
X137099104Y-49906338D01*
X137099104Y-49906338D02*
X137241961Y-49953957D01*
X137241961Y-49953957D02*
X137337200Y-50049195D01*
X137337200Y-50049195D02*
X137384819Y-50192052D01*
X137384819Y-50192052D02*
X137384819Y-50287290D01*
X137384819Y-48906338D02*
X137384819Y-49477766D01*
X137384819Y-49192052D02*
X136384819Y-49192052D01*
X136384819Y-49192052D02*
X136527676Y-49287290D01*
X136527676Y-49287290D02*
X136622914Y-49382528D01*
X136622914Y-49382528D02*
X136670533Y-49477766D01*
X162868076Y-125813019D02*
X162868076Y-126527304D01*
X162868076Y-126527304D02*
X162820457Y-126670161D01*
X162820457Y-126670161D02*
X162725219Y-126765400D01*
X162725219Y-126765400D02*
X162582362Y-126813019D01*
X162582362Y-126813019D02*
X162487124Y-126813019D01*
X163249029Y-125813019D02*
X163868076Y-125813019D01*
X163868076Y-125813019D02*
X163534743Y-126193971D01*
X163534743Y-126193971D02*
X163677600Y-126193971D01*
X163677600Y-126193971D02*
X163772838Y-126241590D01*
X163772838Y-126241590D02*
X163820457Y-126289209D01*
X163820457Y-126289209D02*
X163868076Y-126384447D01*
X163868076Y-126384447D02*
X163868076Y-126622542D01*
X163868076Y-126622542D02*
X163820457Y-126717780D01*
X163820457Y-126717780D02*
X163772838Y-126765400D01*
X163772838Y-126765400D02*
X163677600Y-126813019D01*
X163677600Y-126813019D02*
X163391886Y-126813019D01*
X163391886Y-126813019D02*
X163296648Y-126765400D01*
X163296648Y-126765400D02*
X163249029Y-126717780D01*
X164820457Y-126813019D02*
X164249029Y-126813019D01*
X164534743Y-126813019D02*
X164534743Y-125813019D01*
X164534743Y-125813019D02*
X164439505Y-125955876D01*
X164439505Y-125955876D02*
X164344267Y-126051114D01*
X164344267Y-126051114D02*
X164249029Y-126098733D01*
X180949591Y-74356527D02*
X181759114Y-74356527D01*
X181759114Y-74356527D02*
X181854352Y-74308908D01*
X181854352Y-74308908D02*
X181901972Y-74261289D01*
X181901972Y-74261289D02*
X181949591Y-74166051D01*
X181949591Y-74166051D02*
X181949591Y-73975575D01*
X181949591Y-73975575D02*
X181901972Y-73880337D01*
X181901972Y-73880337D02*
X181854352Y-73832718D01*
X181854352Y-73832718D02*
X181759114Y-73785099D01*
X181759114Y-73785099D02*
X180949591Y-73785099D01*
X180949591Y-73404146D02*
X180949591Y-72785099D01*
X180949591Y-72785099D02*
X181330543Y-73118432D01*
X181330543Y-73118432D02*
X181330543Y-72975575D01*
X181330543Y-72975575D02*
X181378162Y-72880337D01*
X181378162Y-72880337D02*
X181425781Y-72832718D01*
X181425781Y-72832718D02*
X181521019Y-72785099D01*
X181521019Y-72785099D02*
X181759114Y-72785099D01*
X181759114Y-72785099D02*
X181854352Y-72832718D01*
X181854352Y-72832718D02*
X181901972Y-72880337D01*
X181901972Y-72880337D02*
X181949591Y-72975575D01*
X181949591Y-72975575D02*
X181949591Y-73261289D01*
X181949591Y-73261289D02*
X181901972Y-73356527D01*
X181901972Y-73356527D02*
X181854352Y-73404146D01*
X164764819Y-107862338D02*
X165479104Y-107862338D01*
X165479104Y-107862338D02*
X165621961Y-107909957D01*
X165621961Y-107909957D02*
X165717200Y-108005195D01*
X165717200Y-108005195D02*
X165764819Y-108148052D01*
X165764819Y-108148052D02*
X165764819Y-108243290D01*
X164764819Y-106909957D02*
X164764819Y-107386147D01*
X164764819Y-107386147D02*
X165241009Y-107433766D01*
X165241009Y-107433766D02*
X165193390Y-107386147D01*
X165193390Y-107386147D02*
X165145771Y-107290909D01*
X165145771Y-107290909D02*
X165145771Y-107052814D01*
X165145771Y-107052814D02*
X165193390Y-106957576D01*
X165193390Y-106957576D02*
X165241009Y-106909957D01*
X165241009Y-106909957D02*
X165336247Y-106862338D01*
X165336247Y-106862338D02*
X165574342Y-106862338D01*
X165574342Y-106862338D02*
X165669580Y-106909957D01*
X165669580Y-106909957D02*
X165717200Y-106957576D01*
X165717200Y-106957576D02*
X165764819Y-107052814D01*
X165764819Y-107052814D02*
X165764819Y-107290909D01*
X165764819Y-107290909D02*
X165717200Y-107386147D01*
X165717200Y-107386147D02*
X165669580Y-107433766D01*
X136384819Y-135452338D02*
X137099104Y-135452338D01*
X137099104Y-135452338D02*
X137241961Y-135499957D01*
X137241961Y-135499957D02*
X137337200Y-135595195D01*
X137337200Y-135595195D02*
X137384819Y-135738052D01*
X137384819Y-135738052D02*
X137384819Y-135833290D01*
X136718152Y-134547576D02*
X137384819Y-134547576D01*
X136337200Y-134785671D02*
X137051485Y-135023766D01*
X137051485Y-135023766D02*
X137051485Y-134404719D01*
X157569133Y-132816380D02*
X157521514Y-132864000D01*
X157521514Y-132864000D02*
X157378657Y-132911619D01*
X157378657Y-132911619D02*
X157283419Y-132911619D01*
X157283419Y-132911619D02*
X157140562Y-132864000D01*
X157140562Y-132864000D02*
X157045324Y-132768761D01*
X157045324Y-132768761D02*
X156997705Y-132673523D01*
X156997705Y-132673523D02*
X156950086Y-132483047D01*
X156950086Y-132483047D02*
X156950086Y-132340190D01*
X156950086Y-132340190D02*
X156997705Y-132149714D01*
X156997705Y-132149714D02*
X157045324Y-132054476D01*
X157045324Y-132054476D02*
X157140562Y-131959238D01*
X157140562Y-131959238D02*
X157283419Y-131911619D01*
X157283419Y-131911619D02*
X157378657Y-131911619D01*
X157378657Y-131911619D02*
X157521514Y-131959238D01*
X157521514Y-131959238D02*
X157569133Y-132006857D01*
X158426276Y-132244952D02*
X158426276Y-132911619D01*
X158188181Y-131864000D02*
X157950086Y-132578285D01*
X157950086Y-132578285D02*
X158569133Y-132578285D01*
X146905142Y-90963819D02*
X146571809Y-90487628D01*
X146333714Y-90963819D02*
X146333714Y-89963819D01*
X146333714Y-89963819D02*
X146714666Y-89963819D01*
X146714666Y-89963819D02*
X146809904Y-90011438D01*
X146809904Y-90011438D02*
X146857523Y-90059057D01*
X146857523Y-90059057D02*
X146905142Y-90154295D01*
X146905142Y-90154295D02*
X146905142Y-90297152D01*
X146905142Y-90297152D02*
X146857523Y-90392390D01*
X146857523Y-90392390D02*
X146809904Y-90440009D01*
X146809904Y-90440009D02*
X146714666Y-90487628D01*
X146714666Y-90487628D02*
X146333714Y-90487628D01*
X147286095Y-90059057D02*
X147333714Y-90011438D01*
X147333714Y-90011438D02*
X147428952Y-89963819D01*
X147428952Y-89963819D02*
X147667047Y-89963819D01*
X147667047Y-89963819D02*
X147762285Y-90011438D01*
X147762285Y-90011438D02*
X147809904Y-90059057D01*
X147809904Y-90059057D02*
X147857523Y-90154295D01*
X147857523Y-90154295D02*
X147857523Y-90249533D01*
X147857523Y-90249533D02*
X147809904Y-90392390D01*
X147809904Y-90392390D02*
X147238476Y-90963819D01*
X147238476Y-90963819D02*
X147857523Y-90963819D01*
X148714666Y-89963819D02*
X148524190Y-89963819D01*
X148524190Y-89963819D02*
X148428952Y-90011438D01*
X148428952Y-90011438D02*
X148381333Y-90059057D01*
X148381333Y-90059057D02*
X148286095Y-90201914D01*
X148286095Y-90201914D02*
X148238476Y-90392390D01*
X148238476Y-90392390D02*
X148238476Y-90773342D01*
X148238476Y-90773342D02*
X148286095Y-90868580D01*
X148286095Y-90868580D02*
X148333714Y-90916200D01*
X148333714Y-90916200D02*
X148428952Y-90963819D01*
X148428952Y-90963819D02*
X148619428Y-90963819D01*
X148619428Y-90963819D02*
X148714666Y-90916200D01*
X148714666Y-90916200D02*
X148762285Y-90868580D01*
X148762285Y-90868580D02*
X148809904Y-90773342D01*
X148809904Y-90773342D02*
X148809904Y-90535247D01*
X148809904Y-90535247D02*
X148762285Y-90440009D01*
X148762285Y-90440009D02*
X148714666Y-90392390D01*
X148714666Y-90392390D02*
X148619428Y-90344771D01*
X148619428Y-90344771D02*
X148428952Y-90344771D01*
X148428952Y-90344771D02*
X148333714Y-90392390D01*
X148333714Y-90392390D02*
X148286095Y-90440009D01*
X148286095Y-90440009D02*
X148238476Y-90535247D01*
X156910405Y-129463019D02*
X156910405Y-130272542D01*
X156910405Y-130272542D02*
X156958024Y-130367780D01*
X156958024Y-130367780D02*
X157005643Y-130415400D01*
X157005643Y-130415400D02*
X157100881Y-130463019D01*
X157100881Y-130463019D02*
X157291357Y-130463019D01*
X157291357Y-130463019D02*
X157386595Y-130415400D01*
X157386595Y-130415400D02*
X157434214Y-130367780D01*
X157434214Y-130367780D02*
X157481833Y-130272542D01*
X157481833Y-130272542D02*
X157481833Y-129463019D01*
X157910405Y-129558257D02*
X157958024Y-129510638D01*
X157958024Y-129510638D02*
X158053262Y-129463019D01*
X158053262Y-129463019D02*
X158291357Y-129463019D01*
X158291357Y-129463019D02*
X158386595Y-129510638D01*
X158386595Y-129510638D02*
X158434214Y-129558257D01*
X158434214Y-129558257D02*
X158481833Y-129653495D01*
X158481833Y-129653495D02*
X158481833Y-129748733D01*
X158481833Y-129748733D02*
X158434214Y-129891590D01*
X158434214Y-129891590D02*
X157862786Y-130463019D01*
X157862786Y-130463019D02*
X158481833Y-130463019D01*
X159434214Y-130463019D02*
X158862786Y-130463019D01*
X159148500Y-130463019D02*
X159148500Y-129463019D01*
X159148500Y-129463019D02*
X159053262Y-129605876D01*
X159053262Y-129605876D02*
X158958024Y-129701114D01*
X158958024Y-129701114D02*
X158862786Y-129748733D01*
X132100419Y-93465494D02*
X132909942Y-93465494D01*
X132909942Y-93465494D02*
X133005180Y-93417875D01*
X133005180Y-93417875D02*
X133052800Y-93370256D01*
X133052800Y-93370256D02*
X133100419Y-93275018D01*
X133100419Y-93275018D02*
X133100419Y-93084542D01*
X133100419Y-93084542D02*
X133052800Y-92989304D01*
X133052800Y-92989304D02*
X133005180Y-92941685D01*
X133005180Y-92941685D02*
X132909942Y-92894066D01*
X132909942Y-92894066D02*
X132100419Y-92894066D01*
X132195657Y-92465494D02*
X132148038Y-92417875D01*
X132148038Y-92417875D02*
X132100419Y-92322637D01*
X132100419Y-92322637D02*
X132100419Y-92084542D01*
X132100419Y-92084542D02*
X132148038Y-91989304D01*
X132148038Y-91989304D02*
X132195657Y-91941685D01*
X132195657Y-91941685D02*
X132290895Y-91894066D01*
X132290895Y-91894066D02*
X132386133Y-91894066D01*
X132386133Y-91894066D02*
X132528990Y-91941685D01*
X132528990Y-91941685D02*
X133100419Y-92513113D01*
X133100419Y-92513113D02*
X133100419Y-91894066D01*
X132195657Y-91513113D02*
X132148038Y-91465494D01*
X132148038Y-91465494D02*
X132100419Y-91370256D01*
X132100419Y-91370256D02*
X132100419Y-91132161D01*
X132100419Y-91132161D02*
X132148038Y-91036923D01*
X132148038Y-91036923D02*
X132195657Y-90989304D01*
X132195657Y-90989304D02*
X132290895Y-90941685D01*
X132290895Y-90941685D02*
X132386133Y-90941685D01*
X132386133Y-90941685D02*
X132528990Y-90989304D01*
X132528990Y-90989304D02*
X133100419Y-91560732D01*
X133100419Y-91560732D02*
X133100419Y-90941685D01*
X97548476Y-102054819D02*
X97548476Y-102769104D01*
X97548476Y-102769104D02*
X97500857Y-102911961D01*
X97500857Y-102911961D02*
X97405619Y-103007200D01*
X97405619Y-103007200D02*
X97262762Y-103054819D01*
X97262762Y-103054819D02*
X97167524Y-103054819D01*
X97929429Y-102054819D02*
X98548476Y-102054819D01*
X98548476Y-102054819D02*
X98215143Y-102435771D01*
X98215143Y-102435771D02*
X98358000Y-102435771D01*
X98358000Y-102435771D02*
X98453238Y-102483390D01*
X98453238Y-102483390D02*
X98500857Y-102531009D01*
X98500857Y-102531009D02*
X98548476Y-102626247D01*
X98548476Y-102626247D02*
X98548476Y-102864342D01*
X98548476Y-102864342D02*
X98500857Y-102959580D01*
X98500857Y-102959580D02*
X98453238Y-103007200D01*
X98453238Y-103007200D02*
X98358000Y-103054819D01*
X98358000Y-103054819D02*
X98072286Y-103054819D01*
X98072286Y-103054819D02*
X97977048Y-103007200D01*
X97977048Y-103007200D02*
X97929429Y-102959580D01*
X99453238Y-102054819D02*
X98977048Y-102054819D01*
X98977048Y-102054819D02*
X98929429Y-102531009D01*
X98929429Y-102531009D02*
X98977048Y-102483390D01*
X98977048Y-102483390D02*
X99072286Y-102435771D01*
X99072286Y-102435771D02*
X99310381Y-102435771D01*
X99310381Y-102435771D02*
X99405619Y-102483390D01*
X99405619Y-102483390D02*
X99453238Y-102531009D01*
X99453238Y-102531009D02*
X99500857Y-102626247D01*
X99500857Y-102626247D02*
X99500857Y-102864342D01*
X99500857Y-102864342D02*
X99453238Y-102959580D01*
X99453238Y-102959580D02*
X99405619Y-103007200D01*
X99405619Y-103007200D02*
X99310381Y-103054819D01*
X99310381Y-103054819D02*
X99072286Y-103054819D01*
X99072286Y-103054819D02*
X98977048Y-103007200D01*
X98977048Y-103007200D02*
X98929429Y-102959580D01*
X136384819Y-141452338D02*
X137099104Y-141452338D01*
X137099104Y-141452338D02*
X137241961Y-141499957D01*
X137241961Y-141499957D02*
X137337200Y-141595195D01*
X137337200Y-141595195D02*
X137384819Y-141738052D01*
X137384819Y-141738052D02*
X137384819Y-141833290D01*
X136480057Y-141023766D02*
X136432438Y-140976147D01*
X136432438Y-140976147D02*
X136384819Y-140880909D01*
X136384819Y-140880909D02*
X136384819Y-140642814D01*
X136384819Y-140642814D02*
X136432438Y-140547576D01*
X136432438Y-140547576D02*
X136480057Y-140499957D01*
X136480057Y-140499957D02*
X136575295Y-140452338D01*
X136575295Y-140452338D02*
X136670533Y-140452338D01*
X136670533Y-140452338D02*
X136813390Y-140499957D01*
X136813390Y-140499957D02*
X137384819Y-141071385D01*
X137384819Y-141071385D02*
X137384819Y-140452338D01*
X150980876Y-124593819D02*
X150980876Y-125308104D01*
X150980876Y-125308104D02*
X150933257Y-125450961D01*
X150933257Y-125450961D02*
X150838019Y-125546200D01*
X150838019Y-125546200D02*
X150695162Y-125593819D01*
X150695162Y-125593819D02*
X150599924Y-125593819D01*
X151361829Y-124593819D02*
X151980876Y-124593819D01*
X151980876Y-124593819D02*
X151647543Y-124974771D01*
X151647543Y-124974771D02*
X151790400Y-124974771D01*
X151790400Y-124974771D02*
X151885638Y-125022390D01*
X151885638Y-125022390D02*
X151933257Y-125070009D01*
X151933257Y-125070009D02*
X151980876Y-125165247D01*
X151980876Y-125165247D02*
X151980876Y-125403342D01*
X151980876Y-125403342D02*
X151933257Y-125498580D01*
X151933257Y-125498580D02*
X151885638Y-125546200D01*
X151885638Y-125546200D02*
X151790400Y-125593819D01*
X151790400Y-125593819D02*
X151504686Y-125593819D01*
X151504686Y-125593819D02*
X151409448Y-125546200D01*
X151409448Y-125546200D02*
X151361829Y-125498580D01*
X152599924Y-124593819D02*
X152695162Y-124593819D01*
X152695162Y-124593819D02*
X152790400Y-124641438D01*
X152790400Y-124641438D02*
X152838019Y-124689057D01*
X152838019Y-124689057D02*
X152885638Y-124784295D01*
X152885638Y-124784295D02*
X152933257Y-124974771D01*
X152933257Y-124974771D02*
X152933257Y-125212866D01*
X152933257Y-125212866D02*
X152885638Y-125403342D01*
X152885638Y-125403342D02*
X152838019Y-125498580D01*
X152838019Y-125498580D02*
X152790400Y-125546200D01*
X152790400Y-125546200D02*
X152695162Y-125593819D01*
X152695162Y-125593819D02*
X152599924Y-125593819D01*
X152599924Y-125593819D02*
X152504686Y-125546200D01*
X152504686Y-125546200D02*
X152457067Y-125498580D01*
X152457067Y-125498580D02*
X152409448Y-125403342D01*
X152409448Y-125403342D02*
X152361829Y-125212866D01*
X152361829Y-125212866D02*
X152361829Y-124974771D01*
X152361829Y-124974771D02*
X152409448Y-124784295D01*
X152409448Y-124784295D02*
X152457067Y-124689057D01*
X152457067Y-124689057D02*
X152504686Y-124641438D01*
X152504686Y-124641438D02*
X152599924Y-124593819D01*
X187626666Y-129633824D02*
X187626666Y-130348109D01*
X187626666Y-130348109D02*
X187579047Y-130490966D01*
X187579047Y-130490966D02*
X187483809Y-130586205D01*
X187483809Y-130586205D02*
X187340952Y-130633824D01*
X187340952Y-130633824D02*
X187245714Y-130633824D01*
X188531428Y-129633824D02*
X188340952Y-129633824D01*
X188340952Y-129633824D02*
X188245714Y-129681443D01*
X188245714Y-129681443D02*
X188198095Y-129729062D01*
X188198095Y-129729062D02*
X188102857Y-129871919D01*
X188102857Y-129871919D02*
X188055238Y-130062395D01*
X188055238Y-130062395D02*
X188055238Y-130443347D01*
X188055238Y-130443347D02*
X188102857Y-130538585D01*
X188102857Y-130538585D02*
X188150476Y-130586205D01*
X188150476Y-130586205D02*
X188245714Y-130633824D01*
X188245714Y-130633824D02*
X188436190Y-130633824D01*
X188436190Y-130633824D02*
X188531428Y-130586205D01*
X188531428Y-130586205D02*
X188579047Y-130538585D01*
X188579047Y-130538585D02*
X188626666Y-130443347D01*
X188626666Y-130443347D02*
X188626666Y-130205252D01*
X188626666Y-130205252D02*
X188579047Y-130110014D01*
X188579047Y-130110014D02*
X188531428Y-130062395D01*
X188531428Y-130062395D02*
X188436190Y-130014776D01*
X188436190Y-130014776D02*
X188245714Y-130014776D01*
X188245714Y-130014776D02*
X188150476Y-130062395D01*
X188150476Y-130062395D02*
X188102857Y-130110014D01*
X188102857Y-130110014D02*
X188055238Y-130205252D01*
X169341791Y-74407327D02*
X170151314Y-74407327D01*
X170151314Y-74407327D02*
X170246552Y-74359708D01*
X170246552Y-74359708D02*
X170294172Y-74312089D01*
X170294172Y-74312089D02*
X170341791Y-74216851D01*
X170341791Y-74216851D02*
X170341791Y-74026375D01*
X170341791Y-74026375D02*
X170294172Y-73931137D01*
X170294172Y-73931137D02*
X170246552Y-73883518D01*
X170246552Y-73883518D02*
X170151314Y-73835899D01*
X170151314Y-73835899D02*
X169341791Y-73835899D01*
X169437029Y-73407327D02*
X169389410Y-73359708D01*
X169389410Y-73359708D02*
X169341791Y-73264470D01*
X169341791Y-73264470D02*
X169341791Y-73026375D01*
X169341791Y-73026375D02*
X169389410Y-72931137D01*
X169389410Y-72931137D02*
X169437029Y-72883518D01*
X169437029Y-72883518D02*
X169532267Y-72835899D01*
X169532267Y-72835899D02*
X169627505Y-72835899D01*
X169627505Y-72835899D02*
X169770362Y-72883518D01*
X169770362Y-72883518D02*
X170341791Y-73454946D01*
X170341791Y-73454946D02*
X170341791Y-72835899D01*
X133084219Y-76199904D02*
X133893742Y-76199904D01*
X133893742Y-76199904D02*
X133988980Y-76152285D01*
X133988980Y-76152285D02*
X134036600Y-76104666D01*
X134036600Y-76104666D02*
X134084219Y-76009428D01*
X134084219Y-76009428D02*
X134084219Y-75818952D01*
X134084219Y-75818952D02*
X134036600Y-75723714D01*
X134036600Y-75723714D02*
X133988980Y-75676095D01*
X133988980Y-75676095D02*
X133893742Y-75628476D01*
X133893742Y-75628476D02*
X133084219Y-75628476D01*
X134084219Y-75104666D02*
X134084219Y-74914190D01*
X134084219Y-74914190D02*
X134036600Y-74818952D01*
X134036600Y-74818952D02*
X133988980Y-74771333D01*
X133988980Y-74771333D02*
X133846123Y-74676095D01*
X133846123Y-74676095D02*
X133655647Y-74628476D01*
X133655647Y-74628476D02*
X133274695Y-74628476D01*
X133274695Y-74628476D02*
X133179457Y-74676095D01*
X133179457Y-74676095D02*
X133131838Y-74723714D01*
X133131838Y-74723714D02*
X133084219Y-74818952D01*
X133084219Y-74818952D02*
X133084219Y-75009428D01*
X133084219Y-75009428D02*
X133131838Y-75104666D01*
X133131838Y-75104666D02*
X133179457Y-75152285D01*
X133179457Y-75152285D02*
X133274695Y-75199904D01*
X133274695Y-75199904D02*
X133512790Y-75199904D01*
X133512790Y-75199904D02*
X133608028Y-75152285D01*
X133608028Y-75152285D02*
X133655647Y-75104666D01*
X133655647Y-75104666D02*
X133703266Y-75009428D01*
X133703266Y-75009428D02*
X133703266Y-74818952D01*
X133703266Y-74818952D02*
X133655647Y-74723714D01*
X133655647Y-74723714D02*
X133608028Y-74676095D01*
X133608028Y-74676095D02*
X133512790Y-74628476D01*
X164131666Y-109817819D02*
X164131666Y-110532104D01*
X164131666Y-110532104D02*
X164084047Y-110674961D01*
X164084047Y-110674961D02*
X163988809Y-110770200D01*
X163988809Y-110770200D02*
X163845952Y-110817819D01*
X163845952Y-110817819D02*
X163750714Y-110817819D01*
X164512619Y-109817819D02*
X165179285Y-109817819D01*
X165179285Y-109817819D02*
X164750714Y-110817819D01*
X136384819Y-55906338D02*
X137099104Y-55906338D01*
X137099104Y-55906338D02*
X137241961Y-55953957D01*
X137241961Y-55953957D02*
X137337200Y-56049195D01*
X137337200Y-56049195D02*
X137384819Y-56192052D01*
X137384819Y-56192052D02*
X137384819Y-56287290D01*
X136384819Y-55525385D02*
X136384819Y-54906338D01*
X136384819Y-54906338D02*
X136765771Y-55239671D01*
X136765771Y-55239671D02*
X136765771Y-55096814D01*
X136765771Y-55096814D02*
X136813390Y-55001576D01*
X136813390Y-55001576D02*
X136861009Y-54953957D01*
X136861009Y-54953957D02*
X136956247Y-54906338D01*
X136956247Y-54906338D02*
X137194342Y-54906338D01*
X137194342Y-54906338D02*
X137289580Y-54953957D01*
X137289580Y-54953957D02*
X137337200Y-55001576D01*
X137337200Y-55001576D02*
X137384819Y-55096814D01*
X137384819Y-55096814D02*
X137384819Y-55382528D01*
X137384819Y-55382528D02*
X137337200Y-55477766D01*
X137337200Y-55477766D02*
X137289580Y-55525385D01*
X142863219Y-72262904D02*
X143672742Y-72262904D01*
X143672742Y-72262904D02*
X143767980Y-72215285D01*
X143767980Y-72215285D02*
X143815600Y-72167666D01*
X143815600Y-72167666D02*
X143863219Y-72072428D01*
X143863219Y-72072428D02*
X143863219Y-71881952D01*
X143863219Y-71881952D02*
X143815600Y-71786714D01*
X143815600Y-71786714D02*
X143767980Y-71739095D01*
X143767980Y-71739095D02*
X143672742Y-71691476D01*
X143672742Y-71691476D02*
X142863219Y-71691476D01*
X143291790Y-71072428D02*
X143244171Y-71167666D01*
X143244171Y-71167666D02*
X143196552Y-71215285D01*
X143196552Y-71215285D02*
X143101314Y-71262904D01*
X143101314Y-71262904D02*
X143053695Y-71262904D01*
X143053695Y-71262904D02*
X142958457Y-71215285D01*
X142958457Y-71215285D02*
X142910838Y-71167666D01*
X142910838Y-71167666D02*
X142863219Y-71072428D01*
X142863219Y-71072428D02*
X142863219Y-70881952D01*
X142863219Y-70881952D02*
X142910838Y-70786714D01*
X142910838Y-70786714D02*
X142958457Y-70739095D01*
X142958457Y-70739095D02*
X143053695Y-70691476D01*
X143053695Y-70691476D02*
X143101314Y-70691476D01*
X143101314Y-70691476D02*
X143196552Y-70739095D01*
X143196552Y-70739095D02*
X143244171Y-70786714D01*
X143244171Y-70786714D02*
X143291790Y-70881952D01*
X143291790Y-70881952D02*
X143291790Y-71072428D01*
X143291790Y-71072428D02*
X143339409Y-71167666D01*
X143339409Y-71167666D02*
X143387028Y-71215285D01*
X143387028Y-71215285D02*
X143482266Y-71262904D01*
X143482266Y-71262904D02*
X143672742Y-71262904D01*
X143672742Y-71262904D02*
X143767980Y-71215285D01*
X143767980Y-71215285D02*
X143815600Y-71167666D01*
X143815600Y-71167666D02*
X143863219Y-71072428D01*
X143863219Y-71072428D02*
X143863219Y-70881952D01*
X143863219Y-70881952D02*
X143815600Y-70786714D01*
X143815600Y-70786714D02*
X143767980Y-70739095D01*
X143767980Y-70739095D02*
X143672742Y-70691476D01*
X143672742Y-70691476D02*
X143482266Y-70691476D01*
X143482266Y-70691476D02*
X143387028Y-70739095D01*
X143387028Y-70739095D02*
X143339409Y-70786714D01*
X143339409Y-70786714D02*
X143291790Y-70881952D01*
X162444133Y-74216419D02*
X162110800Y-73740228D01*
X161872705Y-74216419D02*
X161872705Y-73216419D01*
X161872705Y-73216419D02*
X162253657Y-73216419D01*
X162253657Y-73216419D02*
X162348895Y-73264038D01*
X162348895Y-73264038D02*
X162396514Y-73311657D01*
X162396514Y-73311657D02*
X162444133Y-73406895D01*
X162444133Y-73406895D02*
X162444133Y-73549752D01*
X162444133Y-73549752D02*
X162396514Y-73644990D01*
X162396514Y-73644990D02*
X162348895Y-73692609D01*
X162348895Y-73692609D02*
X162253657Y-73740228D01*
X162253657Y-73740228D02*
X161872705Y-73740228D01*
X162825086Y-73311657D02*
X162872705Y-73264038D01*
X162872705Y-73264038D02*
X162967943Y-73216419D01*
X162967943Y-73216419D02*
X163206038Y-73216419D01*
X163206038Y-73216419D02*
X163301276Y-73264038D01*
X163301276Y-73264038D02*
X163348895Y-73311657D01*
X163348895Y-73311657D02*
X163396514Y-73406895D01*
X163396514Y-73406895D02*
X163396514Y-73502133D01*
X163396514Y-73502133D02*
X163348895Y-73644990D01*
X163348895Y-73644990D02*
X162777467Y-74216419D01*
X162777467Y-74216419D02*
X163396514Y-74216419D01*
X138161733Y-60278180D02*
X138114114Y-60325800D01*
X138114114Y-60325800D02*
X137971257Y-60373419D01*
X137971257Y-60373419D02*
X137876019Y-60373419D01*
X137876019Y-60373419D02*
X137733162Y-60325800D01*
X137733162Y-60325800D02*
X137637924Y-60230561D01*
X137637924Y-60230561D02*
X137590305Y-60135323D01*
X137590305Y-60135323D02*
X137542686Y-59944847D01*
X137542686Y-59944847D02*
X137542686Y-59801990D01*
X137542686Y-59801990D02*
X137590305Y-59611514D01*
X137590305Y-59611514D02*
X137637924Y-59516276D01*
X137637924Y-59516276D02*
X137733162Y-59421038D01*
X137733162Y-59421038D02*
X137876019Y-59373419D01*
X137876019Y-59373419D02*
X137971257Y-59373419D01*
X137971257Y-59373419D02*
X138114114Y-59421038D01*
X138114114Y-59421038D02*
X138161733Y-59468657D01*
X139114114Y-60373419D02*
X138542686Y-60373419D01*
X138828400Y-60373419D02*
X138828400Y-59373419D01*
X138828400Y-59373419D02*
X138733162Y-59516276D01*
X138733162Y-59516276D02*
X138637924Y-59611514D01*
X138637924Y-59611514D02*
X138542686Y-59659133D01*
X167428591Y-68234027D02*
X168238114Y-68234027D01*
X168238114Y-68234027D02*
X168333352Y-68186408D01*
X168333352Y-68186408D02*
X168380972Y-68138789D01*
X168380972Y-68138789D02*
X168428591Y-68043551D01*
X168428591Y-68043551D02*
X168428591Y-67853075D01*
X168428591Y-67853075D02*
X168380972Y-67757837D01*
X168380972Y-67757837D02*
X168333352Y-67710218D01*
X168333352Y-67710218D02*
X168238114Y-67662599D01*
X168238114Y-67662599D02*
X167428591Y-67662599D01*
X167428591Y-66710218D02*
X167428591Y-67186408D01*
X167428591Y-67186408D02*
X167904781Y-67234027D01*
X167904781Y-67234027D02*
X167857162Y-67186408D01*
X167857162Y-67186408D02*
X167809543Y-67091170D01*
X167809543Y-67091170D02*
X167809543Y-66853075D01*
X167809543Y-66853075D02*
X167857162Y-66757837D01*
X167857162Y-66757837D02*
X167904781Y-66710218D01*
X167904781Y-66710218D02*
X168000019Y-66662599D01*
X168000019Y-66662599D02*
X168238114Y-66662599D01*
X168238114Y-66662599D02*
X168333352Y-66710218D01*
X168333352Y-66710218D02*
X168380972Y-66757837D01*
X168380972Y-66757837D02*
X168428591Y-66853075D01*
X168428591Y-66853075D02*
X168428591Y-67091170D01*
X168428591Y-67091170D02*
X168380972Y-67186408D01*
X168380972Y-67186408D02*
X168333352Y-67234027D01*
D11*
%TO.C,JP8*%
X164040600Y-75123800D02*
X168140600Y-75123800D01*
X164040600Y-77123800D02*
X164040600Y-75123800D01*
X168140600Y-75123800D02*
X168140600Y-77123800D01*
X168140600Y-77123800D02*
X164040600Y-77123800D01*
%TO.C,C5*%
X143257852Y-93315200D02*
X141835348Y-93315200D01*
X143257852Y-91495200D02*
X141835348Y-91495200D01*
%TO.C,J8*%
X166310000Y-131719005D02*
X166310000Y-130389005D01*
X167640000Y-131719005D02*
X166310000Y-131719005D01*
X168910000Y-131719005D02*
X189290000Y-131719005D01*
X168910000Y-131719005D02*
X168910000Y-129059005D01*
X189290000Y-131719005D02*
X189290000Y-129059005D01*
X168910000Y-129059005D02*
X189290000Y-129059005D01*
%TO.C,J13*%
X134932400Y-64137000D02*
X136042400Y-64137000D01*
X134932400Y-64897000D02*
X134932400Y-64137000D01*
X134932400Y-65657000D02*
X134932400Y-65592000D01*
X134932400Y-65657000D02*
X135478929Y-65657000D01*
X134932400Y-65657000D02*
X137152400Y-65657000D01*
X136605871Y-65657000D02*
X137152400Y-65657000D01*
X137152400Y-65657000D02*
X137152400Y-65592000D01*
%TO.C,J26*%
X125825000Y-140875000D02*
X127455000Y-140875000D01*
X125825001Y-49625000D02*
X125825000Y-140875000D01*
X127455000Y-140515000D02*
X129084999Y-140515000D01*
X127455000Y-140875000D02*
X127455000Y-140515000D01*
X129084999Y-140515000D02*
X129084999Y-140875000D01*
X129084999Y-140875000D02*
X130714999Y-140875000D01*
X130714999Y-140875000D02*
X130715000Y-49625000D01*
X130715000Y-49625000D02*
X125825001Y-49625000D01*
%TO.C,J1*%
X138370000Y-52173005D02*
X189290000Y-52173005D01*
X138370000Y-52173005D02*
X138370000Y-49573005D01*
X189290000Y-52173005D02*
X189290000Y-46973005D01*
X138370000Y-49573005D02*
X140970000Y-49573005D01*
X140970000Y-49573005D02*
X140970000Y-46973005D01*
X138370000Y-48303005D02*
X138370000Y-46973005D01*
X138370000Y-46973005D02*
X139700000Y-46973005D01*
X140970000Y-46973005D02*
X189290000Y-46973005D01*
%TO.C,J14*%
X140647400Y-64137000D02*
X141757400Y-64137000D01*
X140647400Y-64897000D02*
X140647400Y-64137000D01*
X140647400Y-65657000D02*
X140647400Y-65592000D01*
X140647400Y-65657000D02*
X141193929Y-65657000D01*
X140647400Y-65657000D02*
X142867400Y-65657000D01*
X142320871Y-65657000D02*
X142867400Y-65657000D01*
X142867400Y-65657000D02*
X142867400Y-65592000D01*
%TO.C,J9*%
X136481000Y-103930000D02*
X136481000Y-102870000D01*
X137541000Y-103930000D02*
X136481000Y-103930000D01*
X138541000Y-103930000D02*
X138601000Y-103930000D01*
X138541000Y-103930000D02*
X138541000Y-101810000D01*
X138601000Y-103930000D02*
X138601000Y-101810000D01*
X138541000Y-101810000D02*
X138601000Y-101810000D01*
%TO.C,J11*%
X142679400Y-73408000D02*
X143789400Y-73408000D01*
X142679400Y-74168000D02*
X142679400Y-73408000D01*
X142679400Y-74928000D02*
X142679400Y-74863000D01*
X142679400Y-74928000D02*
X143225929Y-74928000D01*
X142679400Y-74928000D02*
X144899400Y-74928000D01*
X144352871Y-74928000D02*
X144899400Y-74928000D01*
X144899400Y-74928000D02*
X144899400Y-74863000D01*
%TO.C,J31*%
X164787600Y-125423200D02*
X163677600Y-125423200D01*
X164787600Y-124663200D02*
X164787600Y-125423200D01*
X164787600Y-123903200D02*
X164787600Y-117618200D01*
X164787600Y-123903200D02*
X164241071Y-123903200D01*
X164787600Y-117618200D02*
X163985130Y-117618200D01*
X163370070Y-117618200D02*
X162567600Y-117618200D01*
X163114129Y-123903200D02*
X162567600Y-123903200D01*
X162567600Y-123903200D02*
X162567600Y-117618200D01*
%TO.C,U3*%
X180698172Y-67439723D02*
X180698172Y-71889723D01*
X180698172Y-67439723D02*
X180698172Y-64789723D01*
X193518172Y-67439723D02*
X193518172Y-70089723D01*
X193518172Y-67439723D02*
X193518172Y-64789723D01*
%TO.C,J5*%
X166310000Y-108859005D02*
X166310000Y-107529005D01*
X167640000Y-108859005D02*
X166310000Y-108859005D01*
X168910000Y-108859005D02*
X189290000Y-108859005D01*
X168910000Y-108859005D02*
X168910000Y-106199005D01*
X189290000Y-108859005D02*
X189290000Y-106199005D01*
X168910000Y-106199005D02*
X189290000Y-106199005D01*
%TO.C,J4*%
X138370000Y-137719005D02*
X189290000Y-137719005D01*
X138370000Y-137719005D02*
X138370000Y-135119005D01*
X189290000Y-137719005D02*
X189290000Y-132519005D01*
X138370000Y-135119005D02*
X140970000Y-135119005D01*
X140970000Y-135119005D02*
X140970000Y-132519005D01*
X138370000Y-133849005D02*
X138370000Y-132519005D01*
X138370000Y-132519005D02*
X139700000Y-132519005D01*
X140970000Y-132519005D02*
X189290000Y-132519005D01*
%TO.C,C4*%
X158447052Y-131516800D02*
X157024548Y-131516800D01*
X158447052Y-129696800D02*
X157024548Y-129696800D01*
%TO.C,J24*%
X115665000Y-140875000D02*
X117295000Y-140875000D01*
X115665001Y-49625000D02*
X115665000Y-140875000D01*
X117295000Y-140515000D02*
X118924999Y-140515000D01*
X117295000Y-140875000D02*
X117295000Y-140515000D01*
X118924999Y-140515000D02*
X118924999Y-140875000D01*
X118924999Y-140875000D02*
X120554999Y-140875000D01*
X120554999Y-140875000D02*
X120555000Y-49625000D01*
X120555000Y-49625000D02*
X115665001Y-49625000D01*
%TO.C,R26*%
X146820936Y-91419000D02*
X148275064Y-91419000D01*
X146820936Y-93239000D02*
X148275064Y-93239000D01*
%TO.C,U21*%
X158148500Y-129168200D02*
X162598500Y-129168200D01*
X158148500Y-129168200D02*
X155498500Y-129168200D01*
X158148500Y-116348200D02*
X160798500Y-116348200D01*
X158148500Y-116348200D02*
X155498500Y-116348200D01*
%TO.C,U22*%
X133645600Y-98287400D02*
X184565600Y-98287400D01*
X184565600Y-98287400D02*
X184565600Y-86167400D01*
X133645600Y-93227400D02*
X133645600Y-98287400D01*
X133645600Y-86167400D02*
X133645600Y-91227400D01*
X184565600Y-86167400D02*
X133645600Y-86167400D01*
X133645600Y-93227400D02*
G75*
G03*
X133645600Y-91227400I0J1000000D01*
G01*
%TO.C,J32*%
X136481000Y-82594000D02*
X136481000Y-81534000D01*
X137541000Y-82594000D02*
X136481000Y-82594000D01*
X138541000Y-82594000D02*
X138601000Y-82594000D01*
X138541000Y-82594000D02*
X138541000Y-80474000D01*
X138601000Y-82594000D02*
X138601000Y-80474000D01*
X138541000Y-80474000D02*
X138601000Y-80474000D01*
%TO.C,J16*%
X138970200Y-101835400D02*
X140030200Y-101835400D01*
X138970200Y-102895400D02*
X138970200Y-101835400D01*
X138970200Y-103895400D02*
X138970200Y-103955400D01*
X138970200Y-103895400D02*
X141090200Y-103895400D01*
X138970200Y-103955400D02*
X141090200Y-103955400D01*
X141090200Y-103895400D02*
X141090200Y-103955400D01*
%TO.C,J15*%
X136837400Y-64137000D02*
X137947400Y-64137000D01*
X136837400Y-64897000D02*
X136837400Y-64137000D01*
X136837400Y-65657000D02*
X136837400Y-65592000D01*
X136837400Y-65657000D02*
X137383929Y-65657000D01*
X136837400Y-65657000D02*
X139057400Y-65657000D01*
X138510871Y-65657000D02*
X139057400Y-65657000D01*
X139057400Y-65657000D02*
X139057400Y-65592000D01*
%TO.C,J19*%
X151721000Y-80474000D02*
X152781000Y-80474000D01*
X151721000Y-81534000D02*
X151721000Y-80474000D01*
X151721000Y-82534000D02*
X151721000Y-82594000D01*
X151721000Y-82534000D02*
X153841000Y-82534000D01*
X151721000Y-82594000D02*
X153841000Y-82594000D01*
X153841000Y-82534000D02*
X153841000Y-82594000D01*
%TO.C,J29*%
X144115000Y-82594000D02*
X144115000Y-81534000D01*
X145175000Y-82594000D02*
X144115000Y-82594000D01*
X146175000Y-82594000D02*
X146235000Y-82594000D01*
X146175000Y-82594000D02*
X146175000Y-80474000D01*
X146235000Y-82594000D02*
X146235000Y-80474000D01*
X146175000Y-80474000D02*
X146235000Y-80474000D01*
%TO.C,J20*%
X105350000Y-143570000D02*
X105350000Y-142240000D01*
X106680000Y-143570000D02*
X105350000Y-143570000D01*
X107950000Y-143570000D02*
X135950000Y-143570000D01*
X107950000Y-143570000D02*
X107950000Y-140910000D01*
X135950000Y-143570000D02*
X135950000Y-140910000D01*
X107950000Y-140910000D02*
X135950000Y-140910000D01*
%TO.C,J25*%
X120745000Y-140875000D02*
X122375000Y-140875000D01*
X120745001Y-49625000D02*
X120745000Y-140875000D01*
X122375000Y-140515000D02*
X124004999Y-140515000D01*
X122375000Y-140875000D02*
X122375000Y-140515000D01*
X124004999Y-140515000D02*
X124004999Y-140875000D01*
X124004999Y-140875000D02*
X125634999Y-140875000D01*
X125634999Y-140875000D02*
X125635000Y-49625000D01*
X125635000Y-49625000D02*
X120745001Y-49625000D01*
%TO.C,J33*%
X133814000Y-80474000D02*
X134874000Y-80474000D01*
X133814000Y-81534000D02*
X133814000Y-80474000D01*
X133814000Y-82534000D02*
X133814000Y-82594000D01*
X133814000Y-82534000D02*
X135934000Y-82534000D01*
X133814000Y-82594000D02*
X135934000Y-82594000D01*
X135934000Y-82534000D02*
X135934000Y-82594000D01*
%TO.C,J35*%
X105283000Y-101600000D02*
X104013000Y-101600000D01*
X105283000Y-100330000D02*
X105283000Y-101600000D01*
X102970071Y-98170000D02*
X102515929Y-98170000D01*
X102970071Y-97410000D02*
X102515929Y-97410000D01*
X102970071Y-95630000D02*
X102515929Y-95630000D01*
X102970071Y-94870000D02*
X102515929Y-94870000D01*
X102970071Y-93090000D02*
X102515929Y-93090000D01*
X102970071Y-92330000D02*
X102515929Y-92330000D01*
X102970071Y-90550000D02*
X102515929Y-90550000D01*
X102970071Y-89790000D02*
X102515929Y-89790000D01*
X102970071Y-88010000D02*
X102515929Y-88010000D01*
X102970071Y-87250000D02*
X102515929Y-87250000D01*
X102903000Y-100710000D02*
X102515929Y-100710000D01*
X102903000Y-99950000D02*
X102515929Y-99950000D01*
X100430071Y-100710000D02*
X100033000Y-100710000D01*
X100430071Y-99950000D02*
X100033000Y-99950000D01*
X100430071Y-98170000D02*
X100033000Y-98170000D01*
X100430071Y-97410000D02*
X100033000Y-97410000D01*
X100430071Y-95630000D02*
X100033000Y-95630000D01*
X100430071Y-94870000D02*
X100033000Y-94870000D01*
X100430071Y-93090000D02*
X100033000Y-93090000D01*
X100430071Y-92330000D02*
X100033000Y-92330000D01*
X100430071Y-90550000D02*
X100033000Y-90550000D01*
X100430071Y-89790000D02*
X100033000Y-89790000D01*
X100430071Y-88010000D02*
X100033000Y-88010000D01*
X100430071Y-87250000D02*
X100033000Y-87250000D01*
X100033000Y-101660000D02*
X100033000Y-86300000D01*
X100033000Y-99060000D02*
X97373000Y-99060000D01*
X100033000Y-96520000D02*
X97373000Y-96520000D01*
X100033000Y-93980000D02*
X97373000Y-93980000D01*
X100033000Y-91440000D02*
X97373000Y-91440000D01*
X100033000Y-88900000D02*
X97373000Y-88900000D01*
X100033000Y-86300000D02*
X97373000Y-86300000D01*
X97373000Y-101660000D02*
X100033000Y-101660000D01*
X97373000Y-100710000D02*
X91373000Y-100710000D01*
X97373000Y-100650000D02*
X91373000Y-100650000D01*
X97373000Y-100530000D02*
X91373000Y-100530000D01*
X97373000Y-100410000D02*
X91373000Y-100410000D01*
X97373000Y-100290000D02*
X91373000Y-100290000D01*
X97373000Y-100170000D02*
X91373000Y-100170000D01*
X97373000Y-100050000D02*
X91373000Y-100050000D01*
X97373000Y-98170000D02*
X91373000Y-98170000D01*
X97373000Y-95630000D02*
X91373000Y-95630000D01*
X97373000Y-93090000D02*
X91373000Y-93090000D01*
X97373000Y-90550000D02*
X91373000Y-90550000D01*
X97373000Y-88010000D02*
X91373000Y-88010000D01*
X97373000Y-86300000D02*
X97373000Y-101660000D01*
X91373000Y-100710000D02*
X91373000Y-99950000D01*
X91373000Y-99950000D02*
X97373000Y-99950000D01*
X91373000Y-98170000D02*
X91373000Y-97410000D01*
X91373000Y-97410000D02*
X97373000Y-97410000D01*
X91373000Y-95630000D02*
X91373000Y-94870000D01*
X91373000Y-94870000D02*
X97373000Y-94870000D01*
X91373000Y-93090000D02*
X91373000Y-92330000D01*
X91373000Y-92330000D02*
X97373000Y-92330000D01*
X91373000Y-90550000D02*
X91373000Y-89790000D01*
X91373000Y-89790000D02*
X97373000Y-89790000D01*
X91373000Y-88010000D02*
X91373000Y-87250000D01*
X91373000Y-87250000D02*
X97373000Y-87250000D01*
%TO.C,J2*%
X138370000Y-143719005D02*
X189290000Y-143719005D01*
X138370000Y-143719005D02*
X138370000Y-141119005D01*
X189290000Y-143719005D02*
X189290000Y-138519005D01*
X138370000Y-141119005D02*
X140970000Y-141119005D01*
X140970000Y-141119005D02*
X140970000Y-138519005D01*
X138370000Y-139849005D02*
X138370000Y-138519005D01*
X138370000Y-138519005D02*
X139700000Y-138519005D01*
X140970000Y-138519005D02*
X189290000Y-138519005D01*
%TO.C,J30*%
X152900400Y-124204000D02*
X151790400Y-124204000D01*
X152900400Y-123444000D02*
X152900400Y-124204000D01*
X152900400Y-122684000D02*
X152900400Y-116399000D01*
X152900400Y-122684000D02*
X152353871Y-122684000D01*
X152900400Y-116399000D02*
X152097930Y-116399000D01*
X151482870Y-116399000D02*
X150680400Y-116399000D01*
X151226929Y-122684000D02*
X150680400Y-122684000D01*
X150680400Y-122684000D02*
X150680400Y-116399000D01*
%TO.C,J6*%
X189290000Y-129179005D02*
X187960000Y-129179005D01*
X189290000Y-127849005D02*
X189290000Y-129179005D01*
X189290000Y-126579005D02*
X189290000Y-108739005D01*
X189290000Y-126579005D02*
X186630000Y-126579005D01*
X189290000Y-108739005D02*
X186630000Y-108739005D01*
X186630000Y-126579005D02*
X186630000Y-108739005D01*
%TO.C,U2*%
X167540972Y-67455923D02*
X167540972Y-71905923D01*
X167540972Y-67455923D02*
X167540972Y-64805923D01*
X180360972Y-67455923D02*
X180360972Y-70105923D01*
X180360972Y-67455923D02*
X180360972Y-64805923D01*
%TO.C,U9*%
X133131400Y-70485000D02*
X133131400Y-73935000D01*
X133131400Y-70485000D02*
X133131400Y-68535000D01*
X142001400Y-70485000D02*
X142001400Y-72435000D01*
X142001400Y-70485000D02*
X142001400Y-68535000D01*
%TO.C,J12*%
X138742400Y-64137000D02*
X139852400Y-64137000D01*
X138742400Y-64897000D02*
X138742400Y-64137000D01*
X138742400Y-65657000D02*
X138742400Y-65592000D01*
X138742400Y-65657000D02*
X139288929Y-65657000D01*
X138742400Y-65657000D02*
X140962400Y-65657000D01*
X140415871Y-65657000D02*
X140962400Y-65657000D01*
X140962400Y-65657000D02*
X140962400Y-65592000D01*
%TO.C,J28*%
X139021000Y-82594000D02*
X139021000Y-81534000D01*
X140081000Y-82594000D02*
X139021000Y-82594000D01*
X141081000Y-82594000D02*
X141141000Y-82594000D01*
X141081000Y-82594000D02*
X141081000Y-80474000D01*
X141141000Y-82594000D02*
X141141000Y-80474000D01*
X141081000Y-80474000D02*
X141141000Y-80474000D01*
%TO.C,J23*%
X110585000Y-140875000D02*
X112215000Y-140875000D01*
X110585001Y-49625000D02*
X110585000Y-140875000D01*
X112215000Y-140515000D02*
X113844999Y-140515000D01*
X112215000Y-140875000D02*
X112215000Y-140515000D01*
X113844999Y-140515000D02*
X113844999Y-140875000D01*
X113844999Y-140875000D02*
X115474999Y-140875000D01*
X115474999Y-140875000D02*
X115475000Y-49625000D01*
X115475000Y-49625000D02*
X110585001Y-49625000D01*
%TO.C,J7*%
X166310000Y-108739005D02*
X167640000Y-108739005D01*
X166310000Y-110069005D02*
X166310000Y-108739005D01*
X166310000Y-111339005D02*
X166310000Y-129179005D01*
X166310000Y-111339005D02*
X168970000Y-111339005D01*
X166310000Y-129179005D02*
X168970000Y-129179005D01*
X168970000Y-111339005D02*
X168970000Y-129179005D01*
%TO.C,J10*%
X145854400Y-73408000D02*
X146964400Y-73408000D01*
X145854400Y-74168000D02*
X145854400Y-73408000D01*
X145854400Y-74928000D02*
X145854400Y-74863000D01*
X145854400Y-74928000D02*
X146400929Y-74928000D01*
X145854400Y-74928000D02*
X148074400Y-74928000D01*
X147527871Y-74928000D02*
X148074400Y-74928000D01*
X148074400Y-74928000D02*
X148074400Y-74863000D01*
%TO.C,J3*%
X138370000Y-58173005D02*
X189290000Y-58173005D01*
X138370000Y-58173005D02*
X138370000Y-55573005D01*
X189290000Y-58173005D02*
X189290000Y-52973005D01*
X138370000Y-55573005D02*
X140970000Y-55573005D01*
X140970000Y-55573005D02*
X140970000Y-52973005D01*
X138370000Y-54303005D02*
X138370000Y-52973005D01*
X138370000Y-52973005D02*
X139700000Y-52973005D01*
X140970000Y-52973005D02*
X189290000Y-52973005D01*
%TO.C,J17*%
X144151800Y-101784600D02*
X145211800Y-101784600D01*
X144151800Y-102844600D02*
X144151800Y-101784600D01*
X144151800Y-103844600D02*
X144151800Y-103904600D01*
X144151800Y-103844600D02*
X146271800Y-103844600D01*
X144151800Y-103904600D02*
X146271800Y-103904600D01*
X146271800Y-103844600D02*
X146271800Y-103904600D01*
%TO.C,U8*%
X142656400Y-66421000D02*
X142656400Y-69871000D01*
X142656400Y-66421000D02*
X142656400Y-64471000D01*
X151526400Y-66421000D02*
X151526400Y-68371000D01*
X151526400Y-66421000D02*
X151526400Y-64471000D01*
%TO.C,R2*%
X166994864Y-74493800D02*
X165540736Y-74493800D01*
X166994864Y-72673800D02*
X165540736Y-72673800D01*
%TO.C,J18*%
X146641000Y-101784600D02*
X147701000Y-101784600D01*
X146641000Y-102844600D02*
X146641000Y-101784600D01*
X146641000Y-103844600D02*
X146641000Y-103904600D01*
X146641000Y-103844600D02*
X148761000Y-103844600D01*
X146641000Y-103904600D02*
X148761000Y-103904600D01*
X148761000Y-103844600D02*
X148761000Y-103904600D01*
D10*
%TO.C,U1*%
X172854000Y-124169805D02*
X173429000Y-124169805D01*
X172854000Y-124169805D02*
X172854000Y-123494805D01*
X173429000Y-124169805D02*
X173429000Y-125444805D01*
X183204000Y-124169805D02*
X182529000Y-124169805D01*
X183204000Y-124169805D02*
X183204000Y-123494805D01*
X172854000Y-113819805D02*
X172854000Y-114494805D01*
X172854000Y-113819805D02*
X173529000Y-113819805D01*
X183204000Y-113819805D02*
X183204000Y-114494805D01*
X183204000Y-113819805D02*
X182529000Y-113819805D01*
D11*
%TO.C,JP20*%
X176050400Y-102417600D02*
X176050400Y-103017600D01*
X175350400Y-103717600D02*
X173950400Y-103717600D01*
X173950400Y-101717600D02*
X175350400Y-101717600D01*
X173250400Y-103017600D02*
X173250400Y-102417600D01*
X175350400Y-103717600D02*
G75*
G03*
X176050400Y-103017600I1J699999D01*
G01*
X176050400Y-102417600D02*
G75*
G03*
X175350400Y-101717600I-699999J1D01*
G01*
X173250400Y-103017600D02*
G75*
G03*
X173950400Y-103717600I700000J0D01*
G01*
X173950400Y-101717600D02*
G75*
G03*
X173250400Y-102417600I0J-700000D01*
G01*
%TO.C,J27*%
X141561000Y-103930000D02*
X141561000Y-102870000D01*
X142621000Y-103930000D02*
X141561000Y-103930000D01*
X143621000Y-103930000D02*
X143681000Y-103930000D01*
X143621000Y-103930000D02*
X143621000Y-101810000D01*
X143681000Y-103930000D02*
X143681000Y-101810000D01*
X143621000Y-101810000D02*
X143681000Y-101810000D01*
%TO.C,J22*%
X105505000Y-140875000D02*
X107135000Y-140875000D01*
X105505001Y-49625000D02*
X105505000Y-140875000D01*
X107135000Y-140515000D02*
X108764999Y-140515000D01*
X107135000Y-140875000D02*
X107135000Y-140515000D01*
X108764999Y-140515000D02*
X108764999Y-140875000D01*
X108764999Y-140875000D02*
X110394999Y-140875000D01*
X110394999Y-140875000D02*
X110395000Y-49625000D01*
X110395000Y-49625000D02*
X105505001Y-49625000D01*
%TO.C,C1*%
X138939852Y-60803200D02*
X137517348Y-60803200D01*
X138939852Y-58983200D02*
X137517348Y-58983200D01*
%TO.C,J21*%
X105350000Y-49590000D02*
X105350000Y-48260000D01*
X106680000Y-49590000D02*
X105350000Y-49590000D01*
X107950000Y-49590000D02*
X135950000Y-49590000D01*
X107950000Y-49590000D02*
X107950000Y-46930000D01*
X135950000Y-49590000D02*
X135950000Y-46930000D01*
X107950000Y-46930000D02*
X135950000Y-46930000D01*
%TO.C,U5*%
X167133772Y-67472123D02*
X167133772Y-63022123D01*
X167133772Y-67472123D02*
X167133772Y-70122123D01*
X151913772Y-67472123D02*
X151913772Y-64822123D01*
X151913772Y-67472123D02*
X151913772Y-70122123D01*
%TD*%
M02*
