%TF.GenerationSoftware,KiCad,Pcbnew,7.0.7-7.0.7~ubuntu20.04.1*%
%TF.CreationDate,2023-09-08T17:20:42+02:00*%
%TF.ProjectId,CPU_6809_board,4350555f-3638-4303-995f-626f6172642e,rev?*%
%TF.SameCoordinates,Original*%
%TF.FileFunction,Legend,Bot*%
%TF.FilePolarity,Positive*%
%FSLAX46Y46*%
G04 Gerber Fmt 4.6, Leading zero omitted, Abs format (unit mm)*
G04 Created by KiCad (PCBNEW 7.0.7-7.0.7~ubuntu20.04.1) date 2023-09-08 17:20:42*
%MOMM*%
%LPD*%
G01*
G04 APERTURE LIST*
%ADD10C,0.150000*%
%ADD11C,0.120000*%
G04 APERTURE END LIST*
D10*
X139826830Y-59982219D02*
X140303020Y-59982219D01*
X140303020Y-59982219D02*
X140350639Y-60458409D01*
X140350639Y-60458409D02*
X140303020Y-60410790D01*
X140303020Y-60410790D02*
X140207782Y-60363171D01*
X140207782Y-60363171D02*
X139969687Y-60363171D01*
X139969687Y-60363171D02*
X139874449Y-60410790D01*
X139874449Y-60410790D02*
X139826830Y-60458409D01*
X139826830Y-60458409D02*
X139779211Y-60553647D01*
X139779211Y-60553647D02*
X139779211Y-60791742D01*
X139779211Y-60791742D02*
X139826830Y-60886980D01*
X139826830Y-60886980D02*
X139874449Y-60934600D01*
X139874449Y-60934600D02*
X139969687Y-60982219D01*
X139969687Y-60982219D02*
X140207782Y-60982219D01*
X140207782Y-60982219D02*
X140303020Y-60934600D01*
X140303020Y-60934600D02*
X140350639Y-60886980D01*
X139493496Y-59982219D02*
X139160163Y-60982219D01*
X139160163Y-60982219D02*
X138826830Y-59982219D01*
X138255401Y-61315552D02*
X138255401Y-59886980D01*
X137636353Y-59982219D02*
X137017306Y-59982219D01*
X137017306Y-59982219D02*
X137350639Y-60363171D01*
X137350639Y-60363171D02*
X137207782Y-60363171D01*
X137207782Y-60363171D02*
X137112544Y-60410790D01*
X137112544Y-60410790D02*
X137064925Y-60458409D01*
X137064925Y-60458409D02*
X137017306Y-60553647D01*
X137017306Y-60553647D02*
X137017306Y-60791742D01*
X137017306Y-60791742D02*
X137064925Y-60886980D01*
X137064925Y-60886980D02*
X137112544Y-60934600D01*
X137112544Y-60934600D02*
X137207782Y-60982219D01*
X137207782Y-60982219D02*
X137493496Y-60982219D01*
X137493496Y-60982219D02*
X137588734Y-60934600D01*
X137588734Y-60934600D02*
X137636353Y-60886980D01*
X136731591Y-59982219D02*
X136398258Y-60982219D01*
X136398258Y-60982219D02*
X136064925Y-59982219D01*
X135826829Y-59982219D02*
X135207782Y-59982219D01*
X135207782Y-59982219D02*
X135541115Y-60363171D01*
X135541115Y-60363171D02*
X135398258Y-60363171D01*
X135398258Y-60363171D02*
X135303020Y-60410790D01*
X135303020Y-60410790D02*
X135255401Y-60458409D01*
X135255401Y-60458409D02*
X135207782Y-60553647D01*
X135207782Y-60553647D02*
X135207782Y-60791742D01*
X135207782Y-60791742D02*
X135255401Y-60886980D01*
X135255401Y-60886980D02*
X135303020Y-60934600D01*
X135303020Y-60934600D02*
X135398258Y-60982219D01*
X135398258Y-60982219D02*
X135683972Y-60982219D01*
X135683972Y-60982219D02*
X135779210Y-60934600D01*
X135779210Y-60934600D02*
X135826829Y-60886980D01*
X134557923Y-62065819D02*
X134557923Y-62780104D01*
X134557923Y-62780104D02*
X134605542Y-62922961D01*
X134605542Y-62922961D02*
X134700780Y-63018200D01*
X134700780Y-63018200D02*
X134843637Y-63065819D01*
X134843637Y-63065819D02*
X134938875Y-63065819D01*
X134081732Y-63065819D02*
X134081732Y-62065819D01*
X134081732Y-62065819D02*
X133700780Y-62065819D01*
X133700780Y-62065819D02*
X133605542Y-62113438D01*
X133605542Y-62113438D02*
X133557923Y-62161057D01*
X133557923Y-62161057D02*
X133510304Y-62256295D01*
X133510304Y-62256295D02*
X133510304Y-62399152D01*
X133510304Y-62399152D02*
X133557923Y-62494390D01*
X133557923Y-62494390D02*
X133605542Y-62542009D01*
X133605542Y-62542009D02*
X133700780Y-62589628D01*
X133700780Y-62589628D02*
X134081732Y-62589628D01*
X133129351Y-62161057D02*
X133081732Y-62113438D01*
X133081732Y-62113438D02*
X132986494Y-62065819D01*
X132986494Y-62065819D02*
X132748399Y-62065819D01*
X132748399Y-62065819D02*
X132653161Y-62113438D01*
X132653161Y-62113438D02*
X132605542Y-62161057D01*
X132605542Y-62161057D02*
X132557923Y-62256295D01*
X132557923Y-62256295D02*
X132557923Y-62351533D01*
X132557923Y-62351533D02*
X132605542Y-62494390D01*
X132605542Y-62494390D02*
X133176970Y-63065819D01*
X133176970Y-63065819D02*
X132557923Y-63065819D01*
X132081732Y-63065819D02*
X131891256Y-63065819D01*
X131891256Y-63065819D02*
X131796018Y-63018200D01*
X131796018Y-63018200D02*
X131748399Y-62970580D01*
X131748399Y-62970580D02*
X131653161Y-62827723D01*
X131653161Y-62827723D02*
X131605542Y-62637247D01*
X131605542Y-62637247D02*
X131605542Y-62256295D01*
X131605542Y-62256295D02*
X131653161Y-62161057D01*
X131653161Y-62161057D02*
X131700780Y-62113438D01*
X131700780Y-62113438D02*
X131796018Y-62065819D01*
X131796018Y-62065819D02*
X131986494Y-62065819D01*
X131986494Y-62065819D02*
X132081732Y-62113438D01*
X132081732Y-62113438D02*
X132129351Y-62161057D01*
X132129351Y-62161057D02*
X132176970Y-62256295D01*
X132176970Y-62256295D02*
X132176970Y-62494390D01*
X132176970Y-62494390D02*
X132129351Y-62589628D01*
X132129351Y-62589628D02*
X132081732Y-62637247D01*
X132081732Y-62637247D02*
X131986494Y-62684866D01*
X131986494Y-62684866D02*
X131796018Y-62684866D01*
X131796018Y-62684866D02*
X131700780Y-62637247D01*
X131700780Y-62637247D02*
X131653161Y-62589628D01*
X131653161Y-62589628D02*
X131605542Y-62494390D01*
X141190132Y-62065819D02*
X140571085Y-62065819D01*
X140571085Y-62065819D02*
X140904418Y-62446771D01*
X140904418Y-62446771D02*
X140761561Y-62446771D01*
X140761561Y-62446771D02*
X140666323Y-62494390D01*
X140666323Y-62494390D02*
X140618704Y-62542009D01*
X140618704Y-62542009D02*
X140571085Y-62637247D01*
X140571085Y-62637247D02*
X140571085Y-62875342D01*
X140571085Y-62875342D02*
X140618704Y-62970580D01*
X140618704Y-62970580D02*
X140666323Y-63018200D01*
X140666323Y-63018200D02*
X140761561Y-63065819D01*
X140761561Y-63065819D02*
X141047275Y-63065819D01*
X141047275Y-63065819D02*
X141142513Y-63018200D01*
X141142513Y-63018200D02*
X141190132Y-62970580D01*
X135371085Y-63065819D02*
X135942513Y-63065819D01*
X135656799Y-63065819D02*
X135656799Y-62065819D01*
X135656799Y-62065819D02*
X135752037Y-62208676D01*
X135752037Y-62208676D02*
X135847275Y-62303914D01*
X135847275Y-62303914D02*
X135942513Y-62351533D01*
X148020019Y-63340342D02*
X147543828Y-63007009D01*
X148020019Y-62768914D02*
X147020019Y-62768914D01*
X147020019Y-62768914D02*
X147020019Y-63149866D01*
X147020019Y-63149866D02*
X147067638Y-63245104D01*
X147067638Y-63245104D02*
X147115257Y-63292723D01*
X147115257Y-63292723D02*
X147210495Y-63340342D01*
X147210495Y-63340342D02*
X147353352Y-63340342D01*
X147353352Y-63340342D02*
X147448590Y-63292723D01*
X147448590Y-63292723D02*
X147496209Y-63245104D01*
X147496209Y-63245104D02*
X147543828Y-63149866D01*
X147543828Y-63149866D02*
X147543828Y-62768914D01*
X148020019Y-64292723D02*
X148020019Y-63721295D01*
X148020019Y-64007009D02*
X147020019Y-64007009D01*
X147020019Y-64007009D02*
X147162876Y-63911771D01*
X147162876Y-63911771D02*
X147258114Y-63816533D01*
X147258114Y-63816533D02*
X147305733Y-63721295D01*
X148020019Y-65245104D02*
X148020019Y-64673676D01*
X148020019Y-64959390D02*
X147020019Y-64959390D01*
X147020019Y-64959390D02*
X147162876Y-64864152D01*
X147162876Y-64864152D02*
X147258114Y-64768914D01*
X147258114Y-64768914D02*
X147305733Y-64673676D01*
X138344466Y-129319580D02*
X138392085Y-129367200D01*
X138392085Y-129367200D02*
X138534942Y-129414819D01*
X138534942Y-129414819D02*
X138630180Y-129414819D01*
X138630180Y-129414819D02*
X138773037Y-129367200D01*
X138773037Y-129367200D02*
X138868275Y-129271961D01*
X138868275Y-129271961D02*
X138915894Y-129176723D01*
X138915894Y-129176723D02*
X138963513Y-128986247D01*
X138963513Y-128986247D02*
X138963513Y-128843390D01*
X138963513Y-128843390D02*
X138915894Y-128652914D01*
X138915894Y-128652914D02*
X138868275Y-128557676D01*
X138868275Y-128557676D02*
X138773037Y-128462438D01*
X138773037Y-128462438D02*
X138630180Y-128414819D01*
X138630180Y-128414819D02*
X138534942Y-128414819D01*
X138534942Y-128414819D02*
X138392085Y-128462438D01*
X138392085Y-128462438D02*
X138344466Y-128510057D01*
X137963513Y-128510057D02*
X137915894Y-128462438D01*
X137915894Y-128462438D02*
X137820656Y-128414819D01*
X137820656Y-128414819D02*
X137582561Y-128414819D01*
X137582561Y-128414819D02*
X137487323Y-128462438D01*
X137487323Y-128462438D02*
X137439704Y-128510057D01*
X137439704Y-128510057D02*
X137392085Y-128605295D01*
X137392085Y-128605295D02*
X137392085Y-128700533D01*
X137392085Y-128700533D02*
X137439704Y-128843390D01*
X137439704Y-128843390D02*
X138011132Y-129414819D01*
X138011132Y-129414819D02*
X137392085Y-129414819D01*
X141382819Y-94861142D02*
X140906628Y-94527809D01*
X141382819Y-94289714D02*
X140382819Y-94289714D01*
X140382819Y-94289714D02*
X140382819Y-94670666D01*
X140382819Y-94670666D02*
X140430438Y-94765904D01*
X140430438Y-94765904D02*
X140478057Y-94813523D01*
X140478057Y-94813523D02*
X140573295Y-94861142D01*
X140573295Y-94861142D02*
X140716152Y-94861142D01*
X140716152Y-94861142D02*
X140811390Y-94813523D01*
X140811390Y-94813523D02*
X140859009Y-94765904D01*
X140859009Y-94765904D02*
X140906628Y-94670666D01*
X140906628Y-94670666D02*
X140906628Y-94289714D01*
X140478057Y-95242095D02*
X140430438Y-95289714D01*
X140430438Y-95289714D02*
X140382819Y-95384952D01*
X140382819Y-95384952D02*
X140382819Y-95623047D01*
X140382819Y-95623047D02*
X140430438Y-95718285D01*
X140430438Y-95718285D02*
X140478057Y-95765904D01*
X140478057Y-95765904D02*
X140573295Y-95813523D01*
X140573295Y-95813523D02*
X140668533Y-95813523D01*
X140668533Y-95813523D02*
X140811390Y-95765904D01*
X140811390Y-95765904D02*
X141382819Y-95194476D01*
X141382819Y-95194476D02*
X141382819Y-95813523D01*
X140382819Y-96146857D02*
X140382819Y-96765904D01*
X140382819Y-96765904D02*
X140763771Y-96432571D01*
X140763771Y-96432571D02*
X140763771Y-96575428D01*
X140763771Y-96575428D02*
X140811390Y-96670666D01*
X140811390Y-96670666D02*
X140859009Y-96718285D01*
X140859009Y-96718285D02*
X140954247Y-96765904D01*
X140954247Y-96765904D02*
X141192342Y-96765904D01*
X141192342Y-96765904D02*
X141287580Y-96718285D01*
X141287580Y-96718285D02*
X141335200Y-96670666D01*
X141335200Y-96670666D02*
X141382819Y-96575428D01*
X141382819Y-96575428D02*
X141382819Y-96289714D01*
X141382819Y-96289714D02*
X141335200Y-96194476D01*
X141335200Y-96194476D02*
X141287580Y-96146857D01*
X154710523Y-111490819D02*
X154710523Y-112205104D01*
X154710523Y-112205104D02*
X154758142Y-112347961D01*
X154758142Y-112347961D02*
X154853380Y-112443200D01*
X154853380Y-112443200D02*
X154996237Y-112490819D01*
X154996237Y-112490819D02*
X155091475Y-112490819D01*
X154234332Y-112490819D02*
X154234332Y-111490819D01*
X154234332Y-111490819D02*
X153853380Y-111490819D01*
X153853380Y-111490819D02*
X153758142Y-111538438D01*
X153758142Y-111538438D02*
X153710523Y-111586057D01*
X153710523Y-111586057D02*
X153662904Y-111681295D01*
X153662904Y-111681295D02*
X153662904Y-111824152D01*
X153662904Y-111824152D02*
X153710523Y-111919390D01*
X153710523Y-111919390D02*
X153758142Y-111967009D01*
X153758142Y-111967009D02*
X153853380Y-112014628D01*
X153853380Y-112014628D02*
X154234332Y-112014628D01*
X153281951Y-111586057D02*
X153234332Y-111538438D01*
X153234332Y-111538438D02*
X153139094Y-111490819D01*
X153139094Y-111490819D02*
X152900999Y-111490819D01*
X152900999Y-111490819D02*
X152805761Y-111538438D01*
X152805761Y-111538438D02*
X152758142Y-111586057D01*
X152758142Y-111586057D02*
X152710523Y-111681295D01*
X152710523Y-111681295D02*
X152710523Y-111776533D01*
X152710523Y-111776533D02*
X152758142Y-111919390D01*
X152758142Y-111919390D02*
X153329570Y-112490819D01*
X153329570Y-112490819D02*
X152710523Y-112490819D01*
X152377189Y-111490819D02*
X151710523Y-111490819D01*
X151710523Y-111490819D02*
X152139094Y-112490819D01*
X144895819Y-88410142D02*
X144419628Y-88076809D01*
X144895819Y-87838714D02*
X143895819Y-87838714D01*
X143895819Y-87838714D02*
X143895819Y-88219666D01*
X143895819Y-88219666D02*
X143943438Y-88314904D01*
X143943438Y-88314904D02*
X143991057Y-88362523D01*
X143991057Y-88362523D02*
X144086295Y-88410142D01*
X144086295Y-88410142D02*
X144229152Y-88410142D01*
X144229152Y-88410142D02*
X144324390Y-88362523D01*
X144324390Y-88362523D02*
X144372009Y-88314904D01*
X144372009Y-88314904D02*
X144419628Y-88219666D01*
X144419628Y-88219666D02*
X144419628Y-87838714D01*
X143991057Y-88791095D02*
X143943438Y-88838714D01*
X143943438Y-88838714D02*
X143895819Y-88933952D01*
X143895819Y-88933952D02*
X143895819Y-89172047D01*
X143895819Y-89172047D02*
X143943438Y-89267285D01*
X143943438Y-89267285D02*
X143991057Y-89314904D01*
X143991057Y-89314904D02*
X144086295Y-89362523D01*
X144086295Y-89362523D02*
X144181533Y-89362523D01*
X144181533Y-89362523D02*
X144324390Y-89314904D01*
X144324390Y-89314904D02*
X144895819Y-88743476D01*
X144895819Y-88743476D02*
X144895819Y-89362523D01*
X143895819Y-89981571D02*
X143895819Y-90076809D01*
X143895819Y-90076809D02*
X143943438Y-90172047D01*
X143943438Y-90172047D02*
X143991057Y-90219666D01*
X143991057Y-90219666D02*
X144086295Y-90267285D01*
X144086295Y-90267285D02*
X144276771Y-90314904D01*
X144276771Y-90314904D02*
X144514866Y-90314904D01*
X144514866Y-90314904D02*
X144705342Y-90267285D01*
X144705342Y-90267285D02*
X144800580Y-90219666D01*
X144800580Y-90219666D02*
X144848200Y-90172047D01*
X144848200Y-90172047D02*
X144895819Y-90076809D01*
X144895819Y-90076809D02*
X144895819Y-89981571D01*
X144895819Y-89981571D02*
X144848200Y-89886333D01*
X144848200Y-89886333D02*
X144800580Y-89838714D01*
X144800580Y-89838714D02*
X144705342Y-89791095D01*
X144705342Y-89791095D02*
X144514866Y-89743476D01*
X144514866Y-89743476D02*
X144276771Y-89743476D01*
X144276771Y-89743476D02*
X144086295Y-89791095D01*
X144086295Y-89791095D02*
X143991057Y-89838714D01*
X143991057Y-89838714D02*
X143943438Y-89886333D01*
X143943438Y-89886333D02*
X143895819Y-89981571D01*
X138715819Y-94861142D02*
X138239628Y-94527809D01*
X138715819Y-94289714D02*
X137715819Y-94289714D01*
X137715819Y-94289714D02*
X137715819Y-94670666D01*
X137715819Y-94670666D02*
X137763438Y-94765904D01*
X137763438Y-94765904D02*
X137811057Y-94813523D01*
X137811057Y-94813523D02*
X137906295Y-94861142D01*
X137906295Y-94861142D02*
X138049152Y-94861142D01*
X138049152Y-94861142D02*
X138144390Y-94813523D01*
X138144390Y-94813523D02*
X138192009Y-94765904D01*
X138192009Y-94765904D02*
X138239628Y-94670666D01*
X138239628Y-94670666D02*
X138239628Y-94289714D01*
X137811057Y-95242095D02*
X137763438Y-95289714D01*
X137763438Y-95289714D02*
X137715819Y-95384952D01*
X137715819Y-95384952D02*
X137715819Y-95623047D01*
X137715819Y-95623047D02*
X137763438Y-95718285D01*
X137763438Y-95718285D02*
X137811057Y-95765904D01*
X137811057Y-95765904D02*
X137906295Y-95813523D01*
X137906295Y-95813523D02*
X138001533Y-95813523D01*
X138001533Y-95813523D02*
X138144390Y-95765904D01*
X138144390Y-95765904D02*
X138715819Y-95194476D01*
X138715819Y-95194476D02*
X138715819Y-95813523D01*
X137811057Y-96194476D02*
X137763438Y-96242095D01*
X137763438Y-96242095D02*
X137715819Y-96337333D01*
X137715819Y-96337333D02*
X137715819Y-96575428D01*
X137715819Y-96575428D02*
X137763438Y-96670666D01*
X137763438Y-96670666D02*
X137811057Y-96718285D01*
X137811057Y-96718285D02*
X137906295Y-96765904D01*
X137906295Y-96765904D02*
X138001533Y-96765904D01*
X138001533Y-96765904D02*
X138144390Y-96718285D01*
X138144390Y-96718285D02*
X138715819Y-96146857D01*
X138715819Y-96146857D02*
X138715819Y-96765904D01*
X137275819Y-88283142D02*
X136799628Y-87949809D01*
X137275819Y-87711714D02*
X136275819Y-87711714D01*
X136275819Y-87711714D02*
X136275819Y-88092666D01*
X136275819Y-88092666D02*
X136323438Y-88187904D01*
X136323438Y-88187904D02*
X136371057Y-88235523D01*
X136371057Y-88235523D02*
X136466295Y-88283142D01*
X136466295Y-88283142D02*
X136609152Y-88283142D01*
X136609152Y-88283142D02*
X136704390Y-88235523D01*
X136704390Y-88235523D02*
X136752009Y-88187904D01*
X136752009Y-88187904D02*
X136799628Y-88092666D01*
X136799628Y-88092666D02*
X136799628Y-87711714D01*
X136371057Y-88664095D02*
X136323438Y-88711714D01*
X136323438Y-88711714D02*
X136275819Y-88806952D01*
X136275819Y-88806952D02*
X136275819Y-89045047D01*
X136275819Y-89045047D02*
X136323438Y-89140285D01*
X136323438Y-89140285D02*
X136371057Y-89187904D01*
X136371057Y-89187904D02*
X136466295Y-89235523D01*
X136466295Y-89235523D02*
X136561533Y-89235523D01*
X136561533Y-89235523D02*
X136704390Y-89187904D01*
X136704390Y-89187904D02*
X137275819Y-88616476D01*
X137275819Y-88616476D02*
X137275819Y-89235523D01*
X136609152Y-90092666D02*
X137275819Y-90092666D01*
X136228200Y-89854571D02*
X136942485Y-89616476D01*
X136942485Y-89616476D02*
X136942485Y-90235523D01*
X147791323Y-105071419D02*
X147791323Y-105785704D01*
X147791323Y-105785704D02*
X147838942Y-105928561D01*
X147838942Y-105928561D02*
X147934180Y-106023800D01*
X147934180Y-106023800D02*
X148077037Y-106071419D01*
X148077037Y-106071419D02*
X148172275Y-106071419D01*
X147315132Y-106071419D02*
X147315132Y-105071419D01*
X147315132Y-105071419D02*
X146934180Y-105071419D01*
X146934180Y-105071419D02*
X146838942Y-105119038D01*
X146838942Y-105119038D02*
X146791323Y-105166657D01*
X146791323Y-105166657D02*
X146743704Y-105261895D01*
X146743704Y-105261895D02*
X146743704Y-105404752D01*
X146743704Y-105404752D02*
X146791323Y-105499990D01*
X146791323Y-105499990D02*
X146838942Y-105547609D01*
X146838942Y-105547609D02*
X146934180Y-105595228D01*
X146934180Y-105595228D02*
X147315132Y-105595228D01*
X146362751Y-105166657D02*
X146315132Y-105119038D01*
X146315132Y-105119038D02*
X146219894Y-105071419D01*
X146219894Y-105071419D02*
X145981799Y-105071419D01*
X145981799Y-105071419D02*
X145886561Y-105119038D01*
X145886561Y-105119038D02*
X145838942Y-105166657D01*
X145838942Y-105166657D02*
X145791323Y-105261895D01*
X145791323Y-105261895D02*
X145791323Y-105357133D01*
X145791323Y-105357133D02*
X145838942Y-105499990D01*
X145838942Y-105499990D02*
X146410370Y-106071419D01*
X146410370Y-106071419D02*
X145791323Y-106071419D01*
X145457989Y-105071419D02*
X144838942Y-105071419D01*
X144838942Y-105071419D02*
X145172275Y-105452371D01*
X145172275Y-105452371D02*
X145029418Y-105452371D01*
X145029418Y-105452371D02*
X144934180Y-105499990D01*
X144934180Y-105499990D02*
X144886561Y-105547609D01*
X144886561Y-105547609D02*
X144838942Y-105642847D01*
X144838942Y-105642847D02*
X144838942Y-105880942D01*
X144838942Y-105880942D02*
X144886561Y-105976180D01*
X144886561Y-105976180D02*
X144934180Y-106023800D01*
X144934180Y-106023800D02*
X145029418Y-106071419D01*
X145029418Y-106071419D02*
X145315132Y-106071419D01*
X145315132Y-106071419D02*
X145410370Y-106023800D01*
X145410370Y-106023800D02*
X145457989Y-105976180D01*
X144215132Y-106871419D02*
X143596085Y-106871419D01*
X143596085Y-106871419D02*
X143929418Y-107252371D01*
X143929418Y-107252371D02*
X143786561Y-107252371D01*
X143786561Y-107252371D02*
X143691323Y-107299990D01*
X143691323Y-107299990D02*
X143643704Y-107347609D01*
X143643704Y-107347609D02*
X143596085Y-107442847D01*
X143596085Y-107442847D02*
X143596085Y-107680942D01*
X143596085Y-107680942D02*
X143643704Y-107776180D01*
X143643704Y-107776180D02*
X143691323Y-107823800D01*
X143691323Y-107823800D02*
X143786561Y-107871419D01*
X143786561Y-107871419D02*
X144072275Y-107871419D01*
X144072275Y-107871419D02*
X144167513Y-107823800D01*
X144167513Y-107823800D02*
X144215132Y-107776180D01*
X148796085Y-107871419D02*
X149367513Y-107871419D01*
X149081799Y-107871419D02*
X149081799Y-106871419D01*
X149081799Y-106871419D02*
X149177037Y-107014276D01*
X149177037Y-107014276D02*
X149272275Y-107109514D01*
X149272275Y-107109514D02*
X149367513Y-107157133D01*
X136175819Y-94861142D02*
X135699628Y-94527809D01*
X136175819Y-94289714D02*
X135175819Y-94289714D01*
X135175819Y-94289714D02*
X135175819Y-94670666D01*
X135175819Y-94670666D02*
X135223438Y-94765904D01*
X135223438Y-94765904D02*
X135271057Y-94813523D01*
X135271057Y-94813523D02*
X135366295Y-94861142D01*
X135366295Y-94861142D02*
X135509152Y-94861142D01*
X135509152Y-94861142D02*
X135604390Y-94813523D01*
X135604390Y-94813523D02*
X135652009Y-94765904D01*
X135652009Y-94765904D02*
X135699628Y-94670666D01*
X135699628Y-94670666D02*
X135699628Y-94289714D01*
X135271057Y-95242095D02*
X135223438Y-95289714D01*
X135223438Y-95289714D02*
X135175819Y-95384952D01*
X135175819Y-95384952D02*
X135175819Y-95623047D01*
X135175819Y-95623047D02*
X135223438Y-95718285D01*
X135223438Y-95718285D02*
X135271057Y-95765904D01*
X135271057Y-95765904D02*
X135366295Y-95813523D01*
X135366295Y-95813523D02*
X135461533Y-95813523D01*
X135461533Y-95813523D02*
X135604390Y-95765904D01*
X135604390Y-95765904D02*
X136175819Y-95194476D01*
X136175819Y-95194476D02*
X136175819Y-95813523D01*
X136175819Y-96765904D02*
X136175819Y-96194476D01*
X136175819Y-96480190D02*
X135175819Y-96480190D01*
X135175819Y-96480190D02*
X135318676Y-96384952D01*
X135318676Y-96384952D02*
X135413914Y-96289714D01*
X135413914Y-96289714D02*
X135461533Y-96194476D01*
X158896866Y-69833819D02*
X159230199Y-69357628D01*
X159468294Y-69833819D02*
X159468294Y-68833819D01*
X159468294Y-68833819D02*
X159087342Y-68833819D01*
X159087342Y-68833819D02*
X158992104Y-68881438D01*
X158992104Y-68881438D02*
X158944485Y-68929057D01*
X158944485Y-68929057D02*
X158896866Y-69024295D01*
X158896866Y-69024295D02*
X158896866Y-69167152D01*
X158896866Y-69167152D02*
X158944485Y-69262390D01*
X158944485Y-69262390D02*
X158992104Y-69310009D01*
X158992104Y-69310009D02*
X159087342Y-69357628D01*
X159087342Y-69357628D02*
X159468294Y-69357628D01*
X157944485Y-69833819D02*
X158515913Y-69833819D01*
X158230199Y-69833819D02*
X158230199Y-68833819D01*
X158230199Y-68833819D02*
X158325437Y-68976676D01*
X158325437Y-68976676D02*
X158420675Y-69071914D01*
X158420675Y-69071914D02*
X158515913Y-69119533D01*
X155055819Y-88791142D02*
X154579628Y-88457809D01*
X155055819Y-88219714D02*
X154055819Y-88219714D01*
X154055819Y-88219714D02*
X154055819Y-88600666D01*
X154055819Y-88600666D02*
X154103438Y-88695904D01*
X154103438Y-88695904D02*
X154151057Y-88743523D01*
X154151057Y-88743523D02*
X154246295Y-88791142D01*
X154246295Y-88791142D02*
X154389152Y-88791142D01*
X154389152Y-88791142D02*
X154484390Y-88743523D01*
X154484390Y-88743523D02*
X154532009Y-88695904D01*
X154532009Y-88695904D02*
X154579628Y-88600666D01*
X154579628Y-88600666D02*
X154579628Y-88219714D01*
X154151057Y-89172095D02*
X154103438Y-89219714D01*
X154103438Y-89219714D02*
X154055819Y-89314952D01*
X154055819Y-89314952D02*
X154055819Y-89553047D01*
X154055819Y-89553047D02*
X154103438Y-89648285D01*
X154103438Y-89648285D02*
X154151057Y-89695904D01*
X154151057Y-89695904D02*
X154246295Y-89743523D01*
X154246295Y-89743523D02*
X154341533Y-89743523D01*
X154341533Y-89743523D02*
X154484390Y-89695904D01*
X154484390Y-89695904D02*
X155055819Y-89124476D01*
X155055819Y-89124476D02*
X155055819Y-89743523D01*
X154055819Y-90648285D02*
X154055819Y-90172095D01*
X154055819Y-90172095D02*
X154532009Y-90124476D01*
X154532009Y-90124476D02*
X154484390Y-90172095D01*
X154484390Y-90172095D02*
X154436771Y-90267333D01*
X154436771Y-90267333D02*
X154436771Y-90505428D01*
X154436771Y-90505428D02*
X154484390Y-90600666D01*
X154484390Y-90600666D02*
X154532009Y-90648285D01*
X154532009Y-90648285D02*
X154627247Y-90695904D01*
X154627247Y-90695904D02*
X154865342Y-90695904D01*
X154865342Y-90695904D02*
X154960580Y-90648285D01*
X154960580Y-90648285D02*
X155008200Y-90600666D01*
X155008200Y-90600666D02*
X155055819Y-90505428D01*
X155055819Y-90505428D02*
X155055819Y-90267333D01*
X155055819Y-90267333D02*
X155008200Y-90172095D01*
X155008200Y-90172095D02*
X154960580Y-90124476D01*
X180174666Y-113345385D02*
X180222285Y-113393005D01*
X180222285Y-113393005D02*
X180365142Y-113440624D01*
X180365142Y-113440624D02*
X180460380Y-113440624D01*
X180460380Y-113440624D02*
X180603237Y-113393005D01*
X180603237Y-113393005D02*
X180698475Y-113297766D01*
X180698475Y-113297766D02*
X180746094Y-113202528D01*
X180746094Y-113202528D02*
X180793713Y-113012052D01*
X180793713Y-113012052D02*
X180793713Y-112869195D01*
X180793713Y-112869195D02*
X180746094Y-112678719D01*
X180746094Y-112678719D02*
X180698475Y-112583481D01*
X180698475Y-112583481D02*
X180603237Y-112488243D01*
X180603237Y-112488243D02*
X180460380Y-112440624D01*
X180460380Y-112440624D02*
X180365142Y-112440624D01*
X180365142Y-112440624D02*
X180222285Y-112488243D01*
X180222285Y-112488243D02*
X180174666Y-112535862D01*
X179841332Y-112440624D02*
X179174666Y-112440624D01*
X179174666Y-112440624D02*
X179603237Y-113440624D01*
X162696523Y-106245819D02*
X162696523Y-106960104D01*
X162696523Y-106960104D02*
X162744142Y-107102961D01*
X162744142Y-107102961D02*
X162839380Y-107198200D01*
X162839380Y-107198200D02*
X162982237Y-107245819D01*
X162982237Y-107245819D02*
X163077475Y-107245819D01*
X162220332Y-107245819D02*
X162220332Y-106245819D01*
X162220332Y-106245819D02*
X161839380Y-106245819D01*
X161839380Y-106245819D02*
X161744142Y-106293438D01*
X161744142Y-106293438D02*
X161696523Y-106341057D01*
X161696523Y-106341057D02*
X161648904Y-106436295D01*
X161648904Y-106436295D02*
X161648904Y-106579152D01*
X161648904Y-106579152D02*
X161696523Y-106674390D01*
X161696523Y-106674390D02*
X161744142Y-106722009D01*
X161744142Y-106722009D02*
X161839380Y-106769628D01*
X161839380Y-106769628D02*
X162220332Y-106769628D01*
X161267951Y-106341057D02*
X161220332Y-106293438D01*
X161220332Y-106293438D02*
X161125094Y-106245819D01*
X161125094Y-106245819D02*
X160886999Y-106245819D01*
X160886999Y-106245819D02*
X160791761Y-106293438D01*
X160791761Y-106293438D02*
X160744142Y-106341057D01*
X160744142Y-106341057D02*
X160696523Y-106436295D01*
X160696523Y-106436295D02*
X160696523Y-106531533D01*
X160696523Y-106531533D02*
X160744142Y-106674390D01*
X160744142Y-106674390D02*
X161315570Y-107245819D01*
X161315570Y-107245819D02*
X160696523Y-107245819D01*
X159791761Y-106245819D02*
X160267951Y-106245819D01*
X160267951Y-106245819D02*
X160315570Y-106722009D01*
X160315570Y-106722009D02*
X160267951Y-106674390D01*
X160267951Y-106674390D02*
X160172713Y-106626771D01*
X160172713Y-106626771D02*
X159934618Y-106626771D01*
X159934618Y-106626771D02*
X159839380Y-106674390D01*
X159839380Y-106674390D02*
X159791761Y-106722009D01*
X159791761Y-106722009D02*
X159744142Y-106817247D01*
X159744142Y-106817247D02*
X159744142Y-107055342D01*
X159744142Y-107055342D02*
X159791761Y-107150580D01*
X159791761Y-107150580D02*
X159839380Y-107198200D01*
X159839380Y-107198200D02*
X159934618Y-107245819D01*
X159934618Y-107245819D02*
X160172713Y-107245819D01*
X160172713Y-107245819D02*
X160267951Y-107198200D01*
X160267951Y-107198200D02*
X160315570Y-107150580D01*
X163701285Y-109045819D02*
X164272713Y-109045819D01*
X163986999Y-109045819D02*
X163986999Y-108045819D01*
X163986999Y-108045819D02*
X164082237Y-108188676D01*
X164082237Y-108188676D02*
X164177475Y-108283914D01*
X164177475Y-108283914D02*
X164272713Y-108331533D01*
X159120332Y-108045819D02*
X158501285Y-108045819D01*
X158501285Y-108045819D02*
X158834618Y-108426771D01*
X158834618Y-108426771D02*
X158691761Y-108426771D01*
X158691761Y-108426771D02*
X158596523Y-108474390D01*
X158596523Y-108474390D02*
X158548904Y-108522009D01*
X158548904Y-108522009D02*
X158501285Y-108617247D01*
X158501285Y-108617247D02*
X158501285Y-108855342D01*
X158501285Y-108855342D02*
X158548904Y-108950580D01*
X158548904Y-108950580D02*
X158596523Y-108998200D01*
X158596523Y-108998200D02*
X158691761Y-109045819D01*
X158691761Y-109045819D02*
X158977475Y-109045819D01*
X158977475Y-109045819D02*
X159072713Y-108998200D01*
X159072713Y-108998200D02*
X159120332Y-108950580D01*
X183046666Y-129347385D02*
X183094285Y-129395005D01*
X183094285Y-129395005D02*
X183237142Y-129442624D01*
X183237142Y-129442624D02*
X183332380Y-129442624D01*
X183332380Y-129442624D02*
X183475237Y-129395005D01*
X183475237Y-129395005D02*
X183570475Y-129299766D01*
X183570475Y-129299766D02*
X183618094Y-129204528D01*
X183618094Y-129204528D02*
X183665713Y-129014052D01*
X183665713Y-129014052D02*
X183665713Y-128871195D01*
X183665713Y-128871195D02*
X183618094Y-128680719D01*
X183618094Y-128680719D02*
X183570475Y-128585481D01*
X183570475Y-128585481D02*
X183475237Y-128490243D01*
X183475237Y-128490243D02*
X183332380Y-128442624D01*
X183332380Y-128442624D02*
X183237142Y-128442624D01*
X183237142Y-128442624D02*
X183094285Y-128490243D01*
X183094285Y-128490243D02*
X183046666Y-128537862D01*
X182475237Y-128871195D02*
X182570475Y-128823576D01*
X182570475Y-128823576D02*
X182618094Y-128775957D01*
X182618094Y-128775957D02*
X182665713Y-128680719D01*
X182665713Y-128680719D02*
X182665713Y-128633100D01*
X182665713Y-128633100D02*
X182618094Y-128537862D01*
X182618094Y-128537862D02*
X182570475Y-128490243D01*
X182570475Y-128490243D02*
X182475237Y-128442624D01*
X182475237Y-128442624D02*
X182284761Y-128442624D01*
X182284761Y-128442624D02*
X182189523Y-128490243D01*
X182189523Y-128490243D02*
X182141904Y-128537862D01*
X182141904Y-128537862D02*
X182094285Y-128633100D01*
X182094285Y-128633100D02*
X182094285Y-128680719D01*
X182094285Y-128680719D02*
X182141904Y-128775957D01*
X182141904Y-128775957D02*
X182189523Y-128823576D01*
X182189523Y-128823576D02*
X182284761Y-128871195D01*
X182284761Y-128871195D02*
X182475237Y-128871195D01*
X182475237Y-128871195D02*
X182570475Y-128918814D01*
X182570475Y-128918814D02*
X182618094Y-128966433D01*
X182618094Y-128966433D02*
X182665713Y-129061671D01*
X182665713Y-129061671D02*
X182665713Y-129252147D01*
X182665713Y-129252147D02*
X182618094Y-129347385D01*
X182618094Y-129347385D02*
X182570475Y-129395005D01*
X182570475Y-129395005D02*
X182475237Y-129442624D01*
X182475237Y-129442624D02*
X182284761Y-129442624D01*
X182284761Y-129442624D02*
X182189523Y-129395005D01*
X182189523Y-129395005D02*
X182141904Y-129347385D01*
X182141904Y-129347385D02*
X182094285Y-129252147D01*
X182094285Y-129252147D02*
X182094285Y-129061671D01*
X182094285Y-129061671D02*
X182141904Y-128966433D01*
X182141904Y-128966433D02*
X182189523Y-128918814D01*
X182189523Y-128918814D02*
X182284761Y-128871195D01*
X183427666Y-71297580D02*
X183475285Y-71345200D01*
X183475285Y-71345200D02*
X183618142Y-71392819D01*
X183618142Y-71392819D02*
X183713380Y-71392819D01*
X183713380Y-71392819D02*
X183856237Y-71345200D01*
X183856237Y-71345200D02*
X183951475Y-71249961D01*
X183951475Y-71249961D02*
X183999094Y-71154723D01*
X183999094Y-71154723D02*
X184046713Y-70964247D01*
X184046713Y-70964247D02*
X184046713Y-70821390D01*
X184046713Y-70821390D02*
X183999094Y-70630914D01*
X183999094Y-70630914D02*
X183951475Y-70535676D01*
X183951475Y-70535676D02*
X183856237Y-70440438D01*
X183856237Y-70440438D02*
X183713380Y-70392819D01*
X183713380Y-70392819D02*
X183618142Y-70392819D01*
X183618142Y-70392819D02*
X183475285Y-70440438D01*
X183475285Y-70440438D02*
X183427666Y-70488057D01*
X183094332Y-70392819D02*
X182475285Y-70392819D01*
X182475285Y-70392819D02*
X182808618Y-70773771D01*
X182808618Y-70773771D02*
X182665761Y-70773771D01*
X182665761Y-70773771D02*
X182570523Y-70821390D01*
X182570523Y-70821390D02*
X182522904Y-70869009D01*
X182522904Y-70869009D02*
X182475285Y-70964247D01*
X182475285Y-70964247D02*
X182475285Y-71202342D01*
X182475285Y-71202342D02*
X182522904Y-71297580D01*
X182522904Y-71297580D02*
X182570523Y-71345200D01*
X182570523Y-71345200D02*
X182665761Y-71392819D01*
X182665761Y-71392819D02*
X182951475Y-71392819D01*
X182951475Y-71392819D02*
X183046713Y-71345200D01*
X183046713Y-71345200D02*
X183094332Y-71297580D01*
X160948523Y-101540819D02*
X160948523Y-102255104D01*
X160948523Y-102255104D02*
X160996142Y-102397961D01*
X160996142Y-102397961D02*
X161091380Y-102493200D01*
X161091380Y-102493200D02*
X161234237Y-102540819D01*
X161234237Y-102540819D02*
X161329475Y-102540819D01*
X160472332Y-102540819D02*
X160472332Y-101540819D01*
X160472332Y-101540819D02*
X160091380Y-101540819D01*
X160091380Y-101540819D02*
X159996142Y-101588438D01*
X159996142Y-101588438D02*
X159948523Y-101636057D01*
X159948523Y-101636057D02*
X159900904Y-101731295D01*
X159900904Y-101731295D02*
X159900904Y-101874152D01*
X159900904Y-101874152D02*
X159948523Y-101969390D01*
X159948523Y-101969390D02*
X159996142Y-102017009D01*
X159996142Y-102017009D02*
X160091380Y-102064628D01*
X160091380Y-102064628D02*
X160472332Y-102064628D01*
X159519951Y-101636057D02*
X159472332Y-101588438D01*
X159472332Y-101588438D02*
X159377094Y-101540819D01*
X159377094Y-101540819D02*
X159138999Y-101540819D01*
X159138999Y-101540819D02*
X159043761Y-101588438D01*
X159043761Y-101588438D02*
X158996142Y-101636057D01*
X158996142Y-101636057D02*
X158948523Y-101731295D01*
X158948523Y-101731295D02*
X158948523Y-101826533D01*
X158948523Y-101826533D02*
X158996142Y-101969390D01*
X158996142Y-101969390D02*
X159567570Y-102540819D01*
X159567570Y-102540819D02*
X158948523Y-102540819D01*
X157996142Y-102540819D02*
X158567570Y-102540819D01*
X158281856Y-102540819D02*
X158281856Y-101540819D01*
X158281856Y-101540819D02*
X158377094Y-101683676D01*
X158377094Y-101683676D02*
X158472332Y-101778914D01*
X158472332Y-101778914D02*
X158567570Y-101826533D01*
X157372332Y-103340819D02*
X156753285Y-103340819D01*
X156753285Y-103340819D02*
X157086618Y-103721771D01*
X157086618Y-103721771D02*
X156943761Y-103721771D01*
X156943761Y-103721771D02*
X156848523Y-103769390D01*
X156848523Y-103769390D02*
X156800904Y-103817009D01*
X156800904Y-103817009D02*
X156753285Y-103912247D01*
X156753285Y-103912247D02*
X156753285Y-104150342D01*
X156753285Y-104150342D02*
X156800904Y-104245580D01*
X156800904Y-104245580D02*
X156848523Y-104293200D01*
X156848523Y-104293200D02*
X156943761Y-104340819D01*
X156943761Y-104340819D02*
X157229475Y-104340819D01*
X157229475Y-104340819D02*
X157324713Y-104293200D01*
X157324713Y-104293200D02*
X157372332Y-104245580D01*
X161953285Y-104340819D02*
X162524713Y-104340819D01*
X162238999Y-104340819D02*
X162238999Y-103340819D01*
X162238999Y-103340819D02*
X162334237Y-103483676D01*
X162334237Y-103483676D02*
X162429475Y-103578914D01*
X162429475Y-103578914D02*
X162524713Y-103626533D01*
X156781657Y-63780819D02*
X157114990Y-63304628D01*
X157353085Y-63780819D02*
X157353085Y-62780819D01*
X157353085Y-62780819D02*
X156972133Y-62780819D01*
X156972133Y-62780819D02*
X156876895Y-62828438D01*
X156876895Y-62828438D02*
X156829276Y-62876057D01*
X156829276Y-62876057D02*
X156781657Y-62971295D01*
X156781657Y-62971295D02*
X156781657Y-63114152D01*
X156781657Y-63114152D02*
X156829276Y-63209390D01*
X156829276Y-63209390D02*
X156876895Y-63257009D01*
X156876895Y-63257009D02*
X156972133Y-63304628D01*
X156972133Y-63304628D02*
X157353085Y-63304628D01*
X155829276Y-63780819D02*
X156400704Y-63780819D01*
X156114990Y-63780819D02*
X156114990Y-62780819D01*
X156114990Y-62780819D02*
X156210228Y-62923676D01*
X156210228Y-62923676D02*
X156305466Y-63018914D01*
X156305466Y-63018914D02*
X156400704Y-63066533D01*
X155210228Y-62780819D02*
X155114990Y-62780819D01*
X155114990Y-62780819D02*
X155019752Y-62828438D01*
X155019752Y-62828438D02*
X154972133Y-62876057D01*
X154972133Y-62876057D02*
X154924514Y-62971295D01*
X154924514Y-62971295D02*
X154876895Y-63161771D01*
X154876895Y-63161771D02*
X154876895Y-63399866D01*
X154876895Y-63399866D02*
X154924514Y-63590342D01*
X154924514Y-63590342D02*
X154972133Y-63685580D01*
X154972133Y-63685580D02*
X155019752Y-63733200D01*
X155019752Y-63733200D02*
X155114990Y-63780819D01*
X155114990Y-63780819D02*
X155210228Y-63780819D01*
X155210228Y-63780819D02*
X155305466Y-63733200D01*
X155305466Y-63733200D02*
X155353085Y-63685580D01*
X155353085Y-63685580D02*
X155400704Y-63590342D01*
X155400704Y-63590342D02*
X155448323Y-63399866D01*
X155448323Y-63399866D02*
X155448323Y-63161771D01*
X155448323Y-63161771D02*
X155400704Y-62971295D01*
X155400704Y-62971295D02*
X155353085Y-62876057D01*
X155353085Y-62876057D02*
X155305466Y-62828438D01*
X155305466Y-62828438D02*
X155210228Y-62780819D01*
X155644466Y-68987819D02*
X155977799Y-68511628D01*
X156215894Y-68987819D02*
X156215894Y-67987819D01*
X156215894Y-67987819D02*
X155834942Y-67987819D01*
X155834942Y-67987819D02*
X155739704Y-68035438D01*
X155739704Y-68035438D02*
X155692085Y-68083057D01*
X155692085Y-68083057D02*
X155644466Y-68178295D01*
X155644466Y-68178295D02*
X155644466Y-68321152D01*
X155644466Y-68321152D02*
X155692085Y-68416390D01*
X155692085Y-68416390D02*
X155739704Y-68464009D01*
X155739704Y-68464009D02*
X155834942Y-68511628D01*
X155834942Y-68511628D02*
X156215894Y-68511628D01*
X155168275Y-68987819D02*
X154977799Y-68987819D01*
X154977799Y-68987819D02*
X154882561Y-68940200D01*
X154882561Y-68940200D02*
X154834942Y-68892580D01*
X154834942Y-68892580D02*
X154739704Y-68749723D01*
X154739704Y-68749723D02*
X154692085Y-68559247D01*
X154692085Y-68559247D02*
X154692085Y-68178295D01*
X154692085Y-68178295D02*
X154739704Y-68083057D01*
X154739704Y-68083057D02*
X154787323Y-68035438D01*
X154787323Y-68035438D02*
X154882561Y-67987819D01*
X154882561Y-67987819D02*
X155073037Y-67987819D01*
X155073037Y-67987819D02*
X155168275Y-68035438D01*
X155168275Y-68035438D02*
X155215894Y-68083057D01*
X155215894Y-68083057D02*
X155263513Y-68178295D01*
X155263513Y-68178295D02*
X155263513Y-68416390D01*
X155263513Y-68416390D02*
X155215894Y-68511628D01*
X155215894Y-68511628D02*
X155168275Y-68559247D01*
X155168275Y-68559247D02*
X155073037Y-68606866D01*
X155073037Y-68606866D02*
X154882561Y-68606866D01*
X154882561Y-68606866D02*
X154787323Y-68559247D01*
X154787323Y-68559247D02*
X154739704Y-68511628D01*
X154739704Y-68511628D02*
X154692085Y-68416390D01*
X173134580Y-118286138D02*
X173182200Y-118238519D01*
X173182200Y-118238519D02*
X173229819Y-118095662D01*
X173229819Y-118095662D02*
X173229819Y-118000424D01*
X173229819Y-118000424D02*
X173182200Y-117857567D01*
X173182200Y-117857567D02*
X173086961Y-117762329D01*
X173086961Y-117762329D02*
X172991723Y-117714710D01*
X172991723Y-117714710D02*
X172801247Y-117667091D01*
X172801247Y-117667091D02*
X172658390Y-117667091D01*
X172658390Y-117667091D02*
X172467914Y-117714710D01*
X172467914Y-117714710D02*
X172372676Y-117762329D01*
X172372676Y-117762329D02*
X172277438Y-117857567D01*
X172277438Y-117857567D02*
X172229819Y-118000424D01*
X172229819Y-118000424D02*
X172229819Y-118095662D01*
X172229819Y-118095662D02*
X172277438Y-118238519D01*
X172277438Y-118238519D02*
X172325057Y-118286138D01*
X172229819Y-119143281D02*
X172229819Y-118952805D01*
X172229819Y-118952805D02*
X172277438Y-118857567D01*
X172277438Y-118857567D02*
X172325057Y-118809948D01*
X172325057Y-118809948D02*
X172467914Y-118714710D01*
X172467914Y-118714710D02*
X172658390Y-118667091D01*
X172658390Y-118667091D02*
X173039342Y-118667091D01*
X173039342Y-118667091D02*
X173134580Y-118714710D01*
X173134580Y-118714710D02*
X173182200Y-118762329D01*
X173182200Y-118762329D02*
X173229819Y-118857567D01*
X173229819Y-118857567D02*
X173229819Y-119048043D01*
X173229819Y-119048043D02*
X173182200Y-119143281D01*
X173182200Y-119143281D02*
X173134580Y-119190900D01*
X173134580Y-119190900D02*
X173039342Y-119238519D01*
X173039342Y-119238519D02*
X172801247Y-119238519D01*
X172801247Y-119238519D02*
X172706009Y-119190900D01*
X172706009Y-119190900D02*
X172658390Y-119143281D01*
X172658390Y-119143281D02*
X172610771Y-119048043D01*
X172610771Y-119048043D02*
X172610771Y-118857567D01*
X172610771Y-118857567D02*
X172658390Y-118762329D01*
X172658390Y-118762329D02*
X172706009Y-118714710D01*
X172706009Y-118714710D02*
X172801247Y-118667091D01*
X155360523Y-101540819D02*
X155360523Y-102255104D01*
X155360523Y-102255104D02*
X155408142Y-102397961D01*
X155408142Y-102397961D02*
X155503380Y-102493200D01*
X155503380Y-102493200D02*
X155646237Y-102540819D01*
X155646237Y-102540819D02*
X155741475Y-102540819D01*
X154884332Y-102540819D02*
X154884332Y-101540819D01*
X154884332Y-101540819D02*
X154503380Y-101540819D01*
X154503380Y-101540819D02*
X154408142Y-101588438D01*
X154408142Y-101588438D02*
X154360523Y-101636057D01*
X154360523Y-101636057D02*
X154312904Y-101731295D01*
X154312904Y-101731295D02*
X154312904Y-101874152D01*
X154312904Y-101874152D02*
X154360523Y-101969390D01*
X154360523Y-101969390D02*
X154408142Y-102017009D01*
X154408142Y-102017009D02*
X154503380Y-102064628D01*
X154503380Y-102064628D02*
X154884332Y-102064628D01*
X153931951Y-101636057D02*
X153884332Y-101588438D01*
X153884332Y-101588438D02*
X153789094Y-101540819D01*
X153789094Y-101540819D02*
X153550999Y-101540819D01*
X153550999Y-101540819D02*
X153455761Y-101588438D01*
X153455761Y-101588438D02*
X153408142Y-101636057D01*
X153408142Y-101636057D02*
X153360523Y-101731295D01*
X153360523Y-101731295D02*
X153360523Y-101826533D01*
X153360523Y-101826533D02*
X153408142Y-101969390D01*
X153408142Y-101969390D02*
X153979570Y-102540819D01*
X153979570Y-102540819D02*
X153360523Y-102540819D01*
X152979570Y-101636057D02*
X152931951Y-101588438D01*
X152931951Y-101588438D02*
X152836713Y-101540819D01*
X152836713Y-101540819D02*
X152598618Y-101540819D01*
X152598618Y-101540819D02*
X152503380Y-101588438D01*
X152503380Y-101588438D02*
X152455761Y-101636057D01*
X152455761Y-101636057D02*
X152408142Y-101731295D01*
X152408142Y-101731295D02*
X152408142Y-101826533D01*
X152408142Y-101826533D02*
X152455761Y-101969390D01*
X152455761Y-101969390D02*
X153027189Y-102540819D01*
X153027189Y-102540819D02*
X152408142Y-102540819D01*
X151784332Y-103340819D02*
X151165285Y-103340819D01*
X151165285Y-103340819D02*
X151498618Y-103721771D01*
X151498618Y-103721771D02*
X151355761Y-103721771D01*
X151355761Y-103721771D02*
X151260523Y-103769390D01*
X151260523Y-103769390D02*
X151212904Y-103817009D01*
X151212904Y-103817009D02*
X151165285Y-103912247D01*
X151165285Y-103912247D02*
X151165285Y-104150342D01*
X151165285Y-104150342D02*
X151212904Y-104245580D01*
X151212904Y-104245580D02*
X151260523Y-104293200D01*
X151260523Y-104293200D02*
X151355761Y-104340819D01*
X151355761Y-104340819D02*
X151641475Y-104340819D01*
X151641475Y-104340819D02*
X151736713Y-104293200D01*
X151736713Y-104293200D02*
X151784332Y-104245580D01*
X156365285Y-104340819D02*
X156936713Y-104340819D01*
X156650999Y-104340819D02*
X156650999Y-103340819D01*
X156650999Y-103340819D02*
X156746237Y-103483676D01*
X156746237Y-103483676D02*
X156841475Y-103578914D01*
X156841475Y-103578914D02*
X156936713Y-103626533D01*
X155330523Y-105350819D02*
X155330523Y-106065104D01*
X155330523Y-106065104D02*
X155378142Y-106207961D01*
X155378142Y-106207961D02*
X155473380Y-106303200D01*
X155473380Y-106303200D02*
X155616237Y-106350819D01*
X155616237Y-106350819D02*
X155711475Y-106350819D01*
X154854332Y-106350819D02*
X154854332Y-105350819D01*
X154854332Y-105350819D02*
X154473380Y-105350819D01*
X154473380Y-105350819D02*
X154378142Y-105398438D01*
X154378142Y-105398438D02*
X154330523Y-105446057D01*
X154330523Y-105446057D02*
X154282904Y-105541295D01*
X154282904Y-105541295D02*
X154282904Y-105684152D01*
X154282904Y-105684152D02*
X154330523Y-105779390D01*
X154330523Y-105779390D02*
X154378142Y-105827009D01*
X154378142Y-105827009D02*
X154473380Y-105874628D01*
X154473380Y-105874628D02*
X154854332Y-105874628D01*
X153901951Y-105446057D02*
X153854332Y-105398438D01*
X153854332Y-105398438D02*
X153759094Y-105350819D01*
X153759094Y-105350819D02*
X153520999Y-105350819D01*
X153520999Y-105350819D02*
X153425761Y-105398438D01*
X153425761Y-105398438D02*
X153378142Y-105446057D01*
X153378142Y-105446057D02*
X153330523Y-105541295D01*
X153330523Y-105541295D02*
X153330523Y-105636533D01*
X153330523Y-105636533D02*
X153378142Y-105779390D01*
X153378142Y-105779390D02*
X153949570Y-106350819D01*
X153949570Y-106350819D02*
X153330523Y-106350819D01*
X152473380Y-105684152D02*
X152473380Y-106350819D01*
X152711475Y-105303200D02*
X152949570Y-106017485D01*
X152949570Y-106017485D02*
X152330523Y-106017485D01*
X156335285Y-108150819D02*
X156906713Y-108150819D01*
X156620999Y-108150819D02*
X156620999Y-107150819D01*
X156620999Y-107150819D02*
X156716237Y-107293676D01*
X156716237Y-107293676D02*
X156811475Y-107388914D01*
X156811475Y-107388914D02*
X156906713Y-107436533D01*
X151754332Y-107150819D02*
X151135285Y-107150819D01*
X151135285Y-107150819D02*
X151468618Y-107531771D01*
X151468618Y-107531771D02*
X151325761Y-107531771D01*
X151325761Y-107531771D02*
X151230523Y-107579390D01*
X151230523Y-107579390D02*
X151182904Y-107627009D01*
X151182904Y-107627009D02*
X151135285Y-107722247D01*
X151135285Y-107722247D02*
X151135285Y-107960342D01*
X151135285Y-107960342D02*
X151182904Y-108055580D01*
X151182904Y-108055580D02*
X151230523Y-108103200D01*
X151230523Y-108103200D02*
X151325761Y-108150819D01*
X151325761Y-108150819D02*
X151611475Y-108150819D01*
X151611475Y-108150819D02*
X151706713Y-108103200D01*
X151706713Y-108103200D02*
X151754332Y-108055580D01*
X162696523Y-109795819D02*
X162696523Y-110510104D01*
X162696523Y-110510104D02*
X162744142Y-110652961D01*
X162744142Y-110652961D02*
X162839380Y-110748200D01*
X162839380Y-110748200D02*
X162982237Y-110795819D01*
X162982237Y-110795819D02*
X163077475Y-110795819D01*
X162220332Y-110795819D02*
X162220332Y-109795819D01*
X162220332Y-109795819D02*
X161839380Y-109795819D01*
X161839380Y-109795819D02*
X161744142Y-109843438D01*
X161744142Y-109843438D02*
X161696523Y-109891057D01*
X161696523Y-109891057D02*
X161648904Y-109986295D01*
X161648904Y-109986295D02*
X161648904Y-110129152D01*
X161648904Y-110129152D02*
X161696523Y-110224390D01*
X161696523Y-110224390D02*
X161744142Y-110272009D01*
X161744142Y-110272009D02*
X161839380Y-110319628D01*
X161839380Y-110319628D02*
X162220332Y-110319628D01*
X161267951Y-109891057D02*
X161220332Y-109843438D01*
X161220332Y-109843438D02*
X161125094Y-109795819D01*
X161125094Y-109795819D02*
X160886999Y-109795819D01*
X160886999Y-109795819D02*
X160791761Y-109843438D01*
X160791761Y-109843438D02*
X160744142Y-109891057D01*
X160744142Y-109891057D02*
X160696523Y-109986295D01*
X160696523Y-109986295D02*
X160696523Y-110081533D01*
X160696523Y-110081533D02*
X160744142Y-110224390D01*
X160744142Y-110224390D02*
X161315570Y-110795819D01*
X161315570Y-110795819D02*
X160696523Y-110795819D01*
X159839380Y-109795819D02*
X160029856Y-109795819D01*
X160029856Y-109795819D02*
X160125094Y-109843438D01*
X160125094Y-109843438D02*
X160172713Y-109891057D01*
X160172713Y-109891057D02*
X160267951Y-110033914D01*
X160267951Y-110033914D02*
X160315570Y-110224390D01*
X160315570Y-110224390D02*
X160315570Y-110605342D01*
X160315570Y-110605342D02*
X160267951Y-110700580D01*
X160267951Y-110700580D02*
X160220332Y-110748200D01*
X160220332Y-110748200D02*
X160125094Y-110795819D01*
X160125094Y-110795819D02*
X159934618Y-110795819D01*
X159934618Y-110795819D02*
X159839380Y-110748200D01*
X159839380Y-110748200D02*
X159791761Y-110700580D01*
X159791761Y-110700580D02*
X159744142Y-110605342D01*
X159744142Y-110605342D02*
X159744142Y-110367247D01*
X159744142Y-110367247D02*
X159791761Y-110272009D01*
X159791761Y-110272009D02*
X159839380Y-110224390D01*
X159839380Y-110224390D02*
X159934618Y-110176771D01*
X159934618Y-110176771D02*
X160125094Y-110176771D01*
X160125094Y-110176771D02*
X160220332Y-110224390D01*
X160220332Y-110224390D02*
X160267951Y-110272009D01*
X160267951Y-110272009D02*
X160315570Y-110367247D01*
X163701285Y-112595819D02*
X164272713Y-112595819D01*
X163986999Y-112595819D02*
X163986999Y-111595819D01*
X163986999Y-111595819D02*
X164082237Y-111738676D01*
X164082237Y-111738676D02*
X164177475Y-111833914D01*
X164177475Y-111833914D02*
X164272713Y-111881533D01*
X159120332Y-111595819D02*
X158501285Y-111595819D01*
X158501285Y-111595819D02*
X158834618Y-111976771D01*
X158834618Y-111976771D02*
X158691761Y-111976771D01*
X158691761Y-111976771D02*
X158596523Y-112024390D01*
X158596523Y-112024390D02*
X158548904Y-112072009D01*
X158548904Y-112072009D02*
X158501285Y-112167247D01*
X158501285Y-112167247D02*
X158501285Y-112405342D01*
X158501285Y-112405342D02*
X158548904Y-112500580D01*
X158548904Y-112500580D02*
X158596523Y-112548200D01*
X158596523Y-112548200D02*
X158691761Y-112595819D01*
X158691761Y-112595819D02*
X158977475Y-112595819D01*
X158977475Y-112595819D02*
X159072713Y-112548200D01*
X159072713Y-112548200D02*
X159120332Y-112500580D01*
D11*
%TO.C,JP29*%
X136206800Y-62311000D02*
X136206800Y-62911000D01*
X136856800Y-63611000D02*
X139656800Y-63611000D01*
X139656800Y-61611000D02*
X136856800Y-61611000D01*
X140306800Y-62911000D02*
X140306800Y-62311000D01*
X136906800Y-61611000D02*
G75*
G03*
X136206800Y-62311000I-1J-699999D01*
G01*
X136206800Y-62911000D02*
G75*
G03*
X136906800Y-63611000I699999J-1D01*
G01*
X140306800Y-62311000D02*
G75*
G03*
X139606800Y-61611000I-700000J0D01*
G01*
X139606800Y-63611000D02*
G75*
G03*
X140306800Y-62911000I0J700000D01*
G01*
%TO.C,R11*%
X144835200Y-64710264D02*
X144835200Y-63256136D01*
X146655200Y-64710264D02*
X146655200Y-63256136D01*
%TO.C,C2*%
X138889052Y-131720000D02*
X137466548Y-131720000D01*
X138889052Y-129900000D02*
X137466548Y-129900000D01*
%TO.C,R23*%
X143658000Y-94776936D02*
X143658000Y-96231064D01*
X141838000Y-94776936D02*
X141838000Y-96231064D01*
%TO.C,JP27*%
X152001000Y-109936000D02*
X152001000Y-110536000D01*
X152701000Y-111236000D02*
X154101000Y-111236000D01*
X154101000Y-109236000D02*
X152701000Y-109236000D01*
X154801000Y-110536000D02*
X154801000Y-109936000D01*
X152701000Y-109236000D02*
G75*
G03*
X152001000Y-109936000I-1J-699999D01*
G01*
X152001000Y-110536000D02*
G75*
G03*
X152701000Y-111236000I699999J-1D01*
G01*
X154801000Y-109936000D02*
G75*
G03*
X154101000Y-109236000I-700000J0D01*
G01*
X154101000Y-111236000D02*
G75*
G03*
X154801000Y-110536000I0J700000D01*
G01*
%TO.C,R20*%
X141711000Y-89780064D02*
X141711000Y-88325936D01*
X143531000Y-89780064D02*
X143531000Y-88325936D01*
%TO.C,R22*%
X140991000Y-94776936D02*
X140991000Y-96231064D01*
X139171000Y-94776936D02*
X139171000Y-96231064D01*
%TO.C,R24*%
X134091000Y-89653064D02*
X134091000Y-88198936D01*
X135911000Y-89653064D02*
X135911000Y-88198936D01*
%TO.C,JP23*%
X148531800Y-107716600D02*
X148531800Y-107116600D01*
X147881800Y-106416600D02*
X145081800Y-106416600D01*
X145081800Y-108416600D02*
X147881800Y-108416600D01*
X144431800Y-107116600D02*
X144431800Y-107716600D01*
X147831800Y-108416600D02*
G75*
G03*
X148531800Y-107716600I1J699999D01*
G01*
X148531800Y-107116600D02*
G75*
G03*
X147831800Y-106416600I-699999J1D01*
G01*
X144431800Y-107716600D02*
G75*
G03*
X145131800Y-108416600I700000J0D01*
G01*
X145131800Y-106416600D02*
G75*
G03*
X144431800Y-107116600I0J-700000D01*
G01*
%TO.C,R21*%
X138451000Y-94776936D02*
X138451000Y-96231064D01*
X136631000Y-94776936D02*
X136631000Y-96231064D01*
%TO.C,R1*%
X158003136Y-66649000D02*
X159457264Y-66649000D01*
X158003136Y-68469000D02*
X159457264Y-68469000D01*
%TO.C,R25*%
X151871000Y-90161064D02*
X151871000Y-88706936D01*
X153691000Y-90161064D02*
X153691000Y-88706936D01*
%TO.C,C7*%
X179296748Y-110225805D02*
X180719252Y-110225805D01*
X179296748Y-112045805D02*
X180719252Y-112045805D01*
%TO.C,JP25*%
X163437000Y-108891000D02*
X163437000Y-108291000D01*
X162787000Y-107591000D02*
X159987000Y-107591000D01*
X159987000Y-109591000D02*
X162787000Y-109591000D01*
X159337000Y-108291000D02*
X159337000Y-108891000D01*
X162737000Y-109591000D02*
G75*
G03*
X163437000Y-108891000I1J699999D01*
G01*
X163437000Y-108291000D02*
G75*
G03*
X162737000Y-107591000I-699999J1D01*
G01*
X159337000Y-108891000D02*
G75*
G03*
X160037000Y-109591000I700000J0D01*
G01*
X160037000Y-107591000D02*
G75*
G03*
X159337000Y-108291000I0J-700000D01*
G01*
%TO.C,C8*%
X182168748Y-126227805D02*
X183591252Y-126227805D01*
X182168748Y-128047805D02*
X183591252Y-128047805D01*
%TO.C,C3*%
X182549748Y-68178000D02*
X183972252Y-68178000D01*
X182549748Y-69998000D02*
X183972252Y-69998000D01*
%TO.C,JP21*%
X161689000Y-104186000D02*
X161689000Y-103586000D01*
X161039000Y-102886000D02*
X158239000Y-102886000D01*
X158239000Y-104886000D02*
X161039000Y-104886000D01*
X157589000Y-103586000D02*
X157589000Y-104186000D01*
X160989000Y-104886000D02*
G75*
G03*
X161689000Y-104186000I1J699999D01*
G01*
X161689000Y-103586000D02*
G75*
G03*
X160989000Y-102886000I-699999J1D01*
G01*
X157589000Y-104186000D02*
G75*
G03*
X158289000Y-104886000I700000J0D01*
G01*
X158289000Y-102886000D02*
G75*
G03*
X157589000Y-103586000I0J-700000D01*
G01*
%TO.C,R10*%
X156865864Y-66056000D02*
X155411736Y-66056000D01*
X156865864Y-64236000D02*
X155411736Y-64236000D01*
%TO.C,R9*%
X156204864Y-71263000D02*
X154750736Y-71263000D01*
X156204864Y-69443000D02*
X154750736Y-69443000D01*
%TO.C,C6*%
X175535000Y-117741553D02*
X175535000Y-119164057D01*
X173715000Y-117741553D02*
X173715000Y-119164057D01*
%TO.C,JP22*%
X156101000Y-104186000D02*
X156101000Y-103586000D01*
X155451000Y-102886000D02*
X152651000Y-102886000D01*
X152651000Y-104886000D02*
X155451000Y-104886000D01*
X152001000Y-103586000D02*
X152001000Y-104186000D01*
X155401000Y-104886000D02*
G75*
G03*
X156101000Y-104186000I1J699999D01*
G01*
X156101000Y-103586000D02*
G75*
G03*
X155401000Y-102886000I-699999J1D01*
G01*
X152001000Y-104186000D02*
G75*
G03*
X152701000Y-104886000I700000J0D01*
G01*
X152701000Y-102886000D02*
G75*
G03*
X152001000Y-103586000I0J-700000D01*
G01*
%TO.C,JP24*%
X156071000Y-107996000D02*
X156071000Y-107396000D01*
X155421000Y-106696000D02*
X152621000Y-106696000D01*
X152621000Y-108696000D02*
X155421000Y-108696000D01*
X151971000Y-107396000D02*
X151971000Y-107996000D01*
X155371000Y-108696000D02*
G75*
G03*
X156071000Y-107996000I1J699999D01*
G01*
X156071000Y-107396000D02*
G75*
G03*
X155371000Y-106696000I-699999J1D01*
G01*
X151971000Y-107996000D02*
G75*
G03*
X152671000Y-108696000I700000J0D01*
G01*
X152671000Y-106696000D02*
G75*
G03*
X151971000Y-107396000I0J-700000D01*
G01*
%TO.C,JP26*%
X163437000Y-112441000D02*
X163437000Y-111841000D01*
X162787000Y-111141000D02*
X159987000Y-111141000D01*
X159987000Y-113141000D02*
X162787000Y-113141000D01*
X159337000Y-111841000D02*
X159337000Y-112441000D01*
X162737000Y-113141000D02*
G75*
G03*
X163437000Y-112441000I1J699999D01*
G01*
X163437000Y-111841000D02*
G75*
G03*
X162737000Y-111141000I-699999J1D01*
G01*
X159337000Y-112441000D02*
G75*
G03*
X160037000Y-113141000I700000J0D01*
G01*
X160037000Y-111141000D02*
G75*
G03*
X159337000Y-111841000I0J-700000D01*
G01*
%TD*%
M02*
