%TF.GenerationSoftware,KiCad,Pcbnew,7.0.9-7.0.9~ubuntu20.04.1*%
%TF.CreationDate,2023-12-28T04:39:14+01:00*%
%TF.ProjectId,M50747_SDIP,4d353037-3437-45f5-9344-49502e6b6963,rev?*%
%TF.SameCoordinates,Original*%
%TF.FileFunction,Copper,L2,Bot*%
%TF.FilePolarity,Positive*%
%FSLAX46Y46*%
G04 Gerber Fmt 4.6, Leading zero omitted, Abs format (unit mm)*
G04 Created by KiCad (PCBNEW 7.0.9-7.0.9~ubuntu20.04.1) date 2023-12-28 04:39:14*
%MOMM*%
%LPD*%
G01*
G04 APERTURE LIST*
G04 Aperture macros list*
%AMRoundRect*
0 Rectangle with rounded corners*
0 $1 Rounding radius*
0 $2 $3 $4 $5 $6 $7 $8 $9 X,Y pos of 4 corners*
0 Add a 4 corners polygon primitive as box body*
4,1,4,$2,$3,$4,$5,$6,$7,$8,$9,$2,$3,0*
0 Add four circle primitives for the rounded corners*
1,1,$1+$1,$2,$3*
1,1,$1+$1,$4,$5*
1,1,$1+$1,$6,$7*
1,1,$1+$1,$8,$9*
0 Add four rect primitives between the rounded corners*
20,1,$1+$1,$2,$3,$4,$5,0*
20,1,$1+$1,$4,$5,$6,$7,0*
20,1,$1+$1,$6,$7,$8,$9,0*
20,1,$1+$1,$8,$9,$2,$3,0*%
G04 Aperture macros list end*
%TA.AperFunction,SMDPad,CuDef*%
%ADD10RoundRect,0.250000X0.312500X0.625000X-0.312500X0.625000X-0.312500X-0.625000X0.312500X-0.625000X0*%
%TD*%
%TA.AperFunction,ComponentPad*%
%ADD11R,1.350000X1.350000*%
%TD*%
%TA.AperFunction,ComponentPad*%
%ADD12R,1.600000X1.600000*%
%TD*%
%TA.AperFunction,ComponentPad*%
%ADD13O,1.600000X1.600000*%
%TD*%
%TA.AperFunction,ComponentPad*%
%ADD14R,1.700000X1.700000*%
%TD*%
%TA.AperFunction,ComponentPad*%
%ADD15O,1.700000X1.700000*%
%TD*%
%TA.AperFunction,ComponentPad*%
%ADD16O,1.200000X2.000000*%
%TD*%
%TA.AperFunction,ViaPad*%
%ADD17C,0.800000*%
%TD*%
%TA.AperFunction,Conductor*%
%ADD18C,0.400000*%
%TD*%
%TA.AperFunction,Conductor*%
%ADD19C,0.250000*%
%TD*%
G04 APERTURE END LIST*
D10*
%TO.P,R1,1*%
%TO.N,Net-(JP1-C)*%
X222127000Y-71120000D03*
%TO.P,R1,2*%
%TO.N,Net-(J2-Pin_1)*%
X219202000Y-71120000D03*
%TD*%
D11*
%TO.P,J2,1,Pin_1*%
%TO.N,Net-(J2-Pin_1)*%
X216662000Y-71120000D03*
%TD*%
%TO.P,J4,1,Pin_1*%
%TO.N,Net-(J4-Pin_1)*%
X183896000Y-40640000D03*
%TD*%
D12*
%TO.P,U3,1,VSS*%
%TO.N,GND*%
X173736000Y-52730400D03*
D13*
%TO.P,U3,2,~{HALT}*%
%TO.N,/~{HALT}*%
X176276000Y-52730400D03*
%TO.P,U3,3,MR*%
%TO.N,Net-(J3-Pin_1)*%
X178816000Y-52730400D03*
%TO.P,U3,4,~{IRQ}*%
%TO.N,/~{IRQ1}*%
X181356000Y-52730400D03*
%TO.P,U3,5,VMA*%
%TO.N,Net-(J6-Pin_1)*%
X183896000Y-52730400D03*
%TO.P,U3,6,~{NMI}*%
%TO.N,/~{NMI}*%
X186436000Y-52730400D03*
%TO.P,U3,7,BA*%
%TO.N,/BA*%
X188976000Y-52730400D03*
%TO.P,U3,8,VCC*%
%TO.N,+5V*%
X191516000Y-52730400D03*
%TO.P,U3,9,A0*%
%TO.N,/A0*%
X194056000Y-52730400D03*
%TO.P,U3,10,A1*%
%TO.N,/A1*%
X196596000Y-52730400D03*
%TO.P,U3,11,A2*%
%TO.N,/A2*%
X199136000Y-52730400D03*
%TO.P,U3,12,A3*%
%TO.N,/A3*%
X201676000Y-52730400D03*
%TO.P,U3,13,A4*%
%TO.N,/A4*%
X204216000Y-52730400D03*
%TO.P,U3,14,A5*%
%TO.N,/A5*%
X206756000Y-52730400D03*
%TO.P,U3,15,A6*%
%TO.N,/A6*%
X209296000Y-52730400D03*
%TO.P,U3,16,A7*%
%TO.N,/A7*%
X211836000Y-52730400D03*
%TO.P,U3,17,A8*%
%TO.N,/A8*%
X214376000Y-52730400D03*
%TO.P,U3,18,A9*%
%TO.N,/A9*%
X216916000Y-52730400D03*
%TO.P,U3,19,A10*%
%TO.N,/A10*%
X219456000Y-52730400D03*
%TO.P,U3,20,A11*%
%TO.N,/A11*%
X221996000Y-52730400D03*
%TO.P,U3,21,VSS*%
%TO.N,GND*%
X221996000Y-37490400D03*
%TO.P,U3,22,A12*%
%TO.N,/A12*%
X219456000Y-37490400D03*
%TO.P,U3,23,A13*%
%TO.N,/A13*%
X216916000Y-37490400D03*
%TO.P,U3,24,A14*%
%TO.N,/A14*%
X214376000Y-37490400D03*
%TO.P,U3,25,A15*%
%TO.N,/A15*%
X211836000Y-37490400D03*
%TO.P,U3,26,D7*%
%TO.N,/D7*%
X209296000Y-37490400D03*
%TO.P,U3,27,D6*%
%TO.N,/D6*%
X206756000Y-37490400D03*
%TO.P,U3,28,D5*%
%TO.N,/D5*%
X204216000Y-37490400D03*
%TO.P,U3,29,D4*%
%TO.N,/D4*%
X201676000Y-37490400D03*
%TO.P,U3,30,D3*%
%TO.N,/D3*%
X199136000Y-37490400D03*
%TO.P,U3,31,D2*%
%TO.N,/D2*%
X196596000Y-37490400D03*
%TO.P,U3,32,D1*%
%TO.N,/D1*%
X194056000Y-37490400D03*
%TO.P,U3,33,D0*%
%TO.N,/D0*%
X191516000Y-37490400D03*
%TO.P,U3,34,R/~{W}*%
%TO.N,/R{slash}~{W}*%
X188976000Y-37490400D03*
%TO.P,U3,35,VCC_STANDBY*%
%TO.N,+5C*%
X186436000Y-37490400D03*
%TO.P,U3,36,RE*%
%TO.N,Net-(J4-Pin_1)*%
X183896000Y-37490400D03*
%TO.P,U3,37,E*%
%TO.N,/PHI2*%
X181356000Y-37490400D03*
%TO.P,U3,38,XTAL*%
%TO.N,GND*%
X178816000Y-37490400D03*
%TO.P,U3,39,EXTAL*%
%TO.N,/CPUCLK*%
X176276000Y-37490400D03*
%TO.P,U3,40,~{RESET}*%
%TO.N,/~{RST}*%
X173736000Y-37490400D03*
%TD*%
D14*
%TO.P,J1,1,Pin_1*%
%TO.N,GND*%
X166878000Y-81026000D03*
D15*
%TO.P,J1,2,Pin_2*%
%TO.N,/SYNC*%
X164338000Y-81026000D03*
%TO.P,J1,3,Pin_3*%
%TO.N,/P33*%
X166878000Y-78486000D03*
%TO.P,J1,4,Pin_4*%
%TO.N,/P34*%
X164338000Y-78486000D03*
%TO.P,J1,5,Pin_5*%
%TO.N,/P35*%
X166878000Y-75946000D03*
%TO.P,J1,6,Pin_6*%
%TO.N,/P36*%
X164338000Y-75946000D03*
%TO.P,J1,7,Pin_7*%
%TO.N,/P37*%
X166878000Y-73406000D03*
%TO.P,J1,8,Pin_8*%
%TO.N,/P67*%
X164338000Y-73406000D03*
%TO.P,J1,9,Pin_9*%
%TO.N,/P66*%
X166878000Y-70866000D03*
%TO.P,J1,10,Pin_10*%
%TO.N,/P65*%
X164338000Y-70866000D03*
%TO.P,J1,11,Pin_11*%
%TO.N,/P64*%
X166878000Y-68326000D03*
%TO.P,J1,12,Pin_12*%
%TO.N,/P63*%
X164338000Y-68326000D03*
%TO.P,J1,13,Pin_13*%
%TO.N,/P62*%
X166878000Y-65786000D03*
%TO.P,J1,14,Pin_14*%
%TO.N,/P61*%
X164338000Y-65786000D03*
%TO.P,J1,15,Pin_15*%
%TO.N,/P60*%
X166878000Y-63246000D03*
%TO.P,J1,16,Pin_16*%
%TO.N,/P47*%
X164338000Y-63246000D03*
%TO.P,J1,17,Pin_17*%
%TO.N,/P46*%
X166878000Y-60706000D03*
%TO.P,J1,18,Pin_18*%
%TO.N,/P45*%
X164338000Y-60706000D03*
%TO.P,J1,19,Pin_19*%
%TO.N,/P44*%
X166878000Y-58166000D03*
%TO.P,J1,20,Pin_20*%
%TO.N,/P43*%
X164338000Y-58166000D03*
%TO.P,J1,21,Pin_21*%
%TO.N,/P42*%
X166878000Y-55626000D03*
%TO.P,J1,22,Pin_22*%
%TO.N,/P41*%
X164338000Y-55626000D03*
%TO.P,J1,23,Pin_23*%
%TO.N,/P40*%
X166878000Y-53086000D03*
%TO.P,J1,24,Pin_24*%
%TO.N,/P57*%
X164338000Y-53086000D03*
%TO.P,J1,25,Pin_25*%
%TO.N,/P56*%
X166878000Y-50546000D03*
%TO.P,J1,26,Pin_26*%
%TO.N,/P55*%
X164338000Y-50546000D03*
%TO.P,J1,27,Pin_27*%
%TO.N,/P54*%
X166878000Y-48006000D03*
%TO.P,J1,28,Pin_28*%
%TO.N,/P53*%
X164338000Y-48006000D03*
%TO.P,J1,29,Pin_29*%
%TO.N,/P52*%
X166878000Y-45466000D03*
%TO.P,J1,30,Pin_30*%
%TO.N,/P51*%
X164338000Y-45466000D03*
%TO.P,J1,31,Pin_31*%
%TO.N,/P50*%
X166878000Y-42926000D03*
%TO.P,J1,32,Pin_32*%
%TO.N,+5V*%
X164338000Y-42926000D03*
%TD*%
D11*
%TO.P,J7,1,Pin_1*%
%TO.N,/BA*%
X181229000Y-55118000D03*
%TD*%
%TO.P,J6,1,Pin_1*%
%TO.N,Net-(J6-Pin_1)*%
X183896000Y-55118000D03*
%TD*%
D16*
%TO.P,U1,1,Vcc*%
%TO.N,+5V*%
X174371000Y-66929000D03*
%TO.P,U1,2,P67*%
%TO.N,/P67*%
X176149000Y-66929000D03*
%TO.P,U1,3,P66*%
%TO.N,/P66*%
X177927000Y-66929000D03*
%TO.P,U1,4,P65*%
%TO.N,/P65*%
X179705000Y-66929000D03*
%TO.P,U1,5,P64*%
%TO.N,/P64*%
X181483000Y-66929000D03*
%TO.P,U1,6,P63*%
%TO.N,/P63*%
X183261000Y-66929000D03*
%TO.P,U1,7,P62*%
%TO.N,/P62*%
X185039000Y-66929000D03*
%TO.P,U1,8,P61*%
%TO.N,/P61*%
X186817000Y-66929000D03*
%TO.P,U1,9,P60*%
%TO.N,/P60*%
X188595000Y-66929000D03*
%TO.P,U1,10,P47*%
%TO.N,/P47*%
X190373000Y-66929000D03*
%TO.P,U1,11,P46*%
%TO.N,/P46*%
X192151000Y-66929000D03*
%TO.P,U1,12,P45*%
%TO.N,/P45*%
X193929000Y-66929000D03*
%TO.P,U1,13,P44*%
%TO.N,/P44*%
X195707000Y-66929000D03*
%TO.P,U1,14,P43*%
%TO.N,/P43*%
X197485000Y-66929000D03*
%TO.P,U1,15,P42*%
%TO.N,/P42*%
X199263000Y-66929000D03*
%TO.P,U1,16,P41*%
%TO.N,/P41*%
X201041000Y-66929000D03*
%TO.P,U1,17,P40*%
%TO.N,/P40*%
X202819000Y-66929000D03*
%TO.P,U1,18,P37/SRDY*%
%TO.N,/P37*%
X204597000Y-66929000D03*
%TO.P,U1,19,P36/CLK*%
%TO.N,/P36*%
X206375000Y-66929000D03*
%TO.P,U1,20,P35/TxD*%
%TO.N,/P35*%
X208153000Y-66929000D03*
%TO.P,U1,21,P34/RxD*%
%TO.N,/P34*%
X209931000Y-66929000D03*
%TO.P,U1,22,P33/CNTR*%
%TO.N,/P33*%
X211709000Y-66929000D03*
%TO.P,U1,23,P32/~{INT2}*%
%TO.N,/~{NMI}*%
X213487000Y-66929000D03*
%TO.P,U1,24,P31/SYNC*%
%TO.N,/SYNC*%
X215265000Y-66929000D03*
%TO.P,U1,25,P30/R/~{W}*%
%TO.N,/R{slash}~{W}*%
X217043000Y-66929000D03*
%TO.P,U1,26,~{INT1}*%
%TO.N,/~{IRQ1}*%
X218821000Y-66929000D03*
%TO.P,U1,27,CNVSS*%
%TO.N,Net-(JP1-C)*%
X220599000Y-66929000D03*
%TO.P,U1,28,~{RST}*%
%TO.N,/~{RST}*%
X222377000Y-66929000D03*
%TO.P,U1,29,EXTAL/CLK*%
%TO.N,/CPUCLK*%
X224155000Y-66929000D03*
%TO.P,U1,30,XTAL*%
%TO.N,unconnected-(U1-XTAL-Pad30)*%
X225933000Y-66929000D03*
%TO.P,U1,31,PHI*%
%TO.N,/PHI2*%
X227711000Y-66929000D03*
%TO.P,U1,32,GND*%
%TO.N,GND*%
X229489000Y-66929000D03*
%TO.P,U1,33,P57*%
%TO.N,/P57*%
X229489000Y-47879000D03*
%TO.P,U1,34,P56*%
%TO.N,/P56*%
X227711000Y-47879000D03*
%TO.P,U1,35,P55*%
%TO.N,/P55*%
X225933000Y-47879000D03*
%TO.P,U1,36,P54*%
%TO.N,/P54*%
X224155000Y-47879000D03*
%TO.P,U1,37,P53*%
%TO.N,/P53*%
X222377000Y-47879000D03*
%TO.P,U1,38,P52*%
%TO.N,/P52*%
X220599000Y-47879000D03*
%TO.P,U1,39,P51*%
%TO.N,/P51*%
X218821000Y-47879000D03*
%TO.P,U1,40,P50*%
%TO.N,/P50*%
X217043000Y-47879000D03*
%TO.P,U1,41,A15*%
%TO.N,/A15*%
X215265000Y-47879000D03*
%TO.P,U1,42,A14*%
%TO.N,/A14*%
X213487000Y-47879000D03*
%TO.P,U1,43,A13*%
%TO.N,/A13*%
X211709000Y-47879000D03*
%TO.P,U1,44,A12*%
%TO.N,/A12*%
X209931000Y-47879000D03*
%TO.P,U1,45,A11*%
%TO.N,/A11*%
X208153000Y-47879000D03*
%TO.P,U1,46,A10*%
%TO.N,/A10*%
X206375000Y-47879000D03*
%TO.P,U1,47,A9*%
%TO.N,/A9*%
X204597000Y-47879000D03*
%TO.P,U1,48,A8*%
%TO.N,/A8*%
X202819000Y-47879000D03*
%TO.P,U1,49,A7*%
%TO.N,/A7*%
X201041000Y-47879000D03*
%TO.P,U1,50,A6*%
%TO.N,/A6*%
X199263000Y-47879000D03*
%TO.P,U1,51,A5*%
%TO.N,/A5*%
X197485000Y-47879000D03*
%TO.P,U1,52,A4*%
%TO.N,/A4*%
X195707000Y-47879000D03*
%TO.P,U1,53,A3*%
%TO.N,/A3*%
X193929000Y-47879000D03*
%TO.P,U1,54,A2*%
%TO.N,/A2*%
X192151000Y-47879000D03*
%TO.P,U1,55,A1*%
%TO.N,/A1*%
X190373000Y-47879000D03*
%TO.P,U1,56,A0*%
%TO.N,/A0*%
X188595000Y-47879000D03*
%TO.P,U1,57,D7*%
%TO.N,/D7*%
X186817000Y-47879000D03*
%TO.P,U1,58,D6*%
%TO.N,/D6*%
X185039000Y-47879000D03*
%TO.P,U1,59,D5*%
%TO.N,/D5*%
X183261000Y-47879000D03*
%TO.P,U1,60,D4*%
%TO.N,/D4*%
X181483000Y-47879000D03*
%TO.P,U1,61,D3*%
%TO.N,/D3*%
X179705000Y-47879000D03*
%TO.P,U1,62,D2*%
%TO.N,/D2*%
X177927000Y-47879000D03*
%TO.P,U1,63,D1*%
%TO.N,/D1*%
X176149000Y-47879000D03*
%TO.P,U1,64,D0*%
%TO.N,/D0*%
X174371000Y-47879000D03*
%TD*%
D11*
%TO.P,J8,1,Pin_1*%
%TO.N,/~{HALT}*%
X176276000Y-55118000D03*
%TD*%
%TO.P,J3,1,Pin_1*%
%TO.N,Net-(J3-Pin_1)*%
X178816000Y-55118000D03*
%TD*%
D17*
%TO.N,+5V*%
X221996000Y-74422000D03*
X224282000Y-71120000D03*
%TO.N,/R{slash}~{W}*%
X185928000Y-50419000D03*
%TO.N,/P67*%
X170307000Y-70104000D03*
%TD*%
D18*
%TO.N,+5V*%
X221996000Y-74422000D02*
X221996000Y-73406000D01*
X221996000Y-73406000D02*
X224282000Y-71120000D01*
%TO.N,Net-(J2-Pin_1)*%
X219202000Y-71120000D02*
X216662000Y-71120000D01*
%TO.N,Net-(JP1-C)*%
X222127000Y-71120000D02*
X220599000Y-69592000D01*
X220599000Y-69592000D02*
X220599000Y-66929000D01*
%TO.N,+5V*%
X190181600Y-51396000D02*
X191516000Y-52730400D01*
X164338000Y-42926000D02*
X165588000Y-41676000D01*
X167395767Y-41676000D02*
X172839000Y-47119233D01*
X172839000Y-47119233D02*
X172839000Y-49411746D01*
X172839000Y-49411746D02*
X174823254Y-51396000D01*
X174823254Y-51396000D02*
X190181600Y-51396000D01*
X165588000Y-41676000D02*
X167395767Y-41676000D01*
D19*
%TO.N,/P50*%
X220769400Y-51605400D02*
X217043000Y-47879000D01*
X223121000Y-53196391D02*
X223121000Y-52264409D01*
X185520228Y-56151000D02*
X187417228Y-54254000D01*
X172212000Y-53838228D02*
X174524772Y-56151000D01*
X166878000Y-42926000D02*
X172212000Y-48260000D01*
X223121000Y-52264409D02*
X222461991Y-51605400D01*
X172212000Y-48260000D02*
X172212000Y-53838228D01*
X187417228Y-54254000D02*
X222063391Y-54254000D01*
X222461991Y-51605400D02*
X220769400Y-51605400D01*
X174524772Y-56151000D02*
X185520228Y-56151000D01*
X222063391Y-54254000D02*
X223121000Y-53196391D01*
%TO.N,/P47*%
X190373000Y-66529000D02*
X190373000Y-66929000D01*
X165703000Y-61881000D02*
X170212000Y-61881000D01*
X164338000Y-63246000D02*
X165703000Y-61881000D01*
X171232000Y-62901000D02*
X186745000Y-62901000D01*
X170212000Y-61881000D02*
X171232000Y-62901000D01*
X186745000Y-62901000D02*
X190373000Y-66529000D01*
%TO.N,/P46*%
X169856624Y-60706000D02*
X171601624Y-62451000D01*
X171601624Y-62451000D02*
X188073000Y-62451000D01*
X188073000Y-62451000D02*
X192151000Y-66529000D01*
X192151000Y-66529000D02*
X192151000Y-66929000D01*
X166878000Y-60706000D02*
X169856624Y-60706000D01*
%TO.N,/~{RST}*%
X231336000Y-41723604D02*
X231336000Y-67750396D01*
X231336000Y-67750396D02*
X230056396Y-69030000D01*
X177132400Y-34094000D02*
X223706396Y-34094000D01*
X173736000Y-37490400D02*
X177132400Y-34094000D01*
X230056396Y-69030000D02*
X224478000Y-69030000D01*
X224478000Y-69030000D02*
X222377000Y-66929000D01*
X223706396Y-34094000D02*
X231336000Y-41723604D01*
%TO.N,/P45*%
X193929000Y-66529000D02*
X193929000Y-66929000D01*
X189401000Y-62001000D02*
X193929000Y-66529000D01*
X169387396Y-59531000D02*
X171857396Y-62001000D01*
X164338000Y-60706000D02*
X165513000Y-59531000D01*
X165513000Y-59531000D02*
X169387396Y-59531000D01*
X171857396Y-62001000D02*
X189401000Y-62001000D01*
%TO.N,/P44*%
X168658792Y-58166000D02*
X172043792Y-61551000D01*
X172043792Y-61551000D02*
X190729000Y-61551000D01*
X166878000Y-58166000D02*
X168658792Y-58166000D01*
X195707000Y-66529000D02*
X195707000Y-66929000D01*
X190729000Y-61551000D02*
X195707000Y-66529000D01*
%TO.N,/A15*%
X213861000Y-35465400D02*
X211836000Y-37490400D01*
X222663400Y-35465400D02*
X213861000Y-35465400D01*
X215265000Y-47879000D02*
X223571000Y-39573000D01*
X223571000Y-36373000D02*
X222663400Y-35465400D01*
X223571000Y-39573000D02*
X223571000Y-36373000D01*
%TO.N,/A14*%
X223121000Y-38245000D02*
X223121000Y-36559396D01*
X222477004Y-35915400D02*
X215951000Y-35915400D01*
X213487000Y-47879000D02*
X223121000Y-38245000D01*
X223121000Y-36559396D02*
X222477004Y-35915400D01*
X215951000Y-35915400D02*
X214376000Y-37490400D01*
%TO.N,/A13*%
X220871000Y-37314409D02*
X219921991Y-36365400D01*
X219921991Y-36365400D02*
X218041000Y-36365400D01*
X220871000Y-38717000D02*
X220871000Y-37314409D01*
X211709000Y-47879000D02*
X220871000Y-38717000D01*
X218041000Y-36365400D02*
X216916000Y-37490400D01*
%TO.N,/A12*%
X209931000Y-47015400D02*
X219456000Y-37490400D01*
X209931000Y-47879000D02*
X209931000Y-47015400D01*
%TO.N,/A11*%
X210079400Y-49805400D02*
X218333004Y-49805400D01*
X208153000Y-47879000D02*
X210079400Y-49805400D01*
X218333004Y-49805400D02*
X221258004Y-52730400D01*
X221258004Y-52730400D02*
X221996000Y-52730400D01*
%TO.N,/A10*%
X206375000Y-47879000D02*
X208751400Y-50255400D01*
X208751400Y-50255400D02*
X216981000Y-50255400D01*
X216981000Y-50255400D02*
X219456000Y-52730400D01*
%TO.N,/A9*%
X204597000Y-47879000D02*
X206973400Y-50255400D01*
X208115004Y-50255400D02*
X208565004Y-50705400D01*
X206973400Y-50255400D02*
X208115004Y-50255400D01*
X214891000Y-50705400D02*
X216916000Y-52730400D01*
X208565004Y-50705400D02*
X214891000Y-50705400D01*
%TO.N,/A8*%
X205531779Y-50546000D02*
X206627604Y-50546000D01*
X207928608Y-50705400D02*
X208378608Y-51155400D01*
X202864779Y-47879000D02*
X205531779Y-50546000D01*
X206787004Y-50705400D02*
X207928608Y-50705400D01*
X208378608Y-51155400D02*
X212801000Y-51155400D01*
X202819000Y-47879000D02*
X202864779Y-47879000D01*
X206627604Y-50546000D02*
X206787004Y-50705400D01*
X212801000Y-51155400D02*
X214376000Y-52730400D01*
%TO.N,/D7*%
X188181000Y-46515000D02*
X186817000Y-47879000D01*
X209296000Y-37490400D02*
X200271400Y-46515000D01*
X200271400Y-46515000D02*
X188181000Y-46515000D01*
%TO.N,/D6*%
X198181400Y-46065000D02*
X186853000Y-46065000D01*
X206756000Y-37490400D02*
X198181400Y-46065000D01*
X186853000Y-46065000D02*
X185039000Y-47879000D01*
%TO.N,/D5*%
X196091400Y-45615000D02*
X185525000Y-45615000D01*
X204216000Y-37490400D02*
X196091400Y-45615000D01*
X185525000Y-45615000D02*
X183261000Y-47879000D01*
%TO.N,/D4*%
X201676000Y-37490400D02*
X194001400Y-45165000D01*
X194001400Y-45165000D02*
X184197000Y-45165000D01*
X184197000Y-45165000D02*
X181483000Y-47879000D01*
%TO.N,/D3*%
X199136000Y-37490400D02*
X191911400Y-44715000D01*
X191911400Y-44715000D02*
X182869000Y-44715000D01*
X182869000Y-44715000D02*
X179705000Y-47879000D01*
%TO.N,/D2*%
X181541000Y-44265000D02*
X177927000Y-47879000D01*
X196596000Y-37490400D02*
X189821400Y-44265000D01*
X189821400Y-44265000D02*
X181541000Y-44265000D01*
%TO.N,/D1*%
X187731400Y-43815000D02*
X180213000Y-43815000D01*
X180213000Y-43815000D02*
X176149000Y-47879000D01*
X194056000Y-37490400D02*
X187731400Y-43815000D01*
%TO.N,/D0*%
X191516000Y-37490400D02*
X185699400Y-43307000D01*
X185699400Y-43307000D02*
X178943000Y-43307000D01*
X178943000Y-43307000D02*
X174371000Y-47879000D01*
%TO.N,/R{slash}~{W}*%
X173364000Y-44060000D02*
X174625000Y-42799000D01*
X185928000Y-50419000D02*
X174588716Y-50419000D01*
X174588716Y-50419000D02*
X173364000Y-49194284D01*
X173364000Y-49194284D02*
X173364000Y-44060000D01*
X174625000Y-42799000D02*
X183667400Y-42799000D01*
X183667400Y-42799000D02*
X188976000Y-37490400D01*
D18*
%TO.N,Net-(J6-Pin_1)*%
X183896000Y-55118000D02*
X183896000Y-52730400D01*
D19*
%TO.N,/A0*%
X188595000Y-47879000D02*
X193446400Y-52730400D01*
X193446400Y-52730400D02*
X194056000Y-52730400D01*
%TO.N,/A1*%
X196366004Y-52730400D02*
X196596000Y-52730400D01*
X190373000Y-47879000D02*
X194099400Y-51605400D01*
X195241004Y-51605400D02*
X196366004Y-52730400D01*
X194099400Y-51605400D02*
X195241004Y-51605400D01*
%TO.N,/A2*%
X197061991Y-51605400D02*
X198186991Y-52730400D01*
X195877400Y-51605400D02*
X197061991Y-51605400D01*
X198186991Y-52730400D02*
X199136000Y-52730400D01*
X192151000Y-47879000D02*
X195877400Y-51605400D01*
%TO.N,/A3*%
X193971987Y-47879000D02*
X197698387Y-51605400D01*
X197698387Y-51605400D02*
X199938608Y-51605400D01*
X193929000Y-47879000D02*
X193971987Y-47879000D01*
X199938608Y-51605400D02*
X201063608Y-52730400D01*
X201063608Y-52730400D02*
X201676000Y-52730400D01*
%TO.N,/A4*%
X203983212Y-52730400D02*
X204216000Y-52730400D01*
X202858212Y-51605400D02*
X203983212Y-52730400D01*
X200125004Y-51155400D02*
X200575004Y-51605400D01*
X198983400Y-51155400D02*
X200125004Y-51155400D01*
X200575004Y-51605400D02*
X202858212Y-51605400D01*
X195707000Y-47879000D02*
X198983400Y-51155400D01*
%TO.N,/A5*%
X203494608Y-51605400D02*
X204681991Y-51605400D01*
X204681991Y-51605400D02*
X205806991Y-52730400D01*
X203044608Y-51155400D02*
X203494608Y-51605400D01*
X200761400Y-51155400D02*
X203044608Y-51155400D01*
X205806991Y-52730400D02*
X206756000Y-52730400D01*
X197485000Y-47879000D02*
X200761400Y-51155400D01*
%TO.N,/A6*%
X205318387Y-51605400D02*
X207555816Y-51605400D01*
X199263000Y-47879000D02*
X202089400Y-50705400D01*
X204868387Y-51155400D02*
X205318387Y-51605400D01*
X203681004Y-51155400D02*
X204868387Y-51155400D01*
X203231004Y-50705400D02*
X203681004Y-51155400D01*
X208680816Y-52730400D02*
X209296000Y-52730400D01*
X207555816Y-51605400D02*
X208680816Y-52730400D01*
X202089400Y-50705400D02*
X203231004Y-50705400D01*
%TO.N,/A7*%
X203867400Y-50705400D02*
X205054783Y-50705400D01*
X205054783Y-50705400D02*
X205504783Y-51155400D01*
X201041000Y-47879000D02*
X203867400Y-50705400D01*
X207742212Y-51155400D02*
X208192212Y-51605400D01*
X208192212Y-51605400D02*
X210711000Y-51605400D01*
X205504783Y-51155400D02*
X207742212Y-51155400D01*
X210711000Y-51605400D02*
X211836000Y-52730400D01*
%TO.N,/PHI2*%
X223541400Y-34565400D02*
X177610009Y-34565400D01*
X175151000Y-37024409D02*
X175151000Y-37956391D01*
X230886000Y-41910000D02*
X223541400Y-34565400D01*
X177610009Y-34565400D02*
X175151000Y-37024409D01*
X230886000Y-63754000D02*
X230886000Y-41910000D01*
X176056609Y-38862000D02*
X179984400Y-38862000D01*
X175151000Y-37956391D02*
X176056609Y-38862000D01*
X179984400Y-38862000D02*
X181356000Y-37490400D01*
X227711000Y-66929000D02*
X230886000Y-63754000D01*
%TO.N,/CPUCLK*%
X178751000Y-35015400D02*
X223229400Y-35015400D01*
X230436000Y-42222000D02*
X230436000Y-60648000D01*
X223229400Y-35015400D02*
X230436000Y-42222000D01*
X230436000Y-60648000D02*
X224155000Y-66929000D01*
X176276000Y-37490400D02*
X178751000Y-35015400D01*
%TO.N,/P43*%
X192057000Y-61101000D02*
X197485000Y-66529000D01*
X172230188Y-61101000D02*
X192057000Y-61101000D01*
X164338000Y-58166000D02*
X165513000Y-56991000D01*
X168120188Y-56991000D02*
X172230188Y-61101000D01*
X165513000Y-56991000D02*
X168120188Y-56991000D01*
X197485000Y-66529000D02*
X197485000Y-66929000D01*
%TO.N,/P42*%
X193385000Y-60651000D02*
X199263000Y-66529000D01*
X166878000Y-55626000D02*
X167391584Y-55626000D01*
X172416584Y-60651000D02*
X193385000Y-60651000D01*
X167391584Y-55626000D02*
X172416584Y-60651000D01*
X199263000Y-66529000D02*
X199263000Y-66929000D01*
%TO.N,/P41*%
X201041000Y-66529000D02*
X201041000Y-66929000D01*
X165513000Y-54451000D02*
X167862000Y-54451000D01*
X168148000Y-54737000D02*
X168148000Y-55651000D01*
X167862000Y-54451000D02*
X168148000Y-54737000D01*
X164338000Y-55626000D02*
X165513000Y-54451000D01*
X194713000Y-60201000D02*
X201041000Y-66529000D01*
X172698000Y-60201000D02*
X194713000Y-60201000D01*
X168148000Y-55651000D02*
X172698000Y-60201000D01*
D18*
%TO.N,Net-(J3-Pin_1)*%
X178816000Y-52730400D02*
X178816000Y-55118000D01*
D19*
%TO.N,/P40*%
X202819000Y-66529000D02*
X196041000Y-59751000D01*
X168598000Y-53603919D02*
X168080081Y-53086000D01*
X168080081Y-53086000D02*
X166878000Y-53086000D01*
X202819000Y-66929000D02*
X202819000Y-66529000D01*
X172952000Y-59751000D02*
X168598000Y-55397000D01*
X168598000Y-55397000D02*
X168598000Y-53603919D01*
X196041000Y-59751000D02*
X172952000Y-59751000D01*
%TO.N,/P51*%
X167364701Y-44291000D02*
X171762000Y-48688299D01*
X223571000Y-52078013D02*
X222648387Y-51155400D01*
X223571000Y-53382787D02*
X223571000Y-52078013D01*
X165513000Y-44291000D02*
X167364701Y-44291000D01*
X171762000Y-48688299D02*
X171762000Y-54024624D01*
X174338376Y-56601000D02*
X185706624Y-56601000D01*
X171762000Y-54024624D02*
X174338376Y-56601000D01*
X222097400Y-51155400D02*
X218821000Y-47879000D01*
X185706624Y-56601000D02*
X187603624Y-54704000D01*
X222249787Y-54704000D02*
X223571000Y-53382787D01*
X222648387Y-51155400D02*
X222097400Y-51155400D01*
X164338000Y-45466000D02*
X165513000Y-44291000D01*
X187603624Y-54704000D02*
X222249787Y-54704000D01*
%TO.N,/P52*%
X167006396Y-45466000D02*
X171312000Y-49771604D01*
X174151980Y-57051000D02*
X185893020Y-57051000D01*
X171312000Y-54211020D02*
X174151980Y-57051000D01*
X222436183Y-55154000D02*
X224021000Y-53569183D01*
X166878000Y-45466000D02*
X167006396Y-45466000D01*
X224021000Y-53569183D02*
X224021000Y-51301000D01*
X187790020Y-55154000D02*
X222436183Y-55154000D01*
X185893020Y-57051000D02*
X187790020Y-55154000D01*
X224021000Y-51301000D02*
X220599000Y-47879000D01*
X171312000Y-49771604D02*
X171312000Y-54211020D01*
%TO.N,/P53*%
X224471000Y-53755579D02*
X224471000Y-49973000D01*
X167735000Y-46831000D02*
X170862000Y-49958000D01*
X164338000Y-48006000D02*
X165513000Y-46831000D01*
X170862000Y-49958000D02*
X170862000Y-54397416D01*
X222622579Y-55604000D02*
X224471000Y-53755579D01*
X186079416Y-57501000D02*
X187976416Y-55604000D01*
X224471000Y-49973000D02*
X222377000Y-47879000D01*
X165513000Y-46831000D02*
X167735000Y-46831000D01*
X187976416Y-55604000D02*
X222622579Y-55604000D01*
X170862000Y-54397416D02*
X173965584Y-57501000D01*
X173965584Y-57501000D02*
X186079416Y-57501000D01*
%TO.N,/P54*%
X173779188Y-57951000D02*
X186265812Y-57951000D01*
X222808975Y-56054000D02*
X224921000Y-53941975D01*
X166878000Y-48006000D02*
X168080081Y-48006000D01*
X188162812Y-56054000D02*
X222808975Y-56054000D01*
X170412000Y-50337919D02*
X170412000Y-54583812D01*
X170412000Y-54583812D02*
X173779188Y-57951000D01*
X168080081Y-48006000D02*
X170412000Y-50337919D01*
X224921000Y-53941975D02*
X224921000Y-48645000D01*
X186265812Y-57951000D02*
X188162812Y-56054000D01*
X224921000Y-48645000D02*
X224155000Y-47879000D01*
%TO.N,/P55*%
X169962000Y-51596604D02*
X169962000Y-54770208D01*
X173592792Y-58401000D02*
X186452208Y-58401000D01*
X188349208Y-56504000D02*
X222995371Y-56504000D01*
X165513000Y-49371000D02*
X167736396Y-49371000D01*
X167736396Y-49371000D02*
X169962000Y-51596604D01*
X225933000Y-53566371D02*
X225933000Y-47879000D01*
X222995371Y-56504000D02*
X225933000Y-53566371D01*
X164338000Y-50546000D02*
X165513000Y-49371000D01*
X186452208Y-58401000D02*
X188349208Y-56504000D01*
X169962000Y-54770208D02*
X173592792Y-58401000D01*
%TO.N,/P56*%
X227711000Y-52424767D02*
X227711000Y-47879000D01*
X169512000Y-54956604D02*
X173406396Y-58851000D01*
X223181767Y-56954000D02*
X227711000Y-52424767D01*
X188535604Y-56954000D02*
X223181767Y-56954000D01*
X186638604Y-58851000D02*
X188535604Y-56954000D01*
X169512000Y-51910000D02*
X169512000Y-54956604D01*
X173406396Y-58851000D02*
X186638604Y-58851000D01*
X168148000Y-50546000D02*
X169512000Y-51910000D01*
X166878000Y-50546000D02*
X168148000Y-50546000D01*
%TO.N,/P57*%
X165703000Y-51721000D02*
X168434000Y-51721000D01*
X164338000Y-53086000D02*
X165703000Y-51721000D01*
X168434000Y-51721000D02*
X169062000Y-52349000D01*
X188722000Y-57404000D02*
X223368163Y-57404000D01*
X169062000Y-52349000D02*
X169062000Y-55143000D01*
X186825000Y-59301000D02*
X188722000Y-57404000D01*
X169062000Y-55143000D02*
X173220000Y-59301000D01*
X229489000Y-51283163D02*
X229489000Y-47879000D01*
X223368163Y-57404000D02*
X229489000Y-51283163D01*
X173220000Y-59301000D02*
X186825000Y-59301000D01*
%TO.N,/P60*%
X188595000Y-66529000D02*
X188595000Y-66929000D01*
X166983000Y-63351000D02*
X185417000Y-63351000D01*
X185417000Y-63351000D02*
X188595000Y-66529000D01*
X166878000Y-63246000D02*
X166983000Y-63351000D01*
%TO.N,/P61*%
X170636812Y-64436000D02*
X171271812Y-63801000D01*
X186817000Y-66529000D02*
X186817000Y-66929000D01*
X171271812Y-63801000D02*
X184089000Y-63801000D01*
X164338000Y-65786000D02*
X165688000Y-64436000D01*
X184089000Y-63801000D02*
X186817000Y-66529000D01*
X165688000Y-64436000D02*
X170636812Y-64436000D01*
%TO.N,/P62*%
X182761000Y-64251000D02*
X185039000Y-66529000D01*
X171458208Y-64251000D02*
X182761000Y-64251000D01*
X166878000Y-65786000D02*
X169923208Y-65786000D01*
X169923208Y-65786000D02*
X171458208Y-64251000D01*
X185039000Y-66529000D02*
X185039000Y-66929000D01*
%TO.N,/P63*%
X165703000Y-66961000D02*
X169384604Y-66961000D01*
X182049000Y-64701000D02*
X183261000Y-65913000D01*
X164338000Y-68326000D02*
X165703000Y-66961000D01*
X169384604Y-66961000D02*
X171644604Y-64701000D01*
X171644604Y-64701000D02*
X182049000Y-64701000D01*
X183261000Y-65913000D02*
X183261000Y-66929000D01*
%TO.N,/P64*%
X171831000Y-65151000D02*
X179705000Y-65151000D01*
X179705000Y-65151000D02*
X181483000Y-66929000D01*
X168656000Y-68326000D02*
X171831000Y-65151000D01*
X166878000Y-68326000D02*
X168656000Y-68326000D01*
%TO.N,/P65*%
X178380000Y-65604000D02*
X179705000Y-66929000D01*
X169259000Y-69501000D02*
X173156000Y-65604000D01*
X173156000Y-65604000D02*
X178380000Y-65604000D01*
X164338000Y-70866000D02*
X165703000Y-69501000D01*
X165703000Y-69501000D02*
X169259000Y-69501000D01*
%TO.N,/P66*%
X173990000Y-70866000D02*
X177927000Y-66929000D01*
X166878000Y-70866000D02*
X173990000Y-70866000D01*
%TO.N,/P67*%
X172974000Y-70104000D02*
X170307000Y-70104000D01*
X176149000Y-66929000D02*
X172974000Y-70104000D01*
%TO.N,/SYNC*%
X215265000Y-68453000D02*
X203867000Y-79851000D01*
X165513000Y-79851000D02*
X164338000Y-81026000D01*
X203867000Y-79851000D02*
X165513000Y-79851000D01*
X215265000Y-66929000D02*
X215265000Y-68453000D01*
%TO.N,/P37*%
X204597000Y-69215000D02*
X202565000Y-71247000D01*
X204597000Y-66929000D02*
X204597000Y-69215000D01*
X200406000Y-73406000D02*
X202565000Y-71247000D01*
X166878000Y-73406000D02*
X200406000Y-73406000D01*
%TO.N,/P36*%
X164338000Y-75946000D02*
X165513000Y-74771000D01*
X206375000Y-68961000D02*
X206375000Y-66929000D01*
X200565000Y-74771000D02*
X206375000Y-68961000D01*
X165513000Y-74771000D02*
X200565000Y-74771000D01*
%TO.N,/P35*%
X208153000Y-68453000D02*
X208153000Y-66929000D01*
X166878000Y-75946000D02*
X200660000Y-75946000D01*
X200660000Y-75946000D02*
X208153000Y-68453000D01*
%TO.N,/P34*%
X164338000Y-78486000D02*
X165513000Y-77311000D01*
X165513000Y-77311000D02*
X200819000Y-77311000D01*
X200819000Y-77311000D02*
X209931000Y-68199000D01*
X209931000Y-68199000D02*
X209931000Y-66929000D01*
%TO.N,/P33*%
X211709000Y-66929000D02*
X211709000Y-67818000D01*
X211709000Y-67818000D02*
X201041000Y-78486000D01*
X201041000Y-78486000D02*
X166878000Y-78486000D01*
%TD*%
%TA.AperFunction,Conductor*%
%TO.N,GND*%
G36*
X176608986Y-33520185D02*
G01*
X176654741Y-33572989D01*
X176664685Y-33642147D01*
X176635660Y-33705703D01*
X176629628Y-33712181D01*
X174150821Y-36190986D01*
X174089498Y-36224471D01*
X174031048Y-36223080D01*
X173962697Y-36204766D01*
X173962693Y-36204765D01*
X173962692Y-36204765D01*
X173849346Y-36194848D01*
X173736001Y-36184932D01*
X173735998Y-36184932D01*
X173509313Y-36204764D01*
X173509302Y-36204766D01*
X173289511Y-36263658D01*
X173289502Y-36263661D01*
X173083267Y-36359831D01*
X173083265Y-36359832D01*
X172896858Y-36490354D01*
X172735954Y-36651258D01*
X172605432Y-36837665D01*
X172605431Y-36837667D01*
X172509261Y-37043902D01*
X172509258Y-37043911D01*
X172450366Y-37263702D01*
X172450364Y-37263713D01*
X172430532Y-37490398D01*
X172430532Y-37490401D01*
X172450364Y-37717086D01*
X172450366Y-37717097D01*
X172509258Y-37936888D01*
X172509261Y-37936897D01*
X172605431Y-38143132D01*
X172605432Y-38143134D01*
X172735954Y-38329541D01*
X172896858Y-38490445D01*
X172896861Y-38490447D01*
X173083266Y-38620968D01*
X173289504Y-38717139D01*
X173509308Y-38776035D01*
X173666780Y-38789812D01*
X173735998Y-38795868D01*
X173736000Y-38795868D01*
X173736002Y-38795868D01*
X173805220Y-38789812D01*
X173962692Y-38776035D01*
X174182496Y-38717139D01*
X174388734Y-38620968D01*
X174575139Y-38490447D01*
X174600122Y-38465462D01*
X174661442Y-38431979D01*
X174731134Y-38436962D01*
X174775483Y-38465464D01*
X175555803Y-39245784D01*
X175565628Y-39258048D01*
X175565849Y-39257866D01*
X175570819Y-39263873D01*
X175570822Y-39263876D01*
X175570823Y-39263877D01*
X175621260Y-39311241D01*
X175642139Y-39332120D01*
X175647613Y-39336366D01*
X175652051Y-39340156D01*
X175686027Y-39372062D01*
X175686031Y-39372064D01*
X175703582Y-39381713D01*
X175719840Y-39392392D01*
X175735673Y-39404674D01*
X175757624Y-39414172D01*
X175778446Y-39423183D01*
X175783690Y-39425752D01*
X175824517Y-39448197D01*
X175843921Y-39453179D01*
X175862319Y-39459478D01*
X175880714Y-39467438D01*
X175926738Y-39474726D01*
X175932441Y-39475907D01*
X175977590Y-39487500D01*
X175997625Y-39487500D01*
X176017022Y-39489026D01*
X176036805Y-39492160D01*
X176083193Y-39487775D01*
X176089031Y-39487500D01*
X179901657Y-39487500D01*
X179917277Y-39489224D01*
X179917304Y-39488939D01*
X179925060Y-39489671D01*
X179925067Y-39489673D01*
X179994214Y-39487500D01*
X180023750Y-39487500D01*
X180030628Y-39486630D01*
X180036441Y-39486172D01*
X180083027Y-39484709D01*
X180102269Y-39479117D01*
X180121312Y-39475174D01*
X180141192Y-39472664D01*
X180184522Y-39455507D01*
X180190046Y-39453617D01*
X180193796Y-39452527D01*
X180234790Y-39440618D01*
X180252029Y-39430422D01*
X180269503Y-39421862D01*
X180288127Y-39414488D01*
X180288127Y-39414487D01*
X180288132Y-39414486D01*
X180325849Y-39387082D01*
X180330705Y-39383892D01*
X180370820Y-39360170D01*
X180384989Y-39345999D01*
X180399779Y-39333368D01*
X180415987Y-39321594D01*
X180445699Y-39285676D01*
X180449612Y-39281376D01*
X180941178Y-38789810D01*
X181002500Y-38756327D01*
X181060947Y-38757717D01*
X181129308Y-38776035D01*
X181286780Y-38789812D01*
X181355998Y-38795868D01*
X181356000Y-38795868D01*
X181356002Y-38795868D01*
X181425220Y-38789812D01*
X181582692Y-38776035D01*
X181802496Y-38717139D01*
X182008734Y-38620968D01*
X182195139Y-38490447D01*
X182356047Y-38329539D01*
X182486568Y-38143134D01*
X182513618Y-38085124D01*
X182559790Y-38032685D01*
X182626983Y-38013533D01*
X182693865Y-38033748D01*
X182738382Y-38085125D01*
X182765429Y-38143128D01*
X182765432Y-38143134D01*
X182895954Y-38329541D01*
X183056858Y-38490445D01*
X183056861Y-38490447D01*
X183243266Y-38620968D01*
X183449504Y-38717139D01*
X183669308Y-38776035D01*
X183826780Y-38789812D01*
X183895998Y-38795868D01*
X183896000Y-38795868D01*
X183896002Y-38795868D01*
X183965220Y-38789812D01*
X184122692Y-38776035D01*
X184342496Y-38717139D01*
X184548734Y-38620968D01*
X184735139Y-38490447D01*
X184896047Y-38329539D01*
X185026568Y-38143134D01*
X185053618Y-38085124D01*
X185099790Y-38032685D01*
X185166983Y-38013533D01*
X185233865Y-38033748D01*
X185278382Y-38085125D01*
X185305429Y-38143128D01*
X185305432Y-38143134D01*
X185435954Y-38329541D01*
X185596858Y-38490445D01*
X185596861Y-38490447D01*
X185783266Y-38620968D01*
X185989504Y-38717139D01*
X186209308Y-38776035D01*
X186366780Y-38789812D01*
X186435998Y-38795868D01*
X186435999Y-38795868D01*
X186435999Y-38795867D01*
X186436000Y-38795868D01*
X186480101Y-38792009D01*
X186548599Y-38805775D01*
X186598783Y-38854389D01*
X186614717Y-38922418D01*
X186591343Y-38988261D01*
X186578589Y-39003218D01*
X185283180Y-40298628D01*
X185221857Y-40332113D01*
X185152165Y-40327129D01*
X185096232Y-40285257D01*
X185071815Y-40219793D01*
X185071499Y-40210947D01*
X185071499Y-39917129D01*
X185071498Y-39917123D01*
X185071497Y-39917116D01*
X185065091Y-39857517D01*
X185062725Y-39851174D01*
X185014797Y-39722671D01*
X185014793Y-39722664D01*
X184928547Y-39607455D01*
X184928544Y-39607452D01*
X184813335Y-39521206D01*
X184813328Y-39521202D01*
X184678482Y-39470908D01*
X184678483Y-39470908D01*
X184618883Y-39464501D01*
X184618881Y-39464500D01*
X184618873Y-39464500D01*
X184618864Y-39464500D01*
X183173129Y-39464500D01*
X183173123Y-39464501D01*
X183113516Y-39470908D01*
X182978671Y-39521202D01*
X182978664Y-39521206D01*
X182863455Y-39607452D01*
X182863452Y-39607455D01*
X182777206Y-39722664D01*
X182777202Y-39722671D01*
X182726908Y-39857517D01*
X182720501Y-39917116D01*
X182720501Y-39917123D01*
X182720500Y-39917135D01*
X182720500Y-41362870D01*
X182720501Y-41362876D01*
X182726908Y-41422483D01*
X182777202Y-41557328D01*
X182777206Y-41557335D01*
X182863452Y-41672544D01*
X182863455Y-41672547D01*
X182978664Y-41758793D01*
X182978671Y-41758797D01*
X183023618Y-41775561D01*
X183113517Y-41809091D01*
X183173127Y-41815500D01*
X183466948Y-41815499D01*
X183533986Y-41835183D01*
X183579741Y-41887987D01*
X183589685Y-41957146D01*
X183560660Y-42020701D01*
X183554634Y-42027174D01*
X183444626Y-42137182D01*
X183383306Y-42170666D01*
X183356947Y-42173500D01*
X174707737Y-42173500D01*
X174692120Y-42171776D01*
X174692093Y-42172062D01*
X174684331Y-42171327D01*
X174615203Y-42173500D01*
X174585650Y-42173500D01*
X174584929Y-42173590D01*
X174578757Y-42174369D01*
X174572945Y-42174826D01*
X174526378Y-42176290D01*
X174526367Y-42176292D01*
X174507134Y-42181879D01*
X174488094Y-42185822D01*
X174468217Y-42188334D01*
X174468210Y-42188335D01*
X174468208Y-42188336D01*
X174468206Y-42188336D01*
X174468205Y-42188337D01*
X174424868Y-42205494D01*
X174419342Y-42207386D01*
X174374611Y-42220382D01*
X174374608Y-42220383D01*
X174357363Y-42230581D01*
X174339901Y-42239135D01*
X174321272Y-42246511D01*
X174321267Y-42246513D01*
X174283564Y-42273906D01*
X174278682Y-42277112D01*
X174238580Y-42300828D01*
X174224408Y-42315000D01*
X174209623Y-42327628D01*
X174193412Y-42339407D01*
X174163709Y-42375310D01*
X174159777Y-42379631D01*
X172980208Y-43559199D01*
X172967951Y-43569020D01*
X172968134Y-43569241D01*
X172962123Y-43574213D01*
X172914772Y-43624636D01*
X172893889Y-43645519D01*
X172893877Y-43645532D01*
X172889621Y-43651017D01*
X172885837Y-43655447D01*
X172853937Y-43689418D01*
X172853936Y-43689420D01*
X172844284Y-43706976D01*
X172833610Y-43723226D01*
X172821329Y-43739061D01*
X172821324Y-43739068D01*
X172802815Y-43781838D01*
X172800245Y-43787084D01*
X172777803Y-43827906D01*
X172772822Y-43847307D01*
X172766521Y-43865710D01*
X172758562Y-43884102D01*
X172758561Y-43884105D01*
X172751271Y-43930127D01*
X172750087Y-43935846D01*
X172738501Y-43980972D01*
X172738500Y-43980982D01*
X172738500Y-44001016D01*
X172736973Y-44020413D01*
X172733840Y-44040196D01*
X172736640Y-44069815D01*
X172738225Y-44086583D01*
X172738500Y-44092421D01*
X172738500Y-45728714D01*
X172718815Y-45795753D01*
X172666011Y-45841508D01*
X172596853Y-45851452D01*
X172533297Y-45822427D01*
X172526819Y-45816395D01*
X170269623Y-43559199D01*
X167907365Y-41196941D01*
X167904831Y-41194250D01*
X167863696Y-41147817D01*
X167863695Y-41147816D01*
X167863691Y-41147812D01*
X167812663Y-41112591D01*
X167809654Y-41110377D01*
X167760827Y-41072124D01*
X167760822Y-41072120D01*
X167751580Y-41067961D01*
X167732033Y-41056936D01*
X167730424Y-41055826D01*
X167723697Y-41051182D01*
X167665708Y-41029189D01*
X167662257Y-41027759D01*
X167605697Y-41002304D01*
X167595713Y-41000474D01*
X167574110Y-40994451D01*
X167564641Y-40990860D01*
X167564637Y-40990859D01*
X167503080Y-40983384D01*
X167499379Y-40982821D01*
X167438375Y-40971642D01*
X167438370Y-40971642D01*
X167376464Y-40975387D01*
X167372719Y-40975500D01*
X165611048Y-40975500D01*
X165607303Y-40975387D01*
X165545396Y-40971642D01*
X165545389Y-40971642D01*
X165484386Y-40982821D01*
X165480685Y-40983384D01*
X165419128Y-40990859D01*
X165419121Y-40990861D01*
X165409647Y-40994454D01*
X165388049Y-41000475D01*
X165378068Y-41002305D01*
X165378063Y-41002306D01*
X165321505Y-41027761D01*
X165318046Y-41029193D01*
X165260070Y-41051181D01*
X165260066Y-41051184D01*
X165251723Y-41056942D01*
X165232188Y-41067960D01*
X165222948Y-41072119D01*
X165222939Y-41072124D01*
X165174124Y-41110368D01*
X165171109Y-41112586D01*
X165120068Y-41147818D01*
X165078942Y-41194240D01*
X165076375Y-41196966D01*
X164709994Y-41563347D01*
X164648671Y-41596832D01*
X164590225Y-41595442D01*
X164573410Y-41590937D01*
X164338001Y-41570341D01*
X164337999Y-41570341D01*
X164102596Y-41590936D01*
X164102586Y-41590938D01*
X163874344Y-41652094D01*
X163874335Y-41652098D01*
X163660171Y-41751964D01*
X163660169Y-41751965D01*
X163466597Y-41887505D01*
X163299505Y-42054597D01*
X163163965Y-42248169D01*
X163163964Y-42248171D01*
X163064098Y-42462335D01*
X163064094Y-42462344D01*
X163002938Y-42690586D01*
X163002936Y-42690596D01*
X162982341Y-42925999D01*
X162982341Y-42926000D01*
X163002936Y-43161403D01*
X163002938Y-43161413D01*
X163064094Y-43389655D01*
X163064096Y-43389659D01*
X163064097Y-43389663D01*
X163089521Y-43444185D01*
X163163965Y-43603830D01*
X163163967Y-43603834D01*
X163242175Y-43715525D01*
X163290481Y-43784514D01*
X163299501Y-43797395D01*
X163299506Y-43797402D01*
X163466597Y-43964493D01*
X163466603Y-43964498D01*
X163652158Y-44094425D01*
X163695783Y-44149002D01*
X163702977Y-44218500D01*
X163671454Y-44280855D01*
X163652158Y-44297575D01*
X163466597Y-44427505D01*
X163299505Y-44594597D01*
X163163965Y-44788169D01*
X163163964Y-44788171D01*
X163064098Y-45002335D01*
X163064094Y-45002344D01*
X163002938Y-45230586D01*
X163002936Y-45230596D01*
X162982341Y-45465999D01*
X162982341Y-45466000D01*
X163002936Y-45701403D01*
X163002938Y-45701413D01*
X163064094Y-45929655D01*
X163064096Y-45929659D01*
X163064097Y-45929663D01*
X163068000Y-45938032D01*
X163163965Y-46143830D01*
X163163967Y-46143834D01*
X163230668Y-46239092D01*
X163299464Y-46337343D01*
X163299501Y-46337395D01*
X163299506Y-46337402D01*
X163466597Y-46504493D01*
X163466603Y-46504498D01*
X163652158Y-46634425D01*
X163695783Y-46689002D01*
X163702977Y-46758500D01*
X163671454Y-46820855D01*
X163652158Y-46837575D01*
X163466597Y-46967505D01*
X163299505Y-47134597D01*
X163163965Y-47328169D01*
X163163964Y-47328171D01*
X163064098Y-47542335D01*
X163064094Y-47542344D01*
X163002938Y-47770586D01*
X163002936Y-47770596D01*
X162982341Y-48005999D01*
X162982341Y-48006000D01*
X163002936Y-48241403D01*
X163002938Y-48241413D01*
X163064094Y-48469655D01*
X163064096Y-48469659D01*
X163064097Y-48469663D01*
X163068000Y-48478032D01*
X163163965Y-48683830D01*
X163163967Y-48683834D01*
X163299501Y-48877395D01*
X163299506Y-48877402D01*
X163466597Y-49044493D01*
X163466603Y-49044498D01*
X163652158Y-49174425D01*
X163695783Y-49229002D01*
X163702977Y-49298500D01*
X163671454Y-49360855D01*
X163652158Y-49377575D01*
X163466597Y-49507505D01*
X163299505Y-49674597D01*
X163163965Y-49868169D01*
X163163964Y-49868171D01*
X163064098Y-50082335D01*
X163064094Y-50082344D01*
X163002938Y-50310586D01*
X163002936Y-50310596D01*
X162982341Y-50545999D01*
X162982341Y-50546000D01*
X163002936Y-50781403D01*
X163002938Y-50781413D01*
X163064094Y-51009655D01*
X163064096Y-51009659D01*
X163064097Y-51009663D01*
X163105425Y-51098290D01*
X163163965Y-51223830D01*
X163163967Y-51223834D01*
X163202528Y-51278904D01*
X163294823Y-51410715D01*
X163299501Y-51417395D01*
X163299506Y-51417402D01*
X163466597Y-51584493D01*
X163466603Y-51584498D01*
X163652158Y-51714425D01*
X163695783Y-51769002D01*
X163702977Y-51838500D01*
X163671454Y-51900855D01*
X163652158Y-51917575D01*
X163466597Y-52047505D01*
X163299505Y-52214597D01*
X163163965Y-52408169D01*
X163163964Y-52408171D01*
X163064098Y-52622335D01*
X163064094Y-52622344D01*
X163002938Y-52850586D01*
X163002936Y-52850596D01*
X162982341Y-53085999D01*
X162982341Y-53086000D01*
X163002936Y-53321403D01*
X163002938Y-53321413D01*
X163064094Y-53549655D01*
X163064096Y-53549659D01*
X163064097Y-53549663D01*
X163100913Y-53628614D01*
X163163965Y-53763830D01*
X163163967Y-53763834D01*
X163250621Y-53887587D01*
X163293557Y-53948907D01*
X163299501Y-53957395D01*
X163299506Y-53957402D01*
X163466597Y-54124493D01*
X163466603Y-54124498D01*
X163652158Y-54254425D01*
X163695783Y-54309002D01*
X163702977Y-54378500D01*
X163671454Y-54440855D01*
X163652158Y-54457575D01*
X163466597Y-54587505D01*
X163299505Y-54754597D01*
X163163965Y-54948169D01*
X163163964Y-54948171D01*
X163064098Y-55162335D01*
X163064094Y-55162344D01*
X163002938Y-55390586D01*
X163002936Y-55390596D01*
X162982341Y-55625999D01*
X162982341Y-55626000D01*
X163002936Y-55861403D01*
X163002938Y-55861413D01*
X163064094Y-56089655D01*
X163064096Y-56089659D01*
X163064097Y-56089663D01*
X163068000Y-56098032D01*
X163163965Y-56303830D01*
X163163967Y-56303834D01*
X163299501Y-56497395D01*
X163299506Y-56497402D01*
X163466597Y-56664493D01*
X163466603Y-56664498D01*
X163652158Y-56794425D01*
X163695783Y-56849002D01*
X163702977Y-56918500D01*
X163671454Y-56980855D01*
X163652158Y-56997575D01*
X163466597Y-57127505D01*
X163299505Y-57294597D01*
X163163965Y-57488169D01*
X163163964Y-57488171D01*
X163064098Y-57702335D01*
X163064094Y-57702344D01*
X163002938Y-57930586D01*
X163002936Y-57930596D01*
X162982341Y-58165999D01*
X162982341Y-58166000D01*
X163002936Y-58401403D01*
X163002938Y-58401413D01*
X163064094Y-58629655D01*
X163064096Y-58629659D01*
X163064097Y-58629663D01*
X163068000Y-58638032D01*
X163163965Y-58843830D01*
X163163967Y-58843834D01*
X163299501Y-59037395D01*
X163299506Y-59037402D01*
X163466597Y-59204493D01*
X163466603Y-59204498D01*
X163652158Y-59334425D01*
X163695783Y-59389002D01*
X163702977Y-59458500D01*
X163671454Y-59520855D01*
X163652158Y-59537575D01*
X163466597Y-59667505D01*
X163299505Y-59834597D01*
X163163965Y-60028169D01*
X163163964Y-60028171D01*
X163064098Y-60242335D01*
X163064094Y-60242344D01*
X163002938Y-60470586D01*
X163002936Y-60470596D01*
X162982341Y-60705999D01*
X162982341Y-60706000D01*
X163002936Y-60941403D01*
X163002938Y-60941413D01*
X163064094Y-61169655D01*
X163064096Y-61169659D01*
X163064097Y-61169663D01*
X163105425Y-61258290D01*
X163163965Y-61383830D01*
X163163967Y-61383834D01*
X163299501Y-61577395D01*
X163299506Y-61577402D01*
X163466597Y-61744493D01*
X163466603Y-61744498D01*
X163652158Y-61874425D01*
X163695783Y-61929002D01*
X163702977Y-61998500D01*
X163671454Y-62060855D01*
X163652158Y-62077575D01*
X163466597Y-62207505D01*
X163299505Y-62374597D01*
X163163965Y-62568169D01*
X163163964Y-62568171D01*
X163064098Y-62782335D01*
X163064094Y-62782344D01*
X163002938Y-63010586D01*
X163002936Y-63010596D01*
X162982341Y-63245999D01*
X162982341Y-63246000D01*
X163002936Y-63481403D01*
X163002938Y-63481413D01*
X163064094Y-63709655D01*
X163064096Y-63709659D01*
X163064097Y-63709663D01*
X163163965Y-63923830D01*
X163163967Y-63923834D01*
X163299501Y-64117395D01*
X163299506Y-64117402D01*
X163466597Y-64284493D01*
X163466603Y-64284498D01*
X163652158Y-64414425D01*
X163695783Y-64469002D01*
X163702977Y-64538500D01*
X163671454Y-64600855D01*
X163652158Y-64617575D01*
X163466597Y-64747505D01*
X163299505Y-64914597D01*
X163163965Y-65108169D01*
X163163964Y-65108171D01*
X163064098Y-65322335D01*
X163064094Y-65322344D01*
X163002938Y-65550586D01*
X163002936Y-65550596D01*
X162982341Y-65785999D01*
X162982341Y-65786000D01*
X163002936Y-66021403D01*
X163002938Y-66021413D01*
X163064094Y-66249655D01*
X163064096Y-66249659D01*
X163064097Y-66249663D01*
X163105425Y-66338290D01*
X163163965Y-66463830D01*
X163163967Y-66463834D01*
X163299501Y-66657395D01*
X163299506Y-66657402D01*
X163466597Y-66824493D01*
X163466603Y-66824498D01*
X163652158Y-66954425D01*
X163695783Y-67009002D01*
X163702977Y-67078500D01*
X163671454Y-67140855D01*
X163652158Y-67157575D01*
X163466597Y-67287505D01*
X163299505Y-67454597D01*
X163163965Y-67648169D01*
X163163964Y-67648171D01*
X163064098Y-67862335D01*
X163064094Y-67862344D01*
X163002938Y-68090586D01*
X163002936Y-68090596D01*
X162982341Y-68325999D01*
X162982341Y-68326000D01*
X163002936Y-68561403D01*
X163002938Y-68561413D01*
X163064094Y-68789655D01*
X163064096Y-68789659D01*
X163064097Y-68789663D01*
X163135956Y-68943764D01*
X163163965Y-69003830D01*
X163163967Y-69003834D01*
X163299501Y-69197395D01*
X163299506Y-69197402D01*
X163466597Y-69364493D01*
X163466603Y-69364498D01*
X163652158Y-69494425D01*
X163695783Y-69549002D01*
X163702977Y-69618500D01*
X163671454Y-69680855D01*
X163652158Y-69697575D01*
X163466597Y-69827505D01*
X163299505Y-69994597D01*
X163163965Y-70188169D01*
X163163964Y-70188171D01*
X163092138Y-70342203D01*
X163066527Y-70397127D01*
X163064098Y-70402335D01*
X163064094Y-70402344D01*
X163002938Y-70630586D01*
X163002936Y-70630596D01*
X162982341Y-70865999D01*
X162982341Y-70866000D01*
X163002936Y-71101403D01*
X163002938Y-71101413D01*
X163064094Y-71329655D01*
X163064096Y-71329659D01*
X163064097Y-71329663D01*
X163138262Y-71488709D01*
X163163965Y-71543830D01*
X163163967Y-71543834D01*
X163239856Y-71652214D01*
X163299501Y-71737396D01*
X163299506Y-71737402D01*
X163466597Y-71904493D01*
X163466603Y-71904498D01*
X163652158Y-72034425D01*
X163695783Y-72089002D01*
X163702977Y-72158500D01*
X163671454Y-72220855D01*
X163652158Y-72237575D01*
X163466597Y-72367505D01*
X163299505Y-72534597D01*
X163163965Y-72728169D01*
X163163964Y-72728171D01*
X163064098Y-72942335D01*
X163064094Y-72942344D01*
X163002938Y-73170586D01*
X163002936Y-73170596D01*
X162982341Y-73405999D01*
X162982341Y-73406000D01*
X163002936Y-73641403D01*
X163002938Y-73641413D01*
X163064094Y-73869655D01*
X163064096Y-73869659D01*
X163064097Y-73869663D01*
X163073382Y-73889574D01*
X163163965Y-74083830D01*
X163163967Y-74083834D01*
X163299501Y-74277395D01*
X163299506Y-74277402D01*
X163466597Y-74444493D01*
X163466603Y-74444498D01*
X163652158Y-74574425D01*
X163695783Y-74629002D01*
X163702977Y-74698500D01*
X163671454Y-74760855D01*
X163652158Y-74777575D01*
X163466597Y-74907505D01*
X163299505Y-75074597D01*
X163163965Y-75268169D01*
X163163964Y-75268171D01*
X163064098Y-75482335D01*
X163064094Y-75482344D01*
X163002938Y-75710586D01*
X163002936Y-75710596D01*
X162982341Y-75945999D01*
X162982341Y-75946000D01*
X163002936Y-76181403D01*
X163002938Y-76181413D01*
X163064094Y-76409655D01*
X163064096Y-76409659D01*
X163064097Y-76409663D01*
X163068000Y-76418032D01*
X163163965Y-76623830D01*
X163163967Y-76623834D01*
X163299501Y-76817395D01*
X163299506Y-76817402D01*
X163466597Y-76984493D01*
X163466603Y-76984498D01*
X163652158Y-77114425D01*
X163695783Y-77169002D01*
X163702977Y-77238500D01*
X163671454Y-77300855D01*
X163652158Y-77317575D01*
X163466597Y-77447505D01*
X163299505Y-77614597D01*
X163163965Y-77808169D01*
X163163964Y-77808171D01*
X163064098Y-78022335D01*
X163064094Y-78022344D01*
X163002938Y-78250586D01*
X163002936Y-78250596D01*
X162982341Y-78485999D01*
X162982341Y-78486000D01*
X163002936Y-78721403D01*
X163002938Y-78721413D01*
X163064094Y-78949655D01*
X163064096Y-78949659D01*
X163064097Y-78949663D01*
X163105516Y-79038486D01*
X163163965Y-79163830D01*
X163163967Y-79163834D01*
X163299501Y-79357395D01*
X163299506Y-79357402D01*
X163466597Y-79524493D01*
X163466603Y-79524498D01*
X163652158Y-79654425D01*
X163695783Y-79709002D01*
X163702977Y-79778500D01*
X163671454Y-79840855D01*
X163652158Y-79857575D01*
X163466597Y-79987505D01*
X163299505Y-80154597D01*
X163163965Y-80348169D01*
X163163964Y-80348171D01*
X163064098Y-80562335D01*
X163064094Y-80562344D01*
X163002938Y-80790586D01*
X163002936Y-80790596D01*
X162982341Y-81025999D01*
X162982341Y-81026000D01*
X163002936Y-81261403D01*
X163002938Y-81261413D01*
X163064094Y-81489655D01*
X163064096Y-81489659D01*
X163064097Y-81489663D01*
X163163965Y-81703830D01*
X163163967Y-81703834D01*
X163272281Y-81858521D01*
X163299505Y-81897401D01*
X163466599Y-82064495D01*
X163543135Y-82118086D01*
X163660165Y-82200032D01*
X163660167Y-82200033D01*
X163660170Y-82200035D01*
X163874337Y-82299903D01*
X164102592Y-82361063D01*
X164273319Y-82376000D01*
X164337999Y-82381659D01*
X164338000Y-82381659D01*
X164338001Y-82381659D01*
X164402681Y-82376000D01*
X164573408Y-82361063D01*
X164801663Y-82299903D01*
X165015830Y-82200035D01*
X165209401Y-82064495D01*
X165331717Y-81942178D01*
X165393036Y-81908696D01*
X165462728Y-81913680D01*
X165518662Y-81955551D01*
X165535577Y-81986528D01*
X165584646Y-82118088D01*
X165584649Y-82118093D01*
X165670809Y-82233187D01*
X165670812Y-82233190D01*
X165785906Y-82319350D01*
X165785913Y-82319354D01*
X165920620Y-82369596D01*
X165920627Y-82369598D01*
X165980155Y-82375999D01*
X165980172Y-82376000D01*
X166628000Y-82376000D01*
X166628000Y-81461501D01*
X166735685Y-81510680D01*
X166842237Y-81526000D01*
X166913763Y-81526000D01*
X167020315Y-81510680D01*
X167128000Y-81461501D01*
X167128000Y-82376000D01*
X167775828Y-82376000D01*
X167775844Y-82375999D01*
X167835372Y-82369598D01*
X167835379Y-82369596D01*
X167970086Y-82319354D01*
X167970093Y-82319350D01*
X168085187Y-82233190D01*
X168085190Y-82233187D01*
X168171350Y-82118093D01*
X168171354Y-82118086D01*
X168221596Y-81983379D01*
X168221598Y-81983372D01*
X168227999Y-81923844D01*
X168228000Y-81923827D01*
X168228000Y-81276000D01*
X167311686Y-81276000D01*
X167337493Y-81235844D01*
X167378000Y-81097889D01*
X167378000Y-80954111D01*
X167337493Y-80816156D01*
X167311686Y-80776000D01*
X168228000Y-80776000D01*
X168228000Y-80600500D01*
X168247685Y-80533461D01*
X168300489Y-80487706D01*
X168352000Y-80476500D01*
X203784257Y-80476500D01*
X203799877Y-80478224D01*
X203799904Y-80477939D01*
X203807660Y-80478671D01*
X203807667Y-80478673D01*
X203876814Y-80476500D01*
X203906350Y-80476500D01*
X203913228Y-80475630D01*
X203919041Y-80475172D01*
X203965627Y-80473709D01*
X203984869Y-80468117D01*
X204003912Y-80464174D01*
X204023792Y-80461664D01*
X204067122Y-80444507D01*
X204072646Y-80442617D01*
X204076396Y-80441527D01*
X204117390Y-80429618D01*
X204134629Y-80419422D01*
X204152103Y-80410862D01*
X204170727Y-80403488D01*
X204170727Y-80403487D01*
X204170732Y-80403486D01*
X204208449Y-80376082D01*
X204213305Y-80372892D01*
X204253420Y-80349170D01*
X204267589Y-80334999D01*
X204282379Y-80322368D01*
X204298587Y-80310594D01*
X204328299Y-80274676D01*
X204332212Y-80270376D01*
X215648788Y-68953801D01*
X215661042Y-68943986D01*
X215660859Y-68943764D01*
X215666866Y-68938792D01*
X215666877Y-68938786D01*
X215699029Y-68904547D01*
X215714227Y-68888364D01*
X215724671Y-68877918D01*
X215735120Y-68867471D01*
X215739379Y-68861978D01*
X215743152Y-68857561D01*
X215775062Y-68823582D01*
X215784713Y-68806024D01*
X215795396Y-68789761D01*
X215807673Y-68773936D01*
X215826185Y-68731153D01*
X215828738Y-68725941D01*
X215851197Y-68685092D01*
X215856180Y-68665680D01*
X215862481Y-68647280D01*
X215870437Y-68628896D01*
X215877729Y-68582852D01*
X215878906Y-68577171D01*
X215890500Y-68532019D01*
X215890500Y-68511983D01*
X215892027Y-68492582D01*
X215895160Y-68472804D01*
X215890775Y-68426415D01*
X215890500Y-68420577D01*
X215890500Y-68298519D01*
X215910185Y-68231480D01*
X215942572Y-68197512D01*
X215988952Y-68164486D01*
X216060800Y-68089132D01*
X216121305Y-68054200D01*
X216191096Y-68057523D01*
X216240285Y-68089136D01*
X216242902Y-68091881D01*
X216401746Y-68229521D01*
X216583750Y-68334601D01*
X216583752Y-68334601D01*
X216583756Y-68334604D01*
X216782367Y-68403344D01*
X216990398Y-68433254D01*
X217200330Y-68423254D01*
X217404576Y-68373704D01*
X217532167Y-68315435D01*
X217595743Y-68286401D01*
X217595746Y-68286399D01*
X217595753Y-68286396D01*
X217766952Y-68164486D01*
X217838800Y-68089132D01*
X217899305Y-68054200D01*
X217969096Y-68057523D01*
X218018285Y-68089136D01*
X218020902Y-68091881D01*
X218179746Y-68229521D01*
X218361750Y-68334601D01*
X218361752Y-68334601D01*
X218361756Y-68334604D01*
X218560367Y-68403344D01*
X218768398Y-68433254D01*
X218978330Y-68423254D01*
X219182576Y-68373704D01*
X219310167Y-68315435D01*
X219373743Y-68286401D01*
X219373746Y-68286399D01*
X219373753Y-68286396D01*
X219544952Y-68164486D01*
X219616800Y-68089132D01*
X219677305Y-68054200D01*
X219747096Y-68057523D01*
X219796285Y-68089136D01*
X219798902Y-68091881D01*
X219855703Y-68141099D01*
X219893477Y-68199877D01*
X219898500Y-68234812D01*
X219898500Y-69568951D01*
X219898387Y-69572696D01*
X219894642Y-69634603D01*
X219894642Y-69634611D01*
X219895098Y-69637098D01*
X219894904Y-69638943D01*
X219895095Y-69642090D01*
X219894571Y-69642121D01*
X219887814Y-69706587D01*
X219844117Y-69761107D01*
X219777882Y-69783348D01*
X219734124Y-69777145D01*
X219667299Y-69755001D01*
X219667295Y-69755000D01*
X219564510Y-69744500D01*
X218839498Y-69744500D01*
X218839480Y-69744501D01*
X218736703Y-69755000D01*
X218736700Y-69755001D01*
X218570168Y-69810185D01*
X218570163Y-69810187D01*
X218420842Y-69902289D01*
X218296789Y-70026342D01*
X218204687Y-70175663D01*
X218204686Y-70175666D01*
X218152051Y-70334506D01*
X218112281Y-70391949D01*
X218047765Y-70418772D01*
X218034347Y-70419500D01*
X217947764Y-70419500D01*
X217880725Y-70399815D01*
X217834970Y-70347011D01*
X217831582Y-70338833D01*
X217780797Y-70202671D01*
X217780793Y-70202664D01*
X217694547Y-70087455D01*
X217694544Y-70087452D01*
X217579335Y-70001206D01*
X217579328Y-70001202D01*
X217444482Y-69950908D01*
X217444483Y-69950908D01*
X217384883Y-69944501D01*
X217384881Y-69944500D01*
X217384873Y-69944500D01*
X217384864Y-69944500D01*
X215939129Y-69944500D01*
X215939123Y-69944501D01*
X215879516Y-69950908D01*
X215744671Y-70001202D01*
X215744664Y-70001206D01*
X215629455Y-70087452D01*
X215629452Y-70087455D01*
X215543206Y-70202664D01*
X215543202Y-70202671D01*
X215492908Y-70337517D01*
X215486502Y-70397107D01*
X215486500Y-70397127D01*
X215486500Y-70397128D01*
X215486500Y-70397135D01*
X215486500Y-71842870D01*
X215486501Y-71842876D01*
X215492908Y-71902483D01*
X215543202Y-72037328D01*
X215543206Y-72037335D01*
X215629452Y-72152544D01*
X215629455Y-72152547D01*
X215744664Y-72238793D01*
X215744671Y-72238797D01*
X215879517Y-72289091D01*
X215879516Y-72289091D01*
X215886444Y-72289835D01*
X215939127Y-72295500D01*
X217384872Y-72295499D01*
X217444483Y-72289091D01*
X217579331Y-72238796D01*
X217694546Y-72152546D01*
X217780796Y-72037331D01*
X217829967Y-71905496D01*
X217831582Y-71901167D01*
X217873453Y-71845233D01*
X217938917Y-71820816D01*
X217947764Y-71820500D01*
X218034346Y-71820500D01*
X218101385Y-71840185D01*
X218147140Y-71892989D01*
X218152052Y-71905496D01*
X218190161Y-72020500D01*
X218204686Y-72064334D01*
X218296788Y-72213656D01*
X218420844Y-72337712D01*
X218570166Y-72429814D01*
X218736703Y-72484999D01*
X218839491Y-72495500D01*
X219564508Y-72495499D01*
X219564516Y-72495498D01*
X219564519Y-72495498D01*
X219646455Y-72487128D01*
X219667297Y-72484999D01*
X219833834Y-72429814D01*
X219983156Y-72337712D01*
X220107212Y-72213656D01*
X220199314Y-72064334D01*
X220254499Y-71897797D01*
X220265000Y-71795009D01*
X220264999Y-70548017D01*
X220284684Y-70480979D01*
X220337487Y-70435224D01*
X220406646Y-70425280D01*
X220470202Y-70454305D01*
X220476680Y-70460337D01*
X221027681Y-71011338D01*
X221061166Y-71072661D01*
X221064000Y-71099019D01*
X221064000Y-71795001D01*
X221064001Y-71795019D01*
X221074500Y-71897796D01*
X221074501Y-71897799D01*
X221115161Y-72020500D01*
X221129686Y-72064334D01*
X221221788Y-72213656D01*
X221345844Y-72337712D01*
X221495166Y-72429814D01*
X221661703Y-72484999D01*
X221661704Y-72484999D01*
X221668129Y-72487128D01*
X221667292Y-72489653D01*
X221718169Y-72517208D01*
X221751864Y-72578416D01*
X221747119Y-72648124D01*
X221718470Y-72692871D01*
X221516966Y-72894375D01*
X221514240Y-72896942D01*
X221467818Y-72938068D01*
X221432586Y-72989109D01*
X221430368Y-72992124D01*
X221392124Y-73040939D01*
X221392119Y-73040948D01*
X221387960Y-73050188D01*
X221376942Y-73069723D01*
X221371187Y-73078061D01*
X221371183Y-73078067D01*
X221371182Y-73078070D01*
X221371180Y-73078074D01*
X221371179Y-73078077D01*
X221349189Y-73136055D01*
X221347757Y-73139513D01*
X221322305Y-73196068D01*
X221320477Y-73206042D01*
X221314453Y-73227653D01*
X221310860Y-73237127D01*
X221310859Y-73237128D01*
X221303384Y-73298685D01*
X221302821Y-73302386D01*
X221291642Y-73363390D01*
X221291642Y-73363395D01*
X221295387Y-73425302D01*
X221295500Y-73429047D01*
X221295500Y-73806608D01*
X221275815Y-73873647D01*
X221263656Y-73889574D01*
X221263468Y-73889782D01*
X221263464Y-73889787D01*
X221168821Y-74053715D01*
X221168818Y-74053722D01*
X221110327Y-74233740D01*
X221110326Y-74233744D01*
X221090540Y-74422000D01*
X221110326Y-74610256D01*
X221110327Y-74610259D01*
X221168818Y-74790277D01*
X221168821Y-74790284D01*
X221263467Y-74954216D01*
X221371859Y-75074597D01*
X221390129Y-75094888D01*
X221543265Y-75206148D01*
X221543270Y-75206151D01*
X221716192Y-75283142D01*
X221716197Y-75283144D01*
X221901354Y-75322500D01*
X221901355Y-75322500D01*
X222090644Y-75322500D01*
X222090646Y-75322500D01*
X222275803Y-75283144D01*
X222448730Y-75206151D01*
X222601871Y-75094888D01*
X222728533Y-74954216D01*
X222823179Y-74790284D01*
X222881674Y-74610256D01*
X222901460Y-74422000D01*
X222881674Y-74233744D01*
X222823179Y-74053716D01*
X222728533Y-73889784D01*
X222728344Y-73889574D01*
X222728273Y-73889427D01*
X222724714Y-73884528D01*
X222725610Y-73883876D01*
X222698119Y-73826580D01*
X222696500Y-73806608D01*
X222696500Y-73747519D01*
X222716185Y-73680480D01*
X222732819Y-73659838D01*
X223498282Y-72894375D01*
X224344975Y-72047681D01*
X224406296Y-72014198D01*
X224406362Y-72014183D01*
X224561803Y-71981144D01*
X224561807Y-71981142D01*
X224561808Y-71981142D01*
X224620058Y-71955206D01*
X224734730Y-71904151D01*
X224887871Y-71792888D01*
X225014533Y-71652216D01*
X225109179Y-71488284D01*
X225167674Y-71308256D01*
X225187460Y-71120000D01*
X225167674Y-70931744D01*
X225109179Y-70751716D01*
X225014533Y-70587784D01*
X224887871Y-70447112D01*
X224887870Y-70447111D01*
X224734734Y-70335851D01*
X224734729Y-70335848D01*
X224561807Y-70258857D01*
X224561802Y-70258855D01*
X224416001Y-70227865D01*
X224376646Y-70219500D01*
X224187354Y-70219500D01*
X224154897Y-70226398D01*
X224002197Y-70258855D01*
X224002192Y-70258857D01*
X223829270Y-70335848D01*
X223829265Y-70335851D01*
X223676129Y-70447111D01*
X223549466Y-70587785D01*
X223454821Y-70751715D01*
X223454818Y-70751722D01*
X223431930Y-70822166D01*
X223392492Y-70879842D01*
X223328134Y-70907040D01*
X223259287Y-70895125D01*
X223207812Y-70847881D01*
X223189999Y-70783848D01*
X223189999Y-70444998D01*
X223189998Y-70444981D01*
X223179499Y-70342203D01*
X223179498Y-70342200D01*
X223176948Y-70334504D01*
X223124314Y-70175666D01*
X223032212Y-70026344D01*
X222908156Y-69902288D01*
X222758834Y-69810186D01*
X222592297Y-69755001D01*
X222592295Y-69755000D01*
X222489516Y-69744500D01*
X221793519Y-69744500D01*
X221726480Y-69724815D01*
X221705838Y-69708181D01*
X221335819Y-69338162D01*
X221302334Y-69276839D01*
X221299500Y-69250481D01*
X221299500Y-68238724D01*
X221319185Y-68171685D01*
X221333756Y-68153156D01*
X221389330Y-68094870D01*
X221394798Y-68089135D01*
X221455305Y-68054200D01*
X221525096Y-68057523D01*
X221574285Y-68089136D01*
X221576902Y-68091881D01*
X221735746Y-68229521D01*
X221917750Y-68334601D01*
X221917752Y-68334601D01*
X221917756Y-68334604D01*
X222116367Y-68403344D01*
X222324398Y-68433254D01*
X222534330Y-68423254D01*
X222738576Y-68373704D01*
X222796557Y-68347224D01*
X222865712Y-68337281D01*
X222929268Y-68366305D01*
X222935748Y-68372338D01*
X223977194Y-69413784D01*
X223987019Y-69426048D01*
X223987240Y-69425866D01*
X223992210Y-69431873D01*
X223992213Y-69431876D01*
X223992214Y-69431877D01*
X224042651Y-69479241D01*
X224063530Y-69500120D01*
X224069004Y-69504366D01*
X224073442Y-69508156D01*
X224107418Y-69540062D01*
X224107422Y-69540064D01*
X224124973Y-69549713D01*
X224141231Y-69560392D01*
X224157064Y-69572674D01*
X224179015Y-69582172D01*
X224199837Y-69591183D01*
X224205081Y-69593752D01*
X224245908Y-69616197D01*
X224265312Y-69621179D01*
X224283710Y-69627478D01*
X224302105Y-69635438D01*
X224348129Y-69642726D01*
X224353832Y-69643907D01*
X224398981Y-69655500D01*
X224419016Y-69655500D01*
X224438413Y-69657026D01*
X224458196Y-69660160D01*
X224504584Y-69655775D01*
X224510422Y-69655500D01*
X229973653Y-69655500D01*
X229989273Y-69657224D01*
X229989300Y-69656939D01*
X229997056Y-69657671D01*
X229997063Y-69657673D01*
X230066210Y-69655500D01*
X230095746Y-69655500D01*
X230102624Y-69654630D01*
X230108437Y-69654172D01*
X230155023Y-69652709D01*
X230174265Y-69647117D01*
X230193308Y-69643174D01*
X230213188Y-69640664D01*
X230256518Y-69623507D01*
X230262042Y-69621617D01*
X230265792Y-69620527D01*
X230306786Y-69608618D01*
X230324025Y-69598422D01*
X230341499Y-69589862D01*
X230360123Y-69582488D01*
X230360123Y-69582487D01*
X230360128Y-69582486D01*
X230397845Y-69555082D01*
X230402701Y-69551892D01*
X230442816Y-69528170D01*
X230456985Y-69513999D01*
X230471775Y-69501368D01*
X230487983Y-69489594D01*
X230517695Y-69453676D01*
X230521608Y-69449376D01*
X231719787Y-68251198D01*
X231732042Y-68241382D01*
X231731859Y-68241160D01*
X231737866Y-68236188D01*
X231737877Y-68236182D01*
X231769443Y-68202567D01*
X231785226Y-68185761D01*
X231787819Y-68183168D01*
X231849142Y-68149683D01*
X231918834Y-68154667D01*
X231974767Y-68196539D01*
X231999184Y-68262003D01*
X231999500Y-68270849D01*
X231999500Y-82875500D01*
X231979815Y-82942539D01*
X231927011Y-82988294D01*
X231875500Y-82999500D01*
X159624500Y-82999500D01*
X159557461Y-82979815D01*
X159511706Y-82927011D01*
X159500500Y-82875500D01*
X159500500Y-33624500D01*
X159520185Y-33557461D01*
X159572989Y-33511706D01*
X159624500Y-33500500D01*
X176541947Y-33500500D01*
X176608986Y-33520185D01*
G37*
%TD.AperFunction*%
%TA.AperFunction,Conductor*%
G36*
X230629834Y-64997269D02*
G01*
X230685767Y-65039141D01*
X230710184Y-65104605D01*
X230710500Y-65113451D01*
X230710500Y-66107584D01*
X230690815Y-66174623D01*
X230638011Y-66220378D01*
X230568853Y-66230322D01*
X230555835Y-66227733D01*
X230546261Y-66225289D01*
X229839987Y-66931563D01*
X229842628Y-66899698D01*
X229813953Y-66786462D01*
X229750064Y-66688673D01*
X229657885Y-66616928D01*
X229547405Y-66579000D01*
X229485447Y-66579000D01*
X230292803Y-65771643D01*
X230292803Y-65771642D01*
X230288729Y-65766461D01*
X230288728Y-65766460D01*
X230129969Y-65628893D01*
X230129958Y-65628885D01*
X230121395Y-65623942D01*
X230073180Y-65573375D01*
X230059956Y-65504768D01*
X230085924Y-65439903D01*
X230095698Y-65428891D01*
X230498821Y-65025768D01*
X230560142Y-64992285D01*
X230629834Y-64997269D01*
G37*
%TD.AperFunction*%
%TA.AperFunction,Conductor*%
G36*
X173986000Y-54030400D02*
G01*
X174583828Y-54030400D01*
X174583844Y-54030399D01*
X174643372Y-54023998D01*
X174643379Y-54023996D01*
X174778086Y-53973754D01*
X174778093Y-53973750D01*
X174893187Y-53887590D01*
X174893190Y-53887587D01*
X174979350Y-53772493D01*
X174979354Y-53772486D01*
X175029596Y-53637780D01*
X175033424Y-53602181D01*
X175060162Y-53537630D01*
X175117555Y-53497782D01*
X175187380Y-53495288D01*
X175247469Y-53530940D01*
X175258289Y-53544312D01*
X175275956Y-53569543D01*
X175436859Y-53730446D01*
X175442329Y-53734276D01*
X175466862Y-53751454D01*
X175466864Y-53751455D01*
X175510490Y-53806030D01*
X175517685Y-53875529D01*
X175486164Y-53937884D01*
X175439077Y-53969213D01*
X175358669Y-53999203D01*
X175358664Y-53999206D01*
X175243455Y-54085452D01*
X175243452Y-54085455D01*
X175157206Y-54200664D01*
X175157202Y-54200671D01*
X175106908Y-54335517D01*
X175100501Y-54395116D01*
X175100500Y-54395127D01*
X175100500Y-54948171D01*
X175100501Y-55401500D01*
X175080817Y-55468539D01*
X175028013Y-55514294D01*
X174976501Y-55525500D01*
X174835224Y-55525500D01*
X174768185Y-55505815D01*
X174747543Y-55489181D01*
X173475062Y-54216699D01*
X173441577Y-54155376D01*
X173446561Y-54085684D01*
X173475063Y-54041336D01*
X173486000Y-54030399D01*
X173486000Y-53046086D01*
X173497955Y-53058041D01*
X173610852Y-53115565D01*
X173704519Y-53130400D01*
X173767481Y-53130400D01*
X173861148Y-53115565D01*
X173974045Y-53058041D01*
X173986000Y-53046086D01*
X173986000Y-54030400D01*
G37*
%TD.AperFunction*%
%TA.AperFunction,Conductor*%
G36*
X212568586Y-35660585D02*
G01*
X212614341Y-35713389D01*
X212624285Y-35782547D01*
X212595260Y-35846103D01*
X212589228Y-35852581D01*
X212250821Y-36190986D01*
X212189498Y-36224471D01*
X212131048Y-36223080D01*
X212062697Y-36204766D01*
X212062693Y-36204765D01*
X212062692Y-36204765D01*
X211949346Y-36194848D01*
X211836001Y-36184932D01*
X211835998Y-36184932D01*
X211609313Y-36204764D01*
X211609302Y-36204766D01*
X211389511Y-36263658D01*
X211389502Y-36263661D01*
X211183267Y-36359831D01*
X211183265Y-36359832D01*
X210996858Y-36490354D01*
X210835954Y-36651258D01*
X210705432Y-36837665D01*
X210705431Y-36837667D01*
X210678382Y-36895675D01*
X210632209Y-36948114D01*
X210565016Y-36967266D01*
X210498135Y-36947050D01*
X210453618Y-36895675D01*
X210426568Y-36837666D01*
X210296047Y-36651261D01*
X210296045Y-36651258D01*
X210135141Y-36490354D01*
X209948734Y-36359832D01*
X209948732Y-36359831D01*
X209742497Y-36263661D01*
X209742488Y-36263658D01*
X209522697Y-36204766D01*
X209522693Y-36204765D01*
X209522692Y-36204765D01*
X209522691Y-36204764D01*
X209522686Y-36204764D01*
X209296002Y-36184932D01*
X209295998Y-36184932D01*
X209069313Y-36204764D01*
X209069302Y-36204766D01*
X208849511Y-36263658D01*
X208849502Y-36263661D01*
X208643267Y-36359831D01*
X208643265Y-36359832D01*
X208456858Y-36490354D01*
X208295954Y-36651258D01*
X208165432Y-36837665D01*
X208165431Y-36837667D01*
X208138382Y-36895675D01*
X208092209Y-36948114D01*
X208025016Y-36967266D01*
X207958135Y-36947050D01*
X207913618Y-36895675D01*
X207886568Y-36837666D01*
X207756047Y-36651261D01*
X207756045Y-36651258D01*
X207595141Y-36490354D01*
X207408734Y-36359832D01*
X207408732Y-36359831D01*
X207202497Y-36263661D01*
X207202488Y-36263658D01*
X206982697Y-36204766D01*
X206982693Y-36204765D01*
X206982692Y-36204765D01*
X206982691Y-36204764D01*
X206982686Y-36204764D01*
X206756002Y-36184932D01*
X206755998Y-36184932D01*
X206529313Y-36204764D01*
X206529302Y-36204766D01*
X206309511Y-36263658D01*
X206309502Y-36263661D01*
X206103267Y-36359831D01*
X206103265Y-36359832D01*
X205916858Y-36490354D01*
X205755954Y-36651258D01*
X205625432Y-36837665D01*
X205625431Y-36837667D01*
X205598382Y-36895675D01*
X205552209Y-36948114D01*
X205485016Y-36967266D01*
X205418135Y-36947050D01*
X205373618Y-36895675D01*
X205346568Y-36837666D01*
X205216047Y-36651261D01*
X205216045Y-36651258D01*
X205055141Y-36490354D01*
X204868734Y-36359832D01*
X204868732Y-36359831D01*
X204662497Y-36263661D01*
X204662488Y-36263658D01*
X204442697Y-36204766D01*
X204442693Y-36204765D01*
X204442692Y-36204765D01*
X204442691Y-36204764D01*
X204442686Y-36204764D01*
X204216002Y-36184932D01*
X204215998Y-36184932D01*
X203989313Y-36204764D01*
X203989302Y-36204766D01*
X203769511Y-36263658D01*
X203769502Y-36263661D01*
X203563267Y-36359831D01*
X203563265Y-36359832D01*
X203376858Y-36490354D01*
X203215954Y-36651258D01*
X203085432Y-36837665D01*
X203085431Y-36837667D01*
X203058382Y-36895675D01*
X203012209Y-36948114D01*
X202945016Y-36967266D01*
X202878135Y-36947050D01*
X202833618Y-36895675D01*
X202806568Y-36837666D01*
X202676047Y-36651261D01*
X202676045Y-36651258D01*
X202515141Y-36490354D01*
X202328734Y-36359832D01*
X202328732Y-36359831D01*
X202122497Y-36263661D01*
X202122488Y-36263658D01*
X201902697Y-36204766D01*
X201902693Y-36204765D01*
X201902692Y-36204765D01*
X201902691Y-36204764D01*
X201902686Y-36204764D01*
X201676002Y-36184932D01*
X201675998Y-36184932D01*
X201449313Y-36204764D01*
X201449302Y-36204766D01*
X201229511Y-36263658D01*
X201229502Y-36263661D01*
X201023267Y-36359831D01*
X201023265Y-36359832D01*
X200836858Y-36490354D01*
X200675954Y-36651258D01*
X200545432Y-36837665D01*
X200545431Y-36837667D01*
X200518382Y-36895675D01*
X200472209Y-36948114D01*
X200405016Y-36967266D01*
X200338135Y-36947050D01*
X200293618Y-36895675D01*
X200266568Y-36837666D01*
X200136047Y-36651261D01*
X200136045Y-36651258D01*
X199975141Y-36490354D01*
X199788734Y-36359832D01*
X199788732Y-36359831D01*
X199582497Y-36263661D01*
X199582488Y-36263658D01*
X199362697Y-36204766D01*
X199362693Y-36204765D01*
X199362692Y-36204765D01*
X199362691Y-36204764D01*
X199362686Y-36204764D01*
X199136002Y-36184932D01*
X199135998Y-36184932D01*
X198909313Y-36204764D01*
X198909302Y-36204766D01*
X198689511Y-36263658D01*
X198689502Y-36263661D01*
X198483267Y-36359831D01*
X198483265Y-36359832D01*
X198296858Y-36490354D01*
X198135954Y-36651258D01*
X198005432Y-36837665D01*
X198005431Y-36837667D01*
X197978382Y-36895675D01*
X197932209Y-36948114D01*
X197865016Y-36967266D01*
X197798135Y-36947050D01*
X197753618Y-36895675D01*
X197726568Y-36837666D01*
X197596047Y-36651261D01*
X197596045Y-36651258D01*
X197435141Y-36490354D01*
X197248734Y-36359832D01*
X197248732Y-36359831D01*
X197042497Y-36263661D01*
X197042488Y-36263658D01*
X196822697Y-36204766D01*
X196822693Y-36204765D01*
X196822692Y-36204765D01*
X196822691Y-36204764D01*
X196822686Y-36204764D01*
X196596002Y-36184932D01*
X196595998Y-36184932D01*
X196369313Y-36204764D01*
X196369302Y-36204766D01*
X196149511Y-36263658D01*
X196149502Y-36263661D01*
X195943267Y-36359831D01*
X195943265Y-36359832D01*
X195756858Y-36490354D01*
X195595954Y-36651258D01*
X195465432Y-36837665D01*
X195465431Y-36837667D01*
X195438382Y-36895675D01*
X195392209Y-36948114D01*
X195325016Y-36967266D01*
X195258135Y-36947050D01*
X195213618Y-36895675D01*
X195186568Y-36837666D01*
X195056047Y-36651261D01*
X195056045Y-36651258D01*
X194895141Y-36490354D01*
X194708734Y-36359832D01*
X194708732Y-36359831D01*
X194502497Y-36263661D01*
X194502488Y-36263658D01*
X194282697Y-36204766D01*
X194282693Y-36204765D01*
X194282692Y-36204765D01*
X194282691Y-36204764D01*
X194282686Y-36204764D01*
X194056002Y-36184932D01*
X194055998Y-36184932D01*
X193829313Y-36204764D01*
X193829302Y-36204766D01*
X193609511Y-36263658D01*
X193609502Y-36263661D01*
X193403267Y-36359831D01*
X193403265Y-36359832D01*
X193216858Y-36490354D01*
X193055954Y-36651258D01*
X192925432Y-36837665D01*
X192925431Y-36837667D01*
X192898382Y-36895675D01*
X192852209Y-36948114D01*
X192785016Y-36967266D01*
X192718135Y-36947050D01*
X192673618Y-36895675D01*
X192646568Y-36837666D01*
X192516047Y-36651261D01*
X192516045Y-36651258D01*
X192355141Y-36490354D01*
X192168734Y-36359832D01*
X192168732Y-36359831D01*
X191962497Y-36263661D01*
X191962488Y-36263658D01*
X191742697Y-36204766D01*
X191742693Y-36204765D01*
X191742692Y-36204765D01*
X191742691Y-36204764D01*
X191742686Y-36204764D01*
X191516002Y-36184932D01*
X191515998Y-36184932D01*
X191289313Y-36204764D01*
X191289302Y-36204766D01*
X191069511Y-36263658D01*
X191069502Y-36263661D01*
X190863267Y-36359831D01*
X190863265Y-36359832D01*
X190676858Y-36490354D01*
X190515954Y-36651258D01*
X190385432Y-36837665D01*
X190385431Y-36837667D01*
X190358382Y-36895675D01*
X190312209Y-36948114D01*
X190245016Y-36967266D01*
X190178135Y-36947050D01*
X190133618Y-36895675D01*
X190106568Y-36837666D01*
X189976047Y-36651261D01*
X189976045Y-36651258D01*
X189815141Y-36490354D01*
X189628734Y-36359832D01*
X189628732Y-36359831D01*
X189422497Y-36263661D01*
X189422488Y-36263658D01*
X189202697Y-36204766D01*
X189202693Y-36204765D01*
X189202692Y-36204765D01*
X189202691Y-36204764D01*
X189202686Y-36204764D01*
X188976002Y-36184932D01*
X188975998Y-36184932D01*
X188749313Y-36204764D01*
X188749302Y-36204766D01*
X188529511Y-36263658D01*
X188529502Y-36263661D01*
X188323267Y-36359831D01*
X188323265Y-36359832D01*
X188136858Y-36490354D01*
X187975954Y-36651258D01*
X187845432Y-36837665D01*
X187845431Y-36837667D01*
X187818382Y-36895675D01*
X187772209Y-36948114D01*
X187705016Y-36967266D01*
X187638135Y-36947050D01*
X187593618Y-36895675D01*
X187566568Y-36837666D01*
X187436047Y-36651261D01*
X187436045Y-36651258D01*
X187275141Y-36490354D01*
X187088734Y-36359832D01*
X187088732Y-36359831D01*
X186882497Y-36263661D01*
X186882488Y-36263658D01*
X186662697Y-36204766D01*
X186662693Y-36204765D01*
X186662692Y-36204765D01*
X186662691Y-36204764D01*
X186662686Y-36204764D01*
X186436002Y-36184932D01*
X186435998Y-36184932D01*
X186209313Y-36204764D01*
X186209302Y-36204766D01*
X185989511Y-36263658D01*
X185989502Y-36263661D01*
X185783267Y-36359831D01*
X185783265Y-36359832D01*
X185596858Y-36490354D01*
X185435954Y-36651258D01*
X185305432Y-36837665D01*
X185305431Y-36837667D01*
X185278382Y-36895675D01*
X185232209Y-36948114D01*
X185165016Y-36967266D01*
X185098135Y-36947050D01*
X185053618Y-36895675D01*
X185026568Y-36837666D01*
X184896047Y-36651261D01*
X184896045Y-36651258D01*
X184735141Y-36490354D01*
X184548734Y-36359832D01*
X184548732Y-36359831D01*
X184342497Y-36263661D01*
X184342488Y-36263658D01*
X184122697Y-36204766D01*
X184122693Y-36204765D01*
X184122692Y-36204765D01*
X184122691Y-36204764D01*
X184122686Y-36204764D01*
X183896002Y-36184932D01*
X183895998Y-36184932D01*
X183669313Y-36204764D01*
X183669302Y-36204766D01*
X183449511Y-36263658D01*
X183449502Y-36263661D01*
X183243267Y-36359831D01*
X183243265Y-36359832D01*
X183056858Y-36490354D01*
X182895954Y-36651258D01*
X182765432Y-36837665D01*
X182765431Y-36837667D01*
X182738382Y-36895675D01*
X182692209Y-36948114D01*
X182625016Y-36967266D01*
X182558135Y-36947050D01*
X182513618Y-36895675D01*
X182486568Y-36837666D01*
X182356047Y-36651261D01*
X182356045Y-36651258D01*
X182195141Y-36490354D01*
X182008734Y-36359832D01*
X182008732Y-36359831D01*
X181802497Y-36263661D01*
X181802488Y-36263658D01*
X181582697Y-36204766D01*
X181582693Y-36204765D01*
X181582692Y-36204765D01*
X181582691Y-36204764D01*
X181582686Y-36204764D01*
X181356002Y-36184932D01*
X181355998Y-36184932D01*
X181129313Y-36204764D01*
X181129302Y-36204766D01*
X180909511Y-36263658D01*
X180909502Y-36263661D01*
X180703267Y-36359831D01*
X180703265Y-36359832D01*
X180516858Y-36490354D01*
X180355954Y-36651258D01*
X180225433Y-36837664D01*
X180225432Y-36837666D01*
X180204376Y-36882822D01*
X180198106Y-36896267D01*
X180151933Y-36948706D01*
X180084739Y-36967857D01*
X180017858Y-36947641D01*
X179973342Y-36896265D01*
X179946135Y-36837920D01*
X179946134Y-36837918D01*
X179815657Y-36651579D01*
X179654820Y-36490742D01*
X179468482Y-36360265D01*
X179262328Y-36264134D01*
X179066000Y-36211527D01*
X179066000Y-37174714D01*
X179054045Y-37162759D01*
X178941148Y-37105235D01*
X178847481Y-37090400D01*
X178784519Y-37090400D01*
X178690852Y-37105235D01*
X178577955Y-37162759D01*
X178566000Y-37174714D01*
X178566000Y-36187093D01*
X178565375Y-36186238D01*
X178561218Y-36116492D01*
X178594379Y-36056609D01*
X178973771Y-35677219D01*
X179035094Y-35643734D01*
X179061452Y-35640900D01*
X212501547Y-35640900D01*
X212568586Y-35660585D01*
G37*
%TD.AperFunction*%
%TD*%
M02*
