%TF.GenerationSoftware,KiCad,Pcbnew,7.0.9-7.0.9~ubuntu20.04.1*%
%TF.CreationDate,2023-12-28T04:39:14+01:00*%
%TF.ProjectId,M50747_SDIP,4d353037-3437-45f5-9344-49502e6b6963,rev?*%
%TF.SameCoordinates,Original*%
%TF.FileFunction,Copper,L1,Top*%
%TF.FilePolarity,Positive*%
%FSLAX46Y46*%
G04 Gerber Fmt 4.6, Leading zero omitted, Abs format (unit mm)*
G04 Created by KiCad (PCBNEW 7.0.9-7.0.9~ubuntu20.04.1) date 2023-12-28 04:39:14*
%MOMM*%
%LPD*%
G01*
G04 APERTURE LIST*
G04 Aperture macros list*
%AMRoundRect*
0 Rectangle with rounded corners*
0 $1 Rounding radius*
0 $2 $3 $4 $5 $6 $7 $8 $9 X,Y pos of 4 corners*
0 Add a 4 corners polygon primitive as box body*
4,1,4,$2,$3,$4,$5,$6,$7,$8,$9,$2,$3,0*
0 Add four circle primitives for the rounded corners*
1,1,$1+$1,$2,$3*
1,1,$1+$1,$4,$5*
1,1,$1+$1,$6,$7*
1,1,$1+$1,$8,$9*
0 Add four rect primitives between the rounded corners*
20,1,$1+$1,$2,$3,$4,$5,0*
20,1,$1+$1,$4,$5,$6,$7,0*
20,1,$1+$1,$6,$7,$8,$9,0*
20,1,$1+$1,$8,$9,$2,$3,0*%
G04 Aperture macros list end*
%TA.AperFunction,SMDPad,CuDef*%
%ADD10R,1.000000X1.500000*%
%TD*%
%TA.AperFunction,ComponentPad*%
%ADD11R,1.350000X1.350000*%
%TD*%
%TA.AperFunction,SMDPad,CuDef*%
%ADD12RoundRect,0.250000X-0.412500X-0.650000X0.412500X-0.650000X0.412500X0.650000X-0.412500X0.650000X0*%
%TD*%
%TA.AperFunction,ComponentPad*%
%ADD13R,1.600000X1.600000*%
%TD*%
%TA.AperFunction,ComponentPad*%
%ADD14O,1.600000X1.600000*%
%TD*%
%TA.AperFunction,ComponentPad*%
%ADD15R,1.700000X1.700000*%
%TD*%
%TA.AperFunction,ComponentPad*%
%ADD16O,1.700000X1.700000*%
%TD*%
%TA.AperFunction,ComponentPad*%
%ADD17O,1.200000X2.000000*%
%TD*%
%TA.AperFunction,ViaPad*%
%ADD18C,0.800000*%
%TD*%
%TA.AperFunction,Conductor*%
%ADD19C,0.400000*%
%TD*%
%TA.AperFunction,Conductor*%
%ADD20C,0.250000*%
%TD*%
G04 APERTURE END LIST*
D10*
%TO.P,JP1,1,A*%
%TO.N,GND*%
X219296523Y-71206921D03*
%TO.P,JP1,2,C*%
%TO.N,Net-(JP1-C)*%
X220596523Y-71206921D03*
%TO.P,JP1,3,B*%
%TO.N,+5V*%
X221896523Y-71206921D03*
%TD*%
D11*
%TO.P,J2,1,Pin_1*%
%TO.N,Net-(J2-Pin_1)*%
X216662000Y-71120000D03*
%TD*%
D12*
%TO.P,C1,1*%
%TO.N,+5V*%
X197535000Y-70104000D03*
%TO.P,C1,2*%
%TO.N,GND*%
X200660000Y-70104000D03*
%TD*%
D11*
%TO.P,J4,1,Pin_1*%
%TO.N,Net-(J4-Pin_1)*%
X183896000Y-40640000D03*
%TD*%
D13*
%TO.P,U3,1,VSS*%
%TO.N,GND*%
X173736000Y-52730400D03*
D14*
%TO.P,U3,2,~{HALT}*%
%TO.N,/~{HALT}*%
X176276000Y-52730400D03*
%TO.P,U3,3,MR*%
%TO.N,Net-(J3-Pin_1)*%
X178816000Y-52730400D03*
%TO.P,U3,4,~{IRQ}*%
%TO.N,/~{IRQ1}*%
X181356000Y-52730400D03*
%TO.P,U3,5,VMA*%
%TO.N,Net-(J6-Pin_1)*%
X183896000Y-52730400D03*
%TO.P,U3,6,~{NMI}*%
%TO.N,/~{NMI}*%
X186436000Y-52730400D03*
%TO.P,U3,7,BA*%
%TO.N,/BA*%
X188976000Y-52730400D03*
%TO.P,U3,8,VCC*%
%TO.N,+5V*%
X191516000Y-52730400D03*
%TO.P,U3,9,A0*%
%TO.N,/A0*%
X194056000Y-52730400D03*
%TO.P,U3,10,A1*%
%TO.N,/A1*%
X196596000Y-52730400D03*
%TO.P,U3,11,A2*%
%TO.N,/A2*%
X199136000Y-52730400D03*
%TO.P,U3,12,A3*%
%TO.N,/A3*%
X201676000Y-52730400D03*
%TO.P,U3,13,A4*%
%TO.N,/A4*%
X204216000Y-52730400D03*
%TO.P,U3,14,A5*%
%TO.N,/A5*%
X206756000Y-52730400D03*
%TO.P,U3,15,A6*%
%TO.N,/A6*%
X209296000Y-52730400D03*
%TO.P,U3,16,A7*%
%TO.N,/A7*%
X211836000Y-52730400D03*
%TO.P,U3,17,A8*%
%TO.N,/A8*%
X214376000Y-52730400D03*
%TO.P,U3,18,A9*%
%TO.N,/A9*%
X216916000Y-52730400D03*
%TO.P,U3,19,A10*%
%TO.N,/A10*%
X219456000Y-52730400D03*
%TO.P,U3,20,A11*%
%TO.N,/A11*%
X221996000Y-52730400D03*
%TO.P,U3,21,VSS*%
%TO.N,GND*%
X221996000Y-37490400D03*
%TO.P,U3,22,A12*%
%TO.N,/A12*%
X219456000Y-37490400D03*
%TO.P,U3,23,A13*%
%TO.N,/A13*%
X216916000Y-37490400D03*
%TO.P,U3,24,A14*%
%TO.N,/A14*%
X214376000Y-37490400D03*
%TO.P,U3,25,A15*%
%TO.N,/A15*%
X211836000Y-37490400D03*
%TO.P,U3,26,D7*%
%TO.N,/D7*%
X209296000Y-37490400D03*
%TO.P,U3,27,D6*%
%TO.N,/D6*%
X206756000Y-37490400D03*
%TO.P,U3,28,D5*%
%TO.N,/D5*%
X204216000Y-37490400D03*
%TO.P,U3,29,D4*%
%TO.N,/D4*%
X201676000Y-37490400D03*
%TO.P,U3,30,D3*%
%TO.N,/D3*%
X199136000Y-37490400D03*
%TO.P,U3,31,D2*%
%TO.N,/D2*%
X196596000Y-37490400D03*
%TO.P,U3,32,D1*%
%TO.N,/D1*%
X194056000Y-37490400D03*
%TO.P,U3,33,D0*%
%TO.N,/D0*%
X191516000Y-37490400D03*
%TO.P,U3,34,R/~{W}*%
%TO.N,/R{slash}~{W}*%
X188976000Y-37490400D03*
%TO.P,U3,35,VCC_STANDBY*%
%TO.N,+5C*%
X186436000Y-37490400D03*
%TO.P,U3,36,RE*%
%TO.N,Net-(J4-Pin_1)*%
X183896000Y-37490400D03*
%TO.P,U3,37,E*%
%TO.N,/PHI2*%
X181356000Y-37490400D03*
%TO.P,U3,38,XTAL*%
%TO.N,GND*%
X178816000Y-37490400D03*
%TO.P,U3,39,EXTAL*%
%TO.N,/CPUCLK*%
X176276000Y-37490400D03*
%TO.P,U3,40,~{RESET}*%
%TO.N,/~{RST}*%
X173736000Y-37490400D03*
%TD*%
D15*
%TO.P,J1,1,Pin_1*%
%TO.N,GND*%
X166878000Y-81026000D03*
D16*
%TO.P,J1,2,Pin_2*%
%TO.N,/SYNC*%
X164338000Y-81026000D03*
%TO.P,J1,3,Pin_3*%
%TO.N,/P33*%
X166878000Y-78486000D03*
%TO.P,J1,4,Pin_4*%
%TO.N,/P34*%
X164338000Y-78486000D03*
%TO.P,J1,5,Pin_5*%
%TO.N,/P35*%
X166878000Y-75946000D03*
%TO.P,J1,6,Pin_6*%
%TO.N,/P36*%
X164338000Y-75946000D03*
%TO.P,J1,7,Pin_7*%
%TO.N,/P37*%
X166878000Y-73406000D03*
%TO.P,J1,8,Pin_8*%
%TO.N,/P67*%
X164338000Y-73406000D03*
%TO.P,J1,9,Pin_9*%
%TO.N,/P66*%
X166878000Y-70866000D03*
%TO.P,J1,10,Pin_10*%
%TO.N,/P65*%
X164338000Y-70866000D03*
%TO.P,J1,11,Pin_11*%
%TO.N,/P64*%
X166878000Y-68326000D03*
%TO.P,J1,12,Pin_12*%
%TO.N,/P63*%
X164338000Y-68326000D03*
%TO.P,J1,13,Pin_13*%
%TO.N,/P62*%
X166878000Y-65786000D03*
%TO.P,J1,14,Pin_14*%
%TO.N,/P61*%
X164338000Y-65786000D03*
%TO.P,J1,15,Pin_15*%
%TO.N,/P60*%
X166878000Y-63246000D03*
%TO.P,J1,16,Pin_16*%
%TO.N,/P47*%
X164338000Y-63246000D03*
%TO.P,J1,17,Pin_17*%
%TO.N,/P46*%
X166878000Y-60706000D03*
%TO.P,J1,18,Pin_18*%
%TO.N,/P45*%
X164338000Y-60706000D03*
%TO.P,J1,19,Pin_19*%
%TO.N,/P44*%
X166878000Y-58166000D03*
%TO.P,J1,20,Pin_20*%
%TO.N,/P43*%
X164338000Y-58166000D03*
%TO.P,J1,21,Pin_21*%
%TO.N,/P42*%
X166878000Y-55626000D03*
%TO.P,J1,22,Pin_22*%
%TO.N,/P41*%
X164338000Y-55626000D03*
%TO.P,J1,23,Pin_23*%
%TO.N,/P40*%
X166878000Y-53086000D03*
%TO.P,J1,24,Pin_24*%
%TO.N,/P57*%
X164338000Y-53086000D03*
%TO.P,J1,25,Pin_25*%
%TO.N,/P56*%
X166878000Y-50546000D03*
%TO.P,J1,26,Pin_26*%
%TO.N,/P55*%
X164338000Y-50546000D03*
%TO.P,J1,27,Pin_27*%
%TO.N,/P54*%
X166878000Y-48006000D03*
%TO.P,J1,28,Pin_28*%
%TO.N,/P53*%
X164338000Y-48006000D03*
%TO.P,J1,29,Pin_29*%
%TO.N,/P52*%
X166878000Y-45466000D03*
%TO.P,J1,30,Pin_30*%
%TO.N,/P51*%
X164338000Y-45466000D03*
%TO.P,J1,31,Pin_31*%
%TO.N,/P50*%
X166878000Y-42926000D03*
%TO.P,J1,32,Pin_32*%
%TO.N,+5V*%
X164338000Y-42926000D03*
%TD*%
D11*
%TO.P,J7,1,Pin_1*%
%TO.N,/BA*%
X181229000Y-55118000D03*
%TD*%
%TO.P,J6,1,Pin_1*%
%TO.N,Net-(J6-Pin_1)*%
X183896000Y-55118000D03*
%TD*%
D17*
%TO.P,U1,1,Vcc*%
%TO.N,+5V*%
X174371000Y-66929000D03*
%TO.P,U1,2,P67*%
%TO.N,/P67*%
X176149000Y-66929000D03*
%TO.P,U1,3,P66*%
%TO.N,/P66*%
X177927000Y-66929000D03*
%TO.P,U1,4,P65*%
%TO.N,/P65*%
X179705000Y-66929000D03*
%TO.P,U1,5,P64*%
%TO.N,/P64*%
X181483000Y-66929000D03*
%TO.P,U1,6,P63*%
%TO.N,/P63*%
X183261000Y-66929000D03*
%TO.P,U1,7,P62*%
%TO.N,/P62*%
X185039000Y-66929000D03*
%TO.P,U1,8,P61*%
%TO.N,/P61*%
X186817000Y-66929000D03*
%TO.P,U1,9,P60*%
%TO.N,/P60*%
X188595000Y-66929000D03*
%TO.P,U1,10,P47*%
%TO.N,/P47*%
X190373000Y-66929000D03*
%TO.P,U1,11,P46*%
%TO.N,/P46*%
X192151000Y-66929000D03*
%TO.P,U1,12,P45*%
%TO.N,/P45*%
X193929000Y-66929000D03*
%TO.P,U1,13,P44*%
%TO.N,/P44*%
X195707000Y-66929000D03*
%TO.P,U1,14,P43*%
%TO.N,/P43*%
X197485000Y-66929000D03*
%TO.P,U1,15,P42*%
%TO.N,/P42*%
X199263000Y-66929000D03*
%TO.P,U1,16,P41*%
%TO.N,/P41*%
X201041000Y-66929000D03*
%TO.P,U1,17,P40*%
%TO.N,/P40*%
X202819000Y-66929000D03*
%TO.P,U1,18,P37/SRDY*%
%TO.N,/P37*%
X204597000Y-66929000D03*
%TO.P,U1,19,P36/CLK*%
%TO.N,/P36*%
X206375000Y-66929000D03*
%TO.P,U1,20,P35/TxD*%
%TO.N,/P35*%
X208153000Y-66929000D03*
%TO.P,U1,21,P34/RxD*%
%TO.N,/P34*%
X209931000Y-66929000D03*
%TO.P,U1,22,P33/CNTR*%
%TO.N,/P33*%
X211709000Y-66929000D03*
%TO.P,U1,23,P32/~{INT2}*%
%TO.N,/~{NMI}*%
X213487000Y-66929000D03*
%TO.P,U1,24,P31/SYNC*%
%TO.N,/SYNC*%
X215265000Y-66929000D03*
%TO.P,U1,25,P30/R/~{W}*%
%TO.N,/R{slash}~{W}*%
X217043000Y-66929000D03*
%TO.P,U1,26,~{INT1}*%
%TO.N,/~{IRQ1}*%
X218821000Y-66929000D03*
%TO.P,U1,27,CNVSS*%
%TO.N,Net-(JP1-C)*%
X220599000Y-66929000D03*
%TO.P,U1,28,~{RST}*%
%TO.N,/~{RST}*%
X222377000Y-66929000D03*
%TO.P,U1,29,EXTAL/CLK*%
%TO.N,/CPUCLK*%
X224155000Y-66929000D03*
%TO.P,U1,30,XTAL*%
%TO.N,unconnected-(U1-XTAL-Pad30)*%
X225933000Y-66929000D03*
%TO.P,U1,31,PHI*%
%TO.N,/PHI2*%
X227711000Y-66929000D03*
%TO.P,U1,32,GND*%
%TO.N,GND*%
X229489000Y-66929000D03*
%TO.P,U1,33,P57*%
%TO.N,/P57*%
X229489000Y-47879000D03*
%TO.P,U1,34,P56*%
%TO.N,/P56*%
X227711000Y-47879000D03*
%TO.P,U1,35,P55*%
%TO.N,/P55*%
X225933000Y-47879000D03*
%TO.P,U1,36,P54*%
%TO.N,/P54*%
X224155000Y-47879000D03*
%TO.P,U1,37,P53*%
%TO.N,/P53*%
X222377000Y-47879000D03*
%TO.P,U1,38,P52*%
%TO.N,/P52*%
X220599000Y-47879000D03*
%TO.P,U1,39,P51*%
%TO.N,/P51*%
X218821000Y-47879000D03*
%TO.P,U1,40,P50*%
%TO.N,/P50*%
X217043000Y-47879000D03*
%TO.P,U1,41,A15*%
%TO.N,/A15*%
X215265000Y-47879000D03*
%TO.P,U1,42,A14*%
%TO.N,/A14*%
X213487000Y-47879000D03*
%TO.P,U1,43,A13*%
%TO.N,/A13*%
X211709000Y-47879000D03*
%TO.P,U1,44,A12*%
%TO.N,/A12*%
X209931000Y-47879000D03*
%TO.P,U1,45,A11*%
%TO.N,/A11*%
X208153000Y-47879000D03*
%TO.P,U1,46,A10*%
%TO.N,/A10*%
X206375000Y-47879000D03*
%TO.P,U1,47,A9*%
%TO.N,/A9*%
X204597000Y-47879000D03*
%TO.P,U1,48,A8*%
%TO.N,/A8*%
X202819000Y-47879000D03*
%TO.P,U1,49,A7*%
%TO.N,/A7*%
X201041000Y-47879000D03*
%TO.P,U1,50,A6*%
%TO.N,/A6*%
X199263000Y-47879000D03*
%TO.P,U1,51,A5*%
%TO.N,/A5*%
X197485000Y-47879000D03*
%TO.P,U1,52,A4*%
%TO.N,/A4*%
X195707000Y-47879000D03*
%TO.P,U1,53,A3*%
%TO.N,/A3*%
X193929000Y-47879000D03*
%TO.P,U1,54,A2*%
%TO.N,/A2*%
X192151000Y-47879000D03*
%TO.P,U1,55,A1*%
%TO.N,/A1*%
X190373000Y-47879000D03*
%TO.P,U1,56,A0*%
%TO.N,/A0*%
X188595000Y-47879000D03*
%TO.P,U1,57,D7*%
%TO.N,/D7*%
X186817000Y-47879000D03*
%TO.P,U1,58,D6*%
%TO.N,/D6*%
X185039000Y-47879000D03*
%TO.P,U1,59,D5*%
%TO.N,/D5*%
X183261000Y-47879000D03*
%TO.P,U1,60,D4*%
%TO.N,/D4*%
X181483000Y-47879000D03*
%TO.P,U1,61,D3*%
%TO.N,/D3*%
X179705000Y-47879000D03*
%TO.P,U1,62,D2*%
%TO.N,/D2*%
X177927000Y-47879000D03*
%TO.P,U1,63,D1*%
%TO.N,/D1*%
X176149000Y-47879000D03*
%TO.P,U1,64,D0*%
%TO.N,/D0*%
X174371000Y-47879000D03*
%TD*%
D11*
%TO.P,J8,1,Pin_1*%
%TO.N,/~{HALT}*%
X176276000Y-55118000D03*
%TD*%
%TO.P,J3,1,Pin_1*%
%TO.N,Net-(J3-Pin_1)*%
X178816000Y-55118000D03*
%TD*%
D18*
%TO.N,+5V*%
X221996000Y-74422000D03*
X224282000Y-71120000D03*
%TO.N,/R{slash}~{W}*%
X185928000Y-50419000D03*
%TO.N,/P67*%
X170307000Y-70104000D03*
%TD*%
D19*
%TO.N,+5V*%
X197535000Y-70104000D02*
X197535000Y-71297000D01*
X197535000Y-71297000D02*
X200660000Y-74422000D01*
X200660000Y-74422000D02*
X221996000Y-74422000D01*
X221983444Y-71120000D02*
X221896523Y-71206921D01*
X224282000Y-71120000D02*
X221983444Y-71120000D01*
%TO.N,GND*%
X219296523Y-71206921D02*
X219296523Y-72295477D01*
X219296523Y-72295477D02*
X218186000Y-73406000D01*
X218186000Y-73406000D02*
X202184000Y-73406000D01*
X202184000Y-73406000D02*
X200660000Y-71882000D01*
X200660000Y-71882000D02*
X200660000Y-70104000D01*
X229489000Y-66929000D02*
X229489000Y-70485000D01*
X219296523Y-72356921D02*
X219296523Y-71206921D01*
X229489000Y-70485000D02*
X226568000Y-73406000D01*
X226568000Y-73406000D02*
X220345602Y-73406000D01*
X220345602Y-73406000D02*
X219296523Y-72356921D01*
%TO.N,Net-(JP1-C)*%
X220596523Y-71206921D02*
X220596523Y-66931477D01*
X220596523Y-66931477D02*
X220599000Y-66929000D01*
%TO.N,+5V*%
X197535000Y-70104000D02*
X177146000Y-70104000D01*
X183496000Y-57404000D02*
X186842400Y-57404000D01*
X174371000Y-66929000D02*
X174371000Y-66529000D01*
X174371000Y-66529000D02*
X183496000Y-57404000D01*
X186842400Y-57404000D02*
X191516000Y-52730400D01*
X174371000Y-67329000D02*
X174371000Y-66929000D01*
X177146000Y-70104000D02*
X174371000Y-67329000D01*
%TO.N,GND*%
X229489000Y-66929000D02*
X229997000Y-66421000D01*
X165628000Y-79776000D02*
X166878000Y-81026000D01*
X231140000Y-65278000D02*
X231140000Y-46634400D01*
X160528000Y-42799000D02*
X167513000Y-35814000D01*
X178816000Y-37490400D02*
X173228000Y-43078400D01*
X229997000Y-66421000D02*
X229997000Y-66457214D01*
X161183000Y-79776000D02*
X165628000Y-79776000D01*
X173228000Y-52038400D02*
X173136000Y-52130400D01*
X231140000Y-46634400D02*
X221996000Y-37490400D01*
X160528000Y-79121000D02*
X161183000Y-79776000D01*
X167513000Y-35814000D02*
X177139600Y-35814000D01*
X160528000Y-79121000D02*
X160528000Y-42799000D01*
X229997000Y-66421000D02*
X231140000Y-65278000D01*
X173228000Y-43078400D02*
X173228000Y-52038400D01*
X177139600Y-35814000D02*
X178816000Y-37490400D01*
D20*
%TO.N,/~{NMI}*%
X212363591Y-51377000D02*
X213251000Y-52264409D01*
X191262000Y-51377000D02*
X212363591Y-51377000D01*
X213251000Y-52264409D02*
X213251000Y-66693000D01*
X190391000Y-52906391D02*
X190391000Y-52248000D01*
X186436000Y-52730400D02*
X187561000Y-53855400D01*
X213251000Y-66693000D02*
X213487000Y-66929000D01*
X189441991Y-53855400D02*
X190391000Y-52906391D01*
X187561000Y-53855400D02*
X189441991Y-53855400D01*
X190391000Y-52248000D02*
X191262000Y-51377000D01*
%TO.N,/~{IRQ1}*%
X218331000Y-66439000D02*
X218821000Y-66929000D01*
X215506000Y-49644000D02*
X218331000Y-52469000D01*
X181356000Y-52730400D02*
X184442400Y-49644000D01*
X184442400Y-49644000D02*
X215506000Y-49644000D01*
X218331000Y-52469000D02*
X218331000Y-66439000D01*
%TO.N,/R{slash}~{W}*%
X217043000Y-66929000D02*
X215791000Y-65677000D01*
X215791000Y-65677000D02*
X215791000Y-52469000D01*
X214249000Y-50927000D02*
X186436000Y-50927000D01*
X186436000Y-50927000D02*
X185928000Y-50419000D01*
X215791000Y-52469000D02*
X214249000Y-50927000D01*
D19*
%TO.N,Net-(J4-Pin_1)*%
X183896000Y-37490400D02*
X183896000Y-40640000D01*
D20*
%TO.N,/~{HALT}*%
X176276000Y-55118000D02*
X176276000Y-52730400D01*
%TO.N,/BA*%
X188976000Y-52730400D02*
X187851000Y-51605400D01*
X185021000Y-53231000D02*
X184396600Y-53855400D01*
X187851000Y-51605400D02*
X185970009Y-51605400D01*
X185021000Y-52554409D02*
X185021000Y-53231000D01*
X184396600Y-53855400D02*
X182491600Y-53855400D01*
X185970009Y-51605400D02*
X185021000Y-52554409D01*
X182491600Y-53855400D02*
X181229000Y-55118000D01*
%TO.N,/P67*%
X170307000Y-70104000D02*
X168370000Y-72041000D01*
X168370000Y-72041000D02*
X165703000Y-72041000D01*
X165703000Y-72041000D02*
X164338000Y-73406000D01*
%TD*%
%TA.AperFunction,Conductor*%
%TO.N,GND*%
G36*
X165692855Y-79152546D02*
G01*
X165709575Y-79171842D01*
X165839501Y-79357396D01*
X165839506Y-79357402D01*
X165961818Y-79479714D01*
X165995303Y-79541037D01*
X165990319Y-79610729D01*
X165948447Y-79666662D01*
X165917471Y-79683577D01*
X165785912Y-79732646D01*
X165785906Y-79732649D01*
X165670812Y-79818809D01*
X165670809Y-79818812D01*
X165584649Y-79933906D01*
X165584645Y-79933913D01*
X165535578Y-80065470D01*
X165493707Y-80121404D01*
X165428242Y-80145821D01*
X165359969Y-80130969D01*
X165331715Y-80109819D01*
X165287366Y-80065470D01*
X165209401Y-79987505D01*
X165209397Y-79987502D01*
X165209396Y-79987501D01*
X165023842Y-79857575D01*
X164980217Y-79802998D01*
X164973023Y-79733500D01*
X165004546Y-79671145D01*
X165023842Y-79654425D01*
X165135500Y-79576241D01*
X165209401Y-79524495D01*
X165376495Y-79357401D01*
X165506425Y-79171842D01*
X165561002Y-79128217D01*
X165630500Y-79121023D01*
X165692855Y-79152546D01*
G37*
%TD.AperFunction*%
%TA.AperFunction,Conductor*%
G36*
X231942539Y-33520185D02*
G01*
X231988294Y-33572989D01*
X231999500Y-33624500D01*
X231999500Y-82875500D01*
X231979815Y-82942539D01*
X231927011Y-82988294D01*
X231875500Y-82999500D01*
X159624500Y-82999500D01*
X159557461Y-82979815D01*
X159511706Y-82927011D01*
X159500500Y-82875500D01*
X159500500Y-81026000D01*
X162982341Y-81026000D01*
X163002936Y-81261403D01*
X163002938Y-81261413D01*
X163064094Y-81489655D01*
X163064096Y-81489659D01*
X163064097Y-81489663D01*
X163163965Y-81703830D01*
X163163967Y-81703834D01*
X163272281Y-81858521D01*
X163299505Y-81897401D01*
X163466599Y-82064495D01*
X163543135Y-82118086D01*
X163660165Y-82200032D01*
X163660167Y-82200033D01*
X163660170Y-82200035D01*
X163874337Y-82299903D01*
X164102592Y-82361063D01*
X164273319Y-82376000D01*
X164337999Y-82381659D01*
X164338000Y-82381659D01*
X164338001Y-82381659D01*
X164402681Y-82376000D01*
X164573408Y-82361063D01*
X164801663Y-82299903D01*
X165015830Y-82200035D01*
X165209401Y-82064495D01*
X165331717Y-81942178D01*
X165393036Y-81908696D01*
X165462728Y-81913680D01*
X165518662Y-81955551D01*
X165535577Y-81986528D01*
X165584646Y-82118088D01*
X165584649Y-82118093D01*
X165670809Y-82233187D01*
X165670812Y-82233190D01*
X165785906Y-82319350D01*
X165785913Y-82319354D01*
X165920620Y-82369596D01*
X165920627Y-82369598D01*
X165980155Y-82375999D01*
X165980172Y-82376000D01*
X166628000Y-82376000D01*
X166628000Y-81461501D01*
X166735685Y-81510680D01*
X166842237Y-81526000D01*
X166913763Y-81526000D01*
X167020315Y-81510680D01*
X167128000Y-81461501D01*
X167128000Y-82376000D01*
X167775828Y-82376000D01*
X167775844Y-82375999D01*
X167835372Y-82369598D01*
X167835379Y-82369596D01*
X167970086Y-82319354D01*
X167970093Y-82319350D01*
X168085187Y-82233190D01*
X168085190Y-82233187D01*
X168171350Y-82118093D01*
X168171354Y-82118086D01*
X168221596Y-81983379D01*
X168221598Y-81983372D01*
X168227999Y-81923844D01*
X168228000Y-81923827D01*
X168228000Y-81276000D01*
X167311686Y-81276000D01*
X167337493Y-81235844D01*
X167378000Y-81097889D01*
X167378000Y-80954111D01*
X167337493Y-80816156D01*
X167311686Y-80776000D01*
X168228000Y-80776000D01*
X168228000Y-80128172D01*
X168227999Y-80128155D01*
X168221598Y-80068627D01*
X168221596Y-80068620D01*
X168171354Y-79933913D01*
X168171350Y-79933906D01*
X168085190Y-79818812D01*
X168085187Y-79818809D01*
X167970093Y-79732649D01*
X167970088Y-79732646D01*
X167838528Y-79683577D01*
X167782595Y-79641705D01*
X167758178Y-79576241D01*
X167773030Y-79507968D01*
X167794175Y-79479720D01*
X167916495Y-79357401D01*
X168052035Y-79163830D01*
X168151903Y-78949663D01*
X168213063Y-78721408D01*
X168233659Y-78486000D01*
X168213063Y-78250592D01*
X168151903Y-78022337D01*
X168052035Y-77808171D01*
X168046425Y-77800158D01*
X167916494Y-77614597D01*
X167749402Y-77447506D01*
X167749396Y-77447501D01*
X167563842Y-77317575D01*
X167520217Y-77262998D01*
X167513023Y-77193500D01*
X167544546Y-77131145D01*
X167563842Y-77114425D01*
X167586026Y-77098891D01*
X167749401Y-76984495D01*
X167916495Y-76817401D01*
X168052035Y-76623830D01*
X168151903Y-76409663D01*
X168213063Y-76181408D01*
X168233659Y-75946000D01*
X168213063Y-75710592D01*
X168151903Y-75482337D01*
X168052035Y-75268171D01*
X168046425Y-75260158D01*
X167916494Y-75074597D01*
X167749402Y-74907506D01*
X167749396Y-74907501D01*
X167563842Y-74777575D01*
X167520217Y-74722998D01*
X167513023Y-74653500D01*
X167544546Y-74591145D01*
X167563842Y-74574425D01*
X167586026Y-74558891D01*
X167749401Y-74444495D01*
X167916495Y-74277401D01*
X168052035Y-74083830D01*
X168151903Y-73869663D01*
X168213063Y-73641408D01*
X168233659Y-73406000D01*
X168213063Y-73170592D01*
X168151903Y-72942337D01*
X168105537Y-72842905D01*
X168095045Y-72773827D01*
X168123565Y-72710043D01*
X168182041Y-72671804D01*
X168217919Y-72666500D01*
X168287257Y-72666500D01*
X168302877Y-72668224D01*
X168302904Y-72667939D01*
X168310660Y-72668671D01*
X168310667Y-72668673D01*
X168379814Y-72666500D01*
X168409350Y-72666500D01*
X168416228Y-72665630D01*
X168422041Y-72665172D01*
X168468627Y-72663709D01*
X168487869Y-72658117D01*
X168506912Y-72654174D01*
X168526792Y-72651664D01*
X168570122Y-72634507D01*
X168575646Y-72632617D01*
X168579396Y-72631527D01*
X168620390Y-72619618D01*
X168637629Y-72609422D01*
X168655103Y-72600862D01*
X168673727Y-72593488D01*
X168673727Y-72593487D01*
X168673732Y-72593486D01*
X168711449Y-72566082D01*
X168716305Y-72562892D01*
X168756420Y-72539170D01*
X168770589Y-72524999D01*
X168785379Y-72512368D01*
X168801587Y-72500594D01*
X168831299Y-72464676D01*
X168835212Y-72460376D01*
X170254771Y-71040819D01*
X170316094Y-71007334D01*
X170342452Y-71004500D01*
X170401644Y-71004500D01*
X170401646Y-71004500D01*
X170586803Y-70965144D01*
X170759730Y-70888151D01*
X170912871Y-70776888D01*
X171039533Y-70636216D01*
X171134179Y-70472284D01*
X171192674Y-70292256D01*
X171212460Y-70104000D01*
X171192674Y-69915744D01*
X171134179Y-69735716D01*
X171039533Y-69571784D01*
X170912871Y-69431112D01*
X170912870Y-69431111D01*
X170759734Y-69319851D01*
X170759729Y-69319848D01*
X170586807Y-69242857D01*
X170586802Y-69242855D01*
X170441001Y-69211865D01*
X170401646Y-69203500D01*
X170212354Y-69203500D01*
X170179897Y-69210398D01*
X170027197Y-69242855D01*
X170027192Y-69242857D01*
X169854270Y-69319848D01*
X169854265Y-69319851D01*
X169701129Y-69431111D01*
X169574466Y-69571785D01*
X169479821Y-69735715D01*
X169479818Y-69735722D01*
X169421327Y-69915740D01*
X169421326Y-69915744D01*
X169403679Y-70083649D01*
X169377094Y-70148263D01*
X169368039Y-70158368D01*
X168433645Y-71092762D01*
X168372322Y-71126247D01*
X168302630Y-71121263D01*
X168246697Y-71079391D01*
X168222280Y-71013927D01*
X168222436Y-70994273D01*
X168233659Y-70866000D01*
X168233659Y-70865999D01*
X168225933Y-70777693D01*
X168213063Y-70630592D01*
X168153709Y-70409076D01*
X168151905Y-70402344D01*
X168151904Y-70402343D01*
X168151903Y-70402337D01*
X168052035Y-70188171D01*
X168046425Y-70180158D01*
X167916494Y-69994597D01*
X167749402Y-69827506D01*
X167749396Y-69827501D01*
X167563842Y-69697575D01*
X167520217Y-69642998D01*
X167513023Y-69573500D01*
X167544546Y-69511145D01*
X167563842Y-69494425D01*
X167654262Y-69431112D01*
X167749401Y-69364495D01*
X167916495Y-69197401D01*
X168052035Y-69003830D01*
X168151903Y-68789663D01*
X168213063Y-68561408D01*
X168233659Y-68326000D01*
X168213063Y-68090592D01*
X168151903Y-67862337D01*
X168052035Y-67648171D01*
X168046425Y-67640158D01*
X167916494Y-67454597D01*
X167749402Y-67287506D01*
X167749396Y-67287501D01*
X167563842Y-67157575D01*
X167520217Y-67102998D01*
X167513023Y-67033500D01*
X167544546Y-66971145D01*
X167563842Y-66954425D01*
X167586026Y-66938891D01*
X167749401Y-66824495D01*
X167916495Y-66657401D01*
X168052035Y-66463830D01*
X168151903Y-66249663D01*
X168213063Y-66021408D01*
X168233659Y-65786000D01*
X168213063Y-65550592D01*
X168157225Y-65342198D01*
X168151905Y-65322344D01*
X168151904Y-65322343D01*
X168151903Y-65322337D01*
X168052035Y-65108171D01*
X168046425Y-65100158D01*
X167916494Y-64914597D01*
X167749402Y-64747506D01*
X167749396Y-64747501D01*
X167563842Y-64617575D01*
X167520217Y-64562998D01*
X167513023Y-64493500D01*
X167544546Y-64431145D01*
X167563842Y-64414425D01*
X167586026Y-64398891D01*
X167749401Y-64284495D01*
X167916495Y-64117401D01*
X168052035Y-63923830D01*
X168151903Y-63709663D01*
X168213063Y-63481408D01*
X168233659Y-63246000D01*
X168213063Y-63010592D01*
X168151903Y-62782337D01*
X168052035Y-62568171D01*
X168046425Y-62560158D01*
X167916494Y-62374597D01*
X167749402Y-62207506D01*
X167749396Y-62207501D01*
X167563842Y-62077575D01*
X167520217Y-62022998D01*
X167513023Y-61953500D01*
X167544546Y-61891145D01*
X167563842Y-61874425D01*
X167586026Y-61858891D01*
X167749401Y-61744495D01*
X167916495Y-61577401D01*
X168052035Y-61383830D01*
X168151903Y-61169663D01*
X168213063Y-60941408D01*
X168233659Y-60706000D01*
X168213063Y-60470592D01*
X168151903Y-60242337D01*
X168052035Y-60028171D01*
X168046425Y-60020158D01*
X167916494Y-59834597D01*
X167749402Y-59667506D01*
X167749396Y-59667501D01*
X167563842Y-59537575D01*
X167520217Y-59482998D01*
X167513023Y-59413500D01*
X167544546Y-59351145D01*
X167563842Y-59334425D01*
X167586026Y-59318891D01*
X167749401Y-59204495D01*
X167916495Y-59037401D01*
X168052035Y-58843830D01*
X168151903Y-58629663D01*
X168213063Y-58401408D01*
X168233659Y-58166000D01*
X168213063Y-57930592D01*
X168151903Y-57702337D01*
X168052035Y-57488171D01*
X168046425Y-57480158D01*
X167916494Y-57294597D01*
X167749402Y-57127506D01*
X167749396Y-57127501D01*
X167563842Y-56997575D01*
X167520217Y-56942998D01*
X167513023Y-56873500D01*
X167544546Y-56811145D01*
X167563842Y-56794425D01*
X167619068Y-56755755D01*
X167749401Y-56664495D01*
X167916495Y-56497401D01*
X168052035Y-56303830D01*
X168151903Y-56089663D01*
X168213063Y-55861408D01*
X168233659Y-55626000D01*
X168213063Y-55390592D01*
X168151903Y-55162337D01*
X168052035Y-54948171D01*
X168046425Y-54940158D01*
X167916494Y-54754597D01*
X167749402Y-54587506D01*
X167749396Y-54587501D01*
X167563842Y-54457575D01*
X167520217Y-54402998D01*
X167513023Y-54333500D01*
X167544546Y-54271145D01*
X167563842Y-54254425D01*
X167640620Y-54200664D01*
X167749401Y-54124495D01*
X167916495Y-53957401D01*
X168052035Y-53763830D01*
X168138575Y-53578244D01*
X172436000Y-53578244D01*
X172442401Y-53637772D01*
X172442403Y-53637779D01*
X172492645Y-53772486D01*
X172492649Y-53772493D01*
X172578809Y-53887587D01*
X172578812Y-53887590D01*
X172693906Y-53973750D01*
X172693913Y-53973754D01*
X172828620Y-54023996D01*
X172828627Y-54023998D01*
X172888155Y-54030399D01*
X172888172Y-54030400D01*
X173486000Y-54030400D01*
X173486000Y-53046086D01*
X173497955Y-53058041D01*
X173610852Y-53115565D01*
X173704519Y-53130400D01*
X173767481Y-53130400D01*
X173861148Y-53115565D01*
X173974045Y-53058041D01*
X173986000Y-53046086D01*
X173986000Y-54030400D01*
X174583828Y-54030400D01*
X174583844Y-54030399D01*
X174643372Y-54023998D01*
X174643379Y-54023996D01*
X174778086Y-53973754D01*
X174778093Y-53973750D01*
X174893187Y-53887590D01*
X174893190Y-53887587D01*
X174979350Y-53772493D01*
X174979354Y-53772486D01*
X175029596Y-53637780D01*
X175033424Y-53602181D01*
X175060162Y-53537630D01*
X175117555Y-53497782D01*
X175187380Y-53495288D01*
X175247469Y-53530940D01*
X175258289Y-53544312D01*
X175275956Y-53569543D01*
X175436858Y-53730445D01*
X175466865Y-53751456D01*
X175510490Y-53806032D01*
X175517684Y-53875530D01*
X175486162Y-53937885D01*
X175439076Y-53969212D01*
X175358675Y-53999200D01*
X175358664Y-53999206D01*
X175243455Y-54085452D01*
X175243452Y-54085455D01*
X175157206Y-54200664D01*
X175157202Y-54200671D01*
X175106908Y-54335517D01*
X175102146Y-54379814D01*
X175100501Y-54395123D01*
X175100500Y-54395135D01*
X175100500Y-55840870D01*
X175100501Y-55840876D01*
X175106908Y-55900483D01*
X175157202Y-56035328D01*
X175157206Y-56035335D01*
X175243452Y-56150544D01*
X175243455Y-56150547D01*
X175358664Y-56236793D01*
X175358671Y-56236797D01*
X175493517Y-56287091D01*
X175493516Y-56287091D01*
X175500444Y-56287835D01*
X175553127Y-56293500D01*
X176998872Y-56293499D01*
X177058483Y-56287091D01*
X177193331Y-56236796D01*
X177308546Y-56150546D01*
X177394796Y-56035331D01*
X177429818Y-55941431D01*
X177471689Y-55885499D01*
X177537153Y-55861081D01*
X177605426Y-55875932D01*
X177654832Y-55925337D01*
X177662182Y-55941432D01*
X177697202Y-56035328D01*
X177697206Y-56035335D01*
X177783452Y-56150544D01*
X177783455Y-56150547D01*
X177898664Y-56236793D01*
X177898671Y-56236797D01*
X178033517Y-56287091D01*
X178033516Y-56287091D01*
X178040444Y-56287835D01*
X178093127Y-56293500D01*
X179538872Y-56293499D01*
X179598483Y-56287091D01*
X179733331Y-56236796D01*
X179848546Y-56150546D01*
X179923234Y-56050774D01*
X179979167Y-56008905D01*
X180048859Y-56003921D01*
X180110182Y-56037406D01*
X180121760Y-56050768D01*
X180196454Y-56150546D01*
X180242643Y-56185123D01*
X180311664Y-56236793D01*
X180311671Y-56236797D01*
X180446517Y-56287091D01*
X180446516Y-56287091D01*
X180453444Y-56287835D01*
X180506127Y-56293500D01*
X181951872Y-56293499D01*
X182011483Y-56287091D01*
X182146331Y-56236796D01*
X182261546Y-56150546D01*
X182347796Y-56035331D01*
X182398091Y-55900483D01*
X182404500Y-55840873D01*
X182404499Y-54878451D01*
X182424183Y-54811413D01*
X182440813Y-54790776D01*
X182508821Y-54722768D01*
X182570142Y-54689285D01*
X182639834Y-54694269D01*
X182695767Y-54736141D01*
X182720184Y-54801605D01*
X182720500Y-54810451D01*
X182720500Y-55840870D01*
X182720501Y-55840876D01*
X182726908Y-55900483D01*
X182777202Y-56035328D01*
X182777206Y-56035335D01*
X182863452Y-56150544D01*
X182863455Y-56150547D01*
X182978664Y-56236793D01*
X182978671Y-56236797D01*
X183113517Y-56287091D01*
X183113516Y-56287091D01*
X183120444Y-56287835D01*
X183173127Y-56293500D01*
X184618872Y-56293499D01*
X184678483Y-56287091D01*
X184813331Y-56236796D01*
X184928546Y-56150546D01*
X185014796Y-56035331D01*
X185065091Y-55900483D01*
X185071500Y-55840873D01*
X185071499Y-54395128D01*
X185065091Y-54335517D01*
X185064361Y-54333561D01*
X185021217Y-54217884D01*
X185016233Y-54148192D01*
X185049716Y-54086872D01*
X185404787Y-53731802D01*
X185417039Y-53721988D01*
X185416856Y-53721767D01*
X185422874Y-53716787D01*
X185422877Y-53716786D01*
X185422878Y-53716784D01*
X185423673Y-53716127D01*
X185425149Y-53715493D01*
X185426047Y-53714774D01*
X185429484Y-53712594D01*
X185430001Y-53713409D01*
X185487874Y-53688559D01*
X185556788Y-53700077D01*
X185590399Y-53723986D01*
X185596858Y-53730445D01*
X185596861Y-53730447D01*
X185783266Y-53860968D01*
X185989504Y-53957139D01*
X185989509Y-53957140D01*
X185989511Y-53957141D01*
X186034561Y-53969212D01*
X186209308Y-54016035D01*
X186366791Y-54029813D01*
X186435998Y-54035868D01*
X186436000Y-54035868D01*
X186436002Y-54035868D01*
X186498511Y-54030399D01*
X186662692Y-54016035D01*
X186731048Y-53997719D01*
X186800897Y-53999382D01*
X186850822Y-54029813D01*
X187060197Y-54239188D01*
X187070022Y-54251451D01*
X187070243Y-54251269D01*
X187075214Y-54257278D01*
X187101217Y-54281695D01*
X187125635Y-54304626D01*
X187146529Y-54325520D01*
X187152011Y-54329773D01*
X187156443Y-54333557D01*
X187190418Y-54365462D01*
X187207976Y-54375114D01*
X187224235Y-54385795D01*
X187240064Y-54398073D01*
X187282838Y-54416582D01*
X187288056Y-54419138D01*
X187328908Y-54441597D01*
X187348316Y-54446580D01*
X187366717Y-54452880D01*
X187385104Y-54460837D01*
X187428488Y-54467708D01*
X187431119Y-54468125D01*
X187436839Y-54469309D01*
X187481981Y-54480900D01*
X187502016Y-54480900D01*
X187521414Y-54482426D01*
X187541194Y-54485559D01*
X187541195Y-54485560D01*
X187541195Y-54485559D01*
X187541196Y-54485560D01*
X187587584Y-54481175D01*
X187593422Y-54480900D01*
X188475482Y-54480900D01*
X188542521Y-54500585D01*
X188588276Y-54553389D01*
X188598220Y-54622547D01*
X188569195Y-54686103D01*
X188563164Y-54692579D01*
X187414879Y-55840864D01*
X186588562Y-56667181D01*
X186527239Y-56700666D01*
X186500881Y-56703500D01*
X183519048Y-56703500D01*
X183515303Y-56703387D01*
X183453396Y-56699642D01*
X183453389Y-56699642D01*
X183392386Y-56710821D01*
X183388685Y-56711384D01*
X183327128Y-56718859D01*
X183327121Y-56718861D01*
X183317647Y-56722454D01*
X183296049Y-56728475D01*
X183286069Y-56730304D01*
X183229519Y-56755755D01*
X183226060Y-56757188D01*
X183168071Y-56779181D01*
X183168066Y-56779184D01*
X183159722Y-56784943D01*
X183140187Y-56795961D01*
X183130947Y-56800120D01*
X183130945Y-56800121D01*
X183082136Y-56838359D01*
X183079122Y-56840576D01*
X183028070Y-56875817D01*
X183028068Y-56875818D01*
X182986942Y-56922240D01*
X182984375Y-56924966D01*
X174520611Y-65388730D01*
X174459288Y-65422215D01*
X174427034Y-65424909D01*
X174423606Y-65424745D01*
X174213672Y-65434745D01*
X174009421Y-65484296D01*
X174009417Y-65484298D01*
X173818256Y-65571598D01*
X173818251Y-65571601D01*
X173647046Y-65693515D01*
X173647040Y-65693520D01*
X173502014Y-65845620D01*
X173388388Y-66022425D01*
X173310274Y-66217544D01*
X173271057Y-66421023D01*
X173270500Y-66423915D01*
X173270500Y-67381425D01*
X173285472Y-67538218D01*
X173344684Y-67739875D01*
X173394019Y-67835572D01*
X173440991Y-67926686D01*
X173570905Y-68091883D01*
X173570909Y-68091887D01*
X173729746Y-68229521D01*
X173911750Y-68334601D01*
X173911752Y-68334601D01*
X173911756Y-68334604D01*
X174110367Y-68403344D01*
X174318398Y-68433254D01*
X174422248Y-68428307D01*
X174490148Y-68444780D01*
X174515829Y-68464486D01*
X176634399Y-70583056D01*
X176636935Y-70585750D01*
X176678071Y-70632183D01*
X176729130Y-70667427D01*
X176732112Y-70669621D01*
X176780944Y-70707878D01*
X176780947Y-70707880D01*
X176780946Y-70707880D01*
X176790177Y-70712034D01*
X176809731Y-70723062D01*
X176818066Y-70728816D01*
X176818068Y-70728816D01*
X176818070Y-70728818D01*
X176876079Y-70750817D01*
X176879476Y-70752224D01*
X176926770Y-70773509D01*
X176936064Y-70777693D01*
X176936065Y-70777693D01*
X176936069Y-70777695D01*
X176946034Y-70779521D01*
X176967656Y-70785548D01*
X176970777Y-70786731D01*
X176977128Y-70789140D01*
X177022251Y-70794618D01*
X177038674Y-70796613D01*
X177042371Y-70797175D01*
X177103394Y-70808358D01*
X177158752Y-70805009D01*
X177165303Y-70804613D01*
X177169048Y-70804500D01*
X196260337Y-70804500D01*
X196327376Y-70824185D01*
X196373131Y-70876989D01*
X196381589Y-70902541D01*
X196382499Y-70906792D01*
X196415816Y-71007334D01*
X196437686Y-71073334D01*
X196529788Y-71222656D01*
X196653844Y-71346712D01*
X196803166Y-71438814D01*
X196803167Y-71438814D01*
X196809313Y-71442605D01*
X196807583Y-71445408D01*
X196849075Y-71481893D01*
X196857616Y-71500366D01*
X196858227Y-71500092D01*
X196886759Y-71563490D01*
X196888189Y-71566941D01*
X196910182Y-71624930D01*
X196910183Y-71624931D01*
X196915936Y-71633266D01*
X196926961Y-71652813D01*
X196931120Y-71662055D01*
X196931124Y-71662060D01*
X196969371Y-71710878D01*
X196971591Y-71713896D01*
X197006812Y-71764924D01*
X197006816Y-71764928D01*
X197006817Y-71764929D01*
X197053250Y-71806064D01*
X197055941Y-71808598D01*
X200148399Y-74901056D01*
X200150935Y-74903750D01*
X200192071Y-74950183D01*
X200223431Y-74971829D01*
X200243110Y-74985413D01*
X200246127Y-74987633D01*
X200294938Y-75025874D01*
X200294943Y-75025877D01*
X200304174Y-75030031D01*
X200323727Y-75041059D01*
X200332070Y-75046818D01*
X200390057Y-75068809D01*
X200393512Y-75070239D01*
X200403198Y-75074599D01*
X200450063Y-75095692D01*
X200450064Y-75095692D01*
X200450068Y-75095694D01*
X200460030Y-75097519D01*
X200481651Y-75103546D01*
X200491125Y-75107139D01*
X200491128Y-75107140D01*
X200507871Y-75109173D01*
X200552689Y-75114615D01*
X200556386Y-75115177D01*
X200617394Y-75126357D01*
X200617395Y-75126356D01*
X200617396Y-75126357D01*
X200679293Y-75122613D01*
X200683037Y-75122500D01*
X221387844Y-75122500D01*
X221454883Y-75142185D01*
X221460729Y-75146182D01*
X221543265Y-75206148D01*
X221543270Y-75206151D01*
X221716192Y-75283142D01*
X221716197Y-75283144D01*
X221901354Y-75322500D01*
X221901355Y-75322500D01*
X222090644Y-75322500D01*
X222090646Y-75322500D01*
X222275803Y-75283144D01*
X222448730Y-75206151D01*
X222601871Y-75094888D01*
X222728533Y-74954216D01*
X222823179Y-74790284D01*
X222881674Y-74610256D01*
X222901460Y-74422000D01*
X222881674Y-74233744D01*
X222823179Y-74053716D01*
X222728533Y-73889784D01*
X222601871Y-73749112D01*
X222601870Y-73749111D01*
X222448734Y-73637851D01*
X222448729Y-73637848D01*
X222275807Y-73560857D01*
X222275802Y-73560855D01*
X222130001Y-73529865D01*
X222090646Y-73521500D01*
X221901354Y-73521500D01*
X221868897Y-73528398D01*
X221716197Y-73560855D01*
X221716192Y-73560857D01*
X221543270Y-73637848D01*
X221543265Y-73637851D01*
X221460729Y-73697818D01*
X221394923Y-73721298D01*
X221387844Y-73721500D01*
X201001519Y-73721500D01*
X200934480Y-73701815D01*
X200913838Y-73685181D01*
X199071527Y-71842870D01*
X215486500Y-71842870D01*
X215486501Y-71842876D01*
X215492908Y-71902483D01*
X215543202Y-72037328D01*
X215543206Y-72037335D01*
X215629452Y-72152544D01*
X215629455Y-72152547D01*
X215744664Y-72238793D01*
X215744671Y-72238797D01*
X215879517Y-72289091D01*
X215879516Y-72289091D01*
X215886444Y-72289835D01*
X215939127Y-72295500D01*
X217384872Y-72295499D01*
X217444483Y-72289091D01*
X217579331Y-72238796D01*
X217694546Y-72152546D01*
X217780796Y-72037331D01*
X217831091Y-71902483D01*
X217837500Y-71842873D01*
X217837500Y-71456921D01*
X218296523Y-71456921D01*
X218296523Y-72004765D01*
X218302924Y-72064293D01*
X218302926Y-72064300D01*
X218353168Y-72199007D01*
X218353172Y-72199014D01*
X218439332Y-72314108D01*
X218439335Y-72314111D01*
X218554429Y-72400271D01*
X218554436Y-72400275D01*
X218689143Y-72450517D01*
X218689150Y-72450519D01*
X218748678Y-72456920D01*
X218748695Y-72456921D01*
X219046523Y-72456921D01*
X219046523Y-71456921D01*
X218296523Y-71456921D01*
X217837500Y-71456921D01*
X217837499Y-70956921D01*
X218296523Y-70956921D01*
X219046523Y-70956921D01*
X219046523Y-69956921D01*
X218748678Y-69956921D01*
X218689150Y-69963322D01*
X218689143Y-69963324D01*
X218554436Y-70013566D01*
X218554429Y-70013570D01*
X218439335Y-70099730D01*
X218439332Y-70099733D01*
X218353172Y-70214827D01*
X218353168Y-70214834D01*
X218302926Y-70349541D01*
X218302924Y-70349548D01*
X218296523Y-70409076D01*
X218296523Y-70956921D01*
X217837499Y-70956921D01*
X217837499Y-70397128D01*
X217832112Y-70347011D01*
X217831091Y-70337516D01*
X217780797Y-70202671D01*
X217780793Y-70202664D01*
X217694547Y-70087455D01*
X217694544Y-70087452D01*
X217579335Y-70001206D01*
X217579328Y-70001202D01*
X217444482Y-69950908D01*
X217444483Y-69950908D01*
X217384883Y-69944501D01*
X217384881Y-69944500D01*
X217384873Y-69944500D01*
X217384864Y-69944500D01*
X215939129Y-69944500D01*
X215939123Y-69944501D01*
X215879516Y-69950908D01*
X215744671Y-70001202D01*
X215744664Y-70001206D01*
X215629455Y-70087452D01*
X215629452Y-70087455D01*
X215543206Y-70202664D01*
X215543202Y-70202671D01*
X215492908Y-70337517D01*
X215486840Y-70393967D01*
X215486500Y-70397127D01*
X215486500Y-70397128D01*
X215486500Y-70397135D01*
X215486500Y-71842870D01*
X199071527Y-71842870D01*
X198575626Y-71346969D01*
X198542141Y-71285646D01*
X198547125Y-71215954D01*
X198557763Y-71194200D01*
X198632314Y-71073334D01*
X198687499Y-70906797D01*
X198698000Y-70804009D01*
X198698000Y-70354000D01*
X199497501Y-70354000D01*
X199497501Y-70803986D01*
X199507994Y-70906697D01*
X199563141Y-71073119D01*
X199563143Y-71073124D01*
X199655184Y-71222345D01*
X199779154Y-71346315D01*
X199928375Y-71438356D01*
X199928380Y-71438358D01*
X200094802Y-71493505D01*
X200094809Y-71493506D01*
X200197519Y-71503999D01*
X200409999Y-71503999D01*
X200410000Y-71503998D01*
X200410000Y-70354000D01*
X200910000Y-70354000D01*
X200910000Y-71503999D01*
X201122472Y-71503999D01*
X201122486Y-71503998D01*
X201225197Y-71493505D01*
X201391619Y-71438358D01*
X201391624Y-71438356D01*
X201540845Y-71346315D01*
X201664815Y-71222345D01*
X201756856Y-71073124D01*
X201756858Y-71073119D01*
X201812005Y-70906697D01*
X201812006Y-70906690D01*
X201822499Y-70803986D01*
X201822500Y-70803973D01*
X201822500Y-70354000D01*
X200910000Y-70354000D01*
X200410000Y-70354000D01*
X199497501Y-70354000D01*
X198698000Y-70354000D01*
X198697999Y-69854000D01*
X199497500Y-69854000D01*
X200410000Y-69854000D01*
X200410000Y-68704000D01*
X200910000Y-68704000D01*
X200910000Y-69854000D01*
X201822499Y-69854000D01*
X201822499Y-69404028D01*
X201822498Y-69404013D01*
X201812005Y-69301302D01*
X201756858Y-69134880D01*
X201756856Y-69134875D01*
X201664815Y-68985654D01*
X201540845Y-68861684D01*
X201391624Y-68769643D01*
X201391619Y-68769641D01*
X201225197Y-68714494D01*
X201225190Y-68714493D01*
X201122486Y-68704000D01*
X200910000Y-68704000D01*
X200410000Y-68704000D01*
X200197529Y-68704000D01*
X200197512Y-68704001D01*
X200094802Y-68714494D01*
X199928380Y-68769641D01*
X199928375Y-68769643D01*
X199779154Y-68861684D01*
X199655184Y-68985654D01*
X199563143Y-69134875D01*
X199563141Y-69134880D01*
X199507994Y-69301302D01*
X199507993Y-69301309D01*
X199497500Y-69404013D01*
X199497500Y-69854000D01*
X198697999Y-69854000D01*
X198697999Y-69403992D01*
X198687499Y-69301203D01*
X198632314Y-69134666D01*
X198540212Y-68985344D01*
X198416156Y-68861288D01*
X198266834Y-68769186D01*
X198100297Y-68714001D01*
X198100295Y-68714000D01*
X197997510Y-68703500D01*
X197072498Y-68703500D01*
X197072480Y-68703501D01*
X196969703Y-68714000D01*
X196969700Y-68714001D01*
X196803168Y-68769185D01*
X196803163Y-68769187D01*
X196653842Y-68861289D01*
X196529789Y-68985342D01*
X196437687Y-69134663D01*
X196437685Y-69134668D01*
X196382500Y-69301204D01*
X196381588Y-69305467D01*
X196348301Y-69366898D01*
X196287086Y-69400581D01*
X196260337Y-69403500D01*
X177487519Y-69403500D01*
X177420480Y-69383815D01*
X177399838Y-69367181D01*
X176565318Y-68532661D01*
X176531833Y-68471338D01*
X176536817Y-68401646D01*
X176578689Y-68345713D01*
X176601482Y-68332188D01*
X176701753Y-68286396D01*
X176872952Y-68164486D01*
X176944800Y-68089132D01*
X177005305Y-68054200D01*
X177075096Y-68057523D01*
X177124285Y-68089136D01*
X177126902Y-68091881D01*
X177285746Y-68229521D01*
X177467750Y-68334601D01*
X177467752Y-68334601D01*
X177467756Y-68334604D01*
X177666367Y-68403344D01*
X177874398Y-68433254D01*
X178084330Y-68423254D01*
X178288576Y-68373704D01*
X178393035Y-68325999D01*
X178479743Y-68286401D01*
X178479746Y-68286399D01*
X178479753Y-68286396D01*
X178650952Y-68164486D01*
X178722800Y-68089132D01*
X178783305Y-68054200D01*
X178853096Y-68057523D01*
X178902285Y-68089136D01*
X178904902Y-68091881D01*
X179063746Y-68229521D01*
X179245750Y-68334601D01*
X179245752Y-68334601D01*
X179245756Y-68334604D01*
X179444367Y-68403344D01*
X179652398Y-68433254D01*
X179862330Y-68423254D01*
X180066576Y-68373704D01*
X180171035Y-68325999D01*
X180257743Y-68286401D01*
X180257746Y-68286399D01*
X180257753Y-68286396D01*
X180428952Y-68164486D01*
X180500800Y-68089132D01*
X180561305Y-68054200D01*
X180631096Y-68057523D01*
X180680285Y-68089136D01*
X180682902Y-68091881D01*
X180841746Y-68229521D01*
X181023750Y-68334601D01*
X181023752Y-68334601D01*
X181023756Y-68334604D01*
X181222367Y-68403344D01*
X181430398Y-68433254D01*
X181640330Y-68423254D01*
X181844576Y-68373704D01*
X181949035Y-68325999D01*
X182035743Y-68286401D01*
X182035746Y-68286399D01*
X182035753Y-68286396D01*
X182206952Y-68164486D01*
X182278800Y-68089132D01*
X182339305Y-68054200D01*
X182409096Y-68057523D01*
X182458285Y-68089136D01*
X182460902Y-68091881D01*
X182619746Y-68229521D01*
X182801750Y-68334601D01*
X182801752Y-68334601D01*
X182801756Y-68334604D01*
X183000367Y-68403344D01*
X183208398Y-68433254D01*
X183418330Y-68423254D01*
X183622576Y-68373704D01*
X183727035Y-68325999D01*
X183813743Y-68286401D01*
X183813746Y-68286399D01*
X183813753Y-68286396D01*
X183984952Y-68164486D01*
X184056800Y-68089132D01*
X184117305Y-68054200D01*
X184187096Y-68057523D01*
X184236285Y-68089136D01*
X184238902Y-68091881D01*
X184397746Y-68229521D01*
X184579750Y-68334601D01*
X184579752Y-68334601D01*
X184579756Y-68334604D01*
X184778367Y-68403344D01*
X184986398Y-68433254D01*
X185196330Y-68423254D01*
X185400576Y-68373704D01*
X185505035Y-68325999D01*
X185591743Y-68286401D01*
X185591746Y-68286399D01*
X185591753Y-68286396D01*
X185762952Y-68164486D01*
X185834800Y-68089132D01*
X185895305Y-68054200D01*
X185965096Y-68057523D01*
X186014285Y-68089136D01*
X186016902Y-68091881D01*
X186175746Y-68229521D01*
X186357750Y-68334601D01*
X186357752Y-68334601D01*
X186357756Y-68334604D01*
X186556367Y-68403344D01*
X186764398Y-68433254D01*
X186974330Y-68423254D01*
X187178576Y-68373704D01*
X187283035Y-68325999D01*
X187369743Y-68286401D01*
X187369746Y-68286399D01*
X187369753Y-68286396D01*
X187540952Y-68164486D01*
X187612800Y-68089132D01*
X187673305Y-68054200D01*
X187743096Y-68057523D01*
X187792285Y-68089136D01*
X187794902Y-68091881D01*
X187953746Y-68229521D01*
X188135750Y-68334601D01*
X188135752Y-68334601D01*
X188135756Y-68334604D01*
X188334367Y-68403344D01*
X188542398Y-68433254D01*
X188752330Y-68423254D01*
X188956576Y-68373704D01*
X189061035Y-68325999D01*
X189147743Y-68286401D01*
X189147746Y-68286399D01*
X189147753Y-68286396D01*
X189318952Y-68164486D01*
X189390800Y-68089132D01*
X189451305Y-68054200D01*
X189521096Y-68057523D01*
X189570285Y-68089136D01*
X189572902Y-68091881D01*
X189731746Y-68229521D01*
X189913750Y-68334601D01*
X189913752Y-68334601D01*
X189913756Y-68334604D01*
X190112367Y-68403344D01*
X190320398Y-68433254D01*
X190530330Y-68423254D01*
X190734576Y-68373704D01*
X190839035Y-68325999D01*
X190925743Y-68286401D01*
X190925746Y-68286399D01*
X190925753Y-68286396D01*
X191096952Y-68164486D01*
X191168800Y-68089132D01*
X191229305Y-68054200D01*
X191299096Y-68057523D01*
X191348285Y-68089136D01*
X191350902Y-68091881D01*
X191509746Y-68229521D01*
X191691750Y-68334601D01*
X191691752Y-68334601D01*
X191691756Y-68334604D01*
X191890367Y-68403344D01*
X192098398Y-68433254D01*
X192308330Y-68423254D01*
X192512576Y-68373704D01*
X192617035Y-68325999D01*
X192703743Y-68286401D01*
X192703746Y-68286399D01*
X192703753Y-68286396D01*
X192874952Y-68164486D01*
X192946800Y-68089132D01*
X193007305Y-68054200D01*
X193077096Y-68057523D01*
X193126285Y-68089136D01*
X193128902Y-68091881D01*
X193287746Y-68229521D01*
X193469750Y-68334601D01*
X193469752Y-68334601D01*
X193469756Y-68334604D01*
X193668367Y-68403344D01*
X193876398Y-68433254D01*
X194086330Y-68423254D01*
X194290576Y-68373704D01*
X194395035Y-68325999D01*
X194481743Y-68286401D01*
X194481746Y-68286399D01*
X194481753Y-68286396D01*
X194652952Y-68164486D01*
X194724800Y-68089132D01*
X194785305Y-68054200D01*
X194855096Y-68057523D01*
X194904285Y-68089136D01*
X194906902Y-68091881D01*
X195065746Y-68229521D01*
X195247750Y-68334601D01*
X195247752Y-68334601D01*
X195247756Y-68334604D01*
X195446367Y-68403344D01*
X195654398Y-68433254D01*
X195864330Y-68423254D01*
X196068576Y-68373704D01*
X196173035Y-68325999D01*
X196259743Y-68286401D01*
X196259746Y-68286399D01*
X196259753Y-68286396D01*
X196430952Y-68164486D01*
X196502800Y-68089132D01*
X196563305Y-68054200D01*
X196633096Y-68057523D01*
X196682285Y-68089136D01*
X196684902Y-68091881D01*
X196843746Y-68229521D01*
X197025750Y-68334601D01*
X197025752Y-68334601D01*
X197025756Y-68334604D01*
X197224367Y-68403344D01*
X197432398Y-68433254D01*
X197642330Y-68423254D01*
X197846576Y-68373704D01*
X197951035Y-68325999D01*
X198037743Y-68286401D01*
X198037746Y-68286399D01*
X198037753Y-68286396D01*
X198208952Y-68164486D01*
X198280800Y-68089132D01*
X198341305Y-68054200D01*
X198411096Y-68057523D01*
X198460285Y-68089136D01*
X198462902Y-68091881D01*
X198621746Y-68229521D01*
X198803750Y-68334601D01*
X198803752Y-68334601D01*
X198803756Y-68334604D01*
X199002367Y-68403344D01*
X199210398Y-68433254D01*
X199420330Y-68423254D01*
X199624576Y-68373704D01*
X199729035Y-68325999D01*
X199815743Y-68286401D01*
X199815746Y-68286399D01*
X199815753Y-68286396D01*
X199986952Y-68164486D01*
X200058800Y-68089132D01*
X200119305Y-68054200D01*
X200189096Y-68057523D01*
X200238285Y-68089136D01*
X200240902Y-68091881D01*
X200399746Y-68229521D01*
X200581750Y-68334601D01*
X200581752Y-68334601D01*
X200581756Y-68334604D01*
X200780367Y-68403344D01*
X200988398Y-68433254D01*
X201198330Y-68423254D01*
X201402576Y-68373704D01*
X201507035Y-68325999D01*
X201593743Y-68286401D01*
X201593746Y-68286399D01*
X201593753Y-68286396D01*
X201764952Y-68164486D01*
X201836800Y-68089132D01*
X201897305Y-68054200D01*
X201967096Y-68057523D01*
X202016285Y-68089136D01*
X202018902Y-68091881D01*
X202177746Y-68229521D01*
X202359750Y-68334601D01*
X202359752Y-68334601D01*
X202359756Y-68334604D01*
X202558367Y-68403344D01*
X202766398Y-68433254D01*
X202976330Y-68423254D01*
X203180576Y-68373704D01*
X203285035Y-68325999D01*
X203371743Y-68286401D01*
X203371746Y-68286399D01*
X203371753Y-68286396D01*
X203542952Y-68164486D01*
X203614800Y-68089132D01*
X203675305Y-68054200D01*
X203745096Y-68057523D01*
X203794285Y-68089136D01*
X203796902Y-68091881D01*
X203955746Y-68229521D01*
X204137750Y-68334601D01*
X204137752Y-68334601D01*
X204137756Y-68334604D01*
X204336367Y-68403344D01*
X204544398Y-68433254D01*
X204754330Y-68423254D01*
X204958576Y-68373704D01*
X205063035Y-68325999D01*
X205149743Y-68286401D01*
X205149746Y-68286399D01*
X205149753Y-68286396D01*
X205320952Y-68164486D01*
X205392800Y-68089132D01*
X205453305Y-68054200D01*
X205523096Y-68057523D01*
X205572285Y-68089136D01*
X205574902Y-68091881D01*
X205733746Y-68229521D01*
X205915750Y-68334601D01*
X205915752Y-68334601D01*
X205915756Y-68334604D01*
X206114367Y-68403344D01*
X206322398Y-68433254D01*
X206532330Y-68423254D01*
X206736576Y-68373704D01*
X206841035Y-68325999D01*
X206927743Y-68286401D01*
X206927746Y-68286399D01*
X206927753Y-68286396D01*
X207098952Y-68164486D01*
X207170800Y-68089132D01*
X207231305Y-68054200D01*
X207301096Y-68057523D01*
X207350285Y-68089136D01*
X207352902Y-68091881D01*
X207511746Y-68229521D01*
X207693750Y-68334601D01*
X207693752Y-68334601D01*
X207693756Y-68334604D01*
X207892367Y-68403344D01*
X208100398Y-68433254D01*
X208310330Y-68423254D01*
X208514576Y-68373704D01*
X208619035Y-68325999D01*
X208705743Y-68286401D01*
X208705746Y-68286399D01*
X208705753Y-68286396D01*
X208876952Y-68164486D01*
X208948800Y-68089132D01*
X209009305Y-68054200D01*
X209079096Y-68057523D01*
X209128285Y-68089136D01*
X209130902Y-68091881D01*
X209289746Y-68229521D01*
X209471750Y-68334601D01*
X209471752Y-68334601D01*
X209471756Y-68334604D01*
X209670367Y-68403344D01*
X209878398Y-68433254D01*
X210088330Y-68423254D01*
X210292576Y-68373704D01*
X210397035Y-68325999D01*
X210483743Y-68286401D01*
X210483746Y-68286399D01*
X210483753Y-68286396D01*
X210654952Y-68164486D01*
X210726800Y-68089132D01*
X210787305Y-68054200D01*
X210857096Y-68057523D01*
X210906285Y-68089136D01*
X210908902Y-68091881D01*
X211067746Y-68229521D01*
X211249750Y-68334601D01*
X211249752Y-68334601D01*
X211249756Y-68334604D01*
X211448367Y-68403344D01*
X211656398Y-68433254D01*
X211866330Y-68423254D01*
X212070576Y-68373704D01*
X212175035Y-68325999D01*
X212261743Y-68286401D01*
X212261746Y-68286399D01*
X212261753Y-68286396D01*
X212432952Y-68164486D01*
X212504800Y-68089132D01*
X212565305Y-68054200D01*
X212635096Y-68057523D01*
X212684285Y-68089136D01*
X212686902Y-68091881D01*
X212845746Y-68229521D01*
X213027750Y-68334601D01*
X213027752Y-68334601D01*
X213027756Y-68334604D01*
X213226367Y-68403344D01*
X213434398Y-68433254D01*
X213644330Y-68423254D01*
X213848576Y-68373704D01*
X213953035Y-68325999D01*
X214039743Y-68286401D01*
X214039746Y-68286399D01*
X214039753Y-68286396D01*
X214210952Y-68164486D01*
X214282800Y-68089132D01*
X214343305Y-68054200D01*
X214413096Y-68057523D01*
X214462285Y-68089136D01*
X214464902Y-68091881D01*
X214623746Y-68229521D01*
X214805750Y-68334601D01*
X214805752Y-68334601D01*
X214805756Y-68334604D01*
X215004367Y-68403344D01*
X215212398Y-68433254D01*
X215422330Y-68423254D01*
X215626576Y-68373704D01*
X215731035Y-68325999D01*
X215817743Y-68286401D01*
X215817746Y-68286399D01*
X215817753Y-68286396D01*
X215988952Y-68164486D01*
X216060800Y-68089132D01*
X216121305Y-68054200D01*
X216191096Y-68057523D01*
X216240285Y-68089136D01*
X216242902Y-68091881D01*
X216401746Y-68229521D01*
X216583750Y-68334601D01*
X216583752Y-68334601D01*
X216583756Y-68334604D01*
X216782367Y-68403344D01*
X216990398Y-68433254D01*
X217200330Y-68423254D01*
X217404576Y-68373704D01*
X217509035Y-68325999D01*
X217595743Y-68286401D01*
X217595746Y-68286399D01*
X217595753Y-68286396D01*
X217766952Y-68164486D01*
X217838800Y-68089132D01*
X217899305Y-68054200D01*
X217969096Y-68057523D01*
X218018285Y-68089136D01*
X218020902Y-68091881D01*
X218179746Y-68229521D01*
X218361750Y-68334601D01*
X218361752Y-68334601D01*
X218361756Y-68334604D01*
X218560367Y-68403344D01*
X218768398Y-68433254D01*
X218978330Y-68423254D01*
X219182576Y-68373704D01*
X219287035Y-68325999D01*
X219373743Y-68286401D01*
X219373746Y-68286399D01*
X219373753Y-68286396D01*
X219544952Y-68164486D01*
X219616800Y-68089132D01*
X219677305Y-68054200D01*
X219747096Y-68057523D01*
X219796285Y-68089136D01*
X219798902Y-68091881D01*
X219853226Y-68138953D01*
X219891000Y-68197731D01*
X219896023Y-68232666D01*
X219896023Y-69832921D01*
X219876338Y-69899960D01*
X219823534Y-69945715D01*
X219772023Y-69956921D01*
X219546523Y-69956921D01*
X219546523Y-72456921D01*
X219844351Y-72456921D01*
X219844367Y-72456920D01*
X219903898Y-72450519D01*
X219911449Y-72448735D01*
X219911838Y-72450383D01*
X219972147Y-72446061D01*
X219988910Y-72450981D01*
X219989035Y-72451010D01*
X219989040Y-72451012D01*
X220048650Y-72457421D01*
X221144395Y-72457420D01*
X221204006Y-72451012D01*
X221204008Y-72451011D01*
X221204010Y-72451011D01*
X221211554Y-72449229D01*
X221211900Y-72450696D01*
X221272865Y-72446329D01*
X221287901Y-72450743D01*
X221289036Y-72451010D01*
X221289040Y-72451012D01*
X221348650Y-72457421D01*
X222444395Y-72457420D01*
X222504006Y-72451012D01*
X222638854Y-72400717D01*
X222754069Y-72314467D01*
X222840319Y-72199252D01*
X222890614Y-72064404D01*
X222897023Y-72004794D01*
X222897023Y-71944500D01*
X222916708Y-71877461D01*
X222969512Y-71831706D01*
X223021023Y-71820500D01*
X223673844Y-71820500D01*
X223740883Y-71840185D01*
X223746729Y-71844182D01*
X223829265Y-71904148D01*
X223829270Y-71904151D01*
X224002192Y-71981142D01*
X224002197Y-71981144D01*
X224187354Y-72020500D01*
X224187355Y-72020500D01*
X224376644Y-72020500D01*
X224376646Y-72020500D01*
X224561803Y-71981144D01*
X224734730Y-71904151D01*
X224887871Y-71792888D01*
X225014533Y-71652216D01*
X225109179Y-71488284D01*
X225167674Y-71308256D01*
X225187460Y-71120000D01*
X225167674Y-70931744D01*
X225109179Y-70751716D01*
X225014533Y-70587784D01*
X224887871Y-70447112D01*
X224887870Y-70447111D01*
X224734734Y-70335851D01*
X224734729Y-70335848D01*
X224561807Y-70258857D01*
X224561802Y-70258855D01*
X224396796Y-70223783D01*
X224376646Y-70219500D01*
X224187354Y-70219500D01*
X224167204Y-70223783D01*
X224002197Y-70258855D01*
X224002192Y-70258857D01*
X223829270Y-70335848D01*
X223829265Y-70335851D01*
X223746729Y-70395818D01*
X223680923Y-70419298D01*
X223673844Y-70419500D01*
X223002841Y-70419500D01*
X222935802Y-70399815D01*
X222890047Y-70347011D01*
X222886659Y-70338833D01*
X222840320Y-70214592D01*
X222840316Y-70214585D01*
X222754070Y-70099376D01*
X222754067Y-70099373D01*
X222638858Y-70013127D01*
X222638851Y-70013123D01*
X222504005Y-69962829D01*
X222504006Y-69962829D01*
X222444406Y-69956422D01*
X222444404Y-69956421D01*
X222444396Y-69956421D01*
X222444388Y-69956421D01*
X221421023Y-69956421D01*
X221353984Y-69936736D01*
X221308229Y-69883932D01*
X221297023Y-69832421D01*
X221297023Y-68241321D01*
X221316708Y-68174282D01*
X221331275Y-68155756D01*
X221394800Y-68089132D01*
X221455306Y-68054200D01*
X221525096Y-68057524D01*
X221574285Y-68089136D01*
X221576902Y-68091881D01*
X221735746Y-68229521D01*
X221917750Y-68334601D01*
X221917752Y-68334601D01*
X221917756Y-68334604D01*
X222116367Y-68403344D01*
X222324398Y-68433254D01*
X222534330Y-68423254D01*
X222738576Y-68373704D01*
X222843035Y-68325999D01*
X222929743Y-68286401D01*
X222929746Y-68286399D01*
X222929753Y-68286396D01*
X223100952Y-68164486D01*
X223172800Y-68089132D01*
X223233305Y-68054200D01*
X223303096Y-68057523D01*
X223352285Y-68089136D01*
X223354902Y-68091881D01*
X223513746Y-68229521D01*
X223695750Y-68334601D01*
X223695752Y-68334601D01*
X223695756Y-68334604D01*
X223894367Y-68403344D01*
X224102398Y-68433254D01*
X224312330Y-68423254D01*
X224516576Y-68373704D01*
X224621035Y-68325999D01*
X224707743Y-68286401D01*
X224707746Y-68286399D01*
X224707753Y-68286396D01*
X224878952Y-68164486D01*
X224950800Y-68089132D01*
X225011305Y-68054200D01*
X225081096Y-68057523D01*
X225130285Y-68089136D01*
X225132902Y-68091881D01*
X225291746Y-68229521D01*
X225473750Y-68334601D01*
X225473752Y-68334601D01*
X225473756Y-68334604D01*
X225672367Y-68403344D01*
X225880398Y-68433254D01*
X226090330Y-68423254D01*
X226294576Y-68373704D01*
X226399035Y-68325999D01*
X226485743Y-68286401D01*
X226485746Y-68286399D01*
X226485753Y-68286396D01*
X226656952Y-68164486D01*
X226728800Y-68089132D01*
X226789305Y-68054200D01*
X226859096Y-68057523D01*
X226908285Y-68089136D01*
X226910902Y-68091881D01*
X227069746Y-68229521D01*
X227251750Y-68334601D01*
X227251752Y-68334601D01*
X227251756Y-68334604D01*
X227450367Y-68403344D01*
X227658398Y-68433254D01*
X227868330Y-68423254D01*
X228072576Y-68373704D01*
X228177035Y-68325999D01*
X228263743Y-68286401D01*
X228263746Y-68286399D01*
X228263753Y-68286396D01*
X228434952Y-68164486D01*
X228507145Y-68088770D01*
X228567653Y-68053837D01*
X228637443Y-68057161D01*
X228686634Y-68088774D01*
X228689272Y-68091541D01*
X228848030Y-68229105D01*
X228848041Y-68229114D01*
X229029960Y-68334144D01*
X229029967Y-68334147D01*
X229228481Y-68402854D01*
X229228483Y-68402855D01*
X229436419Y-68432751D01*
X229436421Y-68432752D01*
X229646255Y-68422757D01*
X229850409Y-68373229D01*
X230041507Y-68285959D01*
X230212619Y-68164109D01*
X230212624Y-68164105D01*
X230289707Y-68083260D01*
X229485447Y-67279000D01*
X229518005Y-67279000D01*
X229604216Y-67264614D01*
X229706947Y-67209019D01*
X229786060Y-67123079D01*
X229832982Y-67016108D01*
X229840200Y-66929000D01*
X229842553Y-66929000D01*
X230549990Y-67636438D01*
X230589000Y-67434037D01*
X230589000Y-66476601D01*
X230574034Y-66319877D01*
X230574033Y-66319870D01*
X230546262Y-66225289D01*
X230546261Y-66225289D01*
X229842553Y-66928999D01*
X229842553Y-66929000D01*
X229840200Y-66929000D01*
X229842628Y-66899698D01*
X229813953Y-66786462D01*
X229750064Y-66688673D01*
X229657885Y-66616928D01*
X229547405Y-66579000D01*
X229485447Y-66579000D01*
X230292803Y-65771643D01*
X230292803Y-65771642D01*
X230288729Y-65766461D01*
X230288728Y-65766460D01*
X230129969Y-65628893D01*
X230129958Y-65628885D01*
X229948039Y-65523855D01*
X229948032Y-65523852D01*
X229749518Y-65455145D01*
X229749516Y-65455144D01*
X229541580Y-65425248D01*
X229541578Y-65425247D01*
X229331744Y-65435242D01*
X229127590Y-65484770D01*
X228936492Y-65572040D01*
X228765380Y-65693889D01*
X228765374Y-65693895D01*
X228693546Y-65769227D01*
X228633037Y-65804162D01*
X228563247Y-65800837D01*
X228514057Y-65769224D01*
X228511090Y-65766112D01*
X228352253Y-65628478D01*
X228170249Y-65523398D01*
X228170245Y-65523396D01*
X228170244Y-65523396D01*
X227971633Y-65454656D01*
X227763602Y-65424746D01*
X227763598Y-65424746D01*
X227553672Y-65434745D01*
X227349421Y-65484296D01*
X227349417Y-65484298D01*
X227158256Y-65571598D01*
X227158251Y-65571601D01*
X226987046Y-65693515D01*
X226915201Y-65768865D01*
X226854692Y-65803800D01*
X226784902Y-65800475D01*
X226735713Y-65768863D01*
X226733091Y-65766113D01*
X226574253Y-65628478D01*
X226392249Y-65523398D01*
X226392245Y-65523396D01*
X226392244Y-65523396D01*
X226193633Y-65454656D01*
X225985602Y-65424746D01*
X225985598Y-65424746D01*
X225775672Y-65434745D01*
X225571421Y-65484296D01*
X225571417Y-65484298D01*
X225380256Y-65571598D01*
X225380251Y-65571601D01*
X225209046Y-65693515D01*
X225137201Y-65768865D01*
X225076692Y-65803800D01*
X225006902Y-65800475D01*
X224957713Y-65768863D01*
X224955091Y-65766113D01*
X224796253Y-65628478D01*
X224614249Y-65523398D01*
X224614245Y-65523396D01*
X224614244Y-65523396D01*
X224415633Y-65454656D01*
X224207602Y-65424746D01*
X224207598Y-65424746D01*
X223997672Y-65434745D01*
X223793421Y-65484296D01*
X223793417Y-65484298D01*
X223602256Y-65571598D01*
X223602251Y-65571601D01*
X223431046Y-65693515D01*
X223359201Y-65768865D01*
X223298692Y-65803800D01*
X223228902Y-65800475D01*
X223179713Y-65768863D01*
X223177091Y-65766113D01*
X223018253Y-65628478D01*
X222836249Y-65523398D01*
X222836245Y-65523396D01*
X222836244Y-65523396D01*
X222637633Y-65454656D01*
X222429602Y-65424746D01*
X222429598Y-65424746D01*
X222219672Y-65434745D01*
X222015421Y-65484296D01*
X222015417Y-65484298D01*
X221824256Y-65571598D01*
X221824251Y-65571601D01*
X221653046Y-65693515D01*
X221581201Y-65768865D01*
X221520692Y-65803800D01*
X221450902Y-65800475D01*
X221401713Y-65768863D01*
X221399091Y-65766113D01*
X221240253Y-65628478D01*
X221058249Y-65523398D01*
X221058245Y-65523396D01*
X221058244Y-65523396D01*
X220859633Y-65454656D01*
X220651602Y-65424746D01*
X220651598Y-65424746D01*
X220441672Y-65434745D01*
X220237421Y-65484296D01*
X220237417Y-65484298D01*
X220046256Y-65571598D01*
X220046251Y-65571601D01*
X219875046Y-65693515D01*
X219803201Y-65768865D01*
X219742692Y-65803800D01*
X219672902Y-65800475D01*
X219623713Y-65768863D01*
X219621091Y-65766113D01*
X219462253Y-65628478D01*
X219280249Y-65523398D01*
X219280245Y-65523396D01*
X219280244Y-65523396D01*
X219192447Y-65493009D01*
X219081632Y-65454655D01*
X219081633Y-65454655D01*
X219062847Y-65451954D01*
X218999293Y-65422926D01*
X218961521Y-65364146D01*
X218956500Y-65329217D01*
X218956500Y-54104536D01*
X218976185Y-54037497D01*
X219028989Y-53991742D01*
X219098147Y-53981798D01*
X219112582Y-53984758D01*
X219229308Y-54016035D01*
X219386791Y-54029813D01*
X219455998Y-54035868D01*
X219456000Y-54035868D01*
X219456002Y-54035868D01*
X219518511Y-54030399D01*
X219682692Y-54016035D01*
X219902496Y-53957139D01*
X220108734Y-53860968D01*
X220295139Y-53730447D01*
X220456047Y-53569539D01*
X220586568Y-53383134D01*
X220613618Y-53325124D01*
X220659790Y-53272685D01*
X220726983Y-53253533D01*
X220793865Y-53273748D01*
X220838382Y-53325125D01*
X220865429Y-53383128D01*
X220865432Y-53383134D01*
X220995954Y-53569541D01*
X221156858Y-53730445D01*
X221156861Y-53730447D01*
X221343266Y-53860968D01*
X221549504Y-53957139D01*
X221549509Y-53957140D01*
X221549511Y-53957141D01*
X221594561Y-53969212D01*
X221769308Y-54016035D01*
X221926791Y-54029813D01*
X221995998Y-54035868D01*
X221996000Y-54035868D01*
X221996002Y-54035868D01*
X222058511Y-54030399D01*
X222222692Y-54016035D01*
X222442496Y-53957139D01*
X222648734Y-53860968D01*
X222835139Y-53730447D01*
X222996047Y-53569539D01*
X223126568Y-53383134D01*
X223222739Y-53176896D01*
X223281635Y-52957092D01*
X223301468Y-52730400D01*
X223281635Y-52503708D01*
X223222739Y-52283904D01*
X223126568Y-52077666D01*
X222996047Y-51891261D01*
X222996045Y-51891258D01*
X222835141Y-51730354D01*
X222648734Y-51599832D01*
X222648732Y-51599831D01*
X222442497Y-51503661D01*
X222442488Y-51503658D01*
X222222697Y-51444766D01*
X222222693Y-51444765D01*
X222222692Y-51444765D01*
X222222691Y-51444764D01*
X222222686Y-51444764D01*
X221996002Y-51424932D01*
X221995998Y-51424932D01*
X221769313Y-51444764D01*
X221769302Y-51444766D01*
X221549511Y-51503658D01*
X221549502Y-51503661D01*
X221343267Y-51599831D01*
X221343265Y-51599832D01*
X221156858Y-51730354D01*
X220995954Y-51891258D01*
X220865432Y-52077665D01*
X220865431Y-52077667D01*
X220838382Y-52135675D01*
X220792209Y-52188114D01*
X220725016Y-52207266D01*
X220658135Y-52187050D01*
X220613618Y-52135675D01*
X220586568Y-52077667D01*
X220586567Y-52077665D01*
X220456045Y-51891258D01*
X220295141Y-51730354D01*
X220108734Y-51599832D01*
X220108732Y-51599831D01*
X219902497Y-51503661D01*
X219902488Y-51503658D01*
X219682697Y-51444766D01*
X219682693Y-51444765D01*
X219682692Y-51444765D01*
X219682691Y-51444764D01*
X219682686Y-51444764D01*
X219456002Y-51424932D01*
X219455998Y-51424932D01*
X219229313Y-51444764D01*
X219229302Y-51444766D01*
X219009511Y-51503658D01*
X219009502Y-51503661D01*
X218803267Y-51599831D01*
X218619796Y-51728297D01*
X218553590Y-51750624D01*
X218485823Y-51733612D01*
X218460993Y-51714402D01*
X216012155Y-49265564D01*
X215978670Y-49204241D01*
X215983654Y-49134549D01*
X216010090Y-49092316D01*
X216060800Y-49039132D01*
X216121306Y-49004200D01*
X216191096Y-49007523D01*
X216240285Y-49039136D01*
X216242902Y-49041881D01*
X216401746Y-49179521D01*
X216583750Y-49284601D01*
X216583752Y-49284601D01*
X216583756Y-49284604D01*
X216782367Y-49353344D01*
X216990398Y-49383254D01*
X217200330Y-49373254D01*
X217404576Y-49323704D01*
X217509033Y-49276000D01*
X217595743Y-49236401D01*
X217595746Y-49236399D01*
X217595753Y-49236396D01*
X217766952Y-49114486D01*
X217838800Y-49039132D01*
X217899305Y-49004200D01*
X217969096Y-49007523D01*
X218018285Y-49039136D01*
X218020902Y-49041881D01*
X218179746Y-49179521D01*
X218361750Y-49284601D01*
X218361752Y-49284601D01*
X218361756Y-49284604D01*
X218560367Y-49353344D01*
X218768398Y-49383254D01*
X218978330Y-49373254D01*
X219182576Y-49323704D01*
X219287033Y-49276000D01*
X219373743Y-49236401D01*
X219373746Y-49236399D01*
X219373753Y-49236396D01*
X219544952Y-49114486D01*
X219616800Y-49039132D01*
X219677305Y-49004200D01*
X219747096Y-49007523D01*
X219796285Y-49039136D01*
X219798902Y-49041881D01*
X219957746Y-49179521D01*
X220139750Y-49284601D01*
X220139752Y-49284601D01*
X220139756Y-49284604D01*
X220338367Y-49353344D01*
X220546398Y-49383254D01*
X220756330Y-49373254D01*
X220960576Y-49323704D01*
X221065033Y-49276000D01*
X221151743Y-49236401D01*
X221151746Y-49236399D01*
X221151753Y-49236396D01*
X221322952Y-49114486D01*
X221394800Y-49039132D01*
X221455305Y-49004200D01*
X221525096Y-49007523D01*
X221574285Y-49039136D01*
X221576902Y-49041881D01*
X221735746Y-49179521D01*
X221917750Y-49284601D01*
X221917752Y-49284601D01*
X221917756Y-49284604D01*
X222116367Y-49353344D01*
X222324398Y-49383254D01*
X222534330Y-49373254D01*
X222738576Y-49323704D01*
X222843033Y-49276000D01*
X222929743Y-49236401D01*
X222929746Y-49236399D01*
X222929753Y-49236396D01*
X223100952Y-49114486D01*
X223172800Y-49039132D01*
X223233305Y-49004200D01*
X223303096Y-49007523D01*
X223352285Y-49039136D01*
X223354902Y-49041881D01*
X223513746Y-49179521D01*
X223695750Y-49284601D01*
X223695752Y-49284601D01*
X223695756Y-49284604D01*
X223894367Y-49353344D01*
X224102398Y-49383254D01*
X224312330Y-49373254D01*
X224516576Y-49323704D01*
X224621033Y-49276000D01*
X224707743Y-49236401D01*
X224707746Y-49236399D01*
X224707753Y-49236396D01*
X224878952Y-49114486D01*
X224950800Y-49039132D01*
X225011305Y-49004200D01*
X225081096Y-49007523D01*
X225130285Y-49039136D01*
X225132902Y-49041881D01*
X225291746Y-49179521D01*
X225473750Y-49284601D01*
X225473752Y-49284601D01*
X225473756Y-49284604D01*
X225672367Y-49353344D01*
X225880398Y-49383254D01*
X226090330Y-49373254D01*
X226294576Y-49323704D01*
X226399033Y-49276000D01*
X226485743Y-49236401D01*
X226485746Y-49236399D01*
X226485753Y-49236396D01*
X226656952Y-49114486D01*
X226728800Y-49039132D01*
X226789305Y-49004200D01*
X226859096Y-49007523D01*
X226908285Y-49039136D01*
X226910902Y-49041881D01*
X227069746Y-49179521D01*
X227251750Y-49284601D01*
X227251752Y-49284601D01*
X227251756Y-49284604D01*
X227450367Y-49353344D01*
X227658398Y-49383254D01*
X227868330Y-49373254D01*
X228072576Y-49323704D01*
X228177033Y-49276000D01*
X228263743Y-49236401D01*
X228263746Y-49236399D01*
X228263753Y-49236396D01*
X228434952Y-49114486D01*
X228506800Y-49039132D01*
X228567305Y-49004200D01*
X228637096Y-49007523D01*
X228686285Y-49039136D01*
X228688902Y-49041881D01*
X228847746Y-49179521D01*
X229029750Y-49284601D01*
X229029752Y-49284601D01*
X229029756Y-49284604D01*
X229228367Y-49353344D01*
X229436398Y-49383254D01*
X229646330Y-49373254D01*
X229850576Y-49323704D01*
X229955033Y-49276000D01*
X230041743Y-49236401D01*
X230041746Y-49236399D01*
X230041753Y-49236396D01*
X230212952Y-49114486D01*
X230259773Y-49065382D01*
X230357985Y-48962379D01*
X230357986Y-48962378D01*
X230471613Y-48785572D01*
X230549725Y-48590457D01*
X230589500Y-48384085D01*
X230589500Y-47426575D01*
X230574528Y-47269782D01*
X230515316Y-47068125D01*
X230419011Y-46881318D01*
X230419009Y-46881316D01*
X230419008Y-46881313D01*
X230289094Y-46716116D01*
X230289090Y-46716112D01*
X230130253Y-46578478D01*
X229948249Y-46473398D01*
X229948245Y-46473396D01*
X229948244Y-46473396D01*
X229749633Y-46404656D01*
X229541602Y-46374746D01*
X229541598Y-46374746D01*
X229331672Y-46384745D01*
X229127421Y-46434296D01*
X229127417Y-46434298D01*
X228936256Y-46521598D01*
X228936251Y-46521601D01*
X228765046Y-46643515D01*
X228693201Y-46718865D01*
X228632692Y-46753800D01*
X228562902Y-46750475D01*
X228513713Y-46718863D01*
X228511091Y-46716113D01*
X228352253Y-46578478D01*
X228170249Y-46473398D01*
X228170245Y-46473396D01*
X228170244Y-46473396D01*
X227971633Y-46404656D01*
X227763602Y-46374746D01*
X227763598Y-46374746D01*
X227553672Y-46384745D01*
X227349421Y-46434296D01*
X227349417Y-46434298D01*
X227158256Y-46521598D01*
X227158251Y-46521601D01*
X226987046Y-46643515D01*
X226915201Y-46718865D01*
X226854692Y-46753800D01*
X226784902Y-46750475D01*
X226735713Y-46718863D01*
X226733091Y-46716113D01*
X226574253Y-46578478D01*
X226392249Y-46473398D01*
X226392245Y-46473396D01*
X226392244Y-46473396D01*
X226193633Y-46404656D01*
X225985602Y-46374746D01*
X225985598Y-46374746D01*
X225775672Y-46384745D01*
X225571421Y-46434296D01*
X225571417Y-46434298D01*
X225380256Y-46521598D01*
X225380251Y-46521601D01*
X225209046Y-46643515D01*
X225137201Y-46718865D01*
X225076692Y-46753800D01*
X225006902Y-46750475D01*
X224957713Y-46718863D01*
X224955091Y-46716113D01*
X224796253Y-46578478D01*
X224614249Y-46473398D01*
X224614245Y-46473396D01*
X224614244Y-46473396D01*
X224415633Y-46404656D01*
X224207602Y-46374746D01*
X224207598Y-46374746D01*
X223997672Y-46384745D01*
X223793421Y-46434296D01*
X223793417Y-46434298D01*
X223602256Y-46521598D01*
X223602251Y-46521601D01*
X223431046Y-46643515D01*
X223359201Y-46718865D01*
X223298692Y-46753800D01*
X223228902Y-46750475D01*
X223179713Y-46718863D01*
X223177091Y-46716113D01*
X223018253Y-46578478D01*
X222836249Y-46473398D01*
X222836245Y-46473396D01*
X222836244Y-46473396D01*
X222637633Y-46404656D01*
X222429602Y-46374746D01*
X222429598Y-46374746D01*
X222219672Y-46384745D01*
X222015421Y-46434296D01*
X222015417Y-46434298D01*
X221824256Y-46521598D01*
X221824251Y-46521601D01*
X221653046Y-46643515D01*
X221581201Y-46718865D01*
X221520692Y-46753800D01*
X221450902Y-46750475D01*
X221401713Y-46718863D01*
X221399091Y-46716113D01*
X221240253Y-46578478D01*
X221058249Y-46473398D01*
X221058245Y-46473396D01*
X221058244Y-46473396D01*
X220859633Y-46404656D01*
X220651602Y-46374746D01*
X220651598Y-46374746D01*
X220441672Y-46384745D01*
X220237421Y-46434296D01*
X220237417Y-46434298D01*
X220046256Y-46521598D01*
X220046251Y-46521601D01*
X219875046Y-46643515D01*
X219803201Y-46718865D01*
X219742692Y-46753800D01*
X219672902Y-46750475D01*
X219623713Y-46718863D01*
X219621091Y-46716113D01*
X219462253Y-46578478D01*
X219280249Y-46473398D01*
X219280245Y-46473396D01*
X219280244Y-46473396D01*
X219081633Y-46404656D01*
X218873602Y-46374746D01*
X218873598Y-46374746D01*
X218663672Y-46384745D01*
X218459421Y-46434296D01*
X218459417Y-46434298D01*
X218268256Y-46521598D01*
X218268251Y-46521601D01*
X218097046Y-46643515D01*
X218025201Y-46718865D01*
X217964692Y-46753800D01*
X217894902Y-46750475D01*
X217845713Y-46718863D01*
X217843091Y-46716113D01*
X217684253Y-46578478D01*
X217502249Y-46473398D01*
X217502245Y-46473396D01*
X217502244Y-46473396D01*
X217303633Y-46404656D01*
X217095602Y-46374746D01*
X217095598Y-46374746D01*
X216885672Y-46384745D01*
X216681421Y-46434296D01*
X216681417Y-46434298D01*
X216490256Y-46521598D01*
X216490251Y-46521601D01*
X216319046Y-46643515D01*
X216247201Y-46718865D01*
X216186692Y-46753800D01*
X216116902Y-46750475D01*
X216067713Y-46718863D01*
X216065091Y-46716113D01*
X215906253Y-46578478D01*
X215724249Y-46473398D01*
X215724245Y-46473396D01*
X215724244Y-46473396D01*
X215525633Y-46404656D01*
X215317602Y-46374746D01*
X215317598Y-46374746D01*
X215107672Y-46384745D01*
X214903421Y-46434296D01*
X214903417Y-46434298D01*
X214712256Y-46521598D01*
X214712251Y-46521601D01*
X214541046Y-46643515D01*
X214469201Y-46718865D01*
X214408692Y-46753800D01*
X214338902Y-46750475D01*
X214289713Y-46718863D01*
X214287091Y-46716113D01*
X214128253Y-46578478D01*
X213946249Y-46473398D01*
X213946245Y-46473396D01*
X213946244Y-46473396D01*
X213747633Y-46404656D01*
X213539602Y-46374746D01*
X213539598Y-46374746D01*
X213329672Y-46384745D01*
X213125421Y-46434296D01*
X213125417Y-46434298D01*
X212934256Y-46521598D01*
X212934251Y-46521601D01*
X212763046Y-46643515D01*
X212691201Y-46718865D01*
X212630692Y-46753800D01*
X212560902Y-46750475D01*
X212511713Y-46718863D01*
X212509091Y-46716113D01*
X212350253Y-46578478D01*
X212168249Y-46473398D01*
X212168245Y-46473396D01*
X212168244Y-46473396D01*
X211969633Y-46404656D01*
X211761602Y-46374746D01*
X211761598Y-46374746D01*
X211551672Y-46384745D01*
X211347421Y-46434296D01*
X211347417Y-46434298D01*
X211156256Y-46521598D01*
X211156251Y-46521601D01*
X210985046Y-46643515D01*
X210913201Y-46718865D01*
X210852692Y-46753800D01*
X210782902Y-46750475D01*
X210733713Y-46718863D01*
X210731091Y-46716113D01*
X210572253Y-46578478D01*
X210390249Y-46473398D01*
X210390245Y-46473396D01*
X210390244Y-46473396D01*
X210191633Y-46404656D01*
X209983602Y-46374746D01*
X209983598Y-46374746D01*
X209773672Y-46384745D01*
X209569421Y-46434296D01*
X209569417Y-46434298D01*
X209378256Y-46521598D01*
X209378251Y-46521601D01*
X209207046Y-46643515D01*
X209135201Y-46718865D01*
X209074692Y-46753800D01*
X209004902Y-46750475D01*
X208955713Y-46718863D01*
X208953091Y-46716113D01*
X208794253Y-46578478D01*
X208612249Y-46473398D01*
X208612245Y-46473396D01*
X208612244Y-46473396D01*
X208413633Y-46404656D01*
X208205602Y-46374746D01*
X208205598Y-46374746D01*
X207995672Y-46384745D01*
X207791421Y-46434296D01*
X207791417Y-46434298D01*
X207600256Y-46521598D01*
X207600251Y-46521601D01*
X207429046Y-46643515D01*
X207357201Y-46718865D01*
X207296692Y-46753800D01*
X207226902Y-46750475D01*
X207177713Y-46718863D01*
X207175091Y-46716113D01*
X207016253Y-46578478D01*
X206834249Y-46473398D01*
X206834245Y-46473396D01*
X206834244Y-46473396D01*
X206635633Y-46404656D01*
X206427602Y-46374746D01*
X206427598Y-46374746D01*
X206217672Y-46384745D01*
X206013421Y-46434296D01*
X206013417Y-46434298D01*
X205822256Y-46521598D01*
X205822251Y-46521601D01*
X205651046Y-46643515D01*
X205579201Y-46718865D01*
X205518692Y-46753800D01*
X205448902Y-46750475D01*
X205399713Y-46718863D01*
X205397091Y-46716113D01*
X205238253Y-46578478D01*
X205056249Y-46473398D01*
X205056245Y-46473396D01*
X205056244Y-46473396D01*
X204857633Y-46404656D01*
X204649602Y-46374746D01*
X204649598Y-46374746D01*
X204439672Y-46384745D01*
X204235421Y-46434296D01*
X204235417Y-46434298D01*
X204044256Y-46521598D01*
X204044251Y-46521601D01*
X203873046Y-46643515D01*
X203801201Y-46718865D01*
X203740692Y-46753800D01*
X203670902Y-46750475D01*
X203621713Y-46718863D01*
X203619091Y-46716113D01*
X203460253Y-46578478D01*
X203278249Y-46473398D01*
X203278245Y-46473396D01*
X203278244Y-46473396D01*
X203079633Y-46404656D01*
X202871602Y-46374746D01*
X202871598Y-46374746D01*
X202661672Y-46384745D01*
X202457421Y-46434296D01*
X202457417Y-46434298D01*
X202266256Y-46521598D01*
X202266251Y-46521601D01*
X202095046Y-46643515D01*
X202023201Y-46718865D01*
X201962692Y-46753800D01*
X201892902Y-46750475D01*
X201843713Y-46718863D01*
X201841091Y-46716113D01*
X201682253Y-46578478D01*
X201500249Y-46473398D01*
X201500245Y-46473396D01*
X201500244Y-46473396D01*
X201301633Y-46404656D01*
X201093602Y-46374746D01*
X201093598Y-46374746D01*
X200883672Y-46384745D01*
X200679421Y-46434296D01*
X200679417Y-46434298D01*
X200488256Y-46521598D01*
X200488251Y-46521601D01*
X200317046Y-46643515D01*
X200245201Y-46718865D01*
X200184692Y-46753800D01*
X200114902Y-46750475D01*
X200065713Y-46718863D01*
X200063091Y-46716113D01*
X199904253Y-46578478D01*
X199722249Y-46473398D01*
X199722245Y-46473396D01*
X199722244Y-46473396D01*
X199523633Y-46404656D01*
X199315602Y-46374746D01*
X199315598Y-46374746D01*
X199105672Y-46384745D01*
X198901421Y-46434296D01*
X198901417Y-46434298D01*
X198710256Y-46521598D01*
X198710251Y-46521601D01*
X198539046Y-46643515D01*
X198467201Y-46718865D01*
X198406692Y-46753800D01*
X198336902Y-46750475D01*
X198287713Y-46718863D01*
X198285091Y-46716113D01*
X198126253Y-46578478D01*
X197944249Y-46473398D01*
X197944245Y-46473396D01*
X197944244Y-46473396D01*
X197745633Y-46404656D01*
X197537602Y-46374746D01*
X197537598Y-46374746D01*
X197327672Y-46384745D01*
X197123421Y-46434296D01*
X197123417Y-46434298D01*
X196932256Y-46521598D01*
X196932251Y-46521601D01*
X196761046Y-46643515D01*
X196689201Y-46718865D01*
X196628692Y-46753800D01*
X196558902Y-46750475D01*
X196509713Y-46718863D01*
X196507091Y-46716113D01*
X196348253Y-46578478D01*
X196166249Y-46473398D01*
X196166245Y-46473396D01*
X196166244Y-46473396D01*
X195967633Y-46404656D01*
X195759602Y-46374746D01*
X195759598Y-46374746D01*
X195549672Y-46384745D01*
X195345421Y-46434296D01*
X195345417Y-46434298D01*
X195154256Y-46521598D01*
X195154251Y-46521601D01*
X194983046Y-46643515D01*
X194911201Y-46718865D01*
X194850692Y-46753800D01*
X194780902Y-46750475D01*
X194731713Y-46718863D01*
X194729091Y-46716113D01*
X194570253Y-46578478D01*
X194388249Y-46473398D01*
X194388245Y-46473396D01*
X194388244Y-46473396D01*
X194189633Y-46404656D01*
X193981602Y-46374746D01*
X193981598Y-46374746D01*
X193771672Y-46384745D01*
X193567421Y-46434296D01*
X193567417Y-46434298D01*
X193376256Y-46521598D01*
X193376251Y-46521601D01*
X193205046Y-46643515D01*
X193133201Y-46718865D01*
X193072692Y-46753800D01*
X193002902Y-46750475D01*
X192953713Y-46718863D01*
X192951091Y-46716113D01*
X192792253Y-46578478D01*
X192610249Y-46473398D01*
X192610245Y-46473396D01*
X192610244Y-46473396D01*
X192411633Y-46404656D01*
X192203602Y-46374746D01*
X192203598Y-46374746D01*
X191993672Y-46384745D01*
X191789421Y-46434296D01*
X191789417Y-46434298D01*
X191598256Y-46521598D01*
X191598251Y-46521601D01*
X191427046Y-46643515D01*
X191355201Y-46718865D01*
X191294692Y-46753800D01*
X191224902Y-46750475D01*
X191175713Y-46718863D01*
X191173091Y-46716113D01*
X191014253Y-46578478D01*
X190832249Y-46473398D01*
X190832245Y-46473396D01*
X190832244Y-46473396D01*
X190633633Y-46404656D01*
X190425602Y-46374746D01*
X190425598Y-46374746D01*
X190215672Y-46384745D01*
X190011421Y-46434296D01*
X190011417Y-46434298D01*
X189820256Y-46521598D01*
X189820251Y-46521601D01*
X189649046Y-46643515D01*
X189577201Y-46718865D01*
X189516692Y-46753800D01*
X189446902Y-46750475D01*
X189397713Y-46718863D01*
X189395091Y-46716113D01*
X189236253Y-46578478D01*
X189054249Y-46473398D01*
X189054245Y-46473396D01*
X189054244Y-46473396D01*
X188855633Y-46404656D01*
X188647602Y-46374746D01*
X188647598Y-46374746D01*
X188437672Y-46384745D01*
X188233421Y-46434296D01*
X188233417Y-46434298D01*
X188042256Y-46521598D01*
X188042251Y-46521601D01*
X187871046Y-46643515D01*
X187799201Y-46718865D01*
X187738692Y-46753800D01*
X187668902Y-46750475D01*
X187619713Y-46718863D01*
X187617091Y-46716113D01*
X187458253Y-46578478D01*
X187276249Y-46473398D01*
X187276245Y-46473396D01*
X187276244Y-46473396D01*
X187077633Y-46404656D01*
X186869602Y-46374746D01*
X186869598Y-46374746D01*
X186659672Y-46384745D01*
X186455421Y-46434296D01*
X186455417Y-46434298D01*
X186264256Y-46521598D01*
X186264251Y-46521601D01*
X186093046Y-46643515D01*
X186021201Y-46718865D01*
X185960692Y-46753800D01*
X185890902Y-46750475D01*
X185841713Y-46718863D01*
X185839091Y-46716113D01*
X185680253Y-46578478D01*
X185498249Y-46473398D01*
X185498245Y-46473396D01*
X185498244Y-46473396D01*
X185299633Y-46404656D01*
X185091602Y-46374746D01*
X185091598Y-46374746D01*
X184881672Y-46384745D01*
X184677421Y-46434296D01*
X184677417Y-46434298D01*
X184486256Y-46521598D01*
X184486251Y-46521601D01*
X184315046Y-46643515D01*
X184243201Y-46718865D01*
X184182692Y-46753800D01*
X184112902Y-46750475D01*
X184063713Y-46718863D01*
X184061091Y-46716113D01*
X183902253Y-46578478D01*
X183720249Y-46473398D01*
X183720245Y-46473396D01*
X183720244Y-46473396D01*
X183521633Y-46404656D01*
X183313602Y-46374746D01*
X183313598Y-46374746D01*
X183103672Y-46384745D01*
X182899421Y-46434296D01*
X182899417Y-46434298D01*
X182708256Y-46521598D01*
X182708251Y-46521601D01*
X182537046Y-46643515D01*
X182465201Y-46718865D01*
X182404692Y-46753800D01*
X182334902Y-46750475D01*
X182285713Y-46718863D01*
X182283091Y-46716113D01*
X182124253Y-46578478D01*
X181942249Y-46473398D01*
X181942245Y-46473396D01*
X181942244Y-46473396D01*
X181743633Y-46404656D01*
X181535602Y-46374746D01*
X181535598Y-46374746D01*
X181325672Y-46384745D01*
X181121421Y-46434296D01*
X181121417Y-46434298D01*
X180930256Y-46521598D01*
X180930251Y-46521601D01*
X180759046Y-46643515D01*
X180687201Y-46718865D01*
X180626692Y-46753800D01*
X180556902Y-46750475D01*
X180507713Y-46718863D01*
X180505091Y-46716113D01*
X180346253Y-46578478D01*
X180164249Y-46473398D01*
X180164245Y-46473396D01*
X180164244Y-46473396D01*
X179965633Y-46404656D01*
X179757602Y-46374746D01*
X179757598Y-46374746D01*
X179547672Y-46384745D01*
X179343421Y-46434296D01*
X179343417Y-46434298D01*
X179152256Y-46521598D01*
X179152251Y-46521601D01*
X178981046Y-46643515D01*
X178909201Y-46718865D01*
X178848692Y-46753800D01*
X178778902Y-46750475D01*
X178729713Y-46718863D01*
X178727091Y-46716113D01*
X178568253Y-46578478D01*
X178386249Y-46473398D01*
X178386245Y-46473396D01*
X178386244Y-46473396D01*
X178187633Y-46404656D01*
X177979602Y-46374746D01*
X177979598Y-46374746D01*
X177769672Y-46384745D01*
X177565421Y-46434296D01*
X177565417Y-46434298D01*
X177374256Y-46521598D01*
X177374251Y-46521601D01*
X177203046Y-46643515D01*
X177131201Y-46718865D01*
X177070692Y-46753800D01*
X177000902Y-46750475D01*
X176951713Y-46718863D01*
X176949091Y-46716113D01*
X176790253Y-46578478D01*
X176608249Y-46473398D01*
X176608245Y-46473396D01*
X176608244Y-46473396D01*
X176409633Y-46404656D01*
X176201602Y-46374746D01*
X176201598Y-46374746D01*
X175991672Y-46384745D01*
X175787421Y-46434296D01*
X175787417Y-46434298D01*
X175596256Y-46521598D01*
X175596251Y-46521601D01*
X175425046Y-46643515D01*
X175353201Y-46718865D01*
X175292692Y-46753800D01*
X175222902Y-46750475D01*
X175173713Y-46718863D01*
X175171091Y-46716113D01*
X175012253Y-46578478D01*
X174830249Y-46473398D01*
X174830245Y-46473396D01*
X174830244Y-46473396D01*
X174631633Y-46404656D01*
X174423602Y-46374746D01*
X174423598Y-46374746D01*
X174213672Y-46384745D01*
X174009421Y-46434296D01*
X174009417Y-46434298D01*
X173818256Y-46521598D01*
X173818251Y-46521601D01*
X173647046Y-46643515D01*
X173647040Y-46643520D01*
X173502014Y-46795620D01*
X173388388Y-46972425D01*
X173310274Y-47167544D01*
X173279317Y-47328169D01*
X173270500Y-47373915D01*
X173270500Y-48331425D01*
X173285472Y-48488218D01*
X173344684Y-48689875D01*
X173394019Y-48785572D01*
X173440991Y-48876686D01*
X173570905Y-49041883D01*
X173570909Y-49041887D01*
X173729746Y-49179521D01*
X173911750Y-49284601D01*
X173911752Y-49284601D01*
X173911756Y-49284604D01*
X174110367Y-49353344D01*
X174318398Y-49383254D01*
X174528330Y-49373254D01*
X174732576Y-49323704D01*
X174837033Y-49276000D01*
X174923743Y-49236401D01*
X174923746Y-49236399D01*
X174923753Y-49236396D01*
X175094952Y-49114486D01*
X175166800Y-49039132D01*
X175227305Y-49004200D01*
X175297096Y-49007523D01*
X175346285Y-49039136D01*
X175348902Y-49041881D01*
X175507746Y-49179521D01*
X175689750Y-49284601D01*
X175689752Y-49284601D01*
X175689756Y-49284604D01*
X175888367Y-49353344D01*
X176096398Y-49383254D01*
X176306330Y-49373254D01*
X176510576Y-49323704D01*
X176615033Y-49276000D01*
X176701743Y-49236401D01*
X176701746Y-49236399D01*
X176701753Y-49236396D01*
X176872952Y-49114486D01*
X176944800Y-49039132D01*
X177005305Y-49004200D01*
X177075096Y-49007523D01*
X177124285Y-49039136D01*
X177126902Y-49041881D01*
X177285746Y-49179521D01*
X177467750Y-49284601D01*
X177467752Y-49284601D01*
X177467756Y-49284604D01*
X177666367Y-49353344D01*
X177874398Y-49383254D01*
X178084330Y-49373254D01*
X178288576Y-49323704D01*
X178393033Y-49276000D01*
X178479743Y-49236401D01*
X178479746Y-49236399D01*
X178479753Y-49236396D01*
X178650952Y-49114486D01*
X178722800Y-49039132D01*
X178783305Y-49004200D01*
X178853096Y-49007523D01*
X178902285Y-49039136D01*
X178904902Y-49041881D01*
X179063746Y-49179521D01*
X179245750Y-49284601D01*
X179245752Y-49284601D01*
X179245756Y-49284604D01*
X179444367Y-49353344D01*
X179652398Y-49383254D01*
X179862330Y-49373254D01*
X180066576Y-49323704D01*
X180171033Y-49276000D01*
X180257743Y-49236401D01*
X180257746Y-49236399D01*
X180257753Y-49236396D01*
X180428952Y-49114486D01*
X180500800Y-49039132D01*
X180561305Y-49004200D01*
X180631096Y-49007523D01*
X180680285Y-49039136D01*
X180682902Y-49041881D01*
X180841746Y-49179521D01*
X181023750Y-49284601D01*
X181023752Y-49284601D01*
X181023756Y-49284604D01*
X181222367Y-49353344D01*
X181430398Y-49383254D01*
X181640330Y-49373254D01*
X181844576Y-49323704D01*
X181949033Y-49276000D01*
X182035743Y-49236401D01*
X182035746Y-49236399D01*
X182035753Y-49236396D01*
X182206952Y-49114486D01*
X182278800Y-49039132D01*
X182339305Y-49004200D01*
X182409096Y-49007523D01*
X182458285Y-49039136D01*
X182460902Y-49041881D01*
X182619746Y-49179521D01*
X182801750Y-49284601D01*
X182801752Y-49284601D01*
X182801756Y-49284604D01*
X183000367Y-49353344D01*
X183208398Y-49383254D01*
X183418330Y-49373254D01*
X183530720Y-49345988D01*
X183600508Y-49349312D01*
X183657423Y-49389839D01*
X183683391Y-49454704D01*
X183670169Y-49523311D01*
X183647634Y-49554173D01*
X181770821Y-51430986D01*
X181709498Y-51464471D01*
X181651048Y-51463080D01*
X181582697Y-51444766D01*
X181582693Y-51444765D01*
X181582692Y-51444765D01*
X181469346Y-51434848D01*
X181356001Y-51424932D01*
X181355998Y-51424932D01*
X181129313Y-51444764D01*
X181129302Y-51444766D01*
X180909511Y-51503658D01*
X180909502Y-51503661D01*
X180703267Y-51599831D01*
X180703265Y-51599832D01*
X180516858Y-51730354D01*
X180355954Y-51891258D01*
X180225432Y-52077665D01*
X180225431Y-52077667D01*
X180198382Y-52135675D01*
X180152209Y-52188114D01*
X180085016Y-52207266D01*
X180018135Y-52187050D01*
X179973618Y-52135675D01*
X179946568Y-52077667D01*
X179946567Y-52077665D01*
X179816045Y-51891258D01*
X179655141Y-51730354D01*
X179468734Y-51599832D01*
X179468732Y-51599831D01*
X179262497Y-51503661D01*
X179262488Y-51503658D01*
X179042697Y-51444766D01*
X179042693Y-51444765D01*
X179042692Y-51444765D01*
X179042691Y-51444764D01*
X179042686Y-51444764D01*
X178816002Y-51424932D01*
X178815998Y-51424932D01*
X178589313Y-51444764D01*
X178589302Y-51444766D01*
X178369511Y-51503658D01*
X178369502Y-51503661D01*
X178163267Y-51599831D01*
X178163265Y-51599832D01*
X177976858Y-51730354D01*
X177815954Y-51891258D01*
X177685432Y-52077665D01*
X177685431Y-52077667D01*
X177658382Y-52135675D01*
X177612209Y-52188114D01*
X177545016Y-52207266D01*
X177478135Y-52187050D01*
X177433618Y-52135675D01*
X177406568Y-52077667D01*
X177406567Y-52077665D01*
X177276045Y-51891258D01*
X177115141Y-51730354D01*
X176928734Y-51599832D01*
X176928732Y-51599831D01*
X176722497Y-51503661D01*
X176722488Y-51503658D01*
X176502697Y-51444766D01*
X176502693Y-51444765D01*
X176502692Y-51444765D01*
X176502691Y-51444764D01*
X176502686Y-51444764D01*
X176276002Y-51424932D01*
X176275998Y-51424932D01*
X176049313Y-51444764D01*
X176049302Y-51444766D01*
X175829511Y-51503658D01*
X175829502Y-51503661D01*
X175623267Y-51599831D01*
X175623265Y-51599832D01*
X175436858Y-51730354D01*
X175275951Y-51891261D01*
X175258287Y-51916488D01*
X175203710Y-51960112D01*
X175134211Y-51967304D01*
X175071857Y-51935780D01*
X175036445Y-51875550D01*
X175033425Y-51858618D01*
X175029598Y-51823027D01*
X175029596Y-51823020D01*
X174979354Y-51688313D01*
X174979350Y-51688306D01*
X174893190Y-51573212D01*
X174893187Y-51573209D01*
X174778093Y-51487049D01*
X174778086Y-51487045D01*
X174643379Y-51436803D01*
X174643372Y-51436801D01*
X174583844Y-51430400D01*
X173986000Y-51430400D01*
X173986000Y-52414714D01*
X173974045Y-52402759D01*
X173861148Y-52345235D01*
X173767481Y-52330400D01*
X173704519Y-52330400D01*
X173610852Y-52345235D01*
X173497955Y-52402759D01*
X173486000Y-52414714D01*
X173486000Y-51430400D01*
X172888155Y-51430400D01*
X172828627Y-51436801D01*
X172828620Y-51436803D01*
X172693913Y-51487045D01*
X172693906Y-51487049D01*
X172578812Y-51573209D01*
X172578809Y-51573212D01*
X172492649Y-51688306D01*
X172492645Y-51688313D01*
X172442403Y-51823020D01*
X172442401Y-51823027D01*
X172436000Y-51882555D01*
X172436000Y-52480400D01*
X173420314Y-52480400D01*
X173408359Y-52492355D01*
X173350835Y-52605252D01*
X173331014Y-52730400D01*
X173350835Y-52855548D01*
X173408359Y-52968445D01*
X173420314Y-52980400D01*
X172436000Y-52980400D01*
X172436000Y-53578244D01*
X168138575Y-53578244D01*
X168151903Y-53549663D01*
X168213063Y-53321408D01*
X168233659Y-53086000D01*
X168213063Y-52850592D01*
X168151903Y-52622337D01*
X168052035Y-52408171D01*
X168048246Y-52402759D01*
X167916494Y-52214597D01*
X167749402Y-52047506D01*
X167749396Y-52047501D01*
X167563842Y-51917575D01*
X167520217Y-51862998D01*
X167513023Y-51793500D01*
X167544546Y-51731145D01*
X167563842Y-51714425D01*
X167601144Y-51688306D01*
X167749401Y-51584495D01*
X167916495Y-51417401D01*
X168052035Y-51223830D01*
X168151903Y-51009663D01*
X168213063Y-50781408D01*
X168233659Y-50546000D01*
X168231832Y-50525123D01*
X168225333Y-50450836D01*
X168213063Y-50310592D01*
X168151903Y-50082337D01*
X168052035Y-49868171D01*
X168046425Y-49860158D01*
X167916494Y-49674597D01*
X167749402Y-49507506D01*
X167749396Y-49507501D01*
X167563842Y-49377575D01*
X167520217Y-49322998D01*
X167513023Y-49253500D01*
X167544546Y-49191145D01*
X167563842Y-49174425D01*
X167640680Y-49120622D01*
X167749401Y-49044495D01*
X167916495Y-48877401D01*
X168052035Y-48683830D01*
X168151903Y-48469663D01*
X168213063Y-48241408D01*
X168233659Y-48006000D01*
X168213063Y-47770592D01*
X168151903Y-47542337D01*
X168052035Y-47328171D01*
X168046425Y-47320158D01*
X167916494Y-47134597D01*
X167749402Y-46967506D01*
X167749396Y-46967501D01*
X167563842Y-46837575D01*
X167520217Y-46782998D01*
X167513023Y-46713500D01*
X167544546Y-46651145D01*
X167563842Y-46634425D01*
X167643742Y-46578478D01*
X167749401Y-46504495D01*
X167916495Y-46337401D01*
X168052035Y-46143830D01*
X168151903Y-45929663D01*
X168213063Y-45701408D01*
X168233659Y-45466000D01*
X168213063Y-45230592D01*
X168151903Y-45002337D01*
X168052035Y-44788171D01*
X168046425Y-44780158D01*
X167916494Y-44594597D01*
X167749402Y-44427506D01*
X167749396Y-44427501D01*
X167563842Y-44297575D01*
X167520217Y-44242998D01*
X167513023Y-44173500D01*
X167544546Y-44111145D01*
X167563842Y-44094425D01*
X167586026Y-44078891D01*
X167749401Y-43964495D01*
X167916495Y-43797401D01*
X168052035Y-43603830D01*
X168151903Y-43389663D01*
X168213063Y-43161408D01*
X168233659Y-42926000D01*
X168213063Y-42690592D01*
X168151903Y-42462337D01*
X168052035Y-42248171D01*
X168046425Y-42240158D01*
X167916494Y-42054597D01*
X167749402Y-41887506D01*
X167749395Y-41887501D01*
X167555834Y-41751967D01*
X167555830Y-41751965D01*
X167555828Y-41751964D01*
X167341663Y-41652097D01*
X167341659Y-41652096D01*
X167341655Y-41652094D01*
X167113413Y-41590938D01*
X167113403Y-41590936D01*
X166878001Y-41570341D01*
X166877999Y-41570341D01*
X166642596Y-41590936D01*
X166642586Y-41590938D01*
X166414344Y-41652094D01*
X166414335Y-41652098D01*
X166200171Y-41751964D01*
X166200169Y-41751965D01*
X166006597Y-41887505D01*
X165839505Y-42054597D01*
X165709575Y-42240158D01*
X165654998Y-42283783D01*
X165585500Y-42290977D01*
X165523145Y-42259454D01*
X165506425Y-42240158D01*
X165376494Y-42054597D01*
X165209402Y-41887506D01*
X165209395Y-41887501D01*
X165015834Y-41751967D01*
X165015830Y-41751965D01*
X165015828Y-41751964D01*
X164801663Y-41652097D01*
X164801659Y-41652096D01*
X164801655Y-41652094D01*
X164573413Y-41590938D01*
X164573403Y-41590936D01*
X164338001Y-41570341D01*
X164337999Y-41570341D01*
X164102596Y-41590936D01*
X164102586Y-41590938D01*
X163874344Y-41652094D01*
X163874335Y-41652098D01*
X163660171Y-41751964D01*
X163660169Y-41751965D01*
X163466597Y-41887505D01*
X163299505Y-42054597D01*
X163163965Y-42248169D01*
X163163964Y-42248171D01*
X163064098Y-42462335D01*
X163064094Y-42462344D01*
X163002938Y-42690586D01*
X163002936Y-42690596D01*
X162982341Y-42925999D01*
X162982341Y-42926000D01*
X163002936Y-43161403D01*
X163002938Y-43161413D01*
X163064094Y-43389655D01*
X163064096Y-43389659D01*
X163064097Y-43389663D01*
X163068000Y-43398032D01*
X163163965Y-43603830D01*
X163163967Y-43603834D01*
X163272281Y-43758521D01*
X163299501Y-43797396D01*
X163299506Y-43797402D01*
X163466597Y-43964493D01*
X163466603Y-43964498D01*
X163652158Y-44094425D01*
X163695783Y-44149002D01*
X163702977Y-44218500D01*
X163671454Y-44280855D01*
X163652158Y-44297575D01*
X163466597Y-44427505D01*
X163299505Y-44594597D01*
X163163965Y-44788169D01*
X163163964Y-44788171D01*
X163064098Y-45002335D01*
X163064094Y-45002344D01*
X163002938Y-45230586D01*
X163002936Y-45230596D01*
X162982341Y-45465999D01*
X162982341Y-45466000D01*
X163002936Y-45701403D01*
X163002938Y-45701413D01*
X163064094Y-45929655D01*
X163064096Y-45929659D01*
X163064097Y-45929663D01*
X163068000Y-45938032D01*
X163163965Y-46143830D01*
X163163967Y-46143834D01*
X163272281Y-46298521D01*
X163299501Y-46337396D01*
X163299506Y-46337402D01*
X163466597Y-46504493D01*
X163466603Y-46504498D01*
X163652158Y-46634425D01*
X163695783Y-46689002D01*
X163702977Y-46758500D01*
X163671454Y-46820855D01*
X163652158Y-46837575D01*
X163466597Y-46967505D01*
X163299505Y-47134597D01*
X163163965Y-47328169D01*
X163163964Y-47328171D01*
X163064098Y-47542335D01*
X163064094Y-47542344D01*
X163002938Y-47770586D01*
X163002936Y-47770596D01*
X162982341Y-48005999D01*
X162982341Y-48006000D01*
X163002936Y-48241403D01*
X163002938Y-48241413D01*
X163064094Y-48469655D01*
X163064096Y-48469659D01*
X163064097Y-48469663D01*
X163144004Y-48641023D01*
X163163965Y-48683830D01*
X163163967Y-48683834D01*
X163235207Y-48785574D01*
X163299501Y-48877396D01*
X163299506Y-48877402D01*
X163466597Y-49044493D01*
X163466603Y-49044498D01*
X163652158Y-49174425D01*
X163695783Y-49229002D01*
X163702977Y-49298500D01*
X163671454Y-49360855D01*
X163652158Y-49377575D01*
X163466597Y-49507505D01*
X163299505Y-49674597D01*
X163163965Y-49868169D01*
X163163964Y-49868171D01*
X163064098Y-50082335D01*
X163064094Y-50082344D01*
X163002938Y-50310586D01*
X163002936Y-50310596D01*
X162982341Y-50545999D01*
X162982341Y-50546000D01*
X163002936Y-50781403D01*
X163002938Y-50781413D01*
X163064094Y-51009655D01*
X163064096Y-51009659D01*
X163064097Y-51009663D01*
X163116960Y-51123028D01*
X163163965Y-51223830D01*
X163163967Y-51223834D01*
X163263799Y-51366407D01*
X163299501Y-51417396D01*
X163299506Y-51417402D01*
X163466597Y-51584493D01*
X163466603Y-51584498D01*
X163652158Y-51714425D01*
X163695783Y-51769002D01*
X163702977Y-51838500D01*
X163671454Y-51900855D01*
X163652158Y-51917575D01*
X163466597Y-52047505D01*
X163299505Y-52214597D01*
X163163965Y-52408169D01*
X163163964Y-52408171D01*
X163064098Y-52622335D01*
X163064094Y-52622344D01*
X163002938Y-52850586D01*
X163002936Y-52850596D01*
X162982341Y-53085999D01*
X162982341Y-53086000D01*
X163002936Y-53321403D01*
X163002938Y-53321413D01*
X163064094Y-53549655D01*
X163064096Y-53549659D01*
X163064097Y-53549663D01*
X163140073Y-53712594D01*
X163163965Y-53763830D01*
X163163967Y-53763834D01*
X163242178Y-53875530D01*
X163299501Y-53957396D01*
X163299506Y-53957402D01*
X163466597Y-54124493D01*
X163466603Y-54124498D01*
X163652158Y-54254425D01*
X163695783Y-54309002D01*
X163702977Y-54378500D01*
X163671454Y-54440855D01*
X163652158Y-54457575D01*
X163466597Y-54587505D01*
X163299505Y-54754597D01*
X163163965Y-54948169D01*
X163163964Y-54948171D01*
X163064098Y-55162335D01*
X163064094Y-55162344D01*
X163002938Y-55390586D01*
X163002936Y-55390596D01*
X162982341Y-55625999D01*
X162982341Y-55626000D01*
X163002936Y-55861403D01*
X163002938Y-55861413D01*
X163064094Y-56089655D01*
X163064096Y-56089659D01*
X163064097Y-56089663D01*
X163132707Y-56236797D01*
X163163965Y-56303830D01*
X163163967Y-56303834D01*
X163272281Y-56458521D01*
X163299501Y-56497396D01*
X163299506Y-56497402D01*
X163466597Y-56664493D01*
X163466603Y-56664498D01*
X163652158Y-56794425D01*
X163695783Y-56849002D01*
X163702977Y-56918500D01*
X163671454Y-56980855D01*
X163652158Y-56997575D01*
X163466597Y-57127505D01*
X163299505Y-57294597D01*
X163163965Y-57488169D01*
X163163964Y-57488171D01*
X163064098Y-57702335D01*
X163064094Y-57702344D01*
X163002938Y-57930586D01*
X163002936Y-57930596D01*
X162982341Y-58165999D01*
X162982341Y-58166000D01*
X163002936Y-58401403D01*
X163002938Y-58401413D01*
X163064094Y-58629655D01*
X163064096Y-58629659D01*
X163064097Y-58629663D01*
X163068000Y-58638032D01*
X163163965Y-58843830D01*
X163163967Y-58843834D01*
X163272281Y-58998521D01*
X163299501Y-59037396D01*
X163299506Y-59037402D01*
X163466597Y-59204493D01*
X163466603Y-59204498D01*
X163652158Y-59334425D01*
X163695783Y-59389002D01*
X163702977Y-59458500D01*
X163671454Y-59520855D01*
X163652158Y-59537575D01*
X163466597Y-59667505D01*
X163299505Y-59834597D01*
X163163965Y-60028169D01*
X163163964Y-60028171D01*
X163064098Y-60242335D01*
X163064094Y-60242344D01*
X163002938Y-60470586D01*
X163002936Y-60470596D01*
X162982341Y-60705999D01*
X162982341Y-60706000D01*
X163002936Y-60941403D01*
X163002938Y-60941413D01*
X163064094Y-61169655D01*
X163064096Y-61169659D01*
X163064097Y-61169663D01*
X163068000Y-61178032D01*
X163163965Y-61383830D01*
X163163967Y-61383834D01*
X163272281Y-61538521D01*
X163299501Y-61577396D01*
X163299506Y-61577402D01*
X163466597Y-61744493D01*
X163466603Y-61744498D01*
X163652158Y-61874425D01*
X163695783Y-61929002D01*
X163702977Y-61998500D01*
X163671454Y-62060855D01*
X163652158Y-62077575D01*
X163466597Y-62207505D01*
X163299505Y-62374597D01*
X163163965Y-62568169D01*
X163163964Y-62568171D01*
X163064098Y-62782335D01*
X163064094Y-62782344D01*
X163002938Y-63010586D01*
X163002936Y-63010596D01*
X162982341Y-63245999D01*
X162982341Y-63246000D01*
X163002936Y-63481403D01*
X163002938Y-63481413D01*
X163064094Y-63709655D01*
X163064096Y-63709659D01*
X163064097Y-63709663D01*
X163068000Y-63718032D01*
X163163965Y-63923830D01*
X163163967Y-63923834D01*
X163272281Y-64078521D01*
X163299501Y-64117396D01*
X163299506Y-64117402D01*
X163466597Y-64284493D01*
X163466603Y-64284498D01*
X163652158Y-64414425D01*
X163695783Y-64469002D01*
X163702977Y-64538500D01*
X163671454Y-64600855D01*
X163652158Y-64617575D01*
X163466597Y-64747505D01*
X163299505Y-64914597D01*
X163163965Y-65108169D01*
X163163964Y-65108171D01*
X163064098Y-65322335D01*
X163064094Y-65322344D01*
X163002938Y-65550586D01*
X163002936Y-65550596D01*
X162982341Y-65785999D01*
X162982341Y-65786000D01*
X163002936Y-66021403D01*
X163002938Y-66021413D01*
X163064094Y-66249655D01*
X163064096Y-66249659D01*
X163064097Y-66249663D01*
X163144004Y-66421023D01*
X163163965Y-66463830D01*
X163163967Y-66463834D01*
X163172907Y-66476601D01*
X163299501Y-66657396D01*
X163299506Y-66657402D01*
X163466597Y-66824493D01*
X163466603Y-66824498D01*
X163652158Y-66954425D01*
X163695783Y-67009002D01*
X163702977Y-67078500D01*
X163671454Y-67140855D01*
X163652158Y-67157575D01*
X163466597Y-67287505D01*
X163299505Y-67454597D01*
X163163965Y-67648169D01*
X163163964Y-67648171D01*
X163064098Y-67862335D01*
X163064094Y-67862344D01*
X163002938Y-68090586D01*
X163002936Y-68090596D01*
X162982341Y-68325999D01*
X162982341Y-68326000D01*
X163002936Y-68561403D01*
X163002938Y-68561413D01*
X163064094Y-68789655D01*
X163064096Y-68789659D01*
X163064097Y-68789663D01*
X163097497Y-68861289D01*
X163163965Y-69003830D01*
X163163967Y-69003834D01*
X163255575Y-69134663D01*
X163299501Y-69197396D01*
X163299506Y-69197402D01*
X163466597Y-69364493D01*
X163466603Y-69364498D01*
X163652158Y-69494425D01*
X163695783Y-69549002D01*
X163702977Y-69618500D01*
X163671454Y-69680855D01*
X163652158Y-69697575D01*
X163466597Y-69827505D01*
X163299505Y-69994597D01*
X163163965Y-70188169D01*
X163163964Y-70188171D01*
X163089896Y-70347011D01*
X163066527Y-70397127D01*
X163064098Y-70402335D01*
X163064094Y-70402344D01*
X163002938Y-70630586D01*
X163002936Y-70630596D01*
X162982341Y-70865999D01*
X162982341Y-70866000D01*
X163002936Y-71101403D01*
X163002938Y-71101413D01*
X163064094Y-71329655D01*
X163064096Y-71329659D01*
X163064097Y-71329663D01*
X163146759Y-71506932D01*
X163163965Y-71543830D01*
X163163967Y-71543834D01*
X163299501Y-71737395D01*
X163299506Y-71737402D01*
X163466597Y-71904493D01*
X163466603Y-71904498D01*
X163652158Y-72034425D01*
X163695783Y-72089002D01*
X163702977Y-72158500D01*
X163671454Y-72220855D01*
X163652158Y-72237575D01*
X163466597Y-72367505D01*
X163299505Y-72534597D01*
X163163965Y-72728169D01*
X163163964Y-72728171D01*
X163064098Y-72942335D01*
X163064094Y-72942344D01*
X163002938Y-73170586D01*
X163002936Y-73170596D01*
X162982341Y-73405999D01*
X162982341Y-73406000D01*
X163002936Y-73641403D01*
X163002938Y-73641413D01*
X163064094Y-73869655D01*
X163064096Y-73869659D01*
X163064097Y-73869663D01*
X163144004Y-74041023D01*
X163163965Y-74083830D01*
X163163967Y-74083834D01*
X163268933Y-74233740D01*
X163299501Y-74277396D01*
X163299506Y-74277402D01*
X163466597Y-74444493D01*
X163466603Y-74444498D01*
X163652158Y-74574425D01*
X163695783Y-74629002D01*
X163702977Y-74698500D01*
X163671454Y-74760855D01*
X163652158Y-74777575D01*
X163466597Y-74907505D01*
X163299505Y-75074597D01*
X163163965Y-75268169D01*
X163163964Y-75268171D01*
X163064098Y-75482335D01*
X163064094Y-75482344D01*
X163002938Y-75710586D01*
X163002936Y-75710596D01*
X162982341Y-75945999D01*
X162982341Y-75946000D01*
X163002936Y-76181403D01*
X163002938Y-76181413D01*
X163064094Y-76409655D01*
X163064096Y-76409659D01*
X163064097Y-76409663D01*
X163068000Y-76418032D01*
X163163965Y-76623830D01*
X163163967Y-76623834D01*
X163272281Y-76778521D01*
X163299501Y-76817396D01*
X163299506Y-76817402D01*
X163466597Y-76984493D01*
X163466603Y-76984498D01*
X163652158Y-77114425D01*
X163695783Y-77169002D01*
X163702977Y-77238500D01*
X163671454Y-77300855D01*
X163652158Y-77317575D01*
X163466597Y-77447505D01*
X163299505Y-77614597D01*
X163163965Y-77808169D01*
X163163964Y-77808171D01*
X163064098Y-78022335D01*
X163064094Y-78022344D01*
X163002938Y-78250586D01*
X163002936Y-78250596D01*
X162982341Y-78485999D01*
X162982341Y-78486000D01*
X163002936Y-78721403D01*
X163002938Y-78721413D01*
X163064094Y-78949655D01*
X163064096Y-78949659D01*
X163064097Y-78949663D01*
X163068000Y-78958032D01*
X163163965Y-79163830D01*
X163163967Y-79163834D01*
X163272281Y-79318521D01*
X163299501Y-79357396D01*
X163299506Y-79357402D01*
X163466597Y-79524493D01*
X163466603Y-79524498D01*
X163652158Y-79654425D01*
X163695783Y-79709002D01*
X163702977Y-79778500D01*
X163671454Y-79840855D01*
X163652158Y-79857575D01*
X163466597Y-79987505D01*
X163299505Y-80154597D01*
X163163965Y-80348169D01*
X163163964Y-80348171D01*
X163064098Y-80562335D01*
X163064094Y-80562344D01*
X163002938Y-80790586D01*
X163002936Y-80790596D01*
X162982341Y-81025999D01*
X162982341Y-81026000D01*
X159500500Y-81026000D01*
X159500500Y-37490401D01*
X172430532Y-37490401D01*
X172450364Y-37717086D01*
X172450366Y-37717097D01*
X172509258Y-37936888D01*
X172509261Y-37936897D01*
X172605431Y-38143132D01*
X172605432Y-38143134D01*
X172735954Y-38329541D01*
X172896858Y-38490445D01*
X172896861Y-38490447D01*
X173083266Y-38620968D01*
X173289504Y-38717139D01*
X173509308Y-38776035D01*
X173671230Y-38790201D01*
X173735998Y-38795868D01*
X173736000Y-38795868D01*
X173736002Y-38795868D01*
X173792673Y-38790909D01*
X173962692Y-38776035D01*
X174182496Y-38717139D01*
X174388734Y-38620968D01*
X174575139Y-38490447D01*
X174736047Y-38329539D01*
X174866568Y-38143134D01*
X174893618Y-38085124D01*
X174939790Y-38032685D01*
X175006983Y-38013533D01*
X175073865Y-38033748D01*
X175118382Y-38085125D01*
X175145429Y-38143128D01*
X175145432Y-38143134D01*
X175275954Y-38329541D01*
X175436858Y-38490445D01*
X175436861Y-38490447D01*
X175623266Y-38620968D01*
X175829504Y-38717139D01*
X176049308Y-38776035D01*
X176211230Y-38790201D01*
X176275998Y-38795868D01*
X176276000Y-38795868D01*
X176276002Y-38795868D01*
X176332673Y-38790909D01*
X176502692Y-38776035D01*
X176722496Y-38717139D01*
X176928734Y-38620968D01*
X177115139Y-38490447D01*
X177276047Y-38329539D01*
X177406568Y-38143134D01*
X177433895Y-38084529D01*
X177480064Y-38032095D01*
X177547257Y-38012942D01*
X177614139Y-38033157D01*
X177658657Y-38084533D01*
X177685865Y-38142882D01*
X177816342Y-38329220D01*
X177977179Y-38490057D01*
X178163517Y-38620534D01*
X178369673Y-38716665D01*
X178369682Y-38716669D01*
X178565999Y-38769272D01*
X178566000Y-38769271D01*
X178566000Y-37806086D01*
X178577955Y-37818041D01*
X178690852Y-37875565D01*
X178784519Y-37890400D01*
X178847481Y-37890400D01*
X178941148Y-37875565D01*
X179054045Y-37818041D01*
X179066000Y-37806086D01*
X179066000Y-38769272D01*
X179262317Y-38716669D01*
X179262326Y-38716665D01*
X179468482Y-38620534D01*
X179654820Y-38490057D01*
X179815657Y-38329220D01*
X179946132Y-38142884D01*
X179973341Y-38084534D01*
X180019513Y-38032095D01*
X180086707Y-38012942D01*
X180153588Y-38033157D01*
X180198106Y-38084533D01*
X180225431Y-38143132D01*
X180225432Y-38143134D01*
X180355954Y-38329541D01*
X180516858Y-38490445D01*
X180516861Y-38490447D01*
X180703266Y-38620968D01*
X180909504Y-38717139D01*
X181129308Y-38776035D01*
X181291230Y-38790201D01*
X181355998Y-38795868D01*
X181356000Y-38795868D01*
X181356002Y-38795868D01*
X181412673Y-38790909D01*
X181582692Y-38776035D01*
X181802496Y-38717139D01*
X182008734Y-38620968D01*
X182195139Y-38490447D01*
X182356047Y-38329539D01*
X182486568Y-38143134D01*
X182513618Y-38085124D01*
X182559790Y-38032685D01*
X182626983Y-38013533D01*
X182693865Y-38033748D01*
X182738382Y-38085125D01*
X182765429Y-38143128D01*
X182765432Y-38143134D01*
X182895954Y-38329541D01*
X183056857Y-38490444D01*
X183056860Y-38490446D01*
X183056861Y-38490447D01*
X183142623Y-38550497D01*
X183186248Y-38605073D01*
X183195500Y-38652072D01*
X183195500Y-39354235D01*
X183175815Y-39421274D01*
X183123011Y-39467029D01*
X183114834Y-39470417D01*
X182978669Y-39521203D01*
X182978664Y-39521206D01*
X182863455Y-39607452D01*
X182863452Y-39607455D01*
X182777206Y-39722664D01*
X182777202Y-39722671D01*
X182726908Y-39857517D01*
X182720501Y-39917116D01*
X182720501Y-39917123D01*
X182720500Y-39917135D01*
X182720500Y-41362870D01*
X182720501Y-41362876D01*
X182726908Y-41422483D01*
X182777202Y-41557328D01*
X182777206Y-41557335D01*
X182863452Y-41672544D01*
X182863455Y-41672547D01*
X182978664Y-41758793D01*
X182978671Y-41758797D01*
X183113517Y-41809091D01*
X183113516Y-41809091D01*
X183120444Y-41809835D01*
X183173127Y-41815500D01*
X184618872Y-41815499D01*
X184678483Y-41809091D01*
X184813331Y-41758796D01*
X184928546Y-41672546D01*
X185014796Y-41557331D01*
X185065091Y-41422483D01*
X185071500Y-41362873D01*
X185071499Y-39917128D01*
X185065091Y-39857517D01*
X185014796Y-39722669D01*
X185014795Y-39722668D01*
X185014793Y-39722664D01*
X184928547Y-39607455D01*
X184928544Y-39607452D01*
X184813335Y-39521206D01*
X184813330Y-39521203D01*
X184677166Y-39470417D01*
X184621233Y-39428545D01*
X184596816Y-39363081D01*
X184596500Y-39354235D01*
X184596500Y-38652072D01*
X184616185Y-38585033D01*
X184649375Y-38550498D01*
X184735139Y-38490447D01*
X184896047Y-38329539D01*
X185026568Y-38143134D01*
X185053618Y-38085124D01*
X185099790Y-38032685D01*
X185166983Y-38013533D01*
X185233865Y-38033748D01*
X185278382Y-38085125D01*
X185305429Y-38143128D01*
X185305432Y-38143134D01*
X185435954Y-38329541D01*
X185596858Y-38490445D01*
X185596861Y-38490447D01*
X185783266Y-38620968D01*
X185989504Y-38717139D01*
X186209308Y-38776035D01*
X186371230Y-38790201D01*
X186435998Y-38795868D01*
X186436000Y-38795868D01*
X186436002Y-38795868D01*
X186492673Y-38790909D01*
X186662692Y-38776035D01*
X186882496Y-38717139D01*
X187088734Y-38620968D01*
X187275139Y-38490447D01*
X187436047Y-38329539D01*
X187566568Y-38143134D01*
X187593618Y-38085124D01*
X187639790Y-38032685D01*
X187706983Y-38013533D01*
X187773865Y-38033748D01*
X187818382Y-38085125D01*
X187845429Y-38143128D01*
X187845432Y-38143134D01*
X187975954Y-38329541D01*
X188136858Y-38490445D01*
X188136861Y-38490447D01*
X188323266Y-38620968D01*
X188529504Y-38717139D01*
X188749308Y-38776035D01*
X188911230Y-38790201D01*
X188975998Y-38795868D01*
X188976000Y-38795868D01*
X188976002Y-38795868D01*
X189032673Y-38790909D01*
X189202692Y-38776035D01*
X189422496Y-38717139D01*
X189628734Y-38620968D01*
X189815139Y-38490447D01*
X189976047Y-38329539D01*
X190106568Y-38143134D01*
X190133618Y-38085124D01*
X190179790Y-38032685D01*
X190246983Y-38013533D01*
X190313865Y-38033748D01*
X190358382Y-38085125D01*
X190385429Y-38143128D01*
X190385432Y-38143134D01*
X190515954Y-38329541D01*
X190676858Y-38490445D01*
X190676861Y-38490447D01*
X190863266Y-38620968D01*
X191069504Y-38717139D01*
X191289308Y-38776035D01*
X191451230Y-38790201D01*
X191515998Y-38795868D01*
X191516000Y-38795868D01*
X191516002Y-38795868D01*
X191572673Y-38790909D01*
X191742692Y-38776035D01*
X191962496Y-38717139D01*
X192168734Y-38620968D01*
X192355139Y-38490447D01*
X192516047Y-38329539D01*
X192646568Y-38143134D01*
X192673618Y-38085124D01*
X192719790Y-38032685D01*
X192786983Y-38013533D01*
X192853865Y-38033748D01*
X192898382Y-38085125D01*
X192925429Y-38143128D01*
X192925432Y-38143134D01*
X193055954Y-38329541D01*
X193216858Y-38490445D01*
X193216861Y-38490447D01*
X193403266Y-38620968D01*
X193609504Y-38717139D01*
X193829308Y-38776035D01*
X193991230Y-38790201D01*
X194055998Y-38795868D01*
X194056000Y-38795868D01*
X194056002Y-38795868D01*
X194112673Y-38790909D01*
X194282692Y-38776035D01*
X194502496Y-38717139D01*
X194708734Y-38620968D01*
X194895139Y-38490447D01*
X195056047Y-38329539D01*
X195186568Y-38143134D01*
X195213618Y-38085124D01*
X195259790Y-38032685D01*
X195326983Y-38013533D01*
X195393865Y-38033748D01*
X195438382Y-38085125D01*
X195465429Y-38143128D01*
X195465432Y-38143134D01*
X195595954Y-38329541D01*
X195756858Y-38490445D01*
X195756861Y-38490447D01*
X195943266Y-38620968D01*
X196149504Y-38717139D01*
X196369308Y-38776035D01*
X196531230Y-38790201D01*
X196595998Y-38795868D01*
X196596000Y-38795868D01*
X196596002Y-38795868D01*
X196652673Y-38790909D01*
X196822692Y-38776035D01*
X197042496Y-38717139D01*
X197248734Y-38620968D01*
X197435139Y-38490447D01*
X197596047Y-38329539D01*
X197726568Y-38143134D01*
X197753618Y-38085124D01*
X197799790Y-38032685D01*
X197866983Y-38013533D01*
X197933865Y-38033748D01*
X197978382Y-38085125D01*
X198005429Y-38143128D01*
X198005432Y-38143134D01*
X198135954Y-38329541D01*
X198296858Y-38490445D01*
X198296861Y-38490447D01*
X198483266Y-38620968D01*
X198689504Y-38717139D01*
X198909308Y-38776035D01*
X199071230Y-38790201D01*
X199135998Y-38795868D01*
X199136000Y-38795868D01*
X199136002Y-38795868D01*
X199192673Y-38790909D01*
X199362692Y-38776035D01*
X199582496Y-38717139D01*
X199788734Y-38620968D01*
X199975139Y-38490447D01*
X200136047Y-38329539D01*
X200266568Y-38143134D01*
X200293618Y-38085124D01*
X200339790Y-38032685D01*
X200406983Y-38013533D01*
X200473865Y-38033748D01*
X200518382Y-38085125D01*
X200545429Y-38143128D01*
X200545432Y-38143134D01*
X200675954Y-38329541D01*
X200836858Y-38490445D01*
X200836861Y-38490447D01*
X201023266Y-38620968D01*
X201229504Y-38717139D01*
X201449308Y-38776035D01*
X201611230Y-38790201D01*
X201675998Y-38795868D01*
X201676000Y-38795868D01*
X201676002Y-38795868D01*
X201732673Y-38790909D01*
X201902692Y-38776035D01*
X202122496Y-38717139D01*
X202328734Y-38620968D01*
X202515139Y-38490447D01*
X202676047Y-38329539D01*
X202806568Y-38143134D01*
X202833618Y-38085124D01*
X202879790Y-38032685D01*
X202946983Y-38013533D01*
X203013865Y-38033748D01*
X203058382Y-38085125D01*
X203085429Y-38143128D01*
X203085432Y-38143134D01*
X203215954Y-38329541D01*
X203376858Y-38490445D01*
X203376861Y-38490447D01*
X203563266Y-38620968D01*
X203769504Y-38717139D01*
X203989308Y-38776035D01*
X204151230Y-38790201D01*
X204215998Y-38795868D01*
X204216000Y-38795868D01*
X204216002Y-38795868D01*
X204272673Y-38790909D01*
X204442692Y-38776035D01*
X204662496Y-38717139D01*
X204868734Y-38620968D01*
X205055139Y-38490447D01*
X205216047Y-38329539D01*
X205346568Y-38143134D01*
X205373618Y-38085124D01*
X205419790Y-38032685D01*
X205486983Y-38013533D01*
X205553865Y-38033748D01*
X205598382Y-38085125D01*
X205625429Y-38143128D01*
X205625432Y-38143134D01*
X205755954Y-38329541D01*
X205916858Y-38490445D01*
X205916861Y-38490447D01*
X206103266Y-38620968D01*
X206309504Y-38717139D01*
X206529308Y-38776035D01*
X206691230Y-38790201D01*
X206755998Y-38795868D01*
X206756000Y-38795868D01*
X206756002Y-38795868D01*
X206812673Y-38790909D01*
X206982692Y-38776035D01*
X207202496Y-38717139D01*
X207408734Y-38620968D01*
X207595139Y-38490447D01*
X207756047Y-38329539D01*
X207886568Y-38143134D01*
X207913618Y-38085124D01*
X207959790Y-38032685D01*
X208026983Y-38013533D01*
X208093865Y-38033748D01*
X208138382Y-38085125D01*
X208165429Y-38143128D01*
X208165432Y-38143134D01*
X208295954Y-38329541D01*
X208456858Y-38490445D01*
X208456861Y-38490447D01*
X208643266Y-38620968D01*
X208849504Y-38717139D01*
X209069308Y-38776035D01*
X209231230Y-38790201D01*
X209295998Y-38795868D01*
X209296000Y-38795868D01*
X209296002Y-38795868D01*
X209352673Y-38790909D01*
X209522692Y-38776035D01*
X209742496Y-38717139D01*
X209948734Y-38620968D01*
X210135139Y-38490447D01*
X210296047Y-38329539D01*
X210426568Y-38143134D01*
X210453618Y-38085124D01*
X210499790Y-38032685D01*
X210566983Y-38013533D01*
X210633865Y-38033748D01*
X210678382Y-38085125D01*
X210705429Y-38143128D01*
X210705432Y-38143134D01*
X210835954Y-38329541D01*
X210996858Y-38490445D01*
X210996861Y-38490447D01*
X211183266Y-38620968D01*
X211389504Y-38717139D01*
X211609308Y-38776035D01*
X211771230Y-38790201D01*
X211835998Y-38795868D01*
X211836000Y-38795868D01*
X211836002Y-38795868D01*
X211892673Y-38790909D01*
X212062692Y-38776035D01*
X212282496Y-38717139D01*
X212488734Y-38620968D01*
X212675139Y-38490447D01*
X212836047Y-38329539D01*
X212966568Y-38143134D01*
X212993618Y-38085124D01*
X213039790Y-38032685D01*
X213106983Y-38013533D01*
X213173865Y-38033748D01*
X213218382Y-38085125D01*
X213245429Y-38143128D01*
X213245432Y-38143134D01*
X213375954Y-38329541D01*
X213536858Y-38490445D01*
X213536861Y-38490447D01*
X213723266Y-38620968D01*
X213929504Y-38717139D01*
X214149308Y-38776035D01*
X214311230Y-38790201D01*
X214375998Y-38795868D01*
X214376000Y-38795868D01*
X214376002Y-38795868D01*
X214432673Y-38790909D01*
X214602692Y-38776035D01*
X214822496Y-38717139D01*
X215028734Y-38620968D01*
X215215139Y-38490447D01*
X215376047Y-38329539D01*
X215506568Y-38143134D01*
X215533618Y-38085124D01*
X215579790Y-38032685D01*
X215646983Y-38013533D01*
X215713865Y-38033748D01*
X215758382Y-38085125D01*
X215785429Y-38143128D01*
X215785432Y-38143134D01*
X215915954Y-38329541D01*
X216076858Y-38490445D01*
X216076861Y-38490447D01*
X216263266Y-38620968D01*
X216469504Y-38717139D01*
X216689308Y-38776035D01*
X216851230Y-38790201D01*
X216915998Y-38795868D01*
X216916000Y-38795868D01*
X216916002Y-38795868D01*
X216972673Y-38790909D01*
X217142692Y-38776035D01*
X217362496Y-38717139D01*
X217568734Y-38620968D01*
X217755139Y-38490447D01*
X217916047Y-38329539D01*
X218046568Y-38143134D01*
X218073618Y-38085124D01*
X218119790Y-38032685D01*
X218186983Y-38013533D01*
X218253865Y-38033748D01*
X218298382Y-38085125D01*
X218325429Y-38143128D01*
X218325432Y-38143134D01*
X218455954Y-38329541D01*
X218616858Y-38490445D01*
X218616861Y-38490447D01*
X218803266Y-38620968D01*
X219009504Y-38717139D01*
X219229308Y-38776035D01*
X219391230Y-38790201D01*
X219455998Y-38795868D01*
X219456000Y-38795868D01*
X219456002Y-38795868D01*
X219512673Y-38790909D01*
X219682692Y-38776035D01*
X219902496Y-38717139D01*
X220108734Y-38620968D01*
X220295139Y-38490447D01*
X220456047Y-38329539D01*
X220586568Y-38143134D01*
X220613895Y-38084529D01*
X220660064Y-38032095D01*
X220727257Y-38012942D01*
X220794139Y-38033157D01*
X220838657Y-38084533D01*
X220865865Y-38142882D01*
X220996342Y-38329220D01*
X221157179Y-38490057D01*
X221343517Y-38620534D01*
X221549673Y-38716665D01*
X221549682Y-38716669D01*
X221745999Y-38769272D01*
X221746000Y-38769271D01*
X221746000Y-37806086D01*
X221757955Y-37818041D01*
X221870852Y-37875565D01*
X221964519Y-37890400D01*
X222027481Y-37890400D01*
X222121148Y-37875565D01*
X222234045Y-37818041D01*
X222246000Y-37806086D01*
X222246000Y-38769272D01*
X222442317Y-38716669D01*
X222442326Y-38716665D01*
X222648482Y-38620534D01*
X222834820Y-38490057D01*
X222995657Y-38329220D01*
X223126134Y-38142882D01*
X223222265Y-37936726D01*
X223222269Y-37936717D01*
X223274872Y-37740400D01*
X222311686Y-37740400D01*
X222323641Y-37728445D01*
X222381165Y-37615548D01*
X222400986Y-37490400D01*
X222381165Y-37365252D01*
X222323641Y-37252355D01*
X222311686Y-37240400D01*
X223274872Y-37240400D01*
X223274872Y-37240399D01*
X223222269Y-37044082D01*
X223222265Y-37044073D01*
X223126134Y-36837917D01*
X222995657Y-36651579D01*
X222834820Y-36490742D01*
X222648482Y-36360265D01*
X222442328Y-36264134D01*
X222246000Y-36211527D01*
X222246000Y-37174714D01*
X222234045Y-37162759D01*
X222121148Y-37105235D01*
X222027481Y-37090400D01*
X221964519Y-37090400D01*
X221870852Y-37105235D01*
X221757955Y-37162759D01*
X221746000Y-37174714D01*
X221746000Y-36211527D01*
X221549671Y-36264134D01*
X221343517Y-36360265D01*
X221157179Y-36490742D01*
X220996342Y-36651579D01*
X220865867Y-36837915D01*
X220838657Y-36896267D01*
X220792484Y-36948706D01*
X220725290Y-36967857D01*
X220658409Y-36947641D01*
X220613893Y-36896265D01*
X220586685Y-36837918D01*
X220586568Y-36837666D01*
X220456047Y-36651261D01*
X220456045Y-36651258D01*
X220295141Y-36490354D01*
X220108734Y-36359832D01*
X220108732Y-36359831D01*
X219902497Y-36263661D01*
X219902488Y-36263658D01*
X219682697Y-36204766D01*
X219682693Y-36204765D01*
X219682692Y-36204765D01*
X219682691Y-36204764D01*
X219682686Y-36204764D01*
X219456002Y-36184932D01*
X219455998Y-36184932D01*
X219229313Y-36204764D01*
X219229302Y-36204766D01*
X219009511Y-36263658D01*
X219009502Y-36263661D01*
X218803267Y-36359831D01*
X218803265Y-36359832D01*
X218616858Y-36490354D01*
X218455954Y-36651258D01*
X218325432Y-36837665D01*
X218325431Y-36837667D01*
X218298382Y-36895675D01*
X218252209Y-36948114D01*
X218185016Y-36967266D01*
X218118135Y-36947050D01*
X218073618Y-36895675D01*
X218046686Y-36837920D01*
X218046568Y-36837666D01*
X217916047Y-36651261D01*
X217916045Y-36651258D01*
X217755141Y-36490354D01*
X217568734Y-36359832D01*
X217568732Y-36359831D01*
X217362497Y-36263661D01*
X217362488Y-36263658D01*
X217142697Y-36204766D01*
X217142693Y-36204765D01*
X217142692Y-36204765D01*
X217142691Y-36204764D01*
X217142686Y-36204764D01*
X216916002Y-36184932D01*
X216915998Y-36184932D01*
X216689313Y-36204764D01*
X216689302Y-36204766D01*
X216469511Y-36263658D01*
X216469502Y-36263661D01*
X216263267Y-36359831D01*
X216263265Y-36359832D01*
X216076858Y-36490354D01*
X215915954Y-36651258D01*
X215785432Y-36837665D01*
X215785431Y-36837667D01*
X215758382Y-36895675D01*
X215712209Y-36948114D01*
X215645016Y-36967266D01*
X215578135Y-36947050D01*
X215533618Y-36895675D01*
X215506686Y-36837920D01*
X215506568Y-36837666D01*
X215376047Y-36651261D01*
X215376045Y-36651258D01*
X215215141Y-36490354D01*
X215028734Y-36359832D01*
X215028732Y-36359831D01*
X214822497Y-36263661D01*
X214822488Y-36263658D01*
X214602697Y-36204766D01*
X214602693Y-36204765D01*
X214602692Y-36204765D01*
X214602691Y-36204764D01*
X214602686Y-36204764D01*
X214376002Y-36184932D01*
X214375998Y-36184932D01*
X214149313Y-36204764D01*
X214149302Y-36204766D01*
X213929511Y-36263658D01*
X213929502Y-36263661D01*
X213723267Y-36359831D01*
X213723265Y-36359832D01*
X213536858Y-36490354D01*
X213375954Y-36651258D01*
X213245432Y-36837665D01*
X213245431Y-36837667D01*
X213218382Y-36895675D01*
X213172209Y-36948114D01*
X213105016Y-36967266D01*
X213038135Y-36947050D01*
X212993618Y-36895675D01*
X212966686Y-36837920D01*
X212966568Y-36837666D01*
X212836047Y-36651261D01*
X212836045Y-36651258D01*
X212675141Y-36490354D01*
X212488734Y-36359832D01*
X212488732Y-36359831D01*
X212282497Y-36263661D01*
X212282488Y-36263658D01*
X212062697Y-36204766D01*
X212062693Y-36204765D01*
X212062692Y-36204765D01*
X212062691Y-36204764D01*
X212062686Y-36204764D01*
X211836002Y-36184932D01*
X211835998Y-36184932D01*
X211609313Y-36204764D01*
X211609302Y-36204766D01*
X211389511Y-36263658D01*
X211389502Y-36263661D01*
X211183267Y-36359831D01*
X211183265Y-36359832D01*
X210996858Y-36490354D01*
X210835954Y-36651258D01*
X210705432Y-36837665D01*
X210705431Y-36837667D01*
X210678382Y-36895675D01*
X210632209Y-36948114D01*
X210565016Y-36967266D01*
X210498135Y-36947050D01*
X210453618Y-36895675D01*
X210426686Y-36837920D01*
X210426568Y-36837666D01*
X210296047Y-36651261D01*
X210296045Y-36651258D01*
X210135141Y-36490354D01*
X209948734Y-36359832D01*
X209948732Y-36359831D01*
X209742497Y-36263661D01*
X209742488Y-36263658D01*
X209522697Y-36204766D01*
X209522693Y-36204765D01*
X209522692Y-36204765D01*
X209522691Y-36204764D01*
X209522686Y-36204764D01*
X209296002Y-36184932D01*
X209295998Y-36184932D01*
X209069313Y-36204764D01*
X209069302Y-36204766D01*
X208849511Y-36263658D01*
X208849502Y-36263661D01*
X208643267Y-36359831D01*
X208643265Y-36359832D01*
X208456858Y-36490354D01*
X208295954Y-36651258D01*
X208165432Y-36837665D01*
X208165431Y-36837667D01*
X208138382Y-36895675D01*
X208092209Y-36948114D01*
X208025016Y-36967266D01*
X207958135Y-36947050D01*
X207913618Y-36895675D01*
X207886686Y-36837920D01*
X207886568Y-36837666D01*
X207756047Y-36651261D01*
X207756045Y-36651258D01*
X207595141Y-36490354D01*
X207408734Y-36359832D01*
X207408732Y-36359831D01*
X207202497Y-36263661D01*
X207202488Y-36263658D01*
X206982697Y-36204766D01*
X206982693Y-36204765D01*
X206982692Y-36204765D01*
X206982691Y-36204764D01*
X206982686Y-36204764D01*
X206756002Y-36184932D01*
X206755998Y-36184932D01*
X206529313Y-36204764D01*
X206529302Y-36204766D01*
X206309511Y-36263658D01*
X206309502Y-36263661D01*
X206103267Y-36359831D01*
X206103265Y-36359832D01*
X205916858Y-36490354D01*
X205755954Y-36651258D01*
X205625432Y-36837665D01*
X205625431Y-36837667D01*
X205598382Y-36895675D01*
X205552209Y-36948114D01*
X205485016Y-36967266D01*
X205418135Y-36947050D01*
X205373618Y-36895675D01*
X205346686Y-36837920D01*
X205346568Y-36837666D01*
X205216047Y-36651261D01*
X205216045Y-36651258D01*
X205055141Y-36490354D01*
X204868734Y-36359832D01*
X204868732Y-36359831D01*
X204662497Y-36263661D01*
X204662488Y-36263658D01*
X204442697Y-36204766D01*
X204442693Y-36204765D01*
X204442692Y-36204765D01*
X204442691Y-36204764D01*
X204442686Y-36204764D01*
X204216002Y-36184932D01*
X204215998Y-36184932D01*
X203989313Y-36204764D01*
X203989302Y-36204766D01*
X203769511Y-36263658D01*
X203769502Y-36263661D01*
X203563267Y-36359831D01*
X203563265Y-36359832D01*
X203376858Y-36490354D01*
X203215954Y-36651258D01*
X203085432Y-36837665D01*
X203085431Y-36837667D01*
X203058382Y-36895675D01*
X203012209Y-36948114D01*
X202945016Y-36967266D01*
X202878135Y-36947050D01*
X202833618Y-36895675D01*
X202806686Y-36837920D01*
X202806568Y-36837666D01*
X202676047Y-36651261D01*
X202676045Y-36651258D01*
X202515141Y-36490354D01*
X202328734Y-36359832D01*
X202328732Y-36359831D01*
X202122497Y-36263661D01*
X202122488Y-36263658D01*
X201902697Y-36204766D01*
X201902693Y-36204765D01*
X201902692Y-36204765D01*
X201902691Y-36204764D01*
X201902686Y-36204764D01*
X201676002Y-36184932D01*
X201675998Y-36184932D01*
X201449313Y-36204764D01*
X201449302Y-36204766D01*
X201229511Y-36263658D01*
X201229502Y-36263661D01*
X201023267Y-36359831D01*
X201023265Y-36359832D01*
X200836858Y-36490354D01*
X200675954Y-36651258D01*
X200545432Y-36837665D01*
X200545431Y-36837667D01*
X200518382Y-36895675D01*
X200472209Y-36948114D01*
X200405016Y-36967266D01*
X200338135Y-36947050D01*
X200293618Y-36895675D01*
X200266686Y-36837920D01*
X200266568Y-36837666D01*
X200136047Y-36651261D01*
X200136045Y-36651258D01*
X199975141Y-36490354D01*
X199788734Y-36359832D01*
X199788732Y-36359831D01*
X199582497Y-36263661D01*
X199582488Y-36263658D01*
X199362697Y-36204766D01*
X199362693Y-36204765D01*
X199362692Y-36204765D01*
X199362691Y-36204764D01*
X199362686Y-36204764D01*
X199136002Y-36184932D01*
X199135998Y-36184932D01*
X198909313Y-36204764D01*
X198909302Y-36204766D01*
X198689511Y-36263658D01*
X198689502Y-36263661D01*
X198483267Y-36359831D01*
X198483265Y-36359832D01*
X198296858Y-36490354D01*
X198135954Y-36651258D01*
X198005432Y-36837665D01*
X198005431Y-36837667D01*
X197978382Y-36895675D01*
X197932209Y-36948114D01*
X197865016Y-36967266D01*
X197798135Y-36947050D01*
X197753618Y-36895675D01*
X197726686Y-36837920D01*
X197726568Y-36837666D01*
X197596047Y-36651261D01*
X197596045Y-36651258D01*
X197435141Y-36490354D01*
X197248734Y-36359832D01*
X197248732Y-36359831D01*
X197042497Y-36263661D01*
X197042488Y-36263658D01*
X196822697Y-36204766D01*
X196822693Y-36204765D01*
X196822692Y-36204765D01*
X196822691Y-36204764D01*
X196822686Y-36204764D01*
X196596002Y-36184932D01*
X196595998Y-36184932D01*
X196369313Y-36204764D01*
X196369302Y-36204766D01*
X196149511Y-36263658D01*
X196149502Y-36263661D01*
X195943267Y-36359831D01*
X195943265Y-36359832D01*
X195756858Y-36490354D01*
X195595954Y-36651258D01*
X195465432Y-36837665D01*
X195465431Y-36837667D01*
X195438382Y-36895675D01*
X195392209Y-36948114D01*
X195325016Y-36967266D01*
X195258135Y-36947050D01*
X195213618Y-36895675D01*
X195186686Y-36837920D01*
X195186568Y-36837666D01*
X195056047Y-36651261D01*
X195056045Y-36651258D01*
X194895141Y-36490354D01*
X194708734Y-36359832D01*
X194708732Y-36359831D01*
X194502497Y-36263661D01*
X194502488Y-36263658D01*
X194282697Y-36204766D01*
X194282693Y-36204765D01*
X194282692Y-36204765D01*
X194282691Y-36204764D01*
X194282686Y-36204764D01*
X194056002Y-36184932D01*
X194055998Y-36184932D01*
X193829313Y-36204764D01*
X193829302Y-36204766D01*
X193609511Y-36263658D01*
X193609502Y-36263661D01*
X193403267Y-36359831D01*
X193403265Y-36359832D01*
X193216858Y-36490354D01*
X193055954Y-36651258D01*
X192925432Y-36837665D01*
X192925431Y-36837667D01*
X192898382Y-36895675D01*
X192852209Y-36948114D01*
X192785016Y-36967266D01*
X192718135Y-36947050D01*
X192673618Y-36895675D01*
X192646686Y-36837920D01*
X192646568Y-36837666D01*
X192516047Y-36651261D01*
X192516045Y-36651258D01*
X192355141Y-36490354D01*
X192168734Y-36359832D01*
X192168732Y-36359831D01*
X191962497Y-36263661D01*
X191962488Y-36263658D01*
X191742697Y-36204766D01*
X191742693Y-36204765D01*
X191742692Y-36204765D01*
X191742691Y-36204764D01*
X191742686Y-36204764D01*
X191516002Y-36184932D01*
X191515998Y-36184932D01*
X191289313Y-36204764D01*
X191289302Y-36204766D01*
X191069511Y-36263658D01*
X191069502Y-36263661D01*
X190863267Y-36359831D01*
X190863265Y-36359832D01*
X190676858Y-36490354D01*
X190515954Y-36651258D01*
X190385432Y-36837665D01*
X190385431Y-36837667D01*
X190358382Y-36895675D01*
X190312209Y-36948114D01*
X190245016Y-36967266D01*
X190178135Y-36947050D01*
X190133618Y-36895675D01*
X190106686Y-36837920D01*
X190106568Y-36837666D01*
X189976047Y-36651261D01*
X189976045Y-36651258D01*
X189815141Y-36490354D01*
X189628734Y-36359832D01*
X189628732Y-36359831D01*
X189422497Y-36263661D01*
X189422488Y-36263658D01*
X189202697Y-36204766D01*
X189202693Y-36204765D01*
X189202692Y-36204765D01*
X189202691Y-36204764D01*
X189202686Y-36204764D01*
X188976002Y-36184932D01*
X188975998Y-36184932D01*
X188749313Y-36204764D01*
X188749302Y-36204766D01*
X188529511Y-36263658D01*
X188529502Y-36263661D01*
X188323267Y-36359831D01*
X188323265Y-36359832D01*
X188136858Y-36490354D01*
X187975954Y-36651258D01*
X187845432Y-36837665D01*
X187845431Y-36837667D01*
X187818382Y-36895675D01*
X187772209Y-36948114D01*
X187705016Y-36967266D01*
X187638135Y-36947050D01*
X187593618Y-36895675D01*
X187566686Y-36837920D01*
X187566568Y-36837666D01*
X187436047Y-36651261D01*
X187436045Y-36651258D01*
X187275141Y-36490354D01*
X187088734Y-36359832D01*
X187088732Y-36359831D01*
X186882497Y-36263661D01*
X186882488Y-36263658D01*
X186662697Y-36204766D01*
X186662693Y-36204765D01*
X186662692Y-36204765D01*
X186662691Y-36204764D01*
X186662686Y-36204764D01*
X186436002Y-36184932D01*
X186435998Y-36184932D01*
X186209313Y-36204764D01*
X186209302Y-36204766D01*
X185989511Y-36263658D01*
X185989502Y-36263661D01*
X185783267Y-36359831D01*
X185783265Y-36359832D01*
X185596858Y-36490354D01*
X185435954Y-36651258D01*
X185305432Y-36837665D01*
X185305431Y-36837667D01*
X185278382Y-36895675D01*
X185232209Y-36948114D01*
X185165016Y-36967266D01*
X185098135Y-36947050D01*
X185053618Y-36895675D01*
X185026686Y-36837920D01*
X185026568Y-36837666D01*
X184896047Y-36651261D01*
X184896045Y-36651258D01*
X184735141Y-36490354D01*
X184548734Y-36359832D01*
X184548732Y-36359831D01*
X184342497Y-36263661D01*
X184342488Y-36263658D01*
X184122697Y-36204766D01*
X184122693Y-36204765D01*
X184122692Y-36204765D01*
X184122691Y-36204764D01*
X184122686Y-36204764D01*
X183896002Y-36184932D01*
X183895998Y-36184932D01*
X183669313Y-36204764D01*
X183669302Y-36204766D01*
X183449511Y-36263658D01*
X183449502Y-36263661D01*
X183243267Y-36359831D01*
X183243265Y-36359832D01*
X183056858Y-36490354D01*
X182895954Y-36651258D01*
X182765432Y-36837665D01*
X182765431Y-36837667D01*
X182738382Y-36895675D01*
X182692209Y-36948114D01*
X182625016Y-36967266D01*
X182558135Y-36947050D01*
X182513618Y-36895675D01*
X182486686Y-36837920D01*
X182486568Y-36837666D01*
X182356047Y-36651261D01*
X182356045Y-36651258D01*
X182195141Y-36490354D01*
X182008734Y-36359832D01*
X182008732Y-36359831D01*
X181802497Y-36263661D01*
X181802488Y-36263658D01*
X181582697Y-36204766D01*
X181582693Y-36204765D01*
X181582692Y-36204765D01*
X181582691Y-36204764D01*
X181582686Y-36204764D01*
X181356002Y-36184932D01*
X181355998Y-36184932D01*
X181129313Y-36204764D01*
X181129302Y-36204766D01*
X180909511Y-36263658D01*
X180909502Y-36263661D01*
X180703267Y-36359831D01*
X180703265Y-36359832D01*
X180516858Y-36490354D01*
X180355954Y-36651258D01*
X180225433Y-36837664D01*
X180225432Y-36837666D01*
X180225315Y-36837918D01*
X180198106Y-36896267D01*
X180151933Y-36948706D01*
X180084739Y-36967857D01*
X180017858Y-36947641D01*
X179973342Y-36896265D01*
X179946135Y-36837920D01*
X179946134Y-36837918D01*
X179815657Y-36651579D01*
X179654820Y-36490742D01*
X179468482Y-36360265D01*
X179262328Y-36264134D01*
X179066000Y-36211527D01*
X179066000Y-37174714D01*
X179054045Y-37162759D01*
X178941148Y-37105235D01*
X178847481Y-37090400D01*
X178784519Y-37090400D01*
X178690852Y-37105235D01*
X178577955Y-37162759D01*
X178566000Y-37174714D01*
X178566000Y-36211527D01*
X178369671Y-36264134D01*
X178163517Y-36360265D01*
X177977179Y-36490742D01*
X177816342Y-36651579D01*
X177685867Y-36837915D01*
X177658657Y-36896267D01*
X177612484Y-36948706D01*
X177545290Y-36967857D01*
X177478409Y-36947641D01*
X177433893Y-36896265D01*
X177406685Y-36837918D01*
X177406568Y-36837666D01*
X177276047Y-36651261D01*
X177276045Y-36651258D01*
X177115141Y-36490354D01*
X176928734Y-36359832D01*
X176928732Y-36359831D01*
X176722497Y-36263661D01*
X176722488Y-36263658D01*
X176502697Y-36204766D01*
X176502693Y-36204765D01*
X176502692Y-36204765D01*
X176502691Y-36204764D01*
X176502686Y-36204764D01*
X176276002Y-36184932D01*
X176275998Y-36184932D01*
X176049313Y-36204764D01*
X176049302Y-36204766D01*
X175829511Y-36263658D01*
X175829502Y-36263661D01*
X175623267Y-36359831D01*
X175623265Y-36359832D01*
X175436858Y-36490354D01*
X175275954Y-36651258D01*
X175145432Y-36837665D01*
X175145431Y-36837667D01*
X175118382Y-36895675D01*
X175072209Y-36948114D01*
X175005016Y-36967266D01*
X174938135Y-36947050D01*
X174893618Y-36895675D01*
X174866686Y-36837920D01*
X174866568Y-36837666D01*
X174736047Y-36651261D01*
X174736045Y-36651258D01*
X174575141Y-36490354D01*
X174388734Y-36359832D01*
X174388732Y-36359831D01*
X174182497Y-36263661D01*
X174182488Y-36263658D01*
X173962697Y-36204766D01*
X173962693Y-36204765D01*
X173962692Y-36204765D01*
X173962691Y-36204764D01*
X173962686Y-36204764D01*
X173736002Y-36184932D01*
X173735998Y-36184932D01*
X173509313Y-36204764D01*
X173509302Y-36204766D01*
X173289511Y-36263658D01*
X173289502Y-36263661D01*
X173083267Y-36359831D01*
X173083265Y-36359832D01*
X172896858Y-36490354D01*
X172735954Y-36651258D01*
X172605432Y-36837665D01*
X172605431Y-36837667D01*
X172509261Y-37043902D01*
X172509258Y-37043911D01*
X172450366Y-37263702D01*
X172450364Y-37263713D01*
X172430532Y-37490398D01*
X172430532Y-37490401D01*
X159500500Y-37490401D01*
X159500500Y-33624500D01*
X159520185Y-33557461D01*
X159572989Y-33511706D01*
X159624500Y-33500500D01*
X231875500Y-33500500D01*
X231942539Y-33520185D01*
G37*
%TD.AperFunction*%
%TD*%
M02*
