M48
; DRILL file {KiCad 7.0.9-7.0.9~ubuntu20.04.1} date Do 28 Dez 2023 04:39:17
; FORMAT={-:-/ absolute / metric / decimal}
; #@! TF.CreationDate,2023-12-28T04:39:17+01:00
; #@! TF.GenerationSoftware,Kicad,Pcbnew,7.0.9-7.0.9~ubuntu20.04.1
; #@! TF.FileFunction,MixedPlating,1,2
FMAT,2
METRIC
; #@! TA.AperFunction,Plated,PTH,ViaDrill
T1C0.400
; #@! TA.AperFunction,Plated,PTH,ComponentDrill
T2C0.700
; #@! TA.AperFunction,Plated,PTH,ComponentDrill
T3C0.800
; #@! TA.AperFunction,Plated,PTH,ComponentDrill
T4C1.000
%
G90
G05
T1
X170.307Y-70.104
X185.928Y-50.419
X221.996Y-74.422
X224.282Y-71.12
T2
X174.371Y-47.879
X174.371Y-66.929
X176.149Y-47.879
X176.149Y-66.929
X177.927Y-47.879
X177.927Y-66.929
X179.705Y-47.879
X179.705Y-66.929
X181.483Y-47.879
X181.483Y-66.929
X183.261Y-47.879
X183.261Y-66.929
X185.039Y-47.879
X185.039Y-66.929
X186.817Y-47.879
X186.817Y-66.929
X188.595Y-47.879
X188.595Y-66.929
X190.373Y-47.879
X190.373Y-66.929
X192.151Y-47.879
X192.151Y-66.929
X193.929Y-47.879
X193.929Y-66.929
X195.707Y-47.879
X195.707Y-66.929
X197.485Y-47.879
X197.485Y-66.929
X199.263Y-47.879
X199.263Y-66.929
X201.041Y-47.879
X201.041Y-66.929
X202.819Y-47.879
X202.819Y-66.929
X204.597Y-47.879
X204.597Y-66.929
X206.375Y-47.879
X206.375Y-66.929
X208.153Y-47.879
X208.153Y-66.929
X209.931Y-47.879
X209.931Y-66.929
X211.709Y-47.879
X211.709Y-66.929
X213.487Y-47.879
X213.487Y-66.929
X215.265Y-47.879
X215.265Y-66.929
X217.043Y-47.879
X217.043Y-66.929
X218.821Y-47.879
X218.821Y-66.929
X220.599Y-47.879
X220.599Y-66.929
X222.377Y-47.879
X222.377Y-66.929
X224.155Y-47.879
X224.155Y-66.929
X225.933Y-47.879
X225.933Y-66.929
X227.711Y-47.879
X227.711Y-66.929
X229.489Y-47.879
X229.489Y-66.929
T3
X173.736Y-37.49
X173.736Y-52.73
X176.276Y-37.49
X176.276Y-52.73
X176.276Y-55.118
X178.816Y-37.49
X178.816Y-52.73
X178.816Y-55.118
X181.229Y-55.118
X181.356Y-37.49
X181.356Y-52.73
X183.896Y-37.49
X183.896Y-40.64
X183.896Y-52.73
X183.896Y-55.118
X186.436Y-37.49
X186.436Y-52.73
X188.976Y-37.49
X188.976Y-52.73
X191.516Y-37.49
X191.516Y-52.73
X194.056Y-37.49
X194.056Y-52.73
X196.596Y-37.49
X196.596Y-52.73
X199.136Y-37.49
X199.136Y-52.73
X201.676Y-37.49
X201.676Y-52.73
X204.216Y-37.49
X204.216Y-52.73
X206.756Y-37.49
X206.756Y-52.73
X209.296Y-37.49
X209.296Y-52.73
X211.836Y-37.49
X211.836Y-52.73
X214.376Y-37.49
X214.376Y-52.73
X216.662Y-71.12
X216.916Y-37.49
X216.916Y-52.73
X219.456Y-37.49
X219.456Y-52.73
X221.996Y-37.49
X221.996Y-52.73
T4
X164.338Y-42.926
X164.338Y-45.466
X164.338Y-48.006
X164.338Y-50.546
X164.338Y-53.086
X164.338Y-55.626
X164.338Y-58.166
X164.338Y-60.706
X164.338Y-63.246
X164.338Y-65.786
X164.338Y-68.326
X164.338Y-70.866
X164.338Y-73.406
X164.338Y-75.946
X164.338Y-78.486
X164.338Y-81.026
X166.878Y-42.926
X166.878Y-45.466
X166.878Y-48.006
X166.878Y-50.546
X166.878Y-53.086
X166.878Y-55.626
X166.878Y-58.166
X166.878Y-60.706
X166.878Y-63.246
X166.878Y-65.786
X166.878Y-68.326
X166.878Y-70.866
X166.878Y-73.406
X166.878Y-75.946
X166.878Y-78.486
X166.878Y-81.026
T0
M30
