%TF.GenerationSoftware,KiCad,Pcbnew,7.0.5-7.0.5~ubuntu20.04.1*%
%TF.CreationDate,2023-07-18T19:18:07+02:00*%
%TF.ProjectId,UC2_synertek_KTM2,5543325f-7379-46e6-9572-74656b5f4b54,rev?*%
%TF.SameCoordinates,Original*%
%TF.FileFunction,Soldermask,Bot*%
%TF.FilePolarity,Negative*%
%FSLAX46Y46*%
G04 Gerber Fmt 4.6, Leading zero omitted, Abs format (unit mm)*
G04 Created by KiCad (PCBNEW 7.0.5-7.0.5~ubuntu20.04.1) date 2023-07-18 19:18:07*
%MOMM*%
%LPD*%
G01*
G04 APERTURE LIST*
G04 Aperture macros list*
%AMRoundRect*
0 Rectangle with rounded corners*
0 $1 Rounding radius*
0 $2 $3 $4 $5 $6 $7 $8 $9 X,Y pos of 4 corners*
0 Add a 4 corners polygon primitive as box body*
4,1,4,$2,$3,$4,$5,$6,$7,$8,$9,$2,$3,0*
0 Add four circle primitives for the rounded corners*
1,1,$1+$1,$2,$3*
1,1,$1+$1,$4,$5*
1,1,$1+$1,$6,$7*
1,1,$1+$1,$8,$9*
0 Add four rect primitives between the rounded corners*
20,1,$1+$1,$2,$3,$4,$5,0*
20,1,$1+$1,$4,$5,$6,$7,0*
20,1,$1+$1,$6,$7,$8,$9,0*
20,1,$1+$1,$8,$9,$2,$3,0*%
%AMFreePoly0*
4,1,19,0.500000,-0.750000,0.000000,-0.750000,0.000000,-0.744911,-0.071157,-0.744911,-0.207708,-0.704816,-0.327430,-0.627875,-0.420627,-0.520320,-0.479746,-0.390866,-0.500000,-0.250000,-0.500000,0.250000,-0.479746,0.390866,-0.420627,0.520320,-0.327430,0.627875,-0.207708,0.704816,-0.071157,0.744911,0.000000,0.744911,0.000000,0.750000,0.500000,0.750000,0.500000,-0.750000,0.500000,-0.750000,
$1*%
%AMFreePoly1*
4,1,19,0.000000,0.744911,0.071157,0.744911,0.207708,0.704816,0.327430,0.627875,0.420627,0.520320,0.479746,0.390866,0.500000,0.250000,0.500000,-0.250000,0.479746,-0.390866,0.420627,-0.520320,0.327430,-0.627875,0.207708,-0.704816,0.071157,-0.744911,0.000000,-0.744911,0.000000,-0.750000,-0.500000,-0.750000,-0.500000,0.750000,0.000000,0.750000,0.000000,0.744911,0.000000,0.744911,
$1*%
G04 Aperture macros list end*
%ADD10R,1.700000X1.700000*%
%ADD11O,1.700000X1.700000*%
%ADD12R,1.500000X1.050000*%
%ADD13O,1.500000X1.050000*%
%ADD14R,1.600000X1.600000*%
%ADD15C,1.600000*%
%ADD16R,1.600000X2.400000*%
%ADD17O,1.600000X2.400000*%
%ADD18R,2.400000X1.600000*%
%ADD19O,2.400000X1.600000*%
%ADD20C,3.000000*%
%ADD21C,3.200000*%
%ADD22RoundRect,0.250000X-0.650000X0.325000X-0.650000X-0.325000X0.650000X-0.325000X0.650000X0.325000X0*%
%ADD23RoundRect,0.250000X-0.400000X-0.625000X0.400000X-0.625000X0.400000X0.625000X-0.400000X0.625000X0*%
%ADD24RoundRect,0.250000X-0.625000X0.400000X-0.625000X-0.400000X0.625000X-0.400000X0.625000X0.400000X0*%
%ADD25RoundRect,0.250000X-0.325000X-0.650000X0.325000X-0.650000X0.325000X0.650000X-0.325000X0.650000X0*%
%ADD26RoundRect,0.250000X0.650000X-0.325000X0.650000X0.325000X-0.650000X0.325000X-0.650000X-0.325000X0*%
%ADD27FreePoly0,90.000000*%
%ADD28FreePoly1,90.000000*%
G04 APERTURE END LIST*
D10*
%TO.C,J3*%
X139700000Y-54303005D03*
D11*
X139700000Y-56843005D03*
X142240000Y-54303005D03*
X142240000Y-56843005D03*
X144780000Y-54303005D03*
X144780000Y-56843005D03*
X147320000Y-54303005D03*
X147320000Y-56843005D03*
X149860000Y-54303005D03*
X149860000Y-56843005D03*
X152400000Y-54303005D03*
X152400000Y-56843005D03*
X154940000Y-54303005D03*
X154940000Y-56843005D03*
X157480000Y-54303005D03*
X157480000Y-56843005D03*
X160020000Y-54303005D03*
X160020000Y-56843005D03*
X162560000Y-54303005D03*
X162560000Y-56843005D03*
X165100000Y-54303005D03*
X165100000Y-56843005D03*
X167640000Y-54303005D03*
X167640000Y-56843005D03*
X170180000Y-54303005D03*
X170180000Y-56843005D03*
X172720000Y-54303005D03*
X172720000Y-56843005D03*
X175260000Y-54303005D03*
X175260000Y-56843005D03*
X177800000Y-54303005D03*
X177800000Y-56843005D03*
X180340000Y-54303005D03*
X180340000Y-56843005D03*
X182880000Y-54303005D03*
X182880000Y-56843005D03*
X185420000Y-54303005D03*
X185420000Y-56843005D03*
X187960000Y-54303005D03*
X187960000Y-56843005D03*
%TD*%
D10*
%TO.C,J8*%
X167640000Y-130389005D03*
D11*
X170180000Y-130389005D03*
X172720000Y-130389005D03*
X175260000Y-130389005D03*
X177800000Y-130389005D03*
X180340000Y-130389005D03*
X182880000Y-130389005D03*
X185420000Y-130389005D03*
X187960000Y-130389005D03*
%TD*%
D10*
%TO.C,J1*%
X139700000Y-48303005D03*
D11*
X139700000Y-50843005D03*
X142240000Y-48303005D03*
X142240000Y-50843005D03*
X144780000Y-48303005D03*
X144780000Y-50843005D03*
X147320000Y-48303005D03*
X147320000Y-50843005D03*
X149860000Y-48303005D03*
X149860000Y-50843005D03*
X152400000Y-48303005D03*
X152400000Y-50843005D03*
X154940000Y-48303005D03*
X154940000Y-50843005D03*
X157480000Y-48303005D03*
X157480000Y-50843005D03*
X160020000Y-48303005D03*
X160020000Y-50843005D03*
X162560000Y-48303005D03*
X162560000Y-50843005D03*
X165100000Y-48303005D03*
X165100000Y-50843005D03*
X167640000Y-48303005D03*
X167640000Y-50843005D03*
X170180000Y-48303005D03*
X170180000Y-50843005D03*
X172720000Y-48303005D03*
X172720000Y-50843005D03*
X175260000Y-48303005D03*
X175260000Y-50843005D03*
X177800000Y-48303005D03*
X177800000Y-50843005D03*
X180340000Y-48303005D03*
X180340000Y-50843005D03*
X182880000Y-48303005D03*
X182880000Y-50843005D03*
X185420000Y-48303005D03*
X185420000Y-50843005D03*
X187960000Y-48303005D03*
X187960000Y-50843005D03*
%TD*%
D12*
%TO.C,Q1*%
X130054400Y-49885600D03*
D13*
X130054400Y-51155600D03*
X130054400Y-52425600D03*
%TD*%
D14*
%TO.C,LS1*%
X103124000Y-63246000D03*
D15*
X103124000Y-60046000D03*
%TD*%
D10*
%TO.C,J5*%
X167640000Y-107529005D03*
D11*
X170180000Y-107529005D03*
X172720000Y-107529005D03*
X175260000Y-107529005D03*
X177800000Y-107529005D03*
X180340000Y-107529005D03*
X182880000Y-107529005D03*
X185420000Y-107529005D03*
X187960000Y-107529005D03*
%TD*%
D10*
%TO.C,J4*%
X139700000Y-133849005D03*
D11*
X139700000Y-136389005D03*
X142240000Y-133849005D03*
X142240000Y-136389005D03*
X144780000Y-133849005D03*
X144780000Y-136389005D03*
X147320000Y-133849005D03*
X147320000Y-136389005D03*
X149860000Y-133849005D03*
X149860000Y-136389005D03*
X152400000Y-133849005D03*
X152400000Y-136389005D03*
X154940000Y-133849005D03*
X154940000Y-136389005D03*
X157480000Y-133849005D03*
X157480000Y-136389005D03*
X160020000Y-133849005D03*
X160020000Y-136389005D03*
X162560000Y-133849005D03*
X162560000Y-136389005D03*
X165100000Y-133849005D03*
X165100000Y-136389005D03*
X167640000Y-133849005D03*
X167640000Y-136389005D03*
X170180000Y-133849005D03*
X170180000Y-136389005D03*
X172720000Y-133849005D03*
X172720000Y-136389005D03*
X175260000Y-133849005D03*
X175260000Y-136389005D03*
X177800000Y-133849005D03*
X177800000Y-136389005D03*
X180340000Y-133849005D03*
X180340000Y-136389005D03*
X182880000Y-133849005D03*
X182880000Y-136389005D03*
X185420000Y-133849005D03*
X185420000Y-136389005D03*
X187960000Y-133849005D03*
X187960000Y-136389005D03*
%TD*%
D16*
%TO.C,U9*%
X162820400Y-90525600D03*
D17*
X165360400Y-90525600D03*
X167900400Y-90525600D03*
X170440400Y-90525600D03*
X172980400Y-90525600D03*
X175520400Y-90525600D03*
X178060400Y-90525600D03*
X180600400Y-90525600D03*
X183140400Y-90525600D03*
X185680400Y-90525600D03*
X185680400Y-82905600D03*
X183140400Y-82905600D03*
X180600400Y-82905600D03*
X178060400Y-82905600D03*
X175520400Y-82905600D03*
X172980400Y-82905600D03*
X170440400Y-82905600D03*
X167900400Y-82905600D03*
X165360400Y-82905600D03*
X162820400Y-82905600D03*
%TD*%
D18*
%TO.C,U7*%
X109798000Y-83312000D03*
D19*
X109798000Y-85852000D03*
X109798000Y-88392000D03*
X109798000Y-90932000D03*
X109798000Y-93472000D03*
X109798000Y-96012000D03*
X109798000Y-98552000D03*
X109798000Y-101092000D03*
X117418000Y-101092000D03*
X117418000Y-98552000D03*
X117418000Y-96012000D03*
X117418000Y-93472000D03*
X117418000Y-90932000D03*
X117418000Y-88392000D03*
X117418000Y-85852000D03*
X117418000Y-83312000D03*
%TD*%
D18*
%TO.C,U8*%
X121228000Y-60452000D03*
D19*
X121228000Y-62992000D03*
X121228000Y-65532000D03*
X121228000Y-68072000D03*
X121228000Y-70612000D03*
X121228000Y-73152000D03*
X121228000Y-75692000D03*
X121228000Y-78232000D03*
X121228000Y-80772000D03*
X121228000Y-83312000D03*
X121228000Y-85852000D03*
X121228000Y-88392000D03*
X121228000Y-90932000D03*
X121228000Y-93472000D03*
X136468000Y-93472000D03*
X136468000Y-90932000D03*
X136468000Y-88392000D03*
X136468000Y-85852000D03*
X136468000Y-83312000D03*
X136468000Y-80772000D03*
X136468000Y-78232000D03*
X136468000Y-75692000D03*
X136468000Y-73152000D03*
X136468000Y-70612000D03*
X136468000Y-68072000D03*
X136468000Y-65532000D03*
X136468000Y-62992000D03*
X136468000Y-60452000D03*
%TD*%
D20*
%TO.C,J20*%
X112184000Y-57658000D03*
X117434000Y-57658000D03*
X112184000Y-48658000D03*
X106934000Y-57658000D03*
%TD*%
D10*
%TO.C,J2*%
X139700000Y-139849005D03*
D11*
X139700000Y-142389005D03*
X142240000Y-139849005D03*
X142240000Y-142389005D03*
X144780000Y-139849005D03*
X144780000Y-142389005D03*
X147320000Y-139849005D03*
X147320000Y-142389005D03*
X149860000Y-139849005D03*
X149860000Y-142389005D03*
X152400000Y-139849005D03*
X152400000Y-142389005D03*
X154940000Y-139849005D03*
X154940000Y-142389005D03*
X157480000Y-139849005D03*
X157480000Y-142389005D03*
X160020000Y-139849005D03*
X160020000Y-142389005D03*
X162560000Y-139849005D03*
X162560000Y-142389005D03*
X165100000Y-139849005D03*
X165100000Y-142389005D03*
X167640000Y-139849005D03*
X167640000Y-142389005D03*
X170180000Y-139849005D03*
X170180000Y-142389005D03*
X172720000Y-139849005D03*
X172720000Y-142389005D03*
X175260000Y-139849005D03*
X175260000Y-142389005D03*
X177800000Y-139849005D03*
X177800000Y-142389005D03*
X180340000Y-139849005D03*
X180340000Y-142389005D03*
X182880000Y-139849005D03*
X182880000Y-142389005D03*
X185420000Y-139849005D03*
X185420000Y-142389005D03*
X187960000Y-139849005D03*
X187960000Y-142389005D03*
%TD*%
D10*
%TO.C,J6*%
X187960000Y-127849005D03*
D11*
X187960000Y-125309005D03*
X187960000Y-122769005D03*
X187960000Y-120229005D03*
X187960000Y-117689005D03*
X187960000Y-115149005D03*
X187960000Y-112609005D03*
X187960000Y-110069005D03*
%TD*%
D18*
%TO.C,U11*%
X141732000Y-96012000D03*
D19*
X141732000Y-98552000D03*
X141732000Y-101092000D03*
X141732000Y-103632000D03*
X141732000Y-106172000D03*
X141732000Y-108712000D03*
X141732000Y-111252000D03*
X141732000Y-113792000D03*
X141732000Y-116332000D03*
X141732000Y-118872000D03*
X141732000Y-121412000D03*
X141732000Y-123952000D03*
X156972000Y-123952000D03*
X156972000Y-121412000D03*
X156972000Y-118872000D03*
X156972000Y-116332000D03*
X156972000Y-113792000D03*
X156972000Y-111252000D03*
X156972000Y-108712000D03*
X156972000Y-106172000D03*
X156972000Y-103632000D03*
X156972000Y-101092000D03*
X156972000Y-98552000D03*
X156972000Y-96012000D03*
%TD*%
D21*
%TO.C,H3*%
X193340000Y-49346005D03*
%TD*%
D18*
%TO.C,U10*%
X109830496Y-120170183D03*
D19*
X109830496Y-122710183D03*
X109830496Y-125250183D03*
X109830496Y-127790183D03*
X109830496Y-130330183D03*
X109830496Y-132870183D03*
X109830496Y-135410183D03*
X109830496Y-137950183D03*
X117450496Y-137950183D03*
X117450496Y-135410183D03*
X117450496Y-132870183D03*
X117450496Y-130330183D03*
X117450496Y-127790183D03*
X117450496Y-125250183D03*
X117450496Y-122710183D03*
X117450496Y-120170183D03*
%TD*%
D18*
%TO.C,U12*%
X121228000Y-97282000D03*
D19*
X121228000Y-99822000D03*
X121228000Y-102362000D03*
X121228000Y-104902000D03*
X121228000Y-107442000D03*
X121228000Y-109982000D03*
X121228000Y-112522000D03*
X121228000Y-115062000D03*
X121228000Y-117602000D03*
X121228000Y-120142000D03*
X121228000Y-122682000D03*
X121228000Y-125222000D03*
X121228000Y-127762000D03*
X121228000Y-130302000D03*
X136468000Y-130302000D03*
X136468000Y-127762000D03*
X136468000Y-125222000D03*
X136468000Y-122682000D03*
X136468000Y-120142000D03*
X136468000Y-117602000D03*
X136468000Y-115062000D03*
X136468000Y-112522000D03*
X136468000Y-109982000D03*
X136468000Y-107442000D03*
X136468000Y-104902000D03*
X136468000Y-102362000D03*
X136468000Y-99822000D03*
X136468000Y-97282000D03*
%TD*%
D16*
%TO.C,U3*%
X162820400Y-76555600D03*
D17*
X165360400Y-76555600D03*
X167900400Y-76555600D03*
X170440400Y-76555600D03*
X172980400Y-76555600D03*
X175520400Y-76555600D03*
X178060400Y-76555600D03*
X180600400Y-76555600D03*
X183140400Y-76555600D03*
X185680400Y-76555600D03*
X185680400Y-68935600D03*
X183140400Y-68935600D03*
X180600400Y-68935600D03*
X178060400Y-68935600D03*
X175520400Y-68935600D03*
X172980400Y-68935600D03*
X170440400Y-68935600D03*
X167900400Y-68935600D03*
X165360400Y-68935600D03*
X162820400Y-68935600D03*
%TD*%
D10*
%TO.C,J7*%
X167640000Y-110069005D03*
D11*
X167640000Y-112609005D03*
X167640000Y-115149005D03*
X167640000Y-117689005D03*
X167640000Y-120229005D03*
X167640000Y-122769005D03*
X167640000Y-125309005D03*
X167640000Y-127849005D03*
%TD*%
D18*
%TO.C,U2*%
X109728000Y-64516000D03*
D19*
X109728000Y-67056000D03*
X109728000Y-69596000D03*
X109728000Y-72136000D03*
X109728000Y-74676000D03*
X109728000Y-77216000D03*
X109728000Y-79756000D03*
X117348000Y-79756000D03*
X117348000Y-77216000D03*
X117348000Y-74676000D03*
X117348000Y-72136000D03*
X117348000Y-69596000D03*
X117348000Y-67056000D03*
X117348000Y-64516000D03*
%TD*%
D10*
%TO.C,J9*%
X102870000Y-74676000D03*
%TD*%
D18*
%TO.C,U6*%
X141732000Y-64770000D03*
D19*
X141732000Y-67310000D03*
X141732000Y-69850000D03*
X141732000Y-72390000D03*
X141732000Y-74930000D03*
X141732000Y-77470000D03*
X141732000Y-80010000D03*
X141732000Y-82550000D03*
X141732000Y-85090000D03*
X141732000Y-87630000D03*
X141732000Y-90170000D03*
X141732000Y-92710000D03*
X156972000Y-92710000D03*
X156972000Y-90170000D03*
X156972000Y-87630000D03*
X156972000Y-85090000D03*
X156972000Y-82550000D03*
X156972000Y-80010000D03*
X156972000Y-77470000D03*
X156972000Y-74930000D03*
X156972000Y-72390000D03*
X156972000Y-69850000D03*
X156972000Y-67310000D03*
X156972000Y-64770000D03*
%TD*%
D21*
%TO.C,H1*%
X101340000Y-49346005D03*
%TD*%
%TO.C,H2*%
X101340000Y-141346005D03*
%TD*%
%TO.C,H4*%
X193340000Y-141346005D03*
%TD*%
D22*
%TO.C,C11*%
X106680000Y-85598000D03*
X106680000Y-88548000D03*
%TD*%
D23*
%TO.C,R19*%
X132034400Y-52171600D03*
X135134400Y-52171600D03*
%TD*%
D24*
%TO.C,R3*%
X113553000Y-69041000D03*
X113553000Y-72141000D03*
%TD*%
D25*
%TO.C,C2*%
X124056400Y-48107600D03*
X127006400Y-48107600D03*
%TD*%
%TO.C,C7*%
X178533000Y-111135805D03*
X181483000Y-111135805D03*
%TD*%
D26*
%TO.C,C3*%
X113538000Y-82706000D03*
X113538000Y-79756000D03*
%TD*%
D25*
%TO.C,C8*%
X181405000Y-127137805D03*
X184355000Y-127137805D03*
%TD*%
D23*
%TO.C,R18*%
X132034400Y-54457600D03*
X135134400Y-54457600D03*
%TD*%
D27*
%TO.C,JP20*%
X147320000Y-131064000D03*
D28*
X147320000Y-129764000D03*
%TD*%
D22*
%TO.C,C9*%
X174625000Y-116977805D03*
X174625000Y-119927805D03*
%TD*%
D23*
%TO.C,R2*%
X123906400Y-51155600D03*
X127006400Y-51155600D03*
%TD*%
M02*
