%TF.GenerationSoftware,KiCad,Pcbnew,7.0.5-7.0.5~ubuntu20.04.1*%
%TF.CreationDate,2023-07-18T19:18:07+02:00*%
%TF.ProjectId,UC2_synertek_KTM2,5543325f-7379-46e6-9572-74656b5f4b54,rev?*%
%TF.SameCoordinates,Original*%
%TF.FileFunction,Paste,Top*%
%TF.FilePolarity,Positive*%
%FSLAX46Y46*%
G04 Gerber Fmt 4.6, Leading zero omitted, Abs format (unit mm)*
G04 Created by KiCad (PCBNEW 7.0.5-7.0.5~ubuntu20.04.1) date 2023-07-18 19:18:07*
%MOMM*%
%LPD*%
G01*
G04 APERTURE LIST*
G04 Aperture macros list*
%AMRoundRect*
0 Rectangle with rounded corners*
0 $1 Rounding radius*
0 $2 $3 $4 $5 $6 $7 $8 $9 X,Y pos of 4 corners*
0 Add a 4 corners polygon primitive as box body*
4,1,4,$2,$3,$4,$5,$6,$7,$8,$9,$2,$3,0*
0 Add four circle primitives for the rounded corners*
1,1,$1+$1,$2,$3*
1,1,$1+$1,$4,$5*
1,1,$1+$1,$6,$7*
1,1,$1+$1,$8,$9*
0 Add four rect primitives between the rounded corners*
20,1,$1+$1,$2,$3,$4,$5,0*
20,1,$1+$1,$4,$5,$6,$7,0*
20,1,$1+$1,$6,$7,$8,$9,0*
20,1,$1+$1,$8,$9,$2,$3,0*%
G04 Aperture macros list end*
%ADD10RoundRect,0.150000X-0.837500X-0.150000X0.837500X-0.150000X0.837500X0.150000X-0.837500X0.150000X0*%
%ADD11RoundRect,0.250000X-0.650000X0.325000X-0.650000X-0.325000X0.650000X-0.325000X0.650000X0.325000X0*%
%ADD12RoundRect,0.250000X0.400000X0.625000X-0.400000X0.625000X-0.400000X-0.625000X0.400000X-0.625000X0*%
%ADD13RoundRect,0.250000X-0.625000X0.400000X-0.625000X-0.400000X0.625000X-0.400000X0.625000X0.400000X0*%
%ADD14RoundRect,0.250000X-0.325000X-0.650000X0.325000X-0.650000X0.325000X0.650000X-0.325000X0.650000X0*%
%ADD15RoundRect,0.250000X0.325000X0.650000X-0.325000X0.650000X-0.325000X-0.650000X0.325000X-0.650000X0*%
%ADD16RoundRect,0.250000X0.625000X-0.400000X0.625000X0.400000X-0.625000X0.400000X-0.625000X-0.400000X0*%
%ADD17R,0.550000X1.500000*%
%ADD18R,1.500000X0.550000*%
G04 APERTURE END LIST*
D10*
%TO.C,U4*%
X164736300Y-92913200D03*
X164736300Y-94183200D03*
X164736300Y-95453200D03*
X164736300Y-96723200D03*
X164736300Y-97993200D03*
X164736300Y-99263200D03*
X164736300Y-100533200D03*
X164736300Y-101803200D03*
X164736300Y-103073200D03*
X164736300Y-104343200D03*
X171661300Y-104343200D03*
X171661300Y-103073200D03*
X171661300Y-101803200D03*
X171661300Y-100533200D03*
X171661300Y-99263200D03*
X171661300Y-97993200D03*
X171661300Y-96723200D03*
X171661300Y-95453200D03*
X171661300Y-94183200D03*
X171661300Y-92913200D03*
%TD*%
D11*
%TO.C,C5*%
X128593800Y-101266200D03*
X128593800Y-104216200D03*
%TD*%
D12*
%TO.C,R6*%
X130100000Y-98552000D03*
X127000000Y-98552000D03*
%TD*%
D13*
%TO.C,R17*%
X113792000Y-68782000D03*
X113792000Y-71882000D03*
%TD*%
%TO.C,R1*%
X102870000Y-68326000D03*
X102870000Y-71426000D03*
%TD*%
D14*
%TO.C,C4*%
X172770400Y-86700600D03*
X175720400Y-86700600D03*
%TD*%
D15*
%TO.C,C6*%
X130458000Y-61722000D03*
X127508000Y-61722000D03*
%TD*%
D16*
%TO.C,R8*%
X113538000Y-82804000D03*
X113538000Y-79704000D03*
%TD*%
D15*
%TO.C,C10*%
X150319000Y-120904000D03*
X147369000Y-120904000D03*
%TD*%
D13*
%TO.C,R20*%
X113792000Y-63702000D03*
X113792000Y-66802000D03*
%TD*%
D17*
%TO.C,U1*%
X174029000Y-124694805D03*
X174829000Y-124694805D03*
X175629000Y-124694805D03*
X176429000Y-124694805D03*
X177229000Y-124694805D03*
X178029000Y-124694805D03*
X178829000Y-124694805D03*
X179629000Y-124694805D03*
X180429000Y-124694805D03*
X181229000Y-124694805D03*
X182029000Y-124694805D03*
D18*
X183729000Y-122994805D03*
X183729000Y-122194805D03*
X183729000Y-121394805D03*
X183729000Y-120594805D03*
X183729000Y-119794805D03*
X183729000Y-118994805D03*
X183729000Y-118194805D03*
X183729000Y-117394805D03*
X183729000Y-116594805D03*
X183729000Y-115794805D03*
X183729000Y-114994805D03*
D17*
X182029000Y-113294805D03*
X181229000Y-113294805D03*
X180429000Y-113294805D03*
X179629000Y-113294805D03*
X178829000Y-113294805D03*
X178029000Y-113294805D03*
X177229000Y-113294805D03*
X176429000Y-113294805D03*
X175629000Y-113294805D03*
X174829000Y-113294805D03*
X174029000Y-113294805D03*
D18*
X172329000Y-114994805D03*
X172329000Y-115794805D03*
X172329000Y-116594805D03*
X172329000Y-117394805D03*
X172329000Y-118194805D03*
X172329000Y-118994805D03*
X172329000Y-119794805D03*
X172329000Y-120594805D03*
X172329000Y-121394805D03*
X172329000Y-122194805D03*
X172329000Y-122994805D03*
%TD*%
D15*
%TO.C,C1*%
X114555800Y-117348000D03*
X111605800Y-117348000D03*
%TD*%
M02*
