M48
; DRILL file {KiCad 7.0.5-7.0.5~ubuntu20.04.1} date Di 18 Jul 2023 19:18:09
; FORMAT={-:-/ absolute / metric / decimal}
; #@! TF.CreationDate,2023-07-18T19:18:09+02:00
; #@! TF.GenerationSoftware,Kicad,Pcbnew,7.0.5-7.0.5~ubuntu20.04.1
; #@! TF.FileFunction,MixedPlating,1,2
FMAT,2
METRIC
; #@! TA.AperFunction,Plated,PTH,ViaDrill
T1C0.400
; #@! TA.AperFunction,Plated,PTH,ComponentDrill
T2C0.750
; #@! TA.AperFunction,Plated,PTH,ComponentDrill
T3C0.800
; #@! TA.AperFunction,Plated,PTH,ComponentDrill
T4C1.000
; #@! TA.AperFunction,Plated,PTH,ComponentDrill
T5C1.500
; #@! TA.AperFunction,Plated,PTH,ComponentDrill
T6C1.700
; #@! TA.AperFunction,NonPlated,NPTH,ComponentDrill
T7C3.200
%
G90
G05
T1
X124.022Y-127.584
X126.492Y-64.262
X128.524Y-78.232
X130.772Y-81.81
X132.842Y-56.388
X133.896Y-84.543
X138.176Y-61.722
X139.446Y-120.65
X139.7Y-59.182
X143.231Y-61.824
X144.018Y-93.497
X144.78Y-66.04
X145.237Y-93.878
X145.48Y-60.882
X145.821Y-61.849
X146.05Y-113.538
X146.355Y-94.386
X147.574Y-111.252
X148.565Y-125.705
X148.59Y-108.712
X148.59Y-109.982
X149.352Y-105.918
X149.352Y-107.188
X149.555Y-124.308
X150.114Y-103.632
X150.163Y-104.902
X150.622Y-123.419
X150.715Y-95.966
X150.876Y-101.092
X150.876Y-102.362
X151.638Y-98.552
X151.638Y-99.822
X151.93Y-71.42
X152.489Y-93.18
X152.654Y-68.58
X152.654Y-69.85
X152.705Y-91.77
X153.314Y-94.463
X153.716Y-64.764
X154.153Y-102.845
X159.436Y-98.222
X159.703Y-102.273
X160.068Y-117.627
X160.096Y-116.129
X160.553Y-114.833
X162.255Y-85.75
X172.77Y-86.701
X174.625Y-119.928
X175.235Y-93.243
X178.187Y-121.302
X178.279Y-115.795
X179.451Y-120.153
X180.429Y-122.693
X181.102Y-117.867
X182.054Y-120.216
X182.372Y-115.327
X185.318Y-65.761
X186.44Y-65.592
X186.69Y-131.153
T2
X130.054Y-49.886
X130.054Y-51.156
X130.054Y-52.426
T3
X109.728Y-64.516
X109.728Y-67.056
X109.728Y-69.596
X109.728Y-72.136
X109.728Y-74.676
X109.728Y-77.216
X109.728Y-79.756
X109.798Y-83.312
X109.798Y-85.852
X109.798Y-88.392
X109.798Y-90.932
X109.798Y-93.472
X109.798Y-96.012
X109.798Y-98.552
X109.798Y-101.092
X109.83Y-120.17
X109.83Y-122.71
X109.83Y-125.25
X109.83Y-127.79
X109.83Y-130.33
X109.83Y-132.87
X109.83Y-135.41
X109.83Y-137.95
X117.348Y-64.516
X117.348Y-67.056
X117.348Y-69.596
X117.348Y-72.136
X117.348Y-74.676
X117.348Y-77.216
X117.348Y-79.756
X117.418Y-83.312
X117.418Y-85.852
X117.418Y-88.392
X117.418Y-90.932
X117.418Y-93.472
X117.418Y-96.012
X117.418Y-98.552
X117.418Y-101.092
X117.45Y-120.17
X117.45Y-122.71
X117.45Y-125.25
X117.45Y-127.79
X117.45Y-130.33
X117.45Y-132.87
X117.45Y-135.41
X117.45Y-137.95
X121.228Y-60.452
X121.228Y-62.992
X121.228Y-65.532
X121.228Y-68.072
X121.228Y-70.612
X121.228Y-73.152
X121.228Y-75.692
X121.228Y-78.232
X121.228Y-80.772
X121.228Y-83.312
X121.228Y-85.852
X121.228Y-88.392
X121.228Y-90.932
X121.228Y-93.472
X121.228Y-97.282
X121.228Y-99.822
X121.228Y-102.362
X121.228Y-104.902
X121.228Y-107.442
X121.228Y-109.982
X121.228Y-112.522
X121.228Y-115.062
X121.228Y-117.602
X121.228Y-120.142
X121.228Y-122.682
X121.228Y-125.222
X121.228Y-127.762
X121.228Y-130.302
X136.468Y-60.452
X136.468Y-62.992
X136.468Y-65.532
X136.468Y-68.072
X136.468Y-70.612
X136.468Y-73.152
X136.468Y-75.692
X136.468Y-78.232
X136.468Y-80.772
X136.468Y-83.312
X136.468Y-85.852
X136.468Y-88.392
X136.468Y-90.932
X136.468Y-93.472
X136.468Y-97.282
X136.468Y-99.822
X136.468Y-102.362
X136.468Y-104.902
X136.468Y-107.442
X136.468Y-109.982
X136.468Y-112.522
X136.468Y-115.062
X136.468Y-117.602
X136.468Y-120.142
X136.468Y-122.682
X136.468Y-125.222
X136.468Y-127.762
X136.468Y-130.302
X141.732Y-64.77
X141.732Y-67.31
X141.732Y-69.85
X141.732Y-72.39
X141.732Y-74.93
X141.732Y-77.47
X141.732Y-80.01
X141.732Y-82.55
X141.732Y-85.09
X141.732Y-87.63
X141.732Y-90.17
X141.732Y-92.71
X141.732Y-96.012
X141.732Y-98.552
X141.732Y-101.092
X141.732Y-103.632
X141.732Y-106.172
X141.732Y-108.712
X141.732Y-111.252
X141.732Y-113.792
X141.732Y-116.332
X141.732Y-118.872
X141.732Y-121.412
X141.732Y-123.952
X156.972Y-64.77
X156.972Y-67.31
X156.972Y-69.85
X156.972Y-72.39
X156.972Y-74.93
X156.972Y-77.47
X156.972Y-80.01
X156.972Y-82.55
X156.972Y-85.09
X156.972Y-87.63
X156.972Y-90.17
X156.972Y-92.71
X156.972Y-96.012
X156.972Y-98.552
X156.972Y-101.092
X156.972Y-103.632
X156.972Y-106.172
X156.972Y-108.712
X156.972Y-111.252
X156.972Y-113.792
X156.972Y-116.332
X156.972Y-118.872
X156.972Y-121.412
X156.972Y-123.952
X162.82Y-68.936
X162.82Y-76.556
X162.82Y-82.906
X162.82Y-90.526
X165.36Y-68.936
X165.36Y-76.556
X165.36Y-82.906
X165.36Y-90.526
X167.9Y-68.936
X167.9Y-76.556
X167.9Y-82.906
X167.9Y-90.526
X170.44Y-68.936
X170.44Y-76.556
X170.44Y-82.906
X170.44Y-90.526
X172.98Y-68.936
X172.98Y-76.556
X172.98Y-82.906
X172.98Y-90.526
X175.52Y-68.936
X175.52Y-76.556
X175.52Y-82.906
X175.52Y-90.526
X178.06Y-68.936
X178.06Y-76.556
X178.06Y-82.906
X178.06Y-90.526
X180.6Y-68.936
X180.6Y-76.556
X180.6Y-82.906
X180.6Y-90.526
X183.14Y-68.936
X183.14Y-76.556
X183.14Y-82.906
X183.14Y-90.526
X185.68Y-68.936
X185.68Y-76.556
X185.68Y-82.906
X185.68Y-90.526
T4
X102.87Y-74.676
X103.124Y-60.046
X103.124Y-63.246
X139.7Y-48.303
X139.7Y-50.843
X139.7Y-54.303
X139.7Y-56.843
X139.7Y-133.849
X139.7Y-136.389
X139.7Y-139.849
X139.7Y-142.389
X142.24Y-48.303
X142.24Y-50.843
X142.24Y-54.303
X142.24Y-56.843
X142.24Y-133.849
X142.24Y-136.389
X142.24Y-139.849
X142.24Y-142.389
X144.78Y-48.303
X144.78Y-50.843
X144.78Y-54.303
X144.78Y-56.843
X144.78Y-133.849
X144.78Y-136.389
X144.78Y-139.849
X144.78Y-142.389
X147.32Y-48.303
X147.32Y-50.843
X147.32Y-54.303
X147.32Y-56.843
X147.32Y-133.849
X147.32Y-136.389
X147.32Y-139.849
X147.32Y-142.389
X149.86Y-48.303
X149.86Y-50.843
X149.86Y-54.303
X149.86Y-56.843
X149.86Y-133.849
X149.86Y-136.389
X149.86Y-139.849
X149.86Y-142.389
X152.4Y-48.303
X152.4Y-50.843
X152.4Y-54.303
X152.4Y-56.843
X152.4Y-133.849
X152.4Y-136.389
X152.4Y-139.849
X152.4Y-142.389
X154.94Y-48.303
X154.94Y-50.843
X154.94Y-54.303
X154.94Y-56.843
X154.94Y-133.849
X154.94Y-136.389
X154.94Y-139.849
X154.94Y-142.389
X157.48Y-48.303
X157.48Y-50.843
X157.48Y-54.303
X157.48Y-56.843
X157.48Y-133.849
X157.48Y-136.389
X157.48Y-139.849
X157.48Y-142.389
X160.02Y-48.303
X160.02Y-50.843
X160.02Y-54.303
X160.02Y-56.843
X160.02Y-133.849
X160.02Y-136.389
X160.02Y-139.849
X160.02Y-142.389
X162.56Y-48.303
X162.56Y-50.843
X162.56Y-54.303
X162.56Y-56.843
X162.56Y-133.849
X162.56Y-136.389
X162.56Y-139.849
X162.56Y-142.389
X165.1Y-48.303
X165.1Y-50.843
X165.1Y-54.303
X165.1Y-56.843
X165.1Y-133.849
X165.1Y-136.389
X165.1Y-139.849
X165.1Y-142.389
X167.64Y-48.303
X167.64Y-50.843
X167.64Y-54.303
X167.64Y-56.843
X167.64Y-107.529
X167.64Y-110.069
X167.64Y-112.609
X167.64Y-115.149
X167.64Y-117.689
X167.64Y-120.229
X167.64Y-122.769
X167.64Y-125.309
X167.64Y-127.849
X167.64Y-130.389
X167.64Y-133.849
X167.64Y-136.389
X167.64Y-139.849
X167.64Y-142.389
X170.18Y-48.303
X170.18Y-50.843
X170.18Y-54.303
X170.18Y-56.843
X170.18Y-107.529
X170.18Y-130.389
X170.18Y-133.849
X170.18Y-136.389
X170.18Y-139.849
X170.18Y-142.389
X172.72Y-48.303
X172.72Y-50.843
X172.72Y-54.303
X172.72Y-56.843
X172.72Y-107.529
X172.72Y-130.389
X172.72Y-133.849
X172.72Y-136.389
X172.72Y-139.849
X172.72Y-142.389
X175.26Y-48.303
X175.26Y-50.843
X175.26Y-54.303
X175.26Y-56.843
X175.26Y-107.529
X175.26Y-130.389
X175.26Y-133.849
X175.26Y-136.389
X175.26Y-139.849
X175.26Y-142.389
X177.8Y-48.303
X177.8Y-50.843
X177.8Y-54.303
X177.8Y-56.843
X177.8Y-107.529
X177.8Y-130.389
X177.8Y-133.849
X177.8Y-136.389
X177.8Y-139.849
X177.8Y-142.389
X180.34Y-48.303
X180.34Y-50.843
X180.34Y-54.303
X180.34Y-56.843
X180.34Y-107.529
X180.34Y-130.389
X180.34Y-133.849
X180.34Y-136.389
X180.34Y-139.849
X180.34Y-142.389
X182.88Y-48.303
X182.88Y-50.843
X182.88Y-54.303
X182.88Y-56.843
X182.88Y-107.529
X182.88Y-130.389
X182.88Y-133.849
X182.88Y-136.389
X182.88Y-139.849
X182.88Y-142.389
X185.42Y-48.303
X185.42Y-50.843
X185.42Y-54.303
X185.42Y-56.843
X185.42Y-107.529
X185.42Y-130.389
X185.42Y-133.849
X185.42Y-136.389
X185.42Y-139.849
X185.42Y-142.389
X187.96Y-48.303
X187.96Y-50.843
X187.96Y-54.303
X187.96Y-56.843
X187.96Y-107.529
X187.96Y-110.069
X187.96Y-112.609
X187.96Y-115.149
X187.96Y-117.689
X187.96Y-120.229
X187.96Y-122.769
X187.96Y-125.309
X187.96Y-127.849
X187.96Y-130.389
X187.96Y-133.849
X187.96Y-136.389
X187.96Y-139.849
X187.96Y-142.389
T5
X112.184Y-57.658
T6
X106.934Y-57.658
X112.184Y-48.658
X117.434Y-57.658
T7
X101.34Y-49.346
X101.34Y-141.346
X193.34Y-49.346
X193.34Y-141.346
T0
M30
