%TF.GenerationSoftware,KiCad,Pcbnew,7.0.5-7.0.5~ubuntu20.04.1*%
%TF.CreationDate,2023-07-18T19:18:07+02:00*%
%TF.ProjectId,UC2_synertek_KTM2,5543325f-7379-46e6-9572-74656b5f4b54,rev?*%
%TF.SameCoordinates,Original*%
%TF.FileFunction,Legend,Bot*%
%TF.FilePolarity,Positive*%
%FSLAX46Y46*%
G04 Gerber Fmt 4.6, Leading zero omitted, Abs format (unit mm)*
G04 Created by KiCad (PCBNEW 7.0.5-7.0.5~ubuntu20.04.1) date 2023-07-18 19:18:07*
%MOMM*%
%LPD*%
G01*
G04 APERTURE LIST*
%ADD10C,0.150000*%
%ADD11C,0.120000*%
G04 APERTURE END LIST*
D10*
%TO.C,C11*%
X105189580Y-86430142D02*
X105237200Y-86382523D01*
X105237200Y-86382523D02*
X105284819Y-86239666D01*
X105284819Y-86239666D02*
X105284819Y-86144428D01*
X105284819Y-86144428D02*
X105237200Y-86001571D01*
X105237200Y-86001571D02*
X105141961Y-85906333D01*
X105141961Y-85906333D02*
X105046723Y-85858714D01*
X105046723Y-85858714D02*
X104856247Y-85811095D01*
X104856247Y-85811095D02*
X104713390Y-85811095D01*
X104713390Y-85811095D02*
X104522914Y-85858714D01*
X104522914Y-85858714D02*
X104427676Y-85906333D01*
X104427676Y-85906333D02*
X104332438Y-86001571D01*
X104332438Y-86001571D02*
X104284819Y-86144428D01*
X104284819Y-86144428D02*
X104284819Y-86239666D01*
X104284819Y-86239666D02*
X104332438Y-86382523D01*
X104332438Y-86382523D02*
X104380057Y-86430142D01*
X105284819Y-87382523D02*
X105284819Y-86811095D01*
X105284819Y-87096809D02*
X104284819Y-87096809D01*
X104284819Y-87096809D02*
X104427676Y-87001571D01*
X104427676Y-87001571D02*
X104522914Y-86906333D01*
X104522914Y-86906333D02*
X104570533Y-86811095D01*
X105284819Y-88334904D02*
X105284819Y-87763476D01*
X105284819Y-88049190D02*
X104284819Y-88049190D01*
X104284819Y-88049190D02*
X104427676Y-87953952D01*
X104427676Y-87953952D02*
X104522914Y-87858714D01*
X104522914Y-87858714D02*
X104570533Y-87763476D01*
%TO.C,R19*%
X135059657Y-50365819D02*
X135392990Y-49889628D01*
X135631085Y-50365819D02*
X135631085Y-49365819D01*
X135631085Y-49365819D02*
X135250133Y-49365819D01*
X135250133Y-49365819D02*
X135154895Y-49413438D01*
X135154895Y-49413438D02*
X135107276Y-49461057D01*
X135107276Y-49461057D02*
X135059657Y-49556295D01*
X135059657Y-49556295D02*
X135059657Y-49699152D01*
X135059657Y-49699152D02*
X135107276Y-49794390D01*
X135107276Y-49794390D02*
X135154895Y-49842009D01*
X135154895Y-49842009D02*
X135250133Y-49889628D01*
X135250133Y-49889628D02*
X135631085Y-49889628D01*
X134107276Y-50365819D02*
X134678704Y-50365819D01*
X134392990Y-50365819D02*
X134392990Y-49365819D01*
X134392990Y-49365819D02*
X134488228Y-49508676D01*
X134488228Y-49508676D02*
X134583466Y-49603914D01*
X134583466Y-49603914D02*
X134678704Y-49651533D01*
X133631085Y-50365819D02*
X133440609Y-50365819D01*
X133440609Y-50365819D02*
X133345371Y-50318200D01*
X133345371Y-50318200D02*
X133297752Y-50270580D01*
X133297752Y-50270580D02*
X133202514Y-50127723D01*
X133202514Y-50127723D02*
X133154895Y-49937247D01*
X133154895Y-49937247D02*
X133154895Y-49556295D01*
X133154895Y-49556295D02*
X133202514Y-49461057D01*
X133202514Y-49461057D02*
X133250133Y-49413438D01*
X133250133Y-49413438D02*
X133345371Y-49365819D01*
X133345371Y-49365819D02*
X133535847Y-49365819D01*
X133535847Y-49365819D02*
X133631085Y-49413438D01*
X133631085Y-49413438D02*
X133678704Y-49461057D01*
X133678704Y-49461057D02*
X133726323Y-49556295D01*
X133726323Y-49556295D02*
X133726323Y-49794390D01*
X133726323Y-49794390D02*
X133678704Y-49889628D01*
X133678704Y-49889628D02*
X133631085Y-49937247D01*
X133631085Y-49937247D02*
X133535847Y-49984866D01*
X133535847Y-49984866D02*
X133345371Y-49984866D01*
X133345371Y-49984866D02*
X133250133Y-49937247D01*
X133250133Y-49937247D02*
X133202514Y-49889628D01*
X133202514Y-49889628D02*
X133154895Y-49794390D01*
%TO.C,R3*%
X112187819Y-70424333D02*
X111711628Y-70091000D01*
X112187819Y-69852905D02*
X111187819Y-69852905D01*
X111187819Y-69852905D02*
X111187819Y-70233857D01*
X111187819Y-70233857D02*
X111235438Y-70329095D01*
X111235438Y-70329095D02*
X111283057Y-70376714D01*
X111283057Y-70376714D02*
X111378295Y-70424333D01*
X111378295Y-70424333D02*
X111521152Y-70424333D01*
X111521152Y-70424333D02*
X111616390Y-70376714D01*
X111616390Y-70376714D02*
X111664009Y-70329095D01*
X111664009Y-70329095D02*
X111711628Y-70233857D01*
X111711628Y-70233857D02*
X111711628Y-69852905D01*
X111187819Y-70757667D02*
X111187819Y-71376714D01*
X111187819Y-71376714D02*
X111568771Y-71043381D01*
X111568771Y-71043381D02*
X111568771Y-71186238D01*
X111568771Y-71186238D02*
X111616390Y-71281476D01*
X111616390Y-71281476D02*
X111664009Y-71329095D01*
X111664009Y-71329095D02*
X111759247Y-71376714D01*
X111759247Y-71376714D02*
X111997342Y-71376714D01*
X111997342Y-71376714D02*
X112092580Y-71329095D01*
X112092580Y-71329095D02*
X112140200Y-71281476D01*
X112140200Y-71281476D02*
X112187819Y-71186238D01*
X112187819Y-71186238D02*
X112187819Y-70900524D01*
X112187819Y-70900524D02*
X112140200Y-70805286D01*
X112140200Y-70805286D02*
X112092580Y-70757667D01*
%TO.C,C2*%
X121756466Y-48213180D02*
X121804085Y-48260800D01*
X121804085Y-48260800D02*
X121946942Y-48308419D01*
X121946942Y-48308419D02*
X122042180Y-48308419D01*
X122042180Y-48308419D02*
X122185037Y-48260800D01*
X122185037Y-48260800D02*
X122280275Y-48165561D01*
X122280275Y-48165561D02*
X122327894Y-48070323D01*
X122327894Y-48070323D02*
X122375513Y-47879847D01*
X122375513Y-47879847D02*
X122375513Y-47736990D01*
X122375513Y-47736990D02*
X122327894Y-47546514D01*
X122327894Y-47546514D02*
X122280275Y-47451276D01*
X122280275Y-47451276D02*
X122185037Y-47356038D01*
X122185037Y-47356038D02*
X122042180Y-47308419D01*
X122042180Y-47308419D02*
X121946942Y-47308419D01*
X121946942Y-47308419D02*
X121804085Y-47356038D01*
X121804085Y-47356038D02*
X121756466Y-47403657D01*
X121375513Y-47403657D02*
X121327894Y-47356038D01*
X121327894Y-47356038D02*
X121232656Y-47308419D01*
X121232656Y-47308419D02*
X120994561Y-47308419D01*
X120994561Y-47308419D02*
X120899323Y-47356038D01*
X120899323Y-47356038D02*
X120851704Y-47403657D01*
X120851704Y-47403657D02*
X120804085Y-47498895D01*
X120804085Y-47498895D02*
X120804085Y-47594133D01*
X120804085Y-47594133D02*
X120851704Y-47736990D01*
X120851704Y-47736990D02*
X121423132Y-48308419D01*
X121423132Y-48308419D02*
X120804085Y-48308419D01*
%TO.C,C7*%
X180174666Y-113345385D02*
X180222285Y-113393005D01*
X180222285Y-113393005D02*
X180365142Y-113440624D01*
X180365142Y-113440624D02*
X180460380Y-113440624D01*
X180460380Y-113440624D02*
X180603237Y-113393005D01*
X180603237Y-113393005D02*
X180698475Y-113297766D01*
X180698475Y-113297766D02*
X180746094Y-113202528D01*
X180746094Y-113202528D02*
X180793713Y-113012052D01*
X180793713Y-113012052D02*
X180793713Y-112869195D01*
X180793713Y-112869195D02*
X180746094Y-112678719D01*
X180746094Y-112678719D02*
X180698475Y-112583481D01*
X180698475Y-112583481D02*
X180603237Y-112488243D01*
X180603237Y-112488243D02*
X180460380Y-112440624D01*
X180460380Y-112440624D02*
X180365142Y-112440624D01*
X180365142Y-112440624D02*
X180222285Y-112488243D01*
X180222285Y-112488243D02*
X180174666Y-112535862D01*
X179841332Y-112440624D02*
X179174666Y-112440624D01*
X179174666Y-112440624D02*
X179603237Y-113440624D01*
%TO.C,C3*%
X115747580Y-81064333D02*
X115795200Y-81016714D01*
X115795200Y-81016714D02*
X115842819Y-80873857D01*
X115842819Y-80873857D02*
X115842819Y-80778619D01*
X115842819Y-80778619D02*
X115795200Y-80635762D01*
X115795200Y-80635762D02*
X115699961Y-80540524D01*
X115699961Y-80540524D02*
X115604723Y-80492905D01*
X115604723Y-80492905D02*
X115414247Y-80445286D01*
X115414247Y-80445286D02*
X115271390Y-80445286D01*
X115271390Y-80445286D02*
X115080914Y-80492905D01*
X115080914Y-80492905D02*
X114985676Y-80540524D01*
X114985676Y-80540524D02*
X114890438Y-80635762D01*
X114890438Y-80635762D02*
X114842819Y-80778619D01*
X114842819Y-80778619D02*
X114842819Y-80873857D01*
X114842819Y-80873857D02*
X114890438Y-81016714D01*
X114890438Y-81016714D02*
X114938057Y-81064333D01*
X114842819Y-81397667D02*
X114842819Y-82016714D01*
X114842819Y-82016714D02*
X115223771Y-81683381D01*
X115223771Y-81683381D02*
X115223771Y-81826238D01*
X115223771Y-81826238D02*
X115271390Y-81921476D01*
X115271390Y-81921476D02*
X115319009Y-81969095D01*
X115319009Y-81969095D02*
X115414247Y-82016714D01*
X115414247Y-82016714D02*
X115652342Y-82016714D01*
X115652342Y-82016714D02*
X115747580Y-81969095D01*
X115747580Y-81969095D02*
X115795200Y-81921476D01*
X115795200Y-81921476D02*
X115842819Y-81826238D01*
X115842819Y-81826238D02*
X115842819Y-81540524D01*
X115842819Y-81540524D02*
X115795200Y-81445286D01*
X115795200Y-81445286D02*
X115747580Y-81397667D01*
%TO.C,C8*%
X183046666Y-129347385D02*
X183094285Y-129395005D01*
X183094285Y-129395005D02*
X183237142Y-129442624D01*
X183237142Y-129442624D02*
X183332380Y-129442624D01*
X183332380Y-129442624D02*
X183475237Y-129395005D01*
X183475237Y-129395005D02*
X183570475Y-129299766D01*
X183570475Y-129299766D02*
X183618094Y-129204528D01*
X183618094Y-129204528D02*
X183665713Y-129014052D01*
X183665713Y-129014052D02*
X183665713Y-128871195D01*
X183665713Y-128871195D02*
X183618094Y-128680719D01*
X183618094Y-128680719D02*
X183570475Y-128585481D01*
X183570475Y-128585481D02*
X183475237Y-128490243D01*
X183475237Y-128490243D02*
X183332380Y-128442624D01*
X183332380Y-128442624D02*
X183237142Y-128442624D01*
X183237142Y-128442624D02*
X183094285Y-128490243D01*
X183094285Y-128490243D02*
X183046666Y-128537862D01*
X182475237Y-128871195D02*
X182570475Y-128823576D01*
X182570475Y-128823576D02*
X182618094Y-128775957D01*
X182618094Y-128775957D02*
X182665713Y-128680719D01*
X182665713Y-128680719D02*
X182665713Y-128633100D01*
X182665713Y-128633100D02*
X182618094Y-128537862D01*
X182618094Y-128537862D02*
X182570475Y-128490243D01*
X182570475Y-128490243D02*
X182475237Y-128442624D01*
X182475237Y-128442624D02*
X182284761Y-128442624D01*
X182284761Y-128442624D02*
X182189523Y-128490243D01*
X182189523Y-128490243D02*
X182141904Y-128537862D01*
X182141904Y-128537862D02*
X182094285Y-128633100D01*
X182094285Y-128633100D02*
X182094285Y-128680719D01*
X182094285Y-128680719D02*
X182141904Y-128775957D01*
X182141904Y-128775957D02*
X182189523Y-128823576D01*
X182189523Y-128823576D02*
X182284761Y-128871195D01*
X182284761Y-128871195D02*
X182475237Y-128871195D01*
X182475237Y-128871195D02*
X182570475Y-128918814D01*
X182570475Y-128918814D02*
X182618094Y-128966433D01*
X182618094Y-128966433D02*
X182665713Y-129061671D01*
X182665713Y-129061671D02*
X182665713Y-129252147D01*
X182665713Y-129252147D02*
X182618094Y-129347385D01*
X182618094Y-129347385D02*
X182570475Y-129395005D01*
X182570475Y-129395005D02*
X182475237Y-129442624D01*
X182475237Y-129442624D02*
X182284761Y-129442624D01*
X182284761Y-129442624D02*
X182189523Y-129395005D01*
X182189523Y-129395005D02*
X182141904Y-129347385D01*
X182141904Y-129347385D02*
X182094285Y-129252147D01*
X182094285Y-129252147D02*
X182094285Y-129061671D01*
X182094285Y-129061671D02*
X182141904Y-128966433D01*
X182141904Y-128966433D02*
X182189523Y-128918814D01*
X182189523Y-128918814D02*
X182284761Y-128871195D01*
%TO.C,R18*%
X130589257Y-55496619D02*
X130922590Y-55020428D01*
X131160685Y-55496619D02*
X131160685Y-54496619D01*
X131160685Y-54496619D02*
X130779733Y-54496619D01*
X130779733Y-54496619D02*
X130684495Y-54544238D01*
X130684495Y-54544238D02*
X130636876Y-54591857D01*
X130636876Y-54591857D02*
X130589257Y-54687095D01*
X130589257Y-54687095D02*
X130589257Y-54829952D01*
X130589257Y-54829952D02*
X130636876Y-54925190D01*
X130636876Y-54925190D02*
X130684495Y-54972809D01*
X130684495Y-54972809D02*
X130779733Y-55020428D01*
X130779733Y-55020428D02*
X131160685Y-55020428D01*
X129636876Y-55496619D02*
X130208304Y-55496619D01*
X129922590Y-55496619D02*
X129922590Y-54496619D01*
X129922590Y-54496619D02*
X130017828Y-54639476D01*
X130017828Y-54639476D02*
X130113066Y-54734714D01*
X130113066Y-54734714D02*
X130208304Y-54782333D01*
X129065447Y-54925190D02*
X129160685Y-54877571D01*
X129160685Y-54877571D02*
X129208304Y-54829952D01*
X129208304Y-54829952D02*
X129255923Y-54734714D01*
X129255923Y-54734714D02*
X129255923Y-54687095D01*
X129255923Y-54687095D02*
X129208304Y-54591857D01*
X129208304Y-54591857D02*
X129160685Y-54544238D01*
X129160685Y-54544238D02*
X129065447Y-54496619D01*
X129065447Y-54496619D02*
X128874971Y-54496619D01*
X128874971Y-54496619D02*
X128779733Y-54544238D01*
X128779733Y-54544238D02*
X128732114Y-54591857D01*
X128732114Y-54591857D02*
X128684495Y-54687095D01*
X128684495Y-54687095D02*
X128684495Y-54734714D01*
X128684495Y-54734714D02*
X128732114Y-54829952D01*
X128732114Y-54829952D02*
X128779733Y-54877571D01*
X128779733Y-54877571D02*
X128874971Y-54925190D01*
X128874971Y-54925190D02*
X129065447Y-54925190D01*
X129065447Y-54925190D02*
X129160685Y-54972809D01*
X129160685Y-54972809D02*
X129208304Y-55020428D01*
X129208304Y-55020428D02*
X129255923Y-55115666D01*
X129255923Y-55115666D02*
X129255923Y-55306142D01*
X129255923Y-55306142D02*
X129208304Y-55401380D01*
X129208304Y-55401380D02*
X129160685Y-55449000D01*
X129160685Y-55449000D02*
X129065447Y-55496619D01*
X129065447Y-55496619D02*
X128874971Y-55496619D01*
X128874971Y-55496619D02*
X128779733Y-55449000D01*
X128779733Y-55449000D02*
X128732114Y-55401380D01*
X128732114Y-55401380D02*
X128684495Y-55306142D01*
X128684495Y-55306142D02*
X128684495Y-55115666D01*
X128684495Y-55115666D02*
X128732114Y-55020428D01*
X128732114Y-55020428D02*
X128779733Y-54972809D01*
X128779733Y-54972809D02*
X128874971Y-54925190D01*
%TO.C,JP20*%
X148574819Y-129104476D02*
X149289104Y-129104476D01*
X149289104Y-129104476D02*
X149431961Y-129056857D01*
X149431961Y-129056857D02*
X149527200Y-128961619D01*
X149527200Y-128961619D02*
X149574819Y-128818762D01*
X149574819Y-128818762D02*
X149574819Y-128723524D01*
X149574819Y-129580667D02*
X148574819Y-129580667D01*
X148574819Y-129580667D02*
X148574819Y-129961619D01*
X148574819Y-129961619D02*
X148622438Y-130056857D01*
X148622438Y-130056857D02*
X148670057Y-130104476D01*
X148670057Y-130104476D02*
X148765295Y-130152095D01*
X148765295Y-130152095D02*
X148908152Y-130152095D01*
X148908152Y-130152095D02*
X149003390Y-130104476D01*
X149003390Y-130104476D02*
X149051009Y-130056857D01*
X149051009Y-130056857D02*
X149098628Y-129961619D01*
X149098628Y-129961619D02*
X149098628Y-129580667D01*
X148670057Y-130533048D02*
X148622438Y-130580667D01*
X148622438Y-130580667D02*
X148574819Y-130675905D01*
X148574819Y-130675905D02*
X148574819Y-130914000D01*
X148574819Y-130914000D02*
X148622438Y-131009238D01*
X148622438Y-131009238D02*
X148670057Y-131056857D01*
X148670057Y-131056857D02*
X148765295Y-131104476D01*
X148765295Y-131104476D02*
X148860533Y-131104476D01*
X148860533Y-131104476D02*
X149003390Y-131056857D01*
X149003390Y-131056857D02*
X149574819Y-130485429D01*
X149574819Y-130485429D02*
X149574819Y-131104476D01*
X148574819Y-131723524D02*
X148574819Y-131818762D01*
X148574819Y-131818762D02*
X148622438Y-131914000D01*
X148622438Y-131914000D02*
X148670057Y-131961619D01*
X148670057Y-131961619D02*
X148765295Y-132009238D01*
X148765295Y-132009238D02*
X148955771Y-132056857D01*
X148955771Y-132056857D02*
X149193866Y-132056857D01*
X149193866Y-132056857D02*
X149384342Y-132009238D01*
X149384342Y-132009238D02*
X149479580Y-131961619D01*
X149479580Y-131961619D02*
X149527200Y-131914000D01*
X149527200Y-131914000D02*
X149574819Y-131818762D01*
X149574819Y-131818762D02*
X149574819Y-131723524D01*
X149574819Y-131723524D02*
X149527200Y-131628286D01*
X149527200Y-131628286D02*
X149479580Y-131580667D01*
X149479580Y-131580667D02*
X149384342Y-131533048D01*
X149384342Y-131533048D02*
X149193866Y-131485429D01*
X149193866Y-131485429D02*
X148955771Y-131485429D01*
X148955771Y-131485429D02*
X148765295Y-131533048D01*
X148765295Y-131533048D02*
X148670057Y-131580667D01*
X148670057Y-131580667D02*
X148622438Y-131628286D01*
X148622438Y-131628286D02*
X148574819Y-131723524D01*
%TO.C,C9*%
X173134580Y-118286138D02*
X173182200Y-118238519D01*
X173182200Y-118238519D02*
X173229819Y-118095662D01*
X173229819Y-118095662D02*
X173229819Y-118000424D01*
X173229819Y-118000424D02*
X173182200Y-117857567D01*
X173182200Y-117857567D02*
X173086961Y-117762329D01*
X173086961Y-117762329D02*
X172991723Y-117714710D01*
X172991723Y-117714710D02*
X172801247Y-117667091D01*
X172801247Y-117667091D02*
X172658390Y-117667091D01*
X172658390Y-117667091D02*
X172467914Y-117714710D01*
X172467914Y-117714710D02*
X172372676Y-117762329D01*
X172372676Y-117762329D02*
X172277438Y-117857567D01*
X172277438Y-117857567D02*
X172229819Y-118000424D01*
X172229819Y-118000424D02*
X172229819Y-118095662D01*
X172229819Y-118095662D02*
X172277438Y-118238519D01*
X172277438Y-118238519D02*
X172325057Y-118286138D01*
X173229819Y-118762329D02*
X173229819Y-118952805D01*
X173229819Y-118952805D02*
X173182200Y-119048043D01*
X173182200Y-119048043D02*
X173134580Y-119095662D01*
X173134580Y-119095662D02*
X172991723Y-119190900D01*
X172991723Y-119190900D02*
X172801247Y-119238519D01*
X172801247Y-119238519D02*
X172420295Y-119238519D01*
X172420295Y-119238519D02*
X172325057Y-119190900D01*
X172325057Y-119190900D02*
X172277438Y-119143281D01*
X172277438Y-119143281D02*
X172229819Y-119048043D01*
X172229819Y-119048043D02*
X172229819Y-118857567D01*
X172229819Y-118857567D02*
X172277438Y-118762329D01*
X172277438Y-118762329D02*
X172325057Y-118714710D01*
X172325057Y-118714710D02*
X172420295Y-118667091D01*
X172420295Y-118667091D02*
X172658390Y-118667091D01*
X172658390Y-118667091D02*
X172753628Y-118714710D01*
X172753628Y-118714710D02*
X172801247Y-118762329D01*
X172801247Y-118762329D02*
X172848866Y-118857567D01*
X172848866Y-118857567D02*
X172848866Y-119048043D01*
X172848866Y-119048043D02*
X172801247Y-119143281D01*
X172801247Y-119143281D02*
X172753628Y-119190900D01*
X172753628Y-119190900D02*
X172658390Y-119238519D01*
%TO.C,R2*%
X125623066Y-53430419D02*
X125956399Y-52954228D01*
X126194494Y-53430419D02*
X126194494Y-52430419D01*
X126194494Y-52430419D02*
X125813542Y-52430419D01*
X125813542Y-52430419D02*
X125718304Y-52478038D01*
X125718304Y-52478038D02*
X125670685Y-52525657D01*
X125670685Y-52525657D02*
X125623066Y-52620895D01*
X125623066Y-52620895D02*
X125623066Y-52763752D01*
X125623066Y-52763752D02*
X125670685Y-52858990D01*
X125670685Y-52858990D02*
X125718304Y-52906609D01*
X125718304Y-52906609D02*
X125813542Y-52954228D01*
X125813542Y-52954228D02*
X126194494Y-52954228D01*
X125242113Y-52525657D02*
X125194494Y-52478038D01*
X125194494Y-52478038D02*
X125099256Y-52430419D01*
X125099256Y-52430419D02*
X124861161Y-52430419D01*
X124861161Y-52430419D02*
X124765923Y-52478038D01*
X124765923Y-52478038D02*
X124718304Y-52525657D01*
X124718304Y-52525657D02*
X124670685Y-52620895D01*
X124670685Y-52620895D02*
X124670685Y-52716133D01*
X124670685Y-52716133D02*
X124718304Y-52858990D01*
X124718304Y-52858990D02*
X125289732Y-53430419D01*
X125289732Y-53430419D02*
X124670685Y-53430419D01*
D11*
%TO.C,C11*%
X107590000Y-86361748D02*
X107590000Y-87784252D01*
X105770000Y-86361748D02*
X105770000Y-87784252D01*
%TO.C,R19*%
X132857336Y-51261600D02*
X134311464Y-51261600D01*
X132857336Y-53081600D02*
X134311464Y-53081600D01*
%TO.C,R3*%
X114463000Y-69863936D02*
X114463000Y-71318064D01*
X112643000Y-69863936D02*
X112643000Y-71318064D01*
%TO.C,C2*%
X124820148Y-47197600D02*
X126242652Y-47197600D01*
X124820148Y-49017600D02*
X126242652Y-49017600D01*
%TO.C,C7*%
X179296748Y-110225805D02*
X180719252Y-110225805D01*
X179296748Y-112045805D02*
X180719252Y-112045805D01*
%TO.C,C3*%
X112628000Y-81942252D02*
X112628000Y-80519748D01*
X114448000Y-81942252D02*
X114448000Y-80519748D01*
%TO.C,C8*%
X182168748Y-126227805D02*
X183591252Y-126227805D01*
X182168748Y-128047805D02*
X183591252Y-128047805D01*
%TO.C,R18*%
X132857336Y-53547600D02*
X134311464Y-53547600D01*
X132857336Y-55367600D02*
X134311464Y-55367600D01*
%TO.C,JP20*%
X147020000Y-131814000D02*
X147620000Y-131814000D01*
X148320000Y-131114000D02*
X148320000Y-129714000D01*
X146320000Y-129714000D02*
X146320000Y-131114000D01*
X147620000Y-129014000D02*
X147020000Y-129014000D01*
X146320000Y-131114000D02*
G75*
G03*
X147020000Y-131814000I699999J-1D01*
G01*
X147620000Y-131814000D02*
G75*
G03*
X148320000Y-131114000I1J699999D01*
G01*
X147020000Y-129014000D02*
G75*
G03*
X146320000Y-129714000I0J-700000D01*
G01*
X148320000Y-129714000D02*
G75*
G03*
X147620000Y-129014000I-700000J0D01*
G01*
%TO.C,C9*%
X175535000Y-117741553D02*
X175535000Y-119164057D01*
X173715000Y-117741553D02*
X173715000Y-119164057D01*
%TO.C,R2*%
X124729336Y-50245600D02*
X126183464Y-50245600D01*
X124729336Y-52065600D02*
X126183464Y-52065600D01*
%TD*%
M02*
