M48
; DRILL file {KiCad 7.0.5-7.0.5~ubuntu20.04.1} date Di 18 Jul 2023 14:03:03
; FORMAT={-:-/ absolute / metric / decimal}
; #@! TF.CreationDate,2023-07-18T14:03:03+02:00
; #@! TF.GenerationSoftware,Kicad,Pcbnew,7.0.5-7.0.5~ubuntu20.04.1
; #@! TF.FileFunction,MixedPlating,1,2
FMAT,2
METRIC
; #@! TA.AperFunction,Plated,PTH,ViaDrill
T1C0.400
; #@! TA.AperFunction,Plated,PTH,ComponentDrill
T2C0.800
; #@! TA.AperFunction,Plated,PTH,ComponentDrill
T3C1.000
; #@! TA.AperFunction,NonPlated,NPTH,ComponentDrill
T4C3.200
%
G90
G05
T1
X133.35Y-75.819
X134.061Y-80.391
X134.722Y-75.209
X135.687Y-77.343
X136.652Y-98.552
X137.021Y-74.295
X137.668Y-108.814
X138.146Y-73.558
X139.416Y-109.79
X140.132Y-87.122
X140.335Y-72.771
X141.91Y-71.501
X143.226Y-104.211
X144.272Y-87.554
X145.085Y-88.519
X146.304Y-113.792
X148.311Y-88.24
X148.336Y-60.926
X149.581Y-114.275
X150.622Y-121.666
X150.876Y-67.852
X151.393Y-129.277
X152.146Y-67.852
X152.214Y-64.7
X153.386Y-110.769
X153.416Y-67.852
X153.467Y-88.392
X154.686Y-67.852
X155.372Y-64.491
X155.956Y-67.852
X157.226Y-67.852
X158.496Y-67.852
X159.766Y-67.852
X161.696Y-112.522
X165.317Y-76.073
X165.379Y-103.702
X165.428Y-84.274
X167.843Y-60.732
X167.864Y-94.061
X169.896Y-93.299
X170.658Y-110.825
X170.912Y-92.575
X171.933Y-105.842
X173.355Y-82.448
X173.916Y-66.728
X173.916Y-67.924
X173.916Y-69.268
X173.916Y-65.458
X174.089Y-95.964
X174.295Y-114.224
X175.23Y-87.965
X178.777Y-74.475
X179.066Y-69.268
X179.066Y-66.76
X179.066Y-70.538
X179.066Y-67.998
X180.047Y-61.939
X181.257Y-61.916
X181.393Y-64.696
X182.47Y-70.488
X182.597Y-63.477
X183.388Y-114.554
X183.82Y-60.173
X183.847Y-73.166
X185.127Y-61.966
X186.397Y-73.953
X187.53Y-71.224
X187.53Y-72.494
X192.68Y-68.684
X192.68Y-69.954
X192.984Y-60.234
X194.229Y-59.441
X196.84Y-86.436
X196.84Y-112.827
T2
X102.87Y-56.007
X102.87Y-58.547
X102.87Y-61.087
X102.87Y-63.627
X102.87Y-66.167
X102.87Y-68.707
X102.87Y-71.247
X102.87Y-73.787
X102.87Y-76.327
X102.87Y-78.867
X102.87Y-81.407
X102.87Y-83.947
X102.87Y-86.487
X102.87Y-89.027
X102.87Y-91.567
X102.87Y-94.107
X102.87Y-96.647
X102.87Y-99.187
X102.87Y-101.727
X102.87Y-104.267
X102.87Y-106.807
X102.87Y-109.347
X102.87Y-111.887
X102.87Y-114.427
X102.87Y-116.967
X102.87Y-119.507
X102.87Y-122.047
X102.87Y-124.587
X102.87Y-127.127
X102.87Y-129.667
X102.87Y-132.207
X102.87Y-134.747
X105.41Y-56.007
X105.41Y-58.547
X105.41Y-61.087
X105.41Y-63.627
X105.41Y-66.167
X105.41Y-68.707
X105.41Y-71.247
X105.41Y-73.787
X105.41Y-76.327
X105.41Y-78.867
X105.41Y-81.407
X105.41Y-83.947
X105.41Y-86.487
X105.41Y-89.027
X105.41Y-91.567
X105.41Y-94.107
X105.41Y-96.647
X105.41Y-99.187
X105.41Y-101.727
X105.41Y-104.267
X105.41Y-106.807
X105.41Y-109.347
X105.41Y-111.887
X105.41Y-114.427
X105.41Y-116.967
X105.41Y-119.507
X105.41Y-122.047
X105.41Y-124.587
X105.41Y-127.127
X105.41Y-129.667
X105.41Y-132.207
X105.41Y-134.747
X107.95Y-50.927
X107.95Y-53.467
X107.95Y-56.007
X107.95Y-58.547
X107.95Y-61.087
X107.95Y-63.627
X107.95Y-66.167
X107.95Y-68.707
X107.95Y-71.247
X107.95Y-73.787
X107.95Y-76.327
X107.95Y-78.867
X107.95Y-81.407
X107.95Y-83.947
X107.95Y-86.487
X107.95Y-89.027
X107.95Y-91.567
X107.95Y-94.107
X107.95Y-96.647
X107.95Y-99.187
X107.95Y-101.727
X107.95Y-104.267
X107.95Y-106.807
X107.95Y-109.347
X107.95Y-111.887
X107.95Y-114.427
X107.95Y-116.967
X107.95Y-119.507
X107.95Y-122.047
X107.95Y-124.587
X107.95Y-127.127
X107.95Y-129.667
X107.95Y-132.207
X107.95Y-134.747
X107.95Y-137.287
X107.95Y-139.827
X110.49Y-50.927
X110.49Y-53.467
X110.49Y-56.007
X110.49Y-58.547
X110.49Y-61.087
X110.49Y-63.627
X110.49Y-66.167
X110.49Y-68.707
X110.49Y-71.247
X110.49Y-73.787
X110.49Y-76.327
X110.49Y-78.867
X110.49Y-81.407
X110.49Y-83.947
X110.49Y-86.487
X110.49Y-89.027
X110.49Y-91.567
X110.49Y-94.107
X110.49Y-96.647
X110.49Y-99.187
X110.49Y-101.727
X110.49Y-104.267
X110.49Y-106.807
X110.49Y-109.347
X110.49Y-111.887
X110.49Y-114.427
X110.49Y-116.967
X110.49Y-119.507
X110.49Y-122.047
X110.49Y-124.587
X110.49Y-127.127
X110.49Y-129.667
X110.49Y-132.207
X110.49Y-134.747
X110.49Y-137.287
X110.49Y-139.827
X113.03Y-50.927
X113.03Y-53.467
X113.03Y-56.007
X113.03Y-58.547
X113.03Y-61.087
X113.03Y-63.627
X113.03Y-66.167
X113.03Y-68.707
X113.03Y-71.247
X113.03Y-73.787
X113.03Y-76.327
X113.03Y-78.867
X113.03Y-81.407
X113.03Y-83.947
X113.03Y-86.487
X113.03Y-89.027
X113.03Y-91.567
X113.03Y-94.107
X113.03Y-96.647
X113.03Y-99.187
X113.03Y-101.727
X113.03Y-104.267
X113.03Y-106.807
X113.03Y-109.347
X113.03Y-111.887
X113.03Y-114.427
X113.03Y-116.967
X113.03Y-119.507
X113.03Y-122.047
X113.03Y-124.587
X113.03Y-127.127
X113.03Y-129.667
X113.03Y-132.207
X113.03Y-134.747
X113.03Y-137.287
X113.03Y-139.827
X115.57Y-50.927
X115.57Y-53.467
X115.57Y-56.007
X115.57Y-58.547
X115.57Y-61.087
X115.57Y-63.627
X115.57Y-66.167
X115.57Y-68.707
X115.57Y-71.247
X115.57Y-73.787
X115.57Y-76.327
X115.57Y-78.867
X115.57Y-81.407
X115.57Y-83.947
X115.57Y-86.487
X115.57Y-89.027
X115.57Y-91.567
X115.57Y-94.107
X115.57Y-96.647
X115.57Y-99.187
X115.57Y-101.727
X115.57Y-104.267
X115.57Y-106.807
X115.57Y-109.347
X115.57Y-111.887
X115.57Y-114.427
X115.57Y-116.967
X115.57Y-119.507
X115.57Y-122.047
X115.57Y-124.587
X115.57Y-127.127
X115.57Y-129.667
X115.57Y-132.207
X115.57Y-134.747
X115.57Y-137.287
X115.57Y-139.827
X118.11Y-50.927
X118.11Y-53.467
X118.11Y-56.007
X118.11Y-58.547
X118.11Y-61.087
X118.11Y-63.627
X118.11Y-66.167
X118.11Y-68.707
X118.11Y-71.247
X118.11Y-73.787
X118.11Y-76.327
X118.11Y-78.867
X118.11Y-81.407
X118.11Y-83.947
X118.11Y-86.487
X118.11Y-89.027
X118.11Y-91.567
X118.11Y-94.107
X118.11Y-96.647
X118.11Y-99.187
X118.11Y-101.727
X118.11Y-104.267
X118.11Y-106.807
X118.11Y-109.347
X118.11Y-111.887
X118.11Y-114.427
X118.11Y-116.967
X118.11Y-119.507
X118.11Y-122.047
X118.11Y-124.587
X118.11Y-127.127
X118.11Y-129.667
X118.11Y-132.207
X118.11Y-134.747
X118.11Y-137.287
X118.11Y-139.827
X120.65Y-50.927
X120.65Y-53.467
X120.65Y-56.007
X120.65Y-58.547
X120.65Y-61.087
X120.65Y-63.627
X120.65Y-66.167
X120.65Y-68.707
X120.65Y-71.247
X120.65Y-73.787
X120.65Y-76.327
X120.65Y-78.867
X120.65Y-81.407
X120.65Y-83.947
X120.65Y-86.487
X120.65Y-89.027
X120.65Y-91.567
X120.65Y-94.107
X120.65Y-96.647
X120.65Y-99.187
X120.65Y-101.727
X120.65Y-104.267
X120.65Y-106.807
X120.65Y-109.347
X120.65Y-111.887
X120.65Y-114.427
X120.65Y-116.967
X120.65Y-119.507
X120.65Y-122.047
X120.65Y-124.587
X120.65Y-127.127
X120.65Y-129.667
X120.65Y-132.207
X120.65Y-134.747
X120.65Y-137.287
X120.65Y-139.827
X123.19Y-50.927
X123.19Y-53.467
X123.19Y-56.007
X123.19Y-58.547
X123.19Y-61.087
X123.19Y-63.627
X123.19Y-66.167
X123.19Y-68.707
X123.19Y-71.247
X123.19Y-73.787
X123.19Y-76.327
X123.19Y-78.867
X123.19Y-81.407
X123.19Y-83.947
X123.19Y-86.487
X123.19Y-89.027
X123.19Y-91.567
X123.19Y-94.107
X123.19Y-96.647
X123.19Y-99.187
X123.19Y-101.727
X123.19Y-104.267
X123.19Y-106.807
X123.19Y-109.347
X123.19Y-111.887
X123.19Y-114.427
X123.19Y-116.967
X123.19Y-119.507
X123.19Y-122.047
X123.19Y-124.587
X123.19Y-127.127
X123.19Y-129.667
X123.19Y-132.207
X123.19Y-134.747
X123.19Y-137.287
X123.19Y-139.827
X125.73Y-50.927
X125.73Y-53.467
X125.73Y-56.007
X125.73Y-58.547
X125.73Y-61.087
X125.73Y-63.627
X125.73Y-66.167
X125.73Y-68.707
X125.73Y-71.247
X125.73Y-73.787
X125.73Y-76.327
X125.73Y-78.867
X125.73Y-81.407
X125.73Y-83.947
X125.73Y-86.487
X125.73Y-89.027
X125.73Y-91.567
X125.73Y-94.107
X125.73Y-96.647
X125.73Y-99.187
X125.73Y-101.727
X125.73Y-104.267
X125.73Y-106.807
X125.73Y-109.347
X125.73Y-111.887
X125.73Y-114.427
X125.73Y-116.967
X125.73Y-119.507
X125.73Y-122.047
X125.73Y-124.587
X125.73Y-127.127
X125.73Y-129.667
X125.73Y-132.207
X125.73Y-134.747
X125.73Y-137.287
X125.73Y-139.827
X128.27Y-50.927
X128.27Y-53.467
X128.27Y-56.007
X128.27Y-58.547
X128.27Y-61.087
X128.27Y-63.627
X128.27Y-66.167
X128.27Y-68.707
X128.27Y-71.247
X128.27Y-73.787
X128.27Y-76.327
X128.27Y-78.867
X128.27Y-81.407
X128.27Y-83.947
X128.27Y-86.487
X128.27Y-89.027
X128.27Y-91.567
X128.27Y-94.107
X128.27Y-96.647
X128.27Y-99.187
X128.27Y-101.727
X128.27Y-104.267
X128.27Y-106.807
X128.27Y-109.347
X128.27Y-111.887
X128.27Y-114.427
X128.27Y-116.967
X128.27Y-119.507
X128.27Y-122.047
X128.27Y-124.587
X128.27Y-127.127
X128.27Y-129.667
X128.27Y-132.207
X128.27Y-134.747
X128.27Y-137.287
X128.27Y-139.827
X130.81Y-50.927
X130.81Y-53.467
X130.81Y-56.007
X130.81Y-58.547
X130.81Y-61.087
X130.81Y-63.627
X130.81Y-66.167
X130.81Y-68.707
X130.81Y-71.247
X130.81Y-73.787
X130.81Y-76.327
X130.81Y-78.867
X130.81Y-81.407
X130.81Y-83.947
X130.81Y-86.487
X130.81Y-89.027
X130.81Y-91.567
X130.81Y-94.107
X130.81Y-96.647
X130.81Y-99.187
X130.81Y-101.727
X130.81Y-104.267
X130.81Y-106.807
X130.81Y-109.347
X130.81Y-111.887
X130.81Y-114.427
X130.81Y-116.967
X130.81Y-119.507
X130.81Y-122.047
X130.81Y-124.587
X130.81Y-127.127
X130.81Y-129.667
X130.81Y-132.207
X130.81Y-134.747
X130.81Y-137.287
X130.81Y-139.827
X133.68Y-59.919
X133.68Y-62.738
X136.373Y-101.432
X136.373Y-116.672
X138.146Y-81.869
X138.146Y-97.109
X138.913Y-101.432
X138.913Y-116.672
X140.686Y-81.869
X140.686Y-91.775
X140.686Y-97.109
X140.686Y-107.015
X141.453Y-101.432
X141.453Y-116.672
X143.226Y-81.869
X143.226Y-91.775
X143.226Y-97.109
X143.226Y-107.015
X143.993Y-101.432
X143.993Y-116.672
X145.212Y-62.117
X145.212Y-66.167
X145.766Y-81.869
X145.766Y-91.775
X145.766Y-97.109
X145.766Y-107.015
X146.533Y-101.432
X146.533Y-116.672
X148.306Y-81.869
X148.306Y-91.775
X148.306Y-97.109
X148.306Y-107.015
X149.073Y-101.432
X149.073Y-116.672
X150.846Y-81.869
X150.846Y-91.775
X150.846Y-97.109
X150.846Y-107.015
X151.613Y-101.432
X151.613Y-116.672
X153.386Y-81.869
X153.386Y-91.775
X153.386Y-97.109
X153.386Y-107.015
X154.153Y-101.432
X154.153Y-116.672
X155.926Y-81.869
X155.926Y-91.775
X155.926Y-97.109
X155.926Y-107.015
X156.693Y-101.432
X156.693Y-116.672
X158.466Y-81.869
X158.466Y-91.775
X158.466Y-97.109
X158.466Y-107.015
X159.233Y-101.432
X159.233Y-116.672
X161.006Y-81.869
X161.006Y-91.775
X161.006Y-97.109
X161.006Y-107.015
X161.773Y-101.432
X161.773Y-116.672
X163.546Y-81.869
X163.546Y-91.775
X163.546Y-97.109
X163.546Y-107.015
X164.313Y-101.432
X164.313Y-116.672
X165.862Y-121.412
X165.862Y-129.032
X166.086Y-81.869
X166.086Y-91.775
X166.086Y-97.109
X166.086Y-107.015
X166.853Y-101.432
X166.853Y-116.672
X168.402Y-121.412
X168.402Y-129.032
X168.626Y-81.869
X168.626Y-91.775
X168.626Y-97.109
X168.626Y-107.015
X169.393Y-101.432
X169.393Y-116.672
X170.942Y-121.412
X170.942Y-129.032
X171.166Y-81.869
X171.166Y-97.109
X171.933Y-101.432
X171.933Y-116.672
X173.482Y-121.412
X173.482Y-129.032
X174.473Y-101.432
X174.473Y-116.672
X176.022Y-121.412
X176.022Y-129.032
X177.013Y-101.432
X177.013Y-116.672
X178.562Y-121.412
X178.562Y-129.032
X179.553Y-101.432
X179.553Y-116.672
X181.102Y-121.412
X181.102Y-129.032
X182.093Y-101.432
X182.093Y-116.672
X184.633Y-101.432
X184.633Y-116.672
X188.189Y-130.404
T3
X106.68Y-48.26
X107.917Y-142.389
X109.22Y-48.26
X110.457Y-142.389
X111.76Y-48.26
X112.997Y-142.389
X114.3Y-48.26
X115.537Y-142.389
X116.84Y-48.26
X118.077Y-142.389
X119.38Y-48.26
X120.617Y-142.389
X121.92Y-48.26
X123.157Y-142.389
X124.46Y-48.26
X125.697Y-142.389
X127.0Y-48.26
X128.237Y-142.389
X129.54Y-48.26
X130.777Y-142.389
X132.08Y-48.26
X133.317Y-142.389
X134.62Y-48.26
X135.857Y-142.389
X136.017Y-120.904
X136.017Y-123.444
X136.017Y-125.984
X136.017Y-128.524
X139.7Y-48.303
X139.7Y-50.843
X139.7Y-54.303
X139.7Y-56.843
X139.7Y-133.849
X139.7Y-136.389
X139.7Y-139.849
X139.7Y-142.389
X141.702Y-121.239
X142.24Y-48.303
X142.24Y-50.843
X142.24Y-54.303
X142.24Y-56.843
X142.24Y-133.849
X142.24Y-136.389
X142.24Y-139.849
X142.24Y-142.389
X144.242Y-121.239
X144.78Y-48.303
X144.78Y-50.843
X144.78Y-54.303
X144.78Y-56.843
X144.78Y-133.849
X144.78Y-136.389
X144.78Y-139.849
X144.78Y-142.389
X146.782Y-121.239
X147.32Y-48.303
X147.32Y-50.843
X147.32Y-54.303
X147.32Y-56.843
X147.32Y-133.849
X147.32Y-136.389
X147.32Y-139.849
X147.32Y-142.389
X149.86Y-48.303
X149.86Y-50.843
X149.86Y-54.303
X149.86Y-56.843
X149.86Y-133.849
X149.86Y-136.389
X149.86Y-139.849
X149.86Y-142.389
X152.4Y-48.303
X152.4Y-50.843
X152.4Y-54.303
X152.4Y-56.843
X152.4Y-133.849
X152.4Y-136.389
X152.4Y-139.849
X152.4Y-142.389
X154.94Y-48.303
X154.94Y-50.843
X154.94Y-54.303
X154.94Y-56.843
X154.94Y-133.849
X154.94Y-136.389
X154.94Y-139.849
X154.94Y-142.389
X155.926Y-78.567
X157.48Y-48.303
X157.48Y-50.843
X157.48Y-54.303
X157.48Y-56.843
X157.48Y-133.849
X157.48Y-136.389
X157.48Y-139.849
X157.48Y-142.389
X158.466Y-78.567
X159.385Y-130.175
X160.02Y-48.303
X160.02Y-50.843
X160.02Y-54.303
X160.02Y-56.843
X160.02Y-133.849
X160.02Y-136.389
X160.02Y-139.849
X160.02Y-142.389
X161.006Y-78.567
X161.925Y-130.175
X162.56Y-48.303
X162.56Y-50.843
X162.56Y-54.303
X162.56Y-56.843
X162.56Y-133.849
X162.56Y-136.389
X162.56Y-139.849
X162.56Y-142.389
X165.1Y-48.303
X165.1Y-50.843
X165.1Y-54.303
X165.1Y-56.843
X165.1Y-133.849
X165.1Y-136.389
X165.1Y-139.849
X165.1Y-142.389
X167.64Y-48.303
X167.64Y-50.843
X167.64Y-54.303
X167.64Y-56.843
X167.64Y-133.849
X167.64Y-136.389
X167.64Y-139.849
X167.64Y-142.389
X170.18Y-48.303
X170.18Y-50.843
X170.18Y-54.303
X170.18Y-56.843
X170.18Y-133.849
X170.18Y-136.389
X170.18Y-139.849
X170.18Y-142.389
X172.72Y-48.303
X172.72Y-50.843
X172.72Y-54.303
X172.72Y-56.843
X172.72Y-133.849
X172.72Y-136.389
X172.72Y-139.849
X172.72Y-142.389
X175.26Y-48.303
X175.26Y-50.843
X175.26Y-54.303
X175.26Y-56.843
X175.26Y-133.849
X175.26Y-136.389
X175.26Y-139.849
X175.26Y-142.389
X177.8Y-48.303
X177.8Y-50.843
X177.8Y-54.303
X177.8Y-56.843
X177.8Y-133.849
X177.8Y-136.389
X177.8Y-139.849
X177.8Y-142.389
X178.024Y-87.965
X178.024Y-90.505
X178.024Y-93.045
X178.024Y-95.585
X180.34Y-48.303
X180.34Y-50.843
X180.34Y-54.303
X180.34Y-56.843
X180.34Y-133.849
X180.34Y-136.389
X180.34Y-139.849
X180.34Y-142.389
X180.564Y-87.965
X180.564Y-90.505
X180.564Y-93.045
X180.564Y-95.585
X182.88Y-48.303
X182.88Y-50.843
X182.88Y-54.303
X182.88Y-56.843
X182.88Y-133.849
X182.88Y-136.389
X182.88Y-139.849
X182.88Y-142.389
X183.104Y-87.965
X183.104Y-90.505
X183.104Y-93.045
X183.104Y-95.585
X185.42Y-48.303
X185.42Y-50.843
X185.42Y-54.303
X185.42Y-56.843
X185.42Y-133.849
X185.42Y-136.389
X185.42Y-139.849
X185.42Y-142.389
X187.96Y-48.303
X187.96Y-50.843
X187.96Y-54.303
X187.96Y-56.843
X187.96Y-133.849
X187.96Y-136.389
X187.96Y-139.849
X187.96Y-142.389
T4
X101.34Y-49.346
X101.34Y-141.346
X193.34Y-49.346
X193.34Y-141.346
T0
M30
