%TF.GenerationSoftware,KiCad,Pcbnew,7.0.5-7.0.5~ubuntu20.04.1*%
%TF.CreationDate,2023-07-18T14:03:02+02:00*%
%TF.ProjectId,MOS MultiSerial_ram,4d4f5320-4d75-46c7-9469-53657269616c,rev?*%
%TF.SameCoordinates,Original*%
%TF.FileFunction,Legend,Top*%
%TF.FilePolarity,Positive*%
%FSLAX46Y46*%
G04 Gerber Fmt 4.6, Leading zero omitted, Abs format (unit mm)*
G04 Created by KiCad (PCBNEW 7.0.5-7.0.5~ubuntu20.04.1) date 2023-07-18 14:03:02*
%MOMM*%
%LPD*%
G01*
G04 APERTURE LIST*
%ADD10C,0.150000*%
%ADD11C,0.300000*%
%ADD12C,0.120000*%
G04 APERTURE END LIST*
D10*
X177739922Y-118757819D02*
X178311350Y-118757819D01*
X178025636Y-119757819D02*
X178025636Y-118757819D01*
X178549446Y-118757819D02*
X179216112Y-119757819D01*
X179216112Y-118757819D02*
X178549446Y-119757819D01*
X177744684Y-118480200D02*
X179258970Y-118480200D01*
D11*
X185828147Y-88957828D02*
X185328147Y-88243542D01*
X184971004Y-88957828D02*
X184971004Y-87457828D01*
X184971004Y-87457828D02*
X185542433Y-87457828D01*
X185542433Y-87457828D02*
X185685290Y-87529257D01*
X185685290Y-87529257D02*
X185756719Y-87600685D01*
X185756719Y-87600685D02*
X185828147Y-87743542D01*
X185828147Y-87743542D02*
X185828147Y-87957828D01*
X185828147Y-87957828D02*
X185756719Y-88100685D01*
X185756719Y-88100685D02*
X185685290Y-88172114D01*
X185685290Y-88172114D02*
X185542433Y-88243542D01*
X185542433Y-88243542D02*
X184971004Y-88243542D01*
X186328147Y-87457828D02*
X187328147Y-88957828D01*
X187328147Y-87457828D02*
X186328147Y-88957828D01*
X189399575Y-89457828D02*
X189399575Y-87314971D01*
X191256718Y-88957828D02*
X190399575Y-88957828D01*
X190828146Y-88957828D02*
X190828146Y-87457828D01*
X190828146Y-87457828D02*
X190685289Y-87672114D01*
X190685289Y-87672114D02*
X190542432Y-87814971D01*
X190542432Y-87814971D02*
X190399575Y-87886400D01*
X185828147Y-91372828D02*
X185328147Y-90658542D01*
X184971004Y-91372828D02*
X184971004Y-89872828D01*
X184971004Y-89872828D02*
X185542433Y-89872828D01*
X185542433Y-89872828D02*
X185685290Y-89944257D01*
X185685290Y-89944257D02*
X185756719Y-90015685D01*
X185756719Y-90015685D02*
X185828147Y-90158542D01*
X185828147Y-90158542D02*
X185828147Y-90372828D01*
X185828147Y-90372828D02*
X185756719Y-90515685D01*
X185756719Y-90515685D02*
X185685290Y-90587114D01*
X185685290Y-90587114D02*
X185542433Y-90658542D01*
X185542433Y-90658542D02*
X184971004Y-90658542D01*
X186328147Y-89872828D02*
X187328147Y-91372828D01*
X187328147Y-89872828D02*
X186328147Y-91372828D01*
X189399575Y-91872828D02*
X189399575Y-89729971D01*
X190399575Y-90015685D02*
X190471003Y-89944257D01*
X190471003Y-89944257D02*
X190613861Y-89872828D01*
X190613861Y-89872828D02*
X190971003Y-89872828D01*
X190971003Y-89872828D02*
X191113861Y-89944257D01*
X191113861Y-89944257D02*
X191185289Y-90015685D01*
X191185289Y-90015685D02*
X191256718Y-90158542D01*
X191256718Y-90158542D02*
X191256718Y-90301400D01*
X191256718Y-90301400D02*
X191185289Y-90515685D01*
X191185289Y-90515685D02*
X190328146Y-91372828D01*
X190328146Y-91372828D02*
X191256718Y-91372828D01*
X185113862Y-92287828D02*
X185971005Y-92287828D01*
X185542433Y-93787828D02*
X185542433Y-92287828D01*
X186328147Y-92287828D02*
X187328147Y-93787828D01*
X187328147Y-92287828D02*
X186328147Y-93787828D01*
X189399575Y-94287828D02*
X189399575Y-92144971D01*
X190328146Y-92287828D02*
X191256718Y-92287828D01*
X191256718Y-92287828D02*
X190756718Y-92859257D01*
X190756718Y-92859257D02*
X190971003Y-92859257D01*
X190971003Y-92859257D02*
X191113861Y-92930685D01*
X191113861Y-92930685D02*
X191185289Y-93002114D01*
X191185289Y-93002114D02*
X191256718Y-93144971D01*
X191256718Y-93144971D02*
X191256718Y-93502114D01*
X191256718Y-93502114D02*
X191185289Y-93644971D01*
X191185289Y-93644971D02*
X191113861Y-93716400D01*
X191113861Y-93716400D02*
X190971003Y-93787828D01*
X190971003Y-93787828D02*
X190542432Y-93787828D01*
X190542432Y-93787828D02*
X190399575Y-93716400D01*
X190399575Y-93716400D02*
X190328146Y-93644971D01*
X185113862Y-94702828D02*
X185971005Y-94702828D01*
X185542433Y-96202828D02*
X185542433Y-94702828D01*
X186328147Y-94702828D02*
X187328147Y-96202828D01*
X187328147Y-94702828D02*
X186328147Y-96202828D01*
X189399575Y-96702828D02*
X189399575Y-94559971D01*
X191113861Y-95202828D02*
X191113861Y-96202828D01*
X190756718Y-94631400D02*
X190399575Y-95702828D01*
X190399575Y-95702828D02*
X191328146Y-95702828D01*
D10*
X180533922Y-118757819D02*
X181105350Y-118757819D01*
X180819636Y-119757819D02*
X180819636Y-118757819D01*
X181343446Y-118757819D02*
X182010112Y-119757819D01*
X182010112Y-118757819D02*
X181343446Y-119757819D01*
X194128219Y-108537163D02*
X194366314Y-108537163D01*
X194271076Y-108775258D02*
X194366314Y-108537163D01*
X194366314Y-108537163D02*
X194271076Y-108299068D01*
X194556790Y-108680020D02*
X194366314Y-108537163D01*
X194366314Y-108537163D02*
X194556790Y-108394306D01*
X194128219Y-107918115D02*
X194937742Y-107918115D01*
X194937742Y-107918115D02*
X195032980Y-107870496D01*
X195032980Y-107870496D02*
X195080600Y-107822877D01*
X195080600Y-107822877D02*
X195128219Y-107727639D01*
X195128219Y-107727639D02*
X195128219Y-107537163D01*
X195128219Y-107537163D02*
X195080600Y-107441925D01*
X195080600Y-107441925D02*
X195032980Y-107394306D01*
X195032980Y-107394306D02*
X194937742Y-107346687D01*
X194937742Y-107346687D02*
X194128219Y-107346687D01*
X194461552Y-106870496D02*
X195128219Y-106870496D01*
X194556790Y-106870496D02*
X194509171Y-106822877D01*
X194509171Y-106822877D02*
X194461552Y-106727639D01*
X194461552Y-106727639D02*
X194461552Y-106584782D01*
X194461552Y-106584782D02*
X194509171Y-106489544D01*
X194509171Y-106489544D02*
X194604409Y-106441925D01*
X194604409Y-106441925D02*
X195128219Y-106441925D01*
X195128219Y-105965734D02*
X194461552Y-105965734D01*
X194128219Y-105965734D02*
X194175838Y-106013353D01*
X194175838Y-106013353D02*
X194223457Y-105965734D01*
X194223457Y-105965734D02*
X194175838Y-105918115D01*
X194175838Y-105918115D02*
X194128219Y-105965734D01*
X194128219Y-105965734D02*
X194223457Y-105965734D01*
X195080600Y-105060973D02*
X195128219Y-105156211D01*
X195128219Y-105156211D02*
X195128219Y-105346687D01*
X195128219Y-105346687D02*
X195080600Y-105441925D01*
X195080600Y-105441925D02*
X195032980Y-105489544D01*
X195032980Y-105489544D02*
X194937742Y-105537163D01*
X194937742Y-105537163D02*
X194652028Y-105537163D01*
X194652028Y-105537163D02*
X194556790Y-105489544D01*
X194556790Y-105489544D02*
X194509171Y-105441925D01*
X194509171Y-105441925D02*
X194461552Y-105346687D01*
X194461552Y-105346687D02*
X194461552Y-105156211D01*
X194461552Y-105156211D02*
X194509171Y-105060973D01*
X195128219Y-104489544D02*
X195080600Y-104584782D01*
X195080600Y-104584782D02*
X195032980Y-104632401D01*
X195032980Y-104632401D02*
X194937742Y-104680020D01*
X194937742Y-104680020D02*
X194652028Y-104680020D01*
X194652028Y-104680020D02*
X194556790Y-104632401D01*
X194556790Y-104632401D02*
X194509171Y-104584782D01*
X194509171Y-104584782D02*
X194461552Y-104489544D01*
X194461552Y-104489544D02*
X194461552Y-104346687D01*
X194461552Y-104346687D02*
X194509171Y-104251449D01*
X194509171Y-104251449D02*
X194556790Y-104203830D01*
X194556790Y-104203830D02*
X194652028Y-104156211D01*
X194652028Y-104156211D02*
X194937742Y-104156211D01*
X194937742Y-104156211D02*
X195032980Y-104203830D01*
X195032980Y-104203830D02*
X195080600Y-104251449D01*
X195080600Y-104251449D02*
X195128219Y-104346687D01*
X195128219Y-104346687D02*
X195128219Y-104489544D01*
X195128219Y-103727639D02*
X194461552Y-103727639D01*
X194556790Y-103727639D02*
X194509171Y-103680020D01*
X194509171Y-103680020D02*
X194461552Y-103584782D01*
X194461552Y-103584782D02*
X194461552Y-103441925D01*
X194461552Y-103441925D02*
X194509171Y-103346687D01*
X194509171Y-103346687D02*
X194604409Y-103299068D01*
X194604409Y-103299068D02*
X195128219Y-103299068D01*
X194604409Y-103299068D02*
X194509171Y-103251449D01*
X194509171Y-103251449D02*
X194461552Y-103156211D01*
X194461552Y-103156211D02*
X194461552Y-103013354D01*
X194461552Y-103013354D02*
X194509171Y-102918115D01*
X194509171Y-102918115D02*
X194604409Y-102870496D01*
X194604409Y-102870496D02*
X195128219Y-102870496D01*
X194461552Y-102394306D02*
X195461552Y-102394306D01*
X194509171Y-102394306D02*
X194461552Y-102299068D01*
X194461552Y-102299068D02*
X194461552Y-102108592D01*
X194461552Y-102108592D02*
X194509171Y-102013354D01*
X194509171Y-102013354D02*
X194556790Y-101965735D01*
X194556790Y-101965735D02*
X194652028Y-101918116D01*
X194652028Y-101918116D02*
X194937742Y-101918116D01*
X194937742Y-101918116D02*
X195032980Y-101965735D01*
X195032980Y-101965735D02*
X195080600Y-102013354D01*
X195080600Y-102013354D02*
X195128219Y-102108592D01*
X195128219Y-102108592D02*
X195128219Y-102299068D01*
X195128219Y-102299068D02*
X195080600Y-102394306D01*
X194461552Y-100822877D02*
X195128219Y-100584782D01*
X195128219Y-100584782D02*
X194461552Y-100346687D01*
X194223457Y-100013353D02*
X194175838Y-99965734D01*
X194175838Y-99965734D02*
X194128219Y-99870496D01*
X194128219Y-99870496D02*
X194128219Y-99632401D01*
X194128219Y-99632401D02*
X194175838Y-99537163D01*
X194175838Y-99537163D02*
X194223457Y-99489544D01*
X194223457Y-99489544D02*
X194318695Y-99441925D01*
X194318695Y-99441925D02*
X194413933Y-99441925D01*
X194413933Y-99441925D02*
X194556790Y-99489544D01*
X194556790Y-99489544D02*
X195128219Y-100060972D01*
X195128219Y-100060972D02*
X195128219Y-99441925D01*
X194128219Y-98870496D02*
X194366314Y-98870496D01*
X194271076Y-99108591D02*
X194366314Y-98870496D01*
X194366314Y-98870496D02*
X194271076Y-98632401D01*
X194556790Y-99013353D02*
X194366314Y-98870496D01*
X194366314Y-98870496D02*
X194556790Y-98727639D01*
X196738219Y-108680020D02*
X195738219Y-108680020D01*
X195738219Y-108680020D02*
X196452504Y-108346687D01*
X196452504Y-108346687D02*
X195738219Y-108013354D01*
X195738219Y-108013354D02*
X196738219Y-108013354D01*
X195738219Y-107346687D02*
X195738219Y-107156211D01*
X195738219Y-107156211D02*
X195785838Y-107060973D01*
X195785838Y-107060973D02*
X195881076Y-106965735D01*
X195881076Y-106965735D02*
X196071552Y-106918116D01*
X196071552Y-106918116D02*
X196404885Y-106918116D01*
X196404885Y-106918116D02*
X196595361Y-106965735D01*
X196595361Y-106965735D02*
X196690600Y-107060973D01*
X196690600Y-107060973D02*
X196738219Y-107156211D01*
X196738219Y-107156211D02*
X196738219Y-107346687D01*
X196738219Y-107346687D02*
X196690600Y-107441925D01*
X196690600Y-107441925D02*
X196595361Y-107537163D01*
X196595361Y-107537163D02*
X196404885Y-107584782D01*
X196404885Y-107584782D02*
X196071552Y-107584782D01*
X196071552Y-107584782D02*
X195881076Y-107537163D01*
X195881076Y-107537163D02*
X195785838Y-107441925D01*
X195785838Y-107441925D02*
X195738219Y-107346687D01*
X196690600Y-106537163D02*
X196738219Y-106394306D01*
X196738219Y-106394306D02*
X196738219Y-106156211D01*
X196738219Y-106156211D02*
X196690600Y-106060973D01*
X196690600Y-106060973D02*
X196642980Y-106013354D01*
X196642980Y-106013354D02*
X196547742Y-105965735D01*
X196547742Y-105965735D02*
X196452504Y-105965735D01*
X196452504Y-105965735D02*
X196357266Y-106013354D01*
X196357266Y-106013354D02*
X196309647Y-106060973D01*
X196309647Y-106060973D02*
X196262028Y-106156211D01*
X196262028Y-106156211D02*
X196214409Y-106346687D01*
X196214409Y-106346687D02*
X196166790Y-106441925D01*
X196166790Y-106441925D02*
X196119171Y-106489544D01*
X196119171Y-106489544D02*
X196023933Y-106537163D01*
X196023933Y-106537163D02*
X195928695Y-106537163D01*
X195928695Y-106537163D02*
X195833457Y-106489544D01*
X195833457Y-106489544D02*
X195785838Y-106441925D01*
X195785838Y-106441925D02*
X195738219Y-106346687D01*
X195738219Y-106346687D02*
X195738219Y-106108592D01*
X195738219Y-106108592D02*
X195785838Y-105965735D01*
X196738219Y-104775258D02*
X195738219Y-104775258D01*
X195738219Y-104775258D02*
X196452504Y-104441925D01*
X196452504Y-104441925D02*
X195738219Y-104108592D01*
X195738219Y-104108592D02*
X196738219Y-104108592D01*
X196071552Y-103203830D02*
X196738219Y-103203830D01*
X196071552Y-103632401D02*
X196595361Y-103632401D01*
X196595361Y-103632401D02*
X196690600Y-103584782D01*
X196690600Y-103584782D02*
X196738219Y-103489544D01*
X196738219Y-103489544D02*
X196738219Y-103346687D01*
X196738219Y-103346687D02*
X196690600Y-103251449D01*
X196690600Y-103251449D02*
X196642980Y-103203830D01*
X196738219Y-102584782D02*
X196690600Y-102680020D01*
X196690600Y-102680020D02*
X196595361Y-102727639D01*
X196595361Y-102727639D02*
X195738219Y-102727639D01*
X196071552Y-102346686D02*
X196071552Y-101965734D01*
X195738219Y-102203829D02*
X196595361Y-102203829D01*
X196595361Y-102203829D02*
X196690600Y-102156210D01*
X196690600Y-102156210D02*
X196738219Y-102060972D01*
X196738219Y-102060972D02*
X196738219Y-101965734D01*
X196738219Y-101632400D02*
X196071552Y-101632400D01*
X195738219Y-101632400D02*
X195785838Y-101680019D01*
X195785838Y-101680019D02*
X195833457Y-101632400D01*
X195833457Y-101632400D02*
X195785838Y-101584781D01*
X195785838Y-101584781D02*
X195738219Y-101632400D01*
X195738219Y-101632400D02*
X195833457Y-101632400D01*
X196690600Y-100441924D02*
X196738219Y-100299067D01*
X196738219Y-100299067D02*
X196738219Y-100060972D01*
X196738219Y-100060972D02*
X196690600Y-99965734D01*
X196690600Y-99965734D02*
X196642980Y-99918115D01*
X196642980Y-99918115D02*
X196547742Y-99870496D01*
X196547742Y-99870496D02*
X196452504Y-99870496D01*
X196452504Y-99870496D02*
X196357266Y-99918115D01*
X196357266Y-99918115D02*
X196309647Y-99965734D01*
X196309647Y-99965734D02*
X196262028Y-100060972D01*
X196262028Y-100060972D02*
X196214409Y-100251448D01*
X196214409Y-100251448D02*
X196166790Y-100346686D01*
X196166790Y-100346686D02*
X196119171Y-100394305D01*
X196119171Y-100394305D02*
X196023933Y-100441924D01*
X196023933Y-100441924D02*
X195928695Y-100441924D01*
X195928695Y-100441924D02*
X195833457Y-100394305D01*
X195833457Y-100394305D02*
X195785838Y-100346686D01*
X195785838Y-100346686D02*
X195738219Y-100251448D01*
X195738219Y-100251448D02*
X195738219Y-100013353D01*
X195738219Y-100013353D02*
X195785838Y-99870496D01*
X196690600Y-99060972D02*
X196738219Y-99156210D01*
X196738219Y-99156210D02*
X196738219Y-99346686D01*
X196738219Y-99346686D02*
X196690600Y-99441924D01*
X196690600Y-99441924D02*
X196595361Y-99489543D01*
X196595361Y-99489543D02*
X196214409Y-99489543D01*
X196214409Y-99489543D02*
X196119171Y-99441924D01*
X196119171Y-99441924D02*
X196071552Y-99346686D01*
X196071552Y-99346686D02*
X196071552Y-99156210D01*
X196071552Y-99156210D02*
X196119171Y-99060972D01*
X196119171Y-99060972D02*
X196214409Y-99013353D01*
X196214409Y-99013353D02*
X196309647Y-99013353D01*
X196309647Y-99013353D02*
X196404885Y-99489543D01*
X196738219Y-98584781D02*
X196071552Y-98584781D01*
X196262028Y-98584781D02*
X196166790Y-98537162D01*
X196166790Y-98537162D02*
X196119171Y-98489543D01*
X196119171Y-98489543D02*
X196071552Y-98394305D01*
X196071552Y-98394305D02*
X196071552Y-98299067D01*
X196738219Y-97965733D02*
X196071552Y-97965733D01*
X195738219Y-97965733D02*
X195785838Y-98013352D01*
X195785838Y-98013352D02*
X195833457Y-97965733D01*
X195833457Y-97965733D02*
X195785838Y-97918114D01*
X195785838Y-97918114D02*
X195738219Y-97965733D01*
X195738219Y-97965733D02*
X195833457Y-97965733D01*
X196738219Y-97060972D02*
X196214409Y-97060972D01*
X196214409Y-97060972D02*
X196119171Y-97108591D01*
X196119171Y-97108591D02*
X196071552Y-97203829D01*
X196071552Y-97203829D02*
X196071552Y-97394305D01*
X196071552Y-97394305D02*
X196119171Y-97489543D01*
X196690600Y-97060972D02*
X196738219Y-97156210D01*
X196738219Y-97156210D02*
X196738219Y-97394305D01*
X196738219Y-97394305D02*
X196690600Y-97489543D01*
X196690600Y-97489543D02*
X196595361Y-97537162D01*
X196595361Y-97537162D02*
X196500123Y-97537162D01*
X196500123Y-97537162D02*
X196404885Y-97489543D01*
X196404885Y-97489543D02*
X196357266Y-97394305D01*
X196357266Y-97394305D02*
X196357266Y-97156210D01*
X196357266Y-97156210D02*
X196309647Y-97060972D01*
X196738219Y-96441924D02*
X196690600Y-96537162D01*
X196690600Y-96537162D02*
X196595361Y-96584781D01*
X196595361Y-96584781D02*
X195738219Y-96584781D01*
X196214409Y-94965733D02*
X196262028Y-94822876D01*
X196262028Y-94822876D02*
X196309647Y-94775257D01*
X196309647Y-94775257D02*
X196404885Y-94727638D01*
X196404885Y-94727638D02*
X196547742Y-94727638D01*
X196547742Y-94727638D02*
X196642980Y-94775257D01*
X196642980Y-94775257D02*
X196690600Y-94822876D01*
X196690600Y-94822876D02*
X196738219Y-94918114D01*
X196738219Y-94918114D02*
X196738219Y-95299066D01*
X196738219Y-95299066D02*
X195738219Y-95299066D01*
X195738219Y-95299066D02*
X195738219Y-94965733D01*
X195738219Y-94965733D02*
X195785838Y-94870495D01*
X195785838Y-94870495D02*
X195833457Y-94822876D01*
X195833457Y-94822876D02*
X195928695Y-94775257D01*
X195928695Y-94775257D02*
X196023933Y-94775257D01*
X196023933Y-94775257D02*
X196119171Y-94822876D01*
X196119171Y-94822876D02*
X196166790Y-94870495D01*
X196166790Y-94870495D02*
X196214409Y-94965733D01*
X196214409Y-94965733D02*
X196214409Y-95299066D01*
X196738219Y-94156209D02*
X196690600Y-94251447D01*
X196690600Y-94251447D02*
X196642980Y-94299066D01*
X196642980Y-94299066D02*
X196547742Y-94346685D01*
X196547742Y-94346685D02*
X196262028Y-94346685D01*
X196262028Y-94346685D02*
X196166790Y-94299066D01*
X196166790Y-94299066D02*
X196119171Y-94251447D01*
X196119171Y-94251447D02*
X196071552Y-94156209D01*
X196071552Y-94156209D02*
X196071552Y-94013352D01*
X196071552Y-94013352D02*
X196119171Y-93918114D01*
X196119171Y-93918114D02*
X196166790Y-93870495D01*
X196166790Y-93870495D02*
X196262028Y-93822876D01*
X196262028Y-93822876D02*
X196547742Y-93822876D01*
X196547742Y-93822876D02*
X196642980Y-93870495D01*
X196642980Y-93870495D02*
X196690600Y-93918114D01*
X196690600Y-93918114D02*
X196738219Y-94013352D01*
X196738219Y-94013352D02*
X196738219Y-94156209D01*
X196738219Y-92965733D02*
X196214409Y-92965733D01*
X196214409Y-92965733D02*
X196119171Y-93013352D01*
X196119171Y-93013352D02*
X196071552Y-93108590D01*
X196071552Y-93108590D02*
X196071552Y-93299066D01*
X196071552Y-93299066D02*
X196119171Y-93394304D01*
X196690600Y-92965733D02*
X196738219Y-93060971D01*
X196738219Y-93060971D02*
X196738219Y-93299066D01*
X196738219Y-93299066D02*
X196690600Y-93394304D01*
X196690600Y-93394304D02*
X196595361Y-93441923D01*
X196595361Y-93441923D02*
X196500123Y-93441923D01*
X196500123Y-93441923D02*
X196404885Y-93394304D01*
X196404885Y-93394304D02*
X196357266Y-93299066D01*
X196357266Y-93299066D02*
X196357266Y-93060971D01*
X196357266Y-93060971D02*
X196309647Y-92965733D01*
X196738219Y-92489542D02*
X196071552Y-92489542D01*
X196262028Y-92489542D02*
X196166790Y-92441923D01*
X196166790Y-92441923D02*
X196119171Y-92394304D01*
X196119171Y-92394304D02*
X196071552Y-92299066D01*
X196071552Y-92299066D02*
X196071552Y-92203828D01*
X196738219Y-91441923D02*
X195738219Y-91441923D01*
X196690600Y-91441923D02*
X196738219Y-91537161D01*
X196738219Y-91537161D02*
X196738219Y-91727637D01*
X196738219Y-91727637D02*
X196690600Y-91822875D01*
X196690600Y-91822875D02*
X196642980Y-91870494D01*
X196642980Y-91870494D02*
X196547742Y-91918113D01*
X196547742Y-91918113D02*
X196262028Y-91918113D01*
X196262028Y-91918113D02*
X196166790Y-91870494D01*
X196166790Y-91870494D02*
X196119171Y-91822875D01*
X196119171Y-91822875D02*
X196071552Y-91727637D01*
X196071552Y-91727637D02*
X196071552Y-91537161D01*
X196071552Y-91537161D02*
X196119171Y-91441923D01*
X196071552Y-90299065D02*
X196738219Y-90060970D01*
X196738219Y-90060970D02*
X196071552Y-89822875D01*
X196738219Y-88918113D02*
X196738219Y-89489541D01*
X196738219Y-89203827D02*
X195738219Y-89203827D01*
X195738219Y-89203827D02*
X195881076Y-89299065D01*
X195881076Y-89299065D02*
X195976314Y-89394303D01*
X195976314Y-89394303D02*
X196023933Y-89489541D01*
D11*
X174030025Y-78035828D02*
X173172882Y-78035828D01*
X173601453Y-78035828D02*
X173601453Y-76535828D01*
X173601453Y-76535828D02*
X173458596Y-76750114D01*
X173458596Y-76750114D02*
X173315739Y-76892971D01*
X173315739Y-76892971D02*
X173172882Y-76964400D01*
X175030024Y-78535828D02*
X175030024Y-76392971D01*
X178030024Y-76607257D02*
X177887167Y-76535828D01*
X177887167Y-76535828D02*
X177672881Y-76535828D01*
X177672881Y-76535828D02*
X177458595Y-76607257D01*
X177458595Y-76607257D02*
X177315738Y-76750114D01*
X177315738Y-76750114D02*
X177244309Y-76892971D01*
X177244309Y-76892971D02*
X177172881Y-77178685D01*
X177172881Y-77178685D02*
X177172881Y-77392971D01*
X177172881Y-77392971D02*
X177244309Y-77678685D01*
X177244309Y-77678685D02*
X177315738Y-77821542D01*
X177315738Y-77821542D02*
X177458595Y-77964400D01*
X177458595Y-77964400D02*
X177672881Y-78035828D01*
X177672881Y-78035828D02*
X177815738Y-78035828D01*
X177815738Y-78035828D02*
X178030024Y-77964400D01*
X178030024Y-77964400D02*
X178101452Y-77892971D01*
X178101452Y-77892971D02*
X178101452Y-77392971D01*
X178101452Y-77392971D02*
X177815738Y-77392971D01*
X178744309Y-78035828D02*
X178744309Y-76535828D01*
X178744309Y-76535828D02*
X179601452Y-78035828D01*
X179601452Y-78035828D02*
X179601452Y-76535828D01*
X180315738Y-78035828D02*
X180315738Y-76535828D01*
X180315738Y-76535828D02*
X180672881Y-76535828D01*
X180672881Y-76535828D02*
X180887167Y-76607257D01*
X180887167Y-76607257D02*
X181030024Y-76750114D01*
X181030024Y-76750114D02*
X181101453Y-76892971D01*
X181101453Y-76892971D02*
X181172881Y-77178685D01*
X181172881Y-77178685D02*
X181172881Y-77392971D01*
X181172881Y-77392971D02*
X181101453Y-77678685D01*
X181101453Y-77678685D02*
X181030024Y-77821542D01*
X181030024Y-77821542D02*
X180887167Y-77964400D01*
X180887167Y-77964400D02*
X180672881Y-78035828D01*
X180672881Y-78035828D02*
X180315738Y-78035828D01*
X173101453Y-78950828D02*
X174030025Y-78950828D01*
X174030025Y-78950828D02*
X173530025Y-79522257D01*
X173530025Y-79522257D02*
X173744310Y-79522257D01*
X173744310Y-79522257D02*
X173887168Y-79593685D01*
X173887168Y-79593685D02*
X173958596Y-79665114D01*
X173958596Y-79665114D02*
X174030025Y-79807971D01*
X174030025Y-79807971D02*
X174030025Y-80165114D01*
X174030025Y-80165114D02*
X173958596Y-80307971D01*
X173958596Y-80307971D02*
X173887168Y-80379400D01*
X173887168Y-80379400D02*
X173744310Y-80450828D01*
X173744310Y-80450828D02*
X173315739Y-80450828D01*
X173315739Y-80450828D02*
X173172882Y-80379400D01*
X173172882Y-80379400D02*
X173101453Y-80307971D01*
X175030024Y-80950828D02*
X175030024Y-78807971D01*
X178101452Y-80450828D02*
X177601452Y-79736542D01*
X177244309Y-80450828D02*
X177244309Y-78950828D01*
X177244309Y-78950828D02*
X177815738Y-78950828D01*
X177815738Y-78950828D02*
X177958595Y-79022257D01*
X177958595Y-79022257D02*
X178030024Y-79093685D01*
X178030024Y-79093685D02*
X178101452Y-79236542D01*
X178101452Y-79236542D02*
X178101452Y-79450828D01*
X178101452Y-79450828D02*
X178030024Y-79593685D01*
X178030024Y-79593685D02*
X177958595Y-79665114D01*
X177958595Y-79665114D02*
X177815738Y-79736542D01*
X177815738Y-79736542D02*
X177244309Y-79736542D01*
X178530024Y-78950828D02*
X179387167Y-78950828D01*
X178958595Y-80450828D02*
X178958595Y-78950828D01*
X179815738Y-80379400D02*
X180030024Y-80450828D01*
X180030024Y-80450828D02*
X180387166Y-80450828D01*
X180387166Y-80450828D02*
X180530024Y-80379400D01*
X180530024Y-80379400D02*
X180601452Y-80307971D01*
X180601452Y-80307971D02*
X180672881Y-80165114D01*
X180672881Y-80165114D02*
X180672881Y-80022257D01*
X180672881Y-80022257D02*
X180601452Y-79879400D01*
X180601452Y-79879400D02*
X180530024Y-79807971D01*
X180530024Y-79807971D02*
X180387166Y-79736542D01*
X180387166Y-79736542D02*
X180101452Y-79665114D01*
X180101452Y-79665114D02*
X179958595Y-79593685D01*
X179958595Y-79593685D02*
X179887166Y-79522257D01*
X179887166Y-79522257D02*
X179815738Y-79379400D01*
X179815738Y-79379400D02*
X179815738Y-79236542D01*
X179815738Y-79236542D02*
X179887166Y-79093685D01*
X179887166Y-79093685D02*
X179958595Y-79022257D01*
X179958595Y-79022257D02*
X180101452Y-78950828D01*
X180101452Y-78950828D02*
X180458595Y-78950828D01*
X180458595Y-78950828D02*
X180672881Y-79022257D01*
X182101452Y-80450828D02*
X181244309Y-80450828D01*
X181672880Y-80450828D02*
X181672880Y-78950828D01*
X181672880Y-78950828D02*
X181530023Y-79165114D01*
X181530023Y-79165114D02*
X181387166Y-79307971D01*
X181387166Y-79307971D02*
X181244309Y-79379400D01*
X173958596Y-81365828D02*
X173244310Y-81365828D01*
X173244310Y-81365828D02*
X173172882Y-82080114D01*
X173172882Y-82080114D02*
X173244310Y-82008685D01*
X173244310Y-82008685D02*
X173387168Y-81937257D01*
X173387168Y-81937257D02*
X173744310Y-81937257D01*
X173744310Y-81937257D02*
X173887168Y-82008685D01*
X173887168Y-82008685D02*
X173958596Y-82080114D01*
X173958596Y-82080114D02*
X174030025Y-82222971D01*
X174030025Y-82222971D02*
X174030025Y-82580114D01*
X174030025Y-82580114D02*
X173958596Y-82722971D01*
X173958596Y-82722971D02*
X173887168Y-82794400D01*
X173887168Y-82794400D02*
X173744310Y-82865828D01*
X173744310Y-82865828D02*
X173387168Y-82865828D01*
X173387168Y-82865828D02*
X173244310Y-82794400D01*
X173244310Y-82794400D02*
X173172882Y-82722971D01*
X175030024Y-83365828D02*
X175030024Y-81222971D01*
X178101452Y-82865828D02*
X177601452Y-82151542D01*
X177244309Y-82865828D02*
X177244309Y-81365828D01*
X177244309Y-81365828D02*
X177815738Y-81365828D01*
X177815738Y-81365828D02*
X177958595Y-81437257D01*
X177958595Y-81437257D02*
X178030024Y-81508685D01*
X178030024Y-81508685D02*
X178101452Y-81651542D01*
X178101452Y-81651542D02*
X178101452Y-81865828D01*
X178101452Y-81865828D02*
X178030024Y-82008685D01*
X178030024Y-82008685D02*
X177958595Y-82080114D01*
X177958595Y-82080114D02*
X177815738Y-82151542D01*
X177815738Y-82151542D02*
X177244309Y-82151542D01*
X178530024Y-81365828D02*
X179387167Y-81365828D01*
X178958595Y-82865828D02*
X178958595Y-81365828D01*
X179815738Y-82794400D02*
X180030024Y-82865828D01*
X180030024Y-82865828D02*
X180387166Y-82865828D01*
X180387166Y-82865828D02*
X180530024Y-82794400D01*
X180530024Y-82794400D02*
X180601452Y-82722971D01*
X180601452Y-82722971D02*
X180672881Y-82580114D01*
X180672881Y-82580114D02*
X180672881Y-82437257D01*
X180672881Y-82437257D02*
X180601452Y-82294400D01*
X180601452Y-82294400D02*
X180530024Y-82222971D01*
X180530024Y-82222971D02*
X180387166Y-82151542D01*
X180387166Y-82151542D02*
X180101452Y-82080114D01*
X180101452Y-82080114D02*
X179958595Y-82008685D01*
X179958595Y-82008685D02*
X179887166Y-81937257D01*
X179887166Y-81937257D02*
X179815738Y-81794400D01*
X179815738Y-81794400D02*
X179815738Y-81651542D01*
X179815738Y-81651542D02*
X179887166Y-81508685D01*
X179887166Y-81508685D02*
X179958595Y-81437257D01*
X179958595Y-81437257D02*
X180101452Y-81365828D01*
X180101452Y-81365828D02*
X180458595Y-81365828D01*
X180458595Y-81365828D02*
X180672881Y-81437257D01*
X181601452Y-81365828D02*
X181744309Y-81365828D01*
X181744309Y-81365828D02*
X181887166Y-81437257D01*
X181887166Y-81437257D02*
X181958595Y-81508685D01*
X181958595Y-81508685D02*
X182030023Y-81651542D01*
X182030023Y-81651542D02*
X182101452Y-81937257D01*
X182101452Y-81937257D02*
X182101452Y-82294400D01*
X182101452Y-82294400D02*
X182030023Y-82580114D01*
X182030023Y-82580114D02*
X181958595Y-82722971D01*
X181958595Y-82722971D02*
X181887166Y-82794400D01*
X181887166Y-82794400D02*
X181744309Y-82865828D01*
X181744309Y-82865828D02*
X181601452Y-82865828D01*
X181601452Y-82865828D02*
X181458595Y-82794400D01*
X181458595Y-82794400D02*
X181387166Y-82722971D01*
X181387166Y-82722971D02*
X181315737Y-82580114D01*
X181315737Y-82580114D02*
X181244309Y-82294400D01*
X181244309Y-82294400D02*
X181244309Y-81937257D01*
X181244309Y-81937257D02*
X181315737Y-81651542D01*
X181315737Y-81651542D02*
X181387166Y-81508685D01*
X181387166Y-81508685D02*
X181458595Y-81437257D01*
X181458595Y-81437257D02*
X181601452Y-81365828D01*
X173101453Y-83780828D02*
X174101453Y-83780828D01*
X174101453Y-83780828D02*
X173458596Y-85280828D01*
X175030024Y-85780828D02*
X175030024Y-83637971D01*
X177244309Y-84280828D02*
X177244309Y-85280828D01*
X177244309Y-84423685D02*
X177315738Y-84352257D01*
X177315738Y-84352257D02*
X177458595Y-84280828D01*
X177458595Y-84280828D02*
X177672881Y-84280828D01*
X177672881Y-84280828D02*
X177815738Y-84352257D01*
X177815738Y-84352257D02*
X177887167Y-84495114D01*
X177887167Y-84495114D02*
X177887167Y-85280828D01*
X178601452Y-85137971D02*
X178672881Y-85209400D01*
X178672881Y-85209400D02*
X178601452Y-85280828D01*
X178601452Y-85280828D02*
X178530024Y-85209400D01*
X178530024Y-85209400D02*
X178601452Y-85137971D01*
X178601452Y-85137971D02*
X178601452Y-85280828D01*
X179958596Y-85209400D02*
X179815738Y-85280828D01*
X179815738Y-85280828D02*
X179530024Y-85280828D01*
X179530024Y-85280828D02*
X179387167Y-85209400D01*
X179387167Y-85209400D02*
X179315738Y-85137971D01*
X179315738Y-85137971D02*
X179244310Y-84995114D01*
X179244310Y-84995114D02*
X179244310Y-84566542D01*
X179244310Y-84566542D02*
X179315738Y-84423685D01*
X179315738Y-84423685D02*
X179387167Y-84352257D01*
X179387167Y-84352257D02*
X179530024Y-84280828D01*
X179530024Y-84280828D02*
X179815738Y-84280828D01*
X179815738Y-84280828D02*
X179958596Y-84352257D01*
D10*
X175914207Y-131949819D02*
X175580874Y-131473628D01*
X175342779Y-131949819D02*
X175342779Y-130949819D01*
X175342779Y-130949819D02*
X175723731Y-130949819D01*
X175723731Y-130949819D02*
X175818969Y-130997438D01*
X175818969Y-130997438D02*
X175866588Y-131045057D01*
X175866588Y-131045057D02*
X175914207Y-131140295D01*
X175914207Y-131140295D02*
X175914207Y-131283152D01*
X175914207Y-131283152D02*
X175866588Y-131378390D01*
X175866588Y-131378390D02*
X175818969Y-131426009D01*
X175818969Y-131426009D02*
X175723731Y-131473628D01*
X175723731Y-131473628D02*
X175342779Y-131473628D01*
X176247541Y-130949819D02*
X176914207Y-131949819D01*
X176914207Y-130949819D02*
X176247541Y-131949819D01*
X175204684Y-130672200D02*
X176957065Y-130672200D01*
X167355895Y-118363819D02*
X167355895Y-119173342D01*
X167355895Y-119173342D02*
X167403514Y-119268580D01*
X167403514Y-119268580D02*
X167451133Y-119316200D01*
X167451133Y-119316200D02*
X167546371Y-119363819D01*
X167546371Y-119363819D02*
X167736847Y-119363819D01*
X167736847Y-119363819D02*
X167832085Y-119316200D01*
X167832085Y-119316200D02*
X167879704Y-119268580D01*
X167879704Y-119268580D02*
X167927323Y-119173342D01*
X167927323Y-119173342D02*
X167927323Y-118363819D01*
X168832085Y-118697152D02*
X168832085Y-119363819D01*
X168593990Y-118316200D02*
X168355895Y-119030485D01*
X168355895Y-119030485D02*
X168974942Y-119030485D01*
D11*
X183685291Y-76535828D02*
X184542434Y-76535828D01*
X184113862Y-78035828D02*
X184113862Y-76535828D01*
X184899576Y-76535828D02*
X185899576Y-78035828D01*
X185899576Y-76535828D02*
X184899576Y-78035828D01*
X186756719Y-76535828D02*
X186899576Y-76535828D01*
X186899576Y-76535828D02*
X187042433Y-76607257D01*
X187042433Y-76607257D02*
X187113862Y-76678685D01*
X187113862Y-76678685D02*
X187185290Y-76821542D01*
X187185290Y-76821542D02*
X187256719Y-77107257D01*
X187256719Y-77107257D02*
X187256719Y-77464400D01*
X187256719Y-77464400D02*
X187185290Y-77750114D01*
X187185290Y-77750114D02*
X187113862Y-77892971D01*
X187113862Y-77892971D02*
X187042433Y-77964400D01*
X187042433Y-77964400D02*
X186899576Y-78035828D01*
X186899576Y-78035828D02*
X186756719Y-78035828D01*
X186756719Y-78035828D02*
X186613862Y-77964400D01*
X186613862Y-77964400D02*
X186542433Y-77892971D01*
X186542433Y-77892971D02*
X186471004Y-77750114D01*
X186471004Y-77750114D02*
X186399576Y-77464400D01*
X186399576Y-77464400D02*
X186399576Y-77107257D01*
X186399576Y-77107257D02*
X186471004Y-76821542D01*
X186471004Y-76821542D02*
X186542433Y-76678685D01*
X186542433Y-76678685D02*
X186613862Y-76607257D01*
X186613862Y-76607257D02*
X186756719Y-76535828D01*
X189399575Y-78535828D02*
X189399575Y-76392971D01*
X190399575Y-76678685D02*
X190471003Y-76607257D01*
X190471003Y-76607257D02*
X190613861Y-76535828D01*
X190613861Y-76535828D02*
X190971003Y-76535828D01*
X190971003Y-76535828D02*
X191113861Y-76607257D01*
X191113861Y-76607257D02*
X191185289Y-76678685D01*
X191185289Y-76678685D02*
X191256718Y-76821542D01*
X191256718Y-76821542D02*
X191256718Y-76964400D01*
X191256718Y-76964400D02*
X191185289Y-77178685D01*
X191185289Y-77178685D02*
X190328146Y-78035828D01*
X190328146Y-78035828D02*
X191256718Y-78035828D01*
X183685291Y-78950828D02*
X184542434Y-78950828D01*
X184113862Y-80450828D02*
X184113862Y-78950828D01*
X184899576Y-78950828D02*
X185899576Y-80450828D01*
X185899576Y-78950828D02*
X184899576Y-80450828D01*
X187256719Y-80450828D02*
X186399576Y-80450828D01*
X186828147Y-80450828D02*
X186828147Y-78950828D01*
X186828147Y-78950828D02*
X186685290Y-79165114D01*
X186685290Y-79165114D02*
X186542433Y-79307971D01*
X186542433Y-79307971D02*
X186399576Y-79379400D01*
X189399575Y-80950828D02*
X189399575Y-78807971D01*
X191113861Y-79450828D02*
X191113861Y-80450828D01*
X190756718Y-78879400D02*
X190399575Y-79950828D01*
X190399575Y-79950828D02*
X191328146Y-79950828D01*
X184399576Y-82865828D02*
X183899576Y-82151542D01*
X183542433Y-82865828D02*
X183542433Y-81365828D01*
X183542433Y-81365828D02*
X184113862Y-81365828D01*
X184113862Y-81365828D02*
X184256719Y-81437257D01*
X184256719Y-81437257D02*
X184328148Y-81508685D01*
X184328148Y-81508685D02*
X184399576Y-81651542D01*
X184399576Y-81651542D02*
X184399576Y-81865828D01*
X184399576Y-81865828D02*
X184328148Y-82008685D01*
X184328148Y-82008685D02*
X184256719Y-82080114D01*
X184256719Y-82080114D02*
X184113862Y-82151542D01*
X184113862Y-82151542D02*
X183542433Y-82151542D01*
X184899576Y-81365828D02*
X185899576Y-82865828D01*
X185899576Y-81365828D02*
X184899576Y-82865828D01*
X186756719Y-81365828D02*
X186899576Y-81365828D01*
X186899576Y-81365828D02*
X187042433Y-81437257D01*
X187042433Y-81437257D02*
X187113862Y-81508685D01*
X187113862Y-81508685D02*
X187185290Y-81651542D01*
X187185290Y-81651542D02*
X187256719Y-81937257D01*
X187256719Y-81937257D02*
X187256719Y-82294400D01*
X187256719Y-82294400D02*
X187185290Y-82580114D01*
X187185290Y-82580114D02*
X187113862Y-82722971D01*
X187113862Y-82722971D02*
X187042433Y-82794400D01*
X187042433Y-82794400D02*
X186899576Y-82865828D01*
X186899576Y-82865828D02*
X186756719Y-82865828D01*
X186756719Y-82865828D02*
X186613862Y-82794400D01*
X186613862Y-82794400D02*
X186542433Y-82722971D01*
X186542433Y-82722971D02*
X186471004Y-82580114D01*
X186471004Y-82580114D02*
X186399576Y-82294400D01*
X186399576Y-82294400D02*
X186399576Y-81937257D01*
X186399576Y-81937257D02*
X186471004Y-81651542D01*
X186471004Y-81651542D02*
X186542433Y-81508685D01*
X186542433Y-81508685D02*
X186613862Y-81437257D01*
X186613862Y-81437257D02*
X186756719Y-81365828D01*
X189399575Y-83365828D02*
X189399575Y-81222971D01*
X191113861Y-81365828D02*
X190828146Y-81365828D01*
X190828146Y-81365828D02*
X190685289Y-81437257D01*
X190685289Y-81437257D02*
X190613861Y-81508685D01*
X190613861Y-81508685D02*
X190471003Y-81722971D01*
X190471003Y-81722971D02*
X190399575Y-82008685D01*
X190399575Y-82008685D02*
X190399575Y-82580114D01*
X190399575Y-82580114D02*
X190471003Y-82722971D01*
X190471003Y-82722971D02*
X190542432Y-82794400D01*
X190542432Y-82794400D02*
X190685289Y-82865828D01*
X190685289Y-82865828D02*
X190971003Y-82865828D01*
X190971003Y-82865828D02*
X191113861Y-82794400D01*
X191113861Y-82794400D02*
X191185289Y-82722971D01*
X191185289Y-82722971D02*
X191256718Y-82580114D01*
X191256718Y-82580114D02*
X191256718Y-82222971D01*
X191256718Y-82222971D02*
X191185289Y-82080114D01*
X191185289Y-82080114D02*
X191113861Y-82008685D01*
X191113861Y-82008685D02*
X190971003Y-81937257D01*
X190971003Y-81937257D02*
X190685289Y-81937257D01*
X190685289Y-81937257D02*
X190542432Y-82008685D01*
X190542432Y-82008685D02*
X190471003Y-82080114D01*
X190471003Y-82080114D02*
X190399575Y-82222971D01*
X184399576Y-85280828D02*
X183899576Y-84566542D01*
X183542433Y-85280828D02*
X183542433Y-83780828D01*
X183542433Y-83780828D02*
X184113862Y-83780828D01*
X184113862Y-83780828D02*
X184256719Y-83852257D01*
X184256719Y-83852257D02*
X184328148Y-83923685D01*
X184328148Y-83923685D02*
X184399576Y-84066542D01*
X184399576Y-84066542D02*
X184399576Y-84280828D01*
X184399576Y-84280828D02*
X184328148Y-84423685D01*
X184328148Y-84423685D02*
X184256719Y-84495114D01*
X184256719Y-84495114D02*
X184113862Y-84566542D01*
X184113862Y-84566542D02*
X183542433Y-84566542D01*
X184899576Y-83780828D02*
X185899576Y-85280828D01*
X185899576Y-83780828D02*
X184899576Y-85280828D01*
X187256719Y-85280828D02*
X186399576Y-85280828D01*
X186828147Y-85280828D02*
X186828147Y-83780828D01*
X186828147Y-83780828D02*
X186685290Y-83995114D01*
X186685290Y-83995114D02*
X186542433Y-84137971D01*
X186542433Y-84137971D02*
X186399576Y-84209400D01*
X189399575Y-85780828D02*
X189399575Y-83637971D01*
X190685289Y-84423685D02*
X190542432Y-84352257D01*
X190542432Y-84352257D02*
X190471003Y-84280828D01*
X190471003Y-84280828D02*
X190399575Y-84137971D01*
X190399575Y-84137971D02*
X190399575Y-84066542D01*
X190399575Y-84066542D02*
X190471003Y-83923685D01*
X190471003Y-83923685D02*
X190542432Y-83852257D01*
X190542432Y-83852257D02*
X190685289Y-83780828D01*
X190685289Y-83780828D02*
X190971003Y-83780828D01*
X190971003Y-83780828D02*
X191113861Y-83852257D01*
X191113861Y-83852257D02*
X191185289Y-83923685D01*
X191185289Y-83923685D02*
X191256718Y-84066542D01*
X191256718Y-84066542D02*
X191256718Y-84137971D01*
X191256718Y-84137971D02*
X191185289Y-84280828D01*
X191185289Y-84280828D02*
X191113861Y-84352257D01*
X191113861Y-84352257D02*
X190971003Y-84423685D01*
X190971003Y-84423685D02*
X190685289Y-84423685D01*
X190685289Y-84423685D02*
X190542432Y-84495114D01*
X190542432Y-84495114D02*
X190471003Y-84566542D01*
X190471003Y-84566542D02*
X190399575Y-84709400D01*
X190399575Y-84709400D02*
X190399575Y-84995114D01*
X190399575Y-84995114D02*
X190471003Y-85137971D01*
X190471003Y-85137971D02*
X190542432Y-85209400D01*
X190542432Y-85209400D02*
X190685289Y-85280828D01*
X190685289Y-85280828D02*
X190971003Y-85280828D01*
X190971003Y-85280828D02*
X191113861Y-85209400D01*
X191113861Y-85209400D02*
X191185289Y-85137971D01*
X191185289Y-85137971D02*
X191256718Y-84995114D01*
X191256718Y-84995114D02*
X191256718Y-84709400D01*
X191256718Y-84709400D02*
X191185289Y-84566542D01*
X191185289Y-84566542D02*
X191113861Y-84495114D01*
X191113861Y-84495114D02*
X190971003Y-84423685D01*
D10*
X170707207Y-131949819D02*
X170373874Y-131473628D01*
X170135779Y-131949819D02*
X170135779Y-130949819D01*
X170135779Y-130949819D02*
X170516731Y-130949819D01*
X170516731Y-130949819D02*
X170611969Y-130997438D01*
X170611969Y-130997438D02*
X170659588Y-131045057D01*
X170659588Y-131045057D02*
X170707207Y-131140295D01*
X170707207Y-131140295D02*
X170707207Y-131283152D01*
X170707207Y-131283152D02*
X170659588Y-131378390D01*
X170659588Y-131378390D02*
X170611969Y-131426009D01*
X170611969Y-131426009D02*
X170516731Y-131473628D01*
X170516731Y-131473628D02*
X170135779Y-131473628D01*
X171040541Y-130949819D02*
X171707207Y-131949819D01*
X171707207Y-130949819D02*
X171040541Y-131949819D01*
%TO.C,JP3*%
X148566619Y-122072333D02*
X149280904Y-122072333D01*
X149280904Y-122072333D02*
X149423761Y-122119952D01*
X149423761Y-122119952D02*
X149519000Y-122215190D01*
X149519000Y-122215190D02*
X149566619Y-122358047D01*
X149566619Y-122358047D02*
X149566619Y-122453285D01*
X149566619Y-121596142D02*
X148566619Y-121596142D01*
X148566619Y-121596142D02*
X148566619Y-121215190D01*
X148566619Y-121215190D02*
X148614238Y-121119952D01*
X148614238Y-121119952D02*
X148661857Y-121072333D01*
X148661857Y-121072333D02*
X148757095Y-121024714D01*
X148757095Y-121024714D02*
X148899952Y-121024714D01*
X148899952Y-121024714D02*
X148995190Y-121072333D01*
X148995190Y-121072333D02*
X149042809Y-121119952D01*
X149042809Y-121119952D02*
X149090428Y-121215190D01*
X149090428Y-121215190D02*
X149090428Y-121596142D01*
X148566619Y-120691380D02*
X148566619Y-120072333D01*
X148566619Y-120072333D02*
X148947571Y-120405666D01*
X148947571Y-120405666D02*
X148947571Y-120262809D01*
X148947571Y-120262809D02*
X148995190Y-120167571D01*
X148995190Y-120167571D02*
X149042809Y-120119952D01*
X149042809Y-120119952D02*
X149138047Y-120072333D01*
X149138047Y-120072333D02*
X149376142Y-120072333D01*
X149376142Y-120072333D02*
X149471380Y-120119952D01*
X149471380Y-120119952D02*
X149519000Y-120167571D01*
X149519000Y-120167571D02*
X149566619Y-120262809D01*
X149566619Y-120262809D02*
X149566619Y-120548523D01*
X149566619Y-120548523D02*
X149519000Y-120643761D01*
X149519000Y-120643761D02*
X149471380Y-120691380D01*
%TO.C,C4*%
X153730133Y-66700180D02*
X153682514Y-66747800D01*
X153682514Y-66747800D02*
X153539657Y-66795419D01*
X153539657Y-66795419D02*
X153444419Y-66795419D01*
X153444419Y-66795419D02*
X153301562Y-66747800D01*
X153301562Y-66747800D02*
X153206324Y-66652561D01*
X153206324Y-66652561D02*
X153158705Y-66557323D01*
X153158705Y-66557323D02*
X153111086Y-66366847D01*
X153111086Y-66366847D02*
X153111086Y-66223990D01*
X153111086Y-66223990D02*
X153158705Y-66033514D01*
X153158705Y-66033514D02*
X153206324Y-65938276D01*
X153206324Y-65938276D02*
X153301562Y-65843038D01*
X153301562Y-65843038D02*
X153444419Y-65795419D01*
X153444419Y-65795419D02*
X153539657Y-65795419D01*
X153539657Y-65795419D02*
X153682514Y-65843038D01*
X153682514Y-65843038D02*
X153730133Y-65890657D01*
X154587276Y-66128752D02*
X154587276Y-66795419D01*
X154349181Y-65747800D02*
X154111086Y-66462085D01*
X154111086Y-66462085D02*
X154730133Y-66462085D01*
%TO.C,J1*%
X136384819Y-49906338D02*
X137099104Y-49906338D01*
X137099104Y-49906338D02*
X137241961Y-49953957D01*
X137241961Y-49953957D02*
X137337200Y-50049195D01*
X137337200Y-50049195D02*
X137384819Y-50192052D01*
X137384819Y-50192052D02*
X137384819Y-50287290D01*
X137384819Y-48906338D02*
X137384819Y-49477766D01*
X137384819Y-49192052D02*
X136384819Y-49192052D01*
X136384819Y-49192052D02*
X136527676Y-49287290D01*
X136527676Y-49287290D02*
X136622914Y-49382528D01*
X136622914Y-49382528D02*
X136670533Y-49477766D01*
%TO.C,J6*%
X182770466Y-85089819D02*
X182770466Y-85804104D01*
X182770466Y-85804104D02*
X182722847Y-85946961D01*
X182722847Y-85946961D02*
X182627609Y-86042200D01*
X182627609Y-86042200D02*
X182484752Y-86089819D01*
X182484752Y-86089819D02*
X182389514Y-86089819D01*
X183675228Y-85089819D02*
X183484752Y-85089819D01*
X183484752Y-85089819D02*
X183389514Y-85137438D01*
X183389514Y-85137438D02*
X183341895Y-85185057D01*
X183341895Y-85185057D02*
X183246657Y-85327914D01*
X183246657Y-85327914D02*
X183199038Y-85518390D01*
X183199038Y-85518390D02*
X183199038Y-85899342D01*
X183199038Y-85899342D02*
X183246657Y-85994580D01*
X183246657Y-85994580D02*
X183294276Y-86042200D01*
X183294276Y-86042200D02*
X183389514Y-86089819D01*
X183389514Y-86089819D02*
X183579990Y-86089819D01*
X183579990Y-86089819D02*
X183675228Y-86042200D01*
X183675228Y-86042200D02*
X183722847Y-85994580D01*
X183722847Y-85994580D02*
X183770466Y-85899342D01*
X183770466Y-85899342D02*
X183770466Y-85661247D01*
X183770466Y-85661247D02*
X183722847Y-85566009D01*
X183722847Y-85566009D02*
X183675228Y-85518390D01*
X183675228Y-85518390D02*
X183579990Y-85470771D01*
X183579990Y-85470771D02*
X183389514Y-85470771D01*
X183389514Y-85470771D02*
X183294276Y-85518390D01*
X183294276Y-85518390D02*
X183246657Y-85566009D01*
X183246657Y-85566009D02*
X183199038Y-85661247D01*
%TO.C,J4*%
X136384819Y-135452338D02*
X137099104Y-135452338D01*
X137099104Y-135452338D02*
X137241961Y-135499957D01*
X137241961Y-135499957D02*
X137337200Y-135595195D01*
X137337200Y-135595195D02*
X137384819Y-135738052D01*
X137384819Y-135738052D02*
X137384819Y-135833290D01*
X136718152Y-134547576D02*
X137384819Y-134547576D01*
X136337200Y-134785671D02*
X137051485Y-135023766D01*
X137051485Y-135023766D02*
X137051485Y-134404719D01*
%TO.C,J18*%
X123650476Y-141456819D02*
X123650476Y-142171104D01*
X123650476Y-142171104D02*
X123602857Y-142313961D01*
X123602857Y-142313961D02*
X123507619Y-142409200D01*
X123507619Y-142409200D02*
X123364762Y-142456819D01*
X123364762Y-142456819D02*
X123269524Y-142456819D01*
X124650476Y-142456819D02*
X124079048Y-142456819D01*
X124364762Y-142456819D02*
X124364762Y-141456819D01*
X124364762Y-141456819D02*
X124269524Y-141599676D01*
X124269524Y-141599676D02*
X124174286Y-141694914D01*
X124174286Y-141694914D02*
X124079048Y-141742533D01*
X125221905Y-141885390D02*
X125126667Y-141837771D01*
X125126667Y-141837771D02*
X125079048Y-141790152D01*
X125079048Y-141790152D02*
X125031429Y-141694914D01*
X125031429Y-141694914D02*
X125031429Y-141647295D01*
X125031429Y-141647295D02*
X125079048Y-141552057D01*
X125079048Y-141552057D02*
X125126667Y-141504438D01*
X125126667Y-141504438D02*
X125221905Y-141456819D01*
X125221905Y-141456819D02*
X125412381Y-141456819D01*
X125412381Y-141456819D02*
X125507619Y-141504438D01*
X125507619Y-141504438D02*
X125555238Y-141552057D01*
X125555238Y-141552057D02*
X125602857Y-141647295D01*
X125602857Y-141647295D02*
X125602857Y-141694914D01*
X125602857Y-141694914D02*
X125555238Y-141790152D01*
X125555238Y-141790152D02*
X125507619Y-141837771D01*
X125507619Y-141837771D02*
X125412381Y-141885390D01*
X125412381Y-141885390D02*
X125221905Y-141885390D01*
X125221905Y-141885390D02*
X125126667Y-141933009D01*
X125126667Y-141933009D02*
X125079048Y-141980628D01*
X125079048Y-141980628D02*
X125031429Y-142075866D01*
X125031429Y-142075866D02*
X125031429Y-142266342D01*
X125031429Y-142266342D02*
X125079048Y-142361580D01*
X125079048Y-142361580D02*
X125126667Y-142409200D01*
X125126667Y-142409200D02*
X125221905Y-142456819D01*
X125221905Y-142456819D02*
X125412381Y-142456819D01*
X125412381Y-142456819D02*
X125507619Y-142409200D01*
X125507619Y-142409200D02*
X125555238Y-142361580D01*
X125555238Y-142361580D02*
X125602857Y-142266342D01*
X125602857Y-142266342D02*
X125602857Y-142075866D01*
X125602857Y-142075866D02*
X125555238Y-141980628D01*
X125555238Y-141980628D02*
X125507619Y-141933009D01*
X125507619Y-141933009D02*
X125412381Y-141885390D01*
%TO.C,J5*%
X144878466Y-67681819D02*
X144878466Y-68396104D01*
X144878466Y-68396104D02*
X144830847Y-68538961D01*
X144830847Y-68538961D02*
X144735609Y-68634200D01*
X144735609Y-68634200D02*
X144592752Y-68681819D01*
X144592752Y-68681819D02*
X144497514Y-68681819D01*
X145830847Y-67681819D02*
X145354657Y-67681819D01*
X145354657Y-67681819D02*
X145307038Y-68158009D01*
X145307038Y-68158009D02*
X145354657Y-68110390D01*
X145354657Y-68110390D02*
X145449895Y-68062771D01*
X145449895Y-68062771D02*
X145687990Y-68062771D01*
X145687990Y-68062771D02*
X145783228Y-68110390D01*
X145783228Y-68110390D02*
X145830847Y-68158009D01*
X145830847Y-68158009D02*
X145878466Y-68253247D01*
X145878466Y-68253247D02*
X145878466Y-68491342D01*
X145878466Y-68491342D02*
X145830847Y-68586580D01*
X145830847Y-68586580D02*
X145783228Y-68634200D01*
X145783228Y-68634200D02*
X145687990Y-68681819D01*
X145687990Y-68681819D02*
X145449895Y-68681819D01*
X145449895Y-68681819D02*
X145354657Y-68634200D01*
X145354657Y-68634200D02*
X145307038Y-68586580D01*
%TO.C,U6*%
X175728895Y-73987690D02*
X175728895Y-74797213D01*
X175728895Y-74797213D02*
X175776514Y-74892451D01*
X175776514Y-74892451D02*
X175824133Y-74940071D01*
X175824133Y-74940071D02*
X175919371Y-74987690D01*
X175919371Y-74987690D02*
X176109847Y-74987690D01*
X176109847Y-74987690D02*
X176205085Y-74940071D01*
X176205085Y-74940071D02*
X176252704Y-74892451D01*
X176252704Y-74892451D02*
X176300323Y-74797213D01*
X176300323Y-74797213D02*
X176300323Y-73987690D01*
X177205085Y-73987690D02*
X177014609Y-73987690D01*
X177014609Y-73987690D02*
X176919371Y-74035309D01*
X176919371Y-74035309D02*
X176871752Y-74082928D01*
X176871752Y-74082928D02*
X176776514Y-74225785D01*
X176776514Y-74225785D02*
X176728895Y-74416261D01*
X176728895Y-74416261D02*
X176728895Y-74797213D01*
X176728895Y-74797213D02*
X176776514Y-74892451D01*
X176776514Y-74892451D02*
X176824133Y-74940071D01*
X176824133Y-74940071D02*
X176919371Y-74987690D01*
X176919371Y-74987690D02*
X177109847Y-74987690D01*
X177109847Y-74987690D02*
X177205085Y-74940071D01*
X177205085Y-74940071D02*
X177252704Y-74892451D01*
X177252704Y-74892451D02*
X177300323Y-74797213D01*
X177300323Y-74797213D02*
X177300323Y-74559118D01*
X177300323Y-74559118D02*
X177252704Y-74463880D01*
X177252704Y-74463880D02*
X177205085Y-74416261D01*
X177205085Y-74416261D02*
X177109847Y-74368642D01*
X177109847Y-74368642D02*
X176919371Y-74368642D01*
X176919371Y-74368642D02*
X176824133Y-74416261D01*
X176824133Y-74416261D02*
X176776514Y-74463880D01*
X176776514Y-74463880D02*
X176728895Y-74559118D01*
%TO.C,J17*%
X118570476Y-141456819D02*
X118570476Y-142171104D01*
X118570476Y-142171104D02*
X118522857Y-142313961D01*
X118522857Y-142313961D02*
X118427619Y-142409200D01*
X118427619Y-142409200D02*
X118284762Y-142456819D01*
X118284762Y-142456819D02*
X118189524Y-142456819D01*
X119570476Y-142456819D02*
X118999048Y-142456819D01*
X119284762Y-142456819D02*
X119284762Y-141456819D01*
X119284762Y-141456819D02*
X119189524Y-141599676D01*
X119189524Y-141599676D02*
X119094286Y-141694914D01*
X119094286Y-141694914D02*
X118999048Y-141742533D01*
X119903810Y-141456819D02*
X120570476Y-141456819D01*
X120570476Y-141456819D02*
X120141905Y-142456819D01*
%TO.C,U8*%
X191084295Y-56338419D02*
X191084295Y-57147942D01*
X191084295Y-57147942D02*
X191131914Y-57243180D01*
X191131914Y-57243180D02*
X191179533Y-57290800D01*
X191179533Y-57290800D02*
X191274771Y-57338419D01*
X191274771Y-57338419D02*
X191465247Y-57338419D01*
X191465247Y-57338419D02*
X191560485Y-57290800D01*
X191560485Y-57290800D02*
X191608104Y-57243180D01*
X191608104Y-57243180D02*
X191655723Y-57147942D01*
X191655723Y-57147942D02*
X191655723Y-56338419D01*
X192274771Y-56766990D02*
X192179533Y-56719371D01*
X192179533Y-56719371D02*
X192131914Y-56671752D01*
X192131914Y-56671752D02*
X192084295Y-56576514D01*
X192084295Y-56576514D02*
X192084295Y-56528895D01*
X192084295Y-56528895D02*
X192131914Y-56433657D01*
X192131914Y-56433657D02*
X192179533Y-56386038D01*
X192179533Y-56386038D02*
X192274771Y-56338419D01*
X192274771Y-56338419D02*
X192465247Y-56338419D01*
X192465247Y-56338419D02*
X192560485Y-56386038D01*
X192560485Y-56386038D02*
X192608104Y-56433657D01*
X192608104Y-56433657D02*
X192655723Y-56528895D01*
X192655723Y-56528895D02*
X192655723Y-56576514D01*
X192655723Y-56576514D02*
X192608104Y-56671752D01*
X192608104Y-56671752D02*
X192560485Y-56719371D01*
X192560485Y-56719371D02*
X192465247Y-56766990D01*
X192465247Y-56766990D02*
X192274771Y-56766990D01*
X192274771Y-56766990D02*
X192179533Y-56814609D01*
X192179533Y-56814609D02*
X192131914Y-56862228D01*
X192131914Y-56862228D02*
X192084295Y-56957466D01*
X192084295Y-56957466D02*
X192084295Y-57147942D01*
X192084295Y-57147942D02*
X192131914Y-57243180D01*
X192131914Y-57243180D02*
X192179533Y-57290800D01*
X192179533Y-57290800D02*
X192274771Y-57338419D01*
X192274771Y-57338419D02*
X192465247Y-57338419D01*
X192465247Y-57338419D02*
X192560485Y-57290800D01*
X192560485Y-57290800D02*
X192608104Y-57243180D01*
X192608104Y-57243180D02*
X192655723Y-57147942D01*
X192655723Y-57147942D02*
X192655723Y-56957466D01*
X192655723Y-56957466D02*
X192608104Y-56862228D01*
X192608104Y-56862228D02*
X192560485Y-56814609D01*
X192560485Y-56814609D02*
X192465247Y-56766990D01*
%TO.C,J9*%
X135195019Y-60251933D02*
X135909304Y-60251933D01*
X135909304Y-60251933D02*
X136052161Y-60299552D01*
X136052161Y-60299552D02*
X136147400Y-60394790D01*
X136147400Y-60394790D02*
X136195019Y-60537647D01*
X136195019Y-60537647D02*
X136195019Y-60632885D01*
X136195019Y-59728123D02*
X136195019Y-59537647D01*
X136195019Y-59537647D02*
X136147400Y-59442409D01*
X136147400Y-59442409D02*
X136099780Y-59394790D01*
X136099780Y-59394790D02*
X135956923Y-59299552D01*
X135956923Y-59299552D02*
X135766447Y-59251933D01*
X135766447Y-59251933D02*
X135385495Y-59251933D01*
X135385495Y-59251933D02*
X135290257Y-59299552D01*
X135290257Y-59299552D02*
X135242638Y-59347171D01*
X135242638Y-59347171D02*
X135195019Y-59442409D01*
X135195019Y-59442409D02*
X135195019Y-59632885D01*
X135195019Y-59632885D02*
X135242638Y-59728123D01*
X135242638Y-59728123D02*
X135290257Y-59775742D01*
X135290257Y-59775742D02*
X135385495Y-59823361D01*
X135385495Y-59823361D02*
X135623590Y-59823361D01*
X135623590Y-59823361D02*
X135718828Y-59775742D01*
X135718828Y-59775742D02*
X135766447Y-59728123D01*
X135766447Y-59728123D02*
X135814066Y-59632885D01*
X135814066Y-59632885D02*
X135814066Y-59442409D01*
X135814066Y-59442409D02*
X135766447Y-59347171D01*
X135766447Y-59347171D02*
X135718828Y-59299552D01*
X135718828Y-59299552D02*
X135623590Y-59251933D01*
%TO.C,J7*%
X178960466Y-85089819D02*
X178960466Y-85804104D01*
X178960466Y-85804104D02*
X178912847Y-85946961D01*
X178912847Y-85946961D02*
X178817609Y-86042200D01*
X178817609Y-86042200D02*
X178674752Y-86089819D01*
X178674752Y-86089819D02*
X178579514Y-86089819D01*
X179341419Y-85089819D02*
X180008085Y-85089819D01*
X180008085Y-85089819D02*
X179579514Y-86089819D01*
%TO.C,C5*%
X184957976Y-71125443D02*
X184957976Y-71192787D01*
X184957976Y-71192787D02*
X184890632Y-71327474D01*
X184890632Y-71327474D02*
X184823289Y-71394817D01*
X184823289Y-71394817D02*
X184688602Y-71462161D01*
X184688602Y-71462161D02*
X184553915Y-71462161D01*
X184553915Y-71462161D02*
X184452900Y-71428489D01*
X184452900Y-71428489D02*
X184284541Y-71327474D01*
X184284541Y-71327474D02*
X184183526Y-71226459D01*
X184183526Y-71226459D02*
X184082510Y-71058100D01*
X184082510Y-71058100D02*
X184048839Y-70957085D01*
X184048839Y-70957085D02*
X184048839Y-70822398D01*
X184048839Y-70822398D02*
X184116182Y-70687711D01*
X184116182Y-70687711D02*
X184183526Y-70620367D01*
X184183526Y-70620367D02*
X184318213Y-70553024D01*
X184318213Y-70553024D02*
X184385556Y-70553024D01*
X184957976Y-69845917D02*
X184621258Y-70182634D01*
X184621258Y-70182634D02*
X184924304Y-70553024D01*
X184924304Y-70553024D02*
X184924304Y-70485680D01*
X184924304Y-70485680D02*
X184957976Y-70384665D01*
X184957976Y-70384665D02*
X185126335Y-70216306D01*
X185126335Y-70216306D02*
X185227350Y-70182634D01*
X185227350Y-70182634D02*
X185294693Y-70182634D01*
X185294693Y-70182634D02*
X185395709Y-70216306D01*
X185395709Y-70216306D02*
X185564067Y-70384665D01*
X185564067Y-70384665D02*
X185597739Y-70485680D01*
X185597739Y-70485680D02*
X185597739Y-70553024D01*
X185597739Y-70553024D02*
X185564067Y-70654039D01*
X185564067Y-70654039D02*
X185395709Y-70822398D01*
X185395709Y-70822398D02*
X185294693Y-70856069D01*
X185294693Y-70856069D02*
X185227350Y-70856069D01*
%TO.C,J2*%
X136384819Y-141452338D02*
X137099104Y-141452338D01*
X137099104Y-141452338D02*
X137241961Y-141499957D01*
X137241961Y-141499957D02*
X137337200Y-141595195D01*
X137337200Y-141595195D02*
X137384819Y-141738052D01*
X137384819Y-141738052D02*
X137384819Y-141833290D01*
X136480057Y-141023766D02*
X136432438Y-140976147D01*
X136432438Y-140976147D02*
X136384819Y-140880909D01*
X136384819Y-140880909D02*
X136384819Y-140642814D01*
X136384819Y-140642814D02*
X136432438Y-140547576D01*
X136432438Y-140547576D02*
X136480057Y-140499957D01*
X136480057Y-140499957D02*
X136575295Y-140452338D01*
X136575295Y-140452338D02*
X136670533Y-140452338D01*
X136670533Y-140452338D02*
X136813390Y-140499957D01*
X136813390Y-140499957D02*
X137384819Y-141071385D01*
X137384819Y-141071385D02*
X137384819Y-140452338D01*
%TO.C,J13*%
X135207476Y-130308819D02*
X135207476Y-131023104D01*
X135207476Y-131023104D02*
X135159857Y-131165961D01*
X135159857Y-131165961D02*
X135064619Y-131261200D01*
X135064619Y-131261200D02*
X134921762Y-131308819D01*
X134921762Y-131308819D02*
X134826524Y-131308819D01*
X136207476Y-131308819D02*
X135636048Y-131308819D01*
X135921762Y-131308819D02*
X135921762Y-130308819D01*
X135921762Y-130308819D02*
X135826524Y-130451676D01*
X135826524Y-130451676D02*
X135731286Y-130546914D01*
X135731286Y-130546914D02*
X135636048Y-130594533D01*
X136540810Y-130308819D02*
X137159857Y-130308819D01*
X137159857Y-130308819D02*
X136826524Y-130689771D01*
X136826524Y-130689771D02*
X136969381Y-130689771D01*
X136969381Y-130689771D02*
X137064619Y-130737390D01*
X137064619Y-130737390D02*
X137112238Y-130785009D01*
X137112238Y-130785009D02*
X137159857Y-130880247D01*
X137159857Y-130880247D02*
X137159857Y-131118342D01*
X137159857Y-131118342D02*
X137112238Y-131213580D01*
X137112238Y-131213580D02*
X137064619Y-131261200D01*
X137064619Y-131261200D02*
X136969381Y-131308819D01*
X136969381Y-131308819D02*
X136683667Y-131308819D01*
X136683667Y-131308819D02*
X136588429Y-131261200D01*
X136588429Y-131261200D02*
X136540810Y-131213580D01*
%TO.C,J16*%
X113490476Y-141456819D02*
X113490476Y-142171104D01*
X113490476Y-142171104D02*
X113442857Y-142313961D01*
X113442857Y-142313961D02*
X113347619Y-142409200D01*
X113347619Y-142409200D02*
X113204762Y-142456819D01*
X113204762Y-142456819D02*
X113109524Y-142456819D01*
X114490476Y-142456819D02*
X113919048Y-142456819D01*
X114204762Y-142456819D02*
X114204762Y-141456819D01*
X114204762Y-141456819D02*
X114109524Y-141599676D01*
X114109524Y-141599676D02*
X114014286Y-141694914D01*
X114014286Y-141694914D02*
X113919048Y-141742533D01*
X115347619Y-141456819D02*
X115157143Y-141456819D01*
X115157143Y-141456819D02*
X115061905Y-141504438D01*
X115061905Y-141504438D02*
X115014286Y-141552057D01*
X115014286Y-141552057D02*
X114919048Y-141694914D01*
X114919048Y-141694914D02*
X114871429Y-141885390D01*
X114871429Y-141885390D02*
X114871429Y-142266342D01*
X114871429Y-142266342D02*
X114919048Y-142361580D01*
X114919048Y-142361580D02*
X114966667Y-142409200D01*
X114966667Y-142409200D02*
X115061905Y-142456819D01*
X115061905Y-142456819D02*
X115252381Y-142456819D01*
X115252381Y-142456819D02*
X115347619Y-142409200D01*
X115347619Y-142409200D02*
X115395238Y-142361580D01*
X115395238Y-142361580D02*
X115442857Y-142266342D01*
X115442857Y-142266342D02*
X115442857Y-142028247D01*
X115442857Y-142028247D02*
X115395238Y-141933009D01*
X115395238Y-141933009D02*
X115347619Y-141885390D01*
X115347619Y-141885390D02*
X115252381Y-141837771D01*
X115252381Y-141837771D02*
X115061905Y-141837771D01*
X115061905Y-141837771D02*
X114966667Y-141885390D01*
X114966667Y-141885390D02*
X114919048Y-141933009D01*
X114919048Y-141933009D02*
X114871429Y-142028247D01*
%TO.C,U4*%
X137810619Y-100156904D02*
X138620142Y-100156904D01*
X138620142Y-100156904D02*
X138715380Y-100109285D01*
X138715380Y-100109285D02*
X138763000Y-100061666D01*
X138763000Y-100061666D02*
X138810619Y-99966428D01*
X138810619Y-99966428D02*
X138810619Y-99775952D01*
X138810619Y-99775952D02*
X138763000Y-99680714D01*
X138763000Y-99680714D02*
X138715380Y-99633095D01*
X138715380Y-99633095D02*
X138620142Y-99585476D01*
X138620142Y-99585476D02*
X137810619Y-99585476D01*
X138143952Y-98680714D02*
X138810619Y-98680714D01*
X137763000Y-98918809D02*
X138477285Y-99156904D01*
X138477285Y-99156904D02*
X138477285Y-98537857D01*
%TO.C,J15*%
X108410476Y-141456819D02*
X108410476Y-142171104D01*
X108410476Y-142171104D02*
X108362857Y-142313961D01*
X108362857Y-142313961D02*
X108267619Y-142409200D01*
X108267619Y-142409200D02*
X108124762Y-142456819D01*
X108124762Y-142456819D02*
X108029524Y-142456819D01*
X109410476Y-142456819D02*
X108839048Y-142456819D01*
X109124762Y-142456819D02*
X109124762Y-141456819D01*
X109124762Y-141456819D02*
X109029524Y-141599676D01*
X109029524Y-141599676D02*
X108934286Y-141694914D01*
X108934286Y-141694914D02*
X108839048Y-141742533D01*
X110315238Y-141456819D02*
X109839048Y-141456819D01*
X109839048Y-141456819D02*
X109791429Y-141933009D01*
X109791429Y-141933009D02*
X109839048Y-141885390D01*
X109839048Y-141885390D02*
X109934286Y-141837771D01*
X109934286Y-141837771D02*
X110172381Y-141837771D01*
X110172381Y-141837771D02*
X110267619Y-141885390D01*
X110267619Y-141885390D02*
X110315238Y-141933009D01*
X110315238Y-141933009D02*
X110362857Y-142028247D01*
X110362857Y-142028247D02*
X110362857Y-142266342D01*
X110362857Y-142266342D02*
X110315238Y-142361580D01*
X110315238Y-142361580D02*
X110267619Y-142409200D01*
X110267619Y-142409200D02*
X110172381Y-142456819D01*
X110172381Y-142456819D02*
X109934286Y-142456819D01*
X109934286Y-142456819D02*
X109839048Y-142409200D01*
X109839048Y-142409200D02*
X109791429Y-142361580D01*
%TO.C,J14*%
X156509819Y-130984523D02*
X157224104Y-130984523D01*
X157224104Y-130984523D02*
X157366961Y-131032142D01*
X157366961Y-131032142D02*
X157462200Y-131127380D01*
X157462200Y-131127380D02*
X157509819Y-131270237D01*
X157509819Y-131270237D02*
X157509819Y-131365475D01*
X157509819Y-129984523D02*
X157509819Y-130555951D01*
X157509819Y-130270237D02*
X156509819Y-130270237D01*
X156509819Y-130270237D02*
X156652676Y-130365475D01*
X156652676Y-130365475D02*
X156747914Y-130460713D01*
X156747914Y-130460713D02*
X156795533Y-130555951D01*
X156843152Y-129127380D02*
X157509819Y-129127380D01*
X156462200Y-129365475D02*
X157176485Y-129603570D01*
X157176485Y-129603570D02*
X157176485Y-128984523D01*
%TO.C,U3*%
X133160619Y-116417904D02*
X133970142Y-116417904D01*
X133970142Y-116417904D02*
X134065380Y-116370285D01*
X134065380Y-116370285D02*
X134113000Y-116322666D01*
X134113000Y-116322666D02*
X134160619Y-116227428D01*
X134160619Y-116227428D02*
X134160619Y-116036952D01*
X134160619Y-116036952D02*
X134113000Y-115941714D01*
X134113000Y-115941714D02*
X134065380Y-115894095D01*
X134065380Y-115894095D02*
X133970142Y-115846476D01*
X133970142Y-115846476D02*
X133160619Y-115846476D01*
X133160619Y-115465523D02*
X133160619Y-114846476D01*
X133160619Y-114846476D02*
X133541571Y-115179809D01*
X133541571Y-115179809D02*
X133541571Y-115036952D01*
X133541571Y-115036952D02*
X133589190Y-114941714D01*
X133589190Y-114941714D02*
X133636809Y-114894095D01*
X133636809Y-114894095D02*
X133732047Y-114846476D01*
X133732047Y-114846476D02*
X133970142Y-114846476D01*
X133970142Y-114846476D02*
X134065380Y-114894095D01*
X134065380Y-114894095D02*
X134113000Y-114941714D01*
X134113000Y-114941714D02*
X134160619Y-115036952D01*
X134160619Y-115036952D02*
X134160619Y-115322666D01*
X134160619Y-115322666D02*
X134113000Y-115417904D01*
X134113000Y-115417904D02*
X134065380Y-115465523D01*
%TO.C,U1*%
X172950619Y-90250904D02*
X173760142Y-90250904D01*
X173760142Y-90250904D02*
X173855380Y-90203285D01*
X173855380Y-90203285D02*
X173903000Y-90155666D01*
X173903000Y-90155666D02*
X173950619Y-90060428D01*
X173950619Y-90060428D02*
X173950619Y-89869952D01*
X173950619Y-89869952D02*
X173903000Y-89774714D01*
X173903000Y-89774714D02*
X173855380Y-89727095D01*
X173855380Y-89727095D02*
X173760142Y-89679476D01*
X173760142Y-89679476D02*
X172950619Y-89679476D01*
X173950619Y-88679476D02*
X173950619Y-89250904D01*
X173950619Y-88965190D02*
X172950619Y-88965190D01*
X172950619Y-88965190D02*
X173093476Y-89060428D01*
X173093476Y-89060428D02*
X173188714Y-89155666D01*
X173188714Y-89155666D02*
X173236333Y-89250904D01*
%TO.C,J3*%
X136384819Y-55906338D02*
X137099104Y-55906338D01*
X137099104Y-55906338D02*
X137241961Y-55953957D01*
X137241961Y-55953957D02*
X137337200Y-56049195D01*
X137337200Y-56049195D02*
X137384819Y-56192052D01*
X137384819Y-56192052D02*
X137384819Y-56287290D01*
X136384819Y-55525385D02*
X136384819Y-54906338D01*
X136384819Y-54906338D02*
X136765771Y-55239671D01*
X136765771Y-55239671D02*
X136765771Y-55096814D01*
X136765771Y-55096814D02*
X136813390Y-55001576D01*
X136813390Y-55001576D02*
X136861009Y-54953957D01*
X136861009Y-54953957D02*
X136956247Y-54906338D01*
X136956247Y-54906338D02*
X137194342Y-54906338D01*
X137194342Y-54906338D02*
X137289580Y-54953957D01*
X137289580Y-54953957D02*
X137337200Y-55001576D01*
X137337200Y-55001576D02*
X137384819Y-55096814D01*
X137384819Y-55096814D02*
X137384819Y-55382528D01*
X137384819Y-55382528D02*
X137337200Y-55477766D01*
X137337200Y-55477766D02*
X137289580Y-55525385D01*
%TO.C,JP2*%
X162790619Y-79400333D02*
X163504904Y-79400333D01*
X163504904Y-79400333D02*
X163647761Y-79447952D01*
X163647761Y-79447952D02*
X163743000Y-79543190D01*
X163743000Y-79543190D02*
X163790619Y-79686047D01*
X163790619Y-79686047D02*
X163790619Y-79781285D01*
X163790619Y-78924142D02*
X162790619Y-78924142D01*
X162790619Y-78924142D02*
X162790619Y-78543190D01*
X162790619Y-78543190D02*
X162838238Y-78447952D01*
X162838238Y-78447952D02*
X162885857Y-78400333D01*
X162885857Y-78400333D02*
X162981095Y-78352714D01*
X162981095Y-78352714D02*
X163123952Y-78352714D01*
X163123952Y-78352714D02*
X163219190Y-78400333D01*
X163219190Y-78400333D02*
X163266809Y-78447952D01*
X163266809Y-78447952D02*
X163314428Y-78543190D01*
X163314428Y-78543190D02*
X163314428Y-78924142D01*
X162885857Y-77971761D02*
X162838238Y-77924142D01*
X162838238Y-77924142D02*
X162790619Y-77828904D01*
X162790619Y-77828904D02*
X162790619Y-77590809D01*
X162790619Y-77590809D02*
X162838238Y-77495571D01*
X162838238Y-77495571D02*
X162885857Y-77447952D01*
X162885857Y-77447952D02*
X162981095Y-77400333D01*
X162981095Y-77400333D02*
X163076333Y-77400333D01*
X163076333Y-77400333D02*
X163219190Y-77447952D01*
X163219190Y-77447952D02*
X163790619Y-78019380D01*
X163790619Y-78019380D02*
X163790619Y-77400333D01*
%TO.C,U7*%
X189331695Y-63335819D02*
X189331695Y-64145342D01*
X189331695Y-64145342D02*
X189379314Y-64240580D01*
X189379314Y-64240580D02*
X189426933Y-64288200D01*
X189426933Y-64288200D02*
X189522171Y-64335819D01*
X189522171Y-64335819D02*
X189712647Y-64335819D01*
X189712647Y-64335819D02*
X189807885Y-64288200D01*
X189807885Y-64288200D02*
X189855504Y-64240580D01*
X189855504Y-64240580D02*
X189903123Y-64145342D01*
X189903123Y-64145342D02*
X189903123Y-63335819D01*
X190284076Y-63335819D02*
X190950742Y-63335819D01*
X190950742Y-63335819D02*
X190522171Y-64335819D01*
%TO.C,C1*%
X135240733Y-56438580D02*
X135193114Y-56486200D01*
X135193114Y-56486200D02*
X135050257Y-56533819D01*
X135050257Y-56533819D02*
X134955019Y-56533819D01*
X134955019Y-56533819D02*
X134812162Y-56486200D01*
X134812162Y-56486200D02*
X134716924Y-56390961D01*
X134716924Y-56390961D02*
X134669305Y-56295723D01*
X134669305Y-56295723D02*
X134621686Y-56105247D01*
X134621686Y-56105247D02*
X134621686Y-55962390D01*
X134621686Y-55962390D02*
X134669305Y-55771914D01*
X134669305Y-55771914D02*
X134716924Y-55676676D01*
X134716924Y-55676676D02*
X134812162Y-55581438D01*
X134812162Y-55581438D02*
X134955019Y-55533819D01*
X134955019Y-55533819D02*
X135050257Y-55533819D01*
X135050257Y-55533819D02*
X135193114Y-55581438D01*
X135193114Y-55581438D02*
X135240733Y-55629057D01*
X136193114Y-56533819D02*
X135621686Y-56533819D01*
X135907400Y-56533819D02*
X135907400Y-55533819D01*
X135907400Y-55533819D02*
X135812162Y-55676676D01*
X135812162Y-55676676D02*
X135716924Y-55771914D01*
X135716924Y-55771914D02*
X135621686Y-55819533D01*
%TO.C,J8*%
X187855266Y-127798419D02*
X187855266Y-128512704D01*
X187855266Y-128512704D02*
X187807647Y-128655561D01*
X187807647Y-128655561D02*
X187712409Y-128750800D01*
X187712409Y-128750800D02*
X187569552Y-128798419D01*
X187569552Y-128798419D02*
X187474314Y-128798419D01*
X188474314Y-128226990D02*
X188379076Y-128179371D01*
X188379076Y-128179371D02*
X188331457Y-128131752D01*
X188331457Y-128131752D02*
X188283838Y-128036514D01*
X188283838Y-128036514D02*
X188283838Y-127988895D01*
X188283838Y-127988895D02*
X188331457Y-127893657D01*
X188331457Y-127893657D02*
X188379076Y-127846038D01*
X188379076Y-127846038D02*
X188474314Y-127798419D01*
X188474314Y-127798419D02*
X188664790Y-127798419D01*
X188664790Y-127798419D02*
X188760028Y-127846038D01*
X188760028Y-127846038D02*
X188807647Y-127893657D01*
X188807647Y-127893657D02*
X188855266Y-127988895D01*
X188855266Y-127988895D02*
X188855266Y-128036514D01*
X188855266Y-128036514D02*
X188807647Y-128131752D01*
X188807647Y-128131752D02*
X188760028Y-128179371D01*
X188760028Y-128179371D02*
X188664790Y-128226990D01*
X188664790Y-128226990D02*
X188474314Y-128226990D01*
X188474314Y-128226990D02*
X188379076Y-128274609D01*
X188379076Y-128274609D02*
X188331457Y-128322228D01*
X188331457Y-128322228D02*
X188283838Y-128417466D01*
X188283838Y-128417466D02*
X188283838Y-128607942D01*
X188283838Y-128607942D02*
X188331457Y-128703180D01*
X188331457Y-128703180D02*
X188379076Y-128750800D01*
X188379076Y-128750800D02*
X188474314Y-128798419D01*
X188474314Y-128798419D02*
X188664790Y-128798419D01*
X188664790Y-128798419D02*
X188760028Y-128750800D01*
X188760028Y-128750800D02*
X188807647Y-128703180D01*
X188807647Y-128703180D02*
X188855266Y-128607942D01*
X188855266Y-128607942D02*
X188855266Y-128417466D01*
X188855266Y-128417466D02*
X188807647Y-128322228D01*
X188807647Y-128322228D02*
X188760028Y-128274609D01*
X188760028Y-128274609D02*
X188664790Y-128226990D01*
%TO.C,J22*%
X144402276Y-63631819D02*
X144402276Y-64346104D01*
X144402276Y-64346104D02*
X144354657Y-64488961D01*
X144354657Y-64488961D02*
X144259419Y-64584200D01*
X144259419Y-64584200D02*
X144116562Y-64631819D01*
X144116562Y-64631819D02*
X144021324Y-64631819D01*
X144830848Y-63727057D02*
X144878467Y-63679438D01*
X144878467Y-63679438D02*
X144973705Y-63631819D01*
X144973705Y-63631819D02*
X145211800Y-63631819D01*
X145211800Y-63631819D02*
X145307038Y-63679438D01*
X145307038Y-63679438D02*
X145354657Y-63727057D01*
X145354657Y-63727057D02*
X145402276Y-63822295D01*
X145402276Y-63822295D02*
X145402276Y-63917533D01*
X145402276Y-63917533D02*
X145354657Y-64060390D01*
X145354657Y-64060390D02*
X144783229Y-64631819D01*
X144783229Y-64631819D02*
X145402276Y-64631819D01*
X145783229Y-63727057D02*
X145830848Y-63679438D01*
X145830848Y-63679438D02*
X145926086Y-63631819D01*
X145926086Y-63631819D02*
X146164181Y-63631819D01*
X146164181Y-63631819D02*
X146259419Y-63679438D01*
X146259419Y-63679438D02*
X146307038Y-63727057D01*
X146307038Y-63727057D02*
X146354657Y-63822295D01*
X146354657Y-63822295D02*
X146354657Y-63917533D01*
X146354657Y-63917533D02*
X146307038Y-64060390D01*
X146307038Y-64060390D02*
X145735610Y-64631819D01*
X145735610Y-64631819D02*
X146354657Y-64631819D01*
%TO.C,J23*%
X103330476Y-136376819D02*
X103330476Y-137091104D01*
X103330476Y-137091104D02*
X103282857Y-137233961D01*
X103282857Y-137233961D02*
X103187619Y-137329200D01*
X103187619Y-137329200D02*
X103044762Y-137376819D01*
X103044762Y-137376819D02*
X102949524Y-137376819D01*
X103759048Y-136472057D02*
X103806667Y-136424438D01*
X103806667Y-136424438D02*
X103901905Y-136376819D01*
X103901905Y-136376819D02*
X104140000Y-136376819D01*
X104140000Y-136376819D02*
X104235238Y-136424438D01*
X104235238Y-136424438D02*
X104282857Y-136472057D01*
X104282857Y-136472057D02*
X104330476Y-136567295D01*
X104330476Y-136567295D02*
X104330476Y-136662533D01*
X104330476Y-136662533D02*
X104282857Y-136805390D01*
X104282857Y-136805390D02*
X103711429Y-137376819D01*
X103711429Y-137376819D02*
X104330476Y-137376819D01*
X104663810Y-136376819D02*
X105282857Y-136376819D01*
X105282857Y-136376819D02*
X104949524Y-136757771D01*
X104949524Y-136757771D02*
X105092381Y-136757771D01*
X105092381Y-136757771D02*
X105187619Y-136805390D01*
X105187619Y-136805390D02*
X105235238Y-136853009D01*
X105235238Y-136853009D02*
X105282857Y-136948247D01*
X105282857Y-136948247D02*
X105282857Y-137186342D01*
X105282857Y-137186342D02*
X105235238Y-137281580D01*
X105235238Y-137281580D02*
X105187619Y-137329200D01*
X105187619Y-137329200D02*
X105092381Y-137376819D01*
X105092381Y-137376819D02*
X104806667Y-137376819D01*
X104806667Y-137376819D02*
X104711429Y-137329200D01*
X104711429Y-137329200D02*
X104663810Y-137281580D01*
%TO.C,J12*%
X135195019Y-63547523D02*
X135909304Y-63547523D01*
X135909304Y-63547523D02*
X136052161Y-63595142D01*
X136052161Y-63595142D02*
X136147400Y-63690380D01*
X136147400Y-63690380D02*
X136195019Y-63833237D01*
X136195019Y-63833237D02*
X136195019Y-63928475D01*
X136195019Y-62547523D02*
X136195019Y-63118951D01*
X136195019Y-62833237D02*
X135195019Y-62833237D01*
X135195019Y-62833237D02*
X135337876Y-62928475D01*
X135337876Y-62928475D02*
X135433114Y-63023713D01*
X135433114Y-63023713D02*
X135480733Y-63118951D01*
X135290257Y-62166570D02*
X135242638Y-62118951D01*
X135242638Y-62118951D02*
X135195019Y-62023713D01*
X135195019Y-62023713D02*
X135195019Y-61785618D01*
X135195019Y-61785618D02*
X135242638Y-61690380D01*
X135242638Y-61690380D02*
X135290257Y-61642761D01*
X135290257Y-61642761D02*
X135385495Y-61595142D01*
X135385495Y-61595142D02*
X135480733Y-61595142D01*
X135480733Y-61595142D02*
X135623590Y-61642761D01*
X135623590Y-61642761D02*
X136195019Y-62214189D01*
X136195019Y-62214189D02*
X136195019Y-61595142D01*
%TO.C,J19*%
X128730476Y-141456819D02*
X128730476Y-142171104D01*
X128730476Y-142171104D02*
X128682857Y-142313961D01*
X128682857Y-142313961D02*
X128587619Y-142409200D01*
X128587619Y-142409200D02*
X128444762Y-142456819D01*
X128444762Y-142456819D02*
X128349524Y-142456819D01*
X129730476Y-142456819D02*
X129159048Y-142456819D01*
X129444762Y-142456819D02*
X129444762Y-141456819D01*
X129444762Y-141456819D02*
X129349524Y-141599676D01*
X129349524Y-141599676D02*
X129254286Y-141694914D01*
X129254286Y-141694914D02*
X129159048Y-141742533D01*
X130206667Y-142456819D02*
X130397143Y-142456819D01*
X130397143Y-142456819D02*
X130492381Y-142409200D01*
X130492381Y-142409200D02*
X130540000Y-142361580D01*
X130540000Y-142361580D02*
X130635238Y-142218723D01*
X130635238Y-142218723D02*
X130682857Y-142028247D01*
X130682857Y-142028247D02*
X130682857Y-141647295D01*
X130682857Y-141647295D02*
X130635238Y-141552057D01*
X130635238Y-141552057D02*
X130587619Y-141504438D01*
X130587619Y-141504438D02*
X130492381Y-141456819D01*
X130492381Y-141456819D02*
X130301905Y-141456819D01*
X130301905Y-141456819D02*
X130206667Y-141504438D01*
X130206667Y-141504438D02*
X130159048Y-141552057D01*
X130159048Y-141552057D02*
X130111429Y-141647295D01*
X130111429Y-141647295D02*
X130111429Y-141885390D01*
X130111429Y-141885390D02*
X130159048Y-141980628D01*
X130159048Y-141980628D02*
X130206667Y-142028247D01*
X130206667Y-142028247D02*
X130301905Y-142075866D01*
X130301905Y-142075866D02*
X130492381Y-142075866D01*
X130492381Y-142075866D02*
X130587619Y-142028247D01*
X130587619Y-142028247D02*
X130635238Y-141980628D01*
X130635238Y-141980628D02*
X130682857Y-141885390D01*
%TO.C,R1*%
X189668219Y-131890466D02*
X189192028Y-132223799D01*
X189668219Y-132461894D02*
X188668219Y-132461894D01*
X188668219Y-132461894D02*
X188668219Y-132080942D01*
X188668219Y-132080942D02*
X188715838Y-131985704D01*
X188715838Y-131985704D02*
X188763457Y-131938085D01*
X188763457Y-131938085D02*
X188858695Y-131890466D01*
X188858695Y-131890466D02*
X189001552Y-131890466D01*
X189001552Y-131890466D02*
X189096790Y-131938085D01*
X189096790Y-131938085D02*
X189144409Y-131985704D01*
X189144409Y-131985704D02*
X189192028Y-132080942D01*
X189192028Y-132080942D02*
X189192028Y-132461894D01*
X189668219Y-130938085D02*
X189668219Y-131509513D01*
X189668219Y-131223799D02*
X188668219Y-131223799D01*
X188668219Y-131223799D02*
X188811076Y-131319037D01*
X188811076Y-131319037D02*
X188906314Y-131414275D01*
X188906314Y-131414275D02*
X188953933Y-131509513D01*
%TO.C,U2*%
X165731950Y-127517904D02*
X166541473Y-127517904D01*
X166541473Y-127517904D02*
X166636711Y-127470285D01*
X166636711Y-127470285D02*
X166684331Y-127422666D01*
X166684331Y-127422666D02*
X166731950Y-127327428D01*
X166731950Y-127327428D02*
X166731950Y-127136952D01*
X166731950Y-127136952D02*
X166684331Y-127041714D01*
X166684331Y-127041714D02*
X166636711Y-126994095D01*
X166636711Y-126994095D02*
X166541473Y-126946476D01*
X166541473Y-126946476D02*
X165731950Y-126946476D01*
X165827188Y-126517904D02*
X165779569Y-126470285D01*
X165779569Y-126470285D02*
X165731950Y-126375047D01*
X165731950Y-126375047D02*
X165731950Y-126136952D01*
X165731950Y-126136952D02*
X165779569Y-126041714D01*
X165779569Y-126041714D02*
X165827188Y-125994095D01*
X165827188Y-125994095D02*
X165922426Y-125946476D01*
X165922426Y-125946476D02*
X166017664Y-125946476D01*
X166017664Y-125946476D02*
X166160521Y-125994095D01*
X166160521Y-125994095D02*
X166731950Y-126565523D01*
X166731950Y-126565523D02*
X166731950Y-125946476D01*
D12*
%TO.C,JP3*%
X148111800Y-119909000D02*
X148111800Y-121239000D01*
X146781800Y-119909000D02*
X148111800Y-119909000D01*
X145511800Y-119909000D02*
X140371800Y-119909000D01*
X145511800Y-119909000D02*
X145511800Y-122569000D01*
X140371800Y-119909000D02*
X140371800Y-122569000D01*
X145511800Y-122569000D02*
X140371800Y-122569000D01*
%TO.C,C4*%
X154608052Y-65400600D02*
X153185548Y-65400600D01*
X154608052Y-63580600D02*
X153185548Y-63580600D01*
%TO.C,J1*%
X138370000Y-52173005D02*
X189290000Y-52173005D01*
X138370000Y-52173005D02*
X138370000Y-49573005D01*
X189290000Y-52173005D02*
X189290000Y-46973005D01*
X138370000Y-49573005D02*
X140970000Y-49573005D01*
X140970000Y-49573005D02*
X140970000Y-46973005D01*
X138370000Y-48303005D02*
X138370000Y-46973005D01*
X138370000Y-46973005D02*
X139700000Y-46973005D01*
X140970000Y-46973005D02*
X189290000Y-46973005D01*
%TO.C,J6*%
X181773800Y-86635000D02*
X183103800Y-86635000D01*
X181773800Y-87965000D02*
X181773800Y-86635000D01*
X181773800Y-89235000D02*
X181773800Y-96915000D01*
X181773800Y-89235000D02*
X184433800Y-89235000D01*
X181773800Y-96915000D02*
X184433800Y-96915000D01*
X184433800Y-89235000D02*
X184433800Y-96915000D01*
%TO.C,J4*%
X138370000Y-137719005D02*
X189290000Y-137719005D01*
X138370000Y-137719005D02*
X138370000Y-135119005D01*
X189290000Y-137719005D02*
X189290000Y-132519005D01*
X138370000Y-135119005D02*
X140970000Y-135119005D01*
X140970000Y-135119005D02*
X140970000Y-132519005D01*
X138370000Y-133849005D02*
X138370000Y-132519005D01*
X138370000Y-132519005D02*
X139700000Y-132519005D01*
X140970000Y-132519005D02*
X189290000Y-132519005D01*
%TO.C,J18*%
X122015000Y-141002000D02*
X123645000Y-141002000D01*
X122015001Y-49752000D02*
X122015000Y-141002000D01*
X123645000Y-140642000D02*
X125274999Y-140642000D01*
X123645000Y-141002000D02*
X123645000Y-140642000D01*
X125274999Y-140642000D02*
X125274999Y-141002000D01*
X125274999Y-141002000D02*
X126904999Y-141002000D01*
X126904999Y-141002000D02*
X126905000Y-49752000D01*
X126905000Y-49752000D02*
X122015001Y-49752000D01*
%TO.C,J5*%
X146271800Y-67227000D02*
X145211800Y-67227000D01*
X146271800Y-66167000D02*
X146271800Y-67227000D01*
X146271800Y-65167000D02*
X146271800Y-65107000D01*
X146271800Y-65167000D02*
X144151800Y-65167000D01*
X146271800Y-65107000D02*
X144151800Y-65107000D01*
X144151800Y-65167000D02*
X144151800Y-65107000D01*
%TO.C,U6*%
X176490800Y-73692871D02*
X179940800Y-73692871D01*
X176490800Y-73692871D02*
X174540800Y-73692871D01*
X176490800Y-63572871D02*
X178440800Y-63572871D01*
X176490800Y-63572871D02*
X174540800Y-63572871D01*
%TO.C,J17*%
X116935000Y-141002000D02*
X118565000Y-141002000D01*
X116935001Y-49752000D02*
X116935000Y-141002000D01*
X118565000Y-140642000D02*
X120194999Y-140642000D01*
X118565000Y-141002000D02*
X118565000Y-140642000D01*
X120194999Y-140642000D02*
X120194999Y-141002000D01*
X120194999Y-141002000D02*
X121824999Y-141002000D01*
X121824999Y-141002000D02*
X121825000Y-49752000D01*
X121825000Y-49752000D02*
X116935001Y-49752000D01*
%TO.C,U8*%
X191846200Y-57723600D02*
X190046200Y-57723600D01*
X191846200Y-57723600D02*
X192646200Y-57723600D01*
X191846200Y-60843600D02*
X191046200Y-60843600D01*
X191846200Y-60843600D02*
X192646200Y-60843600D01*
%TO.C,J9*%
X134740200Y-58858600D02*
X134740200Y-59918600D01*
X133680200Y-58858600D02*
X134740200Y-58858600D01*
X132680200Y-58858600D02*
X132620200Y-58858600D01*
X132680200Y-58858600D02*
X132680200Y-60978600D01*
X132620200Y-58858600D02*
X132620200Y-60978600D01*
X132680200Y-60978600D02*
X132620200Y-60978600D01*
%TO.C,J7*%
X176693800Y-86635000D02*
X178023800Y-86635000D01*
X176693800Y-87965000D02*
X176693800Y-86635000D01*
X176693800Y-89235000D02*
X176693800Y-96915000D01*
X176693800Y-89235000D02*
X179293800Y-89235000D01*
X176693800Y-96915000D02*
X181893800Y-96915000D01*
X179293800Y-86635000D02*
X181893800Y-86635000D01*
X179293800Y-89235000D02*
X179293800Y-86635000D01*
X181893800Y-86635000D02*
X181893800Y-96915000D01*
%TO.C,J20*%
X106587000Y-143719005D02*
X106587000Y-142389005D01*
X107917000Y-143719005D02*
X106587000Y-143719005D01*
X109187000Y-143719005D02*
X137187000Y-143719005D01*
X109187000Y-143719005D02*
X109187000Y-141059005D01*
X137187000Y-143719005D02*
X137187000Y-141059005D01*
X109187000Y-141059005D02*
X137187000Y-141059005D01*
%TO.C,C5*%
X184659815Y-69585719D02*
X183653953Y-70591581D01*
X183372881Y-68298785D02*
X182367019Y-69304647D01*
%TO.C,J2*%
X138370000Y-143719005D02*
X189290000Y-143719005D01*
X138370000Y-143719005D02*
X138370000Y-141119005D01*
X189290000Y-143719005D02*
X189290000Y-138519005D01*
X138370000Y-141119005D02*
X140970000Y-141119005D01*
X140970000Y-141119005D02*
X140970000Y-138519005D01*
X138370000Y-139849005D02*
X138370000Y-138519005D01*
X138370000Y-138519005D02*
X139700000Y-138519005D01*
X140970000Y-138519005D02*
X189290000Y-138519005D01*
%TO.C,J13*%
X137347000Y-129854000D02*
X136017000Y-129854000D01*
X137347000Y-128524000D02*
X137347000Y-129854000D01*
X137347000Y-127254000D02*
X137347000Y-119574000D01*
X137347000Y-127254000D02*
X134687000Y-127254000D01*
X137347000Y-119574000D02*
X134687000Y-119574000D01*
X134687000Y-127254000D02*
X134687000Y-119574000D01*
%TO.C,J16*%
X111855000Y-141002000D02*
X113485000Y-141002000D01*
X111855001Y-49752000D02*
X111855000Y-141002000D01*
X113485000Y-140642000D02*
X115114999Y-140642000D01*
X113485000Y-141002000D02*
X113485000Y-140642000D01*
X115114999Y-140642000D02*
X115114999Y-141002000D01*
X115114999Y-141002000D02*
X116744999Y-141002000D01*
X116744999Y-141002000D02*
X116745000Y-49752000D01*
X116745000Y-49752000D02*
X111855001Y-49752000D01*
%TO.C,U4*%
X139355800Y-105455000D02*
X169955800Y-105455000D01*
X169955800Y-105455000D02*
X169955800Y-93335000D01*
X139355800Y-100395000D02*
X139355800Y-105455000D01*
X139355800Y-93335000D02*
X139355800Y-98395000D01*
X169955800Y-93335000D02*
X139355800Y-93335000D01*
X139355800Y-100395000D02*
G75*
G03*
X139355800Y-98395000I0J1000000D01*
G01*
%TO.C,J15*%
X106775000Y-141002000D02*
X108405000Y-141002000D01*
X106775001Y-49752000D02*
X106775000Y-141002000D01*
X108405000Y-140642000D02*
X110034999Y-140642000D01*
X108405000Y-141002000D02*
X108405000Y-140642000D01*
X110034999Y-140642000D02*
X110034999Y-141002000D01*
X110034999Y-141002000D02*
X111664999Y-141002000D01*
X111664999Y-141002000D02*
X111665000Y-49752000D01*
X111665000Y-49752000D02*
X106775001Y-49752000D01*
%TO.C,J14*%
X158055000Y-131505000D02*
X158055000Y-130175000D01*
X159385000Y-131505000D02*
X158055000Y-131505000D01*
X160655000Y-131505000D02*
X163255000Y-131505000D01*
X160655000Y-131505000D02*
X160655000Y-128845000D01*
X163255000Y-131505000D02*
X163255000Y-128845000D01*
X160655000Y-128845000D02*
X163255000Y-128845000D01*
%TO.C,U3*%
X134982800Y-118112000D02*
X186022800Y-118112000D01*
X186022800Y-118112000D02*
X186022800Y-99992000D01*
X135042800Y-115112000D02*
X185962800Y-115112000D01*
X185962800Y-115112000D02*
X185962800Y-102992000D01*
X135042800Y-110052000D02*
X135042800Y-115112000D01*
X135042800Y-102992000D02*
X135042800Y-108052000D01*
X185962800Y-102992000D02*
X135042800Y-102992000D01*
X134982800Y-99992000D02*
X134982800Y-118112000D01*
X186022800Y-99992000D02*
X134982800Y-99992000D01*
X135042800Y-110052000D02*
G75*
G03*
X135042800Y-108052000I0J1000000D01*
G01*
%TO.C,U1*%
X172495800Y-83429000D02*
X136815800Y-83429000D01*
X136815800Y-83429000D02*
X136815800Y-95549000D01*
X172495800Y-88489000D02*
X172495800Y-83429000D01*
X172495800Y-95549000D02*
X172495800Y-90489000D01*
X136815800Y-95549000D02*
X172495800Y-95549000D01*
X172495800Y-88489000D02*
G75*
G03*
X172495800Y-90489000I0J-1000000D01*
G01*
%TO.C,J3*%
X138370000Y-58173005D02*
X189290000Y-58173005D01*
X138370000Y-58173005D02*
X138370000Y-55573005D01*
X189290000Y-58173005D02*
X189290000Y-52973005D01*
X138370000Y-55573005D02*
X140970000Y-55573005D01*
X140970000Y-55573005D02*
X140970000Y-52973005D01*
X138370000Y-54303005D02*
X138370000Y-52973005D01*
X138370000Y-52973005D02*
X139700000Y-52973005D01*
X140970000Y-52973005D02*
X189290000Y-52973005D01*
%TO.C,JP2*%
X162335800Y-77237000D02*
X162335800Y-78567000D01*
X161005800Y-77237000D02*
X162335800Y-77237000D01*
X159735800Y-77237000D02*
X154595800Y-77237000D01*
X159735800Y-77237000D02*
X159735800Y-79897000D01*
X154595800Y-77237000D02*
X154595800Y-79897000D01*
X159735800Y-79897000D02*
X154595800Y-79897000D01*
%TO.C,U7*%
X190105200Y-62988671D02*
X186655200Y-62988671D01*
X190105200Y-62988671D02*
X192055200Y-62988671D01*
X190105200Y-73108671D02*
X188155200Y-73108671D01*
X190105200Y-73108671D02*
X192055200Y-73108671D01*
%TO.C,C1*%
X136118652Y-55139000D02*
X134696148Y-55139000D01*
X136118652Y-53319000D02*
X134696148Y-53319000D01*
%TO.C,J8*%
X187128600Y-129343600D02*
X188188600Y-129343600D01*
X187128600Y-130403600D02*
X187128600Y-129343600D01*
X187128600Y-131403600D02*
X187128600Y-131463600D01*
X187128600Y-131403600D02*
X189248600Y-131403600D01*
X187128600Y-131463600D02*
X189248600Y-131463600D01*
X189248600Y-131403600D02*
X189248600Y-131463600D01*
%TO.C,J22*%
X146271800Y-63177000D02*
X145211800Y-63177000D01*
X146271800Y-62117000D02*
X146271800Y-63177000D01*
X146271800Y-61117000D02*
X146271800Y-61057000D01*
X146271800Y-61117000D02*
X144151800Y-61117000D01*
X146271800Y-61057000D02*
X144151800Y-61057000D01*
X144151800Y-61117000D02*
X144151800Y-61057000D01*
%TO.C,J23*%
X101695000Y-135922000D02*
X103325000Y-135922000D01*
X101695001Y-54832000D02*
X101695000Y-135922000D01*
X103325000Y-135562000D02*
X104954999Y-135562000D01*
X103325000Y-135922000D02*
X103325000Y-135562000D01*
X104954999Y-135562000D02*
X104954999Y-135922000D01*
X104954999Y-135922000D02*
X106584999Y-135922000D01*
X106584999Y-135922000D02*
X106585000Y-54832000D01*
X106585000Y-54832000D02*
X101695001Y-54832000D01*
%TO.C,J12*%
X134740200Y-61678000D02*
X134740200Y-62738000D01*
X133680200Y-61678000D02*
X134740200Y-61678000D01*
X132680200Y-61678000D02*
X132620200Y-61678000D01*
X132680200Y-61678000D02*
X132680200Y-63798000D01*
X132620200Y-61678000D02*
X132620200Y-63798000D01*
X132680200Y-63798000D02*
X132620200Y-63798000D01*
%TO.C,J21*%
X105350000Y-49590000D02*
X105350000Y-48260000D01*
X106680000Y-49590000D02*
X105350000Y-49590000D01*
X107950000Y-49590000D02*
X135950000Y-49590000D01*
X107950000Y-49590000D02*
X107950000Y-46930000D01*
X135950000Y-49590000D02*
X135950000Y-46930000D01*
X107950000Y-46930000D02*
X135950000Y-46930000D01*
%TO.C,J19*%
X127095000Y-141002000D02*
X128725000Y-141002000D01*
X127095001Y-49752000D02*
X127095000Y-141002000D01*
X128725000Y-140642000D02*
X130354999Y-140642000D01*
X128725000Y-141002000D02*
X128725000Y-140642000D01*
X130354999Y-140642000D02*
X130354999Y-141002000D01*
X130354999Y-141002000D02*
X131984999Y-141002000D01*
X131984999Y-141002000D02*
X131985000Y-49752000D01*
X131985000Y-49752000D02*
X127095001Y-49752000D01*
%TO.C,R1*%
X190123400Y-132450864D02*
X190123400Y-130996736D01*
X191943400Y-132450864D02*
X191943400Y-130996736D01*
%TO.C,U2*%
X164472000Y-130362000D02*
X182492000Y-130362000D01*
X182492000Y-130362000D02*
X182492000Y-120082000D01*
X164532000Y-127872000D02*
X182432000Y-127872000D01*
X182432000Y-127872000D02*
X182432000Y-122572000D01*
X164532000Y-126222000D02*
X164532000Y-127872000D01*
X164532000Y-122572000D02*
X164532000Y-124222000D01*
X182432000Y-122572000D02*
X164532000Y-122572000D01*
X164472000Y-120082000D02*
X164472000Y-130362000D01*
X182492000Y-120082000D02*
X164472000Y-120082000D01*
X164532000Y-126222000D02*
G75*
G03*
X164532000Y-124222000I0J1000000D01*
G01*
%TD*%
M02*
