%TF.GenerationSoftware,KiCad,Pcbnew,7.0.5-7.0.5~ubuntu20.04.1*%
%TF.CreationDate,2023-07-18T14:03:02+02:00*%
%TF.ProjectId,MOS MultiSerial_ram,4d4f5320-4d75-46c7-9469-53657269616c,rev?*%
%TF.SameCoordinates,Original*%
%TF.FileFunction,Paste,Bot*%
%TF.FilePolarity,Positive*%
%FSLAX46Y46*%
G04 Gerber Fmt 4.6, Leading zero omitted, Abs format (unit mm)*
G04 Created by KiCad (PCBNEW 7.0.5-7.0.5~ubuntu20.04.1) date 2023-07-18 14:03:02*
%MOMM*%
%LPD*%
G01*
G04 APERTURE LIST*
G04 Aperture macros list*
%AMRoundRect*
0 Rectangle with rounded corners*
0 $1 Rounding radius*
0 $2 $3 $4 $5 $6 $7 $8 $9 X,Y pos of 4 corners*
0 Add a 4 corners polygon primitive as box body*
4,1,4,$2,$3,$4,$5,$6,$7,$8,$9,$2,$3,0*
0 Add four circle primitives for the rounded corners*
1,1,$1+$1,$2,$3*
1,1,$1+$1,$4,$5*
1,1,$1+$1,$6,$7*
1,1,$1+$1,$8,$9*
0 Add four rect primitives between the rounded corners*
20,1,$1+$1,$2,$3,$4,$5,0*
20,1,$1+$1,$4,$5,$6,$7,0*
20,1,$1+$1,$6,$7,$8,$9,0*
20,1,$1+$1,$8,$9,$2,$3,0*%
G04 Aperture macros list end*
%ADD10RoundRect,0.250000X-0.325000X-0.650000X0.325000X-0.650000X0.325000X0.650000X-0.325000X0.650000X0*%
%ADD11R,0.600000X1.600000*%
%ADD12RoundRect,0.150000X0.150000X-0.837500X0.150000X0.837500X-0.150000X0.837500X-0.150000X-0.837500X0*%
%ADD13RoundRect,0.250000X-0.400000X-0.625000X0.400000X-0.625000X0.400000X0.625000X-0.400000X0.625000X0*%
G04 APERTURE END LIST*
D10*
%TO.C,C2*%
X167054000Y-78867000D03*
X170004000Y-78867000D03*
%TD*%
D11*
%TO.C,U5*%
X192746800Y-73166071D03*
X191476800Y-73166071D03*
X190206800Y-73166071D03*
X188936800Y-73166071D03*
X187666800Y-73166071D03*
X186396800Y-73166071D03*
X185126800Y-73166071D03*
X183846800Y-73166071D03*
X182596800Y-73166071D03*
X181316800Y-73166071D03*
X180046800Y-73166071D03*
X178776800Y-73166071D03*
X177506800Y-73166071D03*
X176236800Y-73166071D03*
X174966800Y-73166071D03*
X173696800Y-73166071D03*
X173696800Y-61966071D03*
X174966800Y-61966071D03*
X176236800Y-61966071D03*
X177506800Y-61966071D03*
X178776800Y-61966071D03*
X180046800Y-61966071D03*
X181316800Y-61966071D03*
X182596800Y-61966071D03*
X183846800Y-61966071D03*
X185126800Y-61966071D03*
X186396800Y-61966071D03*
X187666800Y-61966071D03*
X188936800Y-61966071D03*
X190206800Y-61966071D03*
X191476800Y-61966071D03*
X192746800Y-61966071D03*
%TD*%
D12*
%TO.C,U9*%
X162306000Y-67851500D03*
X161036000Y-67851500D03*
X159766000Y-67851500D03*
X158496000Y-67851500D03*
X157226000Y-67851500D03*
X155956000Y-67851500D03*
X154686000Y-67851500D03*
X153416000Y-67851500D03*
X152146000Y-67851500D03*
X150876000Y-67851500D03*
X149606000Y-67851500D03*
X148336000Y-67851500D03*
X148336000Y-60926500D03*
X149606000Y-60926500D03*
X150876000Y-60926500D03*
X152146000Y-60926500D03*
X153416000Y-60926500D03*
X154686000Y-60926500D03*
X155956000Y-60926500D03*
X157226000Y-60926500D03*
X158496000Y-60926500D03*
X159766000Y-60926500D03*
X161036000Y-60926500D03*
X162306000Y-60926500D03*
%TD*%
D13*
%TO.C,R2*%
X159714000Y-126746000D03*
X162814000Y-126746000D03*
%TD*%
%TO.C,R3*%
X159714000Y-124460000D03*
X162814000Y-124460000D03*
%TD*%
D10*
%TO.C,C3*%
X172261000Y-123952000D03*
X175211000Y-123952000D03*
%TD*%
D13*
%TO.C,R4*%
X159714000Y-122174000D03*
X162814000Y-122174000D03*
%TD*%
M02*
