%TF.GenerationSoftware,KiCad,Pcbnew,7.0.5-7.0.5~ubuntu20.04.1*%
%TF.CreationDate,2023-07-18T14:03:02+02:00*%
%TF.ProjectId,MOS MultiSerial_ram,4d4f5320-4d75-46c7-9469-53657269616c,rev?*%
%TF.SameCoordinates,Original*%
%TF.FileFunction,Paste,Top*%
%TF.FilePolarity,Positive*%
%FSLAX46Y46*%
G04 Gerber Fmt 4.6, Leading zero omitted, Abs format (unit mm)*
G04 Created by KiCad (PCBNEW 7.0.5-7.0.5~ubuntu20.04.1) date 2023-07-18 14:03:02*
%MOMM*%
%LPD*%
G01*
G04 APERTURE LIST*
G04 Aperture macros list*
%AMRoundRect*
0 Rectangle with rounded corners*
0 $1 Rounding radius*
0 $2 $3 $4 $5 $6 $7 $8 $9 X,Y pos of 4 corners*
0 Add a 4 corners polygon primitive as box body*
4,1,4,$2,$3,$4,$5,$6,$7,$8,$9,$2,$3,0*
0 Add four circle primitives for the rounded corners*
1,1,$1+$1,$2,$3*
1,1,$1+$1,$4,$5*
1,1,$1+$1,$6,$7*
1,1,$1+$1,$8,$9*
0 Add four rect primitives between the rounded corners*
20,1,$1+$1,$2,$3,$4,$5,0*
20,1,$1+$1,$4,$5,$6,$7,0*
20,1,$1+$1,$6,$7,$8,$9,0*
20,1,$1+$1,$8,$9,$2,$3,0*%
G04 Aperture macros list end*
%ADD10RoundRect,0.250000X0.325000X0.650000X-0.325000X0.650000X-0.325000X-0.650000X0.325000X-0.650000X0*%
%ADD11RoundRect,0.150000X0.725000X0.150000X-0.725000X0.150000X-0.725000X-0.150000X0.725000X-0.150000X0*%
%ADD12RoundRect,0.150000X-0.512500X-0.150000X0.512500X-0.150000X0.512500X0.150000X-0.512500X0.150000X0*%
%ADD13RoundRect,0.250000X-0.229810X0.689429X-0.689429X0.229810X0.229810X-0.689429X0.689429X-0.229810X0*%
%ADD14RoundRect,0.150000X-0.725000X-0.150000X0.725000X-0.150000X0.725000X0.150000X-0.725000X0.150000X0*%
%ADD15RoundRect,0.250000X0.625000X-0.400000X0.625000X0.400000X-0.625000X0.400000X-0.625000X-0.400000X0*%
G04 APERTURE END LIST*
D10*
%TO.C,C4*%
X155371800Y-64490600D03*
X152421800Y-64490600D03*
%TD*%
D11*
%TO.C,U6*%
X179065800Y-73077871D03*
X179065800Y-71807871D03*
X179065800Y-70537871D03*
X179065800Y-69267871D03*
X179065800Y-67997871D03*
X179065800Y-66727871D03*
X179065800Y-65457871D03*
X179065800Y-64187871D03*
X173915800Y-64187871D03*
X173915800Y-65457871D03*
X173915800Y-66727871D03*
X173915800Y-67997871D03*
X173915800Y-69267871D03*
X173915800Y-70537871D03*
X173915800Y-71807871D03*
X173915800Y-73077871D03*
%TD*%
D12*
%TO.C,U8*%
X190708700Y-58333600D03*
X190708700Y-59283600D03*
X190708700Y-60233600D03*
X192983700Y-60233600D03*
X192983700Y-58333600D03*
%TD*%
D13*
%TO.C,C5*%
X184556400Y-68402200D03*
X182470434Y-70488166D03*
%TD*%
D14*
%TO.C,U7*%
X187530200Y-63603671D03*
X187530200Y-64873671D03*
X187530200Y-66143671D03*
X187530200Y-67413671D03*
X187530200Y-68683671D03*
X187530200Y-69953671D03*
X187530200Y-71223671D03*
X187530200Y-72493671D03*
X192680200Y-72493671D03*
X192680200Y-71223671D03*
X192680200Y-69953671D03*
X192680200Y-68683671D03*
X192680200Y-67413671D03*
X192680200Y-66143671D03*
X192680200Y-64873671D03*
X192680200Y-63603671D03*
%TD*%
D10*
%TO.C,C1*%
X136882400Y-54229000D03*
X133932400Y-54229000D03*
%TD*%
D15*
%TO.C,R1*%
X191033400Y-133273800D03*
X191033400Y-130173800D03*
%TD*%
M02*
