%TF.GenerationSoftware,KiCad,Pcbnew,7.0.9-7.0.9~ubuntu20.04.1*%
%TF.CreationDate,2023-12-26T21:31:22+01:00*%
%TF.ProjectId,6303_PLCC_Addon,36333033-5f50-44c4-9343-5f4164646f6e,rev?*%
%TF.SameCoordinates,Original*%
%TF.FileFunction,Copper,L2,Bot*%
%TF.FilePolarity,Positive*%
%FSLAX46Y46*%
G04 Gerber Fmt 4.6, Leading zero omitted, Abs format (unit mm)*
G04 Created by KiCad (PCBNEW 7.0.9-7.0.9~ubuntu20.04.1) date 2023-12-26 21:31:22*
%MOMM*%
%LPD*%
G01*
G04 APERTURE LIST*
G04 Aperture macros list*
%AMRoundRect*
0 Rectangle with rounded corners*
0 $1 Rounding radius*
0 $2 $3 $4 $5 $6 $7 $8 $9 X,Y pos of 4 corners*
0 Add a 4 corners polygon primitive as box body*
4,1,4,$2,$3,$4,$5,$6,$7,$8,$9,$2,$3,0*
0 Add four circle primitives for the rounded corners*
1,1,$1+$1,$2,$3*
1,1,$1+$1,$4,$5*
1,1,$1+$1,$6,$7*
1,1,$1+$1,$8,$9*
0 Add four rect primitives between the rounded corners*
20,1,$1+$1,$2,$3,$4,$5,0*
20,1,$1+$1,$4,$5,$6,$7,0*
20,1,$1+$1,$6,$7,$8,$9,0*
20,1,$1+$1,$8,$9,$2,$3,0*%
G04 Aperture macros list end*
%TA.AperFunction,ComponentPad*%
%ADD10R,1.700000X1.700000*%
%TD*%
%TA.AperFunction,ComponentPad*%
%ADD11O,1.700000X1.700000*%
%TD*%
%TA.AperFunction,ComponentPad*%
%ADD12R,1.350000X1.350000*%
%TD*%
%TA.AperFunction,ComponentPad*%
%ADD13R,1.600000X1.600000*%
%TD*%
%TA.AperFunction,ComponentPad*%
%ADD14O,1.600000X1.600000*%
%TD*%
%TA.AperFunction,SMDPad,CuDef*%
%ADD15RoundRect,0.250000X0.650000X-0.412500X0.650000X0.412500X-0.650000X0.412500X-0.650000X-0.412500X0*%
%TD*%
%TA.AperFunction,SMDPad,CuDef*%
%ADD16RoundRect,0.250000X0.400000X0.625000X-0.400000X0.625000X-0.400000X-0.625000X0.400000X-0.625000X0*%
%TD*%
%TA.AperFunction,ViaPad*%
%ADD17C,0.800000*%
%TD*%
%TA.AperFunction,Conductor*%
%ADD18C,0.250000*%
%TD*%
%TA.AperFunction,Conductor*%
%ADD19C,0.400000*%
%TD*%
G04 APERTURE END LIST*
D10*
%TO.P,JP1,1,A*%
%TO.N,GND*%
X180746400Y-66492200D03*
D11*
%TO.P,JP1,2,B*%
%TO.N,/MP0*%
X180746400Y-69032200D03*
%TD*%
D12*
%TO.P,J4,1,Pin_1*%
%TO.N,Net-(J4-Pin_1)*%
X183896000Y-40640000D03*
%TD*%
D13*
%TO.P,U3,1,VSS*%
%TO.N,GND*%
X173736000Y-52730400D03*
D14*
%TO.P,U3,2,~{HALT}*%
%TO.N,/~{HALT}*%
X176276000Y-52730400D03*
%TO.P,U3,3,MR*%
%TO.N,Net-(J3-Pin_1)*%
X178816000Y-52730400D03*
%TO.P,U3,4,~{IRQ}*%
%TO.N,/~{IRQ1}*%
X181356000Y-52730400D03*
%TO.P,U3,5,VMA*%
%TO.N,Net-(J6-Pin_1)*%
X183896000Y-52730400D03*
%TO.P,U3,6,~{NMI}*%
%TO.N,/~{NMI}*%
X186436000Y-52730400D03*
%TO.P,U3,7,BA*%
%TO.N,/BA*%
X188976000Y-52730400D03*
%TO.P,U3,8,VCC*%
%TO.N,+5V*%
X191516000Y-52730400D03*
%TO.P,U3,9,A0*%
%TO.N,/A0*%
X194056000Y-52730400D03*
%TO.P,U3,10,A1*%
%TO.N,/A1*%
X196596000Y-52730400D03*
%TO.P,U3,11,A2*%
%TO.N,/A2*%
X199136000Y-52730400D03*
%TO.P,U3,12,A3*%
%TO.N,/A3*%
X201676000Y-52730400D03*
%TO.P,U3,13,A4*%
%TO.N,/A4*%
X204216000Y-52730400D03*
%TO.P,U3,14,A5*%
%TO.N,/A5*%
X206756000Y-52730400D03*
%TO.P,U3,15,A6*%
%TO.N,/A6*%
X209296000Y-52730400D03*
%TO.P,U3,16,A7*%
%TO.N,/A7*%
X211836000Y-52730400D03*
%TO.P,U3,17,A8*%
%TO.N,/A8*%
X214376000Y-52730400D03*
%TO.P,U3,18,A9*%
%TO.N,/A9*%
X216916000Y-52730400D03*
%TO.P,U3,19,A10*%
%TO.N,/A10*%
X219456000Y-52730400D03*
%TO.P,U3,20,A11*%
%TO.N,/A11*%
X221996000Y-52730400D03*
%TO.P,U3,21,VSS*%
%TO.N,GND*%
X221996000Y-37490400D03*
%TO.P,U3,22,A12*%
%TO.N,/A12*%
X219456000Y-37490400D03*
%TO.P,U3,23,A13*%
%TO.N,/A13*%
X216916000Y-37490400D03*
%TO.P,U3,24,A14*%
%TO.N,/A14*%
X214376000Y-37490400D03*
%TO.P,U3,25,A15*%
%TO.N,/A15*%
X211836000Y-37490400D03*
%TO.P,U3,26,D7*%
%TO.N,/D7*%
X209296000Y-37490400D03*
%TO.P,U3,27,D6*%
%TO.N,/D6*%
X206756000Y-37490400D03*
%TO.P,U3,28,D5*%
%TO.N,/D5*%
X204216000Y-37490400D03*
%TO.P,U3,29,D4*%
%TO.N,/D4*%
X201676000Y-37490400D03*
%TO.P,U3,30,D3*%
%TO.N,/D3*%
X199136000Y-37490400D03*
%TO.P,U3,31,D2*%
%TO.N,/D2*%
X196596000Y-37490400D03*
%TO.P,U3,32,D1*%
%TO.N,/D1*%
X194056000Y-37490400D03*
%TO.P,U3,33,D0*%
%TO.N,/D0*%
X191516000Y-37490400D03*
%TO.P,U3,34,R/~{W}*%
%TO.N,/R{slash}~{W}*%
X188976000Y-37490400D03*
%TO.P,U3,35,VCC_STANDBY*%
%TO.N,+5C*%
X186436000Y-37490400D03*
%TO.P,U3,36,RE*%
%TO.N,Net-(J4-Pin_1)*%
X183896000Y-37490400D03*
%TO.P,U3,37,E*%
%TO.N,/PHI2*%
X181356000Y-37490400D03*
%TO.P,U3,38,XTAL*%
%TO.N,GND*%
X178816000Y-37490400D03*
%TO.P,U3,39,EXTAL*%
%TO.N,/CPUCLK*%
X176276000Y-37490400D03*
%TO.P,U3,40,~{RESET}*%
%TO.N,/~{RST}*%
X173736000Y-37490400D03*
%TD*%
D10*
%TO.P,J1,1,Pin_1*%
%TO.N,GND*%
X166878000Y-83566000D03*
D11*
%TO.P,J1,2,Pin_2*%
%TO.N,/P67*%
X164338000Y-83566000D03*
%TO.P,J1,3,Pin_3*%
%TO.N,/P66*%
X166878000Y-81026000D03*
%TO.P,J1,4,Pin_4*%
%TO.N,/P65*%
X164338000Y-81026000D03*
%TO.P,J1,5,Pin_5*%
%TO.N,/P64*%
X166878000Y-78486000D03*
%TO.P,J1,6,Pin_6*%
%TO.N,/P63*%
X164338000Y-78486000D03*
%TO.P,J1,7,Pin_7*%
%TO.N,/P62*%
X166878000Y-75946000D03*
%TO.P,J1,8,Pin_8*%
%TO.N,/P61*%
X164338000Y-75946000D03*
%TO.P,J1,9,Pin_9*%
%TO.N,/P60*%
X166878000Y-73406000D03*
%TO.P,J1,10,Pin_10*%
%TO.N,/P57*%
X164338000Y-73406000D03*
%TO.P,J1,11,Pin_11*%
%TO.N,/P56*%
X166878000Y-70866000D03*
%TO.P,J1,12,Pin_12*%
%TO.N,/P55*%
X164338000Y-70866000D03*
%TO.P,J1,13,Pin_13*%
%TO.N,/P54*%
X166878000Y-68326000D03*
%TO.P,J1,14,Pin_14*%
%TO.N,/P53*%
X164338000Y-68326000D03*
%TO.P,J1,15,Pin_15*%
%TO.N,/P52*%
X166878000Y-65786000D03*
%TO.P,J1,16,Pin_16*%
%TO.N,/P51*%
X164338000Y-65786000D03*
%TO.P,J1,17,Pin_17*%
%TO.N,/~{IRQ1}*%
X166878000Y-63246000D03*
%TO.P,J1,18,Pin_18*%
%TO.N,/P27*%
X164338000Y-63246000D03*
%TO.P,J1,19,Pin_19*%
%TO.N,/P26*%
X166878000Y-60706000D03*
%TO.P,J1,20,Pin_20*%
%TO.N,/P25*%
X164338000Y-60706000D03*
%TO.P,J1,21,Pin_21*%
%TO.N,/P24*%
X166878000Y-58166000D03*
%TO.P,J1,22,Pin_22*%
%TO.N,/P23*%
X164338000Y-58166000D03*
%TO.P,J1,23,Pin_23*%
%TO.N,/P22*%
X166878000Y-55626000D03*
%TO.P,J1,24,Pin_24*%
%TO.N,/P21*%
X164338000Y-55626000D03*
%TO.P,J1,25,Pin_25*%
%TO.N,/P20*%
X166878000Y-53086000D03*
%TO.P,J1,26,Pin_26*%
%TO.N,+5V*%
X164338000Y-53086000D03*
%TD*%
D10*
%TO.P,JP2,1,A*%
%TO.N,GND*%
X184404000Y-66492200D03*
D11*
%TO.P,JP2,2,B*%
%TO.N,/MP1*%
X184404000Y-69032200D03*
%TD*%
D12*
%TO.P,J7,1,Pin_1*%
%TO.N,/~{LIR}*%
X184708800Y-56997600D03*
%TD*%
%TO.P,J6,1,Pin_1*%
%TO.N,Net-(J6-Pin_1)*%
X183896000Y-49784000D03*
%TD*%
%TO.P,J9,1,Pin_1*%
%TO.N,/~{WR}*%
X184708800Y-60045600D03*
%TD*%
%TO.P,J8,1,Pin_1*%
%TO.N,/~{RD}*%
X184708800Y-63093600D03*
%TD*%
%TO.P,J3,1,Pin_1*%
%TO.N,Net-(J3-Pin_1)*%
X178816000Y-49784000D03*
%TD*%
D15*
%TO.P,C1,1*%
%TO.N,+5V*%
X209296004Y-68579995D03*
%TO.P,C1,2*%
%TO.N,GND*%
X209296004Y-65454995D03*
%TD*%
D16*
%TO.P,R1,1*%
%TO.N,+5V*%
X196088000Y-74168000D03*
%TO.P,R1,2*%
%TO.N,/MP0*%
X192988000Y-74168000D03*
%TD*%
%TO.P,R2,1*%
%TO.N,+5V*%
X196088000Y-76454000D03*
%TO.P,R2,2*%
%TO.N,/MP1*%
X192988000Y-76454000D03*
%TD*%
D17*
%TO.N,/P27*%
X199919272Y-85249000D03*
X185454003Y-85344000D03*
%TO.N,/~{IRQ1}*%
X184404000Y-85090000D03*
X202438000Y-85090000D03*
%TO.N,/P51*%
X183134000Y-84836000D03*
X203708000Y-84836000D03*
%TO.N,/P52*%
X182118000Y-84305000D03*
X204978000Y-84328000D03*
%TO.N,/P53*%
X180848000Y-84074000D03*
X206248000Y-84074000D03*
%TO.N,/P54*%
X179578000Y-83820000D03*
X215392000Y-84074000D03*
%TO.N,/P55*%
X215392000Y-82804000D03*
X178308000Y-83566000D03*
%TO.N,/P56*%
X177038000Y-83311992D03*
X215392000Y-81534000D03*
%TO.N,/P57*%
X215138000Y-79502000D03*
X175768000Y-82804000D03*
%TO.N,/P67*%
X214630000Y-71120000D03*
%TO.N,/P66*%
X211328000Y-72644000D03*
%TO.N,/P65*%
X210566000Y-73660000D03*
%TO.N,/P64*%
X209550000Y-75184000D03*
%TO.N,/P63*%
X208534000Y-76200000D03*
%TO.N,/P62*%
X207759000Y-77470000D03*
%TO.N,/P61*%
X206248014Y-77470000D03*
%TO.N,/P60*%
X204724000Y-76962000D03*
%TO.N,/R{slash}~{W}*%
X191770000Y-65024000D03*
%TO.N,/MP1*%
X192988000Y-76454000D03*
%TO.N,/MP0*%
X192988000Y-74168000D03*
%TO.N,/~{NMI}*%
X191769996Y-66294000D03*
%TO.N,GND*%
X192532000Y-71120000D03*
%TO.N,/D0*%
X196850000Y-65278000D03*
%TO.N,/D1*%
X193802000Y-55626000D03*
%TO.N,/D2*%
X197866008Y-64262000D03*
%TO.N,/D3*%
X200406000Y-63754008D03*
%TO.N,/D4*%
X203200000Y-62992000D03*
%TO.N,/D5*%
X205486000Y-62229996D03*
%TO.N,/D6*%
X208026000Y-61468000D03*
%TO.N,/D7*%
X209296000Y-60706000D03*
%TO.N,GND*%
X209296004Y-65454995D03*
%TO.N,+5V*%
X198120000Y-68580000D03*
X209295995Y-68580004D03*
%TD*%
D18*
%TO.N,/~{IRQ1}*%
X166878000Y-63246000D02*
X171299200Y-67667200D01*
X171299200Y-67667200D02*
X181921400Y-67667200D01*
X181921400Y-67667200D02*
X181965600Y-67623000D01*
X181965600Y-67623000D02*
X181965600Y-53340000D01*
X181965600Y-53340000D02*
X181356000Y-52730400D01*
%TO.N,/R{slash}~{W}*%
X190101000Y-63355000D02*
X191770000Y-65024000D01*
D19*
%TO.N,+5V*%
X175076000Y-36912400D02*
X176225200Y-35763200D01*
D18*
%TO.N,/R{slash}~{W}*%
X188976000Y-38621770D02*
X190101000Y-39746770D01*
X188976000Y-37490400D02*
X188976000Y-38621770D01*
X190101000Y-39746770D02*
X190101000Y-63355000D01*
D19*
%TO.N,+5V*%
X164338000Y-53086000D02*
X175076000Y-42348000D01*
X175076000Y-42348000D02*
X175076000Y-36912400D01*
X191516000Y-39979600D02*
X191516000Y-52730400D01*
X176225200Y-35763200D02*
X188945857Y-35763200D01*
X190316000Y-38779600D02*
X191516000Y-39979600D01*
X188945857Y-35763200D02*
X190316000Y-37133343D01*
X190316000Y-37133343D02*
X190316000Y-38779600D01*
D18*
%TO.N,/P67*%
X164338000Y-83566000D02*
X165703000Y-82201000D01*
X165703000Y-82201000D02*
X168243000Y-82201000D01*
X168243000Y-82201000D02*
X169570000Y-80874000D01*
X169570000Y-80874000D02*
X211734000Y-80874000D01*
X211734000Y-80874000D02*
X214630000Y-77978000D01*
X214630000Y-77978000D02*
X214630000Y-71120000D01*
%TO.N,/~{IRQ1}*%
X201822000Y-84474000D02*
X185020000Y-84474000D01*
X185020000Y-84474000D02*
X184404000Y-85090000D01*
%TO.N,/P27*%
X185708003Y-85090000D02*
X185454003Y-85344000D01*
X199760272Y-85090000D02*
X185708003Y-85090000D01*
%TO.N,/~{IRQ1}*%
X202438000Y-85090000D02*
X201822000Y-84474000D01*
%TO.N,/P27*%
X199919272Y-85249000D02*
X199760272Y-85090000D01*
%TO.N,/P51*%
X183134000Y-84836000D02*
X183946000Y-84024000D01*
X183946000Y-84024000D02*
X202896000Y-84024000D01*
X202896000Y-84024000D02*
X203708000Y-84836000D01*
%TO.N,/P53*%
X180848000Y-84074000D02*
X181798000Y-83124000D01*
X205298000Y-83124000D02*
X206248000Y-84074000D01*
X181798000Y-83124000D02*
X205298000Y-83124000D01*
%TO.N,/P55*%
X215392000Y-82804000D02*
X214812000Y-82224000D01*
X214812000Y-82224000D02*
X179650000Y-82224000D01*
X179650000Y-82224000D02*
X178308000Y-83566000D01*
%TO.N,/P54*%
X215392000Y-84074000D02*
X213992000Y-82674000D01*
X180724000Y-82674000D02*
X179578000Y-83820000D01*
X213992000Y-82674000D02*
X180724000Y-82674000D01*
%TO.N,/P57*%
X213316000Y-81324000D02*
X177248000Y-81324000D01*
X215138000Y-79502000D02*
X213316000Y-81324000D01*
X177248000Y-81324000D02*
X175768000Y-82804000D01*
%TO.N,/P56*%
X215392000Y-81534000D02*
X215152000Y-81774000D01*
X178575992Y-81774000D02*
X177038000Y-83311992D01*
X215152000Y-81774000D02*
X178575992Y-81774000D01*
%TO.N,/P52*%
X182849000Y-83574000D02*
X182118000Y-84305000D01*
X204978000Y-84328000D02*
X204224000Y-83574000D01*
X204224000Y-83574000D02*
X182849000Y-83574000D01*
%TO.N,/P66*%
X209644000Y-80424000D02*
X211328000Y-78740000D01*
%TO.N,/P64*%
X186714792Y-79524000D02*
X208258000Y-79524000D01*
X209550000Y-78232000D02*
X209550000Y-75184000D01*
%TO.N,/P63*%
X208534000Y-78611604D02*
X208534000Y-76200000D01*
%TO.N,/P65*%
X186528396Y-79974000D02*
X208570000Y-79974000D01*
%TO.N,/P64*%
X208258000Y-79524000D02*
X209550000Y-78232000D01*
%TO.N,/P61*%
X183680980Y-74581000D02*
X187273980Y-78174000D01*
%TO.N,/P65*%
X164338000Y-81026000D02*
X165703000Y-79661000D01*
%TO.N,/P64*%
X166878000Y-78486000D02*
X185676792Y-78486000D01*
%TO.N,/P63*%
X165703000Y-77121000D02*
X184948188Y-77121000D01*
%TO.N,/P66*%
X211328000Y-78740000D02*
X211328000Y-72644000D01*
%TO.N,/P65*%
X208570000Y-79974000D02*
X210566000Y-77978000D01*
%TO.N,/P61*%
X205544014Y-78174000D02*
X206248014Y-77470000D01*
%TO.N,/P65*%
X210566000Y-77978000D02*
X210566000Y-73660000D01*
X165703000Y-79661000D02*
X186215396Y-79661000D01*
%TO.N,/P66*%
X166878000Y-81026000D02*
X167480000Y-80424000D01*
%TO.N,/P61*%
X164338000Y-75946000D02*
X165703000Y-74581000D01*
%TO.N,/P62*%
X206605000Y-78624000D02*
X207759000Y-77470000D01*
%TO.N,/P63*%
X184948188Y-77121000D02*
X186901188Y-79074000D01*
X208071604Y-79074000D02*
X208534000Y-78611604D01*
%TO.N,/P61*%
X165703000Y-74581000D02*
X183680980Y-74581000D01*
X187273980Y-78174000D02*
X205544014Y-78174000D01*
%TO.N,/P62*%
X166878000Y-75946000D02*
X184409584Y-75946000D01*
%TO.N,/P66*%
X167480000Y-80424000D02*
X209644000Y-80424000D01*
%TO.N,/P63*%
X186901188Y-79074000D02*
X208071604Y-79074000D01*
%TO.N,/P65*%
X186215396Y-79661000D02*
X186528396Y-79974000D01*
%TO.N,/P64*%
X185676792Y-78486000D02*
X186714792Y-79524000D01*
%TO.N,/P62*%
X187087584Y-78624000D02*
X206605000Y-78624000D01*
%TO.N,/P63*%
X164338000Y-78486000D02*
X165703000Y-77121000D01*
%TO.N,/P62*%
X184409584Y-75946000D02*
X187087584Y-78624000D01*
%TO.N,/P60*%
X187706000Y-77724000D02*
X203962000Y-77724000D01*
X183388000Y-73406000D02*
X187706000Y-77724000D01*
X203962000Y-77724000D02*
X204724000Y-76962000D01*
X166878000Y-73406000D02*
X183388000Y-73406000D01*
%TO.N,/~{NMI}*%
X186436000Y-60960004D02*
X191769996Y-66294000D01*
X186436000Y-52730400D02*
X186436000Y-60960004D01*
%TO.N,+5V*%
X197785984Y-68580000D02*
X198120000Y-68580000D01*
%TO.N,/D0*%
X196342000Y-65278000D02*
X196850000Y-65278000D01*
%TO.N,+5V*%
X191516000Y-52730400D02*
X191516000Y-62310016D01*
%TO.N,/D0*%
X191516000Y-37490400D02*
X192786000Y-38760400D01*
X192786000Y-38760400D02*
X192786000Y-61722000D01*
X192786000Y-61722000D02*
X196342000Y-65278000D01*
%TO.N,+5V*%
X191516000Y-62310016D02*
X197785984Y-68580000D01*
%TO.N,/D2*%
X197866008Y-38760408D02*
X197866008Y-64262000D01*
X196596000Y-37490400D02*
X197866008Y-38760408D01*
%TO.N,/D3*%
X200406000Y-38760400D02*
X200406000Y-63754008D01*
X199136000Y-37490400D02*
X200406000Y-38760400D01*
%TO.N,/MP0*%
X180746400Y-69032200D02*
X185882200Y-74168000D01*
X185882200Y-74168000D02*
X192988000Y-74168000D01*
%TO.N,+5V*%
X196088000Y-74168000D02*
X203707999Y-74168000D01*
X203707999Y-74168000D02*
X209295995Y-68580004D01*
X196088000Y-76454000D02*
X196088000Y-74168000D01*
%TO.N,GND*%
X178816000Y-37490400D02*
X179941000Y-38615400D01*
X179941000Y-38615400D02*
X179941000Y-65686800D01*
X179941000Y-65686800D02*
X180746400Y-66492200D01*
X192532000Y-71120000D02*
X203630999Y-71120000D01*
X203630999Y-71120000D02*
X209296004Y-65454995D01*
%TO.N,/D1*%
X194056000Y-37490400D02*
X195181000Y-38615400D01*
X195181000Y-38615400D02*
X195181000Y-54247000D01*
X195181000Y-54247000D02*
X193802000Y-55626000D01*
%TO.N,/D4*%
X203091000Y-62883000D02*
X203091000Y-38905400D01*
X203200000Y-62992000D02*
X203091000Y-62883000D01*
X203091000Y-38905400D02*
X201676000Y-37490400D01*
%TO.N,/D5*%
X205486000Y-38760400D02*
X205486000Y-62229996D01*
X204216000Y-37490400D02*
X205486000Y-38760400D01*
%TO.N,/D6*%
X208026000Y-38760400D02*
X208026000Y-61468000D01*
X206756000Y-37490400D02*
X208026000Y-38760400D01*
%TO.N,/D7*%
X209296000Y-60706000D02*
X210711000Y-59291000D01*
X210711000Y-59291000D02*
X210711000Y-38905400D01*
X210711000Y-38905400D02*
X209296000Y-37490400D01*
%TO.N,+5V*%
X209296004Y-68579995D02*
X209295995Y-68580004D01*
%TO.N,GND*%
X178816000Y-47650400D02*
X173736000Y-52730400D01*
X178816000Y-37490400D02*
X178816000Y-47650400D01*
%TD*%
%TA.AperFunction,Conductor*%
%TO.N,GND*%
G36*
X175766136Y-35020185D02*
G01*
X175811891Y-35072989D01*
X175821835Y-35142147D01*
X175792810Y-35205703D01*
X175769540Y-35226548D01*
X175757268Y-35235018D01*
X175716142Y-35281440D01*
X175713575Y-35284166D01*
X174608863Y-36388878D01*
X174547540Y-36422363D01*
X174477848Y-36417379D01*
X174450059Y-36402772D01*
X174388734Y-36359832D01*
X174388732Y-36359831D01*
X174182497Y-36263661D01*
X174182488Y-36263658D01*
X173962697Y-36204766D01*
X173962693Y-36204765D01*
X173962692Y-36204765D01*
X173962691Y-36204764D01*
X173962686Y-36204764D01*
X173736002Y-36184932D01*
X173735998Y-36184932D01*
X173509313Y-36204764D01*
X173509302Y-36204766D01*
X173289511Y-36263658D01*
X173289502Y-36263661D01*
X173083267Y-36359831D01*
X173083265Y-36359832D01*
X172896858Y-36490354D01*
X172735954Y-36651258D01*
X172605432Y-36837665D01*
X172605431Y-36837667D01*
X172509261Y-37043902D01*
X172509258Y-37043911D01*
X172450366Y-37263702D01*
X172450364Y-37263713D01*
X172430532Y-37490398D01*
X172430532Y-37490401D01*
X172450364Y-37717086D01*
X172450366Y-37717097D01*
X172509258Y-37936888D01*
X172509261Y-37936897D01*
X172605431Y-38143132D01*
X172605432Y-38143134D01*
X172735954Y-38329541D01*
X172896858Y-38490445D01*
X172896861Y-38490447D01*
X173083266Y-38620968D01*
X173289504Y-38717139D01*
X173509308Y-38776035D01*
X173648629Y-38788224D01*
X173735998Y-38795868D01*
X173736000Y-38795868D01*
X173736002Y-38795868D01*
X173792673Y-38790909D01*
X173962692Y-38776035D01*
X174182496Y-38717139D01*
X174199094Y-38709398D01*
X174268170Y-38698906D01*
X174331955Y-38727424D01*
X174370195Y-38785900D01*
X174375500Y-38821780D01*
X174375500Y-42006480D01*
X174355815Y-42073519D01*
X174339181Y-42094161D01*
X164709994Y-51723347D01*
X164648671Y-51756832D01*
X164590225Y-51755442D01*
X164573410Y-51750937D01*
X164338001Y-51730341D01*
X164337999Y-51730341D01*
X164102596Y-51750936D01*
X164102586Y-51750938D01*
X163874344Y-51812094D01*
X163874335Y-51812098D01*
X163660171Y-51911964D01*
X163660169Y-51911965D01*
X163466597Y-52047505D01*
X163299505Y-52214597D01*
X163163965Y-52408169D01*
X163163964Y-52408171D01*
X163064098Y-52622335D01*
X163064094Y-52622344D01*
X163002938Y-52850586D01*
X163002936Y-52850596D01*
X162982341Y-53085999D01*
X162982341Y-53086000D01*
X163002936Y-53321403D01*
X163002938Y-53321413D01*
X163064094Y-53549655D01*
X163064096Y-53549659D01*
X163064097Y-53549663D01*
X163105187Y-53637780D01*
X163163965Y-53763830D01*
X163163967Y-53763834D01*
X163237578Y-53868960D01*
X163299501Y-53957396D01*
X163299506Y-53957402D01*
X163466597Y-54124493D01*
X163466603Y-54124498D01*
X163652158Y-54254425D01*
X163695783Y-54309002D01*
X163702977Y-54378500D01*
X163671454Y-54440855D01*
X163652158Y-54457575D01*
X163466597Y-54587505D01*
X163299505Y-54754597D01*
X163163965Y-54948169D01*
X163163964Y-54948171D01*
X163064098Y-55162335D01*
X163064094Y-55162344D01*
X163002938Y-55390586D01*
X163002936Y-55390596D01*
X162982341Y-55625999D01*
X162982341Y-55626000D01*
X163002936Y-55861403D01*
X163002938Y-55861413D01*
X163064094Y-56089655D01*
X163064096Y-56089659D01*
X163064097Y-56089663D01*
X163144004Y-56261023D01*
X163163965Y-56303830D01*
X163163967Y-56303834D01*
X163238412Y-56410151D01*
X163299501Y-56497396D01*
X163299506Y-56497402D01*
X163466597Y-56664493D01*
X163466603Y-56664498D01*
X163652158Y-56794425D01*
X163695783Y-56849002D01*
X163702977Y-56918500D01*
X163671454Y-56980855D01*
X163652158Y-56997575D01*
X163466597Y-57127505D01*
X163299505Y-57294597D01*
X163163965Y-57488169D01*
X163163964Y-57488171D01*
X163064098Y-57702335D01*
X163064094Y-57702344D01*
X163002938Y-57930586D01*
X163002936Y-57930596D01*
X162982341Y-58165999D01*
X162982341Y-58166000D01*
X163002936Y-58401403D01*
X163002938Y-58401413D01*
X163064094Y-58629655D01*
X163064096Y-58629659D01*
X163064097Y-58629663D01*
X163068000Y-58638032D01*
X163163965Y-58843830D01*
X163163967Y-58843834D01*
X163232160Y-58941223D01*
X163299501Y-59037396D01*
X163299506Y-59037402D01*
X163466597Y-59204493D01*
X163466603Y-59204498D01*
X163652158Y-59334425D01*
X163695783Y-59389002D01*
X163702977Y-59458500D01*
X163671454Y-59520855D01*
X163652158Y-59537575D01*
X163466597Y-59667505D01*
X163299505Y-59834597D01*
X163163965Y-60028169D01*
X163163964Y-60028171D01*
X163064098Y-60242335D01*
X163064094Y-60242344D01*
X163002938Y-60470586D01*
X163002936Y-60470596D01*
X162982341Y-60705999D01*
X162982341Y-60706000D01*
X163002936Y-60941403D01*
X163002938Y-60941413D01*
X163064094Y-61169655D01*
X163064096Y-61169659D01*
X163064097Y-61169663D01*
X163107964Y-61263736D01*
X163163965Y-61383830D01*
X163163967Y-61383834D01*
X163263983Y-61526670D01*
X163299501Y-61577396D01*
X163299506Y-61577402D01*
X163466597Y-61744493D01*
X163466603Y-61744498D01*
X163652158Y-61874425D01*
X163695783Y-61929002D01*
X163702977Y-61998500D01*
X163671454Y-62060855D01*
X163652158Y-62077575D01*
X163466597Y-62207505D01*
X163299505Y-62374597D01*
X163163965Y-62568169D01*
X163163964Y-62568171D01*
X163064098Y-62782335D01*
X163064094Y-62782344D01*
X163002938Y-63010586D01*
X163002936Y-63010596D01*
X162982341Y-63245999D01*
X162982341Y-63246000D01*
X163002936Y-63481403D01*
X163002938Y-63481413D01*
X163064094Y-63709655D01*
X163064096Y-63709659D01*
X163064097Y-63709663D01*
X163141700Y-63876082D01*
X163163965Y-63923830D01*
X163163967Y-63923834D01*
X163244213Y-64038436D01*
X163299501Y-64117396D01*
X163299506Y-64117402D01*
X163466597Y-64284493D01*
X163466603Y-64284498D01*
X163652158Y-64414425D01*
X163695783Y-64469002D01*
X163702977Y-64538500D01*
X163671454Y-64600855D01*
X163652158Y-64617575D01*
X163466597Y-64747505D01*
X163299505Y-64914597D01*
X163163965Y-65108169D01*
X163163964Y-65108171D01*
X163064098Y-65322335D01*
X163064094Y-65322344D01*
X163002938Y-65550586D01*
X163002936Y-65550596D01*
X162982341Y-65785999D01*
X162982341Y-65786000D01*
X163002936Y-66021403D01*
X163002938Y-66021413D01*
X163064094Y-66249655D01*
X163064096Y-66249659D01*
X163064097Y-66249663D01*
X163143672Y-66420311D01*
X163163965Y-66463830D01*
X163163967Y-66463834D01*
X163271561Y-66617493D01*
X163299501Y-66657396D01*
X163299506Y-66657402D01*
X163466597Y-66824493D01*
X163466603Y-66824498D01*
X163652158Y-66954425D01*
X163695783Y-67009002D01*
X163702977Y-67078500D01*
X163671454Y-67140855D01*
X163652158Y-67157575D01*
X163466597Y-67287505D01*
X163299505Y-67454597D01*
X163163965Y-67648169D01*
X163163964Y-67648171D01*
X163064098Y-67862335D01*
X163064094Y-67862344D01*
X163002938Y-68090586D01*
X163002936Y-68090596D01*
X162982341Y-68325999D01*
X162982341Y-68326000D01*
X163002936Y-68561403D01*
X163002938Y-68561413D01*
X163064094Y-68789655D01*
X163064096Y-68789659D01*
X163064097Y-68789663D01*
X163144004Y-68961023D01*
X163163965Y-69003830D01*
X163163967Y-69003834D01*
X163192471Y-69044541D01*
X163299501Y-69197396D01*
X163299506Y-69197402D01*
X163466597Y-69364493D01*
X163466603Y-69364498D01*
X163652158Y-69494425D01*
X163695783Y-69549002D01*
X163702977Y-69618500D01*
X163671454Y-69680855D01*
X163652158Y-69697575D01*
X163466597Y-69827505D01*
X163299505Y-69994597D01*
X163163965Y-70188169D01*
X163163964Y-70188171D01*
X163064098Y-70402335D01*
X163064094Y-70402344D01*
X163002938Y-70630586D01*
X163002936Y-70630596D01*
X162982341Y-70865999D01*
X162982341Y-70866000D01*
X163002936Y-71101403D01*
X163002938Y-71101413D01*
X163064094Y-71329655D01*
X163064096Y-71329659D01*
X163064097Y-71329663D01*
X163144004Y-71501023D01*
X163163965Y-71543830D01*
X163163967Y-71543834D01*
X163239856Y-71652214D01*
X163299501Y-71737396D01*
X163299506Y-71737402D01*
X163466597Y-71904493D01*
X163466603Y-71904498D01*
X163652158Y-72034425D01*
X163695783Y-72089002D01*
X163702977Y-72158500D01*
X163671454Y-72220855D01*
X163652158Y-72237575D01*
X163466597Y-72367505D01*
X163299505Y-72534597D01*
X163163965Y-72728169D01*
X163163964Y-72728171D01*
X163064098Y-72942335D01*
X163064094Y-72942344D01*
X163002938Y-73170586D01*
X163002936Y-73170596D01*
X162982341Y-73405999D01*
X162982341Y-73406000D01*
X163002936Y-73641403D01*
X163002938Y-73641413D01*
X163064094Y-73869655D01*
X163064096Y-73869659D01*
X163064097Y-73869663D01*
X163163965Y-74083830D01*
X163163967Y-74083834D01*
X163299501Y-74277395D01*
X163299506Y-74277402D01*
X163466597Y-74444493D01*
X163466603Y-74444498D01*
X163652158Y-74574425D01*
X163695783Y-74629002D01*
X163702977Y-74698500D01*
X163671454Y-74760855D01*
X163652158Y-74777575D01*
X163466597Y-74907505D01*
X163299505Y-75074597D01*
X163163965Y-75268169D01*
X163163964Y-75268171D01*
X163064098Y-75482335D01*
X163064094Y-75482344D01*
X163002938Y-75710586D01*
X163002936Y-75710596D01*
X162982341Y-75945999D01*
X162982341Y-75946000D01*
X163002936Y-76181403D01*
X163002938Y-76181413D01*
X163064094Y-76409655D01*
X163064096Y-76409659D01*
X163064097Y-76409663D01*
X163156983Y-76608857D01*
X163163965Y-76623830D01*
X163163967Y-76623834D01*
X163268933Y-76773740D01*
X163285298Y-76797112D01*
X163299501Y-76817395D01*
X163299506Y-76817402D01*
X163466597Y-76984493D01*
X163466603Y-76984498D01*
X163652158Y-77114425D01*
X163695783Y-77169002D01*
X163702977Y-77238500D01*
X163671454Y-77300855D01*
X163652158Y-77317575D01*
X163466597Y-77447505D01*
X163299505Y-77614597D01*
X163163965Y-77808169D01*
X163163964Y-77808171D01*
X163064098Y-78022335D01*
X163064094Y-78022344D01*
X163002938Y-78250586D01*
X163002936Y-78250596D01*
X162982341Y-78485999D01*
X162982341Y-78486000D01*
X163002936Y-78721403D01*
X163002938Y-78721413D01*
X163064094Y-78949655D01*
X163064096Y-78949659D01*
X163064097Y-78949663D01*
X163105425Y-79038290D01*
X163163965Y-79163830D01*
X163163967Y-79163834D01*
X163299501Y-79357395D01*
X163299506Y-79357402D01*
X163466597Y-79524493D01*
X163466603Y-79524498D01*
X163652158Y-79654425D01*
X163695783Y-79709002D01*
X163702977Y-79778500D01*
X163671454Y-79840855D01*
X163652158Y-79857575D01*
X163466597Y-79987505D01*
X163299505Y-80154597D01*
X163163965Y-80348169D01*
X163163964Y-80348171D01*
X163064098Y-80562335D01*
X163064094Y-80562344D01*
X163002938Y-80790586D01*
X163002936Y-80790596D01*
X162982341Y-81025999D01*
X162982341Y-81026000D01*
X163002936Y-81261403D01*
X163002938Y-81261413D01*
X163064094Y-81489655D01*
X163064096Y-81489659D01*
X163064097Y-81489663D01*
X163163965Y-81703830D01*
X163163967Y-81703834D01*
X163299501Y-81897395D01*
X163299506Y-81897402D01*
X163466597Y-82064493D01*
X163466603Y-82064498D01*
X163652158Y-82194425D01*
X163695783Y-82249002D01*
X163702977Y-82318500D01*
X163671454Y-82380855D01*
X163652158Y-82397575D01*
X163466597Y-82527505D01*
X163299505Y-82694597D01*
X163163965Y-82888169D01*
X163163964Y-82888171D01*
X163064098Y-83102335D01*
X163064094Y-83102344D01*
X163002938Y-83330586D01*
X163002936Y-83330596D01*
X162982341Y-83565999D01*
X162982341Y-83566000D01*
X163002936Y-83801403D01*
X163002938Y-83801413D01*
X163064094Y-84029655D01*
X163064096Y-84029659D01*
X163064097Y-84029663D01*
X163096064Y-84098216D01*
X163163965Y-84243830D01*
X163163967Y-84243834D01*
X163238412Y-84350151D01*
X163299505Y-84437401D01*
X163466599Y-84604495D01*
X163524105Y-84644761D01*
X163660165Y-84740032D01*
X163660167Y-84740033D01*
X163660170Y-84740035D01*
X163874337Y-84839903D01*
X164102592Y-84901063D01*
X164273319Y-84916000D01*
X164337999Y-84921659D01*
X164338000Y-84921659D01*
X164338001Y-84921659D01*
X164402681Y-84916000D01*
X164573408Y-84901063D01*
X164801663Y-84839903D01*
X165015830Y-84740035D01*
X165209401Y-84604495D01*
X165331717Y-84482178D01*
X165393036Y-84448696D01*
X165462728Y-84453680D01*
X165518662Y-84495551D01*
X165535577Y-84526528D01*
X165584646Y-84658088D01*
X165584649Y-84658093D01*
X165670809Y-84773187D01*
X165670812Y-84773190D01*
X165785906Y-84859350D01*
X165785913Y-84859354D01*
X165920620Y-84909596D01*
X165920627Y-84909598D01*
X165980155Y-84915999D01*
X165980172Y-84916000D01*
X166628000Y-84916000D01*
X166628000Y-84001501D01*
X166735685Y-84050680D01*
X166842237Y-84066000D01*
X166913763Y-84066000D01*
X167020315Y-84050680D01*
X167128000Y-84001501D01*
X167128000Y-84916000D01*
X167775828Y-84916000D01*
X167775844Y-84915999D01*
X167835372Y-84909598D01*
X167835379Y-84909596D01*
X167970086Y-84859354D01*
X167970093Y-84859350D01*
X168085187Y-84773190D01*
X168085190Y-84773187D01*
X168171350Y-84658093D01*
X168171354Y-84658086D01*
X168221596Y-84523379D01*
X168221598Y-84523372D01*
X168227999Y-84463844D01*
X168228000Y-84463827D01*
X168228000Y-83816000D01*
X167311686Y-83816000D01*
X167337493Y-83775844D01*
X167378000Y-83637889D01*
X167378000Y-83494111D01*
X167337493Y-83356156D01*
X167311686Y-83316000D01*
X168228000Y-83316000D01*
X168228000Y-82947444D01*
X168247685Y-82880405D01*
X168300489Y-82834650D01*
X168334206Y-82826764D01*
X168333916Y-82824931D01*
X168341617Y-82823710D01*
X168341619Y-82823709D01*
X168341627Y-82823709D01*
X168360869Y-82818117D01*
X168379912Y-82814174D01*
X168399792Y-82811664D01*
X168443122Y-82794507D01*
X168448646Y-82792617D01*
X168452396Y-82791527D01*
X168493390Y-82779618D01*
X168510629Y-82769422D01*
X168528103Y-82760862D01*
X168546727Y-82753488D01*
X168546727Y-82753487D01*
X168546732Y-82753486D01*
X168584449Y-82726082D01*
X168589305Y-82722892D01*
X168629420Y-82699170D01*
X168643589Y-82684999D01*
X168658379Y-82672368D01*
X168674587Y-82660594D01*
X168704299Y-82624676D01*
X168708212Y-82620376D01*
X169792772Y-81535819D01*
X169854095Y-81502334D01*
X169880453Y-81499500D01*
X175888547Y-81499500D01*
X175955586Y-81519185D01*
X176001341Y-81571989D01*
X176011285Y-81641147D01*
X175982260Y-81704703D01*
X175976228Y-81711181D01*
X175820228Y-81867181D01*
X175758905Y-81900666D01*
X175732547Y-81903500D01*
X175673354Y-81903500D01*
X175640897Y-81910398D01*
X175488197Y-81942855D01*
X175488192Y-81942857D01*
X175315270Y-82019848D01*
X175315265Y-82019851D01*
X175162129Y-82131111D01*
X175035466Y-82271785D01*
X174940821Y-82435715D01*
X174940818Y-82435722D01*
X174882327Y-82615740D01*
X174882326Y-82615744D01*
X174862540Y-82804000D01*
X174882326Y-82992256D01*
X174882327Y-82992259D01*
X174940818Y-83172277D01*
X174940821Y-83172284D01*
X175035467Y-83336216D01*
X175162129Y-83476888D01*
X175315265Y-83588148D01*
X175315270Y-83588151D01*
X175488192Y-83665142D01*
X175488197Y-83665144D01*
X175673354Y-83704500D01*
X175673355Y-83704500D01*
X175862644Y-83704500D01*
X175862646Y-83704500D01*
X176047803Y-83665144D01*
X176068536Y-83655912D01*
X176137783Y-83646626D01*
X176201060Y-83676252D01*
X176226360Y-83707191D01*
X176305465Y-83844206D01*
X176432129Y-83984880D01*
X176585265Y-84096140D01*
X176585270Y-84096143D01*
X176758192Y-84173134D01*
X176758197Y-84173136D01*
X176943354Y-84212492D01*
X176943355Y-84212492D01*
X177132644Y-84212492D01*
X177132646Y-84212492D01*
X177317803Y-84173136D01*
X177467582Y-84106448D01*
X177536832Y-84097164D01*
X177600108Y-84126792D01*
X177610165Y-84136752D01*
X177702129Y-84238888D01*
X177702132Y-84238890D01*
X177855265Y-84350148D01*
X177855270Y-84350151D01*
X178028192Y-84427142D01*
X178028197Y-84427144D01*
X178213354Y-84466500D01*
X178213355Y-84466500D01*
X178402644Y-84466500D01*
X178402646Y-84466500D01*
X178587803Y-84427144D01*
X178737590Y-84360453D01*
X178806837Y-84351168D01*
X178870114Y-84380796D01*
X178880166Y-84390753D01*
X178945978Y-84463844D01*
X178972129Y-84492888D01*
X179125265Y-84604148D01*
X179125270Y-84604151D01*
X179298192Y-84681142D01*
X179298197Y-84681144D01*
X179483354Y-84720500D01*
X179483355Y-84720500D01*
X179672644Y-84720500D01*
X179672646Y-84720500D01*
X179857803Y-84681144D01*
X180007590Y-84614453D01*
X180076837Y-84605168D01*
X180140114Y-84634796D01*
X180150166Y-84644753D01*
X180182931Y-84681142D01*
X180242129Y-84746888D01*
X180395265Y-84858148D01*
X180395270Y-84858151D01*
X180568192Y-84935142D01*
X180568197Y-84935144D01*
X180753354Y-84974500D01*
X180753355Y-84974500D01*
X180942644Y-84974500D01*
X180942646Y-84974500D01*
X181127803Y-84935144D01*
X181246680Y-84882216D01*
X181292371Y-84861873D01*
X181361621Y-84852588D01*
X181424898Y-84882216D01*
X181434956Y-84892179D01*
X181442955Y-84901063D01*
X181512129Y-84977888D01*
X181665265Y-85089148D01*
X181665270Y-85089151D01*
X181838192Y-85166142D01*
X181838197Y-85166144D01*
X182023354Y-85205500D01*
X182023355Y-85205500D01*
X182212647Y-85205500D01*
X182219105Y-85204821D01*
X182219340Y-85207061D01*
X182278663Y-85211571D01*
X182334409Y-85253693D01*
X182342197Y-85265558D01*
X182401465Y-85368214D01*
X182528129Y-85508888D01*
X182681265Y-85620148D01*
X182681270Y-85620151D01*
X182854192Y-85697142D01*
X182854197Y-85697144D01*
X183039354Y-85736500D01*
X183039355Y-85736500D01*
X183228644Y-85736500D01*
X183228646Y-85736500D01*
X183413803Y-85697144D01*
X183563590Y-85630453D01*
X183632837Y-85621168D01*
X183696114Y-85650796D01*
X183706166Y-85660753D01*
X183738931Y-85697142D01*
X183798129Y-85762888D01*
X183815050Y-85775182D01*
X183857716Y-85830512D01*
X183863695Y-85900125D01*
X183831089Y-85961920D01*
X183770251Y-85996277D01*
X183742165Y-85999500D01*
X159124500Y-85999500D01*
X159057461Y-85979815D01*
X159011706Y-85927011D01*
X159000500Y-85875500D01*
X159000500Y-35124500D01*
X159020185Y-35057461D01*
X159072989Y-35011706D01*
X159124500Y-35000500D01*
X175699097Y-35000500D01*
X175766136Y-35020185D01*
G37*
%TD.AperFunction*%
%TA.AperFunction,Conductor*%
G36*
X225942539Y-35020185D02*
G01*
X225988294Y-35072989D01*
X225999500Y-35124500D01*
X225999500Y-85875500D01*
X225979815Y-85942539D01*
X225927011Y-85988294D01*
X225875500Y-85999500D01*
X203099835Y-85999500D01*
X203032796Y-85979815D01*
X202987041Y-85927011D01*
X202977097Y-85857853D01*
X203006122Y-85794297D01*
X203026950Y-85775182D01*
X203030930Y-85772289D01*
X203043871Y-85762888D01*
X203135827Y-85660759D01*
X203195312Y-85624112D01*
X203265169Y-85625442D01*
X203278397Y-85630448D01*
X203428197Y-85697144D01*
X203613354Y-85736500D01*
X203613355Y-85736500D01*
X203802644Y-85736500D01*
X203802646Y-85736500D01*
X203987803Y-85697144D01*
X204160730Y-85620151D01*
X204313871Y-85508888D01*
X204440533Y-85368216D01*
X204519643Y-85231192D01*
X204570210Y-85182978D01*
X204638817Y-85169754D01*
X204677464Y-85179912D01*
X204698197Y-85189144D01*
X204883354Y-85228500D01*
X204883355Y-85228500D01*
X205072644Y-85228500D01*
X205072646Y-85228500D01*
X205257803Y-85189144D01*
X205430730Y-85112151D01*
X205583871Y-85000888D01*
X205675827Y-84898759D01*
X205735312Y-84862112D01*
X205805169Y-84863442D01*
X205818397Y-84868448D01*
X205968197Y-84935144D01*
X206153354Y-84974500D01*
X206153355Y-84974500D01*
X206342644Y-84974500D01*
X206342646Y-84974500D01*
X206527803Y-84935144D01*
X206700730Y-84858151D01*
X206853871Y-84746888D01*
X206980533Y-84606216D01*
X207075179Y-84442284D01*
X207133674Y-84262256D01*
X207153460Y-84074000D01*
X207133674Y-83885744D01*
X207075179Y-83705716D01*
X206980533Y-83541784D01*
X206948738Y-83506472D01*
X206918508Y-83443480D01*
X206927133Y-83374145D01*
X206971875Y-83320480D01*
X207038527Y-83299522D01*
X207040888Y-83299500D01*
X213681548Y-83299500D01*
X213748587Y-83319185D01*
X213769229Y-83335819D01*
X214453038Y-84019629D01*
X214486523Y-84080952D01*
X214488678Y-84094348D01*
X214496959Y-84173134D01*
X214506326Y-84262256D01*
X214506327Y-84262259D01*
X214564818Y-84442277D01*
X214564821Y-84442284D01*
X214659467Y-84606216D01*
X214726931Y-84681142D01*
X214786129Y-84746888D01*
X214939265Y-84858148D01*
X214939270Y-84858151D01*
X215112192Y-84935142D01*
X215112197Y-84935144D01*
X215297354Y-84974500D01*
X215297355Y-84974500D01*
X215486644Y-84974500D01*
X215486646Y-84974500D01*
X215671803Y-84935144D01*
X215844730Y-84858151D01*
X215997871Y-84746888D01*
X216124533Y-84606216D01*
X216219179Y-84442284D01*
X216277674Y-84262256D01*
X216297460Y-84074000D01*
X216277674Y-83885744D01*
X216219179Y-83705716D01*
X216124533Y-83541784D01*
X216106693Y-83521971D01*
X216076464Y-83458981D01*
X216085089Y-83389646D01*
X216106694Y-83356028D01*
X216124533Y-83336216D01*
X216219179Y-83172284D01*
X216277674Y-82992256D01*
X216297460Y-82804000D01*
X216277674Y-82615744D01*
X216219179Y-82435716D01*
X216124533Y-82271784D01*
X216106693Y-82251971D01*
X216076464Y-82188981D01*
X216085089Y-82119646D01*
X216106694Y-82086028D01*
X216124533Y-82066216D01*
X216219179Y-81902284D01*
X216277674Y-81722256D01*
X216297460Y-81534000D01*
X216277674Y-81345744D01*
X216219179Y-81165716D01*
X216124533Y-81001784D01*
X215997871Y-80861112D01*
X215997870Y-80861111D01*
X215844734Y-80749851D01*
X215844729Y-80749848D01*
X215671807Y-80672857D01*
X215671802Y-80672855D01*
X215526001Y-80641865D01*
X215486646Y-80633500D01*
X215325656Y-80633500D01*
X215258617Y-80613815D01*
X215212862Y-80561011D01*
X215202918Y-80491853D01*
X215231943Y-80428297D01*
X215290721Y-80390523D01*
X215299876Y-80388210D01*
X215309380Y-80386189D01*
X215417803Y-80363144D01*
X215590730Y-80286151D01*
X215743871Y-80174888D01*
X215870533Y-80034216D01*
X215965179Y-79870284D01*
X216023674Y-79690256D01*
X216043460Y-79502000D01*
X216023674Y-79313744D01*
X215965179Y-79133716D01*
X215870533Y-78969784D01*
X215743871Y-78829112D01*
X215729982Y-78819021D01*
X215590734Y-78717851D01*
X215590729Y-78717848D01*
X215417807Y-78640857D01*
X215417802Y-78640855D01*
X215272001Y-78609865D01*
X215232646Y-78601500D01*
X215190454Y-78601500D01*
X215123415Y-78581815D01*
X215077660Y-78529011D01*
X215067716Y-78459853D01*
X215096741Y-78396297D01*
X215097558Y-78395419D01*
X215097538Y-78395401D01*
X215100110Y-78392483D01*
X215100116Y-78392474D01*
X215100120Y-78392471D01*
X215104379Y-78386978D01*
X215108152Y-78382561D01*
X215140062Y-78348582D01*
X215149713Y-78331024D01*
X215160396Y-78314761D01*
X215172673Y-78298936D01*
X215191185Y-78256153D01*
X215193738Y-78250941D01*
X215216197Y-78210092D01*
X215221180Y-78190680D01*
X215227481Y-78172280D01*
X215235437Y-78153896D01*
X215242729Y-78107852D01*
X215243906Y-78102171D01*
X215255500Y-78057019D01*
X215255500Y-78036983D01*
X215257027Y-78017582D01*
X215260160Y-77997804D01*
X215255775Y-77951415D01*
X215255500Y-77945577D01*
X215255500Y-71818687D01*
X215275185Y-71751648D01*
X215287350Y-71735715D01*
X215305891Y-71715122D01*
X215362533Y-71652216D01*
X215457179Y-71488284D01*
X215515674Y-71308256D01*
X215535460Y-71120000D01*
X215515674Y-70931744D01*
X215457179Y-70751716D01*
X215362533Y-70587784D01*
X215235871Y-70447112D01*
X215235870Y-70447111D01*
X215082734Y-70335851D01*
X215082729Y-70335848D01*
X214909807Y-70258857D01*
X214909802Y-70258855D01*
X214744796Y-70223783D01*
X214724646Y-70219500D01*
X214535354Y-70219500D01*
X214515204Y-70223783D01*
X214350197Y-70258855D01*
X214350192Y-70258857D01*
X214177270Y-70335848D01*
X214177265Y-70335851D01*
X214024129Y-70447111D01*
X213897466Y-70587785D01*
X213802821Y-70751715D01*
X213802818Y-70751722D01*
X213744327Y-70931740D01*
X213744326Y-70931744D01*
X213724540Y-71120000D01*
X213744326Y-71308256D01*
X213744327Y-71308259D01*
X213802818Y-71488277D01*
X213802821Y-71488284D01*
X213897467Y-71652216D01*
X213940772Y-71700310D01*
X213972650Y-71735715D01*
X214002880Y-71798706D01*
X214004500Y-71818687D01*
X214004500Y-77667547D01*
X213984815Y-77734586D01*
X213968181Y-77755228D01*
X211511228Y-80212181D01*
X211449905Y-80245666D01*
X211423547Y-80248500D01*
X211003452Y-80248500D01*
X210936413Y-80228815D01*
X210890658Y-80176011D01*
X210880714Y-80106853D01*
X210909739Y-80043297D01*
X210915771Y-80036819D01*
X211111735Y-79840855D01*
X211711786Y-79240802D01*
X211724048Y-79230980D01*
X211723865Y-79230759D01*
X211729867Y-79225792D01*
X211729877Y-79225786D01*
X211777241Y-79175348D01*
X211798120Y-79154470D01*
X211802373Y-79148986D01*
X211806150Y-79144563D01*
X211838062Y-79110582D01*
X211847714Y-79093023D01*
X211858389Y-79076772D01*
X211870674Y-79060936D01*
X211889186Y-79018152D01*
X211891742Y-79012935D01*
X211914197Y-78972092D01*
X211919180Y-78952680D01*
X211925477Y-78934291D01*
X211933438Y-78915895D01*
X211940729Y-78869853D01*
X211941908Y-78864162D01*
X211953500Y-78819019D01*
X211953500Y-78798983D01*
X211955027Y-78779582D01*
X211958160Y-78759804D01*
X211953775Y-78713415D01*
X211953500Y-78707577D01*
X211953500Y-73342687D01*
X211973185Y-73275648D01*
X211985350Y-73259715D01*
X212003891Y-73239122D01*
X212060533Y-73176216D01*
X212155179Y-73012284D01*
X212213674Y-72832256D01*
X212233460Y-72644000D01*
X212213674Y-72455744D01*
X212155179Y-72275716D01*
X212060533Y-72111784D01*
X211933871Y-71971112D01*
X211933870Y-71971111D01*
X211780734Y-71859851D01*
X211780729Y-71859848D01*
X211607807Y-71782857D01*
X211607802Y-71782855D01*
X211460980Y-71751648D01*
X211422646Y-71743500D01*
X211233354Y-71743500D01*
X211200897Y-71750398D01*
X211048197Y-71782855D01*
X211048192Y-71782857D01*
X210875270Y-71859848D01*
X210875265Y-71859851D01*
X210722129Y-71971111D01*
X210595466Y-72111785D01*
X210500821Y-72275715D01*
X210500818Y-72275722D01*
X210470996Y-72367506D01*
X210442326Y-72455744D01*
X210422540Y-72644000D01*
X210422540Y-72644002D01*
X210423810Y-72656089D01*
X210411239Y-72724819D01*
X210363505Y-72775841D01*
X210326273Y-72790337D01*
X210294146Y-72797166D01*
X210286197Y-72798856D01*
X210286196Y-72798856D01*
X210286193Y-72798857D01*
X210286192Y-72798857D01*
X210113270Y-72875848D01*
X210113265Y-72875851D01*
X209960129Y-72987111D01*
X209833466Y-73127785D01*
X209738821Y-73291715D01*
X209738818Y-73291722D01*
X209693531Y-73431102D01*
X209680326Y-73471744D01*
X209660540Y-73660000D01*
X209680326Y-73848256D01*
X209680327Y-73848259D01*
X209738818Y-74028277D01*
X209738820Y-74028282D01*
X209780702Y-74100825D01*
X209797173Y-74168726D01*
X209774321Y-74234752D01*
X209719399Y-74277942D01*
X209649845Y-74284583D01*
X209647609Y-74284129D01*
X209644646Y-74283500D01*
X209455354Y-74283500D01*
X209422897Y-74290398D01*
X209270197Y-74322855D01*
X209270192Y-74322857D01*
X209097270Y-74399848D01*
X209097265Y-74399851D01*
X208944129Y-74511111D01*
X208817466Y-74651785D01*
X208722821Y-74815715D01*
X208722818Y-74815722D01*
X208680554Y-74945799D01*
X208664326Y-74995744D01*
X208652073Y-75112331D01*
X208644071Y-75188462D01*
X208617486Y-75253076D01*
X208560189Y-75293061D01*
X208520750Y-75299500D01*
X208439354Y-75299500D01*
X208410684Y-75305594D01*
X208254197Y-75338855D01*
X208254192Y-75338857D01*
X208081270Y-75415848D01*
X208081265Y-75415851D01*
X207928129Y-75527111D01*
X207801466Y-75667785D01*
X207706821Y-75831715D01*
X207706818Y-75831722D01*
X207648327Y-76011740D01*
X207648326Y-76011744D01*
X207628540Y-76200000D01*
X207648326Y-76388256D01*
X207648327Y-76388259D01*
X207661890Y-76430002D01*
X207663885Y-76499843D01*
X207627805Y-76559676D01*
X207569740Y-76589610D01*
X207479197Y-76608855D01*
X207479192Y-76608857D01*
X207306270Y-76685848D01*
X207306265Y-76685851D01*
X207153129Y-76797111D01*
X207153128Y-76797112D01*
X207095656Y-76860941D01*
X207036169Y-76897589D01*
X206966312Y-76896258D01*
X206911358Y-76860941D01*
X206853885Y-76797112D01*
X206853884Y-76797111D01*
X206700748Y-76685851D01*
X206700743Y-76685848D01*
X206527821Y-76608857D01*
X206527816Y-76608855D01*
X206382015Y-76577865D01*
X206342660Y-76569500D01*
X206153368Y-76569500D01*
X206120911Y-76576398D01*
X205968211Y-76608855D01*
X205968206Y-76608857D01*
X205795284Y-76685848D01*
X205795282Y-76685850D01*
X205760091Y-76711417D01*
X205694285Y-76734895D01*
X205626231Y-76719068D01*
X205577537Y-76668962D01*
X205569277Y-76649415D01*
X205551181Y-76593721D01*
X205551178Y-76593715D01*
X205548808Y-76589610D01*
X205456533Y-76429784D01*
X205329871Y-76289112D01*
X205329870Y-76289111D01*
X205176734Y-76177851D01*
X205176729Y-76177848D01*
X205003807Y-76100857D01*
X205003802Y-76100855D01*
X204858001Y-76069865D01*
X204818646Y-76061500D01*
X204629354Y-76061500D01*
X204596897Y-76068398D01*
X204444197Y-76100855D01*
X204444192Y-76100857D01*
X204271270Y-76177848D01*
X204271265Y-76177851D01*
X204118129Y-76289111D01*
X203991466Y-76429785D01*
X203896821Y-76593715D01*
X203896818Y-76593722D01*
X203838327Y-76773740D01*
X203838326Y-76773744D01*
X203825450Y-76896258D01*
X203820679Y-76941649D01*
X203794094Y-77006263D01*
X203785040Y-77016367D01*
X203739228Y-77062180D01*
X203677905Y-77095666D01*
X203651546Y-77098500D01*
X197362500Y-77098500D01*
X197295461Y-77078815D01*
X197249706Y-77026011D01*
X197238500Y-76974500D01*
X197238499Y-75778998D01*
X197238498Y-75778981D01*
X197227999Y-75676203D01*
X197227998Y-75676200D01*
X197225209Y-75667784D01*
X197172814Y-75509666D01*
X197090425Y-75376092D01*
X197071987Y-75308705D01*
X197090425Y-75245907D01*
X197172814Y-75112334D01*
X197227999Y-74945797D01*
X197232177Y-74904896D01*
X197258573Y-74840207D01*
X197315753Y-74800055D01*
X197355535Y-74793500D01*
X203625256Y-74793500D01*
X203640876Y-74795224D01*
X203640903Y-74794939D01*
X203648659Y-74795671D01*
X203648666Y-74795673D01*
X203717813Y-74793500D01*
X203747349Y-74793500D01*
X203754227Y-74792630D01*
X203760040Y-74792172D01*
X203806626Y-74790709D01*
X203825868Y-74785117D01*
X203844911Y-74781174D01*
X203864791Y-74778664D01*
X203908121Y-74761507D01*
X203913645Y-74759617D01*
X203917395Y-74758527D01*
X203958389Y-74746618D01*
X203975628Y-74736422D01*
X203993102Y-74727862D01*
X204011726Y-74720488D01*
X204011726Y-74720487D01*
X204011731Y-74720486D01*
X204049448Y-74693082D01*
X204054304Y-74689892D01*
X204094419Y-74666170D01*
X204108588Y-74651999D01*
X204123378Y-74639368D01*
X204139586Y-74627594D01*
X204169298Y-74591676D01*
X204173211Y-74587376D01*
X208981275Y-69779313D01*
X209042598Y-69745828D01*
X209068956Y-69742994D01*
X209996006Y-69742994D01*
X209996012Y-69742994D01*
X210098801Y-69732494D01*
X210265338Y-69677309D01*
X210414660Y-69585207D01*
X210538716Y-69461151D01*
X210630818Y-69311829D01*
X210686003Y-69145292D01*
X210696504Y-69042504D01*
X210696503Y-68117487D01*
X210695096Y-68103718D01*
X210686003Y-68014698D01*
X210686002Y-68014695D01*
X210670354Y-67967474D01*
X210630818Y-67848161D01*
X210538716Y-67698839D01*
X210414660Y-67574783D01*
X210265338Y-67482681D01*
X210098801Y-67427496D01*
X210098799Y-67427495D01*
X209996014Y-67416995D01*
X208596002Y-67416995D01*
X208595985Y-67416996D01*
X208493207Y-67427495D01*
X208493204Y-67427496D01*
X208326672Y-67482680D01*
X208326667Y-67482682D01*
X208177346Y-67574784D01*
X208053293Y-67698837D01*
X207961191Y-67848158D01*
X207961189Y-67848163D01*
X207933353Y-67932165D01*
X207906005Y-68014698D01*
X207906005Y-68014699D01*
X207906004Y-68014699D01*
X207895504Y-68117478D01*
X207895504Y-69044541D01*
X207875819Y-69111580D01*
X207859185Y-69132222D01*
X203485227Y-73506181D01*
X203423904Y-73539666D01*
X203397546Y-73542500D01*
X197355535Y-73542500D01*
X197288496Y-73522815D01*
X197242741Y-73470011D01*
X197232177Y-73431102D01*
X197231663Y-73426071D01*
X197227999Y-73390203D01*
X197172814Y-73223666D01*
X197080712Y-73074344D01*
X196956656Y-72950288D01*
X196835974Y-72875851D01*
X196807336Y-72858187D01*
X196807331Y-72858185D01*
X196763491Y-72843658D01*
X196640797Y-72803001D01*
X196640795Y-72803000D01*
X196538010Y-72792500D01*
X195637998Y-72792500D01*
X195637980Y-72792501D01*
X195535203Y-72803000D01*
X195535200Y-72803001D01*
X195368668Y-72858185D01*
X195368663Y-72858187D01*
X195219342Y-72950289D01*
X195095289Y-73074342D01*
X195003187Y-73223663D01*
X195003185Y-73223668D01*
X194985961Y-73275648D01*
X194948001Y-73390203D01*
X194948001Y-73390204D01*
X194948000Y-73390204D01*
X194937500Y-73492983D01*
X194937500Y-74843001D01*
X194937501Y-74843018D01*
X194948000Y-74945796D01*
X194948001Y-74945799D01*
X195003185Y-75112331D01*
X195003189Y-75112340D01*
X195085572Y-75245904D01*
X195104012Y-75313296D01*
X195085572Y-75376096D01*
X195003189Y-75509659D01*
X195003186Y-75509666D01*
X194948001Y-75676203D01*
X194948001Y-75676204D01*
X194948000Y-75676204D01*
X194937500Y-75778983D01*
X194937500Y-75778991D01*
X194937500Y-76430002D01*
X194937501Y-76974500D01*
X194917816Y-77041539D01*
X194865013Y-77087294D01*
X194813501Y-77098500D01*
X194262500Y-77098500D01*
X194195461Y-77078815D01*
X194149706Y-77026011D01*
X194138500Y-76974500D01*
X194138499Y-75778998D01*
X194138498Y-75778981D01*
X194127999Y-75676203D01*
X194127998Y-75676200D01*
X194125209Y-75667784D01*
X194072814Y-75509666D01*
X193990425Y-75376092D01*
X193971987Y-75308705D01*
X193990425Y-75245907D01*
X194072814Y-75112334D01*
X194127999Y-74945797D01*
X194138500Y-74843009D01*
X194138499Y-73492992D01*
X194136328Y-73471744D01*
X194127999Y-73390203D01*
X194127998Y-73390200D01*
X194112254Y-73342687D01*
X194072814Y-73223666D01*
X193980712Y-73074344D01*
X193856656Y-72950288D01*
X193735974Y-72875851D01*
X193707336Y-72858187D01*
X193707331Y-72858185D01*
X193663491Y-72843658D01*
X193540797Y-72803001D01*
X193540795Y-72803000D01*
X193438010Y-72792500D01*
X192537998Y-72792500D01*
X192537980Y-72792501D01*
X192435203Y-72803000D01*
X192435200Y-72803001D01*
X192268668Y-72858185D01*
X192268663Y-72858187D01*
X192119342Y-72950289D01*
X191995289Y-73074342D01*
X191903187Y-73223663D01*
X191903185Y-73223668D01*
X191885961Y-73275648D01*
X191848002Y-73390202D01*
X191848001Y-73390204D01*
X191848000Y-73390205D01*
X191843823Y-73431102D01*
X191817427Y-73495793D01*
X191760247Y-73535945D01*
X191720465Y-73542500D01*
X186192652Y-73542500D01*
X186125613Y-73522815D01*
X186104971Y-73506181D01*
X182086637Y-69487846D01*
X182053152Y-69426523D01*
X182054542Y-69368076D01*
X182081463Y-69267608D01*
X182102059Y-69032200D01*
X183048341Y-69032200D01*
X183068936Y-69267603D01*
X183068938Y-69267613D01*
X183130094Y-69495855D01*
X183130096Y-69495859D01*
X183130097Y-69495863D01*
X183221541Y-69691965D01*
X183229965Y-69710030D01*
X183229967Y-69710034D01*
X183338281Y-69864721D01*
X183365505Y-69903601D01*
X183532599Y-70070695D01*
X183629384Y-70138465D01*
X183726165Y-70206232D01*
X183726167Y-70206233D01*
X183726170Y-70206235D01*
X183940337Y-70306103D01*
X184168592Y-70367263D01*
X184356918Y-70383739D01*
X184403999Y-70387859D01*
X184404000Y-70387859D01*
X184404001Y-70387859D01*
X184443234Y-70384426D01*
X184639408Y-70367263D01*
X184867663Y-70306103D01*
X185081830Y-70206235D01*
X185275401Y-70070695D01*
X185442495Y-69903601D01*
X185578035Y-69710030D01*
X185677903Y-69495863D01*
X185739063Y-69267608D01*
X185759659Y-69032200D01*
X185739063Y-68796792D01*
X185692626Y-68623485D01*
X185677905Y-68568544D01*
X185677904Y-68568543D01*
X185677903Y-68568537D01*
X185578035Y-68354371D01*
X185558169Y-68326000D01*
X185442496Y-68160800D01*
X185385414Y-68103718D01*
X185320179Y-68038483D01*
X185286696Y-67977163D01*
X185291680Y-67907471D01*
X185333551Y-67851537D01*
X185364529Y-67834622D01*
X185496086Y-67785554D01*
X185496093Y-67785550D01*
X185611187Y-67699390D01*
X185611190Y-67699387D01*
X185697350Y-67584293D01*
X185697354Y-67584286D01*
X185747596Y-67449579D01*
X185747598Y-67449572D01*
X185753999Y-67390044D01*
X185754000Y-67390027D01*
X185754000Y-66742200D01*
X184837686Y-66742200D01*
X184863493Y-66702044D01*
X184904000Y-66564089D01*
X184904000Y-66420311D01*
X184863493Y-66282356D01*
X184837686Y-66242200D01*
X185754000Y-66242200D01*
X185754000Y-65594372D01*
X185753999Y-65594355D01*
X185747598Y-65534827D01*
X185747596Y-65534820D01*
X185697354Y-65400113D01*
X185697350Y-65400106D01*
X185611190Y-65285012D01*
X185611187Y-65285009D01*
X185496093Y-65198849D01*
X185496086Y-65198845D01*
X185361379Y-65148603D01*
X185361372Y-65148601D01*
X185301844Y-65142200D01*
X184654000Y-65142200D01*
X184654000Y-66056698D01*
X184546315Y-66007520D01*
X184439763Y-65992200D01*
X184368237Y-65992200D01*
X184261685Y-66007520D01*
X184154000Y-66056698D01*
X184154000Y-65142200D01*
X183506155Y-65142200D01*
X183446627Y-65148601D01*
X183446620Y-65148603D01*
X183311913Y-65198845D01*
X183311906Y-65198849D01*
X183196812Y-65285009D01*
X183196809Y-65285012D01*
X183110649Y-65400106D01*
X183110645Y-65400113D01*
X183060403Y-65534820D01*
X183060401Y-65534827D01*
X183054000Y-65594355D01*
X183054000Y-66242200D01*
X183970314Y-66242200D01*
X183944507Y-66282356D01*
X183904000Y-66420311D01*
X183904000Y-66564089D01*
X183944507Y-66702044D01*
X183970314Y-66742200D01*
X183054000Y-66742200D01*
X183054000Y-67390044D01*
X183060401Y-67449572D01*
X183060403Y-67449579D01*
X183110645Y-67584286D01*
X183110649Y-67584293D01*
X183196809Y-67699387D01*
X183196812Y-67699390D01*
X183311906Y-67785550D01*
X183311913Y-67785554D01*
X183443470Y-67834621D01*
X183499403Y-67876492D01*
X183523821Y-67941956D01*
X183508970Y-68010229D01*
X183487819Y-68038484D01*
X183365503Y-68160800D01*
X183229965Y-68354369D01*
X183229964Y-68354371D01*
X183130098Y-68568535D01*
X183130094Y-68568544D01*
X183068938Y-68796786D01*
X183068936Y-68796796D01*
X183048341Y-69032199D01*
X183048341Y-69032200D01*
X182102059Y-69032200D01*
X182081463Y-68796792D01*
X182035026Y-68623485D01*
X182020305Y-68568544D01*
X182020304Y-68568543D01*
X182020303Y-68568537D01*
X181967384Y-68455054D01*
X181956893Y-68385977D01*
X181985413Y-68322193D01*
X182043889Y-68283954D01*
X182064227Y-68279627D01*
X182078192Y-68277864D01*
X182121522Y-68260707D01*
X182127046Y-68258817D01*
X182130796Y-68257727D01*
X182171790Y-68245818D01*
X182189029Y-68235622D01*
X182206503Y-68227062D01*
X182225127Y-68219688D01*
X182225127Y-68219687D01*
X182225132Y-68219686D01*
X182262849Y-68192282D01*
X182267705Y-68189092D01*
X182307820Y-68165370D01*
X182321989Y-68151200D01*
X182336778Y-68138569D01*
X182352987Y-68126794D01*
X182369674Y-68106620D01*
X182372214Y-68103739D01*
X182414828Y-68058362D01*
X182435720Y-68037471D01*
X182439979Y-68031978D01*
X182443752Y-68027561D01*
X182475662Y-67993582D01*
X182485313Y-67976024D01*
X182495996Y-67959761D01*
X182508273Y-67943936D01*
X182526785Y-67901153D01*
X182529338Y-67895941D01*
X182551797Y-67855092D01*
X182556780Y-67835680D01*
X182563081Y-67817280D01*
X182571037Y-67798896D01*
X182578329Y-67752852D01*
X182579506Y-67747171D01*
X182591100Y-67702019D01*
X182591100Y-67681983D01*
X182592627Y-67662582D01*
X182595760Y-67642804D01*
X182591375Y-67596415D01*
X182591100Y-67590577D01*
X182591100Y-63816470D01*
X183533300Y-63816470D01*
X183533301Y-63816476D01*
X183539708Y-63876083D01*
X183590002Y-64010928D01*
X183590006Y-64010935D01*
X183676252Y-64126144D01*
X183676255Y-64126147D01*
X183791464Y-64212393D01*
X183791471Y-64212397D01*
X183926317Y-64262691D01*
X183926316Y-64262691D01*
X183933244Y-64263435D01*
X183985927Y-64269100D01*
X185431672Y-64269099D01*
X185491283Y-64262691D01*
X185626131Y-64212396D01*
X185741346Y-64126146D01*
X185827596Y-64010931D01*
X185877891Y-63876083D01*
X185884300Y-63816473D01*
X185884299Y-62370728D01*
X185877891Y-62311117D01*
X185849869Y-62235987D01*
X185827597Y-62176271D01*
X185827593Y-62176264D01*
X185741347Y-62061055D01*
X185741344Y-62061052D01*
X185626135Y-61974806D01*
X185626128Y-61974802D01*
X185491282Y-61924508D01*
X185491283Y-61924508D01*
X185431683Y-61918101D01*
X185431681Y-61918100D01*
X185431673Y-61918100D01*
X185431664Y-61918100D01*
X183985929Y-61918100D01*
X183985923Y-61918101D01*
X183926316Y-61924508D01*
X183791471Y-61974802D01*
X183791464Y-61974806D01*
X183676255Y-62061052D01*
X183676252Y-62061055D01*
X183590006Y-62176264D01*
X183590002Y-62176271D01*
X183539708Y-62311117D01*
X183534545Y-62359146D01*
X183533301Y-62370723D01*
X183533300Y-62370735D01*
X183533300Y-63816470D01*
X182591100Y-63816470D01*
X182591100Y-53527440D01*
X182610785Y-53460401D01*
X182663589Y-53414646D01*
X182732747Y-53404702D01*
X182796303Y-53433727D01*
X182816674Y-53456316D01*
X182841017Y-53491082D01*
X182895954Y-53569541D01*
X183056858Y-53730445D01*
X183056861Y-53730447D01*
X183243266Y-53860968D01*
X183449504Y-53957139D01*
X183449509Y-53957140D01*
X183449511Y-53957141D01*
X183479181Y-53965091D01*
X183669308Y-54016035D01*
X183831230Y-54030201D01*
X183895998Y-54035868D01*
X183896000Y-54035868D01*
X183896002Y-54035868D01*
X183958511Y-54030399D01*
X184122692Y-54016035D01*
X184342496Y-53957139D01*
X184548734Y-53860968D01*
X184735139Y-53730447D01*
X184896047Y-53569539D01*
X185026568Y-53383134D01*
X185053618Y-53325124D01*
X185099790Y-53272685D01*
X185166983Y-53253533D01*
X185233865Y-53273748D01*
X185278382Y-53325125D01*
X185305429Y-53383128D01*
X185305432Y-53383134D01*
X185435954Y-53569541D01*
X185596858Y-53730445D01*
X185757623Y-53843013D01*
X185801248Y-53897589D01*
X185810500Y-53944588D01*
X185810500Y-55770485D01*
X185790815Y-55837524D01*
X185738011Y-55883279D01*
X185668853Y-55893223D01*
X185634484Y-55881785D01*
X185634441Y-55881903D01*
X185631148Y-55880675D01*
X185627080Y-55879321D01*
X185626135Y-55878805D01*
X185491282Y-55828508D01*
X185491283Y-55828508D01*
X185431683Y-55822101D01*
X185431681Y-55822100D01*
X185431673Y-55822100D01*
X185431664Y-55822100D01*
X183985929Y-55822100D01*
X183985923Y-55822101D01*
X183926316Y-55828508D01*
X183791471Y-55878802D01*
X183791464Y-55878806D01*
X183676255Y-55965052D01*
X183676252Y-55965055D01*
X183590006Y-56080264D01*
X183590002Y-56080271D01*
X183539708Y-56215117D01*
X183533301Y-56274716D01*
X183533300Y-56274735D01*
X183533300Y-57720470D01*
X183533301Y-57720476D01*
X183539708Y-57780083D01*
X183590002Y-57914928D01*
X183590006Y-57914935D01*
X183676252Y-58030144D01*
X183676255Y-58030147D01*
X183791464Y-58116393D01*
X183791471Y-58116397D01*
X183926317Y-58166691D01*
X183926316Y-58166691D01*
X183933244Y-58167435D01*
X183985927Y-58173100D01*
X185431672Y-58173099D01*
X185491283Y-58166691D01*
X185626131Y-58116396D01*
X185626133Y-58116393D01*
X185627071Y-58115883D01*
X185628118Y-58115655D01*
X185634441Y-58113297D01*
X185634779Y-58114205D01*
X185695343Y-58101030D01*
X185760808Y-58125445D01*
X185802681Y-58181378D01*
X185810500Y-58224714D01*
X185810500Y-58818485D01*
X185790815Y-58885524D01*
X185738011Y-58931279D01*
X185668853Y-58941223D01*
X185634484Y-58929785D01*
X185634441Y-58929903D01*
X185631148Y-58928675D01*
X185627080Y-58927321D01*
X185626135Y-58926805D01*
X185491282Y-58876508D01*
X185491283Y-58876508D01*
X185431683Y-58870101D01*
X185431681Y-58870100D01*
X185431673Y-58870100D01*
X185431664Y-58870100D01*
X183985929Y-58870100D01*
X183985923Y-58870101D01*
X183926316Y-58876508D01*
X183791471Y-58926802D01*
X183791464Y-58926806D01*
X183676255Y-59013052D01*
X183676252Y-59013055D01*
X183590006Y-59128264D01*
X183590002Y-59128271D01*
X183539708Y-59263117D01*
X183533301Y-59322716D01*
X183533300Y-59322735D01*
X183533300Y-60768470D01*
X183533301Y-60768476D01*
X183539708Y-60828083D01*
X183590002Y-60962928D01*
X183590006Y-60962935D01*
X183676252Y-61078144D01*
X183676255Y-61078147D01*
X183791464Y-61164393D01*
X183791471Y-61164397D01*
X183926317Y-61214691D01*
X183926316Y-61214691D01*
X183933244Y-61215435D01*
X183985927Y-61221100D01*
X185431672Y-61221099D01*
X185491283Y-61214691D01*
X185626131Y-61164396D01*
X185661686Y-61137778D01*
X185727147Y-61113361D01*
X185795421Y-61128211D01*
X185844828Y-61177615D01*
X185855073Y-61202447D01*
X185857381Y-61210393D01*
X185867580Y-61227638D01*
X185876138Y-61245107D01*
X185883514Y-61263736D01*
X185910898Y-61301427D01*
X185914106Y-61306311D01*
X185937827Y-61346420D01*
X185937833Y-61346428D01*
X185951990Y-61360584D01*
X185964628Y-61375380D01*
X185976405Y-61391590D01*
X185976406Y-61391591D01*
X186012309Y-61421292D01*
X186016620Y-61425214D01*
X189637553Y-65046148D01*
X190831034Y-66239629D01*
X190864519Y-66300952D01*
X190866674Y-66314348D01*
X190868933Y-66335840D01*
X190884322Y-66482256D01*
X190884323Y-66482259D01*
X190942814Y-66662277D01*
X190942817Y-66662284D01*
X191037463Y-66826216D01*
X191119836Y-66917700D01*
X191164125Y-66966888D01*
X191317261Y-67078148D01*
X191317266Y-67078151D01*
X191490188Y-67155142D01*
X191490193Y-67155144D01*
X191675350Y-67194500D01*
X191675351Y-67194500D01*
X191864640Y-67194500D01*
X191864642Y-67194500D01*
X192049799Y-67155144D01*
X192222726Y-67078151D01*
X192375867Y-66966888D01*
X192502529Y-66826216D01*
X192597175Y-66662284D01*
X192655670Y-66482256D01*
X192675456Y-66294000D01*
X192655670Y-66105744D01*
X192597175Y-65925716D01*
X192502529Y-65761784D01*
X192484692Y-65741974D01*
X192454462Y-65678982D01*
X192463087Y-65609647D01*
X192484693Y-65576029D01*
X192502533Y-65556216D01*
X192597179Y-65392284D01*
X192655674Y-65212256D01*
X192675460Y-65024000D01*
X192655674Y-64835744D01*
X192597179Y-64655716D01*
X192549120Y-64572475D01*
X192532647Y-64504574D01*
X192555500Y-64438547D01*
X192610421Y-64395357D01*
X192679975Y-64388716D01*
X192742077Y-64420732D01*
X192744176Y-64422782D01*
X195023437Y-66702044D01*
X197285181Y-68963788D01*
X197295003Y-68976047D01*
X197295224Y-68975865D01*
X197300192Y-68981870D01*
X197300195Y-68981873D01*
X197300198Y-68981877D01*
X197313103Y-68993996D01*
X197335601Y-69022383D01*
X197387465Y-69112214D01*
X197514129Y-69252888D01*
X197667265Y-69364148D01*
X197667270Y-69364151D01*
X197840192Y-69441142D01*
X197840197Y-69441144D01*
X198025354Y-69480500D01*
X198025355Y-69480500D01*
X198214644Y-69480500D01*
X198214646Y-69480500D01*
X198399803Y-69441144D01*
X198572730Y-69364151D01*
X198725871Y-69252888D01*
X198852533Y-69112216D01*
X198947179Y-68948284D01*
X199005674Y-68768256D01*
X199025460Y-68580000D01*
X199005674Y-68391744D01*
X198947179Y-68211716D01*
X198852533Y-68047784D01*
X198725871Y-67907112D01*
X198725870Y-67907111D01*
X198572734Y-67795851D01*
X198572729Y-67795848D01*
X198399807Y-67718857D01*
X198399802Y-67718855D01*
X198234796Y-67683783D01*
X198214646Y-67679500D01*
X198025354Y-67679500D01*
X198025353Y-67679500D01*
X197880678Y-67710251D01*
X197811011Y-67704935D01*
X197767217Y-67676642D01*
X196429555Y-66338980D01*
X196396070Y-66277657D01*
X196401054Y-66207965D01*
X196442926Y-66152032D01*
X196508390Y-66127615D01*
X196563938Y-66137365D01*
X196564013Y-66137135D01*
X196565645Y-66137665D01*
X196567676Y-66138021D01*
X196570197Y-66139144D01*
X196755354Y-66178500D01*
X196755355Y-66178500D01*
X196944644Y-66178500D01*
X196944646Y-66178500D01*
X197129803Y-66139144D01*
X197302730Y-66062151D01*
X197455871Y-65950888D01*
X197582533Y-65810216D01*
X197643282Y-65704995D01*
X207896005Y-65704995D01*
X207896005Y-65917481D01*
X207906498Y-66020192D01*
X207961645Y-66186614D01*
X207961647Y-66186619D01*
X208053688Y-66335840D01*
X208177658Y-66459810D01*
X208326879Y-66551851D01*
X208326884Y-66551853D01*
X208493306Y-66607000D01*
X208493313Y-66607001D01*
X208596023Y-66617494D01*
X209046003Y-66617494D01*
X209046004Y-66617493D01*
X209046004Y-65704995D01*
X209546004Y-65704995D01*
X209546004Y-66617494D01*
X209995976Y-66617494D01*
X209995990Y-66617493D01*
X210098701Y-66607000D01*
X210265123Y-66551853D01*
X210265128Y-66551851D01*
X210414349Y-66459810D01*
X210538319Y-66335840D01*
X210630360Y-66186619D01*
X210630362Y-66186614D01*
X210685509Y-66020192D01*
X210685510Y-66020185D01*
X210696003Y-65917481D01*
X210696004Y-65917468D01*
X210696004Y-65704995D01*
X209546004Y-65704995D01*
X209046004Y-65704995D01*
X207896005Y-65704995D01*
X197643282Y-65704995D01*
X197677179Y-65646284D01*
X197735674Y-65466256D01*
X197755460Y-65278000D01*
X197755459Y-65277999D01*
X197755929Y-65273538D01*
X197782514Y-65208924D01*
X197788144Y-65204995D01*
X207896004Y-65204995D01*
X209046004Y-65204995D01*
X209046004Y-64292495D01*
X209546004Y-64292495D01*
X209546004Y-65204995D01*
X210696003Y-65204995D01*
X210696003Y-64992523D01*
X210696002Y-64992508D01*
X210685509Y-64889797D01*
X210630362Y-64723375D01*
X210630360Y-64723370D01*
X210538319Y-64574149D01*
X210414349Y-64450179D01*
X210265128Y-64358138D01*
X210265123Y-64358136D01*
X210098701Y-64302989D01*
X210098694Y-64302988D01*
X209995990Y-64292495D01*
X209546004Y-64292495D01*
X209046004Y-64292495D01*
X208596032Y-64292495D01*
X208596016Y-64292496D01*
X208493306Y-64302989D01*
X208326884Y-64358136D01*
X208326879Y-64358138D01*
X208177658Y-64450179D01*
X208053688Y-64574149D01*
X207961647Y-64723370D01*
X207961645Y-64723375D01*
X207906498Y-64889797D01*
X207906497Y-64889804D01*
X207896004Y-64992508D01*
X207896004Y-65204995D01*
X197788144Y-65204995D01*
X197839811Y-65168939D01*
X197879250Y-65162500D01*
X197960652Y-65162500D01*
X197960654Y-65162500D01*
X198145811Y-65123144D01*
X198318738Y-65046151D01*
X198471879Y-64934888D01*
X198598541Y-64794216D01*
X198693187Y-64630284D01*
X198751682Y-64450256D01*
X198771468Y-64262000D01*
X198751682Y-64073744D01*
X198693187Y-63893716D01*
X198598541Y-63729784D01*
X198523358Y-63646284D01*
X198493128Y-63583292D01*
X198491508Y-63563312D01*
X198491508Y-54059452D01*
X198511193Y-53992413D01*
X198563997Y-53946658D01*
X198633155Y-53936714D01*
X198667910Y-53947069D01*
X198689504Y-53957139D01*
X198689509Y-53957140D01*
X198689511Y-53957141D01*
X198719181Y-53965091D01*
X198909308Y-54016035D01*
X199071230Y-54030201D01*
X199135998Y-54035868D01*
X199136000Y-54035868D01*
X199136002Y-54035868D01*
X199198511Y-54030399D01*
X199362692Y-54016035D01*
X199582496Y-53957139D01*
X199604093Y-53947067D01*
X199673169Y-53936573D01*
X199736954Y-53965091D01*
X199775195Y-54023567D01*
X199780500Y-54059448D01*
X199780500Y-63055320D01*
X199760815Y-63122359D01*
X199748650Y-63138292D01*
X199673466Y-63221792D01*
X199578821Y-63385723D01*
X199578818Y-63385730D01*
X199520327Y-63565748D01*
X199520326Y-63565752D01*
X199500540Y-63754008D01*
X199520326Y-63942264D01*
X199520327Y-63942267D01*
X199578818Y-64122285D01*
X199578821Y-64122292D01*
X199673467Y-64286224D01*
X199771731Y-64395357D01*
X199800129Y-64426896D01*
X199953265Y-64538156D01*
X199953270Y-64538159D01*
X200126192Y-64615150D01*
X200126197Y-64615152D01*
X200311354Y-64654508D01*
X200311355Y-64654508D01*
X200500644Y-64654508D01*
X200500646Y-64654508D01*
X200685803Y-64615152D01*
X200858730Y-64538159D01*
X201011871Y-64426896D01*
X201138533Y-64286224D01*
X201233179Y-64122292D01*
X201291674Y-63942264D01*
X201311460Y-63754008D01*
X201291674Y-63565752D01*
X201233179Y-63385724D01*
X201138533Y-63221792D01*
X201063350Y-63138292D01*
X201033120Y-63075300D01*
X201031500Y-63055320D01*
X201031500Y-54059448D01*
X201051185Y-53992409D01*
X201103989Y-53946654D01*
X201173147Y-53936710D01*
X201207905Y-53947067D01*
X201229504Y-53957139D01*
X201229509Y-53957140D01*
X201229511Y-53957141D01*
X201259181Y-53965091D01*
X201449308Y-54016035D01*
X201611230Y-54030201D01*
X201675998Y-54035868D01*
X201676000Y-54035868D01*
X201676002Y-54035868D01*
X201738511Y-54030399D01*
X201902692Y-54016035D01*
X202122496Y-53957139D01*
X202289095Y-53879451D01*
X202358173Y-53868960D01*
X202421957Y-53897480D01*
X202460196Y-53955956D01*
X202465500Y-53991834D01*
X202465500Y-62429964D01*
X202448887Y-62491964D01*
X202372821Y-62623714D01*
X202321279Y-62782344D01*
X202314326Y-62803744D01*
X202294540Y-62992000D01*
X202314326Y-63180256D01*
X202314327Y-63180259D01*
X202372818Y-63360277D01*
X202372821Y-63360284D01*
X202467467Y-63524216D01*
X202545529Y-63610912D01*
X202594129Y-63664888D01*
X202747265Y-63776148D01*
X202747270Y-63776151D01*
X202920192Y-63853142D01*
X202920197Y-63853144D01*
X203105354Y-63892500D01*
X203105355Y-63892500D01*
X203294644Y-63892500D01*
X203294646Y-63892500D01*
X203479803Y-63853144D01*
X203652730Y-63776151D01*
X203805871Y-63664888D01*
X203932533Y-63524216D01*
X204027179Y-63360284D01*
X204085674Y-63180256D01*
X204105460Y-62992000D01*
X204085674Y-62803744D01*
X204027179Y-62623716D01*
X203932533Y-62459784D01*
X203855832Y-62374599D01*
X203805876Y-62319116D01*
X203805873Y-62319114D01*
X203805872Y-62319113D01*
X203805871Y-62319112D01*
X203767613Y-62291316D01*
X203724949Y-62235987D01*
X203716500Y-62190999D01*
X203716500Y-54104536D01*
X203736185Y-54037497D01*
X203788989Y-53991742D01*
X203858147Y-53981798D01*
X203872582Y-53984758D01*
X203989308Y-54016035D01*
X204151230Y-54030201D01*
X204215998Y-54035868D01*
X204216000Y-54035868D01*
X204216002Y-54035868D01*
X204278511Y-54030399D01*
X204442692Y-54016035D01*
X204662496Y-53957139D01*
X204684093Y-53947067D01*
X204753169Y-53936573D01*
X204816954Y-53965091D01*
X204855195Y-54023567D01*
X204860500Y-54059448D01*
X204860500Y-61531308D01*
X204840815Y-61598347D01*
X204828650Y-61614280D01*
X204753466Y-61697780D01*
X204658821Y-61861711D01*
X204658818Y-61861718D01*
X204605527Y-62025732D01*
X204600326Y-62041740D01*
X204580540Y-62229996D01*
X204600326Y-62418252D01*
X204600327Y-62418255D01*
X204658818Y-62598273D01*
X204658821Y-62598280D01*
X204753467Y-62762212D01*
X204790863Y-62803744D01*
X204880129Y-62902884D01*
X205033265Y-63014144D01*
X205033270Y-63014147D01*
X205206192Y-63091138D01*
X205206197Y-63091140D01*
X205391354Y-63130496D01*
X205391355Y-63130496D01*
X205580644Y-63130496D01*
X205580646Y-63130496D01*
X205765803Y-63091140D01*
X205938730Y-63014147D01*
X206091871Y-62902884D01*
X206218533Y-62762212D01*
X206313179Y-62598280D01*
X206371674Y-62418252D01*
X206391460Y-62229996D01*
X206371674Y-62041740D01*
X206313179Y-61861712D01*
X206218533Y-61697780D01*
X206182989Y-61658304D01*
X206143350Y-61614280D01*
X206113120Y-61551288D01*
X206111500Y-61531308D01*
X206111500Y-54059448D01*
X206131185Y-53992409D01*
X206183989Y-53946654D01*
X206253147Y-53936710D01*
X206287905Y-53947067D01*
X206309504Y-53957139D01*
X206309509Y-53957140D01*
X206309511Y-53957141D01*
X206339181Y-53965091D01*
X206529308Y-54016035D01*
X206691230Y-54030201D01*
X206755998Y-54035868D01*
X206756000Y-54035868D01*
X206756002Y-54035868D01*
X206818511Y-54030399D01*
X206982692Y-54016035D01*
X207202496Y-53957139D01*
X207224093Y-53947067D01*
X207293169Y-53936573D01*
X207356954Y-53965091D01*
X207395195Y-54023567D01*
X207400500Y-54059448D01*
X207400500Y-60769312D01*
X207380815Y-60836351D01*
X207368650Y-60852284D01*
X207293466Y-60935784D01*
X207198821Y-61099715D01*
X207198818Y-61099722D01*
X207153820Y-61238214D01*
X207140326Y-61279744D01*
X207120540Y-61468000D01*
X207140326Y-61656256D01*
X207140327Y-61656259D01*
X207198818Y-61836277D01*
X207198821Y-61836284D01*
X207293467Y-62000216D01*
X207363122Y-62077575D01*
X207420129Y-62140888D01*
X207573265Y-62252148D01*
X207573270Y-62252151D01*
X207746192Y-62329142D01*
X207746197Y-62329144D01*
X207931354Y-62368500D01*
X207931355Y-62368500D01*
X208120644Y-62368500D01*
X208120646Y-62368500D01*
X208305803Y-62329144D01*
X208478730Y-62252151D01*
X208631871Y-62140888D01*
X208758533Y-62000216D01*
X208853179Y-61836284D01*
X208911009Y-61658302D01*
X208950445Y-61600629D01*
X209014804Y-61573430D01*
X209054718Y-61575331D01*
X209201354Y-61606500D01*
X209201355Y-61606500D01*
X209390644Y-61606500D01*
X209390646Y-61606500D01*
X209575803Y-61567144D01*
X209748730Y-61490151D01*
X209901871Y-61378888D01*
X210028533Y-61238216D01*
X210123179Y-61074284D01*
X210181674Y-60894256D01*
X210199321Y-60726344D01*
X210225904Y-60661734D01*
X210234951Y-60651638D01*
X211094788Y-59791801D01*
X211107042Y-59781986D01*
X211106859Y-59781764D01*
X211112866Y-59776792D01*
X211112877Y-59776786D01*
X211143775Y-59743882D01*
X211160227Y-59726364D01*
X211170671Y-59715918D01*
X211181120Y-59705471D01*
X211185379Y-59699978D01*
X211189152Y-59695561D01*
X211221062Y-59661582D01*
X211230713Y-59644024D01*
X211241396Y-59627761D01*
X211253673Y-59611936D01*
X211272185Y-59569153D01*
X211274738Y-59563941D01*
X211297197Y-59523092D01*
X211302180Y-59503680D01*
X211308481Y-59485280D01*
X211316437Y-59466896D01*
X211323729Y-59420852D01*
X211324906Y-59415171D01*
X211336500Y-59370019D01*
X211336500Y-59349983D01*
X211338027Y-59330582D01*
X211339270Y-59322735D01*
X211341160Y-59310804D01*
X211336775Y-59264415D01*
X211336500Y-59258577D01*
X211336500Y-54104536D01*
X211356185Y-54037497D01*
X211408989Y-53991742D01*
X211478147Y-53981798D01*
X211492582Y-53984758D01*
X211609308Y-54016035D01*
X211771230Y-54030201D01*
X211835998Y-54035868D01*
X211836000Y-54035868D01*
X211836002Y-54035868D01*
X211898511Y-54030399D01*
X212062692Y-54016035D01*
X212282496Y-53957139D01*
X212488734Y-53860968D01*
X212675139Y-53730447D01*
X212836047Y-53569539D01*
X212966568Y-53383134D01*
X212993618Y-53325124D01*
X213039790Y-53272685D01*
X213106983Y-53253533D01*
X213173865Y-53273748D01*
X213218382Y-53325125D01*
X213245429Y-53383128D01*
X213245432Y-53383134D01*
X213375954Y-53569541D01*
X213536858Y-53730445D01*
X213536861Y-53730447D01*
X213723266Y-53860968D01*
X213929504Y-53957139D01*
X213929509Y-53957140D01*
X213929511Y-53957141D01*
X213959181Y-53965091D01*
X214149308Y-54016035D01*
X214311230Y-54030201D01*
X214375998Y-54035868D01*
X214376000Y-54035868D01*
X214376002Y-54035868D01*
X214438511Y-54030399D01*
X214602692Y-54016035D01*
X214822496Y-53957139D01*
X215028734Y-53860968D01*
X215215139Y-53730447D01*
X215376047Y-53569539D01*
X215506568Y-53383134D01*
X215533618Y-53325124D01*
X215579790Y-53272685D01*
X215646983Y-53253533D01*
X215713865Y-53273748D01*
X215758382Y-53325125D01*
X215785429Y-53383128D01*
X215785432Y-53383134D01*
X215915954Y-53569541D01*
X216076858Y-53730445D01*
X216076861Y-53730447D01*
X216263266Y-53860968D01*
X216469504Y-53957139D01*
X216469509Y-53957140D01*
X216469511Y-53957141D01*
X216499181Y-53965091D01*
X216689308Y-54016035D01*
X216851230Y-54030201D01*
X216915998Y-54035868D01*
X216916000Y-54035868D01*
X216916002Y-54035868D01*
X216978511Y-54030399D01*
X217142692Y-54016035D01*
X217362496Y-53957139D01*
X217568734Y-53860968D01*
X217755139Y-53730447D01*
X217916047Y-53569539D01*
X218046568Y-53383134D01*
X218073618Y-53325124D01*
X218119790Y-53272685D01*
X218186983Y-53253533D01*
X218253865Y-53273748D01*
X218298382Y-53325125D01*
X218325429Y-53383128D01*
X218325432Y-53383134D01*
X218455954Y-53569541D01*
X218616858Y-53730445D01*
X218616861Y-53730447D01*
X218803266Y-53860968D01*
X219009504Y-53957139D01*
X219009509Y-53957140D01*
X219009511Y-53957141D01*
X219039181Y-53965091D01*
X219229308Y-54016035D01*
X219391230Y-54030201D01*
X219455998Y-54035868D01*
X219456000Y-54035868D01*
X219456002Y-54035868D01*
X219518511Y-54030399D01*
X219682692Y-54016035D01*
X219902496Y-53957139D01*
X220108734Y-53860968D01*
X220295139Y-53730447D01*
X220456047Y-53569539D01*
X220586568Y-53383134D01*
X220613618Y-53325124D01*
X220659790Y-53272685D01*
X220726983Y-53253533D01*
X220793865Y-53273748D01*
X220838382Y-53325125D01*
X220865429Y-53383128D01*
X220865432Y-53383134D01*
X220995954Y-53569541D01*
X221156858Y-53730445D01*
X221156861Y-53730447D01*
X221343266Y-53860968D01*
X221549504Y-53957139D01*
X221549509Y-53957140D01*
X221549511Y-53957141D01*
X221579181Y-53965091D01*
X221769308Y-54016035D01*
X221931230Y-54030201D01*
X221995998Y-54035868D01*
X221996000Y-54035868D01*
X221996002Y-54035868D01*
X222058511Y-54030399D01*
X222222692Y-54016035D01*
X222442496Y-53957139D01*
X222648734Y-53860968D01*
X222835139Y-53730447D01*
X222996047Y-53569539D01*
X223126568Y-53383134D01*
X223222739Y-53176896D01*
X223281635Y-52957092D01*
X223301468Y-52730400D01*
X223281635Y-52503708D01*
X223222739Y-52283904D01*
X223126568Y-52077666D01*
X222996047Y-51891261D01*
X222996045Y-51891258D01*
X222835141Y-51730354D01*
X222648734Y-51599832D01*
X222648732Y-51599831D01*
X222442497Y-51503661D01*
X222442488Y-51503658D01*
X222222697Y-51444766D01*
X222222693Y-51444765D01*
X222222692Y-51444765D01*
X222222691Y-51444764D01*
X222222686Y-51444764D01*
X221996002Y-51424932D01*
X221995998Y-51424932D01*
X221769313Y-51444764D01*
X221769302Y-51444766D01*
X221549511Y-51503658D01*
X221549502Y-51503661D01*
X221343267Y-51599831D01*
X221343265Y-51599832D01*
X221156858Y-51730354D01*
X220995954Y-51891258D01*
X220865432Y-52077665D01*
X220865431Y-52077667D01*
X220838382Y-52135675D01*
X220792209Y-52188114D01*
X220725016Y-52207266D01*
X220658135Y-52187050D01*
X220613618Y-52135675D01*
X220586568Y-52077667D01*
X220586567Y-52077665D01*
X220456045Y-51891258D01*
X220295141Y-51730354D01*
X220108734Y-51599832D01*
X220108732Y-51599831D01*
X219902497Y-51503661D01*
X219902488Y-51503658D01*
X219682697Y-51444766D01*
X219682693Y-51444765D01*
X219682692Y-51444765D01*
X219682691Y-51444764D01*
X219682686Y-51444764D01*
X219456002Y-51424932D01*
X219455998Y-51424932D01*
X219229313Y-51444764D01*
X219229302Y-51444766D01*
X219009511Y-51503658D01*
X219009502Y-51503661D01*
X218803267Y-51599831D01*
X218803265Y-51599832D01*
X218616858Y-51730354D01*
X218455954Y-51891258D01*
X218325432Y-52077665D01*
X218325431Y-52077667D01*
X218298382Y-52135675D01*
X218252209Y-52188114D01*
X218185016Y-52207266D01*
X218118135Y-52187050D01*
X218073618Y-52135675D01*
X218046568Y-52077667D01*
X218046567Y-52077665D01*
X217916045Y-51891258D01*
X217755141Y-51730354D01*
X217568734Y-51599832D01*
X217568732Y-51599831D01*
X217362497Y-51503661D01*
X217362488Y-51503658D01*
X217142697Y-51444766D01*
X217142693Y-51444765D01*
X217142692Y-51444765D01*
X217142691Y-51444764D01*
X217142686Y-51444764D01*
X216916002Y-51424932D01*
X216915998Y-51424932D01*
X216689313Y-51444764D01*
X216689302Y-51444766D01*
X216469511Y-51503658D01*
X216469502Y-51503661D01*
X216263267Y-51599831D01*
X216263265Y-51599832D01*
X216076858Y-51730354D01*
X215915954Y-51891258D01*
X215785432Y-52077665D01*
X215785431Y-52077667D01*
X215758382Y-52135675D01*
X215712209Y-52188114D01*
X215645016Y-52207266D01*
X215578135Y-52187050D01*
X215533618Y-52135675D01*
X215506568Y-52077667D01*
X215506567Y-52077665D01*
X215376045Y-51891258D01*
X215215141Y-51730354D01*
X215028734Y-51599832D01*
X215028732Y-51599831D01*
X214822497Y-51503661D01*
X214822488Y-51503658D01*
X214602697Y-51444766D01*
X214602693Y-51444765D01*
X214602692Y-51444765D01*
X214602691Y-51444764D01*
X214602686Y-51444764D01*
X214376002Y-51424932D01*
X214375998Y-51424932D01*
X214149313Y-51444764D01*
X214149302Y-51444766D01*
X213929511Y-51503658D01*
X213929502Y-51503661D01*
X213723267Y-51599831D01*
X213723265Y-51599832D01*
X213536858Y-51730354D01*
X213375954Y-51891258D01*
X213245432Y-52077665D01*
X213245431Y-52077667D01*
X213218382Y-52135675D01*
X213172209Y-52188114D01*
X213105016Y-52207266D01*
X213038135Y-52187050D01*
X212993618Y-52135675D01*
X212966568Y-52077667D01*
X212966567Y-52077665D01*
X212836045Y-51891258D01*
X212675141Y-51730354D01*
X212488734Y-51599832D01*
X212488732Y-51599831D01*
X212282497Y-51503661D01*
X212282488Y-51503658D01*
X212062697Y-51444766D01*
X212062693Y-51444765D01*
X212062692Y-51444765D01*
X212062691Y-51444764D01*
X212062686Y-51444764D01*
X211836002Y-51424932D01*
X211835998Y-51424932D01*
X211609313Y-51444764D01*
X211609302Y-51444766D01*
X211492593Y-51476038D01*
X211422743Y-51474375D01*
X211364881Y-51435212D01*
X211337377Y-51370983D01*
X211336500Y-51356263D01*
X211336500Y-38988137D01*
X211338224Y-38972523D01*
X211337938Y-38972496D01*
X211338672Y-38964733D01*
X211336500Y-38895603D01*
X211336500Y-38864536D01*
X211356185Y-38797497D01*
X211408989Y-38751742D01*
X211478147Y-38741798D01*
X211492582Y-38744758D01*
X211609308Y-38776035D01*
X211748629Y-38788224D01*
X211835998Y-38795868D01*
X211836000Y-38795868D01*
X211836002Y-38795868D01*
X211892673Y-38790909D01*
X212062692Y-38776035D01*
X212282496Y-38717139D01*
X212488734Y-38620968D01*
X212675139Y-38490447D01*
X212836047Y-38329539D01*
X212966568Y-38143134D01*
X212993618Y-38085124D01*
X213039790Y-38032685D01*
X213106983Y-38013533D01*
X213173865Y-38033748D01*
X213218382Y-38085125D01*
X213245429Y-38143128D01*
X213245432Y-38143134D01*
X213375954Y-38329541D01*
X213536858Y-38490445D01*
X213536861Y-38490447D01*
X213723266Y-38620968D01*
X213929504Y-38717139D01*
X214149308Y-38776035D01*
X214288629Y-38788224D01*
X214375998Y-38795868D01*
X214376000Y-38795868D01*
X214376002Y-38795868D01*
X214432673Y-38790909D01*
X214602692Y-38776035D01*
X214822496Y-38717139D01*
X215028734Y-38620968D01*
X215215139Y-38490447D01*
X215376047Y-38329539D01*
X215506568Y-38143134D01*
X215533618Y-38085124D01*
X215579790Y-38032685D01*
X215646983Y-38013533D01*
X215713865Y-38033748D01*
X215758382Y-38085125D01*
X215785429Y-38143128D01*
X215785432Y-38143134D01*
X215915954Y-38329541D01*
X216076858Y-38490445D01*
X216076861Y-38490447D01*
X216263266Y-38620968D01*
X216469504Y-38717139D01*
X216689308Y-38776035D01*
X216828629Y-38788224D01*
X216915998Y-38795868D01*
X216916000Y-38795868D01*
X216916002Y-38795868D01*
X216972673Y-38790909D01*
X217142692Y-38776035D01*
X217362496Y-38717139D01*
X217568734Y-38620968D01*
X217755139Y-38490447D01*
X217916047Y-38329539D01*
X218046568Y-38143134D01*
X218073618Y-38085124D01*
X218119790Y-38032685D01*
X218186983Y-38013533D01*
X218253865Y-38033748D01*
X218298382Y-38085125D01*
X218325429Y-38143128D01*
X218325432Y-38143134D01*
X218455954Y-38329541D01*
X218616858Y-38490445D01*
X218616861Y-38490447D01*
X218803266Y-38620968D01*
X219009504Y-38717139D01*
X219229308Y-38776035D01*
X219368629Y-38788224D01*
X219455998Y-38795868D01*
X219456000Y-38795868D01*
X219456002Y-38795868D01*
X219512673Y-38790909D01*
X219682692Y-38776035D01*
X219902496Y-38717139D01*
X220108734Y-38620968D01*
X220295139Y-38490447D01*
X220456047Y-38329539D01*
X220586568Y-38143134D01*
X220613895Y-38084529D01*
X220660064Y-38032095D01*
X220727257Y-38012942D01*
X220794139Y-38033157D01*
X220838657Y-38084533D01*
X220865865Y-38142882D01*
X220996342Y-38329220D01*
X221157179Y-38490057D01*
X221343517Y-38620534D01*
X221549673Y-38716665D01*
X221549682Y-38716669D01*
X221745999Y-38769272D01*
X221746000Y-38769271D01*
X221746000Y-37806086D01*
X221757955Y-37818041D01*
X221870852Y-37875565D01*
X221964519Y-37890400D01*
X222027481Y-37890400D01*
X222121148Y-37875565D01*
X222234045Y-37818041D01*
X222246000Y-37806086D01*
X222246000Y-38769272D01*
X222442317Y-38716669D01*
X222442326Y-38716665D01*
X222648482Y-38620534D01*
X222834820Y-38490057D01*
X222995657Y-38329220D01*
X223126134Y-38142882D01*
X223222265Y-37936726D01*
X223222269Y-37936717D01*
X223274872Y-37740400D01*
X222311686Y-37740400D01*
X222323641Y-37728445D01*
X222381165Y-37615548D01*
X222400986Y-37490400D01*
X222381165Y-37365252D01*
X222323641Y-37252355D01*
X222311686Y-37240400D01*
X223274872Y-37240400D01*
X223274872Y-37240399D01*
X223222269Y-37044082D01*
X223222265Y-37044073D01*
X223126134Y-36837917D01*
X222995657Y-36651579D01*
X222834820Y-36490742D01*
X222648482Y-36360265D01*
X222442328Y-36264134D01*
X222246000Y-36211527D01*
X222246000Y-37174714D01*
X222234045Y-37162759D01*
X222121148Y-37105235D01*
X222027481Y-37090400D01*
X221964519Y-37090400D01*
X221870852Y-37105235D01*
X221757955Y-37162759D01*
X221746000Y-37174714D01*
X221746000Y-36211527D01*
X221549671Y-36264134D01*
X221343517Y-36360265D01*
X221157179Y-36490742D01*
X220996342Y-36651579D01*
X220865867Y-36837915D01*
X220838657Y-36896267D01*
X220792484Y-36948706D01*
X220725290Y-36967857D01*
X220658409Y-36947641D01*
X220613893Y-36896265D01*
X220586685Y-36837918D01*
X220586568Y-36837666D01*
X220456047Y-36651261D01*
X220456045Y-36651258D01*
X220295141Y-36490354D01*
X220108734Y-36359832D01*
X220108732Y-36359831D01*
X219902497Y-36263661D01*
X219902488Y-36263658D01*
X219682697Y-36204766D01*
X219682693Y-36204765D01*
X219682692Y-36204765D01*
X219682691Y-36204764D01*
X219682686Y-36204764D01*
X219456002Y-36184932D01*
X219455998Y-36184932D01*
X219229313Y-36204764D01*
X219229302Y-36204766D01*
X219009511Y-36263658D01*
X219009502Y-36263661D01*
X218803267Y-36359831D01*
X218803265Y-36359832D01*
X218616858Y-36490354D01*
X218455954Y-36651258D01*
X218325432Y-36837665D01*
X218325431Y-36837667D01*
X218298382Y-36895675D01*
X218252209Y-36948114D01*
X218185016Y-36967266D01*
X218118135Y-36947050D01*
X218073618Y-36895675D01*
X218046686Y-36837920D01*
X218046568Y-36837666D01*
X217916047Y-36651261D01*
X217916045Y-36651258D01*
X217755141Y-36490354D01*
X217568734Y-36359832D01*
X217568732Y-36359831D01*
X217362497Y-36263661D01*
X217362488Y-36263658D01*
X217142697Y-36204766D01*
X217142693Y-36204765D01*
X217142692Y-36204765D01*
X217142691Y-36204764D01*
X217142686Y-36204764D01*
X216916002Y-36184932D01*
X216915998Y-36184932D01*
X216689313Y-36204764D01*
X216689302Y-36204766D01*
X216469511Y-36263658D01*
X216469502Y-36263661D01*
X216263267Y-36359831D01*
X216263265Y-36359832D01*
X216076858Y-36490354D01*
X215915954Y-36651258D01*
X215785432Y-36837665D01*
X215785431Y-36837667D01*
X215758382Y-36895675D01*
X215712209Y-36948114D01*
X215645016Y-36967266D01*
X215578135Y-36947050D01*
X215533618Y-36895675D01*
X215506686Y-36837920D01*
X215506568Y-36837666D01*
X215376047Y-36651261D01*
X215376045Y-36651258D01*
X215215141Y-36490354D01*
X215028734Y-36359832D01*
X215028732Y-36359831D01*
X214822497Y-36263661D01*
X214822488Y-36263658D01*
X214602697Y-36204766D01*
X214602693Y-36204765D01*
X214602692Y-36204765D01*
X214602691Y-36204764D01*
X214602686Y-36204764D01*
X214376002Y-36184932D01*
X214375998Y-36184932D01*
X214149313Y-36204764D01*
X214149302Y-36204766D01*
X213929511Y-36263658D01*
X213929502Y-36263661D01*
X213723267Y-36359831D01*
X213723265Y-36359832D01*
X213536858Y-36490354D01*
X213375954Y-36651258D01*
X213245432Y-36837665D01*
X213245431Y-36837667D01*
X213218382Y-36895675D01*
X213172209Y-36948114D01*
X213105016Y-36967266D01*
X213038135Y-36947050D01*
X212993618Y-36895675D01*
X212966686Y-36837920D01*
X212966568Y-36837666D01*
X212836047Y-36651261D01*
X212836045Y-36651258D01*
X212675141Y-36490354D01*
X212488734Y-36359832D01*
X212488732Y-36359831D01*
X212282497Y-36263661D01*
X212282488Y-36263658D01*
X212062697Y-36204766D01*
X212062693Y-36204765D01*
X212062692Y-36204765D01*
X212062691Y-36204764D01*
X212062686Y-36204764D01*
X211836002Y-36184932D01*
X211835998Y-36184932D01*
X211609313Y-36204764D01*
X211609302Y-36204766D01*
X211389511Y-36263658D01*
X211389502Y-36263661D01*
X211183267Y-36359831D01*
X211183265Y-36359832D01*
X210996858Y-36490354D01*
X210835954Y-36651258D01*
X210705432Y-36837665D01*
X210705431Y-36837667D01*
X210678382Y-36895675D01*
X210632209Y-36948114D01*
X210565016Y-36967266D01*
X210498135Y-36947050D01*
X210453618Y-36895675D01*
X210426686Y-36837920D01*
X210426568Y-36837666D01*
X210296047Y-36651261D01*
X210296045Y-36651258D01*
X210135141Y-36490354D01*
X209948734Y-36359832D01*
X209948732Y-36359831D01*
X209742497Y-36263661D01*
X209742488Y-36263658D01*
X209522697Y-36204766D01*
X209522693Y-36204765D01*
X209522692Y-36204765D01*
X209522691Y-36204764D01*
X209522686Y-36204764D01*
X209296002Y-36184932D01*
X209295998Y-36184932D01*
X209069313Y-36204764D01*
X209069302Y-36204766D01*
X208849511Y-36263658D01*
X208849502Y-36263661D01*
X208643267Y-36359831D01*
X208643265Y-36359832D01*
X208456858Y-36490354D01*
X208295954Y-36651258D01*
X208165432Y-36837665D01*
X208165431Y-36837667D01*
X208138382Y-36895675D01*
X208092209Y-36948114D01*
X208025016Y-36967266D01*
X207958135Y-36947050D01*
X207913618Y-36895675D01*
X207886686Y-36837920D01*
X207886568Y-36837666D01*
X207756047Y-36651261D01*
X207756045Y-36651258D01*
X207595141Y-36490354D01*
X207408734Y-36359832D01*
X207408732Y-36359831D01*
X207202497Y-36263661D01*
X207202488Y-36263658D01*
X206982697Y-36204766D01*
X206982693Y-36204765D01*
X206982692Y-36204765D01*
X206982691Y-36204764D01*
X206982686Y-36204764D01*
X206756002Y-36184932D01*
X206755998Y-36184932D01*
X206529313Y-36204764D01*
X206529302Y-36204766D01*
X206309511Y-36263658D01*
X206309502Y-36263661D01*
X206103267Y-36359831D01*
X206103265Y-36359832D01*
X205916858Y-36490354D01*
X205755954Y-36651258D01*
X205625432Y-36837665D01*
X205625431Y-36837667D01*
X205598382Y-36895675D01*
X205552209Y-36948114D01*
X205485016Y-36967266D01*
X205418135Y-36947050D01*
X205373618Y-36895675D01*
X205346686Y-36837920D01*
X205346568Y-36837666D01*
X205216047Y-36651261D01*
X205216045Y-36651258D01*
X205055141Y-36490354D01*
X204868734Y-36359832D01*
X204868732Y-36359831D01*
X204662497Y-36263661D01*
X204662488Y-36263658D01*
X204442697Y-36204766D01*
X204442693Y-36204765D01*
X204442692Y-36204765D01*
X204442691Y-36204764D01*
X204442686Y-36204764D01*
X204216002Y-36184932D01*
X204215998Y-36184932D01*
X203989313Y-36204764D01*
X203989302Y-36204766D01*
X203769511Y-36263658D01*
X203769502Y-36263661D01*
X203563267Y-36359831D01*
X203563265Y-36359832D01*
X203376858Y-36490354D01*
X203215954Y-36651258D01*
X203085432Y-36837665D01*
X203085431Y-36837667D01*
X203058382Y-36895675D01*
X203012209Y-36948114D01*
X202945016Y-36967266D01*
X202878135Y-36947050D01*
X202833618Y-36895675D01*
X202806686Y-36837920D01*
X202806568Y-36837666D01*
X202676047Y-36651261D01*
X202676045Y-36651258D01*
X202515141Y-36490354D01*
X202328734Y-36359832D01*
X202328732Y-36359831D01*
X202122497Y-36263661D01*
X202122488Y-36263658D01*
X201902697Y-36204766D01*
X201902693Y-36204765D01*
X201902692Y-36204765D01*
X201902691Y-36204764D01*
X201902686Y-36204764D01*
X201676002Y-36184932D01*
X201675998Y-36184932D01*
X201449313Y-36204764D01*
X201449302Y-36204766D01*
X201229511Y-36263658D01*
X201229502Y-36263661D01*
X201023267Y-36359831D01*
X201023265Y-36359832D01*
X200836858Y-36490354D01*
X200675954Y-36651258D01*
X200545432Y-36837665D01*
X200545431Y-36837667D01*
X200518382Y-36895675D01*
X200472209Y-36948114D01*
X200405016Y-36967266D01*
X200338135Y-36947050D01*
X200293618Y-36895675D01*
X200266686Y-36837920D01*
X200266568Y-36837666D01*
X200136047Y-36651261D01*
X200136045Y-36651258D01*
X199975141Y-36490354D01*
X199788734Y-36359832D01*
X199788732Y-36359831D01*
X199582497Y-36263661D01*
X199582488Y-36263658D01*
X199362697Y-36204766D01*
X199362693Y-36204765D01*
X199362692Y-36204765D01*
X199362691Y-36204764D01*
X199362686Y-36204764D01*
X199136002Y-36184932D01*
X199135998Y-36184932D01*
X198909313Y-36204764D01*
X198909302Y-36204766D01*
X198689511Y-36263658D01*
X198689502Y-36263661D01*
X198483267Y-36359831D01*
X198483265Y-36359832D01*
X198296858Y-36490354D01*
X198135954Y-36651258D01*
X198005432Y-36837665D01*
X198005431Y-36837667D01*
X197978382Y-36895675D01*
X197932209Y-36948114D01*
X197865016Y-36967266D01*
X197798135Y-36947050D01*
X197753618Y-36895675D01*
X197726686Y-36837920D01*
X197726568Y-36837666D01*
X197596047Y-36651261D01*
X197596045Y-36651258D01*
X197435141Y-36490354D01*
X197248734Y-36359832D01*
X197248732Y-36359831D01*
X197042497Y-36263661D01*
X197042488Y-36263658D01*
X196822697Y-36204766D01*
X196822693Y-36204765D01*
X196822692Y-36204765D01*
X196822691Y-36204764D01*
X196822686Y-36204764D01*
X196596002Y-36184932D01*
X196595998Y-36184932D01*
X196369313Y-36204764D01*
X196369302Y-36204766D01*
X196149511Y-36263658D01*
X196149502Y-36263661D01*
X195943267Y-36359831D01*
X195943265Y-36359832D01*
X195756858Y-36490354D01*
X195595954Y-36651258D01*
X195465432Y-36837665D01*
X195465431Y-36837667D01*
X195438382Y-36895675D01*
X195392209Y-36948114D01*
X195325016Y-36967266D01*
X195258135Y-36947050D01*
X195213618Y-36895675D01*
X195186686Y-36837920D01*
X195186568Y-36837666D01*
X195056047Y-36651261D01*
X195056045Y-36651258D01*
X194895141Y-36490354D01*
X194708734Y-36359832D01*
X194708732Y-36359831D01*
X194502497Y-36263661D01*
X194502488Y-36263658D01*
X194282697Y-36204766D01*
X194282693Y-36204765D01*
X194282692Y-36204765D01*
X194282691Y-36204764D01*
X194282686Y-36204764D01*
X194056002Y-36184932D01*
X194055998Y-36184932D01*
X193829313Y-36204764D01*
X193829302Y-36204766D01*
X193609511Y-36263658D01*
X193609502Y-36263661D01*
X193403267Y-36359831D01*
X193403265Y-36359832D01*
X193216858Y-36490354D01*
X193055954Y-36651258D01*
X192925432Y-36837665D01*
X192925431Y-36837667D01*
X192898382Y-36895675D01*
X192852209Y-36948114D01*
X192785016Y-36967266D01*
X192718135Y-36947050D01*
X192673618Y-36895675D01*
X192646686Y-36837920D01*
X192646568Y-36837666D01*
X192516047Y-36651261D01*
X192516045Y-36651258D01*
X192355141Y-36490354D01*
X192168734Y-36359832D01*
X192168732Y-36359831D01*
X191962497Y-36263661D01*
X191962488Y-36263658D01*
X191742697Y-36204766D01*
X191742693Y-36204765D01*
X191742692Y-36204765D01*
X191742691Y-36204764D01*
X191742686Y-36204764D01*
X191516002Y-36184932D01*
X191515998Y-36184932D01*
X191289313Y-36204764D01*
X191289302Y-36204766D01*
X191069511Y-36263658D01*
X191069502Y-36263661D01*
X190863267Y-36359831D01*
X190754330Y-36436108D01*
X190688124Y-36458435D01*
X190620356Y-36441423D01*
X190595527Y-36422213D01*
X190358246Y-36184932D01*
X189457455Y-35284141D01*
X189454921Y-35281450D01*
X189432550Y-35256198D01*
X189413786Y-35235016D01*
X189401521Y-35226551D01*
X189357530Y-35172268D01*
X189349870Y-35102820D01*
X189380973Y-35040254D01*
X189440963Y-35004437D01*
X189471960Y-35000500D01*
X225875500Y-35000500D01*
X225942539Y-35020185D01*
G37*
%TD.AperFunction*%
%TA.AperFunction,Conductor*%
G36*
X179066000Y-38769272D02*
G01*
X179262317Y-38716669D01*
X179262326Y-38716665D01*
X179468482Y-38620534D01*
X179654820Y-38490057D01*
X179815657Y-38329220D01*
X179946132Y-38142884D01*
X179973341Y-38084534D01*
X180019513Y-38032095D01*
X180086707Y-38012942D01*
X180153588Y-38033157D01*
X180198106Y-38084533D01*
X180225431Y-38143132D01*
X180225432Y-38143134D01*
X180355954Y-38329541D01*
X180516858Y-38490445D01*
X180516861Y-38490447D01*
X180703266Y-38620968D01*
X180909504Y-38717139D01*
X181129308Y-38776035D01*
X181268629Y-38788224D01*
X181355998Y-38795868D01*
X181356000Y-38795868D01*
X181356002Y-38795868D01*
X181412673Y-38790909D01*
X181582692Y-38776035D01*
X181802496Y-38717139D01*
X182008734Y-38620968D01*
X182195139Y-38490447D01*
X182356047Y-38329539D01*
X182486568Y-38143134D01*
X182513618Y-38085124D01*
X182559790Y-38032685D01*
X182626983Y-38013533D01*
X182693865Y-38033748D01*
X182738382Y-38085125D01*
X182765429Y-38143128D01*
X182765432Y-38143134D01*
X182895954Y-38329541D01*
X183056858Y-38490445D01*
X183056861Y-38490447D01*
X183243266Y-38620968D01*
X183449504Y-38717139D01*
X183669308Y-38776035D01*
X183808629Y-38788224D01*
X183895998Y-38795868D01*
X183896000Y-38795868D01*
X183896002Y-38795868D01*
X183952673Y-38790909D01*
X184122692Y-38776035D01*
X184342496Y-38717139D01*
X184548734Y-38620968D01*
X184735139Y-38490447D01*
X184896047Y-38329539D01*
X185026568Y-38143134D01*
X185053618Y-38085124D01*
X185099790Y-38032685D01*
X185166983Y-38013533D01*
X185233865Y-38033748D01*
X185278382Y-38085125D01*
X185305429Y-38143128D01*
X185305432Y-38143134D01*
X185435954Y-38329541D01*
X185596858Y-38490445D01*
X185596861Y-38490447D01*
X185783266Y-38620968D01*
X185989504Y-38717139D01*
X186209308Y-38776035D01*
X186348629Y-38788224D01*
X186435998Y-38795868D01*
X186436000Y-38795868D01*
X186436002Y-38795868D01*
X186492673Y-38790909D01*
X186662692Y-38776035D01*
X186882496Y-38717139D01*
X187088734Y-38620968D01*
X187275139Y-38490447D01*
X187436047Y-38329539D01*
X187566568Y-38143134D01*
X187593618Y-38085124D01*
X187639790Y-38032685D01*
X187706983Y-38013533D01*
X187773865Y-38033748D01*
X187818382Y-38085125D01*
X187845429Y-38143128D01*
X187845432Y-38143134D01*
X187975954Y-38329541D01*
X188136858Y-38490445D01*
X188299905Y-38604611D01*
X188343530Y-38659188D01*
X188352721Y-38702287D01*
X188353290Y-38720394D01*
X188353291Y-38720397D01*
X188358880Y-38739637D01*
X188362824Y-38758681D01*
X188365336Y-38778562D01*
X188382447Y-38821780D01*
X188382490Y-38821889D01*
X188384382Y-38827417D01*
X188397381Y-38872158D01*
X188407580Y-38889404D01*
X188416138Y-38906873D01*
X188423514Y-38925502D01*
X188450898Y-38963193D01*
X188454106Y-38968077D01*
X188477827Y-39008186D01*
X188477833Y-39008194D01*
X188491990Y-39022350D01*
X188504628Y-39037146D01*
X188516405Y-39053356D01*
X188516406Y-39053357D01*
X188552309Y-39083058D01*
X188556620Y-39086980D01*
X189033895Y-39564255D01*
X189439181Y-39969541D01*
X189472666Y-40030864D01*
X189475500Y-40057222D01*
X189475500Y-51356263D01*
X189455815Y-51423302D01*
X189403011Y-51469057D01*
X189333853Y-51479001D01*
X189319407Y-51476038D01*
X189202697Y-51444766D01*
X189202693Y-51444765D01*
X189202692Y-51444765D01*
X189202691Y-51444764D01*
X189202686Y-51444764D01*
X188976002Y-51424932D01*
X188975998Y-51424932D01*
X188749313Y-51444764D01*
X188749302Y-51444766D01*
X188529511Y-51503658D01*
X188529502Y-51503661D01*
X188323267Y-51599831D01*
X188323265Y-51599832D01*
X188136858Y-51730354D01*
X187975954Y-51891258D01*
X187845432Y-52077665D01*
X187845431Y-52077667D01*
X187818382Y-52135675D01*
X187772209Y-52188114D01*
X187705016Y-52207266D01*
X187638135Y-52187050D01*
X187593618Y-52135675D01*
X187566568Y-52077667D01*
X187566567Y-52077665D01*
X187436045Y-51891258D01*
X187275141Y-51730354D01*
X187088734Y-51599832D01*
X187088732Y-51599831D01*
X186882497Y-51503661D01*
X186882488Y-51503658D01*
X186662697Y-51444766D01*
X186662693Y-51444765D01*
X186662692Y-51444765D01*
X186662691Y-51444764D01*
X186662686Y-51444764D01*
X186436002Y-51424932D01*
X186435998Y-51424932D01*
X186209313Y-51444764D01*
X186209302Y-51444766D01*
X185989511Y-51503658D01*
X185989502Y-51503661D01*
X185783267Y-51599831D01*
X185783265Y-51599832D01*
X185596858Y-51730354D01*
X185435954Y-51891258D01*
X185305432Y-52077665D01*
X185305431Y-52077667D01*
X185278382Y-52135675D01*
X185232209Y-52188114D01*
X185165016Y-52207266D01*
X185098135Y-52187050D01*
X185053618Y-52135675D01*
X185026568Y-52077667D01*
X185026567Y-52077665D01*
X184896045Y-51891258D01*
X184735141Y-51730354D01*
X184548734Y-51599832D01*
X184548732Y-51599831D01*
X184342497Y-51503661D01*
X184342488Y-51503658D01*
X184122697Y-51444766D01*
X184122693Y-51444765D01*
X184122692Y-51444765D01*
X184122691Y-51444764D01*
X184122686Y-51444764D01*
X183896002Y-51424932D01*
X183895998Y-51424932D01*
X183669313Y-51444764D01*
X183669302Y-51444766D01*
X183449511Y-51503658D01*
X183449502Y-51503661D01*
X183243267Y-51599831D01*
X183243265Y-51599832D01*
X183056858Y-51730354D01*
X182895954Y-51891258D01*
X182765432Y-52077665D01*
X182765431Y-52077667D01*
X182738382Y-52135675D01*
X182692209Y-52188114D01*
X182625016Y-52207266D01*
X182558135Y-52187050D01*
X182513618Y-52135675D01*
X182486568Y-52077667D01*
X182486567Y-52077665D01*
X182356045Y-51891258D01*
X182195141Y-51730354D01*
X182008734Y-51599832D01*
X182008732Y-51599831D01*
X181802497Y-51503661D01*
X181802488Y-51503658D01*
X181582697Y-51444766D01*
X181582693Y-51444765D01*
X181582692Y-51444765D01*
X181582691Y-51444764D01*
X181582686Y-51444764D01*
X181356002Y-51424932D01*
X181355998Y-51424932D01*
X181129313Y-51444764D01*
X181129302Y-51444766D01*
X180909511Y-51503658D01*
X180909502Y-51503661D01*
X180703267Y-51599831D01*
X180703265Y-51599832D01*
X180516858Y-51730354D01*
X180355954Y-51891258D01*
X180225432Y-52077665D01*
X180225431Y-52077667D01*
X180198382Y-52135675D01*
X180152209Y-52188114D01*
X180085016Y-52207266D01*
X180018135Y-52187050D01*
X179973618Y-52135675D01*
X179946568Y-52077667D01*
X179946567Y-52077665D01*
X179816045Y-51891258D01*
X179655141Y-51730354D01*
X179468734Y-51599832D01*
X179468732Y-51599831D01*
X179262497Y-51503661D01*
X179262488Y-51503658D01*
X179042697Y-51444766D01*
X179042693Y-51444765D01*
X179042692Y-51444765D01*
X179042691Y-51444764D01*
X179042686Y-51444764D01*
X178816002Y-51424932D01*
X178815998Y-51424932D01*
X178589313Y-51444764D01*
X178589302Y-51444766D01*
X178369511Y-51503658D01*
X178369502Y-51503661D01*
X178163267Y-51599831D01*
X178163265Y-51599832D01*
X177976858Y-51730354D01*
X177815954Y-51891258D01*
X177685432Y-52077665D01*
X177685431Y-52077667D01*
X177658382Y-52135675D01*
X177612209Y-52188114D01*
X177545016Y-52207266D01*
X177478135Y-52187050D01*
X177433618Y-52135675D01*
X177406568Y-52077667D01*
X177406567Y-52077665D01*
X177276045Y-51891258D01*
X177115141Y-51730354D01*
X176928734Y-51599832D01*
X176928732Y-51599831D01*
X176722497Y-51503661D01*
X176722488Y-51503658D01*
X176502697Y-51444766D01*
X176502693Y-51444765D01*
X176502692Y-51444765D01*
X176502691Y-51444764D01*
X176502686Y-51444764D01*
X176276002Y-51424932D01*
X176275998Y-51424932D01*
X176049313Y-51444764D01*
X176049302Y-51444766D01*
X175829511Y-51503658D01*
X175829502Y-51503661D01*
X175623267Y-51599831D01*
X175623265Y-51599832D01*
X175436858Y-51730354D01*
X175275951Y-51891261D01*
X175258287Y-51916488D01*
X175203710Y-51960112D01*
X175134211Y-51967304D01*
X175071857Y-51935780D01*
X175036445Y-51875550D01*
X175033425Y-51858618D01*
X175029598Y-51823027D01*
X175029596Y-51823020D01*
X174979354Y-51688313D01*
X174979350Y-51688306D01*
X174893190Y-51573212D01*
X174893187Y-51573209D01*
X174778093Y-51487049D01*
X174778086Y-51487045D01*
X174643379Y-51436803D01*
X174643372Y-51436801D01*
X174583844Y-51430400D01*
X173986000Y-51430400D01*
X173986000Y-52414714D01*
X173974045Y-52402759D01*
X173861148Y-52345235D01*
X173767481Y-52330400D01*
X173704519Y-52330400D01*
X173610852Y-52345235D01*
X173497955Y-52402759D01*
X173486000Y-52414714D01*
X173486000Y-51430400D01*
X172888155Y-51430400D01*
X172828627Y-51436801D01*
X172828620Y-51436803D01*
X172693913Y-51487045D01*
X172693906Y-51487049D01*
X172578812Y-51573209D01*
X172578809Y-51573212D01*
X172492649Y-51688306D01*
X172492645Y-51688313D01*
X172442403Y-51823020D01*
X172442401Y-51823027D01*
X172436000Y-51882555D01*
X172436000Y-52480400D01*
X173420314Y-52480400D01*
X173408359Y-52492355D01*
X173350835Y-52605252D01*
X173331014Y-52730400D01*
X173350835Y-52855548D01*
X173408359Y-52968445D01*
X173420314Y-52980400D01*
X172436000Y-52980400D01*
X172436000Y-53578244D01*
X172442401Y-53637772D01*
X172442403Y-53637779D01*
X172492645Y-53772486D01*
X172492649Y-53772493D01*
X172578809Y-53887587D01*
X172578812Y-53887590D01*
X172693906Y-53973750D01*
X172693913Y-53973754D01*
X172828620Y-54023996D01*
X172828627Y-54023998D01*
X172888155Y-54030399D01*
X172888172Y-54030400D01*
X173486000Y-54030400D01*
X173486000Y-53046086D01*
X173497955Y-53058041D01*
X173610852Y-53115565D01*
X173704519Y-53130400D01*
X173767481Y-53130400D01*
X173861148Y-53115565D01*
X173974045Y-53058041D01*
X173986000Y-53046086D01*
X173986000Y-54030400D01*
X174583828Y-54030400D01*
X174583844Y-54030399D01*
X174643372Y-54023998D01*
X174643379Y-54023996D01*
X174778086Y-53973754D01*
X174778093Y-53973750D01*
X174893187Y-53887590D01*
X174893190Y-53887587D01*
X174979350Y-53772493D01*
X174979354Y-53772486D01*
X175029596Y-53637780D01*
X175033424Y-53602181D01*
X175060162Y-53537630D01*
X175117555Y-53497782D01*
X175187380Y-53495288D01*
X175247469Y-53530940D01*
X175258289Y-53544312D01*
X175275956Y-53569543D01*
X175436858Y-53730445D01*
X175436861Y-53730447D01*
X175623266Y-53860968D01*
X175829504Y-53957139D01*
X175829509Y-53957140D01*
X175829511Y-53957141D01*
X175859181Y-53965091D01*
X176049308Y-54016035D01*
X176211230Y-54030201D01*
X176275998Y-54035868D01*
X176276000Y-54035868D01*
X176276002Y-54035868D01*
X176338511Y-54030399D01*
X176502692Y-54016035D01*
X176722496Y-53957139D01*
X176928734Y-53860968D01*
X177115139Y-53730447D01*
X177276047Y-53569539D01*
X177406568Y-53383134D01*
X177433618Y-53325124D01*
X177479790Y-53272685D01*
X177546983Y-53253533D01*
X177613865Y-53273748D01*
X177658382Y-53325125D01*
X177685429Y-53383128D01*
X177685432Y-53383134D01*
X177815954Y-53569541D01*
X177976858Y-53730445D01*
X177976861Y-53730447D01*
X178163266Y-53860968D01*
X178369504Y-53957139D01*
X178369509Y-53957140D01*
X178369511Y-53957141D01*
X178399181Y-53965091D01*
X178589308Y-54016035D01*
X178751230Y-54030201D01*
X178815998Y-54035868D01*
X178816000Y-54035868D01*
X178816002Y-54035868D01*
X178878511Y-54030399D01*
X179042692Y-54016035D01*
X179262496Y-53957139D01*
X179468734Y-53860968D01*
X179655139Y-53730447D01*
X179816047Y-53569539D01*
X179946568Y-53383134D01*
X179973618Y-53325124D01*
X180019790Y-53272685D01*
X180086983Y-53253533D01*
X180153865Y-53273748D01*
X180198382Y-53325125D01*
X180225429Y-53383128D01*
X180225432Y-53383134D01*
X180355954Y-53569541D01*
X180516858Y-53730445D01*
X180516861Y-53730447D01*
X180703266Y-53860968D01*
X180909504Y-53957139D01*
X180909509Y-53957140D01*
X180909511Y-53957141D01*
X180939178Y-53965090D01*
X181129308Y-54016035D01*
X181226908Y-54024573D01*
X181291975Y-54050025D01*
X181332954Y-54106616D01*
X181340100Y-54148101D01*
X181340100Y-65018200D01*
X181320415Y-65085239D01*
X181267611Y-65130994D01*
X181216100Y-65142200D01*
X180996400Y-65142200D01*
X180996400Y-66056698D01*
X180888715Y-66007520D01*
X180782163Y-65992200D01*
X180710637Y-65992200D01*
X180604085Y-66007520D01*
X180496400Y-66056698D01*
X180496400Y-65142200D01*
X179848555Y-65142200D01*
X179789027Y-65148601D01*
X179789020Y-65148603D01*
X179654313Y-65198845D01*
X179654306Y-65198849D01*
X179539212Y-65285009D01*
X179539209Y-65285012D01*
X179453049Y-65400106D01*
X179453045Y-65400113D01*
X179402803Y-65534820D01*
X179402801Y-65534827D01*
X179396400Y-65594355D01*
X179396400Y-66242200D01*
X180312714Y-66242200D01*
X180286907Y-66282356D01*
X180246400Y-66420311D01*
X180246400Y-66564089D01*
X180286907Y-66702044D01*
X180312714Y-66742200D01*
X179396400Y-66742200D01*
X179396400Y-66917700D01*
X179376715Y-66984739D01*
X179323911Y-67030494D01*
X179272400Y-67041700D01*
X171609652Y-67041700D01*
X171542613Y-67022015D01*
X171521971Y-67005381D01*
X168218237Y-63701646D01*
X168184752Y-63640323D01*
X168186142Y-63581876D01*
X168213063Y-63481408D01*
X168233659Y-63246000D01*
X168213063Y-63010592D01*
X168151903Y-62782337D01*
X168052035Y-62568171D01*
X168046425Y-62560158D01*
X167916494Y-62374597D01*
X167749402Y-62207506D01*
X167749396Y-62207501D01*
X167563842Y-62077575D01*
X167520217Y-62022998D01*
X167513023Y-61953500D01*
X167544546Y-61891145D01*
X167563842Y-61874425D01*
X167711362Y-61771130D01*
X167749401Y-61744495D01*
X167916495Y-61577401D01*
X168052035Y-61383830D01*
X168151903Y-61169663D01*
X168213063Y-60941408D01*
X168233659Y-60706000D01*
X168213063Y-60470592D01*
X168151903Y-60242337D01*
X168052035Y-60028171D01*
X168046425Y-60020158D01*
X167916494Y-59834597D01*
X167749402Y-59667506D01*
X167749396Y-59667501D01*
X167563842Y-59537575D01*
X167520217Y-59482998D01*
X167513023Y-59413500D01*
X167544546Y-59351145D01*
X167563842Y-59334425D01*
X167665680Y-59263117D01*
X167749401Y-59204495D01*
X167916495Y-59037401D01*
X168052035Y-58843830D01*
X168151903Y-58629663D01*
X168213063Y-58401408D01*
X168233659Y-58166000D01*
X168213063Y-57930592D01*
X168151903Y-57702337D01*
X168052035Y-57488171D01*
X168046425Y-57480158D01*
X167916494Y-57294597D01*
X167749402Y-57127506D01*
X167749396Y-57127501D01*
X167563842Y-56997575D01*
X167520217Y-56942998D01*
X167513023Y-56873500D01*
X167544546Y-56811145D01*
X167563842Y-56794425D01*
X167586026Y-56778891D01*
X167749401Y-56664495D01*
X167916495Y-56497401D01*
X168052035Y-56303830D01*
X168151903Y-56089663D01*
X168213063Y-55861408D01*
X168233659Y-55626000D01*
X168213063Y-55390592D01*
X168151903Y-55162337D01*
X168052035Y-54948171D01*
X168046425Y-54940158D01*
X167916494Y-54754597D01*
X167749402Y-54587506D01*
X167749396Y-54587501D01*
X167563842Y-54457575D01*
X167520217Y-54402998D01*
X167513023Y-54333500D01*
X167544546Y-54271145D01*
X167563842Y-54254425D01*
X167620751Y-54214577D01*
X167749401Y-54124495D01*
X167916495Y-53957401D01*
X168052035Y-53763830D01*
X168151903Y-53549663D01*
X168213063Y-53321408D01*
X168233659Y-53086000D01*
X168213063Y-52850592D01*
X168151903Y-52622337D01*
X168052035Y-52408171D01*
X168048246Y-52402759D01*
X167916494Y-52214597D01*
X167749402Y-52047506D01*
X167749395Y-52047501D01*
X167555834Y-51911967D01*
X167555830Y-51911965D01*
X167441427Y-51858618D01*
X167341663Y-51812097D01*
X167341659Y-51812096D01*
X167341655Y-51812094D01*
X167113413Y-51750938D01*
X167113403Y-51750936D01*
X166964802Y-51737935D01*
X166899733Y-51712482D01*
X166858755Y-51655891D01*
X166854877Y-51586129D01*
X166887927Y-51526728D01*
X167907785Y-50506870D01*
X177640500Y-50506870D01*
X177640501Y-50506876D01*
X177646908Y-50566483D01*
X177697202Y-50701328D01*
X177697206Y-50701335D01*
X177783452Y-50816544D01*
X177783455Y-50816547D01*
X177898664Y-50902793D01*
X177898671Y-50902797D01*
X178033517Y-50953091D01*
X178033516Y-50953091D01*
X178040444Y-50953835D01*
X178093127Y-50959500D01*
X179538872Y-50959499D01*
X179598483Y-50953091D01*
X179733331Y-50902796D01*
X179848546Y-50816546D01*
X179934796Y-50701331D01*
X179985091Y-50566483D01*
X179991500Y-50506873D01*
X179991500Y-50506870D01*
X182720500Y-50506870D01*
X182720501Y-50506876D01*
X182726908Y-50566483D01*
X182777202Y-50701328D01*
X182777206Y-50701335D01*
X182863452Y-50816544D01*
X182863455Y-50816547D01*
X182978664Y-50902793D01*
X182978671Y-50902797D01*
X183113517Y-50953091D01*
X183113516Y-50953091D01*
X183120444Y-50953835D01*
X183173127Y-50959500D01*
X184618872Y-50959499D01*
X184678483Y-50953091D01*
X184813331Y-50902796D01*
X184928546Y-50816546D01*
X185014796Y-50701331D01*
X185065091Y-50566483D01*
X185071500Y-50506873D01*
X185071499Y-49061128D01*
X185065091Y-49001517D01*
X185014796Y-48866669D01*
X185014795Y-48866668D01*
X185014793Y-48866664D01*
X184928547Y-48751455D01*
X184928544Y-48751452D01*
X184813335Y-48665206D01*
X184813328Y-48665202D01*
X184678482Y-48614908D01*
X184678483Y-48614908D01*
X184618883Y-48608501D01*
X184618881Y-48608500D01*
X184618873Y-48608500D01*
X184618864Y-48608500D01*
X183173129Y-48608500D01*
X183173123Y-48608501D01*
X183113516Y-48614908D01*
X182978671Y-48665202D01*
X182978664Y-48665206D01*
X182863455Y-48751452D01*
X182863452Y-48751455D01*
X182777206Y-48866664D01*
X182777202Y-48866671D01*
X182726908Y-49001517D01*
X182720501Y-49061116D01*
X182720501Y-49061123D01*
X182720500Y-49061135D01*
X182720500Y-50506870D01*
X179991500Y-50506870D01*
X179991499Y-49061128D01*
X179985091Y-49001517D01*
X179934796Y-48866669D01*
X179934795Y-48866668D01*
X179934793Y-48866664D01*
X179848547Y-48751455D01*
X179848544Y-48751452D01*
X179733335Y-48665206D01*
X179733328Y-48665202D01*
X179598482Y-48614908D01*
X179598483Y-48614908D01*
X179538883Y-48608501D01*
X179538881Y-48608500D01*
X179538873Y-48608500D01*
X179538864Y-48608500D01*
X178093129Y-48608500D01*
X178093123Y-48608501D01*
X178033516Y-48614908D01*
X177898671Y-48665202D01*
X177898664Y-48665206D01*
X177783455Y-48751452D01*
X177783452Y-48751455D01*
X177697206Y-48866664D01*
X177697202Y-48866671D01*
X177646908Y-49001517D01*
X177640501Y-49061116D01*
X177640501Y-49061123D01*
X177640500Y-49061135D01*
X177640500Y-50506870D01*
X167907785Y-50506870D01*
X175555056Y-42859599D01*
X175557748Y-42857065D01*
X175604183Y-42815929D01*
X175639436Y-42764855D01*
X175641613Y-42761896D01*
X175679878Y-42713057D01*
X175684037Y-42703815D01*
X175695062Y-42684268D01*
X175700818Y-42675930D01*
X175722820Y-42617912D01*
X175724235Y-42614495D01*
X175749694Y-42557932D01*
X175751520Y-42547965D01*
X175757548Y-42526340D01*
X175761140Y-42516872D01*
X175768615Y-42455309D01*
X175769179Y-42451605D01*
X175773456Y-42428258D01*
X175780357Y-42390606D01*
X175776613Y-42328707D01*
X175776500Y-42324963D01*
X175776500Y-41362870D01*
X182720500Y-41362870D01*
X182720501Y-41362876D01*
X182726908Y-41422483D01*
X182777202Y-41557328D01*
X182777206Y-41557335D01*
X182863452Y-41672544D01*
X182863455Y-41672547D01*
X182978664Y-41758793D01*
X182978671Y-41758797D01*
X183113517Y-41809091D01*
X183113516Y-41809091D01*
X183120444Y-41809835D01*
X183173127Y-41815500D01*
X184618872Y-41815499D01*
X184678483Y-41809091D01*
X184813331Y-41758796D01*
X184928546Y-41672546D01*
X185014796Y-41557331D01*
X185065091Y-41422483D01*
X185071500Y-41362873D01*
X185071499Y-39917128D01*
X185065091Y-39857517D01*
X185014796Y-39722669D01*
X185014795Y-39722668D01*
X185014793Y-39722664D01*
X184928547Y-39607455D01*
X184928544Y-39607452D01*
X184813335Y-39521206D01*
X184813328Y-39521202D01*
X184678482Y-39470908D01*
X184678483Y-39470908D01*
X184618883Y-39464501D01*
X184618881Y-39464500D01*
X184618873Y-39464500D01*
X184618864Y-39464500D01*
X183173129Y-39464500D01*
X183173123Y-39464501D01*
X183113516Y-39470908D01*
X182978671Y-39521202D01*
X182978664Y-39521206D01*
X182863455Y-39607452D01*
X182863452Y-39607455D01*
X182777206Y-39722664D01*
X182777202Y-39722671D01*
X182726908Y-39857517D01*
X182720501Y-39917116D01*
X182720501Y-39917123D01*
X182720500Y-39917135D01*
X182720500Y-41362870D01*
X175776500Y-41362870D01*
X175776500Y-38864536D01*
X175796185Y-38797497D01*
X175848989Y-38751742D01*
X175918147Y-38741798D01*
X175932582Y-38744758D01*
X176049308Y-38776035D01*
X176188629Y-38788224D01*
X176275998Y-38795868D01*
X176276000Y-38795868D01*
X176276002Y-38795868D01*
X176332673Y-38790909D01*
X176502692Y-38776035D01*
X176722496Y-38717139D01*
X176928734Y-38620968D01*
X177115139Y-38490447D01*
X177276047Y-38329539D01*
X177406568Y-38143134D01*
X177433895Y-38084529D01*
X177480064Y-38032095D01*
X177547257Y-38012942D01*
X177614139Y-38033157D01*
X177658657Y-38084533D01*
X177685865Y-38142882D01*
X177816342Y-38329220D01*
X177977179Y-38490057D01*
X178163517Y-38620534D01*
X178369673Y-38716665D01*
X178369682Y-38716669D01*
X178565999Y-38769272D01*
X178566000Y-38769271D01*
X178566000Y-37806086D01*
X178577955Y-37818041D01*
X178690852Y-37875565D01*
X178784519Y-37890400D01*
X178847481Y-37890400D01*
X178941148Y-37875565D01*
X179054045Y-37818041D01*
X179066000Y-37806086D01*
X179066000Y-38769272D01*
G37*
%TD.AperFunction*%
%TD*%
M02*
