%TF.GenerationSoftware,KiCad,Pcbnew,7.0.9-7.0.9~ubuntu20.04.1*%
%TF.CreationDate,2023-12-26T21:31:22+01:00*%
%TF.ProjectId,6303_PLCC_Addon,36333033-5f50-44c4-9343-5f4164646f6e,rev?*%
%TF.SameCoordinates,Original*%
%TF.FileFunction,Paste,Top*%
%TF.FilePolarity,Positive*%
%FSLAX46Y46*%
G04 Gerber Fmt 4.6, Leading zero omitted, Abs format (unit mm)*
G04 Created by KiCad (PCBNEW 7.0.9-7.0.9~ubuntu20.04.1) date 2023-12-26 21:31:22*
%MOMM*%
%LPD*%
G01*
G04 APERTURE LIST*
%ADD10R,1.925000X0.700000*%
%ADD11R,0.700000X1.925000*%
G04 APERTURE END LIST*
D10*
%TO.C,U1*%
X189577500Y-69922500D03*
X189577500Y-71192500D03*
X189577500Y-72462500D03*
X189577500Y-73732500D03*
X189577500Y-75002500D03*
X189577500Y-76272500D03*
X189577500Y-77542500D03*
X189577500Y-78812500D03*
X189577500Y-80082500D03*
D11*
X191090000Y-81595000D03*
X192360000Y-81595000D03*
X193630000Y-81595000D03*
X194900000Y-81595000D03*
X196170000Y-81595000D03*
X197440000Y-81595000D03*
X198710000Y-81595000D03*
X199980000Y-81595000D03*
X201250000Y-81595000D03*
X202520000Y-81595000D03*
X203790000Y-81595000D03*
X205060000Y-81595000D03*
X206330000Y-81595000D03*
X207600000Y-81595000D03*
X208870000Y-81595000D03*
X210140000Y-81595000D03*
X211410000Y-81595000D03*
D10*
X212922500Y-80082500D03*
X212922500Y-78812500D03*
X212922500Y-77542500D03*
X212922500Y-76272500D03*
X212922500Y-75002500D03*
X212922500Y-73732500D03*
X212922500Y-72462500D03*
X212922500Y-71192500D03*
X212922500Y-69922500D03*
X212922500Y-68652500D03*
X212922500Y-67382500D03*
X212922500Y-66112500D03*
X212922500Y-64842500D03*
X212922500Y-63572500D03*
X212922500Y-62302500D03*
X212922500Y-61032500D03*
X212922500Y-59762500D03*
D11*
X211410000Y-58250000D03*
X210140000Y-58250000D03*
X208870000Y-58250000D03*
X207600000Y-58250000D03*
X206330000Y-58250000D03*
X205060000Y-58250000D03*
X203790000Y-58250000D03*
X202520000Y-58250000D03*
X201250000Y-58250000D03*
X199980000Y-58250000D03*
X198710000Y-58250000D03*
X197440000Y-58250000D03*
X196170000Y-58250000D03*
X194900000Y-58250000D03*
X193630000Y-58250000D03*
X192360000Y-58250000D03*
X191090000Y-58250000D03*
D10*
X189577500Y-59762500D03*
X189577500Y-61032500D03*
X189577500Y-62302500D03*
X189577500Y-63572500D03*
X189577500Y-64842500D03*
X189577500Y-66112500D03*
X189577500Y-67382500D03*
X189577500Y-68652500D03*
%TD*%
M02*
