%TF.GenerationSoftware,KiCad,Pcbnew,7.0.9-7.0.9~ubuntu20.04.1*%
%TF.CreationDate,2023-12-26T21:31:22+01:00*%
%TF.ProjectId,6303_PLCC_Addon,36333033-5f50-44c4-9343-5f4164646f6e,rev?*%
%TF.SameCoordinates,Original*%
%TF.FileFunction,Legend,Top*%
%TF.FilePolarity,Positive*%
%FSLAX46Y46*%
G04 Gerber Fmt 4.6, Leading zero omitted, Abs format (unit mm)*
G04 Created by KiCad (PCBNEW 7.0.9-7.0.9~ubuntu20.04.1) date 2023-12-26 21:31:22*
%MOMM*%
%LPD*%
G01*
G04 APERTURE LIST*
%ADD10C,0.150000*%
%ADD11C,0.100000*%
%ADD12C,0.120000*%
G04 APERTURE END LIST*
D10*
X179660779Y-72767819D02*
X179660779Y-71767819D01*
X179660779Y-71767819D02*
X179994112Y-72482104D01*
X179994112Y-72482104D02*
X180327445Y-71767819D01*
X180327445Y-71767819D02*
X180327445Y-72767819D01*
X180803636Y-72767819D02*
X180803636Y-71767819D01*
X180803636Y-71767819D02*
X181184588Y-71767819D01*
X181184588Y-71767819D02*
X181279826Y-71815438D01*
X181279826Y-71815438D02*
X181327445Y-71863057D01*
X181327445Y-71863057D02*
X181375064Y-71958295D01*
X181375064Y-71958295D02*
X181375064Y-72101152D01*
X181375064Y-72101152D02*
X181327445Y-72196390D01*
X181327445Y-72196390D02*
X181279826Y-72244009D01*
X181279826Y-72244009D02*
X181184588Y-72291628D01*
X181184588Y-72291628D02*
X180803636Y-72291628D01*
X181994112Y-71767819D02*
X182089350Y-71767819D01*
X182089350Y-71767819D02*
X182184588Y-71815438D01*
X182184588Y-71815438D02*
X182232207Y-71863057D01*
X182232207Y-71863057D02*
X182279826Y-71958295D01*
X182279826Y-71958295D02*
X182327445Y-72148771D01*
X182327445Y-72148771D02*
X182327445Y-72386866D01*
X182327445Y-72386866D02*
X182279826Y-72577342D01*
X182279826Y-72577342D02*
X182232207Y-72672580D01*
X182232207Y-72672580D02*
X182184588Y-72720200D01*
X182184588Y-72720200D02*
X182089350Y-72767819D01*
X182089350Y-72767819D02*
X181994112Y-72767819D01*
X181994112Y-72767819D02*
X181898874Y-72720200D01*
X181898874Y-72720200D02*
X181851255Y-72672580D01*
X181851255Y-72672580D02*
X181803636Y-72577342D01*
X181803636Y-72577342D02*
X181756017Y-72386866D01*
X181756017Y-72386866D02*
X181756017Y-72148771D01*
X181756017Y-72148771D02*
X181803636Y-71958295D01*
X181803636Y-71958295D02*
X181851255Y-71863057D01*
X181851255Y-71863057D02*
X181898874Y-71815438D01*
X181898874Y-71815438D02*
X181994112Y-71767819D01*
X183517922Y-72767819D02*
X183517922Y-71767819D01*
X183517922Y-71767819D02*
X183851255Y-72482104D01*
X183851255Y-72482104D02*
X184184588Y-71767819D01*
X184184588Y-71767819D02*
X184184588Y-72767819D01*
X184660779Y-72767819D02*
X184660779Y-71767819D01*
X184660779Y-71767819D02*
X185041731Y-71767819D01*
X185041731Y-71767819D02*
X185136969Y-71815438D01*
X185136969Y-71815438D02*
X185184588Y-71863057D01*
X185184588Y-71863057D02*
X185232207Y-71958295D01*
X185232207Y-71958295D02*
X185232207Y-72101152D01*
X185232207Y-72101152D02*
X185184588Y-72196390D01*
X185184588Y-72196390D02*
X185136969Y-72244009D01*
X185136969Y-72244009D02*
X185041731Y-72291628D01*
X185041731Y-72291628D02*
X184660779Y-72291628D01*
X186184588Y-72767819D02*
X185613160Y-72767819D01*
X185898874Y-72767819D02*
X185898874Y-71767819D01*
X185898874Y-71767819D02*
X185803636Y-71910676D01*
X185803636Y-71910676D02*
X185708398Y-72005914D01*
X185708398Y-72005914D02*
X185613160Y-72053533D01*
X159860588Y-53516033D02*
X160698684Y-53516033D01*
X160279636Y-54106509D02*
X160279636Y-52925557D01*
X161746303Y-52556509D02*
X161222493Y-52556509D01*
X161222493Y-52556509D02*
X161170112Y-53294604D01*
X161170112Y-53294604D02*
X161222493Y-53220795D01*
X161222493Y-53220795D02*
X161327255Y-53146985D01*
X161327255Y-53146985D02*
X161589160Y-53146985D01*
X161589160Y-53146985D02*
X161693922Y-53220795D01*
X161693922Y-53220795D02*
X161746303Y-53294604D01*
X161746303Y-53294604D02*
X161798684Y-53442223D01*
X161798684Y-53442223D02*
X161798684Y-53811271D01*
X161798684Y-53811271D02*
X161746303Y-53958890D01*
X161746303Y-53958890D02*
X161693922Y-54032700D01*
X161693922Y-54032700D02*
X161589160Y-54106509D01*
X161589160Y-54106509D02*
X161327255Y-54106509D01*
X161327255Y-54106509D02*
X161222493Y-54032700D01*
X161222493Y-54032700D02*
X161170112Y-53958890D01*
X162112969Y-52556509D02*
X162479636Y-54106509D01*
X162479636Y-54106509D02*
X162846303Y-52556509D01*
X159860588Y-56602009D02*
X159860588Y-55052009D01*
X159860588Y-55052009D02*
X160279636Y-55052009D01*
X160279636Y-55052009D02*
X160384398Y-55125819D01*
X160384398Y-55125819D02*
X160436779Y-55199628D01*
X160436779Y-55199628D02*
X160489160Y-55347247D01*
X160489160Y-55347247D02*
X160489160Y-55568676D01*
X160489160Y-55568676D02*
X160436779Y-55716295D01*
X160436779Y-55716295D02*
X160384398Y-55790104D01*
X160384398Y-55790104D02*
X160279636Y-55863914D01*
X160279636Y-55863914D02*
X159860588Y-55863914D01*
X160908207Y-55199628D02*
X160960588Y-55125819D01*
X160960588Y-55125819D02*
X161065350Y-55052009D01*
X161065350Y-55052009D02*
X161327255Y-55052009D01*
X161327255Y-55052009D02*
X161432017Y-55125819D01*
X161432017Y-55125819D02*
X161484398Y-55199628D01*
X161484398Y-55199628D02*
X161536779Y-55347247D01*
X161536779Y-55347247D02*
X161536779Y-55494866D01*
X161536779Y-55494866D02*
X161484398Y-55716295D01*
X161484398Y-55716295D02*
X160855826Y-56602009D01*
X160855826Y-56602009D02*
X161536779Y-56602009D01*
X162584398Y-56602009D02*
X161955826Y-56602009D01*
X162270112Y-56602009D02*
X162270112Y-55052009D01*
X162270112Y-55052009D02*
X162165350Y-55273438D01*
X162165350Y-55273438D02*
X162060588Y-55421057D01*
X162060588Y-55421057D02*
X161955826Y-55494866D01*
X159860588Y-59097509D02*
X159860588Y-57547509D01*
X159860588Y-57547509D02*
X160279636Y-57547509D01*
X160279636Y-57547509D02*
X160384398Y-57621319D01*
X160384398Y-57621319D02*
X160436779Y-57695128D01*
X160436779Y-57695128D02*
X160489160Y-57842747D01*
X160489160Y-57842747D02*
X160489160Y-58064176D01*
X160489160Y-58064176D02*
X160436779Y-58211795D01*
X160436779Y-58211795D02*
X160384398Y-58285604D01*
X160384398Y-58285604D02*
X160279636Y-58359414D01*
X160279636Y-58359414D02*
X159860588Y-58359414D01*
X160908207Y-57695128D02*
X160960588Y-57621319D01*
X160960588Y-57621319D02*
X161065350Y-57547509D01*
X161065350Y-57547509D02*
X161327255Y-57547509D01*
X161327255Y-57547509D02*
X161432017Y-57621319D01*
X161432017Y-57621319D02*
X161484398Y-57695128D01*
X161484398Y-57695128D02*
X161536779Y-57842747D01*
X161536779Y-57842747D02*
X161536779Y-57990366D01*
X161536779Y-57990366D02*
X161484398Y-58211795D01*
X161484398Y-58211795D02*
X160855826Y-59097509D01*
X160855826Y-59097509D02*
X161536779Y-59097509D01*
X161903445Y-57547509D02*
X162584398Y-57547509D01*
X162584398Y-57547509D02*
X162217731Y-58137985D01*
X162217731Y-58137985D02*
X162374874Y-58137985D01*
X162374874Y-58137985D02*
X162479636Y-58211795D01*
X162479636Y-58211795D02*
X162532017Y-58285604D01*
X162532017Y-58285604D02*
X162584398Y-58433223D01*
X162584398Y-58433223D02*
X162584398Y-58802271D01*
X162584398Y-58802271D02*
X162532017Y-58949890D01*
X162532017Y-58949890D02*
X162479636Y-59023700D01*
X162479636Y-59023700D02*
X162374874Y-59097509D01*
X162374874Y-59097509D02*
X162060588Y-59097509D01*
X162060588Y-59097509D02*
X161955826Y-59023700D01*
X161955826Y-59023700D02*
X161903445Y-58949890D01*
X159860588Y-61593009D02*
X159860588Y-60043009D01*
X159860588Y-60043009D02*
X160279636Y-60043009D01*
X160279636Y-60043009D02*
X160384398Y-60116819D01*
X160384398Y-60116819D02*
X160436779Y-60190628D01*
X160436779Y-60190628D02*
X160489160Y-60338247D01*
X160489160Y-60338247D02*
X160489160Y-60559676D01*
X160489160Y-60559676D02*
X160436779Y-60707295D01*
X160436779Y-60707295D02*
X160384398Y-60781104D01*
X160384398Y-60781104D02*
X160279636Y-60854914D01*
X160279636Y-60854914D02*
X159860588Y-60854914D01*
X160908207Y-60190628D02*
X160960588Y-60116819D01*
X160960588Y-60116819D02*
X161065350Y-60043009D01*
X161065350Y-60043009D02*
X161327255Y-60043009D01*
X161327255Y-60043009D02*
X161432017Y-60116819D01*
X161432017Y-60116819D02*
X161484398Y-60190628D01*
X161484398Y-60190628D02*
X161536779Y-60338247D01*
X161536779Y-60338247D02*
X161536779Y-60485866D01*
X161536779Y-60485866D02*
X161484398Y-60707295D01*
X161484398Y-60707295D02*
X160855826Y-61593009D01*
X160855826Y-61593009D02*
X161536779Y-61593009D01*
X162532017Y-60043009D02*
X162008207Y-60043009D01*
X162008207Y-60043009D02*
X161955826Y-60781104D01*
X161955826Y-60781104D02*
X162008207Y-60707295D01*
X162008207Y-60707295D02*
X162112969Y-60633485D01*
X162112969Y-60633485D02*
X162374874Y-60633485D01*
X162374874Y-60633485D02*
X162479636Y-60707295D01*
X162479636Y-60707295D02*
X162532017Y-60781104D01*
X162532017Y-60781104D02*
X162584398Y-60928723D01*
X162584398Y-60928723D02*
X162584398Y-61297771D01*
X162584398Y-61297771D02*
X162532017Y-61445390D01*
X162532017Y-61445390D02*
X162479636Y-61519200D01*
X162479636Y-61519200D02*
X162374874Y-61593009D01*
X162374874Y-61593009D02*
X162112969Y-61593009D01*
X162112969Y-61593009D02*
X162008207Y-61519200D01*
X162008207Y-61519200D02*
X161955826Y-61445390D01*
X159860588Y-64088509D02*
X159860588Y-62538509D01*
X159860588Y-62538509D02*
X160279636Y-62538509D01*
X160279636Y-62538509D02*
X160384398Y-62612319D01*
X160384398Y-62612319D02*
X160436779Y-62686128D01*
X160436779Y-62686128D02*
X160489160Y-62833747D01*
X160489160Y-62833747D02*
X160489160Y-63055176D01*
X160489160Y-63055176D02*
X160436779Y-63202795D01*
X160436779Y-63202795D02*
X160384398Y-63276604D01*
X160384398Y-63276604D02*
X160279636Y-63350414D01*
X160279636Y-63350414D02*
X159860588Y-63350414D01*
X160908207Y-62686128D02*
X160960588Y-62612319D01*
X160960588Y-62612319D02*
X161065350Y-62538509D01*
X161065350Y-62538509D02*
X161327255Y-62538509D01*
X161327255Y-62538509D02*
X161432017Y-62612319D01*
X161432017Y-62612319D02*
X161484398Y-62686128D01*
X161484398Y-62686128D02*
X161536779Y-62833747D01*
X161536779Y-62833747D02*
X161536779Y-62981366D01*
X161536779Y-62981366D02*
X161484398Y-63202795D01*
X161484398Y-63202795D02*
X160855826Y-64088509D01*
X160855826Y-64088509D02*
X161536779Y-64088509D01*
X161903445Y-62538509D02*
X162636779Y-62538509D01*
X162636779Y-62538509D02*
X162165350Y-64088509D01*
X159860588Y-66584009D02*
X159860588Y-65034009D01*
X159860588Y-65034009D02*
X160279636Y-65034009D01*
X160279636Y-65034009D02*
X160384398Y-65107819D01*
X160384398Y-65107819D02*
X160436779Y-65181628D01*
X160436779Y-65181628D02*
X160489160Y-65329247D01*
X160489160Y-65329247D02*
X160489160Y-65550676D01*
X160489160Y-65550676D02*
X160436779Y-65698295D01*
X160436779Y-65698295D02*
X160384398Y-65772104D01*
X160384398Y-65772104D02*
X160279636Y-65845914D01*
X160279636Y-65845914D02*
X159860588Y-65845914D01*
X161484398Y-65034009D02*
X160960588Y-65034009D01*
X160960588Y-65034009D02*
X160908207Y-65772104D01*
X160908207Y-65772104D02*
X160960588Y-65698295D01*
X160960588Y-65698295D02*
X161065350Y-65624485D01*
X161065350Y-65624485D02*
X161327255Y-65624485D01*
X161327255Y-65624485D02*
X161432017Y-65698295D01*
X161432017Y-65698295D02*
X161484398Y-65772104D01*
X161484398Y-65772104D02*
X161536779Y-65919723D01*
X161536779Y-65919723D02*
X161536779Y-66288771D01*
X161536779Y-66288771D02*
X161484398Y-66436390D01*
X161484398Y-66436390D02*
X161432017Y-66510200D01*
X161432017Y-66510200D02*
X161327255Y-66584009D01*
X161327255Y-66584009D02*
X161065350Y-66584009D01*
X161065350Y-66584009D02*
X160960588Y-66510200D01*
X160960588Y-66510200D02*
X160908207Y-66436390D01*
X162584398Y-66584009D02*
X161955826Y-66584009D01*
X162270112Y-66584009D02*
X162270112Y-65034009D01*
X162270112Y-65034009D02*
X162165350Y-65255438D01*
X162165350Y-65255438D02*
X162060588Y-65403057D01*
X162060588Y-65403057D02*
X161955826Y-65476866D01*
X159860588Y-69079509D02*
X159860588Y-67529509D01*
X159860588Y-67529509D02*
X160279636Y-67529509D01*
X160279636Y-67529509D02*
X160384398Y-67603319D01*
X160384398Y-67603319D02*
X160436779Y-67677128D01*
X160436779Y-67677128D02*
X160489160Y-67824747D01*
X160489160Y-67824747D02*
X160489160Y-68046176D01*
X160489160Y-68046176D02*
X160436779Y-68193795D01*
X160436779Y-68193795D02*
X160384398Y-68267604D01*
X160384398Y-68267604D02*
X160279636Y-68341414D01*
X160279636Y-68341414D02*
X159860588Y-68341414D01*
X161484398Y-67529509D02*
X160960588Y-67529509D01*
X160960588Y-67529509D02*
X160908207Y-68267604D01*
X160908207Y-68267604D02*
X160960588Y-68193795D01*
X160960588Y-68193795D02*
X161065350Y-68119985D01*
X161065350Y-68119985D02*
X161327255Y-68119985D01*
X161327255Y-68119985D02*
X161432017Y-68193795D01*
X161432017Y-68193795D02*
X161484398Y-68267604D01*
X161484398Y-68267604D02*
X161536779Y-68415223D01*
X161536779Y-68415223D02*
X161536779Y-68784271D01*
X161536779Y-68784271D02*
X161484398Y-68931890D01*
X161484398Y-68931890D02*
X161432017Y-69005700D01*
X161432017Y-69005700D02*
X161327255Y-69079509D01*
X161327255Y-69079509D02*
X161065350Y-69079509D01*
X161065350Y-69079509D02*
X160960588Y-69005700D01*
X160960588Y-69005700D02*
X160908207Y-68931890D01*
X161903445Y-67529509D02*
X162584398Y-67529509D01*
X162584398Y-67529509D02*
X162217731Y-68119985D01*
X162217731Y-68119985D02*
X162374874Y-68119985D01*
X162374874Y-68119985D02*
X162479636Y-68193795D01*
X162479636Y-68193795D02*
X162532017Y-68267604D01*
X162532017Y-68267604D02*
X162584398Y-68415223D01*
X162584398Y-68415223D02*
X162584398Y-68784271D01*
X162584398Y-68784271D02*
X162532017Y-68931890D01*
X162532017Y-68931890D02*
X162479636Y-69005700D01*
X162479636Y-69005700D02*
X162374874Y-69079509D01*
X162374874Y-69079509D02*
X162060588Y-69079509D01*
X162060588Y-69079509D02*
X161955826Y-69005700D01*
X161955826Y-69005700D02*
X161903445Y-68931890D01*
X159860588Y-71575009D02*
X159860588Y-70025009D01*
X159860588Y-70025009D02*
X160279636Y-70025009D01*
X160279636Y-70025009D02*
X160384398Y-70098819D01*
X160384398Y-70098819D02*
X160436779Y-70172628D01*
X160436779Y-70172628D02*
X160489160Y-70320247D01*
X160489160Y-70320247D02*
X160489160Y-70541676D01*
X160489160Y-70541676D02*
X160436779Y-70689295D01*
X160436779Y-70689295D02*
X160384398Y-70763104D01*
X160384398Y-70763104D02*
X160279636Y-70836914D01*
X160279636Y-70836914D02*
X159860588Y-70836914D01*
X161484398Y-70025009D02*
X160960588Y-70025009D01*
X160960588Y-70025009D02*
X160908207Y-70763104D01*
X160908207Y-70763104D02*
X160960588Y-70689295D01*
X160960588Y-70689295D02*
X161065350Y-70615485D01*
X161065350Y-70615485D02*
X161327255Y-70615485D01*
X161327255Y-70615485D02*
X161432017Y-70689295D01*
X161432017Y-70689295D02*
X161484398Y-70763104D01*
X161484398Y-70763104D02*
X161536779Y-70910723D01*
X161536779Y-70910723D02*
X161536779Y-71279771D01*
X161536779Y-71279771D02*
X161484398Y-71427390D01*
X161484398Y-71427390D02*
X161432017Y-71501200D01*
X161432017Y-71501200D02*
X161327255Y-71575009D01*
X161327255Y-71575009D02*
X161065350Y-71575009D01*
X161065350Y-71575009D02*
X160960588Y-71501200D01*
X160960588Y-71501200D02*
X160908207Y-71427390D01*
X162532017Y-70025009D02*
X162008207Y-70025009D01*
X162008207Y-70025009D02*
X161955826Y-70763104D01*
X161955826Y-70763104D02*
X162008207Y-70689295D01*
X162008207Y-70689295D02*
X162112969Y-70615485D01*
X162112969Y-70615485D02*
X162374874Y-70615485D01*
X162374874Y-70615485D02*
X162479636Y-70689295D01*
X162479636Y-70689295D02*
X162532017Y-70763104D01*
X162532017Y-70763104D02*
X162584398Y-70910723D01*
X162584398Y-70910723D02*
X162584398Y-71279771D01*
X162584398Y-71279771D02*
X162532017Y-71427390D01*
X162532017Y-71427390D02*
X162479636Y-71501200D01*
X162479636Y-71501200D02*
X162374874Y-71575009D01*
X162374874Y-71575009D02*
X162112969Y-71575009D01*
X162112969Y-71575009D02*
X162008207Y-71501200D01*
X162008207Y-71501200D02*
X161955826Y-71427390D01*
X159860588Y-74070509D02*
X159860588Y-72520509D01*
X159860588Y-72520509D02*
X160279636Y-72520509D01*
X160279636Y-72520509D02*
X160384398Y-72594319D01*
X160384398Y-72594319D02*
X160436779Y-72668128D01*
X160436779Y-72668128D02*
X160489160Y-72815747D01*
X160489160Y-72815747D02*
X160489160Y-73037176D01*
X160489160Y-73037176D02*
X160436779Y-73184795D01*
X160436779Y-73184795D02*
X160384398Y-73258604D01*
X160384398Y-73258604D02*
X160279636Y-73332414D01*
X160279636Y-73332414D02*
X159860588Y-73332414D01*
X161484398Y-72520509D02*
X160960588Y-72520509D01*
X160960588Y-72520509D02*
X160908207Y-73258604D01*
X160908207Y-73258604D02*
X160960588Y-73184795D01*
X160960588Y-73184795D02*
X161065350Y-73110985D01*
X161065350Y-73110985D02*
X161327255Y-73110985D01*
X161327255Y-73110985D02*
X161432017Y-73184795D01*
X161432017Y-73184795D02*
X161484398Y-73258604D01*
X161484398Y-73258604D02*
X161536779Y-73406223D01*
X161536779Y-73406223D02*
X161536779Y-73775271D01*
X161536779Y-73775271D02*
X161484398Y-73922890D01*
X161484398Y-73922890D02*
X161432017Y-73996700D01*
X161432017Y-73996700D02*
X161327255Y-74070509D01*
X161327255Y-74070509D02*
X161065350Y-74070509D01*
X161065350Y-74070509D02*
X160960588Y-73996700D01*
X160960588Y-73996700D02*
X160908207Y-73922890D01*
X161903445Y-72520509D02*
X162636779Y-72520509D01*
X162636779Y-72520509D02*
X162165350Y-74070509D01*
X159860588Y-76566009D02*
X159860588Y-75016009D01*
X159860588Y-75016009D02*
X160279636Y-75016009D01*
X160279636Y-75016009D02*
X160384398Y-75089819D01*
X160384398Y-75089819D02*
X160436779Y-75163628D01*
X160436779Y-75163628D02*
X160489160Y-75311247D01*
X160489160Y-75311247D02*
X160489160Y-75532676D01*
X160489160Y-75532676D02*
X160436779Y-75680295D01*
X160436779Y-75680295D02*
X160384398Y-75754104D01*
X160384398Y-75754104D02*
X160279636Y-75827914D01*
X160279636Y-75827914D02*
X159860588Y-75827914D01*
X161432017Y-75016009D02*
X161222493Y-75016009D01*
X161222493Y-75016009D02*
X161117731Y-75089819D01*
X161117731Y-75089819D02*
X161065350Y-75163628D01*
X161065350Y-75163628D02*
X160960588Y-75385057D01*
X160960588Y-75385057D02*
X160908207Y-75680295D01*
X160908207Y-75680295D02*
X160908207Y-76270771D01*
X160908207Y-76270771D02*
X160960588Y-76418390D01*
X160960588Y-76418390D02*
X161012969Y-76492200D01*
X161012969Y-76492200D02*
X161117731Y-76566009D01*
X161117731Y-76566009D02*
X161327255Y-76566009D01*
X161327255Y-76566009D02*
X161432017Y-76492200D01*
X161432017Y-76492200D02*
X161484398Y-76418390D01*
X161484398Y-76418390D02*
X161536779Y-76270771D01*
X161536779Y-76270771D02*
X161536779Y-75901723D01*
X161536779Y-75901723D02*
X161484398Y-75754104D01*
X161484398Y-75754104D02*
X161432017Y-75680295D01*
X161432017Y-75680295D02*
X161327255Y-75606485D01*
X161327255Y-75606485D02*
X161117731Y-75606485D01*
X161117731Y-75606485D02*
X161012969Y-75680295D01*
X161012969Y-75680295D02*
X160960588Y-75754104D01*
X160960588Y-75754104D02*
X160908207Y-75901723D01*
X162584398Y-76566009D02*
X161955826Y-76566009D01*
X162270112Y-76566009D02*
X162270112Y-75016009D01*
X162270112Y-75016009D02*
X162165350Y-75237438D01*
X162165350Y-75237438D02*
X162060588Y-75385057D01*
X162060588Y-75385057D02*
X161955826Y-75458866D01*
X159860588Y-79061509D02*
X159860588Y-77511509D01*
X159860588Y-77511509D02*
X160279636Y-77511509D01*
X160279636Y-77511509D02*
X160384398Y-77585319D01*
X160384398Y-77585319D02*
X160436779Y-77659128D01*
X160436779Y-77659128D02*
X160489160Y-77806747D01*
X160489160Y-77806747D02*
X160489160Y-78028176D01*
X160489160Y-78028176D02*
X160436779Y-78175795D01*
X160436779Y-78175795D02*
X160384398Y-78249604D01*
X160384398Y-78249604D02*
X160279636Y-78323414D01*
X160279636Y-78323414D02*
X159860588Y-78323414D01*
X161432017Y-77511509D02*
X161222493Y-77511509D01*
X161222493Y-77511509D02*
X161117731Y-77585319D01*
X161117731Y-77585319D02*
X161065350Y-77659128D01*
X161065350Y-77659128D02*
X160960588Y-77880557D01*
X160960588Y-77880557D02*
X160908207Y-78175795D01*
X160908207Y-78175795D02*
X160908207Y-78766271D01*
X160908207Y-78766271D02*
X160960588Y-78913890D01*
X160960588Y-78913890D02*
X161012969Y-78987700D01*
X161012969Y-78987700D02*
X161117731Y-79061509D01*
X161117731Y-79061509D02*
X161327255Y-79061509D01*
X161327255Y-79061509D02*
X161432017Y-78987700D01*
X161432017Y-78987700D02*
X161484398Y-78913890D01*
X161484398Y-78913890D02*
X161536779Y-78766271D01*
X161536779Y-78766271D02*
X161536779Y-78397223D01*
X161536779Y-78397223D02*
X161484398Y-78249604D01*
X161484398Y-78249604D02*
X161432017Y-78175795D01*
X161432017Y-78175795D02*
X161327255Y-78101985D01*
X161327255Y-78101985D02*
X161117731Y-78101985D01*
X161117731Y-78101985D02*
X161012969Y-78175795D01*
X161012969Y-78175795D02*
X160960588Y-78249604D01*
X160960588Y-78249604D02*
X160908207Y-78397223D01*
X161903445Y-77511509D02*
X162584398Y-77511509D01*
X162584398Y-77511509D02*
X162217731Y-78101985D01*
X162217731Y-78101985D02*
X162374874Y-78101985D01*
X162374874Y-78101985D02*
X162479636Y-78175795D01*
X162479636Y-78175795D02*
X162532017Y-78249604D01*
X162532017Y-78249604D02*
X162584398Y-78397223D01*
X162584398Y-78397223D02*
X162584398Y-78766271D01*
X162584398Y-78766271D02*
X162532017Y-78913890D01*
X162532017Y-78913890D02*
X162479636Y-78987700D01*
X162479636Y-78987700D02*
X162374874Y-79061509D01*
X162374874Y-79061509D02*
X162060588Y-79061509D01*
X162060588Y-79061509D02*
X161955826Y-78987700D01*
X161955826Y-78987700D02*
X161903445Y-78913890D01*
X159860588Y-81557009D02*
X159860588Y-80007009D01*
X159860588Y-80007009D02*
X160279636Y-80007009D01*
X160279636Y-80007009D02*
X160384398Y-80080819D01*
X160384398Y-80080819D02*
X160436779Y-80154628D01*
X160436779Y-80154628D02*
X160489160Y-80302247D01*
X160489160Y-80302247D02*
X160489160Y-80523676D01*
X160489160Y-80523676D02*
X160436779Y-80671295D01*
X160436779Y-80671295D02*
X160384398Y-80745104D01*
X160384398Y-80745104D02*
X160279636Y-80818914D01*
X160279636Y-80818914D02*
X159860588Y-80818914D01*
X161432017Y-80007009D02*
X161222493Y-80007009D01*
X161222493Y-80007009D02*
X161117731Y-80080819D01*
X161117731Y-80080819D02*
X161065350Y-80154628D01*
X161065350Y-80154628D02*
X160960588Y-80376057D01*
X160960588Y-80376057D02*
X160908207Y-80671295D01*
X160908207Y-80671295D02*
X160908207Y-81261771D01*
X160908207Y-81261771D02*
X160960588Y-81409390D01*
X160960588Y-81409390D02*
X161012969Y-81483200D01*
X161012969Y-81483200D02*
X161117731Y-81557009D01*
X161117731Y-81557009D02*
X161327255Y-81557009D01*
X161327255Y-81557009D02*
X161432017Y-81483200D01*
X161432017Y-81483200D02*
X161484398Y-81409390D01*
X161484398Y-81409390D02*
X161536779Y-81261771D01*
X161536779Y-81261771D02*
X161536779Y-80892723D01*
X161536779Y-80892723D02*
X161484398Y-80745104D01*
X161484398Y-80745104D02*
X161432017Y-80671295D01*
X161432017Y-80671295D02*
X161327255Y-80597485D01*
X161327255Y-80597485D02*
X161117731Y-80597485D01*
X161117731Y-80597485D02*
X161012969Y-80671295D01*
X161012969Y-80671295D02*
X160960588Y-80745104D01*
X160960588Y-80745104D02*
X160908207Y-80892723D01*
X162532017Y-80007009D02*
X162008207Y-80007009D01*
X162008207Y-80007009D02*
X161955826Y-80745104D01*
X161955826Y-80745104D02*
X162008207Y-80671295D01*
X162008207Y-80671295D02*
X162112969Y-80597485D01*
X162112969Y-80597485D02*
X162374874Y-80597485D01*
X162374874Y-80597485D02*
X162479636Y-80671295D01*
X162479636Y-80671295D02*
X162532017Y-80745104D01*
X162532017Y-80745104D02*
X162584398Y-80892723D01*
X162584398Y-80892723D02*
X162584398Y-81261771D01*
X162584398Y-81261771D02*
X162532017Y-81409390D01*
X162532017Y-81409390D02*
X162479636Y-81483200D01*
X162479636Y-81483200D02*
X162374874Y-81557009D01*
X162374874Y-81557009D02*
X162112969Y-81557009D01*
X162112969Y-81557009D02*
X162008207Y-81483200D01*
X162008207Y-81483200D02*
X161955826Y-81409390D01*
X159860588Y-84052509D02*
X159860588Y-82502509D01*
X159860588Y-82502509D02*
X160279636Y-82502509D01*
X160279636Y-82502509D02*
X160384398Y-82576319D01*
X160384398Y-82576319D02*
X160436779Y-82650128D01*
X160436779Y-82650128D02*
X160489160Y-82797747D01*
X160489160Y-82797747D02*
X160489160Y-83019176D01*
X160489160Y-83019176D02*
X160436779Y-83166795D01*
X160436779Y-83166795D02*
X160384398Y-83240604D01*
X160384398Y-83240604D02*
X160279636Y-83314414D01*
X160279636Y-83314414D02*
X159860588Y-83314414D01*
X161432017Y-82502509D02*
X161222493Y-82502509D01*
X161222493Y-82502509D02*
X161117731Y-82576319D01*
X161117731Y-82576319D02*
X161065350Y-82650128D01*
X161065350Y-82650128D02*
X160960588Y-82871557D01*
X160960588Y-82871557D02*
X160908207Y-83166795D01*
X160908207Y-83166795D02*
X160908207Y-83757271D01*
X160908207Y-83757271D02*
X160960588Y-83904890D01*
X160960588Y-83904890D02*
X161012969Y-83978700D01*
X161012969Y-83978700D02*
X161117731Y-84052509D01*
X161117731Y-84052509D02*
X161327255Y-84052509D01*
X161327255Y-84052509D02*
X161432017Y-83978700D01*
X161432017Y-83978700D02*
X161484398Y-83904890D01*
X161484398Y-83904890D02*
X161536779Y-83757271D01*
X161536779Y-83757271D02*
X161536779Y-83388223D01*
X161536779Y-83388223D02*
X161484398Y-83240604D01*
X161484398Y-83240604D02*
X161432017Y-83166795D01*
X161432017Y-83166795D02*
X161327255Y-83092985D01*
X161327255Y-83092985D02*
X161117731Y-83092985D01*
X161117731Y-83092985D02*
X161012969Y-83166795D01*
X161012969Y-83166795D02*
X160960588Y-83240604D01*
X160960588Y-83240604D02*
X160908207Y-83388223D01*
X161903445Y-82502509D02*
X162636779Y-82502509D01*
X162636779Y-82502509D02*
X162165350Y-84052509D01*
X168151019Y-50361620D02*
X168960542Y-50361620D01*
X168960542Y-50361620D02*
X169055780Y-50314001D01*
X169055780Y-50314001D02*
X169103400Y-50266382D01*
X169103400Y-50266382D02*
X169151019Y-50171144D01*
X169151019Y-50171144D02*
X169151019Y-49980668D01*
X169151019Y-49980668D02*
X169103400Y-49885430D01*
X169103400Y-49885430D02*
X169055780Y-49837811D01*
X169055780Y-49837811D02*
X168960542Y-49790192D01*
X168960542Y-49790192D02*
X168151019Y-49790192D01*
X168484352Y-49314001D02*
X169151019Y-49314001D01*
X168579590Y-49314001D02*
X168531971Y-49266382D01*
X168531971Y-49266382D02*
X168484352Y-49171144D01*
X168484352Y-49171144D02*
X168484352Y-49028287D01*
X168484352Y-49028287D02*
X168531971Y-48933049D01*
X168531971Y-48933049D02*
X168627209Y-48885430D01*
X168627209Y-48885430D02*
X169151019Y-48885430D01*
X169151019Y-48409239D02*
X168484352Y-48409239D01*
X168151019Y-48409239D02*
X168198638Y-48456858D01*
X168198638Y-48456858D02*
X168246257Y-48409239D01*
X168246257Y-48409239D02*
X168198638Y-48361620D01*
X168198638Y-48361620D02*
X168151019Y-48409239D01*
X168151019Y-48409239D02*
X168246257Y-48409239D01*
X169103400Y-47504478D02*
X169151019Y-47599716D01*
X169151019Y-47599716D02*
X169151019Y-47790192D01*
X169151019Y-47790192D02*
X169103400Y-47885430D01*
X169103400Y-47885430D02*
X169055780Y-47933049D01*
X169055780Y-47933049D02*
X168960542Y-47980668D01*
X168960542Y-47980668D02*
X168674828Y-47980668D01*
X168674828Y-47980668D02*
X168579590Y-47933049D01*
X168579590Y-47933049D02*
X168531971Y-47885430D01*
X168531971Y-47885430D02*
X168484352Y-47790192D01*
X168484352Y-47790192D02*
X168484352Y-47599716D01*
X168484352Y-47599716D02*
X168531971Y-47504478D01*
X169151019Y-46933049D02*
X169103400Y-47028287D01*
X169103400Y-47028287D02*
X169055780Y-47075906D01*
X169055780Y-47075906D02*
X168960542Y-47123525D01*
X168960542Y-47123525D02*
X168674828Y-47123525D01*
X168674828Y-47123525D02*
X168579590Y-47075906D01*
X168579590Y-47075906D02*
X168531971Y-47028287D01*
X168531971Y-47028287D02*
X168484352Y-46933049D01*
X168484352Y-46933049D02*
X168484352Y-46790192D01*
X168484352Y-46790192D02*
X168531971Y-46694954D01*
X168531971Y-46694954D02*
X168579590Y-46647335D01*
X168579590Y-46647335D02*
X168674828Y-46599716D01*
X168674828Y-46599716D02*
X168960542Y-46599716D01*
X168960542Y-46599716D02*
X169055780Y-46647335D01*
X169055780Y-46647335D02*
X169103400Y-46694954D01*
X169103400Y-46694954D02*
X169151019Y-46790192D01*
X169151019Y-46790192D02*
X169151019Y-46933049D01*
X169151019Y-46171144D02*
X168484352Y-46171144D01*
X168579590Y-46171144D02*
X168531971Y-46123525D01*
X168531971Y-46123525D02*
X168484352Y-46028287D01*
X168484352Y-46028287D02*
X168484352Y-45885430D01*
X168484352Y-45885430D02*
X168531971Y-45790192D01*
X168531971Y-45790192D02*
X168627209Y-45742573D01*
X168627209Y-45742573D02*
X169151019Y-45742573D01*
X168627209Y-45742573D02*
X168531971Y-45694954D01*
X168531971Y-45694954D02*
X168484352Y-45599716D01*
X168484352Y-45599716D02*
X168484352Y-45456859D01*
X168484352Y-45456859D02*
X168531971Y-45361620D01*
X168531971Y-45361620D02*
X168627209Y-45314001D01*
X168627209Y-45314001D02*
X169151019Y-45314001D01*
X168484352Y-44837811D02*
X169484352Y-44837811D01*
X168531971Y-44837811D02*
X168484352Y-44742573D01*
X168484352Y-44742573D02*
X168484352Y-44552097D01*
X168484352Y-44552097D02*
X168531971Y-44456859D01*
X168531971Y-44456859D02*
X168579590Y-44409240D01*
X168579590Y-44409240D02*
X168674828Y-44361621D01*
X168674828Y-44361621D02*
X168960542Y-44361621D01*
X168960542Y-44361621D02*
X169055780Y-44409240D01*
X169055780Y-44409240D02*
X169103400Y-44456859D01*
X169103400Y-44456859D02*
X169151019Y-44552097D01*
X169151019Y-44552097D02*
X169151019Y-44742573D01*
X169151019Y-44742573D02*
X169103400Y-44837811D01*
X168484352Y-43266382D02*
X169151019Y-43028287D01*
X169151019Y-43028287D02*
X168484352Y-42790192D01*
X168246257Y-42456858D02*
X168198638Y-42409239D01*
X168198638Y-42409239D02*
X168151019Y-42314001D01*
X168151019Y-42314001D02*
X168151019Y-42075906D01*
X168151019Y-42075906D02*
X168198638Y-41980668D01*
X168198638Y-41980668D02*
X168246257Y-41933049D01*
X168246257Y-41933049D02*
X168341495Y-41885430D01*
X168341495Y-41885430D02*
X168436733Y-41885430D01*
X168436733Y-41885430D02*
X168579590Y-41933049D01*
X168579590Y-41933049D02*
X169151019Y-42504477D01*
X169151019Y-42504477D02*
X169151019Y-41885430D01*
X169761019Y-49933049D02*
X169761019Y-50123525D01*
X169761019Y-50123525D02*
X169808638Y-50218763D01*
X169808638Y-50218763D02*
X169856257Y-50266382D01*
X169856257Y-50266382D02*
X169999114Y-50361620D01*
X169999114Y-50361620D02*
X170189590Y-50409239D01*
X170189590Y-50409239D02*
X170570542Y-50409239D01*
X170570542Y-50409239D02*
X170665780Y-50361620D01*
X170665780Y-50361620D02*
X170713400Y-50314001D01*
X170713400Y-50314001D02*
X170761019Y-50218763D01*
X170761019Y-50218763D02*
X170761019Y-50028287D01*
X170761019Y-50028287D02*
X170713400Y-49933049D01*
X170713400Y-49933049D02*
X170665780Y-49885430D01*
X170665780Y-49885430D02*
X170570542Y-49837811D01*
X170570542Y-49837811D02*
X170332447Y-49837811D01*
X170332447Y-49837811D02*
X170237209Y-49885430D01*
X170237209Y-49885430D02*
X170189590Y-49933049D01*
X170189590Y-49933049D02*
X170141971Y-50028287D01*
X170141971Y-50028287D02*
X170141971Y-50218763D01*
X170141971Y-50218763D02*
X170189590Y-50314001D01*
X170189590Y-50314001D02*
X170237209Y-50361620D01*
X170237209Y-50361620D02*
X170332447Y-50409239D01*
X169761019Y-49504477D02*
X169761019Y-48885430D01*
X169761019Y-48885430D02*
X170141971Y-49218763D01*
X170141971Y-49218763D02*
X170141971Y-49075906D01*
X170141971Y-49075906D02*
X170189590Y-48980668D01*
X170189590Y-48980668D02*
X170237209Y-48933049D01*
X170237209Y-48933049D02*
X170332447Y-48885430D01*
X170332447Y-48885430D02*
X170570542Y-48885430D01*
X170570542Y-48885430D02*
X170665780Y-48933049D01*
X170665780Y-48933049D02*
X170713400Y-48980668D01*
X170713400Y-48980668D02*
X170761019Y-49075906D01*
X170761019Y-49075906D02*
X170761019Y-49361620D01*
X170761019Y-49361620D02*
X170713400Y-49456858D01*
X170713400Y-49456858D02*
X170665780Y-49504477D01*
X169761019Y-48266382D02*
X169761019Y-48171144D01*
X169761019Y-48171144D02*
X169808638Y-48075906D01*
X169808638Y-48075906D02*
X169856257Y-48028287D01*
X169856257Y-48028287D02*
X169951495Y-47980668D01*
X169951495Y-47980668D02*
X170141971Y-47933049D01*
X170141971Y-47933049D02*
X170380066Y-47933049D01*
X170380066Y-47933049D02*
X170570542Y-47980668D01*
X170570542Y-47980668D02*
X170665780Y-48028287D01*
X170665780Y-48028287D02*
X170713400Y-48075906D01*
X170713400Y-48075906D02*
X170761019Y-48171144D01*
X170761019Y-48171144D02*
X170761019Y-48266382D01*
X170761019Y-48266382D02*
X170713400Y-48361620D01*
X170713400Y-48361620D02*
X170665780Y-48409239D01*
X170665780Y-48409239D02*
X170570542Y-48456858D01*
X170570542Y-48456858D02*
X170380066Y-48504477D01*
X170380066Y-48504477D02*
X170141971Y-48504477D01*
X170141971Y-48504477D02*
X169951495Y-48456858D01*
X169951495Y-48456858D02*
X169856257Y-48409239D01*
X169856257Y-48409239D02*
X169808638Y-48361620D01*
X169808638Y-48361620D02*
X169761019Y-48266382D01*
X169761019Y-47599715D02*
X169761019Y-46980668D01*
X169761019Y-46980668D02*
X170141971Y-47314001D01*
X170141971Y-47314001D02*
X170141971Y-47171144D01*
X170141971Y-47171144D02*
X170189590Y-47075906D01*
X170189590Y-47075906D02*
X170237209Y-47028287D01*
X170237209Y-47028287D02*
X170332447Y-46980668D01*
X170332447Y-46980668D02*
X170570542Y-46980668D01*
X170570542Y-46980668D02*
X170665780Y-47028287D01*
X170665780Y-47028287D02*
X170713400Y-47075906D01*
X170713400Y-47075906D02*
X170761019Y-47171144D01*
X170761019Y-47171144D02*
X170761019Y-47456858D01*
X170761019Y-47456858D02*
X170713400Y-47552096D01*
X170713400Y-47552096D02*
X170665780Y-47599715D01*
X169761019Y-46647334D02*
X170761019Y-45980668D01*
X169761019Y-45980668D02*
X170761019Y-46647334D01*
X170665780Y-44266382D02*
X170713400Y-44314001D01*
X170713400Y-44314001D02*
X170761019Y-44456858D01*
X170761019Y-44456858D02*
X170761019Y-44552096D01*
X170761019Y-44552096D02*
X170713400Y-44694953D01*
X170713400Y-44694953D02*
X170618161Y-44790191D01*
X170618161Y-44790191D02*
X170522923Y-44837810D01*
X170522923Y-44837810D02*
X170332447Y-44885429D01*
X170332447Y-44885429D02*
X170189590Y-44885429D01*
X170189590Y-44885429D02*
X169999114Y-44837810D01*
X169999114Y-44837810D02*
X169903876Y-44790191D01*
X169903876Y-44790191D02*
X169808638Y-44694953D01*
X169808638Y-44694953D02*
X169761019Y-44552096D01*
X169761019Y-44552096D02*
X169761019Y-44456858D01*
X169761019Y-44456858D02*
X169808638Y-44314001D01*
X169808638Y-44314001D02*
X169856257Y-44266382D01*
X170761019Y-43837810D02*
X169761019Y-43837810D01*
X169761019Y-43837810D02*
X169761019Y-43456858D01*
X169761019Y-43456858D02*
X169808638Y-43361620D01*
X169808638Y-43361620D02*
X169856257Y-43314001D01*
X169856257Y-43314001D02*
X169951495Y-43266382D01*
X169951495Y-43266382D02*
X170094352Y-43266382D01*
X170094352Y-43266382D02*
X170189590Y-43314001D01*
X170189590Y-43314001D02*
X170237209Y-43361620D01*
X170237209Y-43361620D02*
X170284828Y-43456858D01*
X170284828Y-43456858D02*
X170284828Y-43837810D01*
X169761019Y-42837810D02*
X170570542Y-42837810D01*
X170570542Y-42837810D02*
X170665780Y-42790191D01*
X170665780Y-42790191D02*
X170713400Y-42742572D01*
X170713400Y-42742572D02*
X170761019Y-42647334D01*
X170761019Y-42647334D02*
X170761019Y-42456858D01*
X170761019Y-42456858D02*
X170713400Y-42361620D01*
X170713400Y-42361620D02*
X170665780Y-42314001D01*
X170665780Y-42314001D02*
X170570542Y-42266382D01*
X170570542Y-42266382D02*
X169761019Y-42266382D01*
X170475304Y-41075905D02*
X170475304Y-40599715D01*
X170761019Y-41171143D02*
X169761019Y-40837810D01*
X169761019Y-40837810D02*
X170761019Y-40504477D01*
X170761019Y-39742572D02*
X169761019Y-39742572D01*
X170713400Y-39742572D02*
X170761019Y-39837810D01*
X170761019Y-39837810D02*
X170761019Y-40028286D01*
X170761019Y-40028286D02*
X170713400Y-40123524D01*
X170713400Y-40123524D02*
X170665780Y-40171143D01*
X170665780Y-40171143D02*
X170570542Y-40218762D01*
X170570542Y-40218762D02*
X170284828Y-40218762D01*
X170284828Y-40218762D02*
X170189590Y-40171143D01*
X170189590Y-40171143D02*
X170141971Y-40123524D01*
X170141971Y-40123524D02*
X170094352Y-40028286D01*
X170094352Y-40028286D02*
X170094352Y-39837810D01*
X170094352Y-39837810D02*
X170141971Y-39742572D01*
X170761019Y-38837810D02*
X170237209Y-38837810D01*
X170237209Y-38837810D02*
X170141971Y-38885429D01*
X170141971Y-38885429D02*
X170094352Y-38980667D01*
X170094352Y-38980667D02*
X170094352Y-39171143D01*
X170094352Y-39171143D02*
X170141971Y-39266381D01*
X170713400Y-38837810D02*
X170761019Y-38933048D01*
X170761019Y-38933048D02*
X170761019Y-39171143D01*
X170761019Y-39171143D02*
X170713400Y-39266381D01*
X170713400Y-39266381D02*
X170618161Y-39314000D01*
X170618161Y-39314000D02*
X170522923Y-39314000D01*
X170522923Y-39314000D02*
X170427685Y-39266381D01*
X170427685Y-39266381D02*
X170380066Y-39171143D01*
X170380066Y-39171143D02*
X170380066Y-38933048D01*
X170380066Y-38933048D02*
X170332447Y-38837810D01*
X170094352Y-38361619D02*
X171094352Y-38361619D01*
X170141971Y-38361619D02*
X170094352Y-38266381D01*
X170094352Y-38266381D02*
X170094352Y-38075905D01*
X170094352Y-38075905D02*
X170141971Y-37980667D01*
X170141971Y-37980667D02*
X170189590Y-37933048D01*
X170189590Y-37933048D02*
X170284828Y-37885429D01*
X170284828Y-37885429D02*
X170570542Y-37885429D01*
X170570542Y-37885429D02*
X170665780Y-37933048D01*
X170665780Y-37933048D02*
X170713400Y-37980667D01*
X170713400Y-37980667D02*
X170761019Y-38075905D01*
X170761019Y-38075905D02*
X170761019Y-38266381D01*
X170761019Y-38266381D02*
X170713400Y-38361619D01*
X170094352Y-37599714D02*
X170094352Y-37218762D01*
X169761019Y-37456857D02*
X170618161Y-37456857D01*
X170618161Y-37456857D02*
X170713400Y-37409238D01*
X170713400Y-37409238D02*
X170761019Y-37314000D01*
X170761019Y-37314000D02*
X170761019Y-37218762D01*
X170713400Y-36504476D02*
X170761019Y-36599714D01*
X170761019Y-36599714D02*
X170761019Y-36790190D01*
X170761019Y-36790190D02*
X170713400Y-36885428D01*
X170713400Y-36885428D02*
X170618161Y-36933047D01*
X170618161Y-36933047D02*
X170237209Y-36933047D01*
X170237209Y-36933047D02*
X170141971Y-36885428D01*
X170141971Y-36885428D02*
X170094352Y-36790190D01*
X170094352Y-36790190D02*
X170094352Y-36599714D01*
X170094352Y-36599714D02*
X170141971Y-36504476D01*
X170141971Y-36504476D02*
X170237209Y-36456857D01*
X170237209Y-36456857D02*
X170332447Y-36456857D01*
X170332447Y-36456857D02*
X170427685Y-36933047D01*
X170761019Y-36028285D02*
X170094352Y-36028285D01*
X170284828Y-36028285D02*
X170189590Y-35980666D01*
X170189590Y-35980666D02*
X170141971Y-35933047D01*
X170141971Y-35933047D02*
X170094352Y-35837809D01*
X170094352Y-35837809D02*
X170094352Y-35742571D01*
X169110588Y-53856509D02*
X169110588Y-52306509D01*
X169110588Y-52306509D02*
X169529636Y-52306509D01*
X169529636Y-52306509D02*
X169634398Y-52380319D01*
X169634398Y-52380319D02*
X169686779Y-52454128D01*
X169686779Y-52454128D02*
X169739160Y-52601747D01*
X169739160Y-52601747D02*
X169739160Y-52823176D01*
X169739160Y-52823176D02*
X169686779Y-52970795D01*
X169686779Y-52970795D02*
X169634398Y-53044604D01*
X169634398Y-53044604D02*
X169529636Y-53118414D01*
X169529636Y-53118414D02*
X169110588Y-53118414D01*
X170158207Y-52454128D02*
X170210588Y-52380319D01*
X170210588Y-52380319D02*
X170315350Y-52306509D01*
X170315350Y-52306509D02*
X170577255Y-52306509D01*
X170577255Y-52306509D02*
X170682017Y-52380319D01*
X170682017Y-52380319D02*
X170734398Y-52454128D01*
X170734398Y-52454128D02*
X170786779Y-52601747D01*
X170786779Y-52601747D02*
X170786779Y-52749366D01*
X170786779Y-52749366D02*
X170734398Y-52970795D01*
X170734398Y-52970795D02*
X170105826Y-53856509D01*
X170105826Y-53856509D02*
X170786779Y-53856509D01*
X171467731Y-52306509D02*
X171572493Y-52306509D01*
X171572493Y-52306509D02*
X171677255Y-52380319D01*
X171677255Y-52380319D02*
X171729636Y-52454128D01*
X171729636Y-52454128D02*
X171782017Y-52601747D01*
X171782017Y-52601747D02*
X171834398Y-52896985D01*
X171834398Y-52896985D02*
X171834398Y-53266033D01*
X171834398Y-53266033D02*
X171782017Y-53561271D01*
X171782017Y-53561271D02*
X171729636Y-53708890D01*
X171729636Y-53708890D02*
X171677255Y-53782700D01*
X171677255Y-53782700D02*
X171572493Y-53856509D01*
X171572493Y-53856509D02*
X171467731Y-53856509D01*
X171467731Y-53856509D02*
X171362969Y-53782700D01*
X171362969Y-53782700D02*
X171310588Y-53708890D01*
X171310588Y-53708890D02*
X171258207Y-53561271D01*
X171258207Y-53561271D02*
X171205826Y-53266033D01*
X171205826Y-53266033D02*
X171205826Y-52896985D01*
X171205826Y-52896985D02*
X171258207Y-52601747D01*
X171258207Y-52601747D02*
X171310588Y-52454128D01*
X171310588Y-52454128D02*
X171362969Y-52380319D01*
X171362969Y-52380319D02*
X171467731Y-52306509D01*
X169110588Y-56352009D02*
X169110588Y-54802009D01*
X169110588Y-54802009D02*
X169529636Y-54802009D01*
X169529636Y-54802009D02*
X169634398Y-54875819D01*
X169634398Y-54875819D02*
X169686779Y-54949628D01*
X169686779Y-54949628D02*
X169739160Y-55097247D01*
X169739160Y-55097247D02*
X169739160Y-55318676D01*
X169739160Y-55318676D02*
X169686779Y-55466295D01*
X169686779Y-55466295D02*
X169634398Y-55540104D01*
X169634398Y-55540104D02*
X169529636Y-55613914D01*
X169529636Y-55613914D02*
X169110588Y-55613914D01*
X170158207Y-54949628D02*
X170210588Y-54875819D01*
X170210588Y-54875819D02*
X170315350Y-54802009D01*
X170315350Y-54802009D02*
X170577255Y-54802009D01*
X170577255Y-54802009D02*
X170682017Y-54875819D01*
X170682017Y-54875819D02*
X170734398Y-54949628D01*
X170734398Y-54949628D02*
X170786779Y-55097247D01*
X170786779Y-55097247D02*
X170786779Y-55244866D01*
X170786779Y-55244866D02*
X170734398Y-55466295D01*
X170734398Y-55466295D02*
X170105826Y-56352009D01*
X170105826Y-56352009D02*
X170786779Y-56352009D01*
X171205826Y-54949628D02*
X171258207Y-54875819D01*
X171258207Y-54875819D02*
X171362969Y-54802009D01*
X171362969Y-54802009D02*
X171624874Y-54802009D01*
X171624874Y-54802009D02*
X171729636Y-54875819D01*
X171729636Y-54875819D02*
X171782017Y-54949628D01*
X171782017Y-54949628D02*
X171834398Y-55097247D01*
X171834398Y-55097247D02*
X171834398Y-55244866D01*
X171834398Y-55244866D02*
X171782017Y-55466295D01*
X171782017Y-55466295D02*
X171153445Y-56352009D01*
X171153445Y-56352009D02*
X171834398Y-56352009D01*
X169110588Y-58847509D02*
X169110588Y-57297509D01*
X169110588Y-57297509D02*
X169529636Y-57297509D01*
X169529636Y-57297509D02*
X169634398Y-57371319D01*
X169634398Y-57371319D02*
X169686779Y-57445128D01*
X169686779Y-57445128D02*
X169739160Y-57592747D01*
X169739160Y-57592747D02*
X169739160Y-57814176D01*
X169739160Y-57814176D02*
X169686779Y-57961795D01*
X169686779Y-57961795D02*
X169634398Y-58035604D01*
X169634398Y-58035604D02*
X169529636Y-58109414D01*
X169529636Y-58109414D02*
X169110588Y-58109414D01*
X170158207Y-57445128D02*
X170210588Y-57371319D01*
X170210588Y-57371319D02*
X170315350Y-57297509D01*
X170315350Y-57297509D02*
X170577255Y-57297509D01*
X170577255Y-57297509D02*
X170682017Y-57371319D01*
X170682017Y-57371319D02*
X170734398Y-57445128D01*
X170734398Y-57445128D02*
X170786779Y-57592747D01*
X170786779Y-57592747D02*
X170786779Y-57740366D01*
X170786779Y-57740366D02*
X170734398Y-57961795D01*
X170734398Y-57961795D02*
X170105826Y-58847509D01*
X170105826Y-58847509D02*
X170786779Y-58847509D01*
X171729636Y-57814176D02*
X171729636Y-58847509D01*
X171467731Y-57223700D02*
X171205826Y-58330842D01*
X171205826Y-58330842D02*
X171886779Y-58330842D01*
X169110588Y-61343009D02*
X169110588Y-59793009D01*
X169110588Y-59793009D02*
X169529636Y-59793009D01*
X169529636Y-59793009D02*
X169634398Y-59866819D01*
X169634398Y-59866819D02*
X169686779Y-59940628D01*
X169686779Y-59940628D02*
X169739160Y-60088247D01*
X169739160Y-60088247D02*
X169739160Y-60309676D01*
X169739160Y-60309676D02*
X169686779Y-60457295D01*
X169686779Y-60457295D02*
X169634398Y-60531104D01*
X169634398Y-60531104D02*
X169529636Y-60604914D01*
X169529636Y-60604914D02*
X169110588Y-60604914D01*
X170158207Y-59940628D02*
X170210588Y-59866819D01*
X170210588Y-59866819D02*
X170315350Y-59793009D01*
X170315350Y-59793009D02*
X170577255Y-59793009D01*
X170577255Y-59793009D02*
X170682017Y-59866819D01*
X170682017Y-59866819D02*
X170734398Y-59940628D01*
X170734398Y-59940628D02*
X170786779Y-60088247D01*
X170786779Y-60088247D02*
X170786779Y-60235866D01*
X170786779Y-60235866D02*
X170734398Y-60457295D01*
X170734398Y-60457295D02*
X170105826Y-61343009D01*
X170105826Y-61343009D02*
X170786779Y-61343009D01*
X171729636Y-59793009D02*
X171520112Y-59793009D01*
X171520112Y-59793009D02*
X171415350Y-59866819D01*
X171415350Y-59866819D02*
X171362969Y-59940628D01*
X171362969Y-59940628D02*
X171258207Y-60162057D01*
X171258207Y-60162057D02*
X171205826Y-60457295D01*
X171205826Y-60457295D02*
X171205826Y-61047771D01*
X171205826Y-61047771D02*
X171258207Y-61195390D01*
X171258207Y-61195390D02*
X171310588Y-61269200D01*
X171310588Y-61269200D02*
X171415350Y-61343009D01*
X171415350Y-61343009D02*
X171624874Y-61343009D01*
X171624874Y-61343009D02*
X171729636Y-61269200D01*
X171729636Y-61269200D02*
X171782017Y-61195390D01*
X171782017Y-61195390D02*
X171834398Y-61047771D01*
X171834398Y-61047771D02*
X171834398Y-60678723D01*
X171834398Y-60678723D02*
X171782017Y-60531104D01*
X171782017Y-60531104D02*
X171729636Y-60457295D01*
X171729636Y-60457295D02*
X171624874Y-60383485D01*
X171624874Y-60383485D02*
X171415350Y-60383485D01*
X171415350Y-60383485D02*
X171310588Y-60457295D01*
X171310588Y-60457295D02*
X171258207Y-60531104D01*
X171258207Y-60531104D02*
X171205826Y-60678723D01*
X169110588Y-63838509D02*
X169110588Y-62288509D01*
X169110588Y-62288509D02*
X169529636Y-62288509D01*
X169529636Y-62288509D02*
X169634398Y-62362319D01*
X169634398Y-62362319D02*
X169686779Y-62436128D01*
X169686779Y-62436128D02*
X169739160Y-62583747D01*
X169739160Y-62583747D02*
X169739160Y-62805176D01*
X169739160Y-62805176D02*
X169686779Y-62952795D01*
X169686779Y-62952795D02*
X169634398Y-63026604D01*
X169634398Y-63026604D02*
X169529636Y-63100414D01*
X169529636Y-63100414D02*
X169110588Y-63100414D01*
X170734398Y-62288509D02*
X170210588Y-62288509D01*
X170210588Y-62288509D02*
X170158207Y-63026604D01*
X170158207Y-63026604D02*
X170210588Y-62952795D01*
X170210588Y-62952795D02*
X170315350Y-62878985D01*
X170315350Y-62878985D02*
X170577255Y-62878985D01*
X170577255Y-62878985D02*
X170682017Y-62952795D01*
X170682017Y-62952795D02*
X170734398Y-63026604D01*
X170734398Y-63026604D02*
X170786779Y-63174223D01*
X170786779Y-63174223D02*
X170786779Y-63543271D01*
X170786779Y-63543271D02*
X170734398Y-63690890D01*
X170734398Y-63690890D02*
X170682017Y-63764700D01*
X170682017Y-63764700D02*
X170577255Y-63838509D01*
X170577255Y-63838509D02*
X170315350Y-63838509D01*
X170315350Y-63838509D02*
X170210588Y-63764700D01*
X170210588Y-63764700D02*
X170158207Y-63690890D01*
X171467731Y-62288509D02*
X171572493Y-62288509D01*
X171572493Y-62288509D02*
X171677255Y-62362319D01*
X171677255Y-62362319D02*
X171729636Y-62436128D01*
X171729636Y-62436128D02*
X171782017Y-62583747D01*
X171782017Y-62583747D02*
X171834398Y-62878985D01*
X171834398Y-62878985D02*
X171834398Y-63248033D01*
X171834398Y-63248033D02*
X171782017Y-63543271D01*
X171782017Y-63543271D02*
X171729636Y-63690890D01*
X171729636Y-63690890D02*
X171677255Y-63764700D01*
X171677255Y-63764700D02*
X171572493Y-63838509D01*
X171572493Y-63838509D02*
X171467731Y-63838509D01*
X171467731Y-63838509D02*
X171362969Y-63764700D01*
X171362969Y-63764700D02*
X171310588Y-63690890D01*
X171310588Y-63690890D02*
X171258207Y-63543271D01*
X171258207Y-63543271D02*
X171205826Y-63248033D01*
X171205826Y-63248033D02*
X171205826Y-62878985D01*
X171205826Y-62878985D02*
X171258207Y-62583747D01*
X171258207Y-62583747D02*
X171310588Y-62436128D01*
X171310588Y-62436128D02*
X171362969Y-62362319D01*
X171362969Y-62362319D02*
X171467731Y-62288509D01*
X169110588Y-66334009D02*
X169110588Y-64784009D01*
X169110588Y-64784009D02*
X169529636Y-64784009D01*
X169529636Y-64784009D02*
X169634398Y-64857819D01*
X169634398Y-64857819D02*
X169686779Y-64931628D01*
X169686779Y-64931628D02*
X169739160Y-65079247D01*
X169739160Y-65079247D02*
X169739160Y-65300676D01*
X169739160Y-65300676D02*
X169686779Y-65448295D01*
X169686779Y-65448295D02*
X169634398Y-65522104D01*
X169634398Y-65522104D02*
X169529636Y-65595914D01*
X169529636Y-65595914D02*
X169110588Y-65595914D01*
X170734398Y-64784009D02*
X170210588Y-64784009D01*
X170210588Y-64784009D02*
X170158207Y-65522104D01*
X170158207Y-65522104D02*
X170210588Y-65448295D01*
X170210588Y-65448295D02*
X170315350Y-65374485D01*
X170315350Y-65374485D02*
X170577255Y-65374485D01*
X170577255Y-65374485D02*
X170682017Y-65448295D01*
X170682017Y-65448295D02*
X170734398Y-65522104D01*
X170734398Y-65522104D02*
X170786779Y-65669723D01*
X170786779Y-65669723D02*
X170786779Y-66038771D01*
X170786779Y-66038771D02*
X170734398Y-66186390D01*
X170734398Y-66186390D02*
X170682017Y-66260200D01*
X170682017Y-66260200D02*
X170577255Y-66334009D01*
X170577255Y-66334009D02*
X170315350Y-66334009D01*
X170315350Y-66334009D02*
X170210588Y-66260200D01*
X170210588Y-66260200D02*
X170158207Y-66186390D01*
X171205826Y-64931628D02*
X171258207Y-64857819D01*
X171258207Y-64857819D02*
X171362969Y-64784009D01*
X171362969Y-64784009D02*
X171624874Y-64784009D01*
X171624874Y-64784009D02*
X171729636Y-64857819D01*
X171729636Y-64857819D02*
X171782017Y-64931628D01*
X171782017Y-64931628D02*
X171834398Y-65079247D01*
X171834398Y-65079247D02*
X171834398Y-65226866D01*
X171834398Y-65226866D02*
X171782017Y-65448295D01*
X171782017Y-65448295D02*
X171153445Y-66334009D01*
X171153445Y-66334009D02*
X171834398Y-66334009D01*
X169110588Y-68829509D02*
X169110588Y-67279509D01*
X169110588Y-67279509D02*
X169529636Y-67279509D01*
X169529636Y-67279509D02*
X169634398Y-67353319D01*
X169634398Y-67353319D02*
X169686779Y-67427128D01*
X169686779Y-67427128D02*
X169739160Y-67574747D01*
X169739160Y-67574747D02*
X169739160Y-67796176D01*
X169739160Y-67796176D02*
X169686779Y-67943795D01*
X169686779Y-67943795D02*
X169634398Y-68017604D01*
X169634398Y-68017604D02*
X169529636Y-68091414D01*
X169529636Y-68091414D02*
X169110588Y-68091414D01*
X170734398Y-67279509D02*
X170210588Y-67279509D01*
X170210588Y-67279509D02*
X170158207Y-68017604D01*
X170158207Y-68017604D02*
X170210588Y-67943795D01*
X170210588Y-67943795D02*
X170315350Y-67869985D01*
X170315350Y-67869985D02*
X170577255Y-67869985D01*
X170577255Y-67869985D02*
X170682017Y-67943795D01*
X170682017Y-67943795D02*
X170734398Y-68017604D01*
X170734398Y-68017604D02*
X170786779Y-68165223D01*
X170786779Y-68165223D02*
X170786779Y-68534271D01*
X170786779Y-68534271D02*
X170734398Y-68681890D01*
X170734398Y-68681890D02*
X170682017Y-68755700D01*
X170682017Y-68755700D02*
X170577255Y-68829509D01*
X170577255Y-68829509D02*
X170315350Y-68829509D01*
X170315350Y-68829509D02*
X170210588Y-68755700D01*
X170210588Y-68755700D02*
X170158207Y-68681890D01*
X171729636Y-67796176D02*
X171729636Y-68829509D01*
X171467731Y-67205700D02*
X171205826Y-68312842D01*
X171205826Y-68312842D02*
X171886779Y-68312842D01*
X169110588Y-71325009D02*
X169110588Y-69775009D01*
X169110588Y-69775009D02*
X169529636Y-69775009D01*
X169529636Y-69775009D02*
X169634398Y-69848819D01*
X169634398Y-69848819D02*
X169686779Y-69922628D01*
X169686779Y-69922628D02*
X169739160Y-70070247D01*
X169739160Y-70070247D02*
X169739160Y-70291676D01*
X169739160Y-70291676D02*
X169686779Y-70439295D01*
X169686779Y-70439295D02*
X169634398Y-70513104D01*
X169634398Y-70513104D02*
X169529636Y-70586914D01*
X169529636Y-70586914D02*
X169110588Y-70586914D01*
X170734398Y-69775009D02*
X170210588Y-69775009D01*
X170210588Y-69775009D02*
X170158207Y-70513104D01*
X170158207Y-70513104D02*
X170210588Y-70439295D01*
X170210588Y-70439295D02*
X170315350Y-70365485D01*
X170315350Y-70365485D02*
X170577255Y-70365485D01*
X170577255Y-70365485D02*
X170682017Y-70439295D01*
X170682017Y-70439295D02*
X170734398Y-70513104D01*
X170734398Y-70513104D02*
X170786779Y-70660723D01*
X170786779Y-70660723D02*
X170786779Y-71029771D01*
X170786779Y-71029771D02*
X170734398Y-71177390D01*
X170734398Y-71177390D02*
X170682017Y-71251200D01*
X170682017Y-71251200D02*
X170577255Y-71325009D01*
X170577255Y-71325009D02*
X170315350Y-71325009D01*
X170315350Y-71325009D02*
X170210588Y-71251200D01*
X170210588Y-71251200D02*
X170158207Y-71177390D01*
X171729636Y-69775009D02*
X171520112Y-69775009D01*
X171520112Y-69775009D02*
X171415350Y-69848819D01*
X171415350Y-69848819D02*
X171362969Y-69922628D01*
X171362969Y-69922628D02*
X171258207Y-70144057D01*
X171258207Y-70144057D02*
X171205826Y-70439295D01*
X171205826Y-70439295D02*
X171205826Y-71029771D01*
X171205826Y-71029771D02*
X171258207Y-71177390D01*
X171258207Y-71177390D02*
X171310588Y-71251200D01*
X171310588Y-71251200D02*
X171415350Y-71325009D01*
X171415350Y-71325009D02*
X171624874Y-71325009D01*
X171624874Y-71325009D02*
X171729636Y-71251200D01*
X171729636Y-71251200D02*
X171782017Y-71177390D01*
X171782017Y-71177390D02*
X171834398Y-71029771D01*
X171834398Y-71029771D02*
X171834398Y-70660723D01*
X171834398Y-70660723D02*
X171782017Y-70513104D01*
X171782017Y-70513104D02*
X171729636Y-70439295D01*
X171729636Y-70439295D02*
X171624874Y-70365485D01*
X171624874Y-70365485D02*
X171415350Y-70365485D01*
X171415350Y-70365485D02*
X171310588Y-70439295D01*
X171310588Y-70439295D02*
X171258207Y-70513104D01*
X171258207Y-70513104D02*
X171205826Y-70660723D01*
X169110588Y-73820509D02*
X169110588Y-72270509D01*
X169110588Y-72270509D02*
X169529636Y-72270509D01*
X169529636Y-72270509D02*
X169634398Y-72344319D01*
X169634398Y-72344319D02*
X169686779Y-72418128D01*
X169686779Y-72418128D02*
X169739160Y-72565747D01*
X169739160Y-72565747D02*
X169739160Y-72787176D01*
X169739160Y-72787176D02*
X169686779Y-72934795D01*
X169686779Y-72934795D02*
X169634398Y-73008604D01*
X169634398Y-73008604D02*
X169529636Y-73082414D01*
X169529636Y-73082414D02*
X169110588Y-73082414D01*
X170682017Y-72270509D02*
X170472493Y-72270509D01*
X170472493Y-72270509D02*
X170367731Y-72344319D01*
X170367731Y-72344319D02*
X170315350Y-72418128D01*
X170315350Y-72418128D02*
X170210588Y-72639557D01*
X170210588Y-72639557D02*
X170158207Y-72934795D01*
X170158207Y-72934795D02*
X170158207Y-73525271D01*
X170158207Y-73525271D02*
X170210588Y-73672890D01*
X170210588Y-73672890D02*
X170262969Y-73746700D01*
X170262969Y-73746700D02*
X170367731Y-73820509D01*
X170367731Y-73820509D02*
X170577255Y-73820509D01*
X170577255Y-73820509D02*
X170682017Y-73746700D01*
X170682017Y-73746700D02*
X170734398Y-73672890D01*
X170734398Y-73672890D02*
X170786779Y-73525271D01*
X170786779Y-73525271D02*
X170786779Y-73156223D01*
X170786779Y-73156223D02*
X170734398Y-73008604D01*
X170734398Y-73008604D02*
X170682017Y-72934795D01*
X170682017Y-72934795D02*
X170577255Y-72860985D01*
X170577255Y-72860985D02*
X170367731Y-72860985D01*
X170367731Y-72860985D02*
X170262969Y-72934795D01*
X170262969Y-72934795D02*
X170210588Y-73008604D01*
X170210588Y-73008604D02*
X170158207Y-73156223D01*
X171467731Y-72270509D02*
X171572493Y-72270509D01*
X171572493Y-72270509D02*
X171677255Y-72344319D01*
X171677255Y-72344319D02*
X171729636Y-72418128D01*
X171729636Y-72418128D02*
X171782017Y-72565747D01*
X171782017Y-72565747D02*
X171834398Y-72860985D01*
X171834398Y-72860985D02*
X171834398Y-73230033D01*
X171834398Y-73230033D02*
X171782017Y-73525271D01*
X171782017Y-73525271D02*
X171729636Y-73672890D01*
X171729636Y-73672890D02*
X171677255Y-73746700D01*
X171677255Y-73746700D02*
X171572493Y-73820509D01*
X171572493Y-73820509D02*
X171467731Y-73820509D01*
X171467731Y-73820509D02*
X171362969Y-73746700D01*
X171362969Y-73746700D02*
X171310588Y-73672890D01*
X171310588Y-73672890D02*
X171258207Y-73525271D01*
X171258207Y-73525271D02*
X171205826Y-73230033D01*
X171205826Y-73230033D02*
X171205826Y-72860985D01*
X171205826Y-72860985D02*
X171258207Y-72565747D01*
X171258207Y-72565747D02*
X171310588Y-72418128D01*
X171310588Y-72418128D02*
X171362969Y-72344319D01*
X171362969Y-72344319D02*
X171467731Y-72270509D01*
X169110588Y-76316009D02*
X169110588Y-74766009D01*
X169110588Y-74766009D02*
X169529636Y-74766009D01*
X169529636Y-74766009D02*
X169634398Y-74839819D01*
X169634398Y-74839819D02*
X169686779Y-74913628D01*
X169686779Y-74913628D02*
X169739160Y-75061247D01*
X169739160Y-75061247D02*
X169739160Y-75282676D01*
X169739160Y-75282676D02*
X169686779Y-75430295D01*
X169686779Y-75430295D02*
X169634398Y-75504104D01*
X169634398Y-75504104D02*
X169529636Y-75577914D01*
X169529636Y-75577914D02*
X169110588Y-75577914D01*
X170682017Y-74766009D02*
X170472493Y-74766009D01*
X170472493Y-74766009D02*
X170367731Y-74839819D01*
X170367731Y-74839819D02*
X170315350Y-74913628D01*
X170315350Y-74913628D02*
X170210588Y-75135057D01*
X170210588Y-75135057D02*
X170158207Y-75430295D01*
X170158207Y-75430295D02*
X170158207Y-76020771D01*
X170158207Y-76020771D02*
X170210588Y-76168390D01*
X170210588Y-76168390D02*
X170262969Y-76242200D01*
X170262969Y-76242200D02*
X170367731Y-76316009D01*
X170367731Y-76316009D02*
X170577255Y-76316009D01*
X170577255Y-76316009D02*
X170682017Y-76242200D01*
X170682017Y-76242200D02*
X170734398Y-76168390D01*
X170734398Y-76168390D02*
X170786779Y-76020771D01*
X170786779Y-76020771D02*
X170786779Y-75651723D01*
X170786779Y-75651723D02*
X170734398Y-75504104D01*
X170734398Y-75504104D02*
X170682017Y-75430295D01*
X170682017Y-75430295D02*
X170577255Y-75356485D01*
X170577255Y-75356485D02*
X170367731Y-75356485D01*
X170367731Y-75356485D02*
X170262969Y-75430295D01*
X170262969Y-75430295D02*
X170210588Y-75504104D01*
X170210588Y-75504104D02*
X170158207Y-75651723D01*
X171205826Y-74913628D02*
X171258207Y-74839819D01*
X171258207Y-74839819D02*
X171362969Y-74766009D01*
X171362969Y-74766009D02*
X171624874Y-74766009D01*
X171624874Y-74766009D02*
X171729636Y-74839819D01*
X171729636Y-74839819D02*
X171782017Y-74913628D01*
X171782017Y-74913628D02*
X171834398Y-75061247D01*
X171834398Y-75061247D02*
X171834398Y-75208866D01*
X171834398Y-75208866D02*
X171782017Y-75430295D01*
X171782017Y-75430295D02*
X171153445Y-76316009D01*
X171153445Y-76316009D02*
X171834398Y-76316009D01*
X169110588Y-78811509D02*
X169110588Y-77261509D01*
X169110588Y-77261509D02*
X169529636Y-77261509D01*
X169529636Y-77261509D02*
X169634398Y-77335319D01*
X169634398Y-77335319D02*
X169686779Y-77409128D01*
X169686779Y-77409128D02*
X169739160Y-77556747D01*
X169739160Y-77556747D02*
X169739160Y-77778176D01*
X169739160Y-77778176D02*
X169686779Y-77925795D01*
X169686779Y-77925795D02*
X169634398Y-77999604D01*
X169634398Y-77999604D02*
X169529636Y-78073414D01*
X169529636Y-78073414D02*
X169110588Y-78073414D01*
X170682017Y-77261509D02*
X170472493Y-77261509D01*
X170472493Y-77261509D02*
X170367731Y-77335319D01*
X170367731Y-77335319D02*
X170315350Y-77409128D01*
X170315350Y-77409128D02*
X170210588Y-77630557D01*
X170210588Y-77630557D02*
X170158207Y-77925795D01*
X170158207Y-77925795D02*
X170158207Y-78516271D01*
X170158207Y-78516271D02*
X170210588Y-78663890D01*
X170210588Y-78663890D02*
X170262969Y-78737700D01*
X170262969Y-78737700D02*
X170367731Y-78811509D01*
X170367731Y-78811509D02*
X170577255Y-78811509D01*
X170577255Y-78811509D02*
X170682017Y-78737700D01*
X170682017Y-78737700D02*
X170734398Y-78663890D01*
X170734398Y-78663890D02*
X170786779Y-78516271D01*
X170786779Y-78516271D02*
X170786779Y-78147223D01*
X170786779Y-78147223D02*
X170734398Y-77999604D01*
X170734398Y-77999604D02*
X170682017Y-77925795D01*
X170682017Y-77925795D02*
X170577255Y-77851985D01*
X170577255Y-77851985D02*
X170367731Y-77851985D01*
X170367731Y-77851985D02*
X170262969Y-77925795D01*
X170262969Y-77925795D02*
X170210588Y-77999604D01*
X170210588Y-77999604D02*
X170158207Y-78147223D01*
X171729636Y-77778176D02*
X171729636Y-78811509D01*
X171467731Y-77187700D02*
X171205826Y-78294842D01*
X171205826Y-78294842D02*
X171886779Y-78294842D01*
X169110588Y-81307009D02*
X169110588Y-79757009D01*
X169110588Y-79757009D02*
X169529636Y-79757009D01*
X169529636Y-79757009D02*
X169634398Y-79830819D01*
X169634398Y-79830819D02*
X169686779Y-79904628D01*
X169686779Y-79904628D02*
X169739160Y-80052247D01*
X169739160Y-80052247D02*
X169739160Y-80273676D01*
X169739160Y-80273676D02*
X169686779Y-80421295D01*
X169686779Y-80421295D02*
X169634398Y-80495104D01*
X169634398Y-80495104D02*
X169529636Y-80568914D01*
X169529636Y-80568914D02*
X169110588Y-80568914D01*
X170682017Y-79757009D02*
X170472493Y-79757009D01*
X170472493Y-79757009D02*
X170367731Y-79830819D01*
X170367731Y-79830819D02*
X170315350Y-79904628D01*
X170315350Y-79904628D02*
X170210588Y-80126057D01*
X170210588Y-80126057D02*
X170158207Y-80421295D01*
X170158207Y-80421295D02*
X170158207Y-81011771D01*
X170158207Y-81011771D02*
X170210588Y-81159390D01*
X170210588Y-81159390D02*
X170262969Y-81233200D01*
X170262969Y-81233200D02*
X170367731Y-81307009D01*
X170367731Y-81307009D02*
X170577255Y-81307009D01*
X170577255Y-81307009D02*
X170682017Y-81233200D01*
X170682017Y-81233200D02*
X170734398Y-81159390D01*
X170734398Y-81159390D02*
X170786779Y-81011771D01*
X170786779Y-81011771D02*
X170786779Y-80642723D01*
X170786779Y-80642723D02*
X170734398Y-80495104D01*
X170734398Y-80495104D02*
X170682017Y-80421295D01*
X170682017Y-80421295D02*
X170577255Y-80347485D01*
X170577255Y-80347485D02*
X170367731Y-80347485D01*
X170367731Y-80347485D02*
X170262969Y-80421295D01*
X170262969Y-80421295D02*
X170210588Y-80495104D01*
X170210588Y-80495104D02*
X170158207Y-80642723D01*
X171729636Y-79757009D02*
X171520112Y-79757009D01*
X171520112Y-79757009D02*
X171415350Y-79830819D01*
X171415350Y-79830819D02*
X171362969Y-79904628D01*
X171362969Y-79904628D02*
X171258207Y-80126057D01*
X171258207Y-80126057D02*
X171205826Y-80421295D01*
X171205826Y-80421295D02*
X171205826Y-81011771D01*
X171205826Y-81011771D02*
X171258207Y-81159390D01*
X171258207Y-81159390D02*
X171310588Y-81233200D01*
X171310588Y-81233200D02*
X171415350Y-81307009D01*
X171415350Y-81307009D02*
X171624874Y-81307009D01*
X171624874Y-81307009D02*
X171729636Y-81233200D01*
X171729636Y-81233200D02*
X171782017Y-81159390D01*
X171782017Y-81159390D02*
X171834398Y-81011771D01*
X171834398Y-81011771D02*
X171834398Y-80642723D01*
X171834398Y-80642723D02*
X171782017Y-80495104D01*
X171782017Y-80495104D02*
X171729636Y-80421295D01*
X171729636Y-80421295D02*
X171624874Y-80347485D01*
X171624874Y-80347485D02*
X171415350Y-80347485D01*
X171415350Y-80347485D02*
X171310588Y-80421295D01*
X171310588Y-80421295D02*
X171258207Y-80495104D01*
X171258207Y-80495104D02*
X171205826Y-80642723D01*
X169686779Y-82326319D02*
X169582017Y-82252509D01*
X169582017Y-82252509D02*
X169424874Y-82252509D01*
X169424874Y-82252509D02*
X169267731Y-82326319D01*
X169267731Y-82326319D02*
X169162969Y-82473938D01*
X169162969Y-82473938D02*
X169110588Y-82621557D01*
X169110588Y-82621557D02*
X169058207Y-82916795D01*
X169058207Y-82916795D02*
X169058207Y-83138223D01*
X169058207Y-83138223D02*
X169110588Y-83433461D01*
X169110588Y-83433461D02*
X169162969Y-83581080D01*
X169162969Y-83581080D02*
X169267731Y-83728700D01*
X169267731Y-83728700D02*
X169424874Y-83802509D01*
X169424874Y-83802509D02*
X169529636Y-83802509D01*
X169529636Y-83802509D02*
X169686779Y-83728700D01*
X169686779Y-83728700D02*
X169739160Y-83654890D01*
X169739160Y-83654890D02*
X169739160Y-83138223D01*
X169739160Y-83138223D02*
X169529636Y-83138223D01*
X170210588Y-83802509D02*
X170210588Y-82252509D01*
X170210588Y-82252509D02*
X170839160Y-83802509D01*
X170839160Y-83802509D02*
X170839160Y-82252509D01*
X171362969Y-83802509D02*
X171362969Y-82252509D01*
X171362969Y-82252509D02*
X171624874Y-82252509D01*
X171624874Y-82252509D02*
X171782017Y-82326319D01*
X171782017Y-82326319D02*
X171886779Y-82473938D01*
X171886779Y-82473938D02*
X171939160Y-82621557D01*
X171939160Y-82621557D02*
X171991541Y-82916795D01*
X171991541Y-82916795D02*
X171991541Y-83138223D01*
X171991541Y-83138223D02*
X171939160Y-83433461D01*
X171939160Y-83433461D02*
X171886779Y-83581080D01*
X171886779Y-83581080D02*
X171782017Y-83728700D01*
X171782017Y-83728700D02*
X171624874Y-83802509D01*
X171624874Y-83802509D02*
X171362969Y-83802509D01*
X184229819Y-70684404D02*
X185039342Y-70684404D01*
X185039342Y-70684404D02*
X185134580Y-70636785D01*
X185134580Y-70636785D02*
X185182200Y-70589166D01*
X185182200Y-70589166D02*
X185229819Y-70493928D01*
X185229819Y-70493928D02*
X185229819Y-70303452D01*
X185229819Y-70303452D02*
X185182200Y-70208214D01*
X185182200Y-70208214D02*
X185134580Y-70160595D01*
X185134580Y-70160595D02*
X185039342Y-70112976D01*
X185039342Y-70112976D02*
X184229819Y-70112976D01*
X185229819Y-69112976D02*
X185229819Y-69684404D01*
X185229819Y-69398690D02*
X184229819Y-69398690D01*
X184229819Y-69398690D02*
X184372676Y-69493928D01*
X184372676Y-69493928D02*
X184467914Y-69589166D01*
X184467914Y-69589166D02*
X184515533Y-69684404D01*
D11*
%TO.C,U1*%
X214035000Y-82707500D02*
X212385000Y-82707500D01*
X189615000Y-82707500D02*
X190115000Y-82707500D01*
D12*
X216875000Y-85547500D02*
X216875000Y-54297500D01*
X185625000Y-54297500D02*
X185625000Y-68922500D01*
D11*
X188465000Y-57137500D02*
X190115000Y-57137500D01*
X188465000Y-81557500D02*
X189615000Y-82707500D01*
X214035000Y-81057500D02*
X214035000Y-82707500D01*
X188465000Y-81057500D02*
X188465000Y-81557500D01*
X188465000Y-58787500D02*
X188465000Y-57137500D01*
X214035000Y-58787500D02*
X214035000Y-57137500D01*
D12*
X185625000Y-84547500D02*
X186625000Y-85547500D01*
X216875000Y-54297500D02*
X185625000Y-54297500D01*
X185625000Y-70922500D02*
X185625000Y-84547500D01*
D11*
X214035000Y-57137500D02*
X212385000Y-57137500D01*
D12*
X186625000Y-85547500D02*
X216875000Y-85547500D01*
%TO.C,JP1*%
X179416400Y-65162200D02*
X180746400Y-65162200D01*
X179416400Y-66492200D02*
X179416400Y-65162200D01*
X179416400Y-67762200D02*
X179416400Y-70362200D01*
X179416400Y-67762200D02*
X182076400Y-67762200D01*
X179416400Y-70362200D02*
X182076400Y-70362200D01*
X182076400Y-67762200D02*
X182076400Y-70362200D01*
%TO.C,J4*%
X182836000Y-41700000D02*
X182836000Y-40640000D01*
X183896000Y-41700000D02*
X182836000Y-41700000D01*
X184896000Y-41700000D02*
X184956000Y-41700000D01*
X184896000Y-41700000D02*
X184896000Y-39580000D01*
X184956000Y-41700000D02*
X184956000Y-39580000D01*
X184896000Y-39580000D02*
X184956000Y-39580000D01*
%TO.C,U3*%
X172406000Y-51570400D02*
X223326000Y-51570400D01*
X223326000Y-51570400D02*
X223326000Y-38650400D01*
X172406000Y-46110400D02*
X172406000Y-51570400D01*
X172406000Y-38650400D02*
X172406000Y-44110400D01*
X223326000Y-38650400D02*
X172406000Y-38650400D01*
X172406000Y-46110400D02*
G75*
G03*
X172406000Y-44110400I0J1000000D01*
G01*
%TO.C,J1*%
X168148000Y-84836000D02*
X166878000Y-84836000D01*
X168148000Y-83566000D02*
X168148000Y-84836000D01*
X165835071Y-81406000D02*
X165380929Y-81406000D01*
X165835071Y-80646000D02*
X165380929Y-80646000D01*
X165835071Y-78866000D02*
X165380929Y-78866000D01*
X165835071Y-78106000D02*
X165380929Y-78106000D01*
X165835071Y-76326000D02*
X165380929Y-76326000D01*
X165835071Y-75566000D02*
X165380929Y-75566000D01*
X165835071Y-73786000D02*
X165380929Y-73786000D01*
X165835071Y-73026000D02*
X165380929Y-73026000D01*
X165835071Y-71246000D02*
X165380929Y-71246000D01*
X165835071Y-70486000D02*
X165380929Y-70486000D01*
X165835071Y-68706000D02*
X165380929Y-68706000D01*
X165835071Y-67946000D02*
X165380929Y-67946000D01*
X165835071Y-66166000D02*
X165380929Y-66166000D01*
X165835071Y-65406000D02*
X165380929Y-65406000D01*
X165835071Y-63626000D02*
X165380929Y-63626000D01*
X165835071Y-62866000D02*
X165380929Y-62866000D01*
X165835071Y-61086000D02*
X165380929Y-61086000D01*
X165835071Y-60326000D02*
X165380929Y-60326000D01*
X165835071Y-58546000D02*
X165380929Y-58546000D01*
X165835071Y-57786000D02*
X165380929Y-57786000D01*
X165835071Y-56006000D02*
X165380929Y-56006000D01*
X165835071Y-55246000D02*
X165380929Y-55246000D01*
X165835071Y-53466000D02*
X165380929Y-53466000D01*
X165835071Y-52706000D02*
X165380929Y-52706000D01*
X165768000Y-83946000D02*
X165380929Y-83946000D01*
X165768000Y-83186000D02*
X165380929Y-83186000D01*
X163295071Y-83946000D02*
X162898000Y-83946000D01*
X163295071Y-83186000D02*
X162898000Y-83186000D01*
X163295071Y-81406000D02*
X162898000Y-81406000D01*
X163295071Y-80646000D02*
X162898000Y-80646000D01*
X163295071Y-78866000D02*
X162898000Y-78866000D01*
X163295071Y-78106000D02*
X162898000Y-78106000D01*
X163295071Y-76326000D02*
X162898000Y-76326000D01*
X163295071Y-75566000D02*
X162898000Y-75566000D01*
X163295071Y-73786000D02*
X162898000Y-73786000D01*
X163295071Y-73026000D02*
X162898000Y-73026000D01*
X163295071Y-71246000D02*
X162898000Y-71246000D01*
X163295071Y-70486000D02*
X162898000Y-70486000D01*
X163295071Y-68706000D02*
X162898000Y-68706000D01*
X163295071Y-67946000D02*
X162898000Y-67946000D01*
X163295071Y-66166000D02*
X162898000Y-66166000D01*
X163295071Y-65406000D02*
X162898000Y-65406000D01*
X163295071Y-63626000D02*
X162898000Y-63626000D01*
X163295071Y-62866000D02*
X162898000Y-62866000D01*
X163295071Y-61086000D02*
X162898000Y-61086000D01*
X163295071Y-60326000D02*
X162898000Y-60326000D01*
X163295071Y-58546000D02*
X162898000Y-58546000D01*
X163295071Y-57786000D02*
X162898000Y-57786000D01*
X163295071Y-56006000D02*
X162898000Y-56006000D01*
X163295071Y-55246000D02*
X162898000Y-55246000D01*
X163295071Y-53466000D02*
X162898000Y-53466000D01*
X163295071Y-52706000D02*
X162898000Y-52706000D01*
X162898000Y-84896000D02*
X162898000Y-51756000D01*
X162898000Y-82296000D02*
X160238000Y-82296000D01*
X162898000Y-79756000D02*
X160238000Y-79756000D01*
X162898000Y-77216000D02*
X160238000Y-77216000D01*
X162898000Y-74676000D02*
X160238000Y-74676000D01*
X162898000Y-72136000D02*
X160238000Y-72136000D01*
X162898000Y-69596000D02*
X160238000Y-69596000D01*
X162898000Y-67056000D02*
X160238000Y-67056000D01*
X162898000Y-64516000D02*
X160238000Y-64516000D01*
X162898000Y-61976000D02*
X160238000Y-61976000D01*
X162898000Y-59436000D02*
X160238000Y-59436000D01*
X162898000Y-56896000D02*
X160238000Y-56896000D01*
X162898000Y-54356000D02*
X160238000Y-54356000D01*
X162898000Y-51756000D02*
X160238000Y-51756000D01*
X160238000Y-84896000D02*
X162898000Y-84896000D01*
X160238000Y-83946000D02*
X154238000Y-83946000D01*
X160238000Y-83886000D02*
X154238000Y-83886000D01*
X160238000Y-83766000D02*
X154238000Y-83766000D01*
X160238000Y-83646000D02*
X154238000Y-83646000D01*
X160238000Y-83526000D02*
X154238000Y-83526000D01*
X160238000Y-83406000D02*
X154238000Y-83406000D01*
X160238000Y-83286000D02*
X154238000Y-83286000D01*
X160238000Y-81406000D02*
X154238000Y-81406000D01*
X160238000Y-78866000D02*
X154238000Y-78866000D01*
X160238000Y-76326000D02*
X154238000Y-76326000D01*
X160238000Y-73786000D02*
X154238000Y-73786000D01*
X160238000Y-71246000D02*
X154238000Y-71246000D01*
X160238000Y-68706000D02*
X154238000Y-68706000D01*
X160238000Y-66166000D02*
X154238000Y-66166000D01*
X160238000Y-63626000D02*
X154238000Y-63626000D01*
X160238000Y-61086000D02*
X154238000Y-61086000D01*
X160238000Y-58546000D02*
X154238000Y-58546000D01*
X160238000Y-56006000D02*
X154238000Y-56006000D01*
X160238000Y-53466000D02*
X154238000Y-53466000D01*
X160238000Y-51756000D02*
X160238000Y-84896000D01*
X154238000Y-83946000D02*
X154238000Y-83186000D01*
X154238000Y-83186000D02*
X160238000Y-83186000D01*
X154238000Y-81406000D02*
X154238000Y-80646000D01*
X154238000Y-80646000D02*
X160238000Y-80646000D01*
X154238000Y-78866000D02*
X154238000Y-78106000D01*
X154238000Y-78106000D02*
X160238000Y-78106000D01*
X154238000Y-76326000D02*
X154238000Y-75566000D01*
X154238000Y-75566000D02*
X160238000Y-75566000D01*
X154238000Y-73786000D02*
X154238000Y-73026000D01*
X154238000Y-73026000D02*
X160238000Y-73026000D01*
X154238000Y-71246000D02*
X154238000Y-70486000D01*
X154238000Y-70486000D02*
X160238000Y-70486000D01*
X154238000Y-68706000D02*
X154238000Y-67946000D01*
X154238000Y-67946000D02*
X160238000Y-67946000D01*
X154238000Y-66166000D02*
X154238000Y-65406000D01*
X154238000Y-65406000D02*
X160238000Y-65406000D01*
X154238000Y-63626000D02*
X154238000Y-62866000D01*
X154238000Y-62866000D02*
X160238000Y-62866000D01*
X154238000Y-61086000D02*
X154238000Y-60326000D01*
X154238000Y-60326000D02*
X160238000Y-60326000D01*
X154238000Y-58546000D02*
X154238000Y-57786000D01*
X154238000Y-57786000D02*
X160238000Y-57786000D01*
X154238000Y-56006000D02*
X154238000Y-55246000D01*
X154238000Y-55246000D02*
X160238000Y-55246000D01*
X154238000Y-53466000D02*
X154238000Y-52706000D01*
X154238000Y-52706000D02*
X160238000Y-52706000D01*
%TO.C,JP2*%
X183074000Y-65162200D02*
X184404000Y-65162200D01*
X183074000Y-66492200D02*
X183074000Y-65162200D01*
X183074000Y-67762200D02*
X183074000Y-70362200D01*
X183074000Y-67762200D02*
X185734000Y-67762200D01*
X183074000Y-70362200D02*
X185734000Y-70362200D01*
X185734000Y-67762200D02*
X185734000Y-70362200D01*
%TO.C,J7*%
X183648800Y-55937600D02*
X184708800Y-55937600D01*
X183648800Y-56997600D02*
X183648800Y-55937600D01*
X183648800Y-57997600D02*
X183648800Y-58057600D01*
X183648800Y-57997600D02*
X185768800Y-57997600D01*
X183648800Y-58057600D02*
X185768800Y-58057600D01*
X185768800Y-57997600D02*
X185768800Y-58057600D01*
%TO.C,J6*%
X182836000Y-50844000D02*
X182836000Y-49784000D01*
X183896000Y-50844000D02*
X182836000Y-50844000D01*
X184896000Y-50844000D02*
X184956000Y-50844000D01*
X184896000Y-50844000D02*
X184896000Y-48724000D01*
X184956000Y-50844000D02*
X184956000Y-48724000D01*
X184896000Y-48724000D02*
X184956000Y-48724000D01*
%TO.C,J9*%
X183648800Y-58985600D02*
X184708800Y-58985600D01*
X183648800Y-60045600D02*
X183648800Y-58985600D01*
X183648800Y-61045600D02*
X183648800Y-61105600D01*
X183648800Y-61045600D02*
X185768800Y-61045600D01*
X183648800Y-61105600D02*
X185768800Y-61105600D01*
X185768800Y-61045600D02*
X185768800Y-61105600D01*
%TO.C,J8*%
X183648800Y-62033600D02*
X184708800Y-62033600D01*
X183648800Y-63093600D02*
X183648800Y-62033600D01*
X183648800Y-64093600D02*
X183648800Y-64153600D01*
X183648800Y-64093600D02*
X185768800Y-64093600D01*
X183648800Y-64153600D02*
X185768800Y-64153600D01*
X185768800Y-64093600D02*
X185768800Y-64153600D01*
%TO.C,J3*%
X177756000Y-50844000D02*
X177756000Y-49784000D01*
X178816000Y-50844000D02*
X177756000Y-50844000D01*
X179816000Y-50844000D02*
X179876000Y-50844000D01*
X179816000Y-50844000D02*
X179816000Y-48724000D01*
X179876000Y-50844000D02*
X179876000Y-48724000D01*
X179816000Y-48724000D02*
X179876000Y-48724000D01*
%TD*%
M02*
