%TF.GenerationSoftware,KiCad,Pcbnew,7.0.9-7.0.9~ubuntu20.04.1*%
%TF.CreationDate,2023-12-26T21:31:22+01:00*%
%TF.ProjectId,6303_PLCC_Addon,36333033-5f50-44c4-9343-5f4164646f6e,rev?*%
%TF.SameCoordinates,Original*%
%TF.FileFunction,Soldermask,Top*%
%TF.FilePolarity,Negative*%
%FSLAX46Y46*%
G04 Gerber Fmt 4.6, Leading zero omitted, Abs format (unit mm)*
G04 Created by KiCad (PCBNEW 7.0.9-7.0.9~ubuntu20.04.1) date 2023-12-26 21:31:22*
%MOMM*%
%LPD*%
G01*
G04 APERTURE LIST*
%ADD10R,1.925000X0.700000*%
%ADD11R,0.700000X1.925000*%
%ADD12R,1.700000X1.700000*%
%ADD13O,1.700000X1.700000*%
%ADD14R,1.350000X1.350000*%
%ADD15R,1.600000X1.600000*%
%ADD16O,1.600000X1.600000*%
G04 APERTURE END LIST*
D10*
%TO.C,U1*%
X189577500Y-69922500D03*
X189577500Y-71192500D03*
X189577500Y-72462500D03*
X189577500Y-73732500D03*
X189577500Y-75002500D03*
X189577500Y-76272500D03*
X189577500Y-77542500D03*
X189577500Y-78812500D03*
X189577500Y-80082500D03*
D11*
X191090000Y-81595000D03*
X192360000Y-81595000D03*
X193630000Y-81595000D03*
X194900000Y-81595000D03*
X196170000Y-81595000D03*
X197440000Y-81595000D03*
X198710000Y-81595000D03*
X199980000Y-81595000D03*
X201250000Y-81595000D03*
X202520000Y-81595000D03*
X203790000Y-81595000D03*
X205060000Y-81595000D03*
X206330000Y-81595000D03*
X207600000Y-81595000D03*
X208870000Y-81595000D03*
X210140000Y-81595000D03*
X211410000Y-81595000D03*
D10*
X212922500Y-80082500D03*
X212922500Y-78812500D03*
X212922500Y-77542500D03*
X212922500Y-76272500D03*
X212922500Y-75002500D03*
X212922500Y-73732500D03*
X212922500Y-72462500D03*
X212922500Y-71192500D03*
X212922500Y-69922500D03*
X212922500Y-68652500D03*
X212922500Y-67382500D03*
X212922500Y-66112500D03*
X212922500Y-64842500D03*
X212922500Y-63572500D03*
X212922500Y-62302500D03*
X212922500Y-61032500D03*
X212922500Y-59762500D03*
D11*
X211410000Y-58250000D03*
X210140000Y-58250000D03*
X208870000Y-58250000D03*
X207600000Y-58250000D03*
X206330000Y-58250000D03*
X205060000Y-58250000D03*
X203790000Y-58250000D03*
X202520000Y-58250000D03*
X201250000Y-58250000D03*
X199980000Y-58250000D03*
X198710000Y-58250000D03*
X197440000Y-58250000D03*
X196170000Y-58250000D03*
X194900000Y-58250000D03*
X193630000Y-58250000D03*
X192360000Y-58250000D03*
X191090000Y-58250000D03*
D10*
X189577500Y-59762500D03*
X189577500Y-61032500D03*
X189577500Y-62302500D03*
X189577500Y-63572500D03*
X189577500Y-64842500D03*
X189577500Y-66112500D03*
X189577500Y-67382500D03*
X189577500Y-68652500D03*
%TD*%
D12*
%TO.C,JP1*%
X180746400Y-66492200D03*
D13*
X180746400Y-69032200D03*
%TD*%
D14*
%TO.C,J4*%
X183896000Y-40640000D03*
%TD*%
D15*
%TO.C,U3*%
X173736000Y-52730400D03*
D16*
X176276000Y-52730400D03*
X178816000Y-52730400D03*
X181356000Y-52730400D03*
X183896000Y-52730400D03*
X186436000Y-52730400D03*
X188976000Y-52730400D03*
X191516000Y-52730400D03*
X194056000Y-52730400D03*
X196596000Y-52730400D03*
X199136000Y-52730400D03*
X201676000Y-52730400D03*
X204216000Y-52730400D03*
X206756000Y-52730400D03*
X209296000Y-52730400D03*
X211836000Y-52730400D03*
X214376000Y-52730400D03*
X216916000Y-52730400D03*
X219456000Y-52730400D03*
X221996000Y-52730400D03*
X221996000Y-37490400D03*
X219456000Y-37490400D03*
X216916000Y-37490400D03*
X214376000Y-37490400D03*
X211836000Y-37490400D03*
X209296000Y-37490400D03*
X206756000Y-37490400D03*
X204216000Y-37490400D03*
X201676000Y-37490400D03*
X199136000Y-37490400D03*
X196596000Y-37490400D03*
X194056000Y-37490400D03*
X191516000Y-37490400D03*
X188976000Y-37490400D03*
X186436000Y-37490400D03*
X183896000Y-37490400D03*
X181356000Y-37490400D03*
X178816000Y-37490400D03*
X176276000Y-37490400D03*
X173736000Y-37490400D03*
%TD*%
D12*
%TO.C,J1*%
X166878000Y-83566000D03*
D13*
X164338000Y-83566000D03*
X166878000Y-81026000D03*
X164338000Y-81026000D03*
X166878000Y-78486000D03*
X164338000Y-78486000D03*
X166878000Y-75946000D03*
X164338000Y-75946000D03*
X166878000Y-73406000D03*
X164338000Y-73406000D03*
X166878000Y-70866000D03*
X164338000Y-70866000D03*
X166878000Y-68326000D03*
X164338000Y-68326000D03*
X166878000Y-65786000D03*
X164338000Y-65786000D03*
X166878000Y-63246000D03*
X164338000Y-63246000D03*
X166878000Y-60706000D03*
X164338000Y-60706000D03*
X166878000Y-58166000D03*
X164338000Y-58166000D03*
X166878000Y-55626000D03*
X164338000Y-55626000D03*
X166878000Y-53086000D03*
X164338000Y-53086000D03*
%TD*%
D12*
%TO.C,JP2*%
X184404000Y-66492200D03*
D13*
X184404000Y-69032200D03*
%TD*%
D14*
%TO.C,J7*%
X184708800Y-56997600D03*
%TD*%
%TO.C,J6*%
X183896000Y-49784000D03*
%TD*%
%TO.C,J9*%
X184708800Y-60045600D03*
%TD*%
%TO.C,J8*%
X184708800Y-63093600D03*
%TD*%
%TO.C,J3*%
X178816000Y-49784000D03*
%TD*%
M02*
