M48
; DRILL file {KiCad 7.0.9-7.0.9~ubuntu20.04.1} date Di 26 Dez 2023 21:31:24
; FORMAT={-:-/ absolute / metric / decimal}
; #@! TF.CreationDate,2023-12-26T21:31:24+01:00
; #@! TF.GenerationSoftware,Kicad,Pcbnew,7.0.9-7.0.9~ubuntu20.04.1
; #@! TF.FileFunction,MixedPlating,1,2
FMAT,2
METRIC
; #@! TA.AperFunction,Plated,PTH,ViaDrill
T1C0.400
; #@! TA.AperFunction,Plated,PTH,ComponentDrill
T2C0.800
; #@! TA.AperFunction,Plated,PTH,ComponentDrill
T3C1.000
%
G90
G05
T1
X175.768Y-82.804
X177.038Y-83.312
X178.308Y-83.566
X179.578Y-83.82
X180.848Y-84.074
X182.118Y-84.305
X183.134Y-84.836
X184.404Y-85.09
X185.454Y-85.344
X191.77Y-66.294
X191.77Y-65.024
X192.532Y-71.12
X192.988Y-74.168
X192.988Y-76.454
X193.802Y-55.626
X196.85Y-65.278
X197.866Y-64.262
X198.12Y-68.58
X199.919Y-85.249
X200.406Y-63.754
X202.438Y-85.09
X203.2Y-62.992
X203.708Y-84.836
X204.724Y-76.962
X204.978Y-84.328
X205.486Y-62.23
X206.248Y-84.074
X206.248Y-77.47
X207.759Y-77.47
X208.026Y-61.468
X208.534Y-76.2
X209.296Y-68.58
X209.296Y-60.706
X209.296Y-65.455
X209.55Y-75.184
X210.566Y-73.66
X211.328Y-72.644
X214.63Y-71.12
X215.138Y-79.502
X215.392Y-81.534
X215.392Y-82.804
X215.392Y-84.074
T2
X173.736Y-37.49
X173.736Y-52.73
X176.276Y-37.49
X176.276Y-52.73
X178.816Y-37.49
X178.816Y-49.784
X178.816Y-52.73
X181.356Y-37.49
X181.356Y-52.73
X183.896Y-37.49
X183.896Y-40.64
X183.896Y-49.784
X183.896Y-52.73
X184.709Y-56.998
X184.709Y-60.046
X184.709Y-63.094
X186.436Y-37.49
X186.436Y-52.73
X188.976Y-37.49
X188.976Y-52.73
X191.516Y-37.49
X191.516Y-52.73
X194.056Y-37.49
X194.056Y-52.73
X196.596Y-37.49
X196.596Y-52.73
X199.136Y-37.49
X199.136Y-52.73
X201.676Y-37.49
X201.676Y-52.73
X204.216Y-37.49
X204.216Y-52.73
X206.756Y-37.49
X206.756Y-52.73
X209.296Y-37.49
X209.296Y-52.73
X211.836Y-37.49
X211.836Y-52.73
X214.376Y-37.49
X214.376Y-52.73
X216.916Y-37.49
X216.916Y-52.73
X219.456Y-37.49
X219.456Y-52.73
X221.996Y-37.49
X221.996Y-52.73
T3
X164.338Y-53.086
X164.338Y-55.626
X164.338Y-58.166
X164.338Y-60.706
X164.338Y-63.246
X164.338Y-65.786
X164.338Y-68.326
X164.338Y-70.866
X164.338Y-73.406
X164.338Y-75.946
X164.338Y-78.486
X164.338Y-81.026
X164.338Y-83.566
X166.878Y-53.086
X166.878Y-55.626
X166.878Y-58.166
X166.878Y-60.706
X166.878Y-63.246
X166.878Y-65.786
X166.878Y-68.326
X166.878Y-70.866
X166.878Y-73.406
X166.878Y-75.946
X166.878Y-78.486
X166.878Y-81.026
X166.878Y-83.566
X180.746Y-66.492
X180.746Y-69.032
X184.404Y-66.492
X184.404Y-69.032
T0
M30
